<svg width="62" height="66" viewBox="0 0 62 66" version="1.1" xmlns="http://www.w3.org/2000/svg" xmlns:xlink="http://www.w3.org/1999/xlink">
<title>logo</title>
<desc>Created using Figma</desc>
<g id="Canvas" transform="translate(-2877 -130)">
<g id="logo">
<g id="Path">
<use xlink:href="#path0_fill" transform="translate(2903.43 130)" fill="#FFFFFF"/>
</g>
<g id="Path">
<use xlink:href="#path1_fill" transform="translate(2877 130)" fill="#FFFFFF"/>
</g>
<g id="Path Copy">
<use xlink:href="#path2_fill" transform="translate(2917.86 130)" fill="#FFFFFF"/>
</g>
</g>
</g>
<defs>
<path id="path0_fill" fill-rule="evenodd" d="M 0 0L 5.35196 0L 5.35196 65.394L 0 65.394L 0 0Z"/>
<path id="path1_fill" fill-rule="evenodd" d="M 0 0L 5.35196 0L 5.35196 60.3678L 20.412 60.3678L 20.412 65.394L 0 65.394L 0 0Z"/>
<path id="path2_fill" fill-rule="evenodd" d="M 0 0L 20.412 0L 20.412 4.78474L 5.35196 4.78474L 5.35196 30.2553L 16.3981 30.2553L 16.3981 35.4124L 5.35196 35.4124L 5.35196 60.3678L 20.412 60.3678L 20.412 65.394L 0 65.394L 0 0Z"/>
</defs>
</svg>
