<?xml version="1.0" standalone="no"?>
<!DOCTYPE svg PUBLIC "-//W3C//DTD SVG 1.1//EN" "http://www.w3.org/Graphics/SVG/1.1/DTD/svg11.dtd" >
<svg xmlns="http://www.w3.org/2000/svg" xmlns:xlink="http://www.w3.org/1999/xlink" version="1.1">
<metadata>
Created by FontForge 20170731 at Mon May  7 09:28:14 2007
 By Aleksey,,,
Copr.1989, 1990, 1991, 1992, 1993 The Font Bureau, Inc.
</metadata>
<defs>
<font id="BureauGrotesque-SevenNine" horiz-adv-x="792" >
  <font-face 
    font-family="BureauGrotesque SevenNine"
    font-weight="500"
    font-stretch="normal"
    units-per-em="1000"
    panose-1="0 0 0 0 0 0 0 0 0 0"
    ascent="800"
    descent="-200"
    x-height="532"
    cap-height="768"
    bbox="-160 -241 1745 997"
    underline-thickness="25"
    underline-position="-181"
    unicode-range="U+0020-FB02"
  />
<missing-glyph horiz-adv-x="500" 
 />
    <glyph glyph-name=".notdef" horiz-adv-x="500" 
 />
    <glyph glyph-name=".null" horiz-adv-x="0" 
 />
    <glyph glyph-name="nonmarkingreturn" horiz-adv-x="333" 
 />
    <glyph glyph-name="space" unicode=" " horiz-adv-x="450" 
 />
    <glyph glyph-name="exclam" unicode="!" horiz-adv-x="342" 
d="M269 494l-41 -250h-114l-41 250v274h196v-274zM259 0h-176v167h176v-167z" />
    <glyph glyph-name="quotedbl" unicode="&#x22;" horiz-adv-x="557" 
d="M506 768l-42 -312h-119l-36 312h197zM250 768l-42 -312h-119l-36 312h197z" />
    <glyph glyph-name="numbersign" unicode="#" horiz-adv-x="1006" 
d="M1011 630l-68 -168h-228l-61 -161h223l-68 -168h-217l-64 -174h-112l64 174h-157l-63 -174h-112l64 174h-217l67 168h213l61 161h-207l67 168h203l67 178h112l-67 -178h155l68 178h112l-68 -178h233zM603 462h-155l-62 -161h156z" />
    <glyph glyph-name="dollar" unicode="$" horiz-adv-x="848" 
d="M788 233q0 -57 -20.5 -102t-51.5 -71.5t-71 -44t-75.5 -23.5t-68.5 -5v-60h-140v63q-78 8 -137.5 30t-93 52.5t-50 64.5t-16.5 70q0 15 1 19l193 25q-1 -3 -1 -11q0 -43 29 -70t75 -36v179q-11 2 -29.5 7t-65 25.5t-82 46t-65 72t-29.5 101.5q0 54 25 95.5t66.5 66
t86.5 38t93 16.5v48h140v-50q43 -2 96 -19.5t83 -40.5q72 -55 72 -135q0 -13 -1 -18l-179 -26q2 12 2 21q0 25 -17 47q-9 12 -23 21t-24 13l-9 3v-173l22 -6q50 -13 81.5 -23.5t70 -29.5t60.5 -41.5t37.5 -58t15.5 -80.5zM361 505v144q-32 -11 -50.5 -26.5t-18.5 -43.5
q0 -51 69 -74zM581 200q0 30 -18.5 47.5t-61.5 29.5v-148q80 10 80 71z" />
    <glyph glyph-name="percent" unicode="%" horiz-adv-x="1225" 
d="M1194 193q0 -95 -72.5 -152t-182.5 -57q-112 0 -184.5 57t-72.5 152q0 114 74 175.5t183 61.5t182 -61.5t73 -175.5zM917 768l-463 -768h-143l463 768h143zM543 546q0 -94 -72.5 -151t-182.5 -57q-112 0 -184.5 57t-72.5 151q0 115 74 176.5t183 61.5t182 -61.5
t73 -176.5zM1033 202q0 62 -23.5 103.5t-70.5 41.5q-48 0 -72 -41.5t-24 -103.5q0 -55 23 -94t73 -39q44 0 69 40.5t25 92.5zM382 556q0 62 -23.5 103.5t-70.5 41.5q-48 0 -72 -41.5t-24 -103.5q0 -55 23.5 -94t72.5 -39q44 0 69 40t25 93z" />
    <glyph glyph-name="ampersand" unicode="&#x26;" horiz-adv-x="964" 
d="M915 181q0 -28 -3.5 -53t-13.5 -52.5t-26.5 -47t-45 -32t-65.5 -12.5q-68 0 -111 20.5t-82 65.5q-99 -86 -238 -86q-123 -1 -208 67t-85 184q0 59 28 107.5t68.5 75.5t80.5 45.5t68 24.5l29 7q-19 51 -19 105q0 90 63 137t177 47q93 0 144 -41.5t51 -111.5
q0 -36 -21 -66.5t-51 -48.5t-60.5 -31.5t-51.5 -18.5l-21 -5q20 -43 56 -104q13 -22 29.5 -46t26.5 -37l9 -13q49 63 75 107q12 21 27 52.5l25 52.5l9 21h104q-39 -90 -85 -170q-51 -91 -97 -134q15 -20 38.5 -38t44.5 -18q56 0 56 96q0 11 -2 39h69q8 -39 8 -88zM621 636
q0 24 -16 39.5t-48 15.5q-34 0 -55.5 -20.5t-21.5 -46.5q0 -59 14 -89q65 23 96 45t31 56zM493 145q-49 63 -81 115q-20 35 -37.5 72t-24.5 56l-8 20q-3 -1 -8 -3t-18 -12.5t-22.5 -25t-17.5 -41.5t-8 -60q0 -71 34.5 -106.5t94.5 -35.5q24 0 48 5t36 11z" />
    <glyph glyph-name="quotesingle" unicode="'" horiz-adv-x="315" 
d="M256 768l-41 -312h-119l-37 312h197z" />
    <glyph glyph-name="parenleft" unicode="(" horiz-adv-x="386" 
d="M376 -218l-36 -23q-136 82 -213.5 223.5t-77.5 307.5q0 161 80 293.5t211 211.5l36 -25q-88 -123 -123.5 -226.5t-35.5 -253.5q0 -154 35 -269.5t124 -238.5z" />
    <glyph glyph-name="parenright" unicode=")" horiz-adv-x="386" 
d="M341 290q0 -166 -77.5 -307.5t-213.5 -223.5l-37 23q89 123 124.5 238.5t35.5 269.5q0 150 -35.5 253.5t-124.5 226.5l37 25q131 -79 211 -211.5t80 -293.5z" />
    <glyph glyph-name="asterisk" unicode="*" horiz-adv-x="561" 
d="M501 508l-61 -103l-114 81l18 -139h-121l12 139l-114 -83l-58 105l127 57l-128 57l59 102l114 -80l-15 138h120l-14 -138l113 83l60 -105l-127 -57z" />
    <glyph glyph-name="plus" unicode="+" horiz-adv-x="619" 
d="M567 269h-180v-184h-158v184h-177v148h177v183h158v-183h180v-148z" />
    <glyph glyph-name="comma" unicode="," horiz-adv-x="342" 
d="M259 0q0 -75 -33 -111q-39 -42 -93 -42q-27 0 -54 12l19 66q13 -5 23 -5q22 0 36.5 14t14.5 42l-2 24h-108v167h197v-167z" />
    <glyph glyph-name="hyphen" unicode="-" horiz-adv-x="557" 
d="M484 259h-411v168h411v-168z" />
    <glyph glyph-name="period" unicode="." horiz-adv-x="342" 
d="M269 0h-196v167h196v-167z" />
    <glyph glyph-name="slash" unicode="/" horiz-adv-x="444" 
d="M437 809l-318 -850h-112l318 850h112z" />
    <glyph glyph-name="zero" unicode="0" horiz-adv-x="891" 
d="M845 369q0 -169 -104.5 -277t-293.5 -108q-190 0 -295 108t-105 277q0 129 53.5 224.5t143.5 143t202 47.5t201.5 -47.5t143.5 -143t54 -224.5zM609 382q0 64 -15.5 119.5t-53.5 96t-94 40.5t-94.5 -40.5t-53.5 -96t-15 -119.5q0 -114 40.5 -181.5t123.5 -67.5t123 67.5
t39 181.5z" />
    <glyph glyph-name="one" unicode="1" horiz-adv-x="590" 
d="M497 0h-233v507h-239v127q69 0 156 12t131 42q51 35 51 86h134v-774z" />
    <glyph glyph-name="two" unicode="2" horiz-adv-x="864" 
d="M803 0h-725l-12 146q10 4 28 11.5t69 31t97.5 47.5t103.5 59.5t98 69.5t69 74.5t28 76.5q0 59 -38 94.5t-117 35.5q-63 0 -95 -35t-32 -89q0 -16 6.5 -40.5t13.5 -40.5l7 -16l-207 -25q-33 59 -33 145q0 64 29 110.5t82 74t120 40.5t151 14q94 1 172.5 -23.5t131 -80
t52.5 -135.5q0 -105 -115 -209t-286 -161l402 13v-188z" />
    <glyph glyph-name="three" unicode="3" horiz-adv-x="822" 
d="M786 223q0 -121 -102 -180t-272 -59q-169 0 -267.5 56t-98.5 158q0 10 2.5 24.5t5.5 23.5l2 10l205 16q-5 -22 -5 -36q0 -51 36.5 -78t104.5 -27q77 0 112.5 24.5t35.5 78.5q0 44 -40 68t-113 24l-135 -4v133q80 -4 132 -4q68 0 99 27.5t31 67.5q0 42 -27.5 71t-95.5 29
q-61 0 -94 -23.5t-33 -68.5l8 -42l-205 16q-10 32 -10 52q0 57 30.5 98.5t83.5 63.5t112 32t128 10q158 0 251 -58.5t93 -160.5q0 -43 -12 -73.5t-36.5 -49.5t-48.5 -29.5t-61 -20.5q85 -15 134.5 -52.5t49.5 -116.5z" />
    <glyph glyph-name="four" unicode="4" horiz-adv-x="842" 
d="M809 126h-142v-126h-212v126h-429v163l454 479h187v-495h142v-147zM455 273v249l-226 -249h226z" />
    <glyph glyph-name="five" unicode="5" horiz-adv-x="843" 
d="M800 254q0 -132 -108 -201t-278 -69q-177 0 -272.5 56.5t-95.5 151.5q0 14 3 27.5t5 20.5l3 7l224 15q-5 -25 -5 -41q0 -52 35 -81t103 -29q71 0 109.5 36t38.5 104q0 69 -42.5 112t-105.5 43q-29 0 -52.5 -8.5t-36 -20t-21 -23.5t-10.5 -20l-3 -9l-207 30l54 413h600
l-15 -146h-389l-31 -158q1 2 4.5 6.5t16.5 15t29.5 18.5t47.5 14.5t68 6.5q149 -1 240 -69.5t91 -201.5z" />
    <glyph glyph-name="six" unicode="6" horiz-adv-x="841" 
d="M794 263q0 -90 -50 -155t-127 -94.5t-171 -29.5q-187 1 -295 101t-108 284q0 115 47.5 208t142 149.5t220.5 57.5q70 0 125 -12t86.5 -32t53.5 -44t30 -48t11.5 -43.5t2.5 -32.5l-2 -12l-219 -16q3 18 3 29q-3 84 -105 84q-46 0 -78 -18t-49 -49.5t-24 -66t-7 -76.5v-15
q73 68 201 68q138 0 225 -63.5t87 -173.5zM570 247q1 60 -42 97t-104 37q-68 0 -108.5 -35t-39.5 -99q1 -57 42 -91t106 -34q58 0 101.5 35t44.5 90z" />
    <glyph glyph-name="seven" unicode="7" horiz-adv-x="748" 
d="M710 602q-44 -33 -93.5 -91t-82.5 -117q-76 -137 -76 -314q0 -37 5 -80h-246q-5 128 19.5 219.5t91.5 198.5q21 33 58.5 76t65.5 70l27 26h-452v178h683v-166z" />
    <glyph glyph-name="eight" unicode="8" horiz-adv-x="789" 
d="M758 206q0 -59 -30.5 -104t-82.5 -70t-114 -36.5t-133 -11.5t-132.5 12t-114 37t-83 69.5t-30.5 103.5q0 47 17 85t41.5 57.5t49 32.5t41.5 17l17 4q-5 1 -13.5 3t-30 13t-37.5 27t-29.5 47.5t-13.5 72.5q0 96 82.5 157t235.5 62q152 1 235 -60.5t83 -158.5
q0 -41 -13 -72.5t-31 -48t-36 -27t-31 -13.5l-13 -2q7 -1 18 -4t39.5 -16.5t50.5 -33t40 -57.5t18 -85zM507 548q0 40 -31.5 69t-77.5 29q-49 0 -79 -29t-30 -69q0 -44 32 -67.5t77 -23.5t77 23.5t32 67.5zM533 232q0 50 -39 80.5t-97 30.5q-59 0 -96.5 -30t-37.5 -81
q0 -48 38.5 -77.5t96.5 -29.5q62 0 98.5 29t36.5 78z" />
    <glyph glyph-name="nine" unicode="9" horiz-adv-x="817" 
d="M773 397q0 -192 -101 -302.5t-292 -110.5q-160 0 -239.5 56t-79.5 148q0 7 1 15l203 16q0 -108 125 -108q152 0 152 207q0 21 -1 30q-71 -76 -216 -76q-119 0 -197 62t-78 171q0 131 99 205t239 74q185 -2 285 -101.5t100 -285.5zM542 515q0 53 -41 88t-97 35t-98.5 -35
t-42.5 -88q0 -58 39 -96.5t102 -38.5q57 0 97.5 39.5t40.5 95.5z" />
    <glyph glyph-name="colon" unicode=":" horiz-adv-x="342" 
d="M269 321h-196v167h196v-167zM269 0h-196v167h196v-167z" />
    <glyph glyph-name="semicolon" unicode=";" horiz-adv-x="342" 
d="M269 321h-196v167h196v-167zM269 0q0 -75 -33 -111q-39 -42 -93 -42q-27 0 -54 12l19 66q13 -5 23 -5q22 0 36.5 14t14.5 42l-2 24h-107v167h196v-167z" />
    <glyph glyph-name="less" unicode="&#x3c;" horiz-adv-x="469" 
d="M414 72l-373 232v100l373 246v-166l-215 -125l215 -122v-165z" />
    <glyph glyph-name="equal" unicode="=" horiz-adv-x="619" 
d="M546 391h-473v147h473v-147zM546 148h-473v147h473v-147z" />
    <glyph glyph-name="greater" unicode="&#x3e;" horiz-adv-x="469" 
d="M428 304l-372 -232v165l214 122l-214 125v166l372 -246v-100z" />
    <glyph glyph-name="question" unicode="?" horiz-adv-x="678" 
d="M648 565q0 -20 -7 -39t-12.5 -30.5t-25 -29.5t-25.5 -22.5t-33.5 -24t-30.5 -21.5q-10 -7 -32.5 -21.5t-38 -25.5t-26.5 -23q-24 -22 -24 -47l6 -37h-171q-24 21 -24 69q0 60 38 101q9 10 22 20t21 16t27.5 18.5t25.5 16.5q60 38 77 58.5t17 51.5q0 26 -24 42t-66 16
q-52 0 -79 -22t-27 -58q0 -44 20 -74l-205 22q-13 47 -13 76q0 94 66.5 140.5t222.5 46.5q152 0 236.5 -58t84.5 -161zM396 0h-176v167h176v-167z" />
    <glyph glyph-name="at" unicode="@" horiz-adv-x="1080" 
d="M1033 370q0 -151 -79.5 -243t-191.5 -92q-37 0 -66.5 10t-45 23.5t-25.5 27.5t-13 24l-3 10q-3 -4 -7.5 -10.5t-22 -22.5t-37 -28.5t-51 -23t-64.5 -10.5q-71 0 -115.5 28.5t-44.5 91.5q0 162 228 198q34 5 118 11q10 1 11 7l6 41q4 30 -11 51t-51 21q-50 0 -68 -21
t-18 -47l2 -21l-146 -21q-2 12 -2 30q0 20 4 39.5t19.5 45.5t41.5 45t74 32.5t112 13.5q114 0 166 -52.5t42 -116.5l-45 -255q-4 -24 11.5 -35t41.5 -11q56 0 104.5 67.5t48.5 191.5q0 109 -60 190t-152 120t-199 39q-173 0 -293 -127t-120 -304q0 -179 124 -294.5
t307 -115.5q86 0 135.5 15.5t125.5 72.5l42 -52q-79 -61 -146 -83.5t-163 -22.5q-141 0 -257.5 61t-184.5 171.5t-68 248.5q0 209 146 352.5t364 143.5q209 0 342.5 -112.5t133.5 -301.5zM610 302q-82 0 -133 -30.5t-51 -82.5q0 -53 57 -53q31 0 54.5 10.5t35.5 25.5t17 26
t6 18q10 61 14 86z" />
    <glyph glyph-name="A" unicode="A" horiz-adv-x="869" 
d="M839 0h-252l-30 102h-265l-32 -102h-230l285 768h253zM522 238l-93 316l-100 -316h193z" />
    <glyph glyph-name="B" unicode="B" horiz-adv-x="931" 
d="M884 203q0 -52 -24.5 -92.5t-65.5 -64t-89.5 -35t-101.5 -11.5h-510v768h482q104 0 182 -54.5t78 -148.5q0 -46 -18 -81t-43.5 -52.5t-51.5 -28t-44 -12.5l-18 -2h13t31 -3.5t44.5 -9.5t47 -20t44.5 -33t31.5 -50t12.5 -70zM606 528q0 35 -23.5 56.5t-58.5 21.5h-198
v-155h198q34 0 58 21.5t24 55.5zM630 244q0 33 -26.5 56t-62.5 23h-215v-161h215q38 0 63.5 21t25.5 61z" />
    <glyph glyph-name="C" unicode="C" horiz-adv-x="898" 
d="M849 245q0 -130 -94.5 -195.5t-271.5 -65.5q-195 0 -315.5 108t-120.5 280q0 97 35 176t96.5 130t142.5 78.5t173 27.5q77 0 137.5 -16t96.5 -40.5t59 -57.5t31.5 -63.5t8.5 -62.5q0 -22 -3 -38l-187 -31q3 17 3 35q0 57 -36 96t-120 38q-87 0 -136.5 -79t-49.5 -183
q0 -112 48.5 -183t137.5 -72q90 -1 132.5 44.5t42.5 120.5q0 29 -3 47l181 -17q12 -42 12 -77z" />
    <glyph glyph-name="D" unicode="D" horiz-adv-x="939" 
d="M892 358q0 -145 -97 -251.5t-238 -106.5h-464v768h418q169 0 275 -108t106 -302zM647 382q0 101 -45.5 162.5t-126.5 61.5h-149v-439h149q82 0 127.5 54.5t44.5 160.5z" />
    <glyph glyph-name="E" unicode="E" horiz-adv-x="860" 
d="M815 0h-722v768h676v-162h-443v-143h385v-152h-385v-144h489v-167z" />
    <glyph glyph-name="F" unicode="F" horiz-adv-x="795" 
d="M752 606h-426v-141h351v-161h-351v-304h-233v768h659v-162z" />
    <glyph glyph-name="G" unicode="G" horiz-adv-x="933" 
d="M859 0h-72l-41 112q-3 -5 -10 -13.5t-33 -31t-56 -39t-81 -30.5t-108 -14q-203 0 -307 103.5t-104 284.5q0 83 30 157t85.5 131t141 90.5t190.5 33.5q77 0 139 -19t100 -48t64 -67t37.5 -72t14.5 -68l-204 -24q-4 33 -12 57.5t-24.5 49.5t-48 38t-76.5 13
q-90 0 -138 -71.5t-48 -190.5q0 -130 48.5 -187.5t149.5 -58.5q76 -1 118 33t42 94v17h-125v127h328v-407z" />
    <glyph glyph-name="H" unicode="H" horiz-adv-x="981" 
d="M888 0h-233v324h-329v-324h-233v768h233v-282h329v282h233v-768z" />
    <glyph glyph-name="I" unicode="I" horiz-adv-x="419" 
d="M326 0h-233v768h233v-768z" />
    <glyph glyph-name="J" unicode="J" horiz-adv-x="737" 
d="M650 251q0 -140 -76 -203.5t-221 -63.5q-87 0 -150.5 21.5t-99 60t-51.5 86t-16 105.5q0 24 5 58t10 56l5 22l204 22q-20 -75 -20 -128q0 -86 23.5 -121t71.5 -35q37 0 59 22.5t22 69.5v545h234v-517z" />
    <glyph glyph-name="K" unicode="K" horiz-adv-x="920" 
d="M878 0h-255l-147 306l-150 -179v-127h-233v768h233v-376l284 376h261l-243 -285z" />
    <glyph glyph-name="L" unicode="L" horiz-adv-x="776" 
d="M744 0h-651v768h233v-601h418v-167z" />
    <glyph glyph-name="M" unicode="M" horiz-adv-x="1157" 
d="M1064 0h-215v568l-182 -568h-177l-181 568v-568h-216v768h331l156 -450l158 450h326v-768z" />
    <glyph glyph-name="N" unicode="N" horiz-adv-x="964" 
d="M871 0h-246l-316 467v-467h-216v768h265l297 -452v452h216v-768z" />
    <glyph glyph-name="O" unicode="O" horiz-adv-x="964" 
d="M917 369q0 -170 -119.5 -277.5t-314.5 -107.5t-315.5 107t-120.5 278q0 96 36.5 176t98 131.5t139 79.5t161.5 28t161.5 -28t139 -79.5t98 -131.5t36.5 -176zM666 382q0 103 -48.5 182.5t-135.5 79.5t-135.5 -79.5t-48.5 -182.5q0 -113 48.5 -184t136.5 -71t136 71
t47 184z" />
    <glyph glyph-name="P" unicode="P" horiz-adv-x="890" 
d="M850 497q0 -118 -73 -188.5t-216 -70.5h-235v-238h-233v768h479q135 0 206.5 -75t71.5 -196zM624 504q0 46 -25.5 74t-77.5 28h-195v-206h183q55 0 85 26.5t30 77.5z" />
    <glyph glyph-name="Q" unicode="Q" horiz-adv-x="964" 
d="M920 -27q0 -21 -5 -40.5t-22.5 -43.5t-46 -41t-81 -28.5t-121.5 -11.5q-72 0 -127 11.5t-84.5 28.5t-48 40t-23.5 41.5t-5 37.5l4 32q-139 30 -226 130t-87 240q0 96 36.5 176t97.5 131.5t139 79.5t162 28t162 -28t139 -79.5t97.5 -131.5t36.5 -176q0 -150 -99 -256
t-251 -122l-28 -3q-3 -7 -3 -16q0 -54 113 -53q65 1 90 23.5t25 51.5l-3 22h152q7 -18 7 -43zM666 374q0 68 -18.5 127.5t-62 101t-103.5 41.5t-103.5 -42t-62 -101.5t-18.5 -126.5q0 -114 47.5 -189t137.5 -75t137 74.5t46 189.5z" />
    <glyph glyph-name="R" unicode="R" horiz-adv-x="931" 
d="M882 0h-259q-27 41 -49 145q-6 33 -20 86q-6 23 -18.5 32.5t-37.5 9.5h-172v-273h-233v768h499q132 0 208.5 -65t76.5 -168q0 -86 -54 -138.5t-146 -61.5q33 -2 58.5 -20.5t41.5 -49.5t25 -60t17 -66q7 -36 23.5 -79.5t39.5 -59.5zM632 514q0 92 -111 92h-195v-181h195
q111 0 111 89z" />
    <glyph glyph-name="S" unicode="S" horiz-adv-x="901" 
d="M851 233q0 -112 -86 -180.5t-274 -68.5q-98 0 -174 14.5t-125 39t-81.5 59.5t-47 72t-17.5 80l213 25q19 -148 207 -148q72 0 103.5 21t31.5 53q0 35 -34.5 57.5t-147.5 47.5l-62 14q-280 64 -280 246q0 72 50.5 122.5t132 73.5t185.5 23q79 0 141 -14t99.5 -34.5
t64.5 -51.5t39.5 -57.5t21.5 -60.5l-208 -27q-11 54 -46.5 83.5t-118.5 29.5q-62 0 -90.5 -23t-28.5 -50q0 -34 29.5 -50.5t107.5 -33.5l74 -16q168 -38 244.5 -91t76.5 -155z" />
    <glyph glyph-name="T" unicode="T" horiz-adv-x="803" 
d="M787 601h-270v-601h-232v601h-269v167h771v-167z" />
    <glyph glyph-name="U" unicode="U" horiz-adv-x="953" 
d="M866 275q0 -291 -389 -291q-390 0 -390 291v493h233v-465q0 -94 41 -128.5t116 -34.5q71 0 113.5 40.5t42.5 126.5v461h233v-493z" />
    <glyph glyph-name="V" unicode="V" horiz-adv-x="889" 
d="M859 768l-296 -768h-253l-280 768h244l173 -516l179 516h233z" />
    <glyph glyph-name="W" unicode="W" horiz-adv-x="1337" 
d="M1307 768l-285 -768h-224l-124 442l-125 -442h-234l-285 768h244l142 -476l142 476h232l142 -474l142 474h233z" />
    <glyph glyph-name="X" unicode="X" horiz-adv-x="936" 
d="M906 0h-271l-176 241l-166 -241h-263l292 400l-260 368h283l135 -208l149 208h269l-287 -364z" />
    <glyph glyph-name="Y" unicode="Y" horiz-adv-x="906" 
d="M881 768l-312 -517v-251h-233v251l-311 517h278l154 -313l161 313h263z" />
    <glyph glyph-name="Z" unicode="Z" horiz-adv-x="845" 
d="M786 0h-732v137l426 456h-398v175h690v-136l-400 -457h414v-175z" />
    <glyph glyph-name="bracketleft" unicode="[" horiz-adv-x="411" 
d="M353 -180h-280v948h280v-119h-105v-710h105v-119z" />
    <glyph glyph-name="backslash" unicode="\" horiz-adv-x="444" 
d="M437 -41h-112l-318 850h112z" />
    <glyph glyph-name="bracketright" unicode="]" horiz-adv-x="411" 
d="M338 -180h-281v119h106v710h-106v119h281v-948z" />
    <glyph glyph-name="asciicircum" unicode="^" horiz-adv-x="615" 
d="M507 543h-129l-76 148l-77 -148h-129l124 237h163z" />
    <glyph glyph-name="underscore" unicode="_" horiz-adv-x="518" 
d="M518 -207h-518v137h518v-137z" />
    <glyph glyph-name="grave" unicode="`" horiz-adv-x="732" 
d="M458 602h-110l-174 166h178z" />
    <glyph glyph-name="a" unicode="a" horiz-adv-x="712" 
d="M703 29q-49 -35 -120 -35q-35 0 -60 9.5t-37 26.5t-16.5 28.5t-7.5 28.5q-14 -22 -25 -35t-34 -30t-60 -25.5t-88 -8.5q-211 0 -211 143q0 85 74.5 130.5t233.5 63.5q16 2 34 3.5t29 3t15 1.5v44q0 75 -85 75q-87 0 -87 -56l7 -37l-160 -21q-14 35 -14 65q0 82 61.5 115
t194.5 33q274 0 274 -175v-257q0 -25 14.5 -39.5t37.5 -14.5l22 4zM430 175v90l-29 -2q-72 -5 -116.5 -32.5t-44.5 -76.5q0 -28 20.5 -45.5t56.5 -17.5q56 0 84.5 26t28.5 58z" />
    <glyph glyph-name="b" unicode="b" horiz-adv-x="733" 
d="M692 251q0 -113 -69 -188t-192 -75q-87 0 -140 26t-81 83l-8 18l-75 -115h-54v768h196v-307q57 90 168 90q255 0 255 -300zM478 248q0 81 -25.5 136.5t-83.5 55.5q-55 0 -80.5 -58t-25.5 -134q0 -80 26 -127.5t80 -46.5q53 1 81 51t28 123z" />
    <glyph glyph-name="c" unicode="c" horiz-adv-x="679" 
d="M639 177q0 -86 -67.5 -137.5t-195.5 -51.5q-153 0 -244 64.5t-91 190.5q0 147 93.5 227.5t241.5 80.5q71 0 121.5 -17.5t76.5 -47t37.5 -62t11.5 -69.5q0 -17 -1 -25l-150 -18q0 2 0.5 7t0.5 8q0 46 -23 79.5t-74 33.5q-60 0 -90 -53.5t-30 -131.5q0 -74 31.5 -115.5
t88.5 -41.5q144 0 144 119l-1 20l110 -8q10 -31 10 -52z" />
    <glyph glyph-name="d" unicode="d" horiz-adv-x="734" 
d="M661 0h-197v68l-17 -18q-58 -62 -158 -62q-128 0 -188 73.5t-60 189.5q0 147 70.5 223.5t191.5 76.5q113 0 161 -90v307h197v-768zM471 258q0 72 -26.5 127t-79.5 55q-58 0 -83.5 -51t-25.5 -131q0 -72 28 -119t81 -47q106 0 106 166z" />
    <glyph glyph-name="e" unicode="e" horiz-adv-x="692" 
d="M644 143q0 -67 -63 -111t-205 -44q-153 0 -244 67.5t-91 187.5q0 147 93.5 227.5t241.5 80.5q133 0 200 -62t67 -161q0 -16 -3.5 -38.5t-7.5 -37.5l-3 -15h-378q0 -138 137 -138q127 0 132 91l120 -9q4 -25 4 -38zM463 348q0 42 -23 67t-71 25q-60 0 -86 -36.5t-28 -90.5
h203q5 20 5 35z" />
    <glyph glyph-name="f" unicode="f" horiz-adv-x="459" 
d="M450 437h-136v-437h-192v437h-101v95h108q-25 40 -25 100q0 69 48.5 110.5t136.5 41.5q156 0 156 -127q0 -16 -2.5 -32t-4.5 -24l-3 -8l-106 -13q5 34 5 55q0 60 -40 60t-40 -51q0 -28 9 -56t18 -42l9 -14h160v-95z" />
    <glyph glyph-name="g" unicode="g" horiz-adv-x="712" 
d="M699 -31q0 -86 -82.5 -131.5t-241.5 -44.5q-54 0 -90 1t-76 3.5t-65 7t-50 12.5t-38.5 19.5t-21.5 28t-8 37.5q0 28 32.5 51t76.5 36q-101 17 -101 113q0 46 39.5 79t99.5 50q-57 24 -82 55.5t-25 79.5t26.5 84t70 56.5t92 30.5t99.5 10q84 0 147 -24l42 140h137
l-129 -162q92 -50 92 -135q0 -57 -45 -97t-108 -56.5t-136 -16.5q-90 0 -137 16q-29 -21 -29 -43q0 -28 40 -34.5t180 0.5q291 13 291 -166zM448 366q0 35 -28 59t-66 24q-39 0 -68 -23.5t-28 -59.5q1 -34 29.5 -55t66.5 -21q37 0 65.5 21t28.5 55zM512 -76q0 44 -55 44
q-101 0 -164 2l-106 9q-27 -19 -27 -47q0 -30 36.5 -42t129.5 -12q110 0 148 10.5t38 35.5z" />
    <glyph glyph-name="h" unicode="h" horiz-adv-x="750" 
d="M688 0h-197v286q0 119 -106 119q-53 0 -84.5 -31t-31.5 -88v-286h-196v768h196v-350q44 129 202 129q97 0 157 -48.5t60 -150.5v-348z" />
    <glyph glyph-name="i" unicode="i" horiz-adv-x="342" 
d="M269 601h-196v167h196v-167zM269 0h-196v532h196v-532z" />
    <glyph glyph-name="j" unicode="j" horiz-adv-x="353" 
d="M280 601h-197v167h197v-167zM280 -20q0 -89 -50.5 -138t-143.5 -49q-78 0 -117 32.5t-39 91.5q0 14 2.5 29t5.5 22l2 8l105 13q-5 -26 -5 -43q0 -65 41 -65q39 0 39 43q0 36 -18 88q-19 57 -19 102v418h197v-552z" />
    <glyph glyph-name="k" unicode="k" horiz-adv-x="745" 
d="M721 0h-216l-129 220l-107 -107v-113h-196v768h196v-447l205 211h228l-182 -188z" />
    <glyph glyph-name="l" unicode="l" horiz-adv-x="342" 
d="M269 0h-196v768h196v-768z" />
    <glyph glyph-name="m" unicode="m" horiz-adv-x="1129" 
d="M1067 0h-196v286q0 119 -102 119q-101 0 -101 -119v-286h-196v286q0 119 -102 119q-50 0 -75.5 -33t-25.5 -86v-286h-196v532h196v-122q18 53 74 95t134 42q85 0 124.5 -34t52.5 -95q38 71 85.5 100t126.5 29q84 0 142.5 -48t58.5 -151v-348z" />
    <glyph glyph-name="n" unicode="n" horiz-adv-x="750" 
d="M688 0h-197v286q0 119 -106 119q-53 0 -84.5 -31t-31.5 -88v-286h-196v532h196v-115q43 130 202 130q98 0 157.5 -48.5t59.5 -150.5v-348z" />
    <glyph glyph-name="o" unicode="o" horiz-adv-x="731" 
d="M690 251q0 -120 -92 -191.5t-232 -71.5q-141 0 -233 71.5t-92 191.5q0 144 93.5 222t231.5 78t231 -78t93 -222zM486 262q0 78 -30 131t-90 53t-90 -53t-30 -131q0 -69 30 -118.5t90 -49.5q57 0 88.5 50.5t31.5 117.5z" />
    <glyph glyph-name="p" unicode="p" horiz-adv-x="728" 
d="M687 247q0 -133 -69.5 -194.5t-178.5 -61.5q-36 0 -67 9t-50 21.5t-33 25t-19 21.5l-6 9v-277h-191v732h191v-92q2 4 6.5 11.5t20.5 26t34.5 32.5t49 25.5t64.5 11.5q123 0 185.5 -72t62.5 -228zM473 259q0 176 -109 176q-51 0 -78.5 -48.5t-27.5 -127.5q0 -75 28.5 -122
t77.5 -47q53 1 81 49.5t28 119.5z" />
    <glyph glyph-name="q" unicode="q" horiz-adv-x="734" 
d="M661 -200h-197v283q-2 -4 -5.5 -10t-18 -22t-31 -28t-45.5 -22t-61 -10q-114 0 -188 65.5t-74 190.5q0 130 69 215.5t200 85.5q51 0 89.5 -11t63.5 -32t39.5 -41t27.5 -48l75 116h56v-732zM471 269q0 89 -22 136.5t-84 47.5q-58 0 -83.5 -51.5t-25.5 -132.5
q0 -179 109 -179q53 0 79.5 49.5t26.5 129.5z" />
    <glyph glyph-name="r" unicode="r" horiz-adv-x="619" 
d="M601 369q0 -54 -12 -95l-177 -19q15 48 15 86q0 64 -58 64q-51 0 -75.5 -39.5t-24.5 -105.5v-260h-196v532h196v-122q23 69 69 103t107 34q156 0 156 -178z" />
    <glyph glyph-name="s" unicode="s" horiz-adv-x="660" 
d="M632 166q1 -79 -67 -128t-221 -49q-140 0 -216.5 40.5t-76.5 110.5q0 10 1 15l139 21q6 -44 41 -63.5t105 -19.5q110 0 110 49q0 23 -35 34.5t-139 25.5q-113 15 -165 59.5t-52 122.5q0 71 72.5 119t219.5 48q227 0 245 -137v-14l-138 -21q-16 38 -42 55.5t-77 17.5
q-53 0 -74.5 -12t-21.5 -35q0 -22 36 -33.5t146 -25.5q113 -14 161 -59t49 -121z" />
    <glyph glyph-name="t" unicode="t" horiz-adv-x="510" 
d="M478 64q-2 -3 -6.5 -8t-21.5 -17.5t-37 -22t-53.5 -17.5t-70.5 -8q-88 0 -131.5 44.5t-43.5 142.5v259h-112v95h112v185h197v-185h147v-95h-147v-256q0 -82 79 -82q15 0 28.5 4.5t19.5 9.5l6 5z" />
    <glyph glyph-name="u" unicode="u" horiz-adv-x="751" 
d="M678 0h-197v122q-20 -65 -72.5 -97.5t-128.5 -32.5q-97 0 -157.5 49t-60.5 150v341h197v-278q0 -120 107 -120q53 0 84 31.5t31 88.5v278h197v-532z" />
    <glyph glyph-name="v" unicode="v" horiz-adv-x="696" 
d="M686 532l-249 -532h-178l-249 532h220l131 -342l132 342h193z" />
    <glyph glyph-name="w" unicode="w" horiz-adv-x="1119" 
d="M1109 532l-244 -532h-186l-115 319l-133 -319h-177l-244 532h220l126 -335l121 335h192l120 -335l130 335h190z" />
    <glyph glyph-name="x" unicode="x" horiz-adv-x="734" 
d="M709 0h-220l-126 190l-127 -190h-211l207 273l-194 259h223l110 -188l113 188h213l-195 -259z" />
    <glyph glyph-name="y" unicode="y" horiz-adv-x="697" 
d="M687 532l-293 -622q-31 -66 -78.5 -91.5t-120.5 -25.5q-76 0 -115.5 31.5t-39.5 90.5q0 11 3 27t6 26l3 11l114 10q-8 -30 -8 -49q0 -33 28 -33q16 0 26.5 10.5t25.5 44.5l24 53l-252 517h226l120 -320l132 320h199z" />
    <glyph glyph-name="z" unicode="z" horiz-adv-x="673" 
d="M623 0h-577v114l318 288h-294v130h553v-110l-319 -297h319v-125z" />
    <glyph glyph-name="braceleft" unicode="{" horiz-adv-x="474" 
d="M429 -180h-127q-155 0 -155 165v216q0 56 -56 56h-64v114h62q32 0 45 14t13 47v171q0 85 38 125t125 40h119v-120h-64q-33 0 -33 -44v-211q0 -69 -51 -69h-33v-20h33q23 0 37 -19.5t14 -48.5v-254q0 -44 33 -44h64v-118z" />
    <glyph glyph-name="bar" unicode="|" horiz-adv-x="354" 
d="M261 -200h-168v1000h168v-1000z" />
    <glyph glyph-name="braceright" unicode="}" horiz-adv-x="474" 
d="M446 257h-65q-56 0 -56 -56v-216q0 -165 -154 -165h-127v118h64q33 0 33 44v254q0 29 14 48.5t37 19.5h33v20h-33q-51 0 -51 69v211q0 44 -33 44h-64v120h119q87 0 124.5 -40t37.5 -125v-171q0 -32 13.5 -46.5t44.5 -14.5h63v-114z" />
    <glyph glyph-name="asciitilde" unicode="~" horiz-adv-x="750" 
d="M593 701q0 -37 -30.5 -61.5t-100.5 -24.5q-31 0 -88 31t-78 31q-26 0 -34 -10.5t-6 -31.5h-90q-11 16 -11 48q0 34 25 59t80 25q41 0 79 -15.5t66.5 -31.5t45.5 -16q40 0 40 26q0 9 -5 27h86q21 -27 21 -56z" />
    <glyph glyph-name="nbspace" unicode="&#xa0;" horiz-adv-x="225" 
 />
    <glyph glyph-name="exclamdown" unicode="&#xa1;" horiz-adv-x="342" 
d="M259 602h-176v166h176v-166zM269 0h-196v274l41 251h114l41 -251v-274z" />
    <glyph glyph-name="cent" unicode="&#xa2;" horiz-adv-x="679" 
d="M642 287q0 -73 -54 -123.5t-149 -57.5v-106h-139v107q-33 3 -65 10.5t-68.5 26t-63 45t-44.5 70t-18 98.5q0 61 17 110.5t43.5 82t62.5 56t69 35t67 17.5v110h139v-106q91 -10 139 -63t48 -121l-4 -34l-151 -19q1 14 1 24q0 46 -22.5 75t-73.5 29q-60 0 -90 -53.5
t-30 -131.5q0 -68 31.5 -112t88.5 -44q70 -1 106 30t38 87l-1 21l113 -8q10 -25 10 -55z" />
    <glyph glyph-name="sterling" unicode="&#xa3;" horiz-adv-x="1034" 
d="M978 183q0 -35 -9.5 -65.5t-34.5 -63t-77.5 -51.5t-128.5 -19q-132 0 -297 90q-28 -31 -87 -60.5t-131 -29.5q-73 0 -124.5 33t-51.5 95q0 69 52 103.5t128 34.5q59 0 114 -12q2 18 2 36q0 27 -12 49h-239v108h183q-24 48 -24 114q0 105 94.5 172t262.5 67q81 0 143 -11
t98 -28.5t59 -42t31 -48.5t8 -51q0 -31 -12 -65.5t-25 -53.5l-195 24q12 28 12 60q0 78 -103 78q-73 0 -101 -31t-28 -91q0 -22 6.5 -51.5t13.5 -41.5h251v-108h-226q4 -23 4 -48q0 -46 -21 -94q85 -32 137 -32q120 0 120 85q0 15 -7 38l205 -16q10 -30 10 -73zM306 135
q-14 7 -44.5 15t-50.5 8q-61 0 -61 -40t69 -40q59 0 87 57z" />
    <glyph glyph-name="currency" unicode="&#xa4;" 
d="M764 381q0 -151 -107.5 -258.5t-259.5 -107.5t-259.5 107.5t-107.5 258.5t108 259t259 108t259 -108t108 -259zM719 496l-42 48l-176 3l-74 100h-62l-94 -153l-159 -51l-1 -53l133 -70l-83 -134l64 -39l218 84l135 -96l45 24l-9 231z" />
    <glyph glyph-name="yen" unicode="&#xa5;" horiz-adv-x="851" 
d="M814 750l-123 -229h112v-118h-176l-56 -105h232v-118h-270v-180h-220v180h-265v118h228l-55 105h-173v118h112l-126 229h253l141 -319l146 319h240z" />
    <glyph glyph-name="brokenbar" unicode="&#xa6;" 
d="M764 381q0 -151 -107.5 -258.5t-259.5 -107.5t-259.5 107.5t-107.5 258.5t108 259t259 108t259 -108t108 -259zM719 496l-42 48l-176 3l-74 100h-62l-94 -153l-159 -51l-1 -53l133 -70l-83 -134l64 -39l218 84l135 -96l45 24l-9 231z" />
    <glyph glyph-name="section" unicode="&#xa7;" horiz-adv-x="704" 
d="M650 91q0 -84 -67.5 -134.5t-220.5 -50.5q-75 0 -131.5 12.5t-86.5 30t-48 41t-22.5 40t-4.5 33.5l1 17l139 23q4 -46 43 -68.5t102 -22.5q110 0 110 62q0 10 -4.5 17t-14.5 12t-20 8.5t-28 6.5t-31.5 4.5t-36.5 4t-38 4.5q-112 13 -164 62t-52 134q0 26 7 48.5t17 36
t20.5 24t17.5 14.5l7 4l-7.5 5t-16.5 15.5t-21 27.5t-16.5 42.5t-7.5 58.5q0 76 72.5 128.5t218.5 52.5q57 0 101 -9t69 -23.5t42 -32t23 -34.5t8.5 -31.5t1.5 -23.5l-1 -9l-137 -23q-2 1 0 8.5t-4 19.5t-14.5 23.5t-32 19.5t-55.5 8q-108 0 -108 -56q0 -34 62 -44
q9 -2 93 -10q236 -26 236 -200q0 -45 -17 -78t-33 -43l-17 -11l7.5 -5t16 -15.5t20.5 -27.5t16 -41t7 -55zM475 340q0 47 -85 58q-39 5 -99 11q-32 -27 -32 -60q0 -48 85 -58q73 -9 99 -11q11 8 21.5 24t10.5 36z" />
    <glyph glyph-name="dieresis" unicode="&#xa8;" horiz-adv-x="732" 
d="M605 610h-178v158h178v-158zM296 610h-178v158h178v-158z" />
    <glyph glyph-name="copyright" unicode="&#xa9;" horiz-adv-x="921" 
d="M880 378q0 -173 -123 -296t-297 -123t-297 123t-123 296t123 296.5t297 123.5t297 -123.5t123 -296.5zM799 378q0 143 -98 244t-241 101t-242 -101t-99 -244t99 -243.5t242 -100.5t241 100.5t98 243.5zM671 321q0 -27 -9 -54t-29.5 -54t-62 -44t-98.5 -17
q-105 0 -170.5 62.5t-65.5 157.5q0 107 65 171t176 64q51 0 88.5 -15t56.5 -40t27 -52t6 -55l-100 -17q-2 28 -7 45.5t-24 31.5t-52 14q-48 0 -74 -36t-26 -106q0 -58 27 -92t73 -34q95 0 95 77q0 10 -2 26l104 -9q2 -14 2 -24z" />
    <glyph glyph-name="ordfeminine" unicode="&#xaa;" horiz-adv-x="600" 
d="M581 389q-27 -27 -98 -27q-23 0 -42 7.5t-29.5 18t-17.5 21.5t-9 19l-2 7q-37 -77 -170 -77q-172 0 -172 108q0 117 207 140q12 1 39 3.5t46.5 4.5t24.5 4v35q0 56 -70 56q-72 1 -72 -43l6 -26l-132 -16q-10 21 -10 48q0 20 8.5 37.5t29.5 35.5t65 28.5t106 10.5
q119 0 172 -33t53 -98v-197q0 -19 13 -29.5t30 -10.5l18 3zM541 244h-480v66h480v-66zM358 502v67q-63 0 -109.5 -20t-46.5 -63q0 -21 16.5 -34.5t45.5 -13.5q50 0 72 19.5t22 44.5z" />
    <glyph glyph-name="guillemotleft" unicode="&#xab;" horiz-adv-x="699" 
d="M642 37l-285 180v140l285 177v-140l-190 -108l190 -109v-140zM326 37l-285 180v140l285 177v-140l-191 -108l191 -109v-140z" />
    <glyph glyph-name="logicalnot" unicode="&#xac;" 
d="M764 381q0 -151 -107.5 -258.5t-259.5 -107.5t-259.5 107.5t-107.5 258.5t108 259t259 108t259 -108t108 -259zM719 496l-42 48l-176 3l-74 100h-62l-94 -153l-159 -51l-1 -53l133 -70l-83 -134l64 -39l218 84l135 -96l45 24l-9 231z" />
    <glyph glyph-name="registered" unicode="&#xae;" horiz-adv-x="921" 
d="M880 378q0 -173 -123 -296t-297 -123t-297 123t-123 296t123 296.5t297 123.5t297 -123.5t123 -296.5zM799 378q0 143 -98 244t-241 101t-242 -101t-99 -244t99 -243.5t242 -100.5t241 100.5t98 243.5zM684 174h-146q-9 5 -12 24q-8 48 -26 103q-6 20 -30 20h-73v-147
h-139v415h260q67 0 110.5 -37.5t43.5 -84.5q0 -93 -98 -113q32 -1 50.5 -32.5t26.5 -71.5q10 -54 33 -76zM537 454q0 20 -17.5 34t-47.5 14h-75v-99h80q28 0 44 13.5t16 37.5z" />
    <glyph glyph-name="macron" unicode="&#xaf;" horiz-adv-x="732" 
d="M558 617h-393v127h393v-127z" />
    <glyph glyph-name="degree" unicode="&#xb0;" horiz-adv-x="331" 
d="M291 637q0 -52 -37 -88.5t-89 -36.5t-88.5 36.5t-36.5 88.5t36.5 89t88.5 37q53 0 89.5 -36.5t36.5 -89.5zM219 636q0 22 -16 38t-38 16t-38 -16t-16 -38t16 -38t38 -16t38 16t16 38z" />
    <glyph glyph-name="plusminus" unicode="&#xb1;" horiz-adv-x="1240" 
d="M1167 0h-197v768h197v-768zM909 437h-136v-437h-192v437h-101v95h108q-25 40 -25 100q0 69 48.5 110.5t136.5 41.5q156 0 156 -127q0 -10 -1 -20t-2.5 -17.5t-3 -13.5l-2.5 -10l-1 -3l-106 -13q5 34 5 55q0 60 -40 60t-40 -51q0 -28 9 -56t18 -42l9 -14h160v-95zM450 437
h-136v-437h-192v437h-101v95h108q-25 40 -25 100q0 69 48.5 110.5t136.5 41.5q156 0 156 -127q0 -16 -2.5 -32t-4.5 -24l-3 -8l-106 -13q5 34 5 55q0 60 -40 60t-40 -51q0 -28 9 -56t18 -42l9 -14h160v-95z" />
    <glyph glyph-name="twosuperior" unicode="&#xb2;" 
d="M764 381q0 -151 -107.5 -258.5t-259.5 -107.5t-259.5 107.5t-107.5 258.5t108 259t259 108t259 -108t108 -259zM719 496l-42 48l-176 3l-74 100h-62l-94 -153l-159 -51l-1 -53l133 -70l-83 -134l64 -39l218 84l135 -96l45 24l-9 231z" />
    <glyph glyph-name="threesuperior" unicode="&#xb3;" 
d="M764 381q0 -151 -107.5 -258.5t-259.5 -107.5t-259.5 107.5t-107.5 258.5t108 259t259 108t259 -108t108 -259zM719 496l-42 48l-176 3l-74 100h-62l-94 -153l-159 -51l-1 -53l133 -70l-83 -134l64 -39l218 84l135 -96l45 24l-9 231z" />
    <glyph glyph-name="acute" unicode="&#xb4;" horiz-adv-x="732" 
d="M538 784l-175 -166h-109l105 166h179z" />
    <glyph glyph-name="mu" unicode="&#xb5;" 
d="M764 381q0 -151 -107.5 -258.5t-259.5 -107.5t-259.5 107.5t-107.5 258.5t108 259t259 108t259 -108t108 -259zM719 496l-42 48l-176 3l-74 100h-62l-94 -153l-159 -51l-1 -53l133 -70l-83 -134l64 -39l218 84l135 -96l45 24l-9 231z" />
    <glyph glyph-name="paragraph" unicode="&#xb6;" horiz-adv-x="892" 
d="M819 -87h-139v749h-74v-749h-140v340h-134q-60 0 -110 13t-92 41.5t-65.5 80t-23.5 122.5q0 112 88.5 185t208.5 73h481v-855zM466 400v262h-55q-115 0 -115 -133q0 -66 31 -97.5t84 -31.5h55z" />
    <glyph glyph-name="periodcentered" unicode="&#xb7;" horiz-adv-x="342" 
d="M269 287h-196v167h196v-167z" />
    <glyph glyph-name="cedilla" unicode="&#xb8;" horiz-adv-x="732" 
d="M475 -123q0 -38 -28 -60.5t-77 -22.5q-53 0 -79.5 21.5t-26.5 56.5l1 13l68 7v-15q0 -20 9 -26.5t29 -6.5q18 0 26 10.5t8 21.5q0 3 -1 6t-3 6t-4 5t-6 5l-6 4.5t-7.5 5t-7.5 4.5q-41 27 -41 63q0 17 8 25h56q-3 -9 -3 -15q0 -15 38 -42q15 -11 23 -18t16 -20.5t8 -27.5z
" />
    <glyph glyph-name="onesuperior" unicode="&#xb9;" 
d="M764 381q0 -151 -107.5 -258.5t-259.5 -107.5t-259.5 107.5t-107.5 258.5t108 259t259 108t259 -108t108 -259zM719 496l-42 48l-176 3l-74 100h-62l-94 -153l-159 -51l-1 -53l133 -70l-83 -134l64 -39l218 84l135 -96l45 24l-9 231z" />
    <glyph glyph-name="ordmasculine" unicode="&#xba;" horiz-adv-x="615" 
d="M573 559q0 -94 -74.5 -145.5t-191.5 -51.5q-116 0 -191 51.5t-75 145.5q0 107 78 166t188 59t188 -59t78 -166zM563 244h-511v66h511v-66zM406 567q0 57 -26 97.5t-73 40.5t-73 -40.5t-26 -97.5q0 -52 24.5 -89.5t74.5 -37.5q44 0 71.5 38.5t27.5 88.5z" />
    <glyph glyph-name="guillemotright" unicode="&#xbb;" horiz-adv-x="699" 
d="M658 217l-285 -180v140l191 109l-191 108v140l285 -177v-140zM342 217l-285 -180v140l191 109l-191 108v140l285 -177v-140z" />
    <glyph glyph-name="onequarter" unicode="&#xbc;" 
d="M764 381q0 -151 -107.5 -258.5t-259.5 -107.5t-259.5 107.5t-107.5 258.5t108 259t259 108t259 -108t108 -259zM719 496l-42 48l-176 3l-74 100h-62l-94 -153l-159 -51l-1 -53l133 -70l-83 -134l64 -39l218 84l135 -96l45 24l-9 231z" />
    <glyph glyph-name="onehalf" unicode="&#xbd;" 
d="M764 381q0 -151 -107.5 -258.5t-259.5 -107.5t-259.5 107.5t-107.5 258.5t108 259t259 108t259 -108t108 -259zM719 496l-42 48l-176 3l-74 100h-62l-94 -153l-159 -51l-1 -53l133 -70l-83 -134l64 -39l218 84l135 -96l45 24l-9 231z" />
    <glyph glyph-name="threequarters" unicode="&#xbe;" 
d="M764 381q0 -151 -107.5 -258.5t-259.5 -107.5t-259.5 107.5t-107.5 258.5t108 259t259 108t259 -108t108 -259zM719 496l-42 48l-176 3l-74 100h-62l-94 -153l-159 -51l-1 -53l133 -70l-83 -134l64 -39l218 84l135 -96l45 24l-9 231z" />
    <glyph glyph-name="questiondown" unicode="&#xbf;" horiz-adv-x="678" 
d="M446 601h-176v167h176v-167zM628 171q0 -94 -66.5 -140.5t-222.5 -46.5q-152 0 -236.5 58t-84.5 161q0 20 7 39t12.5 30.5t25 29.5t25.5 22.5t33.5 24t30.5 21.5q10 7 32.5 21.5t38 25.5t26.5 23q24 22 24 47l-6 37h171q24 -21 24 -69q0 -60 -38 -101q-9 -10 -22 -20
t-21 -16t-27.5 -18.5t-25.5 -16.5q-60 -38 -77 -58.5t-17 -51.5q0 -26 24 -42t66 -16q52 0 79 22t27 58q0 44 -20 74l205 -22q13 -47 13 -76z" />
    <glyph glyph-name="Agrave" unicode="&#xc0;" horiz-adv-x="869" 
d="M508 808h-110l-174 166h178zM839 0h-252l-30 102h-265l-32 -102h-230l285 768h253zM522 238l-93 316l-100 -316h193z" />
    <glyph glyph-name="Aacute" unicode="&#xc1;" horiz-adv-x="869" 
d="M839 0h-252l-30 102h-265l-32 -102h-230l285 768h253zM522 238l-93 316l-100 -316h193zM630 974l-175 -166h-109l105 166h179z" />
    <glyph glyph-name="Acircumflex" unicode="&#xc2;" horiz-adv-x="869" 
d="M839 0h-252l-30 102h-265l-32 -102h-230l285 768h253zM522 238l-93 316l-100 -316h193zM643 808h-128l-77 80l-77 -80h-128l123 166h164z" />
    <glyph glyph-name="Atilde" unicode="&#xc3;" horiz-adv-x="869" 
d="M839 0h-252l-30 102h-265l-32 -102h-230l285 768h253zM522 238l-93 316l-100 -316h193zM651 886q0 -36 -30.5 -60.5t-100.5 -24.5q-30 0 -92 33q-52 29 -74 29q-41 0 -41 -31q0 -2 0.5 -6t0.5 -5h-90q-11 16 -11 48q0 34 25 59t80 25q56 0 118 -34q54 -29 73 -29
q40 0 40 26q0 9 -5 27h86q21 -27 21 -57z" />
    <glyph glyph-name="Adieresis" unicode="&#xc4;" horiz-adv-x="869" 
d="M839 0h-252l-30 102h-265l-32 -102h-230l285 768h253zM522 238l-93 316l-100 -316h193zM675 808h-178v158h178v-158zM366 808h-178v158h178v-158z" />
    <glyph glyph-name="Aring" unicode="&#xc5;" horiz-adv-x="869" 
d="M839 0h-252l-30 102h-265l-32 -102h-230l285 768h65q-32 12 -49 43t-17 70q0 49 34 82.5t87 33.5q52 0 86.5 -33.5t34.5 -82.5q0 -39 -16.5 -69.5t-49.5 -43.5h78zM487 874q0 21 -15 35t-36 14t-35.5 -14t-14.5 -35t14.5 -35.5t35.5 -14.5t36 14.5t15 35.5zM522 238
l-93 316l-100 -316h193z" />
    <glyph glyph-name="AE" unicode="&#xc6;" horiz-adv-x="1256" 
d="M1211 0h-670v102h-258l-53 -102h-230l435 768h730v-162h-407v-143h349v-152h-349v-144h453v-167zM541 238v361l-186 -361h186z" />
    <glyph glyph-name="Ccedilla" unicode="&#xc7;" horiz-adv-x="898" 
d="M849 232q0 -96 -61 -154q-49 -47 -124.5 -69.5t-153.5 -23.5q0 -20 26 -35q58 -33 58 -69q0 -39 -29 -62.5t-78 -23.5q-55 0 -82 22.5t-27 58.5l1 13l70 7q1 -15 2.5 -23t10.5 -17.5t26 -9.5q13 0 21 7t10 13.5t2 13.5q0 8 -7.5 15.5t-33.5 24.5q-41 27 -35 65
q-14 0 -38.5 2t-90 22.5t-117.5 57.5q-76 54 -114 135.5t-38 169.5q0 97 35 176t96.5 130t142.5 78.5t173 27.5q78 0 138.5 -15.5t96 -39.5t58.5 -58t31 -66t8 -67q0 -12 -2 -32l-187 -31q4 19 4 42q-4 127 -157 127q-87 0 -136.5 -79t-49.5 -183q0 -113 48.5 -184
t137.5 -71q54 0 91.5 16.5t54 44t23 52.5t6.5 53q0 25 -3 46l181 -17q12 -48 12 -90z" />
    <glyph glyph-name="Egrave" unicode="&#xc8;" horiz-adv-x="860" 
d="M533 808h-110l-174 166h178zM815 0h-722v768h676v-162h-443v-143h385v-152h-385v-144h489v-167z" />
    <glyph glyph-name="Eacute" unicode="&#xc9;" horiz-adv-x="860" 
d="M815 0h-722v768h676v-162h-443v-143h385v-152h-385v-144h489v-167zM639 974l-175 -166h-109l105 166h179z" />
    <glyph glyph-name="Ecircumflex" unicode="&#xca;" horiz-adv-x="860" 
d="M815 0h-722v768h676v-162h-443v-143h385v-152h-385v-144h489v-167zM650 808h-128l-77 80l-77 -80h-128l123 166h164z" />
    <glyph glyph-name="Edieresis" unicode="&#xcb;" horiz-adv-x="860" 
d="M815 0h-722v768h676v-162h-443v-143h385v-152h-385v-144h489v-167zM686 808h-178v158h178v-158zM377 808h-178v158h178v-158z" />
    <glyph glyph-name="Igrave" unicode="&#xcc;" horiz-adv-x="419" 
d="M281 808h-110l-174 166h179zM326 0h-233v768h233v-768z" />
    <glyph glyph-name="Iacute" unicode="&#xcd;" horiz-adv-x="419" 
d="M326 0h-233v768h233v-768zM421 974l-175 -166h-109l105 166h179z" />
    <glyph glyph-name="Icircumflex" unicode="&#xce;" horiz-adv-x="419" 
d="M326 0h-233v768h233v-768zM415 808h-128l-77 80l-77 -80h-128l123 166h164z" />
    <glyph glyph-name="Idieresis" unicode="&#xcf;" horiz-adv-x="419" 
d="M440 807h-178v157h178v-157zM152 807h-178v157h178v-157zM326 0h-233v768h233v-768z" />
    <glyph glyph-name="Eth" unicode="&#xd0;" horiz-adv-x="939" 
d="M892 358q0 -145 -97 -251.5t-238 -106.5h-464v291h-74v168h74v309h418q169 0 275 -108t106 -302zM647 382q0 101 -45.5 162.5t-126.5 61.5h-149v-147h172v-168h-172v-124h149q82 0 127 54.5t45 160.5z" />
    <glyph glyph-name="Ntilde" unicode="&#xd1;" horiz-adv-x="964" 
d="M871 0h-246l-316 467v-467h-216v768h265l297 -452v452h216v-768zM698 878q0 -36 -30.5 -60.5t-100.5 -24.5q-30 0 -92 33q-52 29 -74 29q-41 0 -41 -31q0 -2 0.5 -6t0.5 -5h-90q-11 16 -11 48q0 34 25 59t80 25q56 0 118 -34q54 -29 73 -29q40 0 40 26q0 9 -5 27h86
q21 -27 21 -57z" />
    <glyph glyph-name="Ograve" unicode="&#xd2;" horiz-adv-x="964" 
d="M548 808h-109l-175 166h179zM917 369q0 -170 -119.5 -277.5t-314.5 -107.5t-315.5 107t-120.5 278q0 96 36.5 176t98 131.5t139 79.5t161.5 28t161.5 -28t139 -79.5t98 -131.5t36.5 -176zM666 382q0 103 -48.5 182.5t-135.5 79.5t-135.5 -79.5t-48.5 -182.5
q0 -113 48.5 -184t136.5 -71t136 71t47 184z" />
    <glyph glyph-name="Oacute" unicode="&#xd3;" horiz-adv-x="964" 
d="M917 369q0 -170 -119.5 -277.5t-314.5 -107.5t-315.5 107t-120.5 278q0 96 36.5 176t98 131.5t139 79.5t161.5 28t161.5 -28t139 -79.5t98 -131.5t36.5 -176zM666 382q0 103 -48.5 182.5t-135.5 79.5t-135.5 -79.5t-48.5 -182.5q0 -113 48.5 -184t136.5 -71t136 71
t47 184zM701 974l-175 -166h-109l105 166h179z" />
    <glyph glyph-name="Ocircumflex" unicode="&#xd4;" horiz-adv-x="964" 
d="M917 369q0 -170 -119.5 -277.5t-314.5 -107.5t-315.5 107t-120.5 278q0 96 36.5 176t98 131.5t139 79.5t161.5 28t161.5 -28t139 -79.5t98 -131.5t36.5 -176zM666 382q0 103 -48.5 182.5t-135.5 79.5t-135.5 -79.5t-48.5 -182.5q0 -113 48.5 -184t136.5 -71t136 71
t47 184zM687 808h-128l-77 80l-77 -80h-128l123 166h164z" />
    <glyph glyph-name="Otilde" unicode="&#xd5;" horiz-adv-x="964" 
d="M917 369q0 -170 -119.5 -277.5t-314.5 -107.5t-315.5 107t-120.5 278q0 96 36.5 176t98 131.5t139 79.5t161.5 28t161.5 -28t139 -79.5t98 -131.5t36.5 -176zM666 382q0 103 -48.5 182.5t-135.5 79.5t-135.5 -79.5t-48.5 -182.5q0 -113 48.5 -184t136.5 -71t136 71
t47 184zM693 882q0 -36 -30.5 -60.5t-100.5 -24.5q-30 0 -92 33q-52 29 -74 29q-41 0 -41 -31q0 -2 0.5 -6t0.5 -5h-90q-11 16 -11 48q0 34 25 59t80 25q56 0 118 -34q54 -29 73 -29q40 0 40 26q0 9 -5 27h86q21 -27 21 -57z" />
    <glyph glyph-name="Odieresis" unicode="&#xd6;" horiz-adv-x="964" 
d="M917 369q0 -170 -119.5 -277.5t-314.5 -107.5t-315.5 107t-120.5 278q0 96 36.5 176t98 131.5t139 79.5t161.5 28t161.5 -28t139 -79.5t98 -131.5t36.5 -176zM666 382q0 103 -48.5 182.5t-135.5 79.5t-135.5 -79.5t-48.5 -182.5q0 -113 48.5 -184t136.5 -71t136 71
t47 184zM719 808h-178v158h178v-158zM410 808h-178v158h178v-158z" />
    <glyph glyph-name="multiply" unicode="&#xd7;" 
d="M764 381q0 -151 -107.5 -258.5t-259.5 -107.5t-259.5 107.5t-107.5 258.5t108 259t259 108t259 -108t108 -259zM719 496l-42 48l-176 3l-74 100h-62l-94 -153l-159 -51l-1 -53l133 -70l-83 -134l64 -39l218 84l135 -96l45 24l-9 231z" />
    <glyph glyph-name="Oslash" unicode="&#xd8;" horiz-adv-x="964" 
d="M917 369q0 -170 -119.5 -277.5t-314.5 -107.5q-152 0 -267 73l-57 -57h-112l103 107q-55 63 -79 122t-24 140q0 96 37.5 176t99.5 131.5t139 79.5t159 28q145 0 261 -79l62 62h112l-110 -112q110 -115 110 -286zM611 574q-54 70 -129 70q-88 0 -136 -79t-48 -183
q0 -65 15 -113zM666 382q0 63 -17 113l-299 -302q57 -66 133 -66q87 0 135 70.5t48 184.5z" />
    <glyph glyph-name="Ugrave" unicode="&#xd9;" horiz-adv-x="953" 
d="M551 808h-110l-174 166h178zM866 275q0 -291 -389 -291q-390 0 -390 291v493h233v-465q0 -94 41 -128.5t116 -34.5q71 0 113.5 40.5t42.5 126.5v461h233v-493z" />
    <glyph glyph-name="Uacute" unicode="&#xda;" horiz-adv-x="953" 
d="M866 275q0 -291 -389 -291q-390 0 -390 291v493h233v-465q0 -94 41 -128.5t116 -34.5q71 0 113.5 40.5t42.5 126.5v461h233v-493zM680 974l-175 -166h-109l105 166h179z" />
    <glyph glyph-name="Ucircumflex" unicode="&#xdb;" horiz-adv-x="953" 
d="M866 275q0 -291 -389 -291q-390 0 -390 291v493h233v-465q0 -94 41 -128.5t116 -34.5q71 0 113.5 40.5t42.5 126.5v461h233v-493zM681 808h-128l-77 80l-77 -80h-128l123 166h164z" />
    <glyph glyph-name="Udieresis" unicode="&#xdc;" horiz-adv-x="953" 
d="M866 275q0 -291 -389 -291q-390 0 -390 291v493h233v-465q0 -94 41 -128.5t116 -34.5q71 0 113.5 40.5t42.5 126.5v461h233v-493zM715 808h-178v158h178v-158zM406 808h-178v158h178v-158z" />
    <glyph glyph-name="Yacute" unicode="&#xdd;" horiz-adv-x="906" 
d="M881 768l-312 -517v-251h-233v251l-311 517h278l154 -313l161 313h263zM638 974l-175 -166h-109l105 166h179z" />
    <glyph glyph-name="Thorn" unicode="&#xde;" horiz-adv-x="890" 
d="M850 371q0 -118 -73 -188.5t-216 -70.5h-235v-112h-233v768h233v-126h246q135 0 206.5 -75t71.5 -196zM624 378q0 46 -25.5 74t-77.5 28h-195v-206h183q55 0 85 26.5t30 77.5z" />
    <glyph glyph-name="germandbls" unicode="&#xdf;" horiz-adv-x="787" 
d="M758 167q0 -81 -62.5 -130t-159.5 -49q-79 0 -140.5 18t-79.5 45l58 78q46 -34 128 -34q35 0 58 16t23 37q0 34 -25 50.5t-103 32.5q-138 29 -138 168q4 4 46.5 41.5t44.5 39.5q30 30 42 53.5t12 58.5q0 52 -26 77.5t-69 25.5q-49 0 -76 -26t-27 -75v-594h-191v580
q0 95 84.5 149.5t208.5 54.5q126 0 200.5 -55t74.5 -134q0 -78 -55.5 -117.5t-145.5 -47.5q13 -24 37 -36t80 -23q106 -22 153.5 -67.5t47.5 -136.5z" />
    <glyph glyph-name="agrave" unicode="&#xe0;" horiz-adv-x="712" 
d="M703 29q-49 -35 -120 -35q-35 0 -60 9.5t-37 26.5t-16.5 28.5t-7.5 28.5q-14 -22 -25 -35t-34 -30t-60 -25.5t-88 -8.5q-211 0 -211 143q0 85 74.5 130.5t233.5 63.5q16 2 34 3.5t29 3t15 1.5v44q0 75 -85 75q-87 0 -87 -56l7 -37l-160 -21q-14 35 -14 65q0 82 61.5 115
t194.5 33q274 0 274 -175v-257q0 -25 14.5 -39.5t37.5 -14.5l22 4zM430 175v90l-29 -2q-72 -5 -116.5 -32.5t-44.5 -76.5q0 -28 20.5 -45.5t56.5 -17.5q56 0 84.5 26t28.5 58zM454 586h-110l-174 166h178z" />
    <glyph glyph-name="aacute" unicode="&#xe1;" horiz-adv-x="712" 
d="M703 29q-49 -35 -120 -35q-35 0 -60 9.5t-37 26.5t-16.5 28.5t-7.5 28.5q-14 -22 -25 -35t-34 -30t-60 -25.5t-88 -8.5q-211 0 -211 143q0 85 74.5 130.5t233.5 63.5q16 2 34 3.5t29 3t15 1.5v44q0 75 -85 75q-87 0 -87 -56l7 -37l-160 -21q-14 35 -14 65q0 82 61.5 115
t194.5 33q274 0 274 -175v-257q0 -25 14.5 -39.5t37.5 -14.5l22 4zM430 175v90l-29 -2q-72 -5 -116.5 -32.5t-44.5 -76.5q0 -28 20.5 -45.5t56.5 -17.5q56 0 84.5 26t28.5 58zM540 751l-175 -166h-109l105 166h179z" />
    <glyph glyph-name="acircumflex" unicode="&#xe2;" horiz-adv-x="712" 
d="M703 29q-49 -35 -120 -35q-35 0 -60 9.5t-37 26.5t-16.5 28.5t-7.5 28.5q-14 -22 -25 -35t-34 -30t-60 -25.5t-88 -8.5q-211 0 -211 143q0 85 74.5 130.5t233.5 63.5q16 2 34 3.5t29 3t15 1.5v44q0 75 -85 75q-87 0 -87 -56l7 -37l-160 -21q-14 35 -14 65q0 82 61.5 115
t194.5 33q274 0 274 -175v-257q0 -25 14.5 -39.5t37.5 -14.5l22 4zM430 175v90l-29 -2q-72 -5 -116.5 -32.5t-44.5 -76.5q0 -28 20.5 -45.5t56.5 -17.5q56 0 84.5 26t28.5 58zM552 585h-128l-77 80l-77 -80h-128l123 166h164z" />
    <glyph glyph-name="atilde" unicode="&#xe3;" horiz-adv-x="712" 
d="M703 29q-49 -35 -120 -35q-35 0 -60 9.5t-37 26.5t-16.5 28.5t-7.5 28.5q-14 -22 -25 -35t-34 -30t-60 -25.5t-88 -8.5q-211 0 -211 143q0 85 74.5 130.5t233.5 63.5q16 2 34 3.5t29 3t15 1.5v44q0 75 -85 75q-87 0 -87 -56l7 -37l-160 -21q-14 35 -14 65q0 82 61.5 115
t194.5 33q274 0 274 -175v-257q0 -25 14.5 -39.5t37.5 -14.5l22 4zM430 175v90l-29 -2q-72 -5 -116.5 -32.5t-44.5 -76.5q0 -28 20.5 -45.5t56.5 -17.5q56 0 84.5 26t28.5 58zM562 665q0 -36 -30.5 -60.5t-100.5 -24.5q-30 0 -92 33q-52 29 -74 29q-41 0 -41 -31
q0 -1 0.5 -5t0.5 -6h-90q-11 16 -11 48q0 34 25 59t80 25q56 0 118 -34q54 -29 73 -29q40 0 40 26q0 9 -5 27h86q21 -27 21 -57z" />
    <glyph glyph-name="adieresis" unicode="&#xe4;" horiz-adv-x="712" 
d="M585 586h-170v142h170v-142zM291 586h-170v142h170v-142zM703 29q-49 -35 -120 -35q-35 0 -60 9.5t-37 26.5t-16.5 28.5t-7.5 28.5q-14 -22 -25 -35t-34 -30t-60 -25.5t-88 -8.5q-211 0 -211 143q0 85 74.5 130.5t233.5 63.5q16 2 34 3.5t29 3t15 1.5v44q0 75 -85 75
q-87 0 -87 -56l7 -37l-160 -21q-14 35 -14 65q0 82 61.5 115t194.5 33q274 0 274 -175v-257q0 -25 14.5 -39.5t37.5 -14.5l22 4zM430 175v90l-29 -2q-72 -5 -116.5 -32.5t-44.5 -76.5q0 -28 20.5 -45.5t56.5 -17.5q56 0 84.5 26t28.5 58z" />
    <glyph glyph-name="aring" unicode="&#xe5;" horiz-adv-x="712" 
d="M478 711q0 -52 -37 -88.5t-89 -36.5t-88.5 36.5t-36.5 88.5t36.5 89t88.5 37t89 -36.5t37 -89.5zM703 29q-49 -35 -120 -35q-35 0 -60 9.5t-37 26.5t-16.5 28.5t-7.5 28.5q-14 -22 -25 -35t-34 -30t-60 -25.5t-88 -8.5q-211 0 -211 143q0 85 74.5 130.5t233.5 63.5
q16 2 34 3.5t29 3t15 1.5v44q0 75 -85 75q-87 0 -87 -56l7 -37l-160 -21q-14 35 -14 65q0 82 61.5 115t194.5 33q274 0 274 -175v-257q0 -25 14.5 -39.5t37.5 -14.5l22 4zM430 175v90l-29 -2q-72 -5 -116.5 -32.5t-44.5 -76.5q0 -28 20.5 -45.5t56.5 -17.5q56 0 84.5 26
t28.5 58zM406 710q0 22 -16 38t-38 16t-38 -16t-16 -38t16 -38t38 -16t38 16t16 38z" />
    <glyph glyph-name="ae" unicode="&#xe6;" horiz-adv-x="1051" 
d="M1003 138q0 -19 -5.5 -37.5t-23.5 -40.5t-46 -38t-77.5 -27t-114.5 -11q-52 0 -95.5 8.5t-69 20t-45 27t-27 25t-11.5 18.5q-6 -10 -20.5 -24t-41 -32t-70.5 -30.5t-94 -12.5t-86.5 6t-67.5 20.5t-47.5 43t-16.5 70.5q0 107 94 155q86 46 292 50v44q0 75 -85 75
q-87 0 -87 -55q0 -22 7 -38l-160 -21q-14 23 -14 64q0 27 10.5 50.5t36.5 47t79.5 37.5t129.5 14q86 0 128.5 -21t53.5 -47q75 68 207 68q65 0 114.5 -15t77.5 -37.5t45.5 -54.5t23 -60.5t5.5 -59.5q0 -55 -13 -87h-379q-2 -20 2.5 -41.5t16.5 -44.5t40 -37.5t67 -14.5
q83 0 115 26.5t31 64.5l113 -9q8 -14 8 -39zM823 343q0 37 -21.5 65t-73.5 28q-42 0 -69.5 -23.5t-36 -50t-8.5 -53.5h204q5 13 5 34zM430 171v89q-82 0 -136 -27.5t-54 -82.5q0 -28 20.5 -45.5t56.5 -17.5q58 0 85.5 24t27.5 60z" />
    <glyph glyph-name="ccedilla" unicode="&#xe7;" horiz-adv-x="679" 
d="M641 169q0 -77 -61 -128q-56 -48 -175 -57q0 -19 26 -35q58 -35 58 -69q0 -39 -28.5 -62.5t-78.5 -23.5q-33 0 -56.5 8t-33.5 21.5t-14 25.5t-4 24l1 15l80 8q-5 -14 -1.5 -32.5t26.5 -18.5q30 0 30 34q0 8 -7.5 15.5t-35.5 28.5q-28 20 -28 50q0 1 0.5 5t0.5 5
q-6 0 -17 0.5t-42 5.5t-59 13.5t-62.5 28t-59.5 45.5t-42 68.5t-17 94.5q0 147 93.5 227.5t241.5 80.5q77 0 130.5 -20.5t77 -53.5t32 -61t8.5 -57q0 -19 -2 -29l-150 -18q0 62 -21.5 95t-74.5 33q-60 0 -90 -53.5t-30 -131.5q0 -68 31.5 -112t88.5 -44q46 -1 77.5 11.5
t44.5 34t17.5 38.5t4.5 36l-1 18l113 -8q9 -23 9 -56z" />
    <glyph glyph-name="egrave" unicode="&#xe8;" horiz-adv-x="692" 
d="M644 143q0 -67 -63 -111t-205 -44q-153 0 -244 67.5t-91 187.5q0 147 93.5 227.5t241.5 80.5q133 0 200 -62t67 -161q0 -16 -3.5 -38.5t-7.5 -37.5l-3 -15h-378q0 -138 137 -138q127 0 132 91l120 -9q4 -25 4 -38zM463 348q0 42 -23 67t-71 25q-60 0 -86 -36.5t-28 -90.5
h203q5 20 5 35zM487 586h-110l-174 166h178z" />
    <glyph glyph-name="eacute" unicode="&#xe9;" horiz-adv-x="692" 
d="M644 143q0 -67 -63 -111t-205 -44q-153 0 -244 67.5t-91 187.5q0 147 93.5 227.5t241.5 80.5q133 0 200 -62t67 -161q0 -16 -3.5 -38.5t-7.5 -37.5l-3 -15h-378q0 -138 137 -138q127 0 132 91l120 -9q4 -25 4 -38zM463 348q0 42 -23 67t-71 25q-60 0 -86 -36.5t-28 -90.5
h203q5 20 5 35zM558 751l-175 -166h-109l105 166h179z" />
    <glyph glyph-name="ecircumflex" unicode="&#xea;" horiz-adv-x="692" 
d="M644 143q0 -67 -63 -111t-205 -44q-153 0 -244 67.5t-91 187.5q0 147 93.5 227.5t241.5 80.5q133 0 200 -62t67 -161q0 -16 -3.5 -38.5t-7.5 -37.5l-3 -15h-378q0 -138 137 -138q127 0 132 91l120 -9q4 -25 4 -38zM463 348q0 42 -23 67t-71 25q-60 0 -86 -36.5t-28 -90.5
h203q5 20 5 35zM563 585h-128l-77 80l-77 -80h-128l123 166h164z" />
    <glyph glyph-name="edieresis" unicode="&#xeb;" horiz-adv-x="692" 
d="M589 586h-170v142h170v-142zM295 586h-170v142h170v-142zM644 143q0 -67 -63 -111t-205 -44q-153 0 -244 67.5t-91 187.5q0 147 93.5 227.5t241.5 80.5q133 0 200 -62t67 -161q0 -16 -3.5 -38.5t-7.5 -37.5l-3 -15h-378q0 -138 137 -138q127 0 132 91l120 -9q4 -25 4 -38
zM463 348q0 42 -23 67t-71 25q-60 0 -86 -36.5t-28 -90.5h203q5 20 5 35z" />
    <glyph glyph-name="igrave" unicode="&#xec;" horiz-adv-x="342" 
d="M269 0h-196v532h196v-532zM243 585h-110l-174 166h178z" />
    <glyph glyph-name="iacute" unicode="&#xed;" horiz-adv-x="342" 
d="M269 0h-196v532h196v-532zM376 751l-175 -166h-109l105 166h179z" />
    <glyph glyph-name="icircumflex" unicode="&#xee;" horiz-adv-x="342" 
d="M269 0h-196v532h196v-532zM376 585h-128l-77 80l-77 -80h-128l123 166h164z" />
    <glyph glyph-name="idieresis" unicode="&#xef;" horiz-adv-x="342" 
d="M388 586h-170v142h170v-142zM127 586h-169v142h169v-142zM269 0h-196v532h196v-532z" />
    <glyph glyph-name="eth" unicode="&#xf0;" horiz-adv-x="734" 
d="M690 267q0 -142 -89 -210.5t-235 -68.5q-142 0 -233.5 67t-91.5 186q0 147 86.5 218.5t238.5 71.5q45 0 84 -10q-24 48 -79 83l-150 -52l-49 63l71 38q-70 16 -131 23l36 116q138 0 259 -51l116 62l122 -105l-105 -36q150 -129 150 -395zM486 252q0 28 -10 133
q-33 41 -110 41q-60 0 -90 -49t-30 -125q0 -67 29.5 -112.5t90.5 -45.5q57 0 88.5 46t31.5 112z" />
    <glyph glyph-name="ntilde" unicode="&#xf1;" horiz-adv-x="750" 
d="M688 0h-197v286q0 119 -106 119q-53 0 -84.5 -31t-31.5 -88v-286h-196v532h196v-115q43 130 202 130q98 0 157.5 -48.5t59.5 -150.5v-348zM595 659q0 -36 -30.5 -60.5t-100.5 -24.5q-30 0 -92 33q-52 29 -74 29q-41 0 -41 -31q0 -1 0.5 -5t0.5 -6h-90q-11 16 -11 48
q0 34 25 59t80 25q56 0 118 -34q54 -29 73 -29q40 0 40 26q0 9 -5 27h86q21 -27 21 -57z" />
    <glyph glyph-name="ograve" unicode="&#xf2;" horiz-adv-x="731" 
d="M690 251q0 -120 -92 -191.5t-232 -71.5q-141 0 -233 71.5t-92 191.5q0 144 93.5 222t231.5 78t231 -78t93 -222zM486 262q0 78 -30 131t-90 53t-90 -53t-30 -131q0 -69 30 -118.5t90 -49.5q57 0 88.5 50.5t31.5 117.5zM458 585h-110l-174 166h178z" />
    <glyph glyph-name="oacute" unicode="&#xf3;" horiz-adv-x="731" 
d="M690 251q0 -120 -92 -191.5t-232 -71.5q-141 0 -233 71.5t-92 191.5q0 144 93.5 222t231.5 78t231 -78t93 -222zM486 262q0 78 -30 131t-90 53t-90 -53t-30 -131q0 -69 30 -118.5t90 -49.5q57 0 88.5 50.5t31.5 117.5zM547 751l-175 -166h-109l105 166h179z" />
    <glyph glyph-name="ocircumflex" unicode="&#xf4;" horiz-adv-x="731" 
d="M690 251q0 -120 -92 -191.5t-232 -71.5q-141 0 -233 71.5t-92 191.5q0 144 93.5 222t231.5 78t231 -78t93 -222zM486 262q0 78 -30 131t-90 53t-90 -53t-30 -131q0 -69 30 -118.5t90 -49.5q57 0 88.5 50.5t31.5 117.5zM566 585h-128l-77 80l-77 -80h-128l123 166h164z
" />
    <glyph glyph-name="otilde" unicode="&#xf5;" horiz-adv-x="731" 
d="M690 251q0 -120 -92 -191.5t-232 -71.5q-141 0 -233 71.5t-92 191.5q0 144 93.5 222t231.5 78t231 -78t93 -222zM486 262q0 78 -30 131t-90 53t-90 -53t-30 -131q0 -69 30 -118.5t90 -49.5q57 0 88.5 50.5t31.5 117.5zM574 671q0 -36 -30.5 -60.5t-100.5 -24.5
q-30 0 -92 33q-52 29 -74 29q-41 0 -41 -31q0 -1 0.5 -5t0.5 -6h-90q-11 16 -11 48q0 34 25 59t80 25q56 0 118 -34q54 -29 73 -29q40 0 40 26q0 9 -5 27h86q21 -27 21 -57z" />
    <glyph glyph-name="odieresis" unicode="&#xf6;" horiz-adv-x="731" 
d="M590 585h-170v142h170v-142zM297 585h-170v142h170v-142zM690 251q0 -120 -92 -191.5t-232 -71.5q-141 0 -233 71.5t-92 191.5q0 144 93.5 222t231.5 78t231 -78t93 -222zM486 262q0 78 -30 131t-90 53t-90 -53t-30 -131q0 -69 30 -118.5t90 -49.5q57 0 88.5 50.5
t31.5 117.5z" />
    <glyph glyph-name="divide" unicode="&#xf7;" 
d="M764 381q0 -151 -107.5 -258.5t-259.5 -107.5t-259.5 107.5t-107.5 258.5t108 259t259 108t259 -108t108 -259zM719 496l-42 48l-176 3l-74 100h-62l-94 -153l-159 -51l-1 -53l133 -70l-83 -134l64 -39l218 84l135 -96l45 24l-9 231z" />
    <glyph glyph-name="oslash" unicode="&#xf8;" horiz-adv-x="742" 
d="M719 532l-91 -88q67 -78 67 -197q0 -120 -92 -191.5t-232 -71.5q-103 0 -180 40l-27 -24h-112l72 67q-38 41 -57.5 83t-19.5 97q0 144 93 222t231 78q114 0 196 -53l37 38h115zM459 391q-36 51 -88 51q-120 0 -120 -184q0 -32 6 -57zM491 258l-4 52l-193 -187
q38 -33 77 -33q61 0 90.5 40t29.5 128z" />
    <glyph glyph-name="ugrave" unicode="&#xf9;" horiz-adv-x="751" 
d="M678 0h-197v122q-20 -65 -72.5 -97.5t-128.5 -32.5q-97 0 -157.5 49t-60.5 150v341h197v-278q0 -120 107 -120q53 0 84 31.5t31 88.5v278h197v-532zM476 585h-110l-174 166h178z" />
    <glyph glyph-name="uacute" unicode="&#xfa;" horiz-adv-x="751" 
d="M678 0h-197v122q-20 -65 -72.5 -97.5t-128.5 -32.5q-97 0 -157.5 49t-60.5 150v341h197v-278q0 -120 107 -120q53 0 84 31.5t31 88.5v278h197v-532zM554 751l-175 -166h-109l105 166h179z" />
    <glyph glyph-name="ucircumflex" unicode="&#xfb;" horiz-adv-x="751" 
d="M678 0h-197v122q-20 -65 -72.5 -97.5t-128.5 -32.5q-97 0 -157.5 49t-60.5 150v341h197v-278q0 -120 107 -120q53 0 84 31.5t31 88.5v278h197v-532zM575 585h-128l-77 80l-77 -80h-128l123 166h164z" />
    <glyph glyph-name="udieresis" unicode="&#xfc;" horiz-adv-x="751" 
d="M601 585h-170v142h170v-142zM308 585h-170v142h170v-142zM678 0h-197v122q-20 -65 -72.5 -97.5t-128.5 -32.5q-97 0 -157.5 49t-60.5 150v341h197v-278q0 -120 107 -120q53 0 84 31.5t31 88.5v278h197v-532z" />
    <glyph glyph-name="yacute" unicode="&#xfd;" horiz-adv-x="697" 
d="M687 532l-293 -622q-31 -66 -78.5 -91.5t-120.5 -25.5q-76 0 -115.5 31.5t-39.5 90.5q0 11 3 27t6 26l3 11l114 10q-8 -30 -8 -49q0 -33 28 -33q16 0 26.5 10.5t25.5 44.5l24 53l-252 517h226l120 -320l132 320h199zM534 752l-175 -166h-109l105 166h179z" />
    <glyph glyph-name="thorn" unicode="&#xfe;" horiz-adv-x="728" 
d="M687 247q0 -133 -69.5 -194.5t-178.5 -61.5q-36 0 -67 9t-50 21.5t-33 25t-19 21.5l-6 9v-277h-191v968h191v-328q2 4 6.5 11.5t20.5 26t34.5 32.5t49 25.5t64.5 11.5q123 0 185.5 -72t62.5 -228zM473 259q0 176 -109 176q-51 0 -78.5 -48.5t-27.5 -127.5
q0 -75 28.5 -122t77.5 -47q53 1 81 49.5t28 119.5z" />
    <glyph glyph-name="ydieresis" unicode="&#xff;" horiz-adv-x="697" 
d="M596 585h-170v142h170v-142zM302 585h-170v142h170v-142zM687 532l-293 -622q-31 -66 -78.5 -91.5t-120.5 -25.5q-76 0 -115.5 31.5t-39.5 90.5q0 11 3 27t6 26l3 11l114 10q-8 -30 -8 -49q0 -33 28 -33q16 0 26.5 10.5t25.5 44.5l24 53l-252 517h226l120 -320l132 320
h199z" />
    <glyph glyph-name="dotlessi" unicode="&#x131;" horiz-adv-x="342" 
d="M269 0h-196v532h196v-532z" />
    <glyph glyph-name="Lslash" unicode="&#x141;" horiz-adv-x="776" 
d="M744 0h-651v179l-34 -20l-84 146l118 68v395h233v-260l174 100l84 -145l-258 -149v-147h418v-167z" />
    <glyph glyph-name="lslash" unicode="&#x142;" horiz-adv-x="342" 
d="M417 391l-148 -86v-305h-196v191l-49 -28l-84 146l133 76v383h196v-269l64 37z" />
    <glyph glyph-name="OE" unicode="&#x152;" horiz-adv-x="1279" 
d="M1234 0h-619q-50 -16 -150 -16q-183 0 -300.5 109t-117.5 276q0 94 36.5 174.5t96.5 132t134 80.5t151 28q26 0 51 -2t39 -4.5t31.5 -5.5t21.5 -4h581v-162h-395v-143h337v-152h-337v-144h440v-167zM577 154v459q-56 31 -95 31q-87 0 -135.5 -79.5t-48.5 -182.5
q0 -113 48.5 -184t136.5 -71q38 0 94 27z" />
    <glyph glyph-name="oe" unicode="&#x153;" horiz-adv-x="1134" 
d="M1086 136q0 -24 -11.5 -48t-38 -48.5t-83 -40t-134.5 -15.5q-103 0 -162.5 24t-76.5 54q-20 -28 -73 -53t-141 -25q-141 0 -233 71.5t-92 191.5q0 144 93.5 222t231.5 78q89 0 147.5 -31t75.5 -64q20 35 79 65t151 30q78 0 133.5 -20.5t82.5 -55t38.5 -69.5t11.5 -74
q0 -62 -13 -95h-379q-1 -19 2.5 -39t14.5 -44t39 -39.5t70 -15.5q85 0 116 27.5t30 63.5l113 -9q8 -14 8 -41zM905 346q0 37 -22 63.5t-72 26.5q-52 0 -82 -35t-32 -92h204q5 18 4 37zM486 258q0 78 -30 131t-90 53t-90 -53t-30 -131q0 -67 31.5 -117.5t88.5 -50.5
t88.5 50.5t31.5 117.5z" />
    <glyph glyph-name="Scaron" unicode="&#x160;" horiz-adv-x="901" 
d="M851 233q0 -112 -86 -180.5t-274 -68.5q-98 0 -174 14.5t-125 39t-81.5 59.5t-47 72t-17.5 80l213 25q19 -148 207 -148q72 0 103.5 21t31.5 53q0 35 -34.5 57.5t-147.5 47.5l-62 14q-280 64 -280 246q0 72 50.5 122.5t132 73.5t185.5 23q79 0 141 -14t99.5 -34.5
t64.5 -51.5t39.5 -57.5t21.5 -60.5l-208 -27q-11 54 -46.5 83.5t-118.5 29.5q-62 0 -90.5 -23t-28.5 -50q0 -34 29.5 -50.5t107.5 -33.5l74 -16q168 -38 244.5 -91t76.5 -155zM653 974l-123 -166h-164l-123 166h128l77 -80l77 80h128z" />
    <glyph glyph-name="scaron" unicode="&#x161;" horiz-adv-x="660" 
d="M632 166q1 -79 -67 -128t-221 -49q-140 0 -216.5 40.5t-76.5 110.5q0 10 1 15l139 21q6 -44 41 -63.5t105 -19.5q110 0 110 49q0 23 -35 34.5t-139 25.5q-113 15 -165 59.5t-52 122.5q0 71 72.5 119t219.5 48q227 0 245 -137v-14l-138 -21q-16 38 -42 55.5t-77 17.5
q-53 0 -74.5 -12t-21.5 -35q0 -22 36 -33.5t146 -25.5q113 -14 161 -59t49 -121zM556 751l-123 -166h-164l-123 166h128l77 -80l77 80h128z" />
    <glyph glyph-name="Ydieresis" unicode="&#x178;" horiz-adv-x="906" 
d="M881 768l-312 -517v-251h-233v251l-311 517h278l154 -313l161 313h263zM702 808h-178v158h178v-158zM393 808h-178v158h178v-158z" />
    <glyph glyph-name="Zcaron" unicode="&#x17d;" horiz-adv-x="845" 
d="M786 0h-732v137l426 456h-398v175h690v-136l-400 -457h414v-175zM665 973l-123 -166h-164l-123 166h128l77 -80l77 80h128z" />
    <glyph glyph-name="zcaron" unicode="&#x17e;" horiz-adv-x="673" 
d="M623 0h-577v114l318 288h-294v130h553v-110l-319 -297h319v-125zM559 751l-123 -166h-164l-123 166h128l77 -80l77 80h128z" />
    <glyph glyph-name="florin" unicode="&#x192;" horiz-adv-x="628" 
d="M646 668q0 -19 -5 -41t-11 -34l-5 -12l-106 -19q16 46 16 78q0 36 -23 36q-24 0 -33 -16.5t-18 -65.5l-27 -138h143v-94h-161l-75 -384q-37 -186 -206 -186q-109 0 -152.5 37t-43.5 91q0 18 3.5 36.5t7.5 27.5l4 10l106 19q-11 -29 -11 -60q0 -54 47 -54q18 0 28.5 11
t13.5 24t9 47l74 381h-142v94h159l29 141q38 187 207 187q172 0 172 -116z" />
    <glyph glyph-name="circumflex" unicode="&#x2c6;" horiz-adv-x="732" 
d="M571 603h-128l-77 80l-77 -80h-128l123 166h164z" />
    <glyph glyph-name="caron" unicode="&#x2c7;" horiz-adv-x="732" 
d="M571 777l-123 -166h-164l-123 166h128l77 -80l77 80h128z" />
    <glyph glyph-name="breve" unicode="&#x2d8;" horiz-adv-x="732" 
d="M571 777q-18 -184 -205 -184q-86 0 -141 44.5t-64 139.5h128q-2 -80 77 -80q40 0 59 22.5t18 57.5h128z" />
    <glyph glyph-name="dotaccent" unicode="&#x2d9;" horiz-adv-x="732" 
d="M459 610h-187v158h187v-158z" />
    <glyph glyph-name="ring" unicode="&#x2da;" horiz-adv-x="732" 
d="M492 666q0 -52 -37 -88.5t-89 -36.5t-88.5 36.5t-36.5 88.5t36.5 89t88.5 37t89 -37t37 -89zM420 666q0 22 -16 38t-38 16t-37.5 -16t-15.5 -38t15.5 -37.5t37.5 -15.5t38 15.5t16 37.5z" />
    <glyph glyph-name="ogonek" unicode="&#x2db;" horiz-adv-x="732" 
d="M437 -192q-28 -14 -61 -14q-46 0 -76 20t-30 53q0 32 42 70q5 5 15 13.5t15 13.5t9 10.5t4 10.5l-3 15h56q9 -10 9 -25q0 -18 -39 -53q-36 -34 -36 -54q0 -24 30 -24q19 0 31 10z" />
    <glyph glyph-name="tilde" unicode="&#x2dc;" horiz-adv-x="732" 
d="M593 700q0 -36 -30.5 -60.5t-100.5 -24.5q-30 0 -92 33q-52 29 -74 29q-41 0 -41 -31q0 -2 0.5 -6t0.5 -5h-90q-11 16 -11 48q0 34 25 59t80 25q56 0 118 -34q54 -29 73 -29q40 0 40 26q0 9 -5 27h86q21 -27 21 -57z" />
    <glyph glyph-name="hungarumlaut" unicode="&#x2dd;" horiz-adv-x="732" 
d="M593 769l-129 -166h-74l56 166h147zM363 769l-129 -166h-74l56 166h147z" />
    <glyph glyph-name="Delta" unicode="&#x394;" 
d="M764 381q0 -151 -107.5 -258.5t-259.5 -107.5t-259.5 107.5t-107.5 258.5t108 259t259 108t259 -108t108 -259zM719 496l-42 48l-176 3l-74 100h-62l-94 -153l-159 -51l-1 -53l133 -70l-83 -134l64 -39l218 84l135 -96l45 24l-9 231z" />
    <glyph glyph-name="Omega" unicode="&#x3a9;" 
d="M764 381q0 -151 -107.5 -258.5t-259.5 -107.5t-259.5 107.5t-107.5 258.5t108 259t259 108t259 -108t108 -259zM719 496l-42 48l-176 3l-74 100h-62l-94 -153l-159 -51l-1 -53l133 -70l-83 -134l64 -39l218 84l135 -96l45 24l-9 231z" />
    <glyph glyph-name="pi" unicode="&#x3c0;" horiz-adv-x="921" 
d="M880 378q0 -173 -123 -296t-297 -123t-297 123t-123 296t123 296.5t297 123.5t297 -123.5t123 -296.5zM799 378q0 143 -98 244t-241 101t-242 -101t-99 -244t99 -243.5t242 -100.5t241 100.5t98 243.5zM695 461q0 -65 -40.5 -102.5t-116.5 -37.5h-118v-147h-139v415h260
q68 0 111 -38.5t43 -89.5zM560 454q0 23 -19.5 35.5t-45.5 12.5h-75v-99h80q25 0 42.5 12.5t17.5 38.5z" />
    <glyph glyph-name="endash" unicode="&#x2013;" horiz-adv-x="663" 
d="M591 259h-518v168h518v-168z" />
    <glyph glyph-name="emdash" unicode="&#x2014;" horiz-adv-x="1181" 
d="M1109 259h-1036v168h1036v-168z" />
    <glyph glyph-name="quoteleft" unicode="&#x2018;" horiz-adv-x="309" 
d="M253 464h-197v167q0 75 33 111q39 42 93 42q27 0 54 -12l-19 -66q-13 5 -23 5q-25 0 -42 -20q-9 -12 -9 -39l2 -21h108v-167z" />
    <glyph glyph-name="quoteright" unicode="&#x2019;" horiz-adv-x="309" 
d="M253 601q0 -75 -33 -111q-39 -42 -93 -42q-27 0 -54 12l19 66q13 -5 23 -5q25 0 42 20q9 12 9 39l-2 21h-108v167h197v-167z" />
    <glyph glyph-name="quotesinglbase" unicode="&#x201a;" horiz-adv-x="309" 
d="M253 0q0 -75 -33 -111q-39 -42 -93 -42q-27 0 -54 12l19 66q13 -5 23 -5q25 0 42 20q9 12 9 39l-2 21h-108v167h197v-167z" />
    <glyph glyph-name="quotedblleft" unicode="&#x201c;" horiz-adv-x="558" 
d="M502 464h-187v167q0 75 33 111q39 42 93 42q27 0 54 -12l-19 -66q-13 5 -23 5q-25 0 -42 -20q-9 -12 -9 -39l2 -21h98v-167zM243 464h-187v167q0 75 33 111q39 42 93 42q27 0 54 -12l-19 -66q-13 5 -23 5q-25 0 -42 -20q-9 -12 -9 -39l2 -21h98v-167z" />
    <glyph glyph-name="quotedblright" unicode="&#x201d;" horiz-adv-x="558" 
d="M502 601q0 -75 -33 -111q-39 -42 -93 -42q-27 0 -54 12l19 66q13 -5 23 -5q25 0 42 20q9 12 9 39l-2 21h-98v167h187v-167zM243 601q0 -75 -33 -111q-39 -42 -93 -42q-27 0 -54 12l19 66q13 -5 23 -5q25 0 42 20q9 12 9 39l-2 21h-98v167h187v-167z" />
    <glyph glyph-name="quotedblbase" unicode="&#x201e;" horiz-adv-x="558" 
d="M502 0q0 -75 -33 -111q-39 -42 -93 -42q-27 0 -54 12l19 66q13 -5 23 -5q25 0 42 20q9 12 9 39l-2 21h-98v167h187v-167zM243 0q0 -75 -33 -111q-39 -42 -93 -42q-27 0 -54 12l19 66q13 -5 23 -5q25 0 42 20q9 12 9 39l-2 21h-98v167h187v-167z" />
    <glyph glyph-name="dagger" unicode="&#x2020;" horiz-adv-x="572" 
d="M520 475h-117l-90 32l44 -114l-55 -514h-38l-55 514l44 114l-89 -32h-116v121h116l89 -33l-43 102v103h149v-103l-44 -102l88 33h117v-121z" />
    <glyph glyph-name="daggerdbl" unicode="&#x2021;" horiz-adv-x="572" 
d="M520 98h-117l-88 34l44 -103v-103h-149v103l43 103l-89 -34h-116v122h116l89 -32l-62 161l62 158l-89 -32h-116v121h116l89 -33l-43 102v103h149v-103l-44 -102l88 33h117v-121h-117l-90 32l62 -158l-62 -161l90 32h117v-122z" />
    <glyph glyph-name="bullet" unicode="&#x2022;" horiz-adv-x="590" 
d="M552 331q0 -105 -74.5 -179.5t-179.5 -74.5q-104 0 -178.5 74.5t-74.5 179.5t74.5 179.5t178.5 74.5q105 0 179.5 -74.5t74.5 -179.5z" />
    <glyph glyph-name="ellipsis" unicode="&#x2026;" horiz-adv-x="1026" 
d="M953 0h-196v167h196v-167zM611 0h-196v167h196v-167zM269 0h-196v167h196v-167z" />
    <glyph glyph-name="perthousand" unicode="&#x2030;" horiz-adv-x="1776" 
d="M1745 193q0 -95 -72.5 -152t-182.5 -57q-112 0 -184.5 57t-72.5 152q0 114 74 175.5t183 61.5t182 -61.5t73 -175.5zM1194 193q0 -95 -72.5 -152t-182.5 -57q-112 0 -184.5 57t-72.5 152q0 114 74 175.5t183 61.5t182 -61.5t73 -175.5zM917 768l-463 -768h-143l463 768
h143zM543 546q0 -94 -72.5 -151t-182.5 -57q-112 0 -184.5 57t-72.5 151q0 115 74 176.5t183 61.5t182 -61.5t73 -176.5zM1585 202q0 62 -23.5 103.5t-71.5 41.5t-72 -41.5t-24 -103.5q0 -55 23.5 -94t72.5 -39q45 0 70 40.5t25 92.5zM1033 202q0 62 -23.5 103.5t-70.5 41.5
q-48 0 -72 -41.5t-24 -103.5q0 -55 23 -94t73 -39q44 0 69 40.5t25 92.5zM382 556q0 62 -23.5 103.5t-70.5 41.5q-48 0 -72 -41.5t-24 -103.5q0 -55 23.5 -94t72.5 -39q44 0 69 40t25 93z" />
    <glyph glyph-name="guilsinglleft" unicode="&#x2039;" horiz-adv-x="410" 
d="M353 37l-312 180v140l312 177v-140l-191 -108l191 -109v-140z" />
    <glyph glyph-name="guilsinglright" unicode="&#x203a;" horiz-adv-x="410" 
d="M369 217l-312 -180v140l190 109l-190 108v140l312 -177v-140z" />
    <glyph glyph-name="fraction" unicode="&#x2044;" horiz-adv-x="486" 
d="M691 823l-734 -838h-117l734 838h117z" />
    <glyph glyph-name="trademark" unicode="&#x2122;" horiz-adv-x="893" 
d="M851 401h-112v201l-64 -201h-74l-68 201v-201h-110v368h151l65 -199l66 199h146v-368zM381 662h-117v-261h-125v261h-116v107h358v-107z" />
    <glyph glyph-name="partialdiff" unicode="&#x2202;" 
d="M764 381q0 -151 -107.5 -258.5t-259.5 -107.5t-259.5 107.5t-107.5 258.5t108 259t259 108t259 -108t108 -259zM719 496l-42 48l-176 3l-74 100h-62l-94 -153l-159 -51l-1 -53l133 -70l-83 -134l64 -39l218 84l135 -96l45 24l-9 231z" />
    <glyph glyph-name="product" unicode="&#x220f;" 
d="M764 381q0 -151 -107.5 -258.5t-259.5 -107.5t-259.5 107.5t-107.5 258.5t108 259t259 108t259 -108t108 -259zM719 496l-42 48l-176 3l-74 100h-62l-94 -153l-159 -51l-1 -53l133 -70l-83 -134l64 -39l218 84l135 -96l45 24l-9 231z" />
    <glyph glyph-name="summation" unicode="&#x2211;" 
d="M764 381q0 -151 -107.5 -258.5t-259.5 -107.5t-259.5 107.5t-107.5 258.5t108 259t259 108t259 -108t108 -259zM719 496l-42 48l-176 3l-74 100h-62l-94 -153l-159 -51l-1 -53l133 -70l-83 -134l64 -39l218 84l135 -96l45 24l-9 231z" />
    <glyph glyph-name="minus" unicode="&#x2212;" 
d="M764 381q0 -151 -107.5 -258.5t-259.5 -107.5t-259.5 107.5t-107.5 258.5t108 259t259 108t259 -108t108 -259zM719 496l-42 48l-176 3l-74 100h-62l-94 -153l-159 -51l-1 -53l133 -70l-83 -134l64 -39l218 84l135 -96l45 24l-9 231z" />
    <glyph glyph-name="radical" unicode="&#x221a;" horiz-adv-x="830" 
d="M830 941q-64 -68 -148 -221t-136 -279q-127 -305 -173 -534l-120 -51l-253 422l179 77l116 -293q55 218 137 411q89 210 213 396z" />
    <glyph glyph-name="infinity" unicode="&#x221e;" horiz-adv-x="1240" 
d="M1167 601h-197v167h197v-167zM1167 0h-197v532h197v-532zM909 437h-136v-437h-192v437h-101v95h108q-25 40 -25 100q0 69 48.5 110.5t136.5 41.5q156 0 156 -127q0 -10 -1 -20t-2.5 -17.5t-3 -13.5l-2.5 -10l-1 -3l-106 -13q5 34 5 55q0 60 -40 60t-40 -51q0 -28 9 -56
t18 -42l9 -14h160v-95zM450 437h-136v-437h-192v437h-101v95h108q-25 40 -25 100q0 69 48.5 110.5t136.5 41.5q156 0 156 -127q0 -16 -2.5 -32t-4.5 -24l-3 -8l-106 -13q5 34 5 55q0 60 -40 60t-40 -51q0 -28 9 -56t18 -42l9 -14h160v-95z" />
    <glyph glyph-name="integral" unicode="&#x222b;" 
d="M764 381q0 -151 -107.5 -258.5t-259.5 -107.5t-259.5 107.5t-107.5 258.5t108 259t259 108t259 -108t108 -259zM719 496l-42 48l-176 3l-74 100h-62l-94 -153l-159 -51l-1 -53l133 -70l-83 -134l64 -39l218 84l135 -96l45 24l-9 231z" />
    <glyph glyph-name="approxequal" unicode="&#x2248;" 
d="M764 381q0 -151 -107.5 -258.5t-259.5 -107.5t-259.5 107.5t-107.5 258.5t108 259t259 108t259 -108t108 -259zM719 496l-42 48l-176 3l-74 100h-62l-94 -153l-159 -51l-1 -53l133 -70l-83 -134l64 -39l218 84l135 -96l45 24l-9 231z" />
    <glyph glyph-name="notequal" unicode="&#x2260;" horiz-adv-x="918" 
d="M909 437h-136v-437h-192v437h-101v95h108q-25 40 -25 100q0 69 48.5 110.5t136.5 41.5q156 0 156 -127q0 -16 -2.5 -32t-5.5 -24l-2 -8l-106 -13q5 34 5 55q0 60 -40 60t-40 -51q0 -28 9 -56t18 -42l9 -14h160v-95zM450 437h-136v-437h-192v437h-101v95h108
q-25 40 -25 100q0 69 48.5 110.5t136.5 41.5q156 0 156 -127q0 -16 -2.5 -32t-4.5 -24l-3 -8l-106 -13q5 34 5 55q0 60 -40 60t-40 -51q0 -28 9 -56t18 -42l9 -14h160v-95z" />
    <glyph glyph-name="lessequal" unicode="&#x2264;" 
d="M764 381q0 -151 -107.5 -258.5t-259.5 -107.5t-259.5 107.5t-107.5 258.5t108 259t259 108t259 -108t108 -259zM719 496l-42 48l-176 3l-74 100h-62l-94 -153l-159 -51l-1 -53l133 -70l-83 -134l64 -39l218 84l135 -96l45 24l-9 231z" />
    <glyph glyph-name="greaterequal" unicode="&#x2265;" 
d="M764 381q0 -151 -107.5 -258.5t-259.5 -107.5t-259.5 107.5t-107.5 258.5t108 259t259 108t259 -108t108 -259zM719 496l-42 48l-176 3l-74 100h-62l-94 -153l-159 -51l-1 -53l133 -70l-83 -134l64 -39l218 84l135 -96l45 24l-9 231z" />
    <glyph glyph-name="lozenge" unicode="&#x25ca;" 
d="M764 381q0 -151 -107.5 -258.5t-259.5 -107.5t-259.5 107.5t-107.5 258.5t108 259t259 108t259 -108t108 -259zM719 496l-42 48l-176 3l-74 100h-62l-94 -153l-159 -51l-1 -53l133 -70l-83 -134l64 -39l218 84l135 -96l45 24l-9 231z" />
    <glyph glyph-name="apple" unicode="&#xf8ff;" 
d="M764 381q0 -151 -107.5 -258.5t-259.5 -107.5t-259.5 107.5t-107.5 258.5t108 259t259 108t259 -108t108 -259zM719 496l-42 48l-176 3l-74 100h-62l-94 -153l-159 -51l-1 -53l133 -70l-83 -134l64 -39l218 84l135 -96l45 24l-9 231z" />
    <glyph glyph-name="fi" unicode="&#xfb01;" horiz-adv-x="781" 
d="M708 601h-197v167h197v-167zM708 0h-197v532h197v-532zM450 437h-136v-437h-192v437h-101v95h108q-25 40 -25 100q0 69 48.5 110.5t136.5 41.5q156 0 156 -127q0 -16 -2.5 -32t-4.5 -24l-3 -8l-106 -13q5 34 5 55q0 60 -40 60t-40 -51q0 -28 9 -56t18 -42l9 -14h160v-95z
" />
    <glyph glyph-name="fl" unicode="&#xfb02;" horiz-adv-x="781" 
d="M708 0h-197v768h197v-768zM450 437h-136v-437h-192v437h-101v95h108q-25 40 -25 100q0 69 48.5 110.5t136.5 41.5q156 0 156 -127q0 -16 -2.5 -32t-4.5 -24l-3 -8l-106 -13q5 34 5 55q0 60 -40 60t-40 -51q0 -28 9 -56t18 -42l9 -14h160v-95z" />
    <glyph glyph-name="NUL" horiz-adv-x="0" 
 />
    </font>
</defs>
</svg>
