<?xml version="1.0" standalone="no"?>
<!DOCTYPE svg PUBLIC "-//W3C//DTD SVG 1.1//EN" "http://www.w3.org/Graphics/SVG/1.1/DTD/svg11.dtd" >
<svg xmlns="http://www.w3.org/2000/svg" xmlns:xlink="http://www.w3.org/1999/xlink" version="1.1">
<metadata>
Created by FontForge 20170731 at Mon May  7 09:28:14 2007
 By Aleksey,,,
Copr.1993 The Font Bureau, Inc.
</metadata>
<defs>
<font id="BureauGrotesque-ThreeOne" horiz-adv-x="393" >
  <font-face 
    font-family="BureauGrotesque ThreeOne"
    font-weight="500"
    font-stretch="normal"
    units-per-em="1000"
    panose-1="0 0 0 0 0 0 0 0 0 0"
    ascent="800"
    descent="-200"
    x-height="551"
    cap-height="768"
    bbox="-185 -200 954 906"
    underline-thickness="20"
    underline-position="-173"
    unicode-range="U+0020-FB02"
  />
<missing-glyph horiz-adv-x="500" 
 />
    <glyph glyph-name=".notdef" horiz-adv-x="500" 
 />
    <glyph glyph-name=".null" horiz-adv-x="0" 
 />
    <glyph glyph-name="nonmarkingreturn" horiz-adv-x="333" 
 />
    <glyph glyph-name="space" unicode=" " horiz-adv-x="216" 
 />
    <glyph glyph-name="exclam" unicode="!" horiz-adv-x="170" 
d="M120 484l-19 -231h-32l-19 231v284h70v-284zM121 0h-72v135h72v-135z" />
    <glyph glyph-name="quotedbl" unicode="&#x22;" horiz-adv-x="240" 
d="M200 768l-6 -175h-47l-7 175h60zM100 768l-6 -175h-47l-7 175h60z" />
    <glyph glyph-name="numbersign" unicode="#" horiz-adv-x="489" 
d="M478 551l-10 -78h-102l-23 -169h107l-11 -78h-107l-30 -226h-42l31 226h-136l-30 -226h-42l31 226h-100l11 78h100l23 169h-106l10 78h106l30 217h42l-30 -217h135l30 217h42l-30 -217h101zM325 473h-136l-23 -169h135z" />
    <glyph glyph-name="dollar" unicode="$" horiz-adv-x="411" 
d="M374 232q0 -100 -40 -148t-124 -52v-47h-41v48q-127 30 -127 171q0 18 8 74l62 9q-4 -18 -4 -62q0 -57 15 -89t52 -45v283q-75 39 -109 79t-34 110q0 153 136 179v37h42v-37q138 -12 138 -155q0 -24 -8 -60l-64 -8q3 15 3 43q0 60 -16 89t-58 38v-237
q104 -51 136.5 -95.5t32.5 -124.5zM175 465v223q-37 -9 -57 -37.5t-20 -66.5q0 -77 77 -119zM307 199q0 59 -22.5 96t-79.5 67v-276q51 2 76.5 34.5t25.5 78.5z" />
    <glyph glyph-name="percent" unicode="%" horiz-adv-x="617" 
d="M263 553q0 -110 -29.5 -155.5t-94.5 -45.5t-94 45.5t-29 155.5q0 124 29 172.5t94 48.5q66 0 95 -48.5t29 -172.5zM577 760l-491 -760h-50l491 760h50zM601 192q0 -110 -29.5 -155.5t-94.5 -45.5t-94 45.5t-29 155.5q0 124 29 172.5t94 48.5q66 0 95 -48.5t29 -172.5z
M203 562q0 95 -16 127t-48 32t-47.5 -32t-15.5 -127q0 -93 15.5 -125t47.5 -32t48 32t16 125zM541 201q0 95 -16 127t-48 32t-47.5 -32t-15.5 -127q0 -93 15.5 -125t47.5 -32t48 32t16 125z" />
    <glyph glyph-name="ampersand" unicode="&#x26;" horiz-adv-x="534" 
d="M523 84q0 -96 -103 -96q-52 0 -94 67q-23 -30 -60.5 -47t-77.5 -17q-71 0 -121 53t-50 153q0 155 147 275q-30 88 -30 151q0 70 38 113t96 43q57 0 88.5 -33.5t31.5 -92.5q0 -50 -30 -89t-116 -117l96 -269q26 43 44 146t18 194h60q-4 -251 -83 -409q23 -55 49 -53
q29 2 34.5 26.5t-10.5 82.5l60 8q13 -51 13 -89zM331 653q0 31 -17 51t-46 20q-30 0 -50 -28.5t-20 -68.5q0 -43 23 -118q110 85 110 144zM296 116l-110 295q-55 -57 -77 -98.5t-22 -113.5q0 -69 30.5 -104.5t81.5 -35.5q62 0 97 57z" />
    <glyph glyph-name="quotesingle" unicode="'" horiz-adv-x="140" 
d="M100 768l-6 -175h-47l-7 175h60z" />
    <glyph glyph-name="parenleft" unicode="(" horiz-adv-x="272" 
d="M255 -116l-25 -24q-170 168 -170 465t170 465l25 -24q-64 -111 -92.5 -203t-28.5 -238q0 -148 28 -239t93 -202z" />
    <glyph glyph-name="parenright" unicode=")" horiz-adv-x="272" 
d="M212 325q0 -297 -170 -465l-25 24q65 111 93 202t28 239q0 146 -28.5 238t-92.5 203l25 24q170 -168 170 -465z" />
    <glyph glyph-name="asterisk" unicode="*" horiz-adv-x="330" 
d="M274 620l-27 -41l-58 35v-67h-48v67l-58 -35l-27 41l60 38l-60 35l27 42l58 -34v67h48v-67l58 34l27 -42l-60 -35z" />
    <glyph glyph-name="plus" unicode="+" horiz-adv-x="426" 
d="M373 315h-129v-132h-62v132h-129v58h129v131h62v-131h129v-58z" />
    <glyph glyph-name="comma" unicode="," horiz-adv-x="176" 
d="M123 -4q0 -59 -39 -98l-22 34q18 30 18 68h-27v132h70v-136z" />
    <glyph glyph-name="hyphen" unicode="-" horiz-adv-x="269" 
d="M246 315h-223v58h223v-58z" />
    <glyph glyph-name="period" unicode="." horiz-adv-x="176" 
d="M123 0h-70v132h70v-132z" />
    <glyph glyph-name="slash" unicode="/" horiz-adv-x="315" 
d="M314 768l-267 -768h-46l267 768h46z" />
    <glyph glyph-name="zero" unicode="0" horiz-adv-x="361" 
d="M335 384q0 -226 -30.5 -309t-125.5 -83q-94 0 -123.5 81.5t-29.5 310.5q0 228 29.5 310t123.5 82q95 0 125.5 -83t30.5 -309zM264 384q0 197 -19 269t-66 72q-31 0 -48 -29t-25.5 -103t-8.5 -209q0 -138 8.5 -211.5t25.5 -101.5t48 -28q47 0 66 72t19 269z" />
    <glyph glyph-name="one" unicode="1" horiz-adv-x="278" 
d="M215 0h-68v641q-54 -24 -131 -24v42q65 12 103 38t60 77h36v-774z" />
    <glyph glyph-name="two" unicode="2" horiz-adv-x="367" 
d="M337 563q0 -113 -64.5 -242.5t-165.5 -252.5h227v-68h-304v55q72 82 149 230q88 170 88 278q0 152 -92 152q-88 0 -88 -138q0 -44 10 -122l-65 -2q-11 57 -11 130q0 193 158 193q82 0 120 -51.5t38 -161.5z" />
    <glyph glyph-name="three" unicode="3" horiz-adv-x="363" 
d="M352 214q0 -125 -45 -174.5t-133 -49.5q-75 0 -114 46t-39 130q0 67 10 110l64 4q-8 -45 -8 -85q0 -81 22.5 -116.5t71.5 -35.5q56 0 77 38.5t21 147.5q0 66 -19 109.5t-56 43.5h-78v65h78q65 0 65 128q0 74 -21.5 110t-70.5 36q-39 0 -65 -31.5t-26 -81.5q0 -40 5 -77
l-59 4q-9 39 -9 70q0 76 39.5 122.5t112.5 46.5q83 0 121.5 -48.5t38.5 -160.5q0 -68 -18.5 -104t-61.5 -42q45 -1 71 -55.5t26 -149.5z" />
    <glyph glyph-name="four" unicode="4" horiz-adv-x="376" 
d="M368 176h-65v-176h-66v176h-227v88l193 504h100v-530h65v-62zM237 238v450l-173 -450h173z" />
    <glyph glyph-name="five" unicode="5" horiz-adv-x="373" 
d="M347 301q0 -90 -12 -152t-36 -96t-54.5 -48t-72.5 -14q-150 0 -150 164q0 45 9 86l65 9q-7 -38 -7 -80q0 -62 18.5 -89.5t66.5 -27.5q33 0 53.5 17t35 74t14.5 158q0 103 -22.5 147t-69.5 44q-35 0 -55.5 -28t-31.5 -89l-60 7l41 385h247q-5 -56 -7 -67h-186l-22 -187
q20 24 41.5 33.5t56.5 9.5q70 0 104 -60.5t34 -195.5z" />
    <glyph glyph-name="six" unicode="6" horiz-adv-x="372" 
d="M350 250q0 -144 -40 -201.5t-121 -57.5q-92 0 -127.5 85.5t-35.5 310.5q0 96 8.5 166t22.5 112.5t36.5 67.5t46 34t55.5 9q68 0 101 -31.5t33 -102.5q0 -30 -10 -67l-65 -2q8 32 8 62q0 48 -13.5 66.5t-55.5 18.5q-97 0 -97 -303q43 68 112 68q71 0 106.5 -56t35.5 -179z
M279 241q0 104 -23.5 145.5t-66.5 41.5q-37 0 -64 -52t-27 -135q0 -191 92 -191q42 0 65.5 41.5t23.5 149.5z" />
    <glyph glyph-name="seven" unicode="7" horiz-adv-x="337" 
d="M331 719q-76 -148 -120 -285.5t-44 -281.5q0 -80 13 -152h-76q-8 36 -8 103q0 272 174 598h-269v67h330v-49z" />
    <glyph glyph-name="eight" unicode="8" horiz-adv-x="374" 
d="M351 213q0 -123 -37.5 -172.5t-126.5 -49.5t-126.5 50t-37.5 172q0 175 85 210q-70 28 -70 156q0 97 39.5 147t109.5 50q150 0 150 -198q0 -122 -72 -155q45 -15 65.5 -63.5t20.5 -146.5zM268 583q0 139 -81 139q-80 0 -80 -139q0 -69 23 -101.5t57 -32.5t57 33.5
t24 100.5zM283 222q0 92 -27 133.5t-69 41.5q-96 0 -96 -175q0 -102 25.5 -139t70.5 -37t70.5 37t25.5 139z" />
    <glyph glyph-name="nine" unicode="9" horiz-adv-x="372" 
d="M346 380q0 -122 -11.5 -201.5t-35.5 -119t-52 -54t-70 -14.5q-72 0 -103 32t-31 102q0 21 10 67l60 1q-8 -32 -8 -62q0 -48 15.5 -66t61.5 -18q45 0 70 63t25 223q-12 -22 -46.5 -36.5t-66.5 -14.5q-72 0 -107 55t-35 180q0 141 40 200t121 59q94 0 128.5 -85.5
t34.5 -310.5zM274 526q0 91 -25 141t-67 50q-88 0 -88 -191q0 -108 21 -147.5t70 -39.5q89 0 89 187z" />
    <glyph glyph-name="colon" unicode=":" horiz-adv-x="176" 
d="M123 419h-70v132h70v-132zM123 0h-70v132h70v-132z" />
    <glyph glyph-name="semicolon" unicode=";" horiz-adv-x="176" 
d="M123 419h-70v132h70v-132zM123 -4q0 -59 -39 -98l-22 34q18 30 18 68h-27v132h70v-136z" />
    <glyph glyph-name="less" unicode="&#x3c;" horiz-adv-x="286" 
d="M248 123l-225 187v61l225 188v-83l-161 -135l161 -135v-83z" />
    <glyph glyph-name="equal" unicode="=" horiz-adv-x="426" 
d="M368 386h-310v62h310v-62zM368 235h-310v62h310v-62z" />
    <glyph glyph-name="greater" unicode="&#x3e;" horiz-adv-x="286" 
d="M261 310l-225 -187v83l161 135l-161 135v83l225 -188v-61z" />
    <glyph glyph-name="question" unicode="?" horiz-adv-x="338" 
d="M322 536q0 -113 -29.5 -159.5t-87.5 -46.5q-66 0 -97 44l3 -131h-53v248h48q5 -52 21 -74t54 -22q41 0 55.5 40.5t14.5 137.5q0 83 -21.5 114.5t-67.5 31.5q-74 0 -74 -83q0 -10 7 -62l-63 3q-9 25 -9 70q0 62 35 97t108 35q37 0 64 -10t48.5 -36t32.5 -75t11 -122z
M127 0h-76v132h76v-132z" />
    <glyph glyph-name="at" unicode="@" horiz-adv-x="764" 
d="M701 391q0 -39 -8 -75.5t-26.5 -72t-54.5 -57t-86 -21.5q-41 0 -59 10t-25 31q-13 -18 -40 -27t-52 -9q-109 0 -109 122q0 93 116 127q63 18 80.5 30.5t19.5 40.5q3 47 -12 61.5t-51 14.5q-32 0 -49 -14.5t-17 -52.5q0 -12 5 -37l-54 -3q-11 20 -11 46q0 47 36 71t103 24
q116 0 112 -89q-1 -26 -7 -127t-9 -160q-1 -12 7 -18.5t30 -6.5q42 0 71.5 32.5t41.5 74t12 85.5q0 127 -78 214.5t-200 87.5q-123 0 -205.5 -92.5t-82.5 -219.5q0 -128 82.5 -220t205.5 -92q64 0 121 26l13 -34q-64 -28 -134 -28q-138 0 -231 102t-93 246q0 142 93 245
t231 103q137 0 225.5 -98t88.5 -240zM453 407q-79 -16 -112 -40.5t-33 -68.5q0 -47 14.5 -63t53.5 -16q35 0 52 16t19 52z" />
    <glyph glyph-name="A" unicode="A" horiz-adv-x="358" 
d="M344 0h-69l-23 138h-150l-22 -138h-66l127 774h76zM242 199l-65 423l-65 -423h130z" />
    <glyph glyph-name="B" unicode="B" horiz-adv-x="405" 
d="M378 216q0 -113 -42.5 -164.5t-132.5 -51.5h-155v768h144q94 0 129.5 -50t35.5 -153q0 -64 -25 -105t-72 -50q50 -5 84 -57.5t34 -136.5zM291 565q0 75 -24 111t-75 36h-75v-273h92q82 0 82 126zM307 225q0 65 -28 111.5t-71 46.5h-91v-325h89q50 0 75.5 35.5t25.5 131.5
z" />
    <glyph glyph-name="C" unicode="C" horiz-adv-x="361" 
d="M331 323q12 -99 7 -173.5t-41.5 -118t-105.5 -43.5q-96 0 -129 78t-33 292q0 242 34 331.5t129 89.5q70 0 103.5 -38.5t35.5 -104t-5 -152.5l-64 -2q13 129 -1 184t-67 55q-21 0 -37 -16t-29 -53.5t-19.5 -106.5t-6.5 -169q0 -182 17.5 -255.5t76.5 -73.5q104 0 70 276
h65z" />
    <glyph glyph-name="D" unicode="D" horiz-adv-x="407" 
d="M378 345q0 -143 -16.5 -215.5t-54 -101t-111.5 -28.5h-148v768h140q38 0 64.5 -8t52 -33.5t40.5 -71t24 -123t9 -187.5zM305 327q0 152 -14.5 237.5t-39.5 114.5t-67 29h-66v-648h69q26 0 42 4.5t32 19.5t25 43.5t14 78t5 121.5z" />
    <glyph glyph-name="E" unicode="E" horiz-adv-x="321" 
d="M315 0h-267v768h246v-59h-176v-288h158v-59h-158v-303h197v-59z" />
    <glyph glyph-name="F" unicode="F" horiz-adv-x="299" 
d="M292 709h-174v-291h147v-62h-147v-356h-70v768h244v-59z" />
    <glyph glyph-name="G" unicode="G" horiz-adv-x="387" 
d="M354 -6h-32l-16 49q-31 -55 -111 -55q-65 0 -98 25t-50.5 104t-17.5 234q0 175 16.5 266.5t52 126.5t102.5 35q77 0 109 -45.5t32 -145.5q0 -23 -4 -85l-64 -4q4 43 4 83q0 141 -77 141q-25 0 -40.5 -12t-30 -47.5t-21.5 -110t-7 -191.5q0 -84 5.5 -143.5t14 -93
t22.5 -52.5t27.5 -24t32.5 -5q36 0 60.5 27t24.5 75v189h-101v55h167v-396z" />
    <glyph glyph-name="H" unicode="H" horiz-adv-x="413" 
d="M365 0h-70v367h-177v-367h-70v768h70v-339h177v339h70v-768z" />
    <glyph glyph-name="I" unicode="I" horiz-adv-x="166" 
d="M118 0h-70v768h70v-768z" />
    <glyph glyph-name="J" unicode="J" horiz-adv-x="369" 
d="M324 155q0 -87 -36.5 -127t-115.5 -40q-80 0 -117.5 39.5t-37.5 132.5q0 59 17 116l66 1q-17 -66 -17 -128q0 -102 86 -102q41 0 63 27t22 98v596h70v-613z" />
    <glyph glyph-name="K" unicode="K" horiz-adv-x="394" 
d="M397 0h-76l-203 379v-379h-70v768h70v-335l189 335h75l-204 -355z" />
    <glyph glyph-name="L" unicode="L" horiz-adv-x="306" 
d="M304 0h-256v768h70v-706h186v-62z" />
    <glyph glyph-name="M" unicode="M" horiz-adv-x="497" 
d="M448 0h-63v542l-114 -542h-46l-114 542v-542h-63v768h79l121 -584l121 584h79v-768z" />
    <glyph glyph-name="N" unicode="N" horiz-adv-x="396" 
d="M348 0h-64l-173 568v-568h-63v768h64l173 -568v568h63v-768z" />
    <glyph glyph-name="O" unicode="O" horiz-adv-x="381" 
d="M352 378q0 -96 -4 -158t-14 -110t-29 -73t-46.5 -37t-68.5 -12t-68.5 12t-46.5 37t-28.5 73t-13.5 110t-4 158q0 235 31 318t130 83t130.5 -83.5t31.5 -317.5zM279 380q0 139 -7.5 210.5t-27 102t-56.5 30.5q-54 0 -70 -68t-16 -275q0 -208 16 -272t72 -64q54 0 71.5 66
t17.5 270z" />
    <glyph glyph-name="P" unicode="P" horiz-adv-x="378" 
d="M361 547q0 -66 -10 -107.5t-32.5 -62.5t-49.5 -28.5t-69 -7.5h-82v-341h-70v768h163q75 0 112.5 -51.5t37.5 -169.5zM292 543q0 95 -23 130.5t-74 35.5h-77v-310h90q47 0 65.5 32t18.5 112z" />
    <glyph glyph-name="Q" unicode="Q" horiz-adv-x="382" 
d="M352 378q0 -93 -4 -156t-14 -109.5t-27.5 -72t-42 -38t-61.5 -14.5q-9 -32 -9 -46q0 -29 11.5 -41.5t41.5 -12.5q45 0 45 39q0 11 -2 25h31q9 -15 9 -38q0 -29 -22 -49.5t-67 -20.5q-95 0 -95 86q0 22 9 60q-51 9 -77 44t-37.5 114.5t-11.5 229.5q0 237 30.5 319
t130.5 82q99 0 130.5 -83.5t31.5 -317.5zM279 380q0 139 -7.5 210.5t-27 102t-56.5 30.5q-54 0 -70 -68t-16 -275q0 -208 16 -272t72 -64q54 0 71.5 66t17.5 270z" />
    <glyph glyph-name="R" unicode="R" horiz-adv-x="404" 
d="M392 0h-80q-14 20 -23.5 60t-9.5 81v121q0 109 -69 109h-92v-371h-70v768h158q85 0 123 -48.5t38 -146.5q0 -88 -25 -129.5t-80 -49.5q51 -8 68.5 -48t17.5 -129q2 -62 4.5 -94t12 -67.5t27.5 -55.5zM296 550q0 95 -21.5 130.5t-68.5 35.5h-88v-291h97q42 0 61.5 28.5
t19.5 96.5z" />
    <glyph glyph-name="S" unicode="S" horiz-adv-x="368" 
d="M352 200q0 -212 -166 -212q-77 0 -116.5 39.5t-39.5 136.5q0 56 13 106l64 6q-9 -54 -9 -117q0 -67 22.5 -90.5t67.5 -23.5q94 0 94 128q0 74 -30.5 120.5t-101.5 90.5q-69 43 -100.5 88t-31.5 113q0 96 40.5 145t114.5 49q151 0 151 -158q0 -37 -9 -75l-62 -8q5 25 5 77
q0 56 -25 83.5t-60 27.5q-34 0 -59.5 -29t-25.5 -83q0 -64 23.5 -94.5t81.5 -67.5q4 -2 5.5 -3t4.5 -2.5t5 -3.5q80 -52 112 -102.5t32 -140.5z" />
    <glyph glyph-name="T" unicode="T" horiz-adv-x="352" 
d="M344 706h-133v-706h-70v706h-133v62h336v-62z" />
    <glyph glyph-name="U" unicode="U" horiz-adv-x="417" 
d="M371 124q0 -68 -38.5 -102t-123.5 -34q-86 0 -124.5 34t-38.5 102v644h70v-644q0 -39 21 -57.5t72 -18.5q53 0 72.5 19t19.5 57v644h70v-644z" />
    <glyph glyph-name="V" unicode="V" horiz-adv-x="354" 
d="M351 768l-130 -773h-87l-131 773h69l109 -640l104 640h66z" />
    <glyph glyph-name="W" unicode="W" horiz-adv-x="502" 
d="M494 768l-106 -769h-66l-71 563l-76 -563h-66l-101 769h69l70 -568l73 568h62l73 -568l76 568h63z" />
    <glyph glyph-name="X" unicode="X" horiz-adv-x="348" 
d="M341 0h-68l-100 297l-101 -297h-63l130 394l-124 374h69l93 -287l96 287h63l-124 -380z" />
    <glyph glyph-name="Y" unicode="Y" horiz-adv-x="367" 
d="M365 768l-147 -466v-302h-70v301l-152 467h71l119 -366l112 366h67z" />
    <glyph glyph-name="Z" unicode="Z" horiz-adv-x="334" 
d="M321 702l-242 -639h238v-63h-308v64l241 642h-216v62h287v-66z" />
    <glyph glyph-name="bracketleft" unicode="[" horiz-adv-x="252" 
d="M227 -166h-174v934h174v-59h-104v-816h104v-59z" />
    <glyph glyph-name="backslash" unicode="\" horiz-adv-x="329" 
d="M328 0h-46l-282 768h46z" />
    <glyph glyph-name="bracketright" unicode="]" horiz-adv-x="252" 
d="M199 -166h-173v59h103v816h-103v59h173v-934z" />
    <glyph glyph-name="asciicircum" unicode="^" horiz-adv-x="308" 
d="M265 644h-51l-58 86l-58 -86h-51l75 124h68z" />
    <glyph glyph-name="underscore" unicode="_" horiz-adv-x="384" 
d="M384 -190h-384v50h384v-50z" />
    <glyph glyph-name="grave" unicode="`" horiz-adv-x="409" 
d="M253 662h-38l-76 106h72z" />
    <glyph glyph-name="a" unicode="a" horiz-adv-x="324" 
d="M322 6q-26 -14 -58 -14t-36 46q-33 -46 -93 -46q-53 0 -83 34.5t-30 132.5q0 71 31 104.5t105 68.5q10 5 27.5 14t27.5 13q5 38 5 78q0 41 -18 60t-44 19t-45 -17.5t-19 -53.5q0 -27 8 -57l-55 -2q-9 33 -9 56q0 114 126 114q114 0 114 -103v-376q0 -41 22 -41q14 0 24 7
v-37zM216 101v211q-72 -24 -102 -57t-30 -108q0 -110 68 -110q25 0 42 19t22 45z" />
    <glyph glyph-name="b" unicode="b" horiz-adv-x="330" 
d="M304 275q0 -112 -14.5 -174t-41.5 -85.5t-75 -23.5q-67 0 -99 49l-21 -41h-23v768h61v-265q19 27 39 40.5t57 13.5q41 0 65 -21t38 -84t14 -177zM240 276q0 142 -17 188.5t-58 46.5q-76 0 -76 -236q0 -153 5 -182q4 -24 23 -39t47 -15q27 0 42.5 17t24.5 70t9 150z" />
    <glyph glyph-name="c" unicode="c" horiz-adv-x="309" 
d="M288 152q0 -89 -25.5 -125t-98.5 -36q-55 0 -83.5 23.5t-41.5 85t-13 181.5q0 113 15.5 174t43 81.5t76.5 20.5q65 0 92 -33.5t27 -112.5q0 -27 -5 -57l-59 -1q4 26 4 55q0 54 -13 79.5t-46 25.5q-23 0 -37 -16t-23.5 -71.5t-9.5 -155.5q0 -99 10 -152.5t25.5 -68.5
t41.5 -15q33 0 47 26t14 98q0 7 -1 20.5t-2.5 29t-1.5 20.5l54 -2q10 -35 10 -74z" />
    <glyph glyph-name="d" unicode="d" horiz-adv-x="332" 
d="M302 0h-59v57q-15 -34 -34.5 -49t-61.5 -15q-44 0 -69 22.5t-38.5 83.5t-13.5 170q0 165 31.5 226.5t92.5 61.5q62 0 89 -45v256h63v-768zM241 275q0 235 -76 235q-24 0 -39.5 -17t-25.5 -70.5t-10 -146.5t10.5 -147t25.5 -71.5t39 -17.5q76 0 76 235z" />
    <glyph glyph-name="e" unicode="e" horiz-adv-x="315" 
d="M290 126q0 -68 -29 -101.5t-92 -33.5q-54 0 -83 18.5t-44.5 75t-15.5 164.5q0 125 15.5 193t43.5 91.5t78 23.5q70 0 98 -51t28 -169q0 -29 -4 -73h-196q0 -47 0.5 -74.5t3 -57.5t8 -45t14 -29t22 -19t32.5 -5q36 0 50.5 24t14.5 94q0 8 -2 25t-2 20l55 -2q5 -20 5 -69z
M229 382q0 132 -68 132q-73 0 -73 -208h138q3 24 3 76z" />
    <glyph glyph-name="f" unicode="f" horiz-adv-x="209" 
d="M268 677q0 -16 -4 -46l-53 -5q4 28 4 44q0 58 -49 58q-18 0 -33 -12.5t-15 -42.5v-122h76v-46h-76v-505h-62v505h-53v46h53v111q0 114 108 114q104 0 104 -99z" />
    <glyph glyph-name="g" unicode="g" horiz-adv-x="364" 
d="M371 593l-64 -106q23 -37 23 -120q0 -178 -140 -178q-37 0 -57 7q-52 -20 -52 -43q0 -30 75 -30h65q65 0 104 -40t39 -112q0 -88 -47 -129.5t-129 -41.5q-87 0 -137.5 36.5t-50.5 109.5q0 36 23 70.5t59 52.5q-28 6 -45.5 22.5t-17.5 41.5q0 48 77 78q-58 34 -58 156
q0 89 40.5 139.5t106.5 50.5q58 0 94 -35l35 71h57zM267 370q0 137 -81 137q-38 0 -61.5 -33t-23.5 -104q0 -134 80 -134q46 0 66 30t20 104zM305 -49q0 54 -31.5 83.5t-82.5 29.5h-60q-74 -46 -74 -108q0 -111 130 -111q48 0 83 29t35 77z" />
    <glyph glyph-name="h" unicode="h" horiz-adv-x="321" 
d="M294 0h-63v460q0 48 -52 48q-36 0 -61.5 -28.5t-25.5 -69.5v-410h-62v768h62v-266q22 31 44.5 43t59.5 12q47 0 72.5 -22t25.5 -62v-473z" />
    <glyph glyph-name="i" unicode="i" horiz-adv-x="122" 
d="M95 641h-68v83h68v-83zM92 0h-62v551h62v-551z" />
    <glyph glyph-name="j" unicode="j" horiz-adv-x="161" 
d="M129 641h-66v83h66v-83zM127 -71q0 -52 -30.5 -81t-84.5 -29q-50 0 -80 25.5t-30 69.5q0 12 7 45l59 2q-7 -30 -7 -44q0 -48 54 -48q50 0 50 73v609h62v-622z" />
    <glyph glyph-name="k" unicode="k" horiz-adv-x="320" 
d="M329 0h-67l-131 255l-39 -64v-191h-62v768h62v-478l167 261h63l-145 -242z" />
    <glyph glyph-name="l" unicode="l" horiz-adv-x="122" 
d="M92 0h-62v768h62v-768z" />
    <glyph glyph-name="m" unicode="m" horiz-adv-x="500" 
d="M472 0h-63v445q0 36 -13 50t-48 14q-24 0 -44.5 -18.5t-20.5 -49.5v-441h-62v464q0 21 -13 33t-36 12q-27 0 -53 -28t-26 -60v-421h-63v551h63v-49q36 55 103 55q37 0 54.5 -12.5t29.5 -35.5q31 48 96 48q45 0 70.5 -20.5t25.5 -60.5v-476z" />
    <glyph glyph-name="n" unicode="n" horiz-adv-x="322" 
d="M294 0h-63v450q0 33 -11 45.5t-42 12.5q-37 0 -61.5 -30.5t-24.5 -68.5v-409h-62v551h61v-52q19 30 42.5 44t62.5 14q98 0 98 -88v-469z" />
    <glyph glyph-name="o" unicode="o" horiz-adv-x="329" 
d="M303 274q0 -115 -16 -177.5t-44 -84t-79 -21.5t-79 21.5t-43.5 83.5t-15.5 178t15.5 178t43.5 83.5t79 21.5t79 -21.5t44 -84t16 -177.5zM239 275q0 138 -18.5 187.5t-56.5 49.5t-56 -49.5t-18 -189.5q0 -138 18 -187.5t56 -49.5q25 0 40.5 17.5t25 71.5t9.5 150z" />
    <glyph glyph-name="p" unicode="p" horiz-adv-x="333" 
d="M304 271q0 -116 -14.5 -178t-40 -82t-72.5 -20q-27 0 -52 16t-34 36v-218h-61v726h61v-51q37 57 100 57q38 0 61 -22t37.5 -87t14.5 -177zM240 272q0 93 -10.5 147.5t-25 72t-36.5 17.5q-18 0 -31 -8.5t-24.5 -32.5t-17.5 -73t-6 -124q0 -232 76 -232q27 0 41.5 14.5
t24 67t9.5 151.5z" />
    <glyph glyph-name="q" unicode="q" horiz-adv-x="332" 
d="M302 -176h-61v222q-9 -23 -36 -38t-58 -15q-44 0 -69.5 23.5t-38.5 84t-13 168.5q0 164 32.5 226t101.5 62q62 0 100 -52l17 46h25v-727zM241 275q0 94 -11 149t-26.5 72t-38.5 17t-38 -15.5t-26 -70.5t-11 -151q0 -95 10 -148.5t25.5 -70t39.5 -16.5q37 0 56.5 52.5
t19.5 181.5z" />
    <glyph glyph-name="r" unicode="r" horiz-adv-x="270" 
d="M261 442q0 -50 -10 -110l-58 -4q14 82 13 109q0 35 -10 49.5t-32 14.5q-28 0 -50 -29.5t-22 -82.5v-389h-62v551h61v-54q35 60 91 60q40 0 59.5 -27t19.5 -88z" />
    <glyph glyph-name="s" unicode="s" horiz-adv-x="311" 
d="M291 151q0 -160 -143 -160q-123 0 -123 120q0 24 7 75l57 8q-10 -52 -10 -70q0 -83 68 -83q41 0 60.5 20.5t19.5 67.5q0 42 -25.5 72.5t-88.5 72.5q-49 33 -70 61t-21 78q0 72 35.5 108t93.5 36q55 0 86.5 -29.5t31.5 -89.5q0 -26 -6 -56l-56 -2q7 32 7 54q0 75 -65 75
q-25 0 -46 -19t-21 -52q0 -38 16.5 -58.5t75.5 -61.5q69 -47 93 -79.5t24 -87.5z" />
    <glyph glyph-name="t" unicode="t" horiz-adv-x="227" 
d="M223 13q-31 -22 -85 -22q-89 0 -89 82v432h-53v46h52v153h63v-153h86v-46h-86v-410q0 -30 9 -39.5t39 -9.5q23 0 64 17v-50z" />
    <glyph glyph-name="u" unicode="u" horiz-adv-x="324" 
d="M294 0h-62v41q-15 -22 -44.5 -35t-63.5 -13q-94 0 -94 84v474h62v-458q0 -26 13 -37.5t49 -11.5q30 0 53.5 24t23.5 60v423h63v-551z" />
    <glyph glyph-name="v" unicode="v" horiz-adv-x="285" 
d="M277 551l-96 -551h-82l-96 551h63l77 -433l73 433h61z" />
    <glyph glyph-name="w" unicode="w" horiz-adv-x="426" 
d="M420 551l-100 -551h-56l-53 371l-52 -371h-56l-100 551h61l70 -373l49 373h56l53 -370l69 370h59z" />
    <glyph glyph-name="x" unicode="x" horiz-adv-x="312" 
d="M307 0h-67l-85 222l-86 -222h-65l116 306l-97 245h67l65 -167l66 167h65l-96 -249z" />
    <glyph glyph-name="y" unicode="y" horiz-adv-x="312" 
d="M299 551q-22 -125 -99 -550q-17 -92 -44 -134.5t-86 -42.5q-42 0 -73 18.5t-34 61.5q-2 28 -1 43l57 8q-3 -30 -3 -36q0 -18 14 -31.5t36 -13.5q31 0 45 24t23 82l-135 571h65l99 -445l69 445h67z" />
    <glyph glyph-name="z" unicode="z" horiz-adv-x="247" 
d="M238 500l-167 -447h166v-53h-233v43l167 458h-137v50h204v-51z" />
    <glyph glyph-name="braceleft" unicode="{" horiz-adv-x="250" 
d="M239 711h-50q-32 0 -32 -31v-322q0 -56 -48 -56q48 0 48 -53v-341q0 -15 7 -20.5t23 -5.5h51v-58h-56q-43 0 -65 17.5t-22 59.5v321q0 54 -53 54h-8v52h8q28 0 40.5 13t12.5 44v303q0 80 88 80h56v-57z" />
    <glyph glyph-name="bar" unicode="|" horiz-adv-x="153" 
d="M103 -190h-53v978h53v-978z" />
    <glyph glyph-name="braceright" unicode="}" horiz-adv-x="250" 
d="M217 276h-8q-53 0 -53 -54v-321q0 -77 -87 -77h-56v58h51q16 0 23 5t7 21v341q0 53 48 53q-48 0 -48 56v322q0 31 -31 31h-51v57h56q88 0 88 -80v-303q0 -31 12.5 -44t40.5 -13h8v-52z" />
    <glyph glyph-name="asciitilde" unicode="~" horiz-adv-x="285" 
d="M257 724q0 -24 -13.5 -41.5t-39.5 -17.5q-25 0 -47 14q-27 18 -60 39q-5 4 -15 4t-15 -12.5t-1 -24.5l-20 -9q-14 18 -14 44q0 24 11.5 41.5t36.5 17.5t42 -10q15 -9 57 -37q15 -10 28 -10q24 0 10 46h31q9 -18 9 -44z" />
    <glyph glyph-name="nbspace" unicode="&#xa0;" horiz-adv-x="108" 
 />
    <glyph glyph-name="exclamdown" unicode="&#xa1;" horiz-adv-x="170" 
d="M120 633h-72v135h72v-135zM119 0h-70v284l19 231h32l19 -231v-284z" />
    <glyph glyph-name="cent" unicode="&#xa2;" horiz-adv-x="315" 
d="M285 423q0 -51 -21 -76t-79 -32v-47h-45v47q-64 3 -87.5 44t-23.5 145q0 99 27.5 138t83.5 41v44h45v-44q50 -2 72 -27t22 -76q0 -22 -3 -41l-60 -1q3 15 3 37q0 41 -14.5 54.5t-40.5 13.5q-17 0 -27.5 -4t-21 -17.5t-15.5 -44.5t-5 -80q0 -65 10 -98t22.5 -40t36.5 -7
q12 0 20 2t19 8.5t16.5 24t5.5 43.5q0 5 -1 22t-2 29l57 -1q6 -28 6 -57z" />
    <glyph glyph-name="sterling" unicode="&#xa3;" horiz-adv-x="447" 
d="M416 138q0 -70 -29.5 -110t-74.5 -40q-61 0 -114 71q-29 -71 -89 -71q-42 0 -69.5 25t-27.5 67t28 65.5t65 23.5q30 0 64 -23q6 24 6 74q0 43 -14 104h-109v60h97q-23 121 -23 171q0 219 131 219q58 0 93.5 -56.5t35.5 -146.5q0 -59 -8 -83l-65 -7q9 52 9 96
q0 71 -20 108.5t-45 37.5q-28 0 -46 -41t-18 -108q0 -115 20 -190h142v-60h-129q10 -55 10 -96q0 -60 -13 -113q50 -48 82 -48q47 0 47 89q0 28 -12 86l59 -6q17 -64 17 -98zM154 92q-21 20 -45 20q-41 0 -41 -35q0 -12 13 -22.5t29 -10.5q14 0 26.5 13t17.5 35z" />
    <glyph glyph-name="currency" unicode="&#xa4;" 
d="M334 388q0 -131 -40.5 -223t-98.5 -92t-97.5 92t-39.5 223t40 224t97 93q58 0 98.5 -93t40.5 -224zM317 356l-83 130l-38 162l-34 -152l-59 24l50 -154l-58 -113l100 -15l38 -122l15 217z" />
    <glyph glyph-name="yen" unicode="&#xa5;" horiz-adv-x="367" 
d="M365 768l-113 -359h100v-31h-110l-15 -46h125v-31h-134v-301h-70v301h-135v31h126l-15 46h-111v31h101l-118 359h72l118 -365l116 365h63z" />
    <glyph glyph-name="brokenbar" unicode="&#xa6;" 
d="M334 388q0 -131 -40.5 -223t-98.5 -92t-97.5 92t-39.5 223t40 224t97 93q58 0 98.5 -93t40.5 -224zM317 356l-83 130l-38 162l-34 -152l-59 24l50 -154l-58 -113l100 -15l38 -122l15 217z" />
    <glyph glyph-name="section" unicode="&#xa7;" horiz-adv-x="344" 
d="M318 97q0 -76 -37 -115t-107 -39q-63 0 -93 38.5t-30 99.5q0 49 17 102l50 6q-13 -56 -13 -110q0 -41 19.5 -62.5t49.5 -21.5q34 0 56.5 21t22.5 69q0 22 -14.5 45t-32.5 40.5t-66 60.5q-98 87 -98 151q0 55 71 120q-39 34 -57 63.5t-18 72.5q0 73 36.5 107t97.5 34
q43 0 75 -28.5t32 -86.5q0 -31 -16 -104l-47 1q11 57 11 88q0 77 -65 77q-30 0 -47 -19.5t-17 -58.5q0 -53 100 -121q67 -46 93.5 -79t26.5 -78q0 -72 -76 -125q44 -41 60 -72.5t16 -75.5zM257 353q0 25 -21.5 47.5t-87.5 71.5q-42 -44 -42 -75q0 -48 99 -122q52 36 52 78z
" />
    <glyph glyph-name="dieresis" unicode="&#xa8;" horiz-adv-x="409" 
d="M341 709h-98v59h98v-59zM166 709h-98v59h98v-59z" />
    <glyph glyph-name="copyright" unicode="&#xa9;" horiz-adv-x="555" 
d="M502 543q0 -92 -66 -157.5t-158 -65.5q-93 0 -159 65.5t-66 157.5q0 93 66 159t159 66q92 0 158 -66t66 -159zM477 543q0 83 -58.5 142.5t-140.5 59.5q-83 0 -141.5 -59.5t-58.5 -142.5t58.5 -141.5t141.5 -58.5q82 0 140.5 58.5t58.5 141.5zM377 478q0 -50 -20.5 -70.5
t-77.5 -20.5q-63 0 -86.5 33.5t-23.5 131.5q0 92 24.5 124t81.5 32q52 0 74 -19.5t22 -63.5q0 -23 -3 -34l-48 2q4 10 4 28q0 29 -10.5 41t-38.5 12q-27 0 -40 -24.5t-13 -105.5q0 -77 14 -99.5t46 -22.5q28 0 38 10.5t10 49.5q0 4 -2 20t-2 19l44 -1q7 -19 7 -42z" />
    <glyph glyph-name="ordfeminine" unicode="&#xaa;" horiz-adv-x="357" 
d="M320 384q-19 -11 -52 -11q-37 0 -44 33q-20 -33 -85 -33q-47 0 -77 23.5t-30 92.5q0 89 103 119q58 16 74.5 28.5t16.5 38.5q0 44 -15 58t-48 14q-29 0 -44.5 -14t-15.5 -49q0 -16 6 -35l-50 -3q-13 14 -13 44q0 89 126 89q61 0 85.5 -20.5t24.5 -57.5v-270q0 -23 18 -23
q13 0 20 7v-31zM325 296h-293v42h293v-42zM223 484v112q-74 -15 -103.5 -37.5t-29.5 -64.5q0 -46 14 -60t56 -14q63 0 63 64z" />
    <glyph glyph-name="guillemotleft" unicode="&#xab;" horiz-adv-x="319" 
d="M287 175l-123 122v94l123 121v-88l-89 -80l89 -82v-87zM150 175l-123 122v94l123 121v-88l-89 -80l89 -82v-87z" />
    <glyph glyph-name="logicalnot" unicode="&#xac;" 
d="M334 388q0 -131 -40.5 -223t-98.5 -92t-97.5 92t-39.5 223t40 224t97 93q58 0 98.5 -93t40.5 -224zM317 356l-83 130l-38 162l-34 -152l-59 24l50 -154l-58 -113l100 -15l38 -122l15 217z" />
    <glyph glyph-name="registered" unicode="&#xae;" horiz-adv-x="555" 
d="M502 543q0 -92 -66 -157.5t-158 -65.5q-93 0 -159 65.5t-66 157.5q0 93 66 159t159 66q92 0 158 -66t66 -159zM477 543q0 83 -58.5 142.5t-140.5 59.5q-83 0 -141.5 -59.5t-58.5 -142.5t58.5 -141.5t141.5 -58.5q82 0 140.5 58.5t58.5 141.5zM393 614q0 -27 -15 -47
t-46 -23q35 -4 43 -34q5 -18 7 -86q3 -24 7 -36h-49q-9 18 -9 49v39q0 43 -35 43h-59v-131h-50v321h101q60 0 82.5 -21.5t22.5 -73.5zM337 616q0 33 -10 46.5t-37 13.5h-52v-120h50q26 0 37.5 12t11.5 48z" />
    <glyph glyph-name="macron" unicode="&#xaf;" horiz-adv-x="409" 
d="M317 709h-223v59h223v-59z" />
    <glyph glyph-name="degree" unicode="&#xb0;" horiz-adv-x="188" 
d="M170 692q0 -31 -22.5 -53t-53.5 -22t-53.5 22t-22.5 53t22.5 53.5t53.5 22.5t53.5 -22.5t22.5 -53.5zM136 692q0 17 -12.5 29.5t-29.5 12.5t-29.5 -12.5t-12.5 -29.5t12.5 -29t29.5 -12t29.5 12t12.5 29z" />
    <glyph glyph-name="plusminus" unicode="&#xb1;" horiz-adv-x="534" 
d="M504 0h-62v688q-28 40 -81 40q-19 0 -34.5 -12t-15.5 -36v-129h76v-46h-76v-505h-62v505h-131v-505h-62v505h-53v46h53v111q0 56 34.5 85t93.5 29q50 0 89 -31q28 31 85 31q24 0 83 -14l63 6v-768zM251 690q-8 17 -26.5 27.5t-38.5 10.5q-68 0 -68 -66v-111h131v111
q0 10 2 28z" />
    <glyph glyph-name="twosuperior" unicode="&#xb2;" 
d="M334 388q0 -131 -40.5 -223t-98.5 -92t-97.5 92t-39.5 223t40 224t97 93q58 0 98.5 -93t40.5 -224zM317 356l-83 130l-38 162l-34 -152l-59 24l50 -154l-58 -113l100 -15l38 -122l15 217z" />
    <glyph glyph-name="threesuperior" unicode="&#xb3;" 
d="M334 388q0 -131 -40.5 -223t-98.5 -92t-97.5 92t-39.5 223t40 224t97 93q58 0 98.5 -93t40.5 -224zM317 356l-83 130l-38 162l-34 -152l-59 24l50 -154l-58 -113l100 -15l38 -122l15 217z" />
    <glyph glyph-name="acute" unicode="&#xb4;" horiz-adv-x="409" 
d="M269 768l-75 -106h-38l41 106h72z" />
    <glyph glyph-name="mu" unicode="&#xb5;" 
d="M334 388q0 -131 -40.5 -223t-98.5 -92t-97.5 92t-39.5 223t40 224t97 93q58 0 98.5 -93t40.5 -224zM317 356l-83 130l-38 162l-34 -152l-59 24l50 -154l-58 -113l100 -15l38 -122l15 217z" />
    <glyph glyph-name="paragraph" unicode="&#xb6;" horiz-adv-x="350" 
d="M302 0h-35v730h-36v-730h-35v272q-9 1 -40 8q-64 18 -95.5 73t-31.5 169q0 136 31 191t101 55h141v-768zM196 303v427q-24 0 -38 -11.5t-24.5 -59.5t-10.5 -139q0 -28 1 -50.5t4.5 -41t4.5 -31.5t8 -26t8 -18.5t11 -16t11 -11.5t13 -11z" />
    <glyph glyph-name="periodcentered" unicode="&#xb7;" horiz-adv-x="174" 
d="M121 306h-68v132h68v-132z" />
    <glyph glyph-name="cedilla" unicode="&#xb8;" horiz-adv-x="409" 
d="M288 -86q0 -39 -26 -60t-59 -21q-37 0 -75 33l16 37q27 -25 53 -25q49 0 49 35q0 19 -15.5 29t-37.5 10q-5 0 -17 -2l7 40q7 1 17 1q31 0 59.5 -21.5t28.5 -55.5z" />
    <glyph glyph-name="onesuperior" unicode="&#xb9;" 
d="M334 388q0 -131 -40.5 -223t-98.5 -92t-97.5 92t-39.5 223t40 224t97 93q58 0 98.5 -93t40.5 -224zM317 356l-83 130l-38 162l-34 -152l-59 24l50 -154l-58 -113l100 -15l38 -122l15 217z" />
    <glyph glyph-name="ordmasculine" unicode="&#xba;" horiz-adv-x="357" 
d="M315 571q0 -114 -28.5 -156t-107.5 -42q-75 0 -105.5 43.5t-30.5 154.5q0 113 29 160.5t107 47.5q75 0 105.5 -49t30.5 -159zM325 296h-293v42h293v-42zM254 571q0 69 -10.5 106.5t-25 47t-39.5 9.5q-39 0 -57 -31.5t-18 -131.5q0 -69 10.5 -104.5t24.5 -43.5t40 -8
q27 0 41 8.5t24 43.5t10 104z" />
    <glyph glyph-name="guillemotright" unicode="&#xbb;" horiz-adv-x="319" 
d="M292 297l-123 -122v87l89 82l-89 80v88l123 -121v-94zM155 297l-123 -122v87l89 82l-89 80v88l123 -121v-94z" />
    <glyph glyph-name="onequarter" unicode="&#xbc;" 
d="M334 388q0 -131 -40.5 -223t-98.5 -92t-97.5 92t-39.5 223t40 224t97 93q58 0 98.5 -93t40.5 -224zM317 356l-83 130l-38 162l-34 -152l-59 24l50 -154l-58 -113l100 -15l38 -122l15 217z" />
    <glyph glyph-name="onehalf" unicode="&#xbd;" 
d="M334 388q0 -131 -40.5 -223t-98.5 -92t-97.5 92t-39.5 223t40 224t97 93q58 0 98.5 -93t40.5 -224zM317 356l-83 130l-38 162l-34 -152l-59 24l50 -154l-58 -113l100 -15l38 -122l15 217z" />
    <glyph glyph-name="threequarters" unicode="&#xbe;" 
d="M334 388q0 -131 -40.5 -223t-98.5 -92t-97.5 92t-39.5 223t40 224t97 93q58 0 98.5 -93t40.5 -224zM317 356l-83 130l-38 162l-34 -152l-59 24l50 -154l-58 -113l100 -15l38 -122l15 217z" />
    <glyph glyph-name="questiondown" unicode="&#xbf;" horiz-adv-x="338" 
d="M284 635h-76v132h76v-132zM312 120q0 -62 -35 -97t-108 -35q-37 0 -64 10t-48.5 36t-32.5 75t-11 122q0 113 29.5 159.5t87.5 46.5q66 0 97 -44l-3 131h53v-248h-48q-5 52 -21 74t-54 22q-41 0 -55.5 -40.5t-14.5 -137.5q0 -83 21.5 -114.5t67.5 -31.5q74 0 74 83
q0 9 -7 62l63 -3q9 -25 9 -70z" />
    <glyph glyph-name="Agrave" unicode="&#xc0;" horiz-adv-x="358" 
d="M344 0h-69l-23 138h-150l-22 -138h-66l127 774h76zM242 199l-65 423l-65 -423h130zM212 800h-38l-76 106h72z" />
    <glyph glyph-name="Aacute" unicode="&#xc1;" horiz-adv-x="358" 
d="M344 0h-69l-23 138h-150l-22 -138h-66l127 774h76zM242 199l-65 423l-65 -423h130zM258 906l-75 -106h-38l41 106h72z" />
    <glyph glyph-name="Acircumflex" unicode="&#xc2;" horiz-adv-x="358" 
d="M344 0h-69l-23 138h-150l-22 -138h-66l127 774h76zM242 199l-65 423l-65 -423h130zM279 800h-41l-60 50l-59 -50h-41l72 106h58z" />
    <glyph glyph-name="Atilde" unicode="&#xc3;" horiz-adv-x="358" 
d="M344 0h-69l-23 138h-150l-22 -138h-66l127 774h76zM242 199l-65 423l-65 -423h130zM276 845q0 -17 -15 -31t-45 -14q-23 0 -43 12q-2 1 -4 2.5t-5.5 4t-5.5 3.5q-16 10 -26 10q-19 0 -19 -16q0 -1 0.5 -3.5t0.5 -3.5h-29q-7 11 -7 27q0 18 12 31t40 13q32 0 54 -13
q3 -2 8 -5.5t6 -4.5q11 -8 25 -8q17 0 17 18v7h29q7 -13 7 -29z" />
    <glyph glyph-name="Adieresis" unicode="&#xc4;" horiz-adv-x="358" 
d="M344 0h-69l-23 138h-150l-22 -138h-66l127 774h76zM242 199l-65 423l-65 -423h130zM318 800h-98v59h98v-59zM143 800h-98v59h98v-59z" />
    <glyph glyph-name="Aring" unicode="&#xc5;" horiz-adv-x="358" 
d="M344 0h-69l-23 138h-149l-23 -138h-66l122 734q-35 23 -35 65q0 32 22.5 54.5t54.5 22.5t54.5 -22.5t22.5 -54.5q0 -42 -35 -65zM214 799q0 16 -10 26t-26 10t-26 -10t-10 -26t10 -26t26 -10t26 10t10 26zM242 199l-63 423l-66 -423h129z" />
    <glyph glyph-name="AE" unicode="&#xc6;" horiz-adv-x="529" 
d="M523 0h-266v138h-148l-42 -138h-66l235 768h266v-59h-176v-288h158v-59h-158v-303h197v-59zM257 199v441l-129 -441h129z" />
    <glyph glyph-name="Ccedilla" unicode="&#xc7;" horiz-adv-x="361" 
d="M331 323q12 -99 7 -173.5t-41.5 -118t-105.5 -43.5q-96 0 -129 78t-33 292q0 242 34 331.5t129 89.5q70 0 103.5 -38.5t35.5 -104t-5 -152.5l-61 -2q13 128 -2.5 183.5t-68.5 55.5q-21 0 -37 -16t-29 -53.5t-19.5 -106.5t-6.5 -169q0 -184 17 -256.5t77 -72.5
q107 0 73 276h62zM276 -91q0 -39 -26 -60t-59 -21q-37 0 -75 33l16 37q27 -25 53 -25q49 0 49 35q0 22 -22 32.5t-48 4.5q5 31 7 40q7 1 17 1q31 0 59.5 -21.5t28.5 -55.5z" />
    <glyph glyph-name="Egrave" unicode="&#xc8;" horiz-adv-x="321" 
d="M315 0h-267v768h246v-59h-176v-288h158v-59h-158v-303h197v-59zM231 800h-38l-76 106h72z" />
    <glyph glyph-name="Eacute" unicode="&#xc9;" horiz-adv-x="321" 
d="M315 0h-267v768h246v-59h-176v-288h158v-59h-158v-303h197v-59zM256 906l-75 -106h-38l41 106h72z" />
    <glyph glyph-name="Ecircumflex" unicode="&#xca;" horiz-adv-x="321" 
d="M315 0h-267v768h246v-59h-176v-288h158v-59h-158v-303h197v-59zM274 800h-41l-60 50l-59 -50h-41l72 106h58z" />
    <glyph glyph-name="Edieresis" unicode="&#xcb;" horiz-adv-x="321" 
d="M315 0h-267v768h246v-59h-176v-288h158v-59h-158v-303h197v-59zM308 800h-98v59h98v-59zM133 800h-98v59h98v-59z" />
    <glyph glyph-name="Igrave" unicode="&#xcc;" horiz-adv-x="166" 
d="M118 0h-70v768h70v-768zM165 906l-75 -106h-38l41 106h72z" />
    <glyph glyph-name="Iacute" unicode="&#xcd;" horiz-adv-x="166" 
d="M118 0h-70v768h70v-768zM165 906l-75 -106h-38l41 106h72z" />
    <glyph glyph-name="Icircumflex" unicode="&#xce;" horiz-adv-x="166" 
d="M118 0h-70v768h70v-768zM185 800h-41l-60 50l-59 -50h-41l72 106h58z" />
    <glyph glyph-name="Idieresis" unicode="&#xcf;" horiz-adv-x="166" 
d="M118 0h-70v768h70v-768zM219 800h-98v59h98v-59zM44 800h-98v59h98v-59z" />
    <glyph glyph-name="Eth" unicode="&#xd0;" horiz-adv-x="407" 
d="M378 345q0 -143 -16.5 -215.5t-54 -101t-111.5 -28.5h-148v354h-58v58h58v356h140q38 0 64.5 -8t52 -33.5t40.5 -71t24 -123t9 -187.5zM305 327q0 149 -13.5 232.5t-40 116t-72.5 32.5h-62v-296h101v-58h-101v-294h70q26 0 42 4.5t32 19.5t25 43.5t14 78t5 121.5z" />
    <glyph glyph-name="Ntilde" unicode="&#xd1;" horiz-adv-x="396" 
d="M348 0h-64l-173 568v-568h-63v768h64l173 -568v568h63v-768zM296 845q0 -17 -15 -31t-45 -14q-23 0 -43 12l-15 10q-16 10 -26 10q-19 0 -19 -16q0 -1 0.5 -3.5t0.5 -3.5h-29q-7 11 -7 27q0 18 12 31t40 13q32 0 54 -13q3 -2 8 -5.5t6 -4.5q11 -8 25 -8q17 0 17 18v7h29
q7 -13 7 -29z" />
    <glyph glyph-name="Ograve" unicode="&#xd2;" horiz-adv-x="381" 
d="M352 378q0 -96 -4 -158t-14 -110t-29 -73t-46.5 -37t-68.5 -12t-68.5 12t-46.5 37t-28.5 73t-13.5 110t-4 158q0 235 31 318t130 83t130.5 -83.5t31.5 -317.5zM279 380q0 139 -7.5 210.5t-27 102t-56.5 30.5q-54 0 -70 -68t-16 -275q0 -208 16 -272t72 -64q54 0 71.5 66
t17.5 270zM237 800h-38l-76 106h72z" />
    <glyph glyph-name="Oacute" unicode="&#xd3;" horiz-adv-x="381" 
d="M352 378q0 -96 -4 -158t-14 -110t-29 -73t-46.5 -37t-68.5 -12t-68.5 12t-46.5 37t-28.5 73t-13.5 110t-4 158q0 235 31 318t130 83t130.5 -83.5t31.5 -317.5zM279 380q0 139 -7.5 210.5t-27 102t-56.5 30.5q-54 0 -70 -68t-16 -275q0 -208 16 -272t72 -64q54 0 71.5 66
t17.5 270zM239 800h-38l-76 106h72z" />
    <glyph glyph-name="Ocircumflex" unicode="&#xd4;" horiz-adv-x="381" 
d="M352 378q0 -96 -4 -158t-14 -110t-29 -73t-46.5 -37t-68.5 -12t-68.5 12t-46.5 37t-28.5 73t-13.5 110t-4 158q0 235 31 318t130 83t130.5 -83.5t31.5 -317.5zM279 380q0 139 -7.5 210.5t-27 102t-56.5 30.5q-54 0 -70 -68t-16 -275q0 -208 16 -272t72 -64q54 0 71.5 66
t17.5 270zM293 800h-41l-60 50l-59 -50h-41l72 106h58z" />
    <glyph glyph-name="Otilde" unicode="&#xd5;" horiz-adv-x="381" 
d="M352 378q0 -96 -4 -158t-14 -110t-29 -73t-46.5 -37t-68.5 -12t-68.5 12t-46.5 37t-28.5 73t-13.5 110t-4 158q0 235 31 318t130 83t130.5 -83.5t31.5 -317.5zM279 380q0 139 -7.5 210.5t-27 102t-56.5 30.5q-54 0 -70 -68t-16 -275q0 -208 16 -272t72 -64q54 0 71.5 66
t17.5 270zM290 845q0 -17 -15 -31t-45 -14q-23 0 -43 12l-15 10q-16 10 -26 10q-19 0 -19 -16q0 -1 0.5 -3.5t0.5 -3.5h-29q-7 11 -7 27q0 18 12 31t40 13q32 0 54 -13q3 -2 8 -5.5t6 -4.5q11 -8 25 -8q17 0 17 18v7h29q7 -13 7 -29z" />
    <glyph glyph-name="Odieresis" unicode="&#xd6;" horiz-adv-x="381" 
d="M352 378q0 -96 -4 -158t-14 -110t-29 -73t-46.5 -37t-68.5 -12t-68.5 12t-46.5 37t-28.5 73t-13.5 110t-4 158q0 235 31 318t130 83t130.5 -83.5t31.5 -317.5zM279 380q0 139 -7.5 210.5t-27 102t-56.5 30.5q-54 0 -70 -68t-16 -275q0 -208 16 -272t72 -64q54 0 71.5 66
t17.5 270zM325 800h-98v59h98v-59zM150 800h-98v59h98v-59z" />
    <glyph glyph-name="multiply" unicode="&#xd7;" 
d="M334 388q0 -131 -40.5 -223t-98.5 -92t-97.5 92t-39.5 223t40 224t97 93q58 0 98.5 -93t40.5 -224zM317 356l-83 130l-38 162l-34 -152l-59 24l50 -154l-58 -113l100 -15l38 -122l15 217z" />
    <glyph glyph-name="Oslash" unicode="&#xd8;" horiz-adv-x="381" 
d="M355 789l-32 -99q29 -90 29 -312q0 -96 -4 -158t-14 -110t-29 -73t-46.5 -37t-68.5 -12q-74 0 -107 40l-18 -50h-60l44 123q-20 69 -20 277q0 235 31 318t130 83q59 0 92 -27l13 37h60zM254 674q-19 49 -66 49q-54 0 -70 -68t-16 -275q0 -74 2 -148zM279 380
q0 130 -5 189l-158 -449q9 -42 26 -59t48 -17q54 0 71.5 66t17.5 270z" />
    <glyph glyph-name="Ugrave" unicode="&#xd9;" horiz-adv-x="417" 
d="M371 124q0 -68 -38.5 -102t-123.5 -34q-86 0 -124.5 34t-38.5 102v644h70v-644q0 -39 21 -57.5t72 -18.5q53 0 72.5 19t19.5 57v644h70v-644zM263 800h-38l-76 106h72z" />
    <glyph glyph-name="Uacute" unicode="&#xda;" horiz-adv-x="417" 
d="M371 124q0 -68 -38.5 -102t-123.5 -34q-86 0 -124.5 34t-38.5 102v644h70v-644q0 -39 21 -57.5t72 -18.5q53 0 72.5 19t19.5 57v644h70v-644zM273 906l-75 -106h-38l41 106h72z" />
    <glyph glyph-name="Ucircumflex" unicode="&#xdb;" horiz-adv-x="417" 
d="M371 124q0 -68 -38.5 -102t-123.5 -34q-86 0 -124.5 34t-38.5 102v644h70v-644q0 -39 21 -57.5t72 -18.5q53 0 72.5 19t19.5 57v644h70v-644zM309 800h-41l-60 50l-59 -50h-41l72 106h58z" />
    <glyph glyph-name="Udieresis" unicode="&#xdc;" horiz-adv-x="417" 
d="M371 124q0 -68 -38.5 -102t-123.5 -34q-86 0 -124.5 34t-38.5 102v644h70v-644q0 -39 21 -57.5t72 -18.5q53 0 72.5 19t19.5 57v644h70v-644zM345 800h-98v59h98v-59zM170 800h-98v59h98v-59z" />
    <glyph glyph-name="Yacute" unicode="&#xdd;" horiz-adv-x="367" 
d="M365 768l-147 -466v-302h-70v301l-152 467h71l119 -366l112 366h67zM259 906l-75 -106h-38l41 106h72z" />
    <glyph glyph-name="Thorn" unicode="&#xde;" horiz-adv-x="378" 
d="M361 375q0 -66 -10 -107.5t-32.5 -62.5t-49.5 -28.5t-69 -7.5h-82v-169h-70v768h70v-172h93q75 0 112.5 -51.5t37.5 -169.5zM292 371q0 95 -23 130.5t-74 35.5h-77v-310h90q47 0 65.5 32t18.5 112z" />
    <glyph glyph-name="germandbls" unicode="&#xdf;" horiz-adv-x="387" 
d="M358 217q0 -124 -44.5 -170.5t-128.5 -46.5h-3v61h27q23 0 38 11.5t26.5 52.5t11.5 111q0 63 -23.5 102t-55.5 39h-3v62h6q34 0 49 30t15 107q0 148 -81 148q-77 0 -77 -140v-584h-67v592q0 187 148 187q77 0 111.5 -52t34.5 -159q0 -80 -25 -113.5t-67 -43.5
q108 -35 108 -194z" />
    <glyph glyph-name="agrave" unicode="&#xe0;" horiz-adv-x="324" 
d="M322 6q-26 -14 -58 -14t-36 46q-33 -46 -93 -46q-53 0 -83 34.5t-30 132.5q0 71 31 104.5t105 68.5q10 5 27.5 14t27.5 13q5 38 5 78q0 41 -18 60t-44 19t-45 -17.5t-19 -53.5q0 -27 8 -57l-55 -2q-9 33 -9 56q0 114 126 114q114 0 114 -103v-376q0 -41 22 -41q14 0 24 7
v-37zM216 101v211q-72 -24 -102 -57t-30 -108q0 -110 68 -110q25 0 42 19t22 45zM208 587h-38l-76 106h72z" />
    <glyph glyph-name="aacute" unicode="&#xe1;" horiz-adv-x="324" 
d="M322 6q-26 -14 -58 -14t-36 46q-33 -46 -93 -46q-53 0 -83 34.5t-30 132.5q0 71 31 104.5t105 68.5q10 5 27.5 14t27.5 13q5 38 5 78q0 41 -18 60t-44 19t-45 -17.5t-19 -53.5q0 -27 8 -57l-55 -2q-9 33 -9 56q0 114 126 114q114 0 114 -103v-376q0 -41 22 -41q14 0 24 7
v-37zM216 101v211q-72 -24 -102 -57t-30 -108q0 -110 68 -110q25 0 42 19t22 45zM240 693l-75 -106h-38l41 106h72z" />
    <glyph glyph-name="acircumflex" unicode="&#xe2;" horiz-adv-x="324" 
d="M322 6q-26 -14 -58 -14t-36 46q-33 -46 -93 -46q-53 0 -83 34.5t-30 132.5q0 71 31 104.5t105 68.5q10 5 27.5 14t27.5 13q5 38 5 78q0 41 -18 60t-44 19t-45 -17.5t-19 -53.5q0 -27 8 -57l-55 -2q-9 33 -9 56q0 114 126 114q114 0 114 -103v-376q0 -41 22 -41q14 0 24 7
v-37zM216 101v211q-72 -24 -102 -57t-30 -108q0 -110 68 -110q25 0 42 19t22 45zM261 587h-41l-60 50l-59 -50h-41l72 106h58z" />
    <glyph glyph-name="atilde" unicode="&#xe3;" horiz-adv-x="324" 
d="M322 6q-26 -14 -58 -14t-36 46q-33 -46 -93 -46q-53 0 -83 34.5t-30 132.5q0 71 31 104.5t105 68.5q10 5 27.5 14t27.5 13q5 38 5 78q0 41 -18 60t-44 19t-45 -17.5t-19 -53.5q0 -27 8 -57l-55 -2q-9 33 -9 56q0 114 126 114q114 0 114 -103v-376q0 -41 22 -41q14 0 24 7
v-37zM216 101v211q-72 -24 -102 -57t-30 -108q0 -110 68 -110q25 0 42 19t22 45zM265 632q0 -17 -15 -31t-45 -14q-23 0 -43 12q-2 1 -4 2.5t-5.5 4t-5.5 3.5q-16 10 -26 10q-19 0 -19 -16q0 -1 0.5 -3.5t0.5 -3.5h-29q-7 11 -7 27q0 18 12 31t40 13q32 0 54 -13
q3 -2 8 -5.5t6 -4.5q11 -8 25 -8q17 0 17 18v7h29q7 -13 7 -29z" />
    <glyph glyph-name="adieresis" unicode="&#xe4;" horiz-adv-x="324" 
d="M322 6q-26 -14 -58 -14t-36 46q-33 -46 -93 -46q-53 0 -83 34.5t-30 132.5q0 71 31 104.5t105 68.5q10 5 27.5 14t27.5 13q5 38 5 78q0 41 -18 60t-44 19t-45 -17.5t-19 -53.5q0 -27 8 -57l-55 -2q-9 33 -9 56q0 114 126 114q114 0 114 -103v-376q0 -41 22 -41q14 0 24 7
v-37zM216 101v211q-72 -24 -102 -57t-30 -108q0 -110 68 -110q25 0 42 19t22 45zM297 587h-98v59h98v-59zM122 587h-98v59h98v-59z" />
    <glyph glyph-name="aring" unicode="&#xe5;" horiz-adv-x="324" 
d="M242 664q0 -32 -22.5 -54.5t-54.5 -22.5t-54.5 22.5t-22.5 54.5t22.5 54.5t54.5 22.5t54.5 -22.5t22.5 -54.5zM201 664q0 16 -10 26t-26 10t-26 -10t-10 -26t10 -26t26 -10t26 10t10 26zM322 6q-26 -14 -58 -14t-36 46q-33 -46 -93 -46q-53 0 -83 34.5t-30 132.5
q0 71 31 104.5t105 68.5q10 5 27.5 14t27.5 13q5 38 5 78q0 41 -18 60t-44 19t-45 -17.5t-19 -53.5q0 -27 8 -57l-55 -2q-9 33 -9 56q0 114 126 114q114 0 114 -103v-376q0 -41 22 -41q14 0 24 7v-37zM216 101v211q-72 -24 -102 -57t-30 -108q0 -110 68 -110q25 0 42 19
t22 45z" />
    <glyph glyph-name="ae" unicode="&#xe6;" horiz-adv-x="507" 
d="M482 126q0 -68 -29 -101.5t-92 -33.5q-46 0 -74.5 14t-44.5 51q-45 -64 -107 -64q-53 0 -83 34.5t-30 132.5q0 71 31 104.5t105 68.5q10 5 27.5 14t27.5 13q5 38 5 78q0 41 -18 60t-44 19t-45 -17.5t-19 -53.5q0 -27 8 -57l-55 -2q-9 33 -9 56q0 114 126 114q72 0 99 -41
q29 42 94 42q70 0 98 -51t28 -169q0 -29 -4 -73h-196q0 -47 0.5 -74.5t3 -57.5t8 -45t14 -29t22 -19t32.5 -5q36 0 50.5 24t14.5 94q0 8 -2 25t-2 20l55 -2q5 -20 5 -69zM421 382q0 132 -68 132q-73 0 -73 -208h138q3 24 3 76zM216 101v211q-72 -24 -102 -57t-30 -108
q0 -110 68 -110q25 0 41.5 19t22.5 45z" />
    <glyph glyph-name="ccedilla" unicode="&#xe7;" horiz-adv-x="309" 
d="M289 152q0 -89 -25.5 -125t-99.5 -36q-55 0 -83.5 23.5t-41.5 85t-13 181.5q0 113 15.5 174t43 81.5t76.5 20.5q65 0 92.5 -33.5t27.5 -112.5q0 -27 -5 -57l-57 -1q4 26 4 55q0 53 -14.5 79t-47.5 26q-23 0 -37 -16t-24 -71.5t-10 -155.5q0 -99 10.5 -152.5t26 -68.5
t41.5 -15q33 0 48 26.5t15 97.5q0 7 -1 20.5t-2.5 29t-1.5 20.5l53 -2q10 -35 10 -74zM256 -89q0 -39 -26 -60t-59 -21q-37 0 -75 33l16 37q27 -25 53 -25q49 0 49 35q0 22 -22 32.5t-48 4.5q5 31 7 40q7 1 17 1q31 0 59.5 -21.5t28.5 -55.5z" />
    <glyph glyph-name="egrave" unicode="&#xe8;" horiz-adv-x="315" 
d="M290 126q0 -68 -29 -101.5t-92 -33.5q-54 0 -83 18.5t-44.5 75t-15.5 164.5q0 125 15.5 193t43.5 91.5t78 23.5q70 0 98 -51t28 -169q0 -29 -4 -73h-196q0 -47 0.5 -74.5t3 -57.5t8 -45t14 -29t22 -19t32.5 -5q36 0 50.5 24t14.5 94q0 8 -2 25t-2 20l55 -2q5 -20 5 -69z
M229 382q0 132 -68 132q-73 0 -73 -208h138q3 24 3 76zM217 587h-38l-76 106h72z" />
    <glyph glyph-name="eacute" unicode="&#xe9;" horiz-adv-x="315" 
d="M290 126q0 -68 -29 -101.5t-92 -33.5q-54 0 -83 18.5t-44.5 75t-15.5 164.5q0 125 15.5 193t43.5 91.5t78 23.5q70 0 98 -51t28 -169q0 -29 -4 -73h-196q0 -47 0.5 -74.5t3 -57.5t8 -45t14 -29t22 -19t32.5 -5q36 0 50.5 24t14.5 94q0 8 -2 25t-2 20l55 -2q5 -20 5 -69z
M229 382q0 132 -68 132q-73 0 -73 -208h138q3 24 3 76zM243 693l-75 -106h-38l41 106h72z" />
    <glyph glyph-name="ecircumflex" unicode="&#xea;" horiz-adv-x="315" 
d="M290 126q0 -68 -29 -101.5t-92 -33.5q-54 0 -83 18.5t-44.5 75t-15.5 164.5q0 125 15.5 193t43.5 91.5t78 23.5q70 0 98 -51t28 -169q0 -29 -4 -73h-196q0 -47 0.5 -74.5t3 -57.5t8 -45t14 -29t22 -19t32.5 -5q36 0 50.5 24t14.5 94q0 8 -2 25t-2 20l55 -2q5 -20 5 -69z
M229 382q0 132 -68 132q-73 0 -73 -208h138q3 24 3 76zM263 587h-41l-60 50l-59 -50h-41l72 106h58z" />
    <glyph glyph-name="edieresis" unicode="&#xeb;" horiz-adv-x="315" 
d="M290 126q0 -68 -29 -101.5t-92 -33.5q-54 0 -83 18.5t-44.5 75t-15.5 164.5q0 125 15.5 193t43.5 91.5t78 23.5q70 0 98 -51t28 -169q0 -29 -4 -73h-196q0 -47 0.5 -74.5t3 -57.5t8 -45t14 -29t22 -19t32.5 -5q36 0 50.5 24t14.5 94q0 8 -2 25t-2 20l55 -2q5 -20 5 -69z
M229 382q0 132 -68 132q-73 0 -73 -208h138q3 24 3 76zM299 587h-98v59h98v-59zM124 587h-98v59h98v-59z" />
    <glyph glyph-name="igrave" unicode="&#xec;" horiz-adv-x="122" 
d="M92 0h-62v551h62v-551zM92 587h-38l-76 106h72z" />
    <glyph glyph-name="iacute" unicode="&#xed;" horiz-adv-x="122" 
d="M92 0h-62v551h62v-551zM145 693l-75 -106h-38l41 106h72z" />
    <glyph glyph-name="icircumflex" unicode="&#xee;" horiz-adv-x="122" 
d="M92 0h-62v551h62v-551zM162 587h-41l-60 50l-59 -50h-41l72 106h58z" />
    <glyph glyph-name="idieresis" unicode="&#xef;" horiz-adv-x="122" 
d="M92 0h-62v551h62v-551zM198 587h-98v59h98v-59zM23 587h-98v59h98v-59z" />
    <glyph glyph-name="eth" unicode="&#xf0;" horiz-adv-x="333" 
d="M347 713q0 -39 -60 -53q16 -90 16 -384q0 -130 -40 -206.5t-115 -76.5q-44 0 -69 22.5t-38.5 83.5t-13.5 170q0 165 31.5 226.5t92.5 61.5q32 0 52.5 -12t38.5 -39q0 87 -8 151q-34 -3 -40 -14t9 -27l-18 -9q-36 15 -36 42q0 46 75 55q-12 48 -51 48q-19 0 -31.5 -9
t-32.5 -34l-41 36q18 18 29.5 28t34 18.5t49.5 8.5q35 0 57.5 -20.5t37.5 -69.5q23 5 27.5 17t-7.5 23l15 7q36 -13 36 -44zM241 275q0 235 -75 235q-24 0 -39.5 -17t-25.5 -70.5t-10 -146.5t10.5 -147t25.5 -71.5t39 -17.5q75 0 75 235z" />
    <glyph glyph-name="ntilde" unicode="&#xf1;" horiz-adv-x="322" 
d="M294 0h-63v450q0 33 -11 45.5t-42 12.5q-37 0 -61.5 -30.5t-24.5 -68.5v-409h-62v551h61v-52q19 30 42.5 44t62.5 14q98 0 98 -88v-469zM269 632q0 -17 -15 -31t-45 -14q-23 0 -43 12l-15 10q-16 10 -26 10q-19 0 -19 -16q0 -1 0.5 -3.5t0.5 -3.5h-29q-7 11 -7 27
q0 18 12 31t40 13q32 0 54 -13q3 -2 8 -5.5t6 -4.5q11 -8 25 -8q17 0 17 18v7h29q7 -13 7 -29z" />
    <glyph glyph-name="ograve" unicode="&#xf2;" horiz-adv-x="329" 
d="M303 274q0 -115 -16 -177.5t-44 -84t-79 -21.5t-79 21.5t-43.5 83.5t-15.5 178t15.5 178t43.5 83.5t79 21.5t79 -21.5t44 -84t16 -177.5zM239 275q0 138 -18.5 187.5t-56.5 49.5t-56 -49.5t-18 -189.5q0 -138 18 -187.5t56 -49.5q25 0 40.5 17.5t25 71.5t9.5 150z
M216 587h-38l-76 106h72z" />
    <glyph glyph-name="oacute" unicode="&#xf3;" horiz-adv-x="329" 
d="M303 274q0 -115 -16 -177.5t-44 -84t-79 -21.5t-79 21.5t-43.5 83.5t-15.5 178t15.5 178t43.5 83.5t79 21.5t79 -21.5t44 -84t16 -177.5zM239 275q0 138 -18.5 187.5t-56.5 49.5t-56 -49.5t-18 -189.5q0 -138 18 -187.5t56 -49.5q25 0 40.5 17.5t25 71.5t9.5 150z
M237 693l-75 -106h-38l41 106h72z" />
    <glyph glyph-name="ocircumflex" unicode="&#xf4;" horiz-adv-x="329" 
d="M303 274q0 -115 -16 -177.5t-44 -84t-79 -21.5t-79 21.5t-43.5 83.5t-15.5 178t15.5 178t43.5 83.5t79 21.5t79 -21.5t44 -84t16 -177.5zM239 275q0 138 -18.5 187.5t-56.5 49.5t-56 -49.5t-18 -189.5q0 -138 18 -187.5t56 -49.5q25 0 40.5 17.5t25 71.5t9.5 150z
M268 587h-41l-60 50l-59 -50h-41l72 106h58z" />
    <glyph glyph-name="otilde" unicode="&#xf5;" horiz-adv-x="329" 
d="M303 274q0 -115 -16 -177.5t-44 -84t-79 -21.5t-79 21.5t-43.5 83.5t-15.5 178t15.5 178t43.5 83.5t79 21.5t79 -21.5t44 -84t16 -177.5zM239 275q0 138 -18.5 187.5t-56.5 49.5t-56 -49.5t-18 -189.5q0 -138 18 -187.5t56 -49.5q25 0 40.5 17.5t25 71.5t9.5 150z
M271 632q0 -17 -15 -31t-45 -14q-23 0 -43 12q-2 1 -4 2.5t-5.5 4t-5.5 3.5q-16 10 -26 10q-19 0 -19 -16q0 -1 0.5 -3.5t0.5 -3.5h-29q-7 11 -7 27q0 18 12 31t40 13q32 0 54 -13q3 -2 8 -5.5t6 -4.5q11 -8 25 -8q17 0 17 18v7h29q7 -13 7 -29z" />
    <glyph glyph-name="odieresis" unicode="&#xf6;" horiz-adv-x="329" 
d="M303 274q0 -115 -16 -177.5t-44 -84t-79 -21.5t-79 21.5t-43.5 83.5t-15.5 178t15.5 178t43.5 83.5t79 21.5t79 -21.5t44 -84t16 -177.5zM239 275q0 138 -18.5 187.5t-56.5 49.5t-56 -49.5t-18 -189.5q0 -138 18 -187.5t56 -49.5q25 0 40.5 17.5t25 71.5t9.5 150z
M303 587h-98v59h98v-59zM128 587h-98v59h98v-59z" />
    <glyph glyph-name="divide" unicode="&#xf7;" 
d="M334 388q0 -131 -40.5 -223t-98.5 -92t-97.5 92t-39.5 223t40 224t97 93q58 0 98.5 -93t40.5 -224zM317 356l-83 130l-38 162l-34 -152l-59 24l50 -154l-58 -113l100 -15l38 -122l15 217z" />
    <glyph glyph-name="oslash" unicode="&#xf8;" horiz-adv-x="329" 
d="M346 570l-59 -114q16 -61 16 -182q0 -115 -16 -177.5t-44 -84t-79 -21.5q-69 0 -98 43l-29 -56h-57l61 117q-15 63 -15 179t15.5 178t43.5 83.5t79 21.5q68 0 97 -41l28 54h57zM225 447q-9 36 -24 50.5t-37 14.5q-38 0 -56 -49.5t-18 -189.5q0 -34 2 -80zM239 275
q0 37 -2 85l-134 -256q15 -68 61 -68q25 0 40.5 17.5t25 71.5t9.5 150z" />
    <glyph glyph-name="ugrave" unicode="&#xf9;" horiz-adv-x="324" 
d="M294 0h-62v41q-15 -22 -44.5 -35t-63.5 -13q-94 0 -94 84v474h62v-458q0 -26 13 -37.5t49 -11.5q30 0 53.5 24t23.5 60v423h63v-551zM220 587h-38l-76 106h72z" />
    <glyph glyph-name="uacute" unicode="&#xfa;" horiz-adv-x="324" 
d="M294 0h-62v41q-15 -22 -44.5 -35t-63.5 -13q-94 0 -94 84v474h62v-458q0 -26 13 -37.5t49 -11.5q30 0 53.5 24t23.5 60v423h63v-551zM231 693l-75 -106h-38l41 106h72z" />
    <glyph glyph-name="ucircumflex" unicode="&#xfb;" horiz-adv-x="324" 
d="M294 0h-62v41q-15 -22 -44.5 -35t-63.5 -13q-94 0 -94 84v474h62v-458q0 -26 13 -37.5t49 -11.5q30 0 53.5 24t23.5 60v423h63v-551zM266 587h-41l-60 50l-59 -50h-41l72 106h58z" />
    <glyph glyph-name="udieresis" unicode="&#xfc;" horiz-adv-x="324" 
d="M294 0h-62v41q-15 -22 -44.5 -35t-63.5 -13q-94 0 -94 84v474h62v-458q0 -26 13 -37.5t49 -11.5q30 0 53.5 24t23.5 60v423h63v-551zM298 587h-98v59h98v-59zM123 587h-98v59h98v-59z" />
    <glyph glyph-name="yacute" unicode="&#xfd;" horiz-adv-x="312" 
d="M299 551q-22 -125 -99 -550q-17 -92 -44 -134.5t-86 -42.5q-42 0 -73 18.5t-34 61.5q-2 28 -1 43l57 8q-3 -30 -3 -36q0 -18 14 -31.5t36 -13.5q31 0 45 24t23 82l-135 571h65l99 -445l69 445h67zM233 694l-75 -106h-38l41 106h72z" />
    <glyph glyph-name="thorn" unicode="&#xfe;" horiz-adv-x="333" 
d="M304 271q0 -116 -14.5 -178t-40 -82t-72.5 -20q-28 0 -52.5 13t-33.5 33v-212h-61v943h61v-262q18 20 27 28t28 15.5t45 7.5q38 0 61 -22t37.5 -87t14.5 -177zM240 272q0 93 -10.5 147.5t-25 72t-36.5 17.5q-24 0 -39.5 -15t-27.5 -70t-12 -153q0 -232 76 -232
q27 0 41.5 14.5t24 67t9.5 151.5z" />
    <glyph glyph-name="ydieresis" unicode="&#xff;" horiz-adv-x="312" 
d="M299 551q-22 -125 -99 -550q-17 -92 -44 -134.5t-86 -42.5q-42 0 -73 18.5t-34 61.5q-2 28 -1 43l57 8q-3 -30 -3 -36q0 -18 14 -31.5t36 -13.5q31 0 45 24t23 82l-135 571h65l99 -445l69 445h67zM289 587h-98v59h98v-59zM114 587h-98v59h98v-59z" />
    <glyph glyph-name="dotlessi" unicode="&#x131;" horiz-adv-x="122" 
d="M92 0h-62v551h62v-551z" />
    <glyph glyph-name="Lslash" unicode="&#x141;" horiz-adv-x="306" 
d="M304 0h-256v286l-44 -37l-35 43l79 67v409h70v-350l69 59l35 -43l-104 -89v-285h186v-60z" />
    <glyph glyph-name="lslash" unicode="&#x142;" horiz-adv-x="198" 
d="M211 424l-84 -72v-352h-62v299l-30 -25l-35 43l65 55v396h62v-343l49 42z" />
    <glyph glyph-name="OE" unicode="&#x152;" horiz-adv-x="531" 
d="M525 0h-269q-26 -12 -66 -12q-41 0 -68.5 12t-46.5 37t-28.5 73t-13.5 110t-4 158q0 235 31 318t130 83q47 0 68 -11h246v-59h-176v-288h158v-59h-158v-303h197v-59zM258 88v584q-16 51 -70 51t-70 -68t-16 -275q0 -208 16 -272t72 -64q49 0 68 44z" />
    <glyph glyph-name="oe" unicode="&#x153;" horiz-adv-x="511" 
d="M486 126q0 -68 -29 -101.5t-92 -33.5q-76 0 -105 39q-30 -39 -96 -39q-51 0 -79 21.5t-43.5 83.5t-15.5 178t15.5 178t43.5 83.5t79 21.5q69 0 100 -45q23 25 43 35t52 10q70 0 98 -51t28 -169q0 -29 -4 -73h-188q0 -147 11 -187.5t61 -40.5q38 0 51 22.5t13 93.5
q0 8 -2 24.5t-2 19.5l56 -1q5 -20 5 -69zM425 382q0 75 -15.5 102.5t-50.5 27.5q-33 0 -50 -38.5t-17 -139.5q0 -17 1 -28h129q3 24 3 76zM229 275q0 104 -6.5 154.5t-19.5 66.5t-39 16q-28 0 -43 -18t-23 -70.5t-8 -150.5q0 -97 8.5 -149t23.5 -70t42 -18q44 0 54.5 41.5
t10.5 197.5z" />
    <glyph glyph-name="Scaron" unicode="&#x160;" horiz-adv-x="368" 
d="M352 200q0 -212 -166 -212q-77 0 -116.5 39.5t-39.5 136.5q0 56 13 106l64 6q-9 -54 -9 -117q0 -67 22.5 -90.5t67.5 -23.5q94 0 94 128q0 74 -30.5 120.5t-101.5 90.5q-69 43 -100.5 88t-31.5 113q0 96 40.5 145t114.5 49q151 0 151 -158q0 -37 -9 -75l-62 -8q5 25 5 77
q0 56 -25 83.5t-60 27.5q-34 0 -59.5 -29t-25.5 -83q0 -64 23.5 -94.5t81.5 -67.5q4 -2 5.5 -3t4.5 -2.5t5 -3.5q80 -52 112 -102.5t32 -140.5zM279 906l-72 -106h-56l-73 106h41l59 -50l60 50h41z" />
    <glyph glyph-name="scaron" unicode="&#x161;" horiz-adv-x="311" 
d="M291 151q0 -160 -143 -160q-123 0 -123 120q0 24 7 75l57 8q-10 -52 -10 -70q0 -83 68 -83q41 0 60.5 20.5t19.5 67.5q0 42 -25.5 72.5t-88.5 72.5q-49 33 -70 61t-21 78q0 72 35.5 108t93.5 36q55 0 86.5 -29.5t31.5 -89.5q0 -26 -6 -56l-56 -2q7 32 7 54q0 75 -65 75
q-25 0 -46 -19t-21 -52q0 -38 16.5 -58.5t75.5 -61.5q69 -47 93 -79.5t24 -87.5zM253 694l-72 -106h-56l-73 106h41l59 -50l60 50h41z" />
    <glyph glyph-name="Ydieresis" unicode="&#x178;" horiz-adv-x="367" 
d="M365 768l-147 -466v-302h-70v301l-152 467h71l119 -366l112 366h67zM322 800h-98v59h98v-59zM147 800h-98v59h98v-59z" />
    <glyph glyph-name="Zcaron" unicode="&#x17d;" horiz-adv-x="334" 
d="M321 702l-242 -639h238v-63h-308v64l241 642h-216v62h287v-66zM279 906l-72 -106h-56l-73 106h41l59 -50l60 50h41z" />
    <glyph glyph-name="zcaron" unicode="&#x17e;" horiz-adv-x="247" 
d="M238 500l-167 -447h166v-53h-233v43l167 458h-137v50h204v-51zM242 693l-72 -106h-56l-73 106h41l59 -50l60 50h41z" />
    <glyph glyph-name="florin" unicode="&#x192;" horiz-adv-x="334" 
d="M311 666q0 -23 -6 -67l-49 -1q1 8 2 22t2 23t1 15q0 64 -40 64q-12 0 -19.5 -10.5t-7.5 -28.5v-132h59v-46h-59v-431q0 -100 -81 -100q-42 0 -66.5 25t-24.5 76q0 23 5 58l49 1q-4 -32 -4 -51q0 -29 7.5 -42.5t27.5 -13.5q15 0 20.5 9t5.5 30v439h-51v46h51v125
q0 50 23.5 75t63.5 25q43 0 67 -28t24 -82z" />
    <glyph glyph-name="circumflex" unicode="&#x2c6;" horiz-adv-x="409" 
d="M305 662h-41l-60 50l-59 -50h-41l72 106h58z" />
    <glyph glyph-name="caron" unicode="&#x2c7;" horiz-adv-x="409" 
d="M305 768l-72 -106h-56l-73 106h41l59 -50l60 50h41z" />
    <glyph glyph-name="breve" unicode="&#x2d8;" horiz-adv-x="409" 
d="M320 768q0 -35 -27.5 -63t-87.5 -28q-52 0 -83.5 29.5t-31.5 61.5h65q0 -14 2.5 -22.5t14 -15.5t33.5 -7q31 0 40.5 11.5t9.5 33.5h65z" />
    <glyph glyph-name="dotaccent" unicode="&#x2d9;" horiz-adv-x="409" 
d="M256 702h-106v66h106v-66z" />
    <glyph glyph-name="ring" unicode="&#x2da;" horiz-adv-x="409" 
d="M281 691q0 -32 -22.5 -54.5t-54.5 -22.5t-54.5 22.5t-22.5 54.5t22.5 54.5t54.5 22.5t54.5 -22.5t22.5 -54.5zM240 691q0 16 -10 26t-26 10t-26 -10t-10 -26t10 -26t26 -10t26 10t10 26z" />
    <glyph glyph-name="ogonek" unicode="&#x2db;" horiz-adv-x="409" 
d="M253 0q-30 -19 -45 -30.5t-26.5 -28.5t-11.5 -37q0 -26 29 -26q15 0 21.5 9.5t-7.5 22.5l38 12q27 -21 10.5 -51t-57.5 -30q-43 0 -61.5 16t-18.5 50q0 23 22 52t52 41h55z" />
    <glyph glyph-name="tilde" unicode="&#x2dc;" horiz-adv-x="409" 
d="M306 733q0 -17 -15 -31t-45 -14q-23 0 -43 12q-2 1 -4 2.5t-5.5 4t-5.5 3.5q-16 10 -26 10q-19 0 -19 -16q0 -1 0.5 -3.5t0.5 -3.5h-29q-7 11 -7 27q0 18 12 31t40 13q32 0 54 -13q3 -2 8 -5.5t6 -4.5q11 -8 25 -8q17 0 17 18v7h29q7 -13 7 -29z" />
    <glyph glyph-name="hungarumlaut" unicode="&#x2dd;" horiz-adv-x="409" 
d="M326 768l-78 -106h-39l45 106h72zM201 768l-78 -106h-39l45 106h72z" />
    <glyph glyph-name="Delta" unicode="&#x394;" 
d="M334 388q0 -131 -40.5 -223t-98.5 -92t-97.5 92t-39.5 223t40 224t97 93q58 0 98.5 -93t40.5 -224zM317 356l-83 130l-38 162l-34 -152l-59 24l50 -154l-58 -113l100 -15l38 -122l15 217z" />
    <glyph glyph-name="Omega" unicode="&#x3a9;" 
d="M334 388q0 -131 -40.5 -223t-98.5 -92t-97.5 92t-39.5 223t40 224t97 93q58 0 98.5 -93t40.5 -224zM317 356l-83 130l-38 162l-34 -152l-59 24l50 -154l-58 -113l100 -15l38 -122l15 217z" />
    <glyph glyph-name="pi" unicode="&#x3c0;" horiz-adv-x="555" 
d="M502 543q0 -92 -66 -157.5t-158 -65.5q-93 0 -159 65.5t-66 157.5q0 93 66 159t159 66q92 0 158 -66t66 -159zM477 543q0 83 -58.5 142.5t-140.5 59.5q-83 0 -141.5 -59.5t-58.5 -142.5t58.5 -141.5t141.5 -58.5q82 0 140.5 58.5t58.5 141.5zM401 617q0 -98 -105 -98h-50
v-131h-51v321h108q50 0 74 -20.5t24 -71.5zM348 614q0 31 -11 44.5t-40 13.5h-51v-115h52q26 0 38 12.5t12 44.5z" />
    <glyph glyph-name="endash" unicode="&#x2013;" horiz-adv-x="654" 
d="M629 315h-604v58h604v-58z" />
    <glyph glyph-name="emdash" unicode="&#x2014;" horiz-adv-x="979" 
d="M954 315h-929v58h929v-58z" />
    <glyph glyph-name="quoteleft" unicode="&#x2018;" horiz-adv-x="176" 
d="M123 545h-70v136q0 59 39 98l22 -34q-18 -30 -18 -68h27v-132z" />
    <glyph glyph-name="quoteright" unicode="&#x2019;" horiz-adv-x="176" 
d="M123 632q0 -59 -39 -98l-22 34q18 30 18 68h-27v132h70v-136z" />
    <glyph glyph-name="quotesinglbase" unicode="&#x201a;" horiz-adv-x="176" 
d="M123 -4q0 -59 -39 -98l-22 34q18 30 18 68h-27v132h70v-136z" />
    <glyph glyph-name="quotedblleft" unicode="&#x201c;" horiz-adv-x="306" 
d="M253 545h-70v136q0 59 39 98l22 -34q-18 -30 -18 -68h27v-132zM123 545h-70v136q0 59 39 98l22 -34q-18 -30 -18 -68h27v-132z" />
    <glyph glyph-name="quotedblright" unicode="&#x201d;" horiz-adv-x="306" 
d="M253 632q0 -59 -39 -98l-22 34q18 30 18 68h-27v132h70v-136zM123 632q0 -59 -39 -98l-22 34q18 30 18 68h-27v132h70v-136z" />
    <glyph glyph-name="quotedblbase" unicode="&#x201e;" horiz-adv-x="306" 
d="M253 -4q0 -59 -39 -98l-22 34q18 30 18 68h-27v132h70v-136zM123 -4q0 -59 -39 -98l-22 34q18 30 18 68h-27v132h70v-136z" />
    <glyph glyph-name="dagger" unicode="&#x2020;" horiz-adv-x="355" 
d="M309 568h-109v-611h-65v611h-109v60h109v140h65v-140h109v-60z" />
    <glyph glyph-name="daggerdbl" unicode="&#x2021;" horiz-adv-x="335" 
d="M309 193h-109v-236h-65v236h-109v60h109v315h-109v60h109v140h65v-140h109v-60h-109v-315h109v-60z" />
    <glyph glyph-name="bullet" unicode="&#x2022;" horiz-adv-x="280" 
d="M260 384q0 -50 -35 -85t-85 -35t-85 35t-35 85t35 85t85 35t85 -35t35 -85z" />
    <glyph glyph-name="ellipsis" unicode="&#x2026;" horiz-adv-x="416" 
d="M363 0h-68v132h68v-132zM242 0h-68v132h68v-132zM121 0h-68v132h68v-132z" />
    <glyph glyph-name="perthousand" unicode="&#x2030;" horiz-adv-x="909" 
d="M893 192q0 -110 -29.5 -155.5t-94.5 -45.5t-94 45.5t-29 155.5q0 124 29 172.5t94 48.5q66 0 95 -48.5t29 -172.5zM263 553q0 -110 -29.5 -155.5t-94.5 -45.5t-94 45.5t-29 155.5q0 124 29 172.5t94 48.5q66 0 95 -48.5t29 -172.5zM577 760l-491 -760h-50l491 760h50z
M601 192q0 -110 -29.5 -155.5t-94.5 -45.5t-94 45.5t-29 155.5q0 124 29 172.5t94 48.5q66 0 95 -48.5t29 -172.5zM833 201q0 95 -16 127t-48 32t-47.5 -32t-15.5 -127q0 -93 15.5 -125t47.5 -32t48 32t16 125zM203 562q0 95 -16 127t-48 32t-47.5 -32t-15.5 -127
q0 -93 15.5 -125t47.5 -32t48 32t16 125zM541 201q0 95 -16 127t-48 32t-47.5 -32t-15.5 -127q0 -93 15.5 -125t47.5 -32t48 32t16 125z" />
    <glyph glyph-name="guilsinglleft" unicode="&#x2039;" horiz-adv-x="182" 
d="M150 175l-123 122v94l123 121v-88l-89 -80l89 -82v-87z" />
    <glyph glyph-name="guilsinglright" unicode="&#x203a;" horiz-adv-x="182" 
d="M155 297l-123 -122v87l89 82l-89 80v88l123 -121v-94z" />
    <glyph glyph-name="fraction" unicode="&#x2044;" horiz-adv-x="279" 
d="M450 779l-591 -807h-44l591 807h44z" />
    <glyph glyph-name="trademark" unicode="&#x2122;" horiz-adv-x="417" 
d="M385 537h-40v174l-47 -174h-38l-46 174v-174h-40v231h68l37 -162l38 162h68v-231zM162 730h-56v-193h-40v193h-57v38h153v-38z" />
    <glyph glyph-name="partialdiff" unicode="&#x2202;" 
d="M334 388q0 -131 -40.5 -223t-98.5 -92t-97.5 92t-39.5 223t40 224t97 93q58 0 98.5 -93t40.5 -224zM317 356l-83 130l-38 162l-34 -152l-59 24l50 -154l-58 -113l100 -15l38 -122l15 217z" />
    <glyph glyph-name="product" unicode="&#x220f;" 
d="M334 388q0 -131 -40.5 -223t-98.5 -92t-97.5 92t-39.5 223t40 224t97 93q58 0 98.5 -93t40.5 -224zM317 356l-83 130l-38 162l-34 -152l-59 24l50 -154l-58 -113l100 -15l38 -122l15 217z" />
    <glyph glyph-name="summation" unicode="&#x2211;" 
d="M334 388q0 -131 -40.5 -223t-98.5 -92t-97.5 92t-39.5 223t40 224t97 93q58 0 98.5 -93t40.5 -224zM317 356l-83 130l-38 162l-34 -152l-59 24l50 -154l-58 -113l100 -15l38 -122l15 217z" />
    <glyph glyph-name="minus" unicode="&#x2212;" 
d="M334 388q0 -131 -40.5 -223t-98.5 -92t-97.5 92t-39.5 223t40 224t97 93q58 0 98.5 -93t40.5 -224zM317 356l-83 130l-38 162l-34 -152l-59 24l50 -154l-58 -113l100 -15l38 -122l15 217z" />
    <glyph glyph-name="radical" unicode="&#x221a;" horiz-adv-x="610" 
d="M658 829q-51 -58 -114 -176.5t-106 -225.5q-108 -272 -143 -452l-82 -37l-191 342l82 30l140 -289q50 210 138 424q82 199 177 340z" />
    <glyph glyph-name="infinity" unicode="&#x221e;" horiz-adv-x="534" 
d="M504 0h-62v505h-131v-505h-62v505h-131v-505h-62v505h-53v46h53v111q0 56 34.5 85t93.5 29q50 0 89 -31q32 31 84 31q104 0 104 -99q0 -16 -4 -46l-53 -5q4 28 4 44q0 58 -49 58q-18 0 -33 -12.5t-15 -42.5v-122h193v-551zM251 690q-8 17 -26.5 27.5t-38.5 10.5
q-68 0 -68 -66v-111h131v111q0 10 2 28z" />
    <glyph glyph-name="integral" unicode="&#x222b;" 
d="M334 388q0 -131 -40.5 -223t-98.5 -92t-97.5 92t-39.5 223t40 224t97 93q58 0 98.5 -93t40.5 -224zM317 356l-83 130l-38 162l-34 -152l-59 24l50 -154l-58 -113l100 -15l38 -122l15 217z" />
    <glyph glyph-name="approxequal" unicode="&#x2248;" 
d="M334 388q0 -131 -40.5 -223t-98.5 -92t-97.5 92t-39.5 223t40 224t97 93q58 0 98.5 -93t40.5 -224zM317 356l-83 130l-38 162l-34 -152l-59 24l50 -154l-58 -113l100 -15l38 -122l15 217z" />
    <glyph glyph-name="notequal" unicode="&#x2260;" horiz-adv-x="401" 
d="M461 677q0 -16 -4 -46l-53 -5q4 20 4 44q0 58 -49 58q-18 0 -33 -12.5t-15 -42.5v-122h76v-46h-76v-505h-62v505h-131v-505h-62v505h-53v46h53v111q0 56 34.5 85t93.5 29q50 0 89 -31q32 31 84 31q104 0 104 -99zM251 690q-8 17 -26.5 27.5t-38.5 10.5q-68 0 -68 -66
v-111h131v111q0 10 2 28z" />
    <glyph glyph-name="lessequal" unicode="&#x2264;" 
d="M334 388q0 -131 -40.5 -223t-98.5 -92t-97.5 92t-39.5 223t40 224t97 93q58 0 98.5 -93t40.5 -224zM317 356l-83 130l-38 162l-34 -152l-59 24l50 -154l-58 -113l100 -15l38 -122l15 217z" />
    <glyph glyph-name="greaterequal" unicode="&#x2265;" 
d="M334 388q0 -131 -40.5 -223t-98.5 -92t-97.5 92t-39.5 223t40 224t97 93q58 0 98.5 -93t40.5 -224zM317 356l-83 130l-38 162l-34 -152l-59 24l50 -154l-58 -113l100 -15l38 -122l15 217z" />
    <glyph glyph-name="lozenge" unicode="&#x25ca;" 
d="M334 388q0 -131 -40.5 -223t-98.5 -92t-97.5 92t-39.5 223t40 224t97 93q58 0 98.5 -93t40.5 -224zM317 356l-83 130l-38 162l-34 -152l-59 24l50 -154l-58 -113l100 -15l38 -122l15 217z" />
    <glyph glyph-name="apple" unicode="&#xf8ff;" 
d="M334 388q0 -131 -40.5 -223t-98.5 -92t-97.5 92t-39.5 223t40 224t97 93q58 0 98.5 -93t40.5 -224zM317 356l-83 130l-38 162l-34 -152l-59 24l50 -154l-58 -113l100 -15l38 -122l15 217z" />
    <glyph glyph-name="fi" unicode="&#xfb01;" horiz-adv-x="339" 
d="M311 0h-62v505h-131v-505h-62v505h-53v46h53v114q0 111 108 111q104 0 104 -99q0 -16 -4 -46l-53 -5q4 28 4 44q0 58 -49 58q-18 0 -33 -12.5t-15 -42.5v-122h193v-551z" />
    <glyph glyph-name="fl" unicode="&#xfb02;" horiz-adv-x="342" 
d="M312 0h-62v688q-28 40 -82 40q-19 0 -34.5 -12t-15.5 -36v-129h75v-46h-75v-505h-62v505h-53v46h53v117q0 108 109 108q25 0 84 -14l63 6v-768z" />
    <glyph glyph-name="NUL" horiz-adv-x="0" 
 />
    </font>
</defs>
</svg>
