<?xml version="1.0" standalone="no"?>
<!DOCTYPE svg PUBLIC "-//W3C//DTD SVG 1.1//EN" "http://www.w3.org/Graphics/SVG/1.1/DTD/svg11.dtd" >
<svg xmlns="http://www.w3.org/2000/svg" xmlns:xlink="http://www.w3.org/1999/xlink" version="1.1">
<metadata>
Created by FontForge 20170731 at Mon May  7 09:28:14 2007
 By Aleksey,,,
Copr.1990, 1991, 1992, 1993 The Font Bureau, Inc.
</metadata>
<defs>
<font id="BureauGrotesque-OneSeven" horiz-adv-x="332" >
  <font-face 
    font-family="BureauGrotesque OneSeven"
    font-weight="500"
    font-stretch="normal"
    units-per-em="1000"
    panose-1="0 0 0 0 0 0 0 0 0 0"
    ascent="800"
    descent="-200"
    x-height="547"
    cap-height="768"
    bbox="-152 -200 1018 931"
    underline-thickness="20"
    underline-position="-173"
    unicode-range="U+0020-FB02"
  />
<missing-glyph horiz-adv-x="500" 
 />
    <glyph glyph-name=".notdef" horiz-adv-x="500" 
 />
    <glyph glyph-name=".null" horiz-adv-x="0" 
 />
    <glyph glyph-name="nonmarkingreturn" horiz-adv-x="333" 
 />
    <glyph glyph-name="space" unicode=" " horiz-adv-x="245" 
 />
    <glyph glyph-name="exclam" unicode="!" horiz-adv-x="242" 
d="M200 483l-32 -249h-90l-32 249v285h154v-285zM197 0h-149v165h149v-165z" />
    <glyph glyph-name="quotedbl" unicode="&#x22;" horiz-adv-x="353" 
d="M316 519h-118v249h118v-249zM158 519h-117v249h117v-249z" />
    <glyph glyph-name="numbersign" unicode="#" horiz-adv-x="564" 
d="M564 551l-16 -118h-116l-14 -97h115l-17 -119h-116l-32 -217h-88l33 217h-111l-33 -217h-87l32 217h-114l16 119h115l15 97h-115l17 118h116l33 217h87l-33 -217h111l34 217h86l-31 -217h113zM345 433h-111l-15 -97h111z" />
    <glyph glyph-name="dollar" unicode="$" horiz-adv-x="443" 
d="M429 241q0 -105 -39 -152t-123 -59v-63h-88v64q-137 13 -137 173q0 40 9 74l137 11q-4 -12 -4 -60q0 -57 11 -78.5t36 -21.5q23 0 33.5 17.5t10.5 61.5q0 48 -20 78.5t-71 56.5q-85 43 -121.5 90t-36.5 121q0 170 153 188v38h88v-41q128 -17 128 -152q0 -19 -9 -60
l-133 -8q4 16 4 43q0 54 -8 72t-32 18q-26 0 -33 -16.5t-7 -55.5q0 -37 19 -56.5t82 -49.5q151 -73 151 -233z" />
    <glyph glyph-name="percent" unicode="%" horiz-adv-x="701" 
d="M680 194q0 -118 -36 -160.5t-113 -42.5q-74 0 -111.5 43t-37.5 160q0 128 40 178.5t109 50.5q77 0 113 -49t36 -180zM656 760l-534 -760h-76l534 760h76zM315 545q0 -118 -36 -160.5t-113 -42.5q-75 0 -112.5 43t-37.5 160q0 128 40 178.5t110 50.5q76 0 112.5 -49
t36.5 -180zM555 206q0 50 -1 77t-4 42.5t-7 19.5t-13 4t-13 -3.5t-7 -19.5t-3.5 -42t-0.5 -78q0 -51 1 -77.5t4 -41.5t7 -18.5t12 -3.5q18 0 21.5 21t3.5 120zM190 557q0 100 -3.5 121.5t-22.5 21.5q-17 0 -20 -21t-3 -121q0 -63 2.5 -93.5t7 -39.5t13.5 -9q18 0 22 21.5
t4 119.5z" />
    <glyph glyph-name="ampersand" unicode="&#x26;" horiz-adv-x="610" 
d="M598 122q0 -64 -38.5 -98t-101.5 -34q-41 0 -62.5 10t-40.5 35q-48 -45 -136 -45q-92 0 -143.5 59t-51.5 165q0 81 44 150t115 117q-29 94 -29 137q0 162 152 162q77 0 111 -34.5t34 -103.5q0 -92 -116 -182l65 -185q22 55 36 111q16 80 16 132h94q0 -94 -33 -210
q-33 -105 -65 -158q19 -52 50 -52t31 31q0 25 -8 41l65 10q12 -27 12 -58zM344 642q0 56 -31 56q-25 0 -25 -61q0 -27 18 -79q38 45 38 84zM309 123l-87 236q-45 -46 -45 -139q0 -56 23.5 -84.5t62.5 -28.5q12 0 27 5.5t19 10.5z" />
    <glyph glyph-name="quotesingle" unicode="'" horiz-adv-x="199" 
d="M158 519h-117v249h117v-249z" />
    <glyph glyph-name="parenleft" unicode="(" horiz-adv-x="313" 
d="M280 -141l-17 -12q-107 86 -157 202.5t-49 278.5q1 150 56.5 273.5t142.5 195.5l20 -15q-39 -109 -55.5 -213t-16.5 -242q0 -137 16 -231.5t60 -236.5z" />
    <glyph glyph-name="parenright" unicode=")" horiz-adv-x="313" 
d="M256 329q1 -162 -49 -278.5t-156 -202.5l-18 12q44 143 60.5 237.5t16.5 230.5q0 137 -17 241t-56 214l20 15q87 -72 142.5 -195.5t56.5 -273.5z" />
    <glyph glyph-name="asterisk" unicode="*" horiz-adv-x="421" 
d="M404 573l-67 -106l-83 77l-5 -3l33 -105h-135l31 105l-4 3l-86 -78l-68 106l119 26l-1 5l-117 28l67 106l84 -78l6 3l-31 105h135l-33 -104l5 -4l80 80l68 -107l-114 -28v-5z" />
    <glyph glyph-name="plus" unicode="+" horiz-adv-x="478" 
d="M450 307h-145v-163h-135v163h-140v108h140v164h135v-164h145v-108z" />
    <glyph glyph-name="comma" unicode="," horiz-adv-x="238" 
d="M192 19q0 -80 -44 -127q-33 -37 -67 -53l-20 55q25 17 38 38q17 27 13 68h-64v165h144v-146z" />
    <glyph glyph-name="hyphen" unicode="-" horiz-adv-x="394" 
d="M368 285h-343v111h343v-111z" />
    <glyph glyph-name="period" unicode="." horiz-adv-x="238" 
d="M190 0h-141v165h141v-165z" />
    <glyph glyph-name="slash" unicode="/" horiz-adv-x="375" 
d="M371 768l-293 -768h-77l294 768h76z" />
    <glyph glyph-name="zero" unicode="0" horiz-adv-x="428" 
d="M400 367q0 -161 -19.5 -243t-56.5 -108t-110 -26q-56 0 -88.5 13t-56.5 53.5t-33 114t-9 196.5q0 170 18.5 257.5t56.5 118.5t112 31t111.5 -30t56 -117.5t18.5 -259.5zM245 383q0 133 -5 225q-2 45 -7 58.5t-19 13.5t-18.5 -13t-7.5 -57q-6 -81 -6 -225q0 -142 6 -223
q3 -41 8 -55t18 -14t18 14t8 53q5 69 5 223z" />
    <glyph glyph-name="one" unicode="1" horiz-adv-x="357" 
d="M293 0h-158v597h-119v83q74 8 121 32q51 26 72 62h84v-774z" />
    <glyph glyph-name="two" unicode="2" horiz-adv-x="438" 
d="M412 560q0 -212 -204 -431q30 5 59 5h138v-134h-364v77q125 147 169 248.5t44 235.5q0 66 -7 85.5t-29 19.5q-23 0 -29.5 -21t-6.5 -88q0 -34 14 -120l-140 -4q-23 86 -23 139q0 98 50 150t141 52q188 0 188 -214z" />
    <glyph glyph-name="three" unicode="3" horiz-adv-x="430" 
d="M414 217q0 -125 -53.5 -176t-157.5 -51q-90 0 -135 48.5t-45 133.5q0 69 11 110l141 4q-11 -37 -11 -85q0 -58 10 -80.5t34 -22.5q29 0 38 28t9 106q0 68 -17 98t-55 30h-70v105h70q33 0 44 23t11 83q0 64 -7 84t-30 20q-22 0 -29.5 -18.5t-7.5 -59.5q0 -27 8 -67l-137 5
q-10 43 -10 70q0 76 47 122.5t133 46.5q101 0 142.5 -50.5t41.5 -166.5q0 -124 -104 -138q58 -4 93.5 -56.5t35.5 -145.5z" />
    <glyph glyph-name="four" unicode="4" horiz-adv-x="456" 
d="M445 158h-62v-158h-148v158h-211v149l205 461h154v-502h62v-108zM241 549l-118 -283h115z" />
    <glyph glyph-name="five" unicode="5" horiz-adv-x="445" 
d="M418 281q0 -161 -49 -226t-146 -65q-179 0 -179 176q0 39 12 93l139 9q-8 -27 -8 -73q0 -61 8 -79.5t32 -18.5q27 0 31.5 27.5t4.5 156.5q0 97 -10.5 132t-34.5 35q-23 0 -31 -22.5t-7 -71.5l-125 3l4 411h316q0 -39 -1 -56q-2 -33 -8 -54h-183l-9 -140q24 39 78 39
q76 0 121 -68.5t45 -207.5z" />
    <glyph glyph-name="six" unicode="6" horiz-adv-x="434" 
d="M414 255q0 -144 -49 -204.5t-145 -60.5q-110 0 -151.5 86t-41.5 311q0 97 9 166t24.5 111.5t42 67t56 33.5t70.5 9q80 0 119.5 -38t39.5 -108q0 -38 -8 -73l-129 -4q8 28 8 62q0 40 -9 54.5t-30 14.5q-29 0 -38.5 -35t-9.5 -143q0 -19 2 -57q28 48 84 48q74 0 115 -60
t41 -180zM262 246q0 103 -8 130.5t-34 27.5q-28 0 -36 -29t-8 -129q0 -70 5 -104t13.5 -43.5t26.5 -9.5q16 0 24 9.5t12.5 43.5t4.5 104z" />
    <glyph glyph-name="seven" unicode="7" horiz-adv-x="379" 
d="M376 676q-69 -123 -99 -241t-30 -271q0 -90 12 -164h-177q-6 57 -6 78q0 150 44 297t114 262h-229q-7 23 -7 82q0 17 2 49h376v-92z" />
    <glyph glyph-name="eight" unicode="8" horiz-adv-x="436" 
d="M412 214q0 -119 -46 -171.5t-148 -52.5q-100 0 -147.5 53t-47.5 171q0 176 90 211q-41 14 -58 47.5t-17 96.5q0 105 44 155t136 50q91 0 135 -50.5t44 -154.5q0 -61 -19 -93.5t-56 -50.5q46 -16 68 -64.5t22 -146.5zM251 579q0 65 -6.5 85t-26.5 20q-23 0 -28 -17t-5 -88
q0 -72 6 -91t27 -19q20 0 26.5 20.5t6.5 89.5zM261 227q0 93 -9 121.5t-34 28.5t-34 -29t-9 -121t8.5 -117.5t33.5 -25.5q18 0 26 8t13 39t5 96z" />
    <glyph glyph-name="nine" unicode="9" horiz-adv-x="434" 
d="M407 377q0 -122 -11.5 -198.5t-38.5 -118t-62 -56t-90 -14.5q-80 0 -117 36.5t-37 109.5q0 45 9 73l124 4q-8 -24 -8 -62q0 -45 7.5 -57t30.5 -12q20 0 29.5 11t14 49t4.5 118q0 25 -2 57q-20 -52 -84 -52q-156 0 -156 244q0 144 49 204.5t145 60.5q109 0 151 -90
t42 -307zM258 518q0 102 -9 131.5t-38 29.5q-22 0 -30 -30.5t-8 -130.5q0 -72 3.5 -106t12 -46t25.5 -12q28 0 36 31.5t8 132.5z" />
    <glyph glyph-name="colon" unicode=":" horiz-adv-x="232" 
d="M183 373h-134v165h134v-165zM183 0h-134v165h134v-165z" />
    <glyph glyph-name="semicolon" unicode=";" horiz-adv-x="238" 
d="M182 373h-133v165h133v-165zM182 19q0 -82 -42 -127q-33 -37 -67 -53l-20 55q24 15 38 38q16 27 14 68h-56v165h133v-146z" />
    <glyph glyph-name="less" unicode="&#x3c;" horiz-adv-x="346" 
d="M305 116l-280 202v88l280 202v-139l-162 -107l162 -107v-139z" />
    <glyph glyph-name="equal" unicode="=" horiz-adv-x="461" 
d="M431 419h-401v110h401v-110zM431 215h-401v110h401v-110z" />
    <glyph glyph-name="greater" unicode="&#x3e;" horiz-adv-x="346" 
d="M319 318l-279 -202v139l162 107l-162 107v139l279 -202v-88z" />
    <glyph glyph-name="question" unicode="?" horiz-adv-x="399" 
d="M377 519q0 -64 -10 -106t-29.5 -62.5t-40.5 -28t-51 -7.5q-55 0 -81 37v-119h-103v268h100q5 -49 11.5 -63.5t26.5 -14.5q16 0 22 20.5t6 79.5q0 102 -7 129.5t-35 27.5q-18 0 -24.5 -14.5t-6.5 -48.5q0 -33 8 -61l-130 2q-12 29 -12 77q0 67 41.5 106t129.5 39
t136.5 -57.5t48.5 -203.5zM184 0h-135v165h135v-165z" />
    <glyph glyph-name="at" unicode="@" horiz-adv-x="873" 
d="M827 421q0 -130 -66.5 -210.5t-152.5 -80.5q-108 0 -117 58q-14 -19 -24.5 -30t-40 -22t-71.5 -11q-52 0 -85.5 27t-33.5 82q0 43 14 75.5t35.5 52t55.5 33t66.5 19t75.5 9.5l5 35q9 52 -34 52q-19 0 -28 -18.5t-5 -44.5l-152 -21q-9 88 39 132.5t168 44.5
q86 0 128.5 -37.5t42.5 -100.5q0 -32 -7 -79q-1 -7 -22 -120q-4 -22 -4 -25q0 -29 26 -29q46 0 87.5 51t41.5 157q0 153 -92.5 234t-231.5 81q-153 0 -249.5 -110.5t-96.5 -275.5q0 -166 94 -264.5t250 -98.5q60 0 118.5 23t94.5 60l31 -45q-106 -92 -248 -92
q-190 0 -297 112.5t-107 305.5t112.5 311.5t306.5 118.5q162 0 267.5 -94t105.5 -265zM471 342q-2 0 -9.5 0.5t-10.5 0.5q-30 0 -47 -14.5t-21 -58.5q-2 -23 5.5 -32.5t26.5 -9.5q38 0 48 59q7 47 8 55z" />
    <glyph glyph-name="A" unicode="A" horiz-adv-x="423" 
d="M416 0h-164l-16 124h-74l-16 -124h-137l120 769h145zM224 209q-12 92 -18 150q-1 6 -10 176q-3 -122 -8 -178l-15 -148h51z" />
    <glyph glyph-name="B" unicode="B" horiz-adv-x="458" 
d="M439 217q0 -115 -53.5 -166t-156.5 -51h-189v768h190q104 0 144.5 -52.5t40.5 -158.5q0 -70 -27 -108t-78 -40q57 0 93 -50.5t36 -141.5zM262 555q0 65 -11.5 88t-38.5 23h-18v-207h29q21 0 30 20.5t9 75.5zM273 232q0 127 -51 127h-28v-254h30q30 0 39.5 21.5t9.5 105.5
z" />
    <glyph glyph-name="C" unicode="C" horiz-adv-x="427" 
d="M406 215q0 -231 -181 -231q-57 0 -90.5 12t-60 49.5t-37 108t-10.5 186.5q0 176 17.5 268.5t58.5 132t120 39.5q93 0 133.5 -49t40.5 -145q0 -74 -8 -120l-144 -4q1 10 4 56t3 68q0 31 -0.5 43.5t-3 25t-7.5 16t-15 3.5q-11 0 -15.5 -6.5t-8.5 -38t-5 -88t-1 -165.5
q0 -105 1 -156t5 -81t9.5 -35.5t18.5 -5.5q20 0 24 25t4 117q0 58 -7 101l148 -2q7 -62 7 -124z" />
    <glyph glyph-name="D" unicode="D" horiz-adv-x="463" 
d="M436 345q0 -144 -21.5 -219t-62 -100.5t-117.5 -25.5h-195v768h167q64 0 105 -18t70 -65.5t41.5 -129.5t12.5 -210zM269 331q0 116 -2 175.5t-9.5 93.5t-17 41t-30.5 7h-14v-528h15q27 0 37 9.5t15.5 53t5.5 148.5z" />
    <glyph glyph-name="E" unicode="E" horiz-adv-x="379" 
d="M372 0h-332v768h309v-120h-151v-197h132v-120h-132v-206h174v-125z" />
    <glyph glyph-name="F" unicode="F" horiz-adv-x="353" 
d="M341 648h-143v-205h123v-121h-123v-322h-158v768h301v-120z" />
    <glyph glyph-name="G" unicode="G" horiz-adv-x="458" 
d="M416 -6h-57l-33 56q-30 -64 -103 -64q-54 0 -87 12.5t-59.5 50.5t-38 112.5t-11.5 194.5q0 106 7.5 179.5t22 122t40.5 75t58.5 37t79.5 10.5q93 0 132.5 -46.5t39.5 -154.5q0 -49 -14 -89l-147 -5q13 58 13 104q0 51 -6.5 68.5t-23.5 17.5q-13 0 -19.5 -8.5t-11 -43.5
t-5.5 -92t-1 -168q0 -127 4.5 -185t12 -71t25.5 -13q26 0 34 24t8 92q0 65 -4 96h-42v109h186v-421z" />
    <glyph glyph-name="H" unicode="H" horiz-adv-x="458" 
d="M418 0h-158v351h-62v-351h-158v768h158v-284h62v284h158v-768z" />
    <glyph glyph-name="I" unicode="I" horiz-adv-x="240" 
d="M200 0h-160v768h160v-768z" />
    <glyph glyph-name="J" unicode="J" horiz-adv-x="432" 
d="M393 216q0 -134 -38.5 -183t-149.5 -49q-102 0 -148 46t-46 149q0 47 16 113l156 3q-17 -61 -17 -128q0 -41 9 -56t27 -15q19 0 25.5 14.5t6.5 56.5v601h159v-552z" />
    <glyph glyph-name="K" unicode="K" horiz-adv-x="497" 
d="M498 0h-183l-117 284v-284h-158v768h158v-260l121 260h164l-170 -353z" />
    <glyph glyph-name="L" unicode="L" horiz-adv-x="384" 
d="M373 0h-333v768h158v-643h175v-125z" />
    <glyph glyph-name="M" unicode="M" horiz-adv-x="576" 
d="M537 0h-142v267l4 275q-20 -197 -35 -335l-22 -207h-108q-14 127 -24 207l-39 335q5 -168 5 -273v-269h-136v768h177q4 -22 23.5 -121.5t31.5 -161.5q4 -24 8 -61.5t6 -62.5l2 -25q7 95 17 148q9 53 27 155t22 129h183v-768z" />
    <glyph glyph-name="N" unicode="N" horiz-adv-x="460" 
d="M420 0h-124q-73 227 -91 284q-15 47 -30 123q7 -120 7 -211v-196h-142v768h138q66 -225 80 -273q16 -53 25 -103q-5 94 -5 226v150h142v-768z" />
    <glyph glyph-name="O" unicode="O" horiz-adv-x="460" 
d="M433 383q0 -98 -8.5 -168.5t-24.5 -115t-42.5 -70.5t-57.5 -35.5t-75 -9.5q-53 0 -86.5 14.5t-60.5 56t-39 122t-12 206.5q0 167 20.5 253t60.5 115t117 29t119.5 -29.5t65.5 -117t23 -250.5zM266 383q0 147 -6 229q-5 67 -32 67q-15 0 -22.5 -14.5t-8.5 -52.5
q-3 -83 -3 -229q0 -162 3 -216q4 -65 33 -65q14 0 20 13.5t10 51.5q6 66 6 216z" />
    <glyph glyph-name="P" unicode="P" horiz-adv-x="450" 
d="M433 536q0 -135 -41.5 -191t-133.5 -56h-60v-289h-158v768h205q96 0 142 -55.5t46 -176.5zM271 534q0 71 -15 93.5t-42 22.5h-16v-243h20q33 0 43 25.5t10 101.5z" />
    <glyph glyph-name="Q" unicode="Q" horiz-adv-x="460" 
d="M433 383q0 -117 -11 -194.5t-35 -119t-51 -59t-68 -24.5q-4 -18 -4 -31q0 -43 28 -43t28 27q0 10 -3 25l82 -2q4 -15 4 -36q0 -42 -33 -63.5t-90 -21.5q-30 0 -55 6.5t-46.5 30t-21.5 62.5q0 20 8 50q-34 11 -55 27t-42 55.5t-31 116t-10 194.5q0 165 19.5 250t60 116
t118.5 31q81 0 123.5 -31t63.5 -116.5t21 -249.5zM266 383q0 147 -6 229q-5 67 -32 67q-15 0 -22.5 -14.5t-8.5 -52.5q-3 -83 -3 -229q0 -166 3 -220q4 -65 33 -65q14 0 20 13.5t10 51.5q6 66 6 220z" />
    <glyph glyph-name="R" unicode="R" horiz-adv-x="466" 
d="M456 0h-176q-17 43 -17 140v94q0 55 -12 79.5t-44 24.5h-11v-338h-156v768h220q83 0 130 -47.5t47 -147.5q0 -92 -25.5 -131t-97.5 -48q64 -4 86 -52.5t23 -149.5q1 -57 10 -114.5t23 -77.5zM279 543q0 41 -3.5 64.5t-14.5 34t-20.5 12.5t-30.5 2h-14v-206h32
q29 0 40 19.5t11 73.5z" />
    <glyph glyph-name="S" unicode="S" horiz-adv-x="443" 
d="M426 201q0 -108 -47.5 -162.5t-149.5 -54.5q-92 0 -139.5 45.5t-47.5 153.5q0 29 12 96l141 5q-7 -52 -7 -95q0 -60 10 -78.5t32 -18.5q20 0 27.5 15.5t7.5 70.5q0 77 -18.5 108t-72.5 59l-38 20q-107 56 -107 216q0 98 47 148.5t137 50.5q89 0 134.5 -43.5t45.5 -128.5
q0 -27 -9 -72l-137 -12q6 40 6 76q0 48 -8 65t-29 17q-34 0 -34 -71q0 -41 10 -66.5t23 -36t39 -23.5l46 -24q69 -36 97.5 -96t28.5 -164z" />
    <glyph glyph-name="T" unicode="T" horiz-adv-x="419" 
d="M410 648h-121v-648h-160v648h-120v120h401v-120z" />
    <glyph glyph-name="U" unicode="U" horiz-adv-x="454" 
d="M414 149q0 -83 -39 -124t-143 -41q-192 0 -192 165v619h158v-605q0 -35 7 -49t27 -14q21 0 27.5 13t6.5 50v605h148v-619z" />
    <glyph glyph-name="V" unicode="V" horiz-adv-x="441" 
d="M431 768l-145 -773h-133l-143 773h161q5 -30 23 -155.5t30 -203.5l6 -103q2 68 6 103q11 79 32 205t25 154h138z" />
    <glyph glyph-name="W" unicode="W" horiz-adv-x="595" 
d="M583 768l-113 -768h-126q-17 137 -28 225l-20 160q-7 -73 -19 -160l-32 -225h-135l-98 768h146q16 -162 25 -266l7 -185q0 134 8 186q6 42 20.5 135t19.5 130h124q13 -95 35 -266q5 -37 8 -83.5t4 -74.5l1 -27q-2 102 8 185l32 266h133z" />
    <glyph glyph-name="X" unicode="X" horiz-adv-x="426" 
d="M433 0h-169l-57 202l-57 -202h-147l125 391l-113 377h164l48 -172l51 172h140l-114 -356z" />
    <glyph glyph-name="Y" unicode="Y" horiz-adv-x="434" 
d="M432 768l-137 -470v-298h-158v298l-144 470h163l69 -264l63 264h144z" />
    <glyph glyph-name="Z" unicode="Z" horiz-adv-x="408" 
d="M384 0h-371v92l203 556h-176v120h344v-94l-193 -549h193v-125z" />
    <glyph glyph-name="bracketleft" unicode="[" horiz-adv-x="308" 
d="M280 -158h-223v926h223v-88h-80v-750h80v-88z" />
    <glyph glyph-name="backslash" unicode="\" horiz-adv-x="375" 
d="M371 0h-76l-294 768h77z" />
    <glyph glyph-name="bracketright" unicode="]" horiz-adv-x="308" 
d="M250 -158h-223v88h80v750h-80v88h223v-926z" />
    <glyph glyph-name="asciicircum" unicode="^" horiz-adv-x="377" 
d="M330 599h-88l-51 56l-52 -56h-88l84 169h111z" />
    <glyph glyph-name="underscore" unicode="_" horiz-adv-x="505" 
d="M505 -200h-505v95h505v-95z" />
    <glyph glyph-name="grave" unicode="`" horiz-adv-x="381" 
d="M276 584h-74l-97 124h129z" />
    <glyph glyph-name="a" unicode="a" horiz-adv-x="383" 
d="M377 94l-6 -95q-21 -9 -67 -9q-72 0 -79 39q-14 -23 -29 -31t-42 -8q-26 0 -46.5 6t-42.5 21.5t-34 50.5t-12 86q0 77 29.5 111.5t89.5 50.5l33 9q23 6 29 22.5t6 69.5q0 28 -5.5 39t-20.5 11q-24 0 -24 -39q0 -24 5 -51l-116 -10l-5 14q-4 14 -6 26t-2 28q0 121 149 121
q80 0 117 -28.5t37 -100.5v-308q0 -29 20 -29q13 0 22 4zM206 128v119q-26 -9 -35 -28.5t-9 -72.5q0 -62 22 -62q12 0 17 9.5t5 34.5z" />
    <glyph glyph-name="b" unicode="b" horiz-adv-x="384" 
d="M361 271q0 -87 -10 -144t-31.5 -86.5t-48 -40t-66.5 -10.5q-59 0 -91 53l-16 -44h-66v769h136v-258q17 46 66 46q27 0 48 -12t39.5 -41t29 -88t10.5 -144zM218 272q0 69 -0.5 102t-4 53.5t-7.5 24.5t-14 4q-30 0 -30 -185q0 -124 5 -156.5t25 -32.5q9 0 13.5 4.5t8 25.5
t4 55.5t0.5 104.5z" />
    <glyph glyph-name="c" unicode="c" horiz-adv-x="356" 
d="M340 158q0 -94 -34.5 -131t-119.5 -37q-97 0 -132 59.5t-35 231.5q0 88 11.5 144.5t35.5 84t50.5 37t66.5 9.5q75 0 110 -37t35 -123q0 -30 -6 -62l-126 -2q6 30 6 64q0 48 -4 62.5t-15 14.5q-8 0 -12 -5t-7 -27t-3.5 -60t-0.5 -111q1 -162 7 -180q4 -13 21 -13
q21 0 21 91q0 22 -4 80l125 -3q10 -48 10 -87z" />
    <glyph glyph-name="d" unicode="d" horiz-adv-x="379" 
d="M352 0h-130v44q-10 -27 -24 -38.5t-42 -11.5q-45 0 -72.5 19.5t-44 79t-16.5 166.5q0 166 36 231.5t101 65.5q33 0 55 -32v244h137v-768zM215 271q0 121 -4.5 160t-19.5 39q-10 0 -14.5 -5.5t-8 -28.5t-4 -58t-0.5 -106q0 -69 0.5 -104.5t3.5 -56.5t7 -26t12 -5
q9 0 13.5 4.5t8.5 24t5 56.5t1 106z" />
    <glyph glyph-name="e" unicode="e" horiz-adv-x="352" 
d="M333 330q0 -29 -8 -81h-166v-50q1 -57 4.5 -83.5t8.5 -34t17 -7.5q13 0 17 13t4 64q0 19 -5 59l120 -2q6 -26 6 -70q0 -78 -34.5 -113t-106.5 -35q-48 0 -77.5 9.5t-52 37t-32 79t-9.5 133.5q0 119 18 187t52.5 94t92.5 26q82 0 116.5 -52.5t34.5 -173.5zM205 399
q0 52 -4 70t-19 18q-14 0 -19.5 -20t-5.5 -83v-57h45q3 39 3 72z" />
    <glyph glyph-name="f" unicode="f" horiz-adv-x="274" 
d="M346 666q0 -28 -11 -67l-100 -12q8 34 8 52q0 28 -4 39.5t-18 11.5q-12 0 -16 -8t-4 -27v-108h68v-78h-68v-469h-140v469h-59v78h59v118q0 50 42.5 80.5t108.5 30.5q61 0 97.5 -28.5t36.5 -81.5z" />
    <glyph glyph-name="g" unicode="g" horiz-adv-x="395" 
d="M420 603l-79 -117q30 -38 30 -120q0 -188 -158 -188q-24 0 -59 7q-21 -12 -21 -26t11 -19t43 -4l70 4q68 4 105.5 -44.5t37.5 -124.5q0 -171 -191 -171q-113 0 -160.5 30t-47.5 107q0 69 82 89q-33 4 -48.5 27t-15.5 56q0 36 21 61.5t55 38.5q-30 15 -45.5 58.5
t-15.5 98.5q0 87 46 138.5t125 51.5q60 0 83 -21l13 68h119zM233 366q0 70 -5 90.5t-27 20.5q-20 0 -26 -22.5t-6 -88.5q0 -65 6.5 -86.5t25.5 -21.5q20 0 26 20t6 88zM270 -47q0 72 -76 68l-53 -3q-19 -15 -26 -28t-7 -35q0 -38 21 -55.5t64 -17.5q77 0 77 71z" />
    <glyph glyph-name="h" unicode="h" horiz-adv-x="385" 
d="M356 0h-137v424q0 27 -22 27q-27 0 -27 -45v-406h-138v768h134v-260q31 48 85 48q55 0 80 -28t25 -73v-455z" />
    <glyph glyph-name="i" unicode="i" horiz-adv-x="205" 
d="M173 609h-141v129h141v-129zM173 0h-141v547h141v-547z" />
    <glyph glyph-name="j" unicode="j" horiz-adv-x="216" 
d="M187 609h-141v129h141v-129zM186 -67q0 -51 -38.5 -82.5t-107.5 -31.5q-80 0 -115.5 27t-35.5 83q0 24 7 47l108 7q-5 -27 -5 -46q0 -27 22 -27q16 0 20.5 12t4.5 35v590h140v-614z" />
    <glyph glyph-name="k" unicode="k" horiz-adv-x="402" 
d="M408 0h-158l-79 197v-197h-139v768h139v-358l69 137h147l-132 -236z" />
    <glyph glyph-name="l" unicode="l" horiz-adv-x="204" 
d="M172 0h-140v768h140v-768z" />
    <glyph glyph-name="m" unicode="m" horiz-adv-x="566" 
d="M534 0h-137v427q0 27 -20 27q-25 0 -25 -45v-409h-137v427q0 27 -20 27q-25 0 -25 -45v-409h-138v547h134v-39q31 48 85 48q22 0 40 -5.5t27.5 -13t16 -15t8.5 -12.5l2 -6q34 52 88 52q101 0 101 -101v-455z" />
    <glyph glyph-name="n" unicode="n" horiz-adv-x="385" 
d="M356 0h-137v424q0 27 -22 27q-27 0 -27 -45v-406h-138v547h134v-39q31 48 85 48q55 0 80 -28t25 -73v-455z" />
    <glyph glyph-name="o" unicode="o" horiz-adv-x="372" 
d="M353 266q0 -163 -35 -219.5t-132 -56.5q-92 0 -129.5 58.5t-37.5 217.5q0 162 35.5 226t131.5 64q93 0 130 -66.5t37 -223.5zM210 266q0 73 -1 111.5t-4 59.5t-7 25.5t-12 4.5t-11.5 -4.5t-7 -24.5t-4.5 -60.5t-1 -111.5q0 -138 3.5 -165.5t20.5 -27.5q8 0 11.5 4.5
t7 23.5t4.5 57.5t1 107.5z" />
    <glyph glyph-name="p" unicode="p" horiz-adv-x="384" 
d="M361 271q0 -116 -16.5 -178.5t-44.5 -82.5t-77 -20q-15 0 -31.5 9t-20.5 26v-201h-139v723h123q3 -28 3 -51q7 23 27 41.5t49 18.5q27 0 48 -12t39.5 -41t29 -88t10.5 -144zM218 272q0 67 -1 102.5t-4.5 55.5t-7.5 24.5t-13 4.5q-8 0 -12.5 -5.5t-8 -25t-5 -56.5
t-1.5 -101q0 -74 0.5 -109.5t4 -57.5t8 -26t14.5 -4q18 0 22 33t4 165z" />
    <glyph glyph-name="q" unicode="q" horiz-adv-x="380" 
d="M348 -176h-137v196q-13 -17 -24 -23.5t-33 -6.5q-45 0 -73 20.5t-45 81.5t-17 167q0 116 18.5 182t52 90.5t88.5 24.5q58 0 93 -53l38 48h39v-727zM214 271q0 75 -1 113t-4 59.5t-7.5 26t-13.5 4.5q-19 0 -23.5 -31.5t-4.5 -170.5q0 -70 1 -108.5t5 -58.5t8.5 -24.5
t13.5 -4.5q10 0 14 4.5t7.5 26t4 57t0.5 107.5z" />
    <glyph glyph-name="r" unicode="r" horiz-adv-x="347" 
d="M342 427q0 -59 -18 -118l-112 -4q9 56 9 88q0 55 -24 55q-15 0 -20.5 -18.5t-5.5 -69.5v-360h-139v547h136v-53q17 62 80 62q49 0 71.5 -30.5t22.5 -98.5z" />
    <glyph glyph-name="s" unicode="s" horiz-adv-x="361" 
d="M344 155q0 -165 -169 -165q-72 0 -112.5 33.5t-40.5 98.5q0 25 6 58l121 8q-7 -35 -7 -53q0 -31 5.5 -44.5t22.5 -13.5t23 13t6 43q0 41 -15.5 62t-58.5 42l-35 17q-38 18 -54.5 53t-16.5 100q0 72 44.5 110.5t111.5 38.5q151 0 151 -131q0 -28 -2 -38l-122 -8q3 21 3 43
q0 27 -5.5 38t-19.5 11q-27 0 -27 -42q0 -32 7.5 -46.5t39.5 -27.5l39 -17q105 -45 105 -183z" />
    <glyph glyph-name="t" unicode="t" horiz-adv-x="289" 
d="M276 15q-29 -25 -106 -25q-63 0 -92 23t-29 81l3 375h-57v78h58l2 167h136v-167h77v-78h-77v-345q0 -42 31 -42q28 0 54 8v-75z" />
    <glyph glyph-name="u" unicode="u" horiz-adv-x="386" 
d="M358 2l-132 -6l-5 43q-31 -48 -85 -48q-55 0 -80 28t-25 73v455h137v-422q0 -27 22 -27q27 0 27 45v404h138v-520q0 -13 3 -25z" />
    <glyph glyph-name="v" unicode="v" horiz-adv-x="346" 
d="M345 547l-107 -547h-135l-102 547h143q18 -152 30 -248l6 -86q0 45 5 87l33 247h127z" />
    <glyph glyph-name="w" unicode="w" horiz-adv-x="493" 
d="M492 547l-103 -547h-108q-19 145 -30 235l-6 74q-2 -46 -5 -74l-35 -235h-107l-101 547h132q14 -131 24 -217l6 -104q4 78 7 104l30 217h104q14 -133 23 -217l6 -104q2 75 7 104l31 217h125z" />
    <glyph glyph-name="x" unicode="x" horiz-adv-x="354" 
d="M362 0h-147l-49 144l-49 -144h-125l114 293l-103 254h146l30 -104l37 104h129l-102 -259z" />
    <glyph glyph-name="y" unicode="y" horiz-adv-x="379" 
d="M376 547l-108 -547q-20 -100 -53 -138t-100 -38q-136 0 -136 102q0 15 2 41l114 9q-4 -16 -4 -29q0 -22 27 -22q16 0 22 14t13 51l-161 557h140l75 -324l43 324h126z" />
    <glyph glyph-name="z" unicode="z" horiz-adv-x="316" 
d="M305 457l-152 -368h149v-89h-290v75l158 388h-140v84h275v-90z" />
    <glyph glyph-name="braceleft" unicode="{" horiz-adv-x="308" 
d="M289 674h-37q-19 0 -27.5 -6t-8.5 -23v-289q0 -29 -11 -41.5t-39 -12.5q27 0 38.5 -12.5t11.5 -41.5v-302q0 -17 7.5 -22.5t26.5 -5.5h38v-94h-82q-116 0 -116 94v286q0 27 -14.5 39.5t-48.5 12.5v92q34 0 48.5 12.5t14.5 39.5v274q0 94 117 94h82v-94z" />
    <glyph glyph-name="bar" unicode="|" horiz-adv-x="209" 
d="M147 -200h-92v998h92v-998z" />
    <glyph glyph-name="braceright" unicode="}" horiz-adv-x="308" 
d="M281 256q-34 0 -48.5 -12.5t-14.5 -39.5v-286q0 -94 -116 -94h-82v94h38q19 0 26.5 5.5t7.5 22.5v302q0 29 11.5 41.5t38.5 12.5q-28 0 -39 12.5t-11 41.5v289q0 17 -8.5 23t-27.5 6h-37v94h82q117 0 117 -94v-274q0 -27 14.5 -39.5t48.5 -12.5v-92z" />
    <glyph glyph-name="asciitilde" unicode="~" horiz-adv-x="283" 
d="M272 719q0 -31 -19.5 -54.5t-58.5 -23.5q-30 0 -55 21q-15 13 -27 23q-16 14 -26 14q-7 0 -12 -2.5t-7 -6t-3 -9.5t-1.5 -9.5t0 -9t0.5 -6.5h-38q-9 19 -9 45q0 32 16 55t52 23q39 0 69 -24q3 -2 25 -22q13 -11 24 -11q6 0 10 2t6.5 6t4 7.5t2 9t0.5 8.5v8v5h38
q9 -23 9 -49z" />
    <glyph glyph-name="nbspace" unicode="&#xa0;" horiz-adv-x="122" 
 />
    <glyph glyph-name="exclamdown" unicode="&#xa1;" horiz-adv-x="242" 
d="M199 603h-149v165h149v-165zM202 0h-154v285l32 249h90l32 -249v-285z" />
    <glyph glyph-name="cent" unicode="&#xa2;" horiz-adv-x="363" 
d="M344 301q0 -87 -29.5 -124.5t-98.5 -42.5v-72h-55v72q-79 8 -108.5 69.5t-29.5 220.5q0 105 18.5 166.5t46.5 82.5t73 25v70h55v-71q60 -6 88 -43.5t28 -114.5q0 -28 -6 -62l-126 -2q6 30 6 64q0 48 -4 62.5t-15 14.5q-8 0 -12 -5t-7 -27.5t-3.5 -59.5t-0.5 -111
q0 -140 3.5 -166.5t24.5 -26.5t21 91q0 22 -4 80l125 -3q10 -48 10 -87z" />
    <glyph glyph-name="sterling" unicode="&#xa3;" horiz-adv-x="539" 
d="M530 140q0 -150 -136 -150q-47 0 -79 14t-76 47q-34 -61 -117 -61q-120 0 -120 92q0 46 30.5 72t87.5 26q34 0 64 -14q7 22 7 62q0 38 -15 81h-131v90h106q-23 89 -23 156q0 219 185 219q92 0 144 -53.5t52 -143.5q0 -48 -14 -87l-136 -13q12 43 12 90t-9 66t-32 19
q-51 0 -51 -72q0 -25 2.5 -51t4.5 -39t8.5 -47t8.5 -44h147v-90h-133q4 -24 4 -48q0 -80 -29 -132q45 -24 79 -24q47 0 47 73q0 42 -7 68l100 -9q19 -44 19 -97zM155 92q-13 11 -32 11q-24 0 -24 -19t25 -19q15 0 31 27z" />
    <glyph glyph-name="currency" unicode="&#xa4;" 
d="M298 371q0 -162 -38.5 -277.5t-93.5 -115.5q-54 0 -93 115.5t-39 277.5q0 164 39 280t93 116q55 0 93.5 -116t38.5 -280zM279 314l-64 121l-3 239l-57 -168l-80 45l46 -172l-54 -176l88 48l36 -228l17 267z" />
    <glyph glyph-name="yen" unicode="&#xa5;" horiz-adv-x="434" 
d="M432 768l-84 -287h75v-90h-101l-27 -92h128v-90h-128v-209h-158v209h-137v90h137l-28 92h-109v90h81l-88 287h163l69 -264l63 264h144z" />
    <glyph glyph-name="brokenbar" unicode="&#xa6;" 
d="M298 371q0 -162 -38.5 -277.5t-93.5 -115.5q-54 0 -93 115.5t-39 277.5q0 164 39 280t93 116q55 0 93.5 -116t38.5 -280zM279 314l-64 121l-3 239l-57 -168l-80 45l46 -172l-54 -176l88 48l36 -228l17 267z" />
    <glyph glyph-name="section" unicode="&#xa7;" horiz-adv-x="380" 
d="M360 378q0 -91 -70 -134q62 -50 62 -145q0 -165 -169 -165q-72 0 -112.5 33.5t-40.5 98.5q0 25 6 58l119 8q-7 -35 -7 -56q0 -30 6.5 -44t23.5 -14q32 0 32 56q0 42 -17.5 66t-59.5 44l-35 17q-40 19 -59 50t-19 90q0 48 25 82.5t61 51.5q-77 39 -77 150q0 66 43 107.5
t113 41.5q151 0 151 -143q0 -16 -2 -26l-118 -8q3 24 3 47q0 49 -29 49q-31 0 -31 -42q0 -33 9.5 -48.5t41.5 -29.5l39 -17q111 -49 111 -178zM240 351q0 27 -21 50q-9 10 -39 30q-38 -21 -38 -59t28 -56q21 -14 43 -25q27 25 27 60z" />
    <glyph glyph-name="dieresis" unicode="&#xa8;" horiz-adv-x="381" 
d="M330 590h-99v112h99v-112zM148 590h-99v112h99v-112z" />
    <glyph glyph-name="copyright" unicode="&#xa9;" horiz-adv-x="592" 
d="M567 497q0 -121 -79.5 -197.5t-194.5 -76.5q-122 0 -198 78t-76 196t80 195.5t194 77.5q120 0 197 -76.5t77 -196.5zM536 497q0 101 -71 172.5t-172 71.5t-169.5 -71t-68.5 -173t68.5 -173.5t169.5 -71.5t172 72t71 173zM416 418q0 -63 -28.5 -91t-92.5 -28
q-76 0 -105.5 44t-29.5 164q0 111 31 152.5t102 41.5q58 0 86 -26.5t28 -85.5q0 -25 -7 -44l-92 -1q4 16 4 39q0 37 -4 49t-15 12q-21 0 -25 -22t-4 -122q0 -98 5.5 -121t28.5 -23q15 0 19 13.5t4 54.5q0 28 -6 56l94 -2q7 -39 7 -60z" />
    <glyph glyph-name="ordfeminine" unicode="&#xaa;" horiz-adv-x="477" 
d="M412 385q-33 -11 -69 -11q-58 0 -70 33q-23 -33 -81 -33q-25 0 -44 4t-39 15.5t-31 36t-11 60.5q0 40 28.5 72t80.5 44l32 8q42 8 42 62q0 29 -6 39.5t-22 10.5q-18 0 -24 -9t-6 -32t6 -35l-99 -3q-13 13 -13 44q0 89 146 89q69 0 98.5 -25.5t29.5 -62.5v-234
q0 -10 7 -16.5t18 -6.5q15 0 27 4v-54zM413 288h-342v56h342v-56zM250 484v84q-38 -13 -50.5 -27.5t-12.5 -42.5q0 -39 7 -53.5t26 -14.5t24.5 12t5.5 42z" />
    <glyph glyph-name="guillemotleft" unicode="&#xab;" horiz-adv-x="474" 
d="M434 35l-184 166v129l184 164v-141l-84 -88l84 -89v-141zM231 35l-184 166v129l184 164v-141l-83 -88l83 -89v-141z" />
    <glyph glyph-name="logicalnot" unicode="&#xac;" 
d="M298 371q0 -162 -38.5 -277.5t-93.5 -115.5q-54 0 -93 115.5t-39 277.5q0 164 39 280t93 116q55 0 93.5 -116t38.5 -280zM279 314l-64 121l-3 239l-57 -168l-80 45l46 -172l-54 -176l88 48l36 -228l17 267z" />
    <glyph glyph-name="registered" unicode="&#xae;" horiz-adv-x="592" 
d="M567 497q0 -119 -77.5 -196.5t-196.5 -77.5q-120 0 -197 76.5t-77 197.5q0 119 79.5 196t194.5 77q120 0 197 -76.5t77 -196.5zM536 497q0 101 -71 172.5t-172 71.5t-169.5 -71t-68.5 -173t68.5 -173.5t169.5 -71.5t172 72t71 173zM413 583q0 -47 -19 -66.5t-64 -22.5
q42 -4 56.5 -35t16.5 -112q0 -24 6 -45h-86q-8 13 -8 49v66q0 41 -22 41h-21v-156h-80v402h127q51 0 72.5 -29.5t21.5 -91.5zM326 588q0 37 -8.5 48.5t-25.5 11.5h-20v-126h21q33 0 33 66z" />
    <glyph glyph-name="macron" unicode="&#xaf;" horiz-adv-x="381" 
d="M319 601h-261v65h261v-65z" />
    <glyph glyph-name="degree" unicode="&#xb0;" horiz-adv-x="358" 
d="M308 629q0 -53 -38 -91t-91 -38t-91 38t-38 91t38 91t91 38t91 -38t38 -91zM233 629q0 23 -15.5 39.5t-38.5 16.5t-38.5 -16.5t-15.5 -39.5t15.5 -39.5t38.5 -16.5t38.5 16.5t15.5 39.5z" />
    <glyph glyph-name="plusminus" unicode="&#xb1;" horiz-adv-x="650" 
d="M618 0h-141v673q-9 17 -33 17q-35 0 -35 -53v-90h49v-78h-49v-469h-140v469h-68v-469h-140v469h-59v78h59v109q0 51 41.5 85.5t109.5 34.5q71 0 124 -29q43 27 105 27q39 0 66 -6h111v-768zM275 679q-17 11 -42 11q-32 0 -32 -39v-104h68v103q0 16 6 29z" />
    <glyph glyph-name="twosuperior" unicode="&#xb2;" 
d="M298 371q0 -162 -38.5 -277.5t-93.5 -115.5q-54 0 -93 115.5t-39 277.5q0 164 39 280t93 116q55 0 93.5 -116t38.5 -280zM279 314l-64 121l-3 239l-57 -168l-80 45l46 -172l-54 -176l88 48l36 -228l17 267z" />
    <glyph glyph-name="threesuperior" unicode="&#xb3;" 
d="M298 371q0 -162 -38.5 -277.5t-93.5 -115.5q-54 0 -93 115.5t-39 277.5q0 164 39 280t93 116q55 0 93.5 -116t38.5 -280zM279 314l-64 121l-3 239l-57 -168l-80 45l46 -172l-54 -176l88 48l36 -228l17 267z" />
    <glyph glyph-name="acute" unicode="&#xb4;" horiz-adv-x="381" 
d="M297 708l-97 -124h-74l42 124h129z" />
    <glyph glyph-name="mu" unicode="&#xb5;" 
d="M298 371q0 -162 -38.5 -277.5t-93.5 -115.5q-54 0 -93 115.5t-39 277.5q0 164 39 280t93 116q55 0 93.5 -116t38.5 -280zM279 314l-64 121l-3 239l-57 -168l-80 45l46 -172l-54 -176l88 48l36 -228l17 267z" />
    <glyph glyph-name="paragraph" unicode="&#xb6;" horiz-adv-x="480" 
d="M440 0h-71v708h-48v-708h-71v274q-16 4 -26 6q-39 9 -72.5 25t-65 43.5t-49.5 72t-18 101.5q0 129 59.5 187.5t151.5 58.5h210v-768zM250 332v376q-31 0 -44 -40.5t-13 -147.5q0 -73 8 -112.5t17.5 -51.5t31.5 -24z" />
    <glyph glyph-name="periodcentered" unicode="&#xb7;" horiz-adv-x="292" 
d="M247 410q0 -47 -29.5 -79.5t-71.5 -32.5t-71.5 32.5t-29.5 79.5t29.5 79.5t71.5 32.5t71.5 -32.5t29.5 -79.5z" />
    <glyph glyph-name="cedilla" unicode="&#xb8;" horiz-adv-x="381" 
d="M313 -103q0 -40 -31.5 -64t-87.5 -24q-41 0 -76.5 10.5t-52.5 24.5l32 50q47 -28 95 -28q20 0 25.5 7.5t5.5 19.5q0 30 -34 30q-21 0 -38 -7l18 64h40q48 0 76 -23.5t28 -59.5z" />
    <glyph glyph-name="onesuperior" unicode="&#xb9;" 
d="M298 371q0 -162 -38.5 -277.5t-93.5 -115.5q-54 0 -93 115.5t-39 277.5q0 164 39 280t93 116q55 0 93.5 -116t38.5 -280zM279 314l-64 121l-3 239l-57 -168l-80 45l46 -172l-54 -176l88 48l36 -228l17 267z" />
    <glyph glyph-name="ordmasculine" unicode="&#xba;" horiz-adv-x="432" 
d="M376 572q0 -113 -34 -155.5t-126 -42.5q-87 0 -123.5 43.5t-36.5 154.5q0 113 34 160.5t126 47.5q88 0 124 -49t36 -159zM366 288h-303v56h303v-56zM249 572q0 51 -1 78t-5 43.5t-10 20.5t-17 4q-21 0 -26.5 -25t-5.5 -121q0 -86 6 -110t26 -24q14 0 20.5 8.5t9.5 36.5
t3 89z" />
    <glyph glyph-name="guillemotright" unicode="&#xbb;" horiz-adv-x="474" 
d="M429 201l-184 -166v141l83 89l-83 88v141l184 -164v-129zM226 201l-184 -166v141l84 89l-84 88v141l184 -164v-129z" />
    <glyph glyph-name="onequarter" unicode="&#xbc;" 
d="M298 371q0 -162 -38.5 -277.5t-93.5 -115.5q-54 0 -93 115.5t-39 277.5q0 164 39 280t93 116q55 0 93.5 -116t38.5 -280zM279 314l-64 121l-3 239l-57 -168l-80 45l46 -172l-54 -176l88 48l36 -228l17 267z" />
    <glyph glyph-name="onehalf" unicode="&#xbd;" 
d="M298 371q0 -162 -38.5 -277.5t-93.5 -115.5q-54 0 -93 115.5t-39 277.5q0 164 39 280t93 116q55 0 93.5 -116t38.5 -280zM279 314l-64 121l-3 239l-57 -168l-80 45l46 -172l-54 -176l88 48l36 -228l17 267z" />
    <glyph glyph-name="threequarters" unicode="&#xbe;" 
d="M298 371q0 -162 -38.5 -277.5t-93.5 -115.5q-54 0 -93 115.5t-39 277.5q0 164 39 280t93 116q55 0 93.5 -116t38.5 -280zM279 314l-64 121l-3 239l-57 -168l-80 45l46 -172l-54 -176l88 48l36 -228l17 267z" />
    <glyph glyph-name="questiondown" unicode="&#xbf;" horiz-adv-x="399" 
d="M351 603h-136v165h136v-165zM379 133q0 -67 -41.5 -106t-129.5 -39t-136.5 57.5t-48.5 203.5q0 64 10 106t29.5 62.5t40.5 28t51 7.5q55 0 81 -37v119h103v-268h-100q-5 49 -11.5 63.5t-26.5 14.5q-16 0 -22 -20.5t-6 -79.5q0 -102 7 -129.5t35 -27.5q18 0 24.5 14.5
t6.5 48.5q0 35 -8 61l130 -2q12 -29 12 -77z" />
    <glyph glyph-name="Agrave" unicode="&#xc0;" horiz-adv-x="423" 
d="M251 796h-83l-105 99h146zM416 0h-164l-16 124h-74l-16 -124h-137l120 769h145zM224 209q-12 92 -18 150q-1 6 -10 176q-3 -122 -8 -178l-15 -148h51z" />
    <glyph glyph-name="Aacute" unicode="&#xc1;" horiz-adv-x="423" 
d="M346 895l-105 -99h-83l42 99h146zM416 0h-164l-16 124h-74l-16 -124h-137l120 769h145zM224 209q-12 92 -18 150q-1 6 -10 176q-3 -122 -8 -178l-15 -148h51z" />
    <glyph glyph-name="Acircumflex" unicode="&#xc2;" horiz-adv-x="423" 
d="M344 796h-93l-48 33l-48 -33h-94l93 99h98zM416 0h-164l-16 124h-74l-16 -124h-137l120 769h145zM224 209q-12 92 -18 150q-1 6 -10 176q-3 -122 -8 -178l-15 -148h51z" />
    <glyph glyph-name="Atilde" unicode="&#xc3;" horiz-adv-x="423" 
d="M333 859q0 -26 -18.5 -44.5t-52.5 -18.5q-35 0 -60 17l-13.5 9t-12.5 9q-17 13 -27 13q-15 0 -20 -9t-5 -30h-38q-9 16 -9 38q0 65 64 65q43 0 71 -20q2 -1 9.5 -7t9.5 -8q17 -14 30 -14q15 0 20 9.5t5 31.5h38q9 -19 9 -41zM416 0h-164l-16 124h-74l-16 -124h-137
l120 769h145zM224 209q-12 92 -18 150q-1 6 -10 176q-3 -122 -8 -178l-15 -148h51z" />
    <glyph glyph-name="Adieresis" unicode="&#xc4;" horiz-adv-x="423" 
d="M344 800h-99v87h99v-87zM162 800h-99v87h99v-87zM416 0h-164l-16 124h-74l-16 -124h-137l120 769h145zM224 209q-12 92 -18 150q-1 6 -10 176q-3 -122 -8 -178l-15 -148h51z" />
    <glyph glyph-name="Aring" unicode="&#xc5;" horiz-adv-x="423" 
d="M416 0h-164l-16 124h-74l-16 -124h-137l111 719q-32 32 -32 79q0 46 33 79t79 33t79 -33t33 -79q0 -43 -29 -75zM252 798q0 22 -15 37t-37 15t-37 -15t-15 -37t15 -37t37 -15t37 15t15 37zM224 209q-12 92 -18 150q-1 6 -10 176q-3 -122 -8 -178l-15 -148h51z" />
    <glyph glyph-name="AE" unicode="&#xc6;" horiz-adv-x="613" 
d="M606 0h-328v124h-113l-33 -124h-137l228 768h360v-120h-151v-197h132v-120h-132v-206h174v-125zM278 219v405q-46 -232 -54 -267l-33 -138h87z" />
    <glyph glyph-name="Ccedilla" unicode="&#xc7;" horiz-adv-x="427" 
d="M406 215q0 -231 -181 -231q-57 0 -90.5 12t-60 49.5t-37 108t-10.5 186.5q0 176 17.5 268.5t58.5 132t120 39.5q93 0 133.5 -49t40.5 -145q0 -74 -8 -120l-144 -4q1 10 4 56t3 68q0 31 -0.5 43.5t-3 25t-7.5 16t-15 3.5q-11 0 -15.5 -6.5t-8.5 -38t-5 -88t-1 -165.5
q0 -105 1 -156t5 -81t9.5 -35.5t18.5 -5.5q20 0 24 25t4 117q0 58 -7 101l148 -2q7 -62 7 -124zM327 -109q0 -40 -31.5 -64t-87.5 -24q-41 0 -76.5 10.5t-52.5 24.5l32 50q47 -28 95 -28q20 0 25.5 7.5t5.5 19.5q0 30 -34 30q-21 0 -38 -7l18 64h40q48 0 76 -23.5t28 -59.5z
" />
    <glyph glyph-name="Egrave" unicode="&#xc8;" horiz-adv-x="379" 
d="M267 796h-83l-105 99h146zM372 0h-332v768h309v-120h-151v-197h132v-120h-132v-206h174v-125z" />
    <glyph glyph-name="Eacute" unicode="&#xc9;" horiz-adv-x="379" 
d="M348 895l-105 -99h-83l42 99h146zM372 0h-332v768h309v-120h-151v-197h132v-120h-132v-206h174v-125z" />
    <glyph glyph-name="Ecircumflex" unicode="&#xca;" horiz-adv-x="379" 
d="M342 796h-93l-48 33l-48 -33h-94l93 99h98zM372 0h-332v768h309v-120h-151v-197h132v-120h-132v-206h174v-125z" />
    <glyph glyph-name="Edieresis" unicode="&#xcb;" horiz-adv-x="379" 
d="M349 800h-104v87h104v-87zM162 800h-104v87h104v-87zM372 0h-332v768h309v-120h-151v-197h132v-120h-132v-206h174v-125z" />
    <glyph glyph-name="Igrave" unicode="&#xcc;" horiz-adv-x="240" 
d="M177 796h-83l-105 99h146zM200 0h-160v768h160v-768z" />
    <glyph glyph-name="Iacute" unicode="&#xcd;" horiz-adv-x="240" 
d="M262 895l-105 -99h-83l42 99h146zM200 0h-160v768h160v-768z" />
    <glyph glyph-name="Icircumflex" unicode="&#xce;" horiz-adv-x="240" 
d="M264 796h-93l-48 33l-48 -33h-94l93 99h98zM200 0h-160v768h160v-768z" />
    <glyph glyph-name="Idieresis" unicode="&#xcf;" horiz-adv-x="240" 
d="M271 796h-104v87h104v-87zM84 796h-104v87h104v-87zM200 0h-160v768h160v-768z" />
    <glyph glyph-name="Eth" unicode="&#xd0;" horiz-adv-x="463" 
d="M436 345q0 -144 -21.5 -219t-62 -100.5t-117.5 -25.5h-193v311h-42v111h42v346h165q64 0 105 -18t70 -65.5t41.5 -129.5t12.5 -210zM272 331q0 114 -2.5 175.5t-10.5 94t-18 40t-31 7.5h-16v-226h43v-111h-43v-191h17q28 0 38.5 9.5t16.5 53.5t6 148z" />
    <glyph glyph-name="Ntilde" unicode="&#xd1;" horiz-adv-x="460" 
d="M361 854q0 -26 -18.5 -44.5t-52.5 -18.5q-35 0 -60 17l-13.5 9t-12.5 9q-17 13 -27 13q-15 0 -20 -9t-5 -30h-38q-9 16 -9 38q0 65 64 65q43 0 71 -20q2 -2 9.5 -8t9.5 -7q18 -14 30 -14q15 0 20 9.5t5 31.5h38q9 -19 9 -41zM420 0h-124q-73 227 -91 284q-15 47 -30 123
q7 -120 7 -211v-196h-142v768h138q66 -225 80 -273q16 -53 25 -103q-5 94 -5 226v150h142v-768z" />
    <glyph glyph-name="Ograve" unicode="&#xd2;" horiz-adv-x="460" 
d="M279 796h-83l-105 99h146zM433 383q0 -98 -8.5 -168.5t-24.5 -115t-42.5 -70.5t-57.5 -35.5t-75 -9.5q-53 0 -86.5 14.5t-60.5 56t-39 122t-12 206.5q0 167 20.5 253t60.5 115t117 29t119.5 -29.5t65.5 -117t23 -250.5zM266 383q0 147 -6 229q-5 67 -32 67
q-15 0 -22.5 -14.5t-8.5 -52.5q-3 -83 -3 -229q0 -162 3 -216q4 -65 33 -65q14 0 20 13.5t10 51.5q6 66 6 216z" />
    <glyph glyph-name="Oacute" unicode="&#xd3;" horiz-adv-x="460" 
d="M372 895l-105 -99h-83l42 99h146zM433 383q0 -98 -8.5 -168.5t-24.5 -115t-42.5 -70.5t-57.5 -35.5t-75 -9.5q-53 0 -86.5 14.5t-60.5 56t-39 122t-12 206.5q0 167 20.5 253t60.5 115t117 29t119.5 -29.5t65.5 -117t23 -250.5zM266 383q0 147 -6 229q-5 67 -32 67
q-15 0 -22.5 -14.5t-8.5 -52.5q-3 -83 -3 -229q0 -162 3 -216q4 -65 33 -65q14 0 20 13.5t10 51.5q6 66 6 216z" />
    <glyph glyph-name="Ocircumflex" unicode="&#xd4;" horiz-adv-x="460" 
d="M366 796h-93l-48 33l-48 -33h-94l93 99h98zM433 383q0 -98 -8.5 -168.5t-24.5 -115t-42.5 -70.5t-57.5 -35.5t-75 -9.5q-53 0 -86.5 14.5t-60.5 56t-39 122t-12 206.5q0 167 20.5 253t60.5 115t117 29t119.5 -29.5t65.5 -117t23 -250.5zM266 383q0 147 -6 229
q-5 67 -32 67q-15 0 -22.5 -14.5t-8.5 -52.5q-3 -83 -3 -229q0 -162 3 -216q4 -65 33 -65q14 0 20 13.5t10 51.5q6 66 6 216z" />
    <glyph glyph-name="Otilde" unicode="&#xd5;" horiz-adv-x="460" 
d="M357 854q0 -26 -18.5 -44.5t-52.5 -18.5q-35 0 -60 17l-13.5 9t-12.5 9q-17 13 -27 13q-15 0 -20 -9t-5 -30h-38q-9 16 -9 38q0 65 64 65q43 0 71 -20q2 -2 9.5 -8t9.5 -7q17 -14 30 -14q15 0 20 9.5t5 31.5h38q9 -19 9 -41zM433 383q0 -98 -8.5 -168.5t-24.5 -115
t-42.5 -70.5t-57.5 -35.5t-75 -9.5q-53 0 -86.5 14.5t-60.5 56t-39 122t-12 206.5q0 167 20.5 253t60.5 115t117 29t119.5 -29.5t65.5 -117t23 -250.5zM266 383q0 147 -6 229q-5 67 -32 67q-15 0 -22.5 -14.5t-8.5 -52.5q-3 -83 -3 -229q0 -162 3 -216q4 -65 33 -65
q14 0 20 13.5t10 51.5q6 66 6 216z" />
    <glyph glyph-name="Odieresis" unicode="&#xd6;" horiz-adv-x="460" 
d="M364 800h-99v87h99v-87zM182 800h-99v87h99v-87zM433 383q0 -98 -8.5 -168.5t-24.5 -115t-42.5 -70.5t-57.5 -35.5t-75 -9.5q-53 0 -86.5 14.5t-60.5 56t-39 122t-12 206.5q0 167 20.5 253t60.5 115t117 29t119.5 -29.5t65.5 -117t23 -250.5zM266 383q0 147 -6 229
q-5 67 -32 67q-15 0 -22.5 -14.5t-8.5 -52.5q-3 -83 -3 -229q0 -162 3 -216q4 -65 33 -65q14 0 20 13.5t10 51.5q6 66 6 216z" />
    <glyph glyph-name="multiply" unicode="&#xd7;" 
d="M298 371q0 -162 -38.5 -277.5t-93.5 -115.5q-54 0 -93 115.5t-39 277.5q0 164 39 280t93 116q55 0 93.5 -116t38.5 -280zM279 314l-64 121l-3 239l-57 -168l-80 45l46 -172l-54 -176l88 48l36 -228l17 267z" />
    <glyph glyph-name="Oslash" unicode="&#xd8;" horiz-adv-x="460" 
d="M435 774l-41 -90q39 -79 39 -301q0 -98 -8.5 -168.5t-24.5 -115t-42.5 -70.5t-57.5 -35.5t-75 -9.5q-89 0 -131 48l-19 -42h-48l40 86q-40 92 -40 307q0 167 20.5 253t60.5 115t117 29q98 0 142 -51l20 45h48zM266 511q0 55 -6 101q-5 39 -12 53t-20 14
q-16 0 -23.5 -14.5t-9.5 -52.5q-5 -92 -5 -229v-38zM268 383v27l-77 -166q0 -35 6 -77q6 -41 12.5 -53t20.5 -12t21 13.5t11 51.5q6 66 6 216z" />
    <glyph glyph-name="Ugrave" unicode="&#xd9;" horiz-adv-x="454" 
d="M290 796h-83l-105 99h146zM417 149q0 -83 -39 -124t-143 -41q-192 0 -192 165v619h158v-605q0 -35 7 -49t27 -14q21 0 27.5 13t6.5 50v605h148v-619z" />
    <glyph glyph-name="Uacute" unicode="&#xda;" horiz-adv-x="454" 
d="M371 895l-105 -99h-83l42 99h146zM417 149q0 -83 -39 -124t-143 -41q-192 0 -192 165v619h158v-605q0 -35 7 -49t27 -14q21 0 27.5 13t6.5 50v605h148v-619z" />
    <glyph glyph-name="Ucircumflex" unicode="&#xdb;" horiz-adv-x="454" 
d="M373 796h-93l-48 33l-48 -33h-94l93 99h98zM417 149q0 -83 -39 -124t-143 -41q-192 0 -192 165v619h158v-605q0 -35 7 -49t27 -14q21 0 27.5 13t6.5 50v605h148v-619z" />
    <glyph glyph-name="Udieresis" unicode="&#xdc;" horiz-adv-x="454" 
d="M373 800h-99v87h99v-87zM191 800h-99v87h99v-87zM417 149q0 -83 -39 -124t-143 -41q-192 0 -192 165v619h158v-605q0 -35 7 -49t27 -14q21 0 27.5 13t6.5 50v605h148v-619z" />
    <glyph glyph-name="Yacute" unicode="&#xdd;" horiz-adv-x="434" 
d="M432 768l-137 -470v-298h-158v298l-144 470h163l69 -264l63 264h144zM337 920l-97 -124h-74l42 124h129z" />
    <glyph glyph-name="Thorn" unicode="&#xde;" horiz-adv-x="450" 
d="M433 400q0 -133 -44.5 -190t-130.5 -57h-60v-153h-158v768h158v-136h47q96 0 142 -55.5t46 -176.5zM271 398q0 71 -15 93.5t-42 22.5h-16v-243h20q33 0 43 25.5t10 101.5z" />
    <glyph glyph-name="germandbls" unicode="&#xdf;" horiz-adv-x="407" 
d="M388 217q0 -131 -35 -174t-131 -43h-28v87h5q18 0 25 8.5t10 38.5t3 102q0 76 -8.5 98.5t-34.5 22.5v101q26 0 32 19t6 105q0 66 -5.5 84.5t-25.5 18.5t-27 -15t-7 -53v-617h-135v589q0 102 39.5 146.5t127.5 44.5q89 0 132 -48t43 -164q0 -82 -22 -114.5t-63 -42.5
q49 -10 74 -52.5t25 -141.5z" />
    <glyph glyph-name="agrave" unicode="&#xe0;" horiz-adv-x="383" 
d="M375 94l-6 -95q-21 -9 -67 -9q-72 0 -79 39q-14 -23 -29 -31t-42 -8q-26 0 -46.5 6t-42.5 21.5t-34 50.5t-12 86q0 77 29.5 111.5t89.5 50.5l33 9q23 6 29 22.5t6 69.5q0 28 -5.5 39t-20.5 11q-24 0 -24 -39q0 -24 5 -51l-116 -10l-5 14q-4 14 -6 26t-2 28q0 121 149 121
q80 0 117 -28.5t37 -100.5v-308q0 -29 20 -29q13 0 22 4zM204 128v119q-26 -9 -35 -28.5t-9 -72.5q0 -62 22 -62q12 0 17 9.5t5 34.5zM229 584h-74l-97 124h129z" />
    <glyph glyph-name="aacute" unicode="&#xe1;" horiz-adv-x="383" 
d="M375 94l-6 -95q-21 -9 -67 -9q-72 0 -79 39q-14 -23 -29 -31t-42 -8q-26 0 -46.5 6t-42.5 21.5t-34 50.5t-12 86q0 77 29.5 111.5t89.5 50.5l33 9q23 6 29 22.5t6 69.5q0 28 -5.5 39t-20.5 11q-24 0 -24 -39q0 -24 5 -51l-116 -10l-5 14q-4 14 -6 26t-2 28q0 121 149 121
q80 0 117 -28.5t37 -100.5v-308q0 -29 20 -29q13 0 22 4zM204 128v119q-26 -9 -35 -28.5t-9 -72.5q0 -62 22 -62q12 0 17 9.5t5 34.5zM307 708l-97 -124h-74l42 124h129z" />
    <glyph glyph-name="acircumflex" unicode="&#xe2;" horiz-adv-x="383" 
d="M328 584h-93l-48 52l-48 -52h-94l93 118h98zM375 94l-6 -95q-21 -9 -67 -9q-72 0 -79 39q-14 -23 -29 -31t-42 -8q-26 0 -46.5 6t-42.5 21.5t-34 50.5t-12 86q0 77 29.5 111.5t89.5 50.5l33 9q23 6 29 22.5t6 69.5q0 28 -5.5 39t-20.5 11q-24 0 -24 -39q0 -24 5 -51
l-116 -10l-5 14q-4 14 -6 26t-2 28q0 121 149 121q80 0 117 -28.5t37 -100.5v-308q0 -29 20 -29q13 0 22 4zM204 128v119q-26 -9 -35 -28.5t-9 -72.5q0 -62 22 -62q12 0 17 9.5t5 34.5z" />
    <glyph glyph-name="atilde" unicode="&#xe3;" horiz-adv-x="383" 
d="M320 647q0 -30 -18.5 -52t-52.5 -22q-35 0 -60 20q-2 1 -9.5 8t-9.5 8q-23 21 -34 21q-15 0 -20 -10.5t-5 -35.5h-38q-9 19 -9 45q0 76 64 76q45 0 71 -24q4 -3 9.5 -8.5t9.5 -8.5q18 -16 30 -16q15 0 20 11t5 37h38q9 -23 9 -49zM375 94l-6 -95q-21 -9 -67 -9
q-72 0 -79 39q-14 -23 -29 -31t-42 -8q-26 0 -46.5 6t-42.5 21.5t-34 50.5t-12 86q0 77 29.5 111.5t89.5 50.5l33 9q23 6 29 22.5t6 69.5q0 28 -5.5 39t-20.5 11q-24 0 -24 -39q0 -24 5 -51l-116 -10l-5 14q-4 14 -6 26t-2 28q0 121 149 121q80 0 117 -28.5t37 -100.5v-308
q0 -29 20 -29q13 0 22 4zM204 128v119q-26 -9 -35 -28.5t-9 -72.5q0 -62 22 -62q12 0 17 9.5t5 34.5z" />
    <glyph glyph-name="adieresis" unicode="&#xe4;" horiz-adv-x="383" 
d="M330 584h-99v112h99v-112zM148 584h-99v112h99v-112zM375 94l-6 -95q-21 -9 -67 -9q-72 0 -79 39q-14 -23 -29 -31t-42 -8q-26 0 -46.5 6t-42.5 21.5t-34 50.5t-12 86q0 77 29.5 111.5t89.5 50.5l33 9q23 6 29 22.5t6 69.5q0 28 -5.5 39t-20.5 11q-24 0 -24 -39
q0 -24 5 -51l-116 -10l-5 14q-4 14 -6 26t-2 28q0 121 149 121q80 0 117 -28.5t37 -100.5v-308q0 -29 20 -29q13 0 22 4zM204 128v119q-26 -9 -35 -28.5t-9 -72.5q0 -62 22 -62q12 0 17 9.5t5 34.5z" />
    <glyph glyph-name="aring" unicode="&#xe5;" horiz-adv-x="383" 
d="M296 688q0 -46 -33 -79t-79 -33t-79 33t-33 79t33 79t79 33t79 -33t33 -79zM375 94l-6 -95q-21 -9 -67 -9q-72 0 -79 39q-14 -23 -29 -31t-42 -8q-26 0 -46.5 6t-42.5 21.5t-34 50.5t-12 86q0 77 29.5 111.5t89.5 50.5l33 9q23 6 29 22.5t6 69.5q0 28 -5.5 39t-20.5 11
q-24 0 -24 -39q0 -24 5 -51l-116 -10l-5 14q-4 14 -6 26t-2 28q0 121 149 121q80 0 117 -28.5t37 -100.5v-308q0 -29 20 -29q13 0 22 4zM204 128v119q-26 -9 -35 -28.5t-9 -72.5q0 -62 22 -62q12 0 17 9.5t5 34.5zM242 688q0 24 -17 41t-41 17t-41 -17t-17 -41t17 -41
t41 -17t41 17t17 41z" />
    <glyph glyph-name="ae" unicode="&#xe6;" horiz-adv-x="528" 
d="M509 330q0 -29 -8 -81h-166v-50q1 -57 4.5 -83.5t8.5 -34t17 -7.5q13 0 17 13t4 64q0 19 -5 59l120 -2q6 -26 6 -70q0 -78 -34.5 -113t-106.5 -35q-95 0 -124 41q-25 -41 -88 -41q-26 0 -46.5 6t-42.5 21.5t-34 50.5t-12 86q0 77 29.5 111.5t89.5 50.5l33 9q24 6 32 23.5
t8 68.5q0 50 -31 50q-24 0 -24 -39q0 -23 5 -51l-116 -10q-13 36 -13 68q0 121 149 121q33 0 58.5 -5t34.5 -11l8 -5q28 21 76 21q82 0 116.5 -52.5t34.5 -173.5zM381 399q0 52 -4 70t-19 18q-14 0 -19.5 -20t-5.5 -83v-57h45q3 39 3 72zM206 128v119q-26 -9 -35 -28.5
t-9 -72.5q0 -62 22 -62q12 0 17 9.5t5 34.5z" />
    <glyph glyph-name="ccedilla" unicode="&#xe7;" horiz-adv-x="356" 
d="M340 158q0 -94 -34.5 -131t-119.5 -37q-97 0 -132 59.5t-35 231.5q0 88 11.5 144.5t35.5 84t50.5 37t66.5 9.5q75 0 110 -37t35 -123q0 -30 -6 -62l-126 -2q6 30 6 64q0 48 -4 62.5t-15 14.5q-8 0 -12 -5t-7 -27t-3.5 -60t-0.5 -111q1 -162 7 -180q4 -13 21 -13
q21 0 21 91q0 22 -4 80l125 -3q10 -48 10 -87zM303 -103q0 -40 -31.5 -64t-87.5 -24q-41 0 -76.5 10.5t-52.5 24.5l32 50q47 -28 95 -28q20 0 25.5 7.5t5.5 19.5q0 30 -34 30q-21 0 -38 -7l18 64h40q48 0 76 -23.5t28 -59.5z" />
    <glyph glyph-name="egrave" unicode="&#xe8;" horiz-adv-x="352" 
d="M332 330q0 -29 -8 -81h-166v-50q1 -57 4.5 -83.5t8.5 -34t17 -7.5q13 0 17 13t4 64q0 19 -5 59l120 -2q6 -26 6 -70q0 -78 -34.5 -113t-106.5 -35q-48 0 -77.5 9.5t-52 37t-32 79t-9.5 133.5q0 119 18 187t52.5 94t92.5 26q82 0 116.5 -52.5t34.5 -173.5zM204 399
q0 52 -4 70t-19 18q-14 0 -19.5 -20t-5.5 -83v-57h45q3 39 3 72zM230 584h-74l-97 124h129z" />
    <glyph glyph-name="eacute" unicode="&#xe9;" horiz-adv-x="352" 
d="M332 330q0 -29 -8 -81h-166v-50q1 -57 4.5 -83.5t8.5 -34t17 -7.5q13 0 17 13t4 64q0 19 -5 59l120 -2q6 -26 6 -70q0 -78 -34.5 -113t-106.5 -35q-48 0 -77.5 9.5t-52 37t-32 79t-9.5 133.5q0 119 18 187t52.5 94t92.5 26q82 0 116.5 -52.5t34.5 -173.5zM204 399
q0 52 -4 70t-19 18q-14 0 -19.5 -20t-5.5 -83v-57h45q3 39 3 72zM317 708l-97 -124h-74l42 124h129z" />
    <glyph glyph-name="ecircumflex" unicode="&#xea;" horiz-adv-x="352" 
d="M321 584h-93l-48 52l-48 -52h-94l93 118h98zM332 330q0 -29 -8 -81h-166v-50q1 -57 4.5 -83.5t8.5 -34t17 -7.5q13 0 17 13t4 64q0 19 -5 59l120 -2q6 -26 6 -70q0 -78 -34.5 -113t-106.5 -35q-48 0 -77.5 9.5t-52 37t-32 79t-9.5 133.5q0 119 18 187t52.5 94t92.5 26
q82 0 116.5 -52.5t34.5 -173.5zM204 399q0 52 -4 70t-19 18q-14 0 -19.5 -20t-5.5 -83v-57h45q3 39 3 72z" />
    <glyph glyph-name="edieresis" unicode="&#xeb;" horiz-adv-x="352" 
d="M315 584h-99v112h99v-112zM133 584h-99v112h99v-112zM332 330q0 -29 -8 -81h-166v-50q1 -57 4.5 -83.5t8.5 -34t17 -7.5q13 0 17 13t4 64q0 19 -5 59l120 -2q6 -26 6 -70q0 -78 -34.5 -113t-106.5 -35q-48 0 -77.5 9.5t-52 37t-32 79t-9.5 133.5q0 119 18 187t52.5 94
t92.5 26q82 0 116.5 -52.5t34.5 -173.5zM204 399q0 52 -4 70t-19 18q-14 0 -19.5 -20t-5.5 -83v-57h45q3 39 3 72z" />
    <glyph glyph-name="igrave" unicode="&#xec;" horiz-adv-x="205" 
d="M173 0h-141v547h141v-547zM154 584h-74l-97 124h129z" />
    <glyph glyph-name="iacute" unicode="&#xed;" horiz-adv-x="205" 
d="M173 0h-141v547h141v-547zM218 708l-97 -124h-74l42 124h129z" />
    <glyph glyph-name="icircumflex" unicode="&#xee;" horiz-adv-x="205" 
d="M243 584h-93l-48 52l-48 -52h-94l93 118h98zM173 0h-141v547h141v-547z" />
    <glyph glyph-name="idieresis" unicode="&#xef;" horiz-adv-x="205" 
d="M234 584h-99v112h99v-112zM71 584h-99v112h99v-112zM173 0h-141v547h141v-547z" />
    <glyph glyph-name="eth" unicode="&#xf0;" horiz-adv-x="372" 
d="M353 308q0 -85 -5.5 -140t-16 -91.5t-31.5 -55t-46.5 -25t-67.5 -6.5q-92 0 -129.5 58.5t-37.5 217.5q0 143 41.5 213t117.5 70q11 0 37 -7q0 48 -9 79q-25 -6 -25 -27q0 -7 4 -14l-30 -18q-11 5 -22 18.5t-11 31.5q0 38 55 62q-12 13 -29 13q-41 0 -73 -32l-28 89
q14 15 46 25.5t62 10.5q81 0 130 -89q9 10 9 22t-6 18l31 18q33 -22 33 -52q0 -39 -41 -64q42 -122 42 -325zM212 266q0 158 -7 195q-8 6 -19 6q-8 0 -11.5 -4.5t-7 -24.5t-4.5 -60.5t-1 -111.5q0 -138 3.5 -165.5t20.5 -27.5q10 0 15 9.5t8 52t3 131.5z" />
    <glyph glyph-name="ntilde" unicode="&#xf1;" horiz-adv-x="385" 
d="M325 647q0 -30 -18.5 -52t-52.5 -22q-35 0 -60 20q-3 3 -11 9.5t-11 9.5q-20 18 -31 18q-15 0 -20 -10.5t-5 -35.5h-38q-9 19 -9 45q0 76 64 76q44 0 71 -24q2 -2 9 -8t10 -9q18 -16 30 -16q15 0 20 11t5 37h38q9 -23 9 -49zM356 0h-137v424q0 27 -22 27q-27 0 -27 -45
v-406h-138v547h134v-39q31 48 85 48q55 0 80 -28t25 -73v-455z" />
    <glyph glyph-name="ograve" unicode="&#xf2;" horiz-adv-x="372" 
d="M353 266q0 -163 -35 -219.5t-132 -56.5q-92 0 -129.5 58.5t-37.5 217.5q0 162 35.5 226t131.5 64q93 0 130 -66.5t37 -223.5zM210 266q0 73 -1 111.5t-4 59.5t-7 25.5t-12 4.5t-11.5 -4.5t-7 -24.5t-4.5 -60.5t-1 -111.5q0 -138 3.5 -165.5t20.5 -27.5q8 0 11.5 4.5
t7 23.5t4.5 57.5t1 107.5zM237 584h-74l-97 124h129z" />
    <glyph glyph-name="oacute" unicode="&#xf3;" horiz-adv-x="372" 
d="M353 266q0 -163 -35 -219.5t-132 -56.5q-92 0 -129.5 58.5t-37.5 217.5q0 162 35.5 226t131.5 64q93 0 130 -66.5t37 -223.5zM210 266q0 73 -1 111.5t-4 59.5t-7 25.5t-12 4.5t-11.5 -4.5t-7 -24.5t-4.5 -60.5t-1 -111.5q0 -138 3.5 -165.5t20.5 -27.5q8 0 11.5 4.5
t7 23.5t4.5 57.5t1 107.5zM297 708l-97 -124h-74l42 124h129z" />
    <glyph glyph-name="ocircumflex" unicode="&#xf4;" horiz-adv-x="372" 
d="M327 584h-93l-48 52l-48 -52h-94l93 118h98zM353 266q0 -163 -35 -219.5t-132 -56.5q-92 0 -129.5 58.5t-37.5 217.5q0 162 35.5 226t131.5 64q93 0 130 -66.5t37 -223.5zM210 266q0 73 -1 111.5t-4 59.5t-7 25.5t-12 4.5t-11.5 -4.5t-7 -24.5t-4.5 -60.5t-1 -111.5
q0 -138 3.5 -165.5t20.5 -27.5q8 0 11.5 4.5t7 23.5t4.5 57.5t1 107.5z" />
    <glyph glyph-name="otilde" unicode="&#xf5;" horiz-adv-x="372" 
d="M316 647q0 -30 -18.5 -52t-52.5 -22q-35 0 -60 20q-3 3 -11 9.5t-11 9.5q-20 18 -31 18q-15 0 -20 -10.5t-5 -35.5h-38q-9 19 -9 45q0 76 64 76q44 0 71 -24q2 -2 9 -8t10 -9q18 -16 30 -16q15 0 20 11t5 37h38q9 -23 9 -49zM353 266q0 -163 -35 -219.5t-132 -56.5
q-92 0 -129.5 58.5t-37.5 217.5q0 162 35.5 226t131.5 64q93 0 130 -66.5t37 -223.5zM210 266q0 73 -1 111.5t-4 59.5t-7 25.5t-12 4.5t-11.5 -4.5t-7 -24.5t-4.5 -60.5t-1 -111.5q0 -138 3.5 -165.5t20.5 -27.5q8 0 11.5 4.5t7 23.5t4.5 57.5t1 107.5z" />
    <glyph glyph-name="odieresis" unicode="&#xf6;" horiz-adv-x="372" 
d="M325 584h-99v112h99v-112zM143 584h-99v112h99v-112zM353 266q0 -163 -35 -219.5t-132 -56.5q-92 0 -129.5 58.5t-37.5 217.5q0 162 35.5 226t131.5 64q93 0 130 -66.5t37 -223.5zM210 266q0 73 -1 111.5t-4 59.5t-7 25.5t-12 4.5t-11.5 -4.5t-7 -24.5t-4.5 -60.5
t-1 -111.5q0 -138 3.5 -165.5t20.5 -27.5q8 0 11.5 4.5t7 23.5t4.5 57.5t1 107.5z" />
    <glyph glyph-name="divide" unicode="&#xf7;" 
d="M298 371q0 -162 -38.5 -277.5t-93.5 -115.5q-54 0 -93 115.5t-39 277.5q0 164 39 280t93 116q55 0 93.5 -116t38.5 -280zM279 314l-64 121l-3 239l-57 -168l-80 45l46 -172l-54 -176l88 48l36 -228l17 267z" />
    <glyph glyph-name="oslash" unicode="&#xf8;" horiz-adv-x="372" 
d="M353 266q0 -163 -35 -219.5t-132 -56.5q-75 0 -111 35l-18 -35h-38l33 65q-33 60 -33 211q0 162 35.5 226t131.5 64q71 0 109 -39l20 39h38l-36 -69q36 -64 36 -221zM213 358q0 50 -4 75t-8.5 29.5t-14.5 4.5t-15 -11.5t-8.5 -58.5t-3.5 -142zM213 266v26l-54 -103
q0 -54 3 -79.5t8 -31t16 -5.5t15.5 9t8 52t3.5 132z" />
    <glyph glyph-name="ugrave" unicode="&#xf9;" horiz-adv-x="386" 
d="M358 2l-132 -6l-5 43q-31 -48 -85 -48q-55 0 -80 28t-25 73v455h137v-422q0 -27 22 -27q27 0 27 45v404h138v-520q0 -13 3 -25zM258 584h-74l-97 124h129z" />
    <glyph glyph-name="uacute" unicode="&#xfa;" horiz-adv-x="386" 
d="M358 2l-132 -6l-5 43q-31 -48 -85 -48q-55 0 -80 28t-25 73v455h137v-422q0 -27 22 -27q27 0 27 45v404h138v-520q0 -13 3 -25zM309 708l-97 -124h-74l42 124h129z" />
    <glyph glyph-name="ucircumflex" unicode="&#xfb;" horiz-adv-x="386" 
d="M335 584h-93l-48 52l-48 -52h-94l93 118h98zM358 2l-132 -6l-5 43q-31 -48 -85 -48q-55 0 -80 28t-25 73v455h137v-422q0 -27 22 -27q27 0 27 45v404h138v-520q0 -13 3 -25z" />
    <glyph glyph-name="udieresis" unicode="&#xfc;" horiz-adv-x="386" 
d="M333 584h-99v112h99v-112zM151 584h-99v112h99v-112zM358 2l-132 -6l-5 43q-31 -48 -85 -48q-55 0 -80 28t-25 73v455h137v-422q0 -27 22 -27q27 0 27 45v404h138v-520q0 -13 3 -25z" />
    <glyph glyph-name="yacute" unicode="&#xfd;" horiz-adv-x="379" 
d="M376 547l-108 -547q-20 -100 -53 -138t-100 -38q-136 0 -136 102q0 15 2 41l114 9q-4 -16 -4 -29q0 -22 27 -22q16 0 22 14t13 51l-161 557h140l75 -324l43 324h126zM305 708l-97 -124h-74l42 124h129z" />
    <glyph glyph-name="thorn" unicode="&#xfe;" horiz-adv-x="384" 
d="M361 271q0 -116 -16.5 -178.5t-44.5 -82.5t-77 -20q-46 0 -57 43v-209h-134v944h134v-256q24 44 68 44q27 0 48 -12t39.5 -41t29 -88t10.5 -144zM218 272q0 67 -1 102.5t-4.5 55.5t-7.5 24.5t-13 4.5q-8 0 -12.5 -5.5t-8 -25t-5 -56.5t-1.5 -101q0 -74 0.5 -109.5
t4 -57.5t8 -26t14.5 -4q18 0 22 33t4 165z" />
    <glyph glyph-name="ydieresis" unicode="&#xff;" horiz-adv-x="379" 
d="M376 547l-108 -547q-20 -100 -53 -138t-100 -38q-136 0 -136 102q0 15 2 41l114 9q-4 -16 -4 -29q0 -22 27 -22q16 0 22 14t13 51l-161 557h140l75 -324l43 324h126zM332 590h-99v112h99v-112zM150 590h-99v112h99v-112z" />
    <glyph glyph-name="dotlessi" unicode="&#x131;" horiz-adv-x="205" 
d="M173 0h-141v547h141v-547z" />
    <glyph glyph-name="Lslash" unicode="&#x141;" horiz-adv-x="389" 
d="M378 0h-333v216l-19 -17l-65 77l84 74v418h158v-277l105 94l65 -78l-170 -151v-231h175v-125z" />
    <glyph glyph-name="lslash" unicode="&#x142;" horiz-adv-x="246" 
d="M291 427l-98 -85v-342h-140v222l-27 -23l-65 77l92 79v413h140v-292l33 29z" />
    <glyph glyph-name="OE" unicode="&#x152;" horiz-adv-x="614" 
d="M599 0h-247q-8 0 -60 -6.5t-67 -6.5q-42 0 -70.5 8t-54.5 32.5t-41 68t-23.5 114.5t-8.5 173q0 127 10 203.5t35.5 118.5t60 55.5t92.5 13.5q5 0 40 -3t57 -3h254v-120h-151v-197h132v-120h-132v-206h174v-125zM274 383q0 147 -6 229q-5 67 -36 67q-32 0 -35 -67
q-3 -83 -3 -229q0 -181 3 -216q6 -65 37 -65q14 0 22 14t12 51q6 64 6 216z" />
    <glyph glyph-name="oe" unicode="&#x153;" horiz-adv-x="539" 
d="M520 330q0 -29 -8 -81h-166v-50q1 -57 4.5 -83.5t8.5 -34t17 -7.5q13 0 17 13t4 64q0 19 -5 59l120 -2q6 -26 6 -70q0 -78 -34.5 -113t-106.5 -35q-36 0 -54.5 5.5t-42.5 21.5q-19 -15 -37.5 -21t-56.5 -6q-92 0 -129.5 58.5t-37.5 217.5q0 162 35.5 226t131.5 64
q25 0 42 -4.5t25.5 -10t25.5 -18.5q35 33 90 33q82 0 116.5 -52.5t34.5 -173.5zM392 399q0 52 -4 70t-19 18q-14 0 -19.5 -20t-5.5 -83v-57h45q3 39 3 72zM210 266q0 73 -1 111.5t-4 59.5t-7 25.5t-12 4.5t-11.5 -4.5t-7 -24.5t-4.5 -60.5t-1 -111.5q0 -138 3.5 -165.5
t20.5 -27.5q8 0 11.5 4.5t7 23.5t4.5 57.5t1 107.5z" />
    <glyph glyph-name="Scaron" unicode="&#x160;" horiz-adv-x="443" 
d="M426 201q0 -108 -47.5 -162.5t-149.5 -54.5q-92 0 -139.5 45.5t-47.5 153.5q0 29 12 96l141 5q-7 -52 -7 -95q0 -60 10 -78.5t32 -18.5q20 0 27.5 15.5t7.5 70.5q0 77 -18.5 108t-72.5 59l-38 20q-107 56 -107 216q0 98 47 148.5t137 50.5q89 0 134.5 -43.5t45.5 -128.5
q0 -27 -9 -72l-137 -12q6 40 6 76q0 48 -8 65t-29 17q-34 0 -34 -71q0 -41 10 -66.5t23 -36t39 -23.5l46 -24q69 -36 97.5 -96t28.5 -164zM356 918l-92 -118h-98l-93 118h94l48 -52l48 52h93z" />
    <glyph glyph-name="scaron" unicode="&#x161;" horiz-adv-x="361" 
d="M343 155q0 -165 -169 -165q-72 0 -112.5 33.5t-40.5 98.5q0 25 6 58l121 8q-7 -35 -7 -53q0 -31 5.5 -44.5t22.5 -13.5t23 13t6 43q0 41 -15.5 62t-58.5 42l-35 17q-38 18 -54.5 53t-16.5 100q0 72 44.5 110.5t111.5 38.5q151 0 151 -131q0 -28 -2 -38l-122 -8q3 21 3 43
q0 27 -5.5 38t-19.5 11q-27 0 -27 -42q0 -32 7.5 -46.5t39.5 -27.5l39 -17q105 -45 105 -183zM316 702l-92 -118h-98l-93 118h94l48 -52l48 52h93z" />
    <glyph glyph-name="Ydieresis" unicode="&#x178;" horiz-adv-x="434" 
d="M371 800h-104v87h104v-87zM184 800h-104v87h104v-87zM432 768l-137 -470v-298h-158v298l-144 470h163l69 -264l63 264h144z" />
    <glyph glyph-name="Zcaron" unicode="&#x17d;" horiz-adv-x="408" 
d="M384 0h-371v92l203 556h-176v120h344v-94l-193 -549h193v-125zM360 914l-92 -118h-98l-93 118h94l48 -52l48 52h93z" />
    <glyph glyph-name="zcaron" unicode="&#x17e;" horiz-adv-x="316" 
d="M305 457l-152 -368h149v-89h-290v75l158 388h-140v84h275v-90zM318 702l-92 -118h-98l-93 118h94l48 -52l48 52h93z" />
    <glyph glyph-name="florin" unicode="&#x192;" horiz-adv-x="357" 
d="M360 666q0 -28 -11 -67l-100 -12q8 34 8 52q0 28 -4 39.5t-18 11.5q-12 0 -16 -8t-4 -27v-219h68v-78h-68v-425q0 -51 -38.5 -82.5t-107.5 -31.5q-80 0 -115.5 27t-35.5 83q0 29 7 53l108 1q-5 -17 -5 -46q0 -27 22 -27q16 0 20.5 12t4.5 35v401h-59v78h59v229
q0 50 42.5 80.5t108.5 30.5q61 0 97.5 -28.5t36.5 -81.5z" />
    <glyph glyph-name="circumflex" unicode="&#x2c6;" horiz-adv-x="381" 
d="M341 584h-96l-58 46l-57 -46h-97l93 104h123z" />
    <glyph glyph-name="caron" unicode="&#x2c7;" horiz-adv-x="381" 
d="M327 702l-92 -118h-98l-93 118h94l48 -52l48 52h93z" />
    <glyph glyph-name="breve" unicode="&#x2d8;" horiz-adv-x="381" 
d="M328 691q0 -101 -138 -101q-136 0 -136 101h79q0 -15 17 -27t40 -12q24 0 41.5 12t17.5 27h79z" />
    <glyph glyph-name="dotaccent" unicode="&#x2d9;" horiz-adv-x="381" 
d="M256 590h-116v112h116v-112z" />
    <glyph glyph-name="ring" unicode="&#x2da;" horiz-adv-x="381" 
d="M304 688q0 -46 -33 -79t-79 -33t-79 33t-33 79t33 79t79 33t79 -33t33 -79zM250 688q0 24 -17 41t-41 17t-41 -17t-17 -41t17 -41t41 -17t41 17t17 41z" />
    <glyph glyph-name="ogonek" unicode="&#x2db;" horiz-adv-x="381" 
d="M282 -90q0 -4 -4 -14q-21 -50 -90 -50q-35 0 -57 18.5t-22 45.5q0 26 24 52t57 38h49q-67 -41 -67 -75q0 -27 24 -27q16 0 27 15q8 9 11 23z" />
    <glyph glyph-name="tilde" unicode="&#x2dc;" horiz-adv-x="381" 
d="M315 640q0 -22 -19 -39t-58 -17q-31 0 -55 15q-2 2 -9 6.5t-10 5.5q-22 12 -35 12q-23 0 -23 -18v-10h-36q-9 13 -9 32q0 23 15.5 39.5t51.5 16.5q41 0 69 -17q4 -3 19 -12q17 -10 31 -10q23 0 23 24v7h36q9 -16 9 -35z" />
    <glyph glyph-name="hungarumlaut" unicode="&#x2dd;" horiz-adv-x="381" 
d="M363 708l-107 -124h-65l61 124h111zM226 708l-91 -124h-62l42 124h111z" />
    <glyph glyph-name="Delta" unicode="&#x394;" 
d="M298 371q0 -162 -38.5 -277.5t-93.5 -115.5q-54 0 -93 115.5t-39 277.5q0 164 39 280t93 116q55 0 93.5 -116t38.5 -280zM279 314l-64 121l-3 239l-57 -168l-80 45l46 -172l-54 -176l88 48l36 -228l17 267z" />
    <glyph glyph-name="Omega" unicode="&#x3a9;" 
d="M298 371q0 -162 -38.5 -277.5t-93.5 -115.5q-54 0 -93 115.5t-39 277.5q0 164 39 280t93 116q55 0 93.5 -116t38.5 -280zM279 314l-64 121l-3 239l-57 -168l-80 45l46 -172l-54 -176l88 48l36 -228l17 267z" />
    <glyph glyph-name="pi" unicode="&#x3c0;" horiz-adv-x="592" 
d="M567 497q0 -119 -77.5 -196.5t-196.5 -77.5q-120 0 -197 76.5t-77 197.5q0 119 79.5 196t194.5 77q120 0 197 -76.5t77 -196.5zM536 497q0 101 -71 172.5t-172 71.5t-169.5 -71t-68.5 -173t68.5 -173.5t169.5 -71.5t172 72t71 173zM418 578q0 -63 -28.5 -92t-72.5 -29
q-24 0 -34 1v-156h-81v402h123q41 0 67 -31.5t26 -94.5zM333 578q0 68 -32 68h-18v-127h19q31 0 31 59z" />
    <glyph glyph-name="endash" unicode="&#x2013;" horiz-adv-x="550" 
d="M550 291h-550v99h550v-99z" />
    <glyph glyph-name="emdash" unicode="&#x2014;" horiz-adv-x="780" 
d="M780 291h-780v99h780v-99z" />
    <glyph glyph-name="quoteleft" unicode="&#x2018;" horiz-adv-x="238" 
d="M189 475h-136v165q0 53 14.5 83t50.5 58q18 14 32 20l30 -45q-22 -13 -37 -32q-22 -25 -20 -84h66v-165z" />
    <glyph glyph-name="quoteright" unicode="&#x2019;" horiz-adv-x="238" 
d="M184 603q0 -53 -14.5 -83t-49.5 -58q-17 -14 -32 -20l-30 45q20 10 37 32q24 31 18 84h-64v165h135v-165z" />
    <glyph glyph-name="quotesinglbase" unicode="&#x201a;" horiz-adv-x="238" 
d="M184 0q0 -53 -14.5 -83t-49.5 -58q-15 -12 -32 -20l-30 45q21 12 37 32q24 31 18 84h-64v165h135v-165z" />
    <glyph glyph-name="quotedblleft" unicode="&#x201c;" horiz-adv-x="425" 
d="M376 475h-136v165q0 52 14.5 82t49.5 59q20 15 33 20l29 -45q-22 -13 -36 -32q-24 -29 -19 -84h65v-165zM187 475h-136v165q0 53 14.5 83t50.5 58q18 14 32 20l30 -45q-24 -15 -37 -32q-23 -27 -20 -84h66v-165z" />
    <glyph glyph-name="quotedblright" unicode="&#x201d;" horiz-adv-x="425" 
d="M374 603q0 -53 -14.5 -83t-50.5 -58q-19 -14 -32 -20l-30 45q21 12 37 32q23 27 20 84h-66v165h136v-165zM185 603q0 -52 -14.5 -82t-49.5 -59q-21 -16 -33 -20l-29 45q22 12 36 32q24 29 19 84h-65v165h136v-165z" />
    <glyph glyph-name="quotedblbase" unicode="&#x201e;" horiz-adv-x="425" 
d="M378 0q0 -52 -14.5 -82t-49.5 -59q-23 -16 -33 -20l-30 45q21 12 37 32q23 27 20 84h-66v165h136v-165zM184 0q0 -53 -14.5 -83t-49.5 -58q-15 -12 -32 -20l-30 45q21 12 37 32q24 31 18 84h-64v165h135v-165z" />
    <glyph glyph-name="dagger" unicode="&#x2020;" horiz-adv-x="407" 
d="M384 517h-109v-586h-144v586h-108v100h108v157h144v-157h109v-100z" />
    <glyph glyph-name="daggerdbl" unicode="&#x2021;" horiz-adv-x="407" 
d="M384 150h-109v-209h-144v209h-108v100h108v280h-108v100h108v144h144v-144h109v-100h-109v-280h109v-100z" />
    <glyph glyph-name="bullet" unicode="&#x2022;" horiz-adv-x="639" 
d="M562 379q0 -101 -71 -171.5t-171 -70.5t-171 70.5t-71 171.5t71 171.5t171 70.5t171 -70.5t71 -171.5z" />
    <glyph glyph-name="ellipsis" unicode="&#x2026;" horiz-adv-x="795" 
d="M741 0h-157v165h157v-165zM476 0h-157v165h157v-165zM211 0h-157v165h157v-165z" />
    <glyph glyph-name="perthousand" unicode="&#x2030;" horiz-adv-x="1036" 
d="M1018 194q0 -118 -36 -160.5t-113 -42.5q-74 0 -111.5 43t-37.5 160q0 128 40 178.5t109 50.5q77 0 113 -49t36 -180zM680 194q0 -118 -36 -160.5t-113 -42.5q-74 0 -111.5 43t-37.5 160q0 128 40 178.5t109 50.5q77 0 113 -49t36 -180zM656 760l-534 -760h-76l534 760
h76zM315 545q0 -118 -36 -160.5t-113 -42.5q-75 0 -112.5 43t-37.5 160q0 128 40 178.5t110 50.5q76 0 112.5 -49t36.5 -180zM893 206q0 50 -1 77t-4 42.5t-7 19.5t-13 4t-13 -3.5t-7 -19.5t-3.5 -42t-0.5 -78q0 -51 1 -77.5t4 -41.5t7 -18.5t12 -3.5q18 0 21.5 21t3.5 120z
M555 206q0 50 -1 77t-4 42.5t-7 19.5t-13 4t-13 -3.5t-7 -19.5t-3.5 -42t-0.5 -78q0 -51 1 -77.5t4 -41.5t7 -18.5t12 -3.5q18 0 21.5 21t3.5 120zM190 557q0 100 -3.5 121.5t-22.5 21.5q-17 0 -20 -21t-3 -121q0 -94 4 -118t19 -24q18 0 22 21.5t4 119.5z" />
    <glyph glyph-name="guilsinglleft" unicode="&#x2039;" horiz-adv-x="274" 
d="M231 35l-184 166v129l184 164v-141l-83 -88l83 -89v-141z" />
    <glyph glyph-name="guilsinglright" unicode="&#x203a;" horiz-adv-x="274" 
d="M226 201l-184 -166v141l84 89l-84 88v141l184 -164v-129z" />
    <glyph glyph-name="fraction" unicode="&#x2044;" horiz-adv-x="250" 
d="M402 774l-470 -783h-84l471 783h83z" />
    <glyph glyph-name="trademark" unicode="&#x2122;" horiz-adv-x="563" 
d="M523 537h-70v146l-35 -146h-56l-37 146v-146h-71v231h115l19 -88v-10h5v10l20 88h110v-231zM228 722h-62v-185h-79v185h-61v46h202v-46z" />
    <glyph glyph-name="partialdiff" unicode="&#x2202;" 
d="M298 371q0 -162 -38.5 -277.5t-93.5 -115.5q-54 0 -93 115.5t-39 277.5q0 164 39 280t93 116q55 0 93.5 -116t38.5 -280zM279 314l-64 121l-3 239l-57 -168l-80 45l46 -172l-54 -176l88 48l36 -228l17 267z" />
    <glyph glyph-name="product" unicode="&#x220f;" 
d="M298 371q0 -162 -38.5 -277.5t-93.5 -115.5q-54 0 -93 115.5t-39 277.5q0 164 39 280t93 116q55 0 93.5 -116t38.5 -280zM279 314l-64 121l-3 239l-57 -168l-80 45l46 -172l-54 -176l88 48l36 -228l17 267z" />
    <glyph glyph-name="summation" unicode="&#x2211;" 
d="M298 371q0 -162 -38.5 -277.5t-93.5 -115.5q-54 0 -93 115.5t-39 277.5q0 164 39 280t93 116q55 0 93.5 -116t38.5 -280zM279 314l-64 121l-3 239l-57 -168l-80 45l46 -172l-54 -176l88 48l36 -228l17 267z" />
    <glyph glyph-name="minus" unicode="&#x2212;" 
d="M298 371q0 -162 -38.5 -277.5t-93.5 -115.5q-54 0 -93 115.5t-39 277.5q0 164 39 280t93 116q55 0 93.5 -116t38.5 -280zM279 314l-64 121l-3 239l-57 -168l-80 45l46 -172l-54 -176l88 48l36 -228l17 267z" />
    <glyph glyph-name="radical" unicode="&#x221a;" horiz-adv-x="745" 
d="M814 931q-64 -72 -144.5 -215.5t-133.5 -270.5q-135 -320 -182 -545l-105 -44l-249 408l156 66l135 -332q57 242 155 469q93 217 219 401z" />
    <glyph glyph-name="infinity" unicode="&#x221e;" horiz-adv-x="648" 
d="M618 0h-141v547h141v-547zM598 666q2 -27 -11 -67l-111 -12q8 34 8 52q0 51 -37 51q-38 0 -38 -47v-96h49v-78h-49v-469h-140v469h-68v-469h-140v469h-59v78h59v106q0 56 42 89.5t116 33.5q66 0 115 -28q44 26 110 26q76 0 112.5 -26.5t41.5 -81.5zM275 678
q-13 12 -39 12q-35 0 -35 -39v-104h68v98q0 19 6 33z" />
    <glyph glyph-name="integral" unicode="&#x222b;" 
d="M298 371q0 -162 -38.5 -277.5t-93.5 -115.5q-54 0 -93 115.5t-39 277.5q0 164 39 280t93 116q55 0 93.5 -116t38.5 -280zM279 314l-64 121l-3 239l-57 -168l-80 45l46 -172l-54 -176l88 48l36 -228l17 267z" />
    <glyph glyph-name="approxequal" unicode="&#x2248;" 
d="M298 371q0 -162 -38.5 -277.5t-93.5 -115.5q-54 0 -93 115.5t-39 277.5q0 164 39 280t93 116q55 0 93.5 -116t38.5 -280zM279 314l-64 121l-3 239l-57 -168l-80 45l46 -172l-54 -176l88 48l36 -228l17 267z" />
    <glyph glyph-name="notequal" unicode="&#x2260;" horiz-adv-x="482" 
d="M554 666q0 -28 -11 -67l-100 -12q8 34 8 52q0 28 -4 39.5t-18 11.5q-12 0 -16 -8t-4 -27v-108h68v-78h-68v-469h-140v469h-68v-469h-140v469h-59v78h59v109q0 51 41.5 85.5t109.5 34.5q61 0 108 -26q37 26 100 26q61 0 97.5 -28.5t36.5 -81.5zM270 679q-16 11 -37 11
q-32 0 -32 -39v-104h68v118q0 10 1 14z" />
    <glyph glyph-name="lessequal" unicode="&#x2264;" 
d="M298 371q0 -162 -38.5 -277.5t-93.5 -115.5q-54 0 -93 115.5t-39 277.5q0 164 39 280t93 116q55 0 93.5 -116t38.5 -280zM279 314l-64 121l-3 239l-57 -168l-80 45l46 -172l-54 -176l88 48l36 -228l17 267z" />
    <glyph glyph-name="greaterequal" unicode="&#x2265;" 
d="M298 371q0 -162 -38.5 -277.5t-93.5 -115.5q-54 0 -93 115.5t-39 277.5q0 164 39 280t93 116q55 0 93.5 -116t38.5 -280zM279 314l-64 121l-3 239l-57 -168l-80 45l46 -172l-54 -176l88 48l36 -228l17 267z" />
    <glyph glyph-name="lozenge" unicode="&#x25ca;" 
d="M298 371q0 -162 -38.5 -277.5t-93.5 -115.5q-54 0 -93 115.5t-39 277.5q0 164 39 280t93 116q55 0 93.5 -116t38.5 -280zM279 314l-64 121l-3 239l-57 -168l-80 45l46 -172l-54 -176l88 48l36 -228l17 267z" />
    <glyph glyph-name="apple" unicode="&#xf8ff;" 
d="M298 371q0 -162 -38.5 -277.5t-93.5 -115.5q-54 0 -93 115.5t-39 277.5q0 164 39 280t93 116q55 0 93.5 -116t38.5 -280zM279 314l-64 121l-3 239l-57 -168l-80 45l46 -172l-54 -176l88 48l36 -228l17 267z" />
    <glyph glyph-name="fi" unicode="&#xfb01;" horiz-adv-x="442" 
d="M410 0h-141v547h141v-547zM390 658q0 -22 -11 -59l-111 -12q8 34 8 52q0 51 -37 51q-38 0 -38 -47v-96h49v-78h-49v-469h-140v469h-59v78h59v90q0 60 46 98.5t129 38.5q154 0 154 -116z" />
    <glyph glyph-name="fl" unicode="&#xfb02;" horiz-adv-x="446" 
d="M414 0h-141v673q-9 17 -34 17q-38 0 -38 -47v-96h49v-78h-49v-469h-140v469h-59v78h59v90q0 60 46 98.5t129 38.5q40 0 67 -6h111v-768z" />
    <glyph glyph-name="NUL" horiz-adv-x="0" 
d="M0 0z" />
    </font>
</defs>
</svg>
