<?xml version="1.0" standalone="no"?>
<!DOCTYPE svg PUBLIC "-//W3C//DTD SVG 1.1//EN" "http://www.w3.org/Graphics/SVG/1.1/DTD/svg11.dtd" >
<svg xmlns="http://www.w3.org/2000/svg" xmlns:xlink="http://www.w3.org/1999/xlink" version="1.1">
<metadata>
Created by FontForge 20170731 at Mon May  7 09:28:14 2007
 By Aleksey,,,
Copr.1993 The Font Bureau, Inc.
</metadata>
<defs>
<font id="BureauGrotesque-ThreeFive" horiz-adv-x="461" >
  <font-face 
    font-family="BureauGrotesque ThreeFive"
    font-weight="500"
    font-stretch="normal"
    units-per-em="1000"
    panose-1="0 0 0 0 0 0 0 0 0 0"
    ascent="800"
    descent="-200"
    x-height="561"
    cap-height="768"
    bbox="-170 -200 1212 958"
    underline-thickness="20"
    underline-position="-173"
    unicode-range="U+0020-FB02"
  />
<missing-glyph horiz-adv-x="500" 
 />
    <glyph glyph-name=".notdef" horiz-adv-x="500" 
 />
    <glyph glyph-name=".null" horiz-adv-x="0" 
 />
    <glyph glyph-name="nonmarkingreturn" horiz-adv-x="333" 
 />
    <glyph glyph-name="space" unicode=" " horiz-adv-x="232" 
 />
    <glyph glyph-name="exclam" unicode="!" horiz-adv-x="252" 
d="M199 508l-33 -270h-80l-33 270v260h146v-260zM199 0h-146v166h146v-166z" />
    <glyph glyph-name="quotedbl" unicode="&#x22;" horiz-adv-x="394" 
d="M359 768l-16 -284h-102l-15 284h133zM168 768l-16 -284h-102l-15 284h133z" />
    <glyph glyph-name="numbersign" unicode="#" horiz-adv-x="595" 
d="M570 579l-16 -126h-103l-19 -137h103l-18 -127h-103l-26 -189h-87l26 189h-114l-26 -189h-87l26 189h-101l18 127h101l19 137h-100l16 126h101l27 189h87l-27 -189h114l27 189h87l-27 -189h102zM364 453h-114l-19 -137h114z" />
    <glyph glyph-name="dollar" unicode="$" horiz-adv-x="492" 
d="M459 236q0 -98 -46 -155t-137 -64v-79h-73v79q-76 7 -123 50t-47 129q0 45 13 78l132 5q-9 -30 -9 -68q0 -49 18 -71t55 -22q72 0 72 91q0 44 -15.5 72.5t-58.5 48.5q-5 3 -44.5 23t-62.5 31q-58 29 -81 72t-23 105q0 84 48 136.5t126 58.5v39h73v-41q67 -8 107 -52.5
t40 -114.5q0 -32 -8 -56l-129 -7q6 16 6 51q0 85 -61 85q-63 0 -63 -74q0 -39 13.5 -59t61.5 -44q7 -4 26.5 -14t44 -23t35.5 -18q55 -28 82.5 -79t27.5 -113z" />
    <glyph glyph-name="percent" unicode="%" horiz-adv-x="861" 
d="M828 213q0 -120 -37.5 -170.5t-124.5 -50.5t-124.5 50.5t-37.5 170.5q0 137 37.5 194.5t124.5 57.5t124.5 -57.5t37.5 -194.5zM673 768l-420 -776h-69l420 776h69zM357 528q0 -120 -37.5 -170.5t-124.5 -50.5t-124.5 50.5t-37.5 170.5q0 137 37.5 194.5t124.5 57.5
t124.5 -57.5t37.5 -194.5zM713 226q0 92 -10 123t-37 31q-28 0 -37.5 -30.5t-9.5 -122.5t9.5 -121t37.5 -29q29 0 38 28t9 121zM242 541q0 92 -10 123t-37 31q-28 0 -37.5 -30.5t-9.5 -122.5t9.5 -121t37.5 -29q29 0 38 28t9 121z" />
    <glyph glyph-name="ampersand" unicode="&#x26;" horiz-adv-x="655" 
d="M633 133q0 -64 -33.5 -104t-93.5 -40q-45 0 -73 16t-52 49q-62 -65 -155 -65q-91 0 -143.5 61.5t-52.5 159.5q0 165 158 264q-36 76 -36 143q0 76 39.5 119.5t121.5 43.5q75 0 113 -37.5t38 -105.5q0 -59 -34 -101t-95 -83q40 -106 85 -195q24 45 46.5 116.5t30.5 134.5
h83q-14 -93 -47 -189.5t-70 -159.5q25 -65 59 -65q35 0 35 53q0 35 -10 57l74 7q12 -32 12 -79zM366 643q0 57 -49 57q-45 0 -45 -61q0 -38 27 -102q41 29 54 52t13 54zM339 132q-82 179 -110 241q-68 -59 -68 -152q0 -124 103 -124q51 0 75 35z" />
    <glyph glyph-name="quotesingle" unicode="'" horiz-adv-x="203" 
d="M168 768l-16 -284h-102l-15 284h133z" />
    <glyph glyph-name="parenleft" unicode="(" horiz-adv-x="319" 
d="M304 -126l-54 -8q-205 158 -205 465q0 150 53.5 266t151.5 191l54 -8q-61 -92 -86 -199.5t-25 -250.5q0 -142 23 -249t88 -207z" />
    <glyph glyph-name="parenright" unicode=")" horiz-adv-x="319" 
d="M274 331q0 -307 -205 -465l-54 8q65 100 88 207t23 249q0 143 -25 250.5t-86 199.5l54 8q98 -75 151.5 -191t53.5 -266z" />
    <glyph glyph-name="asterisk" unicode="*" horiz-adv-x="382" 
d="M347 588l-48 -75l-73 54l11 -93h-91l11 93l-76 -54l-46 75l90 39l-89 38l46 78l76 -56l-12 93h91l-11 -93l72 56l47 -78l-84 -38z" />
    <glyph glyph-name="plus" unicode="+" horiz-adv-x="529" 
d="M483 292h-157v-157h-121v157h-159v113h159v156h121v-156h157v-113z" />
    <glyph glyph-name="comma" unicode="," horiz-adv-x="249" 
d="M204 4q0 -70 -40.5 -111.5t-92.5 -56.5l-15 53q64 24 64 111h-75v170h159v-166z" />
    <glyph glyph-name="hyphen" unicode="-" horiz-adv-x="452" 
d="M406 271h-360v116h360v-116z" />
    <glyph glyph-name="period" unicode="." horiz-adv-x="249" 
d="M204 0h-159v170h159v-170z" />
    <glyph glyph-name="slash" unicode="/" horiz-adv-x="410" 
d="M407 768l-318 -768h-86l318 768h86z" />
    <glyph glyph-name="zero" unicode="0" horiz-adv-x="438" 
d="M413 358q0 -152 -19.5 -231.5t-59 -108.5t-115.5 -29t-115.5 28.5t-59 108t-19.5 231.5q0 171 19.5 261t59.5 124.5t115 34.5t115 -34.5t59.5 -124.5t19.5 -260zM271 379q0 180 -9 240q-6 38 -15 50t-28 12t-28 -12t-14 -47q-10 -67 -10 -242q0 -171 9 -230
q6 -36 15 -48.5t28 -12.5t28 12t15 47q9 53 9 231z" />
    <glyph glyph-name="one" unicode="1" horiz-adv-x="331" 
d="M287 0h-141v578q-16 -7 -64 -7q-64 0 -75 2v82q56 0 115 32t80 84h85v-771z" />
    <glyph glyph-name="two" unicode="2" horiz-adv-x="437" 
d="M412 548q0 -111 -67.5 -224t-174.5 -204q37 4 90 4h151v-124h-385v105q117 106 180.5 211.5t63.5 233.5q0 73 -13 102t-43 29t-41 -30t-11 -102q0 -65 11 -106l-131 -4q-17 73 -17 129q0 97 50.5 153t142.5 56q101 0 147.5 -56t46.5 -173z" />
    <glyph glyph-name="three" unicode="3" horiz-adv-x="442" 
d="M417 235q0 -134 -54.5 -190t-159.5 -56q-91 0 -137 48t-46 131q0 58 10 101l126 7q-9 -40 -9 -76q0 -56 16.5 -78.5t47.5 -22.5q36 0 53 31t17 113q0 90 -15.5 125t-53.5 35q-30 0 -53 -23l-71 78l169 190h-217v120h352v-122l-161 -182q16 8 47 8q68 0 103.5 -55
t35.5 -182z" />
    <glyph glyph-name="four" unicode="4" horiz-adv-x="453" 
d="M441 159h-62v-159h-137v159h-225v147l210 462h152v-495h62v-114zM246 577l-130 -304h126v223q0 42 4 81z" />
    <glyph glyph-name="five" unicode="5" horiz-adv-x="431" 
d="M406 267q0 -81 -13 -136.5t-40 -86t-60.5 -43t-81.5 -12.5q-90 0 -138 46t-48 131q0 51 6 83l126 4q-5 -30 -5 -63q0 -51 15 -73t46 -22q35 0 46 34.5t11 137.5q0 95 -12.5 128t-43.5 33q-28 0 -39 -20t-14 -60l-124 6l12 414h324l-5 -120h-208l-10 -171q28 60 105 60
q151 0 151 -270z" />
    <glyph glyph-name="six" unicode="6" horiz-adv-x="441" 
d="M419 250q0 -140 -47 -200.5t-145 -60.5q-74 0 -116.5 33.5t-64 120.5t-21.5 243q0 159 21 243t64 116t123 32q81 0 121 -42t40 -117q0 -32 -6 -56l-123 -6q5 18 5 45q0 41 -12 60.5t-39 19.5q-34 0 -45.5 -40t-11.5 -133q0 -45 2 -81q12 28 37 45.5t58 17.5
q77 0 118.5 -55.5t41.5 -184.5zM277 247q0 87 -11 116.5t-41 29.5q-32 0 -46 -30.5t-14 -115.5q0 -92 14 -125t47 -33q30 0 40.5 33t10.5 125z" />
    <glyph glyph-name="seven" unicode="7" horiz-adv-x="405" 
d="M393 647q-151 -195 -151 -483q0 -110 9 -164h-157q-4 64 -4 78q0 157 52 305t128 255h-268l9 130h382v-121z" />
    <glyph glyph-name="eight" unicode="8" horiz-adv-x="445" 
d="M422 208q0 -118 -49.5 -168.5t-150.5 -50.5t-150.5 50.5t-49.5 168.5q0 86 25 137t68 65q-78 23 -78 150q0 217 185 217t185 -217q0 -127 -78 -150q93 -31 93 -202zM272 572q0 64 -11.5 86.5t-38.5 22.5q-29 0 -39.5 -22t-10.5 -87q0 -71 10.5 -94t39.5 -23t39.5 22.5
t10.5 94.5zM280 222q0 84 -12 112t-46 28t-46 -28.5t-12 -111.5q0 -81 12.5 -107t45.5 -26t45.5 26t12.5 107z" />
    <glyph glyph-name="nine" unicode="9" horiz-adv-x="441" 
d="M416 380q0 -158 -20.5 -242t-63.5 -116.5t-123 -32.5q-81 0 -121.5 41.5t-40.5 116.5q0 35 6 57l123 6q-5 -23 -5 -45q0 -75 51 -75q19 0 31 10.5t17.5 35.5t7 51t1.5 71q0 59 -2 80q-27 -63 -97 -63q-78 0 -118 56t-40 184q0 141 48 201.5t147 60.5q111 0 155 -86.5
t44 -310.5zM276 519q0 88 -13.5 124.5t-46.5 36.5q-30 0 -41 -33t-11 -128q0 -91 12 -119t42 -28q31 0 44.5 31.5t13.5 115.5z" />
    <glyph glyph-name="colon" unicode=":" horiz-adv-x="249" 
d="M204 366h-159v170h159v-170zM204 0h-159v170h159v-170z" />
    <glyph glyph-name="semicolon" unicode=";" horiz-adv-x="252" 
d="M204 366h-159v170h159v-170zM204 4q0 -70 -40.5 -111.5t-92.5 -56.5l-15 53q64 24 64 111h-75v170h159v-166z" />
    <glyph glyph-name="less" unicode="&#x3c;" horiz-adv-x="366" 
d="M320 120l-280 176v92l280 176v-115l-182 -107l182 -107v-115z" />
    <glyph glyph-name="equal" unicode="=" horiz-adv-x="474" 
d="M428 407h-382v115h382v-115zM428 185h-382v115h382v-115z" />
    <glyph glyph-name="greater" unicode="&#x3e;" horiz-adv-x="366" 
d="M326 296l-280 -176v115l182 107l-182 107v115l280 -176v-92z" />
    <glyph glyph-name="question" unicode="?" horiz-adv-x="439" 
d="M404 534q0 -133 -36 -185t-103 -52q-57 0 -88 42v-105h-103v244h94q8 -40 19 -54t32 -14t29.5 24t8.5 99q0 88 -10.5 115.5t-40.5 27.5q-22 0 -31.5 -15.5t-9.5 -49.5q0 -28 6 -50l-127 1q-9 26 -9 67q0 68 45 109.5t137 41.5t139.5 -58.5t47.5 -187.5zM205 0h-149v170
h149v-170z" />
    <glyph glyph-name="at" unicode="@" horiz-adv-x="806" 
d="M771 405q0 -140 -56.5 -222t-147.5 -82q-49 0 -76 20.5t-29 49.5q-17 -24 -29.5 -37t-41 -24.5t-67.5 -11.5q-50 0 -81.5 31t-31.5 86q0 101 64.5 143.5t184.5 45.5q7 37 7 53q0 27 -10.5 41t-37.5 14q-24 0 -35.5 -17t-11.5 -41q0 -14 1 -19l-122 -16q-2 8 -2 20
q0 156 191 156q79 0 116 -38.5t37 -97.5q0 -23 -10 -93q-10 -72 -20 -130q-4 -21 -4 -37q0 -33 35 -33q47 0 81.5 61.5t34.5 176.5q0 155 -85 242t-214 87q-138 0 -225 -115t-87 -289q0 -180 86.5 -281.5t230.5 -101.5q51 0 105 25.5t88 63.5l34 -45q-56 -47 -109 -71.5
t-122 -24.5q-178 0 -277.5 115t-99.5 321q0 202 102 326t282 124q158 0 255 -98t97 -277zM452 341q-123 0 -123 -99q0 -28 9 -40t33 -12q58 0 70 75q10 64 11 76z" />
    <glyph glyph-name="A" unicode="A" horiz-adv-x="454" 
d="M454 0h-154l-26 141h-111l-24 -141h-139l147 771h148zM255 247q-14 105 -26 199q-7 58 -12 118q-6 -80 -11 -117l-25 -200h74z" />
    <glyph glyph-name="B" unicode="B" horiz-adv-x="477" 
d="M456 217q0 -217 -208 -217h-200v768h184q102 0 151.5 -53.5t49.5 -152.5q0 -143 -109 -156q56 -4 94 -53.5t38 -135.5zM288 557q0 59 -17.5 84t-57.5 25h-21v-208h27q69 0 69 99zM305 231q0 123 -81 123h-32v-248h34q42 0 60.5 27.5t18.5 97.5z" />
    <glyph glyph-name="C" unicode="C" horiz-adv-x="469" 
d="M451 248q0 -136 -43.5 -199t-153.5 -63q-130 0 -178.5 83t-48.5 302q0 228 47 318.5t174 90.5q51 0 87.5 -13t57 -33.5t32.5 -53t15.5 -63t3.5 -72.5q0 -32 -4 -62l-136 -4q3 30 3 60q0 76 -12.5 110.5t-46.5 34.5q-23 0 -35.5 -11.5t-21 -47t-11 -92t-2.5 -156.5
q0 -186 12.5 -238.5t62.5 -52.5q39 0 52 37.5t13 114.5q0 44 -4 79l133 -4q4 -27 4 -65z" />
    <glyph glyph-name="D" unicode="D" horiz-adv-x="497" 
d="M473 354q0 -194 -52 -274t-178 -80h-195v768h186q127 0 183 -93t56 -321zM322 356q0 124 -11 191t-33.5 93t-63.5 26h-22v-560h29q42 0 62.5 18.5t29.5 71t9 160.5z" />
    <glyph glyph-name="E" unicode="E" horiz-adv-x="419" 
d="M401 0h-353v768h331v-120h-185v-193h163v-123h-163v-211h207v-121z" />
    <glyph glyph-name="F" unicode="F" horiz-adv-x="389" 
d="M372 648h-178v-204h156v-123h-156v-321h-146v768h324v-120z" />
    <glyph glyph-name="G" unicode="G" horiz-adv-x="494" 
d="M456 0h-59l-33 59q-22 -37 -47 -55t-73 -18q-78 0 -123.5 32t-69.5 114.5t-24 226.5q0 168 23 259t70 126.5t133 35.5q107 0 149 -58t42 -175q0 -27 -2 -47l-137 -4q2 15 2 48q0 71 -12.5 105.5t-43.5 34.5q-17 0 -28 -4.5t-19.5 -19.5t-13.5 -35.5t-7.5 -60t-3.5 -84.5
t-1 -117q0 -124 7 -182.5t21 -76.5t45 -18q46 0 62.5 36t16.5 119q0 24 -1 50h-76v111h203v-402z" />
    <glyph glyph-name="H" unicode="H" horiz-adv-x="504" 
d="M456 0h-146v349h-116v-349h-146v768h146v-296h116v296h146v-768z" />
    <glyph glyph-name="I" unicode="I" horiz-adv-x="242" 
d="M194 0h-146v768h146v-768z" />
    <glyph glyph-name="J" unicode="J" horiz-adv-x="431" 
d="M386 218q0 -124 -42.5 -178t-152.5 -54q-100 0 -144.5 50.5t-44.5 146.5q0 45 14 92l133 5q-12 -50 -12 -100q0 -79 53 -79q29 0 39.5 23t10.5 80v564h146v-550z" />
    <glyph glyph-name="K" unicode="K" horiz-adv-x="508" 
d="M498 0h-163l-141 332v-332h-146v768h146v-289l128 289h152l-172 -353z" />
    <glyph glyph-name="L" unicode="L" horiz-adv-x="395" 
d="M383 0h-335v768h146v-644h189v-124z" />
    <glyph glyph-name="M" unicode="M" horiz-adv-x="647" 
d="M599 0h-133v349q0 51 0.5 86.5t1.5 69t1 58.5q-3 -23 -6.5 -64t-7.5 -76t-10 -74l-59 -349h-123q-40 232 -59 349q-20 123 -26 214q3 -76 3 -214v-349h-133v768h187q12 -66 34.5 -205t32.5 -193q5 -28 21 -128q7 45 21 127q9 47 32.5 186t37.5 213h185v-768z" />
    <glyph glyph-name="N" unicode="N" horiz-adv-x="501" 
d="M456 0h-124q-74 211 -125 355q-20 56 -32 104q6 -81 6 -151v-308h-133v768h128q73 -215 123 -346q18 -48 29 -99q-5 62 -5 161v284h133v-768z" />
    <glyph glyph-name="O" unicode="O" horiz-adv-x="501" 
d="M474 383q0 -158 -24.5 -245t-71.5 -119.5t-128 -32.5q-82 0 -128 31t-70.5 118t-24.5 248q0 156 24.5 243t71 120.5t127.5 33.5t128 -34t71.5 -121t24.5 -242zM323 383q0 181 -12.5 241t-60.5 60t-60 -59.5t-12 -241.5q0 -64 1 -104t3.5 -76.5t7 -56t13 -35t19.5 -20.5
t28 -5q48 0 60.5 56.5t12.5 240.5z" />
    <glyph glyph-name="P" unicode="P" horiz-adv-x="471" 
d="M449 533q0 -130 -51 -185t-153 -55h-51v-293h-146v768h183q108 0 163 -55.5t55 -179.5zM298 532q0 73 -19 103.5t-62 30.5h-23v-265h32q72 0 72 131z" />
    <glyph glyph-name="Q" unicode="Q" horiz-adv-x="501" 
d="M474 383q0 -146 -20.5 -230.5t-60 -121.5t-107.5 -43q-9 -14 -9 -30q0 -53 45 -53q19 0 30.5 11t19.5 39l57 -37q-1 -12 -8 -29q-24 -64 -109 -64q-136 0 -136 119q0 25 11 47q-87 16 -123.5 102t-36.5 290q0 156 24.5 243t71 120.5t127.5 33.5t128 -34t71.5 -121
t24.5 -242zM323 383q0 181 -12.5 241t-60.5 60t-60 -59.5t-12 -241.5q0 -64 1 -104t3.5 -76.5t7 -56t13 -35t19.5 -20.5t28 -5q48 0 60.5 56.5t12.5 240.5z" />
    <glyph glyph-name="R" unicode="R" horiz-adv-x="487" 
d="M468 0h-153q-14 22 -18 69t-4 152q0 101 -68 101h-31v-322h-146v768h204q98 0 150 -53t52 -159q0 -86 -31 -124.5t-95 -48.5q62 -7 85.5 -56t25.5 -148q0 -140 29 -179zM303 544q0 68 -23.5 95t-71.5 27h-14v-229h31q40 0 59 25t19 82z" />
    <glyph glyph-name="S" unicode="S" horiz-adv-x="470" 
d="M442 214q0 -115 -50 -171.5t-160 -56.5q-99 0 -147.5 47.5t-48.5 146.5q0 43 13 84l132 5q-9 -36 -9 -79q0 -56 12 -78.5t49 -22.5q36 0 50 21t14 77q0 62 -18.5 92.5t-79.5 60.5q-7 3 -31 14t-38 18q-55 26 -76.5 76t-21.5 124q0 99 47.5 153.5t145.5 54.5
q88 0 134.5 -47t46.5 -132q0 -24 -10 -66l-127 -8q6 26 6 60q0 55 -11 75.5t-43 20.5q-30 0 -40 -19t-10 -60q0 -51 14 -75t57 -45q8 -4 36 -17t43 -21q65 -34 93 -89t28 -143z" />
    <glyph glyph-name="T" unicode="T" horiz-adv-x="424" 
d="M417 648h-132v-648h-146v648h-132v120h410v-120z" />
    <glyph glyph-name="U" unicode="U" horiz-adv-x="498" 
d="M453 204q0 -107 -46 -162.5t-158 -55.5t-158 55.5t-46 162.5v564h146v-555q0 -61 11 -87.5t47 -26.5q35 0 46.5 28t11.5 86v555h146v-564z" />
    <glyph glyph-name="V" unicode="V" horiz-adv-x="459" 
d="M457 768l-149 -770h-153l-153 770h150q7 -40 38.5 -236t37.5 -229q5 -31 8 -68q3 35 8 69q1 8 34.5 212.5t41.5 251.5h137z" />
    <glyph glyph-name="W" unicode="W" horiz-adv-x="654" 
d="M649 768l-115 -768h-133q-46 276 -53 321q-8 52 -21 156q-8 -67 -20 -156l-56 -321h-136l-110 768h140q3 -22 17 -152t16 -143q1 -12 4 -43.5t7 -76.5t6 -70q21 152 25 189q4 28 23 153.5t21 142.5h131q34 -216 43 -296q1 -8 10 -79t14 -110q8 66 20 189q12 122 36 296
h131z" />
    <glyph glyph-name="X" unicode="X" horiz-adv-x="480" 
d="M473 0h-155l-87 248l-85 -248h-139l152 398l-135 370h153l74 -221l77 221h140l-153 -370z" />
    <glyph glyph-name="Y" unicode="Y" horiz-adv-x="453" 
d="M453 768l-152 -465v-303h-146v303l-155 465h151l84 -297l81 297h137z" />
    <glyph glyph-name="Z" unicode="Z" horiz-adv-x="431" 
d="M404 0h-387v119l236 529h-212v120h363v-115l-237 -532h237v-121z" />
    <glyph glyph-name="bracketleft" unicode="[" horiz-adv-x="326" 
d="M306 -136h-240v904h240v-93h-105v-718h105v-93z" />
    <glyph glyph-name="backslash" unicode="\" horiz-adv-x="410" 
d="M407 0h-86l-318 768h86z" />
    <glyph glyph-name="bracketright" unicode="]" horiz-adv-x="326" 
d="M260 -136h-240v93h105v718h-105v93h240v-904z" />
    <glyph glyph-name="asciicircum" unicode="^" horiz-adv-x="382" 
d="M337 586h-86l-60 81l-60 -81h-86l95 182h102z" />
    <glyph glyph-name="underscore" unicode="_" horiz-adv-x="522" 
d="M522 -200h-522v96h522v-96z" />
    <glyph glyph-name="grave" unicode="`" horiz-adv-x="370" 
d="M294 605h-77l-147 125h163z" />
    <glyph glyph-name="a" unicode="a" horiz-adv-x="436" 
d="M434 11q-40 -19 -81 -19q-70 0 -81 56q-37 -59 -114 -59q-68 0 -102.5 39.5t-34.5 129.5q0 72 31.5 110.5t91.5 53.5q3 1 17 4.5t16 4.5q39 11 55 28.5t16 47.5q0 19 -0.5 27t-2.5 22t-6.5 19.5t-14 10.5t-23.5 5q-28 0 -36 -13.5t-8 -45.5q0 -21 6 -45l-116 -5
q-10 28 -10 59q0 132 168 132q94 0 135 -34.5t41 -116.5v-296q0 -20 6.5 -29.5t27.5 -9.5q12 0 19 3v-79zM247 156v116q-10 -9 -37 -21q-35 -15 -44 -34.5t-9 -65.5q0 -40 9.5 -56.5t32.5 -16.5q48 0 48 78z" />
    <glyph glyph-name="b" unicode="b" horiz-adv-x="440" 
d="M417 280q0 -165 -43 -228t-131 -63q-73 0 -111 75l-37 -64h-55v768h132v-265q30 70 92 70q70 0 111.5 -64.5t41.5 -228.5zM281 280q0 121 -11 158t-47 37q-27 0 -40 -41.5t-13 -153.5q0 -116 12.5 -160t43.5 -44q35 0 45 39.5t10 164.5z" />
    <glyph glyph-name="c" unicode="c" horiz-adv-x="400" 
d="M380 155q0 -166 -170 -166q-105 0 -146 63t-41 221q0 89 13 149t39 92.5t59 45.5t80 13q84 0 119.5 -42t35.5 -123q0 -41 -3 -55l-123 -4q4 18 4 47q0 49 -7 69t-30 20q-20 0 -30.5 -16t-15.5 -58.5t-5 -124.5q0 -132 9.5 -169t44.5 -37q26 0 34.5 24t8.5 77q0 23 -4 59
l119 -5q9 -34 9 -80z" />
    <glyph glyph-name="d" unicode="d" horiz-adv-x="439" 
d="M400 0h-127v57q-31 -68 -91 -68q-84 0 -121.5 63t-37.5 219q0 302 162 302q59 0 83 -62v257h132v-768zM270 279q0 104 -12.5 153.5t-43.5 49.5q-32 0 -43.5 -40.5t-11.5 -161.5q0 -86 6 -129t17 -57t33 -14q30 0 42.5 43.5t12.5 155.5z" />
    <glyph glyph-name="e" unicode="e" horiz-adv-x="404" 
d="M381 141q0 -152 -167 -152q-105 0 -148 60.5t-43 214.5q0 173 45.5 241t140.5 68q90 0 130.5 -64.5t40.5 -200.5q0 -30 -4 -54h-217v-29q0 -85 9.5 -115t43.5 -30q31 0 40 20t9 67q0 24 -1 32l117 -6q4 -19 4 -52zM255 363q0 64 -9 92t-38 28q-16 0 -25 -8t-14 -29
t-7 -44t-3 -67h95q1 7 1 28z" />
    <glyph glyph-name="f" unicode="f" horiz-adv-x="266" 
d="M332 678q0 -40 -10 -67l-89 5q6 20 6 41q0 23 -7.5 32.5t-24.5 9.5q-30 0 -30 -43q0 -67 5 -95h78v-82h-71v-479h-135v479h-55v82h55q-1 12 -1 89q0 59 38.5 94.5t103.5 35.5q67 0 102 -26.5t35 -75.5z" />
    <glyph glyph-name="g" unicode="g" horiz-adv-x="419" 
d="M425 -7q0 -84 -54.5 -128.5t-161.5 -44.5q-108 0 -157.5 31.5t-49.5 97.5q0 65 89 90q-77 7 -77 89q0 78 89 101q-33 16 -52 61t-19 97q0 86 46.5 136t134.5 50q54 0 80 -17l14 82h116l-71 -118q40 -48 40 -133q0 -88 -42 -137t-122 -49q-35 0 -71 8q-33 -8 -33 -34
q0 -14 10 -18t53 -2q6 0 82 3q69 2 112.5 -40.5t43.5 -124.5zM260 387q0 66 -8.5 88.5t-39.5 22.5t-40 -23t-9 -88q0 -68 8.5 -88.5t40.5 -20.5q31 0 39.5 20t8.5 89zM314 -29q0 41 -16 52.5t-70 11.5q-43 0 -75 -4q-45 -23 -45 -65q0 -35 22 -53.5t76 -18.5q108 0 108 77z
" />
    <glyph glyph-name="h" unicode="h" horiz-adv-x="435" 
d="M397 0h-135v397v28.5t-2 19.5t-5.5 15.5t-11 7t-18.5 3.5q-50 0 -50 -117v-354h-135v768h131v-276q33 81 112 81q114 0 114 -126v-447z" />
    <glyph glyph-name="i" unicode="i" horiz-adv-x="215" 
d="M176 626h-137v134h137v-134zM175 0h-135v561h135v-561z" />
    <glyph glyph-name="j" unicode="j" horiz-adv-x="203" 
d="M174 626h-137v134h137v-134zM173 -47q0 -63 -37 -98t-108 -35q-62 0 -104 28t-42 83q0 28 8 51l92 -8q-4 -15 -4 -32q0 -41 37 -41q17 0 25 7.5t8 26.5q0 13 -3 44q-7 84 -7 103v479h135v-608z" />
    <glyph glyph-name="k" unicode="k" horiz-adv-x="415" 
d="M416 0h-141l-84 216l-16 -31v-185h-135v768h132v-390l88 183h145l-132 -220z" />
    <glyph glyph-name="l" unicode="l" horiz-adv-x="215" 
d="M175 0h-135v768h135v-768z" />
    <glyph glyph-name="m" unicode="m" horiz-adv-x="662" 
d="M626 0h-135v399q0 45 -6 58.5t-29 13.5q-58 0 -58 -115v-356h-133v400q0 43 -9.5 57t-37.5 14q-43 0 -43 -114v-357h-135v561h132q-1 -20 -1 -68q34 80 105 80q51 0 78 -19.5t37 -61.5q40 81 122 81q113 0 113 -126v-447z" />
    <glyph glyph-name="n" unicode="n" horiz-adv-x="435" 
d="M397 0h-135v397v28.5t-2 19.5t-5.5 15.5t-11 7t-18.5 3.5q-50 0 -50 -117v-354h-135v561h131v-69q33 81 112 81q114 0 114 -126v-447z" />
    <glyph glyph-name="o" unicode="o" horiz-adv-x="426" 
d="M403 272q0 -159 -42.5 -221t-147.5 -62t-147.5 62t-42.5 221q0 161 43.5 231t146.5 70t146.5 -69.5t43.5 -231.5zM267 272q0 71 -2 110t-8 63.5t-16 32t-28 7.5t-28 -7.5t-16 -32t-8 -63.5t-2 -110q0 -123 9.5 -157.5t44.5 -34.5q22 0 33 14t16 54.5t5 123.5z" />
    <glyph glyph-name="p" unicode="p" horiz-adv-x="440" 
d="M417 280q0 -84 -11.5 -142t-34.5 -90t-52.5 -45.5t-70.5 -13.5q-54 0 -76 54v-213h-132v731h132q-1 -21 -1 -69q9 32 32.5 56.5t57.5 24.5q26 0 47.5 -7.5t42.5 -27.5t35 -52t22.5 -84.5t8.5 -121.5zM281 280q0 122 -11.5 158.5t-46.5 36.5q-29 0 -41 -41.5t-12 -153.5
q0 -111 11.5 -157.5t44.5 -46.5q23 0 34 15t16 58t5 131z" />
    <glyph glyph-name="q" unicode="q" horiz-adv-x="439" 
d="M400 -170h-132v215q-31 -56 -86 -56q-83 0 -121 63t-38 216q0 162 44 233.5t131 71.5q42 0 64 -19t39 -56l41 63h58v-731zM270 280q0 84 -7.5 130t-19 59t-30.5 13q-21 0 -31.5 -14t-16.5 -58.5t-6 -132.5q0 -120 11 -158.5t46 -38.5q29 0 41.5 41t12.5 159z" />
    <glyph glyph-name="r" unicode="r" horiz-adv-x="378" 
d="M373 430q0 -42 -10 -69l-113 -18q7 26 7 50q0 35 -6 52t-25 17q-30 0 -40.5 -25.5t-10.5 -99.5v-337h-135v561h132q-1 -24 -1 -72q31 84 97 84q61 0 83 -36.5t22 -106.5z" />
    <glyph glyph-name="s" unicode="s" horiz-adv-x="387" 
d="M373 163q0 -85 -42.5 -129.5t-136.5 -44.5q-85 0 -129.5 37t-44.5 103q0 37 11 64l117 4q-7 -28 -7 -53q0 -37 9.5 -51.5t42.5 -14.5q24 0 32 15t8 50q0 39 -12.5 60t-49.5 35q-6 2 -25.5 9t-31.5 12q-49 19 -70.5 53.5t-21.5 102.5q0 75 45.5 116.5t121.5 41.5
q160 0 160 -133q0 -24 -7 -45l-117 -5q6 18 6 42q0 33 -8 45.5t-32 12.5q-38 0 -38 -58q0 -28 10.5 -43.5t37.5 -25.5q11 -4 29.5 -10.5t30.5 -10.5q61 -22 86.5 -63.5t25.5 -115.5z" />
    <glyph glyph-name="t" unicode="t" horiz-adv-x="321" 
d="M314 22q-40 -33 -116 -33q-63 0 -99.5 38.5t-36.5 96.5v355h-60v82h61l3 162h131v-162h100v-82h-100v-341q0 -29 12 -41t40 -12q25 0 65 21v-84z" />
    <glyph glyph-name="u" unicode="u" horiz-adv-x="431" 
d="M394 0h-129v69q-16 -41 -42 -60.5t-72 -19.5q-58 0 -86 31.5t-28 101.5v439h135v-394v-15.5v-14t0.5 -11.5t1 -11t2.5 -8t4.5 -7t6.5 -4.5t9 -3.5t12 -1q51 0 51 114v356h135v-561z" />
    <glyph glyph-name="v" unicode="v" horiz-adv-x="394" 
d="M394 561l-126 -561h-143l-125 561h137q34 -219 42 -262q12 -63 22 -133q6 45 23 132l42 263h128z" />
    <glyph glyph-name="w" unicode="w" horiz-adv-x="581" 
d="M581 561l-119 -561h-109q-33 189 -44 241q-10 50 -18 94q-8 -44 -18 -94l-44 -241h-110l-119 561h132q29 -194 36 -238q0 -3 5.5 -36.5t8.5 -57.5q4 21 9 54t6 40l43 238h102q38 -191 47 -232q1 -4 7 -40.5t11 -58.5q2 13 14 99l35 232h125z" />
    <glyph glyph-name="x" unicode="x" horiz-adv-x="408" 
d="M411 0h-146l-69 179l-71 -179h-128l137 295l-122 266h145l52 -146l58 146h128l-123 -266z" />
    <glyph glyph-name="y" unicode="y" horiz-adv-x="414" 
d="M414 561q-98 -446 -127 -564q-25 -100 -62.5 -137.5t-110.5 -37.5q-65 0 -103.5 30.5t-38.5 82.5q0 21 4 38l108 5q-4 -13 -4 -29q0 -32 35 -32q48 0 39 74l-154 570h142q42 -213 62 -312q3 -18 8.5 -43t8.5 -41q3 22 14 85l49 311h130z" />
    <glyph glyph-name="z" unicode="z" horiz-adv-x="365" 
d="M344 457l-190 -355h189v-102h-326v100l194 363h-175v98h308v-104z" />
    <glyph glyph-name="braceleft" unicode="{" horiz-adv-x="337" 
d="M302 677h-42q-35 0 -35 -42v-239q0 -36 -11.5 -52t-42.5 -16q31 0 42.5 -16t11.5 -52v-273q0 -41 35 -41h41v-91h-85q-58 0 -86.5 25.5t-28.5 88.5v266q0 28 -11.5 40t-44.5 12h-10v81h10q36 0 46 12t10 44v229q0 115 115 115h86v-91z" />
    <glyph glyph-name="bar" unicode="|" horiz-adv-x="214" 
d="M154 -200h-94v1000h94v-1000z" />
    <glyph glyph-name="braceright" unicode="}" horiz-adv-x="337" 
d="M302 287h-10q-33 0 -44.5 -12t-11.5 -40v-266q0 -63 -28.5 -88.5t-86.5 -25.5h-85v91h41q35 0 35 41v273q0 36 11.5 52t42.5 16q-31 0 -42.5 16t-11.5 52v239q0 42 -35 42h-42v91h86q115 0 115 -115v-229q0 -32 10 -44t46 -12h10v-81z" />
    <glyph glyph-name="asciitilde" unicode="~" horiz-adv-x="398" 
d="M353 709q0 -40 -22.5 -64.5t-67.5 -24.5q-43 0 -70 27l-23 23q-22 22 -43 22q-40 0 -30 -54h-42q-10 18 -10 53q0 89 82 89q50 0 82 -32q15 -15 23 -22q21 -18 37 -18q22 0 29 19.5t2 40.5h42q11 -19 11 -59z" />
    <glyph glyph-name="nbspace" unicode="&#xa0;" horiz-adv-x="116" 
 />
    <glyph glyph-name="exclamdown" unicode="&#xa1;" horiz-adv-x="252" 
d="M199 602h-146v166h146v-166zM199 0h-146v260l33 270h80l33 -270v-260z" />
    <glyph glyph-name="cent" unicode="&#xa2;" horiz-adv-x="436" 
d="M408 287q0 -72 -37.5 -115t-114.5 -50v-71h-55v71q-91 8 -130.5 72.5t-39.5 210.5q0 157 43.5 223.5t126.5 74.5v65h55v-64q141 -11 141 -164q0 -41 -3 -55l-123 -4q4 18 4 47q0 48 -11 68.5t-36 20.5q-23 0 -35 -13.5t-19 -57t-7 -128.5q0 -93 6 -136t18.5 -56.5
t39.5 -13.5q29 0 41 22t12 79q0 23 -4 59l119 -5q9 -34 9 -80z" />
    <glyph glyph-name="sterling" unicode="&#xa3;" horiz-adv-x="591" 
d="M556 164q0 -175 -150 -175q-52 0 -87 13t-82 43q-49 -56 -122 -56q-49 0 -77 25t-28 66q0 51 29.5 79t81.5 28q43 0 79 -19q10 28 10 63q0 43 -12 82h-120v99h90q-27 76 -27 145q0 106 48.5 164.5t148.5 58.5q90 0 139 -50.5t49 -149.5q0 -38 -10 -71l-131 -13q9 45 9 87
q0 87 -56 87q-27 0 -42.5 -22.5t-15.5 -59.5q0 -83 28 -176h135v-99h-116q4 -21 4 -49q0 -79 -34 -132q45 -27 86 -27q33 0 44.5 21t11.5 66q0 30 -9 57l113 -13q13 -31 13 -72zM167 86q-30 22 -53 22q-11 0 -18 -7.5t-7 -20.5q0 -25 31 -25q30 0 47 31z" />
    <glyph glyph-name="currency" unicode="&#xa4;" 
d="M426 352q0 -136 -57 -232.5t-138 -96.5q-80 0 -138 96.5t-58 232.5q0 137 58 234.5t138 97.5q81 0 138 -97.5t57 -234.5zM400 268l-83 111l39 109l-76 -8l-53 136l-39 -148l-90 -13l68 -80l-92 -86l119 -18l44 -180l51 170z" />
    <glyph glyph-name="yen" unicode="&#xa5;" horiz-adv-x="483" 
d="M478 768l-91 -262h76v-80h-104l-32 -92h136v-80h-147v-254h-146v254h-155v80h144l-33 92h-111v80h83l-93 262h154l91 -292l88 292h140z" />
    <glyph glyph-name="brokenbar" unicode="&#xa6;" 
d="M426 352q0 -136 -57 -232.5t-138 -96.5q-80 0 -138 96.5t-58 232.5q0 137 58 234.5t138 97.5q81 0 138 -97.5t57 -234.5zM400 268l-83 111l39 109l-76 -8l-53 136l-39 -148l-90 -13l68 -80l-92 -86l119 -18l44 -180l51 170z" />
    <glyph glyph-name="section" unicode="&#xa7;" horiz-adv-x="437" 
d="M401 369q0 -86 -68 -132q65 -54 65 -136q0 -83 -45.5 -129t-141.5 -46q-89 0 -137.5 38t-48.5 101q0 37 11 65l117 4q-7 -30 -7 -46q0 -37 11.5 -55t48.5 -18q33 0 46 16t13 49q0 40 -19 61t-65 39q-40 15 -55 21q-49 20 -74 52.5t-25 93.5q0 44 21.5 78.5t56.5 52.5
q-38 22 -58 53.5t-20 86.5q0 74 49 116.5t126 42.5q179 0 179 -131q0 -27 -7 -46l-117 -6q6 22 6 44q0 56 -55 56q-29 0 -43.5 -16t-14.5 -40q0 -28 12 -43.5t51 -31.5q8 -3 27.5 -10.5t31.5 -12.5q64 -26 96.5 -65.5t32.5 -105.5zM283 345q0 42 -33 61q-22 14 -56 29
q-23 -6 -39 -24t-16 -42q0 -42 38 -57q57 -24 71 -29q35 24 35 62z" />
    <glyph glyph-name="dieresis" unicode="&#xa8;" horiz-adv-x="370" 
d="M351 605h-117v121h117v-121zM134 605h-115v121h115v-121z" />
    <glyph glyph-name="copyright" unicode="&#xa9;" horiz-adv-x="695" 
d="M660 447q0 -129 -92 -222t-220 -93q-129 0 -221 93t-92 222t92 221.5t221 92.5t220.5 -92.5t91.5 -221.5zM613 447q0 111 -77.5 191.5t-187.5 80.5q-111 0 -189 -80.5t-78 -191.5q0 -113 78 -192.5t189 -79.5q110 0 187.5 79.5t77.5 192.5zM479 378q0 -69 -31 -103.5
t-97 -34.5q-77 0 -111.5 45.5t-34.5 160.5q0 112 34.5 159t107.5 47q128 0 126 -129q0 -12 -2 -22l-80 -3q2 8 2 26q0 69 -46 69q-30 0 -41.5 -29t-11.5 -120q0 -88 12.5 -116t43.5 -28q24 0 37 17t13 60q0 18 -3 36l79 -3q3 -12 3 -32z" />
    <glyph glyph-name="ordfeminine" unicode="&#xaa;" horiz-adv-x="414" 
d="M365 406q-36 -13 -64 -13q-50 0 -60 39q-26 -40 -88 -40q-109 0 -109 111q0 40 26 69t71 40q3 1 29 8q54 15 54 50q0 29 -8 43t-30 14q-38 0 -38 -41q0 -14 4 -28l-85 -3q-9 13 -9 37q0 42 35 65t100 23q125 0 125 -97v-202q0 -26 29 -26q12 0 18 2v-51zM366 308h-318v48
h318v-48zM223 584q-12 -9 -32 -16q-28 -10 -38 -26.5t-10 -40.5q0 -30 8.5 -43t30.5 -13q40 0 40 62q0 46 1 77z" />
    <glyph glyph-name="guillemotleft" unicode="&#xab;" horiz-adv-x="557" 
d="M509 37l-226 168v132l226 168v-120l-146 -114l146 -114v-120zM268 37l-226 168v132l226 168v-120l-146 -114l146 -114v-120z" />
    <glyph glyph-name="logicalnot" unicode="&#xac;" 
d="M426 352q0 -136 -57 -232.5t-138 -96.5q-80 0 -138 96.5t-58 232.5q0 137 58 234.5t138 97.5q81 0 138 -97.5t57 -234.5zM400 268l-83 111l39 109l-76 -8l-53 136l-39 -148l-90 -13l68 -80l-92 -86l119 -18l44 -180l51 170z" />
    <glyph glyph-name="registered" unicode="&#xae;" horiz-adv-x="695" 
d="M660 447q0 -129 -92 -222t-220 -93q-129 0 -221 93t-92 222t92 221.5t221 92.5t220.5 -92.5t91.5 -221.5zM613 447q0 111 -77.5 191.5t-187.5 80.5q-111 0 -189 -80.5t-78 -191.5q0 -113 78 -192.5t189 -79.5q110 0 187.5 79.5t77.5 192.5zM471 531q0 -88 -80 -97
q46 -5 58 -35t12 -109q0 -36 6 -45h-78q-7 14 -7 49v67q0 41 -32 41h-40v-157h-77v404h131q107 0 107 -118zM387 527q0 66 -38 66h-39v-131h40q37 0 37 65z" />
    <glyph glyph-name="macron" unicode="&#xaf;" horiz-adv-x="370" 
d="M315 622h-262v76h262v-76z" />
    <glyph glyph-name="degree" unicode="&#xb0;" horiz-adv-x="366" 
d="M310 654q0 -52 -37.5 -89t-89.5 -37t-89.5 37t-37.5 89t37.5 89t89.5 37t89.5 -37t37.5 -89zM243 654q0 29 -17 47.5t-43 18.5t-43 -18.5t-17 -47.5t17 -47.5t43 -18.5t43 18.5t17 47.5z" />
    <glyph glyph-name="plusminus" unicode="&#xb1;" horiz-adv-x="719" 
d="M689 0h-135v479h-115v-479h-135v479h-115v-479h-135v479h-55v82h55q-1 12 -1 89q0 64 41 97t114 33q90 0 127 -42q36 42 123 42q42 0 80 -12h151v-768zM554 561v55q0 41 -21 62.5t-53 21.5q-30 0 -41.5 -10.5t-11.5 -37.5q0 -63 5 -91h122zM304 561q-1 17 -1 57t-20.5 61
t-52.5 21q-30 0 -41.5 -10.5t-11.5 -37.5q0 -63 5 -91h122z" />
    <glyph glyph-name="twosuperior" unicode="&#xb2;" 
d="M426 352q0 -136 -57 -232.5t-138 -96.5q-80 0 -138 96.5t-58 232.5q0 137 58 234.5t138 97.5q81 0 138 -97.5t57 -234.5zM400 268l-83 111l39 109l-76 -8l-53 136l-39 -148l-90 -13l68 -80l-92 -86l119 -18l44 -180l51 170z" />
    <glyph glyph-name="threesuperior" unicode="&#xb3;" 
d="M426 352q0 -136 -57 -232.5t-138 -96.5q-80 0 -138 96.5t-58 232.5q0 137 58 234.5t138 97.5q81 0 138 -97.5t57 -234.5zM400 268l-83 111l39 109l-76 -8l-53 136l-39 -148l-90 -13l68 -80l-92 -86l119 -18l44 -180l51 170z" />
    <glyph glyph-name="acute" unicode="&#xb4;" horiz-adv-x="370" 
d="M300 730l-147 -125h-77l61 125h163z" />
    <glyph glyph-name="mu" unicode="&#xb5;" 
d="M426 352q0 -136 -57 -232.5t-138 -96.5q-80 0 -138 96.5t-58 232.5q0 137 58 234.5t138 97.5q81 0 138 -97.5t57 -234.5zM400 268l-83 111l39 109l-76 -8l-53 136l-39 -148l-90 -13l68 -80l-92 -86l119 -18l44 -180l51 170z" />
    <glyph glyph-name="paragraph" unicode="&#xb6;" horiz-adv-x="546" 
d="M490 -24h-85v725h-46v-725h-85v298q-115 0 -179.5 59.5t-64.5 183.5q0 133 57 192t141 59h262v-792zM274 342v359q-38 0 -53.5 -36.5t-15.5 -148.5q0 -71 8 -108.5t21.5 -49.5t39.5 -16z" />
    <glyph glyph-name="periodcentered" unicode="&#xb7;" horiz-adv-x="292" 
d="M244 398q0 -42 -29 -72t-69 -30t-69 30t-29 72t29 72t69 30t69 -30t29 -72z" />
    <glyph glyph-name="cedilla" unicode="&#xb8;" horiz-adv-x="370" 
d="M308 -106q0 -41 -33 -65.5t-92 -24.5q-94 0 -138 36l34 52q44 -30 101 -30q34 0 34 29q0 31 -36 31q-20 0 -41 -7l19 65h41q51 0 81 -24t30 -62z" />
    <glyph glyph-name="onesuperior" unicode="&#xb9;" 
d="M426 352q0 -136 -57 -232.5t-138 -96.5q-80 0 -138 96.5t-58 232.5q0 137 58 234.5t138 97.5q81 0 138 -97.5t57 -234.5zM400 268l-83 111l39 109l-76 -8l-53 136l-39 -148l-90 -13l68 -80l-92 -86l119 -18l44 -180l51 170z" />
    <glyph glyph-name="ordmasculine" unicode="&#xba;" horiz-adv-x="430" 
d="M356 579q0 -103 -35 -146t-114 -43q-77 0 -112.5 43.5t-35.5 145.5q0 104 34.5 152.5t113.5 48.5q78 0 113.5 -50t35.5 -151zM366 308h-318v48h318v-48zM253 580q0 88 -9.5 116t-36.5 28q-26 0 -35.5 -28t-9.5 -116q0 -83 9.5 -109t35.5 -26q28 0 37 25.5t9 109.5z" />
    <glyph glyph-name="guillemotright" unicode="&#xbb;" horiz-adv-x="557" 
d="M515 205l-226 -168v120l146 114l-146 114v120l226 -168v-132zM274 205l-226 -168v120l146 114l-146 114v120l226 -168v-132z" />
    <glyph glyph-name="onequarter" unicode="&#xbc;" 
d="M426 352q0 -136 -57 -232.5t-138 -96.5q-80 0 -138 96.5t-58 232.5q0 137 58 234.5t138 97.5q81 0 138 -97.5t57 -234.5zM400 268l-83 111l39 109l-76 -8l-53 136l-39 -148l-90 -13l68 -80l-92 -86l119 -18l44 -180l51 170z" />
    <glyph glyph-name="onehalf" unicode="&#xbd;" 
d="M426 352q0 -136 -57 -232.5t-138 -96.5q-80 0 -138 96.5t-58 232.5q0 137 58 234.5t138 97.5q81 0 138 -97.5t57 -234.5zM400 268l-83 111l39 109l-76 -8l-53 136l-39 -148l-90 -13l68 -80l-92 -86l119 -18l44 -180l51 170z" />
    <glyph glyph-name="threequarters" unicode="&#xbe;" 
d="M426 352q0 -136 -57 -232.5t-138 -96.5q-80 0 -138 96.5t-58 232.5q0 137 58 234.5t138 97.5q81 0 138 -97.5t57 -234.5zM400 268l-83 111l39 109l-76 -8l-53 136l-39 -148l-90 -13l68 -80l-92 -86l119 -18l44 -180l51 170z" />
    <glyph glyph-name="questiondown" unicode="&#xbf;" horiz-adv-x="439" 
d="M383 598h-149v170h149v-170zM404 139q0 -68 -45 -109.5t-137 -41.5t-139.5 58.5t-47.5 187.5q0 133 36 185t103 52q57 0 88 -42v105h103v-244h-94q-8 40 -19 54t-32 14t-29.5 -24t-8.5 -99q0 -88 10.5 -115.5t40.5 -27.5q22 0 31.5 15.5t9.5 49.5q0 28 -6 50l127 -1
q9 -25 9 -67z" />
    <glyph glyph-name="Agrave" unicode="&#xc0;" horiz-adv-x="454" 
d="M454 0h-154l-26 141h-111l-24 -141h-139l147 771h148zM255 247q-14 105 -26 199q-7 58 -12 118q-6 -80 -11 -117l-25 -200h74zM277 794h-77l-147 125h163z" />
    <glyph glyph-name="Aacute" unicode="&#xc1;" horiz-adv-x="454" 
d="M454 0h-154l-26 141h-111l-24 -141h-139l147 771h148zM255 247q-14 105 -26 199q-7 58 -12 118q-6 -80 -11 -117l-25 -200h74zM389 919l-147 -125h-77l61 125h163z" />
    <glyph glyph-name="Acircumflex" unicode="&#xc2;" horiz-adv-x="454" 
d="M454 0h-154l-26 141h-111l-24 -141h-139l147 771h148zM255 247q-14 105 -26 199q-7 58 -12 118q-6 -80 -11 -117l-25 -200h74zM365 794h-77l-67 49l-65 -49h-78l83 114h122z" />
    <glyph glyph-name="Atilde" unicode="&#xc3;" horiz-adv-x="454" 
d="M454 0h-154l-26 141h-111l-24 -141h-139l147 771h148zM255 247q-14 105 -26 199q-7 58 -12 118q-6 -80 -11 -117l-25 -200h74zM363 862q0 -29 -19.5 -48.5t-63.5 -19.5q-35 0 -73 22q-2 2 -9 6t-9 6q-17 12 -34 12q-32 0 -23 -38h-49q-10 20 -10 44q0 68 77 68
q39 0 77 -25q15 -10 20 -13q17 -10 33 -10q20 0 24.5 16t-1.5 25h49q11 -18 11 -45z" />
    <glyph glyph-name="Adieresis" unicode="&#xc4;" horiz-adv-x="454" 
d="M454 0h-154l-26 141h-111l-24 -141h-139l147 771h148zM255 247q-14 105 -26 199q-7 58 -12 118q-6 -80 -11 -117l-25 -200h74zM389 794h-117v121h117v-121zM172 794h-115v121h115v-121z" />
    <glyph glyph-name="Aring" unicode="&#xc5;" horiz-adv-x="454" 
d="M454 0h-154l-26 141h-111l-24 -141h-139l141 741q-20 13 -32 39.5t-12 53.5q0 52 36 88t88 36q51 0 87.5 -36t36.5 -88q0 -60 -44 -94zM283 834q0 26 -18.5 45t-43.5 19q-26 0 -44.5 -19t-18.5 -45t18.5 -44.5t44.5 -18.5q25 0 43.5 18.5t18.5 44.5zM255 247
q-14 105 -26 199q-7 58 -12 118q-6 -80 -11 -117l-25 -200h74z" />
    <glyph glyph-name="AE" unicode="&#xc6;" horiz-adv-x="699" 
d="M681 0h-363v141h-134l-40 -141h-147l252 768h410v-120h-195v-193h173v-123h-173v-211h217v-121zM320 625q-4 -16 -9.5 -35.5t-6.5 -22.5l-85 -315h99v309q0 34 2 64z" />
    <glyph glyph-name="Ccedilla" unicode="&#xc7;" horiz-adv-x="469" 
d="M451 248q0 -136 -43.5 -199t-153.5 -63q-130 0 -178.5 83t-48.5 302q0 228 47 318.5t174 90.5q51 0 87.5 -13t57 -33.5t32.5 -53t15.5 -63t3.5 -72.5q0 -32 -4 -62l-136 -4q3 30 3 60q0 76 -12.5 110.5t-46.5 34.5q-23 0 -35.5 -11.5t-21 -47t-11 -92t-2.5 -156.5
q0 -186 12.5 -238.5t62.5 -52.5q39 0 52 37.5t13 114.5q0 44 -4 79l133 -4q4 -27 4 -65zM366 -106q0 -41 -33 -65.5t-92 -24.5q-94 0 -138 36l34 52q44 -30 101 -30q34 0 34 29q0 31 -36 31q-20 0 -41 -7l19 65h41q51 0 81 -24t30 -62z" />
    <glyph glyph-name="Egrave" unicode="&#xc8;" horiz-adv-x="419" 
d="M401 0h-353v768h331v-120h-185v-193h163v-123h-163v-211h207v-121zM326 791h-77l-147 125h163z" />
    <glyph glyph-name="Eacute" unicode="&#xc9;" horiz-adv-x="419" 
d="M401 0h-353v768h331v-120h-185v-193h163v-123h-163v-211h207v-121zM327 916l-147 -125h-77l61 125h163z" />
    <glyph glyph-name="Ecircumflex" unicode="&#xca;" horiz-adv-x="419" 
d="M401 0h-353v768h331v-120h-185v-193h163v-123h-163v-211h207v-121zM357 791h-77l-67 49l-65 -49h-78l83 114h122z" />
    <glyph glyph-name="Edieresis" unicode="&#xcb;" horiz-adv-x="419" 
d="M401 0h-353v768h331v-120h-185v-193h163v-123h-163v-211h207v-121zM380 791h-117v121h117v-121zM163 791h-115v121h115v-121z" />
    <glyph glyph-name="Igrave" unicode="&#xcc;" horiz-adv-x="242" 
d="M194 0h-146v768h146v-768zM184 791h-77l-147 125h163z" />
    <glyph glyph-name="Iacute" unicode="&#xcd;" horiz-adv-x="242" 
d="M194 0h-146v768h146v-768zM282 916l-147 -125h-77l61 125h163z" />
    <glyph glyph-name="Icircumflex" unicode="&#xce;" horiz-adv-x="242" 
d="M194 0h-146v768h146v-768zM264 791h-77l-67 49l-65 -49h-78l83 114h122z" />
    <glyph glyph-name="Idieresis" unicode="&#xcf;" horiz-adv-x="242" 
d="M194 0h-146v768h146v-768zM286 791h-117v121h117v-121zM69 791h-115v121h115v-121z" />
    <glyph glyph-name="Eth" unicode="&#xd0;" horiz-adv-x="497" 
d="M473 354q0 -194 -52 -274t-178 -80h-195v334h-41v119h41v315h186q127 0 183 -93t56 -321zM322 356q0 124 -11 191t-33.5 93t-63.5 26h-22v-213h67v-119h-67v-228h29q42 0 62.5 18.5t29.5 71t9 160.5z" />
    <glyph glyph-name="Ntilde" unicode="&#xd1;" horiz-adv-x="501" 
d="M456 0h-124q-74 211 -125 355q-20 56 -32 104q6 -81 6 -151v-308h-133v768h128q73 -215 123 -346q18 -48 29 -99q-5 62 -5 161v284h133v-768zM401 859q0 -29 -19.5 -48.5t-63.5 -19.5q-35 0 -73 22q-2 1 -9 5.5t-9 6.5q-17 12 -34 12q-32 0 -23 -38h-49q-10 20 -10 44
q0 68 77 68q39 0 77 -25q15 -10 20 -13q17 -10 33 -10q20 0 24.5 16t-1.5 25h49q11 -18 11 -45z" />
    <glyph glyph-name="Ograve" unicode="&#xd2;" horiz-adv-x="501" 
d="M474 383q0 -158 -24.5 -245t-71.5 -119.5t-128 -32.5q-82 0 -128 31t-70.5 118t-24.5 248q0 156 24.5 243t71 120.5t127.5 33.5t128 -34t71.5 -121t24.5 -242zM323 383q0 181 -12.5 241t-60.5 60t-60 -59.5t-12 -241.5q0 -64 1 -104t3.5 -76.5t7 -56t13 -35t19.5 -20.5
t28 -5q48 0 60.5 56.5t12.5 240.5zM308 800h-77l-147 125h163z" />
    <glyph glyph-name="Oacute" unicode="&#xd3;" horiz-adv-x="501" 
d="M474 383q0 -158 -24.5 -245t-71.5 -119.5t-128 -32.5q-82 0 -128 31t-70.5 118t-24.5 248q0 156 24.5 243t71 120.5t127.5 33.5t128 -34t71.5 -121t24.5 -242zM323 383q0 181 -12.5 241t-60.5 60t-60 -59.5t-12 -241.5q0 -64 1 -104t3.5 -76.5t7 -56t13 -35t19.5 -20.5
t28 -5q48 0 60.5 56.5t12.5 240.5zM416 925l-147 -125h-77l61 125h163z" />
    <glyph glyph-name="Ocircumflex" unicode="&#xd4;" horiz-adv-x="501" 
d="M474 383q0 -158 -24.5 -245t-71.5 -119.5t-128 -32.5q-82 0 -128 31t-70.5 118t-24.5 248q0 156 24.5 243t71 120.5t127.5 33.5t128 -34t71.5 -121t24.5 -242zM323 383q0 181 -12.5 241t-60.5 60t-60 -59.5t-12 -241.5q0 -64 1 -104t3.5 -76.5t7 -56t13 -35t19.5 -20.5
t28 -5q48 0 60.5 56.5t12.5 240.5zM393 800h-77l-67 49l-65 -49h-78l83 114h122z" />
    <glyph glyph-name="Otilde" unicode="&#xd5;" horiz-adv-x="501" 
d="M474 383q0 -158 -24.5 -245t-71.5 -119.5t-128 -32.5q-82 0 -128 31t-70.5 118t-24.5 248q0 156 24.5 243t71 120.5t127.5 33.5t128 -34t71.5 -121t24.5 -242zM323 383q0 181 -12.5 241t-60.5 60t-60 -59.5t-12 -241.5q0 -64 1 -104t3.5 -76.5t7 -56t13 -35t19.5 -20.5
t28 -5q48 0 60.5 56.5t12.5 240.5zM393 868q0 -29 -19.5 -48.5t-63.5 -19.5q-35 0 -73 22q-2 1 -9 5.5t-9 6.5q-17 12 -34 12q-32 0 -23 -38h-49q-10 20 -10 44q0 68 77 68q39 0 77 -25q15 -10 20 -13q17 -10 33 -10q20 0 24.5 16t-1.5 25h49q11 -18 11 -45z" />
    <glyph glyph-name="Odieresis" unicode="&#xd6;" horiz-adv-x="501" 
d="M474 383q0 -158 -24.5 -245t-71.5 -119.5t-128 -32.5q-82 0 -128 31t-70.5 118t-24.5 248q0 156 24.5 243t71 120.5t127.5 33.5t128 -34t71.5 -121t24.5 -242zM323 383q0 181 -12.5 241t-60.5 60t-60 -59.5t-12 -241.5q0 -64 1 -104t3.5 -76.5t7 -56t13 -35t19.5 -20.5
t28 -5q48 0 60.5 56.5t12.5 240.5zM418 800h-117v121h117v-121zM201 800h-115v121h115v-121z" />
    <glyph glyph-name="multiply" unicode="&#xd7;" 
d="M426 352q0 -136 -57 -232.5t-138 -96.5q-80 0 -138 96.5t-58 232.5q0 137 58 234.5t138 97.5q81 0 138 -97.5t57 -234.5zM400 268l-83 111l39 109l-76 -8l-53 136l-39 -148l-90 -13l68 -80l-92 -86l119 -18l44 -180l51 170z" />
    <glyph glyph-name="Oslash" unicode="&#xd8;" horiz-adv-x="501" 
d="M491 780l-58 -108q41 -87 41 -289q0 -158 -24.5 -245t-71.5 -119.5t-128 -32.5q-104 0 -152 53l-27 -50h-61l55 104q-38 89 -38 290q0 156 24.5 243t71 120.5t127.5 33.5q103 0 150 -55l30 55h61zM319 570q-4 61 -20.5 87.5t-48.5 26.5q-48 0 -60 -59.5t-12 -241.5
q0 -14 -1 -39.5t0 -40.5zM323 383v80l-140 -264q5 -62 20 -87.5t47 -25.5q47 0 60 57.5t13 239.5z" />
    <glyph glyph-name="Ugrave" unicode="&#xd9;" horiz-adv-x="498" 
d="M453 204q0 -107 -46 -162.5t-158 -55.5t-158 55.5t-46 162.5v564h146v-555q0 -61 11 -87.5t47 -26.5q35 0 46.5 28t11.5 86v555h146v-564zM350 791h-77l-147 125h163z" />
    <glyph glyph-name="Uacute" unicode="&#xda;" horiz-adv-x="498" 
d="M453 204q0 -107 -46 -162.5t-158 -55.5t-158 55.5t-46 162.5v564h146v-555q0 -61 11 -87.5t47 -26.5q35 0 46.5 28t11.5 86v555h146v-564zM369 916l-147 -125h-77l61 125h163z" />
    <glyph glyph-name="Ucircumflex" unicode="&#xdb;" horiz-adv-x="498" 
d="M453 204q0 -107 -46 -162.5t-158 -55.5t-158 55.5t-46 162.5v564h146v-555q0 -61 11 -87.5t47 -26.5q35 0 46.5 28t11.5 86v555h146v-564zM392 791h-77l-67 49l-65 -49h-78l83 114h122z" />
    <glyph glyph-name="Udieresis" unicode="&#xdc;" horiz-adv-x="498" 
d="M453 204q0 -107 -46 -162.5t-158 -55.5t-158 55.5t-46 162.5v564h146v-555q0 -61 11 -87.5t47 -26.5q35 0 46.5 28t11.5 86v555h146v-564zM417 791h-117v121h117v-121zM200 791h-115v121h115v-121z" />
    <glyph glyph-name="Yacute" unicode="&#xdd;" horiz-adv-x="453" 
d="M453 768l-152 -465v-303h-146v303l-155 465h151l84 -297l81 297h137zM396 916l-147 -125h-77l61 125h163z" />
    <glyph glyph-name="Thorn" unicode="&#xde;" horiz-adv-x="471" 
d="M449 391q0 -131 -46.5 -184.5t-147.5 -53.5h-61v-153h-146v768h146v-142h47q107 0 157.5 -55t50.5 -180zM298 389q0 76 -17 105.5t-64 29.5h-23v-265h40q39 0 51.5 28.5t12.5 101.5z" />
    <glyph glyph-name="germandbls" unicode="&#xdf;" horiz-adv-x="476" 
d="M452 217q0 -121 -45.5 -169t-152.5 -48h-26v91q49 0 64 25t15 112q0 70 -19 99t-60 29v100q36 0 50 27t14 95q0 60 -11.5 82t-43.5 22q-30 0 -42 -19.5t-12 -60.5v-602h-135v581q0 104 45.5 151.5t147.5 47.5q183 0 183 -206q0 -140 -95 -160q60 -11 91.5 -57t31.5 -140z
" />
    <glyph glyph-name="agrave" unicode="&#xe0;" horiz-adv-x="436" 
d="M434 11q-40 -19 -81 -19q-70 0 -81 56q-37 -59 -114 -59q-68 0 -102.5 39.5t-34.5 129.5q0 72 31.5 110.5t91.5 53.5q3 1 17 4.5t16 4.5q39 11 55 28.5t16 47.5q0 19 -0.5 27t-2.5 22t-6.5 19.5t-14 10.5t-23.5 5q-28 0 -36 -13.5t-8 -45.5q0 -21 6 -45l-116 -5
q-10 28 -10 59q0 132 168 132q94 0 135 -34.5t41 -116.5v-296q0 -20 6.5 -29.5t27.5 -9.5q12 0 19 3v-79zM247 156v116q-10 -9 -37 -21q-35 -15 -44 -34.5t-9 -65.5q0 -40 9.5 -56.5t32.5 -16.5q48 0 48 78zM299 626h-77l-147 125h163z" />
    <glyph glyph-name="aacute" unicode="&#xe1;" horiz-adv-x="436" 
d="M434 11q-40 -19 -81 -19q-70 0 -81 56q-37 -59 -114 -59q-68 0 -102.5 39.5t-34.5 129.5q0 72 31.5 110.5t91.5 53.5q3 1 17 4.5t16 4.5q39 11 55 28.5t16 47.5q0 19 -0.5 27t-2.5 22t-6.5 19.5t-14 10.5t-23.5 5q-28 0 -36 -13.5t-8 -45.5q0 -21 6 -45l-116 -5
q-10 28 -10 59q0 132 168 132q94 0 135 -34.5t41 -116.5v-296q0 -20 6.5 -29.5t27.5 -9.5q12 0 19 3v-79zM247 156v116q-10 -9 -37 -21q-35 -15 -44 -34.5t-9 -65.5q0 -40 9.5 -56.5t32.5 -16.5q48 0 48 78zM373 751l-147 -125h-77l61 125h163z" />
    <glyph glyph-name="acircumflex" unicode="&#xe2;" horiz-adv-x="436" 
d="M434 11q-40 -19 -81 -19q-70 0 -81 56q-37 -59 -114 -59q-68 0 -102.5 39.5t-34.5 129.5q0 72 31.5 110.5t91.5 53.5q3 1 17 4.5t16 4.5q39 11 55 28.5t16 47.5q0 19 -0.5 27t-2.5 22t-6.5 19.5t-14 10.5t-23.5 5q-28 0 -36 -13.5t-8 -45.5q0 -21 6 -45l-116 -5
q-10 28 -10 59q0 132 168 132q94 0 135 -34.5t41 -116.5v-296q0 -20 6.5 -29.5t27.5 -9.5q12 0 19 3v-79zM247 156v116q-10 -9 -37 -21q-35 -15 -44 -34.5t-9 -65.5q0 -40 9.5 -56.5t32.5 -16.5q48 0 48 78zM356 626h-77l-67 49l-65 -49h-78l83 114h122z" />
    <glyph glyph-name="atilde" unicode="&#xe3;" horiz-adv-x="436" 
d="M434 11q-40 -19 -81 -19q-70 0 -81 56q-37 -59 -114 -59q-68 0 -102.5 39.5t-34.5 129.5q0 72 31.5 110.5t91.5 53.5q3 1 17 4.5t16 4.5q39 11 55 28.5t16 47.5q0 19 -0.5 27t-2.5 22t-6.5 19.5t-14 10.5t-23.5 5q-28 0 -36 -13.5t-8 -45.5q0 -21 6 -45l-116 -5
q-10 28 -10 59q0 132 168 132q94 0 135 -34.5t41 -116.5v-296q0 -20 6.5 -29.5t27.5 -9.5q12 0 19 3v-79zM247 156v116q-10 -9 -37 -21q-35 -15 -44 -34.5t-9 -65.5q0 -40 9.5 -56.5t32.5 -16.5q48 0 48 78zM359 694q0 -29 -19.5 -48.5t-63.5 -19.5q-35 0 -73 22
q-2 1 -9 5.5t-9 6.5q-17 12 -34 12q-32 0 -23 -38h-49q-10 20 -10 44q0 68 77 68q39 0 77 -25q15 -10 20 -13q17 -10 33 -10q20 0 24.5 16t-1.5 25h49q11 -18 11 -45z" />
    <glyph glyph-name="adieresis" unicode="&#xe4;" horiz-adv-x="436" 
d="M434 11q-40 -19 -81 -19q-70 0 -81 56q-37 -59 -114 -59q-68 0 -102.5 39.5t-34.5 129.5q0 72 31.5 110.5t91.5 53.5q3 1 17 4.5t16 4.5q39 11 55 28.5t16 47.5q0 19 -0.5 27t-2.5 22t-6.5 19.5t-14 10.5t-23.5 5q-28 0 -36 -13.5t-8 -45.5q0 -21 6 -45l-116 -5
q-10 28 -10 59q0 132 168 132q94 0 135 -34.5t41 -116.5v-296q0 -20 6.5 -29.5t27.5 -9.5q12 0 19 3v-79zM247 156v116q-10 -9 -37 -21q-35 -15 -44 -34.5t-9 -65.5q0 -40 9.5 -56.5t32.5 -16.5q48 0 48 78zM378 626h-117v121h117v-121zM161 626h-115v121h115v-121z" />
    <glyph glyph-name="aring" unicode="&#xe5;" horiz-adv-x="436" 
d="M434 11q-40 -19 -81 -19q-70 0 -81 56q-37 -59 -114 -59q-68 0 -102.5 39.5t-34.5 129.5q0 72 31.5 110.5t91.5 53.5q3 1 17 4.5t16 4.5q39 11 55 28.5t16 47.5q0 19 -0.5 27t-2.5 22t-6.5 19.5t-14 10.5t-23.5 5q-28 0 -36 -13.5t-8 -45.5q0 -21 6 -45l-116 -5
q-10 28 -10 59q0 132 168 132q94 0 135 -34.5t41 -116.5v-296q0 -20 6.5 -29.5t27.5 -9.5q12 0 19 3v-79zM247 156v116q-10 -9 -37 -21q-35 -15 -44 -34.5t-9 -65.5q0 -40 9.5 -56.5t32.5 -16.5q48 0 48 78zM332 720q0 -51 -36.5 -87.5t-87.5 -36.5q-52 0 -88 36.5t-36 87.5
q0 52 36 88t88 36q51 0 87.5 -36t36.5 -88zM270 720q0 26 -18.5 45t-43.5 19q-26 0 -44.5 -19t-18.5 -45t18.5 -44.5t44.5 -18.5q25 0 43.5 18.5t18.5 44.5z" />
    <glyph glyph-name="ae" unicode="&#xe6;" horiz-adv-x="640" 
d="M617 141q0 -152 -167 -152q-59 0 -95 16t-58 56q-35 -72 -139 -72q-68 0 -102.5 39.5t-34.5 129.5q0 72 31.5 110.5t91.5 53.5q3 1 17 4.5t16 4.5q81 23 81 76q0 40 -12 62t-45 22q-28 0 -36 -13.5t-8 -45.5q0 -21 6 -45l-116 -5q-10 28 -10 59q0 132 168 132
q96 0 127 -44q35 44 113 44q88 0 129.5 -65.5t41.5 -199.5q0 -30 -4 -54h-227v-29q0 -81 13.5 -113t49.5 -32q29 0 39 18t10 69q0 24 -1 32l117 -6q4 -19 4 -52zM491 363q0 68 -9 94t-38 26q-33 0 -45 -33.5t-14 -114.5h105q1 7 1 28zM257 156v123q-8 -11 -47 -28
q-35 -15 -44 -34.5t-9 -65.5q0 -40 9.5 -56.5t32.5 -16.5q29 0 43.5 23t14.5 55z" />
    <glyph glyph-name="ccedilla" unicode="&#xe7;" horiz-adv-x="400" 
d="M380 155q0 -166 -170 -166q-105 0 -146 63t-41 221q0 89 13 149t39 92.5t59 45.5t80 13q84 0 119.5 -42t35.5 -123q0 -41 -3 -55l-123 -4q4 18 4 47q0 49 -7 69t-30 20q-20 0 -30.5 -16t-15.5 -58.5t-5 -124.5q0 -132 9.5 -169t44.5 -37q26 0 34.5 24t8.5 77q0 23 -4 59
l119 -5q9 -34 9 -80zM330 -106q0 -41 -33 -65.5t-92 -24.5q-94 0 -138 36l34 52q44 -30 101 -30q34 0 34 29q0 31 -36 31q-20 0 -41 -7l19 65h41q51 0 81 -24t30 -62z" />
    <glyph glyph-name="egrave" unicode="&#xe8;" horiz-adv-x="404" 
d="M381 141q0 -152 -167 -152q-105 0 -148 60.5t-43 214.5q0 173 45.5 241t140.5 68q90 0 130.5 -64.5t40.5 -200.5q0 -30 -4 -54h-217v-29q0 -85 9.5 -115t43.5 -30q31 0 40 20t9 67q0 24 -1 32l117 -6q4 -19 4 -52zM255 363q0 64 -9 92t-38 28q-16 0 -25 -8t-14 -29
t-7 -44t-3 -67h95q1 7 1 28zM290 626h-77l-147 125h163z" />
    <glyph glyph-name="eacute" unicode="&#xe9;" horiz-adv-x="404" 
d="M381 141q0 -152 -167 -152q-105 0 -148 60.5t-43 214.5q0 173 45.5 241t140.5 68q90 0 130.5 -64.5t40.5 -200.5q0 -30 -4 -54h-217v-29q0 -85 9.5 -115t43.5 -30q31 0 40 20t9 67q0 24 -1 32l117 -6q4 -19 4 -52zM255 363q0 64 -9 92t-38 28q-16 0 -25 -8t-14 -29
t-7 -44t-3 -67h95q1 7 1 28zM348 751l-147 -125h-77l61 125h163z" />
    <glyph glyph-name="ecircumflex" unicode="&#xea;" horiz-adv-x="404" 
d="M381 141q0 -152 -167 -152q-105 0 -148 60.5t-43 214.5q0 173 45.5 241t140.5 68q90 0 130.5 -64.5t40.5 -200.5q0 -30 -4 -54h-217v-29q0 -85 9.5 -115t43.5 -30q31 0 40 20t9 67q0 24 -1 32l117 -6q4 -19 4 -52zM255 363q0 64 -9 92t-38 28q-16 0 -25 -8t-14 -29
t-7 -44t-3 -67h95q1 7 1 28zM348 626h-77l-67 49l-65 -49h-78l83 114h122z" />
    <glyph glyph-name="edieresis" unicode="&#xeb;" horiz-adv-x="404" 
d="M381 141q0 -152 -167 -152q-105 0 -148 60.5t-43 214.5q0 173 45.5 241t140.5 68q90 0 130.5 -64.5t40.5 -200.5q0 -30 -4 -54h-217v-29q0 -85 9.5 -115t43.5 -30q31 0 40 20t9 67q0 24 -1 32l117 -6q4 -19 4 -52zM255 363q0 64 -9 92t-38 28q-16 0 -25 -8t-14 -29
t-7 -44t-3 -67h95q1 7 1 28zM373 626h-117v121h117v-121zM156 626h-115v121h115v-121z" />
    <glyph glyph-name="igrave" unicode="&#xec;" horiz-adv-x="215" 
d="M175 0h-135v561h135v-561zM165 610h-77l-147 125h163z" />
    <glyph glyph-name="iacute" unicode="&#xed;" horiz-adv-x="215" 
d="M175 0h-135v561h135v-561zM274 735l-147 -125h-77l61 125h163z" />
    <glyph glyph-name="icircumflex" unicode="&#xee;" horiz-adv-x="215" 
d="M175 0h-135v561h135v-561zM251 610h-77l-67 49l-65 -49h-78l83 114h122z" />
    <glyph glyph-name="idieresis" unicode="&#xef;" horiz-adv-x="215" 
d="M175 0h-135v561h135v-561zM275 610h-117v121h117v-121zM58 610h-115v121h115v-121z" />
    <glyph glyph-name="eth" unicode="&#xf0;" horiz-adv-x="431" 
d="M429 708q0 -25 -17.5 -41t-48.5 -16q40 -100 40 -361q0 -173 -41 -237t-149 -64q-106 0 -148 61t-42 213q0 149 43.5 216t146.5 67q41 0 63 -18q0 31 -7 65t-14 48q-11 5 -18 3q-18 -4 -18 -19q0 -14 15 -25l-42 -21q-32 22 -32 63q0 18 13.5 31.5t32.5 17.5q18 3 30 -4
q-16 31 -58 31q-40 0 -77 -31l-45 68q54 42 135 42q105 0 152 -92q9 -6 17 -4q16 4 16 18q0 25 -22 40l36 18q12 -5 25.5 -24t13.5 -45zM267 263q0 120 -10 157.5t-44 37.5t-44 -37t-10 -158q0 -113 10.5 -148t43.5 -35q23 0 34 14t15.5 52t4.5 117z" />
    <glyph glyph-name="ntilde" unicode="&#xf1;" horiz-adv-x="435" 
d="M397 0h-135v397v28.5t-2 19.5t-5.5 15.5t-11 7t-18.5 3.5q-50 0 -50 -117v-354h-135v561h131v-69q33 81 112 81q114 0 114 -126v-447zM364 678q0 -29 -19.5 -48.5t-63.5 -19.5q-35 0 -73 22q-2 2 -9 6.5t-9 5.5q-17 12 -34 12q-32 0 -23 -38h-49q-10 20 -10 44
q0 68 77 68q39 0 77 -25q15 -10 20 -13q17 -10 33 -10q20 0 24.5 16t-1.5 25h49q11 -18 11 -45z" />
    <glyph glyph-name="ograve" unicode="&#xf2;" horiz-adv-x="426" 
d="M403 272q0 -159 -42.5 -221t-147.5 -62t-147.5 62t-42.5 221q0 161 43.5 231t146.5 70t146.5 -69.5t43.5 -231.5zM267 272q0 71 -2 110t-8 63.5t-16 32t-28 7.5t-28 -7.5t-16 -32t-8 -63.5t-2 -110q0 -123 9.5 -157.5t44.5 -34.5q22 0 33 14t16 54.5t5 123.5zM303 626
h-77l-147 125h163z" />
    <glyph glyph-name="oacute" unicode="&#xf3;" horiz-adv-x="426" 
d="M403 272q0 -159 -42.5 -221t-147.5 -62t-147.5 62t-42.5 221q0 161 43.5 231t146.5 70t146.5 -69.5t43.5 -231.5zM267 272q0 71 -2 110t-8 63.5t-16 32t-28 7.5t-28 -7.5t-16 -32t-8 -63.5t-2 -110q0 -123 9.5 -157.5t44.5 -34.5q22 0 33 14t16 54.5t5 123.5zM354 751
l-147 -125h-77l61 125h163z" />
    <glyph glyph-name="ocircumflex" unicode="&#xf4;" horiz-adv-x="426" 
d="M403 272q0 -159 -42.5 -221t-147.5 -62t-147.5 62t-42.5 221q0 161 43.5 231t146.5 70t146.5 -69.5t43.5 -231.5zM267 272q0 71 -2 110t-8 63.5t-16 32t-28 7.5t-28 -7.5t-16 -32t-8 -63.5t-2 -110q0 -123 9.5 -157.5t44.5 -34.5q22 0 33 14t16 54.5t5 123.5zM358 626
h-77l-67 49l-65 -49h-78l83 114h122z" />
    <glyph glyph-name="otilde" unicode="&#xf5;" horiz-adv-x="426" 
d="M403 272q0 -159 -42.5 -221t-147.5 -62t-147.5 62t-42.5 221q0 161 43.5 231t146.5 70t146.5 -69.5t43.5 -231.5zM267 272q0 71 -2 110t-8 63.5t-16 32t-28 7.5t-28 -7.5t-16 -32t-8 -63.5t-2 -110q0 -123 9.5 -157.5t44.5 -34.5q22 0 33 14t16 54.5t5 123.5zM357 694
q0 -29 -19.5 -48.5t-63.5 -19.5q-35 0 -73 22q-2 1 -9 5.5t-9 6.5q-17 12 -34 12q-32 0 -23 -38h-49q-10 20 -10 44q0 68 77 68q39 0 77 -25q15 -10 20 -13q17 -10 33 -10q20 0 24.5 16t-1.5 25h49q11 -18 11 -45z" />
    <glyph glyph-name="odieresis" unicode="&#xf6;" horiz-adv-x="426" 
d="M403 272q0 -159 -42.5 -221t-147.5 -62t-147.5 62t-42.5 221q0 161 43.5 231t146.5 70t146.5 -69.5t43.5 -231.5zM267 272q0 71 -2 110t-8 63.5t-16 32t-28 7.5t-28 -7.5t-16 -32t-8 -63.5t-2 -110q0 -123 9.5 -157.5t44.5 -34.5q22 0 33 14t16 54.5t5 123.5zM379 626
h-117v121h117v-121zM162 626h-115v121h115v-121z" />
    <glyph glyph-name="divide" unicode="&#xf7;" 
d="M426 352q0 -136 -57 -232.5t-138 -96.5q-80 0 -138 96.5t-58 232.5q0 137 58 234.5t138 97.5q81 0 138 -97.5t57 -234.5zM400 268l-83 111l39 109l-76 -8l-53 136l-39 -148l-90 -13l68 -80l-92 -86l119 -18l44 -180l51 170z" />
    <glyph glyph-name="oslash" unicode="&#xf8;" horiz-adv-x="426" 
d="M410 573l-46 -80q39 -69 39 -221q0 -159 -42.5 -221t-147.5 -62q-78 0 -122 33l-21 -33h-60l46 80q-33 62 -33 203q0 161 43.5 231t146.5 70q73 0 117 -34l20 34h60zM262 423q-7 37 -17 49.5t-32 12.5q-34 0 -44 -39.5t-10 -173.5v-27zM267 272q0 34 -1 54l-103 -180
q3 -37 14.5 -51.5t35.5 -14.5q23 0 33.5 14t15.5 54t5 124z" />
    <glyph glyph-name="ugrave" unicode="&#xf9;" horiz-adv-x="431" 
d="M394 0h-129v69q-16 -41 -42 -60.5t-72 -19.5q-58 0 -86 31.5t-28 101.5v439h135v-394v-15.5v-14t0.5 -11.5t1 -11t2.5 -8t4.5 -7t6.5 -4.5t9 -3.5t12 -1q51 0 51 114v356h135v-561zM325 610h-77l-147 125h163z" />
    <glyph glyph-name="uacute" unicode="&#xfa;" horiz-adv-x="431" 
d="M394 0h-129v69q-16 -41 -42 -60.5t-72 -19.5q-58 0 -86 31.5t-28 101.5v439h135v-394v-15.5v-14t0.5 -11.5t1 -11t2.5 -8t4.5 -7t6.5 -4.5t9 -3.5t12 -1q51 0 51 114v356h135v-561zM336 735l-147 -125h-77l61 125h163z" />
    <glyph glyph-name="ucircumflex" unicode="&#xfb;" horiz-adv-x="431" 
d="M394 0h-129v69q-16 -41 -42 -60.5t-72 -19.5q-58 0 -86 31.5t-28 101.5v439h135v-394v-15.5v-14t0.5 -11.5t1 -11t2.5 -8t4.5 -7t6.5 -4.5t9 -3.5t12 -1q51 0 51 114v356h135v-561zM357 610h-77l-67 49l-65 -49h-78l83 114h122z" />
    <glyph glyph-name="udieresis" unicode="&#xfc;" horiz-adv-x="431" 
d="M394 0h-129v69q-16 -41 -42 -60.5t-72 -19.5q-58 0 -86 31.5t-28 101.5v439h135v-394v-15.5v-14t0.5 -11.5t1 -11t2.5 -8t4.5 -7t6.5 -4.5t9 -3.5t12 -1q51 0 51 114v356h135v-561zM382 610h-117v121h117v-121zM165 610h-115v121h115v-121z" />
    <glyph glyph-name="yacute" unicode="&#xfd;" horiz-adv-x="414" 
d="M414 561q-98 -446 -127 -564q-25 -100 -62.5 -137.5t-110.5 -37.5q-65 0 -103.5 30.5t-38.5 82.5q0 21 4 38l108 5q-4 -13 -4 -29q0 -32 35 -32q48 0 39 74l-154 570h142q42 -213 62 -312q3 -18 8.5 -43t8.5 -41q3 22 14 85l49 311h130zM366 735l-147 -125h-77l61 125
h163z" />
    <glyph glyph-name="thorn" unicode="&#xfe;" horiz-adv-x="440" 
d="M417 280q0 -84 -11.5 -142t-34.5 -90t-52.5 -45.5t-70.5 -13.5q-53 0 -76 54v-213h-132v938h132v-274q20 79 89 79q26 0 47.5 -7.5t42.5 -27.5t35 -52t22.5 -84.5t8.5 -121.5zM281 280q0 84 -5.5 125.5t-17.5 55.5t-35 14q-29 0 -41 -41.5t-12 -153.5q0 -114 12 -159
t44 -45q22 0 33 13.5t16.5 57.5t5.5 133z" />
    <glyph glyph-name="ydieresis" unicode="&#xff;" horiz-adv-x="414" 
d="M414 561q-98 -446 -127 -564q-25 -100 -62.5 -137.5t-110.5 -37.5q-65 0 -103.5 30.5t-38.5 82.5q0 21 4 38l108 5q-4 -13 -4 -29q0 -32 35 -32q48 0 39 74l-154 570h142q42 -213 62 -312q3 -18 8.5 -43t8.5 -41q3 22 14 85l49 311h130zM372 610h-117v121h117v-121z
M155 610h-115v121h115v-121z" />
    <glyph glyph-name="dotlessi" unicode="&#x131;" horiz-adv-x="215" 
d="M175 0h-135v561h135v-561z" />
    <glyph glyph-name="Lslash" unicode="&#x141;" horiz-adv-x="411" 
d="M399 0h-335v188l-34 -27l-59 74l93 75v458h146v-340l100 81l59 -73l-159 -129v-183h189v-124z" />
    <glyph glyph-name="lslash" unicode="&#x142;" horiz-adv-x="241" 
d="M277 382l-89 -71v-311h-135v204l-29 -23l-58 74l87 69v444h135v-337l31 25z" />
    <glyph glyph-name="OE" unicode="&#x152;" horiz-adv-x="703" 
d="M685 0h-341q-38 -14 -94 -14q-82 0 -128 31t-70.5 118t-24.5 248q0 156 24.5 243t71 120.5t127.5 33.5q48 0 86 -12h327v-120h-195v-193h173v-123h-173v-211h217v-121zM322 167v429q-8 47 -25 67.5t-47 20.5q-49 0 -60.5 -58.5t-11.5 -242.5q0 -188 11.5 -242.5
t60.5 -54.5q30 0 47 18.5t25 62.5z" />
    <glyph glyph-name="oe" unicode="&#x153;" horiz-adv-x="668" 
d="M645 141q0 -152 -167 -152q-92 0 -133 44q-43 -44 -132 -44q-105 0 -147.5 62t-42.5 221q0 161 43.5 231t146.5 70q87 0 132 -51q44 51 128 51q90 0 130.5 -64.5t40.5 -200.5q0 -30 -4 -54h-227v-29q0 -81 13.5 -113t49.5 -32q29 0 39 18t10 69q0 24 -1 32l117 -6
q4 -19 4 -52zM519 363q0 68 -9 94t-38 26q-33 0 -45 -33.5t-14 -114.5h105q1 7 1 28zM277 272q0 90 -6 135t-19 61.5t-39 16.5q-33 0 -43.5 -42t-10.5 -171q0 -117 10.5 -154.5t43.5 -37.5q26 0 39 14.5t19 55t6 122.5z" />
    <glyph glyph-name="Scaron" unicode="&#x160;" horiz-adv-x="470" 
d="M442 214q0 -115 -50 -171.5t-160 -56.5q-99 0 -147.5 47.5t-48.5 146.5q0 43 13 84l132 5q-9 -36 -9 -79q0 -56 12 -78.5t49 -22.5q36 0 50 21t14 77q0 62 -18.5 92.5t-79.5 60.5q-7 3 -31 14t-38 18q-55 26 -76.5 76t-21.5 124q0 99 47.5 153.5t145.5 54.5
q88 0 134.5 -47t46.5 -132q0 -24 -10 -66l-127 -8q6 26 6 60q0 55 -11 75.5t-43 20.5q-30 0 -40 -19t-10 -60q0 -51 14 -75t57 -45q8 -4 36 -17t43 -21q65 -34 93 -89t28 -143zM363 914l-82 -114h-122l-83 114h78l65 -49l67 49h77z" />
    <glyph glyph-name="scaron" unicode="&#x161;" horiz-adv-x="387" 
d="M373 163q0 -85 -42.5 -129.5t-136.5 -44.5q-85 0 -129.5 37t-44.5 103q0 37 11 64l117 4q-7 -28 -7 -53q0 -37 9.5 -51.5t42.5 -14.5q24 0 32 15t8 50q0 39 -12.5 60t-49.5 35q-6 2 -25.5 9t-31.5 12q-49 19 -70.5 53.5t-21.5 102.5q0 75 45.5 116.5t121.5 41.5
q160 0 160 -133q0 -24 -7 -45l-117 -5q6 18 6 42q0 33 -8 45.5t-32 12.5q-38 0 -38 -58q0 -28 10.5 -43.5t37.5 -25.5q11 -4 29.5 -10.5t30.5 -10.5q61 -22 86.5 -63.5t25.5 -115.5zM331 724l-82 -114h-122l-83 114h78l65 -49l67 49h77z" />
    <glyph glyph-name="Ydieresis" unicode="&#x178;" horiz-adv-x="453" 
d="M453 768l-152 -465v-303h-146v303l-155 465h151l84 -297l81 297h137zM397 791h-117v121h117v-121zM180 791h-115v121h115v-121z" />
    <glyph glyph-name="Zcaron" unicode="&#x17d;" horiz-adv-x="431" 
d="M404 0h-387v119l236 529h-212v120h363v-115l-237 -532h237v-121zM366 905l-82 -114h-122l-83 114h78l65 -49l67 49h77z" />
    <glyph glyph-name="zcaron" unicode="&#x17e;" horiz-adv-x="365" 
d="M344 457l-190 -355h189v-102h-326v100l194 363h-175v98h308v-104zM329 724l-82 -114h-122l-83 114h78l65 -49l67 49h77z" />
    <glyph glyph-name="florin" unicode="&#x192;" horiz-adv-x="312" 
d="M360 678q0 -40 -10 -67l-89 5q6 20 6 41q0 23 -7.5 32.5t-24.5 9.5q-30 0 -30 -43q0 -125 5 -153h88v-82h-80v-471q0 -60 -37.5 -95t-109.5 -35q-142 0 -142 102q0 40 10 67l89 -5q-6 -20 -6 -41q0 -23 7.5 -32.5t24.5 -9.5q30 0 30 43q0 25 -5 55q-7 37 -7 77v345h-65
v82h65q-1 12 -1 147q0 59 39 94.5t108 35.5q142 0 142 -102z" />
    <glyph glyph-name="circumflex" unicode="&#x2c6;" horiz-adv-x="370" 
d="M327 605h-77l-67 49l-65 -49h-78l83 114h122z" />
    <glyph glyph-name="caron" unicode="&#x2c7;" horiz-adv-x="370" 
d="M327 719l-82 -114h-122l-83 114h78l65 -49l67 49h77z" />
    <glyph glyph-name="breve" unicode="&#x2d8;" horiz-adv-x="370" 
d="M333 720q0 -59 -35.5 -87t-113.5 -28q-79 0 -114 27.5t-35 87.5h78q0 -20 20 -34.5t51 -14.5t52 15t20 34h77z" />
    <glyph glyph-name="dotaccent" unicode="&#x2d9;" horiz-adv-x="370" 
d="M252 605h-126v121h126v-121z" />
    <glyph glyph-name="ring" unicode="&#x2da;" horiz-adv-x="370" 
d="M309 710q0 -51 -36.5 -87.5t-87.5 -36.5q-52 0 -88 36.5t-36 87.5q0 52 36 88t88 36q51 0 87.5 -36t36.5 -88zM247 710q0 26 -18.5 45t-43.5 19q-26 0 -44.5 -19t-18.5 -45t18.5 -44.5t44.5 -18.5q25 0 43.5 18.5t18.5 44.5z" />
    <glyph glyph-name="ogonek" unicode="&#x2db;" horiz-adv-x="370" 
d="M288 -110q0 -31 -26 -50t-79 -19q-48 0 -72.5 19.5t-24.5 51.5t27 60.5t74 47.5h61q-88 -47 -88 -96q0 -36 29 -36q33 0 33 37q0 10 -1 14l64 -9q3 -9 3 -20z" />
    <glyph glyph-name="tilde" unicode="&#x2dc;" horiz-adv-x="370" 
d="M329 673q0 -29 -19.5 -48.5t-63.5 -19.5q-35 0 -73 22q-2 1 -9 5.5t-9 6.5q-17 12 -34 12q-32 0 -23 -38h-49q-10 20 -10 44q0 68 77 68q39 0 77 -25q15 -10 20 -13q17 -10 33 -10q20 0 24.5 16t-1.5 25h49q11 -18 11 -45z" />
    <glyph glyph-name="hungarumlaut" unicode="&#x2dd;" horiz-adv-x="370" 
d="M358 730l-132 -125h-57l66 125h123zM203 730l-132 -125h-57l66 125h123z" />
    <glyph glyph-name="Delta" unicode="&#x394;" 
d="M426 352q0 -136 -57 -232.5t-138 -96.5q-80 0 -138 96.5t-58 232.5q0 137 58 234.5t138 97.5q81 0 138 -97.5t57 -234.5zM400 268l-83 111l39 109l-76 -8l-53 136l-39 -148l-90 -13l68 -80l-92 -86l119 -18l44 -180l51 170z" />
    <glyph glyph-name="Omega" unicode="&#x3a9;" 
d="M426 352q0 -136 -57 -232.5t-138 -96.5q-80 0 -138 96.5t-58 232.5q0 137 58 234.5t138 97.5q81 0 138 -97.5t57 -234.5zM400 268l-83 111l39 109l-76 -8l-53 136l-39 -148l-90 -13l68 -80l-92 -86l119 -18l44 -180l51 170z" />
    <glyph glyph-name="pi" unicode="&#x3c0;" horiz-adv-x="695" 
d="M660 447q0 -129 -92 -222t-220 -93q-129 0 -221 93t-92 222t92 221.5t221 92.5t220.5 -92.5t91.5 -221.5zM613 447q0 111 -77.5 191.5t-187.5 80.5q-111 0 -189 -80.5t-78 -191.5q0 -113 78 -192.5t189 -79.5q110 0 187.5 79.5t77.5 192.5zM481 524q0 -122 -110 -122
l-51 1v-158h-77v404h127q53 0 82 -27.5t29 -97.5zM397 523q0 43 -10.5 56.5t-31.5 13.5h-35v-131h40q37 0 37 61z" />
    <glyph glyph-name="endash" unicode="&#x2013;" horiz-adv-x="556" 
d="M528 275h-500v109h500v-109z" />
    <glyph glyph-name="emdash" unicode="&#x2014;" horiz-adv-x="945" 
d="M917 274h-889v109h889v-109z" />
    <glyph glyph-name="quoteleft" unicode="&#x2018;" horiz-adv-x="255" 
d="M203 468h-155v165q0 48 17 78t52 55q24 18 66 25l20 -45q-33 -11 -52 -30q-30 -28 -21 -83h73v-165z" />
    <glyph glyph-name="quoteright" unicode="&#x2019;" horiz-adv-x="255" 
d="M207 603q0 -48 -17 -78t-52 -55q-24 -18 -66 -25l-20 45q33 11 52 30q30 28 21 83h-73v165h155v-165z" />
    <glyph glyph-name="quotesinglbase" unicode="&#x201a;" horiz-adv-x="255" 
d="M207 0q0 -48 -17 -78t-52 -55q-24 -18 -66 -25l-20 45q33 11 52 30q30 28 21 83h-73v165h155v-165z" />
    <glyph glyph-name="quotedblleft" unicode="&#x201c;" horiz-adv-x="472" 
d="M420 468h-155v165q0 48 17 78t52 55q24 18 66 25l20 -45q-33 -11 -52 -30q-30 -28 -21 -83h73v-165zM203 468h-155v165q0 48 17 78t52 55q24 18 66 25l20 -45q-33 -11 -52 -30q-30 -28 -21 -83h73v-165z" />
    <glyph glyph-name="quotedblright" unicode="&#x201d;" horiz-adv-x="472" 
d="M424 603q0 -48 -17 -78t-52 -55q-24 -18 -66 -25l-20 45q33 11 52 30q30 28 21 83h-73v165h155v-165zM207 603q0 -48 -17 -78t-52 -55q-24 -18 -66 -25l-20 45q33 11 52 30q30 28 21 83h-73v165h155v-165z" />
    <glyph glyph-name="quotedblbase" unicode="&#x201e;" horiz-adv-x="472" 
d="M424 0q0 -48 -17 -78t-52 -55q-24 -18 -66 -25l-20 45q33 11 52 30q30 28 21 83h-73v165h155v-165zM207 0q0 -48 -17 -78t-52 -55q-24 -18 -66 -25l-20 45q33 11 52 30q30 28 21 83h-73v165h155v-165z" />
    <glyph glyph-name="dagger" unicode="&#x2020;" horiz-adv-x="469" 
d="M423 501h-121v-580h-135v580h-121v113h121v154h135v-154h121v-113z" />
    <glyph glyph-name="daggerdbl" unicode="&#x2021;" horiz-adv-x="469" 
d="M423 135h-121v-214h-135v214h-121v113h121v253h-121v113h121v154h135v-154h121v-113h-121v-253h121v-113z" />
    <glyph glyph-name="bullet" unicode="&#x2022;" horiz-adv-x="551" 
d="M511 367q0 -101 -68.5 -172.5t-165.5 -71.5q-98 0 -167.5 71.5t-69.5 172.5q0 100 69.5 172t167.5 72q97 0 165.5 -71.5t68.5 -172.5z" />
    <glyph glyph-name="ellipsis" unicode="&#x2026;" horiz-adv-x="759" 
d="M714 0h-159v170h159v-170zM459 0h-159v170h159v-170zM204 0h-159v170h159v-170z" />
    <glyph glyph-name="perthousand" unicode="&#x2030;" horiz-adv-x="1245" 
d="M1212 213q0 -120 -37.5 -170.5t-124.5 -50.5t-124.5 50.5t-37.5 170.5q0 137 37.5 194.5t124.5 57.5t124.5 -57.5t37.5 -194.5zM828 213q0 -120 -37.5 -170.5t-124.5 -50.5t-124.5 50.5t-37.5 170.5q0 137 37.5 194.5t124.5 57.5t124.5 -57.5t37.5 -194.5zM673 768
l-420 -776h-69l420 776h69zM357 528q0 -120 -37.5 -170.5t-124.5 -50.5t-124.5 50.5t-37.5 170.5q0 137 37.5 194.5t124.5 57.5t124.5 -57.5t37.5 -194.5zM1097 226q0 92 -10 123t-37 31q-28 0 -37.5 -30.5t-9.5 -122.5t9.5 -121t37.5 -29q29 0 38 28t9 121zM713 226
q0 92 -10 123t-37 31q-28 0 -37.5 -30.5t-9.5 -122.5t9.5 -121t37.5 -29q29 0 38 28t9 121zM242 541q0 92 -10 123t-37 31q-28 0 -37.5 -30.5t-9.5 -122.5t9.5 -121t37.5 -29q29 0 38 28t9 121z" />
    <glyph glyph-name="guilsinglleft" unicode="&#x2039;" horiz-adv-x="316" 
d="M268 37l-226 168v132l226 168v-120l-146 -114l146 -114v-120z" />
    <glyph glyph-name="guilsinglright" unicode="&#x203a;" horiz-adv-x="316" 
d="M274 205l-226 -168v120l146 114l-146 114v120l226 -168v-132z" />
    <glyph glyph-name="fraction" unicode="&#x2044;" horiz-adv-x="312" 
d="M482 780l-556 -788h-96l556 788h96z" />
    <glyph glyph-name="trademark" unicode="&#x2122;" horiz-adv-x="571" 
d="M515 537h-59v169l-42 -169h-48l-46 169v-169h-57v231h88q22 -81 34 -128q5 -16 6 -26q0 2 5 26l30 128h89v-231zM232 722h-61v-185h-65v185h-60v46h186v-46z" />
    <glyph glyph-name="partialdiff" unicode="&#x2202;" 
d="M426 352q0 -136 -57 -232.5t-138 -96.5q-80 0 -138 96.5t-58 232.5q0 137 58 234.5t138 97.5q81 0 138 -97.5t57 -234.5zM400 268l-83 111l39 109l-76 -8l-53 136l-39 -148l-90 -13l68 -80l-92 -86l119 -18l44 -180l51 170z" />
    <glyph glyph-name="product" unicode="&#x220f;" 
d="M426 352q0 -136 -57 -232.5t-138 -96.5q-80 0 -138 96.5t-58 232.5q0 137 58 234.5t138 97.5q81 0 138 -97.5t57 -234.5zM400 268l-83 111l39 109l-76 -8l-53 136l-39 -148l-90 -13l68 -80l-92 -86l119 -18l44 -180l51 170z" />
    <glyph glyph-name="summation" unicode="&#x2211;" 
d="M426 352q0 -136 -57 -232.5t-138 -96.5q-80 0 -138 96.5t-58 232.5q0 137 58 234.5t138 97.5q81 0 138 -97.5t57 -234.5zM400 268l-83 111l39 109l-76 -8l-53 136l-39 -148l-90 -13l68 -80l-92 -86l119 -18l44 -180l51 170z" />
    <glyph glyph-name="minus" unicode="&#x2212;" 
d="M426 352q0 -136 -57 -232.5t-138 -96.5q-80 0 -138 96.5t-58 232.5q0 137 58 234.5t138 97.5q81 0 138 -97.5t57 -234.5zM400 268l-83 111l39 109l-76 -8l-53 136l-39 -148l-90 -13l68 -80l-92 -86l119 -18l44 -180l51 170z" />
    <glyph glyph-name="radical" unicode="&#x221a;" horiz-adv-x="723" 
d="M790 920q-62 -75 -135.5 -213.5t-122.5 -260.5q-127 -313 -172 -543l-101 -44l-244 413l142 65l135 -332q47 229 144 466q98 235 207 400z" />
    <glyph glyph-name="infinity" unicode="&#x221e;" horiz-adv-x="719" 
d="M689 0h-135v479h-115v-479h-135v479h-115v-479h-135v479h-55v82h55q-1 12 -1 89q0 64 41 97t114 33q90 0 127 -42q35 42 110 42q67 0 102 -26.5t35 -75.5q0 -40 -10 -67l-89 5q6 20 6 41q0 23 -7.5 32.5t-24.5 9.5q-30 0 -30 -43q0 -67 5 -95h257v-561zM304 561
q-1 17 -1 57t-20.5 61t-52.5 21q-30 0 -41.5 -10.5t-11.5 -37.5q0 -63 5 -91h122z" />
    <glyph glyph-name="integral" unicode="&#x222b;" 
d="M426 352q0 -136 -57 -232.5t-138 -96.5q-80 0 -138 96.5t-58 232.5q0 137 58 234.5t138 97.5q81 0 138 -97.5t57 -234.5zM400 268l-83 111l39 109l-76 -8l-53 136l-39 -148l-90 -13l68 -80l-92 -86l119 -18l44 -180l51 170z" />
    <glyph glyph-name="approxequal" unicode="&#x2248;" 
d="M426 352q0 -136 -57 -232.5t-138 -96.5q-80 0 -138 96.5t-58 232.5q0 137 58 234.5t138 97.5q81 0 138 -97.5t57 -234.5zM400 268l-83 111l39 109l-76 -8l-53 136l-39 -148l-90 -13l68 -80l-92 -86l119 -18l44 -180l51 170z" />
    <glyph glyph-name="notequal" unicode="&#x2260;" horiz-adv-x="516" 
d="M582 678q0 -40 -10 -67l-89 5q6 20 6 41q0 23 -7.5 32.5t-24.5 9.5q-30 0 -30 -43q0 -67 5 -95h78v-82h-71v-479h-135v479h-115v-479h-135v479h-55v82h55q-1 12 -1 89q0 64 41 97t114 33q90 0 127 -42q35 42 110 42q67 0 102 -26.5t35 -75.5zM304 561q-1 17 -1 57
t-20.5 61t-52.5 21q-30 0 -41.5 -10.5t-11.5 -37.5q0 -63 5 -91h122z" />
    <glyph glyph-name="lessequal" unicode="&#x2264;" 
d="M426 352q0 -136 -57 -232.5t-138 -96.5q-80 0 -138 96.5t-58 232.5q0 137 58 234.5t138 97.5q81 0 138 -97.5t57 -234.5zM400 268l-83 111l39 109l-76 -8l-53 136l-39 -148l-90 -13l68 -80l-92 -86l119 -18l44 -180l51 170z" />
    <glyph glyph-name="greaterequal" unicode="&#x2265;" 
d="M426 352q0 -136 -57 -232.5t-138 -96.5q-80 0 -138 96.5t-58 232.5q0 137 58 234.5t138 97.5q81 0 138 -97.5t57 -234.5zM400 268l-83 111l39 109l-76 -8l-53 136l-39 -148l-90 -13l68 -80l-92 -86l119 -18l44 -180l51 170z" />
    <glyph glyph-name="lozenge" unicode="&#x25ca;" 
d="M426 352q0 -136 -57 -232.5t-138 -96.5q-80 0 -138 96.5t-58 232.5q0 137 58 234.5t138 97.5q81 0 138 -97.5t57 -234.5zM400 268l-83 111l39 109l-76 -8l-53 136l-39 -148l-90 -13l68 -80l-92 -86l119 -18l44 -180l51 170z" />
    <glyph glyph-name="apple" unicode="&#xf8ff;" 
d="M426 352q0 -136 -57 -232.5t-138 -96.5q-80 0 -138 96.5t-58 232.5q0 137 58 234.5t138 97.5q81 0 138 -97.5t57 -234.5zM400 268l-83 111l39 109l-76 -8l-53 136l-39 -148l-90 -13l68 -80l-92 -86l119 -18l44 -180l51 170z" />
    <glyph glyph-name="fi" unicode="&#xfb01;" horiz-adv-x="469" 
d="M439 0h-135v479h-115v-479h-135v479h-55v82h55q-1 12 -1 89q0 59 38.5 94.5t103.5 35.5q67 0 102 -26.5t35 -75.5q0 -40 -10 -67l-89 5q6 20 6 41q0 23 -7.5 32.5t-24.5 9.5q-30 0 -30 -43q0 -67 5 -95h257v-561z" />
    <glyph glyph-name="fl" unicode="&#xfb02;" horiz-adv-x="469" 
d="M439 0h-135v479h-115v-479h-135v479h-55v82h55q-1 12 -1 89q0 64 41 97t114 33q42 0 80 -12h151v-768zM304 561v55q0 41 -21 62.5t-53 21.5q-30 0 -41.5 -10.5t-11.5 -37.5q0 -63 5 -91h122z" />
    <glyph glyph-name="NUL" horiz-adv-x="0" 
 />
    </font>
</defs>
</svg>
