<?xml version="1.0" standalone="no"?>
<!DOCTYPE svg PUBLIC "-//W3C//DTD SVG 1.1//EN" "http://www.w3.org/Graphics/SVG/1.1/DTD/svg11.dtd" >
<svg xmlns="http://www.w3.org/2000/svg" xmlns:xlink="http://www.w3.org/1999/xlink" version="1.1">
<metadata>
Created by FontForge 20170731 at Mon May  7 09:26:53 2007
 By Aleksey,,,
*1990, 1991, 1992, 1993 The Font Bureau, Inc.
</metadata>
<defs>
<font id="BureauGrotesque-OneThree" horiz-adv-x="380" >
  <font-face 
    font-family="BureauGrotesque-OneThree"
    font-weight="500"
    font-stretch="normal"
    units-per-em="1000"
    panose-1="0 0 0 0 0 0 0 0 0 0"
    ascent="800"
    descent="-200"
    x-height="551"
    cap-height="768"
    bbox="-138 -200 797 931"
    underline-thickness="20"
    underline-position="-173"
    unicode-range="U+0020-FB02"
  />
<missing-glyph horiz-adv-x="280" 
 />
    <glyph glyph-name=".notdef" horiz-adv-x="280" 
 />
    <glyph glyph-name=".null" horiz-adv-x="0" 
 />
    <glyph glyph-name="nonmarkingreturn" horiz-adv-x="333" 
 />
    <glyph glyph-name="space" unicode=" " horiz-adv-x="190" 
 />
    <glyph glyph-name="exclam" unicode="!" horiz-adv-x="194" 
d="M150 483l-28 -249h-50l-28 249v285h106v-285zM150 0h-106v155h106v-155z" />
    <glyph glyph-name="quotedbl" unicode="&#x22;" horiz-adv-x="277" 
d="M241 573h-81v195h81v-195zM117 573h-81v195h81v-195z" />
    <glyph glyph-name="numbersign" unicode="#" horiz-adv-x="443" 
d="M443 551l-10 -97h-94l-16 -140h93l-11 -97h-93l-25 -217h-64l26 217h-93l-26 -217h-63l25 217h-92l10 97h93l17 140h-93l11 97h93l26 217h63l-26 -217h93l26 217h63l-25 -217h92zM276 454h-92l-17 -140h92z" />
    <glyph glyph-name="dollar" unicode="$" horiz-adv-x="354" 
d="M335 241q0 -107 -35 -157t-106 -52v-48h-55v49q-50 13 -79 50.5t-29 120.5q0 25 7 74l84 11q-3 -13 -3 -60q0 -81 29 -115v251q-66 27 -97.5 71t-31.5 118q0 176 120 188v38h55v-38q114 -10 114 -155q0 -34 -7 -60l-86 -8q3 18 3 43q0 107 -31 114v-213
q75 -30 111.5 -81.5t36.5 -140.5zM148 484v191q-40 -16 -40 -100q0 -38 9 -58t31 -33zM237 208q0 53 -14.5 89t-35.5 47v-242q23 2 36.5 29t13.5 77z" />
    <glyph glyph-name="percent" unicode="%" horiz-adv-x="550" 
d="M247 545q0 -118 -28.5 -160.5t-88.5 -42.5q-58 0 -87.5 43t-29.5 160q0 128 31.5 178.5t85.5 50.5q60 0 88.5 -49t28.5 -180zM515 760l-419 -760h-60l419 760h60zM534 193q0 -118 -28.5 -160.5t-88.5 -42.5q-58 0 -87.5 43t-29.5 160q0 128 31.5 178.5t85.5 50.5
q60 0 88.5 -49t28.5 -180zM159 557q0 65 -3.5 96t-9 39t-17.5 8q-11 0 -16.5 -8.5t-8.5 -39.5t-3 -95q0 -63 4 -95t9 -39t15 -7q11 0 16.5 7.5t9.5 39t4 94.5zM446 205q0 65 -3.5 96t-9 39t-17.5 8q-11 0 -16.5 -8.5t-8.5 -39.5t-3 -95q0 -63 4 -95t9 -39t15 -7
q11 0 16.5 7.5t9.5 39t4 94.5z" />
    <glyph glyph-name="ampersand" unicode="&#x26;" horiz-adv-x="472" 
d="M452 122q0 -132 -93 -132q-32 0 -48.5 10t-31.5 35q-38 -45 -107 -45q-63 0 -108 61t-45 163q0 82 34.5 150.5t89.5 116.5q-22 95 -22 137q0 76 29 119t85 43q62 0 88.5 -33.5t26.5 -104.5q0 -85 -97 -182l60 -212q17 46 32 136q10 56 14 134h69q0 -98 -26 -210
q-23 -102 -56 -167q14 -30 21 -41t16 -11q17 0 17 40q0 32 -6 60l51 10q7 -33 7 -77zM278 636q0 62 -29 62q-28 0 -28 -61q0 -45 12 -90q45 37 45 89zM249 107l-76 266q-52 -55 -52 -126q0 -77 28.5 -116.5t62.5 -39.5q9 0 21 5.5t16 10.5z" />
    <glyph glyph-name="quotesingle" unicode="'" horiz-adv-x="156" 
d="M120 573h-84v195h84v-195z" />
    <glyph glyph-name="parenleft" unicode="(" horiz-adv-x="246" 
d="M220 -141l-14 -12q-83 86 -122.5 202.5t-38.5 278.5q1 150 44.5 273.5t111.5 195.5l16 -15q-43 -119 -60 -218.5t-17 -236.5q0 -151 14 -239t66 -229z" />
    <glyph glyph-name="parenright" unicode=")" horiz-adv-x="246" 
d="M201 328q1 -162 -38.5 -278.5t-122.5 -202.5l-14 12q52 141 66 229t14 239q0 137 -17 236.5t-60 218.5l16 15q68 -72 111.5 -195.5t44.5 -273.5z" />
    <glyph glyph-name="asterisk" unicode="*" horiz-adv-x="255" 
d="M233 611l-30 -48l-45 29v-65h-61v65l-45 -29l-30 48l61 36l-61 37l30 48l45 -29v65h61v-65l45 29l30 -48l-61 -37z" />
    <glyph glyph-name="plus" unicode="+" horiz-adv-x="437" 
d="M410 322h-147v-167h-93v167h-147v79h147v168h93v-168h147v-79z" />
    <glyph glyph-name="comma" unicode="," horiz-adv-x="208" 
d="M161 0q0 -53 -12.5 -83t-43.5 -58q-15 -13 -28 -20l-22 45q17 9 32 32q20 27 17 84h-57v155h114v-155z" />
    <glyph glyph-name="hyphen" unicode="-" horiz-adv-x="309" 
d="M289 293h-269v95h269v-95z" />
    <glyph glyph-name="period" unicode="." horiz-adv-x="208" 
d="M162 0h-116v155h116v-155z" />
    <glyph glyph-name="slash" unicode="/" horiz-adv-x="294" 
d="M291 768l-230 -768h-60l230 768h60z" />
    <glyph glyph-name="zero" unicode="0" horiz-adv-x="336" 
d="M314 367q0 -161 -15.5 -243t-44.5 -108t-86 -26q-44 0 -69.5 13t-44 53.5t-25.5 114t-7 196.5q0 170 14.5 257t44 118.5t87.5 31.5t87.5 -30t44 -117.5t14.5 -259.5zM208 383q0 218 -3 251q-4 42 -12 57t-25 15t-25 -15.5t-11 -56.5q-4 -54 -4 -251q0 -193 4 -247
q3 -41 11 -56.5t25 -15.5q18 0 25 14.5t12 57.5q3 30 3 247z" />
    <glyph glyph-name="one" unicode="1" horiz-adv-x="281" 
d="M228 0h-101v608h-123v59q63 7 112 39q40 26 59 68h53v-774z" />
    <glyph glyph-name="two" unicode="2" horiz-adv-x="344" 
d="M318 560q0 -235 -170 -459h167v-101h-286v77q105 134 144 241t39 243q0 72 -10 98.5t-36 26.5q-28 0 -37 -33.5t-9 -94.5q0 -42 11 -121l-96 -4q-14 70 -14 139q0 98 39.5 150t110.5 52q147 0 147 -214z" />
    <glyph glyph-name="three" unicode="3" horiz-adv-x="338" 
d="M330 217q0 -125 -42 -176t-123 -51q-69 0 -105.5 46.5t-36.5 129.5q0 65 9 110l96 4q-7 -40 -7 -85q0 -72 10.5 -99.5t36.5 -27.5q21 0 31.5 11.5t16.5 47.5t6 105q0 59 -15 99t-44 40h-80v82h81q25 0 35.5 28.5t10.5 88.5q0 68 -11 99t-36 31q-43 0 -43 -92q0 -47 4 -77
l-91 4q-8 35 -8 70q0 76 37 122.5t104 46.5q76 0 110.5 -50.5t34.5 -166.5q0 -128 -72 -138q41 -3 66 -56t25 -146z" />
    <glyph glyph-name="four" unicode="4" horiz-adv-x="358" 
d="M350 166h-57v-166h-97v166h-177v141l161 461h113v-510h57v-92zM200 583l-107 -325h105z" />
    <glyph glyph-name="five" unicode="5" horiz-adv-x="346" 
d="M328 307q0 -91 -12 -154.5t-35 -98t-51 -49.5t-66 -15q-141 0 -141 176q0 48 10 93l98 9q-6 -34 -6 -73q0 -62 8.5 -88t33.5 -26q19 0 29.5 13.5t18 65t7.5 147.5q0 65 -6 100.5t-14.5 45.5t-24.5 10q-42 0 -48 -109l-92 7l37 407h235q0 -28 -1 -45q-2 -31 -4 -48h-149
l-18 -157q14 23 29.5 30.5t40.5 7.5q59 0 90 -57.5t31 -191.5z" />
    <glyph glyph-name="six" unicode="6" horiz-adv-x="342" 
d="M324 255q0 -144 -38 -204.5t-114 -60.5q-86 0 -119 90.5t-33 306.5q0 120 10 198t32 118.5t49 55.5t68 15q64 0 94.5 -35.5t30.5 -110.5q0 -38 -11 -73l-87 -4q6 18 6 62q0 47 -8.5 63.5t-31.5 16.5q-17 0 -26.5 -13.5t-15.5 -55.5t-6 -120q0 -25 2 -57q25 48 75 48
q58 0 90.5 -60t32.5 -180zM217 246q0 103 -10 137t-35 34q-27 0 -35.5 -35t-8.5 -136q0 -99 11 -135t35 -36q28 0 35.5 31t7.5 140z" />
    <glyph glyph-name="seven" unicode="7" horiz-adv-x="298" 
d="M295 676q-55 -124 -79 -242.5t-24 -269.5q0 -87 9 -164h-125q-5 48 -5 78q0 147 39.5 309t94.5 281h-205q-6 24 -6 51q0 17 2 49h299v-92z" />
    <glyph glyph-name="eight" unicode="8" horiz-adv-x="342" 
d="M324 214q0 -121 -34.5 -172.5t-118.5 -51.5t-118.5 51.5t-34.5 172.5q0 185 71 211q-31 13 -45 45t-14 99q0 205 141 205t141 -205q0 -66 -14 -95.5t-45 -48.5q37 -14 54 -63t17 -148zM210 579q0 69 -8.5 94.5t-30.5 25.5t-30.5 -25.5t-8.5 -94.5q0 -71 9.5 -95t29.5 -24
t29.5 23.5t9.5 95.5zM222 227q0 67 -7.5 104.5t-17.5 47.5t-26 10t-26 -10t-17.5 -47.5t-7.5 -104.5q0 -72 6.5 -108t15.5 -44.5t28 -8.5q18 0 27.5 8t17 45t7.5 108z" />
    <glyph glyph-name="nine" unicode="9" horiz-adv-x="342" 
d="M322 377q0 -120 -10 -198t-32 -118.5t-49 -55.5t-68 -15q-64 0 -94.5 35.5t-30.5 110.5q0 37 11 73l87 4q-6 -27 -6 -62q0 -47 8.5 -63.5t31.5 -16.5q17 0 26.5 13.5t15.5 55.5t6 120q0 25 -2 57q-25 -48 -75 -48q-58 0 -90.5 60t-32.5 180q0 144 38 204.5t114 60.5
q86 0 119 -90.5t33 -306.5zM214 518q0 99 -11 135t-35 36q-28 0 -35.5 -31t-7.5 -140q0 -103 10 -137t35 -34q27 0 35.5 35t8.5 136z" />
    <glyph glyph-name="colon" unicode=":" horiz-adv-x="208" 
d="M162 396h-115v155h115v-155zM162 0h-115v155h115v-155z" />
    <glyph glyph-name="semicolon" unicode=";" horiz-adv-x="208" 
d="M161 396h-114v155h114v-155zM161 0q0 -53 -12.5 -83t-43.5 -58q-16 -15 -28 -20l-22 45q15 7 32 32q20 29 17 84h-57v155h114v-155z" />
    <glyph glyph-name="less" unicode="&#x3c;" horiz-adv-x="272" 
d="M239 116l-219 202v88l219 202v-111l-151 -135l151 -136v-110z" />
    <glyph glyph-name="equal" unicode="=" horiz-adv-x="409" 
d="M365 406h-315v83h315v-83zM365 220h-315v83h315v-83z" />
    <glyph glyph-name="greater" unicode="&#x3e;" horiz-adv-x="272" 
d="M250 318l-219 -202v110l151 136l-151 135v111l219 -202v-88z" />
    <glyph glyph-name="question" unicode="?" horiz-adv-x="313" 
d="M301 519q0 -64 -8 -106t-23 -62.5t-32 -28t-40 -7.5q-56 0 -76 49v-131h-69v268h67q1 -56 10.5 -75t31.5 -19q20 0 26.5 27.5t6.5 88.5q0 100 -9.5 135.5t-34.5 35.5q-22 0 -29 -16t-7 -61q0 -33 6 -61l-90 2q-10 34 -10 77q0 67 33 106t102 39t107 -57.5t38 -203.5z
M150 0h-111v155h111v-155z" />
    <glyph glyph-name="at" unicode="@" horiz-adv-x="665" 
d="M630 409q0 -131 -49 -211t-115 -80q-40 0 -63 22.5t-27 59.5q-3 -7 -10.5 -18t-20.5 -27t-33.5 -26.5t-43.5 -10.5q-41 0 -67.5 25t-26.5 79q0 43 12.5 75.5t31 52t47.5 33t55 19t60 9.5q6 38 6 49q0 48 -35 48q-46 0 -46 -53q0 -13 1 -20l-90 -20q-1 8 -1 26
q0 39 12 70.5t46.5 55.5t88.5 24q62 0 93 -38t31 -89q0 -17 -12 -115q-15 -123 -15 -133q0 -33 31 -33q34 0 64 59t30 166q0 156 -69 235.5t-175 79.5q-108 0 -178 -102.5t-70 -283.5q0 -194 65 -283t191 -89q90 0 155 74l31 -34q-48 -46 -88 -65.5t-101 -19.5
q-154 0 -230 98t-76 320q0 215 85 322.5t223 107.5q130 0 206.5 -87t76.5 -272zM374 356q-103 -22 -103 -109q0 -42 30 -42q55 0 64 70q8 61 9 81z" />
    <glyph glyph-name="A" unicode="A" horiz-adv-x="332" 
d="M320 0h-107l-13 124h-82l-12 -124h-94l98 774h103zM189 209l-28 368l-34 -368h62z" />
    <glyph glyph-name="B" unicode="B" horiz-adv-x="376" 
d="M354 217q0 -115 -42 -166t-123 -51h-148v768h143q46 0 77 -15.5t46.5 -46t21.5 -65.5t6 -84q0 -63 -22 -103t-60 -45q43 0 72 -54.5t29 -137.5zM233 555q0 70 -12 103t-41 33h-36v-242h44q26 0 35.5 26.5t9.5 79.5zM242 232q0 141 -55 141h-43v-292h45q30 0 41.5 30.5
t11.5 120.5z" />
    <glyph glyph-name="C" unicode="C" horiz-adv-x="335" 
d="M316 215q0 -231 -141 -231q-31 0 -52 7t-41 29t-32 60.5t-19 103.5t-7 156q0 176 13.5 268.5t46 132t94.5 39.5q73 0 103 -48.5t30 -145.5q0 -55 -9 -120l-88 -1q5 51 5 112q0 70 -9 96.5t-35 26.5q-17 0 -25.5 -18.5t-13.5 -89.5t-5 -216q0 -139 6.5 -207t16.5 -85
t30 -17q21 0 31 35t10 119q0 60 -6 120l91 -2q6 -66 6 -124z" />
    <glyph glyph-name="D" unicode="D" horiz-adv-x="375" 
d="M351 345q0 -141 -12.5 -213t-42 -102t-87.5 -30h-168v768h145q38 0 71 -16.5t49 -49.5q45 -88 45 -357zM239 331q0 216 -12.5 288t-48.5 72h-33v-610h34q27 0 38 14t16.5 65.5t5.5 170.5z" />
    <glyph glyph-name="E" unicode="E" horiz-adv-x="308" 
d="M296 0h-255v768h237v-82h-134v-253h119v-83h-119v-267h152v-83z" />
    <glyph glyph-name="F" unicode="F" horiz-adv-x="287" 
d="M277 686h-132v-259h109v-88h-109v-339h-104v768h236v-82z" />
    <glyph glyph-name="G" unicode="G" horiz-adv-x="359" 
d="M330 -6h-45l-10 56q-10 -30 -35 -48t-60 -18q-60 0 -90.5 24t-48 105.5t-17.5 242.5q0 178 16.5 269.5t49.5 123t97 31.5q75 0 104.5 -46t29.5 -155q0 -47 -7 -89l-93 -5q6 46 6 94q0 72 -10 98t-35 26q-18 0 -27 -9t-15.5 -45.5t-8.5 -101.5t-2 -184q0 -139 6 -202.5
t17 -80t37 -16.5q25 0 35 24.5t10 94.5v141h-70v76h166v-406z" />
    <glyph glyph-name="H" unicode="H" horiz-adv-x="379" 
d="M338 0h-104v352h-89v-352h-104v768h104v-324h89v324h104v-768z" />
    <glyph glyph-name="I" unicode="I" horiz-adv-x="188" 
d="M147 0h-106v768h106v-768z" />
    <glyph glyph-name="J" unicode="J" horiz-adv-x="352" 
d="M313 216q0 -134 -29.5 -183t-117.5 -49q-80 0 -116 46t-36 149q0 52 13 113l102 3q-13 -58 -13 -128q0 -56 11.5 -78t36.5 -22t35 21.5t10 78.5v601h104v-552z" />
    <glyph glyph-name="K" unicode="K" horiz-adv-x="374" 
d="M383 0h-112l-126 376v-376h-104v768h104v-335l119 335h106l-134 -345z" />
    <glyph glyph-name="L" unicode="L" horiz-adv-x="312" 
d="M306 0h-265v768h105v-683h160v-85z" />
    <glyph glyph-name="M" unicode="M" horiz-adv-x="452" 
d="M411 0h-93v123l4 440q-23 -218 -36 -356l-22 -207h-75q-15 127 -24 207l-41 356q8 -268 8 -440v-123h-91v768h126q27 -130 42 -284l17 -175q11 101 18 175q12 132 38 284h129v-768z" />
    <glyph glyph-name="N" unicode="N" horiz-adv-x="361" 
d="M320 0h-82q-22 78 -33 124l-81 354q7 -200 7 -328v-150h-90v768h94q20 -76 31 -124l74 -354q-7 200 -7 328v150h87v-768z" />
    <glyph glyph-name="O" unicode="O" horiz-adv-x="353" 
d="M329 383q0 -168 -15.5 -254t-46.5 -115.5t-91 -29.5t-91 29.5t-46 115t-15 254.5q0 168 15.5 253.5t46 114.5t90.5 29t91 -29t46.5 -114.5t15.5 -253.5zM221 383q0 195 -4 250q-3 42 -11 57t-30 15q-20 0 -29 -15t-12 -57q-3 -41 -3 -250q0 -207 3 -248q3 -42 12 -57
t29 -15q22 0 30 15t11 57q4 55 4 248z" />
    <glyph glyph-name="P" unicode="P" horiz-adv-x="355" 
d="M340 542q0 -67 -9.5 -110.5t-29.5 -65.5t-43 -29.5t-58 -7.5q-29 0 -55 2v-331h-104v768h179q120 0 120 -226zM232 540q0 91 -12.5 122t-45.5 33l-29 1v-284h46q22 0 31.5 30t9.5 98z" />
    <glyph glyph-name="Q" unicode="Q" horiz-adv-x="354" 
d="M329 383q0 -166 -15 -251.5t-42.5 -113.5t-80.5 -32q-4 -18 -4 -31q0 -50 38 -50q30 0 30 34q0 10 -3 25l49 -2q3 -17 3 -36q0 -82 -85 -82q-91 0 -91 96q0 22 6 50q-29 7 -46 21.5t-33.5 54t-23.5 117t-7 200.5q0 168 15.5 253.5t46 114.5t90.5 29t91 -29t46.5 -114.5
t15.5 -253.5zM223 383q0 167 -6 250q-3 42 -11 57t-30 15q-20 0 -29 -15t-12 -57q-5 -67 -5 -250t5 -251q3 -42 12 -57t29 -15q22 0 30 15t11 57q6 82 6 251z" />
    <glyph glyph-name="R" unicode="R" horiz-adv-x="367" 
d="M357 0h-112q-22 62 -22 140v124q0 101 -44 101h-34v-365h-104v768h162q139 0 139 -195q0 -92 -21 -131.5t-76 -47.5q25 -4 41.5 -19.5t24 -44.5t10.5 -59t3 -79q1 -58 10 -117t23 -75zM236 546q0 82 -13 117t-41 35h-37v-260h53q21 0 29.5 23t8.5 85z" />
    <glyph glyph-name="S" unicode="S" horiz-adv-x="350" 
d="M331 201q0 -217 -155 -217q-72 0 -109 45.5t-37 153.5q0 54 14 108l89 4q-6 -45 -6 -107q0 -77 12 -101t39 -24q10 0 17 3.5t15.5 13.5t13 35t4.5 63q0 84 -19 122t-67 63q-6 3 -15.5 8.5t-14.5 7.5q-93 49 -93 202q0 98 37 148.5t108 50.5q141 0 141 -172q0 -35 -9 -80
l-86 -8q3 21 3 83q0 106 -47 106q-23 0 -33.5 -22t-10.5 -76q0 -65 14 -94t57 -51q4 -2 16 -8.5t18 -9.5q104 -55 104 -247z" />
    <glyph glyph-name="T" unicode="T" horiz-adv-x="329" 
d="M322 684h-105v-684h-105v684h-105v84h315v-84z" />
    <glyph glyph-name="U" unicode="U" horiz-adv-x="390" 
d="M351 125q0 -141 -156 -141q-73 0 -114.5 38.5t-41.5 102.5v643h104v-636q0 -33 12 -48t40 -15t40 15t12 48v636h104v-643z" />
    <glyph glyph-name="V" unicode="V" horiz-adv-x="346" 
d="M334 768l-114 -773h-95l-113 773h101q0 -1 19 -138.5t29 -220.5l18 -182q10 112 18 182q10 80 23.5 207t16.5 152h97z" />
    <glyph glyph-name="W" unicode="W" horiz-adv-x="463" 
d="M451 768l-90 -768h-87q-13 138 -21 226l-22 225q-15 -138 -23 -225l-24 -226h-94l-78 768h94q13 -162 20 -266l15 -213q9 131 19 213q22 192 29 266h85q2 -21 8 -71t11 -99.5t9 -95.5l18 -219q10 136 16 219l26 266h89z" />
    <glyph glyph-name="X" unicode="X" horiz-adv-x="338" 
d="M331 0h-105l-73 300l-51 -300h-100l91 402l-81 366h102l54 -270l58 270h100l-102 -367z" />
    <glyph glyph-name="Y" unicode="Y" horiz-adv-x="341" 
d="M339 768l-116 -470v-298h-106v298l-122 470h112l68 -326l62 326h102z" />
    <glyph glyph-name="Z" unicode="Z" horiz-adv-x="318" 
d="M304 674l-189 -586h186v-88h-291v92l192 590h-171v86h273v-94z" />
    <glyph glyph-name="bracketleft" unicode="[" horiz-adv-x="242" 
d="M220 -158h-175v926h175v-88h-82v-750h82v-88z" />
    <glyph glyph-name="backslash" unicode="\" horiz-adv-x="294" 
d="M291 0h-60l-230 768h60z" />
    <glyph glyph-name="bracketright" unicode="]" horiz-adv-x="242" 
d="M196 -158h-174v88h81v750h-81v88h174v-926z" />
    <glyph glyph-name="asciicircum" unicode="^" horiz-adv-x="296" 
d="M259 625h-69l-40 72l-41 -72h-69l66 144h87z" />
    <glyph glyph-name="underscore" unicode="_" horiz-adv-x="396" 
d="M396 -200h-396v70h396v-70z" />
    <glyph glyph-name="grave" unicode="`" horiz-adv-x="370" 
d="M241 599h-51l-84 115h99z" />
    <glyph glyph-name="a" unicode="a" horiz-adv-x="302" 
d="M299 4q-26 -14 -58 -14q-46 0 -57 42q-20 -42 -66 -42q-45 0 -73.5 33.5t-28.5 130.5q0 70 22 108.5t67 53.5q4 2 13 4.5t13 4.5q21 7 29.5 26t8.5 66q0 51 -5.5 68t-21.5 17q-19 0 -25.5 -15t-6.5 -59q0 -30 5 -58l-73 -3q-11 41 -11 68q0 121 120 121q48 0 76 -22
t28 -61v-397q0 -29 21 -29q13 0 23 5v-48zM167 129v157q-39 -20 -50 -49.5t-11 -90.5q0 -57 7.5 -76.5t27.5 -19.5q18 0 22 16t4 63z" />
    <glyph glyph-name="b" unicode="b" horiz-adv-x="305" 
d="M283 271q0 -115 -15.5 -178.5t-40 -83t-66.5 -19.5q-53 0 -78 53l-32 -44h-26v769h89v-258q21 46 70 46q21 0 37.5 -12t31 -41t22.5 -88t8 -144zM189 272q0 103 -4.5 152t-11.5 59.5t-22 10.5q-13 0 -21 -12.5t-14 -64t-6 -146.5q0 -221 41 -221q13 0 19 4.5t11 27
t6.5 65.5t1.5 125z" />
    <glyph glyph-name="c" unicode="c" horiz-adv-x="290" 
d="M269 158q0 -95 -25.5 -131.5t-91.5 -36.5q-51 0 -78 24.5t-39.5 86.5t-12.5 180q0 71 6 121.5t16 80t27.5 46t35 22t43.5 5.5q63 0 88 -36t25 -124q0 -42 -6 -62l-79 -2q4 28 4 57q0 68 -6 90t-26 22q-11 0 -16.5 -6.5t-10.5 -30.5t-6.5 -69.5t-1.5 -124.5t1.5 -123
t7 -67t12 -29t19.5 -6t19.5 6.5t10.5 34t4 82.5q0 22 -4 80l76 -3q8 -51 8 -87z" />
    <glyph glyph-name="d" unicode="d" horiz-adv-x="308" 
d="M280 0h-84v51q-21 -61 -69 -61q-35 0 -56.5 20.5t-35 81.5t-13.5 167q0 297 108 297q23 0 35 -11t26 -40v263h89v-768zM193 271q0 222 -39 222q-15 0 -22 -12t-12 -61.5t-5 -147.5q0 -77 1.5 -119.5t6.5 -65.5t11.5 -29t19.5 -6q21 0 30 48.5t9 170.5z" />
    <glyph glyph-name="e" unicode="e" horiz-adv-x="294" 
d="M269 299q0 -21 -3 -41h-153v-59q0 -88 8 -121t32 -33q23 0 31 23.5t8 102.5q0 13 -2 45l72 -2q5 -22 5 -76q0 -78 -27 -113t-83 -35q-51 0 -78 18.5t-42 75t-15 165.5q0 175 30 241t98 66q63 0 91 -62.5t28 -194.5zM187 379q-5 83 -11.5 105t-25.5 22q-12 0 -19 -9.5
t-12 -41t-8 -91.5v-16.5v-16.5v-13v-6h75q3 37 1 67z" />
    <glyph glyph-name="f" unicode="f" horiz-adv-x="200" 
d="M252 666q0 -23 -6 -67l-66 -1q4 32 4 60q0 55 -23 55q-19 0 -19 -35v-127h57v-62h-57v-489h-91v489h-49v62h49v125q0 49 28 74.5t75 25.5t72.5 -28t25.5 -82z" />
    <glyph glyph-name="g" unicode="g" horiz-adv-x="326" 
d="M341 603l-61 -110q24 -36 24 -127q0 -96 -31 -142t-96 -46q-32 0 -51 7q-20 -14 -20 -29q0 -28 47 -28h63q49 0 82.5 -40.5t33.5 -116.5q0 -171 -158 -171q-79 0 -125.5 36t-46.5 110q0 29 17.5 58t48.5 45q-51 19 -51 73t63 87q-18 14 -33 60.5t-15 96.5q0 88 37 139
t102 51q21 0 44.5 -8.5t35.5 -21.5l13 77h77zM212 366q0 52 -6.5 80.5t-15 36t-22.5 7.5q-22 0 -33 -24t-11 -100q0 -75 10.5 -98.5t33.5 -23.5t33.5 23.5t10.5 98.5zM250 -47q0 90 -79 90h-52q-35 -44 -35 -83q0 -98 87 -98q37 0 58 25.5t21 65.5z" />
    <glyph glyph-name="h" unicode="h" horiz-adv-x="298" 
d="M273 0h-91v458q0 31 -30 31q-36 0 -36 -65v-424h-91v768h91v-257q21 45 72 45q40 0 62.5 -22t22.5 -65v-469z" />
    <glyph glyph-name="i" unicode="i" horiz-adv-x="139" 
d="M116 631h-93v103h93v-103zM114 0h-89v551h89v-551z" />
    <glyph glyph-name="j" unicode="j" horiz-adv-x="157" 
d="M132 631h-93v103h93v-103zM132 -81q0 -48 -32.5 -74t-80.5 -26t-77.5 28.5t-29.5 81.5q0 21 6 53l77 1q-4 -32 -4 -46q0 -30 5 -41t20 -11q14 0 18.5 9t4.5 36v621h93v-632z" />
    <glyph glyph-name="k" unicode="k" horiz-adv-x="299" 
d="M304 0h-98l-90 246v-246h-91v768h91v-425l91 208h91l-109 -243z" />
    <glyph glyph-name="l" unicode="l" horiz-adv-x="143" 
d="M118 0h-93v768h93v-768z" />
    <glyph glyph-name="m" unicode="m" horiz-adv-x="445" 
d="M422 0h-89v460q0 31 -30 31q-35 0 -35 -65v-426h-89v460q0 31 -30 31q-35 0 -35 -65v-426h-89v551h88q1 -18 -2 -44q22 49 74 49q60 0 78 -51q23 51 76 51q39 0 61 -22t22 -65v-469z" />
    <glyph glyph-name="n" unicode="n" horiz-adv-x="298" 
d="M273 0h-91v458q0 31 -30 31q-36 0 -36 -65v-424h-91v551h90q1 -17 -2 -43q21 48 75 48q40 0 62.5 -22t22.5 -65v-469z" />
    <glyph glyph-name="o" unicode="o" horiz-adv-x="305" 
d="M283 266q0 -163 -27 -219.5t-104 -56.5q-72 0 -101 58t-29 218t27.5 225t102.5 65q73 0 102 -66.5t29 -223.5zM189 266q0 80 -1.5 123.5t-6 68t-11 30.5t-18.5 6t-18.5 -6.5t-11 -31.5t-5.5 -67.5t-1 -122.5t1.5 -123.5t6.5 -64t10.5 -24.5t17.5 -4q13 0 18.5 4t10.5 25
t6.5 64t1.5 123z" />
    <glyph glyph-name="p" unicode="p" horiz-adv-x="304" 
d="M283 271q0 -87 -7.5 -144t-24 -86t-35.5 -40t-48 -11q-27 0 -54 35v-200h-89v726h89v-41q16 46 70 46q21 0 37.5 -12t31 -41t22.5 -88t8 -144zM189 272q0 103 -4.5 152t-11.5 59.5t-22 10.5q-13 0 -21 -12.5t-14 -64t-6 -146.5q0 -221 41 -221q13 0 19 4.5t11 27
t6.5 65.5t1.5 125z" />
    <glyph glyph-name="q" unicode="q" horiz-adv-x="306" 
d="M280 -176h-89v221q-19 -55 -64 -55q-35 0 -56.5 20.5t-35 81.5t-13.5 167q0 168 31 232.5t93 64.5q44 0 71 -58l37 53h26v-727zM193 271q0 56 -2 96.5t-5 65.5t-8.5 40t-11 20.5t-12.5 5.5q-14 0 -21.5 -14t-12 -64t-4.5 -149q0 -78 1.5 -119.5t6 -64t11 -28t19.5 -5.5
q21 0 30 47.5t9 168.5z" />
    <glyph glyph-name="r" unicode="r" horiz-adv-x="253" 
d="M245 427q0 -60 -9 -118l-83 -4q13 65 13 109q0 58 -16 58q-11 0 -18 -7t-11.5 -32.5t-4.5 -72.5v-360h-91v551h89v-66q14 71 62 71q69 0 69 -129z" />
    <glyph glyph-name="s" unicode="s" horiz-adv-x="293" 
d="M274 155q0 -165 -132 -165q-57 0 -87.5 33t-30.5 99q0 34 9 83l78 8q-9 -47 -9 -78q0 -41 8 -59t29 -18q42 0 42 75q0 50 -13.5 73.5t-56.5 48.5q-5 3 -15.5 8.5t-14.5 7.5q-32 18 -46 49t-14 87q0 71 35 110t86 39t81 -32t30 -99q0 -35 -7 -63l-77 -3q6 24 6 63
q0 70 -34 70q-33 0 -33 -63q0 -25 1.5 -36.5t13 -27.5t34.5 -28q8 -4 30 -16q87 -47 87 -166z" />
    <glyph glyph-name="t" unicode="t" horiz-adv-x="222" 
d="M217 15q-23 -25 -83 -25q-49 0 -71 24t-22 80q0 71 2 395h-47v62h48l2 163h86v-163h79v-62h-79v-368q0 -32 9.5 -42.5t32.5 -10.5q22 0 43 8v-61z" />
    <glyph glyph-name="u" unicode="u" horiz-adv-x="298" 
d="M273 0h-90q-1 24 2 50q-10 -29 -32.5 -44.5t-48.5 -15.5q-38 0 -58.5 24t-20.5 68v469h91v-452q0 -37 25 -37q41 0 41 98v391h91v-551z" />
    <glyph glyph-name="v" unicode="v" horiz-adv-x="272" 
d="M261 551l-82 -551h-94l-82 551h92l41 -366l37 366h88z" />
    <glyph glyph-name="w" unicode="w" horiz-adv-x="387" 
d="M378 551l-80 -551h-80l-30 276l-30 -276h-80l-80 551h89l36 -298l26 298h77l30 -298l33 298h89z" />
    <glyph glyph-name="x" unicode="x" horiz-adv-x="278" 
d="M284 0h-103l-47 181l-46 -181h-94l91 295l-82 256h99l35 -148l37 148h97l-83 -262z" />
    <glyph glyph-name="y" unicode="y" horiz-adv-x="288" 
d="M291 551q-7 -43 -28.5 -183.5t-39 -252.5t-17.5 -115q-14 -100 -39.5 -138t-80.5 -38q-107 0 -107 102q0 15 2 41l78 9q-3 -33 -3 -39q0 -50 31 -50q17 0 23 15.5t14 76.5l-130 572h95l68 -372l41 372h93z" />
    <glyph glyph-name="z" unicode="z" horiz-adv-x="239" 
d="M236 476l-132 -402h129v-74h-227v59l139 423h-108v69h199v-75z" />
    <glyph glyph-name="braceleft" unicode="{" horiz-adv-x="242" 
d="M232 684h-28q-15 0 -21.5 -6t-6.5 -23v-299q0 -30 -9 -42t-31 -12q22 0 31 -12.5t9 -41.5v-312q0 -17 6 -22.5t21 -5.5h28v-84h-57q-91 0 -91 94v296q0 27 -11.5 39.5t-37.5 12.5v72q26 0 37.5 12.5t11.5 39.5v284q0 94 92 94h57v-84z" />
    <glyph glyph-name="bar" unicode="|" horiz-adv-x="164" 
d="M116 -200h-73v998h73v-998z" />
    <glyph glyph-name="braceright" unicode="}" horiz-adv-x="242" 
d="M209 266q-26 0 -37.5 -12.5t-11.5 -39.5v-296q0 -94 -91 -94h-57v84h28q15 0 21 5.5t6 22.5v312q0 29 9 41.5t31 12.5q-22 0 -31 12t-9 42v299q0 17 -6.5 23t-21.5 6h-28v84h57q92 0 92 -94v-284q0 -27 11.5 -39.5t37.5 -12.5v-72z" />
    <glyph glyph-name="asciitilde" unicode="~" horiz-adv-x="222" 
d="M213 719q0 -32 -15 -55t-46 -23q-24 0 -43 21q-4 4 -14 16q-17 21 -28 21q-18 0 -18 -30v-13h-29q-7 19 -7 45q0 78 53 78q30 0 54 -24q4 -4 14 -16q14 -17 25 -17q18 0 18 33v13h29q7 -23 7 -49z" />
    <glyph glyph-name="nbspace" unicode="&#xa0;" horiz-adv-x="95" 
 />
    <glyph glyph-name="exclamdown" unicode="&#xa1;" horiz-adv-x="194" 
d="M150 613h-106v155h106v-155zM150 0h-106v285l28 249h50l28 -249v-285z" />
    <glyph glyph-name="cent" unicode="&#xa2;" horiz-adv-x="290" 
d="M269 356q0 -69 -21 -98.5t-73 -33.5v-57h-51v57q-58 8 -80 57t-22 174q0 119 25.5 165.5t76.5 52.5v54h51v-54q45 -5 65 -35t20 -91l-3 -50l-79 -2q4 24 4 46q0 54 -6 69t-26 15q-15 0 -21.5 -9.5t-10 -48t-3.5 -121.5t4 -119.5t11 -45.5t25 -9q14 0 19.5 4t9 24t3.5 64
q0 18 -2 64l77 -2q7 -52 7 -70z" />
    <glyph glyph-name="sterling" unicode="&#xa3;" horiz-adv-x="460" 
d="M442 140q0 -63 -27 -106.5t-84 -43.5q-27 0 -52 11.5t-35 20t-42 36.5q-32 -68 -96 -68q-46 0 -72.5 24.5t-26.5 67.5q0 45 27 71.5t71 26.5q17 0 59 -17q7 28 7 64q0 31 -12 82h-116v90h95q-19 92 -19 156q0 219 152 219q69 0 106.5 -54.5t37.5 -145.5q0 -51 -10 -85
l-92 -11q10 48 10 99q0 98 -49 98q-46 0 -46 -86q0 -88 20 -190h129v-90h-117q4 -24 4 -48q0 -74 -28 -137q2 -2 8.5 -6t9.5 -6t9 -5.5t10.5 -5t11 -3.5t13.5 -3t15 -1q44 0 44 83q0 41 -5 68l73 -7q17 -52 17 -98zM141 92q-18 14 -34 14q-9 0 -16 -8t-7 -18q0 -9 7 -14
t17 -5q18 0 33 31z" />
    <glyph glyph-name="currency" unicode="&#xa4;" 
d="M319 388q0 130 -39 223.5t-93 93.5q-55 0 -93.5 -93t-38.5 -224t38.5 -223t93.5 -92q54 0 93 92.5t39 222.5zM303 356l-65 -23l-15 -217l-37 122l-95 15l56 113l-49 154l57 -24l33 152l36 -162z" />
    <glyph glyph-name="yen" unicode="&#xa5;" horiz-adv-x="363" 
d="M361 275h-124v-275h-106v275h-123v53h115l-15 57h-100v53h86l-85 330h112l68 -326l62 326h102l-82 -330h90v-53h-103l-14 -57h117v-53z" />
    <glyph glyph-name="brokenbar" unicode="&#xa6;" 
d="M319 388q0 130 -39 223.5t-93 93.5q-55 0 -93.5 -93t-38.5 -224t38.5 -223t93.5 -92q54 0 93 92.5t39 222.5zM303 356l-65 -23l-15 -217l-37 122l-95 15l56 113l-49 154l57 -24l33 152l36 -162z" />
    <glyph glyph-name="section" unicode="&#xa7;" horiz-adv-x="309" 
d="M291 379q0 -18 -2.5 -32.5t-7.5 -26.5t-10 -20t-13.5 -16t-12.5 -11.5t-13 -10t-11 -7.5q63 -45 63 -148q0 -165 -132 -165q-57 0 -87.5 33t-30.5 99q0 34 9 83l78 8q-9 -47 -9 -78q0 -41 8 -59t29 -18q20 0 29.5 16t9.5 59q0 47 -13.5 76t-51.5 50q-6 3 -15 8.5t-14 9.5
q-70 40 -70 130q0 89 74 131q-35 23 -51 55t-16 86q0 71 35 110t86 39t81 -32t30 -99q0 -35 -7 -63l-77 -3q6 24 6 63q0 70 -34 70q-33 0 -33 -63q0 -25 1.5 -37t13 -28.5t34.5 -30.5q5 -4 14 -9.5t14 -9.5q96 -62 96 -159zM215 358q0 53 -68 101q-22 -19 -31.5 -35
t-9.5 -43q0 -38 13.5 -55t49.5 -39q16 10 22 15t15 20.5t9 35.5z" />
    <glyph glyph-name="dieresis" unicode="&#xa8;" horiz-adv-x="370" 
d="M314 599h-96v88h96v-88zM152 599h-96v88h96v-88z" />
    <glyph glyph-name="copyright" unicode="&#xa9;" horiz-adv-x="592" 
d="M567 497q0 -121 -79.5 -197.5t-194.5 -76.5q-122 0 -198 78t-76 196t80 195.5t194 77.5q120 0 197 -76.5t77 -196.5zM539 497q0 101 -72.5 173.5t-173.5 72.5t-171 -72t-70 -174t70 -174.5t171 -72.5t173.5 73t72.5 174zM412 418q0 -66 -26.5 -92.5t-90.5 -26.5
q-75 0 -102.5 43.5t-27.5 164.5q0 62 9 102t27.5 59.5t39 26t52.5 6.5q57 0 83.5 -26t26.5 -86q0 -28 -7 -44l-75 -1q4 16 4 39q0 47 -6 59.5t-26 12.5q-15 0 -22.5 -7.5t-12.5 -42.5t-5 -105q0 -71 5.5 -104.5t13.5 -41.5t26 -8q20 0 28 14t8 64q0 28 -6 56l77 -2
q7 -45 7 -60z" />
    <glyph glyph-name="ordfeminine" unicode="&#xaa;" horiz-adv-x="339" 
d="M305 385q-27 -11 -55 -11q-42 0 -55 33q-18 -33 -63 -33q-43 0 -70.5 23.5t-27.5 92.5q0 40 22 71.5t63 43.5q4 1 11.5 4t13.5 5q18 5 29.5 21.5t11.5 40.5q0 37 -6.5 49t-23.5 12q-19 0 -25 -11t-6 -41q0 -13 5 -35l-70 -3q-11 20 -11 44q0 89 115 89q50 0 75 -20
t25 -53v-265q0 -10 6 -16.5t14 -6.5q12 0 22 4v-38zM308 296h-268v42h268v-42zM185 484v98q-29 -8 -44 -22.5t-18 -27.5t-3 -34q0 -45 7 -60.5t27 -15.5q18 0 24.5 14t6.5 48z" />
    <glyph glyph-name="guillemotleft" unicode="&#xab;" horiz-adv-x="417" 
d="M388 59l-165 166v129l165 164v-119l-101 -110l101 -111v-119zM202 59l-165 166v129l165 164v-119l-101 -110l101 -111v-119z" />
    <glyph glyph-name="logicalnot" unicode="&#xac;" 
d="M319 388q0 130 -39 223.5t-93 93.5q-55 0 -93.5 -93t-38.5 -224t38.5 -223t93.5 -92q54 0 93 92.5t39 222.5zM303 356l-65 -23l-15 -217l-37 122l-95 15l56 113l-49 154l57 -24l33 152l36 -162z" />
    <glyph glyph-name="registered" unicode="&#xae;" horiz-adv-x="592" 
d="M567 497q0 -113 -80.5 -193.5t-193.5 -80.5t-193.5 80.5t-80.5 193.5q0 112 80.5 192.5t193.5 80.5t193.5 -80.5t80.5 -192.5zM539 497q0 101 -72.5 173.5t-173.5 72.5t-173.5 -72.5t-72.5 -173.5t72.5 -174t173.5 -73t173.5 73t72.5 174zM405 579q0 -42 -16.5 -60
t-58.5 -25q15 -3 25.5 -8.5t17.5 -16.5t11 -19.5t6.5 -29t3 -32.5t1.5 -41q0 -27 6 -45h-69q-8 12 -8 49v66q0 17 -1 24.5t-6.5 14t-17.5 6.5h-33v-160h-69v402h122q50 0 68 -30.5t18 -94.5zM335 588q0 70 -36 70h-33v-140h34q19 0 27 15t8 55z" />
    <glyph glyph-name="macron" unicode="&#xaf;" horiz-adv-x="370" 
d="M299 599h-232v62h232v-62z" />
    <glyph glyph-name="degree" unicode="&#xb0;" horiz-adv-x="253" 
d="M223 674q0 -39 -29 -67.5t-69 -28.5t-68 28.5t-28 67.5t28 66.5t68 27.5q41 0 69.5 -27.5t28.5 -66.5zM184 672q0 23 -17.5 40t-41.5 17q-23 0 -40 -17t-17 -40t17 -39.5t40 -16.5q24 0 41.5 16.5t17.5 39.5z" />
    <glyph glyph-name="plusminus" unicode="&#xb1;" horiz-adv-x="513" 
d="M486 0h-89v698q-16 26 -42 26q-42 0 -42 -52v-121h54v-62h-54v-489h-89v489h-84v-489h-89v489h-49v62h49v125q0 100 125 100q58 0 86 -20q27 20 90 20q42 0 80 -12.5t54 -25.5v-738zM224 551v142q-12 31 -39 31q-45 0 -45 -52v-121h84z" />
    <glyph glyph-name="twosuperior" unicode="&#xb2;" 
d="M319 388q0 130 -39 223.5t-93 93.5q-55 0 -93.5 -93t-38.5 -224t38.5 -223t93.5 -92q54 0 93 92.5t39 222.5zM303 356l-65 -23l-15 -217l-37 122l-95 15l56 113l-49 154l57 -24l33 152l36 -162z" />
    <glyph glyph-name="threesuperior" unicode="&#xb3;" 
d="M319 388q0 130 -39 223.5t-93 93.5q-55 0 -93.5 -93t-38.5 -224t38.5 -223t93.5 -92q54 0 93 92.5t39 222.5zM303 356l-65 -23l-15 -217l-37 122l-95 15l56 113l-49 154l57 -24l33 152l36 -162z" />
    <glyph glyph-name="acute" unicode="&#xb4;" horiz-adv-x="370" 
d="M265 714l-84 -115h-51l36 115h99z" />
    <glyph glyph-name="mu" unicode="&#xb5;" 
d="M319 388q0 130 -39 223.5t-93 93.5q-55 0 -93.5 -93t-38.5 -224t38.5 -223t93.5 -92q54 0 93 92.5t39 222.5zM303 356l-65 -23l-15 -217l-37 122l-95 15l56 113l-49 154l57 -24l33 152l36 -162z" />
    <glyph glyph-name="paragraph" unicode="&#xb6;" horiz-adv-x="390" 
d="M327 0h-49v719h-32v-719h-49v274q-1 0 -10 2.5t-12 3.5q-144 39 -144 242q0 132 38.5 189t110.5 57h147v-768zM197 318v401q-26 0 -36.5 -45t-10.5 -154q0 -100 9 -136t38 -66z" />
    <glyph glyph-name="periodcentered" unicode="&#xb7;" horiz-adv-x="304" 
d="M234 387q0 -42 -23 -68.5t-62 -26.5t-62 26.5t-23 68.5t23 68.5t62 26.5t62 -26.5t23 -68.5z" />
    <glyph glyph-name="cedilla" unicode="&#xb8;" horiz-adv-x="370" 
d="M268 -104q0 -40 -19.5 -64t-53.5 -24q-49 0 -77 35l16 43q24 -26 51 -26t27 33q0 36 -31 36q-7 0 -10 -1l8 47q15 3 24 3q29 0 47 -22.5t18 -59.5z" />
    <glyph glyph-name="onesuperior" unicode="&#xb9;" 
d="M319 388q0 130 -39 223.5t-93 93.5q-55 0 -93.5 -93t-38.5 -224t38.5 -223t93.5 -92q54 0 93 92.5t39 222.5zM303 356l-65 -23l-15 -217l-37 122l-95 15l56 113l-49 154l57 -24l33 152l36 -162z" />
    <glyph glyph-name="ordmasculine" unicode="&#xba;" horiz-adv-x="339" 
d="M295 572q0 -113 -26.5 -155.5t-99.5 -42.5q-68 0 -96.5 43.5t-28.5 154.5q0 113 26.5 160.5t98.5 47.5q69 0 97.5 -49t28.5 -159zM303 296h-268v42h268v-42zM205 572q0 56 -1.5 87t-6 48.5t-10.5 22.5t-18 5t-18 -5t-10 -23t-5.5 -48.5t-1.5 -86.5q0 -72 3.5 -105.5
t10 -42t21.5 -8.5q16 0 22.5 8.5t10 41.5t3.5 106z" />
    <glyph glyph-name="guillemotright" unicode="&#xbb;" horiz-adv-x="417" 
d="M380 225l-165 -166v119l101 111l-101 110v119l165 -164v-129zM194 225l-165 -166v119l101 111l-101 110v119l165 -164v-129z" />
    <glyph glyph-name="onequarter" unicode="&#xbc;" 
d="M319 388q0 130 -39 223.5t-93 93.5q-55 0 -93.5 -93t-38.5 -224t38.5 -223t93.5 -92q54 0 93 92.5t39 222.5zM303 356l-65 -23l-15 -217l-37 122l-95 15l56 113l-49 154l57 -24l33 152l36 -162z" />
    <glyph glyph-name="onehalf" unicode="&#xbd;" 
d="M319 388q0 130 -39 223.5t-93 93.5q-55 0 -93.5 -93t-38.5 -224t38.5 -223t93.5 -92q54 0 93 92.5t39 222.5zM303 356l-65 -23l-15 -217l-37 122l-95 15l56 113l-49 154l57 -24l33 152l36 -162z" />
    <glyph glyph-name="threequarters" unicode="&#xbe;" 
d="M319 388q0 130 -39 223.5t-93 93.5q-55 0 -93.5 -93t-38.5 -224t38.5 -223t93.5 -92q54 0 93 92.5t39 222.5zM303 356l-65 -23l-15 -217l-37 122l-95 15l56 113l-49 154l57 -24l33 152l36 -162z" />
    <glyph glyph-name="questiondown" unicode="&#xbf;" horiz-adv-x="313" 
d="M280 613h-106v155h106v-155zM298 133q0 -67 -33 -106t-102 -39t-107 57.5t-38 203.5q0 64 8 106t23 62.5t32 28t40 7.5q56 0 76 -49v131h69v-268h-67q-1 56 -10.5 75t-31.5 19q-20 0 -26.5 -27.5t-6.5 -88.5q0 -100 9.5 -135.5t34.5 -35.5q22 0 29 16t7 61q0 33 -6 61
l90 -2q10 -34 10 -77z" />
    <glyph glyph-name="Agrave" unicode="&#xc0;" horiz-adv-x="332" 
d="M200 793h-51l-84 63h99zM320 0l-107 774h-103l-98 -774h94l12 124h82l13 -124h107zM189 209h-62l34 368z" />
    <glyph glyph-name="Aacute" unicode="&#xc1;" horiz-adv-x="332" 
d="M259 856l-84 -63h-51l36 63h99zM320 0l-107 774h-103l-98 -774h94l12 124h82l13 -124h107zM189 209h-62l34 368z" />
    <glyph glyph-name="Acircumflex" unicode="&#xc2;" horiz-adv-x="332" 
d="M279 793h-76l-45 27l-45 -27h-76l72 63h97zM320 0l-107 774h-103l-98 -774h94l12 124h82l13 -124h107zM189 209h-62l34 368z" />
    <glyph glyph-name="Atilde" unicode="&#xc3;" horiz-adv-x="332" 
d="M320 0h-107l-13 124h-82l-12 -124h-94l98 774h103zM189 209l-28 368l-34 -368h62zM273 843q0 -20 -17 -35t-50 -15q-26 0 -47 13q-5 3 -17 11q-18 11 -29 11q-20 0 -20 -17v-8h-32q-8 12 -8 29q0 50 58 50q34 0 60 -15q7 -4 16 -11q13 -9 27 -9q19 0 19 22v6h32
q8 -15 8 -32z" />
    <glyph glyph-name="Adieresis" unicode="&#xc4;" horiz-adv-x="332" 
d="M294 793h-96v70h96v-70zM132 793h-96v70h96v-70zM320 0l-107 774h-103l-98 -774h94l12 124h82l13 -124h107zM189 209h-62l34 368z" />
    <glyph glyph-name="Aring" unicode="&#xc5;" horiz-adv-x="332" 
d="M320 0h-107l-13 124h-82l-12 -124h-94l87 725q-42 30 -42 81q0 41 29 70t70 29t70 -29t29 -70q0 -50 -40 -80zM201 803q0 19 -13 32t-32 13t-32 -13t-13 -32t13 -32t32 -13t32 13t13 32zM189 209l-33 368l-29 -368h62z" />
    <glyph glyph-name="AE" unicode="&#xc6;" horiz-adv-x="478" 
d="M466 0h-251v0v0v1v0v1v0v1v1v1v1v1v1v1v1v1v1v1v1v1v1v1v1v1v1v1v1v1v2v1v1v1v1v1v1v2v1v1v1v2v1v1v1v2v1v1v2v1v2v1v1v2v1v2v1v2v1v2v1v2v1v2v1v2v1v2v1v2v2v1v2v2v1v2v2v1v2v2v1v2v2v2v1v2v2v2v1v2v2v10h-82l-21 -124h-100l162 768h274v-82h-134v-253h119v-83h-119
v-267h152v-83zM215 209v402l-69 -402h69z" />
    <glyph glyph-name="Ccedilla" unicode="&#xc7;" horiz-adv-x="335" 
d="M316 215q0 -231 -141 -231q-31 0 -52 7t-41 29t-32 60.5t-19 103.5t-7 156q0 176 13.5 268.5t46 132t94.5 39.5q73 0 103 -48.5t30 -145.5q0 -55 -9 -120l-88 -1q5 51 5 112q0 70 -9 96.5t-35 26.5q-17 0 -25.5 -18.5t-13.5 -89.5t-5 -216q0 -139 6.5 -207t16.5 -85
t30 -17q21 0 31 35t10 119q0 60 -6 120l91 -2q6 -66 6 -124zM243 -108q0 -40 -19.5 -64t-53.5 -24q-49 0 -77 35l16 43q24 -26 51 -26t27 33q0 36 -31 36q-7 0 -10 -1l8 47q15 3 24 3q29 0 47 -22.5t18 -59.5z" />
    <glyph glyph-name="Egrave" unicode="&#xc8;" horiz-adv-x="308" 
d="M225 793h-51l-84 63h99zM296 0v83h-152v267h119v83h-119v253h134v82h-237v-768h255z" />
    <glyph glyph-name="Eacute" unicode="&#xc9;" horiz-adv-x="308" 
d="M246 856l-84 -63h-51l36 63h99zM296 0v83h-152v267h119v83h-119v253h134v82h-237v-768h255z" />
    <glyph glyph-name="Ecircumflex" unicode="&#xca;" horiz-adv-x="308" 
d="M283 793h-76l-45 27l-45 -27h-76l72 63h97zM296 0v83h-152v267h119v83h-119v253h134v82h-237v-768h255z" />
    <glyph glyph-name="Edieresis" unicode="&#xcb;" horiz-adv-x="308" 
d="M293 793h-96v69h96v-69zM131 793h-96v69h96v-69zM296 0v83h-152v267h119v83h-119v253h134v82h-237v-768h255z" />
    <glyph glyph-name="Igrave" unicode="&#xcc;" horiz-adv-x="188" 
d="M136 793h-51l-84 63h99zM147 0v768h-106v-768h106z" />
    <glyph glyph-name="Iacute" unicode="&#xcd;" horiz-adv-x="188" 
d="M192 856l-84 -63h-51l36 63h99zM147 0v768h-106v-768h106z" />
    <glyph glyph-name="Icircumflex" unicode="&#xce;" horiz-adv-x="188" 
d="M213 793h-76l-45 27l-45 -27h-76l72 63h97zM147 0v768h-106v-768h106z" />
    <glyph glyph-name="Idieresis" unicode="&#xcf;" horiz-adv-x="188" 
d="M223 793h-96v70h96v-70zM61 793h-96v70h96v-70zM147 0v768h-106v-768h106z" />
    <glyph glyph-name="Eth" unicode="&#xd0;" horiz-adv-x="375" 
d="M351 345q0 -141 -12.5 -213t-42 -102t-87.5 -30h-168v344h-41v63h41v361h145q38 0 71 -16.5t49 -49.5q45 -88 45 -357zM239 331q0 216 -12.5 288t-48.5 72h-33v-284h40v-63h-40v-263h34q27 0 38 14t16.5 65.5t5.5 170.5z" />
    <glyph glyph-name="Ntilde" unicode="&#xd1;" horiz-adv-x="361" 
d="M320 0h-82q-22 78 -33 124l-81 354q7 -200 7 -328v-150h-90v768h94q20 -76 31 -124l74 -354q-7 200 -7 328v150h87v-768zM298 867q0 -20 -17 -35t-50 -15q-26 0 -47 13q-5 3 -17 11q-18 11 -29 11q-20 0 -20 -17v-8h-32q-8 12 -8 29q0 50 58 50q34 0 60 -15q7 -4 16 -11
q13 -9 27 -9q19 0 19 22v6h32q8 -15 8 -32z" />
    <glyph glyph-name="Ograve" unicode="&#xd2;" horiz-adv-x="353" 
d="M212 793h-51l-84 63h99zM329 383q0 168 -15.5 253.5t-46.5 114.5t-91 29t-90.5 -29t-46 -114.5t-15.5 -253.5q0 -169 15 -254.5t46 -115t91 -29.5t91 29.5t46.5 115.5t15.5 254zM221 383q0 -193 -4 -248q-3 -42 -11 -57t-30 -15q-20 0 -29 15t-12 57q-3 41 -3 248
q0 209 3 250q3 42 12 57t29 15q22 0 30 -15t11 -57q4 -55 4 -250z" />
    <glyph glyph-name="Oacute" unicode="&#xd3;" horiz-adv-x="353" 
d="M279 856l-84 -63h-51l36 63h99zM329 383q0 168 -15.5 253.5t-46.5 114.5t-91 29t-90.5 -29t-46 -114.5t-15.5 -253.5q0 -169 15 -254.5t46 -115t91 -29.5t91 29.5t46.5 115.5t15.5 254zM221 383q0 -193 -4 -248q-3 -42 -11 -57t-30 -15q-20 0 -29 15t-12 57q-3 41 -3 248
q0 209 3 250q3 42 12 57t29 15q22 0 30 -15t11 -57q4 -55 4 -250z" />
    <glyph glyph-name="Ocircumflex" unicode="&#xd4;" horiz-adv-x="353" 
d="M298 793h-76l-45 27l-45 -27h-76l72 63h97zM329 383q0 168 -15.5 253.5t-46.5 114.5t-91 29t-90.5 -29t-46 -114.5t-15.5 -253.5q0 -169 15 -254.5t46 -115t91 -29.5t91 29.5t46.5 115.5t15.5 254zM221 383q0 -193 -4 -248q-3 -42 -11 -57t-30 -15q-20 0 -29 15t-12 57
q-3 41 -3 248q0 209 3 250q3 42 12 57t29 15q22 0 30 -15t11 -57q4 -55 4 -250z" />
    <glyph glyph-name="Otilde" unicode="&#xd5;" horiz-adv-x="353" 
d="M329 383q0 -168 -15.5 -254t-46.5 -115.5t-91 -29.5t-91 29.5t-46 115t-15 254.5q0 168 15.5 253.5t46 114.5t90.5 29t91 -29t46.5 -114.5t15.5 -253.5zM221 383q0 195 -4 250q-3 42 -11 57t-30 15q-20 0 -29 -15t-12 -57q-3 -41 -3 -250q0 -207 3 -248q3 -42 12 -57
t29 -15q22 0 30 15t11 57q4 55 4 248zM286 843q0 -20 -17 -35t-50 -15q-26 0 -47 13q-5 3 -17 11q-18 11 -29 11q-20 0 -20 -17v-8h-32q-8 12 -8 29q0 50 58 50q34 0 60 -15q7 -4 16 -11q13 -9 27 -9q19 0 19 22v6h32q8 -15 8 -32z" />
    <glyph glyph-name="Odieresis" unicode="&#xd6;" horiz-adv-x="353" 
d="M304 793h-96v68h96v-68zM142 793h-96v68h96v-68zM329 383q0 168 -15.5 253.5t-46.5 114.5t-91 29t-90.5 -29t-46 -114.5t-15.5 -253.5q0 -169 15 -254.5t46 -115t91 -29.5t91 29.5t46.5 115.5t15.5 254zM221 383q0 -193 -4 -248q-3 -42 -11 -57t-30 -15q-20 0 -29 15
t-12 57q-3 41 -3 248q0 209 3 250q3 42 12 57t29 15q22 0 30 -15t11 -57q4 -55 4 -250z" />
    <glyph glyph-name="multiply" unicode="&#xd7;" 
d="M319 388q0 130 -39 223.5t-93 93.5q-55 0 -93.5 -93t-38.5 -224t38.5 -223t93.5 -92q54 0 93 92.5t39 222.5zM303 356l-65 -23l-15 -217l-37 122l-95 15l56 113l-49 154l57 -24l33 152l36 -162z" />
    <glyph glyph-name="Oslash" unicode="&#xd8;" horiz-adv-x="353" 
d="M333 780l-32 -89q28 -83 28 -308q0 -168 -15.5 -254t-46.5 -115.5t-91 -29.5q-79 0 -108 53l-19 -53h-37l36 100q-24 85 -24 299q0 168 15.5 253.5t46 114.5t90.5 29q76 0 106 -47l17 47h34zM220 562q-2 45 -3 71q-3 42 -11 57t-30 15q-20 0 -29 -15t-12 -57
q-3 -41 -3 -250v-66zM221 383v83l-89 -249q0 -7 3 -82q2 -41 11 -56.5t30 -15.5q22 0 30 15t11 57q4 55 4 248z" />
    <glyph glyph-name="Ugrave" unicode="&#xd9;" horiz-adv-x="390" 
d="M237 793h-51l-84 63h99zM351 125v643h-104v-636q0 -33 -12 -48t-40 -15t-40 15t-12 48v636h-104v-643q0 -64 41.5 -102.5t114.5 -38.5q156 0 156 141z" />
    <glyph glyph-name="Uacute" unicode="&#xda;" horiz-adv-x="390" 
d="M296 856l-84 -63h-51l36 63h99zM351 125v643h-104v-636q0 -33 -12 -48t-40 -15t-40 15t-12 48v636h-104v-643q0 -64 41.5 -102.5t114.5 -38.5q156 0 156 141z" />
    <glyph glyph-name="Ucircumflex" unicode="&#xdb;" horiz-adv-x="390" 
d="M316 793h-76l-45 27l-45 -27h-76l72 63h97zM351 125v643h-104v-636q0 -33 -12 -48t-40 -15t-40 15t-12 48v636h-104v-643q0 -64 41.5 -102.5t114.5 -38.5q156 0 156 141z" />
    <glyph glyph-name="Udieresis" unicode="&#xdc;" horiz-adv-x="390" 
d="M326 793h-96v70h96v-70zM164 793h-96v70h96v-70zM351 125v643h-104v-636q0 -33 -12 -48t-40 -15t-40 15t-12 48v636h-104v-643q0 -64 41.5 -102.5t114.5 -38.5q156 0 156 141z" />
    <glyph glyph-name="Yacute" unicode="&#xdd;" horiz-adv-x="341" 
d="M339 768l-116 -470v-298h-106v298l-122 470h112l68 -326l62 326h102zM267 908l-84 -115h-51l36 115h99z" />
    <glyph glyph-name="Thorn" unicode="&#xde;" horiz-adv-x="358" 
d="M340 379q0 -67 -9.5 -110.5t-29.5 -65.5t-43 -29.5t-58 -7.5q-27 0 -55 2v-168h-104v768h104v-163h75q120 0 120 -226zM232 377q0 91 -12.5 122t-45.5 33l-29 1v-284h46q22 0 31.5 30t9.5 98z" />
    <glyph glyph-name="germandbls" unicode="&#xdf;" horiz-adv-x="337" 
d="M314 217q0 -217 -151 -217h-4v72h4q18 0 29 9t19.5 47t8.5 108q0 62 -17 99t-41 37h-3v72h4q27 0 39 31t12 116q0 114 -54 114q-20 0 -32 -14.5t-12 -40.5v-650h-91v589q0 102 32.5 146.5t105.5 44.5q69 0 104 -50.5t35 -161.5q0 -81 -20 -114t-55 -43q44 -19 65.5 -62.5
t21.5 -131.5z" />
    <glyph glyph-name="agrave" unicode="&#xe0;" horiz-adv-x="302" 
d="M299 4q-26 -14 -58 -14q-46 0 -57 42q-20 -42 -66 -42q-45 0 -73.5 33.5t-28.5 130.5q0 70 22 108.5t67 53.5q4 2 13 4.5t13 4.5q21 7 29.5 26t8.5 66q0 51 -5.5 68t-21.5 17q-19 0 -25.5 -15t-6.5 -59q0 -30 5 -58l-73 -3q-11 41 -11 68q0 121 120 121q48 0 76 -22
t28 -61v-397q0 -29 21 -29q13 0 23 5v-48zM167 129v157q-39 -20 -50 -49.5t-11 -90.5q0 -57 7.5 -76.5t27.5 -19.5q18 0 22 16t4 63zM197 599h-51l-84 115h99z" />
    <glyph glyph-name="aacute" unicode="&#xe1;" horiz-adv-x="302" 
d="M299 4q-26 -14 -58 -14q-46 0 -57 42q-20 -42 -66 -42q-45 0 -73.5 33.5t-28.5 130.5q0 70 22 108.5t67 53.5q4 2 13 4.5t13 4.5q21 7 29.5 26t8.5 66q0 51 -5.5 68t-21.5 17q-19 0 -25.5 -15t-6.5 -59q0 -30 5 -58l-73 -3q-11 41 -11 68q0 121 120 121q48 0 76 -22
t28 -61v-397q0 -29 21 -29q13 0 23 5v-48zM167 129v157q-39 -20 -50 -49.5t-11 -90.5q0 -57 7.5 -76.5t27.5 -19.5q18 0 22 16t4 63zM235 714l-84 -115h-51l36 115h99z" />
    <glyph glyph-name="acircumflex" unicode="&#xe2;" horiz-adv-x="302" 
d="M299 4q-26 -14 -58 -14q-46 0 -57 42q-20 -42 -66 -42q-45 0 -73.5 33.5t-28.5 130.5q0 70 22 108.5t67 53.5q4 2 13 4.5t13 4.5q21 7 29.5 26t8.5 66q0 51 -5.5 68t-21.5 17q-19 0 -25.5 -15t-6.5 -59q0 -30 5 -58l-73 -3q-11 41 -11 68q0 121 120 121q48 0 76 -22
t28 -61v-397q0 -29 21 -29q13 0 23 5v-48zM167 129v157q-39 -20 -50 -49.5t-11 -90.5q0 -57 7.5 -76.5t27.5 -19.5q18 0 22 16t4 63zM258 599h-60l-49 50l-51 -50h-58l65 115h87z" />
    <glyph glyph-name="atilde" unicode="&#xe3;" horiz-adv-x="302" 
d="M299 4q-26 -14 -58 -14q-46 0 -57 42q-20 -42 -66 -42q-45 0 -73.5 33.5t-28.5 130.5q0 70 22 108.5t67 53.5q4 2 13 4.5t13 4.5q21 7 29.5 26t8.5 66q0 51 -5.5 68t-21.5 17q-19 0 -25.5 -15t-6.5 -59q0 -30 5 -58l-73 -3q-11 41 -11 68q0 121 120 121q48 0 76 -22
t28 -61v-397q0 -29 21 -29q13 0 23 5v-48zM167 129v157q-39 -20 -50 -49.5t-11 -90.5q0 -57 7.5 -76.5t27.5 -19.5q18 0 22 16t4 63zM258 649q0 -20 -17 -35t-50 -15q-26 0 -47 13q-5 3 -17 11q-18 11 -29 11q-20 0 -20 -17v-8h-32q-8 12 -8 29q0 50 58 50q34 0 60 -15
q7 -4 16 -11q13 -9 27 -9q19 0 19 22v6h32q8 -15 8 -32z" />
    <glyph glyph-name="adieresis" unicode="&#xe4;" horiz-adv-x="302" 
d="M299 4q-26 -14 -58 -14q-46 0 -57 42q-20 -42 -66 -42q-45 0 -73.5 33.5t-28.5 130.5q0 70 22 108.5t67 53.5q4 2 13 4.5t13 4.5q21 7 29.5 26t8.5 66q0 51 -5.5 68t-21.5 17q-19 0 -25.5 -15t-6.5 -59q0 -30 5 -58l-73 -3q-11 41 -11 68q0 121 120 121q48 0 76 -22
t28 -61v-397q0 -29 21 -29q13 0 23 5v-48zM167 129v157q-39 -20 -50 -49.5t-11 -90.5q0 -57 7.5 -76.5t27.5 -19.5q18 0 22 16t4 63zM277 599h-96v88h96v-88zM115 599h-96v88h96v-88z" />
    <glyph glyph-name="aring" unicode="&#xe5;" horiz-adv-x="302" 
d="M237 677q0 -37 -26 -63t-63 -26t-63 26t-26 63t26 63t63 26t63 -26t26 -63zM193 678q0 21 -13 34t-32 13t-32 -12.5t-13 -34.5t13 -35.5t32 -13.5t32 13t13 36zM299 4v48q-10 -5 -23 -5q-21 0 -21 29v397q0 39 -28 61t-76 22q-120 0 -120 -121q0 -27 11 -68l73 3
q-5 28 -5 58q0 44 6.5 59t25.5 15q16 0 21.5 -17t5.5 -68q0 -47 -8.5 -66t-29.5 -26q-4 -2 -13 -4.5t-13 -4.5q-45 -15 -67 -53.5t-22 -108.5q0 -97 28.5 -130.5t73.5 -33.5q46 0 66 42q11 -42 57 -42q32 0 58 14zM167 129q0 -47 -4 -63t-22 -16q-20 0 -27.5 19.5t-7.5 76.5
q0 61 11 90.5t50 49.5v-157z" />
    <glyph glyph-name="ae" unicode="&#xe6;" horiz-adv-x="436" 
d="M411 299q0 -21 -3 -41h-153v-59q0 -88 8 -121t32 -33q23 0 31 23.5t8 102.5q0 13 -2 45l72 -2q5 -22 5 -76q0 -78 -27 -113t-83 -35q-36 0 -58.5 14t-27.5 32q-10 -21 -36.5 -33.5t-50.5 -12.5q-52 0 -81 33t-29 131q0 78 21 112t68 49q20 8 26 10q21 7 32 26t11 66
q0 49 -7.5 67t-24.5 18q-19 0 -25.5 -15t-6.5 -59q0 -30 5 -58l-73 -3q-11 41 -11 68q0 64 26.5 92.5t85.5 28.5q51 0 81 -30q9 12 29 21t39 9q63 0 91 -62.5t28 -194.5zM329 379q-5 83 -11.5 105t-25.5 22q-11 0 -18 -9t-13 -41.5t-8 -91.5v-52h75q3 37 1 67zM174 128v158
q-44 -16 -56 -46t-12 -94q0 -57 7.5 -76.5t27.5 -19.5q18 0 25.5 17.5t7.5 60.5z" />
    <glyph glyph-name="ccedilla" unicode="&#xe7;" horiz-adv-x="290" 
d="M269 158q0 -95 -25.5 -131.5t-91.5 -36.5q-51 0 -78 24.5t-39.5 86.5t-12.5 180q0 71 6 121.5t16 80t27.5 46t35 22t43.5 5.5q63 0 88 -36t25 -124q0 -42 -6 -62l-79 -2q4 28 4 57q0 68 -6 90t-26 22q-11 0 -16.5 -6.5t-10.5 -30.5t-6.5 -69.5t-1.5 -124.5t1.5 -123
t7 -67t12 -29t19.5 -6t19.5 6.5t10.5 34t4 82.5q0 22 -4 80l76 -3q8 -51 8 -87zM219 -101q0 -40 -19.5 -64t-53.5 -24q-49 0 -77 35l16 43q24 -26 51 -26t27 33q0 36 -31 36q-7 0 -10 -1l8 47q15 3 24 3q29 0 47 -22.5t18 -59.5z" />
    <glyph glyph-name="egrave" unicode="&#xe8;" horiz-adv-x="294" 
d="M269 299q0 -21 -3 -41h-153v-59q0 -88 8 -121t32 -33q23 0 31 23.5t8 102.5q0 13 -2 45l72 -2q5 -22 5 -76q0 -78 -27 -113t-83 -35q-51 0 -78 18.5t-42 75t-15 165.5q0 175 30 241t98 66q63 0 91 -62.5t28 -194.5zM187 379q-5 83 -11.5 105t-25.5 22q-12 0 -19 -9.5
t-12 -41t-8 -91.5v-16.5v-16.5v-13v-6h75q3 37 1 67zM189 599h-51l-84 115h99z" />
    <glyph glyph-name="eacute" unicode="&#xe9;" horiz-adv-x="294" 
d="M269 299q0 -21 -3 -41h-153v-59q0 -88 8 -121t32 -33q23 0 31 23.5t8 102.5q0 13 -2 45l72 -2q5 -22 5 -76q0 -78 -27 -113t-83 -35q-51 0 -78 18.5t-42 75t-15 165.5q0 175 30 241t98 66q63 0 91 -62.5t28 -194.5zM187 379q-5 83 -11.5 105t-25.5 22q-12 0 -19 -9.5
t-12 -41t-8 -91.5v-16.5v-16.5v-13v-6h75q3 37 1 67zM245 714l-84 -115h-51l36 115h99z" />
    <glyph glyph-name="ecircumflex" unicode="&#xea;" horiz-adv-x="294" 
d="M269 299q0 -21 -3 -41h-153v-59q0 -88 8 -121t32 -33q23 0 31 23.5t8 102.5q0 13 -2 45l72 -2q5 -22 5 -76q0 -78 -27 -113t-83 -35q-51 0 -78 18.5t-42 75t-15 165.5q0 175 30 241t98 66q63 0 91 -62.5t28 -194.5zM187 379q-5 83 -11.5 105t-25.5 22q-12 0 -19 -9.5
t-12 -41t-8 -91.5v-16.5v-16.5v-13v-6h75q3 37 1 67zM257 599h-60l-49 50l-51 -50h-58l65 115h87z" />
    <glyph glyph-name="edieresis" unicode="&#xeb;" horiz-adv-x="294" 
d="M269 299q0 -21 -3 -41h-153v-59q0 -88 8 -121t32 -33q23 0 31 23.5t8 102.5q0 13 -2 45l72 -2q5 -22 5 -76q0 -78 -27 -113t-83 -35q-51 0 -78 18.5t-42 75t-15 165.5q0 175 30 241t98 66q63 0 91 -62.5t28 -194.5zM187 379q-5 83 -11.5 105t-25.5 22q-12 0 -19 -9.5
t-12 -41t-8 -91.5v-16.5v-16.5v-13v-6h75q3 37 1 67zM280 599h-96v88h96v-88zM118 599h-96v88h96v-88z" />
    <glyph glyph-name="igrave" unicode="&#xec;" horiz-adv-x="139" 
d="M114 0h-89v551h89v-551zM160 599h-51l-84 115h99z" />
    <glyph glyph-name="iacute" unicode="&#xed;" horiz-adv-x="139" 
d="M114 0h-89v551h89v-551zM169 714l-84 -115h-51l36 115h99z" />
    <glyph glyph-name="icircumflex" unicode="&#xee;" horiz-adv-x="139" 
d="M114 0h-89v551h89v-551zM243 599h-60l-49 50l-51 -50h-58l65 115h87z" />
    <glyph glyph-name="idieresis" unicode="&#xef;" horiz-adv-x="139" 
d="M114 0h-89v551h89v-551zM283 599h-96v88h96v-88zM121 599h-96v88h96v-88z" />
    <glyph glyph-name="eth" unicode="&#xf0;" horiz-adv-x="305" 
d="M330 681q0 -46 -76 -60q29 -127 29 -355q0 -163 -27 -219.5t-104 -56.5q-72 0 -101 58t-29 218t27.5 225t102.5 65q17 0 33 -7q-3 44 -12 85q-12 4 -21 4q-30 0 -30 -18q0 -6 2 -12l-37 -7q-16 16 -16 36q0 29 27 42t59 13q-19 54 -55 54t-62 -14l-16 30q34 18 86 18
q81 0 124 -102q8 -3 19 -3q27 0 27 21q0 6 -3 12l39 7q14 -17 14 -34zM189 266q0 80 -1.5 123.5t-6 68t-11 30.5t-18.5 6t-18.5 -6.5t-11 -31.5t-5.5 -67.5t-1 -122.5t1.5 -123.5t6.5 -64t10.5 -24.5t17.5 -4q13 0 18.5 4t10.5 25t6.5 64t1.5 123z" />
    <glyph glyph-name="ntilde" unicode="&#xf1;" horiz-adv-x="298" 
d="M273 0h-91v458q0 31 -30 31q-36 0 -36 -65v-424h-91v551h90q1 -17 -2 -43q21 48 75 48q40 0 62.5 -22t22.5 -65v-469zM257 649q0 -20 -17 -35t-50 -15q-26 0 -47 13q-5 3 -17 11q-18 11 -29 11q-20 0 -20 -17v-8h-32q-8 12 -8 29q0 50 58 50q34 0 60 -15q7 -4 16 -11
q13 -9 27 -9q19 0 19 22v6h32q8 -15 8 -32z" />
    <glyph glyph-name="ograve" unicode="&#xf2;" horiz-adv-x="305" 
d="M283 266q0 -163 -27 -219.5t-104 -56.5q-72 0 -101 58t-29 218t27.5 225t102.5 65q73 0 102 -66.5t29 -223.5zM189 266q0 80 -1.5 123.5t-6 68t-11 30.5t-18.5 6t-18.5 -6.5t-11 -31.5t-5.5 -67.5t-1 -122.5t1.5 -123.5t6.5 -64t10.5 -24.5t17.5 -4q13 0 18.5 4t10.5 25
t6.5 64t1.5 123zM201 599h-51l-84 115h99z" />
    <glyph glyph-name="oacute" unicode="&#xf3;" horiz-adv-x="305" 
d="M283 266q0 -163 -27 -219.5t-104 -56.5q-72 0 -101 58t-29 218t27.5 225t102.5 65q73 0 102 -66.5t29 -223.5zM189 266q0 80 -1.5 123.5t-6 68t-11 30.5t-18.5 6t-18.5 -6.5t-11 -31.5t-5.5 -67.5t-1 -122.5t1.5 -123.5t6.5 -64t10.5 -24.5t17.5 -4q13 0 18.5 4t10.5 25
t6.5 64t1.5 123zM237 714l-84 -115h-51l36 115h99z" />
    <glyph glyph-name="ocircumflex" unicode="&#xf4;" horiz-adv-x="305" 
d="M283 266q0 -163 -27 -219.5t-104 -56.5q-72 0 -101 58t-29 218t27.5 225t102.5 65q73 0 102 -66.5t29 -223.5zM189 266q0 80 -1.5 123.5t-6 68t-11 30.5t-18.5 6t-18.5 -6.5t-11 -31.5t-5.5 -67.5t-1 -122.5t1.5 -123.5t6.5 -64t10.5 -24.5t17.5 -4q13 0 18.5 4t10.5 25
t6.5 64t1.5 123zM262 599h-60l-49 50l-51 -50h-58l65 115h87z" />
    <glyph glyph-name="otilde" unicode="&#xf5;" horiz-adv-x="305" 
d="M283 266q0 -163 -27 -219.5t-104 -56.5q-72 0 -101 58t-29 218t27.5 225t102.5 65q73 0 102 -66.5t29 -223.5zM189 266q0 80 -1.5 123.5t-6 68t-11 30.5t-18.5 6t-18.5 -6.5t-11 -31.5t-5.5 -67.5t-1 -122.5t1.5 -123.5t6.5 -64t10.5 -24.5t17.5 -4q13 0 18.5 4t10.5 25
t6.5 64t1.5 123zM262 649q0 -20 -17 -35t-50 -15q-26 0 -47 13q-5 3 -17 11q-18 11 -29 11q-20 0 -20 -17v-8h-32q-8 12 -8 29q0 50 58 50q34 0 60 -15q7 -4 16 -11q13 -9 27 -9q19 0 19 22v6h32q8 -15 8 -32z" />
    <glyph glyph-name="odieresis" unicode="&#xf6;" horiz-adv-x="305" 
d="M283 266q0 -163 -27 -219.5t-104 -56.5q-72 0 -101 58t-29 218t27.5 225t102.5 65q73 0 102 -66.5t29 -223.5zM189 266q0 80 -1.5 123.5t-6 68t-11 30.5t-18.5 6t-18.5 -6.5t-11 -31.5t-5.5 -67.5t-1 -122.5t1.5 -123.5t6.5 -64t10.5 -24.5t17.5 -4q13 0 18.5 4t10.5 25
t6.5 64t1.5 123zM282 599h-96v88h96v-88zM120 599h-96v88h96v-88z" />
    <glyph glyph-name="divide" unicode="&#xf7;" 
d="M319 388q0 130 -39 223.5t-93 93.5q-55 0 -93.5 -93t-38.5 -224t38.5 -223t93.5 -92q54 0 93 92.5t39 222.5zM303 356l-65 -23l-15 -217l-37 122l-95 15l56 113l-49 154l57 -24l33 152l36 -162z" />
    <glyph glyph-name="oslash" unicode="&#xf8;" horiz-adv-x="305" 
d="M283 266q0 -163 -27 -219.5t-104 -56.5q-58 0 -86 35l-14 -35h-30l26 67q-26 61 -26 209q0 160 27.5 225t102.5 65q53 0 82 -35l14 35h35l-28 -69q28 -64 28 -221zM190 403q-3 57 -11.5 74t-26.5 17q-12 0 -19 -6.5t-12 -30.5t-6.5 -68.5t-1.5 -122.5v-40zM192 266v59
l-77 -173q2 -61 9 -81.5t28 -20.5q17 0 24 9.5t11.5 56t4.5 150.5z" />
    <glyph glyph-name="ugrave" unicode="&#xf9;" horiz-adv-x="298" 
d="M273 0v551h-91v-391q0 -98 -41 -98q-25 0 -25 37v452h-91v-469q0 -44 20.5 -68t58.5 -24q26 0 48.5 15.5t32.5 44.5l-2 -50h90zM213 599l-35 121h-96l81 -121h50z" />
    <glyph glyph-name="uacute" unicode="&#xfa;" horiz-adv-x="298" 
d="M273 0h-90q-1 24 2 50q-10 -29 -32.5 -44.5t-48.5 -15.5q-38 0 -58.5 24t-20.5 68v469h91v-452q0 -37 25 -37q41 0 41 98v391h91v-551zM232 714l-84 -115h-51l36 115h99z" />
    <glyph glyph-name="ucircumflex" unicode="&#xfb;" horiz-adv-x="298" 
d="M273 0h-90q-1 24 2 50q-10 -29 -32.5 -44.5t-48.5 -15.5q-38 0 -58.5 24t-20.5 68v469h91v-452q0 -37 25 -37q41 0 41 98v391h91v-551zM257 599h-60l-49 50l-51 -50h-58l65 115h87z" />
    <glyph glyph-name="udieresis" unicode="&#xfc;" horiz-adv-x="298" 
d="M273 0h-90q-1 24 2 50q-10 -29 -32.5 -44.5t-48.5 -15.5q-38 0 -58.5 24t-20.5 68v469h91v-452q0 -37 25 -37q41 0 41 98v391h91v-551zM282 599h-96v88h96v-88zM120 599h-96v88h96v-88z" />
    <glyph glyph-name="yacute" unicode="&#xfd;" horiz-adv-x="288" 
d="M291 551q-7 -43 -28.5 -183.5t-39 -252.5t-17.5 -115q-14 -100 -39.5 -138t-80.5 -38q-107 0 -107 102q0 15 2 41l78 9q-3 -33 -3 -39q0 -50 31 -50q17 0 23 15.5t14 76.5l-130 572h95l68 -372l41 372h93zM245 714l-84 -115h-51l36 115h99z" />
    <glyph glyph-name="thorn" unicode="&#xfe;" horiz-adv-x="308" 
d="M283 271q0 -87 -7.5 -144t-24 -86t-35.5 -40t-48 -11q-27 0 -54 35v-200h-89v943h89v-258q16 46 70 46q21 0 37.5 -12t31 -41t22.5 -88t8 -144zM189 272q0 103 -4.5 152t-11.5 59.5t-22 10.5q-13 0 -21 -12.5t-14 -64t-6 -146.5q0 -221 41 -221q13 0 19 4.5t11 27
t6.5 65.5t1.5 125z" />
    <glyph glyph-name="ydieresis" unicode="&#xff;" horiz-adv-x="288" 
d="M291 551q-7 -43 -28.5 -183.5t-39 -252.5t-17.5 -115q-14 -100 -39.5 -138t-80.5 -38q-107 0 -107 102q0 15 2 41l78 9q-3 -33 -3 -39q0 -50 31 -50q17 0 23 15.5t14 76.5l-130 572h95l68 -372l41 372h93zM277 599h-96v88h96v-88zM115 599h-96v88h96v-88z" />
    <glyph glyph-name="dotlessi" unicode="&#x131;" horiz-adv-x="139" 
d="M114 0h-89v551h89v-551z" />
    <glyph glyph-name="Lslash" unicode="&#x141;" horiz-adv-x="312" 
d="M306 0h-265v306l-41 -13v75l41 13v387h105v-355l143 45v-75l-143 -45v-253h160v-85z" />
    <glyph glyph-name="lslash" unicode="&#x142;" horiz-adv-x="143" 
d="M155 383l-37 -20v-363h-93v313l-37 -20v75l37 20v380h93v-330l37 20v-75z" />
    <glyph glyph-name="OE" unicode="&#x152;" horiz-adv-x="488" 
d="M476 0h-229q-24 -13 -71 -13q-61 0 -91.5 29t-45.5 113.5t-15 253.5q0 168 15.5 253t46 113t90.5 28q33 0 64 -9h218v-82h-137v-253h122v-83h-122v-267h155v-83zM225 383q0 195 -4 250q-3 42 -12 57t-31 15q-21 0 -30.5 -15.5t-12.5 -56.5t-3 -250q0 -207 3 -248
t12.5 -56.5t30.5 -15.5q22 0 31 15t12 57q4 55 4 248z" />
    <glyph glyph-name="oe" unicode="&#x153;" horiz-adv-x="459" 
d="M434 299q0 -21 -3 -41h-153v-59q0 -88 8 -121t32 -33q23 0 31 23.5t8 102.5q0 13 -2 45l72 -2q5 -22 5 -76q0 -78 -27 -113t-83 -35q-70 0 -86 30q-17 -17 -34.5 -23.5t-49.5 -6.5q-72 0 -101 58t-29 218t27.5 225t102.5 65q51 0 83 -40q29 40 80 40q63 0 91 -62.5
t28 -194.5zM352 379q-5 83 -11.5 105t-25.5 22q-12 0 -19 -9.5t-12 -41t-8 -91.5v-52h75q3 37 1 67zM189 266q0 80 -1.5 123.5t-6 68t-11 30.5t-18.5 6t-18.5 -6.5t-11 -31.5t-5.5 -67.5t-1 -122.5t1.5 -123.5t6.5 -64t10.5 -24.5t17.5 -4q13 0 18.5 4t10.5 25t6.5 64
t1.5 123z" />
    <glyph glyph-name="Scaron" unicode="&#x160;" horiz-adv-x="350" 
d="M331 201q0 -217 -155 -217q-72 0 -109 45.5t-37 153.5q0 54 14 108l89 4q-6 -45 -6 -107q0 -77 12 -101t39 -24q10 0 17 3.5t15.5 13.5t13 35t4.5 63q0 84 -19 122t-67 63q-6 3 -15.5 8.5t-14.5 7.5q-93 49 -93 202q0 98 37 148.5t108 50.5q141 0 141 -172q0 -35 -9 -80
l-86 -8q3 21 3 83q0 106 -47 106q-23 0 -33.5 -22t-10.5 -76q0 -65 14 -94t57 -51q4 -2 16 -8.5t18 -9.5q104 -55 104 -247zM274 881l-66 -88h-87l-65 88h68l41 -40l40 40h69z" />
    <glyph glyph-name="scaron" unicode="&#x161;" horiz-adv-x="293" 
d="M274 155q0 -165 -132 -165q-57 0 -87.5 33t-30.5 99q0 34 9 83l78 8q-9 -47 -9 -78q0 -41 8 -59t29 -18q42 0 42 75q0 50 -13.5 73.5t-56.5 48.5q-5 3 -15.5 8.5t-14.5 7.5q-32 18 -46 49t-14 87q0 71 35 110t86 39t81 -32t30 -99q0 -35 -7 -63l-77 -3q6 24 6 63
q0 70 -34 70q-33 0 -33 -63q0 -25 1.5 -36.5t13 -27.5t34.5 -28q8 -4 30 -16q87 -47 87 -166zM251 687l-66 -88h-87l-65 88h68l41 -40l40 40h69z" />
    <glyph glyph-name="Ydieresis" unicode="&#x178;" horiz-adv-x="341" 
d="M306 793h-96v70h96v-70zM144 793h-96v70h96v-70zM339 768h-102l-62 -326l-68 326h-112l122 -470v-298h106v298z" />
    <glyph glyph-name="Zcaron" unicode="&#x17d;" horiz-adv-x="318" 
d="M304 674l-189 -586h186v-88h-291v92l192 590h-171v86h273v-94zM287 881l-66 -88h-87l-65 88h68l41 -40l40 40h69z" />
    <glyph glyph-name="zcaron" unicode="&#x17e;" horiz-adv-x="239" 
d="M236 476l-132 -402h129v-74h-227v59l139 423h-108v69h199v-75zM251 687l-66 -88h-87l-65 88h68l41 -40l40 40h69z" />
    <glyph glyph-name="florin" unicode="&#x192;" horiz-adv-x="306" 
d="M315 666q0 -23 -6 -67l-81 -1q5 40 5 60q0 55 -19 55t-19 -35v-127h57v-62h-57v-415q0 -49 -28 -74.5t-75 -25.5q-103 0 -103 101q0 14 6 58l76 1q-4 -32 -4 -51q0 -27 4.5 -36.5t15.5 -9.5q17 0 17 35v417h-49v62h49v125q0 48 30.5 74t77.5 26q103 0 103 -110z" />
    <glyph glyph-name="circumflex" unicode="&#x2c6;" horiz-adv-x="370" 
d="M301 599h-60l-49 50l-51 -50h-58l65 115h87z" />
    <glyph glyph-name="caron" unicode="&#x2c7;" horiz-adv-x="370" 
d="M301 687l-66 -88h-87l-65 88h68l41 -40l40 40h69z" />
    <glyph glyph-name="breve" unicode="&#x2d8;" horiz-adv-x="370" 
d="M307 695q0 -43 -31 -69.5t-90 -26.5q-55 0 -88 27t-33 69h71q-1 -19 8.5 -30.5t41.5 -11.5t41.5 11.5t8.5 30.5h71z" />
    <glyph glyph-name="dotaccent" unicode="&#x2d9;" horiz-adv-x="370" 
d="M240 599h-111v89h111v-89z" />
    <glyph glyph-name="ring" unicode="&#x2da;" horiz-adv-x="370" 
d="M284 696q0 -41 -29 -70t-70 -29t-70 29t-29 70t29 70t70 29t70 -29t29 -70zM230 696q0 22 -13 35t-32 13t-32 -13t-13 -35q0 -48 45 -48q19 0 32 13t13 35z" />
    <glyph glyph-name="ogonek" unicode="&#x2db;" horiz-adv-x="370" 
d="M244 -103q0 -24 -17 -36.5t-45 -12.5q-33 0 -51.5 17.5t-18.5 44.5q0 57 71 90h38q-57 -41 -57 -90q0 -26 20 -26q17 0 17 20l-3 15l43 -6q3 -6 3 -16z" />
    <glyph glyph-name="tilde" unicode="&#x2dc;" horiz-adv-x="370" 
d="M303 649q0 -20 -17 -35t-50 -15q-26 0 -47 13q-5 3 -17 11q-18 11 -29 11q-20 0 -20 -17v-8h-32q-8 12 -8 29q0 50 58 50q34 0 60 -15q7 -4 16 -11q13 -9 27 -9q19 0 19 22v6h32q8 -15 8 -32z" />
    <glyph glyph-name="hungarumlaut" unicode="&#x2dd;" horiz-adv-x="370" 
d="M320 675l-84 -76h-51l36 76h99zM199 675l-84 -76h-51l36 76h99z" />
    <glyph glyph-name="endash" unicode="&#x2013;" horiz-adv-x="541" 
d="M516 325h-491v78h491v-78z" />
    <glyph glyph-name="emdash" unicode="&#x2014;" horiz-adv-x="655" 
d="M629 325h-604v78h604v-78z" />
    <glyph glyph-name="quoteleft" unicode="&#x2018;" horiz-adv-x="208" 
d="M157 485h-114v155q0 53 12.5 84t42.5 59q12 11 29 18l15 -36q-23 -15 -36 -41q-17 -33 -14 -84h65v-155z" />
    <glyph glyph-name="quoteright" unicode="&#x2019;" horiz-adv-x="208" 
d="M158 613q0 -53 -12 -83.5t-42 -58.5q-13 -12 -30 -19l-15 36q21 13 36 41q17 33 14 84h-65v155h114v-155z" />
    <glyph glyph-name="quotesinglbase" unicode="&#x201a;" horiz-adv-x="208" 
d="M158 0q0 -53 -12 -83.5t-42 -58.5q-13 -12 -30 -19l-15 36q21 13 36 41q17 33 14 84h-65v165h114v-165z" />
    <glyph glyph-name="quotedblleft" unicode="&#x201c;" horiz-adv-x="372" 
d="M331 485h-114v155q0 53 12 83.5t42 58.5q13 12 30 19l15 -36q-21 -13 -36 -41q-17 -33 -14 -84h65v-155zM157 485h-114v155q0 53 12.5 84t42.5 59q12 11 29 18l15 -36q-23 -15 -36 -41q-17 -33 -14 -84h65v-155z" />
    <glyph glyph-name="quotedblright" unicode="&#x201d;" horiz-adv-x="372" 
d="M332 613q0 -53 -12.5 -84t-42.5 -59q-12 -11 -29 -18l-15 36q23 16 36 41q17 33 14 84h-65v155h114v-155zM158 613q0 -53 -12 -83.5t-42 -58.5q-13 -12 -30 -19l-15 36q21 13 36 41q17 33 14 84h-65v155h114v-155z" />
    <glyph glyph-name="quotedblbase" unicode="&#x201e;" horiz-adv-x="372" 
d="M332 0q0 -53 -12.5 -84t-42.5 -59q-12 -11 -29 -18l-15 36q23 15 36 41q17 33 14 84h-65v165h114v-165zM158 0q0 -53 -12 -83.5t-42 -58.5q-13 -12 -30 -19l-15 36q21 13 36 41q17 33 14 84h-65v165h114v-165z" />
    <glyph glyph-name="dagger" unicode="&#x2020;" horiz-adv-x="336" 
d="M317 547h-102v-624h-94v624h-102v77h100v150h98v-150h100v-77z" />
    <glyph glyph-name="daggerdbl" unicode="&#x2021;" horiz-adv-x="336" 
d="M317 175h-101v-220h-96v220h-101v77h101v295h-101v77h101v150h96v-150h101v-77h-101v-295h101v-77z" />
    <glyph glyph-name="bullet" unicode="&#x2022;" horiz-adv-x="502" 
d="M476 400q0 -91 -66 -156t-159 -65q-94 0 -160 64.5t-66 156.5t66 156.5t160 64.5q93 0 159 -65t66 -156z" />
    <glyph glyph-name="ellipsis" unicode="&#x2026;" horiz-adv-x="624" 
d="M573 0h-106v155h106v-155zM365 0h-106v155h106v-155zM157 0h-106v155h106v-155z" />
    <glyph glyph-name="perthousand" unicode="&#x2030;" horiz-adv-x="814" 
d="M797 194q0 -118 -28.5 -160.5t-88.5 -42.5q-58 0 -87.5 43t-29.5 160q0 128 31.5 178.5t85.5 50.5q60 0 88.5 -49t28.5 -180zM247 545q0 -118 -28.5 -160.5t-88.5 -42.5q-58 0 -87.5 43t-29.5 160q0 128 31.5 178.5t85.5 50.5q60 0 88.5 -49t28.5 -180zM515 760
l-419 -760h-60l419 760h60zM534 194q0 -118 -28.5 -160.5t-88.5 -42.5q-58 0 -87.5 43t-29.5 160q0 128 31.5 178.5t85.5 50.5q60 0 88.5 -49t28.5 -180zM709 206q0 65 -3.5 96t-9 39t-17.5 8q-11 0 -16.5 -8.5t-8.5 -39.5t-3 -95q0 -63 4 -95t9 -39t15 -7q11 0 16.5 7.5
t9.5 39t4 94.5zM159 557q0 65 -3.5 96t-9 39t-17.5 8q-11 0 -16.5 -8.5t-8.5 -39.5t-3 -95q0 -63 4 -95t9 -39t15 -7q11 0 16.5 7.5t9.5 39t4 94.5zM446 206q0 65 -3.5 96t-9 39t-17.5 8q-11 0 -16.5 -8.5t-8.5 -39.5t-3 -95q0 -63 4 -95t9 -39t15 -7q11 0 16.5 7.5t9.5 39
t4 94.5z" />
    <glyph glyph-name="guilsinglleft" unicode="&#x2039;" horiz-adv-x="264" 
d="M213 59l-165 166v129l165 164v-119l-101 -110l101 -111v-119z" />
    <glyph glyph-name="guilsinglright" unicode="&#x203a;" horiz-adv-x="264" 
d="M225 225l-165 -166v119l101 111l-101 110v119l165 -164v-129z" />
    <glyph glyph-name="fraction" unicode="&#x2044;" horiz-adv-x="255" 
d="M393 780l-476 -796h-55l476 796h55z" />
    <glyph glyph-name="trademark" unicode="&#x2122;" horiz-adv-x="420" 
d="M388 537h-52v173l-24 -173h-48l-28 173v-173h-53v231h87l15 -141v-10h4v10l16 141h83v-231zM162 722h-48v-185h-54v185h-47v46h149v-46z" />
    <glyph glyph-name="minus" unicode="&#x2212;" 
d="M319 388q0 130 -39 223.5t-93 93.5q-55 0 -93.5 -93t-38.5 -224t38.5 -223t93.5 -92q54 0 93 92.5t39 222.5zM303 356l-65 -23l-15 -217l-37 122l-95 15l56 113l-49 154l57 -24l33 152l36 -162z" />
    <glyph glyph-name="fi" unicode="&#xfb01;" horiz-adv-x="342" 
d="M313 627l-86 -11q9 106 -42 106q-45 0 -45 -50v-121h59v-62h-59v-489h-89v489h-49v62h49v125q0 100 125 100q34 0 59.5 -6t47 -21.5t29.5 -46t1 -75.5zM313 0h-91v551h91v-551z" />
    <glyph glyph-name="fl" unicode="&#xfb02;" horiz-adv-x="343" 
d="M313 0h-89v698q-14 24 -42 24q-23 0 -32.5 -12t-9.5 -38v-121h54v-62h-54v-489h-89v489h-49v62h49v125q0 100 125 100q81 0 137 -31v-745z" />
    <glyph glyph-name="c274" horiz-adv-x="375" 
d="M425 666q0 -23 -6 -67l-66 -1q4 32 4 60q0 55 -23 55q-19 0 -19 -35v-127h57v-62h-57v-489h-91v489h-84v-489h-89v489h-49v62h49v125q0 100 125 100q58 0 86 -20q27 20 65 20q47 0 72.5 -28t25.5 -82zM224 551v142q-10 31 -39 31q-45 0 -45 -52v-121h84z" />
    <glyph glyph-name="c275" horiz-adv-x="513" 
d="M486 0h-91v551h91v-551zM489 666q0 -20 -3 -39l-86 -11q6 54 -6 80t-36 26q-45 0 -45 -50v-121h59v-62h-59v-489h-89v489h-84v-489h-89v489h-49v62h49v125q0 100 125 100q64 0 90 -23q31 23 83 23q140 0 140 -110zM224 551v142q-12 31 -39 31q-45 0 -45 -52v-121h84z" />
    <glyph glyph-name="c276" 
d="M319 388q0 130 -39 223.5t-93 93.5q-55 0 -93.5 -93t-38.5 -224t38.5 -223t93.5 -92q54 0 93 92.5t39 222.5zM303 356l-65 -23l-15 -217l-37 122l-95 15l56 113l-49 154l57 -24l33 152l36 -162z" />
    <glyph glyph-name="c277" 
d="M319 388q0 130 -39 223.5t-93 93.5q-55 0 -93.5 -93t-38.5 -224t38.5 -223t93.5 -92q54 0 93 92.5t39 222.5zM303 356l-65 -23l-15 -217l-37 122l-95 15l56 113l-49 154l57 -24l33 152l36 -162z" />
    <glyph glyph-name="c278" 
d="M319 388q0 130 -39 223.5t-93 93.5q-55 0 -93.5 -93t-38.5 -224t38.5 -223t93.5 -92q54 0 93 92.5t39 222.5zM303 356l-65 -23l-15 -217l-37 122l-95 15l56 113l-49 154l57 -24l33 152l36 -162z" />
    <glyph glyph-name="c279" 
d="M319 388q0 130 -39 223.5t-93 93.5q-55 0 -93.5 -93t-38.5 -224t38.5 -223t93.5 -92q54 0 93 92.5t39 222.5zM303 356l-65 -23l-15 -217l-37 122l-95 15l56 113l-49 154l57 -24l33 152l36 -162z" />
    <glyph glyph-name="c280" 
d="M319 388q0 130 -39 223.5t-93 93.5q-55 0 -93.5 -93t-38.5 -224t38.5 -223t93.5 -92q54 0 93 92.5t39 222.5zM303 356l-65 -23l-15 -217l-37 122l-95 15l56 113l-49 154l57 -24l33 152l36 -162z" />
    <glyph glyph-name="c281" horiz-adv-x="592" 
d="M567 497q0 -113 -80.5 -193.5t-193.5 -80.5t-193.5 80.5t-80.5 193.5q0 112 80.5 192.5t193.5 80.5t193.5 -80.5t80.5 -192.5zM539 497q0 101 -72.5 173.5t-173.5 72.5t-173.5 -72.5t-72.5 -173.5t72.5 -174t173.5 -73t173.5 73t72.5 174zM413 580q0 -62 -28 -90t-72 -28
q-21 0 -38 1v-161h-69v402h121q39 0 62.5 -30t23.5 -94zM341 579q0 44 -8.5 58t-28.5 14h-29v-133h38q28 0 28 61z" />
    <glyph glyph-name="c282" 
d="M319 388q0 130 -39 223.5t-93 93.5q-55 0 -93.5 -93t-38.5 -224t38.5 -223t93.5 -92q54 0 93 92.5t39 222.5zM303 356l-65 -23l-15 -217l-37 122l-95 15l56 113l-49 154l57 -24l33 152l36 -162z" />
    <glyph glyph-name="c283" 
d="M319 388q0 130 -39 223.5t-93 93.5q-55 0 -93.5 -93t-38.5 -224t38.5 -223t93.5 -92q54 0 93 92.5t39 222.5zM303 356l-65 -23l-15 -217l-37 122l-95 15l56 113l-49 154l57 -24l33 152l36 -162z" />
    <glyph glyph-name="c284" horiz-adv-x="650" 
d="M696 931q-53 -72 -118 -215.5t-109 -270.5q-109 -313 -148 -545l-86 -44l-202 414l126 60l110 -332q48 243 127 469q85 239 181 410z" />
    <glyph glyph-name="c285" 
d="M319 388q0 130 -39 223.5t-93 93.5q-55 0 -93.5 -93t-38.5 -224t38.5 -223t93.5 -92q54 0 93 92.5t39 222.5zM303 356l-65 -23l-15 -217l-37 122l-95 15l56 113l-49 154l57 -24l33 152l36 -162z" />
    <glyph glyph-name="c286" 
d="M319 388q0 130 -39 223.5t-93 93.5q-55 0 -93.5 -93t-38.5 -224t38.5 -223t93.5 -92q54 0 93 92.5t39 222.5zM303 356l-65 -23l-15 -217l-37 122l-95 15l56 113l-49 154l57 -24l33 152l36 -162z" />
    <glyph glyph-name="c287" 
d="M319 388q0 130 -39 223.5t-93 93.5q-55 0 -93.5 -93t-38.5 -224t38.5 -223t93.5 -92q54 0 93 92.5t39 222.5zM303 356l-65 -23l-15 -217l-37 122l-95 15l56 113l-49 154l57 -24l33 152l36 -162z" />
    <glyph glyph-name="c288" 
d="M319 388q0 -130 -39 -222.5t-93 -92.5q-55 0 -93.5 92t-38.5 223t38.5 224t93.5 93q54 0 93 -93.5t39 -223.5zM303 356l-79 130l-36 162l-33 -152l-57 24l49 -154l-56 -113l95 -15l37 -122l15 217z" />
    </font>
</defs>
</svg>
