<?xml version="1.0" standalone="no"?>
<!DOCTYPE svg PUBLIC "-//W3C//DTD SVG 1.1//EN" "http://www.w3.org/Graphics/SVG/1.1/DTD/svg11.dtd" >
<svg xmlns="http://www.w3.org/2000/svg" xmlns:xlink="http://www.w3.org/1999/xlink" version="1.1">
<metadata>
Created by FontForge 20170731 at Mon May  7 09:28:14 2007
 By Aleksey,,,
Copr.1990, 1991, 1992, 1993 The Font Bureau, Inc.
</metadata>
<defs>
<font id="BureauGrotesque-OneFive" horiz-adv-x="328" >
  <font-face 
    font-family="BureauGrotesque OneFive"
    font-weight="500"
    font-stretch="normal"
    units-per-em="1000"
    panose-1="0 0 0 0 0 0 0 0 0 0"
    ascent="800"
    descent="-200"
    x-height="547"
    cap-height="768"
    bbox="-139 -200 920 940"
    underline-thickness="20"
    underline-position="-173"
    unicode-range="U+0020-FB02"
  />
<missing-glyph horiz-adv-x="500" 
 />
    <glyph glyph-name=".notdef" horiz-adv-x="500" 
 />
    <glyph glyph-name=".null" horiz-adv-x="0" 
 />
    <glyph glyph-name="nonmarkingreturn" horiz-adv-x="333" 
 />
    <glyph glyph-name="space" unicode=" " horiz-adv-x="230" 
 />
    <glyph glyph-name="exclam" unicode="!" horiz-adv-x="210" 
d="M170 483l-33 -249h-65l-32 249v285h130v-285zM168 0h-126v165h126v-165z" />
    <glyph glyph-name="quotedbl" unicode="&#x22;" horiz-adv-x="330" 
d="M290 519h-102v249h102v-249zM142 519h-102v249h102v-249z" />
    <glyph glyph-name="numbersign" unicode="#" horiz-adv-x="513" 
d="M513 551l-14 -108h-105l-15 -117h105l-15 -109h-105l-29 -217h-80l30 217h-101l-30 -217h-79l29 217h-104l14 109h104l16 117h-105l15 108h105l30 217h79l-30 -217h101l31 217h78l-28 -217h103zM315 443h-101l-16 -117h101z" />
    <glyph glyph-name="dollar" unicode="$" horiz-adv-x="403" 
d="M390 241q0 -105 -35 -151t-112 -58v-65h-80v66q-58 13 -91.5 50.5t-33.5 120.5q0 18 8 74l118 11q-4 -15 -4 -60q0 -58 12 -84t38 -26q25 0 37 19.5t12 69.5q0 54 -19.5 83.5t-68.5 56.5q-80 44 -113.5 88.5t-33.5 117.5q0 170 139 188v38h80v-41q116 -17 116 -152
q0 -26 -8 -60l-110 -8q4 22 4 43q0 54 -10.5 76t-37.5 22q-45 0 -45 -80q0 -38 19.5 -61t75.5 -53q68 -36 105.5 -87.5t37.5 -137.5z" />
    <glyph glyph-name="percent" unicode="%" horiz-adv-x="637" 
d="M286 545q0 -118 -32.5 -160.5t-102.5 -42.5q-67 0 -101.5 43t-34.5 160q0 128 36.5 178.5t99.5 50.5q70 0 102.5 -49t32.5 -180zM596 760l-485 -760h-69l485 760h69zM618 194q0 -118 -32.5 -160.5t-102.5 -42.5q-67 0 -101.5 43t-34.5 160q0 128 36.5 178.5t99.5 50.5
q70 0 102.5 -49t32.5 -180zM173 557q0 50 -1 77t-3.5 42.5t-6.5 19.5t-12 4t-11.5 -3.5t-6.5 -19.5t-3.5 -42.5t-0.5 -77.5t1 -78t3.5 -41.5t6 -18t11.5 -3.5q16 0 19.5 21t3.5 120zM505 206q0 50 -1 77t-3.5 42.5t-6.5 19.5t-12 4t-11.5 -3.5t-6.5 -19.5t-3.5 -42.5
t-0.5 -77.5t1 -78t3.5 -41.5t6 -18t11.5 -3.5q16 0 19.5 21t3.5 120z" />
    <glyph glyph-name="ampersand" unicode="&#x26;" horiz-adv-x="558" 
d="M544 122q0 -64 -35 -98t-93 -34q-37 0 -56 10t-37 35q-45 -45 -124 -45q-72 0 -124.5 61t-52.5 163q0 82 40 150.5t104 116.5q-26 97 -26 137q0 162 138 162q70 0 101 -34.5t31 -103.5q0 -91 -105 -182l59 -185q19 45 32 111q15 77 15 132h85q0 -98 -30 -210
q-28 -103 -59 -158q12 -29 22 -40.5t24 -11.5q28 0 28 31q0 23 -7 41l59 10q11 -30 11 -58zM313 642q0 56 -28 56q-14 0 -18.5 -14.5t-4.5 -46.5q0 -27 16 -79q35 46 35 84zM281 123l-79 236q-41 -46 -41 -139q0 -56 21.5 -84.5t56.5 -28.5q11 0 24.5 5.5t17.5 10.5z" />
    <glyph glyph-name="quotesingle" unicode="'" horiz-adv-x="182" 
d="M142 519h-102v249h102v-249z" />
    <glyph glyph-name="parenleft" unicode="(" horiz-adv-x="285" 
d="M255 -141l-16 -12q-97 86 -142.5 202.5t-44.5 278.5q1 150 51.5 273.5t129.5 195.5l18 -15q-33 -103 -44.5 -204.5t-11.5 -250.5q0 -148 11.5 -242.5t48.5 -225.5z" />
    <glyph glyph-name="parenright" unicode=")" horiz-adv-x="285" 
d="M233 329q1 -162 -44.5 -278.5t-142.5 -202.5l-16 12q37 131 48.5 225.5t11.5 242.5q0 149 -11.5 250.5t-44.5 204.5l18 15q79 -72 129.5 -195.5t51.5 -273.5z" />
    <glyph glyph-name="asterisk" unicode="*" horiz-adv-x="351" 
d="M317 604l-50 -73l-63 57l-3 -3l20 -87h-93l20 87l-4 3l-65 -57l-48 73l87 28v6l-86 29l47 78l64 -61l5 2l-20 88h93l-20 -87l3 -3l61 61l50 -79l-85 -28v-4z" />
    <glyph glyph-name="plus" unicode="+" horiz-adv-x="506" 
d="M475 307h-161v-163h-123v163h-164v108h164v164h123v-164h161v-108z" />
    <glyph glyph-name="comma" unicode="," horiz-adv-x="241" 
d="M194 19q0 -80 -44 -127q-35 -38 -68 -53l-20 55q25 17 38 38q16 27 14 68h-66v165h146v-146z" />
    <glyph glyph-name="hyphen" unicode="-" horiz-adv-x="358" 
d="M335 267h-312v111h312v-111z" />
    <glyph glyph-name="period" unicode="." horiz-adv-x="239" 
d="M191 0h-143v165h143v-165z" />
    <glyph glyph-name="slash" unicode="/" horiz-adv-x="341" 
d="M337 768l-266 -768h-70l267 768h69z" />
    <glyph glyph-name="zero" unicode="0" horiz-adv-x="389" 
d="M364 367q0 -161 -18 -243t-51.5 -108t-99.5 -26q-68 0 -102 26.5t-51 107.5t-17 243q0 170 16.5 257t51.5 118.5t102 31.5t101.5 -30t51 -117.5t16.5 -259.5zM226 383q0 186 -4 241q-3 46 -7.5 59t-19.5 13t-20 -13t-8 -57q-5 -68 -5 -241q0 -169 5 -237q3 -48 7.5 -61
t20.5 -13q15 0 19 12t8 60q4 44 4 237z" />
    <glyph glyph-name="one" unicode="1" horiz-adv-x="306" 
d="M264 0h-134v604h-115v76q66 8 110 32q45 26 65 62h74v-774z" />
    <glyph glyph-name="two" unicode="2" horiz-adv-x="398" 
d="M375 560q0 -211 -193 -439q28 5 61 5h125v-126h-331v77q116 148 157 249.5t41 234.5q0 65 -8 86.5t-29 21.5q-22 0 -29 -23t-7 -88q0 -41 13 -121l-124 -4q-21 90 -21 139q0 98 45.5 150t128.5 52q171 0 171 -214z" />
    <glyph glyph-name="three" unicode="3" horiz-adv-x="391" 
d="M376 217q0 -125 -48.5 -176t-142.5 -51q-82 0 -123 48.5t-41 133.5q0 67 10 110l128 4q-10 -42 -10 -85q0 -58 9 -80.5t31 -22.5q26 0 34.5 27.5t8.5 106.5q0 68 -15.5 98t-50.5 30h-63v105h63q30 0 40 23t10 83q0 64 -6 84t-27 20q-20 0 -27 -18.5t-7 -59.5q0 -15 7 -67
l-124 5q-9 31 -9 70q0 76 43 122.5t120 46.5q92 0 130 -50.5t38 -166.5q0 -124 -95 -138q53 -4 85 -56.5t32 -145.5z" />
    <glyph glyph-name="four" unicode="4" horiz-adv-x="415" 
d="M405 158h-57v-158h-134v158h-192v149l186 461h140v-502h57v-108zM219 549l-107 -283h104z" />
    <glyph glyph-name="five" unicode="5" horiz-adv-x="405" 
d="M380 281q0 -161 -44.5 -226t-132.5 -65q-163 0 -163 176q0 44 11 93l126 9q-7 -30 -7 -73q0 -61 7 -79.5t29 -18.5q25 0 30 29t5 155q0 96 -10.5 131.5t-32.5 35.5q-21 0 -28 -22.5t-6 -71.5l-114 3l4 411h287q0 -39 -1 -56q-2 -32 -7 -54h-167l-8 -140q23 39 71 39
q69 0 110 -68.5t41 -207.5z" />
    <glyph glyph-name="six" unicode="6" horiz-adv-x="395" 
d="M377 255q0 -144 -44 -204.5t-132 -60.5q-101 0 -138.5 86t-37.5 311q0 120 11.5 198t37 118.5t57 55.5t78.5 15q73 0 109 -38t36 -108q0 -38 -8 -73l-117 -4q7 28 7 62q0 40 -8 54.5t-27 14.5q-27 0 -35.5 -35t-8.5 -143q0 -19 2 -57q25 48 76 48q67 0 104.5 -59.5
t37.5 -180.5zM239 246q0 72 -3.5 105t-11 43t-23.5 10q-26 0 -33 -29t-7 -129q0 -70 4.5 -104t12.5 -43.5t24 -9.5q14 0 21.5 9.5t11.5 43.5t4 104z" />
    <glyph glyph-name="seven" unicode="7" horiz-adv-x="345" 
d="M344 676q-64 -125 -93 -243.5t-29 -268.5q0 -85 11 -164h-156q-6 57 -6 78q0 149 39 296.5t100 262.5h-203q-7 23 -7 71q0 10 5 60h339v-92z" />
    <glyph glyph-name="eight" unicode="8" horiz-adv-x="396" 
d="M375 214q0 -119 -42 -171.5t-135 -52.5q-91 0 -134 53t-43 171q0 176 82 211q-37 14 -52.5 47.5t-15.5 96.5q0 105 39.5 155t123.5 50q83 0 123 -50.5t40 -154.5q0 -61 -17 -93.5t-51 -50.5q41 -16 61.5 -65t20.5 -146zM228 579q0 65 -5.5 85t-24.5 20q-21 0 -25.5 -17
t-4.5 -88t5.5 -90.5t24.5 -19.5q18 0 24 20t6 90zM237 227q0 93 -8 121.5t-31 28.5t-31 -29t-8 -121q0 -64 4 -95t11.5 -40.5t22.5 -9.5q16 0 23.5 8.5t12 40t4.5 96.5z" />
    <glyph glyph-name="nine" unicode="9" horiz-adv-x="396" 
d="M371 377q0 -122 -10.5 -198.5t-35 -118t-56 -56t-82.5 -14.5q-73 0 -106.5 36.5t-33.5 109.5q0 44 8 73l113 4q-7 -21 -7 -62q0 -45 7 -57t27 -12q18 0 26.5 11t13 49t4.5 118q0 25 -2 57q-18 -52 -76 -52q-142 0 -142 244q0 144 44 204.5t132 60.5q99 0 137.5 -90
t38.5 -307zM235 518q0 102 -8 131.5t-34 29.5q-14 0 -21 -11t-10.5 -46t-3.5 -104q0 -105 7 -134.5t30 -29.5q26 0 33 31t7 133z" />
    <glyph glyph-name="colon" unicode=":" horiz-adv-x="231" 
d="M183 373h-135v165h135v-165zM183 0h-135v165h135v-165z" />
    <glyph glyph-name="semicolon" unicode=";" horiz-adv-x="231" 
d="M183 373h-135v165h135v-165zM183 19q0 -82 -42 -127q-35 -38 -68 -53l-20 55q25 17 38 38q16 27 14 68h-57v165h135v-146z" />
    <glyph glyph-name="less" unicode="&#x3c;" horiz-adv-x="315" 
d="M277 116l-254 202v88l254 202v-139l-147 -107l147 -107v-139z" />
    <glyph glyph-name="equal" unicode="=" horiz-adv-x="419" 
d="M392 419h-365v110h365v-110zM392 215h-365v110h365v-110z" />
    <glyph glyph-name="greater" unicode="&#x3e;" horiz-adv-x="315" 
d="M292 318l-254 -202v139l148 107l-148 107v139l254 -202v-88z" />
    <glyph glyph-name="question" unicode="?" horiz-adv-x="363" 
d="M343 519q0 -63 -9 -105.5t-27 -63t-37 -28t-46 -7.5q-50 0 -74 37v-119h-94v268h91q5 -49 10.5 -63.5t24.5 -14.5q14 0 19.5 20.5t5.5 79.5q0 102 -6.5 129.5t-31.5 27.5q-17 0 -22.5 -14t-5.5 -49q0 -28 7 -61l-118 2q-11 31 -11 77q0 67 38 106t118 39t124 -57.5
t44 -203.5zM165 0h-126v165h126v-165z" />
    <glyph glyph-name="at" unicode="@" horiz-adv-x="794" 
d="M752 421q0 -130 -60.5 -210.5t-138.5 -80.5q-98 0 -107 58q-12 -19 -22 -30t-36.5 -22t-64.5 -11q-47 0 -77.5 27t-30.5 82q0 53 18.5 90t53.5 56.5t71 28.5t86 14q6 30 6 47q0 40 -37 40q-31 0 -31 -47q0 -11 1 -16q-112 -16 -138 -21q-3 87 39 132t149 45
q76 0 113 -36.5t37 -101.5q0 -50 -11 -116q-12 -83 -13 -86q-3 -25 -3 -33q0 -10 7.5 -17t18.5 -7q41 0 79 54t38 160q0 153 -84 234t-210 81q-140 0 -227.5 -110.5t-87.5 -275.5q0 -166 86 -267.5t227 -101.5q53 0 106.5 25.5t86.5 63.5l29 -45q-98 -92 -226 -92
q-173 0 -270 112t-97 306q0 193 102 311.5t279 118.5q147 0 243 -94t96 -265zM433 342q-5 1 -21 1q-69 0 -69 -78q0 -37 34 -37q17 0 30.5 13.5t17.5 37.5q6 42 8 63z" />
    <glyph glyph-name="A" unicode="A" horiz-adv-x="385" 
d="M378 0h-149l-14 124h-68l-14 -124h-125l109 774h132zM204 209q-11 92 -17 150q-2 16 -3 42.5t-2.5 66t-3.5 67.5q-4 -139 -7 -178l-14 -148h47z" />
    <glyph glyph-name="B" unicode="B" horiz-adv-x="416" 
d="M399 217q0 -115 -48.5 -166t-142.5 -51h-172v768h173q95 0 131.5 -52.5t36.5 -158.5q0 -143 -95 -148q51 0 84 -50.5t33 -141.5zM246 555q0 70 -10.5 96.5t-42.5 26.5h-24v-221h34q26 0 34.5 22.5t8.5 75.5zM256 232q0 68 -11.5 98.5t-42.5 30.5h-33v-271h35
q31 0 41.5 27.5t10.5 114.5z" />
    <glyph glyph-name="C" unicode="C" horiz-adv-x="389" 
d="M368 215q0 -114 -38.5 -171t-121.5 -57q-41 0 -67.5 7t-50 28t-36 60t-19.5 102t-7 156q0 176 15.5 268.5t53 132t109.5 39.5q85 0 119.5 -48.5t34.5 -145.5q0 -69 -7 -120l-120 -4q6 123 6 138q0 51 -6.5 69.5t-25.5 18.5q-11 0 -17 -9.5t-10.5 -41.5t-6.5 -94t-2 -167
q0 -100 2 -157.5t7.5 -88.5t12.5 -40t20 -9q21 0 26.5 26.5t5.5 113.5q0 48 -7 120l124 -2q6 -66 6 -124z" />
    <glyph glyph-name="D" unicode="D" horiz-adv-x="418" 
d="M396 345q0 -109 -9.5 -176.5t-33 -105t-55.5 -50.5t-84 -13h-178v768h152q78 0 121 -34.5t65 -127t22 -261.5zM254 331q0 112 -3 178t-11.5 106t-21 53t-34.5 13h-13v-586h14q31 0 43.5 13.5t19 62t6.5 160.5z" />
    <glyph glyph-name="E" unicode="E" horiz-adv-x="356" 
d="M338 0h-302v768h281v-115h-146v-208h129v-107h-129v-223h167v-115z" />
    <glyph glyph-name="F" unicode="F" horiz-adv-x="326" 
d="M310 653h-136v-216h118v-110h-118v-327h-138v768h274v-115z" />
    <glyph glyph-name="G" unicode="G" horiz-adv-x="416" 
d="M382 -6h-52l-30 56q-27 -66 -94 -66q-39 0 -64.5 7.5t-49 30t-36.5 63.5t-20.5 108t-7.5 163q0 175 20 267t58.5 124.5t110.5 32.5q84 0 119.5 -46.5t35.5 -154.5q0 -36 -11 -89l-124 -5q9 56 9 94q0 67 -6.5 88t-27.5 21q-14 0 -21.5 -9t-13 -43.5t-7 -96.5t-1.5 -176
q0 -132 5 -194t13.5 -76.5t26.5 -14.5q17 0 26 7t16 41.5t7 103.5q0 39 -2 81h-54v99h175v-416z" />
    <glyph glyph-name="H" unicode="H" horiz-adv-x="416" 
d="M380 0h-138v361h-68v-361h-138v768h138v-292h68v292h138v-768z" />
    <glyph glyph-name="I" unicode="I" horiz-adv-x="216" 
d="M180 0h-144v768h144v-768z" />
    <glyph glyph-name="J" unicode="J" horiz-adv-x="393" 
d="M357 216q0 -134 -34.5 -183t-136.5 -49q-93 0 -134.5 46t-41.5 149q0 51 15 113l134 3q-15 -60 -15 -128q0 -78 40 -78q18 0 25.5 15t7.5 63v601h140v-552z" />
    <glyph glyph-name="K" unicode="K" horiz-adv-x="452" 
d="M453 0h-162l-117 315v-315h-138v768h138v-291l116 291h149l-159 -362z" />
    <glyph glyph-name="L" unicode="L" horiz-adv-x="349" 
d="M339 0h-303v768h140v-653h163v-115z" />
    <glyph glyph-name="M" unicode="M" horiz-adv-x="524" 
d="M488 0h-125v123l3 440q-21 -218 -35 -356l-20 -207h-98q-13 127 -22 207l-37 356q4 -268 4 -440v-123h-122v768h161q4 -23 22 -122.5t28 -160.5q4 -24 7.5 -64.5t5.5 -68.5l2 -29q6 108 15 161q44 274 45 284h166v-768z" />
    <glyph glyph-name="N" unicode="N" horiz-adv-x="418" 
d="M382 0h-113q-69 237 -83 284q-15 49 -30 135q7 -120 7 -223v-196h-127v768h126q58 -219 73 -273q22 -82 29 -122q-5 94 -5 245v150h123v-768z" />
    <glyph glyph-name="O" unicode="O" horiz-adv-x="416" 
d="M388 383q0 -163 -19.5 -250.5t-56.5 -118t-104 -30.5q-38 0 -64 8t-49.5 32t-37 68t-21.5 116t-8 175q0 127 9 204.5t32.5 120.5t55 57.5t83.5 14.5t83.5 -14.5t55 -57.5t32.5 -120.5t9 -204.5zM246 383q0 195 -5 250q-3 40 -10 53.5t-23 13.5q-17 0 -24.5 -13t-11.5 -54
q-3 -41 -3 -250q0 -207 3 -248q4 -42 11 -53.5t25 -11.5q17 0 23 11t10 54q5 69 5 248z" />
    <glyph glyph-name="P" unicode="P" horiz-adv-x="409" 
d="M394 536q0 -134 -37.5 -186.5t-121.5 -52.5h-61v-297h-138v768h187q87 0 129 -56t42 -176zM256 534q0 78 -14.5 111.5t-45.5 33.5h-22v-283h34q26 0 37 32t11 106z" />
    <glyph glyph-name="Q" unicode="Q" horiz-adv-x="416" 
d="M388 383q0 -123 -9.5 -201.5t-31 -118.5t-44.5 -55t-60 -22q-4 -18 -4 -31q0 -43 24 -43q27 0 27 27q0 10 -3 25l67 -2q3 -17 3 -36q0 -85 -103 -85q-110 0 -110 99q0 23 7 50q-31 11 -49.5 27t-37.5 55.5t-27.5 116t-8.5 194.5q0 165 17.5 250t53.5 116t105 31
q73 0 110 -29t55.5 -114.5t18.5 -253.5zM246 383q0 195 -5 250q-3 40 -10 53.5t-23 13.5q-17 0 -24.5 -13t-11.5 -54q-3 -41 -3 -250q0 -207 3 -248q4 -42 11 -53.5t25 -11.5q17 0 23 11t10 54q5 69 5 248z" />
    <glyph glyph-name="R" unicode="R" horiz-adv-x="430" 
d="M419 0h-155q-16 45 -16 140v94q0 55 -11 80.5t-40 25.5h-23v-340h-138v768h205q76 0 118.5 -47.5t42.5 -147.5q0 -92 -23.5 -131t-88.5 -48q59 -4 78.5 -52.5t20.5 -149.5q1 -57 9 -114t21 -78zM263 543q0 79 -14.5 104.5t-48.5 25.5h-26v-225h42q27 0 37 20.5t10 74.5z
" />
    <glyph glyph-name="S" unicode="S" horiz-adv-x="403" 
d="M381 201q0 -108 -43 -162.5t-136 -54.5q-83 0 -126.5 45.5t-43.5 153.5q0 51 17 108l120 5q-9 -67 -9 -107q0 -63 9.5 -87t33.5 -24q20 0 29 20t9 80q0 78 -17.5 111.5t-66.5 61.5q-8 5 -35 20q-102 59 -102 210q0 98 43 148.5t125 50.5q163 0 163 -172q0 -30 -10 -80
l-118 -12q7 74 7 84q0 55 -8 75t-32 20q-21 0 -28 -19.5t-7 -64.5q0 -59 16 -87t50 -47q24 -15 42 -24q118 -66 118 -252z" />
    <glyph glyph-name="T" unicode="T" horiz-adv-x="381" 
d="M373 653h-113v-653h-140v653h-113v115h366v-115z" />
    <glyph glyph-name="U" unicode="U" horiz-adv-x="421" 
d="M385 149q0 -81 -39.5 -123t-135.5 -42q-174 0 -174 165v619h138v-617q0 -34 8.5 -48.5t30.5 -14.5q23 0 31 14.5t8 48.5v617h133v-619z" />
    <glyph glyph-name="V" unicode="V" horiz-adv-x="403" 
d="M393 768l-127 -773h-121l-135 773h142q4 -29 24 -155t31 -204l10 -123q3 88 7 123q7 52 23.5 184t22.5 175h123z" />
    <glyph glyph-name="W" unicode="W" horiz-adv-x="531" 
d="M529 768l-104 -768h-111q-18 137 -28 225l-17 206q-7 -119 -18 -206l-31 -225h-119l-91 768h129q15 -162 23 -266l3 -185q9 134 16 186q8 57 19.5 148.5t14.5 116.5h109q12 -81 34 -266q4 -37 7.5 -85t4.5 -77l2 -29q3 108 10 191l30 266h117z" />
    <glyph glyph-name="X" unicode="X" horiz-adv-x="387" 
d="M392 0h-150l-63 235l-48 -235h-130l105 402l-94 366h145l48 -206l49 206h132l-118 -367z" />
    <glyph glyph-name="Y" unicode="Y" horiz-adv-x="395" 
d="M393 768l-127 -470v-298h-140v298l-132 470h144l65 -288l59 288h131z" />
    <glyph glyph-name="Z" unicode="Z" horiz-adv-x="371" 
d="M349 0h-337v92l190 561h-166v115h313v-94l-182 -559h182v-115z" />
    <glyph glyph-name="bracketleft" unicode="[" horiz-adv-x="280" 
d="M255 -158h-203v926h203v-88h-73v-750h73v-88z" />
    <glyph glyph-name="backslash" unicode="\" horiz-adv-x="341" 
d="M340 0h-69l-267 768h70z" />
    <glyph glyph-name="bracketright" unicode="]" horiz-adv-x="280" 
d="M227 -158h-202v88h72v750h-72v88h202v-926z" />
    <glyph glyph-name="asciicircum" unicode="^" horiz-adv-x="343" 
d="M300 599h-80l-47 56l-47 -56h-80l77 169h101z" />
    <glyph glyph-name="underscore" unicode="_" horiz-adv-x="459" 
d="M459 -200h-459v95h459v-95z" />
    <glyph glyph-name="grave" unicode="`" horiz-adv-x="381" 
d="M275 584h-87l-88 124h137z" />
    <glyph glyph-name="a" unicode="a" horiz-adv-x="350" 
d="M345 3q-34 -13 -60 -13q-48 0 -61 42q-24 -42 -82 -42q-24 0 -42.5 6t-38.5 21.5t-31 50.5t-11 86q0 77 27 111.5t81 50.5q6 2 17 5.5t13 3.5q23 6 31.5 24.5t8.5 67.5q0 62 -33 62q-17 0 -22 -10.5t-5 -40.5q0 -32 6 -58l-100 -3q-12 45 -12 68q0 121 135 121
q73 0 106.5 -28.5t33.5 -100.5v-318q0 -29 19 -29q11 0 20 4v-81zM197 128v127q-34 -15 -44 -35t-10 -74q0 -41 6 -57.5t20 -16.5q28 0 28 56z" />
    <glyph glyph-name="b" unicode="b" horiz-adv-x="348" 
d="M328 271q0 -115 -18 -178.5t-46.5 -83t-77.5 -19.5q-61 0 -90 53l-14 -44h-53v769h118v-258q13 24 26.5 35t39.5 11q24 0 43 -12t36 -41t26.5 -88t9.5 -144zM204 272q0 69 -1 103.5t-4 57t-8.5 27.5t-15.5 5q-11 0 -16.5 -5.5t-10 -27t-5.5 -58t-1 -103.5
q0 -129 5 -163.5t28 -34.5q9 0 14 4.5t8.5 24.5t5 59.5t1.5 110.5z" />
    <glyph glyph-name="c" unicode="c" horiz-adv-x="327" 
d="M310 158q0 -94 -30 -131t-106 -37q-60 0 -91 24.5t-45.5 86.5t-14.5 180q0 88 10.5 144.5t32 84t45.5 37t61 9.5q68 0 97.5 -37t29.5 -123q0 -47 -3 -62l-108 -2q5 20 5 57q0 58 -4 75.5t-17 17.5q-8 0 -12 -4t-7 -27t-3.5 -62t-0.5 -119q0 -76 1 -114t4.5 -60.5t8.5 -27
t15 -4.5q14 0 18 19t4 85q0 8 -2 37t-2 43l105 -3q9 -43 9 -87z" />
    <glyph glyph-name="d" unicode="d" horiz-adv-x="351" 
d="M322 -1h-113v45q-13 -54 -64 -54q-41 0 -66 20.5t-40.5 81t-15.5 167.5q0 297 125 297q21 0 32 -8t24 -35v255h118v-769zM206 271q0 124 -5.5 166.5t-24.5 42.5q-10 0 -15.5 -5t-9.5 -27t-5 -62t-1 -114q0 -92 4 -137t9.5 -55t17.5 -10q22 0 26 33t4 168z" />
    <glyph glyph-name="e" unicode="e" horiz-adv-x="327" 
d="M309 299q0 -25 -5 -47h-161v-53q0 -88 5.5 -113t26.5 -25q18 0 23.5 19t5.5 91q0 15 -3 39l100 -2q6 -26 6 -70q0 -78 -31 -113t-97 -35q-44 0 -71 9.5t-47.5 37t-29 79t-8.5 133.5q0 175 34.5 241t113.5 66q74 0 106 -62.5t32 -194.5zM198 379q-3 71 -7.5 89.5
t-19.5 18.5q-17 0 -21.5 -20t-8.5 -103v-42h56q3 33 1 57z" />
    <glyph glyph-name="f" unicode="f" horiz-adv-x="249" 
d="M310 666q0 -25 -10 -67l-86 -1q9 31 9 51q0 31 -5.5 41.5t-18.5 10.5q-22 0 -22 -35v-119h66v-69h-66v-478h-120v478h-57v69h57v118q0 50 37 80.5t97 30.5q55 0 87 -28t32 -82z" />
    <glyph glyph-name="g" unicode="g" horiz-adv-x="359" 
d="M381 591l-71 -111q26 -35 26 -114q0 -179 -143 -179q-24 0 -57 7q-19 -13 -19 -25q0 -11 10.5 -15t39.5 -4h69q53 0 90 -43.5t37 -115.5q0 -163 -173 -163q-189 0 -189 139q0 26 19.5 49t55.5 38q-59 8 -59 76q0 61 69 87q-22 14 -38.5 57.5t-16.5 91.5q0 83 42 131.5
t114 48.5q55 0 81 -24l16 69h97zM217 366q0 68 -6.5 88.5t-27.5 20.5q-22 0 -28 -20.5t-6 -88.5q0 -67 7.5 -87t26.5 -20t26.5 20t7.5 87zM252 -26q0 43 -17.5 58t-60.5 15h-45q-18 -20 -25 -33.5t-7 -33.5q0 -43 22.5 -65t61.5 -22q34 0 52.5 21.5t18.5 59.5z" />
    <glyph glyph-name="h" unicode="h" horiz-adv-x="345" 
d="M316 0h-119v441q0 31 -21 31q-27 0 -27 -65v-407h-120v768h117v-260q25 48 78 48q44 0 68 -23t24 -64v-469z" />
    <glyph glyph-name="i" unicode="i" horiz-adv-x="182" 
d="M153 622h-124v119h124v-119zM153 0h-124v547h124v-547z" />
    <glyph glyph-name="j" unicode="j" horiz-adv-x="198" 
d="M169 622h-124v119h124v-119zM169 -67q0 -51 -35 -82.5t-98 -31.5t-100 28.5t-37 81.5q0 28 6 53l92 1q-4 -19 -4 -46q0 -23 5.5 -33t20.5 -10t20.5 8t5.5 28v617h124v-614z" />
    <glyph glyph-name="k" unicode="k" horiz-adv-x="360" 
d="M366 0h-134l-83 200v-200h-120v768h120v-382l77 161h126l-120 -236z" />
    <glyph glyph-name="l" unicode="l" horiz-adv-x="180" 
d="M151 0h-122v768h122v-768z" />
    <glyph glyph-name="m" unicode="m" horiz-adv-x="502" 
d="M473 0h-116v445q0 18 -4.5 24.5t-17.5 6.5q-15 0 -20.5 -14.5t-5.5 -50.5v-411h-116v447q0 18 -4.5 24.5t-17.5 6.5q-15 0 -20.5 -14.5t-5.5 -50.5v-413h-116v547h115q1 -14 -2 -40q20 49 74 49q27 0 44.5 -8t24 -17.5t12.5 -25.5q25 51 82 51q94 0 94 -87v-469z" />
    <glyph glyph-name="n" unicode="n" horiz-adv-x="343" 
d="M316 0h-119v441q0 31 -21 31q-27 0 -27 -65v-407h-120v547h119q-2 -13 -2 -39q25 48 79 48q44 0 67.5 -22.5t23.5 -64.5v-469z" />
    <glyph glyph-name="o" unicode="o" horiz-adv-x="349" 
d="M326 266q0 -163 -31.5 -219.5t-120.5 -56.5q-56 0 -87.5 23.5t-47.5 83.5t-16 169q0 162 32 226t119 64q84 0 118 -66.5t34 -223.5zM202 266q0 81 -1 124.5t-5 64.5t-8 25t-14 4q-19 0 -23 -31.5t-4 -186.5q0 -77 1 -117t4.5 -61t7.5 -24.5t14 -3.5q9 0 13.5 4t8.5 23.5
t5 61.5t1 117z" />
    <glyph glyph-name="p" unicode="p" horiz-adv-x="349" 
d="M328 271q0 -87 -9 -144t-27.5 -86t-41 -40t-55.5 -11q-14 0 -28 9t-18 26v-201h-120v723h122q-2 -22 -2 -51q6 24 22 42t42 18q24 0 43 -12t36 -41t26.5 -88t9.5 -144zM204 272q0 74 -1 112.5t-4.5 59.5t-8.5 25.5t-15 4.5t-15 -4.5t-9 -24t-5.5 -60.5t-1.5 -114
q0 -137 4.5 -176t26.5 -39q10 0 14 3.5t8.5 24t5.5 64t1 124.5z" />
    <glyph glyph-name="q" unicode="q" horiz-adv-x="351" 
d="M322 -176h-120v196q-21 -30 -57 -30q-41 0 -66 20.5t-40.5 81t-15.5 167.5q0 168 36 232.5t108 64.5q52 0 85 -53l34 48h36v-727zM204 271q0 74 -1 115.5t-5 63.5t-8.5 28t-13.5 6q-10 0 -15 -5.5t-9 -26.5t-5.5 -63.5t-1.5 -116.5q0 -76 1 -115.5t5 -61t9 -26t16 -4.5
q9 0 13.5 6.5t8 28.5t5 62t1.5 109z" />
    <glyph glyph-name="r" unicode="r" horiz-adv-x="310" 
d="M302 427q0 -52 -22 -118l-99 -4q17 71 17 102q0 57 -25 57q-14 0 -19 -19t-5 -85v-360h-120v547h118v-53q11 33 25.5 47.5t40.5 14.5q40 0 64.5 -31.5t24.5 -97.5z" />
    <glyph glyph-name="s" unicode="s" horiz-adv-x="325" 
d="M312 155q0 -165 -153 -165q-65 0 -102 33.5t-37 98.5q0 30 8 74l104 8q-9 -39 -9 -69q0 -39 6.5 -52.5t24.5 -13.5q16 0 23.5 14t7.5 50q0 47 -15.5 69.5t-51.5 40.5l-34 17q-36 18 -51.5 50.5t-15.5 96.5q0 71 41 110t101 39q65 0 97 -31t32 -100q0 -25 -7 -53l-95 -3
q5 27 5 53q0 37 -6 50t-22 13q-29 0 -29 -56q0 -32 8.5 -49.5t37.5 -30.5q30 -14 35 -16q97 -44 97 -178z" />
    <glyph glyph-name="t" unicode="t" horiz-adv-x="263" 
d="M251 15q-27 -25 -96 -25q-58 0 -83 23t-25 81q0 7 0.5 41t1 129t1.5 214h-55v69h56l2 167h119v-167h72v-69h-72v-357q0 -42 30 -42q25 0 49 8v-72z" />
    <glyph glyph-name="u" unicode="u" horiz-adv-x="345" 
d="M316 -1h-111v40q-19 -49 -83 -49q-46 0 -69.5 23t-23.5 65v469h119v-437q0 -19 4.5 -27t16.5 -8q27 0 27 58v414h120v-548z" />
    <glyph glyph-name="v" unicode="v" horiz-adv-x="315" 
d="M312 547l-98 -547h-119l-92 547h121q17 -152 28 -248l8 -106q8 65 12 107l31 247h109z" />
    <glyph glyph-name="w" unicode="w" horiz-adv-x="456" 
d="M453 547l-93 -547h-99q-19 145 -29 235l-5 74q-2 -46 -5 -74l-30 -235h-97l-92 547h118q17 -137 26 -223l4 -70q1 44 4 70l26 223h94q16 -133 25 -217l5 -76q2 47 6 76l29 217h113z" />
    <glyph glyph-name="x" unicode="x" horiz-adv-x="322" 
d="M329 0h-132l-46 151l-45 -151h-113l105 293l-95 254h131l29 -112l35 112h116l-96 -260z" />
    <glyph glyph-name="y" unicode="y" horiz-adv-x="345" 
d="M342 547q-98 -546 -98 -547q-17 -99 -44.5 -137.5t-89.5 -38.5q-60 0 -94.5 25.5t-34.5 76.5q0 15 2 41l103 9q-3 -20 -3 -35q0 -27 24 -27q28 0 34 70l-148 563h125l69 -329l40 329h115z" />
    <glyph glyph-name="z" unicode="z" horiz-adv-x="289" 
d="M279 457l-142 -370h139v-87h-263v75l148 393h-124v79h242v-90z" />
    <glyph glyph-name="braceleft" unicode="{" horiz-adv-x="280" 
d="M269 684h-33q-17 0 -24.5 -6t-7.5 -23v-299q0 -29 -10.5 -41.5t-35.5 -12.5q25 0 35.5 -12.5t10.5 -41.5v-312q0 -17 7 -22.5t24 -5.5h33v-84h-66q-106 0 -106 94v296q0 27 -13 39.5t-44 12.5v72q31 0 44 12.5t13 39.5v284q0 94 107 94h66v-84z" />
    <glyph glyph-name="bar" unicode="|" horiz-adv-x="184" 
d="M134 -200h-84v1000h84v-1000z" />
    <glyph glyph-name="braceright" unicode="}" horiz-adv-x="280" 
d="M242 266q-31 0 -44 -12.5t-13 -39.5v-296q0 -94 -105 -94h-66v84h32q17 0 24.5 5.5t7.5 22.5v312q0 29 10 41.5t36 12.5q-26 0 -36 12t-10 42v299q0 17 -8 23t-25 6h-32v84h66q106 0 106 -94v-284q0 -27 13 -39.5t44 -12.5v-72z" />
    <glyph glyph-name="asciitilde" unicode="~" horiz-adv-x="257" 
d="M247 719q0 -31 -18 -54.5t-53 -23.5q-24 0 -50 21q-5 4 -17 16q-21 21 -31 21q-21 0 -21 -30v-13h-34q-8 19 -8 45q0 32 14 55t47 23q37 0 63 -24q3 -3 9 -8.5t8 -7.5q17 -17 28 -17q21 0 21 33v13h34q8 -23 8 -49z" />
    <glyph glyph-name="nbspace" unicode="&#xa0;" horiz-adv-x="115" 
 />
    <glyph glyph-name="exclamdown" unicode="&#xa1;" horiz-adv-x="210" 
d="M168 603h-126v165h126v-165zM170 0h-130v285l32 249h65l33 -249v-285z" />
    <glyph glyph-name="cent" unicode="&#xa2;" horiz-adv-x="363" 
d="M344 301q0 -153 -131 -167v-72h-49v72q-51 6 -80.5 33t-45 89t-15.5 168q0 269 141 274v70h49v-71q55 -3 87 -44.5t32 -113.5q0 -14 -6 -62l-113 -2q6 30 6 64q0 77 -32 77q-13 0 -20 -11t-12 -56.5t-5 -135.5q0 -88 5 -131t13 -52.5t24 -9.5q34 0 34 91q0 22 -4 80
l112 -3q10 -48 10 -87z" />
    <glyph glyph-name="sterling" unicode="&#xa3;" horiz-adv-x="506" 
d="M499 140q0 -150 -126 -150q-46 0 -76 13.5t-72 46.5q-34 -60 -113 -60q-54 0 -82 24t-28 68q0 46 27 72t81 26q27 0 66 -18q7 28 7 66q0 44 -14 84h-126v83h102q-22 91 -22 160q0 219 180 219q84 0 129 -53t45 -144q0 -47 -13 -87l-117 -13q11 46 11 100q0 91 -52 91
q-26 0 -39.5 -21.5t-13.5 -56.5q0 -57 23 -195h145v-83h-131q4 -24 4 -51q0 -83 -26 -133q48 -27 83 -27q48 0 48 77q0 35 -9 68l91 -9q18 -44 18 -97zM149 88q-23 19 -36 19q-11 0 -19 -7t-8 -16q0 -8 8.5 -15t19.5 -7q20 0 35 26z" />
    <glyph glyph-name="currency" unicode="&#xa4;" 
d="M296 371q0 -162 -38.5 -277.5t-93.5 -115.5q-54 0 -93 115.5t-39 277.5q0 164 39 280t93 116q55 0 93.5 -116t38.5 -280zM265 203l-54 176l46 172l-80 -45l-57 168l-3 -239l-64 -121l71 -24l17 -267l36 228z" />
    <glyph glyph-name="yen" unicode="&#xa5;" horiz-adv-x="395" 
d="M393 768l-84 -299h79v-75h-99l-23 -84h122v-75h-124v-235h-136v235h-128v75h126l-24 84h-102v75h81l-87 299h139l70 -293l64 293h126z" />
    <glyph glyph-name="brokenbar" unicode="&#xa6;" 
d="M296 371q0 -162 -38.5 -277.5t-93.5 -115.5q-54 0 -93 115.5t-39 277.5q0 164 39 280t93 116q55 0 93.5 -116t38.5 -280zM265 203l-54 176l46 172l-80 -45l-57 168l-3 -239l-64 -121l71 -24l17 -267l36 228z" />
    <glyph glyph-name="section" unicode="&#xa7;" horiz-adv-x="353" 
d="M335 378q0 -48 -21.5 -85.5t-50.5 -56.5q64 -56 64 -137q0 -165 -157 -165q-66 0 -104 33.5t-38 98.5q0 21 5 58l106 8q-6 -30 -6 -56q0 -58 33 -58q34 0 34 56q0 42 -17 68t-56 46q-2 1 -16.5 8.5t-16.5 8.5q-75 39 -75 136q0 48 26 86t60 55q-40 25 -59 58t-19 85
q0 66 40.5 107.5t104.5 41.5q136 0 140 -131q1 -21 -1 -38l-105 -8q3 9 3 47q0 49 -32 49q-33 0 -33 -42q0 -33 9 -49t40 -33q2 -1 18 -10t18 -10q52 -29 79 -68t27 -103zM235 351q0 32 -25 57q-17 17 -41 33q-18 -11 -33 -30.5t-15 -38.5q0 -43 30 -64q17 -13 45 -28
q15 11 27 32t12 39z" />
    <glyph glyph-name="dieresis" unicode="&#xa8;" horiz-adv-x="381" 
d="M340 590h-96v112h96v-112zM158 590h-96v112h96v-112z" />
    <glyph glyph-name="copyright" unicode="&#xa9;" horiz-adv-x="592" 
d="M567 497q0 -113 -80.5 -193.5t-193.5 -80.5t-193.5 80.5t-80.5 193.5q0 112 80.5 192.5t193.5 80.5t193.5 -80.5t80.5 -192.5zM535 497q0 102 -70.5 173.5t-171.5 71.5t-171.5 -71.5t-70.5 -173.5t70.5 -174t171.5 -72t171.5 72t70.5 174zM416 418q0 -63 -30 -91t-91 -28
q-72 0 -103.5 45t-31.5 163q0 107 31.5 150.5t101.5 43.5q114 0 114 -112q0 -25 -7 -44l-77 -1q4 16 4 39q0 61 -34 61q-23 0 -31 -25.5t-8 -118.5q0 -64 5 -95.5t13.5 -40t25.5 -8.5q38 0 38 68q0 28 -6 56l79 -2q7 -45 7 -60z" />
    <glyph glyph-name="ordfeminine" unicode="&#xaa;" horiz-adv-x="393" 
d="M347 385q-30 -11 -62 -11q-49 0 -64 33q-21 -33 -73 -33q-23 0 -40.5 4t-35.5 15.5t-28 36t-10 60.5q0 40 26 72t73 44q9 3 29 8q38 9 38 62q0 29 -5.5 39.5t-19.5 10.5q-16 0 -21.5 -9t-5.5 -32q0 -13 5 -35l-90 -3q-12 14 -12 44q0 89 133 89q63 0 89.5 -25.5
t26.5 -62.5v-234q0 -10 6.5 -16.5t16.5 -6.5q15 0 24 4v-54zM351 296h-310v42h310v-42zM200 484v84q-35 -13 -46 -27.5t-11 -42.5q0 -45 6.5 -60.5t23.5 -15.5q18 0 22.5 12.5t4.5 49.5z" />
    <glyph glyph-name="guillemotleft" unicode="&#xab;" horiz-adv-x="486" 
d="M443 35l-189 166v129l189 164v-119l-112 -110l112 -111v-119zM228 35l-189 166v129l189 164v-119l-112 -110l112 -111v-119z" />
    <glyph glyph-name="logicalnot" unicode="&#xac;" 
d="M296 371q0 -162 -38.5 -277.5t-93.5 -115.5q-54 0 -93 115.5t-39 277.5q0 164 39 280t93 116q55 0 93.5 -116t38.5 -280zM265 203l-54 176l46 172l-80 -45l-57 168l-3 -239l-64 -121l71 -24l17 -267l36 228z" />
    <glyph glyph-name="registered" unicode="&#xae;" horiz-adv-x="592" 
d="M567 497q0 -113 -80.5 -193.5t-193.5 -80.5t-193.5 80.5t-80.5 193.5q0 112 80.5 192.5t193.5 80.5t193.5 -80.5t80.5 -192.5zM535 497q0 102 -70.5 173.5t-171.5 71.5t-171.5 -71.5t-70.5 -173.5t70.5 -174t171.5 -72t171.5 72t70.5 174zM400 583q0 -47 -17 -66t-58 -23
q40 -4 51.5 -33t13.5 -114q0 -24 6 -45h-78q-8 16 -8 49v66q0 41 -22 41h-21v-156h-75v402h122q86 0 86 -121zM321 588q0 37 -8.5 48.5t-25.5 11.5h-20v-126h21q33 0 33 66z" />
    <glyph glyph-name="macron" unicode="&#xaf;" horiz-adv-x="381" 
d="M319 601h-261v65h261v-65z" />
    <glyph glyph-name="degree" unicode="&#xb0;" horiz-adv-x="419" 
d="M328 655q0 -49 -35 -83.5t-84 -34.5t-84 34.5t-35 83.5t35 84t84 35t84 -35t35 -84zM266 655q0 23 -17 40t-40 17t-40 -17t-17 -40t17 -39.5t40 -16.5t40 16.5t17 39.5z" />
    <glyph glyph-name="plusminus" unicode="&#xb1;" horiz-adv-x="626" 
d="M597 0h-122v693q-14 8 -28 8q-29 0 -43.5 -22.5t-14.5 -56.5v-75h57v-69h-57v-478h-124v478h-86v-478h-120v478h-57v69h57v97q0 57 49 94.5t129 37.5q63 0 98 -26q52 26 119 26q25 0 55 -8h88v-768zM276 689q-19 12 -43 12q-23 0 -38.5 -21t-15.5 -48v-85h86v91
q0 31 11 51z" />
    <glyph glyph-name="twosuperior" unicode="&#xb2;" 
d="M296 371q0 -162 -38.5 -277.5t-93.5 -115.5q-54 0 -93 115.5t-39 277.5q0 164 39 280t93 116q55 0 93.5 -116t38.5 -280zM265 203l-54 176l46 172l-80 -45l-57 168l-3 -239l-64 -121l71 -24l17 -267l36 228z" />
    <glyph glyph-name="threesuperior" unicode="&#xb3;" 
d="M296 371q0 -162 -38.5 -277.5t-93.5 -115.5q-54 0 -93 115.5t-39 277.5q0 164 39 280t93 116q55 0 93.5 -116t38.5 -280zM265 203l-54 176l46 172l-80 -45l-57 168l-3 -239l-64 -121l71 -24l17 -267l36 228z" />
    <glyph glyph-name="acute" unicode="&#xb4;" horiz-adv-x="381" 
d="M295 708l-100 -124h-73l47 124h126z" />
    <glyph glyph-name="mu" unicode="&#xb5;" 
d="M296 371q0 -162 -38.5 -277.5t-93.5 -115.5q-54 0 -93 115.5t-39 277.5q0 164 39 280t93 116q55 0 93.5 -116t38.5 -280zM265 203l-54 176l46 172l-80 -45l-57 168l-3 -239l-64 -121l71 -24l17 -267l36 228z" />
    <glyph glyph-name="paragraph" unicode="&#xb6;" horiz-adv-x="452" 
d="M416 0h-63v708h-46v-708h-63v274q-215 39 -215 248q0 130 53.5 188t142.5 58h191v-768zM244 332v376q-71 0 -71 -188q0 -88 15.5 -129t55.5 -59z" />
    <glyph glyph-name="periodcentered" unicode="&#xb7;" horiz-adv-x="292" 
d="M240 410q0 -46 -27.5 -79t-66.5 -33t-66.5 33t-27.5 79t27.5 79t66.5 33t66.5 -33t27.5 -79z" />
    <glyph glyph-name="cedilla" unicode="&#xb8;" horiz-adv-x="381" 
d="M277 -102q0 -40 -27 -66.5t-70 -26.5q-53 0 -90 35l24 46q32 -26 60 -26q30 0 30 30q0 25 -28 25q-16 0 -29 -7l15 66q21 2 35 2q33 0 56.5 -20t23.5 -58z" />
    <glyph glyph-name="onesuperior" unicode="&#xb9;" 
d="M296 371q0 -162 -38.5 -277.5t-93.5 -115.5q-54 0 -93 115.5t-39 277.5q0 164 39 280t93 116q55 0 93.5 -116t38.5 -280zM265 203l-54 176l46 172l-80 -45l-57 168l-3 -239l-64 -121l71 -24l17 -267l36 228z" />
    <glyph glyph-name="ordmasculine" unicode="&#xba;" horiz-adv-x="393" 
d="M342 572q0 -113 -31 -155.5t-115 -42.5q-79 0 -112 43.5t-33 154.5q0 113 31 160.5t114 47.5q80 0 113 -49t33 -159zM351 296h-310v42h310v-42zM226 572q0 57 -1 87t-4.5 48.5t-9 23t-15.5 4.5t-15.5 -4.5t-8.5 -23.5t-4 -48t-1 -87q0 -72 3 -105.5t8.5 -42t17.5 -8.5
q10 0 15 3.5t9 19.5t5 46.5t1 86.5z" />
    <glyph glyph-name="guillemotright" unicode="&#xbb;" horiz-adv-x="486" 
d="M447 201l-189 -166v119l103 111l-103 110v119l189 -164v-129zM232 201l-189 -166v119l103 111l-103 110v119l189 -164v-129z" />
    <glyph glyph-name="onequarter" unicode="&#xbc;" 
d="M296 371q0 -162 -38.5 -277.5t-93.5 -115.5q-54 0 -93 115.5t-39 277.5q0 164 39 280t93 116q55 0 93.5 -116t38.5 -280zM265 203l-54 176l46 172l-80 -45l-57 168l-3 -239l-64 -121l71 -24l17 -267l36 228z" />
    <glyph glyph-name="onehalf" unicode="&#xbd;" 
d="M296 371q0 -162 -38.5 -277.5t-93.5 -115.5q-54 0 -93 115.5t-39 277.5q0 164 39 280t93 116q55 0 93.5 -116t38.5 -280zM265 203l-54 176l46 172l-80 -45l-57 168l-3 -239l-64 -121l71 -24l17 -267l36 228z" />
    <glyph glyph-name="threequarters" unicode="&#xbe;" 
d="M296 371q0 -162 -38.5 -277.5t-93.5 -115.5q-54 0 -93 115.5t-39 277.5q0 164 39 280t93 116q55 0 93.5 -116t38.5 -280zM265 203l-54 176l46 172l-80 -45l-57 168l-3 -239l-64 -121l71 -24l17 -267l36 228z" />
    <glyph glyph-name="questiondown" unicode="&#xbf;" horiz-adv-x="363" 
d="M320 603h-126v165h126v-165zM345 133q0 -67 -38 -106t-118 -39t-124 57.5t-44 203.5q0 63 9 105.5t27 63t37 28t46 7.5q50 0 74 -37v119h94v-268h-91q-5 49 -10.5 63.5t-24.5 14.5q-14 0 -19.5 -20.5t-5.5 -79.5q0 -102 6.5 -129.5t31.5 -27.5q17 0 22.5 14t5.5 49
q0 28 -7 61l118 -2q11 -31 11 -77z" />
    <glyph glyph-name="Agrave" unicode="&#xc0;" horiz-adv-x="385" 
d="M221 790h-76l-83 86h122zM377 0h-149l-14 123h-67l-14 -123h-125l109 768h131zM203 207q-11 92 -17 149q-2 19 -4 80t-4 95q-4 -138 -7 -177l-14 -147h46z" />
    <glyph glyph-name="Aacute" unicode="&#xc1;" horiz-adv-x="385" 
d="M303 876l-83 -86h-76l37 86h122zM378 0h-149l-14 124h-68l-14 -124h-125l109 774h132zM204 209q-11 92 -17 150q-2 16 -3 42.5t-2.5 66t-3.5 67.5q-4 -139 -7 -178l-14 -148h47z" />
    <glyph glyph-name="Acircumflex" unicode="&#xc2;" horiz-adv-x="385" 
d="M324 790h-87l-52 46l-51 -46h-88l84 104h111zM378 0h-149l-14 124h-68l-14 -124h-125l109 774h132zM204 209q-11 92 -17 150q-2 16 -3 42.5t-2.5 66t-3.5 67.5q-4 -139 -7 -178l-14 -148h47z" />
    <glyph glyph-name="Atilde" unicode="&#xc3;" horiz-adv-x="385" 
d="M378 0h-149l-14 124h-68l-14 -124h-125l109 774h132zM204 209q-11 92 -17 150q-2 16 -3 42.5t-2.5 66t-3.5 67.5q-4 -139 -7 -178l-14 -148h47zM310 846q0 -22 -19 -39t-58 -17q-32 0 -55 15q-10 7 -19 12q-22 12 -35 12q-23 0 -23 -20v-8h-36q-9 13 -9 32
q0 23 15.5 39.5t51.5 16.5q39 0 69 -17q2 -1 9.5 -6t9.5 -6q17 -10 31 -10q23 0 23 24v7h36q9 -16 9 -35z" />
    <glyph glyph-name="Adieresis" unicode="&#xc4;" horiz-adv-x="385" 
d="M347 800h-105v77h105v-77zM130 800h-105v77h105v-77zM378 0h-149l-14 124h-68l-14 -124h-125l109 774h132zM204 209q-11 92 -17 150q-2 16 -3 42.5t-2.5 66t-3.5 67.5q-4 -139 -7 -178l-14 -148h47z" />
    <glyph glyph-name="Aring" unicode="&#xc5;" horiz-adv-x="385" 
d="M378 0h-149l-14 124h-68l-14 -124h-125l104 739q-44 36 -44 89q0 46 33 79t79 33t79 -33t33 -79q0 -51 -38 -84zM238 828q0 24 -17 41t-41 17t-41 -17t-17 -41t17 -41t41 -17t41 17t17 41zM204 209q-11 92 -17 150q-2 16 -3 42.5t-2.5 66t-3.5 67.5q-4 -139 -7 -178
l-14 -148h47z" />
    <glyph glyph-name="AE" unicode="&#xc6;" horiz-adv-x="598" 
d="M580 0h-302v124h-120l-36 -124h-127l228 768h336v-115h-153v-208h136v-107h-136v-223h174v-115zM278 219v416q-55 -243 -63 -278l-34 -138h97z" />
    <glyph glyph-name="Ccedilla" unicode="&#xc7;" horiz-adv-x="389" 
d="M368 215q0 -114 -38.5 -171t-121.5 -57q-41 0 -67.5 7t-50 28t-36 60t-19.5 102t-7 156q0 176 15.5 268.5t53 132t109.5 39.5q85 0 119.5 -48.5t34.5 -145.5q0 -69 -7 -120l-120 -4q6 123 6 138q0 51 -6.5 69.5t-25.5 18.5q-11 0 -17 -9.5t-10.5 -41.5t-6.5 -94t-2 -167
q0 -100 2 -157.5t7.5 -88.5t12.5 -40t20 -9q21 0 26.5 26.5t5.5 113.5q0 48 -7 120l124 -2q6 -66 6 -124zM299 -102q0 -40 -27 -66.5t-70 -26.5q-53 0 -90 35l24 46q32 -26 60 -26q30 0 30 30q0 25 -28 25q-16 0 -29 -7l15 66q21 2 35 2q33 0 56.5 -20t23.5 -58z" />
    <glyph glyph-name="Egrave" unicode="&#xc8;" horiz-adv-x="356" 
d="M233 790h-76l-83 86h122zM338 0h-302v768h281v-115h-146v-208h129v-107h-129v-223h167v-115z" />
    <glyph glyph-name="Eacute" unicode="&#xc9;" horiz-adv-x="356" 
d="M291 876l-83 -86h-76l37 86h122zM338 0h-302v768h281v-115h-146v-208h129v-107h-129v-223h167v-115z" />
    <glyph glyph-name="Ecircumflex" unicode="&#xca;" horiz-adv-x="356" 
d="M338 0h-302v768h281v-115h-146v-208h129v-107h-129v-223h167v-115zM317 790h-87l-52 46l-51 -46h-88l84 104h111z" />
    <glyph glyph-name="Edieresis" unicode="&#xcb;" horiz-adv-x="356" 
d="M342 800h-105v77h105v-77zM125 800h-105v77h105v-77zM338 0h-302v768h281v-115h-146v-208h129v-107h-129v-223h167v-115z" />
    <glyph glyph-name="Igrave" unicode="&#xcc;" horiz-adv-x="216" 
d="M157 790h-76l-83 86h122zM180 0h-144v768h144v-768z" />
    <glyph glyph-name="Iacute" unicode="&#xcd;" horiz-adv-x="216" 
d="M234 876l-83 -86h-76l37 86h122zM180 0h-144v768h144v-768z" />
    <glyph glyph-name="Icircumflex" unicode="&#xce;" horiz-adv-x="216" 
d="M251 790h-87l-52 46l-51 -46h-88l84 104h111zM180 0h-144v768h144v-768z" />
    <glyph glyph-name="Idieresis" unicode="&#xcf;" horiz-adv-x="216" 
d="M257 800h-105v77h105v-77zM67 800h-105v77h105v-77zM180 0h-144v768h144v-768z" />
    <glyph glyph-name="Eth" unicode="&#xd0;" horiz-adv-x="418" 
d="M396 345q0 -109 -9.5 -176.5t-33 -105t-55.5 -50.5t-84 -13h-178v339h-36v107h36v322h152q78 0 121 -34.5t65 -127t22 -261.5zM254 331q0 112 -3 178t-11.5 106t-21 53t-34.5 13h-13v-235h43v-107h-43v-244h14q31 0 43.5 13.5t19 62t6.5 160.5z" />
    <glyph glyph-name="Ntilde" unicode="&#xd1;" horiz-adv-x="418" 
d="M329 853q0 -25 -18 -44t-53 -19q-27 0 -50 17l-17 13q-23 17 -31 17q-6 0 -10.5 -2t-6.5 -5t-3 -7.5t-1 -7.5v-8v-5h-34q-8 16 -8 37q0 26 14 44.5t47 18.5q38 0 63 -20l17 -13q16 -13 28 -13q21 0 21 37h34q8 -19 8 -40zM382 0h-113q-69 237 -83 284q-15 49 -30 135
q7 -120 7 -223v-196h-127v768h126q58 -219 73 -273q22 -82 29 -122q-5 94 -5 245v150h123v-768z" />
    <glyph glyph-name="Ograve" unicode="&#xd2;" horiz-adv-x="416" 
d="M245 800h-76l-83 86h122zM388 383q0 -163 -19.5 -250.5t-56.5 -118t-104 -30.5q-38 0 -64 8t-49.5 32t-37 68t-21.5 116t-8 175q0 127 9 204.5t32.5 120.5t55 57.5t83.5 14.5t83.5 -14.5t55 -57.5t32.5 -120.5t9 -204.5zM246 383q0 195 -5 250q-3 40 -10 53.5t-23 13.5
q-17 0 -24.5 -13t-11.5 -54q-3 -41 -3 -250q0 -207 3 -248q4 -42 11 -53.5t25 -11.5q17 0 23 11t10 54q5 69 5 248z" />
    <glyph glyph-name="Oacute" unicode="&#xd3;" horiz-adv-x="416" 
d="M320 886l-83 -86h-76l37 86h122zM388 383q0 -163 -19.5 -250.5t-56.5 -118t-104 -30.5q-38 0 -64 8t-49.5 32t-37 68t-21.5 116t-8 175q0 127 9 204.5t32.5 120.5t55 57.5t83.5 14.5t83.5 -14.5t55 -57.5t32.5 -120.5t9 -204.5zM246 383q0 195 -5 250q-3 40 -10 53.5
t-23 13.5q-17 0 -24.5 -13t-11.5 -54q-3 -41 -3 -250q0 -207 3 -248q4 -42 11 -53.5t25 -11.5q17 0 23 11t10 54q5 69 5 248z" />
    <glyph glyph-name="Ocircumflex" unicode="&#xd4;" horiz-adv-x="416" 
d="M347 790h-87l-52 46l-51 -46h-88l84 104h111zM388 383q0 -163 -19.5 -250.5t-56.5 -118t-104 -30.5q-38 0 -64 8t-49.5 32t-37 68t-21.5 116t-8 175q0 127 9 204.5t32.5 120.5t55 57.5t83.5 14.5t83.5 -14.5t55 -57.5t32.5 -120.5t9 -204.5zM246 383q0 195 -5 250
q-3 40 -10 53.5t-23 13.5q-17 0 -24.5 -13t-11.5 -54q-3 -41 -3 -250q0 -207 3 -248q4 -42 11 -53.5t25 -11.5q17 0 23 11t10 54q5 69 5 248z" />
    <glyph glyph-name="Otilde" unicode="&#xd5;" horiz-adv-x="416" 
d="M388 383q0 -163 -19.5 -250.5t-56.5 -118t-104 -30.5q-38 0 -64 8t-49.5 32t-37 68t-21.5 116t-8 175q0 127 9 204.5t32.5 120.5t55 57.5t83.5 14.5t83.5 -14.5t55 -57.5t32.5 -120.5t9 -204.5zM246 383q0 195 -5 250q-3 40 -10 53.5t-23 13.5q-17 0 -24.5 -13t-11.5 -54
q-3 -41 -3 -250q0 -207 3 -248q4 -42 11 -53.5t25 -11.5q17 0 23 11t10 54q5 69 5 248zM339 846q0 -22 -19 -39t-58 -17q-32 0 -55 15q-10 7 -19 12q-22 12 -35 12q-23 0 -23 -20v-8h-36q-9 13 -9 32q0 23 15.5 39.5t51.5 16.5q39 0 69 -17q2 -1 9.5 -6t9.5 -6
q17 -10 31 -10q23 0 23 24v7h36q9 -16 9 -35z" />
    <glyph glyph-name="Odieresis" unicode="&#xd6;" horiz-adv-x="416" 
d="M369 800h-105v77h105v-77zM152 800h-105v77h105v-77zM388 383q0 -163 -19.5 -250.5t-56.5 -118t-104 -30.5q-38 0 -64 8t-49.5 32t-37 68t-21.5 116t-8 175q0 127 9 204.5t32.5 120.5t55 57.5t83.5 14.5t83.5 -14.5t55 -57.5t32.5 -120.5t9 -204.5zM246 383q0 195 -5 250
q-3 40 -10 53.5t-23 13.5q-17 0 -24.5 -13t-11.5 -54q-3 -41 -3 -250q0 -207 3 -248q4 -42 11 -53.5t25 -11.5q17 0 23 11t10 54q5 69 5 248z" />
    <glyph glyph-name="multiply" unicode="&#xd7;" 
d="M296 371q0 -162 -38.5 -277.5t-93.5 -115.5q-54 0 -93 115.5t-39 277.5q0 164 39 280t93 116q55 0 93.5 -116t38.5 -280zM265 203l-54 176l46 172l-80 -45l-57 168l-3 -239l-64 -121l71 -24l17 -267l36 228z" />
    <glyph glyph-name="Oslash" unicode="&#xd8;" horiz-adv-x="416" 
d="M388 383q0 -163 -19.5 -250.5t-56.5 -118t-104 -30.5q-83 0 -120 47l-17 -41h-43l35 86q-35 91 -35 307q0 127 9 204.5t32.5 120.5t55 57.5t83.5 14.5q85 0 121 -45l16 39h43l-33 -83q33 -83 33 -308zM247 532q0 25 -4 101q-2 39 -10.5 53t-24.5 14q-18 0 -26 -13.5
t-12 -53.5q-3 -41 -3 -250v-49zM248 383v45l-81 -200q0 -36 3 -93q3 -40 11 -52.5t27 -12.5q17 0 24 11.5t11 53.5q5 69 5 248z" />
    <glyph glyph-name="Ugrave" unicode="&#xd9;" horiz-adv-x="421" 
d="M263 790h-76l-83 86h122zM385 149q0 -81 -39.5 -123t-135.5 -42q-174 0 -174 165v619h138v-617q0 -34 8.5 -48.5t30.5 -14.5q23 0 31 14.5t8 48.5v617h133v-619z" />
    <glyph glyph-name="Uacute" unicode="&#xda;" horiz-adv-x="421" 
d="M320 876l-83 -86h-76l37 86h122zM385 149q0 -81 -39.5 -123t-135.5 -42q-174 0 -174 165v619h138v-617q0 -34 8.5 -48.5t30.5 -14.5q23 0 31 14.5t8 48.5v617h133v-619z" />
    <glyph glyph-name="Ucircumflex" unicode="&#xdb;" horiz-adv-x="421" 
d="M385 149q0 -81 -39.5 -123t-135.5 -42q-174 0 -174 165v619h138v-617q0 -34 8.5 -48.5t30.5 -14.5q23 0 31 14.5t8 48.5v617h133v-619zM355 790h-87l-52 46l-51 -46h-88l84 104h111z" />
    <glyph glyph-name="Udieresis" unicode="&#xdc;" horiz-adv-x="421" 
d="M373 800h-105v77h105v-77zM156 800h-105v77h105v-77zM385 149q0 -81 -39.5 -123t-135.5 -42q-174 0 -174 165v619h138v-617q0 -34 8.5 -48.5t30.5 -14.5q23 0 31 14.5t8 48.5v617h133v-619z" />
    <glyph glyph-name="Yacute" unicode="&#xdd;" horiz-adv-x="395" 
d="M393 768l-127 -470v-298h-140v298l-132 470h144l65 -288l59 288h131zM321 914l-100 -124h-73l47 124h126z" />
    <glyph glyph-name="Thorn" unicode="&#xde;" horiz-adv-x="409" 
d="M394 405q0 -134 -37.5 -186.5t-121.5 -52.5h-61v-166h-138v768h138v-131h49q87 0 129 -56t42 -176zM256 403q0 77 -14 110.5t-44 33.5h-24v-282h34q26 0 37 32t11 106z" />
    <glyph glyph-name="germandbls" unicode="&#xdf;" horiz-adv-x="373" 
d="M357 217q0 -134 -28.5 -175.5t-121.5 -41.5h-28v87h5q18 0 25 8.5t10 38.5t3 102q0 77 -8.5 101.5t-34.5 24.5v91q25 0 31.5 23.5t6.5 111.5q0 65 -7 84t-27 19t-27 -15t-7 -53v-623h-120v589q0 105 33 148t119 43q87 0 124.5 -47t37.5 -165q0 -82 -22 -114.5t-63 -42.5
q49 -10 74 -52.5t25 -141.5z" />
    <glyph glyph-name="agrave" unicode="&#xe0;" horiz-adv-x="350" 
d="M230 583h-76l-83 99h122zM345 3q-34 -13 -60 -13q-48 0 -61 42q-24 -42 -82 -42q-24 0 -42.5 6t-38.5 21.5t-31 50.5t-11 86q0 77 27 111.5t81 50.5q6 2 17 5.5t13 3.5q23 6 31.5 24.5t8.5 67.5q0 62 -33 62q-17 0 -22 -10.5t-5 -40.5q0 -32 6 -58l-100 -3q-12 45 -12 68
q0 121 135 121q73 0 106.5 -28.5t33.5 -100.5v-318q0 -29 19 -29q11 0 20 4v-81zM197 128v127q-34 -15 -44 -35t-10 -74q0 -41 6 -57.5t20 -16.5q28 0 28 56z" />
    <glyph glyph-name="aacute" unicode="&#xe1;" horiz-adv-x="350" 
d="M277 682l-83 -99h-76l37 99h122zM345 3q-34 -13 -60 -13q-48 0 -61 42q-24 -42 -82 -42q-24 0 -42.5 6t-38.5 21.5t-31 50.5t-11 86q0 77 27 111.5t81 50.5q6 2 17 5.5t13 3.5q23 6 31.5 24.5t8.5 67.5q0 62 -33 62q-17 0 -22 -10.5t-5 -40.5q0 -32 6 -58l-100 -3
q-12 45 -12 68q0 121 135 121q73 0 106.5 -28.5t33.5 -100.5v-318q0 -29 19 -29q11 0 20 4v-81zM197 128v127q-34 -15 -44 -35t-10 -74q0 -41 6 -57.5t20 -16.5q28 0 28 56z" />
    <glyph glyph-name="acircumflex" unicode="&#xe2;" horiz-adv-x="350" 
d="M345 3q-34 -13 -60 -13q-48 0 -61 42q-24 -42 -82 -42q-24 0 -42.5 6t-38.5 21.5t-31 50.5t-11 86q0 77 27 111.5t81 50.5q6 2 17 5.5t13 3.5q23 6 31.5 24.5t8.5 67.5q0 62 -33 62q-17 0 -22 -10.5t-5 -40.5q0 -32 6 -58l-100 -3q-12 45 -12 68q0 121 135 121
q73 0 106.5 -28.5t33.5 -100.5v-318q0 -29 19 -29q11 0 20 4v-81zM197 128v127q-34 -15 -44 -35t-10 -74q0 -41 6 -57.5t20 -16.5q28 0 28 56zM311 583h-87l-52 46l-51 -46h-88l84 104h111z" />
    <glyph glyph-name="atilde" unicode="&#xe3;" horiz-adv-x="350" 
d="M345 3q-34 -13 -60 -13q-48 0 -61 42q-24 -42 -82 -42q-24 0 -42.5 6t-38.5 21.5t-31 50.5t-11 86q0 77 27 111.5t81 50.5q6 2 17 5.5t13 3.5q23 6 31.5 24.5t8.5 67.5q0 62 -33 62q-17 0 -22 -10.5t-5 -40.5q0 -32 6 -58l-100 -3q-12 45 -12 68q0 121 135 121
q73 0 106.5 -28.5t33.5 -100.5v-318q0 -29 19 -29q11 0 20 4v-81zM197 128v127q-34 -15 -44 -35t-10 -74q0 -41 6 -57.5t20 -16.5q28 0 28 56zM298 639q0 -22 -19 -39t-58 -17q-32 0 -55 15q-10 8 -19 12q-22 12 -35 12q-23 0 -23 -20v-8h-36q-9 13 -9 32q0 23 15.5 39.5
t51.5 16.5q39 0 69 -17q2 -1 9.5 -6t9.5 -6q17 -10 31 -10q23 0 23 24v7h36q9 -16 9 -35z" />
    <glyph glyph-name="adieresis" unicode="&#xe4;" horiz-adv-x="350" 
d="M345 3q-34 -13 -60 -13q-48 0 -61 42q-24 -42 -82 -42q-24 0 -42.5 6t-38.5 21.5t-31 50.5t-11 86q0 77 27 111.5t81 50.5q6 2 17 5.5t13 3.5q23 6 31.5 24.5t8.5 67.5q0 62 -33 62q-17 0 -22 -10.5t-5 -40.5q0 -32 6 -58l-100 -3q-12 45 -12 68q0 121 135 121
q73 0 106.5 -28.5t33.5 -100.5v-318q0 -29 19 -29q11 0 20 4v-81zM197 128v127q-34 -15 -44 -35t-10 -74q0 -41 6 -57.5t20 -16.5q28 0 28 56zM305 583h-96v112h96v-112zM123 583h-96v112h96v-112z" />
    <glyph glyph-name="aring" unicode="&#xe5;" horiz-adv-x="350" 
d="M270 670q0 -41 -29.5 -70.5t-71.5 -29.5q-41 0 -70.5 29.5t-29.5 70.5q0 42 29.5 71.5t70.5 29.5q42 0 71.5 -29.5t29.5 -71.5zM345 3q-34 -13 -60 -13q-48 0 -61 42q-24 -42 -82 -42q-24 0 -42.5 6t-38.5 21.5t-31 50.5t-11 86q0 77 27 111.5t81 50.5q6 2 17 5.5t13 3.5
q23 6 31.5 24.5t8.5 67.5q0 62 -33 62q-17 0 -22 -10.5t-5 -40.5q0 -32 6 -58l-100 -3q-12 45 -12 68q0 121 135 121q73 0 106.5 -28.5t33.5 -100.5v-318q0 -29 19 -29q11 0 20 4v-81zM197 128v127q-34 -15 -44 -35t-10 -74q0 -41 6 -57.5t20 -16.5q28 0 28 56zM221 670
q0 22 -15 37t-37 15q-21 0 -36.5 -15t-15.5 -37q0 -21 15.5 -36.5t36.5 -15.5q22 0 37 15.5t15 36.5z" />
    <glyph glyph-name="ae" unicode="&#xe6;" horiz-adv-x="490" 
d="M472 299q0 -21 -6 -47h-162v-53q0 -86 6 -112t28 -26q18 0 23.5 19t5.5 91q0 15 -3 39l100 -2q6 -26 6 -70q0 -78 -31 -113t-97 -35q-78 0 -100 46q-27 -46 -100 -46q-24 0 -42.5 6t-38.5 21.5t-31 50.5t-11 86q0 77 27 111.5t81 50.5q12 3 30 9q23 6 31.5 24.5t8.5 67.5
q0 62 -33 62q-17 0 -23 -11t-6 -40q0 -32 6 -58l-98 -3q-12 45 -12 68q0 121 135 121q66 0 94 -25q26 25 74 25q74 0 106 -62.5t32 -194.5zM361 379q-3 71 -7.5 89.5t-19.5 18.5q-17 0 -22.5 -21.5t-9.5 -101.5v-44h58q3 34 1 59zM200 128v127q-35 -16 -47 -36t-12 -73
q0 -74 28 -74q31 0 31 56z" />
    <glyph glyph-name="ccedilla" unicode="&#xe7;" horiz-adv-x="327" 
d="M310 158q0 -94 -30 -131t-106 -37q-60 0 -91 24.5t-45.5 86.5t-14.5 180q0 88 10.5 144.5t32 84t45.5 37t61 9.5q68 0 97.5 -37t29.5 -123q0 -47 -3 -62l-108 -2q5 20 5 57q0 58 -4 75.5t-17 17.5q-8 0 -12 -4t-7 -27t-3.5 -62t-0.5 -119q0 -76 1 -114t4.5 -60.5t8.5 -27
t15 -4.5q14 0 18 19t4 85q0 8 -2 37t-2 43l105 -3q9 -43 9 -87zM261 -102q0 -40 -27 -66.5t-70 -26.5q-53 0 -90 35l24 46q32 -26 60 -26q30 0 30 30q0 16 -12 27t-27 11q-10 0 -18 -4l15 50q21 2 35 2q33 0 56.5 -20t23.5 -58z" />
    <glyph glyph-name="egrave" unicode="&#xe8;" horiz-adv-x="327" 
d="M218 583h-76l-83 99h122zM309 299q0 -25 -5 -47h-161v-53q0 -88 5.5 -113t26.5 -25q18 0 23.5 19t5.5 91q0 15 -3 39l100 -2q6 -26 6 -70q0 -78 -31 -113t-97 -35q-44 0 -71 9.5t-47.5 37t-29 79t-8.5 133.5q0 175 34.5 241t113.5 66q74 0 106 -62.5t32 -194.5zM198 379
q-3 71 -7.5 89.5t-19.5 18.5q-17 0 -21.5 -20t-8.5 -103v-42h56q3 33 1 57z" />
    <glyph glyph-name="eacute" unicode="&#xe9;" horiz-adv-x="327" 
d="M279 682l-83 -99h-76l37 99h122zM309 299q0 -25 -5 -47h-161v-53q0 -88 5.5 -113t26.5 -25q18 0 23.5 19t5.5 91q0 15 -3 39l100 -2q6 -26 6 -70q0 -78 -31 -113t-97 -35q-44 0 -71 9.5t-47.5 37t-29 79t-8.5 133.5q0 175 34.5 241t113.5 66q74 0 106 -62.5t32 -194.5z
M198 379q-3 71 -7.5 89.5t-19.5 18.5q-17 0 -21.5 -20t-8.5 -103v-42h56q3 33 1 57z" />
    <glyph glyph-name="ecircumflex" unicode="&#xea;" horiz-adv-x="327" 
d="M311 583h-87l-52 46l-51 -46h-88l84 104h111zM309 299q0 -25 -5 -47h-161v-53q0 -88 5.5 -113t26.5 -25q18 0 23.5 19t5.5 91q0 15 -3 39l100 -2q6 -26 6 -70q0 -78 -31 -113t-97 -35q-44 0 -71 9.5t-47.5 37t-29 79t-8.5 133.5q0 175 34.5 241t113.5 66q74 0 106 -62.5
t32 -194.5zM198 379q-3 71 -7.5 89.5t-19.5 18.5q-17 0 -21.5 -20t-8.5 -103v-42h56q3 33 1 57z" />
    <glyph glyph-name="edieresis" unicode="&#xeb;" horiz-adv-x="327" 
d="M301 583h-96v112h96v-112zM119 583h-96v112h96v-112zM309 299q0 -25 -5 -47h-161v-53q0 -88 5.5 -113t26.5 -25q18 0 23.5 19t5.5 91q0 15 -3 39l100 -2q6 -26 6 -70q0 -78 -31 -113t-97 -35q-44 0 -71 9.5t-47.5 37t-29 79t-8.5 133.5q0 175 34.5 241t113.5 66
q74 0 106 -62.5t32 -194.5zM198 379q-3 71 -7.5 89.5t-19.5 18.5q-17 0 -21.5 -20t-8.5 -103v-42h56q3 33 1 57z" />
    <glyph glyph-name="igrave" unicode="&#xec;" horiz-adv-x="182" 
d="M143 583h-76l-83 99h122zM153 0h-124v547h124v-547z" />
    <glyph glyph-name="iacute" unicode="&#xed;" horiz-adv-x="182" 
d="M211 682l-83 -99h-76l37 99h122zM153 0h-124v547h124v-547z" />
    <glyph glyph-name="icircumflex" unicode="&#xee;" horiz-adv-x="182" 
d="M153 0h-124v547h124v-547zM230 583h-87l-52 46l-51 -46h-88l84 104h111z" />
    <glyph glyph-name="idieresis" unicode="&#xef;" horiz-adv-x="182" 
d="M153 0h-124v547h124v-547zM230 583h-96v112h96v-112zM48 583h-96v112h96v-112z" />
    <glyph glyph-name="eth" unicode="&#xf0;" horiz-adv-x="360" 
d="M365 699q0 -44 -61 -66q22 -108 22 -313q0 -143 -14.5 -213t-44.5 -93.5t-93 -23.5q-56 0 -87.5 23.5t-47.5 83.5t-16 169q0 162 32 226t119 64q17 0 38 -5q0 47 -5 87q-14 0 -22.5 -6.5t-8.5 -15.5t4 -15l-33 -12q-24 18 -24 48q0 44 70 60q-15 40 -41 40q-41 0 -62 -25
l-31 47q51 32 101 32q46 0 77 -19.5t52 -78.5q7 0 15 6t8 16q0 9 -4 17l33 13q7 -5 15.5 -18.5t8.5 -27.5zM203 472q-14 12 -29 12q-19 0 -23 -31.5t-4 -186.5q0 -77 1 -117t4.5 -61t7.5 -24.5t14 -3.5q9 0 13.5 4t8.5 23.5t5 61.5t1 117q0 191 1 206z" />
    <glyph glyph-name="ntilde" unicode="&#xf1;" horiz-adv-x="343" 
d="M288 646q0 -25 -18 -44t-53 -19q-27 0 -50 17q-12 9 -17 13q-21 17 -31 17q-22 0 -22 -24q0 -2 0.5 -6t0.5 -5h-34q-8 16 -8 37q0 26 14 44.5t47 18.5q35 0 63 -20q2 -2 8.5 -6.5t8.5 -6.5q17 -13 28 -13q21 0 21 26v11h34q8 -19 8 -40zM316 0h-119v441q0 31 -21 31
q-27 0 -27 -65v-407h-120v547h119q-2 -13 -2 -39q25 48 79 48q44 0 67.5 -22.5t23.5 -64.5v-469z" />
    <glyph glyph-name="ograve" unicode="&#xf2;" horiz-adv-x="349" 
d="M225 583h-76l-83 99h122zM326 266q0 -163 -31.5 -219.5t-120.5 -56.5q-56 0 -87.5 23.5t-47.5 83.5t-16 169q0 162 32 226t119 64q84 0 118 -66.5t34 -223.5zM202 266q0 81 -1 124.5t-5 64.5t-8 25t-14 4q-19 0 -23 -31.5t-4 -186.5q0 -77 1 -117t4.5 -61t7.5 -24.5
t14 -3.5q9 0 13.5 4t8.5 23.5t5 61.5t1 117z" />
    <glyph glyph-name="oacute" unicode="&#xf3;" horiz-adv-x="349" 
d="M286 682l-83 -99h-76l37 99h122zM326 266q0 -163 -31.5 -219.5t-120.5 -56.5q-56 0 -87.5 23.5t-47.5 83.5t-16 169q0 162 32 226t119 64q84 0 118 -66.5t34 -223.5zM202 266q0 81 -1 124.5t-5 64.5t-8 25t-14 4q-19 0 -23 -31.5t-4 -186.5q0 -77 1 -117t4.5 -61
t7.5 -24.5t14 -3.5q9 0 13.5 4t8.5 23.5t5 61.5t1 117z" />
    <glyph glyph-name="ocircumflex" unicode="&#xf4;" horiz-adv-x="349" 
d="M312 583h-87l-52 46l-51 -46h-88l84 104h111zM326 266q0 -163 -31.5 -219.5t-120.5 -56.5q-56 0 -87.5 23.5t-47.5 83.5t-16 169q0 162 32 226t119 64q84 0 118 -66.5t34 -223.5zM202 266q0 81 -1 124.5t-5 64.5t-8 25t-14 4q-19 0 -23 -31.5t-4 -186.5q0 -77 1 -117
t4.5 -61t7.5 -24.5t14 -3.5q9 0 13.5 4t8.5 23.5t5 61.5t1 117z" />
    <glyph glyph-name="otilde" unicode="&#xf5;" horiz-adv-x="349" 
d="M326 266q0 -163 -31.5 -219.5t-120.5 -56.5q-56 0 -87.5 23.5t-47.5 83.5t-16 169q0 162 32 226t119 64q84 0 118 -66.5t34 -223.5zM202 266q0 81 -1 124.5t-5 64.5t-8 25t-14 4q-19 0 -23 -31.5t-4 -186.5q0 -77 1 -117t4.5 -61t7.5 -24.5t14 -3.5q9 0 13.5 4t8.5 23.5
t5 61.5t1 117zM301 639q0 -22 -19 -39t-58 -17q-32 0 -55 15q-10 8 -19 12q-22 12 -35 12q-23 0 -23 -20v-8h-36q-9 13 -9 32q0 23 15.5 39.5t51.5 16.5q39 0 69 -17q2 -1 9.5 -6t9.5 -6q17 -10 31 -10q23 0 23 24v7h36q9 -16 9 -35z" />
    <glyph glyph-name="odieresis" unicode="&#xf6;" horiz-adv-x="349" 
d="M310 583h-96v112h96v-112zM128 583h-96v112h96v-112zM326 266q0 -163 -31.5 -219.5t-120.5 -56.5q-56 0 -87.5 23.5t-47.5 83.5t-16 169q0 162 32 226t119 64q84 0 118 -66.5t34 -223.5zM202 266q0 81 -1 124.5t-5 64.5t-8 25t-14 4q-19 0 -23 -31.5t-4 -186.5
q0 -77 1 -117t4.5 -61t7.5 -24.5t14 -3.5q9 0 13.5 4t8.5 23.5t5 61.5t1 117z" />
    <glyph glyph-name="divide" unicode="&#xf7;" 
d="M296 371q0 -162 -38.5 -277.5t-93.5 -115.5q-54 0 -93 115.5t-39 277.5q0 164 39 280t93 116q55 0 93.5 -116t38.5 -280zM265 203l-54 176l46 172l-80 -45l-57 168l-3 -239l-64 -121l71 -24l17 -267l36 228z" />
    <glyph glyph-name="oslash" unicode="&#xf8;" horiz-adv-x="349" 
d="M326 266q0 -163 -31.5 -219.5t-120.5 -56.5q-61 0 -93 28l-13 -28h-38l26 58q-33 60 -33 218q0 162 32 226t119 64q61 0 95 -35l16 35h38l-30 -67q33 -65 33 -223zM201 370q0 54 -3.5 79.5t-8.5 30t-15 4.5q-19 0 -23 -31.5t-4 -186.5v-16zM202 266v21l-54 -120
q0 -50 3.5 -74t8 -28.5t14.5 -4.5q9 0 13.5 4t8.5 23.5t5 61.5t1 117z" />
    <glyph glyph-name="ugrave" unicode="&#xf9;" horiz-adv-x="345" 
d="M228 583h-76l-83 99h122zM316 -1h-111v40q-19 -49 -83 -49q-46 0 -69.5 23t-23.5 65v469h119v-437q0 -19 4.5 -27t16.5 -8q27 0 27 58v414h120v-548z" />
    <glyph glyph-name="uacute" unicode="&#xfa;" horiz-adv-x="345" 
d="M287 682l-83 -99h-76l37 99h122zM316 -1h-111v40q-19 -49 -83 -49q-46 0 -69.5 23t-23.5 65v469h119v-437q0 -19 4.5 -27t16.5 -8q27 0 27 58v414h120v-548z" />
    <glyph glyph-name="ucircumflex" unicode="&#xfb;" horiz-adv-x="345" 
d="M316 -1h-111v40q-19 -49 -83 -49q-46 0 -69.5 23t-23.5 65v469h119v-437q0 -19 4.5 -27t16.5 -8q27 0 27 58v414h120v-548zM314 583h-87l-52 46l-51 -46h-88l84 104h111z" />
    <glyph glyph-name="udieresis" unicode="&#xfc;" horiz-adv-x="345" 
d="M311 583h-106v100h106v-100zM139 583h-105v100h105v-100zM316 -1h-111v40q-19 -49 -83 -49q-46 0 -69.5 23t-23.5 65v469h119v-437q0 -19 4.5 -27t16.5 -8q27 0 27 58v414h120v-548z" />
    <glyph glyph-name="yacute" unicode="&#xfd;" horiz-adv-x="345" 
d="M342 547q-98 -546 -98 -547q-17 -99 -44.5 -137.5t-89.5 -38.5q-60 0 -94.5 25.5t-34.5 76.5q0 15 2 41l103 9q-3 -20 -3 -35q0 -27 24 -27q28 0 34 70l-148 563h125l69 -329l40 329h115zM281 707l-100 -124h-73l47 124h126z" />
    <glyph glyph-name="thorn" unicode="&#xfe;" horiz-adv-x="349" 
d="M328 271q0 -87 -9 -144t-27.5 -86t-41 -40t-55.5 -11q-14 0 -28 9t-18 26v-201h-120v944h120v-272q6 24 22 42t42 18q24 0 43 -12t36 -41t26.5 -88t9.5 -144zM204 272q0 74 -1 112.5t-4.5 59.5t-8.5 25.5t-15 4.5t-15 -4.5t-9 -24t-5.5 -60.5t-1.5 -114q0 -137 4.5 -176
t26.5 -39q10 0 14 3.5t8.5 24t5.5 64t1 124.5z" />
    <glyph glyph-name="ydieresis" unicode="&#xff;" horiz-adv-x="345" 
d="M342 547q-98 -546 -98 -547q-17 -99 -44.5 -137.5t-89.5 -38.5q-60 0 -94.5 25.5t-34.5 76.5q0 15 2 41l103 9q-3 -20 -3 -35q0 -27 24 -27q28 0 34 70l-148 563h125l69 -329l40 329h115zM316 583h-96v112h96v-112zM134 583h-96v112h96v-112z" />
    <glyph glyph-name="dotlessi" unicode="&#x131;" horiz-adv-x="182" 
d="M153 0h-124v547h124v-547z" />
    <glyph glyph-name="Lslash" unicode="&#x141;" horiz-adv-x="364" 
d="M354 462l-165 -140v-207h163v-115h-303v204l-34 -29l-58 70l92 78v445h140v-327l107 90z" />
    <glyph glyph-name="lslash" unicode="&#x142;" horiz-adv-x="210" 
d="M249 378l-81 -66v-312h-122v213l-22 -18l-58 70l80 65v438h122v-340l23 19z" />
    <glyph glyph-name="OE" unicode="&#x152;" horiz-adv-x="564" 
d="M546 0h-259q-41 -10 -79 -10q-39 0 -64.5 7.5t-49 30.5t-37 66t-21.5 114.5t-8 174.5q0 127 9 203.5t32.5 118.5t54.5 55.5t84 13.5q46 0 74 -6h243v-115h-146v-208h129v-107h-129v-223h167v-115zM244 383q0 200 -4 244q-3 41 -9.5 54t-22.5 13q-17 0 -24.5 -13
t-11.5 -54q-3 -41 -3 -244q0 -201 3 -242q4 -42 11 -53.5t25 -11.5q17 0 22.5 11t9.5 54q4 55 4 242z" />
    <glyph glyph-name="oe" unicode="&#x153;" horiz-adv-x="503" 
d="M485 299q0 -25 -5 -47h-161v-53q0 -87 5.5 -112.5t26.5 -25.5q18 0 23.5 19t5.5 91q0 15 -3 39l100 -2q6 -26 6 -70q0 -78 -31 -113t-97 -35q-55 0 -93 30q-41 -30 -88 -30q-56 0 -87.5 23.5t-47.5 83.5t-16 169q0 162 32 226t119 64q48 0 88 -34q1 1 6 5.5t6 5.5
t5.5 4.5t6.5 4.5t6.5 4t8 3.5t9 2.5t11 2.5t12 1t14.5 0.5q74 0 106 -62.5t32 -194.5zM374 362q0 56 -4 84.5t-8.5 34.5t-14.5 6q-17 0 -21.5 -20t-8.5 -103v-42h56q1 13 1 40zM199 266q0 83 -0.5 124.5t-4 64t-7.5 26t-14 3.5q-19 0 -22.5 -31t-3.5 -187q0 -78 0.5 -117.5
t4 -60.5t7.5 -24.5t14 -3.5q9 0 13 3.5t7.5 24t4.5 61t1 117.5z" />
    <glyph glyph-name="Scaron" unicode="&#x160;" horiz-adv-x="403" 
d="M381 201q0 -108 -43 -162.5t-136 -54.5q-83 0 -126.5 45.5t-43.5 153.5q0 51 17 108l120 5q-9 -67 -9 -107q0 -63 9.5 -87t33.5 -24q20 0 29 20t9 80q0 78 -17.5 111.5t-66.5 61.5q-8 5 -35 20q-102 59 -102 210q0 98 43 148.5t125 50.5q163 0 163 -172q0 -30 -10 -80
l-118 -12q7 74 7 84q0 55 -8 75t-32 20q-21 0 -28 -19.5t-7 -64.5q0 -59 16 -87t50 -47q24 -15 42 -24q118 -66 118 -252zM333 918l-92 -118h-98l-93 118h94l48 -52l48 52h93z" />
    <glyph glyph-name="scaron" unicode="&#x161;" horiz-adv-x="325" 
d="M312 155q0 -165 -153 -165q-65 0 -102 33.5t-37 98.5q0 30 8 74l104 8q-9 -39 -9 -69q0 -39 6.5 -52.5t24.5 -13.5q16 0 23.5 14t7.5 50q0 47 -15.5 69.5t-51.5 40.5l-34 17q-36 18 -51.5 50.5t-15.5 96.5q0 71 41 110t101 39q65 0 97 -31t32 -100q0 -25 -7 -53l-95 -3
q5 27 5 53q0 37 -6 50t-22 13q-29 0 -29 -56q0 -32 8.5 -49.5t37.5 -30.5q30 -14 35 -16q97 -44 97 -178zM298 701l-92 -118h-98l-93 118h94l48 -52l48 52h93z" />
    <glyph glyph-name="Ydieresis" unicode="&#x178;" horiz-adv-x="395" 
d="M362 800h-105v77h105v-77zM145 800h-105v77h105v-77zM393 768l-127 -470v-298h-140v298l-132 470h144l65 -288l59 288h131z" />
    <glyph glyph-name="Zcaron" unicode="&#x17d;" horiz-adv-x="371" 
d="M349 0h-337v92l190 561h-166v115h313v-94l-182 -559h182v-115zM335 908l-92 -118h-98l-93 118h94l48 -52l48 52h93z" />
    <glyph glyph-name="zcaron" unicode="&#x17e;" horiz-adv-x="289" 
d="M279 457l-142 -370h139v-87h-263v75l148 393h-124v79h242v-90zM302 701l-92 -118h-98l-93 118h94l48 -52l48 52h93z" />
    <glyph glyph-name="florin" unicode="&#x192;" horiz-adv-x="357" 
d="M360 666q0 -28 -11 -67l-95 -12q8 34 8 54q0 51 -29 51q-28 0 -28 -35v-224h78v-72h-78v-416q0 -54 -34.5 -90t-101.5 -36q-80 0 -115.5 27t-35.5 83q0 29 7 53l103 1q-5 -17 -5 -46q0 -27 27 -27q4 0 7 0.5t5 2.5l3.5 3.5t2.5 4.5t1.5 5.5t0.5 7v7v8v8.5v404h-54v72h54
v232q0 49 44.5 80t111.5 31q61 0 97.5 -28.5t36.5 -81.5z" />
    <glyph glyph-name="circumflex" unicode="&#x2c6;" horiz-adv-x="381" 
d="M326 583h-87l-52 46l-51 -46h-88l84 104h111z" />
    <glyph glyph-name="caron" unicode="&#x2c7;" horiz-adv-x="381" 
d="M327 701l-92 -118h-98l-93 118h94l48 -52l48 52h93z" />
    <glyph glyph-name="breve" unicode="&#x2d8;" horiz-adv-x="381" 
d="M328 691q0 -101 -138 -101q-136 0 -136 101h79q0 -15 17 -27t40 -12q24 0 41.5 12t17.5 27h79z" />
    <glyph glyph-name="dotaccent" unicode="&#x2d9;" horiz-adv-x="381" 
d="M256 590h-116v112h116v-112z" />
    <glyph glyph-name="ring" unicode="&#x2da;" horiz-adv-x="381" 
d="M304 688q0 -46 -33 -79t-79 -33t-79 33t-33 79t33 79t79 33t79 -33t33 -79zM250 688q0 24 -17 41t-41 17t-41 -17t-17 -41t17 -41t41 -17t41 17t17 41z" />
    <glyph glyph-name="ogonek" unicode="&#x2db;" horiz-adv-x="381" 
d="M282 -90q0 -4 -4 -14q-19 -50 -90 -50q-35 0 -57 18.5t-22 45.5q0 26 24 52t57 38h49q-67 -41 -67 -75q0 -27 24 -27q16 0 27 15l11 23z" />
    <glyph glyph-name="tilde" unicode="&#x2dc;" horiz-adv-x="381" 
d="M315 640q0 -22 -19 -39t-58 -17q-32 0 -55 15q-10 7 -19 12q-22 12 -35 12q-23 0 -23 -20v-8h-36q-9 13 -9 32q0 23 15.5 39.5t51.5 16.5q39 0 69 -17q2 -1 9.5 -6t9.5 -6q17 -10 31 -10q23 0 23 24v7h36q9 -16 9 -35z" />
    <glyph glyph-name="hungarumlaut" unicode="&#x2dd;" horiz-adv-x="381" 
d="M363 707l-107 -124h-65l61 124h111zM226 707l-91 -124h-62l42 124h111z" />
    <glyph glyph-name="Delta" unicode="&#x394;" 
d="M296 371q0 -162 -38.5 -277.5t-93.5 -115.5q-54 0 -93 115.5t-39 277.5q0 164 39 280t93 116q55 0 93.5 -116t38.5 -280zM265 203l-54 176l46 172l-80 -45l-57 168l-3 -239l-64 -121l71 -24l17 -267l36 228z" />
    <glyph glyph-name="Omega" unicode="&#x3a9;" 
d="M296 371q0 -162 -38.5 -277.5t-93.5 -115.5q-54 0 -93 115.5t-39 277.5q0 164 39 280t93 116q55 0 93.5 -116t38.5 -280zM265 203l-54 176l46 172l-80 -45l-57 168l-3 -239l-64 -121l71 -24l17 -267l36 228z" />
    <glyph glyph-name="pi" unicode="&#x3c0;" horiz-adv-x="592" 
d="M567 497q0 -113 -80.5 -193.5t-193.5 -80.5t-193.5 80.5t-80.5 193.5q0 112 80.5 192.5t193.5 80.5t193.5 -80.5t80.5 -192.5zM535 497q0 102 -70.5 173.5t-171.5 71.5t-171.5 -71.5t-70.5 -173.5t70.5 -174t171.5 -72t171.5 72t70.5 174zM417 580q0 -60 -27.5 -90
t-69.5 -30q-7 0 -21 0.5t-15 0.5v-159h-77v402h117q40 0 66.5 -30.5t26.5 -93.5zM336 579q0 67 -32 67h-20v-124h21q31 0 31 57z" />
    <glyph glyph-name="endash" unicode="&#x2013;" horiz-adv-x="550" 
d="M525 274h-500v98h500v-98z" />
    <glyph glyph-name="emdash" unicode="&#x2014;" horiz-adv-x="892" 
d="M867 273h-842v98h842v-98z" />
    <glyph glyph-name="quoteleft" unicode="&#x2018;" horiz-adv-x="235" 
d="M186 475h-137v165q0 53 14.5 83t50.5 58q19 14 33 20l30 -45q-29 -22 -37 -32q-23 -27 -20 -84h66v-165z" />
    <glyph glyph-name="quoteright" unicode="&#x2019;" horiz-adv-x="235" 
d="M186 603q0 -53 -14.5 -83t-50.5 -58q-18 -15 -32 -20l-30 45q2 1 9 6t14.5 11.5t13.5 14.5q24 29 19 84h-66v165h137v-165z" />
    <glyph glyph-name="quotesinglbase" unicode="&#x201a;" horiz-adv-x="235" 
d="M186 0q0 -53 -14.5 -83t-50.5 -58q-18 -15 -32 -20l-30 45q2 1 9 6t14.5 11.5t13.5 14.5q24 29 19 84h-66v165h137v-165z" />
    <glyph glyph-name="quotedblleft" unicode="&#x201c;" horiz-adv-x="431" 
d="M382 475h-137v165q0 53 14.5 83t50.5 58q18 15 32 20l30 -45q-2 -1 -9 -6t-14.5 -11.5t-13.5 -14.5q-24 -29 -19 -84h66v-165zM186 475h-137v165q0 53 14.5 83t50.5 58q19 14 33 20l30 -45q-29 -22 -37 -32q-23 -27 -20 -84h66v-165z" />
    <glyph glyph-name="quotedblright" unicode="&#x201d;" horiz-adv-x="431" 
d="M382 603q0 -53 -14.5 -83t-50.5 -58q-19 -14 -33 -20l-30 45q29 22 37 32q23 27 20 84h-66v165h137v-165zM186 603q0 -53 -14.5 -83t-50.5 -58q-18 -15 -32 -20l-30 45q2 1 9 6t14.5 11.5t13.5 14.5q24 29 19 84h-66v165h137v-165z" />
    <glyph glyph-name="quotedblbase" unicode="&#x201e;" horiz-adv-x="431" 
d="M382 0q0 -53 -14.5 -83t-50.5 -58q-19 -14 -33 -20l-30 45q29 22 37 32q23 27 20 84h-66v165h137v-165zM186 0q0 -53 -14.5 -83t-50.5 -58q-18 -15 -32 -20l-30 45q2 1 9 6t14.5 11.5t13.5 14.5q24 29 19 84h-66v165h137v-165z" />
    <glyph glyph-name="dagger" unicode="&#x2020;" horiz-adv-x="407" 
d="M384 517h-119v-586h-124v586h-118v100h118v157h124v-157h119v-100z" />
    <glyph glyph-name="daggerdbl" unicode="&#x2021;" horiz-adv-x="407" 
d="M384 163h-119v-232h-124v232h-118v100h118v254h-118v100h118v157h124v-157h119v-100h-119v-254h119v-100z" />
    <glyph glyph-name="bullet" unicode="&#x2022;" horiz-adv-x="509" 
d="M467 400q0 -92 -61.5 -156.5t-148.5 -64.5q-88 0 -150 64.5t-62 156.5t62 156.5t150 64.5q87 0 148.5 -64.5t61.5 -156.5z" />
    <glyph glyph-name="ellipsis" unicode="&#x2026;" horiz-adv-x="722" 
d="M676 -1h-143v165h143v-165zM434 -1h-143v165h143v-165zM192 0h-143v165h143v-165z" />
    <glyph glyph-name="perthousand" unicode="&#x2030;" horiz-adv-x="937" 
d="M920 194q0 -118 -32.5 -160.5t-102.5 -42.5q-67 0 -101.5 43t-34.5 160q0 128 36.5 178.5t99.5 50.5q70 0 102.5 -49t32.5 -180zM286 545q0 -118 -32.5 -160.5t-102.5 -42.5q-67 0 -101.5 43t-34.5 160q0 128 36.5 178.5t99.5 50.5q70 0 102.5 -49t32.5 -180zM596 760
l-485 -760h-69l485 760h69zM618 194q0 -118 -32.5 -160.5t-102.5 -42.5q-67 0 -101.5 43t-34.5 160q0 128 36.5 178.5t99.5 50.5q70 0 102.5 -49t32.5 -180zM807 206q0 50 -1 77t-3.5 42.5t-6.5 19.5t-12 4t-11.5 -3.5t-6.5 -19.5t-3.5 -42.5t-0.5 -77.5t1 -78t3.5 -41.5
t6 -18t11.5 -3.5q16 0 19.5 21t3.5 120zM173 557q0 50 -1 77t-3.5 42.5t-6.5 19.5t-12 4t-11.5 -3.5t-6.5 -19.5t-3.5 -42.5t-0.5 -77.5t1 -78t3.5 -41.5t6 -18t11.5 -3.5q16 0 19.5 21t3.5 120zM505 206q0 50 -1 77t-3.5 42.5t-6.5 19.5t-12 4t-11.5 -3.5t-6.5 -19.5
t-3.5 -42.5t-0.5 -77.5t1 -78t3.5 -41.5t6 -18t11.5 -3.5q16 0 19.5 21t3.5 120z" />
    <glyph glyph-name="guilsinglleft" unicode="&#x2039;" horiz-adv-x="271" 
d="M228 35l-189 166v129l189 164v-119l-112 -110l112 -111v-119z" />
    <glyph glyph-name="guilsinglright" unicode="&#x203a;" horiz-adv-x="271" 
d="M232 201l-189 -166v119l103 111l-103 110v119l189 -164v-129z" />
    <glyph glyph-name="fraction" unicode="&#x2044;" horiz-adv-x="295" 
d="M442 774l-501 -774h-80l502 774h79z" />
    <glyph glyph-name="trademark" unicode="&#x2122;" horiz-adv-x="557" 
d="M497 537h-63v156l-36 -156h-41l-41 156v-156h-64v231h93l29 -106v-10h5v10l22 106h96v-231zM223 722h-57v-185h-68v185h-57v46h182v-46z" />
    <glyph glyph-name="partialdiff" unicode="&#x2202;" 
d="M296 371q0 -162 -38.5 -277.5t-93.5 -115.5q-54 0 -93 115.5t-39 277.5q0 164 39 280t93 116q55 0 93.5 -116t38.5 -280zM265 203l-54 176l46 172l-80 -45l-57 168l-3 -239l-64 -121l71 -24l17 -267l36 228z" />
    <glyph glyph-name="product" unicode="&#x220f;" 
d="M296 371q0 -162 -38.5 -277.5t-93.5 -115.5q-54 0 -93 115.5t-39 277.5q0 164 39 280t93 116q55 0 93.5 -116t38.5 -280zM265 203l-54 176l46 172l-80 -45l-57 168l-3 -239l-64 -121l71 -24l17 -267l36 228z" />
    <glyph glyph-name="summation" unicode="&#x2211;" 
d="M296 371q0 -162 -38.5 -277.5t-93.5 -115.5q-54 0 -93 115.5t-39 277.5q0 164 39 280t93 116q55 0 93.5 -116t38.5 -280zM265 203l-54 176l46 172l-80 -45l-57 168l-3 -239l-64 -121l71 -24l17 -267l36 228z" />
    <glyph glyph-name="minus" unicode="&#x2212;" 
d="M296 371q0 -162 -38.5 -277.5t-93.5 -115.5q-54 0 -93 115.5t-39 277.5q0 164 39 280t93 116q55 0 93.5 -116t38.5 -280zM265 203l-54 176l46 172l-80 -45l-57 168l-3 -239l-64 -121l71 -24l17 -267l36 228z" />
    <glyph glyph-name="radical" unicode="&#x221a;" horiz-adv-x="737" 
d="M793 931q-62 -72 -138 -215.5t-127 -270.5q-128 -320 -173 -545l-100 -44l-237 408l148 66l129 -332q53 241 147 469q92 223 209 401z" />
    <glyph glyph-name="infinity" unicode="&#x221e;" horiz-adv-x="628" 
d="M599 0h-124v547h124v-547zM591 666q0 -17 -12 -67l-94 -1q9 31 9 51q0 52 -49 52q-28 0 -42 -23.5t-14 -55.5v-75h57v-69h-57v-478h-124v478h-86v-478h-120v478h-57v69h57v97q0 57 49 94.5t129 37.5q62 0 96 -25q57 25 120 25q57 0 97.5 -30.5t40.5 -79.5zM276 689
q-19 12 -43 12q-23 0 -38.5 -21t-15.5 -48v-85h86v93q0 31 11 49z" />
    <glyph glyph-name="integral" unicode="&#x222b;" 
d="M296 371q0 -162 -38.5 -277.5t-93.5 -115.5q-54 0 -93 115.5t-39 277.5q0 164 39 280t93 116q55 0 93.5 -116t38.5 -280zM265 203l-54 176l46 172l-80 -45l-57 168l-3 -239l-64 -121l71 -24l17 -267l36 228z" />
    <glyph glyph-name="approxequal" unicode="&#x2248;" 
d="M296 371q0 -162 -38.5 -277.5t-93.5 -115.5q-54 0 -93 115.5t-39 277.5q0 164 39 280t93 116q55 0 93.5 -116t38.5 -280zM265 203l-54 176l46 172l-80 -45l-57 168l-3 -239l-64 -121l71 -24l17 -267l36 228z" />
    <glyph glyph-name="notequal" unicode="&#x2260;" horiz-adv-x="454" 
d="M522 666q0 -25 -10 -67l-86 -1q9 31 9 51q0 31 -5.5 41.5t-18.5 10.5q-22 0 -22 -34v-120h57v-69h-57v-478h-124v478h-86v-478h-120v478h-57v69h57v97q0 57 49 94.5t129 37.5q60 0 84 -18q33 18 82 18q55 0 87 -28t32 -82zM267 692q-9 9 -34 9q-23 0 -38.5 -21t-15.5 -48
v-85h86v106q0 19 2 39z" />
    <glyph glyph-name="lessequal" unicode="&#x2264;" 
d="M296 371q0 -162 -38.5 -277.5t-93.5 -115.5q-54 0 -93 115.5t-39 277.5q0 164 39 280t93 116q55 0 93.5 -116t38.5 -280zM265 203l-54 176l46 172l-80 -45l-57 168l-3 -239l-64 -121l71 -24l17 -267l36 228z" />
    <glyph glyph-name="greaterequal" unicode="&#x2265;" 
d="M296 371q0 -162 -38.5 -277.5t-93.5 -115.5q-54 0 -93 115.5t-39 277.5q0 164 39 280t93 116q55 0 93.5 -116t38.5 -280zM265 203l-54 176l46 172l-80 -45l-57 168l-3 -239l-64 -121l71 -24l17 -267l36 228z" />
    <glyph glyph-name="lozenge" unicode="&#x25ca;" 
d="M296 371q0 -162 -38.5 -277.5t-93.5 -115.5q-54 0 -93 115.5t-39 277.5q0 164 39 280t93 116q55 0 93.5 -116t38.5 -280zM265 203l-54 176l46 172l-80 -45l-57 168l-3 -239l-64 -121l71 -24l17 -267l36 228z" />
    <glyph glyph-name="apple" unicode="&#xf8ff;" 
d="M296 371q0 -162 -38.5 -277.5t-93.5 -115.5q-54 0 -93 115.5t-39 277.5q0 164 39 280t93 116q55 0 93.5 -116t38.5 -280zM265 203l-54 176l46 172l-80 -45l-57 168l-3 -239l-64 -121l71 -24l17 -267l36 228z" />
    <glyph glyph-name="fi" unicode="&#xfb01;" horiz-adv-x="418" 
d="M389 0h-124v547h124v-547zM381 666q0 -17 -12 -67l-94 -1q9 31 9 51q0 52 -49 52q-28 0 -42 -23.5t-14 -55.5v-75h66v-69h-66v-478h-120v478h-57v69h57v88q0 64 48 102.5t140 38.5q57 0 95.5 -30t38.5 -80z" />
    <glyph glyph-name="fl" unicode="&#xfb02;" horiz-adv-x="417" 
d="M388 0h-122v695q-10 6 -29 6q-28 0 -43 -24t-15 -55v-75h66v-69h-66v-478h-120v478h-57v69h57v88q0 64 48 102.5t140 38.5q27 0 53 -8h88v-768z" />
    <glyph glyph-name="NUL" horiz-adv-x="0" 
 />
    </font>
</defs>
</svg>
