<?xml version="1.0" standalone="no"?>
<!DOCTYPE svg PUBLIC "-//W3C//DTD SVG 1.1//EN" "http://www.w3.org/Graphics/SVG/1.1/DTD/svg11.dtd" >
<svg xmlns="http://www.w3.org/2000/svg" xmlns:xlink="http://www.w3.org/1999/xlink" version="1.1">
<metadata>
Created by FontForge 20170731 at Mon May  7 09:26:53 2007
 By Aleksey,,,
*1990, 1991, 1992, 1993 The Font Bureau,Inc. 
</metadata>
<defs>
<font id="BureauGrotesque-ThreeSeven" horiz-adv-x="654" >
  <font-face 
    font-family="BureauGrotesque-ThreeSeven"
    font-weight="500"
    font-stretch="normal"
    units-per-em="1000"
    panose-1="0 0 0 0 0 0 0 0 0 0"
    ascent="800"
    descent="-200"
    x-height="574"
    cap-height="768"
    bbox="-174 -203 1258 958"
    underline-thickness="23"
    underline-position="-177"
    unicode-range="U+0020-FB02"
  />
<missing-glyph horiz-adv-x="280" 
 />
    <glyph glyph-name=".notdef" horiz-adv-x="280" 
 />
    <glyph glyph-name=".null" horiz-adv-x="0" 
 />
    <glyph glyph-name="nonmarkingreturn" horiz-adv-x="333" 
 />
    <glyph glyph-name="space" unicode=" " horiz-adv-x="254" 
 />
    <glyph glyph-name="exclam" unicode="!" horiz-adv-x="208" 
d="M177 508l-30 -260h-81l-35 260v260h146v-260zM177 0h-146v168h146v-168z" />
    <glyph glyph-name="quotedbl" unicode="&#x22;" horiz-adv-x="449" 
d="M413 768l-31 -347h-110l-30 347h171zM207 768l-31 -347h-110l-30 347h171z" />
    <glyph glyph-name="numbersign" unicode="#" horiz-adv-x="582" 
d="M546 608l-18 -154h-90l-18 -140h89l-19 -154h-89l-20 -160h-90l20 160h-96l-21 -160h-89l19 160h-88l18 154h90l18 140h-89l19 154h89l20 160h90l-20 -160h96l21 160h89l-19 -160h88zM348 454h-96l-18 -140h96z" />
    <glyph glyph-name="dollar" unicode="$" horiz-adv-x="535" 
d="M502 226q0 -239 -207 -242v-95h-71v95q-91 0 -143.5 43t-52.5 132q0 68 16 104l140 12q-11 -33 -11 -80q0 -39 13 -57.5t38 -31.5v220l-90 45q-56 28 -82.5 74t-26.5 129q0 80 54.5 143t144.5 63v42h71v-42q86 -6 132 -53t46 -134q0 -31 -9 -58h-128q6 30 6 59
q0 69 -47 78v-182l71 -29q66 -27 101 -80.5t35 -154.5zM224 516v156q-9 -3 -19 -9.5t-21 -24t-11 -40.5q0 -61 51 -82zM348 206q0 65 -53 92v-189q30 10 41.5 28.5t11.5 68.5z" />
    <glyph glyph-name="percent" unicode="%" horiz-adv-x="883" 
d="M862 209q0 -120 -41 -172.5t-141 -52.5q-99 0 -139.5 50.5t-40.5 172.5q0 151 37.5 209.5t142.5 58.5t143.5 -58t38.5 -208zM645 780l-322 -796h-84l322 796h84zM381 514q0 -125 -40.5 -175t-141.5 -50q-99 0 -139.5 50t-40.5 173q0 151 37.5 209.5t142.5 58.5t143.5 -58
t38.5 -208zM726 231q0 98 -7 125.5t-37 27.5q-31 0 -38.5 -28t-7.5 -125q0 -93 7 -116t37 -23q32 0 39 22.5t7 116.5zM245 536q0 98 -7 125.5t-37 27.5q-31 0 -38.5 -28t-7.5 -125q0 -93 7 -116t37 -23q32 0 39 22.5t7 116.5z" />
    <glyph glyph-name="ampersand" unicode="&#x26;" horiz-adv-x="640" 
d="M624 141q0 -94 -37.5 -125.5t-107.5 -31.5q-51 0 -78.5 14t-52.5 51q-37 -38 -71 -51.5t-77 -13.5q-96 0 -139.5 62.5t-43.5 159.5q0 85 36.5 149t113.5 118l17 12q-25 58 -25 129q0 76 47.5 121t117.5 45q66 0 110 -43t44 -107q0 -57 -26.5 -93.5t-100.5 -62.5l61 -154
q17 28 34 72q20 53 33 108h94q-25 -105 -57 -180q-20 -46 -60 -121l11 -31q18 -53 44 -53q25 0 25 46q0 51 -7 83h85q10 -36 10 -103zM373 636q0 50 -37 50q-18 0 -27 -9.5t-9 -35.5q0 -39 24 -82q18 8 33.5 27.5t15.5 49.5zM304 158l-90 222q-38 -47 -38 -110
q0 -55 19 -97.5t56 -42.5q31 0 53 28z" />
    <glyph glyph-name="quotesingle" unicode="'" horiz-adv-x="243" 
d="M207 768l-31 -347h-110l-30 347h171z" />
    <glyph glyph-name="parenleft" unicode="(" horiz-adv-x="329" 
d="M312 780q-77 -96 -114.5 -215t-37.5 -227q0 -150 21.5 -240.5t104.5 -211.5h-59q-110 91 -156 195.5t-46 257.5q0 145 62 261.5t170 179.5h55z" />
    <glyph glyph-name="parenright" unicode=")" horiz-adv-x="329" 
d="M304 339q-1 -148 -49 -253t-153 -200h-59q83 121 104.5 211.5t21.5 240.5q0 108 -37.5 227t-114.5 215h55q108 -63 170.5 -180t61.5 -261z" />
    <glyph glyph-name="asterisk" unicode="*" horiz-adv-x="373" 
d="M339 574l-40 -72l-72 41v-81h-81v81l-72 -41l-40 72l72 41l-72 40l40 72l72 -41v81h81v-81l72 41l40 -72l-72 -40z" />
    <glyph glyph-name="plus" unicode="+" horiz-adv-x="428" 
d="M392 276h-119v-119h-118v119h-119v118h119v118h118v-118h119v-118z" />
    <glyph glyph-name="comma" unicode="," horiz-adv-x="226" 
d="M190 0q0 -117 -92 -156q-25 -11 -59 -15l-12 55q34 11 56 30q31 27 26 86h-73v168h154v-168z" />
    <glyph glyph-name="hyphen" unicode="-" horiz-adv-x="428" 
d="M392 276h-356v118h356v-118z" />
    <glyph glyph-name="period" unicode="." horiz-adv-x="226" 
d="M190 0h-154v168h154v-168z" />
    <glyph glyph-name="slash" unicode="/" horiz-adv-x="466" 
d="M465 768l-365 -768h-99l366 768h98z" />
    <glyph glyph-name="zero" unicode="0" horiz-adv-x="500" 
d="M473 349q0 -143 -22 -221t-69.5 -109t-133.5 -31t-132.5 31t-68 108t-21.5 220q0 252 46 342.5t176 90.5q89 0 136.5 -39.5t68 -130.5t20.5 -261zM303 376q0 195 -8.5 250.5t-44.5 55.5q-37 0 -46 -57t-9 -249q0 -99 1 -145.5t7 -79t15.5 -39.5t29.5 -7q39 0 47 43t8 228
z" />
    <glyph glyph-name="one" unicode="1" horiz-adv-x="375" 
d="M328 0h-153v547q-26 -9 -95 -9q-42 0 -61 3v89q101 11 144 44q44 34 70 94h95v-768z" />
    <glyph glyph-name="two" unicode="2" horiz-adv-x="475" 
d="M446 537q0 -96 -66 -195t-158 -170l-34 -26h240v-146h-404v143l30 27q31 28 64 64t73 87.5t65 110t25 108.5q0 55 -12.5 80.5t-44.5 25.5q-53 0 -53 -105q0 -48 9 -111l2 -14h-140l-5 32q-8 51 -8 117q0 100 53.5 157.5t147.5 57.5q111 0 163.5 -54t52.5 -189z" />
    <glyph glyph-name="three" unicode="3" horiz-adv-x="469" 
d="M448 253q0 -144 -58.5 -204.5t-168.5 -60.5q-91 0 -143 45t-52 131q0 80 12 112l143 8q-3 -29 -3 -68q0 -92 43 -92q30 0 42.5 26t12.5 104q0 130 -66 130q-19 0 -33 -11l-9 -6l-68 78l149 181h-201v142h364v-140l-130 -158q26 0 49 -9q117 -45 117 -208z" />
    <glyph glyph-name="four" unicode="4" horiz-adv-x="484" 
d="M464 114h-76v-114h-155v114h-205v183l207 471h153v-527h76v-127zM233 241v252l-107 -252h107z" />
    <glyph glyph-name="five" unicode="5" horiz-adv-x="459" 
d="M434 249q0 -265 -208 -265q-201 0 -201 178q0 59 7 100l132 -1q-6 -32 -6 -79q0 -29 13 -51.5t42 -22.5q28 0 41.5 31.5t13.5 110.5q0 77 -9 112.5t-37 35.5q-44 0 -50 -64l-135 9l19 425h332l-6 -148h-208l-9 -145q36 42 108 42q78 0 119.5 -67.5t41.5 -200.5z" />
    <glyph glyph-name="six" unicode="6" horiz-adv-x="486" 
d="M461 246q0 -69 -17 -120t-40 -76.5t-55.5 -40.5t-54 -18t-45.5 -3q-125 0 -174 89t-49 308q0 123 15 202.5t47.5 121t72 56.5t99.5 15q91 0 140 -44.5t49 -126.5q0 -37 -6 -59l-160 -6q8 22 8 44q0 75 -41 75q-31 0 -46.5 -31.5t-15.5 -118.5q0 -35 2 -49q9 18 34 32.5
t59 14.5q20 0 40 -5t46 -22t45.5 -44.5t33 -77.5t13.5 -116zM300 262q0 68 -9.5 94t-46.5 26q-28 0 -39 -28.5t-11 -91.5q0 -93 10 -121.5t40 -28.5q35 0 45.5 27t10.5 123z" />
    <glyph glyph-name="seven" unicode="7" horiz-adv-x="418" 
d="M412 638l-18 -25q-69 -95 -103.5 -215t-34.5 -234q0 -90 11 -164h-173q-6 58 -6 78q0 156 54 310.5t109 211.5l21 22h-256v146h396v-130z" />
    <glyph glyph-name="eight" unicode="8" horiz-adv-x="457" 
d="M432 218q0 -99 -50.5 -164.5t-153.5 -65.5q-101 0 -153.5 66t-52.5 164q0 132 77 179l15 9l-15 7q-28 13 -46 53.5t-18 100.5q0 101 51.5 157t141.5 56q91 0 142 -56.5t51 -156.5q0 -48 -15.5 -94t-39.5 -58l-18 -9l17 -9q30 -16 48.5 -63t18.5 -116zM273 570
q0 61 -9.5 82.5t-35.5 21.5q-27 0 -35 -20.5t-8 -83.5q0 -67 8 -89t35 -22q28 0 36.5 21.5t8.5 89.5zM280 228q0 75 -11 98.5t-41 23.5q-29 0 -39.5 -24t-10.5 -98q0 -83 9 -104.5t41 -21.5q34 0 43 21.5t9 104.5z" />
    <glyph glyph-name="nine" unicode="9" horiz-adv-x="487" 
d="M457 379q0 -123 -15 -202.5t-47 -121t-71.5 -56.5t-99.5 -15q-91 0 -140 44.5t-49 126.5q0 38 7 59l159 6q-8 -22 -8 -44q0 -75 42 -75q31 0 46 31.5t15 118.5q0 29 -3 47l-14 -14q-31 -31 -78 -31q-25 0 -51 10t-56.5 36t-49.5 83t-19 138q0 69 17 120t39.5 77t55 41
t54 18.5t45.5 3.5q125 0 173 -90.5t48 -310.5zM290 502q0 95 -9.5 124.5t-40.5 29.5q-36 0 -46 -28t-10 -126q0 -68 10 -94t46 -26q28 0 39 28.5t11 91.5z" />
    <glyph glyph-name="colon" unicode=":" horiz-adv-x="230" 
d="M193 366h-154v168h154v-168zM193 0h-154v168h154v-168z" />
    <glyph glyph-name="semicolon" unicode=";" horiz-adv-x="230" 
d="M193 366h-154v168h154v-168zM193 0q0 -117 -92 -156q-25 -11 -59 -15l-12 55q34 11 56 30q31 27 26 86h-73v168h154v-168z" />
    <glyph glyph-name="less" unicode="&#x3c;" horiz-adv-x="365" 
d="M329 118l-293 150v108l293 150v-115l-177 -89l177 -89v-115z" />
    <glyph glyph-name="equal" unicode="=" horiz-adv-x="428" 
d="M392 370h-356v110h356v-110zM392 170h-356v110h356v-110z" />
    <glyph glyph-name="greater" unicode="&#x3e;" horiz-adv-x="365" 
d="M329 268l-293 -150v115l177 89l-177 89v115l293 -150v-108z" />
    <glyph glyph-name="question" unicode="?" horiz-adv-x="404" 
d="M381 548q0 -79 -10 -131.5t-29 -78.5t-41.5 -36t-53.5 -10q-61 0 -96 40v-117h-90v274h90q0 -73 39 -73q23 0 32 26.5t9 100.5q0 69 -10 93.5t-32 24.5q-47 0 -47 -51q0 -40 5 -61h-104q-10 31 -10 75q0 156 167 156q56 0 93.5 -17.5t55.5 -51.5t25 -72t7 -91zM179 0
h-146v168h146v-168z" />
    <glyph glyph-name="at" unicode="@" horiz-adv-x="873" 
d="M827 421q0 -130 -66.5 -210.5t-152.5 -80.5q-108 0 -117 58q-14 -19 -24.5 -30t-40 -22t-71.5 -11q-52 0 -85.5 27t-33.5 82q0 43 14 75.5t35.5 52t55.5 33t66.5 19t75.5 9.5l5 35q7 52 -34 52q-34 0 -34 -50q0 -10 1 -13l-152 -21q-2 20 -2 29q0 73 49.5 110.5
t159.5 37.5q90 0 132.5 -40.5t38.5 -106.5q-1 -28 -4.5 -54.5t-6.5 -42t-10 -51.5t-11 -57q-3 -15 3 -27t22 -12q46 0 87.5 51t41.5 157q0 153 -92.5 234t-231.5 81q-153 0 -249.5 -110.5t-96.5 -275.5q0 -166 94 -264.5t250 -98.5q60 0 118.5 23t94.5 60l31 -45
q-106 -92 -248 -92q-190 0 -297 112.5t-107 305.5t112.5 311.5t306.5 118.5q162 0 267.5 -94t105.5 -265zM471 342q-2 0 -9.5 0.5t-10.5 0.5q-33 0 -50.5 -18t-17.5 -62q0 -19 7 -27t25 -8q39 0 48 57z" />
    <glyph glyph-name="A" unicode="A" horiz-adv-x="498" 
d="M487 0h-181l-22 133h-113l-20 -133h-144l147 768h170zM266 240l-46 242l-34 -242h80z" />
    <glyph glyph-name="B" unicode="B" horiz-adv-x="504" 
d="M485 217q0 -115 -42 -166t-123 -51h-275v768h236q92 0 138.5 -58.5t46.5 -152.5q0 -124 -82 -154q101 -30 101 -186zM298 543q0 97 -54 97h-39v-176h41q52 0 52 79zM312 232q0 44 -16.5 74.5t-50.5 30.5h-40v-206h42q31 0 48 22t17 79z" />
    <glyph glyph-name="C" unicode="C" horiz-adv-x="499" 
d="M475 216q0 -116 -53 -174.5t-171 -58.5q-82 0 -130 30.5t-73.5 109.5t-25.5 219q0 243 50.5 340.5t188.5 97.5q104 0 155 -52t51 -147q0 -47 -15 -120l-147 -1q4 36 4 79q0 62 -9.5 84t-37.5 22q-37 0 -49 -54.5t-12 -212.5q0 -63 0.5 -102t3.5 -70t6.5 -46t11 -24.5
t15.5 -11.5t23 -2q34 0 47.5 29t13.5 93q0 78 -1 98l144 -2q10 -63 10 -124z" />
    <glyph glyph-name="D" unicode="D" horiz-adv-x="523" 
d="M501 348q0 -79 -11 -140t-35.5 -109t-68.5 -73.5t-106 -25.5h-235v768h247q103 0 156 -112.5t53 -307.5zM331 366q0 161 -15.5 216.5t-67.5 55.5h-37v-499h39q30 0 46 15.5t25.5 66t9.5 145.5z" />
    <glyph glyph-name="E" unicode="E" horiz-adv-x="466" 
d="M448 0h-403v768h383v-145h-213v-160h190v-141h-190v-175h233v-147z" />
    <glyph glyph-name="F" unicode="F" horiz-adv-x="435" 
d="M418 615h-203v-167h180v-141h-180v-307h-170v768h373v-153z" />
    <glyph glyph-name="G" unicode="G" horiz-adv-x="518" 
d="M482 0h-81l-18 51l-22 -19q-31 -27 -58.5 -37.5t-69.5 -10.5q-73 0 -117.5 32.5t-69 116.5t-24.5 229q0 237 52 327.5t188 90.5q216 0 216 -204q0 -63 -12 -111l-147 -4q5 37 5 100q0 85 -62 85q-27 0 -40 -22.5t-19 -82t-6 -178.5q0 -108 6.5 -157.5t20.5 -65t45 -15.5
q38 0 52.5 26.5t14.5 88.5v46h-78v108h224v-394z" />
    <glyph glyph-name="H" unicode="H" horiz-adv-x="531" 
d="M486 0h-170v354h-101v-354h-170v768h170v-285h101v285h170v-768z" />
    <glyph glyph-name="I" unicode="I" horiz-adv-x="260" 
d="M215 0h-170v768h170v-768z" />
    <glyph glyph-name="J" unicode="J" horiz-adv-x="481" 
d="M441 219q0 -103 -56.5 -167t-164.5 -64q-100 0 -155.5 62.5t-55.5 167.5q0 68 25 133l146 5q-10 -85 -10 -114q0 -57 11 -80.5t37 -23.5q53 0 53 98v532h170v-549z" />
    <glyph glyph-name="K" unicode="K" horiz-adv-x="521" 
d="M526 0h-192l-119 318v-318h-170v768h170v-282l115 282h173l-148 -341z" />
    <glyph glyph-name="L" unicode="L" horiz-adv-x="412" 
d="M405 0h-360v768h170v-621h190v-147z" />
    <glyph glyph-name="M" unicode="M" horiz-adv-x="690" 
d="M645 0h-156v552l-102 -552h-107l-88 552v-552h-147v768h227l72 -366l64 366h237v-768z" />
    <glyph glyph-name="N" unicode="N" horiz-adv-x="519" 
d="M474 0h-126l-164 406v-406h-139v768h148l148 -365v365h133v-768z" />
    <glyph glyph-name="O" unicode="O" horiz-adv-x="494" 
d="M472 385q0 -93 -5.5 -155t-19.5 -111.5t-40 -76.5t-64.5 -40.5t-95.5 -13.5q-86 0 -132.5 31.5t-69.5 117.5t-23 248q0 209 48.5 302t176.5 93q127 0 176 -88t49 -307zM298 383q0 176 -7 221t-44 45q-36 0 -43.5 -47t-7.5 -219q0 -171 8 -213t43 -42t43 42t8 213z" />
    <glyph glyph-name="P" unicode="P" horiz-adv-x="496" 
d="M477 512q0 -135 -49 -186.5t-152 -51.5h-65v-274h-166v768h208q109 0 166.5 -57.5t57.5 -198.5zM309 520q0 66 -14.5 90.5t-50.5 24.5h-33v-225h34q34 0 49 26t15 84z" />
    <glyph glyph-name="Q" unicode="Q" horiz-adv-x="494" 
d="M472 385q0 -214 -32 -301.5t-119 -97.5l-28 -3l-1 -12q-6 -61 36 -61q25 0 33.5 15.5t1.5 36.5h90l3 -26q7 -59 -34 -92t-104 -33q-65 0 -101.5 32t-36.5 93q0 33 3 48l-10 1q-40 4 -66 21t-46.5 59.5t-29.5 120.5t-9 199q0 209 48.5 302t176.5 93q125 0 175 -94t50 -301
zM298 383q0 174 -7 220t-44 46q-36 0 -43.5 -48t-7.5 -218q0 -91 1 -134.5t7 -74.5t15 -38.5t28 -7.5q35 0 43 43t8 212z" />
    <glyph glyph-name="R" unicode="R" horiz-adv-x="510" 
d="M482 531q0 -89 -29 -130t-86 -53q51 -13 74 -53t28 -129q1 -30 1 -80q2 -48 11 -86h-174q-15 40 -15 88q0 92 -1 130q-1 42 -11 63t-40 21h-25v-302h-170v768h251q98 0 142 -59t44 -178zM312 530q0 62 -14.5 86t-44.5 24h-38v-220h40q33 0 45 25t12 85z" />
    <glyph glyph-name="S" unicode="S" horiz-adv-x="509" 
d="M491 233q0 -245 -243 -245q-230 0 -230 195q0 55 13 91l147 5q-10 -26 -10 -73q0 -36 19.5 -57.5t53.5 -21.5q75 0 75 78q0 37 -21 61.5t-67 51.5l-91 54q-50 30 -81 80t-31 112q0 97 62 156.5t177 59.5q99 0 145 -49t46 -136q0 -37 -9 -68l-145 -4q11 24 11 52
q0 69 -57 69q-56 0 -56 -68q0 -35 27 -59t74 -47l65 -32q126 -61 126 -205z" />
    <glyph glyph-name="T" unicode="T" horiz-adv-x="456" 
d="M449 627h-136v-627h-170v627h-136v141h442v-141z" />
    <glyph glyph-name="U" unicode="U" horiz-adv-x="535" 
d="M492 220q0 -52 -9.5 -91t-33 -72.5t-69.5 -51t-113 -17.5q-122 0 -173 61.5t-51 170.5v548h169v-568q0 -56 55 -56q27 0 41.5 15.5t14.5 40.5v568h169v-548z" />
    <glyph glyph-name="V" unicode="V" horiz-adv-x="483" 
d="M483 768l-153 -768h-181l-152 768h179l76 -468h5l65 468h161z" />
    <glyph glyph-name="W" unicode="W" horiz-adv-x="632" 
d="M632 768l-126 -768h-130l-61 396l-52 -396h-135l-128 768h153l57 -348l56 348h114l57 -348l57 348h138z" />
    <glyph glyph-name="X" unicode="X" horiz-adv-x="516" 
d="M507 0h-176l-82 264l-78 -264h-171l153 406l-123 362h176l70 -202l56 202h171l-125 -362z" />
    <glyph glyph-name="Y" unicode="Y" horiz-adv-x="499" 
d="M499 768l-162 -468v-300h-170v300l-167 468h170l92 -285l91 285h146z" />
    <glyph glyph-name="Z" unicode="Z" horiz-adv-x="452" 
d="M427 0h-400v178l240 446h-208v144h368v-178l-235 -443h235v-147z" />
    <glyph glyph-name="bracketleft" unicode="[" horiz-adv-x="324" 
d="M286 -102h-241v870h241v-88h-113v-694h113v-88z" />
    <glyph glyph-name="backslash" unicode="\" horiz-adv-x="466" 
d="M465 0h-99l-365 768h98z" />
    <glyph glyph-name="bracketright" unicode="]" horiz-adv-x="324" 
d="M279 -102h-241v88h113v694h-113v88h241v-870z" />
    <glyph glyph-name="asciicircum" unicode="^" horiz-adv-x="474" 
d="M420 579h-76l-107 103l-107 -103h-76l110 189h146z" />
    <glyph glyph-name="underscore" unicode="_" horiz-adv-x="510" 
d="M510 -200h-510v101h510v-101z" />
    <glyph glyph-name="grave" unicode="`" horiz-adv-x="474" 
d="M344 620h-65l-179 137v11h172z" />
    <glyph glyph-name="a" unicode="a" horiz-adv-x="513" 
d="M503 18q-13 -10 -45.5 -20t-60.5 -10q-38 0 -59.5 11t-28 23.5t-13.5 39.5l-9 -18q-11 -22 -41.5 -39t-74.5 -17q-77 0 -114 50t-37 123q0 143 143 173l60 13q45 10 59 24.5t14 51.5q0 74 -63 74q-29 0 -48.5 -16.5t-19.5 -42.5q0 -23 8 -49l-132 -3q-8 37 -8 62
q0 73 56 108.5t146 35.5q217 0 217 -129v-334q0 -15 10.5 -24t26.5 -9q7 0 14 3v-81zM296 227v58q-20 -12 -48 -19q-42 -12 -56 -30t-14 -57q0 -79 50 -79q33 0 50.5 25t17.5 102z" />
    <glyph glyph-name="b" unicode="b" horiz-adv-x="486" 
d="M466 298q0 -167 -44 -237.5t-149 -70.5q-36 0 -63.5 16.5t-39.5 33t-26 42.5l-34 -82h-72v768h158v-251q16 31 39.5 49.5t65.5 18.5q165 0 165 -287zM307 285q0 85 -10 129q-6 24 -15 33t-27 9q-30 0 -44.5 -40t-14.5 -131q0 -97 13.5 -135t40.5 -38q30 0 43.5 35
t13.5 138z" />
    <glyph glyph-name="c" unicode="c" horiz-adv-x="462" 
d="M443 175q0 -77 -45 -132t-147 -55q-117 0 -174 60.5t-57 217.5q0 176 59.5 251t166.5 75q186 0 186 -187q0 -29 -3 -48l-135 -4q3 14 3 34q0 84 -53 84q-38 0 -50.5 -35t-12.5 -137q0 -116 13 -151.5t52 -35.5q57 0 57 114q0 22 -4 33l137 -7q7 -33 7 -77z" />
    <glyph glyph-name="d" unicode="d" horiz-adv-x="487" 
d="M449 0h-150v74l-14 -25q-33 -58 -97 -58q-88 0 -128 63t-40 229q0 147 42.5 224.5t124.5 77.5q70 0 97 -60l7 -15v258h158v-768zM289 286q0 97 -16 142q-14 38 -45 38q-50 0 -50 -179q0 -73 8.5 -113.5t19 -50.5t27.5 -10q28 0 42 37.5t14 135.5z" />
    <glyph glyph-name="e" unicode="e" horiz-adv-x="462" 
d="M439 254l-260 2q-1 -90 14 -117.5t53 -27.5q60 0 54 79l-2 23l137 -4q3 -17 3 -43q0 -81 -45 -129.5t-145 -48.5q-56 0 -94.5 12t-70.5 43t-47.5 89.5t-15.5 146.5q0 162 54 237.5t161 75.5q175 0 197 -228q5 -54 7 -110zM285 337q-5 89 -13 114.5t-37 25.5
q-30 0 -42 -33t-14 -107h106z" />
    <glyph glyph-name="f" unicode="f" horiz-adv-x="359" 
d="M382 670q0 -27 -9 -56l-92 4q3 16 3 36q0 37 -27 37q-30 0 -30 -69q0 -18 2 -48h130v-108h-125v-466h-158v466h-76v108h76v58q0 68 44.5 108t121.5 40q75 0 107.5 -27.5t32.5 -82.5z" />
    <glyph glyph-name="g" unicode="g" horiz-adv-x="450" 
d="M453 -10q0 -92 -56 -135t-182 -43q-93 0 -153 29.5t-60 94.5q0 26 12.5 42.5t40.5 29.5l26 13l-19 11q-51 30 -51 95q0 61 69 108l18 12l-17 15q-24 21 -40 58t-16 74q0 94 49.5 146t143.5 52q50 0 80 -13l15 104h128l-88 -132q70 -59 70 -157q0 -82 -48 -131t-131 -49
q-52 0 -75 6q-2 -2 -9 -5.5t-10 -6t-7.5 -6.5t-6 -8.5t-1.5 -10.5q0 -13 8.5 -19.5t16.5 -7.5t24 -1l95 1q83 1 128.5 -41t45.5 -125zM274 407q0 60 -12.5 80t-40.5 20t-40 -20t-12 -80t12 -80t40 -20t40.5 20t12.5 80zM312 -40q0 50 -90 50h-70q-28 -24 -28 -52
q0 -26 26.5 -41.5t66.5 -15.5q58 0 76.5 13.5t18.5 45.5z" />
    <glyph glyph-name="h" unicode="h" horiz-adv-x="487" 
d="M452 0h-158v406q0 42 -37 42q-28 0 -44.5 -33t-16.5 -88v-327h-158v768h157v-287q14 49 47.5 76.5t83.5 27.5q53 0 89.5 -34.5t36.5 -100.5v-450z" />
    <glyph glyph-name="i" unicode="i" horiz-adv-x="234" 
d="M196 624h-158v144h158v-144zM196 0h-158v574h158v-574z" />
    <glyph glyph-name="j" unicode="j" horiz-adv-x="239" 
d="M201 624h-158v144h158v-144zM201 -27q0 -80 -38 -116.5t-114 -36.5q-150 0 -150 111q0 25 11 51l86 -2q-6 -22 -6 -34q0 -41 31 -41q30 0 30 35q0 5 -4 25q-4 22 -4 40v569h158v-601z" />
    <glyph glyph-name="k" unicode="k" horiz-adv-x="485" 
d="M478 0h-181l-62 195l-39 -69v-126h-158v768h158v-418l113 224h161l-121 -222z" />
    <glyph glyph-name="l" unicode="l" horiz-adv-x="234" 
d="M196 0h-158v768h158v-768z" />
    <glyph glyph-name="m" unicode="m" horiz-adv-x="743" 
d="M708 0h-158v407q0 42 -37 42q-28 0 -44.5 -33t-16.5 -88v-328h-157v407q0 42 -37 42q-28 0 -45 -31t-17 -90q1 -325 0 -328h-158v574h157v-94q14 49 48 77t84 28t83.5 -27t40.5 -78q14 49 47.5 77t83.5 28q53 0 89.5 -34.5t36.5 -100.5v-450z" />
    <glyph glyph-name="n" unicode="n" horiz-adv-x="487" 
d="M452 0h-158v406q0 42 -37 42q-28 0 -44.5 -33t-16.5 -88v-327h-158v574h157v-93q14 49 47.5 76.5t83.5 27.5q53 0 89.5 -34.5t36.5 -100.5v-450z" />
    <glyph glyph-name="o" unicode="o" horiz-adv-x="463" 
d="M443 291q0 -156 -43.5 -228t-162.5 -72t-168 67t-49 220q0 160 52 237t157 77q120 0 167 -72.5t47 -228.5zM280 282q0 117 -9.5 154t-39.5 37q-31 0 -39.5 -36.5t-8.5 -154.5q0 -72 5.5 -107.5t14.5 -45t28 -9.5q20 0 29.5 10t14.5 45t5 107z" />
    <glyph glyph-name="p" unicode="p" horiz-adv-x="488" 
d="M468 271q0 -149 -36.5 -215t-124.5 -66q-30 0 -55.5 16.5t-37.5 36.5l-18 31v-218h-158v718h157v-64l14 21q37 56 91 56q37 0 65 -13.5t52.5 -46.5t37.5 -97.5t13 -158.5zM308 287q0 174 -54 174q-29 0 -43.5 -36t-14.5 -137q0 -98 13 -131.5t46 -33.5q53 0 53 164z" />
    <glyph glyph-name="q" unicode="q" horiz-adv-x="486" 
d="M448 -144h-158v201q-35 -66 -105 -66q-165 0 -165 285q0 158 47 233.5t146 75.5q41 0 73 -24t49 -63l41 76h72v-718zM289 289q0 58 -5 95.5t-15 54t-19 22t-22 5.5q-17 0 -27 -13.5t-16.5 -53.5t-6.5 -110q0 -109 11.5 -142.5t44.5 -33.5q16 0 26.5 9.5t19.5 50.5t9 116z
" />
    <glyph glyph-name="r" unicode="r" horiz-adv-x="440" 
d="M429 437q0 -65 -8 -119l-135 -25q5 33 5 74q0 71 -42 71q-53 0 -53 -150v-288h-158v574h155q2 -69 2 -104l7 20q14 41 42 68t66 27q61 0 90 -36t29 -112z" />
    <glyph glyph-name="s" unicode="s" horiz-adv-x="448" 
d="M437 173q0 -94 -50.5 -138.5t-168.5 -44.5q-200 0 -200 145q0 35 12 71l121 -8q-4 -19 -4 -37q0 -66 60 -66q32 0 45 19t13 41t-13 37t-46 30l-62 29q-124 57 -124 172q0 79 58 124t144 45q83 0 135 -36t52 -106q0 -28 -9 -52l-119 2q5 15 5 40q0 49 -54 49
q-50 0 -50 -51q0 -23 15 -37t48 -28l77 -33q56 -24 85.5 -61t29.5 -106z" />
    <glyph glyph-name="t" unicode="t" horiz-adv-x="390" 
d="M370 25q-16 -11 -62.5 -22t-89.5 -11q-66 0 -101 28t-34 92l2 354h-85v108h87l4 158h150v-158h120v-108h-120v-290q0 -50 71 -50q31 0 58 12v-113z" />
    <glyph glyph-name="u" unicode="u" horiz-adv-x="487" 
d="M449 0h-157v93q-14 -49 -47.5 -76.5t-83.5 -27.5q-53 0 -89.5 34.5t-36.5 100.5v450h158v-406q0 -42 37 -42q28 0 44.5 31t16.5 90v327h158v-574z" />
    <glyph glyph-name="v" unicode="v" horiz-adv-x="460" 
d="M460 574l-151 -574h-153l-156 574h167l77 -344l63 344h153z" />
    <glyph glyph-name="w" unicode="w" horiz-adv-x="664" 
d="M664 574l-147 -574h-131l-57 328l-49 -328h-130l-150 574h162l55 -261l46 261h144l53 -261l48 261h156z" />
    <glyph glyph-name="x" unicode="x" horiz-adv-x="474" 
d="M474 0h-176l-64 160l-81 -160h-153l162 305l-148 269h179l56 -138l62 138h152l-135 -265z" />
    <glyph glyph-name="y" unicode="y" horiz-adv-x="472" 
d="M472 574l-151 -579q-12 -46 -20.5 -69t-28 -52t-51 -41.5t-78.5 -12.5q-78 0 -108.5 31t-30.5 91q0 10 4 40h99q-4 -24 -4 -39q0 -33 39 -33q46 0 46 75q0 20 -13 59l-175 530h176l80 -337l65 337h151z" />
    <glyph glyph-name="z" unicode="z" horiz-adv-x="430" 
d="M402 0h-376v160l204 294h-191v120h363v-137l-227 -317h227v-120z" />
    <glyph glyph-name="braceleft" unicode="{" horiz-adv-x="317" 
d="M292 -102h-94q-69 0 -95.5 25t-26.5 100v213q0 30 -8.5 41t-33.5 11h-25v136h25q28 0 35 11t7 48v166q0 63 28.5 91t93.5 28h94v-101h-58q-33 0 -33 -42v-183q0 -83 -67 -83q29 0 48 -24.5t19 -64.5v-230q0 -23 7 -32.5t26 -9.5h58v-100z" />
    <glyph glyph-name="bar" unicode="|" horiz-adv-x="197" 
d="M161 -200h-125v1000h125v-1000z" />
    <glyph glyph-name="braceright" unicode="}" horiz-adv-x="317" 
d="M308 288h-25q-25 0 -33.5 -11t-8.5 -41v-213q0 -75 -26.5 -100t-95.5 -25h-94v100h58q19 0 26 9.5t7 32.5v230q0 40 19 64.5t48 24.5q-67 0 -67 83v183q0 42 -33 42h-58v101h94q65 0 93.5 -28t28.5 -91v-166q0 -37 7 -48t35 -11h25v-136z" />
    <glyph glyph-name="asciitilde" unicode="~" horiz-adv-x="443" 
d="M392 699q0 -44 -24.5 -75t-77.5 -31q-42 0 -72 28l-25 22q-27 23 -43 23q-9 0 -15.5 -3t-10 -7t-5 -11.5t-2 -11.5t0 -11.5t0.5 -8.5h-50q-11 22 -11 61q0 106 89 106q50 0 90 -33l26 -21q24 -19 40 -19q6 0 11 2t8.5 5t5.5 8t3 9t1.5 10t0.5 9.5v8v5.5h49q11 -26 11 -65
z" />
    <glyph glyph-name="nbspace" unicode="&#xa0;" horiz-adv-x="127" 
 />
    <glyph glyph-name="exclamdown" unicode="&#xa1;" horiz-adv-x="208" 
d="M177 600h-146v168h146v-168zM177 0h-146v260l30 260h81l35 -260v-260z" />
    <glyph glyph-name="cent" unicode="&#xa2;" horiz-adv-x="462" 
d="M443 302q0 -69 -36.5 -121.5t-118.5 -63.5v-59h-85v60q-92 10 -137.5 72.5t-45.5 202.5q0 294 183 323v60h85v-60q144 -19 144 -184q0 -28 -3 -48l-135 -4q3 14 3 34q0 84 -53 84q-38 0 -50.5 -35t-12.5 -137q0 -116 13 -151.5t52 -35.5q57 0 57 114q0 15 -4 33l137 -7
q7 -33 7 -77z" />
    <glyph glyph-name="sterling" unicode="&#xa3;" horiz-adv-x="583" 
d="M577 192q0 -86 -51.5 -147t-144.5 -61q-47 0 -102 11.5t-85 27.5q-16 -10 -54.5 -23t-72.5 -13q-31 0 -52 17t-21 52q0 87 99 87q16 0 43.5 -4t30.5 -4q30 31 30 90q0 51 -9 72h-136v104h96q-33 80 -33 160q0 219 217 219q100 0 151 -45t51 -162q0 -36 -10 -68l-152 -12
q9 43 9 64q0 68 -10.5 91.5t-39.5 23.5q-27 0 -36 -24t-9 -92q0 -66 41 -155h119v-104h-95q8 -68 -12 -111q-17 -35 -45 -75q19 -5 50 -5q98 0 88 124l140 14q5 -40 5 -52zM107 60q-17 13 -32 13q-27 0 -27 -14q0 -17 24 -17q19 0 35 18z" />
    <glyph glyph-name="currency" unicode="&#xa4;" 
d="M629 314q0 127 -89.5 216.5t-216.5 89.5t-216.5 -89.5t-89.5 -216.5t89.5 -216.5t216.5 -89.5t216.5 89.5t89.5 216.5zM520 224l-150 -9l-75 -141l-74 130l-140 19l109 115l9 202l142 -127l136 96l-16 -223z" />
    <glyph glyph-name="yen" unicode="&#xa5;" horiz-adv-x="509" 
d="M499 300h-162v-300h-160v300h-167v95h133l-23 64h-110v95h76l-76 214h160l97 -297l96 297h136l-74 -214h74v-95h-107l-22 -64h129v-95z" />
    <glyph glyph-name="brokenbar" unicode="&#xa6;" 
d="M629 314q0 127 -89.5 216.5t-216.5 89.5t-216.5 -89.5t-89.5 -216.5t89.5 -216.5t216.5 -89.5t216.5 89.5t89.5 216.5zM520 224l-150 -9l-75 -141l-74 130l-140 19l109 115l9 202l142 -127l136 96l-16 -223z" />
    <glyph glyph-name="section" unicode="&#xa7;" horiz-adv-x="488" 
d="M454 80q0 -79 -60.5 -124t-150.5 -45q-93 0 -143 39t-50 103q0 27 9 52l125 -1q-5 -17 -5 -40q0 -50 54 -50q52 0 52 51q0 24 -14 38t-49 28l-80 33q-119 48 -122 159q-3 97 77 146q-64 39 -64 142q0 79 57 124t146 45q92 0 141 -39t49 -103q0 -27 -9 -52l-117 1
q5 17 5 40q0 24 -15.5 38.5t-43.5 14.5t-42 -15t-14 -39q0 -23 14.5 -36t51.5 -28l80 -33q53 -22 85.5 -64.5t32.5 -98.5q0 -52 -16 -85.5t-57 -55.5q40 -23 56.5 -57.5t16.5 -87.5zM318 326q0 35 -58 62q-7 3 -25.5 12t-34 16t-23.5 10q-21 -17 -21 -52t64 -68
q40 -21 74 -34q15 13 19.5 22.5t4.5 31.5z" />
    <glyph glyph-name="dieresis" unicode="&#xa8;" horiz-adv-x="474" 
d="M386 626h-127v130h127v-130zM209 626h-127v130h127v-130z" />
    <glyph glyph-name="copyright" unicode="&#xa9;" horiz-adv-x="656" 
d="M636 435q0 -138 -83 -218.5t-225 -80.5q-144 0 -226 80.5t-82 218.5q0 143 82 223t226 80q143 0 225.5 -80t82.5 -223zM582 435q0 119 -69 187t-185 68q-121 0 -188 -69t-67 -186q0 -118 69.5 -185.5t185.5 -67.5q117 0 185.5 68.5t68.5 184.5zM439 351q0 -101 -108 -101
q-65 0 -95 35t-30 127q0 108 28 153.5t98 45.5q53 0 75.5 -22.5t22.5 -72.5l-3 -45l-82 -5q3 24 3 47q0 39 -19 39q-8 0 -12.5 -7.5t-6.5 -26.5t-2.5 -34.5t-0.5 -47.5v-8q0 -58 5.5 -86.5t22.5 -28.5q10 0 15.5 9t6 17t0.5 23v5l-4 48l81 -1q5 -22 5 -63z" />
    <glyph glyph-name="ordfeminine" unicode="&#xaa;" horiz-adv-x="388" 
d="M345 439q-24 -16 -61 -16q-62 0 -75 49l-7 -12q-8 -16 -28 -26.5t-44 -10.5q-38 1 -65 29t-27 64q0 41 27 70.5t70 37.5l29 6q43 9 43 40q0 26 -19 26q-9 0 -15.5 -7t-6.5 -16q0 -12 4 -22l-113 -8q-10 12 -10 35q0 42 41 64.5t94 22.5q141 0 141 -105v-153q0 -18 14 -18
h8v-50zM364 334h-334v60h334v-60zM212 526v68q-16 -2 -30.5 -20t-14.5 -39q0 -36 25 -36q9 0 14.5 8t5.5 19z" />
    <glyph glyph-name="guillemotleft" unicode="&#xab;" horiz-adv-x="536" 
d="M500 36l-231 173v135l231 171v-135l-141 -104l141 -105v-135zM266 36l-230 173v135l230 171v-135l-140 -104l140 -105v-135z" />
    <glyph glyph-name="logicalnot" unicode="&#xac;" 
d="M629 314q0 127 -89.5 216.5t-216.5 89.5t-216.5 -89.5t-89.5 -216.5t89.5 -216.5t216.5 -89.5t216.5 89.5t89.5 216.5zM520 224l-150 -9l-75 -141l-74 130l-140 19l109 115l9 202l142 -127l136 96l-16 -223z" />
    <glyph glyph-name="registered" unicode="&#xae;" horiz-adv-x="656" 
d="M636 435q0 -138 -83 -218.5t-225 -80.5q-144 0 -226 80.5t-82 218.5q0 143 82 223t226 80q143 0 225.5 -80t82.5 -223zM582 435q0 119 -69 187t-185 68q-121 0 -188 -69t-67 -186q0 -118 69.5 -185.5t185.5 -67.5q117 0 185.5 68.5t68.5 184.5zM450 496q0 -79 -63 -79
h-12l12 -2q25 -4 36.5 -20.5t14 -35t3.5 -62.5q0 -27 6 -39h-91q-6 12 -6 42v58q0 38 -25 38h-10v-138h-98v346h125q108 0 108 -108zM349 495q0 32 -5.5 43t-18.5 11h-10v-107h11q14 0 18.5 12t4.5 41z" />
    <glyph glyph-name="macron" unicode="&#xaf;" horiz-adv-x="474" 
d="M388 633h-296v96h296v-96z" />
    <glyph glyph-name="degree" unicode="&#xb0;" horiz-adv-x="362" 
d="M300 640q0 -49 -35.5 -84t-86.5 -35q-49 0 -84.5 35t-35.5 84t35 83.5t85 34.5q51 0 86.5 -34.5t35.5 -83.5zM237 640q0 23 -17.5 40t-41.5 17q-23 0 -40 -17t-17 -40t17 -39.5t40 -16.5q24 0 41.5 16.5t17.5 39.5z" />
    <glyph glyph-name="plusminus" unicode="&#xb1;" horiz-adv-x="795" 
d="M748 0h-158v659q-1 1 -6.5 7.5t-7.5 8t-7.5 6t-9.5 6t-11 3t-14 1.5q-51 0 -51 -42q0 -3 3 -75h75v-108h-70v-466h-158v466h-99v-466h-158v466h-76v108h76v58q0 68 44.5 108t121.5 40q97 0 141 -35q43 35 116 35q66 0 100 -12h149v-768zM333 574v84q-24 33 -55 33
q-22 0 -37 -10t-15 -28q0 -7 3 -79h104z" />
    <glyph glyph-name="twosuperior" unicode="&#xb2;" 
d="M629 314q0 127 -89.5 216.5t-216.5 89.5t-216.5 -89.5t-89.5 -216.5t89.5 -216.5t216.5 -89.5t216.5 89.5t89.5 216.5zM520 224l-150 -9l-75 -141l-74 130l-140 19l109 115l9 202l142 -127l136 96l-16 -223z" />
    <glyph glyph-name="threesuperior" unicode="&#xb3;" 
d="M629 314q0 127 -89.5 216.5t-216.5 89.5t-216.5 -89.5t-89.5 -216.5t89.5 -216.5t216.5 -89.5t216.5 89.5t89.5 216.5zM520 224l-150 -9l-75 -141l-74 130l-140 19l109 115l9 202l142 -127l136 96l-16 -223z" />
    <glyph glyph-name="acute" unicode="&#xb4;" horiz-adv-x="474" 
d="M392 757l-179 -137h-65l72 148h172v-11z" />
    <glyph glyph-name="mu" unicode="&#xb5;" 
d="M629 314q0 127 -89.5 216.5t-216.5 89.5t-216.5 -89.5t-89.5 -216.5t89.5 -216.5t216.5 -89.5t216.5 89.5t89.5 216.5zM520 224l-150 -9l-75 -141l-74 130l-140 19l109 115l9 202l142 -127l136 96l-16 -223z" />
    <glyph glyph-name="paragraph" unicode="&#xb6;" horiz-adv-x="585" 
d="M540 0h-94v691h-58v-691h-94v269h-88q-87 0 -136.5 55t-49.5 188q0 138 60 197t156 59h304v-768zM294 340v351h-13q-37 0 -50 -35.5t-13 -140.5q0 -82 5 -117.5t17 -46.5t39 -11h15z" />
    <glyph glyph-name="periodcentered" unicode="&#xb7;" horiz-adv-x="248" 
d="M213 385q0 -37 -26 -63t-63 -26t-63 26t-26 63t26 63t63 26t63 -26t26 -63z" />
    <glyph glyph-name="cedilla" unicode="&#xb8;" horiz-adv-x="474" 
d="M342 -108q0 -42 -31 -67t-85 -25q-88 0 -128 36l32 54q40 -32 92 -32q33 0 33 31q0 24 -22 30t-50 -7l18 68h38q47 0 75 -24.5t28 -63.5z" />
    <glyph glyph-name="onesuperior" unicode="&#xb9;" 
d="M629 314q0 127 -89.5 216.5t-216.5 89.5t-216.5 -89.5t-89.5 -216.5t89.5 -216.5t216.5 -89.5t216.5 89.5t89.5 216.5zM520 224l-150 -9l-75 -141l-74 130l-140 19l109 115l9 202l142 -127l136 96l-16 -223z" />
    <glyph glyph-name="ordmasculine" unicode="&#xba;" horiz-adv-x="361" 
d="M334 585q0 -93 -37.5 -126.5t-116.5 -33.5q-74 0 -113.5 34t-39.5 126q0 102 41 142t112 40q76 0 115 -39.5t39 -142.5zM336 336h-306v60h306v-60zM207 594q0 99 -27 99t-27 -99q0 -49 5 -68t22 -19q16 0 21.5 19.5t5.5 67.5z" />
    <glyph glyph-name="guillemotright" unicode="&#xbb;" horiz-adv-x="536" 
d="M500 211l-230 -173v135l140 105l-140 104v135l230 -171v-135zM267 211l-231 -173v135l141 105l-141 104v135l231 -171v-135z" />
    <glyph glyph-name="onequarter" unicode="&#xbc;" 
d="M629 314q0 127 -89.5 216.5t-216.5 89.5t-216.5 -89.5t-89.5 -216.5t89.5 -216.5t216.5 -89.5t216.5 89.5t89.5 216.5zM520 224l-150 -9l-75 -141l-74 130l-140 19l109 115l9 202l142 -127l136 96l-16 -223z" />
    <glyph glyph-name="onehalf" unicode="&#xbd;" 
d="M629 314q0 127 -89.5 216.5t-216.5 89.5t-216.5 -89.5t-89.5 -216.5t89.5 -216.5t216.5 -89.5t216.5 89.5t89.5 216.5zM520 224l-150 -9l-75 -141l-74 130l-140 19l109 115l9 202l142 -127l136 96l-16 -223z" />
    <glyph glyph-name="threequarters" unicode="&#xbe;" 
d="M629 314q0 127 -89.5 216.5t-216.5 89.5t-216.5 -89.5t-89.5 -216.5t89.5 -216.5t216.5 -89.5t216.5 89.5t89.5 216.5zM520 224l-150 -9l-75 -141l-74 130l-140 19l109 115l9 202l142 -127l136 96l-16 -223z" />
    <glyph glyph-name="questiondown" unicode="&#xbf;" horiz-adv-x="404" 
d="M373 600h-146v168h146v-168zM373 144q0 -156 -167 -156q-56 0 -93.5 17.5t-55.5 51.5t-25 72t-7 91q0 79 10 131.5t29 78.5t41.5 36t53.5 10q64 0 96 -40v117h90v-274h-90q0 73 -39 73q-23 0 -32 -26.5t-9 -100.5q0 -69 10 -93.5t32 -24.5q47 0 47 51q0 40 -5 61h104
q10 -31 10 -75z" />
    <glyph glyph-name="Agrave" unicode="&#xc0;" horiz-adv-x="498" 
d="M291 790h-65l-179 123v10h179zM487 0l-163 768h-170l-147 -768h144l20 133h113l22 -133h181zM266 240h-80l34 242z" />
    <glyph glyph-name="Aacute" unicode="&#xc1;" horiz-adv-x="498" 
d="M431 913l-179 -123h-65l65 133h179v-10zM487 0l-163 768h-170l-147 -768h144l20 133h113l22 -133h181zM266 240h-80l34 242z" />
    <glyph glyph-name="Acircumflex" unicode="&#xc2;" horiz-adv-x="498" 
d="M384 790h-52l-100 69l-100 -69h-52l83 142h148zM487 0l-163 768h-170l-147 -768h144l20 133h113l22 -133h181zM266 240h-80l34 242z" />
    <glyph glyph-name="Atilde" unicode="&#xc3;" horiz-adv-x="498" 
d="M487 0h-181l-22 133h-113l-20 -133h-144l147 768h170zM266 240l-46 242l-34 -242h80zM389 882q0 -88 -85 -88q-32 0 -50.5 6.5t-41.5 24.5q-25 21 -43 21q-22 0 -29 -14t-2 -32h-49q-11 24 -11 50q0 88 85 88q29 0 47 -6.5t42 -25.5q23 -20 46 -20q42 0 31 46h49
q11 -22 11 -50z" />
    <glyph glyph-name="Adieresis" unicode="&#xc4;" horiz-adv-x="498" 
d="M389 790h-120v120h120v-120zM205 790h-120v120h120v-120zM487 0l-163 768h-170l-147 -768h144l20 133h113l22 -133h181zM266 240h-80l34 242z" />
    <glyph glyph-name="Aring" unicode="&#xc5;" horiz-adv-x="498" 
d="M487 0h-181l-22 133h-113l-20 -133h-144l142 745q-33 35 -33 81q0 49 35 83.5t85 34.5q51 0 86.5 -34.5t35.5 -83.5q0 -44 -30 -78zM294 824q0 23 -17 40t-42 17q-24 0 -40.5 -17t-16.5 -40t16 -39.5t41 -16.5q26 0 42.5 16.5t16.5 39.5zM266 240l-46 242l-34 -242h80z
" />
    <glyph glyph-name="AE" unicode="&#xc6;" horiz-adv-x="678" 
d="M660 0h-358v183h-111l-47 -183h-137l223 768h410v-145h-173v-160h150v-141h-150v-169h193v-153zM302 290v312h-3q0 -13 -6 -34l-73 -278h82z" />
    <glyph glyph-name="Ccedilla" unicode="&#xc7;" horiz-adv-x="499" 
d="M475 216q0 -116 -53 -174.5t-171 -58.5q-82 0 -130 30.5t-73.5 109.5t-25.5 219q0 243 50.5 340.5t188.5 97.5q104 0 155 -52t51 -147q0 -47 -15 -120l-147 -1q4 36 4 79q0 62 -9.5 84t-37.5 22q-37 0 -49 -54.5t-12 -212.5q0 -63 0.5 -102t3.5 -70t6.5 -46t11 -24.5
t15.5 -11.5t23 -2q34 0 47.5 29t13.5 93q0 78 -1 98l144 -2q10 -63 10 -124zM368 -108q0 -42 -31 -67t-85 -25q-88 0 -128 36l32 54q40 -32 92 -32q33 0 33 31q0 24 -22 30t-50 -7l18 68h38q47 0 75 -24.5t28 -63.5z" />
    <glyph glyph-name="Egrave" unicode="&#xc8;" horiz-adv-x="466" 
d="M327 790h-65l-179 123v10h179zM448 0v147h-233v175h190v141h-190v160h213v145h-383v-768h403z" />
    <glyph glyph-name="Eacute" unicode="&#xc9;" horiz-adv-x="466" 
d="M411 913l-179 -123h-65l65 133h179v-10zM448 0v147h-233v175h190v141h-190v160h213v145h-383v-768h403z" />
    <glyph glyph-name="Ecircumflex" unicode="&#xca;" horiz-adv-x="466" 
d="M384 790h-52l-100 69l-100 -69h-52l83 142h148zM448 0v147h-233v175h190v141h-190v160h213v145h-383v-768h403z" />
    <glyph glyph-name="Edieresis" unicode="&#xcb;" horiz-adv-x="466" 
d="M389 790h-120v120h120v-120zM205 790h-120v120h120v-120zM448 0v147h-233v175h190v141h-190v160h213v145h-383v-768h403z" />
    <glyph glyph-name="Igrave" unicode="&#xcc;" horiz-adv-x="260" 
d="M177 790h-65l-179 123v10h179zM215 0v768h-170v-768h170z" />
    <glyph glyph-name="Iacute" unicode="&#xcd;" horiz-adv-x="260" 
d="M316 913l-179 -123h-65l65 133h179v-10zM215 0v768h-170v-768h170z" />
    <glyph glyph-name="Icircumflex" unicode="&#xce;" horiz-adv-x="260" 
d="M282 790h-52l-100 69l-100 -69h-52l83 142h148zM215 0v768h-170v-768h170z" />
    <glyph glyph-name="Idieresis" unicode="&#xcf;" horiz-adv-x="260" 
d="M282 790h-120v120h120v-120zM98 790h-120v120h120v-120zM215 0v768h-170v-768h170z" />
    <glyph glyph-name="Eth" unicode="&#xd0;" horiz-adv-x="523" 
d="M501 348q0 -79 -11 -140t-35.5 -109t-68.5 -73.5t-106 -25.5h-235v327h-45v112h45v329h247q103 0 156 -112.5t53 -307.5zM331 366q0 161 -15.5 216.5t-67.5 55.5h-37v-199h78v-112h-78v-188h39q30 0 46 15.5t25.5 66t9.5 145.5z" />
    <glyph glyph-name="Ntilde" unicode="&#xd1;" horiz-adv-x="519" 
d="M474 0h-126l-164 406v-406h-139v768h148l148 -365v365h133v-768zM404 882q0 -88 -85 -88q-32 0 -50.5 6.5t-41.5 24.5q-25 21 -43 21q-42 0 -31 -46h-49q-11 24 -11 50q0 88 85 88q29 0 47 -6.5t42 -25.5q23 -20 46 -20q22 0 29 14t2 32h49q11 -22 11 -50z" />
    <glyph glyph-name="Ograve" unicode="&#xd2;" horiz-adv-x="494" 
d="M327 800h-65l-179 123v10h179zM472 385q0 219 -49 307t-176 88q-128 0 -176.5 -93t-48.5 -302q0 -162 23 -248t69.5 -117.5t132.5 -31.5q57 0 95.5 13.5t64.5 40.5t40 76.5t19.5 111.5t5.5 155zM298 383q0 -171 -8 -213t-43 -42t-43 42t-8 213q0 172 7.5 219t43.5 47
q37 0 44 -45t7 -221z" />
    <glyph glyph-name="Oacute" unicode="&#xd3;" horiz-adv-x="494" 
d="M428 923l-179 -123h-65l65 133h179v-10zM472 385q0 219 -49 307t-176 88q-128 0 -176.5 -93t-48.5 -302q0 -162 23 -248t69.5 -117.5t132.5 -31.5q57 0 95.5 13.5t64.5 40.5t40 76.5t19.5 111.5t5.5 155zM298 383q0 -171 -8 -213t-43 -42t-43 42t-8 213q0 172 7.5 219
t43.5 47q37 0 44 -45t7 -221z" />
    <glyph glyph-name="Ocircumflex" unicode="&#xd4;" horiz-adv-x="494" 
d="M399 800h-52l-100 69l-100 -69h-52l83 142h148zM472 385q0 219 -49 307t-176 88q-128 0 -176.5 -93t-48.5 -302q0 -162 23 -248t69.5 -117.5t132.5 -31.5q57 0 95.5 13.5t64.5 40.5t40 76.5t19.5 111.5t5.5 155zM298 383q0 -171 -8 -213t-43 -42t-43 42t-8 213
q0 172 7.5 219t43.5 47q37 0 44 -45t7 -221z" />
    <glyph glyph-name="Otilde" unicode="&#xd5;" horiz-adv-x="494" 
d="M472 385q0 -93 -5.5 -155t-19.5 -111.5t-40 -76.5t-64.5 -40.5t-95.5 -13.5q-86 0 -132.5 31.5t-69.5 117.5t-23 248q0 209 48.5 302t176.5 93q127 0 176 -88t49 -307zM298 383q0 176 -7 221t-44 45q-36 0 -43.5 -47t-7.5 -219q0 -171 8 -213t43 -42t43 42t8 213z
M404 888q0 -88 -85 -88q-32 0 -50.5 6.5t-41.5 24.5q-25 21 -43 21q-42 0 -31 -46h-49q-11 24 -11 50q0 88 85 88q29 0 47 -6.5t42 -25.5q23 -20 46 -20q22 0 29 14t2 32h49q11 -22 11 -50z" />
    <glyph glyph-name="Odieresis" unicode="&#xd6;" horiz-adv-x="494" 
d="M399 800h-120v120h120v-120zM215 800h-120v120h120v-120zM472 385q0 219 -49 307t-176 88q-128 0 -176.5 -93t-48.5 -302q0 -162 23 -248t69.5 -117.5t132.5 -31.5q57 0 95.5 13.5t64.5 40.5t40 76.5t19.5 111.5t5.5 155zM298 383q0 -171 -8 -213t-43 -42t-43 42t-8 213
q0 172 7.5 219t43.5 47q37 0 44 -45t7 -221z" />
    <glyph glyph-name="multiply" unicode="&#xd7;" 
d="M629 314q0 127 -89.5 216.5t-216.5 89.5t-216.5 -89.5t-89.5 -216.5t89.5 -216.5t216.5 -89.5t216.5 89.5t89.5 216.5zM520 224l-150 -9l-75 -141l-74 130l-140 19l109 115l9 202l142 -127l136 96l-16 -223z" />
    <glyph glyph-name="Oslash" unicode="&#xd8;" horiz-adv-x="494" 
d="M475 780l-48 -95q45 -87 45 -300q0 -93 -5.5 -155t-19.5 -111.5t-40 -76.5t-64.5 -40.5t-95.5 -13.5q-104 0 -152 48l-24 -48h-53l46 91q-42 84 -42 306q0 209 48.5 302t176.5 93q98 0 149 -51l26 51h53zM300 541q-3 64 -14.5 88t-38.5 24q-37 0 -46 -51.5t-9 -218.5v-53
zM302 383v58l-108 -210q4 -65 15.5 -86t37.5 -21q19 0 29 8t16.5 38.5t8 77t1.5 135.5z" />
    <glyph glyph-name="Ugrave" unicode="&#xd9;" horiz-adv-x="535" 
d="M330 790h-65l-179 123v10h179zM492 220v548h-169v-568q0 -25 -14.5 -40.5t-41.5 -15.5q-55 0 -55 56v568h-169v-548q0 -109 51 -170.5t173 -61.5q67 0 113 17.5t69.5 51t33 72.5t9.5 91z" />
    <glyph glyph-name="Uacute" unicode="&#xda;" horiz-adv-x="535" 
d="M459 913l-179 -123h-65l65 133h179v-10zM492 220v548h-169v-568q0 -25 -14.5 -40.5t-41.5 -15.5q-55 0 -55 56v568h-169v-548q0 -109 51 -170.5t173 -61.5q67 0 113 17.5t69.5 51t33 72.5t9.5 91z" />
    <glyph glyph-name="Ucircumflex" unicode="&#xdb;" horiz-adv-x="535" 
d="M424 790h-52l-100 69l-100 -69h-52l83 142h148zM492 220v548h-169v-568q0 -25 -14.5 -40.5t-41.5 -15.5q-55 0 -55 56v568h-169v-548q0 -109 51 -170.5t173 -61.5q67 0 113 17.5t69.5 51t33 72.5t9.5 91z" />
    <glyph glyph-name="Udieresis" unicode="&#xdc;" horiz-adv-x="535" 
d="M419 790h-120v120h120v-120zM235 790h-120v120h120v-120zM492 220v548h-169v-568q0 -25 -14.5 -40.5t-41.5 -15.5q-55 0 -55 56v568h-169v-548q0 -109 51 -170.5t173 -61.5q67 0 113 17.5t69.5 51t33 72.5t9.5 91z" />
    <glyph glyph-name="Yacute" unicode="&#xdd;" horiz-adv-x="499" 
d="M499 768l-162 -468v-300h-170v300l-167 468h170l92 -285l91 285h146zM428 927l-179 -137h-65l72 148h172v-11z" />
    <glyph glyph-name="Thorn" unicode="&#xde;" horiz-adv-x="496" 
d="M477 366q0 -135 -49 -186.5t-152 -51.5h-65v-128h-166v768h166v-146h42q109 0 166.5 -57.5t57.5 -198.5zM309 374q0 66 -14.5 90.5t-50.5 24.5h-33v-225h33q34 0 49.5 26t15.5 84z" />
    <glyph glyph-name="germandbls" unicode="&#xdf;" horiz-adv-x="498" 
d="M476 217q0 -114 -48 -165.5t-163 -51.5h-24v118h6q41 0 56.5 24.5t15.5 93.5q0 59 -18 82.5t-56 23.5h-4v124h6q35 0 46 23t11 89q0 53 -11 73t-42 20q-25 0 -36.5 -16t-11.5 -40v-615h-158v587q0 98 44.5 145.5t148.5 47.5q110 0 161 -55t51 -145q0 -71 -29 -116
t-88 -48v-5q65 -6 104 -55t39 -139z" />
    <glyph glyph-name="agrave" unicode="&#xe0;" horiz-adv-x="513" 
d="M503 18q-13 -10 -45.5 -20t-60.5 -10q-38 0 -59.5 11t-28 23.5t-13.5 39.5l-9 -18q-11 -22 -41.5 -39t-74.5 -17q-77 0 -114 50t-37 123q0 143 143 173l60 13q45 10 59 24.5t14 51.5q0 74 -63 74q-29 0 -48.5 -16.5t-19.5 -42.5q0 -23 8 -49l-132 -3q-8 37 -8 62
q0 73 56 108.5t146 35.5q217 0 217 -129v-334q0 -15 10.5 -24t26.5 -9q7 0 14 3v-81zM296 227v58q-20 -12 -48 -19q-42 -12 -56 -30t-14 -57q0 -79 50 -79q33 0 50.5 25t17.5 102zM335 621h-65l-179 137v11h172z" />
    <glyph glyph-name="aacute" unicode="&#xe1;" horiz-adv-x="513" 
d="M503 18q-13 -10 -45.5 -20t-60.5 -10q-38 0 -59.5 11t-28 23.5t-13.5 39.5l-9 -18q-11 -22 -41.5 -39t-74.5 -17q-77 0 -114 50t-37 123q0 143 143 173l60 13q45 10 59 24.5t14 51.5q0 74 -63 74q-29 0 -48.5 -16.5t-19.5 -42.5q0 -23 8 -49l-132 -3q-8 37 -8 62
q0 73 56 108.5t146 35.5q217 0 217 -129v-334q0 -15 10.5 -24t26.5 -9q7 0 14 3v-81zM296 227v58q-20 -12 -48 -19q-42 -12 -56 -30t-14 -57q0 -79 50 -79q33 0 50.5 25t17.5 102zM418 758l-179 -137h-65l72 148h172v-11z" />
    <glyph glyph-name="acircumflex" unicode="&#xe2;" horiz-adv-x="513" 
d="M503 18q-13 -10 -45.5 -20t-60.5 -10q-38 0 -59.5 11t-28 23.5t-13.5 39.5l-9 -18q-11 -22 -41.5 -39t-74.5 -17q-77 0 -114 50t-37 123q0 143 143 173l60 13q45 10 59 24.5t14 51.5q0 74 -63 74q-29 0 -48.5 -16.5t-19.5 -42.5q0 -23 8 -49l-132 -3q-8 37 -8 62
q0 73 56 108.5t146 35.5q217 0 217 -129v-334q0 -15 10.5 -24t26.5 -9q7 0 14 3v-81zM296 227v58q-20 -12 -48 -19q-42 -12 -56 -30t-14 -57q0 -79 50 -79q33 0 50.5 25t17.5 102zM396 621h-52l-100 77l-100 -77h-52l83 158h148z" />
    <glyph glyph-name="atilde" unicode="&#xe3;" horiz-adv-x="513" 
d="M503 18q-13 -10 -45.5 -20t-60.5 -10q-38 0 -59.5 11t-28 23.5t-13.5 39.5l-9 -18q-11 -22 -41.5 -39t-74.5 -17q-77 0 -114 50t-37 123q0 143 143 173l60 13q45 10 59 24.5t14 51.5q0 74 -63 74q-29 0 -48.5 -16.5t-19.5 -42.5q0 -23 8 -49l-132 -3q-8 37 -8 62
q0 73 56 108.5t146 35.5q217 0 217 -129v-334q0 -15 10.5 -24t26.5 -9q7 0 14 3v-81zM296 227v58q-20 -12 -48 -19q-42 -12 -56 -30t-14 -57q0 -79 50 -79q33 0 50.5 25t17.5 102zM401 703q0 -88 -85 -88q-32 0 -50.5 6.5t-41.5 24.5q-25 21 -43 21q-22 0 -29 -14t-2 -32
h-49q-11 24 -11 50q0 88 85 88q29 0 47 -6.5t42 -25.5q23 -20 46 -20q42 0 31 46h49q11 -22 11 -50z" />
    <glyph glyph-name="adieresis" unicode="&#xe4;" horiz-adv-x="513" 
d="M503 18q-13 -10 -45.5 -20t-60.5 -10q-38 0 -59.5 11t-28 23.5t-13.5 39.5l-9 -18q-11 -22 -41.5 -39t-74.5 -17q-77 0 -114 50t-37 123q0 143 143 173l60 13q45 10 59 24.5t14 51.5q0 74 -63 74q-29 0 -48.5 -16.5t-19.5 -42.5q0 -23 8 -49l-132 -3q-8 37 -8 62
q0 73 56 108.5t146 35.5q217 0 217 -129v-334q0 -15 10.5 -24t26.5 -9q7 0 14 3v-81zM296 227v58q-20 -12 -48 -19q-42 -12 -56 -30t-14 -57q0 -79 50 -79q33 0 50.5 25t17.5 102zM391 621h-127v130h127v-130zM214 621h-127v130h127v-130z" />
    <glyph glyph-name="aring" unicode="&#xe5;" horiz-adv-x="513" 
d="M503 18q-13 -10 -45.5 -20t-60.5 -10q-38 0 -59.5 11t-28 23.5t-13.5 39.5l-9 -18q-11 -22 -41.5 -39t-74.5 -17q-77 0 -114 50t-37 123q0 143 143 173l60 13q45 10 59 24.5t14 51.5q0 74 -63 74q-29 0 -48.5 -16.5t-19.5 -42.5q0 -23 8 -49l-132 -3q-8 37 -8 62
q0 73 56 108.5t146 35.5q217 0 217 -129v-334q0 -15 10.5 -24t26.5 -9q7 0 14 3v-81zM296 227v58q-20 -12 -48 -19q-42 -12 -56 -30t-14 -57q0 -79 50 -79q33 0 50.5 25t17.5 102zM365 725q0 -49 -35.5 -84t-86.5 -35q-49 0 -84.5 35t-35.5 84t35 83.5t85 34.5
q51 0 86.5 -34.5t35.5 -83.5zM302 724q0 22 -18 39.5t-41 17.5q-22 0 -39.5 -17.5t-17.5 -39.5t17.5 -39t39.5 -17q23 0 41 17t18 39z" />
    <glyph glyph-name="ae" unicode="&#xe6;" horiz-adv-x="718" 
d="M695 254l-260 2q-1 -90 14 -116.5t53 -26.5q60 0 54 77l-2 23l137 -4q3 -17 3 -43q0 -81 -45 -128.5t-145 -47.5q-128 0 -177 68l-23 -20q-60 -50 -133 -50q-77 0 -114 50t-37 123q0 143 143 173l60 13q49 11 61 24.5t12 51.5q0 74 -63 74q-29 0 -48.5 -16.5t-19.5 -42.5
q0 -15 8 -49l-132 -3q-8 37 -8 62q0 73 56 108.5t146 35.5q80 0 133 -35q52 35 123 35q175 0 197 -228q5 -54 7 -110zM541 337q-5 89 -13 114.5t-37 25.5q-30 0 -42 -33t-14 -107h106zM296 227v58q-20 -12 -48 -19q-42 -12 -56 -30t-14 -57q0 -79 50 -79q33 0 50.5 25
t17.5 102z" />
    <glyph glyph-name="ccedilla" unicode="&#xe7;" horiz-adv-x="462" 
d="M443 175q0 -77 -45 -132t-147 -55q-117 0 -174 60.5t-57 217.5q0 176 59.5 251t166.5 75q186 0 186 -187q0 -29 -3 -48l-135 -4q3 14 3 34q0 84 -53 84q-38 0 -50.5 -35t-12.5 -137q0 -116 13 -151.5t52 -35.5q57 0 57 114q0 22 -4 33l137 -7q7 -33 7 -77zM342 -108
q0 -42 -31 -67t-85 -25q-88 0 -128 36l32 54q40 -32 92 -32q33 0 33 31q0 24 -22 30t-50 -7l18 68h38q47 0 75 -24.5t28 -63.5z" />
    <glyph glyph-name="egrave" unicode="&#xe8;" horiz-adv-x="462" 
d="M439 254l-260 2q-1 -90 14 -117.5t53 -27.5q60 0 54 79l-2 23l137 -4q3 -17 3 -43q0 -81 -45 -129.5t-145 -48.5q-56 0 -94.5 12t-70.5 43t-47.5 89.5t-15.5 146.5q0 162 54 237.5t161 75.5q175 0 197 -228q5 -54 7 -110zM285 337q-5 89 -13 114.5t-37 25.5
q-30 0 -42 -33t-14 -107h106zM299 621h-65l-179 137v11h172z" />
    <glyph glyph-name="eacute" unicode="&#xe9;" horiz-adv-x="462" 
d="M439 254l-260 2q-1 -90 14 -117.5t53 -27.5q60 0 54 79l-2 23l137 -4q3 -17 3 -43q0 -81 -45 -129.5t-145 -48.5q-56 0 -94.5 12t-70.5 43t-47.5 89.5t-15.5 146.5q0 162 54 237.5t161 75.5q175 0 197 -228q5 -54 7 -110zM285 337q-5 89 -13 114.5t-37 25.5
q-30 0 -42 -33t-14 -107h106zM413 758l-179 -137h-65l72 148h172v-11z" />
    <glyph glyph-name="ecircumflex" unicode="&#xea;" horiz-adv-x="462" 
d="M439 254l-260 2q-1 -90 14 -117.5t53 -27.5q60 0 54 79l-2 23l137 -4q3 -17 3 -43q0 -81 -45 -129.5t-145 -48.5q-56 0 -94.5 12t-70.5 43t-47.5 89.5t-15.5 146.5q0 162 54 237.5t161 75.5q175 0 197 -228q5 -54 7 -110zM285 337q-5 89 -13 114.5t-37 25.5
q-30 0 -42 -33t-14 -107h106zM382 606h-52l-100 77l-100 -77h-52l83 158h148z" />
    <glyph glyph-name="edieresis" unicode="&#xeb;" horiz-adv-x="462" 
d="M439 254l-260 2q-1 -90 14 -117.5t53 -27.5q60 0 54 79l-2 23l137 -4q3 -17 3 -43q0 -81 -45 -129.5t-145 -48.5q-56 0 -94.5 12t-70.5 43t-47.5 89.5t-15.5 146.5q0 162 54 237.5t161 75.5q175 0 197 -228q5 -54 7 -110zM285 337q-5 89 -13 114.5t-37 25.5
q-30 0 -42 -33t-14 -107h106zM381 621h-127v130h127v-130zM204 621h-127v130h127v-130z" />
    <glyph glyph-name="igrave" unicode="&#xec;" horiz-adv-x="234" 
d="M196 0h-158v574h158v-574zM282 606h-65l-179 137v11h172z" />
    <glyph glyph-name="iacute" unicode="&#xed;" horiz-adv-x="234" 
d="M196 0h-158v574h158v-574zM305 743l-179 -137h-65l72 148h172v-11z" />
    <glyph glyph-name="icircumflex" unicode="&#xee;" horiz-adv-x="234" 
d="M196 0h-158v574h158v-574zM342 606h-52l-100 77l-100 -77h-52l83 158h148z" />
    <glyph glyph-name="idieresis" unicode="&#xef;" horiz-adv-x="234" 
d="M196 0h-158v574h158v-574zM342 606h-127v130h127v-130zM165 606h-127v130h127v-130z" />
    <glyph glyph-name="eth" unicode="&#xf0;" horiz-adv-x="468" 
d="M454 706q0 -43 -58 -65q47 -125 47 -330q0 -174 -42.5 -247t-163.5 -73q-119 0 -168 67t-49 220q0 283 202 283q30 0 56 -28q-4 57 -17 103q-34 -9 -34 -29q0 -9 8 -19l-47 -17q-29 23 -29 63q0 47 70 69q-15 20 -34 20q-35 0 -60 -25l-44 67q17 14 53.5 24.5t65.5 10.5
q94 0 153 -92q22 8 22 25q0 9 -7 20l46 16q30 -21 30 -63zM280 282q0 106 -9 138.5t-40 32.5t-39.5 -30.5t-8.5 -140.5q0 -72 5.5 -107.5t14.5 -45t28 -9.5q20 0 29.5 10t14.5 45t5 107z" />
    <glyph glyph-name="ntilde" unicode="&#xf1;" horiz-adv-x="487" 
d="M452 0h-158v406q0 42 -37 42q-28 0 -44.5 -33t-16.5 -88v-327h-158v574h157v-93q14 49 47.5 76.5t83.5 27.5q53 0 89.5 -34.5t36.5 -100.5v-450zM402 703q0 -88 -85 -88q-32 0 -50.5 6.5t-41.5 24.5q-25 21 -43 21q-42 0 -31 -46h-49q-11 24 -11 50q0 88 85 88
q29 0 47 -6.5t42 -25.5q23 -20 46 -20q22 0 29 14t2 32h49q11 -22 11 -50z" />
    <glyph glyph-name="ograve" unicode="&#xf2;" horiz-adv-x="463" 
d="M443 291q0 -156 -43.5 -228t-162.5 -72t-168 67t-49 220q0 160 52 237t157 77q120 0 167 -72.5t47 -228.5zM280 282q0 117 -9.5 154t-39.5 37q-31 0 -39.5 -36.5t-8.5 -154.5q0 -72 5.5 -107.5t14.5 -45t28 -9.5q20 0 29.5 10t14.5 45t5 107zM314 621h-65l-179 137v11
h172z" />
    <glyph glyph-name="oacute" unicode="&#xf3;" horiz-adv-x="463" 
d="M443 291q0 -156 -43.5 -228t-162.5 -72t-168 67t-49 220q0 160 52 237t157 77q120 0 167 -72.5t47 -228.5zM280 282q0 117 -9.5 154t-39.5 37q-31 0 -39.5 -36.5t-8.5 -154.5q0 -72 5.5 -107.5t14.5 -45t28 -9.5q20 0 29.5 10t14.5 45t5 107zM397 758l-179 -137h-65
l72 148h172v-11z" />
    <glyph glyph-name="ocircumflex" unicode="&#xf4;" horiz-adv-x="463" 
d="M443 291q0 -156 -43.5 -228t-162.5 -72t-168 67t-49 220q0 160 52 237t157 77q120 0 167 -72.5t47 -228.5zM280 282q0 117 -9.5 154t-39.5 37q-31 0 -39.5 -36.5t-8.5 -154.5q0 -72 5.5 -107.5t14.5 -45t28 -9.5q20 0 29.5 10t14.5 45t5 107zM382 621h-52l-100 77
l-100 -77h-52l83 158h148z" />
    <glyph glyph-name="otilde" unicode="&#xf5;" horiz-adv-x="463" 
d="M443 291q0 -156 -43.5 -228t-162.5 -72t-168 67t-49 220q0 160 52 237t157 77q120 0 167 -72.5t47 -228.5zM280 282q0 117 -9.5 154t-39.5 37q-31 0 -39.5 -36.5t-8.5 -154.5q0 -72 5.5 -107.5t14.5 -45t28 -9.5q20 0 29.5 10t14.5 45t5 107zM386 703q0 -88 -85 -88
q-32 0 -50.5 6.5t-41.5 24.5q-25 21 -43 21q-42 0 -31 -46h-49q-11 24 -11 50q0 88 85 88q29 0 47 -6.5t42 -25.5q23 -20 46 -20q22 0 29 14t2 32h49q11 -22 11 -50z" />
    <glyph glyph-name="odieresis" unicode="&#xf6;" horiz-adv-x="463" 
d="M443 291q0 -156 -43.5 -228t-162.5 -72t-168 67t-49 220q0 160 52 237t157 77q120 0 167 -72.5t47 -228.5zM280 282q0 117 -9.5 154t-39.5 37q-31 0 -39.5 -36.5t-8.5 -154.5q0 -72 5.5 -107.5t14.5 -45t28 -9.5q20 0 29.5 10t14.5 45t5 107zM382 621h-127v130h127v-130z
M205 621h-127v130h127v-130z" />
    <glyph glyph-name="divide" unicode="&#xf7;" 
d="M629 314q0 127 -89.5 216.5t-216.5 89.5t-216.5 -89.5t-89.5 -216.5t89.5 -216.5t216.5 -89.5t216.5 89.5t89.5 216.5zM520 224l-150 -9l-75 -141l-74 130l-140 19l109 115l9 202l142 -127l136 96l-16 -223z" />
    <glyph glyph-name="oslash" unicode="&#xf8;" horiz-adv-x="463" 
d="M454 592l-50 -78q44 -69 44 -223q0 -156 -43.5 -228t-162.5 -72q-96 0 -146 43l-27 -41h-50l48 74q-42 68 -42 211q0 160 52 237t157 77q92 0 142 -44l28 44h50zM281 401q-3 41 -13 56.5t-32 15.5q-31 0 -39.5 -36.5t-8.5 -154.5v-26zM285 282v46l-94 -144
q4 -39 14.5 -51.5t30.5 -12.5t29.5 10t14.5 45t5 107z" />
    <glyph glyph-name="ugrave" unicode="&#xf9;" horiz-adv-x="487" 
d="M449 0h-157v93q-14 -49 -47.5 -76.5t-83.5 -27.5q-53 0 -89.5 34.5t-36.5 100.5v450h158v-406q0 -42 37 -42q28 0 44.5 31t16.5 90v327h158v-574zM325 606h-65l-179 137v11h172z" />
    <glyph glyph-name="uacute" unicode="&#xfa;" horiz-adv-x="487" 
d="M449 0h-157v93q-14 -49 -47.5 -76.5t-83.5 -27.5q-53 0 -89.5 34.5t-36.5 100.5v450h158v-406q0 -42 37 -42q28 0 44.5 31t16.5 90v327h158v-574zM413 743l-179 -137h-65l72 148h172v-11z" />
    <glyph glyph-name="ucircumflex" unicode="&#xfb;" horiz-adv-x="487" 
d="M449 0h-157v93q-14 -49 -47.5 -76.5t-83.5 -27.5q-53 0 -89.5 34.5t-36.5 100.5v450h158v-406q0 -42 37 -42q28 0 44.5 31t16.5 90v327h158v-574zM394 606h-52l-100 77l-100 -77h-52l83 158h148z" />
    <glyph glyph-name="udieresis" unicode="&#xfc;" horiz-adv-x="487" 
d="M449 0h-157v93q-14 -49 -47.5 -76.5t-83.5 -27.5q-53 0 -89.5 34.5t-36.5 100.5v450h158v-406q0 -42 37 -42q28 0 44.5 31t16.5 90v327h158v-574zM394 606h-127v130h127v-130zM217 606h-127v130h127v-130z" />
    <glyph glyph-name="yacute" unicode="&#xfd;" horiz-adv-x="472" 
d="M472 574l-151 -579q-12 -46 -20.5 -69t-28 -52t-51 -41.5t-78.5 -12.5q-78 0 -108.5 31t-30.5 91q0 10 4 40h99q-4 -24 -4 -39q0 -33 39 -33q46 0 46 75q0 20 -13 59l-175 530h176l80 -337l65 337h151zM400 743l-179 -137h-65l72 148h172v-11z" />
    <glyph glyph-name="thorn" unicode="&#xfe;" horiz-adv-x="488" 
d="M468 271q0 -149 -36.5 -215t-124.5 -66q-30 0 -55 16t-38 37l-24 40v-227h-152v912h152v-266l19 29q36 56 91 56q37 0 65 -13.5t52.5 -46.5t37.5 -97.5t13 -158.5zM308 287q0 174 -54 174q-29 0 -43.5 -36t-14.5 -137q0 -98 13 -131.5t46 -33.5q53 0 53 164z" />
    <glyph glyph-name="ydieresis" unicode="&#xff;" horiz-adv-x="472" 
d="M428 606h-127v130h127v-130zM193 606h-127v130h127v-130zM472 574h-151l-65 -337l-80 337h-176l175 -530q13 -39 13 -59q0 -75 -46 -75q-39 0 -39 33q0 15 4 39h-99q-4 -30 -4 -40q0 -60 30.5 -91t108.5 -31q47 0 78.5 12.5t51 41.5t28 52t20.5 69z" />
    <glyph glyph-name="dotlessi" unicode="&#x131;" horiz-adv-x="234" 
d="M196 0h-158v574h158v-574z" />
    <glyph glyph-name="Lslash" unicode="&#x141;" horiz-adv-x="412" 
d="M405 0h-360v184l-22 -19l-76 91l98 83v429h170v-283l108 92l76 -91l-184 -157v-182h190v-147z" />
    <glyph glyph-name="lslash" unicode="&#x142;" horiz-adv-x="318" 
d="M346 411l-108 -87v-324h-158v197l-28 -22l-76 91l104 83v419h158v-292l32 26z" />
    <glyph glyph-name="OE" unicode="&#x152;" horiz-adv-x="675" 
d="M657 0h-325q-36 -12 -85 -12q-84 0 -131 34t-70.5 120t-23.5 243q0 209 48.5 302t176.5 93q47 0 84 -12h306v-145h-173v-160h150v-141h-150v-169h193v-153zM298 273v220q0 88 -12 122t-39 34q-36 0 -43.5 -48t-7.5 -218q0 -91 1 -134.5t7 -74.5t15 -38.5t28 -7.5
q28 0 39.5 29t11.5 116z" />
    <glyph glyph-name="oe" unicode="&#x153;" horiz-adv-x="724" 
d="M701 254l-260 2q-1 -90 14 -116.5t53 -26.5q60 0 54 77l-2 23l137 -4q3 -17 3 -43q0 -81 -45 -128.5t-145 -47.5q-91 0 -144 35q-51 -34 -127 -34q-119 0 -168 67t-49 220q0 160 52 237t157 77q87 0 138 -41q48 41 128 41q175 0 197 -228q5 -54 7 -110zM547 337
q-5 89 -13 114.5t-37 25.5q-30 0 -42 -33t-14 -107h106zM282 282q0 117 -9.5 154t-39.5 37q-31 0 -39.5 -36.5t-8.5 -154.5q0 -72 5.5 -107.5t14.5 -45t28 -9.5q20 0 29.5 10t14.5 45t5 107z" />
    <glyph glyph-name="Scaron" unicode="&#x160;" horiz-adv-x="509" 
d="M491 233q0 -245 -243 -245q-230 0 -230 195q0 55 13 91l147 5q-10 -26 -10 -73q0 -36 19.5 -57.5t53.5 -21.5q75 0 75 78q0 37 -21 61.5t-67 51.5l-91 54q-50 30 -81 80t-31 112q0 97 62 156.5t177 59.5q99 0 145 -49t46 -136q0 -37 -9 -68l-145 -4q11 24 11 52
q0 69 -57 69q-56 0 -56 -68q0 -35 27 -59t74 -47l65 -32q126 -61 126 -205zM402 958l-73 -158h-148l-83 158h52l100 -77l100 77h52z" />
    <glyph glyph-name="scaron" unicode="&#x161;" horiz-adv-x="448" 
d="M437 173q0 -94 -50.5 -138.5t-168.5 -44.5q-200 0 -200 145q0 35 12 71l121 -8q-4 -19 -4 -37q0 -66 60 -66q32 0 45 19t13 41t-13 37t-46 30l-62 29q-124 57 -124 172q0 79 58 124t144 45q83 0 135 -36t52 -106q0 -28 -9 -52l-119 2q5 15 5 40q0 49 -54 49
q-50 0 -50 -51q0 -23 15 -37t48 -28l77 -33q56 -24 85.5 -61t29.5 -106zM374 779l-73 -158h-148l-83 158h52l100 -77l100 77h52z" />
    <glyph glyph-name="Ydieresis" unicode="&#x178;" horiz-adv-x="499" 
d="M419 790h-120v120h120v-120zM215 790h-120v120h120v-120zM499 768h-146l-91 -285l-92 285h-170l167 -468v-300h170v300z" />
    <glyph glyph-name="Zcaron" unicode="&#x17d;" horiz-adv-x="452" 
d="M427 0h-400v178l240 446h-208v144h368v-178l-235 -443h235v-147zM381 958l-73 -158h-148l-83 158h52l100 -77l100 77h52z" />
    <glyph glyph-name="zcaron" unicode="&#x17e;" horiz-adv-x="430" 
d="M402 0h-376v160l204 294h-191v120h363v-137l-227 -317h227v-120zM376 764l-73 -158h-148l-83 158h52l100 -77l100 77h52z" />
    <glyph glyph-name="florin" unicode="&#x192;" horiz-adv-x="386" 
d="M387 670q0 -27 -9 -56l-92 4q3 18 3 36q0 37 -27 37q-20 0 -25 -21.5t-5 -86.5q0 -96 2 -126h103v-108h-98v-375q0 -80 -38 -116.5t-114 -36.5q-150 0 -150 111q0 25 11 51l86 -2q-6 -30 -6 -34q0 -41 31 -41q30 0 30 35q0 9 -3 23q-5 27 -5 42v343h-76v108h76v175
q0 68 44.5 108t121.5 40q76 0 108 -27.5t32 -82.5z" />
    <glyph glyph-name="circumflex" unicode="&#x2c6;" horiz-adv-x="474" 
d="M399 611h-52l-100 77l-100 -77h-52l83 158h148z" />
    <glyph glyph-name="caron" unicode="&#x2c7;" horiz-adv-x="474" 
d="M399 769l-73 -158h-148l-83 158h52l100 -77l100 77h52z" />
    <glyph glyph-name="breve" unicode="&#x2d8;" horiz-adv-x="474" 
d="M396 742q0 -75 -37 -102t-125 -27t-125 26.5t-37 102.5h102q-2 -54 60 -54q32 0 47 15t14 39h101z" />
    <glyph glyph-name="dotaccent" unicode="&#x2d9;" horiz-adv-x="474" 
d="M295 621h-124v125h124v-125z" />
    <glyph glyph-name="ring" unicode="&#x2da;" horiz-adv-x="474" 
d="M357 723q0 -49 -35.5 -84t-86.5 -35q-49 0 -84.5 35t-35.5 84t35 83.5t85 34.5q51 0 86.5 -34.5t35.5 -83.5zM294 722q0 22 -18 39.5t-41 17.5q-22 0 -39.5 -17.5t-17.5 -39.5t17.5 -39t39.5 -17q23 0 41 17t18 39z" />
    <glyph glyph-name="ogonek" unicode="&#x2db;" horiz-adv-x="474" 
d="M317 -133q0 -32 -28.5 -51t-72.5 -19q-45 0 -68.5 20.5t-23.5 57.5q0 58 99 120l8 5h63l-11 -7q-24 -15 -54 -50.5t-30 -67.5q0 -35 20 -35q28 0 28 31q0 17 -7 40h73q4 -23 4 -44z" />
    <glyph glyph-name="tilde" unicode="&#x2dc;" horiz-adv-x="474" 
d="M400 707q0 -88 -85 -88q-32 0 -50.5 6.5t-41.5 24.5q-25 21 -43 21q-42 0 -31 -46h-49q-11 24 -11 50q0 88 85 88q29 0 47 -6.5t42 -25.5q23 -20 46 -20q22 0 29 14t2 32h49q11 -22 11 -50z" />
    <glyph glyph-name="hungarumlaut" unicode="&#x2dd;" horiz-adv-x="474" 
d="M446 735l-151 -119h-52l70 130h133v-11zM263 735l-139 -119h-52l70 130h121v-11z" />
    <glyph glyph-name="endash" unicode="&#x2013;" horiz-adv-x="500" 
d="M500 287h-501v97h501v-97z" />
    <glyph glyph-name="emdash" unicode="&#x2014;" horiz-adv-x="800" 
d="M800 287h-800v97h800v-97z" />
    <glyph glyph-name="quoteleft" unicode="&#x2018;" horiz-adv-x="212" 
d="M197 745q-34 -11 -56 -30q-31 -27 -26 -86h59v-168h-140v168q0 117 92 156q25 11 59 15z" />
    <glyph glyph-name="quoteright" unicode="&#x2019;" horiz-adv-x="212" 
d="M178 600q0 -117 -92 -156q-25 -11 -59 -15l-12 55q34 11 56 30q31 27 26 86h-59v168h140v-168z" />
    <glyph glyph-name="quotesinglbase" unicode="&#x201a;" horiz-adv-x="212" 
d="M178 0q0 -117 -92 -156q-25 -11 -59 -15l-12 55q34 11 56 30q31 27 26 86h-59v168h140v-168z" />
    <glyph glyph-name="quotedblleft" unicode="&#x201c;" horiz-adv-x="422" 
d="M409 745q-34 -11 -56 -30q-31 -27 -26 -86h59v-168h-140v168q0 117 92 156q25 11 59 15zM197 745q-34 -11 -56 -30q-31 -27 -26 -86h59v-168h-140v168q0 117 92 156q25 11 59 15z" />
    <glyph glyph-name="quotedblright" unicode="&#x201d;" horiz-adv-x="422" 
d="M390 600q0 -117 -92 -156q-25 -11 -59 -15l-12 55q34 11 56 30q31 27 26 86h-59v168h140v-168zM178 600q0 -117 -92 -156q-25 -11 -59 -15l-12 55q34 11 56 30q31 27 26 86h-59v168h140v-168z" />
    <glyph glyph-name="quotedblbase" unicode="&#x201e;" horiz-adv-x="422" 
d="M390 0q0 -117 -92 -156q-25 -11 -59 -15l-12 55q34 11 56 30q31 27 26 86h-59v168h140v-168zM178 0q0 -117 -92 -156q-25 -11 -59 -15l-12 55q34 11 56 30q31 27 26 86h-59v168h140v-168z" />
    <glyph glyph-name="dagger" unicode="&#x2020;" horiz-adv-x="446" 
d="M424 485h-119v-575h-164v575h-119v129h119v154h164v-154h119v-129z" />
    <glyph glyph-name="daggerdbl" unicode="&#x2021;" horiz-adv-x="446" 
d="M424 83h-119v-173h-164v173h-119v129h119v273h-119v129h119v154h164v-154h119v-129h-119v-273h119v-129z" />
    <glyph glyph-name="bullet" unicode="&#x2022;" horiz-adv-x="502" 
d="M476 334q0 -91 -66 -156t-159 -65q-94 0 -160 64.5t-66 156.5t66 156.5t160 64.5q93 0 159 -65t66 -156z" />
    <glyph glyph-name="ellipsis" unicode="&#x2026;" horiz-adv-x="678" 
d="M642 0h-154v168h154v-168zM416 0h-154v168h154v-168zM190 0h-154v168h154v-168z" />
    <glyph glyph-name="perthousand" unicode="&#x2030;" horiz-adv-x="1279" 
d="M1258 209q0 -120 -41 -172.5t-141 -52.5q-99 0 -139.5 50.5t-40.5 172.5q0 151 37.5 209.5t142.5 58.5t143.5 -58t38.5 -208zM862 209q0 -120 -41 -172.5t-141 -52.5q-99 0 -139.5 50.5t-40.5 172.5q0 151 37.5 209.5t142.5 58.5t143.5 -58t38.5 -208zM645 780l-322 -796
h-84l322 796h84zM381 514q0 -125 -40.5 -175t-141.5 -50q-99 0 -139.5 50t-40.5 173q0 151 37.5 209.5t142.5 58.5t143.5 -58t38.5 -208zM1122 231q0 98 -7 125.5t-37 27.5q-31 0 -38.5 -28t-7.5 -125q0 -93 7 -116t37 -23q32 0 39 22.5t7 116.5zM726 231q0 98 -7 125.5
t-37 27.5q-31 0 -38.5 -28t-7.5 -125q0 -93 7 -116t37 -23q32 0 39 22.5t7 116.5zM245 536q0 98 -7 125.5t-37 27.5q-31 0 -38.5 -28t-7.5 -125q0 -93 7 -116t37 -23q32 0 39 22.5t7 116.5z" />
    <glyph glyph-name="guilsinglleft" unicode="&#x2039;" horiz-adv-x="302" 
d="M266 36l-230 173v135l230 171v-135l-140 -104l140 -105v-135z" />
    <glyph glyph-name="guilsinglright" unicode="&#x203a;" horiz-adv-x="302" 
d="M266 209l-230 -173v135l140 105l-140 104v135l230 -171v-135z" />
    <glyph glyph-name="fraction" unicode="&#x2044;" horiz-adv-x="255" 
d="M449 780l-537 -794h-86l537 794h86z" />
    <glyph glyph-name="trademark" unicode="&#x2122;" horiz-adv-x="528" 
d="M468 537h-63v146l-24 -146h-48l-28 146v-146h-64v231h98l15 -88v-10h4v10l16 88h94v-231zM213 722h-48v-185h-72v185h-47v46h167v-46z" />
    <glyph glyph-name="minus" unicode="&#x2212;" 
d="M629 314q0 127 -89.5 216.5t-216.5 89.5t-216.5 -89.5t-89.5 -216.5t89.5 -216.5t216.5 -89.5t216.5 89.5t89.5 216.5zM520 224l-150 -9l-75 -141l-74 130l-140 19l109 115l9 202l142 -127l136 96l-16 -223z" />
    <glyph glyph-name="fi" unicode="&#xfb01;" horiz-adv-x="537" 
d="M490 0h-158v574h158v-574zM382 670q0 -27 -9 -56l-92 4q3 18 3 36q0 37 -27 37q-17 0 -23.5 -16.5t-6.5 -52.5q0 -18 2 -48h76v-108h-71v-466h-158v466h-76v108h76v58q0 68 44.5 108t121.5 40q78 0 109 -28.5t31 -81.5z" />
    <glyph glyph-name="fl" unicode="&#xfb02;" horiz-adv-x="538" 
d="M491 0h-158v659q-24 32 -56 32q-51 0 -51 -42q0 -3 3 -75h75v-108h-70v-466h-158v466h-76v108h76v58q0 73 47 110.5t119 37.5q66 0 100 -12h149v-768z" />
    <glyph glyph-name="c274" horiz-adv-x="618" 
d="M639 670q0 -27 -9 -56l-92 4q3 15 3 36q0 37 -27 37q-30 0 -30 -69q0 -18 2 -48h130v-108h-125v-466h-158v466h-99v-466h-158v466h-76v108h76v58q0 68 44.5 108t121.5 40q97 0 141 -35q53 35 116 35q78 0 109 -28.5t31 -81.5zM333 574v84q-24 33 -55 33q-22 0 -37 -10
t-15 -28q0 -7 3 -79h104z" />
    <glyph glyph-name="c275" horiz-adv-x="794" 
d="M747 0h-158v574h158v-574zM639 670q0 -27 -9 -56l-92 4q3 18 3 36q0 37 -27 37q-30 0 -30 -68q0 -19 2 -49h76v-108h-71v-466h-158v466h-99v-466h-158v466h-76v108h76v58q0 68 44.5 108t121.5 40q97 0 141 -35q48 35 116 35q80 0 110 -29t30 -81zM333 574v84
q-24 33 -55 33q-22 0 -37 -10t-15 -28q0 -7 3 -79h104z" />
    <glyph glyph-name="c276" 
d="M629 314q0 127 -89.5 216.5t-216.5 89.5t-216.5 -89.5t-89.5 -216.5t89.5 -216.5t216.5 -89.5t216.5 89.5t89.5 216.5zM520 224l-150 -9l-75 -141l-74 130l-140 19l109 115l9 202l142 -127l136 96l-16 -223z" />
    <glyph glyph-name="c277" 
d="M629 314q0 127 -89.5 216.5t-216.5 89.5t-216.5 -89.5t-89.5 -216.5t89.5 -216.5t216.5 -89.5t216.5 89.5t89.5 216.5zM520 224l-150 -9l-75 -141l-74 130l-140 19l109 115l9 202l142 -127l136 96l-16 -223z" />
    <glyph glyph-name="c278" 
d="M629 314q0 127 -89.5 216.5t-216.5 89.5t-216.5 -89.5t-89.5 -216.5t89.5 -216.5t216.5 -89.5t216.5 89.5t89.5 216.5zM520 224l-150 -9l-75 -141l-74 130l-140 19l109 115l9 202l142 -127l136 96l-16 -223z" />
    <glyph glyph-name="c279" 
d="M629 314q0 127 -89.5 216.5t-216.5 89.5t-216.5 -89.5t-89.5 -216.5t89.5 -216.5t216.5 -89.5t216.5 89.5t89.5 216.5zM520 224l-150 -9l-75 -141l-74 130l-140 19l109 115l9 202l142 -127l136 96l-16 -223z" />
    <glyph glyph-name="c280" 
d="M629 314q0 127 -89.5 216.5t-216.5 89.5t-216.5 -89.5t-89.5 -216.5t89.5 -216.5t216.5 -89.5t216.5 89.5t89.5 216.5zM520 224l-150 -9l-75 -141l-74 130l-140 19l109 115l9 202l142 -127l136 96l-16 -223z" />
    <glyph glyph-name="c281" horiz-adv-x="656" 
d="M636 435q0 -138 -83 -218.5t-225 -80.5q-144 0 -226 80.5t-82 218.5q0 143 82 223t226 80q143 0 225.5 -80t82.5 -223zM582 435q0 119 -69 187t-185 68q-121 0 -188 -69t-67 -186q0 -118 69.5 -185.5t185.5 -67.5q117 0 185.5 68.5t68.5 184.5zM462 491q0 -105 -108 -105
h-27v-128h-98v346h125q52 0 80 -26t28 -87zM361 490q0 35 -5.5 47t-18.5 12h-10v-117h11q14 0 18.5 12.5t4.5 45.5z" />
    <glyph glyph-name="c282" 
d="M629 314q0 127 -89.5 216.5t-216.5 89.5t-216.5 -89.5t-89.5 -216.5t89.5 -216.5t216.5 -89.5t216.5 89.5t89.5 216.5zM520 224l-150 -9l-75 -141l-74 130l-140 19l109 115l9 202l142 -127l136 96l-16 -223z" />
    <glyph glyph-name="c283" 
d="M629 314q0 127 -89.5 216.5t-216.5 89.5t-216.5 -89.5t-89.5 -216.5t89.5 -216.5t216.5 -89.5t216.5 89.5t89.5 216.5zM520 224l-150 -9l-75 -141l-74 130l-140 19l109 115l9 202l142 -127l136 96l-16 -223z" />
    <glyph glyph-name="c284" horiz-adv-x="775" 
d="M775 931q-62 -72 -138 -215.5t-127 -270.5q-128 -320 -173 -545l-100 -44l-237 408l148 66l129 -332q53 241 147 469q92 223 209 401z" />
    <glyph glyph-name="c285" 
d="M629 314q0 127 -89.5 216.5t-216.5 89.5t-216.5 -89.5t-89.5 -216.5t89.5 -216.5t216.5 -89.5t216.5 89.5t89.5 216.5zM520 224l-150 -9l-75 -141l-74 130l-140 19l109 115l9 202l142 -127l136 96l-16 -223z" />
    <glyph glyph-name="c286" 
d="M629 314q0 127 -89.5 216.5t-216.5 89.5t-216.5 -89.5t-89.5 -216.5t89.5 -216.5t216.5 -89.5t216.5 89.5t89.5 216.5zM520 224l-150 -9l-75 -141l-74 130l-140 19l109 115l9 202l142 -127l136 96l-16 -223z" />
    <glyph glyph-name="c287" 
d="M629 314q0 127 -89.5 216.5t-216.5 89.5t-216.5 -89.5t-89.5 -216.5t89.5 -216.5t216.5 -89.5t216.5 89.5t89.5 216.5zM520 224l-150 -9l-75 -141l-74 130l-140 19l109 115l9 202l142 -127l136 96l-16 -223z" />
    <glyph glyph-name="c288" 
d="M629 314q0 -127 -89.5 -216.5t-216.5 -89.5t-216.5 89.5t-89.5 216.5t89.5 216.5t216.5 89.5t216.5 -89.5t89.5 -216.5zM520 224l-59 62l16 223l-136 -96l-142 127l-9 -202l-109 -115l140 -19l74 -130l75 141z" />
    </font>
</defs>
</svg>
