<?xml version="1.0" standalone="no"?>
<!DOCTYPE svg PUBLIC "-//W3C//DTD SVG 1.1//EN" "http://www.w3.org/Graphics/SVG/1.1/DTD/svg11.dtd" >
<svg xmlns="http://www.w3.org/2000/svg" xmlns:xlink="http://www.w3.org/1999/xlink" version="1.1">
<metadata>
Created by FontForge 20170731 at Mon May  7 09:28:14 2007
 By Aleksey,,,
Copr.1993 The Font Bureau, Inc.
</metadata>
<defs>
<font id="BureauGrotesque-OneOne" horiz-adv-x="302" >
  <font-face 
    font-family="BureauGrotesque OneOne"
    font-weight="500"
    font-stretch="normal"
    units-per-em="1000"
    panose-1="0 0 0 0 0 0 0 0 0 0"
    ascent="800"
    descent="-200"
    x-height="551"
    cap-height="768"
    bbox="-142 -200 739 916"
    underline-thickness="20"
    underline-position="-173"
    unicode-range="U+0020-FB02"
  />
<missing-glyph horiz-adv-x="500" 
 />
    <glyph glyph-name=".notdef" horiz-adv-x="500" 
 />
    <glyph glyph-name=".null" horiz-adv-x="0" 
 />
    <glyph glyph-name="nonmarkingreturn" horiz-adv-x="333" 
 />
    <glyph glyph-name="space" unicode=" " horiz-adv-x="170" 
 />
    <glyph glyph-name="exclam" unicode="!" horiz-adv-x="152" 
d="M111 484l-16 -231h-38l-16 231v284h70v-284zM112 0h-72v135h72v-135z" />
    <glyph glyph-name="quotedbl" unicode="&#x22;" horiz-adv-x="230" 
d="M199 768l-5 -175h-50l-5 175h60zM91 768l-5 -175h-50l-5 175h60z" />
    <glyph glyph-name="numbersign" unicode="#" horiz-adv-x="376" 
d="M368 551l-8 -78h-78l-18 -169h82l-8 -78h-82l-24 -226h-43l24 226h-83l-24 -226h-42l24 226h-77l8 78h77l18 169h-82l8 78h82l23 217h42l-23 -217h83l23 217h42l-22 -217h78zM239 473h-83l-18 -169h83z" />
    <glyph glyph-name="dollar" unicode="$" horiz-adv-x="316" 
d="M296 241q0 -205 -135 -211v-27h-30v29q-44 10 -75.5 52.5t-31.5 119.5q0 39 5 74l59 11q-4 -28 -4 -60q0 -54 9.5 -88.5t37.5 -52.5v300q-59 40 -85 80.5t-26 95.5q0 81 31 126.5t80 52.5v36h30v-35q112 -9 112 -157q0 -24 -6 -60l-60 -8q2 10 2 43q0 73 -12 102.5
t-36 32.5v-234q75 -48 105 -101t30 -121zM131 479v216q-51 -15 -51 -114q0 -65 51 -102zM231 208q0 109 -70 160v-287q33 1 51.5 37t18.5 90z" />
    <glyph glyph-name="percent" unicode="%" horiz-adv-x="475" 
d="M202 553q0 -110 -22.5 -155.5t-72.5 -45.5t-72.5 45.5t-22.5 155.5q0 124 22.5 172.5t72.5 48.5t72.5 -48.5t22.5 -172.5zM450 760l-378 -760h-50l378 760h50zM462 192q0 -110 -22.5 -155.5t-72.5 -45.5t-72.5 45.5t-22.5 155.5q0 124 22.5 172.5t72.5 48.5t72.5 -48.5
t22.5 -172.5zM142 562q0 67 -4 102t-11 46t-20 11t-20 -11t-11 -46t-4 -102q0 -66 4 -100.5t11 -45.5t20 -11t20 11t11 45.5t4 100.5zM402 201q0 67 -4 102t-11 46t-20 11t-20 -11t-11 -46t-4 -102q0 -66 4 -100.5t11 -45.5t20 -11t20 11t11 45.5t4 100.5z" />
    <glyph glyph-name="ampersand" unicode="&#x26;" horiz-adv-x="411" 
d="M402 84q0 -51 -19 -73.5t-60 -22.5q-25 0 -42 16.5t-31 50.5q-18 -30 -46.5 -47t-58.5 -17q-55 0 -93.5 53t-38.5 153q0 86 28 150t85 125q-23 81 -23 151q0 71 28.5 113.5t69.5 42.5q96 0 96 -126q0 -51 -25.5 -96t-78.5 -104l66 -252q18 49 32 162t10 155h60
q0 -216 -70 -397q7 -30 17.5 -48.5t19.5 -16.5q14 2 14 39q0 27 -10 68l60 10q10 -50 10 -89zM240 645q0 79 -32 79q-16 0 -29.5 -26t-13.5 -71q0 -46 13 -109q62 65 62 127zM225 120l-82 290q-32 -44 -46 -91t-14 -120q0 -70 20.5 -105t51.5 -35q43 0 70 61z" />
    <glyph glyph-name="quotesingle" unicode="'" horiz-adv-x="122" 
d="M91 768l-5 -175h-50l-5 175h60z" />
    <glyph glyph-name="parenleft" unicode="(" horiz-adv-x="209" 
d="M196 -116l-19 -24q-131 169 -131 465t131 465l19 -24q-43 -105 -59.5 -196.5t-16.5 -244.5t16.5 -244.5t59.5 -196.5z" />
    <glyph glyph-name="parenright" unicode=")" horiz-adv-x="209" 
d="M163 325q0 -296 -131 -465l-19 24q43 105 59.5 196.5t16.5 244.5t-16.5 244.5t-59.5 196.5l19 24q131 -169 131 -465z" />
    <glyph glyph-name="asterisk" unicode="*" horiz-adv-x="255" 
d="M219 643l-27 -43l-40 25v-54h-50v54l-40 -24l-27 42l42 27l-42 25l27 43l40 -24v54h50v-54l40 24l27 -43l-42 -25z" />
    <glyph glyph-name="plus" unicode="+" horiz-adv-x="378" 
d="M337 315h-117v-132h-62v132h-117v58h117v131h62v-131h117v-58z" />
    <glyph glyph-name="comma" unicode="," horiz-adv-x="151" 
d="M111 -4q0 -59 -39 -98l-22 34q18 30 18 68h-27v132h70v-136z" />
    <glyph glyph-name="hyphen" unicode="-" horiz-adv-x="263" 
d="M240 315h-217v58h217v-58z" />
    <glyph glyph-name="period" unicode="." horiz-adv-x="150" 
d="M109 0h-68v132h68v-132z" />
    <glyph glyph-name="slash" unicode="/" horiz-adv-x="253" 
d="M252 768l-205 -768h-46l205 768h46z" />
    <glyph glyph-name="zero" unicode="0" horiz-adv-x="278" 
d="M258 369q0 -94 -3 -155t-10.5 -107t-21.5 -70t-34 -35t-51 -11q-74 0 -96 74.5t-22 303.5q0 241 22.5 324t95.5 83t96.5 -83.5t23.5 -323.5zM187 380q0 206 -8.5 275.5t-40.5 69.5t-39.5 -68t-7.5 -277q0 -213 8 -274t40 -61t40 62t8 273z" />
    <glyph glyph-name="one" unicode="1" horiz-adv-x="229" 
d="M181 0h-68v641q-41 -24 -101 -24v42q102 25 133 115h36v-774z" />
    <glyph glyph-name="two" unicode="2" horiz-adv-x="278" 
d="M258 563q0 -244 -159 -495h157v-68h-234v55q61 88 115 230q51 137 51 278q0 84 -12 118t-42 34q-31 0 -42 -35.5t-11 -102.5q0 -44 8 -122l-65 -2q-9 59 -9 130q0 193 122 193q63 0 92 -51.5t29 -161.5z" />
    <glyph glyph-name="three" unicode="3" horiz-adv-x="282" 
d="M267 227q0 -132 -39 -189q-32 -47 -95 -47q-55 0 -87 42q-31 40 -31 127q0 52 6 97l67 3q-7 -56 -7 -85q0 -63 10 -92q12 -36 45 -36q31 0 44 33q16 41 16 158q0 39 -6.5 71.5t-24 56.5t-43.5 24q-19 0 -34 -5l-7 62q29 5 44 14q57 32 57 142q0 113 -49 113
q-21 0 -33.5 -24.5t-12.5 -67.5q0 -34 5 -61l-64 -3q-8 36 -8 76q2 63 31 99t84 36q60 0 88.5 -46.5t28.5 -125.5q0 -52 -21.5 -99t-56.5 -64q49 -16 71 -63t22 -146z" />
    <glyph glyph-name="four" unicode="4" horiz-adv-x="293" 
d="M287 176h-50v-176h-66v176h-159v88l148 504h77v-530h50v-62zM171 238v366l-105 -366h105z" />
    <glyph glyph-name="five" unicode="5" horiz-adv-x="285" 
d="M265 301q0 -174 -34 -242t-101 -68q-115 0 -115 164q0 46 7 86l66 12q-5 -37 -5 -80q0 -58 10 -89t39 -31q21 0 33.5 17.5t21 74t8.5 157.5q0 102 -12.5 146.5t-40.5 44.5q-26 0 -37.5 -29t-17.5 -90l-60 9l32 385h190l-7 -63h-128l-18 -189q19 41 63 41q54 0 80 -60.5
t26 -195.5z" />
    <glyph glyph-name="six" unicode="6" horiz-adv-x="287" 
d="M269 250q0 -144 -30.5 -201.5t-93.5 -57.5q-48 0 -75 36.5t-38.5 121t-11.5 238.5q0 119 9 198.5t27.5 120t40.5 55.5t53 15q52 0 77.5 -31.5t25.5 -102.5q0 -21 -8 -67l-61 -2q6 36 6 62q0 47 -10 66t-36 19q-28 0 -41 -86.5t-13 -198.5q24 50 70 50q55 0 82 -55.5
t27 -179.5zM198 241q0 109 -12 148t-42 39q-28 0 -40 -40t-12 -147q0 -105 13 -148t41 -43q29 0 40.5 39t11.5 152z" />
    <glyph glyph-name="seven" unicode="7" horiz-adv-x="257" 
d="M254 719q-106 -269 -106 -567q0 -74 10 -152h-81q-6 36 -6 103q0 303 121 598h-192v67h254v-49z" />
    <glyph glyph-name="eight" unicode="8" horiz-adv-x="288" 
d="M270 213q0 -123 -28.5 -172.5t-97.5 -49.5t-97.5 50t-28.5 172q0 182 65 210q-54 21 -54 156q0 197 115 197t115 -198q0 -130 -55 -155q37 -15 51.5 -62t14.5 -148zM191 583q0 76 -10.5 107.5t-36.5 31.5t-36.5 -32t-10.5 -107q0 -134 47 -134q24 0 34.5 31.5t12.5 102.5
zM201 222q0 96 -13.5 135.5t-43.5 39.5t-44 -38t-14 -137q0 -73 7 -112t18.5 -51.5t32.5 -12.5q31 0 44 35t13 141z" />
    <glyph glyph-name="nine" unicode="9" horiz-adv-x="287" 
d="M267 380q0 -98 -6.5 -169t-17 -113t-27.5 -66.5t-35.5 -32.5t-43.5 -8q-55 0 -79 32t-24 102q0 21 8 67l61 2q-6 -36 -6 -62q0 -47 10 -66t34 -19q18 0 29 19.5t19 85t8 180.5q-20 -50 -70 -50q-55 0 -82 55.5t-27 179.5q0 141 30.5 200t93.5 59q72 0 98.5 -85.5
t26.5 -310.5zM195 526q0 191 -54 191q-18 0 -29 -14.5t-17 -57t-6 -119.5q0 -108 11.5 -147.5t42.5 -39.5t41.5 39t10.5 148z" />
    <glyph glyph-name="colon" unicode=":" horiz-adv-x="152" 
d="M111 419h-70v132h70v-132zM111 0h-70v132h70v-132z" />
    <glyph glyph-name="semicolon" unicode=";" horiz-adv-x="152" 
d="M111 419h-70v132h70v-132zM111 -4q0 -59 -39 -98l-22 34q18 30 18 68h-27v132h70v-136z" />
    <glyph glyph-name="less" unicode="&#x3c;" horiz-adv-x="220" 
d="M191 123l-173 187v61l173 188v-84l-122 -134l122 -133v-85z" />
    <glyph glyph-name="equal" unicode="=" horiz-adv-x="343" 
d="M304 386h-259v62h259v-62zM304 235h-259v62h259v-62z" />
    <glyph glyph-name="greater" unicode="&#x3e;" horiz-adv-x="220" 
d="M201 310l-173 -187v85l122 133l-122 134v84l173 -188v-61z" />
    <glyph glyph-name="question" unicode="?" horiz-adv-x="260" 
d="M248 536q0 -113 -22.5 -159.5t-67.5 -46.5q-46 0 -63 42l2 -129h-52v248h48q2 -54 11.5 -75t34.5 -21q22 0 30 43t8 135q0 86 -11.5 116t-40.5 30q-25 0 -34 -17.5t-9 -65.5q0 -17 6 -62l-63 3q-7 25 -7 70q0 132 110 132q29 0 49 -10t37 -36t25.5 -75t8.5 -122zM109 0
h-70v132h70v-132z" />
    <glyph glyph-name="at" unicode="@" horiz-adv-x="588" 
d="M557 413q0 -133 -40.5 -209.5t-99.5 -76.5q-70 0 -76 75q-10 -24 -35 -49.5t-61 -25.5q-83 0 -83 97q0 111 82 155q33 19 104 28q5 43 5 46q2 30 -8 50t-33 20q-31 0 -44 -22t-7 -56l-64 -21q-3 30 -3 37q2 53 33.5 86t91.5 33q55 0 80.5 -38t20.5 -91q0 -4 -22 -229
q-2 -21 7 -34t25 -13q36 0 64.5 61t28.5 171q0 163 -59 246t-161 83q-101 0 -165 -105.5t-64 -291.5q0 -197 59 -288.5t174 -91.5q81 0 141 74l23 -24q-41 -44 -77.5 -63.5t-89.5 -19.5q-136 0 -202.5 97.5t-66.5 316.5q0 211 74 319.5t198 108.5q116 0 183 -87t67 -268z
M344 366q-38 -8 -69 -28q-42 -30 -45 -85q-1 -65 33 -65q31 0 50 25t22 61q1 7 4.5 46t4.5 46z" />
    <glyph glyph-name="A" unicode="A" horiz-adv-x="276" 
d="M265 0h-73l-14 138h-90l-12 -138h-65l89 774h69zM171 199l-37 412l-39 -412h76z" />
    <glyph glyph-name="B" unicode="B" horiz-adv-x="313" 
d="M294 217q0 -113 -34.5 -165t-103.5 -52h-119v768h111q72 0 101 -50.5t29 -152.5q0 -64 -19.5 -105t-55.5 -50q39 -5 65 -57t26 -136zM208 565q0 78 -14.5 112.5t-52.5 34.5h-35v-273h48q54 0 54 126zM219 225q0 67 -17.5 112.5t-49.5 45.5h-46v-325h45q37 0 52.5 34
t15.5 133z" />
    <glyph glyph-name="C" unicode="C" horiz-adv-x="278" 
d="M255 323q9 -99 5.5 -173.5t-32 -118t-81.5 -43.5q-74 0 -99.5 78.5t-25.5 291.5q0 242 26.5 331.5t99.5 89.5q53 0 79 -38.5t28 -104t-4 -152.5l-62 -2q10 127 0 183t-43 56q-19 0 -29.5 -29t-16 -104.5t-5.5 -211.5q0 -186 10 -257.5t46 -71.5q19 0 31 29.5t15.5 91
t-5.5 155.5h63z" />
    <glyph glyph-name="D" unicode="D" horiz-adv-x="313" 
d="M291 345q0 -143 -13 -215.5t-41.5 -101t-85.5 -28.5h-114v768h108q37 0 61 -14.5t45 -56.5t30.5 -129t9.5 -223zM218 327q0 156 -8.5 239.5t-26 114.5t-48.5 31h-28v-652h31q33 0 48 15.5t23.5 73t8.5 178.5z" />
    <glyph glyph-name="E" unicode="E" horiz-adv-x="247" 
d="M242 0h-205v768h189v-59h-120v-288h106v-59h-106v-303h136v-59z" />
    <glyph glyph-name="F" unicode="F" horiz-adv-x="230" 
d="M225 709h-118v-291h97v-62h-97v-356h-70v768h188v-59z" />
    <glyph glyph-name="G" unicode="G" horiz-adv-x="298" 
d="M272 -6h-32l-12 49q-20 -55 -78 -55q-50 0 -75.5 25t-39 104t-13.5 234q0 175 13 266.5t40 126.5t79 35q59 0 83.5 -45.5t24.5 -145.5q0 -38 -3 -85l-64 -4q3 48 3 86q0 138 -44 138q-24 0 -35.5 -23t-18 -101t-6.5 -237q0 -141 7 -210.5t19 -88.5t36 -19q28 0 39 28
t11 92v171h-62v55h128v-396z" />
    <glyph glyph-name="H" unicode="H" horiz-adv-x="318" 
d="M281 0h-70v367h-104v-367h-70v768h70v-339h104v339h70v-768z" />
    <glyph glyph-name="I" unicode="I" horiz-adv-x="144" 
d="M107 0h-70v768h70v-768z" />
    <glyph glyph-name="J" unicode="J" horiz-adv-x="284" 
d="M249 155q0 -87 -28 -127t-89 -40t-90 39.5t-29 132.5q0 55 13 116l68 2q-12 -51 -12 -129q0 -58 11.5 -80t36.5 -22q28 0 38.5 25.5t10.5 102.5v593h70v-613z" />
    <glyph glyph-name="K" unicode="K" horiz-adv-x="303" 
d="M309 0h-75l-127 380v-380h-70v768h70v-339l120 339h71l-130 -351z" />
    <glyph glyph-name="L" unicode="L" horiz-adv-x="250" 
d="M250 0h-213v768h70v-708h143v-60z" />
    <glyph glyph-name="M" unicode="M" horiz-adv-x="382" 
d="M345 0h-63v500l-69 -500h-42l-71 500v-500h-63v768h81l74 -538l72 538h81v-768z" />
    <glyph glyph-name="N" unicode="N" horiz-adv-x="305" 
d="M268 0h-60l-108 505v-505h-63v768h64l105 -503v503h62v-768z" />
    <glyph glyph-name="O" unicode="O" horiz-adv-x="293" 
d="M271 378q0 -232 -24 -311t-101 -79q-32 0 -53 12t-35.5 37t-22 73t-10.5 110t-3 158q0 235 24 318t100 83t100.5 -83.5t24.5 -317.5zM198 380q0 235 -8 282q-13 60 -45 62q-35 0 -42.5 -56.5t-7.5 -238.5v-49q0 -236 6 -277q8 -53 36 -57q4 -1 9 -1q38 0 45 55.5t7 279.5
z" />
    <glyph glyph-name="P" unicode="P" horiz-adv-x="291" 
d="M278 547q0 -53 -5.5 -90t-15.5 -59.5t-26 -35.5t-33.5 -17t-43.5 -4h-47v-341h-70v768h125q58 0 87 -51.5t29 -169.5zM209 543q0 96 -16 132.5t-55 36.5h-31v-316h41q35 0 48 33t13 114z" />
    <glyph glyph-name="Q" unicode="Q" horiz-adv-x="294" 
d="M271 378q0 -227 -22 -304.5t-91 -84.5q-5 -20 -5 -46q0 -55 37 -55q28 0 28 39q0 11 -2 25h31q7 -17 7 -38q0 -29 -17.5 -49.5t-51.5 -20.5t-56 21t-22 66q0 21 7 61q-36 8 -55 42.5t-28 114.5t-9 229q0 236 23.5 318.5t100.5 82.5q76 0 100.5 -83.5t24.5 -317.5z
M199 380q0 208 -8 276t-46 68q-36 0 -43.5 -59.5t-7.5 -238.5v-15.5v-14.5v-16v-50q0 -185 7.5 -236t44.5 -51q38 0 45.5 60t7.5 277z" />
    <glyph glyph-name="R" unicode="R" horiz-adv-x="309" 
d="M302 0h-78q-25 46 -25 141v126q0 104 -52 104h-40v-371h-70v768h122q66 0 95 -48.5t29 -146.5q0 -88 -19 -129.5t-62 -49.5q39 -8 52.5 -48t13.5 -129q2 -90 8 -139t26 -78zM212 550q0 90 -15 128t-48 38h-42v-291h50q29 0 42 28.5t13 96.5z" />
    <glyph glyph-name="S" unicode="S" horiz-adv-x="283" 
d="M271 200q0 -212 -128 -212q-59 0 -89.5 39.5t-30.5 136.5q0 52 10 106l64 8q-7 -53 -7 -117q0 -68 13 -92t42 -24q26 0 41 26t15 102q0 78 -19 122t-70 85q-52 42 -75 87.5t-23 117.5q0 96 31 145t88 49q116 0 116 -158q0 -38 -7 -75l-62 -11q4 27 4 77q0 114 -51 114
q-49 0 -49 -112q0 -40 3 -63.5t16 -43.5t22 -28.5t38 -33.5q60 -51 84 -103.5t24 -141.5z" />
    <glyph glyph-name="T" unicode="T" horiz-adv-x="271" 
d="M265 709h-94v-709h-71v709h-94v59h259v-59z" />
    <glyph glyph-name="U" unicode="U" horiz-adv-x="320" 
d="M285 124q0 -68 -29.5 -102t-95.5 -34t-95.5 34t-29.5 102v644h70v-650q0 -70 55 -70t55 70v650h70v-644z" />
    <glyph glyph-name="V" unicode="V" horiz-adv-x="272" 
d="M270 768l-100 -773h-67l-101 773h69l68 -617l65 617h66z" />
    <glyph glyph-name="W" unicode="W" horiz-adv-x="386" 
d="M380 768l-78 -771h-58q-23 235 -27 279l-24 276q-12 -128 -25 -276l-28 -279h-62l-72 771h65q22 -256 25 -308l15 -250q19 207 23 248q2 17 8.5 89t12.5 136t8 85h60q2 -20 14 -149.5t14 -157.5l23 -251q15 209 18 251l27 307h61z" />
    <glyph glyph-name="X" unicode="X" horiz-adv-x="268" 
d="M270 0h-70l-71 315l-61 -315h-69l91 399l-82 369h69l59 -289l62 289h68l-93 -370z" />
    <glyph glyph-name="Y" unicode="Y" horiz-adv-x="282" 
d="M281 768l-105 -466v-302h-70v301l-109 467h73l73 -358l69 358h69z" />
    <glyph glyph-name="Z" unicode="Z" horiz-adv-x="257" 
d="M247 706l-172 -646h169v-60h-237v61l172 648h-153v59h221v-62z" />
    <glyph glyph-name="bracketleft" unicode="[" horiz-adv-x="194" 
d="M175 -166h-134v934h134v-59h-71v-816h71v-59z" />
    <glyph glyph-name="backslash" unicode="\" horiz-adv-x="253" 
d="M252 0h-46l-205 768h46z" />
    <glyph glyph-name="bracketright" unicode="]" horiz-adv-x="194" 
d="M153 -166h-133v59h70v816h-70v59h133v-934z" />
    <glyph glyph-name="asciicircum" unicode="^" horiz-adv-x="237" 
d="M204 644h-51l-33 70l-33 -70h-51l58 124h53z" />
    <glyph glyph-name="underscore" unicode="_" horiz-adv-x="331" 
d="M332 -190h-332v50h332v-50z" />
    <glyph glyph-name="grave" unicode="`" horiz-adv-x="315" 
d="M197 662h-38l-58 106h72z" />
    <glyph glyph-name="a" unicode="a" horiz-adv-x="249" 
d="M248 6q-20 -14 -45 -14q-35 0 -43 34q-8 -11 -13 -17t-16.5 -11.5t-26.5 -5.5q-42 0 -63 32q-24 38 -24 135q0 69 25 106t79 65q20 10 24 14.5t5 16.5q2 40 2 76q0 45 -7 62.5t-25 17.5q-36 0 -36 -71q0 -27 6 -57l-55 -3q-7 26 -7 56q0 61 24 88t73 27q87 0 87 -104
v-376q0 -41 17 -41q10 0 19 7v-37zM151 89v212q-42 -18 -57 -52.5t-15 -101.5q0 -66 8 -88t30 -22q16 0 25 16t9 36z" />
    <glyph glyph-name="b" unicode="b" horiz-adv-x="254" 
d="M234 275q0 -163 -23 -222.5t-78 -59.5q-47 0 -67 48l-25 -41h-18v768h61v-254q22 43 60 43q31 0 49.5 -21t29.5 -84t11 -177zM170 276q0 78 -1.5 121.5t-7 70.5t-13 35t-21.5 8q-16 0 -25 -15.5t-14.5 -68t-5.5 -152.5q0 -150 4 -182q7 -53 40 -53q15 0 23.5 8t13 36.5
t6 70t1.5 121.5z" />
    <glyph glyph-name="c" unicode="c" horiz-adv-x="238" 
d="M222 152q0 -89 -19.5 -125t-76.5 -36q-42 0 -64 23t-32 85t-10 182q0 113 12 174t33 81.5t59 20.5q50 0 71 -33.5t21 -112.5q0 -33 -4 -57l-57 -2q3 39 3 56q0 56 -6.5 80.5t-27.5 24.5q-13 0 -20 -8.5t-12 -35.5t-6.5 -73t-1.5 -126t2 -125t7.5 -71t13 -33t22.5 -7
q21 0 28 25t7 99q0 11 -4 71l55 -3q7 -33 7 -74z" />
    <glyph glyph-name="d" unicode="d" horiz-adv-x="257" 
d="M232 0h-59v50q-6 -26 -23 -41.5t-37 -15.5q-34 0 -53 22.5t-29.5 83.5t-10.5 170q0 165 24 226.5t71 61.5q35 0 55 -45v256h62v-768zM171 275q0 131 -9.5 183t-34.5 52q-26 0 -34.5 -45t-8.5 -189q0 -143 9 -189.5t34 -46.5q24 0 34 49.5t10 185.5z" />
    <glyph glyph-name="e" unicode="e" horiz-adv-x="242" 
d="M223 126q0 -135 -93 -135q-42 0 -64 18t-34 74t-12 166q0 125 12 193t33.5 91.5t59.5 23.5q54 0 75.5 -51t21.5 -169q0 -40 -3 -73h-137q0 -37 0.5 -58.5t1.5 -52.5t4.5 -49t8.5 -36t13.5 -26t19.5 -8q23 0 31 24.5t8 93.5q0 6 -3 45l53 -2q4 -24 4 -69zM165 382
q0 75 -9.5 103.5t-31.5 28.5q-24 0 -33.5 -48t-9.5 -160h82q2 24 2 76z" />
    <glyph glyph-name="f" unicode="f" horiz-adv-x="161" 
d="M206 677q0 -23 -3 -46l-51 -6q3 36 3 45q0 58 -27 58q-23 0 -23 -55v-122h58v-46h-58v-505h-62v505h-41v46h41v115q0 110 83 110q80 0 80 -99z" />
    <glyph glyph-name="g" unicode="g" horiz-adv-x="280" 
d="M292 593l-56 -106q18 -36 18 -120q0 -178 -108 -178q-22 0 -39 5q-30 -17 -30 -41q0 -30 43 -30h50q50 0 80 -40t30 -112q0 -88 -36 -129.5t-99 -41.5q-67 0 -106 36.5t-39 109.5q0 36 17.5 70.5t45.5 52.5q-48 14 -48 64q0 49 59 78q-45 34 -45 156q0 91 30.5 140.5
t83.5 49.5q21 0 41.5 -9.5t30.5 -25.5l20 71h57zM190 370q0 80 -10.5 109t-36.5 29q-27 0 -39 -31.5t-12 -106.5t9.5 -104.5t37.5 -29.5q29 0 40 29t11 105zM221 -49q0 113 -74 113h-46q-44 -47 -44 -108q0 -111 87 -111q35 0 56 28t21 78z" />
    <glyph glyph-name="h" unicode="h" horiz-adv-x="247" 
d="M226 0h-63v466q0 43 -35 43q-18 0 -30.5 -18.5t-12.5 -49.5v-441h-62v768h62v-252q22 41 66 41q35 0 55 -20.5t20 -60.5v-476z" />
    <glyph glyph-name="i" unicode="i" horiz-adv-x="108" 
d="M87 641h-66v83h66v-83zM85 0h-62v551h62v-551z" />
    <glyph glyph-name="j" unicode="j" horiz-adv-x="121" 
d="M99 641h-64v83h64v-83zM98 -82q0 -47 -23.5 -73t-65.5 -26q-39 0 -63.5 25.5t-24.5 69.5q0 16 4 44l56 3q-4 -34 -4 -44q0 -21 8.5 -35t22.5 -14q28 0 28 46v637h62v-633z" />
    <glyph glyph-name="k" unicode="k" horiz-adv-x="249" 
d="M253 0h-67l-90 244l-11 -23v-221h-62v768h62v-442l100 225h63l-111 -242z" />
    <glyph glyph-name="l" unicode="l" horiz-adv-x="108" 
d="M85 0h-62v768h62v-768z" />
    <glyph glyph-name="m" unicode="m" horiz-adv-x="385" 
d="M363 0h-63v467q0 42 -34 42q-16 0 -28.5 -18t-12.5 -50v-441h-62v468q0 41 -33 41q-18 0 -31 -17.5t-13 -47.5v-444h-63v551h61v-37q18 43 67 43q51 0 69 -47q20 47 69 47q35 0 54.5 -20.5t19.5 -60.5v-476z" />
    <glyph glyph-name="n" unicode="n" horiz-adv-x="248" 
d="M226 0h-63v464q0 45 -35 45q-17 0 -30 -18.5t-13 -49.5v-441h-62v551h61v-35q25 41 67 41q35 0 55 -21t20 -60v-476z" />
    <glyph glyph-name="o" unicode="o" horiz-adv-x="253" 
d="M233 274q0 -115 -12 -177.5t-34 -84t-61 -21.5t-60.5 21.5t-33.5 83.5t-12 178t12 178t33.5 83.5t60.5 21.5t61 -21.5t34 -84t12 -177.5zM169 275q0 145 -8.5 191t-34.5 46t-34 -45.5t-8 -193.5q0 -146 8 -191.5t34 -45.5t34.5 46t8.5 193z" />
    <glyph glyph-name="p" unicode="p" horiz-adv-x="256" 
d="M234 271q0 -115 -11 -176.5t-31 -81.5t-56 -20q-18 0 -32.5 10.5t-19.5 26.5v-205h-61v726h61v-41q20 47 63 47q29 0 47 -22.5t29 -87t11 -176.5zM170 272q0 97 -4 148.5t-12.5 70t-24.5 18.5q-17 0 -26.5 -16t-15 -69t-5.5 -153q0 -136 9.5 -184.5t35.5 -48.5
q15 0 22.5 7t12.5 34t6.5 69.5t1.5 123.5z" />
    <glyph glyph-name="q" unicode="q" horiz-adv-x="255" 
d="M232 -176h-61v222q-14 -53 -58 -53q-34 0 -53.5 23.5t-29.5 84t-10 168.5q0 112 12.5 176.5t34 88t56.5 23.5q41 0 63 -52l27 46h19v-727zM171 275q0 99 -4.5 150.5t-13.5 69.5t-26 18t-25.5 -17t-13 -68t-4.5 -152q0 -99 4.5 -149.5t13 -68t25.5 -17.5q26 0 35 49t9 185
z" />
    <glyph glyph-name="r" unicode="r" horiz-adv-x="209" 
d="M201 442q0 -50 -8 -110l-56 -6q10 62 10 110q0 38 -5 51.5t-17 13.5q-9 0 -17.5 -9.5t-15.5 -35.5t-7 -66v-390h-62v551h61v-53q6 25 21 42t35 17q61 0 61 -115z" />
    <glyph glyph-name="s" unicode="s" horiz-adv-x="239" 
d="M224 151q0 -160 -110 -160q-95 0 -95 120q0 31 6 75l55 10q-6 -34 -6 -72q0 -45 8.5 -64t30.5 -19q47 0 47 88q0 44 -15.5 72.5t-60.5 67.5q-37 32 -52 62t-15 82q0 72 27.5 108t71.5 36q91 0 91 -119q0 -31 -5 -56l-55 -3q5 55 5 63q0 67 -37 67q-38 0 -38 -71
q0 -41 9 -60t52 -57q49 -44 67.5 -80t18.5 -90z" />
    <glyph glyph-name="t" unicode="t" horiz-adv-x="175" 
d="M172 10q-24 -19 -66 -19q-68 0 -68 79v435h-41v46h40v153h63v-153h66v-46h-66v-416q0 -25 8 -33.5t24 -8.5q20 0 40 10v-47z" />
    <glyph glyph-name="u" unicode="u" horiz-adv-x="248" 
d="M225 0h-61q0 25 1 41q-20 -48 -71 -48q-72 0 -72 84v474h63v-463q0 -44 33 -44q21 0 33 23.5t12 60.5v423h62v-551z" />
    <glyph glyph-name="v" unicode="v" horiz-adv-x="219" 
d="M213 551l-74 -551h-63l-74 551h63l44 -415l43 415h61z" />
    <glyph glyph-name="w" unicode="w" horiz-adv-x="328" 
d="M323 551l-70 -551h-56l-35 358l-33 -358h-56l-71 551h61l40 -369l32 369h56l34 -366l39 366h59z" />
    <glyph glyph-name="x" unicode="x" horiz-adv-x="233" 
d="M236 0h-68l-54 204l-53 -204h-64l86 292l-77 259h67l44 -174l45 174h65l-78 -261z" />
    <glyph glyph-name="y" unicode="y" horiz-adv-x="240" 
d="M230 551q-71 -514 -76 -551q-14 -104 -35 -140.5t-66 -36.5q-84 0 -84 82q0 27 2 42l54 10q-3 -30 -3 -37q0 -27 7 -38.5t24 -11.5t27.5 24t17.5 91l-99 566h65l58 -418l45 418h63z" />
    <glyph glyph-name="z" unicode="z" horiz-adv-x="190" 
d="M184 500l-115 -448h114v-52h-179v43l118 459h-95v49h157v-51z" />
    <glyph glyph-name="braceleft" unicode="{" horiz-adv-x="196" 
d="M184 711h-25q-24 0 -24 -31v-322q0 -56 -37 -56q37 0 37 -53v-341q0 -16 5.5 -21t17.5 -5h25v-58h-43q-33 0 -50 17.5t-17 59.5v321q0 54 -41 54h-6v52h6q22 0 31.5 13t9.5 44v303q0 80 68 80h43v-57z" />
    <glyph glyph-name="bar" unicode="|" horiz-adv-x="131" 
d="M90 -190h-51v978h51v-978z" />
    <glyph glyph-name="braceright" unicode="}" horiz-adv-x="196" 
d="M170 276h-6q-41 0 -41 -54v-321q0 -42 -17 -59.5t-50 -17.5h-43v58h25q12 0 17.5 5t5.5 21v341q0 53 37 53q-37 0 -37 56v322q0 31 -24 31h-25v57h43q68 0 68 -80v-303q0 -31 9.5 -44t31.5 -13h6v-52z" />
    <glyph glyph-name="asciitilde" unicode="~" horiz-adv-x="219" 
d="M215 724q0 -24 -11.5 -41.5t-35.5 -17.5q-21 0 -44 14q-16 10 -50 34q-14 9 -23 9q-14 0 -14 -21q0 -11 6 -23h-30q-9 21 -9 44q0 24 11.5 41.5t35.5 17.5q23 0 41 -12q14 -9 53 -36q12 -9 23 -9q14 0 14 21q0 11 -6 23h30q9 -18 9 -44z" />
    <glyph glyph-name="nbspace" unicode="&#xa0;" horiz-adv-x="85" 
 />
    <glyph glyph-name="exclamdown" unicode="&#xa1;" horiz-adv-x="152" 
d="M112 633h-72v135h72v-135zM111 0h-70v284l16 231h38l16 -231v-284z" />
    <glyph glyph-name="cent" unicode="&#xa2;" horiz-adv-x="242" 
d="M219 423q0 -50 -15 -74.5t-57 -33.5v-47h-45v47q-46 6 -63 46t-17 143q0 68 10.5 107.5t26.5 54t43 17.5v44h45v-44q36 -4 52 -28.5t16 -74.5q0 -22 -3 -41l-60 -2q3 15 3 38q0 43 -6 55.5t-23 12.5q-13 0 -20 -7t-12.5 -40.5t-5.5 -98.5q0 -66 5 -98t12 -39.5t21 -7.5
q12 0 17.5 3.5t10.5 21t5 53.5q0 4 -2 52l58 -2q4 -28 4 -57z" />
    <glyph glyph-name="sterling" unicode="&#xa3;" horiz-adv-x="344" 
d="M320 138q0 -60 -19 -105t-62 -45q-25 0 -47 20q-17 18 -36 47q-6 -27 -26 -47t-46 -20q-32 0 -53.5 25t-21.5 67t22 65.5t50 23.5q23 0 47 -21q7 31 7 72q0 38 -11 104h-84v60h75q-18 116 -18 171q0 219 101 219q45 0 72 -56.5t27 -146.5q0 -58 -6 -83l-65 -9q7 51 7 98
q0 70 -10 108t-25 38q-34 0 -34 -149q0 -116 15 -190h94v-60h-84q6 -38 6 -68q0 -83 -17 -148q34 -39 50 -39t22.5 18.5t6.5 63.5q0 40 -9 92l59 -7q13 -63 13 -98zM116 91q-14 18 -32 18q-20 0 -20 -31q0 -29 24 -29q9 0 18 12.5t10 29.5z" />
    <glyph glyph-name="currency" unicode="&#xa4;" 
d="M257 388q0 -130 -31.5 -222.5t-75.5 -92.5t-74.5 92t-30.5 223t30.5 224t74.5 93t75.5 -93t31.5 -224zM244 356l-64 130l-29 162l-26 -152l-46 24l39 -154l-45 -113l77 -15l29 -122l12 217z" />
    <glyph glyph-name="yen" unicode="&#xa5;" horiz-adv-x="282" 
d="M287 301h-111v-301h-70v301h-97v31h90l-11 46h-79v31h72l-84 359h73l73 -358l69 358h69l-81 -359h87v-31h-94l-10 -46h104v-31z" />
    <glyph glyph-name="brokenbar" unicode="&#xa6;" 
d="M257 388q0 -130 -31.5 -222.5t-75.5 -92.5t-74.5 92t-30.5 223t30.5 224t74.5 93t75.5 -93t31.5 -224zM244 356l-64 130l-29 162l-26 -152l-46 24l39 -154l-45 -113l77 -15l29 -122l12 217z" />
    <glyph glyph-name="section" unicode="&#xa7;" horiz-adv-x="265" 
d="M245 97q0 -76 -28.5 -115t-82.5 -39q-48 0 -71.5 38.5t-23.5 99.5q0 47 13 102l51 8q-10 -59 -10 -112q1 -42 12 -63t29 -21q46 0 46 95q0 58 -72 141q-40 46 -59 77.5t-19 62.5q0 40 12.5 66t45.5 65q-30 34 -44.5 63.5t-14.5 72.5q0 141 103 141q34 0 58.5 -28.5
t24.5 -86.5q0 -45 -13 -104l-50 2q9 52 9 87q0 45 -9.5 61t-26.5 16q-18 0 -27 -22.5t-9 -55.5q0 -67 63 -121q51 -44 72 -78t21 -79q0 -69 -60 -124q35 -43 47.5 -74t12.5 -75zM185 359q0 47 -64 108q-30 -35 -30 -75q0 -41 62 -111q32 33 32 78z" />
    <glyph glyph-name="dieresis" unicode="&#xa8;" horiz-adv-x="315" 
d="M273 709h-94v59h94v-59zM136 709h-94v59h94v-59z" />
    <glyph glyph-name="copyright" unicode="&#xa9;" horiz-adv-x="520" 
d="M480 543q0 -92 -64 -157.5t-155 -65.5t-156 65.5t-65 157.5q0 93 65 159t156 66t155 -66t64 -159zM453 543q0 84 -56 142.5t-136 58.5q-81 0 -137 -58.5t-56 -142.5q0 -83 56 -141t137 -58q80 0 136 58t56 141zM342 481q0 -55 -14 -76.5t-64 -21.5q-56 0 -71.5 34
t-15.5 135q0 98 20.5 129.5t64.5 31.5t59 -22t15 -70q0 -24 -6 -36l-46 -1q5 45 5 61q0 18 -5.5 25.5t-21.5 7.5q-12 0 -18 -6.5t-10.5 -36t-4.5 -87.5t4.5 -87t11.5 -36t21 -7q17 0 22.5 12.5t5.5 55.5q0 22 -5 46l47 -2q6 -24 6 -49z" />
    <glyph glyph-name="ordfeminine" unicode="&#xaa;" horiz-adv-x="267" 
d="M242 383q-16 -10 -37 -10q-38 0 -49 33q-16 -33 -53 -33q-36 0 -59 23.5t-23 92.5q0 89 79 119q57 21 57 67t-7 59t-29 13q-34 0 -34 -63q0 -13 5 -35l-50 -3q-10 22 -10 48q0 85 93 85q50 0 69 -14.5t19 -53.5v-286q0 -23 12 -23q9 0 17 4v-23zM244 296h-221v42h221v-42
zM157 484v118q-7 -7 -17 -11q-20 -7 -32.5 -17.5t-17 -25.5t-5.5 -24t-1 -26q0 -45 8 -60.5t30 -15.5q35 0 35 62z" />
    <glyph glyph-name="guillemotleft" unicode="&#xab;" horiz-adv-x="245" 
d="M224 175l-94 122v94l94 121v-88l-60 -80l60 -82v-87zM119 175l-94 122v94l94 121v-88l-60 -80l60 -82v-87z" />
    <glyph glyph-name="logicalnot" unicode="&#xac;" 
d="M257 388q0 -130 -31.5 -222.5t-75.5 -92.5t-74.5 92t-30.5 223t30.5 224t74.5 93t75.5 -93t31.5 -224zM244 356l-64 130l-29 162l-26 -152l-46 24l39 -154l-45 -113l77 -15l29 -122l12 217z" />
    <glyph glyph-name="registered" unicode="&#xae;" horiz-adv-x="520" 
d="M480 543q0 -92 -64 -157.5t-155 -65.5t-156 65.5t-65 157.5q0 93 65 159t156 66t155 -66t64 -159zM453 543q0 84 -56 142.5t-136 58.5q-81 0 -137 -58.5t-56 -142.5q0 -83 56 -141t137 -58q80 0 136 58t56 141zM349 613q0 -31 -10.5 -48.5t-37.5 -24.5q24 -3 31.5 -22
t7.5 -66q0 -42 7 -68h-52q-7 21 -7 50v40q0 44 -27 44h-23v-134h-52v322h80q48 0 65.5 -21t17.5 -72zM290 616q0 33 -8.5 47t-28.5 14h-15v-120h11q23 0 32 10.5t9 48.5z" />
    <glyph glyph-name="macron" unicode="&#xaf;" horiz-adv-x="315" 
d="M259 709h-203v59h203v-59z" />
    <glyph glyph-name="degree" unicode="&#xb0;" horiz-adv-x="188" 
d="M166 690q0 -29 -21.5 -50t-50.5 -21t-50.5 21t-21.5 50t21.5 50.5t50.5 21.5t50.5 -21.5t21.5 -50.5zM138 690q0 18 -13 31t-31 13t-31 -13t-13 -31t13 -30.5t31 -12.5t31 12.5t13 30.5z" />
    <glyph glyph-name="plusminus" unicode="&#xb1;" horiz-adv-x="395" 
d="M372 0h-63v702q-20 26 -48 26q-23 0 -23 -55v-122h58v-46h-58v-505h-62v505h-71v-505h-62v505h-41v46h41v115q0 57 27 83.5t70 26.5q35 0 62 -22q21 22 57 22q31 0 59 -14l54 6v-768zM179 700q-11 28 -37 28q-37 0 -37 -55v-122h71v115q0 7 3 34z" />
    <glyph glyph-name="twosuperior" unicode="&#xb2;" 
d="M257 388q0 -130 -31.5 -222.5t-75.5 -92.5t-74.5 92t-30.5 223t30.5 224t74.5 93t75.5 -93t31.5 -224zM244 356l-64 130l-29 162l-26 -152l-46 24l39 -154l-45 -113l77 -15l29 -122l12 217z" />
    <glyph glyph-name="threesuperior" unicode="&#xb3;" 
d="M257 388q0 -130 -31.5 -222.5t-75.5 -92.5t-74.5 92t-30.5 223t30.5 224t74.5 93t75.5 -93t31.5 -224zM244 356l-64 130l-29 162l-26 -152l-46 24l39 -154l-45 -113l77 -15l29 -122l12 217z" />
    <glyph glyph-name="acute" unicode="&#xb4;" horiz-adv-x="315" 
d="M214 768l-58 -106h-38l24 106h72z" />
    <glyph glyph-name="mu" unicode="&#xb5;" 
d="M257 388q0 -130 -31.5 -222.5t-75.5 -92.5t-74.5 92t-30.5 223t30.5 224t74.5 93t75.5 -93t31.5 -224zM244 356l-64 130l-29 162l-26 -152l-46 24l39 -154l-45 -113l77 -15l29 -122l12 217z" />
    <glyph glyph-name="paragraph" unicode="&#xb6;" horiz-adv-x="269" 
d="M232 0h-35v730h-19v-730h-35v274q-60 11 -90.5 66.5t-30.5 181.5q0 136 24 191t78 55h108v-768zM143 311v419q-9 0 -14 -6t-8 -29.5t-4 -62t-1 -112.5q0 -127 4.5 -161t22.5 -48z" />
    <glyph glyph-name="periodcentered" unicode="&#xb7;" horiz-adv-x="150" 
d="M109 306h-68v132h68v-132z" />
    <glyph glyph-name="cedilla" unicode="&#xb8;" horiz-adv-x="315" 
d="M249 -87q0 -39 -25 -59t-58 -20q-47 0 -78 27l16 36q24 -23 58 -23q18 0 28.5 10.5t10.5 28.5q0 19 -11.5 28.5t-29.5 9.5q-14 0 -18 -1l8 41h10q89 0 89 -78z" />
    <glyph glyph-name="onesuperior" unicode="&#xb9;" 
d="M257 388q0 -130 -31.5 -222.5t-75.5 -92.5t-74.5 92t-30.5 223t30.5 224t74.5 93t75.5 -93t31.5 -224zM244 356l-64 130l-29 162l-26 -152l-46 24l39 -154l-45 -113l77 -15l29 -122l12 217z" />
    <glyph glyph-name="ordmasculine" unicode="&#xba;" horiz-adv-x="272" 
d="M247 571q0 -113 -23.5 -155.5t-87.5 -42.5q-59 0 -85 44t-26 154q0 112 24.5 160t86.5 48q60 0 85.5 -49t25.5 -159zM249 296h-226v42h226v-42zM182 571q0 103 -9.5 133t-36.5 30q-18 0 -27 -10.5t-14 -46t-5 -106.5q0 -70 5.5 -104.5t14 -43t26.5 -8.5q19 0 27.5 8
t13.5 42t5 106z" />
    <glyph glyph-name="guillemotright" unicode="&#xbb;" horiz-adv-x="245" 
d="M220 297l-94 -122v87l60 82l-60 80v88l94 -121v-94zM115 297l-94 -122v87l60 82l-60 80v88l94 -121v-94z" />
    <glyph glyph-name="onequarter" unicode="&#xbc;" 
d="M257 388q0 -130 -31.5 -222.5t-75.5 -92.5t-74.5 92t-30.5 223t30.5 224t74.5 93t75.5 -93t31.5 -224zM244 356l-64 130l-29 162l-26 -152l-46 24l39 -154l-45 -113l77 -15l29 -122l12 217z" />
    <glyph glyph-name="onehalf" unicode="&#xbd;" 
d="M257 388q0 -130 -31.5 -222.5t-75.5 -92.5t-74.5 92t-30.5 223t30.5 224t74.5 93t75.5 -93t31.5 -224zM244 356l-64 130l-29 162l-26 -152l-46 24l39 -154l-45 -113l77 -15l29 -122l12 217z" />
    <glyph glyph-name="threequarters" unicode="&#xbe;" 
d="M257 388q0 -130 -31.5 -222.5t-75.5 -92.5t-74.5 92t-30.5 223t30.5 224t74.5 93t75.5 -93t31.5 -224zM244 356l-64 130l-29 162l-26 -152l-46 24l39 -154l-45 -113l77 -15l29 -122l12 217z" />
    <glyph glyph-name="questiondown" unicode="&#xbf;" horiz-adv-x="260" 
d="M219 635h-70v132h70v-132zM240 120q0 -132 -110 -132q-29 0 -49 10t-37 36t-25.5 75t-8.5 122q0 113 22.5 159.5t67.5 46.5q46 0 63 -42l-2 129h52v-248h-48q-2 52 -12 74t-34 22q-22 0 -30 -43t-8 -135q0 -86 11.5 -116t40.5 -30q25 0 34 17.5t9 65.5q0 17 -6 62l63 -3
q7 -25 7 -70z" />
    <glyph glyph-name="Agrave" unicode="&#xc0;" horiz-adv-x="276" 
d="M265 0h-73l-14 138h-90l-12 -138h-65l89 774h69zM171 199l-37 412l-39 -412h76zM160 800h-38l-58 106h72z" />
    <glyph glyph-name="Aacute" unicode="&#xc1;" horiz-adv-x="276" 
d="M265 0h-73l-14 138h-90l-12 -138h-65l89 774h69zM171 199l-37 412l-39 -412h76zM203 906l-58 -106h-38l24 106h72z" />
    <glyph glyph-name="Acircumflex" unicode="&#xc2;" horiz-adv-x="276" 
d="M265 0h-73l-14 138h-90l-12 -138h-65l89 774h69zM171 199l-37 412l-39 -412h76zM215 800h-41l-37 50l-36 -50h-41l49 106h57z" />
    <glyph glyph-name="Atilde" unicode="&#xc3;" horiz-adv-x="276" 
d="M265 0h-73l-14 138h-90l-12 -138h-65l89 774h69zM171 199l-37 412l-39 -412h76zM230 848q0 -20 -13 -34t-41 -14t-45 13q-24 18 -35 18q-18 0 -18 -12q0 -6 2 -10h-29q-7 10 -7 26q0 18 10.5 31t35.5 13q34 0 54 -13q25 -18 36 -18q16 0 16 14q0 7 -2 11h29q7 -12 7 -25z
" />
    <glyph glyph-name="Adieresis" unicode="&#xc4;" horiz-adv-x="276" 
d="M265 0h-73l-14 138h-90l-12 -138h-65l89 774h69zM171 199l-37 412l-39 -412h76zM254 800h-94v59h94v-59zM117 800h-94v59h94v-59z" />
    <glyph glyph-name="Aring" unicode="&#xc5;" horiz-adv-x="276" 
d="M265 0h-73l-14 138h-90l-12 -138h-65l84 734q-37 22 -37 65q0 32 22.5 55t54.5 23t54.5 -23t22.5 -55q0 -44 -38 -66zM171 799q0 17 -10 28.5t-26 11.5t-26 -11.5t-10 -28.5q0 -16 10 -27t26 -11t26 11t10 27zM171 199l-37 412l-39 -412h76z" />
    <glyph glyph-name="AE" unicode="&#xc6;" horiz-adv-x="387" 
d="M382 0h-205v138h-104l-29 -138h-65l184 768h203v-58h-120v-289h106v-59h-106v-303h136v-59zM177 199v411l-89 -411h89z" />
    <glyph glyph-name="Ccedilla" unicode="&#xc7;" horiz-adv-x="278" 
d="M255 323q9 -99 5.5 -173.5t-32 -118t-81.5 -43.5q-74 0 -99.5 78.5t-25.5 291.5q0 242 26.5 331.5t99.5 89.5q53 0 79 -38.5t28 -104t-4 -152.5l-62 -2q10 127 0 183t-43 56q-19 0 -29.5 -29t-16 -104.5t-5.5 -211.5q0 -186 10 -257.5t46 -71.5q19 0 31 29.5t15.5 91
t-5.5 155.5h63zM227 -93q0 -39 -25 -59t-58 -20q-47 0 -78 27l16 36q24 -23 58 -23q18 0 28.5 10.5t10.5 28.5q0 19 -11.5 28.5t-29.5 9.5q-14 0 -18 -1l8 41h10q89 0 89 -78z" />
    <glyph glyph-name="Egrave" unicode="&#xc8;" horiz-adv-x="247" 
d="M242 0h-205v768h189v-59h-120v-288h106v-59h-106v-303h136v-59zM181 800h-38l-58 106h72z" />
    <glyph glyph-name="Eacute" unicode="&#xc9;" horiz-adv-x="247" 
d="M242 0h-205v768h189v-59h-120v-288h106v-59h-106v-303h136v-59zM201 906l-58 -106h-38l24 106h72z" />
    <glyph glyph-name="Ecircumflex" unicode="&#xca;" horiz-adv-x="247" 
d="M242 0h-205v768h189v-59h-120v-288h106v-59h-106v-303h136v-59zM206 800h-41l-37 50l-36 -50h-41l49 106h57z" />
    <glyph glyph-name="Edieresis" unicode="&#xcb;" horiz-adv-x="247" 
d="M242 0h-205v768h189v-59h-120v-288h106v-59h-106v-303h136v-59zM249 800h-94v59h94v-59zM112 800h-94v59h94v-59z" />
    <glyph glyph-name="Igrave" unicode="&#xcc;" horiz-adv-x="144" 
d="M107 0h-70v768h70v-768zM140 906l-58 -106h-38l24 106h72z" />
    <glyph glyph-name="Iacute" unicode="&#xcd;" horiz-adv-x="144" 
d="M107 0h-70v768h70v-768zM140 906l-58 -106h-38l24 106h72z" />
    <glyph glyph-name="Icircumflex" unicode="&#xce;" horiz-adv-x="144" 
d="M107 0h-70v768h70v-768zM151 800h-41l-37 50l-36 -50h-41l49 106h57z" />
    <glyph glyph-name="Idieresis" unicode="&#xcf;" horiz-adv-x="144" 
d="M107 0h-70v768h70v-768zM191 800h-94v59h94v-59zM54 800h-94v59h94v-59z" />
    <glyph glyph-name="Eth" unicode="&#xd0;" horiz-adv-x="313" 
d="M291 345q0 -143 -13 -215.5t-41.5 -101t-85.5 -28.5h-114v354h-45v58h45v356h108q37 0 61 -14.5t45 -56.5t30.5 -129t9.5 -223zM218 327q0 156 -8.5 239.5t-26 114.5t-48.5 31h-28v-300h78v-58h-78v-294h31q33 0 48 15.5t23.5 73t8.5 178.5z" />
    <glyph glyph-name="Ntilde" unicode="&#xd1;" horiz-adv-x="305" 
d="M268 0h-60l-108 505v-505h-63v768h64l105 -503v503h62v-768zM258 859q0 -24 -11.5 -41.5t-35.5 -17.5q-21 0 -44 14q-16 10 -50 34q-14 9 -23 9q-14 0 -14 -21q0 -11 6 -23h-30q-9 21 -9 44q0 24 11.5 41.5t35.5 17.5q23 0 41 -12q14 -9 53 -36q12 -9 23 -9q14 0 14 21
q0 11 -6 23h30q9 -18 9 -44z" />
    <glyph glyph-name="Ograve" unicode="&#xd2;" horiz-adv-x="293" 
d="M271 378q0 -232 -24 -311t-101 -79q-32 0 -53 12t-35.5 37t-22 73t-10.5 110t-3 158q0 235 24 318t100 83t100.5 -83.5t24.5 -317.5zM198 380q0 235 -8 282q-13 60 -45 62q-35 0 -42.5 -56.5t-7.5 -238.5v-49q0 -236 6 -277q8 -53 36 -57q4 -1 9 -1q38 0 45 55.5t7 279.5
zM181 800h-38l-58 106h72z" />
    <glyph glyph-name="Oacute" unicode="&#xd3;" horiz-adv-x="293" 
d="M271 378q0 -232 -24 -311t-101 -79q-32 0 -53 12t-35.5 37t-22 73t-10.5 110t-3 158q0 235 24 318t100 83t100.5 -83.5t24.5 -317.5zM198 380q0 235 -8 282q-13 60 -45 62q-35 0 -42.5 -56.5t-7.5 -238.5v-49q0 -236 6 -277q8 -53 36 -57q4 -1 9 -1q38 0 45 55.5t7 279.5
zM183 800h-38l-58 106h72z" />
    <glyph glyph-name="Ocircumflex" unicode="&#xd4;" horiz-adv-x="293" 
d="M271 378q0 -232 -24 -311t-101 -79q-32 0 -53 12t-35.5 37t-22 73t-10.5 110t-3 158q0 235 24 318t100 83t100.5 -83.5t24.5 -317.5zM198 380q0 235 -8 282q-13 60 -45 62q-35 0 -42.5 -56.5t-7.5 -238.5v-49q0 -236 6 -277q8 -53 36 -57q4 -1 9 -1q38 0 45 55.5t7 279.5
zM223 800h-41l-37 50l-36 -50h-41l49 106h57z" />
    <glyph glyph-name="Otilde" unicode="&#xd5;" horiz-adv-x="293" 
d="M271 378q0 -232 -24 -311t-101 -79q-32 0 -53 12t-35.5 37t-22 73t-10.5 110t-3 158q0 235 24 318t100 83t100.5 -83.5t24.5 -317.5zM198 380q0 235 -8 282q-13 60 -45 62q-35 0 -42.5 -56.5t-7.5 -238.5v-49q0 -236 6 -277q8 -53 36 -57q4 -1 9 -1q38 0 45 55.5t7 279.5
zM242 848q0 -20 -13 -34t-41 -14t-45 13q-24 18 -35 18q-18 0 -18 -12q0 -6 2 -10h-29q-7 10 -7 26q0 18 10.5 31t35.5 13q34 0 54 -13q25 -18 36 -18q16 0 16 14q0 7 -2 11h29q7 -12 7 -25z" />
    <glyph glyph-name="Odieresis" unicode="&#xd6;" horiz-adv-x="293" 
d="M271 378q0 -232 -24 -311t-101 -79q-32 0 -53 12t-35.5 37t-22 73t-10.5 110t-3 158q0 235 24 318t100 83t100.5 -83.5t24.5 -317.5zM198 380q0 235 -8 282q-13 60 -45 62q-35 0 -42.5 -56.5t-7.5 -238.5v-49q0 -236 6 -277q8 -53 36 -57q4 -1 9 -1q38 0 45 55.5t7 279.5
zM262 800h-94v59h94v-59zM125 800h-94v59h94v-59z" />
    <glyph glyph-name="multiply" unicode="&#xd7;" 
d="M257 388q0 -130 -31.5 -222.5t-75.5 -92.5t-74.5 92t-30.5 223t30.5 224t74.5 93t75.5 -93t31.5 -224zM244 356l-64 130l-29 162l-26 -152l-46 24l39 -154l-45 -113l77 -15l29 -122l12 217z" />
    <glyph glyph-name="Oslash" unicode="&#xd8;" horiz-adv-x="293" 
d="M273 789l-26 -95q24 -83 24 -316q0 -232 -24 -311t-101 -79q-57 0 -82 39l-14 -49h-46l33 122q-15 75 -15 278q0 235 24 318t100 83q45 0 71 -27l10 37h46zM191 663q-6 33 -16.5 47t-29.5 14q-35 0 -42.5 -56.5t-7.5 -238.5v-49v-76zM198 380v140l-101 -376q4 -57 14 -78
t35 -21q38 0 45 55.5t7 279.5z" />
    <glyph glyph-name="Ugrave" unicode="&#xd9;" horiz-adv-x="320" 
d="M285 124q0 -68 -29.5 -102t-95.5 -34t-95.5 34t-29.5 102v644h70v-650q0 -70 55 -70t55 70v650h70v-644zM195 800h-38l-58 106h72z" />
    <glyph glyph-name="Uacute" unicode="&#xda;" horiz-adv-x="320" 
d="M285 124q0 -68 -29.5 -102t-95.5 -34t-95.5 34t-29.5 102v644h70v-650q0 -70 55 -70t55 70v650h70v-644zM220 906l-58 -106h-38l24 106h72z" />
    <glyph glyph-name="Ucircumflex" unicode="&#xdb;" horiz-adv-x="320" 
d="M285 124q0 -68 -29.5 -102t-95.5 -34t-95.5 34t-29.5 102v644h70v-650q0 -70 55 -70t55 70v650h70v-644zM240 800h-41l-37 50l-36 -50h-41l49 106h57z" />
    <glyph glyph-name="Udieresis" unicode="&#xdc;" horiz-adv-x="320" 
d="M285 124q0 -68 -29.5 -102t-95.5 -34t-95.5 34t-29.5 102v644h70v-650q0 -70 55 -70t55 70v650h70v-644zM276 800h-94v59h94v-59zM139 800h-94v59h94v-59z" />
    <glyph glyph-name="Yacute" unicode="&#xdd;" horiz-adv-x="282" 
d="M281 768l-105 -466v-302h-70v301l-109 467h73l73 -358l69 358h69zM200 906l-58 -106h-38l24 106h72z" />
    <glyph glyph-name="Thorn" unicode="&#xde;" horiz-adv-x="291" 
d="M278 375q0 -53 -5.5 -90t-15.5 -59.5t-26 -35.5t-33.5 -17t-43.5 -4h-47v-169h-70v768h70v-172h55q58 0 87 -51.5t29 -169.5zM209 371q0 97 -16.5 133t-55.5 36h-30v-316h41q35 0 48 33t13 114z" />
    <glyph glyph-name="germandbls" unicode="&#xdf;" horiz-adv-x="337" 
d="M285 217q0 -124 -34 -170.5t-101 -46.5v61q11 0 17.5 1.5t16.5 11t15.5 27t10 52t4.5 83.5q0 63 -19 102t-45 39v62q18 0 29 8t19 39.5t8 89.5q0 84 -13.5 116t-40.5 32q-48 0 -48 -148v-576h-67v597q0 89 30 135.5t88 46.5q62 0 90 -51.5t28 -159.5q0 -81 -20 -114
t-55 -43q43 -18 65 -62t22 -132z" />
    <glyph glyph-name="agrave" unicode="&#xe0;" horiz-adv-x="249" 
d="M248 6q-20 -14 -45 -14q-35 0 -43 34q-8 -11 -13 -17t-16.5 -11.5t-26.5 -5.5q-42 0 -63 32q-24 38 -24 135q0 69 25 106t79 65q20 10 24 14.5t5 16.5q2 40 2 76q0 45 -7 62.5t-25 17.5q-36 0 -36 -71q0 -27 6 -57l-55 -3q-7 26 -7 56q0 61 24 88t73 27q87 0 87 -104
v-376q0 -41 17 -41q10 0 19 7v-37zM151 89v212q-42 -18 -57 -52.5t-15 -101.5q0 -66 8 -88t30 -22q16 0 25 16t9 36zM152 587h-38l-58 106h72z" />
    <glyph glyph-name="aacute" unicode="&#xe1;" horiz-adv-x="249" 
d="M248 6q-20 -14 -45 -14q-35 0 -43 34q-8 -11 -13 -17t-16.5 -11.5t-26.5 -5.5q-42 0 -63 32q-24 38 -24 135q0 69 25 106t79 65q20 10 24 14.5t5 16.5q2 40 2 76q0 45 -7 62.5t-25 17.5q-36 0 -36 -71q0 -27 6 -57l-55 -3q-7 26 -7 56q0 61 24 88t73 27q87 0 87 -104
v-376q0 -41 17 -41q10 0 19 7v-37zM151 89v212q-42 -18 -57 -52.5t-15 -101.5q0 -66 8 -88t30 -22q16 0 25 16t9 36zM187 693l-58 -106h-38l24 106h72z" />
    <glyph glyph-name="acircumflex" unicode="&#xe2;" horiz-adv-x="249" 
d="M248 6q-20 -14 -45 -14q-35 0 -43 34q-8 -11 -13 -17t-16.5 -11.5t-26.5 -5.5q-42 0 -63 32q-24 38 -24 135q0 69 25 106t79 65q20 10 24 14.5t5 16.5q2 40 2 76q0 45 -7 62.5t-25 17.5q-36 0 -36 -71q0 -27 6 -57l-55 -3q-7 26 -7 56q0 61 24 88t73 27q87 0 87 -104
v-376q0 -41 17 -41q10 0 19 7v-37zM151 89v212q-42 -18 -57 -52.5t-15 -101.5q0 -66 8 -88t30 -22q16 0 25 16t9 36zM200 587h-41l-37 50l-36 -50h-41l49 106h57z" />
    <glyph glyph-name="atilde" unicode="&#xe3;" horiz-adv-x="249" 
d="M248 6q-20 -14 -45 -14q-35 0 -43 34q-8 -11 -13 -17t-16.5 -11.5t-26.5 -5.5q-42 0 -63 32q-24 38 -24 135q0 69 25 106t79 65q20 10 24 14.5t5 16.5q2 40 2 76q0 45 -7 62.5t-25 17.5q-36 0 -36 -71q0 -27 6 -57l-55 -3q-7 26 -7 56q0 61 24 88t73 27q87 0 87 -104
v-376q0 -41 17 -41q10 0 19 7v-37zM151 89v212q-42 -18 -57 -52.5t-15 -101.5q0 -66 8 -88t30 -22q16 0 25 16t9 36zM218 635q0 -20 -13 -34t-41 -14t-45 13q-24 18 -35 18q-18 0 -18 -12q0 -6 2 -10h-29q-7 10 -7 26q0 18 10.5 31t35.5 13q34 0 54 -13q25 -18 36 -18
q16 0 16 14q0 7 -2 11h29q7 -12 7 -25z" />
    <glyph glyph-name="adieresis" unicode="&#xe4;" horiz-adv-x="249" 
d="M248 6q-20 -14 -45 -14q-35 0 -43 34q-8 -11 -13 -17t-16.5 -11.5t-26.5 -5.5q-42 0 -63 32q-24 38 -24 135q0 69 25 106t79 65q20 10 24 14.5t5 16.5q2 40 2 76q0 45 -7 62.5t-25 17.5q-36 0 -36 -71q0 -27 6 -57l-55 -3q-7 26 -7 56q0 61 24 88t73 27q87 0 87 -104
v-376q0 -41 17 -41q10 0 19 7v-37zM151 89v212q-42 -18 -57 -52.5t-15 -101.5q0 -66 8 -88t30 -22q16 0 25 16t9 36zM243 587h-94v59h94v-59zM106 587h-94v59h94v-59z" />
    <glyph glyph-name="aring" unicode="&#xe5;" horiz-adv-x="249" 
d="M199 664q0 -32 -22.5 -54.5t-54.5 -22.5t-54.5 22.5t-22.5 54.5t22.5 54.5t54.5 22.5t54.5 -22.5t22.5 -54.5zM158 664q0 16 -10.5 27.5t-25.5 11.5t-25.5 -11.5t-10.5 -27.5t10.5 -27.5t25.5 -11.5t25.5 11.5t10.5 27.5zM248 6q-20 -14 -45 -14q-35 0 -43 34
q-8 -11 -13 -17t-16.5 -11.5t-26.5 -5.5q-42 0 -63 32q-24 38 -24 135q0 69 25 106t79 65q20 10 24 14.5t5 16.5q2 40 2 76q0 45 -7 62.5t-25 17.5q-36 0 -36 -71q0 -27 6 -57l-55 -3q-7 26 -7 56q0 61 24 88t73 27q87 0 87 -104v-376q0 -41 17 -41q10 0 19 7v-37zM151 89
v212q-42 -18 -57 -52.5t-15 -101.5q0 -66 8 -88t30 -22q16 0 25 16t9 36z" />
    <glyph glyph-name="ae" unicode="&#xe6;" horiz-adv-x="374" 
d="M355 126q0 -135 -93 -135q-67 0 -89 56q-12 -26 -27 -40.5t-42 -14.5q-45 0 -63 32q-24 36 -24 135q0 69 25 106t79 65q20 10 24 14.5t5 16.5q2 40 2 76q0 44 -7 62t-25 18q-36 0 -36 -71q0 -27 6 -57l-55 -3q-7 26 -7 57q0 114 97 114q47 0 68 -29q21 29 64 29
q54 0 75.5 -51t21.5 -169q0 -40 -3 -73h-137q0 -37 0.5 -58.5t1.5 -52.5t4.5 -49t8.5 -36t13.5 -26t19.5 -8q23 0 31 24.5t8 93.5q0 6 -3 45l53 -2q4 -24 4 -69zM297 382q0 75 -9.5 103.5t-31.5 28.5q-24 0 -33.5 -48t-9.5 -160h82q2 24 2 76zM151 89v212q-42 -18 -57 -52.5
t-15 -101.5q0 -66 8 -88t30 -22q16 0 25 16t9 36z" />
    <glyph glyph-name="ccedilla" unicode="&#xe7;" horiz-adv-x="238" 
d="M222 152q0 -89 -19.5 -125t-76.5 -36q-42 0 -64 23t-32 85t-10 182q0 113 12 174t33 81.5t59 20.5q50 0 71 -33.5t21 -112.5q0 -33 -4 -57l-57 -2q3 39 3 56q0 56 -6.5 80.5t-27.5 24.5q-13 0 -20 -8.5t-12 -35.5t-6.5 -73t-1.5 -126t2 -125t7.5 -71t13 -33t22.5 -7
q21 0 28 25t7 99q0 11 -4 71l55 -3q7 -33 7 -74zM207 -90q0 -39 -25 -59t-58 -20q-47 0 -78 27l16 36q24 -23 58 -23q18 0 28.5 10.5t10.5 28.5q0 19 -11.5 28.5t-29.5 9.5q-14 0 -18 -1l8 41h10q89 0 89 -78z" />
    <glyph glyph-name="egrave" unicode="&#xe8;" horiz-adv-x="242" 
d="M223 126q0 -135 -93 -135q-42 0 -64 18t-34 74t-12 166q0 125 12 193t33.5 91.5t59.5 23.5q54 0 75.5 -51t21.5 -169q0 -40 -3 -73h-137q0 -37 0.5 -58.5t1.5 -52.5t4.5 -49t8.5 -36t13.5 -26t19.5 -8q23 0 31 24.5t8 93.5q0 6 -3 45l53 -2q4 -24 4 -69zM165 382
q0 75 -9.5 103.5t-31.5 28.5q-24 0 -33.5 -48t-9.5 -160h82q2 24 2 76zM167 587h-38l-58 106h72z" />
    <glyph glyph-name="eacute" unicode="&#xe9;" horiz-adv-x="242" 
d="M223 126q0 -135 -93 -135q-42 0 -64 18t-34 74t-12 166q0 125 12 193t33.5 91.5t59.5 23.5q54 0 75.5 -51t21.5 -169q0 -40 -3 -73h-137q0 -37 0.5 -58.5t1.5 -52.5t4.5 -49t8.5 -36t13.5 -26t19.5 -8q23 0 31 24.5t8 93.5q0 6 -3 45l53 -2q4 -24 4 -69zM165 382
q0 75 -9.5 103.5t-31.5 28.5q-24 0 -33.5 -48t-9.5 -160h82q2 24 2 76zM189 693l-58 -106h-38l24 106h72z" />
    <glyph glyph-name="ecircumflex" unicode="&#xea;" horiz-adv-x="242" 
d="M223 126q0 -135 -93 -135q-42 0 -64 18t-34 74t-12 166q0 125 12 193t33.5 91.5t59.5 23.5q54 0 75.5 -51t21.5 -169q0 -40 -3 -73h-137q0 -37 0.5 -58.5t1.5 -52.5t4.5 -49t8.5 -36t13.5 -26t19.5 -8q23 0 31 24.5t8 93.5q0 6 -3 45l53 -2q4 -24 4 -69zM165 382
q0 75 -9.5 103.5t-31.5 28.5q-24 0 -33.5 -48t-9.5 -160h82q2 24 2 76zM202 587h-41l-37 50l-36 -50h-41l49 106h57z" />
    <glyph glyph-name="edieresis" unicode="&#xeb;" horiz-adv-x="242" 
d="M223 126q0 -135 -93 -135q-42 0 -64 18t-34 74t-12 166q0 125 12 193t33.5 91.5t59.5 23.5q54 0 75.5 -51t21.5 -169q0 -40 -3 -73h-137q0 -37 0.5 -58.5t1.5 -52.5t4.5 -49t8.5 -36t13.5 -26t19.5 -8q23 0 31 24.5t8 93.5q0 6 -3 45l53 -2q4 -24 4 -69zM165 382
q0 75 -9.5 103.5t-31.5 28.5q-24 0 -33.5 -48t-9.5 -160h82q2 24 2 76zM240 587h-94v59h94v-59zM103 587h-94v59h94v-59z" />
    <glyph glyph-name="igrave" unicode="&#xec;" horiz-adv-x="108" 
d="M85 0h-62v551h62v-551zM79 587h-38l-58 106h72z" />
    <glyph glyph-name="iacute" unicode="&#xed;" horiz-adv-x="108" 
d="M85 0h-62v551h62v-551zM128 693l-58 -106h-38l24 106h72z" />
    <glyph glyph-name="icircumflex" unicode="&#xee;" horiz-adv-x="108" 
d="M85 0h-62v551h62v-551zM132 587h-41l-37 50l-36 -50h-41l49 106h57z" />
    <glyph glyph-name="idieresis" unicode="&#xef;" horiz-adv-x="108" 
d="M85 0h-62v551h62v-551zM170 587h-94v59h94v-59zM33 587h-94v59h94v-59z" />
    <glyph glyph-name="eth" unicode="&#xf0;" horiz-adv-x="256" 
d="M267 713q0 -39 -46 -53q12 -90 12 -384q0 -137 -26.5 -210t-89.5 -73q-35 0 -55 22.5t-30.5 83.5t-10.5 170q0 165 24 226.5t71 61.5q36 0 57 -48q0 83 -6 144q-38 -8 -16 -35l-16 -11q-28 15 -28 42q0 19 14 33.5t40 18.5q-8 51 -31 51q-18 0 -41 -38l-37 30
q13 18 20 27t24 19t37 10q63 0 79 -90q14 4 17 16t-5 22l15 9q28 -13 28 -44zM172 275q0 131 -9.5 183t-34.5 52q-26 0 -34.5 -45t-8.5 -189q0 -145 8 -190.5t33 -45.5q46 0 46 235z" />
    <glyph glyph-name="ntilde" unicode="&#xf1;" horiz-adv-x="248" 
d="M226 0h-63v464q0 45 -35 45q-17 0 -30 -18.5t-13 -49.5v-441h-62v551h61v-35q25 41 67 41q35 0 55 -21t20 -60v-476zM216 635q0 -20 -13 -34t-41 -14t-45 13q-24 18 -35 18q-18 0 -18 -12q0 -6 2 -10h-29q-7 10 -7 26q0 18 10.5 31t35.5 13q34 0 54 -13q25 -18 36 -18
q16 0 16 14q0 7 -2 11h29q7 -12 7 -25z" />
    <glyph glyph-name="ograve" unicode="&#xf2;" horiz-adv-x="253" 
d="M233 274q0 -115 -12 -177.5t-34 -84t-61 -21.5t-60.5 21.5t-33.5 83.5t-12 178t12 178t33.5 83.5t60.5 21.5t61 -21.5t34 -84t12 -177.5zM169 275q0 145 -8.5 191t-34.5 46t-34 -45.5t-8 -193.5q0 -146 8 -191.5t34 -45.5t34.5 46t8.5 193zM164 587h-38l-58 106h72z" />
    <glyph glyph-name="oacute" unicode="&#xf3;" horiz-adv-x="253" 
d="M233 274q0 -115 -12 -177.5t-34 -84t-61 -21.5t-60.5 21.5t-33.5 83.5t-12 178t12 178t33.5 83.5t60.5 21.5t61 -21.5t34 -84t12 -177.5zM169 275q0 145 -8.5 191t-34.5 46t-34 -45.5t-8 -193.5q0 -146 8 -191.5t34 -45.5t34.5 46t8.5 193zM182 693l-58 -106h-38l24 106
h72z" />
    <glyph glyph-name="ocircumflex" unicode="&#xf4;" horiz-adv-x="253" 
d="M233 274q0 -115 -12 -177.5t-34 -84t-61 -21.5t-60.5 21.5t-33.5 83.5t-12 178t12 178t33.5 83.5t60.5 21.5t61 -21.5t34 -84t12 -177.5zM169 275q0 145 -8.5 191t-34.5 46t-34 -45.5t-8 -193.5q0 -146 8 -191.5t34 -45.5t34.5 46t8.5 193zM202 587h-41l-37 50l-36 -50
h-41l49 106h57z" />
    <glyph glyph-name="otilde" unicode="&#xf5;" horiz-adv-x="253" 
d="M233 274q0 -115 -12 -177.5t-34 -84t-61 -21.5t-60.5 21.5t-33.5 83.5t-12 178t12 178t33.5 83.5t60.5 21.5t61 -21.5t34 -84t12 -177.5zM169 275q0 145 -8.5 191t-34.5 46t-34 -45.5t-8 -193.5q0 -146 8 -191.5t34 -45.5t34.5 46t8.5 193zM220 635q0 -20 -13 -34
t-41 -14t-45 13q-24 18 -35 18q-18 0 -18 -12q0 -6 2 -10h-29q-7 10 -7 26q0 18 10.5 31t35.5 13q34 0 54 -13q25 -18 36 -18q16 0 16 14q0 7 -2 11h29q7 -12 7 -25z" />
    <glyph glyph-name="odieresis" unicode="&#xf6;" horiz-adv-x="253" 
d="M233 274q0 -115 -12 -177.5t-34 -84t-61 -21.5t-60.5 21.5t-33.5 83.5t-12 178t12 178t33.5 83.5t60.5 21.5t61 -21.5t34 -84t12 -177.5zM169 275q0 145 -8.5 191t-34.5 46t-34 -45.5t-8 -193.5q0 -146 8 -191.5t34 -45.5t34.5 46t8.5 193zM242 587h-94v59h94v-59z
M105 587h-94v59h94v-59z" />
    <glyph glyph-name="divide" unicode="&#xf7;" 
d="M257 388q0 -130 -31.5 -222.5t-75.5 -92.5t-74.5 92t-30.5 223t30.5 224t74.5 93t75.5 -93t31.5 -224zM244 356l-64 130l-29 162l-26 -152l-46 24l39 -154l-45 -113l77 -15l29 -122l12 217z" />
    <glyph glyph-name="oslash" unicode="&#xf8;" horiz-adv-x="253" 
d="M263 570l-43 -111q13 -62 13 -185q0 -115 -12 -177.5t-34 -84t-61 -21.5q-51 0 -73 38l-20 -51h-44l43 112q-12 63 -12 184q0 116 12 178t33.5 83.5t60.5 21.5q51 0 74 -39l20 52h43zM165 434q-4 46 -13 62t-26 16q-26 0 -34 -45.5t-8 -193.5v-56zM169 275v57l-81 -218
q4 -46 12.5 -62t25.5 -16q26 0 34.5 46t8.5 193z" />
    <glyph glyph-name="ugrave" unicode="&#xf9;" horiz-adv-x="248" 
d="M225 0h-61q0 25 1 41q-20 -48 -71 -48q-72 0 -72 84v474h63v-463q0 -44 33 -44q21 0 33 23.5t12 60.5v423h62v-551zM164 587h-38l-58 106h72z" />
    <glyph glyph-name="uacute" unicode="&#xfa;" horiz-adv-x="248" 
d="M225 0h-61q0 25 1 41q-20 -48 -71 -48q-72 0 -72 84v474h63v-463q0 -44 33 -44q21 0 33 23.5t12 60.5v423h62v-551zM182 693l-58 -106h-38l24 106h72z" />
    <glyph glyph-name="ucircumflex" unicode="&#xfb;" horiz-adv-x="248" 
d="M225 0h-61q0 25 1 41q-20 -48 -71 -48q-72 0 -72 84v474h63v-463q0 -44 33 -44q21 0 33 23.5t12 60.5v423h62v-551zM202 587h-41l-37 50l-36 -50h-41l49 106h57z" />
    <glyph glyph-name="udieresis" unicode="&#xfc;" horiz-adv-x="248" 
d="M225 0h-61q0 25 1 41q-20 -48 -71 -48q-72 0 -72 84v474h63v-463q0 -44 33 -44q21 0 33 23.5t12 60.5v423h62v-551zM239 587h-94v59h94v-59zM102 587h-94v59h94v-59z" />
    <glyph glyph-name="yacute" unicode="&#xfd;" horiz-adv-x="240" 
d="M230 551q-71 -514 -76 -551q-14 -104 -35 -140.5t-66 -36.5q-84 0 -84 82q0 27 2 42l54 10q-3 -30 -3 -37q0 -27 7 -38.5t24 -11.5t27.5 24t17.5 91l-99 566h65l58 -418l45 418h63zM186 693l-58 -106h-38l24 106h72z" />
    <glyph glyph-name="thorn" unicode="&#xfe;" horiz-adv-x="256" 
d="M234 271q0 -116 -11 -178t-31 -82t-56 -20q-18 0 -32.5 10.5t-19.5 26.5v-203h-61v943h61v-258q20 47 63 47q29 0 47 -22.5t29 -87t11 -176.5zM170 272q0 97 -4 148.5t-12.5 70t-24.5 18.5q-17 0 -26.5 -16t-15 -69t-5.5 -153q0 -138 9.5 -186.5t35.5 -48.5
q15 0 22.5 7.5t12.5 34.5t6.5 70t1.5 124z" />
    <glyph glyph-name="ydieresis" unicode="&#xff;" horiz-adv-x="240" 
d="M230 551q-71 -514 -76 -551q-14 -104 -35 -140.5t-66 -36.5q-84 0 -84 82q0 27 2 42l54 10q-3 -30 -3 -37q0 -27 7 -38.5t24 -11.5t27.5 24t17.5 91l-99 566h65l58 -418l45 418h63zM232 587h-94v59h94v-59zM95 587h-94v59h94v-59z" />
    <glyph glyph-name="dotlessi" unicode="&#x131;" horiz-adv-x="108" 
d="M85 0h-62v551h62v-551z" />
    <glyph glyph-name="Lslash" unicode="&#x141;" horiz-adv-x="250" 
d="M250 0h-213v277l-33 -28l-35 43l68 58v418h70v-359l80 68l35 -43l-115 -97v-277h143v-60z" />
    <glyph glyph-name="lslash" unicode="&#x142;" horiz-adv-x="188" 
d="M210 424l-85 -73v-351h-62v299l-29 -25l-35 43l64 55v396h62v-344l50 43z" />
    <glyph glyph-name="OE" unicode="&#x152;" horiz-adv-x="408" 
d="M403 0h-203q-26 -12 -54 -12q-32 0 -53 12t-35.5 37t-22 73t-10.5 110t-3 158q0 235 24 318t100 83q29 0 51 -11h190v-59h-120v-288h106v-59h-106v-303h136v-59zM198 380q0 225 -8.5 284.5t-44.5 59.5q-35 0 -42.5 -56.5t-7.5 -238.5v-49q0 -236 6 -277q8 -53 36 -57
q4 -1 9 -1q36 0 44 55.5t8 279.5z" />
    <glyph glyph-name="oe" unicode="&#x153;" horiz-adv-x="391" 
d="M372 126q0 -135 -93 -135q-56 0 -80 39q-23 -39 -73 -39q-39 0 -60.5 21.5t-33.5 83.5t-12 178t12 178t33.5 83.5t60.5 21.5q54 0 76 -45q21 45 72 45q54 0 75.5 -51t21.5 -169q0 -40 -3 -73h-137q0 -37 0.5 -58.5t1.5 -52.5t4.5 -49t8.5 -36t13.5 -26t19.5 -8
q23 0 31 24.5t8 93.5q0 6 -3 45l53 -2q4 -24 4 -69zM314 382q0 75 -9.5 103.5t-31.5 28.5q-24 0 -33.5 -48t-9.5 -160h82q2 24 2 76zM169 275q0 145 -8.5 191t-34.5 46t-34 -45.5t-8 -193.5q0 -146 8 -191.5t34 -45.5t34.5 46t8.5 193z" />
    <glyph glyph-name="Scaron" unicode="&#x160;" horiz-adv-x="283" 
d="M271 200q0 -212 -128 -212q-59 0 -89.5 39.5t-30.5 136.5q0 52 10 106l64 8q-7 -53 -7 -117q0 -68 13 -92t42 -24q26 0 41 26t15 102q0 78 -19 122t-70 85q-52 42 -75 87.5t-23 117.5q0 96 31 145t88 49q116 0 116 -158q0 -38 -7 -75l-62 -11q4 27 4 77q0 114 -51 114
q-49 0 -49 -112q0 -40 3 -63.5t16 -43.5t22 -28.5t38 -33.5q60 -51 84 -103.5t24 -141.5zM213 906l-49 -106h-57l-49 106h41l36 -50l37 50h41z" />
    <glyph glyph-name="scaron" unicode="&#x161;" horiz-adv-x="239" 
d="M224 151q0 -160 -110 -160q-95 0 -95 120q0 31 6 75l55 10q-6 -34 -6 -72q0 -45 8.5 -64t30.5 -19q47 0 47 88q0 44 -15.5 72.5t-60.5 67.5q-37 32 -52 62t-15 82q0 72 27.5 108t71.5 36q91 0 91 -119q0 -31 -5 -56l-55 -3q5 55 5 63q0 67 -37 67q-38 0 -38 -71
q0 -41 9 -60t52 -57q49 -44 67.5 -80t18.5 -90zM193 693l-49 -106h-57l-49 106h41l36 -50l37 50h41z" />
    <glyph glyph-name="Ydieresis" unicode="&#x178;" horiz-adv-x="282" 
d="M281 768l-105 -466v-302h-70v301l-109 467h73l73 -358l69 358h69zM258 800h-94v59h94v-59zM121 800h-94v59h94v-59z" />
    <glyph glyph-name="Zcaron" unicode="&#x17d;" horiz-adv-x="257" 
d="M247 706l-172 -646h169v-60h-237v61l172 648h-153v59h221v-62zM224 906l-49 -106h-57l-49 106h41l36 -50l37 50h41z" />
    <glyph glyph-name="zcaron" unicode="&#x17e;" horiz-adv-x="190" 
d="M184 500l-115 -448h114v-52h-179v43l118 459h-95v49h157v-51zM187 693l-49 -106h-57l-49 106h41l36 -50l37 50h41z" />
    <glyph glyph-name="florin" unicode="&#x192;" horiz-adv-x="257" 
d="M239 666q0 -23 -4 -67l-49 -1q4 48 4 60q0 37 -4.5 49.5t-15.5 12.5q-13 0 -13 -35v-134h38v-46h-38v-431q0 -49 -19.5 -74.5t-50.5 -25.5q-70 0 -70 101q0 14 4 58l49 1q-3 -36 -3 -51q0 -53 17 -53q12 0 12 30v445h-33v46h33v125q0 49 20.5 74.5t52.5 25.5
q70 0 70 -110z" />
    <glyph glyph-name="circumflex" unicode="&#x2c6;" horiz-adv-x="315" 
d="M235 662h-41l-37 50l-36 -50h-41l49 106h57z" />
    <glyph glyph-name="caron" unicode="&#x2c7;" horiz-adv-x="315" 
d="M235 768l-49 -106h-57l-49 106h41l36 -50l37 50h41z" />
    <glyph glyph-name="breve" unicode="&#x2d8;" horiz-adv-x="315" 
d="M263 768q0 -34 -25.5 -62.5t-79.5 -28.5t-79.5 28.5t-25.5 62.5h60q0 -43 45 -43t45 43h60z" />
    <glyph glyph-name="dotaccent" unicode="&#x2d9;" horiz-adv-x="315" 
d="M210 702h-106v66h106v-66z" />
    <glyph glyph-name="ring" unicode="&#x2da;" horiz-adv-x="315" 
d="M234 691q0 -32 -22.5 -54.5t-54.5 -22.5t-54.5 22.5t-22.5 54.5t22.5 54.5t54.5 22.5t54.5 -22.5t22.5 -54.5zM193 691q0 16 -10.5 27.5t-25.5 11.5t-25.5 -11.5t-10.5 -27.5t10.5 -27.5t25.5 -11.5t25.5 11.5t10.5 27.5z" />
    <glyph glyph-name="ogonek" unicode="&#x2db;" horiz-adv-x="315" 
d="M214 -106q0 -20 -13.5 -36.5t-39.5 -16.5q-68 0 -68 72q0 22 18 48.5t41 38.5h43q-57 -45 -57 -96q0 -27 21 -27q15 0 15 17q0 9 -8 19l35 13q13 -13 13 -32z" />
    <glyph glyph-name="tilde" unicode="&#x2dc;" horiz-adv-x="315" 
d="M251 737q0 -20 -13 -34t-41 -14t-45 13q-24 18 -35 18q-18 0 -18 -12q0 -6 2 -10h-29q-7 10 -7 26q0 18 10.5 31t35.5 13q34 0 54 -13q25 -18 36 -18q16 0 16 14q0 7 -2 11h29q7 -12 7 -25z" />
    <glyph glyph-name="hungarumlaut" unicode="&#x2dd;" horiz-adv-x="315" 
d="M267 768l-68 -106h-38l34 106h72zM171 768l-68 -106h-38l34 106h72z" />
    <glyph glyph-name="Delta" unicode="&#x394;" 
d="M257 388q0 -130 -31.5 -222.5t-75.5 -92.5t-74.5 92t-30.5 223t30.5 224t74.5 93t75.5 -93t31.5 -224zM244 356l-64 130l-29 162l-26 -152l-46 24l39 -154l-45 -113l77 -15l29 -122l12 217z" />
    <glyph glyph-name="Omega" unicode="&#x3a9;" 
d="M257 388q0 -130 -31.5 -222.5t-75.5 -92.5t-74.5 92t-30.5 223t30.5 224t74.5 93t75.5 -93t31.5 -224zM244 356l-64 130l-29 162l-26 -152l-46 24l39 -154l-45 -113l77 -15l29 -122l12 217z" />
    <glyph glyph-name="pi" unicode="&#x3c0;" horiz-adv-x="520" 
d="M480 543q0 -92 -64 -157.5t-155 -65.5t-156 65.5t-65 157.5q0 93 65 159t156 66t155 -66t64 -159zM453 543q0 84 -56 142.5t-136 58.5q-81 0 -137 -58.5t-56 -142.5q0 -83 56 -141t137 -58q80 0 136 58t56 141zM360 614q0 -58 -24 -82t-77 -24h-14v-124h-52v322h76
q91 0 91 -92zM303 611q0 35 -8.5 48.5t-32.5 13.5h-17v-128h13q26 0 35.5 14.5t9.5 51.5z" />
    <glyph glyph-name="endash" unicode="&#x2013;" horiz-adv-x="517" 
d="M489 315h-464v58h464v-58z" />
    <glyph glyph-name="emdash" unicode="&#x2014;" horiz-adv-x="764" 
d="M739 315h-714v58h714v-58z" />
    <glyph glyph-name="quoteleft" unicode="&#x2018;" horiz-adv-x="148" 
d="M110 545h-70v136q0 59 39 98l22 -34q-18 -30 -18 -68h27v-132z" />
    <glyph glyph-name="quoteright" unicode="&#x2019;" horiz-adv-x="148" 
d="M108 632q0 -59 -39 -98l-22 34q18 30 18 68h-27v132h70v-136z" />
    <glyph glyph-name="quotesinglbase" unicode="&#x201a;" horiz-adv-x="148" 
d="M108 -4q0 -59 -39 -98l-22 34q18 30 18 68h-27v132h70v-136z" />
    <glyph glyph-name="quotedblleft" unicode="&#x201c;" horiz-adv-x="263" 
d="M225 545h-70v136q0 59 39 98l22 -34q-18 -30 -18 -68h27v-132zM110 545h-70v136q0 59 39 98l22 -34q-18 -30 -18 -68h27v-132z" />
    <glyph glyph-name="quotedblright" unicode="&#x201d;" horiz-adv-x="263" 
d="M223 632q0 -59 -39 -98l-22 34q18 30 18 68h-27v132h70v-136zM108 632q0 -59 -39 -98l-22 34q18 30 18 68h-27v132h70v-136z" />
    <glyph glyph-name="quotedblbase" unicode="&#x201e;" horiz-adv-x="263" 
d="M223 -4q0 -59 -39 -98l-22 34q18 30 18 68h-27v132h70v-136zM108 -4q0 -59 -39 -98l-22 34q18 30 18 68h-27v132h70v-136z" />
    <glyph glyph-name="dagger" unicode="&#x2020;" horiz-adv-x="273" 
d="M253 568h-84v-611h-65v611h-84v60h84v140h65v-140h84v-60z" />
    <glyph glyph-name="daggerdbl" unicode="&#x2021;" horiz-adv-x="273" 
d="M253 193h-84v-236h-65v236h-84v60h84v315h-84v60h84v140h65v-140h84v-60h-84v-315h84v-60z" />
    <glyph glyph-name="bullet" unicode="&#x2022;" horiz-adv-x="270" 
d="M255 384q0 -50 -35.5 -85t-84.5 -35t-84.5 35t-35.5 85t35.5 85t84.5 35t84.5 -35t35.5 -85z" />
    <glyph glyph-name="ellipsis" unicode="&#x2026;" horiz-adv-x="363" 
d="M322 0h-65v132h65v-132zM214 0h-65v132h65v-132zM106 0h-65v132h65v-132z" />
    <glyph glyph-name="perthousand" unicode="&#x2030;" horiz-adv-x="699" 
d="M687 192q0 -110 -22.5 -155.5t-72.5 -45.5t-72.5 45.5t-22.5 155.5q0 124 22.5 172.5t72.5 48.5t72.5 -48.5t22.5 -172.5zM202 553q0 -110 -22.5 -155.5t-72.5 -45.5t-72.5 45.5t-22.5 155.5q0 124 22.5 172.5t72.5 48.5t72.5 -48.5t22.5 -172.5zM450 760l-378 -760h-50
l378 760h50zM462 192q0 -110 -22.5 -155.5t-72.5 -45.5t-72.5 45.5t-22.5 155.5q0 124 22.5 172.5t72.5 48.5t72.5 -48.5t22.5 -172.5zM627 201q0 67 -4 102t-11 46t-20 11t-20 -11t-11 -46t-4 -102q0 -66 4 -100.5t11 -45.5t20 -11t20 11t11 45.5t4 100.5zM142 562
q0 68 -3.5 102t-10.5 45.5t-21 11.5q-13 0 -20 -11t-11 -46t-4 -102q0 -66 4 -100.5t11 -45.5t20 -11t20 11t11 45.5t4 100.5zM402 201q0 67 -4 102t-11 46t-20 11t-20 -11t-11 -46t-4 -102q0 -66 4 -100.5t11 -45.5t20 -11t20 11t11 45.5t4 100.5z" />
    <glyph glyph-name="guilsinglleft" unicode="&#x2039;" horiz-adv-x="140" 
d="M119 175l-94 122v94l94 121v-88l-60 -80l60 -82v-87z" />
    <glyph glyph-name="guilsinglright" unicode="&#x203a;" horiz-adv-x="140" 
d="M115 297l-94 -122v87l60 82l-60 80v88l94 -121v-94z" />
    <glyph glyph-name="fraction" unicode="&#x2044;" horiz-adv-x="215" 
d="M346 779l-444 -807h-44l444 807h44z" />
    <glyph glyph-name="trademark" unicode="&#x2122;" horiz-adv-x="321" 
d="M306 537h-40v165l-26 -165h-30l-26 165v-165h-40v231h58l23 -154l23 154h58v-231zM125 729h-39v-192h-40v192h-39v39h118v-39z" />
    <glyph glyph-name="partialdiff" unicode="&#x2202;" 
d="M257 388q0 -130 -31.5 -222.5t-75.5 -92.5t-74.5 92t-30.5 223t30.5 224t74.5 93t75.5 -93t31.5 -224zM244 356l-64 130l-29 162l-26 -152l-46 24l39 -154l-45 -113l77 -15l29 -122l12 217z" />
    <glyph glyph-name="product" unicode="&#x220f;" 
d="M257 388q0 -130 -31.5 -222.5t-75.5 -92.5t-74.5 92t-30.5 223t30.5 224t74.5 93t75.5 -93t31.5 -224zM244 356l-64 130l-29 162l-26 -152l-46 24l39 -154l-45 -113l77 -15l29 -122l12 217z" />
    <glyph glyph-name="summation" unicode="&#x2211;" 
d="M257 388q0 -130 -31.5 -222.5t-75.5 -92.5t-74.5 92t-30.5 223t30.5 224t74.5 93t75.5 -93t31.5 -224zM244 356l-64 130l-29 162l-26 -152l-46 24l39 -154l-45 -113l77 -15l29 -122l12 217z" />
    <glyph glyph-name="minus" unicode="&#x2212;" 
d="M257 388q0 -130 -31.5 -222.5t-75.5 -92.5t-74.5 92t-30.5 223t30.5 224t74.5 93t75.5 -93t31.5 -224zM244 356l-64 130l-29 162l-26 -152l-46 24l39 -154l-45 -113l77 -15l29 -122l12 217z" />
    <glyph glyph-name="radical" unicode="&#x221a;" horiz-adv-x="469" 
d="M506 829q-39 -59 -87.5 -177.5t-81.5 -224.5q-83 -273 -110 -452l-63 -37l-147 342l74 35l98 -264q35 207 94 394q60 189 133 332z" />
    <glyph glyph-name="infinity" unicode="&#x221e;" horiz-adv-x="393" 
d="M370 0h-61v505h-71v-505h-62v505h-71v-505h-62v505h-41v46h41v115q0 57 27 83.5t70 26.5q35 0 62 -22q21 22 57 22q80 0 80 -99q0 -23 -3 -46l-51 -6q3 36 3 45q0 58 -27 58q-23 0 -23 -55v-122h132v-551zM179 700q-11 28 -37 28q-37 0 -37 -55v-122h71v115q0 7 3 34z
" />
    <glyph glyph-name="integral" unicode="&#x222b;" 
d="M257 388q0 -130 -31.5 -222.5t-75.5 -92.5t-74.5 92t-30.5 223t30.5 224t74.5 93t75.5 -93t31.5 -224zM244 356l-64 130l-29 162l-26 -152l-46 24l39 -154l-45 -113l77 -15l29 -122l12 217z" />
    <glyph glyph-name="approxequal" unicode="&#x2248;" 
d="M257 388q0 -130 -31.5 -222.5t-75.5 -92.5t-74.5 92t-30.5 223t30.5 224t74.5 93t75.5 -93t31.5 -224zM244 356l-64 130l-29 162l-26 -152l-46 24l39 -154l-45 -113l77 -15l29 -122l12 217z" />
    <glyph glyph-name="notequal" unicode="&#x2260;" horiz-adv-x="294" 
d="M339 677q0 -23 -3 -46l-51 -6q3 33 3 45q0 58 -27 58q-23 0 -23 -55v-122h58v-46h-58v-505h-62v505h-71v-505h-62v505h-41v46h41v115q0 57 27 83.5t70 26.5q35 0 62 -22q21 22 57 22q80 0 80 -99zM179 700q-11 28 -37 28q-37 0 -37 -55v-122h71v115q0 7 3 34z" />
    <glyph glyph-name="lessequal" unicode="&#x2264;" 
d="M257 388q0 -130 -31.5 -222.5t-75.5 -92.5t-74.5 92t-30.5 223t30.5 224t74.5 93t75.5 -93t31.5 -224zM244 356l-64 130l-29 162l-26 -152l-46 24l39 -154l-45 -113l77 -15l29 -122l12 217z" />
    <glyph glyph-name="greaterequal" unicode="&#x2265;" 
d="M257 388q0 -130 -31.5 -222.5t-75.5 -92.5t-74.5 92t-30.5 223t30.5 224t74.5 93t75.5 -93t31.5 -224zM244 356l-64 130l-29 162l-26 -152l-46 24l39 -154l-45 -113l77 -15l29 -122l12 217z" />
    <glyph glyph-name="lozenge" unicode="&#x25ca;" 
d="M257 388q0 -130 -31.5 -222.5t-75.5 -92.5t-74.5 92t-30.5 223t30.5 224t74.5 93t75.5 -93t31.5 -224zM244 356l-64 130l-29 162l-26 -152l-46 24l39 -154l-45 -113l77 -15l29 -122l12 217z" />
    <glyph glyph-name="apple" unicode="&#xf8ff;" 
d="M257 388q0 -130 -31.5 -222.5t-75.5 -92.5t-74.5 92t-30.5 223t30.5 224t74.5 93t75.5 -93t31.5 -224zM244 356l-64 130l-29 162l-26 -152l-46 24l39 -154l-45 -113l77 -15l29 -122l12 217z" />
    <glyph glyph-name="fi" unicode="&#xfb01;" horiz-adv-x="261" 
d="M238 0h-61v505h-71v-505h-63v505h-41v46h41v117q0 108 84 108q80 0 80 -99q0 -23 -3 -46l-51 -6q3 36 3 45q0 58 -27 58q-23 0 -23 -55v-122h81h51v-551z" />
    <glyph glyph-name="fl" unicode="&#xfb02;" horiz-adv-x="263" 
d="M240 0h-63v702q-20 26 -48 26q-23 0 -23 -48v-129h58v-46h-58v-505h-63v505h-41v46h41v117q0 108 84 108q31 0 59 -14l54 6v-768z" />
    <glyph glyph-name="NUL" horiz-adv-x="0" 
 />
    </font>
</defs>
</svg>
