<?xml version="1.0" standalone="no"?>
<!DOCTYPE svg PUBLIC "-//W3C//DTD SVG 1.1//EN" "http://www.w3.org/Graphics/SVG/1.1/DTD/svg11.dtd" >
<svg xmlns="http://www.w3.org/2000/svg" xmlns:xlink="http://www.w3.org/1999/xlink" version="1.1">
<metadata>
Created by FontForge 20170731 at Mon May  7 09:28:14 2007
 By Aleksey,,,
Copr.1993 The Font Bureau, Inc.
</metadata>
<defs>
<font id="BureauGrotesque-FiveOne" horiz-adv-x="593" >
  <font-face 
    font-family="BureauGrotesque FiveOne"
    font-weight="500"
    font-stretch="normal"
    units-per-em="1000"
    panose-1="0 0 0 0 0 0 0 0 0 0"
    ascent="800"
    descent="-200"
    x-height="574"
    cap-height="768"
    bbox="-187 -200 1000 934"
    underline-thickness="20"
    underline-position="-173"
    unicode-range="U+0020-FB02"
  />
<missing-glyph horiz-adv-x="500" 
 />
    <glyph glyph-name=".notdef" horiz-adv-x="500" 
 />
    <glyph glyph-name=".null" horiz-adv-x="0" 
 />
    <glyph glyph-name="nonmarkingreturn" horiz-adv-x="333" 
 />
    <glyph glyph-name="space" unicode=" " horiz-adv-x="240" 
 />
    <glyph glyph-name="exclam" unicode="!" horiz-adv-x="179" 
d="M139 768l-22 -522h-55l-22 522h99zM140 0h-101v115h101v-115z" />
    <glyph glyph-name="quotedbl" unicode="&#x22;" horiz-adv-x="288" 
d="M238 768l-5 -223h-55l-5 223h65zM115 768l-5 -223h-55l-5 223h65z" />
    <glyph glyph-name="numbersign" unicode="#" horiz-adv-x="576" 
d="M539 476h-104l-21 -184h99v-69h-107l-30 -223h-52l20 223h-142l-30 -223h-55l23 223h-104v69h112l21 184h-105v69h113l30 223h55l-23 -223h142l30 223h55l-23 -223h96v-69zM373 476h-142l-21 -184h142z" />
    <glyph glyph-name="dollar" unicode="$" horiz-adv-x="576" 
d="M529 204q0 -181 -205 -209v-85h-65v85q-92 6 -149 48t-57 123q0 59 15 101l70 -1q-12 -48 -12 -75q0 -120 133 -130v311l-36 14q-80 31 -120.5 74t-40.5 108q0 84 53 141t144 62v55h65v-55q92 -5 145.5 -57.5t53.5 -126.5q0 -31 -9 -56h-76q9 21 9 57q0 42 -37 77t-86 39
v-273q102 -38 153.5 -88.5t51.5 -138.5zM259 453v251q-59 -7 -90 -40.5t-31 -82.5t28.5 -75t92.5 -53zM454 197q0 108 -130 151v-284q54 6 92 39.5t38 93.5z" />
    <glyph glyph-name="percent" unicode="%" horiz-adv-x="696" 
d="M304 579q0 -98 -28.5 -149t-104.5 -51t-104.5 51t-28.5 149q0 99 28.5 150t104.5 51t104.5 -51t28.5 -150zM591 768l-421 -768h-65l422 768h64zM658 188q0 -98 -28.5 -149t-104.5 -51t-104.5 51t-28.5 149q0 99 28.5 150t104.5 51t104.5 -51t28.5 -150zM232 579
q0 86 -10 113.5t-51 27.5t-51 -27.5t-10 -113.5t10 -113.5t51 -27.5t51 27.5t10 113.5zM586 188q0 86 -10 113.5t-51 27.5t-51 -27.5t-10 -113.5t10 -113.5t51 -27.5t51 27.5t10 113.5z" />
    <glyph glyph-name="ampersand" unicode="&#x26;" horiz-adv-x="752" 
d="M722 146q0 -68 -34.5 -111t-106.5 -43q-46 0 -77 18.5t-60 59.5q-49 -42 -90.5 -62t-96.5 -20q-101 0 -159.5 60.5t-58.5 153.5q0 75 49.5 140.5t122.5 108.5q-48 77 -48 163q0 71 44.5 118.5t113.5 47.5q66 0 106.5 -43.5t40.5 -112.5q0 -123 -161 -195q11 -19 41.5 -73
t56 -96.5t51.5 -78.5q27 35 54 115.5t33 149.5l70 -13q-32 -193 -115 -305q38 -68 86 -68q35 0 55 23.5t20 85.5q0 41 -8 77h59q12 -63 12 -100zM393 637q0 34 -20 55t-53 21q-37 0 -59.5 -29.5t-22.5 -66.5q0 -69 37 -131q64 36 91 67t27 84zM407 123q-70 100 -162 268
q-53 -29 -89.5 -77t-36.5 -104q0 -65 39.5 -111t103.5 -46q73 0 145 70z" />
    <glyph glyph-name="quotesingle" unicode="'" horiz-adv-x="169" 
d="M119 768l-5 -223h-59l-5 223h69z" />
    <glyph glyph-name="parenleft" unicode="(" horiz-adv-x="361" 
d="M307 -112h-71q-182 142 -182 451q0 310 182 452h71q-170 -133 -170 -452q0 -318 170 -451z" />
    <glyph glyph-name="parenright" unicode=")" horiz-adv-x="361" 
d="M307 339q0 -309 -182 -451h-71q170 133 170 451q0 319 -170 452h71q182 -142 182 -452z" />
    <glyph glyph-name="asterisk" unicode="*" horiz-adv-x="394" 
d="M345 576l-28 -50l-90 52v-104h-57v103l-90 -52l-29 50l90 52l-90 52l29 50l90 -52v103h57v-104l90 52l28 -50l-88 -51z" />
    <glyph glyph-name="plus" unicode="+" horiz-adv-x="660" 
d="M580 340h-215v-212h-70v212h-215v69h215v212h70v-212h215v-69z" />
    <glyph glyph-name="comma" unicode="," horiz-adv-x="259" 
d="M186 0q0 -75 -48 -110q-24 -20 -78 -27l-9 40q38 11 55 25q29 28 19 72h-52v124h113v-124z" />
    <glyph glyph-name="hyphen" unicode="-" horiz-adv-x="305" 
d="M255 290h-205v77h205v-77z" />
    <glyph glyph-name="period" unicode="." horiz-adv-x="259" 
d="M189 0h-119v126h119v-126z" />
    <glyph glyph-name="slash" unicode="/" horiz-adv-x="450" 
d="M450 768l-380 -768h-70l380 768h70z" />
    <glyph glyph-name="zero" unicode="0" horiz-adv-x="517" 
d="M473 350q0 -82 -10 -144t-33 -113t-66.5 -78t-105.5 -27q-118 0 -166 92.5t-48 269.5q0 225 47 327.5t167 102.5q122 0 168.5 -101.5t46.5 -328.5zM389 376q0 50 -1.5 85.5t-5.5 77.5t-13 70t-23 53t-36.5 37t-51.5 12t-51 -12.5t-36 -37t-23 -53t-13.5 -70t-6 -77.5
t-1.5 -85t1 -79t4.5 -72t12.5 -68t22.5 -51t36.5 -37t54 -12t54 12t37 37.5t22.5 51t12 68t4.5 72t1 78.5z" />
    <glyph glyph-name="one" unicode="1" horiz-adv-x="315" 
d="M254 0h-82v611q-43 -19 -86 -19q-51 0 -69 2v49q66 3 121 39q44 30 65 86h51v-768z" />
    <glyph glyph-name="two" unicode="2" horiz-adv-x="500" 
d="M460 542q0 -57 -29.5 -123t-77.5 -126.5t-90 -104t-87 -83.5l-34 -30h310v-75h-397v93l30 26q290 251 290 421q0 91 -31.5 131t-91.5 40q-55 0 -82.5 -43t-27.5 -122q0 -15 2.5 -39.5t5.5 -41.5l2 -17h-80q-13 79 -13 117q0 90 50 152.5t142 62.5q107 0 158 -55.5
t51 -182.5z" />
    <glyph glyph-name="three" unicode="3" horiz-adv-x="500" 
d="M455 253q0 -265 -215 -265q-84 0 -135 46.5t-51 129.5q0 48 12 85l75 5q-9 -34 -9 -63q0 -65 30.5 -101.5t84.5 -36.5q56 0 90.5 48t34.5 145q0 164 -97 164q-10 0 -19 -2t-14 -3t-13 -7t-10 -7t-12 -11t-12 -11l-49 43l193 279h-267v77h353v-77l-166 -234q22 13 61 13
q51 0 93 -56t42 -161z" />
    <glyph glyph-name="four" unicode="4" horiz-adv-x="500" 
d="M477 184h-94v-184h-81v184h-266v87l239 497h108v-512h94v-72zM302 256v418l-202 -418h202z" />
    <glyph glyph-name="five" unicode="5" horiz-adv-x="480" 
d="M438 257q0 -269 -199 -269q-91 0 -139.5 45t-48.5 133q0 41 7 70l74 -1q-4 -22 -4 -49q0 -67 26 -98.5t79 -31.5q65 0 92 50.5t27 151.5q0 112 -25 159.5t-81 47.5q-48 0 -76 -32.5t-44 -97.5l-64 16l19 417h312l-3 -71h-242l-13 -234q26 36 55 54t83 18q165 0 165 -278z
" />
    <glyph glyph-name="six" unicode="6" horiz-adv-x="500" 
d="M461 236q0 -118 -56 -183t-149 -65q-51 0 -87.5 16.5t-65 57.5t-42.5 116t-14 187q0 156 23.5 247.5t68 129.5t118.5 38q83 0 130.5 -41t52.5 -107q2 -24 0 -42l-82 -6q2 9 2 28q-2 46 -28 73.5t-77 27.5q-112 0 -128 -206q-6 -84 -4 -126q18 47 58.5 75.5t96.5 28.5
q82 0 132.5 -58.5t50.5 -190.5zM378 238q0 97 -26.5 136.5t-96.5 39.5q-56 0 -91 -52t-35 -130q0 -83 36.5 -129t89.5 -46q56 0 89.5 44.5t33.5 136.5z" />
    <glyph glyph-name="seven" unicode="7" horiz-adv-x="476" 
d="M438 681q-96 -98 -147.5 -237.5t-51.5 -271.5q0 -91 9 -172h-97q-3 63 -3 78q0 194 69.5 369.5t163.5 245.5h-349l-3 75h409v-87z" />
    <glyph glyph-name="eight" unicode="8" horiz-adv-x="500" 
d="M456 203q0 -98 -53 -156.5t-148 -58.5t-148 54.5t-53 160.5q0 75 31.5 125.5t70.5 66.5q-35 13 -60.5 54.5t-25.5 106.5q0 110 48.5 167t137.5 57q94 0 141.5 -57t47.5 -166q0 -66 -27.5 -107t-66.5 -55q44 -13 74.5 -64t30.5 -128zM368 570q0 145 -113 145
q-108 0 -108 -143q0 -68 30.5 -105.5t77.5 -37.5q113 0 113 141zM376 207q0 71 -30 112.5t-91 41.5q-58 0 -89.5 -42.5t-31.5 -111.5q0 -154 121 -154q61 0 91 37t30 117z" />
    <glyph glyph-name="nine" unicode="9" horiz-adv-x="500" 
d="M456 403q0 -225 -50.5 -320t-160.5 -95q-89 0 -137.5 46.5t-48.5 124.5q0 6 4 42l82 5q-2 -9 -2 -27q0 -124 104 -124q58 0 87.5 53t37.5 173q4 63 2 108q-43 -106 -151 -106q-182 0 -182 249q0 121 55 184.5t150 63.5q52 0 88 -15.5t65 -56t43 -116t14 -189.5zM369 536
q0 79 -32.5 127.5t-89.5 48.5q-122 0 -122 -182q0 -97 28.5 -137t86.5 -40q56 0 92.5 52.5t36.5 130.5z" />
    <glyph glyph-name="colon" unicode=":" horiz-adv-x="259" 
d="M187 404h-115v124h115v-124zM187 0h-115v124h115v-124z" />
    <glyph glyph-name="semicolon" unicode=";" horiz-adv-x="259" 
d="M187 404h-115v124h115v-124zM186 0q0 -75 -48 -110q-24 -20 -78 -27l-9 40q38 11 55 25q29 28 19 72h-52v124h113v-124z" />
    <glyph glyph-name="less" unicode="&#x3c;" horiz-adv-x="437" 
d="M368 124l-306 150v96l306 150v-68l-256 -130l256 -130v-68z" />
    <glyph glyph-name="equal" unicode="=" horiz-adv-x="508" 
d="M453 378h-398v70h398v-70zM453 186h-398v70h398v-70z" />
    <glyph glyph-name="greater" unicode="&#x3e;" horiz-adv-x="437" 
d="M376 274l-306 -150v68l256 130l-256 130v68l306 -150v-96z" />
    <glyph glyph-name="question" unicode="?" horiz-adv-x="462" 
d="M434 548q0 -141 -41 -197.5t-118 -56.5q-87 0 -108 59q5 -47 5 -75v-63h-64v264h55q3 -53 25 -87.5t69 -34.5q53 0 72.5 41t19.5 145q0 76 -28 121t-84 45q-57 0 -78 -25t-21 -76q0 -24 10 -50h-72q-10 28 -10 66q0 68 42 112t131 44q92 0 143.5 -61t51.5 -171zM196 0
h-103v115h103v-115z" />
    <glyph glyph-name="at" unicode="@" horiz-adv-x="842" 
d="M797 388q0 -152 -52.5 -234t-152.5 -82q-40 0 -62 22.5t-22 60.5q-13 -43 -49.5 -64.5t-75.5 -21.5q-66 0 -103.5 38t-37.5 104q0 109 139 155q52 17 123 25q0 84 -19 109t-72 25q-47 0 -62.5 -18.5t-15.5 -51.5q0 -10 4 -22l-74 -5q-4 20 -4 36q0 57 40.5 90t113.5 33
q81 0 119.5 -37t38.5 -130v-236q0 -34 7.5 -45.5t32.5 -11.5q57 0 88.5 71t31.5 186q0 69 -18 129.5t-54.5 110t-97 78t-139.5 28.5q-130 0 -221.5 -120t-91.5 -300q0 -198 87 -302.5t239 -104.5q58 0 114 29t83 61l35 -36q-102 -100 -237 -100q-184 0 -285.5 113.5
t-101.5 340.5q0 210 107 341t281 131q176 0 270 -109t94 -286zM504 252v81q-99 -15 -144.5 -46.5t-45.5 -83.5q0 -36 19.5 -52t62.5 -16q42 0 75 34t33 83z" />
    <glyph glyph-name="A" unicode="A" horiz-adv-x="602" 
d="M582 0h-88l-54 188h-291l-50 -188h-79l214 768h123zM424 255l-130 450l-128 -450h258z" />
    <glyph glyph-name="B" unicode="B" 
d="M547 217q0 -119 -55.5 -168t-151.5 -49h-278v768h246q108 0 164 -52.5t56 -154.5q0 -145 -117 -158q59 -5 97.5 -51.5t38.5 -134.5zM446 558q0 141 -145 141h-157v-262h159q74 0 108.5 28.5t34.5 92.5zM465 224q0 143 -151 143h-170v-297h172q75 0 112 34.5t37 119.5z
" />
    <glyph glyph-name="C" unicode="C" horiz-adv-x="622" 
d="M564 265q-3 -140 -57 -208.5t-176 -68.5q-142 0 -214 90t-72 292q0 216 71.5 313t208.5 97q74 0 125.5 -23t76 -63.5t33 -85.5t4.5 -99h-86q10 87 -29.5 145t-119.5 58q-101 0 -149 -80t-48 -254q0 -163 46.5 -241.5t153.5 -78.5q39 0 66.5 11.5t42.5 28t23.5 48.5
t11 57.5t3.5 69.5z" />
    <glyph glyph-name="D" unicode="D" horiz-adv-x="628" 
d="M582 370q0 -201 -75.5 -285.5t-259.5 -84.5h-185v768h224q136 0 216 -99.5t80 -298.5zM500 370q0 326 -242 326h-114v-624h98q139 0 198.5 64t59.5 234z" />
    <glyph glyph-name="E" unicode="E" horiz-adv-x="518" 
d="M487 0h-425v768h402v-69h-320v-270h293v-69h-293v-291h343v-69z" />
    <glyph glyph-name="F" unicode="F" horiz-adv-x="481" 
d="M454 699h-310v-283h288v-69h-288v-347h-82v768h392v-69z" />
    <glyph glyph-name="G" unicode="G" horiz-adv-x="645" 
d="M590 3l-50 -8q-19 53 -29 73q-60 -80 -184 -80q-60 0 -108.5 19t-88.5 60.5t-62.5 116t-22.5 178.5q0 215 75 316.5t209 101.5q131 0 194 -67t55 -187l-86 -14q14 200 -159 200q-106 0 -155 -86.5t-49 -262.5q0 -165 51.5 -237t164.5 -72q167 0 167 191q0 26 -4 60h-153
v69h235v-371z" />
    <glyph glyph-name="H" unicode="H" horiz-adv-x="620" 
d="M558 0h-82v376h-332v-376h-82v768h82v-323h332v323h82v-768z" />
    <glyph glyph-name="I" unicode="I" horiz-adv-x="207" 
d="M145 0h-83v768h83v-768z" />
    <glyph glyph-name="J" unicode="J" horiz-adv-x="429" 
d="M376 219q0 -121 -41.5 -176t-136.5 -55q-85 0 -130 43t-45 128q0 33 8 75l83 4q-8 -42 -8 -78q0 -51 22.5 -73.5t68.5 -22.5q57 0 77 36.5t20 140.5v527h82v-549z" />
    <glyph glyph-name="K" unicode="K" horiz-adv-x="562" 
d="M555 0h-107l-304 343v-343h-82v768h82v-340l283 340h96l-314 -374z" />
    <glyph glyph-name="L" unicode="L" horiz-adv-x="459" 
d="M426 0h-364v768h82v-698h282v-70z" />
    <glyph glyph-name="M" unicode="M" horiz-adv-x="739" 
d="M677 0h-80v677l-193 -677h-69l-195 677v-677h-78v768h132l177 -622l177 622h129v-768z" />
    <glyph glyph-name="N" unicode="N" horiz-adv-x="612" 
d="M550 0h-105l-309 646v-646h-74v768h105l309 -646v646h74v-768z" />
    <glyph glyph-name="O" unicode="O" horiz-adv-x="654" 
d="M609 384q0 -205 -66.5 -300.5t-215.5 -95.5q-146 0 -214 94t-68 302q0 396 282 396t282 -396zM525 384q0 328 -198 328t-198 -328q0 -175 46.5 -251.5t151.5 -76.5q109 0 153.5 77.5t44.5 250.5z" />
    <glyph glyph-name="P" unicode="P" horiz-adv-x="547" 
d="M515 526q0 -115 -67.5 -166t-179.5 -51h-124v-309h-82v768h203q250 0 250 -242zM433 530q0 74 -39 121.5t-107 47.5h-143v-320h140q72 0 110.5 40.5t38.5 110.5z" />
    <glyph glyph-name="Q" unicode="Q" horiz-adv-x="654" 
d="M609 384q0 -190 -58.5 -283.5t-186.5 -106.5q-16 -13 -16 -33q0 -75 77 -75q27 0 43.5 9.5t35.5 31.5l36 -53q-44 -58 -116 -58t-111 34.5t-39 97.5q0 29 16 46q-245 15 -245 390q0 396 282 396q137 0 209.5 -98.5t72.5 -297.5zM525 384q0 328 -198 328t-198 -328
q0 -175 46.5 -250.5t151.5 -75.5q106 0 152 75.5t46 250.5z" />
    <glyph glyph-name="R" unicode="R" horiz-adv-x="588" 
d="M548 0h-88q-19 26 -19 88v130q0 56 -30.5 87.5t-91.5 31.5h-175v-337h-82v768h247q114 0 169 -55.5t55 -171.5q0 -151 -120 -166q65 -7 87.5 -52.5t24.5 -156.5q0 -23 3 -80q3 -62 20 -86zM449 541q0 82 -39 120.5t-124 38.5h-142v-293h154q85 0 118 33t33 101z" />
    <glyph glyph-name="S" unicode="S" horiz-adv-x="562" 
d="M515 196q0 -208 -243 -208q-222 0 -222 176q0 25 10 75l80 3q-8 -29 -8 -61q0 -65 34 -93.5t109 -28.5q81 0 119 31t38 104q0 55 -36 92t-125 75l-93 40q-126 52 -126 166q0 98 53 155.5t161 57.5q97 0 156 -51t59 -134q0 -29 -6 -53l-78 -2q5 28 5 37q0 59 -34 97
t-107 38q-63 0 -94 -31.5t-31 -88.5q0 -50 25.5 -76.5t93.5 -56.5l115 -51q145 -64 145 -212z" />
    <glyph glyph-name="T" unicode="T" horiz-adv-x="494" 
d="M473 697h-185v-697h-82v697h-188v71h455v-71z" />
    <glyph glyph-name="U" unicode="U" horiz-adv-x="610" 
d="M552 250q0 -64 -9.5 -108.5t-34.5 -81t-74 -54.5t-123 -18q-142 0 -197.5 61t-55.5 199v520h82v-559q0 -40 13.5 -71.5t53.5 -55t104 -23.5q46 0 79 14t49.5 37.5t23.5 48t7 52.5v557h82v-518z" />
    <glyph glyph-name="V" unicode="V" horiz-adv-x="567" 
d="M547 768l-230 -768h-81l-216 768h88l173 -647l186 647h80z" />
    <glyph glyph-name="W" unicode="W" horiz-adv-x="814" 
d="M791 768l-175 -768h-80l-131 628l-142 -628h-80l-163 768h85l123 -614l140 614h81l131 -614l133 614h78z" />
    <glyph glyph-name="X" unicode="X" horiz-adv-x="586" 
d="M557 0h-94l-178 323l-173 -323h-83l217 401l-205 367h94l160 -291l156 291h81l-196 -369z" />
    <glyph glyph-name="Y" unicode="Y" horiz-adv-x="560" 
d="M548 768l-222 -446v-322h-82v322l-232 446h90l189 -366l176 366h81z" />
    <glyph glyph-name="Z" unicode="Z" horiz-adv-x="532" 
d="M490 0h-451v90l373 609h-337v69h415v-92l-372 -607h372v-69z" />
    <glyph glyph-name="bracketleft" unicode="[" horiz-adv-x="260" 
d="M254 -95h-175v863h175v-65h-97v-733h97v-65z" />
    <glyph glyph-name="backslash" unicode="\" horiz-adv-x="450" 
d="M450 0h-70l-380 768h70z" />
    <glyph glyph-name="bracketright" unicode="]" horiz-adv-x="260" 
d="M181 -95h-175v65h97v733h-97v65h175v-863z" />
    <glyph glyph-name="asciicircum" unicode="^" horiz-adv-x="525" 
d="M417 573h-62l-86 115l-82 -115h-63l120 195h52z" />
    <glyph glyph-name="underscore" unicode="_" horiz-adv-x="500" 
d="M500 -199h-500v69h500v-69z" />
    <glyph glyph-name="grave" unicode="`" horiz-adv-x="540" 
d="M375 636h-56l-137 119v11h114z" />
    <glyph glyph-name="a" unicode="a" horiz-adv-x="500" 
d="M481 13q-28 -21 -68 -21q-65 0 -65 101q-17 -56 -59 -80.5t-88 -24.5q-78 0 -120 43t-42 121q0 127 160 179q63 21 145 29q0 98 -23.5 131t-85.5 33q-55 0 -74 -23.5t-19 -62.5q0 -12 4 -26l-81 -7q-4 28 -4 43q0 66 46 105t131 39q95 0 139 -43.5t44 -152.5v-287
q0 -26 9 -37t38 -11h13v-48zM344 200v94q-44 0 -97 -17q-70 -23 -99.5 -54.5t-29.5 -80.5q0 -81 97 -81q50 0 89.5 40.5t39.5 98.5z" />
    <glyph glyph-name="b" unicode="b" horiz-adv-x="524" 
d="M481 274q0 -78 -18 -136.5t-48.5 -89.5t-64 -45.5t-71.5 -14.5q-52 0 -90.5 27t-54.5 57l-40 -74h-34v770h78v-280q16 43 54 69.5t84 26.5q100 0 152.5 -73.5t52.5 -236.5zM403 276q0 127 -33 181.5t-98 54.5q-62 0 -98 -57.5t-36 -168.5q0 -123 33 -173.5t105 -50.5
q127 0 127 214z" />
    <glyph glyph-name="c" unicode="c" horiz-adv-x="483" 
d="M445 162q0 -72 -46 -123t-141 -51q-108 0 -161.5 69t-53.5 217q0 172 54.5 245t168.5 73q86 0 128.5 -47.5t42.5 -125.5q0 -22 -4 -42l-73 -4q3 10 3 28q0 120 -104 120q-71 0 -103.5 -54t-32.5 -166q0 -97 14.5 -150.5t43 -73.5t77.5 -20q61 0 86.5 34t25.5 104
q0 19 -5 42l73 -4q7 -33 7 -71z" />
    <glyph glyph-name="d" unicode="d" horiz-adv-x="524" 
d="M464 -1h-75v79q-16 -39 -56.5 -63.5t-96.5 -24.5q-86 0 -139.5 65.5t-53.5 218.5q0 159 54 233.5t145 74.5q48 0 86.5 -21t57.5 -62v269h78v-769zM386 286q0 105 -41.5 165.5t-99.5 60.5q-65 0 -93.5 -54t-28.5 -182q0 -116 34 -165t101 -49q128 0 128 224z" />
    <glyph glyph-name="e" unicode="e" horiz-adv-x="508" 
d="M459 312q0 -25 -1 -37h-334q0 -18 2 -48q6 -93 39.5 -131.5t105.5 -38.5q103 0 107 108l-1 23l77 -8q2 -13 1 -37q-5 -73 -54.5 -114t-138.5 -41q-116 0 -167.5 66.5t-51.5 224.5q0 170 54 241.5t163 71.5q182 0 197 -227q2 -30 2 -53zM377 340q0 33 -3 60
q-18 124 -115 124q-63 0 -99 -49t-36 -135h253z" />
    <glyph glyph-name="f" unicode="f" horiz-adv-x="287" 
d="M322 640l-66 5q21 74 -38 74q-48 0 -48 -67v-78h109v-68h-109v-506h-78v506h-85v68h85v58q0 71 28.5 109.5t95.5 38.5q72 0 97.5 -43t8.5 -97z" />
    <glyph glyph-name="g" unicode="g" horiz-adv-x="469" 
d="M455 -10q0 -178 -225 -178q-193 0 -193 119q0 43 21 77t68 47q-77 13 -77 86q0 70 84 100q-35 19 -54.5 64t-19.5 98q0 87 47 138t133 51q35 0 67 -13l15 104h90l-66 -122q75 -54 75 -158q0 -84 -48 -137t-124 -53q-38 0 -74 9q-35 -10 -45.5 -22.5t-10.5 -34.5
q0 -47 95 -38l75 7q72 6 119.5 -30t47.5 -114zM342 403q0 59 -25.5 93t-77.5 34q-102 0 -102 -127q0 -61 26 -94t76 -33q103 0 103 127zM389 -22q0 43 -29.5 59.5t-87.5 16.5q-54 0 -91 -8q-77 -36 -77 -93q0 -80 128 -80q84 0 120.5 26t36.5 79z" />
    <glyph glyph-name="h" unicode="h" horiz-adv-x="488" 
d="M431 0h-78v373q0 80 -23.5 110t-78.5 30q-54 0 -83.5 -48.5t-29.5 -123.5v-341h-78v768h78v-281q30 97 140 97q153 0 153 -190v-394z" />
    <glyph glyph-name="i" unicode="i" horiz-adv-x="198" 
d="M143 671h-88v97h88v-97zM138 0h-78v574h78v-574z" />
    <glyph glyph-name="j" unicode="j" horiz-adv-x="210" 
d="M155 671h-88v97h88v-97zM150 -27q0 -153 -132 -153q-112 0 -126 95q-2 15 0 35l66 6q-1 -13 0 -23q5 -49 57 -49q32 0 44.5 25.5t12.5 95.5v569h78v-601z" />
    <glyph glyph-name="k" unicode="k" horiz-adv-x="444" 
d="M429 0h-93l-127 258l-71 -116v-142h-78v768h78v-499l183 305h88l-147 -238z" />
    <glyph glyph-name="l" unicode="l" horiz-adv-x="198" 
d="M138 0h-78v768h78v-768z" />
    <glyph glyph-name="m" unicode="m" horiz-adv-x="768" 
d="M711 0h-77v373q0 80 -23 110t-76 30t-82 -49.5t-29 -122.5v-341h-77v373q0 80 -23 110t-77 30q-52 0 -81 -50t-29 -122v-341h-77v574h77v-87q14 47 51.5 72t85.5 25q110 0 140 -105q15 47 57 76t90 29q150 0 150 -190v-394z" />
    <glyph glyph-name="n" unicode="n" horiz-adv-x="488" 
d="M431 0h-78v373q0 80 -23.5 110t-78.5 30q-54 0 -83.5 -50t-29.5 -122v-341h-78v574h78v-84q39 94 140 94q153 0 153 -190v-394z" />
    <glyph glyph-name="o" unicode="o" horiz-adv-x="528" 
d="M485 290q0 -153 -61 -227.5t-160 -74.5t-160 74.5t-61 227.5t61 227.5t160 74.5t160 -74.5t61 -227.5zM407 290q0 42 -6 79t-20 74t-44 59t-73 22t-73 -22t-44 -59t-20 -74t-6 -79q0 -41 6 -78t20 -73.5t44 -58.5t73 -22t73 22t44 58.5t20 73.5t6 78z" />
    <glyph glyph-name="p" unicode="p" horiz-adv-x="524" 
d="M481 274q0 -78 -18 -136.5t-48.5 -89.5t-64 -45.5t-71.5 -14.5q-53 0 -90 24.5t-51 57.5v-250h-78v754h78v-93q15 50 52.5 77.5t85.5 27.5q92 0 148.5 -75t56.5 -237zM400 276q0 131 -31 183.5t-100 52.5q-64 0 -97.5 -61.5t-33.5 -164.5q0 -224 132 -224q63 0 96.5 48
t33.5 166z" />
    <glyph glyph-name="q" unicode="q" horiz-adv-x="524" 
d="M464 -179h-78v257q-14 -33 -55.5 -60.5t-94.5 -27.5q-86 0 -139.5 65.5t-53.5 218.5q0 159 54 233.5t145 74.5q49 0 90.5 -24t56.5 -70l34 86h41v-753zM386 286q0 108 -35 167t-92 59q-71 0 -103 -53.5t-32 -182.5q0 -122 29.5 -169.5t96.5 -47.5q136 0 136 227z" />
    <glyph glyph-name="r" unicode="r" horiz-adv-x="411" 
d="M397 459l-77 -22q0 21 -4 35.5t-21.5 27t-48.5 12.5q-34 0 -64 -32t-43 -86v-395h-79v574h76v-77q14 33 54.5 61.5t86.5 28.5q65 0 94 -36t26 -91z" />
    <glyph glyph-name="s" unicode="s" horiz-adv-x="455" 
d="M414 173q0 -185 -187 -185q-178 0 -178 136q0 34 13 71l68 -8q-7 -30 -7 -45q0 -44 23 -66.5t78 -22.5t86.5 26t31.5 74q0 39 -24 58.5t-93 45.5l-62 23q-54 20 -81.5 52.5t-27.5 90.5q0 78 43.5 123.5t120.5 45.5q82 0 128.5 -38.5t46.5 -99.5q0 -19 -2 -27l-78 -10
q0 3 1 16t0 21q-2 32 -25.5 52.5t-66.5 20.5q-47 0 -72.5 -24t-25.5 -65q0 -32 19.5 -51t66.5 -37l68 -26q70 -27 103 -60.5t33 -90.5z" />
    <glyph glyph-name="t" unicode="t" horiz-adv-x="314" 
d="M292 17q-42 -24 -83 -24q-66 0 -93 28t-27 108v377h-78v68h80l-1 138h78l-1 -138h112v-68h-112v-365q0 -46 11.5 -63.5t51.5 -17.5q21 0 62 16v-59z" />
    <glyph glyph-name="u" unicode="u" horiz-adv-x="488" 
d="M428 0h-78v79q-17 -40 -55 -64.5t-85 -24.5q-153 0 -153 190v394h78v-373q0 -80 23.5 -110t78.5 -30q53 0 83 51t30 121v341h78v-574z" />
    <glyph glyph-name="v" unicode="v" horiz-adv-x="460" 
d="M445 574l-163 -574h-99l-168 574h83l137 -493l138 493h72z" />
    <glyph glyph-name="w" unicode="w" horiz-adv-x="679" 
d="M664 574l-146 -574h-77l-102 456l-103 -456h-79l-142 574h79l105 -462l106 462h76l103 -462l103 462h77z" />
    <glyph glyph-name="x" unicode="x" horiz-adv-x="466" 
d="M450 0h-90l-127 232l-132 -232h-85l174 301l-156 273h89l110 -207l116 207h83l-154 -273z" />
    <glyph glyph-name="y" unicode="y" horiz-adv-x="451" 
d="M436 574l-141 -579q-22 -98 -59 -136.5t-97 -38.5q-126 0 -126 105q0 15 5 40h76q-4 -15 -4 -39q0 -19 12.5 -31t33.5 -12q28 0 45.5 22t26.5 76l-197 593h80l155 -472l115 472h75z" />
    <glyph glyph-name="z" unicode="z" horiz-adv-x="449" 
d="M400 0h-371v59l273 447h-248v68h346v-51l-276 -452h276v-71z" />
    <glyph glyph-name="braceleft" unicode="{" horiz-adv-x="382" 
d="M324 -102h-67q-65 0 -92 28.5t-27 104.5v241q0 30 -10 41t-38 11h-30v70h30q32 0 40 11t8 48v179q0 68 26 102t93 34h67v-70h-70q-20 0 -29.5 -16.5t-9.5 -37.5v-202q0 -44 -13 -63.5t-49 -19.5q62 0 62 -89v-254q0 -54 39 -54h70v-64z" />
    <glyph glyph-name="bar" unicode="|" horiz-adv-x="243" 
d="M157 -200h-71v1000h71v-1000z" />
    <glyph glyph-name="braceright" unicode="}" horiz-adv-x="382" 
d="M305 324h-30q-28 0 -38 -11t-10 -41v-241q0 -76 -27 -104.5t-92 -28.5h-67v64h70q39 0 39 54v254q0 89 62 89q-36 0 -49 19.5t-13 63.5v202q0 21 -9.5 37.5t-29.5 16.5h-70v70h67q67 0 93 -34t26 -102v-179q0 -37 8 -48t40 -11h30v-70z" />
    <glyph glyph-name="asciitilde" unicode="~" horiz-adv-x="525" 
d="M419 706q0 -46 -21 -67t-66 -21q-37 0 -73 36l-22 22q-23 23 -43 23q-35 0 -35 -51q0 -14 3 -28h-40q-10 20 -10 61q0 95 79 95q40 0 85 -39l23 -21q22 -19 37 -19q18 0 27 14t9 35q0 14 -3 25h40q10 -23 10 -65z" />
    <glyph glyph-name="nbspace" unicode="&#xa0;" horiz-adv-x="120" 
 />
    <glyph glyph-name="exclamdown" unicode="&#xa1;" horiz-adv-x="179" 
d="M140 569h-101v115h101v-115zM139 -84h-99l22 522h55z" />
    <glyph glyph-name="cent" unicode="&#xa2;" horiz-adv-x="482" 
d="M445 280q0 -62 -39 -108.5t-120 -54.5v-59h-52v59q-95 7 -143 72t-48 196q0 150 46.5 219.5t144.5 78.5v55h52v-55q77 -5 114 -48.5t37 -112.5q0 -24 -4 -40l-73 -4q3 12 3 27q0 96 -77 109v-431q45 7 64.5 38.5t19.5 89.5q0 14 -5 39l73 -3q7 -32 7 -67zM234 182v433
q-58 -8 -84.5 -58t-26.5 -146q0 -123 25.5 -173t85.5 -56z" />
    <glyph glyph-name="sterling" unicode="&#xa3;" horiz-adv-x="551" 
d="M531 162q0 -97 -32 -135.5t-102 -38.5q-18 0 -35 3t-28 6.5t-26.5 11t-21.5 11.5t-21.5 14.5t-18.5 12.5q-25 -28 -61 -43.5t-70 -15.5q-42 0 -65 24t-23 66q0 87 93 87q58 0 110 -37q27 51 27 114q0 52 -20 96h-127v69h88q-37 68 -37 152q0 221 177 221
q83 0 125.5 -48.5t42.5 -154.5q0 -29 -6 -60l-83 -9q6 33 6 74q0 75 -20.5 105.5t-66.5 30.5q-45 0 -72 -34.5t-27 -96.5q0 -98 44 -180h139v-69h-110q16 -50 16 -87q0 -89 -42 -155q60 -36 109 -36q38 0 53.5 25t15.5 81q0 39 -8 65h68q9 -36 9 -69zM195 80q-47 29 -75 29
q-39 0 -39 -32t40 -32q41 0 74 35z" />
    <glyph glyph-name="currency" unicode="&#xa4;" 
d="M554 334q0 -110 -75.5 -188.5t-182.5 -78.5t-183.5 78.5t-76.5 188.5t76.5 188.5t183.5 78.5t182.5 -78.5t75.5 -188.5zM524 344l-109 42l-67 169l-25 -100l-194 34l48 -150l-47 -177l101 82l144 -131l6 159z" />
    <glyph glyph-name="yen" unicode="&#xa5;" horiz-adv-x="576" 
d="M556 768l-136 -272h105v-70h-139l-42 -84h181v-70h-191v-272h-82v272h-196v70h186l-44 84h-142v70h106l-142 272h90l189 -367l176 367h81z" />
    <glyph glyph-name="brokenbar" unicode="&#xa6;" 
d="M554 334q0 -110 -75.5 -188.5t-182.5 -78.5t-183.5 78.5t-76.5 188.5t76.5 188.5t183.5 78.5t182.5 -78.5t75.5 -188.5zM524 344l-109 42l-67 169l-25 -100l-194 34l48 -150l-47 -177l101 82l144 -131l6 159z" />
    <glyph glyph-name="section" unicode="&#xa7;" horiz-adv-x="464" 
d="M415 92q0 -185 -187 -185q-178 0 -178 136q0 34 13 71l64 -8q-7 -30 -7 -45q0 -44 24 -66.5t81 -22.5q118 0 118 100q0 40 -24 61t-92 46l-62 23q-56 20 -83 50.5t-27 89.5q0 99 69 144q-22 14 -34.5 25.5t-23.5 37t-11 61.5q0 78 43.5 123.5t120.5 45.5
q82 0 128.5 -38.5t46.5 -99.5q0 -19 -2 -27l-75 -10q2 22 1 37q-2 32 -26 52.5t-69 20.5q-98 0 -98 -89q0 -33 19.5 -53t65.5 -38l68 -26q137 -50 137 -155q0 -103 -64 -148q64 -39 64 -113zM343 338q0 63 -81 95l-90 34q-47 -33 -47 -98q0 -39 16 -61.5t59 -38.5
q40 -15 106 -41q23 23 30 47.5t7 62.5z" />
    <glyph glyph-name="dieresis" unicode="&#xa8;" horiz-adv-x="540" 
d="M403 636h-94v105h94v-105zM231 636h-94v105h94v-105z" />
    <glyph glyph-name="copyright" unicode="&#xa9;" horiz-adv-x="779" 
d="M738 397q-1 -146 -104 -249.5t-248 -103.5q-146 0 -250 103.5t-104 249.5q0 147 103.5 251t250.5 104q145 0 248.5 -104.5t103.5 -250.5zM688 397q0 126 -89.5 217.5t-213.5 91.5q-125 0 -214 -91.5t-89 -217.5q0 -128 88.5 -217.5t214.5 -89.5q125 0 214 89.5t89 217.5z
M502 302q0 -49 -28.5 -82t-91.5 -33q-67 0 -100.5 40.5t-33.5 143.5q0 128 29.5 176t105.5 48q117 0 117 -109q0 -19 -3 -37l-65 -5q5 22 5 38q0 59 -57 59q-37 0 -51 -37t-14 -115q0 -83 16.5 -115t54.5 -32q50 0 50 75q0 10 -4 40l64 2q6 -30 6 -57z" />
    <glyph glyph-name="ordfeminine" unicode="&#xaa;" horiz-adv-x="320" 
d="M319 450q-21 -14 -53 -14q-22 0 -34.5 10.5t-14.5 27.5q-10 -16 -32 -29t-54 -13q-61 0 -85 25.5t-24 74.5q0 72 108 104q45 14 85 27q0 40 -11.5 53.5t-50.5 13.5q-49 0 -49 -39q0 -10 4 -26l-69 -3q-5 20 -5 35q0 38 32 60.5t89 22.5q64 0 95.5 -25t31.5 -87v-153
q0 -12 1 -16.5t7 -8t19 -3.5h10v-37zM320 321h-319v51h319v-51zM215 550v62q-2 0 -20 -6t-29 -10q-43 -14 -59.5 -30t-16.5 -40q0 -42 50 -42q30 0 52.5 19.5t22.5 46.5z" />
    <glyph glyph-name="guillemotleft" unicode="&#xab;" horiz-adv-x="631" 
d="M565 36l-254 193v95l254 191v-98l-181 -141l181 -142v-98zM307 36l-252 193v95l252 191v-98l-178 -141l178 -142v-98z" />
    <glyph glyph-name="logicalnot" unicode="&#xac;" 
d="M554 334q0 -110 -75.5 -188.5t-182.5 -78.5t-183.5 78.5t-76.5 188.5t76.5 188.5t183.5 78.5t182.5 -78.5t75.5 -188.5zM524 344l-109 42l-67 169l-25 -100l-194 34l48 -150l-47 -177l101 82l144 -131l6 159z" />
    <glyph glyph-name="registered" unicode="&#xae;" horiz-adv-x="779" 
d="M738 397q-1 -146 -104 -249.5t-248 -103.5q-146 0 -250 103.5t-104 249.5q0 147 103.5 251t250.5 104q145 0 248.5 -104.5t103.5 -250.5zM688 397q0 126 -89.5 217.5t-213.5 91.5q-125 0 -214 -91.5t-89 -217.5q0 -128 88.5 -217.5t214.5 -89.5q125 0 214 89.5t89 217.5z
M517 188h-65q-9 33 -9 49v69q0 20 -15.5 31t-33.5 11h-65v-160h-66v407h138q56 0 85 -29.5t29 -97.5q0 -85 -75 -93q47 -6 58.5 -32.5t12.5 -91.5v-18q0 -25 6 -45zM448 467q0 76 -53 76h-66v-144h67q52 0 52 68z" />
    <glyph glyph-name="macron" unicode="&#xaf;" horiz-adv-x="540" 
d="M399 635h-258v69h258v-69z" />
    <glyph glyph-name="degree" unicode="&#xb0;" horiz-adv-x="400" 
d="M348 632q0 -62 -43 -105t-105 -43t-105 43t-43 105t43 105t105 43t105 -43t43 -105zM289 632q0 38 -26.5 64t-63.5 26t-63.5 -26t-26.5 -64t26.5 -64t63.5 -26t63.5 26t26.5 64z" />
    <glyph glyph-name="plusminus" unicode="&#xb1;" horiz-adv-x="746" 
d="M686 0h-78v686q-33 36 -82 36q-53 0 -75.5 -20t-22.5 -62v-66h109v-68h-109v-506h-78v506h-180v-506h-78v506h-85v68h85v46q0 160 170 160q73 0 125 -45q47 45 133 45q57 0 93 -23h73v-757zM357 680q-12 15 -36.5 28.5t-52.5 13.5q-53 0 -75.5 -20t-22.5 -62v-66h180v46
q0 28 7 60z" />
    <glyph glyph-name="twosuperior" unicode="&#xb2;" 
d="M554 334q0 -110 -75.5 -188.5t-182.5 -78.5t-183.5 78.5t-76.5 188.5t76.5 188.5t183.5 78.5t182.5 -78.5t75.5 -188.5zM524 344l-109 42l-67 169l-25 -100l-194 34l48 -150l-47 -177l101 82l144 -131l6 159z" />
    <glyph glyph-name="threesuperior" unicode="&#xb3;" 
d="M554 334q0 -110 -75.5 -188.5t-182.5 -78.5t-183.5 78.5t-76.5 188.5t76.5 188.5t183.5 78.5t182.5 -78.5t75.5 -188.5zM524 344l-109 42l-67 169l-25 -100l-194 34l48 -150l-47 -177l101 82l144 -131l6 159z" />
    <glyph glyph-name="acute" unicode="&#xb4;" horiz-adv-x="540" 
d="M359 754l-137 -119h-56l79 130h114v-11z" />
    <glyph glyph-name="mu" unicode="&#xb5;" 
d="M554 334q0 -110 -75.5 -188.5t-182.5 -78.5t-183.5 78.5t-76.5 188.5t76.5 188.5t183.5 78.5t182.5 -78.5t75.5 -188.5zM524 344l-109 42l-67 169l-25 -100l-194 34l48 -150l-47 -177l101 82l144 -131l6 159z" />
    <glyph glyph-name="paragraph" unicode="&#xb6;" horiz-adv-x="583" 
d="M488 -47h-71v759h-55v-759h-71v321h-73q-33 0 -62.5 11t-57.5 36.5t-44.5 74.5t-16.5 116q0 136 55.5 196t133.5 60h262v-815zM291 333v379h-36q-33 0 -47 -41.5t-14 -158.5q0 -99 13.5 -139t45.5 -40h38z" />
    <glyph glyph-name="periodcentered" unicode="&#xb7;" horiz-adv-x="288" 
d="M224 436q0 -29 -21.5 -50.5t-50.5 -21.5t-50.5 21.5t-21.5 50.5t21.5 50.5t50.5 21.5t50.5 -21.5t21.5 -50.5z" />
    <glyph glyph-name="cedilla" unicode="&#xb8;" horiz-adv-x="540" 
d="M397 -108q0 -43 -33 -67.5t-95 -24.5q-92 0 -139 36l31 43q40 -28 112 -28q26 0 39 12.5t13 29.5q0 43 -48 43q-19 0 -45 -9l16 45q28 5 43 5q106 0 106 -85z" />
    <glyph glyph-name="onesuperior" unicode="&#xb9;" 
d="M554 334q0 -110 -75.5 -188.5t-182.5 -78.5t-183.5 78.5t-76.5 188.5t76.5 188.5t183.5 78.5t182.5 -78.5t75.5 -188.5zM524 344l-109 42l-67 169l-25 -100l-194 34l48 -150l-47 -177l101 82l144 -131l6 159z" />
    <glyph glyph-name="ordmasculine" unicode="&#xba;" horiz-adv-x="343" 
d="M317 603q0 -77 -35.5 -127.5t-110.5 -50.5t-110.5 50.5t-35.5 127.5q0 76 36 126.5t110 50.5t110 -50.5t36 -126.5zM329 321h-315v51h315v-51zM247 602q0 64 -16 93t-60 29q-43 0 -59.5 -29t-16.5 -93t17 -92.5t59 -28.5t59 27.5t17 93.5z" />
    <glyph glyph-name="guillemotright" unicode="&#xbb;" horiz-adv-x="631" 
d="M577 229l-252 -193v98l178 142l-178 141v98l252 -191v-95zM321 229l-254 -193v98l181 142l-181 141v98l254 -191v-95z" />
    <glyph glyph-name="onequarter" unicode="&#xbc;" 
d="M554 334q0 -110 -75.5 -188.5t-182.5 -78.5t-183.5 78.5t-76.5 188.5t76.5 188.5t183.5 78.5t182.5 -78.5t75.5 -188.5zM524 344l-109 42l-67 169l-25 -100l-194 34l48 -150l-47 -177l101 82l144 -131l6 159z" />
    <glyph glyph-name="onehalf" unicode="&#xbd;" 
d="M554 334q0 -110 -75.5 -188.5t-182.5 -78.5t-183.5 78.5t-76.5 188.5t76.5 188.5t183.5 78.5t182.5 -78.5t75.5 -188.5zM524 344l-109 42l-67 169l-25 -100l-194 34l48 -150l-47 -177l101 82l144 -131l6 159z" />
    <glyph glyph-name="threequarters" unicode="&#xbe;" 
d="M554 334q0 -110 -75.5 -188.5t-182.5 -78.5t-183.5 78.5t-76.5 188.5t76.5 188.5t183.5 78.5t182.5 -78.5t75.5 -188.5zM524 344l-109 42l-67 169l-25 -100l-194 34l48 -150l-47 -177l101 82l144 -131l6 159z" />
    <glyph glyph-name="questiondown" unicode="&#xbf;" horiz-adv-x="462" 
d="M393 569h-103v115h103v-115zM420 60q0 -68 -42 -112t-131 -44q-92 0 -143.5 61t-51.5 171q0 141 41 197.5t118 56.5q87 0 108 -59q-5 47 -5 75v63h64v-264h-55q-3 53 -25 87.5t-69 34.5q-53 0 -72.5 -41t-19.5 -145q0 -76 28 -121t84 -45q57 0 78 25t21 76q0 24 -10 50
h72q10 -28 10 -66z" />
    <glyph glyph-name="Agrave" unicode="&#xc0;" horiz-adv-x="602" 
d="M339 791h-56l-137 102v9h114zM582 0h-88l-54 188h-291l-50 -188h-79l214 768h123zM424 255l-130 450l-128 -450h258z" />
    <glyph glyph-name="Aacute" unicode="&#xc1;" horiz-adv-x="602" 
d="M429 893l-137 -102h-56l79 111h114v-9zM582 0h-88l-54 188h-291l-50 -188h-79l214 768h123zM424 255l-130 450l-128 -450h258z" />
    <glyph glyph-name="Acircumflex" unicode="&#xc2;" horiz-adv-x="602" 
d="M419 791h-49l-76 51l-76 -51h-49l89 108h72zM582 0h-88l-54 188h-291l-50 -188h-79l214 768h123zM424 255l-130 450l-128 -450h258z" />
    <glyph glyph-name="Atilde" unicode="&#xc3;" horiz-adv-x="602" 
d="M582 0h-88l-54 188h-291l-50 -188h-79l214 768h123zM424 255l-130 450l-128 -450h258zM437 862q0 -37 -20 -53.5t-62 -16.5q-36 0 -70 29l-21 17q-22 19 -40 19q-23 0 -30.5 -21.5t0.5 -41.5h-39q-9 16 -9 48q0 76 75 76q39 0 80 -31l22 -17q20 -15 35 -15q22 0 30 18
t2 41h38q9 -20 9 -52z" />
    <glyph glyph-name="Adieresis" unicode="&#xc4;" horiz-adv-x="602" 
d="M428 792h-94v89h94v-89zM256 792h-94v89h94v-89zM582 0h-88l-54 188h-291l-50 -188h-79l214 768h123zM424 255l-130 450l-128 -450h258z" />
    <glyph glyph-name="Aring" unicode="&#xc5;" horiz-adv-x="602" 
d="M561 0h-88l-54 188h-291l-50 -188h-79l213 759q-35 30 -35 72q0 40 28 67.5t68 27.5q41 0 69.5 -27.5t28.5 -67.5t-34 -71zM320 831q0 18 -14 31.5t-33 13.5q-18 0 -32 -13.5t-14 -31.5t14 -31.5t32 -13.5q19 0 33 13.5t14 31.5zM403 255l-130 450l-128 -450h258z" />
    <glyph glyph-name="AE" unicode="&#xc6;" horiz-adv-x="840" 
d="M809 0h-425v188h-235l-82 -188h-88l352 768h455v-69h-320v-270h293v-69h-293v-291h343v-69zM384 255v450l-205 -450h205z" />
    <glyph glyph-name="Ccedilla" unicode="&#xc7;" horiz-adv-x="622" 
d="M564 265q-3 -140 -57 -208.5t-176 -68.5q-142 0 -214 90t-72 292q0 216 71.5 313t208.5 97q74 0 125.5 -23t76 -63.5t33 -85.5t4.5 -99h-86q10 87 -29.5 145t-119.5 58q-101 0 -149 -80t-48 -254q0 -163 46.5 -241.5t153.5 -78.5q39 0 66.5 11.5t42.5 28t23.5 48.5
t11 57.5t3.5 69.5zM437 -108q0 -43 -33 -67.5t-95 -24.5q-92 0 -139 36l31 43q40 -28 112 -28q26 0 39 12.5t13 29.5q0 43 -48 43q-19 0 -45 -9l16 45q28 5 43 5q106 0 106 -85z" />
    <glyph glyph-name="Egrave" unicode="&#xc8;" horiz-adv-x="518" 
d="M341 791h-56l-137 102v9h114zM487 0h-425v768h402v-69h-320v-270h293v-69h-293v-291h343v-69z" />
    <glyph glyph-name="Eacute" unicode="&#xc9;" horiz-adv-x="518" 
d="M429 893l-137 -102h-56l79 111h114v-9zM487 0h-425v768h402v-69h-320v-270h293v-69h-293v-291h343v-69z" />
    <glyph glyph-name="Ecircumflex" unicode="&#xca;" horiz-adv-x="518" 
d="M388 791h-49l-76 51l-76 -51h-49l89 108h72zM487 0h-425v768h402v-69h-320v-270h293v-69h-293v-291h343v-69z" />
    <glyph glyph-name="Edieresis" unicode="&#xcb;" horiz-adv-x="518" 
d="M407 792h-94v89h94v-89zM235 792h-94v89h94v-89zM487 0h-425v768h402v-69h-320v-270h293v-69h-293v-291h343v-69z" />
    <glyph glyph-name="Igrave" unicode="&#xcc;" horiz-adv-x="207" 
d="M144 791h-56l-137 102v9h114zM145 0h-83v768h83v-768z" />
    <glyph glyph-name="Iacute" unicode="&#xcd;" horiz-adv-x="207" 
d="M273 893l-137 -102h-56l79 111h114v-9zM145 0h-83v768h83v-768z" />
    <glyph glyph-name="Icircumflex" unicode="&#xce;" horiz-adv-x="207" 
d="M232 791h-49l-76 51l-76 -51h-49l89 108h72zM145 0h-83v768h83v-768z" />
    <glyph glyph-name="Idieresis" unicode="&#xcf;" horiz-adv-x="207" 
d="M237 791h-94v89h94v-89zM65 791h-94v89h94v-89zM145 0h-83v768h83v-768z" />
    <glyph glyph-name="Eth" unicode="&#xd0;" horiz-adv-x="638" 
d="M592 370q0 -201 -75.5 -285.5t-259.5 -84.5h-185v341h-62v79h62v348h222q134 0 216 -100t82 -298zM510 370q0 164 -59 245t-182 81h-115v-276h145v-79h-145v-269h98q139 0 198.5 64t59.5 234z" />
    <glyph glyph-name="Ntilde" unicode="&#xd1;" horiz-adv-x="612" 
d="M550 0h-105l-309 646v-646h-74v768h105l309 -646v646h74v-768zM457 862q0 -37 -20 -53.5t-62 -16.5q-36 0 -70 29l-21 17q-22 19 -40 19q-23 0 -30.5 -21.5t0.5 -41.5h-39q-9 16 -9 48q0 76 75 76q39 0 80 -31l22 -17q20 -15 35 -15q22 0 30 18t2 41h38q9 -20 9 -52z" />
    <glyph glyph-name="Ograve" unicode="&#xd2;" horiz-adv-x="654" 
d="M373 795h-56l-137 102v9h114zM609 384q0 -205 -66.5 -300.5t-215.5 -95.5q-146 0 -214 94t-68 302q0 396 282 396t282 -396zM525 384q0 328 -198 328t-198 -328q0 -175 46.5 -251.5t151.5 -76.5q109 0 153.5 77.5t44.5 250.5z" />
    <glyph glyph-name="Oacute" unicode="&#xd3;" horiz-adv-x="654" 
d="M466 899l-137 -102h-56l79 111h114v-9zM609 384q0 -205 -66.5 -300.5t-215.5 -95.5q-146 0 -214 94t-68 302q0 396 282 396t282 -396zM525 384q0 328 -198 328t-198 -328q0 -175 46.5 -251.5t151.5 -76.5q109 0 153.5 77.5t44.5 250.5z" />
    <glyph glyph-name="Ocircumflex" unicode="&#xd4;" horiz-adv-x="654" 
d="M451 791h-49l-76 51l-76 -51h-49l89 108h72zM609 384q0 -205 -66.5 -300.5t-215.5 -95.5q-146 0 -214 94t-68 302q0 396 282 396t282 -396zM525 384q0 328 -198 328t-198 -328q0 -175 46.5 -251.5t151.5 -76.5q109 0 153.5 77.5t44.5 250.5z" />
    <glyph glyph-name="Otilde" unicode="&#xd5;" horiz-adv-x="654" 
d="M609 384q0 -205 -66.5 -300.5t-215.5 -95.5q-146 0 -214 94t-68 302q0 396 282 396t282 -396zM525 384q0 328 -198 328t-198 -328q0 -175 46.5 -251.5t151.5 -76.5q109 0 153.5 77.5t44.5 250.5zM478 862q0 -37 -20 -53.5t-62 -16.5q-36 0 -70 29l-21 17q-22 19 -40 19
q-23 0 -30.5 -21.5t0.5 -41.5h-39q-9 16 -9 48q0 76 75 76q39 0 80 -31l22 -17q20 -15 35 -15q22 0 30 18t2 41h38q9 -20 9 -52z" />
    <glyph glyph-name="Odieresis" unicode="&#xd6;" horiz-adv-x="654" 
d="M497 800h-94v89h94v-89zM251 800h-94v89h94v-89zM609 384q0 -205 -66.5 -300.5t-215.5 -95.5q-146 0 -214 94t-68 302q0 396 282 396t282 -396zM525 384q0 328 -198 328t-198 -328q0 -175 46.5 -251.5t151.5 -76.5q109 0 153.5 77.5t44.5 250.5z" />
    <glyph glyph-name="multiply" unicode="&#xd7;" 
d="M554 334q0 -110 -75.5 -188.5t-182.5 -78.5t-183.5 78.5t-76.5 188.5t76.5 188.5t183.5 78.5t182.5 -78.5t75.5 -188.5zM524 344l-109 42l-67 169l-25 -100l-194 34l48 -150l-47 -177l101 82l144 -131l6 159z" />
    <glyph glyph-name="Oslash" unicode="&#xd8;" horiz-adv-x="654" 
d="M609 384q0 -205 -66.5 -300.5t-215.5 -95.5q-128 0 -195 70l-39 -58h-48l62 92q-62 98 -62 292q0 396 282 396q121 0 191 -76l43 64h48l-65 -97q65 -101 65 -287zM472 635q-49 77 -145 77q-198 0 -198 -328q0 -141 29 -216zM525 384q0 132 -32 211l-314 -467
q47 -72 148 -72q109 0 153.5 77.5t44.5 250.5z" />
    <glyph glyph-name="Ugrave" unicode="&#xd9;" horiz-adv-x="610" 
d="M379 791h-56l-137 102v9h114zM552 250q0 -64 -9.5 -108.5t-34.5 -81t-74 -54.5t-123 -18q-142 0 -197.5 61t-55.5 199v520h82v-559q0 -40 13.5 -71.5t53.5 -55t104 -23.5q46 0 79 14t49.5 37.5t23.5 48t7 52.5v557h82v-518z" />
    <glyph glyph-name="Uacute" unicode="&#xda;" horiz-adv-x="610" 
d="M449 893l-137 -102h-56l79 111h114v-9zM552 250q0 -64 -9.5 -108.5t-34.5 -81t-74 -54.5t-123 -18q-142 0 -197.5 61t-55.5 199v520h82v-559q0 -40 13.5 -71.5t53.5 -55t104 -23.5q46 0 79 14t49.5 37.5t23.5 48t7 52.5v557h82v-518z" />
    <glyph glyph-name="Ucircumflex" unicode="&#xdb;" horiz-adv-x="610" 
d="M433 791h-49l-76 51l-76 -51h-49l89 108h72zM552 250q0 -64 -9.5 -108.5t-34.5 -81t-74 -54.5t-123 -18q-142 0 -197.5 61t-55.5 199v520h82v-559q0 -40 13.5 -71.5t53.5 -55t104 -23.5q46 0 79 14t49.5 37.5t23.5 48t7 52.5v557h82v-518z" />
    <glyph glyph-name="Udieresis" unicode="&#xdc;" horiz-adv-x="610" 
d="M449 800h-94v89h94v-89zM255 800h-94v89h94v-89zM552 250q0 -64 -9.5 -108.5t-34.5 -81t-74 -54.5t-123 -18q-142 0 -197.5 61t-55.5 199v520h82v-559q0 -40 13.5 -71.5t53.5 -55t104 -23.5q46 0 79 14t49.5 37.5t23.5 48t7 52.5v557h82v-518z" />
    <glyph glyph-name="Yacute" unicode="&#xdd;" horiz-adv-x="560" 
d="M548 768l-222 -446v-322h-82v322l-232 446h90l189 -366l176 366h81zM396 911l-137 -119h-56l79 130h114v-11z" />
    <glyph glyph-name="Thorn" unicode="&#xde;" horiz-adv-x="547" 
d="M515 363q0 -115 -67.5 -166t-179.5 -51h-124v-146h-82v768h82v-163h121q250 0 250 -242zM433 367q0 74 -39 121.5t-107 47.5h-143v-320h140q72 0 110.5 40.5t38.5 110.5z" />
    <glyph glyph-name="germandbls" unicode="&#xdf;" horiz-adv-x="475" 
d="M430 217q0 -114 -49.5 -165.5t-161.5 -51.5h-27v70h6q90 0 120.5 35t30.5 131q0 134 -133 134h-7v68h9q58 0 81.5 29t23.5 111q0 60 -24.5 97.5t-70.5 37.5q-41 0 -63 -30t-22 -86v-597h-81v589q0 96 43.5 143.5t114.5 47.5q94 0 139 -56t45 -144q0 -71 -29 -116.5
t-88 -48.5q67 -5 105 -56t38 -142z" />
    <glyph glyph-name="agrave" unicode="&#xe0;" horiz-adv-x="500" 
d="M481 13q-28 -21 -68 -21q-65 0 -65 101q-17 -56 -59 -80.5t-88 -24.5q-78 0 -120 43t-42 121q0 127 160 179q63 21 145 29q0 98 -23.5 131t-85.5 33q-55 0 -74 -23.5t-19 -62.5q0 -12 4 -26l-81 -7q-4 28 -4 43q0 66 46 105t131 39q95 0 139 -43.5t44 -152.5v-287
q0 -26 9 -37t38 -11h13v-48zM344 200v94q-44 0 -97 -17q-70 -23 -99.5 -54.5t-29.5 -80.5q0 -81 97 -81q50 0 89.5 40.5t39.5 98.5zM311 626h-56l-137 119v11h114z" />
    <glyph glyph-name="aacute" unicode="&#xe1;" horiz-adv-x="500" 
d="M481 13q-28 -21 -68 -21q-65 0 -65 101q-17 -56 -59 -80.5t-88 -24.5q-78 0 -120 43t-42 121q0 127 160 179q63 21 145 29q0 98 -23.5 131t-85.5 33q-55 0 -74 -23.5t-19 -62.5q0 -12 4 -26l-81 -7q-4 28 -4 43q0 66 46 105t131 39q95 0 139 -43.5t44 -152.5v-287
q0 -26 9 -37t38 -11h13v-48zM344 200v94q-44 0 -97 -17q-70 -23 -99.5 -54.5t-29.5 -80.5q0 -81 97 -81q50 0 89.5 40.5t39.5 98.5zM365 744l-137 -119h-56l79 130h114v-11z" />
    <glyph glyph-name="acircumflex" unicode="&#xe2;" horiz-adv-x="500" 
d="M481 13q-28 -21 -68 -21q-65 0 -65 101q-17 -56 -59 -80.5t-88 -24.5q-78 0 -120 43t-42 121q0 127 160 179q63 21 145 29q0 98 -23.5 131t-85.5 33q-55 0 -74 -23.5t-19 -62.5q0 -12 4 -26l-81 -7q-4 28 -4 43q0 66 46 105t131 39q95 0 139 -43.5t44 -152.5v-287
q0 -26 9 -37t38 -11h13v-48zM344 200v94q-44 0 -97 -17q-70 -23 -99.5 -54.5t-29.5 -80.5q0 -81 97 -81q50 0 89.5 40.5t39.5 98.5zM369 625h-49l-76 59l-76 -59h-49l89 126h72z" />
    <glyph glyph-name="atilde" unicode="&#xe3;" horiz-adv-x="500" 
d="M481 13q-28 -21 -68 -21q-65 0 -65 101q-17 -56 -59 -80.5t-88 -24.5q-78 0 -120 43t-42 121q0 127 160 179q63 21 145 29q0 98 -23.5 131t-85.5 33q-55 0 -74 -23.5t-19 -62.5q0 -12 4 -26l-81 -7q-4 28 -4 43q0 66 46 105t131 39q95 0 139 -43.5t44 -152.5v-287
q0 -26 9 -37t38 -11h13v-48zM344 200v94q-44 0 -97 -17q-70 -23 -99.5 -54.5t-29.5 -80.5q0 -81 97 -81q50 0 89.5 40.5t39.5 98.5zM387 699q0 -37 -20 -53.5t-62 -16.5q-36 0 -70 29l-21 17q-22 19 -40 19q-23 0 -30.5 -22t0.5 -41h-39q-9 17 -9 48q0 76 75 76q39 0 80 -31
l22 -17q20 -15 35 -15q22 0 30 18t2 41h38q9 -20 9 -52z" />
    <glyph glyph-name="adieresis" unicode="&#xe4;" horiz-adv-x="500" 
d="M481 13q-28 -21 -68 -21q-65 0 -65 101q-17 -56 -59 -80.5t-88 -24.5q-78 0 -120 43t-42 121q0 127 160 179q63 21 145 29q0 98 -23.5 131t-85.5 33q-55 0 -74 -23.5t-19 -62.5q0 -12 4 -26l-81 -7q-4 28 -4 43q0 66 46 105t131 39q95 0 139 -43.5t44 -152.5v-287
q0 -26 9 -37t38 -11h13v-48zM344 200v94q-44 0 -97 -17q-70 -23 -99.5 -54.5t-29.5 -80.5q0 -81 97 -81q50 0 89.5 40.5t39.5 98.5zM377 636h-94v105h94v-105zM205 636h-94v105h94v-105z" />
    <glyph glyph-name="aring" unicode="&#xe5;" horiz-adv-x="500" 
d="M481 13q-28 -21 -68 -21q-65 0 -65 101q-17 -56 -59 -80.5t-88 -24.5q-78 0 -120 43t-42 121q0 127 160 179q63 21 145 29q0 98 -23.5 131t-85.5 33q-55 0 -74 -23.5t-19 -62.5q0 -12 4 -26l-81 -7q-4 28 -4 43q0 66 46 105t131 39q95 0 139 -43.5t44 -152.5v-287
q0 -26 9 -37t38 -11h13v-48zM344 200v94q-44 0 -97 -17q-70 -23 -99.5 -54.5t-29.5 -80.5q0 -81 97 -81q50 0 89.5 40.5t39.5 98.5zM342 720q0 -39 -29 -67t-69 -28t-68 28t-28 67q0 40 28 67.5t68 27.5q41 0 69.5 -27.5t28.5 -67.5zM291 720q0 18 -14 31.5t-33 13.5
q-18 0 -32 -13.5t-14 -31.5t14 -31.5t32 -13.5q19 0 33 13.5t14 31.5z" />
    <glyph glyph-name="ae" unicode="&#xe6;" horiz-adv-x="792" 
d="M757 275h-334q0 -18 2 -48q6 -93 39.5 -131.5t105.5 -38.5q103 0 107 108l-1 23l77 -8q2 -13 1 -37q-5 -73 -54.5 -114t-138.5 -41q-152 0 -191 127q-19 -59 -64.5 -93t-102.5 -34q-78 0 -120 43t-42 121q0 127 160 179q63 21 145 29q0 98 -23.5 131t-85.5 33
q-55 0 -74 -23.5t-19 -62.5q0 -12 4 -26l-81 -7q-4 28 -4 43q0 66 46 105t131 39q123 0 157 -74q19 35 62.5 54.5t99.5 19.5q182 0 197 -227q4 -45 1 -90zM676 340q0 33 -3 60q-18 124 -115 124q-63 0 -99 -49t-36 -135h253zM346 200v94q-44 0 -97 -17q-70 -23 -99.5 -54.5
t-29.5 -80.5q0 -81 97 -81q50 0 89.5 40.5t39.5 98.5z" />
    <glyph glyph-name="ccedilla" unicode="&#xe7;" horiz-adv-x="483" 
d="M445 162q0 -72 -46 -123t-141 -51q-108 0 -161.5 69t-53.5 217q0 172 54.5 245t168.5 73q86 0 128.5 -47.5t42.5 -125.5q0 -22 -4 -42l-73 -4q3 10 3 28q0 120 -104 120q-71 0 -103.5 -54t-32.5 -166q0 -97 14.5 -150.5t43 -73.5t77.5 -20q61 0 86.5 34t25.5 104
q0 19 -5 42l73 -4q7 -33 7 -71zM377 -108q0 -43 -33 -67.5t-95 -24.5q-92 0 -139 36l31 43q40 -28 112 -28q26 0 39 12.5t13 29.5q0 43 -48 43q-19 0 -45 -9l16 45q28 5 43 5q106 0 106 -85z" />
    <glyph glyph-name="egrave" unicode="&#xe8;" horiz-adv-x="508" 
d="M459 312q0 -25 -1 -37h-334q0 -18 2 -48q6 -93 39.5 -131.5t105.5 -38.5q103 0 107 108l-1 23l77 -8q2 -13 1 -37q-5 -73 -54.5 -114t-138.5 -41q-116 0 -167.5 66.5t-51.5 224.5q0 170 54 241.5t163 71.5q182 0 197 -227q2 -30 2 -53zM377 340q0 33 -3 60
q-18 124 -115 124q-63 0 -99 -49t-36 -135h253zM323 625h-56l-137 119v11h114z" />
    <glyph glyph-name="eacute" unicode="&#xe9;" horiz-adv-x="508" 
d="M459 312q0 -25 -1 -37h-334q0 -18 2 -48q6 -93 39.5 -131.5t105.5 -38.5q103 0 107 108l-1 23l77 -8q2 -13 1 -37q-5 -73 -54.5 -114t-138.5 -41q-116 0 -167.5 66.5t-51.5 224.5q0 170 54 241.5t163 71.5q182 0 197 -227q2 -30 2 -53zM377 340q0 33 -3 60
q-18 124 -115 124q-63 0 -99 -49t-36 -135h253zM405 744l-137 -119h-56l79 130h114v-11z" />
    <glyph glyph-name="ecircumflex" unicode="&#xea;" horiz-adv-x="508" 
d="M459 312q0 -25 -1 -37h-334q0 -18 2 -48q6 -93 39.5 -131.5t105.5 -38.5q103 0 107 108l-1 23l77 -8q2 -13 1 -37q-5 -73 -54.5 -114t-138.5 -41q-116 0 -167.5 66.5t-51.5 224.5q0 170 54 241.5t163 71.5q182 0 197 -227q2 -30 2 -53zM377 340q0 33 -3 60
q-18 124 -115 124q-63 0 -99 -49t-36 -135h253zM384 626h-49l-76 59l-76 -59h-49l89 126h72z" />
    <glyph glyph-name="edieresis" unicode="&#xeb;" horiz-adv-x="508" 
d="M459 312q0 -25 -1 -37h-334q0 -18 2 -48q6 -93 39.5 -131.5t105.5 -38.5q103 0 107 108l-1 23l77 -8q2 -13 1 -37q-5 -73 -54.5 -114t-138.5 -41q-116 0 -167.5 66.5t-51.5 224.5q0 170 54 241.5t163 71.5q182 0 197 -227q2 -30 2 -53zM377 340q0 33 -3 60
q-18 124 -115 124q-63 0 -99 -49t-36 -135h253zM391 626h-94v105h94v-105zM219 626h-94v105h94v-105z" />
    <glyph glyph-name="igrave" unicode="&#xec;" horiz-adv-x="198" 
d="M138 0h-78v574h78v-574zM151 626h-56l-137 119v11h114z" />
    <glyph glyph-name="iacute" unicode="&#xed;" horiz-adv-x="198" 
d="M138 0h-78v574h78v-574zM247 745l-137 -119h-56l79 130h114v-11z" />
    <glyph glyph-name="icircumflex" unicode="&#xee;" horiz-adv-x="198" 
d="M138 0h-78v574h78v-574zM226 626h-49l-76 59l-76 -59h-49l89 126h72z" />
    <glyph glyph-name="idieresis" unicode="&#xef;" horiz-adv-x="198" 
d="M138 0h-78v574h78v-574zM234 626h-94v105h94v-105zM62 626h-94v105h94v-105z" />
    <glyph glyph-name="eth" unicode="&#xf0;" horiz-adv-x="526" 
d="M465 311q0 -148 -68.5 -234.5t-160.5 -86.5q-86 0 -139.5 65.5t-53.5 218.5q0 159 54 233.5t145 74.5q84 0 123 -52q-14 77 -53 137q-47 -20 -22 -55l-46 -16q-29 28 -24 62.5t48 59.5q-29 25 -59 25q-33 0 -80 -33l-36 55q53 35 121 35q70 0 128 -61q42 12 19 45l46 16
q31 -30 27 -66t-46 -56q77 -145 77 -367zM386 286q0 106 -38.5 166t-93.5 60q-71 0 -101 -51.5t-30 -184.5q0 -116 34 -165t101 -49q128 0 128 224z" />
    <glyph glyph-name="ntilde" unicode="&#xf1;" horiz-adv-x="488" 
d="M431 0h-78v373q0 80 -23.5 110t-78.5 30q-54 0 -83.5 -50t-29.5 -122v-341h-78v574h78v-84q39 94 140 94q153 0 153 -190v-394zM392 695q0 -37 -20 -53.5t-62 -16.5q-36 0 -70 29l-21 17q-22 19 -40 19q-23 0 -30.5 -22t0.5 -41h-39q-9 17 -9 48q0 76 75 76q39 0 80 -31
l22 -17q20 -15 35 -15q22 0 30 18t2 41h38q9 -20 9 -52z" />
    <glyph glyph-name="ograve" unicode="&#xf2;" horiz-adv-x="528" 
d="M485 290q0 -153 -61 -227.5t-160 -74.5t-160 74.5t-61 227.5t61 227.5t160 74.5t160 -74.5t61 -227.5zM407 290q0 42 -6 79t-20 74t-44 59t-73 22t-73 -22t-44 -59t-20 -74t-6 -79q0 -41 6 -78t20 -73.5t44 -58.5t73 -22t73 22t44 58.5t20 73.5t6 78zM317 626h-56
l-137 119v11h114z" />
    <glyph glyph-name="oacute" unicode="&#xf3;" horiz-adv-x="528" 
d="M485 290q0 -153 -61 -227.5t-160 -74.5t-160 74.5t-61 227.5t61 227.5t160 74.5t160 -74.5t61 -227.5zM407 290q0 42 -6 79t-20 74t-44 59t-73 22t-73 -22t-44 -59t-20 -74t-6 -79q0 -41 6 -78t20 -73.5t44 -58.5t73 -22t73 22t44 58.5t20 73.5t6 78zM397 745l-137 -119
h-56l79 130h114v-11z" />
    <glyph glyph-name="ocircumflex" unicode="&#xf4;" horiz-adv-x="528" 
d="M485 290q0 -153 -61 -227.5t-160 -74.5t-160 74.5t-61 227.5t61 227.5t160 74.5t160 -74.5t61 -227.5zM407 290q0 42 -6 79t-20 74t-44 59t-73 22t-73 -22t-44 -59t-20 -74t-6 -79q0 -41 6 -78t20 -73.5t44 -58.5t73 -22t73 22t44 58.5t20 73.5t6 78zM392 626h-49l-76 59
l-76 -59h-49l89 126h72z" />
    <glyph glyph-name="otilde" unicode="&#xf5;" horiz-adv-x="528" 
d="M485 290q0 -153 -61 -227.5t-160 -74.5t-160 74.5t-61 227.5t61 227.5t160 74.5t160 -74.5t61 -227.5zM407 290q0 42 -6 79t-20 74t-44 59t-73 22t-73 -22t-44 -59t-20 -74t-6 -79q0 -41 6 -78t20 -73.5t44 -58.5t73 -22t73 22t44 58.5t20 73.5t6 78zM412 695
q0 -37 -20 -53.5t-62 -16.5q-36 0 -70 29l-21 17q-22 19 -40 19q-23 0 -30.5 -22t0.5 -41h-39q-9 17 -9 48q0 76 75 76q39 0 80 -31l22 -17q20 -15 35 -15q22 0 30 18t2 41h38q9 -20 9 -52z" />
    <glyph glyph-name="odieresis" unicode="&#xf6;" horiz-adv-x="528" 
d="M485 290q0 -153 -61 -227.5t-160 -74.5t-160 74.5t-61 227.5t61 227.5t160 74.5t160 -74.5t61 -227.5zM407 290q0 42 -6 79t-20 74t-44 59t-73 22t-73 -22t-44 -59t-20 -74t-6 -79q0 -41 6 -78t20 -73.5t44 -58.5t73 -22t73 22t44 58.5t20 73.5t6 78zM400 626h-94v105h94
v-105zM228 626h-94v105h94v-105z" />
    <glyph glyph-name="divide" unicode="&#xf7;" 
d="M554 334q0 -110 -75.5 -188.5t-182.5 -78.5t-183.5 78.5t-76.5 188.5t76.5 188.5t183.5 78.5t182.5 -78.5t75.5 -188.5zM524 344l-109 42l-67 169l-25 -100l-194 34l48 -150l-47 -177l101 82l144 -131l6 159z" />
    <glyph glyph-name="oslash" unicode="&#xf8;" horiz-adv-x="528" 
d="M485 290q0 -153 -61 -227.5t-160 -74.5q-84 0 -140 53l-35 -53h-46l55 84q-55 77 -55 218q0 153 61 227.5t160 74.5q86 0 140 -53l35 53h46l-55 -83q55 -77 55 -219zM362 475q-34 49 -98 49q-43 0 -73 -22t-44 -59t-20 -74t-6 -79q0 -89 24 -146zM407 290q0 90 -24 147
l-217 -331q35 -48 98 -48q43 0 73 22t44 58.5t20 73.5t6 78z" />
    <glyph glyph-name="ugrave" unicode="&#xf9;" horiz-adv-x="488" 
d="M428 0h-78v79q-17 -40 -55 -64.5t-85 -24.5q-153 0 -153 190v394h78v-373q0 -80 23.5 -110t78.5 -30q53 0 83 51t30 121v341h78v-574zM303 626h-56l-137 119v11h114z" />
    <glyph glyph-name="uacute" unicode="&#xfa;" horiz-adv-x="488" 
d="M428 0h-78v79q-17 -40 -55 -64.5t-85 -24.5q-153 0 -153 190v394h78v-373q0 -80 23.5 -110t78.5 -30q53 0 83 51t30 121v341h78v-574zM385 745l-137 -119h-56l79 130h114v-11z" />
    <glyph glyph-name="ucircumflex" unicode="&#xfb;" horiz-adv-x="488" 
d="M428 0h-78v79q-17 -40 -55 -64.5t-85 -24.5q-153 0 -153 190v394h78v-373q0 -80 23.5 -110t78.5 -30q53 0 83 51t30 121v341h78v-574zM372 626h-49l-76 59l-76 -59h-49l89 126h72z" />
    <glyph glyph-name="udieresis" unicode="&#xfc;" horiz-adv-x="488" 
d="M428 0h-78v79q-17 -40 -55 -64.5t-85 -24.5q-153 0 -153 190v394h78v-373q0 -80 23.5 -110t78.5 -30q53 0 83 51t30 121v341h78v-574zM380 626h-94v105h94v-105zM208 626h-94v105h94v-105z" />
    <glyph glyph-name="yacute" unicode="&#xfd;" horiz-adv-x="451" 
d="M436 574l-141 -579q-22 -98 -59 -136.5t-97 -38.5q-126 0 -126 105q0 15 5 40h76q-4 -15 -4 -39q0 -19 12.5 -31t33.5 -12q28 0 45.5 22t26.5 76l-197 593h80l155 -472l115 472h75zM377 744l-137 -119h-56l79 130h114v-11z" />
    <glyph glyph-name="thorn" unicode="&#xfe;" horiz-adv-x="524" 
d="M481 274q0 -78 -18 -136.5t-48.5 -89.5t-64 -45.5t-71.5 -14.5q-53 0 -90 24.5t-51 57.5v-214h-78v912h78v-287q15 50 52.5 77.5t85.5 27.5q92 0 148.5 -75t56.5 -237zM400 276q0 131 -31 183.5t-100 52.5q-64 0 -97.5 -61.5t-33.5 -164.5q0 -224 132 -224q63 0 96.5 48
t33.5 166z" />
    <glyph glyph-name="ydieresis" unicode="&#xff;" horiz-adv-x="451" 
d="M436 574l-141 -579q-22 -98 -59 -136.5t-97 -38.5q-126 0 -126 105q0 15 5 40h76q-4 -15 -4 -39q0 -19 12.5 -31t33.5 -12q28 0 45.5 22t26.5 76l-197 593h80l155 -472l115 472h75zM376 625h-94v105h94v-105zM204 625h-94v105h94v-105z" />
    <glyph glyph-name="dotlessi" unicode="&#x131;" horiz-adv-x="198" 
d="M138 0h-78v574h78v-574z" />
    <glyph glyph-name="Lslash" unicode="&#x141;" horiz-adv-x="479" 
d="M446 0h-364v240l-44 -39l-43 54l87 77v436h82v-366l136 115l43 -53l-179 -154v-240h282v-70z" />
    <glyph glyph-name="lslash" unicode="&#x142;" horiz-adv-x="250" 
d="M254 376l-91 -74v-302h-78v238l-47 -39l-42 52l89 76v441h78v-380l47 39z" />
    <glyph glyph-name="OE" unicode="&#x152;" horiz-adv-x="982" 
d="M951 0h-425v77q-39 -49 -82 -68.5t-117 -20.5q-146 -1 -214 93.5t-68 302.5q0 396 282 396q131 0 199 -94v82h402v-69h-322v-270h295v-69h-295v-291h345v-69zM527 384q0 328 -200 328q-198 0 -198 -328q0 -175 46.5 -251.5t151.5 -76.5q109 0 154.5 78t45.5 250z" />
    <glyph glyph-name="oe" unicode="&#x153;" horiz-adv-x="868" 
d="M819 311q0 -24 -1 -36h-334q0 -18 2 -48q6 -93 39.5 -131.5t105.5 -38.5q103 0 107 108l-1 23l77 -8q2 -13 1 -37q-5 -73 -54.5 -114t-138.5 -41q-73 0 -116 24t-68 76q-57 -98 -174 -100q-99 -1 -160 74t-61 228t61 227.5t160 74.5q121 0 177 -105q27 56 65.5 80.5
t113.5 24.5q182 0 197 -227q2 -30 2 -54zM737 343q0 30 -3 57q-18 124 -115 124q-63 0 -99 -47.5t-36 -133.5h253zM407 290q0 42 -6 79t-20 74t-44 59t-73 22t-73 -22t-44 -59t-20 -74t-6 -79q0 -41 6 -78t20 -73.5t44 -58.5t73 -22t73 22t44 58.5t20 73.5t6 78z" />
    <glyph glyph-name="Scaron" unicode="&#x160;" horiz-adv-x="562" 
d="M515 196q0 -208 -243 -208q-222 0 -222 176q0 25 10 75l80 3q-8 -29 -8 -61q0 -65 34 -93.5t109 -28.5q81 0 119 31t38 104q0 55 -36 92t-125 75l-93 40q-126 52 -126 166q0 98 53 155.5t161 57.5q97 0 156 -51t59 -134q0 -29 -6 -53l-78 -2q5 28 5 37q0 59 -34 97
t-107 38q-63 0 -94 -31.5t-31 -88.5q0 -50 25.5 -76.5t93.5 -56.5l115 -51q145 -64 145 -212zM410 933l-108 -142h-57l-109 142h78l59 -79l62 79h75z" />
    <glyph glyph-name="scaron" unicode="&#x161;" horiz-adv-x="455" 
d="M414 173q0 -185 -187 -185q-178 0 -178 136q0 34 13 71l68 -8q-7 -30 -7 -45q0 -44 23 -66.5t78 -22.5t86.5 26t31.5 74q0 39 -24 58.5t-93 45.5l-62 23q-54 20 -81.5 52.5t-27.5 90.5q0 78 43.5 123.5t120.5 45.5q82 0 128.5 -38.5t46.5 -99.5q0 -19 -2 -27l-78 -10
q0 3 1 16t0 21q-2 32 -25.5 52.5t-66.5 20.5q-47 0 -72.5 -24t-25.5 -65q0 -32 19.5 -51t66.5 -37l68 -26q70 -27 103 -60.5t33 -90.5zM364 767l-108 -142h-57l-109 142h78l59 -79l62 79h75z" />
    <glyph glyph-name="Ydieresis" unicode="&#x178;" horiz-adv-x="560" 
d="M415 792h-94v89h94v-89zM243 792h-94v89h94v-89zM548 768l-222 -446v-322h-82v322l-232 446h90l189 -366l176 366h81z" />
    <glyph glyph-name="Zcaron" unicode="&#x17d;" horiz-adv-x="532" 
d="M490 0h-451v90l373 609h-337v69h415v-92l-372 -607h372v-69zM423 934l-108 -142h-57l-109 142h78l59 -79l62 79h75z" />
    <glyph glyph-name="zcaron" unicode="&#x17e;" horiz-adv-x="449" 
d="M400 0h-371v59l273 447h-248v68h346v-51l-276 -452h276v-71zM371 767l-108 -142h-57l-109 142h78l59 -79l62 79h75z" />
    <glyph glyph-name="florin" unicode="&#x192;" horiz-adv-x="347" 
d="M348 682q3 -34 -8 -68l-65 5q4 16 4 36q0 64 -56 64q-18 0 -33 -18t-15 -53v-210h100v-66h-98v-394q0 -78 -26 -118t-94 -40q-112 0 -120 98q-3 34 8 68l64 -4q-3 -21 -3 -40q0 -32 10.5 -46.5t40.5 -14.5q25 0 33 18t8 63v410h-75v66h75v186q0 156 125 156q66 0 94 -30
t31 -68z" />
    <glyph glyph-name="circumflex" unicode="&#x2c6;" horiz-adv-x="540" 
d="M395 636h-49l-76 59l-76 -59h-49l89 126h72z" />
    <glyph glyph-name="caron" unicode="&#x2c7;" horiz-adv-x="540" 
d="M410 777l-108 -142h-57l-109 142h78l59 -79l62 79h75z" />
    <glyph glyph-name="breve" unicode="&#x2d8;" horiz-adv-x="540" 
d="M425 744q-22 -108 -155 -108t-155 108h51q15 -50 104 -50q49 0 71.5 12.5t32.5 37.5h51z" />
    <glyph glyph-name="dotaccent" unicode="&#x2d9;" horiz-adv-x="540" 
d="M320 635h-99v100h99v-100z" />
    <glyph glyph-name="ring" unicode="&#x2da;" horiz-adv-x="540" 
d="M368 673q0 -39 -29 -67t-69 -28t-68 28t-28 67q0 40 28 67.5t68 27.5q41 0 69.5 -27.5t28.5 -67.5zM317 673q0 18 -14 31.5t-33 13.5q-18 0 -32 -13.5t-14 -31.5t14 -31.5t32 -13.5q19 0 33 13.5t14 31.5z" />
    <glyph glyph-name="ogonek" unicode="&#x2db;" horiz-adv-x="540" 
d="M334 -106q0 -26 -22.5 -41t-58.5 -15t-55 16.5t-19 45.5q0 48 79 96l7 4h50l-9 -6q-19 -12 -43 -40.5t-24 -53.5q0 -28 16 -28q23 0 23 25q0 8 -6 32h58q4 -19 4 -35z" />
    <glyph glyph-name="tilde" unicode="&#x2dc;" horiz-adv-x="540" 
d="M416 705q0 -37 -20 -53.5t-62 -16.5q-36 0 -70 29l-21 17q-22 19 -40 19q-23 0 -30.5 -22t0.5 -41h-39q-9 17 -9 48q0 76 75 76q39 0 80 -31l22 -17q20 -15 35 -15q22 0 30 18t2 41h38q9 -20 9 -52z" />
    <glyph glyph-name="hungarumlaut" unicode="&#x2dd;" horiz-adv-x="540" 
d="M422 730l-121 -95h-42l56 104h107v-9zM275 730l-111 -95h-41l56 104h96v-9z" />
    <glyph glyph-name="Delta" unicode="&#x394;" 
d="M554 334q0 -110 -75.5 -188.5t-182.5 -78.5t-183.5 78.5t-76.5 188.5t76.5 188.5t183.5 78.5t182.5 -78.5t75.5 -188.5zM524 344l-109 42l-67 169l-25 -100l-194 34l48 -150l-47 -177l101 82l144 -131l6 159z" />
    <glyph glyph-name="Omega" unicode="&#x3a9;" 
d="M554 334q0 -110 -75.5 -188.5t-182.5 -78.5t-183.5 78.5t-76.5 188.5t76.5 188.5t183.5 78.5t182.5 -78.5t75.5 -188.5zM524 344l-109 42l-67 169l-25 -100l-194 34l48 -150l-47 -177l101 82l144 -131l6 159z" />
    <glyph glyph-name="pi" unicode="&#x3c0;" horiz-adv-x="779" 
d="M738 397q-1 -146 -104 -249.5t-248 -103.5q-146 0 -250 103.5t-104 249.5q0 147 103.5 251t250.5 104q145 0 248.5 -104.5t103.5 -250.5zM688 397q0 126 -89.5 217.5t-213.5 91.5q-125 0 -214 -91.5t-89 -217.5q0 -128 88.5 -217.5t214.5 -89.5q125 0 214 89.5t89 217.5z
M532 468q0 -57 -34.5 -88.5t-96.5 -31.5h-55v-160h-66v407h128q124 0 124 -127zM468 467q0 76 -63 76h-59v-144h60q28 0 45 18.5t17 49.5z" />
    <glyph glyph-name="endash" unicode="&#x2013;" horiz-adv-x="500" 
d="M500 294h-500v69h500v-69z" />
    <glyph glyph-name="emdash" unicode="&#x2014;" horiz-adv-x="1000" 
d="M1000 294h-1000v69h1000v-69z" />
    <glyph glyph-name="quoteleft" unicode="&#x2018;" horiz-adv-x="215" 
d="M182 720q-38 -11 -55 -25q-29 -28 -19 -72h52v-124h-113v124q0 75 48 110q24 20 78 27z" />
    <glyph glyph-name="quoteright" unicode="&#x2019;" horiz-adv-x="215" 
d="M171 644q0 -75 -48 -110q-24 -20 -78 -27l-9 40q38 11 55 25q29 28 19 72h-52v124h113v-124z" />
    <glyph glyph-name="quotesinglbase" unicode="&#x201a;" horiz-adv-x="215" 
d="M171 0q0 -75 -48 -110q-24 -20 -78 -27l-9 40q38 11 55 25q29 28 19 72h-52v124h113v-124z" />
    <glyph glyph-name="quotedblleft" unicode="&#x201c;" horiz-adv-x="392" 
d="M358 720q-38 -11 -55 -25q-29 -28 -19 -72h52v-124h-113v124q0 75 48 110q24 20 78 27zM182 720q-38 -11 -55 -25q-29 -28 -19 -72h52v-124h-113v124q0 75 48 110q24 20 78 27z" />
    <glyph glyph-name="quotedblright" unicode="&#x201d;" horiz-adv-x="392" 
d="M347 644q0 -75 -48 -110q-24 -20 -78 -27l-9 40q38 11 55 25q29 28 19 72h-52v124h113v-124zM171 644q0 -75 -48 -110q-24 -20 -78 -27l-9 40q38 11 55 25q29 28 19 72h-52v124h113v-124z" />
    <glyph glyph-name="quotedblbase" unicode="&#x201e;" horiz-adv-x="392" 
d="M347 0q0 -75 -48 -110q-24 -20 -78 -27l-9 40q38 11 55 25q29 28 19 72h-52v124h113v-124zM171 0q0 -75 -48 -110q-24 -20 -78 -27l-9 40q38 11 55 25q29 28 19 72h-52v124h113v-124z" />
    <glyph glyph-name="dagger" unicode="&#x2020;" horiz-adv-x="544" 
d="M486 492h-175v-636h-78v636h-175v69h175v207h78v-207h175v-69z" />
    <glyph glyph-name="daggerdbl" unicode="&#x2021;" horiz-adv-x="544" 
d="M486 52h-175v-198h-78v198h-175v70h175v382h-175v69h175v195h78v-195h175v-69h-175v-382h175v-70z" />
    <glyph glyph-name="bullet" unicode="&#x2022;" horiz-adv-x="500" 
d="M430 382q0 -73 -53 -125t-128 -52q-74 0 -126.5 52t-52.5 125q0 74 52.5 126.5t126.5 52.5q75 0 128 -52.5t53 -126.5z" />
    <glyph glyph-name="ellipsis" unicode="&#x2026;" horiz-adv-x="864" 
d="M780 0h-119v126h119v-126zM492 0h-119v126h119v-126zM204 0h-119v126h119v-126z" />
    <glyph glyph-name="perthousand" unicode="&#x2030;" horiz-adv-x="1024" 
d="M988 188q0 -98 -28.5 -149t-104.5 -51t-104.5 51t-28.5 149q0 99 28.5 150t104.5 51t104.5 -51t28.5 -150zM304 579q0 -98 -28.5 -149t-104.5 -51t-104.5 51t-28.5 149q0 99 28.5 150t104.5 51t104.5 -51t28.5 -150zM591 768l-421 -768h-65l422 768h64zM658 188
q0 -98 -28.5 -149t-104.5 -51t-104.5 51t-28.5 149q0 99 28.5 150t104.5 51t104.5 -51t28.5 -150zM916 188q0 86 -10 113.5t-51 27.5t-51 -27.5t-10 -113.5t10 -113.5t51 -27.5t51 27.5t10 113.5zM232 579q0 86 -10 113.5t-51 27.5t-51 -27.5t-10 -113.5t10 -113.5t51 -27.5
t51 27.5t10 113.5zM586 188q0 86 -10 113.5t-51 27.5t-51 -27.5t-10 -113.5t10 -113.5t51 -27.5t51 27.5t10 113.5z" />
    <glyph glyph-name="guilsinglleft" unicode="&#x2039;" horiz-adv-x="376" 
d="M307 36l-252 193v95l252 191v-98l-178 -141l178 -142v-98z" />
    <glyph glyph-name="guilsinglright" unicode="&#x203a;" horiz-adv-x="376" 
d="M321 229l-254 -193v98l181 142l-181 141v98l254 -191v-95z" />
    <glyph glyph-name="fraction" unicode="&#x2044;" horiz-adv-x="111" 
d="M297 768l-421 -768h-63l422 768h62z" />
    <glyph glyph-name="trademark" unicode="&#x2122;" horiz-adv-x="623" 
d="M544 537h-56v181l-48 -181h-55l-51 181v-181h-49v231h82l48 -177l47 177h82v-231zM252 722h-65v-185h-62v185h-63v46h190v-46z" />
    <glyph glyph-name="partialdiff" unicode="&#x2202;" 
d="M554 334q0 -110 -75.5 -188.5t-182.5 -78.5t-183.5 78.5t-76.5 188.5t76.5 188.5t183.5 78.5t182.5 -78.5t75.5 -188.5zM524 344l-109 42l-67 169l-25 -100l-194 34l48 -150l-47 -177l101 82l144 -131l6 159z" />
    <glyph glyph-name="product" unicode="&#x220f;" 
d="M554 334q0 -110 -75.5 -188.5t-182.5 -78.5t-183.5 78.5t-76.5 188.5t76.5 188.5t183.5 78.5t182.5 -78.5t75.5 -188.5zM524 344l-109 42l-67 169l-25 -100l-194 34l48 -150l-47 -177l101 82l144 -131l6 159z" />
    <glyph glyph-name="summation" unicode="&#x2211;" 
d="M554 334q0 -110 -75.5 -188.5t-182.5 -78.5t-183.5 78.5t-76.5 188.5t76.5 188.5t183.5 78.5t182.5 -78.5t75.5 -188.5zM524 344l-109 42l-67 169l-25 -100l-194 34l48 -150l-47 -177l101 82l144 -131l6 159z" />
    <glyph glyph-name="minus" unicode="&#x2212;" 
d="M554 334q0 -110 -75.5 -188.5t-182.5 -78.5t-183.5 78.5t-76.5 188.5t76.5 188.5t183.5 78.5t182.5 -78.5t75.5 -188.5zM524 344l-109 42l-67 169l-25 -100l-194 34l48 -150l-47 -177l101 82l144 -131l6 159z" />
    <glyph glyph-name="radical" unicode="&#x221a;" horiz-adv-x="602" 
d="M586 850q-39 -50 -102.5 -188.5t-102.5 -245.5q-97 -270 -128 -446l-69 -33l-148 290l86 44l83 -227q13 76 47.5 197t60.5 190q94 250 169 374z" />
    <glyph glyph-name="infinity" unicode="&#x221e;" horiz-adv-x="746" 
d="M686 0h-78v574h78v-574zM690 686q0 -28 -6 -48l-81 4q6 8 6 34q0 46 -83 46q-53 0 -75.5 -20t-22.5 -62v-66h109v-68h-109v-506h-78v506h-180v-506h-78v506h-85v68h85v46q0 160 170 160q74 0 123 -42q40 42 135 42q79 0 124.5 -24t45.5 -70zM356 681q-12 15 -36 28
t-52 13q-53 0 -75.5 -20t-22.5 -62v-66h180v46q0 34 6 61z" />
    <glyph glyph-name="integral" unicode="&#x222b;" 
d="M554 334q0 -110 -75.5 -188.5t-182.5 -78.5t-183.5 78.5t-76.5 188.5t76.5 188.5t183.5 78.5t182.5 -78.5t75.5 -188.5zM524 344l-109 42l-67 169l-25 -100l-194 34l48 -150l-47 -177l101 82l144 -131l6 159z" />
    <glyph glyph-name="approxequal" unicode="&#x2248;" 
d="M554 334q0 -110 -75.5 -188.5t-182.5 -78.5t-183.5 78.5t-76.5 188.5t76.5 188.5t183.5 78.5t182.5 -78.5t75.5 -188.5zM524 344l-109 42l-67 169l-25 -100l-194 34l48 -150l-47 -177l101 82l144 -131l6 159z" />
    <glyph glyph-name="notequal" unicode="&#x2260;" horiz-adv-x="545" 
d="M580 640l-66 5q21 74 -38 74q-48 0 -48 -67v-78h109v-68h-109v-506h-78v506h-180v-506h-78v506h-85v68h85v46q0 160 170 160q69 0 117 -37q31 37 95 37q72 0 97.5 -42.5t8.5 -97.5zM354 682q-35 40 -86 40q-53 0 -75.5 -20t-22.5 -62v-66h180v58q0 30 4 50z" />
    <glyph glyph-name="lessequal" unicode="&#x2264;" 
d="M554 334q0 -110 -75.5 -188.5t-182.5 -78.5t-183.5 78.5t-76.5 188.5t76.5 188.5t183.5 78.5t182.5 -78.5t75.5 -188.5zM524 344l-109 42l-67 169l-25 -100l-194 34l48 -150l-47 -177l101 82l144 -131l6 159z" />
    <glyph glyph-name="greaterequal" unicode="&#x2265;" 
d="M554 334q0 -110 -75.5 -188.5t-182.5 -78.5t-183.5 78.5t-76.5 188.5t76.5 188.5t183.5 78.5t182.5 -78.5t75.5 -188.5zM524 344l-109 42l-67 169l-25 -100l-194 34l48 -150l-47 -177l101 82l144 -131l6 159z" />
    <glyph glyph-name="lozenge" unicode="&#x25ca;" 
d="M554 334q0 -110 -75.5 -188.5t-182.5 -78.5t-183.5 78.5t-76.5 188.5t76.5 188.5t183.5 78.5t182.5 -78.5t75.5 -188.5zM524 344l-109 42l-67 169l-25 -100l-194 34l48 -150l-47 -177l101 82l144 -131l6 159z" />
    <glyph glyph-name="apple" unicode="&#xf8ff;" 
d="M554 334q0 -110 -75.5 -188.5t-182.5 -78.5t-183.5 78.5t-76.5 188.5t76.5 188.5t183.5 78.5t182.5 -78.5t75.5 -188.5zM524 344l-109 42l-67 169l-25 -100l-194 34l48 -150l-47 -177l101 82l144 -131l6 159z" />
    <glyph glyph-name="fi" unicode="&#xfb01;" horiz-adv-x="488" 
d="M428 0h-78v574h78v-574zM432 686q0 -28 -6 -48l-81 4q6 8 6 34q0 46 -83 46q-53 0 -75.5 -20t-22.5 -62v-66h109v-68h-109v-506h-78v506h-85v68h85v46q0 81 37.5 120.5t132.5 39.5q79 0 124.5 -24t45.5 -70z" />
    <glyph glyph-name="fl" unicode="&#xfb02;" horiz-adv-x="488" 
d="M428 0h-78v686q-33 36 -82 36q-53 0 -75.5 -20t-22.5 -62v-66h109v-68h-109v-506h-78v506h-85v68h85v46q0 160 170 160q57 0 93 -23h73v-757z" />
    <glyph glyph-name="NUL" horiz-adv-x="0" 
 />
    </font>
</defs>
</svg>
