<?xml version="1.0" standalone="no"?>
<!DOCTYPE svg PUBLIC "-//W3C//DTD SVG 1.1//EN" "http://www.w3.org/Graphics/SVG/1.1/DTD/svg11.dtd" >
<svg xmlns="http://www.w3.org/2000/svg" xmlns:xlink="http://www.w3.org/1999/xlink" version="1.1">
<metadata>
Created by FontForge 20170731 at Sun Jul 24 19:25:27 2016
 By Aleksey,,,
Copyright (c) 2014 Swiss Typefaces. All rights reserved.
</metadata>
<defs>
<font id="SuisseWorks-MediumItalic" horiz-adv-x="678" >
  <font-face 
    font-family="Suisse Works"
    font-weight="500"
    font-style="italic"
    font-stretch="normal"
    units-per-em="1000"
    panose-1="2 2 6 4 6 0 0 0 0 0"
    ascent="800"
    descent="-200"
    x-height="537"
    cap-height="725"
    bbox="-152 -311 1442 986"
    underline-thickness="60"
    underline-position="-230"
    slope="-14"
    unicode-range="U+0020-FB02"
  />
<missing-glyph horiz-adv-x="500" 
d="M0 0v725h500v-725h-500zM239 362l-220 334v-667zM260 362l221 -333v667zM250 346l-217 -327h433zM33 706l217 -328l216 328h-433z" />
    <glyph glyph-name=".notdef" horiz-adv-x="500" 
d="M0 0v725h500v-725h-500zM239 362l-220 334v-667zM260 362l221 -333v667zM250 346l-217 -327h433zM33 706l217 -328l216 328h-433z" />
    <glyph glyph-name=".null" horiz-adv-x="0" 
 />
    <glyph glyph-name="nonmarkingreturn" horiz-adv-x="206" 
 />
    <glyph glyph-name="space" unicode=" " horiz-adv-x="206" 
 />
    <glyph glyph-name="exclam" unicode="!" horiz-adv-x="415" 
d="M197 503v1l55 220q5 21 43 30t71.5 0t28.5 -31l-55 -221l-133 -290h-20zM170 -12q-33 0 -56.5 23.5t-23.5 57.5q0 33 23.5 56.5t56.5 23.5q35 0 58.5 -23.5t23.5 -56.5q0 -34 -23.5 -57.5t-58.5 -23.5z" />
    <glyph glyph-name="quotedbl" unicode="&#x22;" horiz-adv-x="374" 
d="M86 725h126l-39 -262h-47zM259 725h126l-39 -262h-47z" />
    <glyph glyph-name="numbersign" unicode="#" horiz-adv-x="661" 
d="M63 531h143l28 194h71l-28 -194h165l28 194h71l-28 -194h137l-9 -68h-137l-24 -169h137l-10 -68h-136l-32 -226h-71l32 226h-165l-32 -226h-71l32 226h-142l9 68h142l24 169h-142zM268 463l-24 -169h165l24 169h-165z" />
    <glyph glyph-name="dollar" unicode="$" horiz-adv-x="665" 
d="M213 -102l-3 1l23 93q-95 12 -153 68t-56 136h126q-6 -63 18 -106.5t76 -58.5l73 290l-46 25q-72 37 -109.5 82t-37.5 110q0 93 80 149t200 56q12 0 19 -1l26 104h47l-27 -109q89 -16 142 -69t53 -133h-125q11 128 -79 162l-66 -264l25 -13q95 -49 140 -92t45 -112
q0 -74 -46 -127.5t-115.5 -77.5t-151.5 -24h-9l-22 -89h-47zM477 164q0 46 -31 76.5t-89 58.5l-69 -275h8q77 0 129 35t52 105zM240 583l1 -1q0 -72 88 -115l21 -12l63 251q-7 1 -18 1q-64 0 -109.5 -32t-45.5 -92z" />
    <glyph glyph-name="percent" unicode="%" horiz-adv-x="1085" 
d="M194 329q31 0 58 34t44 84t27 103.5t10 96.5q0 69 -43 69q-41 0 -74 -57t-49 -128.5t-16 -131.5q0 -70 43 -70zM63 473q0 102 73 182t157 80q58 0 94 -44t36 -116q0 -101 -73.5 -183t-158.5 -82q-57 0 -92.5 44.5t-35.5 118.5zM326 0h-76l508 725h76zM810 12q31 0 58 34
t44 84t27 103.5t10 96.5q0 69 -43 69q-41 0 -74 -57t-49 -128.5t-16 -131.5q0 -70 43 -70zM679 156q0 102 73 182t157 80q58 0 94 -44t36 -116q0 -101 -73.5 -183t-158.5 -82q-57 0 -92.5 44.5t-35.5 118.5z" />
    <glyph glyph-name="ampersand" unicode="&#x26;" horiz-adv-x="766" 
d="M41 179v1q0 99 74.5 160t187.5 89q-37 70 -37 134q0 61 35 103t84.5 59.5t106.5 17.5q71 0 119 -31.5t48 -81.5q0 -37 -20.5 -69t-55.5 -55t-69.5 -39t-73.5 -27l142 -212q59 91 81 232h91q-33 -130 -152 -262l93 -138l-104 -74l-74 112q-63 -58 -121.5 -84.5
t-126.5 -26.5q-100 0 -164 55t-64 137zM317 405v-1q-68 -28 -101 -82t-33 -122q0 -69 37.5 -110.5t100.5 -41.5q91 0 177 79l-168 256q-2 3 -13 22zM579 627v1q0 38 -26 60.5t-64 22.5q-54 0 -82.5 -31t-28.5 -83q0 -56 47 -133q72 29 113 66t41 97z" />
    <glyph glyph-name="quotesingle" unicode="'" horiz-adv-x="213" 
d="M92 725h126l-39 -262h-47z" />
    <glyph glyph-name="parenleft" unicode="(" horiz-adv-x="317" 
d="M432 803v-1l9 -18q-72 -64 -131.5 -163t-94.5 -203.5t-53.5 -202.5t-18.5 -175q0 -115 10 -175t35 -100l-20 -15q-124 161 -124 367q0 202 100.5 384t287.5 302z" />
    <glyph glyph-name="parenright" unicode=")" horiz-adv-x="336" 
d="M-89 -250v-1l-11 17q96 84 166.5 228t101 277.5t30.5 239.5q0 116 -9.5 176t-35.5 99l20 16q124 -161 124 -367q0 -203 -100 -384t-286 -301z" />
    <glyph glyph-name="asterisk" unicode="*" horiz-adv-x="375" 
d="M252 727v-121l120 41l19 -53l-119 -39l72 -101l-44 -34l-75 103l-72 -102l-47 32l72 101l-117 40l16 55l119 -43v121h56z" />
    <glyph glyph-name="plus" unicode="+" 
d="M360 0h-81v236h-236v76h236v227h81v-227h235v-76h-235v-236z" />
    <glyph glyph-name="comma" unicode="," horiz-adv-x="321" 
d="M137 -12q-34 1 -56.5 23t-22.5 57q0 33 23 56.5t58 23.5q36 0 58.5 -25.5t22.5 -64.5q0 -79 -69 -151t-158 -108l-7 14q56 30 103.5 78.5t47.5 96.5z" />
    <glyph glyph-name="hyphen" unicode="-" horiz-adv-x="381" 
d="M48 230l23 90h272l-23 -90h-272z" />
    <glyph glyph-name="period" unicode="." horiz-adv-x="321" 
d="M138 -13q-33 0 -56.5 23.5t-23.5 57.5q0 33 23.5 56.5t56.5 23.5q35 0 58.5 -23.5t23.5 -56.5q0 -34 -23.5 -57.5t-58.5 -23.5z" />
    <glyph glyph-name="slash" unicode="/" horiz-adv-x="459" 
d="M4 -72h-69l557 858h69z" />
    <glyph glyph-name="zero" unicode="0" horiz-adv-x="694" 
d="M268 23q57 0 108.5 60t84 146t51.5 176t19 156q0 146 -93 146q-58 0 -109.5 -59t-84 -145.5t-51 -175.5t-18.5 -157q0 -147 93 -147zM48 248q0 113 54 227.5t148 190.5t197 76q101 0 156 -72.5t55 -184.5q0 -114 -54 -229.5t-148 -192t-197 -76.5q-102 0 -156.5 73.5
t-54.5 187.5z" />
    <glyph glyph-name="one" unicode="1" horiz-adv-x="517" 
d="M429 736h-2l-147 -590q-21 -76 -11 -98t79 -30l-5 -18h-341l5 19q47 4 68.5 8.5t38.5 20.5t23 34t18 63l117 467h-138l6 23q174 17 267 101h22z" />
    <glyph glyph-name="two" unicode="2" horiz-adv-x="569" 
d="M-82 0l1 1l4 14q200 148 313 253.5t148 165t35 113.5q0 53 -34.5 81t-84.5 28q-134 0 -176 -118h-30q24 95 101 150t179 55q75 0 130 -40t55 -107q0 -73 -50 -135t-215 -199q-116 -95 -183 -145h351l-30 -117h-514z" />
    <glyph glyph-name="three" unicode="3" horiz-adv-x="589" 
d="M158 -13v-1q-100 0 -170 34l44 175h19q0 -82 35 -125t96 -43q76 0 131.5 52t55.5 123q0 132 -153 159l6 22l25 10q81 33 130.5 82t49.5 100q0 81 -109 81q-58 0 -107 -30.5t-68 -88.5h-30q25 95 103.5 150t175.5 55q73 0 123.5 -34.5t50.5 -86.5q0 -106 -198 -188l-1 -3
q60 -23 99.5 -71.5t39.5 -106.5q0 -76 -54.5 -138.5t-133.5 -94.5t-160 -32z" />
    <glyph glyph-name="four" unicode="4" horiz-adv-x="620" 
d="M381 0h-127l45 184h-320l15 59l459 482h108l-109 -436h124l-27 -105h-123zM325 289l83 331l-315 -331h232z" />
    <glyph glyph-name="five" unicode="5" horiz-adv-x="564" 
d="M94 405l193 320h322l-65 -116h-284l-61 -101q138 -24 208.5 -94t70.5 -160q0 -79 -52 -141.5t-129 -94t-159 -31.5q-100 0 -170 34l44 175h19q0 -82 35 -125t96 -43q76 0 129.5 47.5t53.5 123.5q0 31 -12.5 61t-39.5 60t-78.5 52.5t-120.5 32.5z" />
    <glyph glyph-name="six" unicode="6" horiz-adv-x="660" 
d="M595 307l1 -1q0 -131 -100 -225.5t-233 -94.5q-101 0 -160 61.5t-59 172.5q0 81 35.5 155t92.5 130.5t135 106t156.5 83t163.5 59.5l7 -25q-136 -45 -243 -133t-163 -204q87 93 198 93q76 0 122.5 -49t46.5 -129zM352 418q-79 0 -136 -53q-40 -93 -40 -197
q0 -145 94 -145q77 0 132.5 81t55.5 178q0 34 -8 62t-33 51t-65 23z" />
    <glyph glyph-name="seven" unicode="7" horiz-adv-x="545" 
d="M152 0h1h-149q24 88 70 168.5t97 139t124 118.5t129.5 97.5t135.5 85.5h-468l29 116h505l-29 -117q-91 -71 -155.5 -130t-126 -133.5t-102 -159.5t-61.5 -185z" />
    <glyph glyph-name="eight" unicode="8" horiz-adv-x="666" 
d="M25 162v-1q0 40 20.5 76t55 61.5t72 44t80.5 31.5q-97 81 -97 171q0 91 78 143.5t188 52.5q90 0 151 -39t61 -106q0 -116 -208 -185l4 -3q33 -24 48.5 -36t41 -35t37.5 -41t22 -43t10 -52q0 -57 -30 -100.5t-78.5 -67t-102 -35t-108.5 -11.5q-100 0 -172.5 48.5
t-72.5 126.5zM117 165v-1q0 -65 41 -103.5t120 -38.5q77 0 133 32t56 98q0 28 -17.5 55t-39.5 45.5t-67 52.5l-60 45l-4 2q-162 -64 -162 -187zM546 593q0 53 -35.5 82t-92.5 29q-66 0 -110 -29t-44 -80q0 -41 25 -71.5t74 -65.5l38 -29q70 29 107.5 67t37.5 97z" />
    <glyph glyph-name="nine" unicode="9" horiz-adv-x="661" 
d="M77 423q0 130 100 225t233 95q101 0 160 -61.5t59 -172.5q0 -80 -35.5 -155t-93 -133t-135 -108.5t-156.5 -85.5t-163 -61l-7 25q136 44 244 136t164 213q-88 -95 -201 -95q-76 0 -122.5 49t-46.5 129zM321 311q79 0 136 53q40 93 40 197q0 145 -94 145q-77 0 -132.5 -81
t-55.5 -178q0 -34 8 -62t33 -51t65 -23z" />
    <glyph glyph-name="colon" unicode=":" horiz-adv-x="376" 
d="M138 -13q-33 0 -56.5 23.5t-23.5 57.5q0 33 23.5 56.5t56.5 23.5q35 0 58.5 -23.5t23.5 -56.5q0 -34 -23.5 -57.5t-58.5 -23.5zM236 383q-33 0 -56.5 23.5t-23.5 57.5q0 33 23.5 56.5t56.5 23.5q35 0 58.5 -23.5t23.5 -56.5q0 -34 -23.5 -57.5t-58.5 -23.5z" />
    <glyph glyph-name="semicolon" unicode=";" horiz-adv-x="378" 
d="M139 -12q-34 1 -56.5 23t-22.5 57q0 33 23 56.5t58 23.5q36 0 58.5 -25.5t22.5 -64.5q0 -79 -69 -151t-158 -108l-7 14q56 30 103.5 78.5t47.5 96.5zM238 383q-33 0 -56.5 23.5t-23.5 57.5q0 33 23.5 56.5t56.5 23.5q35 0 58.5 -23.5t23.5 -56.5q0 -34 -23.5 -57.5
t-58.5 -23.5z" />
    <glyph glyph-name="less" unicode="&#x3c;" 
d="M39 309l521 234v-87l-424 -183l424 -180v-86l-521 231v71z" />
    <glyph glyph-name="equal" unicode="=" 
d="M567 344h-495v75h495v-75zM567 138h-495v75h495v-75z" />
    <glyph glyph-name="greater" unicode="&#x3e;" 
d="M600 309v-71l-521 -231v86l424 180l-424 183v87z" />
    <glyph glyph-name="question" unicode="?" horiz-adv-x="629" 
d="M596 636q0 -55 -31.5 -95.5t-79 -68t-97.5 -56.5t-94 -77t-60 -113l-3 -12h-31l2 9q17 72 49.5 128.5t66.5 90t66 62.5t52.5 61.5t20.5 71.5q0 35 -21.5 57t-65.5 22q-62 0 -109.5 -45.5t-92.5 -130.5h-20l45 181q95 36 194 36q90 0 149.5 -30.5t59.5 -90.5zM190 -13
q-33 0 -56.5 23.5t-23.5 57.5q0 33 23.5 56.5t56.5 23.5q35 0 58.5 -23.5t23.5 -56.5q0 -34 -23.5 -57.5t-58.5 -23.5z" />
    <glyph glyph-name="at" unicode="@" horiz-adv-x="848" 
d="M813 414q0 -117 -54 -186.5t-125 -69.5q-44 0 -72.5 29t-31.5 75q-51 -99 -159 -99q-64 0 -105.5 45t-41.5 132q0 95 58.5 166.5t150.5 71.5q46 0 76.5 -25t42.5 -65l10 71h57l-31 -227q-3 -15 -3 -32q0 -82 56 -82q47 0 77.5 51.5t30.5 141.5q0 124 -82.5 197t-214.5 73
q-147 0 -239 -92.5t-92 -236.5q0 -133 83.5 -219.5t217.5 -86.5q95 0 192 47l23 -60q-101 -46 -219 -46q-162 0 -262.5 103t-100.5 264q0 163 113.5 273t285.5 110q157 0 258 -86.5t101 -236.5zM528 405q0 54 -24.5 82t-69.5 28q-61 0 -100.5 -52t-39.5 -125q0 -56 25 -85
t69 -29q62 0 101 53.5t39 127.5z" />
    <glyph glyph-name="A" unicode="A" horiz-adv-x="763" 
d="M-66 0h-2l4 18q52 6 81 33.5t97 136.5l329 532q45 7 76 44h5l89 -652q9 -60 16 -70q11 -18 61 -24l-5 -18h-292l4 18q52 7 70 20t12 53l-19 147h-261l-10 -16q-30 -48 -47.5 -79.5t-26 -54.5t-9.5 -35t8.5 -20t21.5 -10.5t36 -4.5l-4 -18h-234zM414 593l-184 -301h222z
" />
    <glyph glyph-name="B" unicode="B" horiz-adv-x="709" 
d="M141 725h133q40 0 98.5 1t65.5 1q257 0 257 -133q0 -76 -57 -130t-144 -76l-1 -2q66 -11 110 -50t44 -102q0 -65 -37 -113.5t-98 -74t-124.5 -37t-130.5 -11.5q-16 0 -65 1t-91 1h-141l4 18q72 8 91.5 28.5t39.5 99.5l108 433q8 30 11.5 45t4 31t-3 22.5t-14 13.5
t-25 9.5t-39.5 6.5zM286 358l-69 -277q-6 -26 2.5 -36.5t39.5 -10.5q109 0 174.5 52.5t65.5 155.5q0 59 -34.5 87.5t-115.5 28.5h-63zM368 689l-74 -297h63q88 0 142.5 54t54.5 143q0 51 -34 75.5t-111 24.5h-41z" />
    <glyph glyph-name="C" unicode="C" horiz-adv-x="692" 
d="M675 479h-1h-19q0 121 -34.5 173.5t-124.5 52.5q-70 0 -130 -46t-97.5 -116.5t-58 -149t-20.5 -148.5q0 -208 172 -208q84 0 149.5 48t109.5 127l25 -13q-44 -95 -122 -153.5t-193 -58.5q-127 0 -208.5 76t-81.5 208q0 98 39.5 186t104 150t150.5 98.5t177 36.5
q108 0 202 -50z" />
    <glyph glyph-name="D" unicode="D" horiz-adv-x="802" 
d="M141 725h-1h250q176 0 282.5 -74.5t106.5 -214.5q0 -88 -28.5 -160t-79.5 -123t-121 -85.5t-152.5 -51t-174.5 -16.5h-263l4 18q72 8 91.5 28.5t39.5 99.5l108 433q8 30 11.5 45t4 31t-3 22.5t-14 13.5t-25 9.5t-39.5 6.5zM205 36h27q188 0 292.5 113t104.5 300
q0 125 -57 182.5t-178 57.5h-26z" />
    <glyph glyph-name="E" unicode="E" horiz-adv-x="687" 
d="M141 725h-1h332q157 0 237 3l-35 -239h-20q-3 66 -14 103t-42 60t-77.5 30t-129.5 7h-24l-73 -293h153l86 115h17l-68 -276h-18l-28 117h-153l-69 -274q-6 -24 2 -33.5t40 -9.5q137 0 210 40.5t144 162.5h19l-90 -239q-80 1 -243 1h-336l4 18q72 8 91.5 28.5t39.5 99.5
l108 433q8 30 11.5 45t4 31t-3 22.5t-14 13.5t-25 9.5t-39.5 6.5z" />
    <glyph glyph-name="F" unicode="F" horiz-adv-x="634" 
d="M-39 0h-1l4 18q72 8 91.5 28.5t39.5 99.5l108 433q8 30 11.5 45t4 31t-3 22.5t-14 13.5t-25 9.5t-39.5 6.5l4 18h343q154 0 226 3l-36 -239h-20q-3 66 -14 103t-41.5 60t-76.5 30t-130 7h-24l-73 -293h153l85 115h17l-68 -276h-18l-27 117h-152l-52 -208q-21 -76 -9 -97
t90 -29l-4 -18h-349z" />
    <glyph glyph-name="G" unicode="G" horiz-adv-x="773" 
d="M361 -13v1q-149 0 -234.5 78t-85.5 215q0 89 37 173t100.5 148t154.5 102.5t193 38.5q53 0 117.5 -15t100.5 -35l-37 -213h-20q-1 117 -41.5 171.5t-132.5 54.5q-73 0 -136 -44t-102.5 -112.5t-62 -146.5t-22.5 -151q0 -101 46.5 -163.5t133.5 -62.5q52 0 93 23.5
t53 74.5l14 52q8 30 11.5 45t4 31t-3 22t-14.5 13t-25 9.5t-40 6.5l4 18h305l-4 -18q-52 -9 -66 -28t-35 -100l-28 -111q-115 -77 -278 -77z" />
    <glyph glyph-name="H" unicode="H" horiz-adv-x="859" 
d="M787 579h-4l-108 -433q-21 -76 -11 -98t79 -30l-4 -18h-335l4 18q72 8 91.5 28.5t39.5 99.5l51 206h-309l-51 -206q-21 -76 -11 -98t79 -30l-4 -18h-335l4 18q72 8 91.5 28.5t39.5 99.5l108 433q8 30 11.5 45t4 31t-3 22.5t-14 13.5t-25 9.5t-39.5 6.5l4 18h335l-4 -18
q-74 -9 -92 -28t-39 -100l-46 -183h309l46 183q8 30 11.5 45t4 31t-3 22.5t-14 13.5t-25 9.5t-39.5 6.5l4 18h335l-4 -18q-74 -9 -92 -28t-39 -100z" />
    <glyph glyph-name="I" unicode="I" horiz-adv-x="413" 
d="M341 579h-2l-108 -433q-21 -76 -11 -98t79 -30l-4 -18h-335l4 18q72 8 91.5 28.5t39.5 99.5l108 433q8 30 11.5 45t4 31t-3 22.5t-14 13.5t-25 9.5t-39.5 6.5l4 18h335l-4 -18q-74 -9 -92 -28t-39 -100z" />
    <glyph glyph-name="J" unicode="J" horiz-adv-x="464" 
d="M415 579l-2 -1l-86 -346q-63 -246 -270 -246q-71 0 -113 14l39 157h12q9 -30 14.5 -44.5t17 -40t25 -37.5t30.5 -12q14 0 24 5.5t23 24t28 61t32 110.5l88 355q8 30 11.5 45t4 31t-3 22.5t-14 13.5t-25 9.5t-39.5 6.5l4 18h335l-4 -18q-74 -9 -92 -28t-39 -100z" />
    <glyph glyph-name="K" unicode="K" horiz-adv-x="778" 
d="M288 366l-2 -2l-55 -220q-21 -76 -11 -98t79 -30l-4 -18h-335l4 18q72 8 91.5 28.5t39.5 99.5l108 433q8 30 11.5 45t4 31t-3 22.5t-14 13.5t-25 9.5t-39.5 6.5l4 18h335l-4 -18q-74 -9 -92 -28t-39 -100l-53 -213l256 207q109 86 100 113q-6 17 -54 21l3 18h246l-4 -18
q-48 -6 -88.5 -29t-143.5 -104l-193 -153l178 -305q30 -53 55 -72.5t65 -23.5l-4 -18h-306l3 18q47 4 56.5 21t-10.5 49z" />
    <glyph glyph-name="L" unicode="L" horiz-adv-x="633" 
d="M341 579h-1l-125 -503q-6 -26 0.5 -33.5t30.5 -7.5q134 0 203 42.5t143 172.5h20l-93 -251q-25 0 -106 0.5t-99 0.5h-354l4 18q72 8 91.5 28.5t39.5 99.5l108 433q8 30 11.5 45t4 31t-3 22.5t-14 13.5t-25 9.5t-39.5 6.5l4 18h335l-4 -18q-74 -9 -92 -28t-39 -100z" />
    <glyph glyph-name="M" unicode="M" horiz-adv-x="981" 
d="M1043 725h-3l-4 -18q-74 -9 -92 -28t-39 -100l-108 -433q-21 -76 -11 -98t79 -30l-4 -18h-335l4 18q72 8 91.5 28.5t39.5 99.5l120 483l-386 -601h-30l-100 616l-124 -498q-21 -76 -11 -98t79 -30l-4 -18h-245l4 18q72 8 91.5 28.5t39.5 99.5l108 433q8 30 11.5 45t4 31
t-3 22.5t-14 13.5t-25 9.5t-39.5 6.5l4 18h250l80 -501l321 501h251z" />
    <glyph glyph-name="N" unicode="N" horiz-adv-x="806" 
d="M597 152l-2 -1l106 427q8 30 11.5 45t4 31t-3 22.5t-14 13.5t-25 9.5t-39.5 6.5l4 18h245l-4 -18q-74 -9 -92 -28t-39 -100l-144 -579h-84l-276 562l-104 -416q-21 -76 -11 -98t79 -30l-4 -18h-245l4 18q72 8 91.5 28.5t39.5 99.5l119 480v1q-20 41 -32 58.5t-29 25.5
l3 15h163z" />
    <glyph glyph-name="O" unicode="O" horiz-adv-x="804" 
d="M46 271q0 87 33 171.5t90 151t141 107.5t179 41q127 0 208 -75.5t81 -207.5q0 -88 -33 -172.5t-90.5 -151t-142 -107.5t-179.5 -41q-125 0 -206 76t-81 208zM196 245q0 -221 151 -221q67 0 122.5 46t89 117.5t51.5 149t18 148.5q0 220 -152 220q-67 0 -122.5 -46
t-88.5 -117t-51 -148.5t-18 -148.5z" />
    <glyph glyph-name="P" unicode="P" horiz-adv-x="671" 
d="M141 725h-2h129q27 0 87 0.5t73 0.5q130 0 207 -42.5t77 -131.5q0 -82 -53.5 -141t-130 -85t-163.5 -26q-59 0 -94 5l-40 -159q-22 -76 -10 -98t88 -30l-4 -18h-345l4 18q72 8 91.5 28.5t39.5 99.5l108 433q8 30 11.5 45t4 31t-3 22.5t-14 13.5t-25 9.5t-39.5 6.5z
M366 690l-91 -367h10q130 0 203 59t73 176q0 132 -151 132h-44z" />
    <glyph glyph-name="Q" unicode="Q" horiz-adv-x="804" 
d="M46 271l2 1q0 87 33 171.5t90 151t141 107.5t179 41q127 0 208 -75.5t81 -207.5q0 -175 -118 -316.5t-296 -153.5l-55 -41q-3 -2 -10 -7t-11 -7q-3 -3 -11 -9l1 -2q32 13 87 13q52 0 87 -12.5t52.5 -30.5t32 -36t36 -30.5t52.5 -12.5q33 0 57 10l8 -30q-44 -22 -123 -22
q-63 0 -105.5 14t-62.5 34t-34.5 40.5t-33 34.5t-46.5 14q-8 0 -16 -1.5t-13 -3t-14 -6.5t-12 -6.5t-15.5 -10t-16.5 -10.5l-14 23l130 93q-119 6 -194.5 80.5t-75.5 202.5zM198 246q0 -221 151 -221q67 0 122.5 46t89 117.5t51.5 149t18 148.5q0 220 -152 220
q-67 0 -122.5 -46t-88.5 -117t-51 -148.5t-18 -148.5z" />
    <glyph glyph-name="R" unicode="R" horiz-adv-x="760" 
d="M142 725l-2 -1h135q24 0 78.5 1t66.5 1q290 0 290 -150q0 -86 -62 -137t-159 -73q25 -25 54 -103l59 -157q20 -52 39 -67.5t65 -21.5l-5 -18h-217q-14 62 -46 147l-77 199q-16 0 -45.5 0.5t-33.5 0.5l-50 -200q-22 -76 -10 -98t88 -30l-4 -18h-345l4 18q72 8 91.5 28.5
t39.5 99.5l108 433q8 30 11.5 45t4 31t-3 22.5t-14 13.5t-25 9.5t-39.5 6.5zM399 688h-31l-77 -307h32q114 0 175 45.5t61 151.5q0 57 -39.5 83.5t-120.5 26.5z" />
    <glyph glyph-name="S" unicode="S" horiz-adv-x="626" 
d="M547 217l1 1q0 -76 -47.5 -129.5t-117.5 -77t-151 -23.5q-143 0 -234 54l59 244h20q-17 -138 23 -199.5t139 -61.5q74 0 129 31.5t55 99.5q0 64 -98 139l-80 61q-63 47 -95.5 90t-32.5 95q0 88 81.5 145t206.5 57q53 0 116.5 -13t96.5 -33l-51 -209h-20q11 104 -28.5 161
t-122.5 57q-65 0 -111.5 -25t-46.5 -82q0 -62 71 -115l95 -72q37 -29 56 -45t43 -41.5t34 -51.5t10 -57z" />
    <glyph glyph-name="T" unicode="T" horiz-adv-x="695" 
d="M239 146h2l137 546q-108 0 -170.5 -43t-130.5 -165h-20l85 244q77 -3 238 -3h146q160 0 240 3l-36 -244h-20q-5 67 -12.5 102.5t-29 62t-57 35t-98.5 8.5l-137 -546q-21 -75 -9 -97.5t87 -30.5l-4 -18h-357l4 18q56 6 81 17.5t36.5 33.5t24.5 77z" />
    <glyph glyph-name="U" unicode="U" horiz-adv-x="799" 
d="M758 579h-2l-69 -280q-41 -161 -128 -236.5t-224 -75.5q-297 0 -225 288l75 303q22 78 13 99t-78 30l4 18h335l-4 -18q-41 -5 -59.5 -9.5t-33.5 -21t-20.5 -34t-17.5 -64.5l-72 -289q-32 -121 -2.5 -183t129.5 -62q198 0 261 253l70 282q8 30 11.5 45t4 31t-3 22.5
t-14 13.5t-25 9.5t-39.5 6.5l4 18h245l-4 -18q-74 -10 -93.5 -29.5t-37.5 -98.5z" />
    <glyph glyph-name="V" unicode="V" horiz-adv-x="742" 
d="M261 -8h-1l-74 618q-6 57 -19 74t-57 23l3 18h301l-5 -18q-51 -6 -68.5 -20.5t-13.5 -54.5l51 -485l211 356q42 70 60.5 109.5t14.5 59.5t-17.5 25.5t-46.5 9.5l5 18h237l-5 -18q-52 -6 -80.5 -33.5t-93.5 -136.5l-325 -545h-77z" />
    <glyph glyph-name="W" unicode="W" horiz-adv-x="1043" 
d="M1143 725l-1 1l-3 -18q-30 -3 -46 -8.5t-37 -22.5t-42 -49.5t-51 -89.5l-286 -545h-81l-33 491l-254 -491h-82l-42 617q-4 57 -17 74t-58 23l3 18h298l-4 -18q-51 -6 -68 -21t-15 -55l25 -463l206 401l-2 49q-4 55 -16 69t-59 20l4 18h297l-3 -18q-54 -6 -70 -18t-14 -49
l25 -472l178 343q25 48 40.5 79.5t21 53.5t7 33t-9.5 17.5t-19 8t-31 4.5l4 18h235z" />
    <glyph glyph-name="X" unicode="X" horiz-adv-x="820" 
d="M485 88v-1l-94 219l-161 -161q-83 -81 -80 -105q3 -19 60 -22l-4 -18h-269l3 18q56 4 108.5 34.5t132.5 110.5l190 190l-111 262q-21 51 -45.5 71t-62.5 21l3 18h330l-3 -18q-63 -4 -79 -17t1 -52l75 -177l120 119q81 81 80 104q-1 21 -60 24l4 18h269l-3 -18
q-57 -4 -110 -34.5t-131 -110.5l-149 -149l130 -303q21 -52 46 -72t62 -20l-3 -18h-330l3 18q63 4 79 17t-1 52z" />
    <glyph glyph-name="Y" unicode="Y" horiz-adv-x="715" 
d="M409 292h1l-36 -146q-21 -75 -9 -97.5t87 -30.5l-4 -18h-357l4 18q56 6 81 17.5t36.5 33.5t24.5 77l35 139l-93 329q-16 54 -29.5 70.5t-46.5 22.5l4 18h295l-4 -18q-51 -6 -70 -22t-10 -50l79 -295l184 223q35 42 52 69t16.5 42.5t-13.5 22.5t-41 10l4 18h223l-4 -18
q-43 -6 -75 -29.5t-93 -95.5z" />
    <glyph glyph-name="Z" unicode="Z" horiz-adv-x="688" 
d="M150 36h83q147 0 218 38t140 162h20l-84 -239q-76 3 -230 3h-329l2 12l582 677h-44q-151 0 -219.5 -37.5t-138.5 -162.5h-19l84 239q76 -3 229 -3h295l-2 -11z" />
    <glyph glyph-name="bracketleft" unicode="[" horiz-adv-x="354" 
d="M-21 -216l245 988h207l-11 -44h-88l-225 -901h89l-11 -43h-206z" />
    <glyph glyph-name="backslash" unicode="\" horiz-adv-x="459" 
d="M561 -72h-69l-557 858h69z" />
    <glyph glyph-name="bracketright" unicode="]" horiz-adv-x="360" 
d="M396 772l-246 -988h-206l11 43h88l223 901h-88l11 44h207z" />
    <glyph glyph-name="asciicircum" unicode="^" horiz-adv-x="433" 
d="M266 725l202 -393h-82l-156 300l-155 -300h-82l202 393h71z" />
    <glyph glyph-name="underscore" unicode="_" horiz-adv-x="472" 
d="M-21 -74l16 74h423l-18 -74h-421z" />
    <glyph glyph-name="grave" unicode="`" horiz-adv-x="259" 
d="M45 772h144l27 -169h-16z" />
    <glyph glyph-name="a" unicode="a" horiz-adv-x="613" 
d="M144 -13h1q-55 0 -87 42t-32 117q0 89 47 182.5t124.5 156t156.5 62.5q46 0 75 -20l134 20l-44 -162l-73 -270q-20 -66 15 -66q28 0 64 29.5t65 76.5l15 -11q-40 -76 -95.5 -116.5t-106.5 -40.5q-55 0 -72 39t3 124l10 42q-38 -94 -89.5 -149.5t-110.5 -55.5zM211 66h1
q42 0 94.5 100.5t89.5 244.5l17 72q-21 28 -55 28q-56 0 -101.5 -62t-68 -143t-22.5 -152q0 -88 45 -88z" />
    <glyph glyph-name="b" unicode="b" horiz-adv-x="571" 
d="M37 51l141 559q19 70 10 88.5t-63 20.5l4 17l226 67q-7 -25 -25.5 -96.5t-32.5 -124.5l-66 -240q38 94 89 149.5t110 55.5q55 0 86.5 -42t31.5 -118q0 -89 -47 -182.5t-124 -155.5t-157 -62q-93 0 -183 64zM179 122l-19 -73q21 -26 57 -26q55 0 100.5 62t68 142.5
t22.5 152.5q0 88 -45 88q-43 0 -95 -100.5t-89 -245.5z" />
    <glyph glyph-name="c" unicode="c" horiz-adv-x="485" 
d="M25 153h-1q0 96 47.5 188t124 149t156.5 57q141 0 122 -166l-117 -3q8 28 11.5 45.5t5 40.5t-9 35t-31.5 12q-47 0 -88.5 -57t-63 -132.5t-21.5 -140.5q0 -50 20 -79t57 -29q46 0 94 34.5t81 107.5l17 -10q-94 -218 -258 -218q-71 0 -108.5 44.5t-37.5 121.5z" />
    <glyph glyph-name="d" unicode="d" horiz-adv-x="615" 
d="M426 528h1l22 82q19 70 10.5 88.5t-63.5 20.5l4 17l226 67l-58 -221l-124 -467q-20 -66 15 -66q28 0 64 29.5t65 76.5l15 -11q-40 -76 -95.5 -116.5t-106.5 -40.5q-111 0 -69 163l11 43q-38 -94 -89.5 -150t-109.5 -56q-55 0 -87 42.5t-32 117.5q0 89 47 182.5
t124.5 155.5t156.5 62q41 0 73 -19zM211 66q42 0 94.5 100t89.5 244l19 71q-17 30 -56 30q-56 0 -101.5 -62t-68 -142.5t-22.5 -151.5q0 -89 45 -89z" />
    <glyph glyph-name="e" unicode="e" horiz-adv-x="498" 
d="M28 153h1q0 96 47 187.5t125.5 149t162.5 57.5q50 0 90.5 -24t40.5 -73q0 -106 -178 -147l-144 -33q-10 -46 -10 -90q0 -50 19.5 -78.5t58.5 -28.5q46 0 92.5 34t82.5 108l17 -10q-92 -218 -258 -218q-71 0 -109 44.5t-38 121.5zM335 511v-1q-50 0 -91.5 -61.5
t-63.5 -149.5l46 10q75 17 112.5 57t37.5 93q0 52 -41 52z" />
    <glyph glyph-name="f" unicode="f" horiz-adv-x="418" 
d="M41 0h-1l123 494h-85l11 44h85l3 12q28 109 112.5 169.5t196.5 60.5q13 0 39 -2l-32 -130h-11q-14 25 -23.5 38t-26.5 25.5t-36 12.5t-37 -6.5t-36 -21.5t-27.5 -46t-4.5 -73l4 -39h161l-11 -44h-155l-123 -494h-126z" />
    <glyph glyph-name="g" unicode="g" horiz-adv-x="589" 
d="M88 332v-1q0 88 77.5 151.5t177.5 63.5q33 0 62 -9h208l-11 -44l-128 2q37 -39 37 -92q0 -88 -77 -151.5t-177 -63.5q-38 0 -67 10q-57 -35 -57 -59q0 -19 52 -24l117 -12q85 -9 128 -34t43 -74q0 -66 -54 -118t-130 -77t-153 -25q-87 0 -138 28.5t-51 76.5q0 88 172 121
q-41 9 -63 30.5t-22 48.5q0 28 20 52.5t42.5 39t58.5 33.5q7 3 10 5q-77 39 -77 122zM252 -15l-105 11h-3l-2 1q-39 -13 -68 -42.5t-29 -65.5q0 -35 31 -54t85 -19q77 0 141 31.5t64 83.5q0 25 -27 36.5t-87 17.5zM399 427q0 85 -65 85q-43 0 -74.5 -36t-45 -81.5
t-13.5 -88.5q0 -84 66 -84q42 0 73.5 35.5t45 81t13.5 88.5z" />
    <glyph glyph-name="h" unicode="h" horiz-adv-x="616" 
d="M299 582h2l-71 -275q56 122 104.5 181t106.5 59t81 -49.5t-3 -151.5l-68 -231q-20 -66 15 -66q28 0 64 29.5t65 76.5l15 -11q-40 -76 -95.5 -116.5t-106.5 -40.5q-58 0 -77.5 39.5t2.5 123.5l55 192q37 127 -6 127q-42 0 -108.5 -125.5t-98.5 -251.5l-23 -92h-123
l153 610q18 71 9 89t-63 20l4 17l226 67q-14 -51 -59 -221z" />
    <glyph glyph-name="i" unicode="i" horiz-adv-x="340" 
d="M56 150h1l51 204q18 70 9.5 88.5t-62.5 20.5l4 17l226 67q-14 -51 -59 -221l-53 -211q-16 -66 16 -66q28 0 64 29.5t65 76.5l15 -11q-40 -76 -95.5 -116.5t-106.5 -40.5q-115 0 -75 163zM249 636q-34 0 -58 23.5t-24 57.5q0 33 24 56t58 23q35 0 58.5 -23t23.5 -56
q0 -34 -23.5 -57.5t-58.5 -23.5z" />
    <glyph glyph-name="j" unicode="j" horiz-adv-x="331" 
d="M72 83v-1l68 271q18 70 9.5 88.5t-62.5 20.5l4 17l226 67q-31 -108 -58 -221l-56 -227q-30 -124 -98 -199.5t-205 -137.5l-5 12q76 64 114 136t63 174zM280 635q-34 0 -58 23.5t-24 57.5q0 33 24 56t58 23q35 0 58.5 -23t23.5 -56q0 -34 -23.5 -57.5t-58.5 -23.5z" />
    <glyph glyph-name="k" unicode="k" horiz-adv-x="596" 
d="M289 95h2l-61 192l-73 -287h-126l155 610q19 70 10 88.5t-63 20.5l4 17l226 67q-14 -51 -59 -221l-75 -294l168 146q26 22 38.5 36.5t15 25.5t-8.5 16.5t-37 8.5l3 17h205l-4 -17q-41 -2 -71 -18t-93 -68l-109 -94l74 -221q13 -42 26 -56.5t34 -14.5q38 0 83 82l15 -8
q-56 -136 -160 -136q-50 0 -76 28t-43 80z" />
    <glyph glyph-name="l" unicode="l" horiz-adv-x="343" 
d="M58 150h1l117 460q19 70 10 88.5t-63 20.5l4 17l226 67q-14 -51 -59 -221l-119 -467q-20 -66 15 -66q28 0 64 29.5t65 76.5l15 -11q-40 -76 -95.5 -116.5t-106.5 -40.5q-113 0 -74 163z" />
    <glyph glyph-name="m" unicode="m" horiz-adv-x="887" 
d="M676 -13h1q-58 0 -78.5 39.5t2.5 123.5l57 191q39 127 -8 127q-42 0 -107.5 -125.5t-97.5 -250.5l-23 -92h-123l85 342q18 72 18 99t-22 27q-42 0 -108.5 -125.5t-98.5 -250.5l-23 -92h-123l88 354q18 70 9.5 88.5t-62.5 20.5l4 17l222 67l-61 -241q56 121 105 180.5
t107 59.5q53 0 74 -46.5t1 -137.5q-1 -2 -6.5 -26.5t-7.5 -29.5q54 120 103 180t106 60q59 0 81.5 -52.5t-3.5 -148.5l-68 -230q-20 -66 15 -66q28 0 64 29.5t65 76.5l15 -11q-40 -76 -95.5 -116.5t-106.5 -40.5z" />
    <glyph glyph-name="n" unicode="n" horiz-adv-x="616" 
d="M288 547l-60 -240q56 122 104.5 181t106.5 59t81 -49.5t-3 -151.5l-68 -231q-20 -66 15 -66q28 0 64 29.5t65 76.5l15 -11q-40 -76 -95.5 -116.5t-106.5 -40.5q-58 0 -77.5 39.5t2.5 123.5l55 192q37 127 -6 127q-42 0 -108.5 -125.5t-98.5 -251.5l-23 -92h-123l88 354
q18 70 9.5 88.5t-62.5 20.5l4 17z" />
    <glyph glyph-name="o" unicode="o" horiz-adv-x="566" 
d="M401 374q0 137 -76 137q-52 0 -91 -61t-55 -138.5t-16 -151.5q0 -137 77 -137q53 0 91.5 61.5t54 138.5t15.5 151zM28 211q0 139 93.5 237.5t213.5 98.5q87 0 144.5 -62.5t57.5 -160.5q0 -139 -93 -238t-213 -99q-87 0 -145 63t-58 161z" />
    <glyph glyph-name="p" unicode="p" horiz-adv-x="577" 
d="M291 547h-1l-54 -205q38 94 89.5 149.5t110.5 55.5q55 0 86.5 -42t31.5 -118q0 -89 -47 -182.5t-124 -155.5t-156 -62q-41 0 -70 16l-55 -219h-126l142 570q18 70 9.5 88.5t-62.5 20.5l4 17zM186 124l-19 -75q19 -26 55 -26q55 0 100.5 62t68 142.5t22.5 152.5
q0 88 -45 88q-43 0 -94 -98.5t-88 -245.5z" />
    <glyph glyph-name="q" unicode="q" horiz-adv-x="570" 
d="M239 -216l102 409q-38 -94 -89 -150t-109 -56q-55 0 -87 42.5t-32 117.5q0 89 47 182.5t124.5 155.5t156.5 62q47 0 76 -20l130 20l-15 -57.5t-21.5 -82.5t-21.5 -81l-135 -542h-126zM210 66q42 0 94.5 100.5t89.5 244.5l17 75q-18 25 -54 25q-56 0 -101.5 -62
t-68 -142.5t-22.5 -151.5q0 -89 45 -89z" />
    <glyph glyph-name="r" unicode="r" horiz-adv-x="430" 
d="M288 547h1l-30 -118q42 51 93.5 84.5t101.5 33.5q12 0 15 -1l-35 -141h-8q-32 27 -85 27q-57 0 -87 -27l-101 -405h-126l88 354q18 70 9.5 88.5t-62.5 20.5l4 17z" />
    <glyph glyph-name="s" unicode="s" horiz-adv-x="485" 
d="M394 160l2 -1q0 -80 -72 -126.5t-161 -46.5q-97 0 -160 36l59 206h20q-15 -105 5.5 -155t82.5 -50q42 0 75 23.5t33 64.5t-39 82l-49 51q-26 28 -40 45.5t-27.5 46t-13.5 56.5q0 71 67.5 113t146.5 42q86 0 144 -33l-50 -170h-20q27 167 -90 167q-37 0 -62.5 -19.5
t-25.5 -53.5q0 -29 42 -77l50 -53q44 -46 63.5 -78.5t19.5 -69.5z" />
    <glyph glyph-name="t" unicode="t" horiz-adv-x="406" 
d="M62 150l86 344h-87l11 44h87l22 88l147 82l-43 -170h147l-11 -44h-147l-95 -379q-16 -66 16 -66q28 0 64 29.5t65 76.5l15 -11q-40 -76 -95.5 -116.5t-106.5 -40.5q-115 0 -75 163z" />
    <glyph glyph-name="u" unicode="u" horiz-adv-x="616" 
d="M60 188v-1l49 166q20 70 10.5 89t-63.5 21l4 17l230 67l-100 -355q-37 -127 6 -127q42 0 108.5 125.5t98.5 251.5l23 92h123l-105 -419q-16 -66 16 -66q28 0 64 29.5t65 76.5l15 -11q-40 -76 -95.5 -116.5t-106.5 -40.5q-54 0 -70.5 39t1.5 124l16 77
q-56 -122 -104.5 -181t-106.5 -59t-81 49.5t3 151.5z" />
    <glyph glyph-name="v" unicode="v" horiz-adv-x="551" 
d="M159 -8v-2l-59 468q-4 33 -12 43.5t-35 16.5l3 18h252l-3 -18q-54 -9 -65 -21t-7 -51l33 -316l164 264q31 50 39 72.5t-1 34t-42 18.5l4 18h177l-4 -18q-41 -10 -58 -24t-49 -65l-274 -438h-63z" />
    <glyph glyph-name="w" unicode="w" horiz-adv-x="801" 
d="M428 -8h1l-22 394l-202 -394h-72l-33 468q-2 33 -10 42t-37 18l3 18h250l-4 -18q-49 -6 -60.5 -18.5t-11.5 -53.5l13 -302l197 392h79l20 -392l140 250q19 34 27.5 51t14 32t0 21.5t-15 11t-29.5 8.5l4 18h177l-4 -18q-42 -8 -59 -22t-49 -68l-250 -438h-67z" />
    <glyph glyph-name="x" unicode="x" horiz-adv-x="618" 
d="M353 315l-3 2l98 -237q13 -34 26.5 -45t42.5 -15l-3 -18h-253l4 18q24 4 33 6t14.5 10t2.5 20t-12 36l-51 123l-82 -86q-22 -23 -35.5 -38t-21 -27t-8.5 -19t5 -12t16 -8t28 -6l-5 -18h-211l4 18q45 6 87 33.5t107 94.5l101 106l-85 208q-15 34 -28 44.5t-41 15.5l3 18
h253l-4 -18q-24 -4 -33 -6t-14.5 -10t-2.5 -20t12 -36l38 -94l55 57q34 34 49 52.5t15.5 30.5t-10 16.5t-37.5 8.5l5 18h211l-4 -18q-46 -6 -87.5 -33.5t-104.5 -94.5z" />
    <glyph glyph-name="y" unicode="y" horiz-adv-x="566" 
d="M510 428v1l-285 -464q-65 -107 -121.5 -146t-120.5 -39q-35 0 -68 9l31 124h7q31 -28 89 -28q43 0 73.5 15.5t53.5 55.5l19 30l-83 475q-4 31 -11.5 41.5t-37.5 18.5l4 18h255l-5 -18q-52 -8 -63 -19t-7 -53l46 -307l156 255q26 43 34 65t-1.5 37t-42.5 21l3 18h188
l-4 -18q-44 -12 -60 -25.5t-49 -66.5z" />
    <glyph glyph-name="z" unicode="z" horiz-adv-x="569" 
d="M249 0h-265l2 9l412 484h-53q-90 0 -137.5 -33.5t-85.5 -126.5h-21l70 207q40 -2 172 -2h230l-3 -10l-410 -483h87q90 0 137.5 33.5t85.5 126.5h21l-70 -207q-39 2 -172 2z" />
    <glyph glyph-name="braceleft" unicode="{" horiz-adv-x="364" 
d="M196 -216h-44q-145 0 -145 89q0 16 7 46l55 227q8 32 8 57q0 59 -59 59l10 36q80 0 108 115l58 236q18 72 60 97.5t144 25.5h44l-9 -35h-13q-49 0 -70 -19t-32 -65l-57 -230q-18 -71 -54.5 -103.5t-101.5 -38.5v-3q89 -19 89 -99q0 -25 -7 -52l-56 -224q-6 -24 -6 -40
q0 -24 14.5 -34t50.5 -10h15z" />
    <glyph glyph-name="bar" unicode="|" horiz-adv-x="241" 
d="M162 -90h-73v815h73v-815z" />
    <glyph glyph-name="braceright" unicode="}" horiz-adv-x="375" 
d="M190 772l-2 1h43q78 0 112 -22t34 -68q0 -17 -7 -45l-56 -228q-8 -38 -8 -56q0 -60 60 -60l-10 -36q-80 0 -108 -115l-58 -236q-18 -72 -60 -97.5t-143 -25.5h-44l9 35h13q49 0 70 19t32 65l57 230q18 70 55 102.5t101 39.5v2q-89 19 -89 100q0 25 7 52l56 224q6 24 6 41
q0 22 -14.5 32.5t-50.5 10.5h-14z" />
    <glyph glyph-name="asciitilde" unicode="~" horiz-adv-x="686" 
d="M145 206h-73q4 66 42 103t101 37q52 0 127.5 -36.5t101.5 -36.5q29 0 48.5 19t21.5 54h72q-4 -65 -42.5 -102.5t-99.5 -37.5q-43 0 -119.5 37t-109.5 37q-29 0 -48.5 -18.5t-21.5 -55.5z" />
    <glyph glyph-name="uni00A0" unicode="&#xa0;" horiz-adv-x="206" 
 />
    <glyph glyph-name="exclamdown" unicode="&#xa1;" horiz-adv-x="415" 
d="M245 31v-1l-55 -220q-5 -21 -43 -30t-71.5 0t-28.5 31l55 221l133 290h20zM270 385q-33 0 -56.5 23.5t-23.5 57.5q0 33 23.5 56.5t56.5 23.5q35 0 58.5 -23.5t23.5 -56.5q0 -34 -23.5 -57.5t-58.5 -23.5z" />
    <glyph glyph-name="cent" unicode="&#xa2;" horiz-adv-x="594" 
d="M200 -102v1l23 92q-87 13 -136 72t-49 149q0 137 90.5 235t229.5 98h2l22 87h45l-23 -91q78 -12 124.5 -60t46.5 -117h-118q9 115 -62 138l-120 -479q58 0 98 35.5t54 110.5h118q-28 -90 -105.5 -136t-172.5 -46h-1l-22 -89h-44zM161 184v-1q0 -125 72 -153l118 478
q-49 -2 -88 -36.5t-60 -86.5t-31.5 -104t-10.5 -97z" />
    <glyph glyph-name="sterling" unicode="&#xa3;" horiz-adv-x="668" 
d="M281 532v2q0 -41 23 -125h198l-11 -47h-176q3 -18 3 -37q0 -39 -18 -73t-51 -60t-59.5 -42.5t-64.5 -34.5l1 -2q55 22 102 22q41 0 98.5 -21.5t93.5 -21.5q51 0 112 29l37 -98q-67 -36 -162 -36q-45 0 -114 19.5t-105 19.5q-74 0 -163 -42l-34 95q89 33 143 91t54 143
q0 21 -5 48h-124l11 47h101q-22 74 -22 115q0 108 82.5 163.5t208.5 55.5q115 0 182.5 -55.5t67.5 -148.5h-126q9 77 -23.5 122.5t-105.5 45.5q-79 0 -116.5 -47.5t-37.5 -126.5z" />
    <glyph glyph-name="currency" unicode="&#xa4;" horiz-adv-x="645" 
d="M325 111h-2q-83 0 -148 51l-69 -69l-46 45l70 71q-47 61 -47 143q0 80 46 143l-69 71l46 44l68 -68q65 52 149 52q88 0 154 -54l70 70l46 -44l-72 -73q46 -63 46 -141q0 -77 -47 -142l73 -72l-46 -45l-72 70q-65 -52 -150 -52zM322 532q-73 0 -120.5 -52t-47.5 -128
t47.5 -126.5t120.5 -50.5q77 0 126 50.5t49 126.5q0 77 -49.5 128.5t-125.5 51.5z" />
    <glyph glyph-name="yen" unicode="&#xa5;" horiz-adv-x="718" 
d="M234 138h-2l1 4h-176l11 45h176l19 75h-175l10 44h166l-78 312q-14 53 -27.5 69t-47.5 22l3 16h284l-4 -16q-51 -7 -67 -22t-8 -47l71 -295l139 174q116 144 86 176q-11 11 -45 14l3 16h218l-4 -16q-44 -8 -78.5 -39t-114.5 -133l-182 -231h174l-11 -44h-185l-20 -75h186
l-11 -45h-186l-1 -4q-10 -43 -13 -63t6.5 -33.5t24.5 -17t53 -8.5l-3 -16h-328l4 16q72 8 92.5 26.5t39.5 95.5z" />
    <glyph glyph-name="brokenbar" unicode="&#xa6;" horiz-adv-x="221" 
d="M81 725h73v-305h-73v305zM81 215h73v-305h-73v305z" />
    <glyph glyph-name="section" unicode="&#xa7;" horiz-adv-x="630" 
d="M616 567v1h-119q6 59 -22.5 99t-89.5 40q-47 0 -78.5 -23.5t-31.5 -67.5q0 -58 66 -103l131 -88q59 -39 88 -75.5t29 -84.5q0 -124 -197 -171q69 -63 69 -133q0 -84 -63 -133.5t-166 -49.5q-101 0 -168 52.5t-67 137.5h121q-4 -68 24.5 -111t90.5 -43q47 0 80 28.5
t33 76.5q0 67 -72 115l-126 85q-110 72 -110 163q0 118 196 162q-72 59 -72 135q0 68 59 115.5t167 47.5q98 0 163 -48.5t65 -126.5zM349 125v1l15 -10q106 35 106 109q0 60 -82 114l-118 80q-5 2 -8 6q-107 -31 -107 -112q0 -57 72 -106z" />
    <glyph glyph-name="dieresis" unicode="&#xa8;" horiz-adv-x="395" 
d="M17 705q0 29 19.5 48t48.5 19q28 0 47.5 -19t19.5 -48q0 -30 -19.5 -49.5t-47.5 -19.5q-29 0 -48.5 19.5t-19.5 49.5zM240 705q0 29 20 48t49 19q28 0 47.5 -19t19.5 -48q0 -30 -19.5 -49.5t-47.5 -19.5q-29 0 -49 19.5t-20 49.5z" />
    <glyph glyph-name="copyright" unicode="&#xa9;" horiz-adv-x="837" 
d="M429 -13q-159 0 -267.5 105t-108.5 269t109 270t267 106q157 0 265.5 -106t108.5 -270t-108.5 -269t-265.5 -105zM429 677q-132 0 -220.5 -88.5t-88.5 -227.5q0 -138 88.5 -226.5t220.5 -88.5q133 0 220.5 88t87.5 227q0 140 -87.5 228t-220.5 88zM310 367h-1
q0 -71 33 -111t82 -40q39 0 70 19.5t42 59.5l64 -19q-17 -51 -62 -84.5t-114 -33.5q-88 0 -136.5 55.5t-48.5 153.5q0 96 51 150t139 54q68 0 111 -33.5t58 -89.5l-63 -20q-11 41 -40.5 63t-69.5 22q-50 0 -82.5 -37.5t-32.5 -108.5z" />
    <glyph glyph-name="ordfeminine" unicode="&#xaa;" horiz-adv-x="369" 
d="M233 527l1 -1q-31 -84 -91 -84q-31 0 -49.5 24t-18.5 68q0 77 53.5 146.5t123.5 69.5q24 0 40 -11l90 11q-14 -42 -33 -123l-28 -113q-3 -9 -3 -17q0 -18 14 -18q23 0 61 56l8 -5q-45 -88 -104 -88q-65 0 -66 63q0 8 2 22zM190 490h1q8 0 18.5 14t25.5 52t29 93l18 69
q-13 13 -25 13q-33 0 -58.5 -70t-25.5 -135q0 -36 17 -36z" />
    <glyph glyph-name="guillemotleft" unicode="&#xab;" horiz-adv-x="587" 
d="M195 38l-157 235l270 234h53l-187 -234l66 -235h-45zM409 38l-157 235l270 234h53l-187 -234l66 -235h-45z" />
    <glyph glyph-name="logicalnot" unicode="&#xac;" 
d="M495 361h-449v76h530v-338h-81v262z" />
    <glyph glyph-name="uni00AD" unicode="&#xad;" horiz-adv-x="381" 
d="M48 230l23 90h272l-23 -90h-272z" />
    <glyph glyph-name="registered" unicode="&#xae;" horiz-adv-x="837" 
d="M429 -13q-159 0 -267.5 105t-108.5 269t109 270t267 106q157 0 265.5 -106t108.5 -270t-108.5 -269t-265.5 -105zM429 677q-132 0 -220.5 -88.5t-88.5 -227.5q0 -138 88.5 -226.5t220.5 -88.5q133 0 220.5 88t87.5 227q0 140 -87.5 228t-220.5 88zM535 175h1l-82 156
q-7 -1 -22 -1h-79v-155h-67v397h121q95 0 140.5 -24.5t45.5 -95.5q0 -74 -74 -107l91 -170h-75zM354 388h77q50 0 72 15t22 48q0 34 -25 47.5t-74 13.5h-72v-124z" />
    <glyph glyph-name="macron" unicode="&#xaf;" horiz-adv-x="320" 
d="M300 665h-296l16 68h296z" />
    <glyph glyph-name="degree" unicode="&#xb0;" horiz-adv-x="342" 
d="M191 440q-61 0 -104.5 43.5t-43.5 105.5q0 63 43.5 106t104.5 43q63 0 106.5 -43t43.5 -106q0 -62 -44 -105.5t-106 -43.5zM191 677q-35 0 -57 -25t-22 -63t22 -63t57 -25q37 0 59.5 25t22.5 63t-22.5 63t-59.5 25z" />
    <glyph glyph-name="plusminus" unicode="&#xb1;" 
d="M279 371v168h80v-168h230v-75h-230v-172h-80v172h-230v75h230zM589 0h-540v75h540v-75z" />
    <glyph glyph-name="twosuperior" unicode="&#xb2;" horiz-adv-x="332" 
d="M14 438h-1l1 7q15 12 44 35q66 52 96.5 77.5t68 62.5t52 66t14.5 58t-17 45t-45 16q-71 0 -96 -65h-18q38 116 164 116q49 0 79.5 -23t30.5 -62q0 -42 -36.5 -83t-111.5 -94q1 0 -25 -18.5t-52.5 -37t-25.5 -18.5h193l-20 -82h-295z" />
    <glyph glyph-name="threesuperior" unicode="&#xb3;" horiz-adv-x="329" 
d="M139 432l-1 -1q-56 0 -99 17l25 102h10q4 -95 74 -95q40 0 71 30.5t31 72.5q0 29 -19.5 53t-64.5 32l4 12l13 6q50 18 73.5 48.5t23.5 52.5q0 41 -54 43q-74 0 -98 -65h-18q18 56 63.5 86t104.5 30q41 0 70.5 -18t29.5 -49q0 -16 -9 -30.5t-18.5 -24t-28.5 -19.5
t-27.5 -13.5l-25.5 -10.5l-1 -2q82 -32 82 -103q0 -70 -65.5 -112t-145.5 -42z" />
    <glyph glyph-name="acute" unicode="&#xb4;" horiz-adv-x="259" 
d="M261 772l-239 -169h-16l111 169h144z" />
    <glyph glyph-name="mu" unicode="&#xb5;" horiz-adv-x="577" 
d="M45 -192l1 1h-71q17 41 46 158l142 569h74l-73 -294q-12 -48 -12 -83q0 -107 99 -107q67 0 116 51t72 145l72 288h74l-132 -535h-74l20 83q-66 -96 -159 -96q-96 0 -119 86l-25 -98q-23 -99 -51 -168z" />
    <glyph glyph-name="mu" unicode="&#x3bc;" horiz-adv-x="577" 
d="M45 -192l1 1h-71q17 41 46 158l142 569h74l-73 -294q-12 -48 -12 -83q0 -107 99 -107q67 0 116 51t72 145l72 288h74l-132 -535h-74l20 83q-66 -96 -159 -96q-96 0 -119 86l-25 -98q-23 -99 -51 -168z" />
    <glyph glyph-name="paragraph" unicode="&#xb6;" horiz-adv-x="499" 
d="M51 508v-1q0 12 1 19q6 102 87 150.5t195 48.5h192l-174 -816h-70l160 750h-116l-160 -750h-69l96 455q-59 7 -100.5 44.5t-41.5 99.5z" />
    <glyph glyph-name="periodcentered" unicode="&#xb7;" horiz-adv-x="352" 
d="M180 199q-33 0 -56.5 23.5t-23.5 57.5q0 33 23.5 56.5t56.5 23.5q35 0 58.5 -23.5t23.5 -56.5q0 -34 -23.5 -57.5t-58.5 -23.5z" />
    <glyph glyph-name="cedilla" unicode="&#xb8;" horiz-adv-x="254" 
d="M57 -119h-1l103 122h37l-77 -90q24 8 48 8q31 0 51.5 -15.5t20.5 -44.5q0 -45 -41.5 -71.5t-96.5 -26.5q-53 0 -91 25l12 20q24 -12 59 -12q32 0 57 13.5t25 39.5q0 17 -16.5 27t-39.5 10t-42 -10z" />
    <glyph glyph-name="onesuperior" unicode="&#xb9;" horiz-adv-x="290" 
d="M319 854l-1 -2l-85 -340q-9 -42 -5 -51.5t29 -13.5l-2 -10h-189l3 10q38 2 50.5 14.5t24.5 57.5l66 267h-74l3 11q108 13 168 57h12z" />
    <glyph glyph-name="ordmasculine" unicode="&#xba;" horiz-adv-x="351" 
d="M281 673q0 59 -29 59q-37 0 -61 -63.5t-24 -145.5q0 -60 30 -60q38 0 61 63.5t23 146.5zM74 564q0 73 54 130t133 57q50 0 82 -32t32 -88q0 -72 -53.5 -130t-132.5 -58q-51 0 -83 32.5t-32 88.5z" />
    <glyph glyph-name="guillemotright" unicode="&#xbb;" horiz-adv-x="587" 
d="M191 507l156 -234l-268 -235h-54l185 235l-65 234h46zM404 507l156 -234l-268 -235h-54l185 235l-65 234h46z" />
    <glyph glyph-name="onequarter" unicode="&#xbc;" horiz-adv-x="952" 
d="M293 733l-1 -2l-85 -340q-9 -42 -5 -51.5t29 -13.5l-2 -10h-189l3 10q38 2 50.5 14.5t24.5 57.5l66 267h-74l3 11q108 13 168 57h12zM213 -2h-76l508 725h76zM787 -2h-93l25 100h-193l17 68l263 240h82l-58 -233h70l-18 -75h-70zM737 173l45 178l-196 -178h151z" />
    <glyph glyph-name="onehalf" unicode="&#xbd;" horiz-adv-x="902" 
d="M293 733l-1 -2l-85 -340q-9 -42 -5 -51.5t29 -13.5l-2 -10h-189l3 10q38 2 50.5 14.5t24.5 57.5l66 267h-74l3 11q108 13 168 57h12zM213 -2h-76l508 725h76zM491 -2h-1l1 7q15 12 44 35q66 52 96.5 77.5t68 62.5t52 66t14.5 58t-17 45t-45 16q-71 0 -96 -65h-18
q38 116 164 116q49 0 79.5 -23t30.5 -62q0 -42 -36.5 -83t-111.5 -94q1 0 -25.5 -18.5t-52.5 -37t-25 -18.5h193l-20 -82h-295z" />
    <glyph glyph-name="threequarters" unicode="&#xbe;" horiz-adv-x="991" 
d="M113 311l-1 -1q-56 0 -99 17l25 102h10q4 -95 74 -95q40 0 71 30.5t31 72.5q0 29 -19.5 53t-64.5 32l4 12l13 6q50 18 73.5 48.5t23.5 52.5q0 41 -54 43q-74 0 -98 -65h-18q18 56 63.5 86t104.5 30q41 0 70.5 -18t29.5 -49q0 -16 -9 -30.5t-18.5 -24t-28.5 -19.5
t-27.5 -13.5l-25.5 -10.5l-1 -2q82 -32 82 -103q0 -70 -65.5 -112t-145.5 -42zM252 -1h-76l508 725h76zM826 -1h-93l25 100h-193l17 68l263 240h82l-58 -233h70l-18 -75h-70zM776 174l45 178l-196 -178h151z" />
    <glyph glyph-name="questiondown" unicode="&#xbf;" horiz-adv-x="629" 
d="M22 -102q0 55 31.5 95.5t79 68t97.5 56.5t94 77t60 113l3 12h31l-2 -9q-13 -61 -38.5 -111.5t-53 -81t-57 -59t-53 -49.5t-38.5 -50t-15 -63q0 -35 21.5 -57t65.5 -22q62 0 109.5 45.5t92.5 130.5h20l-45 -181q-95 -36 -194 -36q-90 0 -149.5 30.5t-59.5 90.5zM426 386
q-33 0 -56.5 23.5t-23.5 57.5q0 33 23.5 56.5t56.5 23.5q35 0 58.5 -23.5t23.5 -56.5q0 -34 -23.5 -57.5t-58.5 -23.5z" />
    <glyph glyph-name="Agrave" unicode="&#xc0;" horiz-adv-x="763" 
d="M-66 0h-2l4 18q52 6 81 33.5t97 136.5l329 532q45 7 76 44h5l89 -652q9 -60 16 -70q11 -18 61 -24l-5 -18h-292l4 18q52 7 70 20t12 53l-19 147h-261l-10 -16q-30 -48 -47.5 -79.5t-26 -54.5t-9.5 -35t8.5 -20t21.5 -10.5t36 -4.5l-4 -18h-234zM414 593l-184 -301h222z
M285 922h157l51 -129h-17z" />
    <glyph glyph-name="Aacute" unicode="&#xc1;" horiz-adv-x="763" 
d="M747 922l-251 -129h-21l115 129h157zM-66 0h-2l4 18q52 6 81 33.5t97 136.5l329 532q45 7 76 44h5l89 -652q9 -60 16 -70q11 -18 61 -24l-5 -18h-292l4 18q52 7 70 20t12 53l-19 147h-261l-10 -16q-30 -48 -47.5 -79.5t-26 -54.5t-9.5 -35t8.5 -20t21.5 -10.5t36 -4.5
l-4 -18h-234zM414 593l-184 -301h222z" />
    <glyph glyph-name="Acircumflex" unicode="&#xc2;" horiz-adv-x="763" 
d="M-66 0h-2l4 18q52 6 81 33.5t97 136.5l329 532q45 7 76 44h5l89 -652q9 -60 16 -70q11 -18 61 -24l-5 -18h-292l4 18q52 7 70 20t12 53l-19 147h-261l-10 -16q-30 -48 -47.5 -79.5t-26 -54.5t-9.5 -35t8.5 -20t21.5 -10.5t36 -4.5l-4 -18h-234zM414 593l-184 -301h222z
M515 932h16l111 -139h-21l-113 59l-149 -59h-23z" />
    <glyph glyph-name="Atilde" unicode="&#xc3;" horiz-adv-x="763" 
d="M-66 0h-2l4 18q52 6 81 33.5t97 136.5l329 532q45 7 76 44h5l89 -652q9 -60 16 -70q11 -18 61 -24l-5 -18h-292l4 18q52 7 70 20t12 53l-19 147h-261l-10 -16q-30 -48 -47.5 -79.5t-26 -54.5t-9.5 -35t8.5 -20t21.5 -10.5t36 -4.5l-4 -18h-234zM414 593l-184 -301h222z
M588 864h2q51 0 61 50h16q0 -53 -24 -90t-69 -37q-34 0 -83.5 30.5t-79.5 30.5q-53 0 -63 -50h-16q0 53 24 90t69 37q33 0 83.5 -30.5t79.5 -30.5z" />
    <glyph glyph-name="Adieresis" unicode="&#xc4;" horiz-adv-x="763" 
d="M-66 0h-2l4 18q52 6 81 33.5t97 136.5l329 532q45 7 76 44h5l89 -652q9 -60 16 -70q11 -18 61 -24l-5 -18h-292l4 18q52 7 70 20t12 53l-19 147h-261l-10 -16q-30 -48 -47.5 -79.5t-26 -54.5t-9.5 -35t8.5 -20t21.5 -10.5t36 -4.5l-4 -18h-234zM414 593l-184 -301h222z
M543 865q0 29 20 48t49 19q28 0 47.5 -19t19.5 -48q0 -30 -19.5 -49.5t-47.5 -19.5q-29 0 -49 19.5t-20 49.5zM320 865q0 29 19.5 48t48.5 19q28 0 47.5 -19t19.5 -48q0 -30 -19.5 -49.5t-47.5 -19.5q-29 0 -48.5 19.5t-19.5 49.5z" />
    <glyph glyph-name="Aring" unicode="&#xc5;" horiz-adv-x="763" 
d="M-66 0h-2l4 18q52 6 81 33.5t97 136.5l329 532q45 7 76 44h5l89 -652q9 -60 16 -70q11 -18 61 -24l-5 -18h-292l4 18q52 7 70 20t12 53l-19 147h-261l-10 -16q-30 -48 -47.5 -79.5t-26 -54.5t-9.5 -35t8.5 -20t21.5 -10.5t36 -4.5l-4 -18h-234zM414 593l-184 -301h222z
M408 892q0 40 27 67t66 27t66.5 -27t27.5 -67q0 -38 -27.5 -65.5t-66.5 -27.5t-66 27.5t-27 65.5zM447 892q0 -25 15 -40t39 -15q23 0 38.5 15.5t15.5 39.5q0 25 -15.5 41t-38.5 16q-24 0 -39 -16t-15 -41z" />
    <glyph glyph-name="AE" unicode="&#xc6;" horiz-adv-x="1095" 
d="M650 725h-1h231q157 0 237 3l-35 -239h-20q-3 66 -14 103t-42 60t-77.5 30t-130.5 7h-23l-73 -293h153l86 115h17l-68 -276h-18l-28 117h-153l-67 -274q-8 -30 -0.5 -36.5t40.5 -6.5q137 0 210 40.5t144 162.5h19l-90 -239q-80 1 -243 1h-335l3 16q68 8 89.5 30t41.5 100
l23 92h-251l-14 -16q-117 -135 -124 -172q-5 -25 32 -32q6 -1 14 -2l-4 -16h-251l4 16q54 6 106 42.5t134 129.5zM628 641l-306 -349h217z" />
    <glyph glyph-name="Ccedilla" unicode="&#xc7;" horiz-adv-x="692" 
d="M675 479h-1h-19q0 121 -34.5 173.5t-124.5 52.5q-70 0 -130 -46t-97.5 -116.5t-58 -149t-20.5 -148.5q0 -208 172 -208q84 0 149.5 48t109.5 127l25 -13q-44 -95 -122 -153.5t-193 -58.5h-6l-63 -74q24 8 48 8q31 0 51.5 -15.5t20.5 -44.5q0 -45 -41.5 -71.5t-96.5 -26.5
q-54 0 -91 25l12 20q24 -12 59 -12q32 0 57 13.5t25 39.5q0 17 -16.5 27t-39.5 10t-42 -10l-8 5l91 108q-112 12 -181 86.5t-69 195.5q0 98 39.5 186t104 150t150.5 98.5t177 36.5q108 0 202 -50z" />
    <glyph glyph-name="Egrave" unicode="&#xc8;" horiz-adv-x="687" 
d="M305 922h157l51 -129h-17zM141 725h-1h332q157 0 237 3l-35 -239h-20q-3 66 -14 103t-42 60t-77.5 30t-129.5 7h-24l-73 -293h153l86 115h17l-68 -276h-18l-28 117h-153l-69 -274q-6 -24 2 -33.5t40 -9.5q137 0 210 40.5t144 162.5h19l-90 -239q-80 1 -243 1h-336l4 18
q72 8 91.5 28.5t39.5 99.5l108 433q8 30 11.5 45t4 31t-3 22.5t-14 13.5t-25 9.5t-39.5 6.5z" />
    <glyph glyph-name="Eacute" unicode="&#xc9;" horiz-adv-x="687" 
d="M141 725h-1h332q157 0 237 3l-35 -239h-20q-3 66 -14 103t-42 60t-77.5 30t-129.5 7h-24l-73 -293h153l86 115h17l-68 -276h-18l-28 117h-153l-69 -274q-6 -24 2 -33.5t40 -9.5q137 0 210 40.5t144 162.5h19l-90 -239q-80 1 -243 1h-336l4 18q72 8 91.5 28.5t39.5 99.5
l108 433q8 30 11.5 45t4 31t-3 22.5t-14 13.5t-25 9.5t-39.5 6.5zM693 922l-251 -129h-21l115 129h157z" />
    <glyph glyph-name="Ecircumflex" unicode="&#xca;" horiz-adv-x="687" 
d="M502 932h16l111 -139h-21l-113 59l-149 -59h-23zM141 725h-1h332q157 0 237 3l-35 -239h-20q-3 66 -14 103t-42 60t-77.5 30t-129.5 7h-24l-73 -293h153l86 115h17l-68 -276h-18l-28 117h-153l-69 -274q-6 -24 2 -33.5t40 -9.5q137 0 210 40.5t144 162.5h19l-90 -239
q-80 1 -243 1h-336l4 18q72 8 91.5 28.5t39.5 99.5l108 433q8 30 11.5 45t4 31t-3 22.5t-14 13.5t-25 9.5t-39.5 6.5z" />
    <glyph glyph-name="Edieresis" unicode="&#xcb;" horiz-adv-x="687" 
d="M141 725h-1h332q157 0 237 3l-35 -239h-20q-3 66 -14 103t-42 60t-77.5 30t-129.5 7h-24l-73 -293h153l86 115h17l-68 -276h-18l-28 117h-153l-69 -274q-6 -24 2 -33.5t40 -9.5q137 0 210 40.5t144 162.5h19l-90 -239q-80 1 -243 1h-336l4 18q72 8 91.5 28.5t39.5 99.5
l108 433q8 30 11.5 45t4 31t-3 22.5t-14 13.5t-25 9.5t-39.5 6.5zM535 865q0 29 20 48t49 19q28 0 47.5 -19t19.5 -48q0 -30 -19.5 -49.5t-47.5 -19.5q-29 0 -49 19.5t-20 49.5zM312 865q0 29 19.5 48t48.5 19q28 0 47.5 -19t19.5 -48q0 -30 -19.5 -49.5t-47.5 -19.5
q-29 0 -48.5 19.5t-19.5 49.5z" />
    <glyph glyph-name="Igrave" unicode="&#xcc;" horiz-adv-x="413" 
d="M341 579h-2l-108 -433q-21 -76 -11 -98t79 -30l-4 -18h-335l4 18q72 8 91.5 28.5t39.5 99.5l108 433q8 30 11.5 45t4 31t-3 22.5t-14 13.5t-25 9.5t-39.5 6.5l4 18h335l-4 -18q-74 -9 -92 -28t-39 -100zM171 922h157l51 -129h-17z" />
    <glyph glyph-name="Iacute" unicode="&#xcd;" horiz-adv-x="413" 
d="M341 579h-2l-108 -433q-21 -76 -11 -98t79 -30l-4 -18h-335l4 18q72 8 91.5 28.5t39.5 99.5l108 433q8 30 11.5 45t4 31t-3 22.5t-14 13.5t-25 9.5t-39.5 6.5l4 18h335l-4 -18q-74 -9 -92 -28t-39 -100zM527 922l-251 -129h-21l115 129h157z" />
    <glyph glyph-name="Icircumflex" unicode="&#xce;" horiz-adv-x="413" 
d="M341 579h-2l-108 -433q-21 -76 -11 -98t79 -30l-4 -18h-335l4 18q72 8 91.5 28.5t39.5 99.5l108 433q8 30 11.5 45t4 31t-3 22.5t-14 13.5t-25 9.5t-39.5 6.5l4 18h335l-4 -18q-74 -9 -92 -28t-39 -100zM346 932h16l111 -139h-21l-113 59l-149 -59h-23z" />
    <glyph glyph-name="Idieresis" unicode="&#xcf;" horiz-adv-x="413" 
d="M341 579h-2l-108 -433q-21 -76 -11 -98t79 -30l-4 -18h-335l4 18q72 8 91.5 28.5t39.5 99.5l108 433q8 30 11.5 45t4 31t-3 22.5t-14 13.5t-25 9.5t-39.5 6.5l4 18h335l-4 -18q-74 -9 -92 -28t-39 -100zM380 865q0 29 20 48t49 19q28 0 47.5 -19t19.5 -48
q0 -30 -19.5 -49.5t-47.5 -19.5q-29 0 -49 19.5t-20 49.5zM157 865q0 29 19.5 48t48.5 19q28 0 47.5 -19t19.5 -48q0 -30 -19.5 -49.5t-47.5 -19.5q-29 0 -48.5 19.5t-19.5 49.5z" />
    <glyph glyph-name="Eth" unicode="&#xd0;" horiz-adv-x="817" 
d="M156 725h-1h250q176 0 282.5 -74.5t106.5 -214.5q0 -88 -28.5 -160t-79.5 -123t-121 -85.5t-152.5 -51t-174.5 -16.5h-263l4 18q72 8 91.5 28.5t39.5 99.5l51 206h-107l12 44h106l46 183q8 30 11.5 45t4 31t-3 22.5t-14 13.5t-25 9.5t-39.5 6.5zM220 36h27
q188 0 292.5 113t104.5 300q0 125 -57 182.5t-178 57.5h-26l-73 -293h138l-12 -44h-137z" />
    <glyph glyph-name="Ntilde" unicode="&#xd1;" horiz-adv-x="806" 
d="M633 864h2q51 0 61 50h16q0 -53 -24 -90t-69 -37q-34 0 -83.5 30.5t-79.5 30.5q-53 0 -63 -50h-16q0 53 24 90t69 37q33 0 83.5 -30.5t79.5 -30.5zM599 152l-2 -1l106 427q8 30 11.5 45t4 31t-3 22.5t-14 13.5t-25 9.5t-39.5 6.5l4 18h245l-4 -18q-74 -9 -92 -28
t-39 -100l-144 -579h-84l-276 562l-104 -416q-21 -76 -11 -98t79 -30l-4 -18h-245l4 18q72 8 91.5 28.5t39.5 99.5l119 480v1q-20 41 -32 58.5t-29 25.5l3 15h163z" />
    <glyph glyph-name="Ograve" unicode="&#xd2;" horiz-adv-x="804" 
d="M339 922h157l51 -129h-17zM46 271q0 87 33 171.5t90 151t141 107.5t179 41q127 0 208 -75.5t81 -207.5q0 -88 -33 -172.5t-90.5 -151t-142 -107.5t-179.5 -41q-125 0 -206 76t-81 208zM196 245q0 -221 151 -221q67 0 122.5 46t89 117.5t51.5 149t18 148.5q0 220 -152 220
q-67 0 -122.5 -46t-88.5 -117t-51 -148.5t-18 -148.5z" />
    <glyph glyph-name="Oacute" unicode="&#xd3;" horiz-adv-x="804" 
d="M751 922l-251 -129h-21l115 129h157zM46 271q0 87 33 171.5t90 151t141 107.5t179 41q127 0 208 -75.5t81 -207.5q0 -88 -33 -172.5t-90.5 -151t-142 -107.5t-179.5 -41q-125 0 -206 76t-81 208zM196 245q0 -221 151 -221q67 0 122.5 46t89 117.5t51.5 149t18 148.5
q0 220 -152 220q-67 0 -122.5 -46t-88.5 -117t-51 -148.5t-18 -148.5z" />
    <glyph glyph-name="Ocircumflex" unicode="&#xd4;" horiz-adv-x="804" 
d="M528 932h16l111 -139h-21l-113 59l-149 -59h-23zM46 271q0 87 33 171.5t90 151t141 107.5t179 41q127 0 208 -75.5t81 -207.5q0 -88 -33 -172.5t-90.5 -151t-142 -107.5t-179.5 -41q-125 0 -206 76t-81 208zM196 245q0 -221 151 -221q67 0 122.5 46t89 117.5t51.5 149
t18 148.5q0 220 -152 220q-67 0 -122.5 -46t-88.5 -117t-51 -148.5t-18 -148.5z" />
    <glyph glyph-name="Otilde" unicode="&#xd5;" horiz-adv-x="804" 
d="M46 271q0 87 33 171.5t90 151t141 107.5t179 41q127 0 208 -75.5t81 -207.5q0 -88 -33 -172.5t-90.5 -151t-142 -107.5t-179.5 -41q-125 0 -206 76t-81 208zM196 245q0 -221 151 -221q67 0 122.5 46t89 117.5t51.5 149t18 148.5q0 220 -152 220q-67 0 -122.5 -46
t-88.5 -117t-51 -148.5t-18 -148.5zM616 864h2q51 0 61 50h16q0 -53 -24 -90t-69 -37q-34 0 -83.5 30.5t-79.5 30.5q-53 0 -63 -50h-16q0 53 24 90t69 37q33 0 83.5 -30.5t79.5 -30.5z" />
    <glyph glyph-name="Odieresis" unicode="&#xd6;" horiz-adv-x="804" 
d="M46 271q0 87 33 171.5t90 151t141 107.5t179 41q127 0 208 -75.5t81 -207.5q0 -88 -33 -172.5t-90.5 -151t-142 -107.5t-179.5 -41q-125 0 -206 76t-81 208zM196 245q0 -221 151 -221q67 0 122.5 46t89 117.5t51.5 149t18 148.5q0 220 -152 220q-67 0 -122.5 -46
t-88.5 -117t-51 -148.5t-18 -148.5zM561 865q0 29 20 48t49 19q28 0 47.5 -19t19.5 -48q0 -30 -19.5 -49.5t-47.5 -19.5q-29 0 -49 19.5t-20 49.5zM338 865q0 29 19.5 48t48.5 19q28 0 47.5 -19t19.5 -48q0 -30 -19.5 -49.5t-47.5 -19.5q-29 0 -48.5 19.5t-19.5 49.5z" />
    <glyph glyph-name="multiply" unicode="&#xd7;" 
d="M556 92l-57 -57l-181 181l-178 -178l-57 57l178 178l-178 179l57 57l178 -179l178 178l57 -57l-178 -178z" />
    <glyph glyph-name="Oslash" unicode="&#xd8;" horiz-adv-x="804" 
d="M46 271q0 87 33 171.5t90 151t141 107.5t179 41q100 0 173 -49l95 103l29 -23l-95 -102q87 -76 87 -212q0 -88 -33 -172.5t-90.5 -151t-142 -107.5t-179.5 -41q-125 0 -205 74l-101 -109l-28 23l105 113q-58 74 -58 183zM628 485q0 59 -12 104l-410 -444
q31 -121 141 -121q67 0 122.5 46t89 117.5t51.5 149t18 148.5zM196 245h1q0 -29 3 -54l403 437q-37 77 -127 77q-67 0 -122.5 -46t-88.5 -117t-51 -148.5t-18 -148.5z" />
    <glyph glyph-name="Ugrave" unicode="&#xd9;" horiz-adv-x="799" 
d="M372 922h157l51 -129h-17zM758 579h-2l-69 -280q-41 -161 -128 -236.5t-224 -75.5q-297 0 -225 288l75 303q22 78 13 99t-78 30l4 18h335l-4 -18q-41 -5 -59.5 -9.5t-33.5 -21t-20.5 -34t-17.5 -64.5l-72 -289q-32 -121 -2.5 -183t129.5 -62q198 0 261 253l70 282
q8 30 11.5 45t4 31t-3 22.5t-14 13.5t-25 9.5t-39.5 6.5l4 18h245l-4 -18q-74 -10 -93.5 -29.5t-37.5 -98.5z" />
    <glyph glyph-name="Uacute" unicode="&#xda;" horiz-adv-x="799" 
d="M758 579h-2l-69 -280q-41 -161 -128 -236.5t-224 -75.5q-297 0 -225 288l75 303q22 78 13 99t-78 30l4 18h335l-4 -18q-41 -5 -59.5 -9.5t-33.5 -21t-20.5 -34t-17.5 -64.5l-72 -289q-32 -121 -2.5 -183t129.5 -62q198 0 261 253l70 282q8 30 11.5 45t4 31t-3 22.5
t-14 13.5t-25 9.5t-39.5 6.5l4 18h245l-4 -18q-74 -10 -93.5 -29.5t-37.5 -98.5zM793 922l-251 -129h-21l115 129h157z" />
    <glyph glyph-name="Ucircumflex" unicode="&#xdb;" horiz-adv-x="799" 
d="M594 932h16l111 -139h-21l-113 59l-149 -59h-23zM758 579h-2l-69 -280q-41 -161 -128 -236.5t-224 -75.5q-297 0 -225 288l75 303q22 78 13 99t-78 30l4 18h335l-4 -18q-41 -5 -59.5 -9.5t-33.5 -21t-20.5 -34t-17.5 -64.5l-72 -289q-32 -121 -2.5 -183t129.5 -62
q198 0 261 253l70 282q8 30 11.5 45t4 31t-3 22.5t-14 13.5t-25 9.5t-39.5 6.5l4 18h245l-4 -18q-74 -10 -93.5 -29.5t-37.5 -98.5z" />
    <glyph glyph-name="Udieresis" unicode="&#xdc;" horiz-adv-x="799" 
d="M758 579h-2l-69 -280q-41 -161 -128 -236.5t-224 -75.5q-297 0 -225 288l75 303q22 78 13 99t-78 30l4 18h335l-4 -18q-41 -5 -59.5 -9.5t-33.5 -21t-20.5 -34t-17.5 -64.5l-72 -289q-32 -121 -2.5 -183t129.5 -62q198 0 261 253l70 282q8 30 11.5 45t4 31t-3 22.5
t-14 13.5t-25 9.5t-39.5 6.5l4 18h245l-4 -18q-74 -10 -93.5 -29.5t-37.5 -98.5zM613 865q0 29 20 48t49 19q28 0 47.5 -19t19.5 -48q0 -30 -19.5 -49.5t-47.5 -19.5q-29 0 -49 19.5t-20 49.5zM390 865q0 29 19.5 48t48.5 19q28 0 47.5 -19t19.5 -48q0 -30 -19.5 -49.5
t-47.5 -19.5q-29 0 -48.5 19.5t-19.5 49.5z" />
    <glyph glyph-name="Yacute" unicode="&#xdd;" horiz-adv-x="715" 
d="M409 292h1l-36 -146q-21 -75 -9 -97.5t87 -30.5l-4 -18h-357l4 18q56 6 81 17.5t36.5 33.5t24.5 77l35 139l-93 329q-16 54 -29.5 70.5t-46.5 22.5l4 18h295l-4 -18q-51 -6 -70 -22t-10 -50l79 -295l184 223q35 42 52 69t16.5 42.5t-13.5 22.5t-41 10l4 18h223l-4 -18
q-43 -6 -75 -29.5t-93 -95.5zM752 922l-251 -129h-21l115 129h157z" />
    <glyph glyph-name="Thorn" unicode="&#xde;" horiz-adv-x="639" 
d="M141 725h236l-33 -131h54q131 0 207.5 -42t76.5 -131q0 -82 -53.5 -141t-130.5 -85t-164 -26q-57 0 -96 5l-6 -28q-19 -77 -8.5 -98.5t85.5 -29.5l-4 -18h-345l4 18q72 8 91.5 28.5t39.5 99.5l108 433q8 30 11.5 45t4 31t-3 22.5t-14 13.5t-25 9.5t-39.5 6.5zM337 559
l-92 -367h10q129 0 202 59t73 176q0 132 -151 132h-42z" />
    <glyph glyph-name="germandbls" unicode="&#xdf;" horiz-adv-x="652" 
d="M141 0l1 1h-128l117 470q34 141 122.5 222t210.5 81q89 0 136 -33.5t47 -87.5q0 -34 -14 -61t-41.5 -47t-52 -32.5t-61.5 -27.5l-1 -3q134 -70 134 -198q0 -124 -99.5 -210t-217.5 -86q-59 0 -113 12l20 82h3q23 -30 47 -41t58 -11q66 0 116.5 63t50.5 158
q0 127 -145 169l6 21l25 10q46 17 79.5 38.5t51 40.5t27 43t11.5 39.5t2 35.5q0 89 -87 89q-124 0 -177 -217z" />
    <glyph glyph-name="agrave" unicode="&#xe0;" horiz-adv-x="613" 
d="M144 -13h1q-55 0 -87 42t-32 117q0 89 47 182.5t124.5 156t156.5 62.5q46 0 75 -20l134 20l-44 -162l-73 -270q-20 -66 15 -66q28 0 64 29.5t65 76.5l15 -11q-40 -76 -95.5 -116.5t-106.5 -40.5q-55 0 -72 39t3 124l10 42q-38 -94 -89.5 -149.5t-110.5 -55.5zM211 66h1
q42 0 94.5 100.5t89.5 244.5l17 72q-21 28 -55 28q-56 0 -101.5 -62t-68 -143t-22.5 -152q0 -88 45 -88zM224 772h144l27 -169h-16z" />
    <glyph glyph-name="aacute" unicode="&#xe1;" horiz-adv-x="613" 
d="M613 772l-239 -169h-16l111 169h144zM144 -13h1q-55 0 -87 42t-32 117q0 89 47 182.5t124.5 156t156.5 62.5q46 0 75 -20l134 20l-44 -162l-73 -270q-20 -66 15 -66q28 0 64 29.5t65 76.5l15 -11q-40 -76 -95.5 -116.5t-106.5 -40.5q-55 0 -72 39t3 124l10 42
q-38 -94 -89.5 -149.5t-110.5 -55.5zM211 66h1q42 0 94.5 100.5t89.5 244.5l17 72q-21 28 -55 28q-56 0 -101.5 -62t-68 -143t-22.5 -152q0 -88 45 -88z" />
    <glyph glyph-name="acircumflex" unicode="&#xe2;" horiz-adv-x="613" 
d="M144 -13h1q-55 0 -87 42t-32 117q0 89 47 182.5t124.5 156t156.5 62.5q46 0 75 -20l134 20l-44 -162l-73 -270q-20 -66 15 -66q28 0 64 29.5t65 76.5l15 -11q-40 -76 -95.5 -116.5t-106.5 -40.5q-55 0 -72 39t3 124l10 42q-38 -94 -89.5 -149.5t-110.5 -55.5zM211 66h1
q42 0 94.5 100.5t89.5 244.5l17 72q-21 28 -55 28q-56 0 -101.5 -62t-68 -143t-22.5 -152q0 -88 45 -88zM439 772l116 -169h-17l-125 73l-168 -73h-19l200 169h13z" />
    <glyph glyph-name="atilde" unicode="&#xe3;" horiz-adv-x="613" 
d="M144 -13h1q-55 0 -87 42t-32 117q0 89 47 182.5t124.5 156t156.5 62.5q46 0 75 -20l134 20l-44 -162l-73 -270q-20 -66 15 -66q28 0 64 29.5t65 76.5l15 -11q-40 -76 -95.5 -116.5t-106.5 -40.5q-55 0 -72 39t3 124l10 42q-38 -94 -89.5 -149.5t-110.5 -55.5zM211 66h1
q42 0 94.5 100.5t89.5 244.5l17 72q-21 28 -55 28q-56 0 -101.5 -62t-68 -143t-22.5 -152q0 -88 45 -88zM273 635h1h-19q0 53 24 94.5t70 41.5q29 0 79 -31.5t71 -31.5q27 0 40 14t15 46h19q0 -131 -86 -131q-35 0 -84 31.5t-74 31.5q-24 0 -39 -17t-17 -48z" />
    <glyph glyph-name="adieresis" unicode="&#xe4;" horiz-adv-x="613" 
d="M144 -13h1q-55 0 -87 42t-32 117q0 89 47 182.5t124.5 156t156.5 62.5q46 0 75 -20l134 20l-44 -162l-73 -270q-20 -66 15 -66q28 0 64 29.5t65 76.5l15 -11q-40 -76 -95.5 -116.5t-106.5 -40.5q-55 0 -72 39t3 124l10 42q-38 -94 -89.5 -149.5t-110.5 -55.5zM211 66h1
q42 0 94.5 100.5t89.5 244.5l17 72q-21 28 -55 28q-56 0 -101.5 -62t-68 -143t-22.5 -152q0 -88 45 -88zM230 705q0 29 19.5 48t48.5 19q28 0 47.5 -19t19.5 -48q0 -30 -19.5 -49.5t-47.5 -19.5q-29 0 -48.5 19.5t-19.5 49.5zM453 705q0 29 20 48t49 19q28 0 47.5 -19
t19.5 -48q0 -30 -19.5 -49.5t-47.5 -19.5q-29 0 -49 19.5t-20 49.5z" />
    <glyph glyph-name="aring" unicode="&#xe5;" horiz-adv-x="613" 
d="M144 -13h1q-55 0 -87 42t-32 117q0 89 47 182.5t124.5 156t156.5 62.5q46 0 75 -20l134 20l-44 -162l-73 -270q-20 -66 15 -66q28 0 64 29.5t65 76.5l15 -11q-40 -76 -95.5 -116.5t-106.5 -40.5q-55 0 -72 39t3 124l10 42q-38 -94 -89.5 -149.5t-110.5 -55.5zM211 66h1
q42 0 94.5 100.5t89.5 244.5l17 72q-21 28 -55 28q-56 0 -101.5 -62t-68 -143t-22.5 -152q0 -88 45 -88zM320 702q0 40 27 67t66 27t66.5 -27t27.5 -67q0 -38 -27.5 -65.5t-66.5 -27.5t-66 27.5t-27 65.5zM359 702q0 -25 15 -40t39 -15q23 0 38.5 15.5t15.5 39.5
q0 25 -15.5 41t-38.5 16q-24 0 -39 -16t-15 -41z" />
    <glyph glyph-name="ae" unicode="&#xe6;" horiz-adv-x="800" 
d="M508 485l-3 -1q80 59 158 59q51 0 91 -23.5t40 -72.5q0 -106 -177 -147l-144 -32q-10 -46 -10 -91q0 -105 78 -105q46 0 94 34.5t81 107.5l18 -10q-94 -218 -258 -218q-72 0 -108.5 45t-36.5 117q0 4 0.5 11t0.5 10q-37 -86 -86 -134t-103 -48q-55 0 -87 41.5t-32 116.5
q0 89 47.5 182.5t125 155t156.5 61.5q44 0 75 -20l96 20q-2 -4 -9 -29t-7 -30zM162 152h1q0 -87 45 -87q42 0 94.5 99.5t89.5 242.5l18 72q-21 28 -56 28q-56 0 -101.5 -61.5t-68 -142t-22.5 -151.5zM677 455l-1 -1q0 52 -43 52q-48 0 -90 -62t-63 -148l45 10
q76 17 114 56.5t38 92.5z" />
    <glyph glyph-name="ccedilla" unicode="&#xe7;" horiz-adv-x="485" 
d="M47 -119h-1l92 109q-55 10 -84.5 52.5t-29.5 110.5q0 96 47.5 188t124 149t156.5 57q141 0 122 -166l-117 -3q8 28 11.5 45.5t5 40.5t-9 35t-31.5 12q-47 0 -88.5 -57t-63 -132.5t-21.5 -140.5q0 -50 20 -79t57 -29q46 0 94 34.5t81 107.5l17 -10q-94 -217 -257 -218
l-63 -74q24 8 48 8q31 0 51.5 -15.5t20.5 -44.5q0 -45 -41.5 -71.5t-96.5 -26.5q-53 0 -91 25l12 20q24 -12 59 -12q32 0 57 13.5t25 39.5q0 17 -16.5 27t-39.5 10t-42 -10z" />
    <glyph glyph-name="egrave" unicode="&#xe8;" horiz-adv-x="498" 
d="M28 153h1q0 96 47 187.5t125.5 149t162.5 57.5q50 0 90.5 -24t40.5 -73q0 -106 -178 -147l-144 -33q-10 -46 -10 -90q0 -50 19.5 -78.5t58.5 -28.5q46 0 92.5 34t82.5 108l17 -10q-92 -218 -258 -218q-71 0 -109 44.5t-38 121.5zM335 511v-1q-50 0 -91.5 -61.5
t-63.5 -149.5l46 10q75 17 112.5 57t37.5 93q0 52 -41 52zM194 771h144l27 -169h-16z" />
    <glyph glyph-name="eacute" unicode="&#xe9;" horiz-adv-x="498" 
d="M577 772l-239 -169h-16l111 169h144zM28 153h1q0 96 47 187.5t125.5 149t162.5 57.5q50 0 90.5 -24t40.5 -73q0 -106 -178 -147l-144 -33q-10 -46 -10 -90q0 -50 19.5 -78.5t58.5 -28.5q46 0 92.5 34t82.5 108l17 -10q-92 -218 -258 -218q-71 0 -109 44.5t-38 121.5z
M335 511v-1q-50 0 -91.5 -61.5t-63.5 -149.5l46 10q75 17 112.5 57t37.5 93q0 52 -41 52z" />
    <glyph glyph-name="ecircumflex" unicode="&#xea;" horiz-adv-x="498" 
d="M407 772l116 -169h-17l-125 73l-168 -73h-19l200 169h13zM28 153h1q0 96 47 187.5t125.5 149t162.5 57.5q50 0 90.5 -24t40.5 -73q0 -106 -178 -147l-144 -33q-10 -46 -10 -90q0 -50 19.5 -78.5t58.5 -28.5q46 0 92.5 34t82.5 108l17 -10q-92 -218 -258 -218
q-71 0 -109 44.5t-38 121.5zM335 511v-1q-50 0 -91.5 -61.5t-63.5 -149.5l46 10q75 17 112.5 57t37.5 93q0 52 -41 52z" />
    <glyph glyph-name="edieresis" unicode="&#xeb;" horiz-adv-x="498" 
d="M184 705q0 29 19.5 48t48.5 19q28 0 47.5 -19t19.5 -48q0 -30 -19.5 -49.5t-47.5 -19.5q-29 0 -48.5 19.5t-19.5 49.5zM407 705q0 29 20 48t49 19q28 0 47.5 -19t19.5 -48q0 -30 -19.5 -49.5t-47.5 -19.5q-29 0 -49 19.5t-20 49.5zM28 153h1q0 96 47 187.5t125.5 149
t162.5 57.5q50 0 90.5 -24t40.5 -73q0 -106 -178 -147l-144 -33q-10 -46 -10 -90q0 -50 19.5 -78.5t58.5 -28.5q46 0 92.5 34t82.5 108l17 -10q-92 -218 -258 -218q-71 0 -109 44.5t-38 121.5zM335 511v-1q-50 0 -91.5 -61.5t-63.5 -149.5l46 10q75 17 112.5 57t37.5 93
q0 52 -41 52z" />
    <glyph glyph-name="igrave" unicode="&#xec;" horiz-adv-x="340" 
d="M56 150h1l51 204q18 70 9.5 88.5t-62.5 20.5l4 17l226 67q-14 -51 -59 -221l-53 -211q-16 -66 16 -66q28 0 64 29.5t65 76.5l15 -11q-40 -76 -95.5 -116.5t-106.5 -40.5q-115 0 -75 163zM92 772h144l27 -169h-16z" />
    <glyph glyph-name="iacute" unicode="&#xed;" horiz-adv-x="340" 
d="M425 772l-239 -169h-16l111 169h144zM56 150h1l51 204q18 70 9.5 88.5t-62.5 20.5l4 17l226 67q-14 -51 -59 -221l-53 -211q-16 -66 16 -66q28 0 64 29.5t65 76.5l15 -11q-40 -76 -95.5 -116.5t-106.5 -40.5q-115 0 -75 163z" />
    <glyph glyph-name="icircumflex" unicode="&#xee;" horiz-adv-x="340" 
d="M263 772l116 -169h-17l-125 73l-168 -73h-19l200 169h13zM56 150h1l51 204q18 70 9.5 88.5t-62.5 20.5l4 17l226 67q-14 -51 -59 -221l-53 -211q-16 -66 16 -66q28 0 64 29.5t65 76.5l15 -11q-40 -76 -95.5 -116.5t-106.5 -40.5q-115 0 -75 163z" />
    <glyph glyph-name="idieresis" unicode="&#xef;" horiz-adv-x="340" 
d="M41 705q0 29 19.5 48t48.5 19q28 0 47.5 -19t19.5 -48q0 -30 -19.5 -49.5t-47.5 -19.5q-29 0 -48.5 19.5t-19.5 49.5zM264 705q0 29 20 48t49 19q28 0 47.5 -19t19.5 -48q0 -30 -19.5 -49.5t-47.5 -19.5q-29 0 -49 19.5t-20 49.5zM56 150h1l51 204q18 70 9.5 88.5
t-62.5 20.5l4 17l226 67q-14 -51 -59 -221l-53 -211q-16 -66 16 -66q28 0 64 29.5t65 76.5l15 -11q-40 -76 -95.5 -116.5t-106.5 -40.5q-115 0 -75 163z" />
    <glyph glyph-name="eth" unicode="&#xf0;" horiz-adv-x="570" 
d="M198 625h1l82 71q-41 23 -90 41l10 22q65 -13 113 -34l83 71l22 -23l-73 -63q92 -48 147 -130t55 -187q0 -95 -46.5 -188.5t-128.5 -155.5t-174 -62q-86 0 -129.5 45.5t-43.5 124.5q0 91 51.5 182.5t129 148t152.5 56.5q23 0 50 -8q-23 86 -102 142l-89 -77zM420 441
q0 14 -2 40q-20 27 -55 27q-47 0 -87 -43.5t-64.5 -106.5t-38 -127t-13.5 -112q0 -96 60 -96q47 0 93 58t76.5 156t30.5 204z" />
    <glyph glyph-name="ntilde" unicode="&#xf1;" horiz-adv-x="616" 
d="M288 547l-60 -240q56 122 104.5 181t106.5 59t81 -49.5t-3 -151.5l-68 -231q-20 -66 15 -66q28 0 64 29.5t65 76.5l15 -11q-40 -76 -95.5 -116.5t-106.5 -40.5q-58 0 -77.5 39.5t2.5 123.5l55 192q37 127 -6 127q-42 0 -108.5 -125.5t-98.5 -251.5l-23 -92h-123l88 354
q18 70 9.5 88.5t-62.5 20.5l4 17zM232 635h1h-19q0 53 24 94.5t70 41.5q30 0 80 -31.5t70 -31.5q27 0 40 14t15 46h19q0 -131 -86 -131q-35 0 -84 31.5t-74 31.5q-24 0 -39 -17t-17 -48z" />
    <glyph glyph-name="ograve" unicode="&#xf2;" horiz-adv-x="566" 
d="M401 374q0 137 -76 137q-52 0 -91 -61t-55 -138.5t-16 -151.5q0 -137 77 -137q53 0 91.5 61.5t54 138.5t15.5 151zM28 211q0 139 93.5 237.5t213.5 98.5q87 0 144.5 -62.5t57.5 -160.5q0 -139 -93 -238t-213 -99q-87 0 -145 63t-58 161zM205 772h144l27 -169h-16z" />
    <glyph glyph-name="oacute" unicode="&#xf3;" horiz-adv-x="566" 
d="M547 772l-239 -169h-16l111 169h144zM401 374q0 137 -76 137q-52 0 -91 -61t-55 -138.5t-16 -151.5q0 -137 77 -137q53 0 91.5 61.5t54 138.5t15.5 151zM28 211q0 139 93.5 237.5t213.5 98.5q87 0 144.5 -62.5t57.5 -160.5q0 -139 -93 -238t-213 -99q-87 0 -145 63
t-58 161z" />
    <glyph glyph-name="ocircumflex" unicode="&#xf4;" horiz-adv-x="566" 
d="M385 772l116 -169h-17l-125 73l-168 -73h-19l200 169h13zM401 374q0 137 -76 137q-52 0 -91 -61t-55 -138.5t-16 -151.5q0 -137 77 -137q53 0 91.5 61.5t54 138.5t15.5 151zM28 211q0 139 93.5 237.5t213.5 98.5q87 0 144.5 -62.5t57.5 -160.5q0 -139 -93 -238t-213 -99
q-87 0 -145 63t-58 161z" />
    <glyph glyph-name="otilde" unicode="&#xf5;" horiz-adv-x="566" 
d="M401 374q0 137 -76 137q-52 0 -91 -61t-55 -138.5t-16 -151.5q0 -137 77 -137q53 0 91.5 61.5t54 138.5t15.5 151zM28 211q0 139 93.5 237.5t213.5 98.5q87 0 144.5 -62.5t57.5 -160.5q0 -139 -93 -238t-213 -99q-87 0 -145 63t-58 161zM215 635h1h-19q0 53 24 94.5
t70 41.5q29 0 79 -31.5t71 -31.5q27 0 40 14t15 46h19q0 -131 -86 -131q-35 0 -84 31.5t-74 31.5q-24 0 -39 -17t-17 -48z" />
    <glyph glyph-name="odieresis" unicode="&#xf6;" horiz-adv-x="566" 
d="M174 705q0 29 19.5 48t48.5 19q28 0 47.5 -19t19.5 -48q0 -30 -19.5 -49.5t-47.5 -19.5q-29 0 -48.5 19.5t-19.5 49.5zM397 705q0 29 20 48t49 19q28 0 47.5 -19t19.5 -48q0 -30 -19.5 -49.5t-47.5 -19.5q-29 0 -49 19.5t-20 49.5zM401 374q0 137 -76 137q-52 0 -91 -61
t-55 -138.5t-16 -151.5q0 -137 77 -137q53 0 91.5 61.5t54 138.5t15.5 151zM28 211q0 139 93.5 237.5t213.5 98.5q87 0 144.5 -62.5t57.5 -160.5q0 -139 -93 -238t-213 -99q-87 0 -145 63t-58 161z" />
    <glyph glyph-name="divide" unicode="&#xf7;" 
d="M289 49v107h105v-107h-105zM289 385v109h105v-109h-105zM600 230h-522v76h522v-76z" />
    <glyph glyph-name="oslash" unicode="&#xf8;" horiz-adv-x="566" 
d="M28 211q0 139 93.5 237.5t213.5 98.5q87 0 146 -65l70 76l29 -23l-77 -83q34 -57 34 -128q0 -139 -93 -238t-213 -99q-71 0 -123 42l-80 -86l-28 23l82 88q-54 62 -54 157zM163 160h1v-19l237 255q-2 52 -21 83.5t-55 31.5q-52 0 -91 -61t-55 -138.5t-16 -151.5zM241 23
h-1q37 0 67.5 30t49 79t29.5 102.5t14 107.5l-231 -248q18 -71 72 -71z" />
    <glyph glyph-name="ugrave" unicode="&#xf9;" horiz-adv-x="616" 
d="M60 188v-1l49 166q20 70 10.5 89t-63.5 21l4 17l230 67l-100 -355q-37 -127 6 -127q42 0 108.5 125.5t98.5 251.5l23 92h123l-105 -419q-16 -66 16 -66q28 0 64 29.5t65 76.5l15 -11q-40 -76 -95.5 -116.5t-106.5 -40.5q-54 0 -70.5 39t1.5 124l16 77
q-56 -122 -104.5 -181t-106.5 -59t-81 49.5t3 151.5zM228 771h144l27 -169h-16z" />
    <glyph glyph-name="uacute" unicode="&#xfa;" horiz-adv-x="616" 
d="M624 772l-239 -169h-16l111 169h144zM60 188v-1l49 166q20 70 10.5 89t-63.5 21l4 17l230 67l-100 -355q-37 -127 6 -127q42 0 108.5 125.5t98.5 251.5l23 92h123l-105 -419q-16 -66 16 -66q28 0 64 29.5t65 76.5l15 -11q-40 -76 -95.5 -116.5t-106.5 -40.5
q-54 0 -70.5 39t1.5 124l16 77q-56 -122 -104.5 -181t-106.5 -59t-81 49.5t3 151.5z" />
    <glyph glyph-name="ucircumflex" unicode="&#xfb;" horiz-adv-x="616" 
d="M418 772l116 -169h-17l-125 73l-168 -73h-19l200 169h13zM60 188v-1l49 166q20 70 10.5 89t-63.5 21l4 17l230 67l-100 -355q-37 -127 6 -127q42 0 108.5 125.5t98.5 251.5l23 92h123l-105 -419q-16 -66 16 -66q28 0 64 29.5t65 76.5l15 -11q-40 -76 -95.5 -116.5
t-106.5 -40.5q-54 0 -70.5 39t1.5 124l16 77q-56 -122 -104.5 -181t-106.5 -59t-81 49.5t3 151.5z" />
    <glyph glyph-name="udieresis" unicode="&#xfc;" horiz-adv-x="616" 
d="M200 705q0 29 19.5 48t48.5 19q28 0 47.5 -19t19.5 -48q0 -30 -19.5 -49.5t-47.5 -19.5q-29 0 -48.5 19.5t-19.5 49.5zM423 705q0 29 20 48t49 19q28 0 47.5 -19t19.5 -48q0 -30 -19.5 -49.5t-47.5 -19.5q-29 0 -49 19.5t-20 49.5zM60 188v-1l49 166q20 70 10.5 89
t-63.5 21l4 17l230 67l-100 -355q-37 -127 6 -127q42 0 108.5 125.5t98.5 251.5l23 92h123l-105 -419q-16 -66 16 -66q28 0 64 29.5t65 76.5l15 -11q-40 -76 -95.5 -116.5t-106.5 -40.5q-54 0 -70.5 39t1.5 124l16 77q-56 -122 -104.5 -181t-106.5 -59t-81 49.5t3 151.5z
" />
    <glyph glyph-name="yacute" unicode="&#xfd;" horiz-adv-x="566" 
d="M510 428v1l-285 -464q-65 -107 -121.5 -146t-120.5 -39q-35 0 -68 9l31 124h7q31 -28 89 -28q43 0 73.5 15.5t53.5 55.5l19 30l-83 475q-4 31 -11.5 41.5t-37.5 18.5l4 18h255l-5 -18q-52 -8 -63 -19t-7 -53l46 -307l156 255q26 43 34 65t-1.5 37t-42.5 21l3 18h188
l-4 -18q-44 -12 -60 -25.5t-49 -66.5zM611 773l-239 -169h-16l111 169h144z" />
    <glyph glyph-name="thorn" unicode="&#xfe;" horiz-adv-x="577" 
d="M-24 -216l205 826q18 70 9.5 88.5t-62.5 20.5l4 17l226 67l-58 -221l-63 -242q38 94 89 149t110 55q55 0 86.5 -41.5t31.5 -117.5q0 -89 -47 -182t-124 -154.5t-156 -61.5q-41 0 -70 16l-54 -219h-127zM186 122l-18 -73q19 -26 55 -26q55 0 101 61.5t68 141.5t22 152
q0 87 -45 87q-43 0 -94.5 -98.5t-88.5 -244.5z" />
    <glyph glyph-name="ydieresis" unicode="&#xff;" horiz-adv-x="566" 
d="M510 428v1l-285 -464q-65 -107 -121.5 -146t-120.5 -39q-35 0 -68 9l31 124h7q31 -28 89 -28q43 0 73.5 15.5t53.5 55.5l19 30l-83 475q-4 31 -11.5 41.5t-37.5 18.5l4 18h255l-5 -18q-52 -8 -63 -19t-7 -53l46 -307l156 255q26 43 34 65t-1.5 37t-42.5 21l3 18h188
l-4 -18q-44 -12 -60 -25.5t-49 -66.5zM207 706q0 29 19.5 48t48.5 19q28 0 47.5 -19t19.5 -48q0 -30 -19.5 -49.5t-47.5 -19.5q-29 0 -48.5 19.5t-19.5 49.5zM430 706q0 29 20 48t49 19q28 0 47.5 -19t19.5 -48q0 -30 -19.5 -49.5t-47.5 -19.5q-29 0 -49 19.5t-20 49.5z" />
    <glyph glyph-name="Amacron" unicode="&#x100;" horiz-adv-x="763" 
d="M-66 0h-2l4 18q52 6 81 33.5t97 136.5l329 532q45 7 76 44h5l89 -652q9 -60 16 -70q11 -18 61 -24l-5 -18h-292l4 18q52 7 70 20t12 53l-19 147h-261l-10 -16q-30 -48 -47.5 -79.5t-26 -54.5t-9.5 -35t8.5 -20t21.5 -10.5t36 -4.5l-4 -18h-234zM414 593l-184 -301h222z
M639 818h-296l16 68h296z" />
    <glyph glyph-name="amacron" unicode="&#x101;" horiz-adv-x="613" 
d="M144 -13h1q-55 0 -87 42t-32 117q0 89 47 182.5t124.5 156t156.5 62.5q46 0 75 -20l134 20l-44 -162l-73 -270q-20 -66 15 -66q28 0 64 29.5t65 76.5l15 -11q-40 -76 -95.5 -116.5t-106.5 -40.5q-55 0 -72 39t3 124l10 42q-38 -94 -89.5 -149.5t-110.5 -55.5zM211 66h1
q42 0 94.5 100.5t89.5 244.5l17 72q-21 28 -55 28q-56 0 -101.5 -62t-68 -143t-22.5 -152q0 -88 45 -88zM558 665h-296l16 68h296z" />
    <glyph glyph-name="Abreve" unicode="&#x102;" horiz-adv-x="763" 
d="M-66 0h-2l4 18q52 6 81 33.5t97 136.5l329 532q45 7 76 44h5l89 -652q9 -60 16 -70q11 -18 61 -24l-5 -18h-292l4 18q52 7 70 20t12 53l-19 147h-261l-10 -16q-30 -48 -47.5 -79.5t-26 -54.5t-9.5 -35t8.5 -20t21.5 -10.5t36 -4.5l-4 -18h-234zM414 593l-184 -301h222z
M497 787q-66 0 -95 39t-18 93h47q-11 -47 8 -70t62 -23q82 0 105 93h48q-11 -55 -50.5 -93.5t-106.5 -38.5z" />
    <glyph glyph-name="abreve" unicode="&#x103;" horiz-adv-x="613" 
d="M144 -13h1q-55 0 -87 42t-32 117q0 89 47 182.5t124.5 156t156.5 62.5q46 0 75 -20l134 20l-44 -162l-73 -270q-20 -66 15 -66q28 0 64 29.5t65 76.5l15 -11q-40 -76 -95.5 -116.5t-106.5 -40.5q-55 0 -72 39t3 124l10 42q-38 -94 -89.5 -149.5t-110.5 -55.5zM211 66h1
q42 0 94.5 100.5t89.5 244.5l17 72q-21 28 -55 28q-56 0 -101.5 -62t-68 -143t-22.5 -152q0 -88 45 -88zM418 662h-1q89 0 114 100h52q-13 -59 -57.5 -100t-116.5 -41q-71 0 -99.5 41.5t-16.5 99.5h48q-9 -53 10.5 -76.5t66.5 -23.5z" />
    <glyph glyph-name="Aogonek" unicode="&#x104;" horiz-adv-x="763" 
d="M416 593l-184 -301h222zM618 -170h-1l5 -10q-52 -44 -110 -44q-38 0 -64 19t-26 58q0 72 136 147h-166l4 18q52 7 70 20t12 53l-19 147h-261l-10 -16q-30 -48 -47.5 -79.5t-26 -54.5t-9.5 -35t8.5 -20t21.5 -10.5t36 -4.5l-4 -18h-234l4 18q52 6 81 33.5t97 136.5
l329 532q45 7 76 44h5l89 -652q9 -60 16 -70q11 -18 61 -24l-5 -18h-102q-32 -24 -53.5 -57t-21.5 -65q0 -28 16 -44.5t42 -16.5t51 13z" />
    <glyph glyph-name="aogonek" unicode="&#x105;" horiz-adv-x="613" 
d="M210 66h1q42 0 94.5 100.5t89.5 244.5l17 72q-21 28 -55 28q-56 0 -101.5 -62t-68 -143t-22.5 -152q0 -88 45 -88zM462 -170h3l5 -10q-52 -44 -110 -44q-38 0 -64 19t-26 58q0 67 116 136q-83 13 -48 161l10 42q-38 -94 -89.5 -149.5t-110.5 -55.5q-55 0 -87 42t-32 117
q0 89 47 182.5t124.5 156t156.5 62.5q46 0 75 -20l134 20l-44 -162l-73 -270q-20 -66 15 -66q28 0 64 29.5t65 76.5l15 -11q-38 -73 -91.5 -113.5t-103.5 -43.5q-60 -53 -60 -109q0 -28 16 -44.5t42 -16.5t51 13z" />
    <glyph glyph-name="Cacute" unicode="&#x106;" horiz-adv-x="692" 
d="M770 922l-251 -129h-21l115 129h157zM675 479h-1h-19q0 121 -34.5 173.5t-124.5 52.5q-70 0 -130 -46t-97.5 -116.5t-58 -149t-20.5 -148.5q0 -208 172 -208q84 0 149.5 48t109.5 127l25 -13q-44 -95 -122 -153.5t-193 -58.5q-127 0 -208.5 76t-81.5 208q0 98 39.5 186
t104 150t150.5 98.5t177 36.5q108 0 202 -50z" />
    <glyph glyph-name="cacute" unicode="&#x107;" horiz-adv-x="485" 
d="M585 772l-239 -169h-16l111 169h144zM25 153h-1q0 96 47.5 188t124 149t156.5 57q141 0 122 -166l-117 -3q8 28 11.5 45.5t5 40.5t-9 35t-31.5 12q-47 0 -88.5 -57t-63 -132.5t-21.5 -140.5q0 -50 20 -79t57 -29q46 0 94 34.5t81 107.5l17 -10q-94 -218 -258 -218
q-71 0 -108.5 44.5t-37.5 121.5z" />
    <glyph glyph-name="Ccircumflex" unicode="&#x108;" horiz-adv-x="692" 
d="M675 479h-1h-19q0 121 -34.5 173.5t-124.5 52.5q-70 0 -130 -46t-97.5 -116.5t-58 -149t-20.5 -148.5q0 -208 172 -208q84 0 149.5 48t109.5 127l25 -13q-44 -95 -122 -153.5t-193 -58.5q-127 0 -208.5 76t-81.5 208q0 98 39.5 186t104 150t150.5 98.5t177 36.5
q108 0 202 -50zM545 932h16l111 -139h-21l-113 59l-149 -59h-23z" />
    <glyph glyph-name="ccircumflex" unicode="&#x109;" horiz-adv-x="485" 
d="M404 772l116 -169h-17l-125 73l-168 -73h-19l200 169h13zM25 153h-1q0 96 47.5 188t124 149t156.5 57q141 0 122 -166l-117 -3q8 28 11.5 45.5t5 40.5t-9 35t-31.5 12q-47 0 -88.5 -57t-63 -132.5t-21.5 -140.5q0 -50 20 -79t57 -29q46 0 94 34.5t81 107.5l17 -10
q-94 -218 -258 -218q-71 0 -108.5 44.5t-37.5 121.5z" />
    <glyph glyph-name="Cdotaccent" unicode="&#x10a;" horiz-adv-x="692" 
d="M475 865q0 29 19.5 48t48.5 19t48 -19t19 -48q0 -30 -19 -49.5t-48 -19.5t-48.5 19.5t-19.5 49.5zM675 479h-1h-19q0 121 -34.5 173.5t-124.5 52.5q-70 0 -130 -46t-97.5 -116.5t-58 -149t-20.5 -148.5q0 -208 172 -208q84 0 149.5 48t109.5 127l25 -13
q-44 -95 -122 -153.5t-193 -58.5q-127 0 -208.5 76t-81.5 208q0 98 39.5 186t104 150t150.5 98.5t177 36.5q108 0 202 -50z" />
    <glyph glyph-name="cdotaccent" unicode="&#x10b;" horiz-adv-x="485" 
d="M25 153h-1q0 96 47.5 188t124 149t156.5 57q141 0 122 -166l-117 -3q8 28 11.5 45.5t5 40.5t-9 35t-31.5 12q-47 0 -88.5 -57t-63 -132.5t-21.5 -140.5q0 -50 20 -79t57 -29q46 0 94 34.5t81 107.5l17 -10q-94 -218 -258 -218q-71 0 -108.5 44.5t-37.5 121.5zM326 705
q0 29 19.5 48t48.5 19t48 -19t19 -48q0 -30 -19 -49.5t-48 -19.5t-48.5 19.5t-19.5 49.5z" />
    <glyph glyph-name="Ccaron" unicode="&#x10c;" horiz-adv-x="692" 
d="M675 479h-1h-19q0 121 -34.5 173.5t-124.5 52.5q-70 0 -130 -46t-97.5 -116.5t-58 -149t-20.5 -148.5q0 -208 172 -208q84 0 149.5 48t109.5 127l25 -13q-44 -95 -122 -153.5t-193 -58.5q-127 0 -208.5 76t-81.5 208q0 98 39.5 186t104 150t150.5 98.5t177 36.5
q108 0 202 -50zM541 793h-16l-111 139h21l113 -59l149 59h23z" />
    <glyph glyph-name="ccaron" unicode="&#x10d;" horiz-adv-x="485" 
d="M354 603l-116 169h17l125 -73l168 73h19l-200 -169h-13zM25 153h-1q0 96 47.5 188t124 149t156.5 57q141 0 122 -166l-117 -3q8 28 11.5 45.5t5 40.5t-9 35t-31.5 12q-47 0 -88.5 -57t-63 -132.5t-21.5 -140.5q0 -50 20 -79t57 -29q46 0 94 34.5t81 107.5l17 -10
q-94 -218 -258 -218q-71 0 -108.5 44.5t-37.5 121.5z" />
    <glyph glyph-name="Dcaron" unicode="&#x10e;" horiz-adv-x="802" 
d="M141 725h-1h250q176 0 282.5 -74.5t106.5 -214.5q0 -88 -28.5 -160t-79.5 -123t-121 -85.5t-152.5 -51t-174.5 -16.5h-263l4 18q72 8 91.5 28.5t39.5 99.5l108 433q8 30 11.5 45t4 31t-3 22.5t-14 13.5t-25 9.5t-39.5 6.5zM205 36h27q188 0 292.5 113t104.5 300
q0 125 -57 182.5t-178 57.5h-26zM482 793h-16l-111 139h21l113 -59l149 59h23z" />
    <glyph glyph-name="dcaron" unicode="&#x10f;" horiz-adv-x="732" 
d="M426 528h1l22 82q19 70 10.5 88.5t-63.5 20.5l4 17l226 67l-58 -221l-124 -467q-20 -66 15 -66q28 0 64 29.5t65 76.5l15 -11q-40 -76 -95.5 -116.5t-106.5 -40.5q-111 0 -69 163l11 43q-38 -94 -89.5 -150t-109.5 -56q-55 0 -87 42.5t-32 117.5q0 89 47 182.5
t124.5 155.5t156.5 62q41 0 73 -19zM211 66q42 0 94.5 100t89.5 244l19 71q-17 30 -56 30q-56 0 -101.5 -62t-68 -142.5t-22.5 -151.5q0 -89 45 -89zM735 649q-26 1 -44.5 18t-18.5 42q0 27 18 45t47 18t45.5 -19t16.5 -52q0 -55 -49.5 -106t-121.5 -79l-5 10
q112 62 112 123z" />
    <glyph glyph-name="Dcroat" unicode="&#x110;" horiz-adv-x="817" 
d="M156 725h-1h250q176 0 282.5 -74.5t106.5 -214.5q0 -88 -28.5 -160t-79.5 -123t-121 -85.5t-152.5 -51t-174.5 -16.5h-263l4 18q72 8 91.5 28.5t39.5 99.5l51 206h-107l12 44h106l46 183q8 30 11.5 45t4 31t-3 22.5t-14 13.5t-25 9.5t-39.5 6.5zM220 36h27
q188 0 292.5 113t104.5 300q0 125 -57 182.5t-178 57.5h-26l-73 -293h138l-12 -44h-137z" />
    <glyph glyph-name="dcroat" unicode="&#x111;" horiz-adv-x="631" 
d="M322 635h1h132q12 52 1.5 67t-60.5 17l4 17l226 67l-44 -168h100l-11 -44h-101l-2 -9l-124 -467q-20 -66 15 -66q28 0 64 29.5t65 76.5l15 -11q-40 -76 -95.5 -116.5t-106.5 -40.5q-111 0 -69 163l11 43q-38 -94 -89.5 -150t-109.5 -56q-55 0 -87 42.5t-32 117.5
q0 89 47 182.5t124.5 155.5t156.5 62q41 0 73 -19l17 63h-132zM211 66q42 0 94.5 100t89.5 244l19 71q-17 30 -56 30q-56 0 -101.5 -62t-68 -142.5t-22.5 -151.5q0 -89 45 -89z" />
    <glyph glyph-name="Emacron" unicode="&#x112;" horiz-adv-x="687" 
d="M141 725h-1h332q157 0 237 3l-35 -239h-20q-3 66 -14 103t-42 60t-77.5 30t-129.5 7h-24l-73 -293h153l86 115h17l-68 -276h-18l-28 117h-153l-69 -274q-6 -24 2 -33.5t40 -9.5q137 0 210 40.5t144 162.5h19l-90 -239q-80 1 -243 1h-336l4 18q72 8 91.5 28.5t39.5 99.5
l108 433q8 30 11.5 45t4 31t-3 22.5t-14 13.5t-25 9.5t-39.5 6.5zM628 818h-296l16 68h296z" />
    <glyph glyph-name="emacron" unicode="&#x113;" horiz-adv-x="498" 
d="M28 153h1q0 96 47 187.5t125.5 149t162.5 57.5q50 0 90.5 -24t40.5 -73q0 -106 -178 -147l-144 -33q-10 -46 -10 -90q0 -50 19.5 -78.5t58.5 -28.5q46 0 92.5 34t82.5 108l17 -10q-92 -218 -258 -218q-71 0 -109 44.5t-38 121.5zM335 511v-1q-50 0 -91.5 -61.5
t-63.5 -149.5l46 10q75 17 112.5 57t37.5 93q0 52 -41 52zM517 664h-296l16 68h296z" />
    <glyph glyph-name="Ebreve" unicode="&#x114;" horiz-adv-x="687" 
d="M141 725h-1h332q157 0 237 3l-35 -239h-20q-3 66 -14 103t-42 60t-77.5 30t-129.5 7h-24l-73 -293h153l86 115h17l-68 -276h-18l-28 117h-153l-69 -274q-6 -24 2 -33.5t40 -9.5q137 0 210 40.5t144 162.5h19l-90 -239q-80 1 -243 1h-336l4 18q72 8 91.5 28.5t39.5 99.5
l108 433q8 30 11.5 45t4 31t-3 22.5t-14 13.5t-25 9.5t-39.5 6.5zM477 787q-66 0 -95 39t-18 93h47q-11 -47 8 -70t62 -23q82 0 105 93h48q-11 -55 -50.5 -93.5t-106.5 -38.5z" />
    <glyph glyph-name="ebreve" unicode="&#x115;" horiz-adv-x="498" 
d="M28 153h1q0 96 47 187.5t125.5 149t162.5 57.5q50 0 90.5 -24t40.5 -73q0 -106 -178 -147l-144 -33q-10 -46 -10 -90q0 -50 19.5 -78.5t58.5 -28.5q46 0 92.5 34t82.5 108l17 -10q-92 -218 -258 -218q-71 0 -109 44.5t-38 121.5zM335 511v-1q-50 0 -91.5 -61.5
t-63.5 -149.5l46 10q75 17 112.5 57t37.5 93q0 52 -41 52zM384 661h-1q89 0 114 100h52q-13 -59 -57.5 -100t-116.5 -41q-71 0 -99.5 41.5t-16.5 99.5h48q-9 -53 10.5 -76.5t66.5 -23.5z" />
    <glyph glyph-name="Edotaccent" unicode="&#x116;" horiz-adv-x="687" 
d="M427 865q0 29 19.5 48t48.5 19t48 -19t19 -48q0 -30 -19 -49.5t-48 -19.5t-48.5 19.5t-19.5 49.5zM141 725h-1h332q157 0 237 3l-35 -239h-20q-3 66 -14 103t-42 60t-77.5 30t-129.5 7h-24l-73 -293h153l86 115h17l-68 -276h-18l-28 117h-153l-69 -274q-6 -24 2 -33.5
t40 -9.5q137 0 210 40.5t144 162.5h19l-90 -239q-80 1 -243 1h-336l4 18q72 8 91.5 28.5t39.5 99.5l108 433q8 30 11.5 45t4 31t-3 22.5t-14 13.5t-25 9.5t-39.5 6.5z" />
    <glyph glyph-name="edotaccent" unicode="&#x117;" horiz-adv-x="498" 
d="M28 153h1q0 96 47 187.5t125.5 149t162.5 57.5q50 0 90.5 -24t40.5 -73q0 -106 -178 -147l-144 -33q-10 -46 -10 -90q0 -50 19.5 -78.5t58.5 -28.5q46 0 92.5 34t82.5 108l17 -10q-92 -218 -258 -218q-71 0 -109 44.5t-38 121.5zM335 511v-1q-50 0 -91.5 -61.5
t-63.5 -149.5l46 10q75 17 112.5 57t37.5 93q0 52 -41 52zM327 704q0 29 19.5 48t48.5 19t48 -19t19 -48q0 -30 -19 -49.5t-48 -19.5t-48.5 19.5t-19.5 49.5z" />
    <glyph glyph-name="Eogonek" unicode="&#x118;" horiz-adv-x="687" 
d="M141 725v1h332q157 0 237 3l-35 -239h-20q-3 66 -14 103t-42 60t-77.5 30t-129.5 7h-24l-73 -293h153l86 115h17l-68 -276h-18l-28 117h-153l-69 -274q-6 -24 2 -33.5t40 -9.5q137 0 210 40.5t144 162.5h19l-90 -239h-74q-32 -24 -53.5 -57t-21.5 -65q0 -28 16 -44.5
t42 -16.5t51 13l5 -10q-52 -44 -110 -44q-37 0 -63.5 19t-26.5 58q0 73 135 147h-144h-336l4 18q72 8 91.5 28.5t39.5 99.5l108 433q8 30 11.5 45t4 31t-3 22.5t-14 13.5t-25 9.5t-39.5 6.5z" />
    <glyph glyph-name="eogonek" unicode="&#x119;" horiz-adv-x="498" 
d="M28 153l1 -1q0 96 47 187.5t125.5 149t162.5 57.5q50 0 90.5 -24t40.5 -73q0 -106 -178 -147l-144 -33q-10 -46 -10 -90q0 -50 19.5 -78.5t58.5 -28.5q46 0 92.5 34t82.5 108l17 -10q-66 -155 -172 -200q-35 -24 -58 -58t-23 -68q0 -28 16 -44.5t42 -16.5t51 13l5 -10
q-52 -44 -110 -44q-38 0 -64 19t-26 58q0 67 119 137q-18 -3 -38 -3q-71 0 -109 44.5t-38 121.5zM335 510v-1q-50 0 -91.5 -61.5t-63.5 -149.5l46 10q75 17 112.5 57t37.5 93q0 52 -41 52z" />
    <glyph glyph-name="Ecaron" unicode="&#x11a;" horiz-adv-x="687" 
d="M141 725h-1h332q157 0 237 3l-35 -239h-20q-3 66 -14 103t-42 60t-77.5 30t-129.5 7h-24l-73 -293h153l86 115h17l-68 -276h-18l-28 117h-153l-69 -274q-6 -24 2 -33.5t40 -9.5q137 0 210 40.5t144 162.5h19l-90 -239q-80 1 -243 1h-336l4 18q72 8 91.5 28.5t39.5 99.5
l108 433q8 30 11.5 45t4 31t-3 22.5t-14 13.5t-25 9.5t-39.5 6.5zM492 793h-16l-111 139h21l113 -59l149 59h23z" />
    <glyph glyph-name="ecaron" unicode="&#x11b;" horiz-adv-x="498" 
d="M362 603l-116 169h17l125 -73l168 73h19l-200 -169h-13zM28 153h1q0 96 47 187.5t125.5 149t162.5 57.5q50 0 90.5 -24t40.5 -73q0 -106 -178 -147l-144 -33q-10 -46 -10 -90q0 -50 19.5 -78.5t58.5 -28.5q46 0 92.5 34t82.5 108l17 -10q-92 -218 -258 -218
q-71 0 -109 44.5t-38 121.5zM335 511v-1q-50 0 -91.5 -61.5t-63.5 -149.5l46 10q75 17 112.5 57t37.5 93q0 52 -41 52z" />
    <glyph glyph-name="Gcircumflex" unicode="&#x11c;" horiz-adv-x="773" 
d="M550 932h16l111 -139h-21l-113 59l-149 -59h-23zM361 -13v1q-149 0 -234.5 78t-85.5 215q0 89 37 173t100.5 148t154.5 102.5t193 38.5q53 0 117.5 -15t100.5 -35l-37 -213h-20q-1 117 -41.5 171.5t-132.5 54.5q-73 0 -136 -44t-102.5 -112.5t-62 -146.5t-22.5 -151
q0 -101 46.5 -163.5t133.5 -62.5q52 0 93 23.5t53 74.5l14 52q8 30 11.5 45t4 31t-3 22t-14.5 13t-25 9.5t-40 6.5l4 18h305l-4 -18q-52 -9 -66 -28t-35 -100l-28 -111q-115 -77 -278 -77z" />
    <glyph glyph-name="gcircumflex" unicode="&#x11d;" horiz-adv-x="589" 
d="M406 772l116 -169h-17l-125 73l-168 -73h-19l200 169h13zM88 332v-1q0 88 77.5 151.5t177.5 63.5q33 0 62 -9h208l-11 -44l-128 2q37 -39 37 -92q0 -88 -77 -151.5t-177 -63.5q-38 0 -67 10q-57 -35 -57 -59q0 -19 52 -24l117 -12q85 -9 128 -34t43 -74q0 -66 -54 -118
t-130 -77t-153 -25q-87 0 -138 28.5t-51 76.5q0 88 172 121q-41 9 -63 30.5t-22 48.5q0 28 20 52.5t42.5 39t58.5 33.5q7 3 10 5q-77 39 -77 122zM252 -15l-105 11h-3l-2 1q-39 -13 -68 -42.5t-29 -65.5q0 -35 31 -54t85 -19q77 0 141 31.5t64 83.5q0 25 -27 36.5t-87 17.5z
M399 427q0 85 -65 85q-43 0 -74.5 -36t-45 -81.5t-13.5 -88.5q0 -84 66 -84q42 0 73.5 35.5t45 81t13.5 88.5z" />
    <glyph glyph-name="Gbreve" unicode="&#x11e;" horiz-adv-x="773" 
d="M361 -13v1q-149 0 -234.5 78t-85.5 215q0 89 37 173t100.5 148t154.5 102.5t193 38.5q53 0 117.5 -15t100.5 -35l-37 -213h-20q-1 117 -41.5 171.5t-132.5 54.5q-73 0 -136 -44t-102.5 -112.5t-62 -146.5t-22.5 -151q0 -101 46.5 -163.5t133.5 -62.5q52 0 93 23.5
t53 74.5l14 52q8 30 11.5 45t4 31t-3 22t-14.5 13t-25 9.5t-40 6.5l4 18h305l-4 -18q-52 -9 -66 -28t-35 -100l-28 -111q-115 -77 -278 -77zM536 788q-66 0 -95 39t-18 93h47q-11 -47 8 -70t62 -23q82 0 105 93h48q-11 -55 -50.5 -93.5t-106.5 -38.5z" />
    <glyph glyph-name="gbreve" unicode="&#x11f;" horiz-adv-x="589" 
d="M88 332v-1q0 88 77.5 151.5t177.5 63.5q33 0 62 -9h208l-11 -44l-128 2q37 -39 37 -92q0 -88 -77 -151.5t-177 -63.5q-38 0 -67 10q-57 -35 -57 -59q0 -19 52 -24l117 -12q85 -9 128 -34t43 -74q0 -66 -54 -118t-130 -77t-153 -25q-87 0 -138 28.5t-51 76.5q0 88 172 121
q-41 9 -63 30.5t-22 48.5q0 28 20 52.5t42.5 39t58.5 33.5q7 3 10 5q-77 39 -77 122zM252 -15l-105 11h-3l-2 1q-39 -13 -68 -42.5t-29 -65.5q0 -35 31 -54t85 -19q77 0 141 31.5t64 83.5q0 25 -27 36.5t-87 17.5zM399 427q0 85 -65 85q-43 0 -74.5 -36t-45 -81.5
t-13.5 -88.5q0 -84 66 -84q42 0 73.5 35.5t45 81t13.5 88.5zM390 661h-1q89 0 114 100h52q-13 -59 -57.5 -100t-116.5 -41q-71 0 -99.5 41.5t-16.5 99.5h48q-9 -53 10.5 -76.5t66.5 -23.5z" />
    <glyph glyph-name="Gdotaccent" unicode="&#x120;" horiz-adv-x="773" 
d="M473 865q0 29 19.5 48t48.5 19t48 -19t19 -48q0 -30 -19 -49.5t-48 -19.5t-48.5 19.5t-19.5 49.5zM361 -13v1q-149 0 -234.5 78t-85.5 215q0 89 37 173t100.5 148t154.5 102.5t193 38.5q53 0 117.5 -15t100.5 -35l-37 -213h-20q-1 117 -41.5 171.5t-132.5 54.5
q-73 0 -136 -44t-102.5 -112.5t-62 -146.5t-22.5 -151q0 -101 46.5 -163.5t133.5 -62.5q52 0 93 23.5t53 74.5l14 52q8 30 11.5 45t4 31t-3 22t-14.5 13t-25 9.5t-40 6.5l4 18h305l-4 -18q-52 -9 -66 -28t-35 -100l-28 -111q-115 -77 -278 -77z" />
    <glyph glyph-name="gdotaccent" unicode="&#x121;" horiz-adv-x="589" 
d="M88 332v-1q0 88 77.5 151.5t177.5 63.5q33 0 62 -9h208l-11 -44l-128 2q37 -39 37 -92q0 -88 -77 -151.5t-177 -63.5q-38 0 -67 10q-57 -35 -57 -59q0 -19 52 -24l117 -12q85 -9 128 -34t43 -74q0 -66 -54 -118t-130 -77t-153 -25q-87 0 -138 28.5t-51 76.5q0 88 172 121
q-41 9 -63 30.5t-22 48.5q0 28 20 52.5t42.5 39t58.5 33.5q7 3 10 5q-77 39 -77 122zM252 -15l-105 11h-3l-2 1q-39 -13 -68 -42.5t-29 -65.5q0 -35 31 -54t85 -19q77 0 141 31.5t64 83.5q0 25 -27 36.5t-87 17.5zM399 427q0 85 -65 85q-43 0 -74.5 -36t-45 -81.5
t-13.5 -88.5q0 -84 66 -84q42 0 73.5 35.5t45 81t13.5 88.5zM312 704q0 29 19.5 48t48.5 19t48 -19t19 -48q0 -30 -19 -49.5t-48 -19.5t-48.5 19.5t-19.5 49.5z" />
    <glyph glyph-name="Gcommaaccent" unicode="&#x122;" horiz-adv-x="773" 
d="M309 -178q-26 1 -44.5 18t-18.5 42q0 27 18 45t47 18t45.5 -19t16.5 -52q0 -55 -49.5 -106t-121.5 -79l-5 10q112 62 112 123zM361 -13v1q-149 0 -234.5 78t-85.5 215q0 89 37 173t100.5 148t154.5 102.5t193 38.5q53 0 117.5 -15t100.5 -35l-37 -213h-20
q-1 117 -41.5 171.5t-132.5 54.5q-73 0 -136 -44t-102.5 -112.5t-62 -146.5t-22.5 -151q0 -101 46.5 -163.5t133.5 -62.5q52 0 93 23.5t53 74.5l14 52q8 30 11.5 45t4 31t-3 22t-14.5 13t-25 9.5t-40 6.5l4 18h305l-4 -18q-52 -9 -66 -28t-35 -100l-28 -111
q-115 -77 -278 -77z" />
    <glyph glyph-name="gcommaaccent" unicode="&#x123;" horiz-adv-x="589" 
d="M384 743v-1q27 -1 45 -17.5t18 -42.5t-18.5 -44.5t-45.5 -18.5q-29 0 -45.5 19t-16.5 52q0 55 49.5 107.5t120.5 79.5l5 -10q-112 -62 -112 -124zM88 331v-1q0 88 77.5 151.5t177.5 63.5q33 0 62 -9h208l-11 -44l-128 2q37 -39 37 -92q0 -88 -77 -151.5t-177 -63.5
q-38 0 -67 10q-57 -35 -57 -59q0 -19 52 -24l117 -12q85 -9 128 -34t43 -74q0 -66 -54 -118t-130 -77t-153 -25q-87 0 -138 28.5t-51 76.5q0 88 172 121q-41 9 -63 30.5t-22 48.5q0 28 20 52.5t42.5 39t58.5 33.5q7 3 10 5q-77 39 -77 122zM252 -16l-105 11q-2 0 -3 1h-2
q-39 -13 -68 -42.5t-29 -65.5q0 -35 31 -54t85 -19q77 0 141 31.5t64 83.5q0 25 -27 36.5t-87 17.5zM399 426q0 85 -65 85q-43 0 -74.5 -36t-45 -81.5t-13.5 -88.5q0 -84 66 -84q42 0 73.5 35.5t45 81t13.5 88.5z" />
    <glyph glyph-name="Hcircumflex" unicode="&#x124;" horiz-adv-x="859" 
d="M787 579h-4l-108 -433q-21 -76 -11 -98t79 -30l-4 -18h-335l4 18q72 8 91.5 28.5t39.5 99.5l51 206h-309l-51 -206q-21 -76 -11 -98t79 -30l-4 -18h-335l4 18q72 8 91.5 28.5t39.5 99.5l108 433q8 30 11.5 45t4 31t-3 22.5t-14 13.5t-25 9.5t-39.5 6.5l4 18h335l-4 -18
q-74 -9 -92 -28t-39 -100l-46 -183h309l46 183q8 30 11.5 45t4 31t-3 22.5t-14 13.5t-25 9.5t-39.5 6.5l4 18h335l-4 -18q-74 -9 -92 -28t-39 -100zM563 932h16l111 -139h-21l-113 59l-149 -59h-23z" />
    <glyph glyph-name="hcircumflex" unicode="&#x125;" horiz-adv-x="616" 
d="M314 932h16l111 -139h-21l-113 59l-149 -59h-23zM299 582h2l-71 -275q56 122 104.5 181t106.5 59t81 -49.5t-3 -151.5l-68 -231q-20 -66 15 -66q28 0 64 29.5t65 76.5l15 -11q-40 -76 -95.5 -116.5t-106.5 -40.5q-58 0 -77.5 39.5t2.5 123.5l55 192q37 127 -6 127
q-42 0 -108.5 -125.5t-98.5 -251.5l-23 -92h-123l153 610q18 71 9 89t-63 20l4 17l226 67q-14 -51 -59 -221z" />
    <glyph glyph-name="Hbar" unicode="&#x126;" horiz-adv-x="859" 
d="M787 579h-4l-3 -13h100l-12 -45h-100l-93 -375q-21 -76 -11 -98t79 -30l-4 -18h-335l4 18q72 8 91.5 28.5t39.5 99.5l51 206h-309l-51 -206q-21 -76 -11 -98t79 -30l-4 -18h-335l4 18q72 8 91.5 28.5t39.5 99.5l93 375h-99l12 45h98l4 13q8 30 11.5 45t4 31t-3 22.5
t-14 13.5t-25 9.5t-39.5 6.5l4 18h335l-4 -18q-74 -9 -92 -28t-39 -100l-4 -13h309l4 13q8 30 11.5 45t4 31t-3 22.5t-14 13.5t-25 9.5t-39.5 6.5l4 18h335l-4 -18q-74 -9 -92 -28t-39 -100zM291 396h309l31 125h-309z" />
    <glyph glyph-name="hbar" unicode="&#x127;" horiz-adv-x="609" 
d="M299 582v-1l-71 -275q56 122 104.5 181t106.5 59t81 -49.5t-3 -151.5l-68 -231q-20 -66 15 -66q28 0 64 29.5t65 76.5l15 -11q-40 -76 -95.5 -116.5t-106.5 -40.5q-58 0 -77.5 39.5t2.5 123.5l55 192q37 127 -6 127q-42 0 -108.5 -125.5t-98.5 -251.5l-23 -92h-123
l148 591h-92l11 44h92q12 54 1.5 68.5t-60.5 16.5l4 17l226 67q-19 -68 -45 -168h141l-11 -44h-141z" />
    <glyph glyph-name="Itilde" unicode="&#x128;" horiz-adv-x="413" 
d="M341 579h-2l-108 -433q-21 -76 -11 -98t79 -30l-4 -18h-335l4 18q72 8 91.5 28.5t39.5 99.5l108 433q8 30 11.5 45t4 31t-3 22.5t-14 13.5t-25 9.5t-39.5 6.5l4 18h335l-4 -18q-74 -9 -92 -28t-39 -100zM422 864h2q51 0 61 50h16q0 -53 -24 -90t-69 -37q-34 0 -83.5 30.5
t-79.5 30.5q-53 0 -63 -50h-16q0 53 24 90t69 37q33 0 83.5 -30.5t79.5 -30.5z" />
    <glyph glyph-name="itilde" unicode="&#x129;" horiz-adv-x="340" 
d="M56 150h1l51 204q18 70 9.5 88.5t-62.5 20.5l4 17l226 67q-14 -51 -59 -221l-53 -211q-16 -66 16 -66q28 0 64 29.5t65 76.5l15 -11q-40 -76 -95.5 -116.5t-106.5 -40.5q-115 0 -75 163zM90 635h1h-19q0 53 24 94.5t70 41.5q30 0 80 -31.5t70 -31.5q27 0 40 14t15 46h19
q0 -131 -86 -131q-35 0 -84 31.5t-74 31.5q-24 0 -39 -17t-17 -48z" />
    <glyph glyph-name="Imacron" unicode="&#x12a;" horiz-adv-x="413" 
d="M341 579h-2l-108 -433q-21 -76 -11 -98t79 -30l-4 -18h-335l4 18q72 8 91.5 28.5t39.5 99.5l108 433q8 30 11.5 45t4 31t-3 22.5t-14 13.5t-25 9.5t-39.5 6.5l4 18h335l-4 -18q-74 -9 -92 -28t-39 -100zM479 818h-296l16 68h296z" />
    <glyph glyph-name="imacron" unicode="&#x12b;" horiz-adv-x="340" 
d="M56 150h1l51 204q18 70 9.5 88.5t-62.5 20.5l4 17l226 67q-14 -51 -59 -221l-53 -211q-16 -66 16 -66q28 0 64 29.5t65 76.5l15 -11q-40 -76 -95.5 -116.5t-106.5 -40.5q-115 0 -75 163zM370 665h-296l16 68h296z" />
    <glyph glyph-name="Ibreve" unicode="&#x12c;" horiz-adv-x="413" 
d="M341 579h-2l-108 -433q-21 -76 -11 -98t79 -30l-4 -18h-335l4 18q72 8 91.5 28.5t39.5 99.5l108 433q8 30 11.5 45t4 31t-3 22.5t-14 13.5t-25 9.5t-39.5 6.5l4 18h335l-4 -18q-74 -9 -92 -28t-39 -100zM327 787q-66 0 -95 39t-18 93h47q-11 -47 8 -70t62 -23
q82 0 105 93h48q-11 -55 -50.5 -93.5t-106.5 -38.5z" />
    <glyph glyph-name="ibreve" unicode="&#x12d;" horiz-adv-x="340" 
d="M56 150h1l51 204q18 70 9.5 88.5t-62.5 20.5l4 17l226 67q-14 -51 -59 -221l-53 -211q-16 -66 16 -66q28 0 64 29.5t65 76.5l15 -11q-40 -76 -95.5 -116.5t-106.5 -40.5q-115 0 -75 163zM237 662h-1q89 0 114 100h52q-13 -59 -57.5 -100t-116.5 -41q-71 0 -99.5 41.5
t-16.5 99.5h48q-9 -53 10.5 -76.5t66.5 -23.5z" />
    <glyph glyph-name="Iogonek" unicode="&#x12e;" horiz-adv-x="413" 
d="M194 -170h-1l5 -10q-52 -44 -110 -44q-38 0 -64 19t-26 58q0 72 136 147h-174l4 18q72 8 91.5 28.5t39.5 99.5l108 433q8 30 11.5 45t4 31t-3 22.5t-14 13.5t-25 9.5t-39.5 6.5l4 18h335l-4 -18q-74 -9 -92 -28t-39 -100l-108 -433q-21 -76 -11 -98t79 -30l-4 -18h-137
q-32 -24 -53.5 -57t-21.5 -65q0 -28 16 -44.5t42 -16.5t51 13z" />
    <glyph glyph-name="iogonek" unicode="&#x12f;" horiz-adv-x="340" 
d="M248 636q-34 0 -58 23.5t-24 57.5q0 33 24 56t58 23q35 0 58.5 -23t23.5 -56q0 -34 -23.5 -57.5t-58.5 -23.5zM176 -170h2l5 -10q-52 -44 -110 -44q-37 0 -63.5 19t-26.5 58q0 68 119 138q-79 20 -44 159l51 204q18 70 9.5 88.5t-62.5 20.5l4 17l226 67q-14 -51 -59 -221
l-53 -211q-16 -66 16 -66q28 0 64 29.5t65 76.5l15 -11q-40 -76 -95.5 -116.5t-106.5 -40.5h-6q-59 -54 -59 -109q0 -28 16 -44.5t42 -16.5t51 13z" />
    <glyph glyph-name="Idotaccent" unicode="&#x130;" horiz-adv-x="413" 
d="M341 579h-2l-108 -433q-21 -76 -11 -98t79 -30l-4 -18h-335l4 18q72 8 91.5 28.5t39.5 99.5l108 433q8 30 11.5 45t4 31t-3 22.5t-14 13.5t-25 9.5t-39.5 6.5l4 18h335l-4 -18q-74 -9 -92 -28t-39 -100zM265 865q0 29 19.5 48t48.5 19t48 -19t19 -48q0 -30 -19 -49.5
t-48 -19.5t-48.5 19.5t-19.5 49.5z" />
    <glyph glyph-name="dotlessi" unicode="&#x131;" horiz-adv-x="340" 
d="M56 150h1l51 204q18 70 9.5 88.5t-62.5 20.5l4 17l226 67q-14 -51 -59 -221l-53 -211q-16 -66 16 -66q28 0 64 29.5t65 76.5l15 -11q-40 -76 -95.5 -116.5t-106.5 -40.5q-115 0 -75 163z" />
    <glyph glyph-name="Jcircumflex" unicode="&#x134;" horiz-adv-x="464" 
d="M415 579l-2 -1l-86 -346q-63 -246 -270 -246q-71 0 -113 14l39 157h12q9 -30 14.5 -44.5t17 -40t25 -37.5t30.5 -12q14 0 24 5.5t23 24t28 61t32 110.5l88 355q8 30 11.5 45t4 31t-3 22.5t-14 13.5t-25 9.5t-39.5 6.5l4 18h335l-4 -18q-74 -9 -92 -28t-39 -100zM413 931
h16l111 -139h-21l-113 59l-149 -59h-23z" />
    <glyph glyph-name="jcircumflex" unicode="&#x135;" horiz-adv-x="331" 
d="M298 772l116 -169h-17l-125 73l-168 -73h-19l200 169h13zM72 83v-1l68 271q18 70 9.5 88.5t-62.5 20.5l4 17l226 67q-31 -108 -58 -221l-56 -227q-30 -124 -98 -199.5t-205 -137.5l-5 12q76 64 114 136t63 174z" />
    <glyph glyph-name="Kcommaaccent" unicode="&#x136;" horiz-adv-x="778" 
d="M317 -178q-26 1 -44.5 18t-18.5 42q0 27 18 45t47 18t45.5 -19t16.5 -52q0 -55 -49.5 -106t-121.5 -79l-5 10q112 62 112 123zM288 366l-2 -2l-55 -220q-21 -76 -11 -98t79 -30l-4 -18h-335l4 18q72 8 91.5 28.5t39.5 99.5l108 433q8 30 11.5 45t4 31t-3 22.5t-14 13.5
t-25 9.5t-39.5 6.5l4 18h335l-4 -18q-74 -9 -92 -28t-39 -100l-53 -213l256 207q109 86 100 113q-6 17 -54 21l3 18h246l-4 -18q-48 -6 -88.5 -29t-143.5 -104l-193 -153l178 -305q30 -53 55 -72.5t65 -23.5l-4 -18h-306l3 18q47 4 56.5 21t-10.5 49z" />
    <glyph glyph-name="kcommaaccent" unicode="&#x137;" horiz-adv-x="596" 
d="M216 -178q-26 1 -44.5 18t-18.5 42q0 27 18 45t47 18t45.5 -19t16.5 -52q0 -55 -49.5 -106t-121.5 -79l-5 10q112 62 112 123zM289 95h2l-61 192l-73 -287h-126l155 610q19 70 10 88.5t-63 20.5l4 17l226 67q-14 -51 -59 -221l-75 -294l168 146q26 22 38.5 36.5t15 25.5
t-8.5 16.5t-37 8.5l3 17h205l-4 -17q-41 -2 -71 -18t-93 -68l-109 -94l74 -221q13 -42 26 -56.5t34 -14.5q38 0 83 82l15 -8q-56 -136 -160 -136q-50 0 -76 28t-43 80z" />
    <glyph glyph-name="Lacute" unicode="&#x139;" horiz-adv-x="633" 
d="M547 922l-251 -129h-21l115 129h157zM341 579h-1l-125 -503q-6 -26 0.5 -33.5t30.5 -7.5q134 0 203 42.5t143 172.5h20l-93 -251q-25 0 -106 0.5t-99 0.5h-354l4 18q72 8 91.5 28.5t39.5 99.5l108 433q8 30 11.5 45t4 31t-3 22.5t-14 13.5t-25 9.5t-39.5 6.5l4 18h335
l-4 -18q-74 -9 -92 -28t-39 -100z" />
    <glyph glyph-name="lacute" unicode="&#x13a;" horiz-adv-x="343" 
d="M454 922l-251 -129h-21l115 129h157zM58 150h1l117 460q19 70 10 88.5t-63 20.5l4 17l226 67q-14 -51 -59 -221l-119 -467q-20 -66 15 -66q28 0 64 29.5t65 76.5l15 -11q-40 -76 -95.5 -116.5t-106.5 -40.5q-113 0 -74 163z" />
    <glyph glyph-name="Lcommaaccent" unicode="&#x13b;" horiz-adv-x="633" 
d="M255 -178q-26 1 -44.5 18t-18.5 42q0 27 18 45t47 18t45.5 -19t16.5 -52q0 -55 -49.5 -106t-121.5 -79l-5 10q112 62 112 123zM341 579h-1l-125 -503q-6 -26 0.5 -33.5t30.5 -7.5q134 0 203 42.5t143 172.5h20l-93 -251q-25 0 -106 0.5t-99 0.5h-354l4 18q72 8 91.5 28.5
t39.5 99.5l108 433q8 30 11.5 45t4 31t-3 22.5t-14 13.5t-25 9.5t-39.5 6.5l4 18h335l-4 -18q-74 -9 -92 -28t-39 -100z" />
    <glyph glyph-name="lcommaaccent" unicode="&#x13c;" horiz-adv-x="343" 
d="M87 -178q-26 1 -44.5 18t-18.5 42q0 27 18 45t47 18t45.5 -19t16.5 -52q0 -55 -49.5 -106t-121.5 -79l-5 10q112 62 112 123zM58 150h1l117 460q19 70 10 88.5t-63 20.5l4 17l226 67q-14 -51 -59 -221l-119 -467q-20 -66 15 -66q28 0 64 29.5t65 76.5l15 -11
q-40 -76 -95.5 -116.5t-106.5 -40.5q-113 0 -74 163z" />
    <glyph glyph-name="Lcaron" unicode="&#x13d;" horiz-adv-x="633" 
d="M341 579h-1l-125 -503q-6 -26 0.5 -33.5t30.5 -7.5q134 0 203 42.5t143 172.5h20l-93 -251q-25 0 -106 0.5t-99 0.5h-354l4 18q72 8 91.5 28.5t39.5 99.5l108 433q8 30 11.5 45t4 31t-3 22.5t-14 13.5t-25 9.5t-39.5 6.5l4 18h335l-4 -18q-74 -9 -92 -28t-39 -100z
M595 619q-26 1 -44.5 18t-18.5 42q0 27 18 45t47 18t45.5 -19t16.5 -52q0 -55 -49.5 -106t-121.5 -79l-5 10q112 62 112 123z" />
    <glyph glyph-name="lcaron" unicode="&#x13e;" horiz-adv-x="456" 
d="M456 649q-26 1 -44.5 18t-18.5 42q0 27 18 45t47 18t45.5 -19t16.5 -52q0 -55 -49.5 -106t-121.5 -79l-5 10q112 62 112 123zM58 150h1l117 460q19 70 10 88.5t-63 20.5l4 17l226 67q-14 -51 -59 -221l-119 -467q-20 -66 15 -66q28 0 64 29.5t65 76.5l15 -11
q-40 -76 -95.5 -116.5t-106.5 -40.5q-113 0 -74 163z" />
    <glyph glyph-name="Ldot" unicode="&#x13f;" horiz-adv-x="633" 
d="M436 451q0 29 19.5 48t48.5 19t48 -19t19 -48q0 -30 -19 -49.5t-48 -19.5t-48.5 19.5t-19.5 49.5zM341 579h-1l-125 -503q-6 -26 0.5 -33.5t30.5 -7.5q134 0 203 42.5t143 172.5h20l-93 -251q-25 0 -106 0.5t-99 0.5h-354l4 18q72 8 91.5 28.5t39.5 99.5l108 433
q8 30 11.5 45t4 31t-3 22.5t-14 13.5t-25 9.5t-39.5 6.5l4 18h335l-4 -18q-74 -9 -92 -28t-39 -100z" />
    <glyph glyph-name="ldot" unicode="&#x140;" horiz-adv-x="446" 
d="M357 451q0 29 19.5 48t48.5 19t48 -19t19 -48q0 -30 -19 -49.5t-48 -19.5t-48.5 19.5t-19.5 49.5zM58 150h1l117 460q19 70 10 88.5t-63 20.5l4 17l226 67q-14 -51 -59 -221l-119 -467q-20 -66 15 -66q28 0 64 29.5t65 76.5l15 -11q-40 -76 -95.5 -116.5t-106.5 -40.5
q-113 0 -74 163z" />
    <glyph glyph-name="Lslash" unicode="&#x141;" horiz-adv-x="633" 
d="M341 579h-1l-33 -133l86 41l20 -40l-120 -58l-78 -313q-6 -26 0.5 -33.5t30.5 -7.5q134 0 203 42.5t143 172.5h20l-93 -251q-25 0 -106 0.5t-99 0.5h-354l4 18q72 8 91.5 28.5t39.5 99.5l42 169l-81 -38l-21 40l116 55l52 207q8 30 11.5 45t4 31t-3 22.5t-14 13.5
t-25 9.5t-39.5 6.5l4 18h335l-4 -18q-74 -9 -92 -28t-39 -100z" />
    <glyph glyph-name="lslash" unicode="&#x142;" horiz-adv-x="343" 
d="M115 374h1l60 236q19 70 10 88.5t-63 20.5l4 17l226 67q-14 -51 -59 -221l-36 -140l94 45l21 -40l-129 -62l-69 -270q-20 -66 15 -66q28 0 64 29.5t65 76.5l15 -11q-40 -76 -95.5 -116.5t-106.5 -40.5q-113 0 -74 163l42 167l-84 -40l-21 40z" />
    <glyph glyph-name="Nacute" unicode="&#x143;" horiz-adv-x="806" 
d="M743 922l-251 -129h-21l115 129h157zM597 152l-2 -1l106 427q8 30 11.5 45t4 31t-3 22.5t-14 13.5t-25 9.5t-39.5 6.5l4 18h245l-4 -18q-74 -9 -92 -28t-39 -100l-144 -579h-84l-276 562l-104 -416q-21 -76 -11 -98t79 -30l-4 -18h-245l4 18q72 8 91.5 28.5t39.5 99.5
l119 480v1q-20 41 -32 58.5t-29 25.5l3 15h163z" />
    <glyph glyph-name="nacute" unicode="&#x144;" horiz-adv-x="616" 
d="M602 772l-239 -169h-16l111 169h144zM288 547l-60 -240q56 122 104.5 181t106.5 59t81 -49.5t-3 -151.5l-68 -231q-20 -66 15 -66q28 0 64 29.5t65 76.5l15 -11q-40 -76 -95.5 -116.5t-106.5 -40.5q-58 0 -77.5 39.5t2.5 123.5l55 192q37 127 -6 127q-42 0 -108.5 -125.5
t-98.5 -251.5l-23 -92h-123l88 354q18 70 9.5 88.5t-62.5 20.5l4 17z" />
    <glyph glyph-name="Ncommaaccent" unicode="&#x145;" horiz-adv-x="806" 
d="M330 -178q-26 1 -44.5 18t-18.5 42q0 27 18 45t47 18t45.5 -19t16.5 -52q0 -55 -49.5 -106t-121.5 -79l-5 10q112 62 112 123zM597 152l-2 -1l106 427q8 30 11.5 45t4 31t-3 22.5t-14 13.5t-25 9.5t-39.5 6.5l4 18h245l-4 -18q-74 -9 -92 -28t-39 -100l-144 -579h-84
l-276 562l-104 -416q-21 -76 -11 -98t79 -30l-4 -18h-245l4 18q72 8 91.5 28.5t39.5 99.5l119 480v1q-20 41 -32 58.5t-29 25.5l3 15h163z" />
    <glyph glyph-name="ncommaaccent" unicode="&#x146;" horiz-adv-x="616" 
d="M231 -178q-26 1 -44.5 18t-18.5 42q0 27 18 45t47 18t45.5 -19t16.5 -52q0 -55 -49.5 -106t-121.5 -79l-5 10q112 62 112 123zM288 547l-60 -240q56 122 104.5 181t106.5 59t81 -49.5t-3 -151.5l-68 -231q-20 -66 15 -66q28 0 64 29.5t65 76.5l15 -11
q-40 -76 -95.5 -116.5t-106.5 -40.5q-58 0 -77.5 39.5t2.5 123.5l55 192q37 127 -6 127q-42 0 -108.5 -125.5t-98.5 -251.5l-23 -92h-123l88 354q18 70 9.5 88.5t-62.5 20.5l4 17z" />
    <glyph glyph-name="Ncaron" unicode="&#x147;" horiz-adv-x="806" 
d="M597 152l-2 -1l106 427q8 30 11.5 45t4 31t-3 22.5t-14 13.5t-25 9.5t-39.5 6.5l4 18h245l-4 -18q-74 -9 -92 -28t-39 -100l-144 -579h-84l-276 562l-104 -416q-21 -76 -11 -98t79 -30l-4 -18h-245l4 18q72 8 91.5 28.5t39.5 99.5l119 480v1q-20 41 -32 58.5t-29 25.5
l3 15h163zM524 792h-16l-111 139h21l113 -59l149 59h23z" />
    <glyph glyph-name="ncaron" unicode="&#x148;" horiz-adv-x="616" 
d="M372 603l-116 169h17l125 -73l168 73h19l-200 -169h-13zM288 547l-60 -240q56 122 104.5 181t106.5 59t81 -49.5t-3 -151.5l-68 -231q-20 -66 15 -66q28 0 64 29.5t65 76.5l15 -11q-40 -76 -95.5 -116.5t-106.5 -40.5q-58 0 -77.5 39.5t2.5 123.5l55 192q37 127 -6 127
q-42 0 -108.5 -125.5t-98.5 -251.5l-23 -92h-123l88 354q18 70 9.5 88.5t-62.5 20.5l4 17z" />
    <glyph glyph-name="Eng" unicode="&#x14a;" horiz-adv-x="806" 
d="M490 66l-2 -1l-244 496l-104 -416q-21 -76 -11 -98t79 -30l-4 -18h-245l4 18q72 8 91.5 28.5t39.5 99.5l119 480v1q-20 41 -32 58.5t-29 25.5l3 15h163l278 -573l106 427q8 30 11.5 45t4 31t-3 22.5t-14 13.5t-25 9.5t-39.5 6.5l4 18h245l-4 -18q-74 -9 -92 -28t-39 -100
l-119 -480q-30 -124 -97 -199.5t-204 -137.5l-4 10q117 107 164 294z" />
    <glyph glyph-name="eng" unicode="&#x14b;" horiz-adv-x="548" 
d="M303 57h-2l84 285q37 127 -6 127q-42 0 -108.5 -125.5t-98.5 -251.5l-23 -92h-123l88 354q18 70 9.5 88.5t-62.5 20.5l4 17l222 67l-60 -240q56 122 104.5 181t106.5 59t81 -49.5t-3 -151.5l-72 -247q-37 -126 -102 -201.5t-199 -135.5l-5 10q68 61 103 127t62 158z" />
    <glyph glyph-name="Omacron" unicode="&#x14c;" horiz-adv-x="804" 
d="M46 271q0 87 33 171.5t90 151t141 107.5t179 41q127 0 208 -75.5t81 -207.5q0 -88 -33 -172.5t-90.5 -151t-142 -107.5t-179.5 -41q-125 0 -206 76t-81 208zM196 245q0 -221 151 -221q67 0 122.5 46t89 117.5t51.5 149t18 148.5q0 220 -152 220q-67 0 -122.5 -46
t-88.5 -117t-51 -148.5t-18 -148.5zM656 818h-296l16 68h296z" />
    <glyph glyph-name="omacron" unicode="&#x14d;" horiz-adv-x="566" 
d="M487 665h-296l16 68h296zM401 374q0 137 -76 137q-52 0 -91 -61t-55 -138.5t-16 -151.5q0 -137 77 -137q53 0 91.5 61.5t54 138.5t15.5 151zM28 211q0 139 93.5 237.5t213.5 98.5q87 0 144.5 -62.5t57.5 -160.5q0 -139 -93 -238t-213 -99q-87 0 -145 63t-58 161z" />
    <glyph glyph-name="Obreve" unicode="&#x14e;" horiz-adv-x="804" 
d="M46 271q0 87 33 171.5t90 151t141 107.5t179 41q127 0 208 -75.5t81 -207.5q0 -88 -33 -172.5t-90.5 -151t-142 -107.5t-179.5 -41q-125 0 -206 76t-81 208zM196 245q0 -221 151 -221q67 0 122.5 46t89 117.5t51.5 149t18 148.5q0 220 -152 220q-67 0 -122.5 -46
t-88.5 -117t-51 -148.5t-18 -148.5zM514 787q-66 0 -95 39t-18 93h47q-11 -47 8 -70t62 -23q82 0 105 93h48q-11 -55 -50.5 -93.5t-106.5 -38.5z" />
    <glyph glyph-name="obreve" unicode="&#x14f;" horiz-adv-x="566" 
d="M401 374q0 137 -76 137q-52 0 -91 -61t-55 -138.5t-16 -151.5q0 -137 77 -137q53 0 91.5 61.5t54 138.5t15.5 151zM28 211q0 139 93.5 237.5t213.5 98.5q87 0 144.5 -62.5t57.5 -160.5q0 -139 -93 -238t-213 -99q-87 0 -145 63t-58 161zM355 662h-1q89 0 114 100h52
q-13 -59 -57.5 -100t-116.5 -41q-71 0 -99.5 41.5t-16.5 99.5h48q-9 -53 10.5 -76.5t66.5 -23.5z" />
    <glyph glyph-name="Ohungarumlaut" unicode="&#x150;" horiz-adv-x="804" 
d="M848 922l-251 -129h-21l115 129h157zM648 922l-251 -129h-21l115 129h157zM46 271q0 87 33 171.5t90 151t141 107.5t179 41q127 0 208 -75.5t81 -207.5q0 -88 -33 -172.5t-90.5 -151t-142 -107.5t-179.5 -41q-125 0 -206 76t-81 208zM196 245q0 -221 151 -221
q67 0 122.5 46t89 117.5t51.5 149t18 148.5q0 220 -152 220q-67 0 -122.5 -46t-88.5 -117t-51 -148.5t-18 -148.5z" />
    <glyph glyph-name="ohungarumlaut" unicode="&#x151;" horiz-adv-x="566" 
d="M521 772h144l-239 -169h-16zM326 772h144l-239 -169h-16zM401 374q0 137 -76 137q-52 0 -91 -61t-55 -138.5t-16 -151.5q0 -137 77 -137q53 0 91.5 61.5t54 138.5t15.5 151zM28 211q0 139 93.5 237.5t213.5 98.5q87 0 144.5 -62.5t57.5 -160.5q0 -139 -93 -238t-213 -99
q-87 0 -145 63t-58 161z" />
    <glyph glyph-name="OE" unicode="&#x152;" horiz-adv-x="1140" 
d="M695 725h231q157 0 237 3l-35 -239h-20q-3 66 -14 103t-42 60t-77.5 30t-129.5 7h-24l-73 -293h153l86 115h18l-69 -276h-18l-28 117h-153l-68 -274q-6 -27 1 -35t40 -8q137 0 210 40.5t144 162.5h19l-90 -239q-80 1 -243 1h-237l12 49q-89 -62 -194 -62
q-124 0 -204.5 76t-80.5 208q0 117 55 224.5t157.5 177t227.5 69.5q132 0 187 -101zM196 245q0 -221 151 -221q67 0 122.5 46t89 117.5t51.5 149t18 148.5q0 220 -152 220q-67 0 -122.5 -46t-88.5 -117t-51 -148.5t-18 -148.5z" />
    <glyph glyph-name="oe" unicode="&#x153;" horiz-adv-x="841" 
d="M28 209h1q0 139 93 237t214 98q114 0 157 -111q93 111 215 111q50 0 90 -23.5t40 -72.5q0 -106 -177 -147l-144 -33q-10 -46 -10 -90q0 -105 78 -105q46 0 92.5 34t82.5 108l17 -10q-92 -218 -259 -218q-85 0 -115 68q-76 -68 -172 -68q-87 0 -145 62.5t-58 159.5z
M402 372q0 136 -76 136q-40 0 -72.5 -35t-51 -89.5t-28.5 -113t-10 -112.5q0 -135 77 -135q40 0 72 35t50.5 89.5t28.5 112.5t10 112zM678 508v-1q-50 0 -92 -61.5t-63 -148.5l46 10q75 17 113 56.5t38 92.5q0 52 -42 52z" />
    <glyph glyph-name="Racute" unicode="&#x154;" horiz-adv-x="760" 
d="M142 725l-2 -1h135q24 0 78.5 1t66.5 1q290 0 290 -150q0 -86 -62 -137t-159 -73q25 -25 54 -103l59 -157q20 -52 39 -67.5t65 -21.5l-5 -18h-217q-14 62 -46 147l-77 199q-16 0 -45.5 0.5t-33.5 0.5l-50 -200q-22 -76 -10 -98t88 -30l-4 -18h-345l4 18q72 8 91.5 28.5
t39.5 99.5l108 433q8 30 11.5 45t4 31t-3 22.5t-14 13.5t-25 9.5t-39.5 6.5zM399 688h-31l-77 -307h32q114 0 175 45.5t61 151.5q0 57 -39.5 83.5t-120.5 26.5zM668 921l-251 -129h-21l115 129h157z" />
    <glyph glyph-name="racute" unicode="&#x155;" horiz-adv-x="430" 
d="M557 772l-239 -169h-16l111 169h144zM288 547h1l-30 -118q42 51 93.5 84.5t101.5 33.5q12 0 15 -1l-35 -141h-8q-32 27 -85 27q-57 0 -87 -27l-101 -405h-126l88 354q18 70 9.5 88.5t-62.5 20.5l4 17z" />
    <glyph glyph-name="Rcommaaccent" unicode="&#x156;" horiz-adv-x="760" 
d="M339 -178q-26 1 -44.5 18t-18.5 42q0 27 18 45t47 18t45.5 -19t16.5 -52q0 -55 -49.5 -106t-121.5 -79l-5 10q112 62 112 123zM142 725l-2 -1h135q24 0 78.5 1t66.5 1q290 0 290 -150q0 -86 -62 -137t-159 -73q25 -25 54 -103l59 -157q20 -52 39 -67.5t65 -21.5l-5 -18
h-217q-14 62 -46 147l-77 199q-16 0 -45.5 0.5t-33.5 0.5l-50 -200q-22 -76 -10 -98t88 -30l-4 -18h-345l4 18q72 8 91.5 28.5t39.5 99.5l108 433q8 30 11.5 45t4 31t-3 22.5t-14 13.5t-25 9.5t-39.5 6.5zM399 688h-31l-77 -307h32q114 0 175 45.5t61 151.5q0 57 -39.5 83.5
t-120.5 26.5z" />
    <glyph glyph-name="rcommaaccent" unicode="&#x157;" horiz-adv-x="430" 
d="M69 -178q-26 1 -44.5 18t-18.5 42q0 27 18 45t47 18t45.5 -19t16.5 -52q0 -55 -49.5 -106t-121.5 -79l-5 10q112 62 112 123zM288 547h1l-30 -118q42 51 93.5 84.5t101.5 33.5q12 0 15 -1l-35 -141h-8q-32 27 -85 27q-57 0 -87 -27l-101 -405h-126l88 354q18 70 9.5 88.5
t-62.5 20.5l4 17z" />
    <glyph glyph-name="Rcaron" unicode="&#x158;" horiz-adv-x="760" 
d="M142 725l-2 -1h135q24 0 78.5 1t66.5 1q290 0 290 -150q0 -86 -62 -137t-159 -73q25 -25 54 -103l59 -157q20 -52 39 -67.5t65 -21.5l-5 -18h-217q-14 62 -46 147l-77 199q-16 0 -45.5 0.5t-33.5 0.5l-50 -200q-22 -76 -10 -98t88 -30l-4 -18h-345l4 18q72 8 91.5 28.5
t39.5 99.5l108 433q8 30 11.5 45t4 31t-3 22.5t-14 13.5t-25 9.5t-39.5 6.5zM399 688h-31l-77 -307h32q114 0 175 45.5t61 151.5q0 57 -39.5 83.5t-120.5 26.5zM453 792h-16l-111 139h21l113 -59l149 59h23z" />
    <glyph glyph-name="rcaron" unicode="&#x159;" horiz-adv-x="430" 
d="M309 603l-116 169h17l125 -73l168 73h19l-200 -169h-13zM288 547h1l-30 -118q42 51 93.5 84.5t101.5 33.5q12 0 15 -1l-35 -141h-8q-32 27 -85 27q-57 0 -87 -27l-101 -405h-126l88 354q18 70 9.5 88.5t-62.5 20.5l4 17z" />
    <glyph glyph-name="Sacute" unicode="&#x15a;" horiz-adv-x="626" 
d="M547 217l1 1q0 -76 -47.5 -129.5t-117.5 -77t-151 -23.5q-143 0 -234 54l59 244h20q-17 -138 23 -199.5t139 -61.5q74 0 129 31.5t55 99.5q0 64 -98 139l-80 61q-63 47 -95.5 90t-32.5 95q0 88 81.5 145t206.5 57q53 0 116.5 -13t96.5 -33l-51 -209h-20q11 104 -28.5 161
t-122.5 57q-65 0 -111.5 -25t-46.5 -82q0 -62 71 -115l95 -72q37 -29 56 -45t43 -41.5t34 -51.5t10 -57zM645 923l-251 -129h-21l115 129h157z" />
    <glyph glyph-name="sacute" unicode="&#x15b;" horiz-adv-x="485" 
d="M588 772l-239 -169h-16l111 169h144zM394 160l2 -1q0 -80 -72 -126.5t-161 -46.5q-97 0 -160 36l59 206h20q-15 -105 5.5 -155t82.5 -50q42 0 75 23.5t33 64.5t-39 82l-49 51q-26 28 -40 45.5t-27.5 46t-13.5 56.5q0 71 67.5 113t146.5 42q86 0 144 -33l-50 -170h-20
q27 167 -90 167q-37 0 -62.5 -19.5t-25.5 -53.5q0 -29 42 -77l50 -53q44 -46 63.5 -78.5t19.5 -69.5z" />
    <glyph glyph-name="Scircumflex" unicode="&#x15c;" horiz-adv-x="626" 
d="M547 217l1 1q0 -76 -47.5 -129.5t-117.5 -77t-151 -23.5q-143 0 -234 54l59 244h20q-17 -138 23 -199.5t139 -61.5q74 0 129 31.5t55 99.5q0 64 -98 139l-80 61q-63 47 -95.5 90t-32.5 95q0 88 81.5 145t206.5 57q53 0 116.5 -13t96.5 -33l-51 -209h-20q11 104 -28.5 161
t-122.5 57q-65 0 -111.5 -25t-46.5 -82q0 -62 71 -115l95 -72q37 -29 56 -45t43 -41.5t34 -51.5t10 -57zM452 933h16l111 -139h-21l-113 59l-149 -59h-23z" />
    <glyph glyph-name="scircumflex" unicode="&#x15d;" horiz-adv-x="485" 
d="M379 772l116 -169h-17l-125 73l-168 -73h-19l200 169h13zM394 160l2 -1q0 -80 -72 -126.5t-161 -46.5q-97 0 -160 36l59 206h20q-15 -105 5.5 -155t82.5 -50q42 0 75 23.5t33 64.5t-39 82l-49 51q-26 28 -40 45.5t-27.5 46t-13.5 56.5q0 71 67.5 113t146.5 42
q86 0 144 -33l-50 -170h-20q27 167 -90 167q-37 0 -62.5 -19.5t-25.5 -53.5q0 -29 42 -77l50 -53q44 -46 63.5 -78.5t19.5 -69.5z" />
    <glyph glyph-name="Scedilla" unicode="&#x15e;" horiz-adv-x="626" 
d="M108 -119l1 1l90 107q-125 7 -202 53l59 244h20q-17 -138 23 -199.5t139 -61.5q74 0 129 31.5t55 99.5q0 64 -98 139l-80 61q-63 47 -95.5 90t-32.5 95q0 88 81.5 145t206.5 57q53 0 116.5 -13t96.5 -33l-51 -209h-20q11 104 -28.5 161t-122.5 57q-65 0 -111.5 -25
t-46.5 -82q0 -62 71 -115l95 -72q37 -29 56 -45t43 -41.5t34 -51.5t10 -57q0 -75 -47 -128.5t-116 -77t-150 -24.5l-63 -74q24 8 48 8q31 0 51.5 -15.5t20.5 -44.5q0 -45 -41.5 -71.5t-96.5 -26.5q-54 0 -91 25l12 20q24 -12 59 -12q32 0 57 13.5t25 39.5q0 17 -16.5 27
t-39.5 10t-42 -10z" />
    <glyph glyph-name="scedilla" unicode="&#x15f;" horiz-adv-x="485" 
d="M61 -119v-1l90 106q-92 3 -149 36l59 206h20q-15 -105 5.5 -155t82.5 -50q42 0 75 23.5t33 64.5t-39 82l-49 51q-26 28 -40 45.5t-27.5 46t-13.5 56.5q0 71 67.5 113t146.5 42q86 0 144 -33l-50 -170h-20q27 167 -90 167q-37 0 -62.5 -19.5t-25.5 -53.5q0 -29 42 -77
l50 -53q44 -46 63.5 -78.5t19.5 -69.5q0 -74 -61.5 -119.5t-144.5 -52.5l-64 -75q24 8 48 8q31 0 51.5 -15.5t20.5 -44.5q0 -45 -41.5 -71.5t-96.5 -26.5q-54 0 -91 25l12 20q24 -12 59 -12q32 0 57 13.5t25 39.5q0 17 -16.5 27t-39.5 10t-42 -10z" />
    <glyph glyph-name="Scaron" unicode="&#x160;" horiz-adv-x="626" 
d="M547 217l1 1q0 -76 -47.5 -129.5t-117.5 -77t-151 -23.5q-143 0 -234 54l59 244h20q-17 -138 23 -199.5t139 -61.5q74 0 129 31.5t55 99.5q0 64 -98 139l-80 61q-63 47 -95.5 90t-32.5 95q0 88 81.5 145t206.5 57q53 0 116.5 -13t96.5 -33l-51 -209h-20q11 104 -28.5 161
t-122.5 57q-65 0 -111.5 -25t-46.5 -82q0 -62 71 -115l95 -72q37 -29 56 -45t43 -41.5t34 -51.5t10 -57zM439 794h-16l-111 139h21l113 -59l149 59h23z" />
    <glyph glyph-name="scaron" unicode="&#x161;" horiz-adv-x="485" 
d="M342 603l-116 169h17l125 -73l168 73h19l-200 -169h-13zM394 160l2 -1q0 -80 -72 -126.5t-161 -46.5q-97 0 -160 36l59 206h20q-15 -105 5.5 -155t82.5 -50q42 0 75 23.5t33 64.5t-39 82l-49 51q-26 28 -40 45.5t-27.5 46t-13.5 56.5q0 71 67.5 113t146.5 42
q86 0 144 -33l-50 -170h-20q27 167 -90 167q-37 0 -62.5 -19.5t-25.5 -53.5q0 -29 42 -77l50 -53q44 -46 63.5 -78.5t19.5 -69.5z" />
    <glyph glyph-name="uni0162" unicode="&#x162;" horiz-adv-x="695" 
d="M244 -178q-26 1 -44.5 18t-18.5 42q0 27 18 45t47 18t45.5 -19t16.5 -52q0 -55 -49.5 -106t-121.5 -79l-5 10q112 62 112 123zM239 146h2l137 546q-108 0 -170.5 -43t-130.5 -165h-20l85 244q77 -3 238 -3h146q160 0 240 3l-36 -244h-20q-5 67 -12.5 102.5t-29 62t-57 35
t-98.5 8.5l-137 -546q-21 -75 -9 -97.5t87 -30.5l-4 -18h-357l4 18q56 6 81 17.5t36.5 33.5t24.5 77z" />
    <glyph glyph-name="uni0163" unicode="&#x163;" horiz-adv-x="404" 
d="M92 -178q-26 1 -44.5 18t-18.5 42q0 27 18 45t47 18t45.5 -19t16.5 -52q0 -55 -49.5 -106t-121.5 -79l-5 10q112 62 112 123zM61 150l86 344h-87l11 44h87l22 88l147 82l-43 -170h147l-11 -44h-147l-95 -379q-16 -66 16 -66q28 0 64 29.5t65 76.5l15 -11
q-40 -76 -95.5 -116.5t-106.5 -40.5q-115 0 -75 163z" />
    <glyph glyph-name="Tcaron" unicode="&#x164;" horiz-adv-x="695" 
d="M239 146h2l137 546q-108 0 -170.5 -43t-130.5 -165h-20l85 244q77 -3 238 -3h146q160 0 240 3l-36 -244h-20q-5 67 -12.5 102.5t-29 62t-57 35t-98.5 8.5l-137 -546q-21 -75 -9 -97.5t87 -30.5l-4 -18h-357l4 18q56 6 81 17.5t36.5 33.5t24.5 77zM472 793h-16l-111 139
h21l113 -59l149 59h23z" />
    <glyph glyph-name="tcaron" unicode="&#x165;" horiz-adv-x="564" 
d="M565 649q-26 1 -44.5 18t-18.5 42q0 27 18 45t47 18t45.5 -19t16.5 -52q0 -55 -49.5 -106t-121.5 -79l-5 10q112 62 112 123zM62 150l86 344h-87l11 44h87l22 88l147 82l-43 -170h147l-11 -44h-147l-95 -379q-16 -66 16 -66q28 0 64 29.5t65 76.5l15 -11
q-40 -76 -95.5 -116.5t-106.5 -40.5q-115 0 -75 163z" />
    <glyph glyph-name="Tbar" unicode="&#x166;" horiz-adv-x="695" 
d="M239 146h2l51 206h-119l12 44h118l75 296q-108 0 -170.5 -43t-130.5 -165h-20l85 244q77 -3 238 -3h146q160 0 240 3l-36 -244h-20q-5 67 -12.5 102.5t-29 62t-57 35t-98.5 8.5l-75 -296h127l-12 -44h-126l-51 -206q-21 -75 -9 -97.5t87 -30.5l-4 -18h-357l4 18
q56 6 81 17.5t36.5 33.5t24.5 77z" />
    <glyph glyph-name="tbar" unicode="&#x167;" horiz-adv-x="406" 
d="M62 150l46 186h-80l11 44h80l29 114h-87l11 44h87l22 88l147 82l-43 -170h147l-11 -44h-147l-29 -114h153l-11 -44h-153l-55 -221q-16 -66 16 -66q28 0 64 29.5t65 76.5l15 -11q-40 -76 -95.5 -116.5t-106.5 -40.5q-115 0 -75 163z" />
    <glyph glyph-name="Utilde" unicode="&#x168;" horiz-adv-x="799" 
d="M758 579h-2l-69 -280q-41 -161 -128 -236.5t-224 -75.5q-297 0 -225 288l75 303q22 78 13 99t-78 30l4 18h335l-4 -18q-41 -5 -59.5 -9.5t-33.5 -21t-20.5 -34t-17.5 -64.5l-72 -289q-32 -121 -2.5 -183t129.5 -62q198 0 261 253l70 282q8 30 11.5 45t4 31t-3 22.5
t-14 13.5t-25 9.5t-39.5 6.5l4 18h245l-4 -18q-74 -10 -93.5 -29.5t-37.5 -98.5zM658 864h2q51 0 61 50h16q0 -53 -24 -90t-69 -37q-34 0 -83.5 30.5t-79.5 30.5q-53 0 -63 -50h-16q0 53 24 90t69 37q33 0 83.5 -30.5t79.5 -30.5z" />
    <glyph glyph-name="utilde" unicode="&#x169;" horiz-adv-x="616" 
d="M60 188v-1l49 166q20 70 10.5 89t-63.5 21l4 17l230 67l-100 -355q-37 -127 6 -127q42 0 108.5 125.5t98.5 251.5l23 92h123l-105 -419q-16 -66 16 -66q28 0 64 29.5t65 76.5l15 -11q-40 -76 -95.5 -116.5t-106.5 -40.5q-54 0 -70.5 39t1.5 124l16 77
q-56 -122 -104.5 -181t-106.5 -59t-81 49.5t3 151.5zM247 634h1h-19q0 53 24 94.5t70 41.5q29 0 79 -31.5t71 -31.5q27 0 40 14t15 46h19q0 -131 -86 -131q-35 0 -84 31.5t-74 31.5q-24 0 -39 -17t-17 -48z" />
    <glyph glyph-name="Umacron" unicode="&#x16a;" horiz-adv-x="799" 
d="M758 579h-2l-69 -280q-41 -161 -128 -236.5t-224 -75.5q-297 0 -225 288l75 303q22 78 13 99t-78 30l4 18h335l-4 -18q-41 -5 -59.5 -9.5t-33.5 -21t-20.5 -34t-17.5 -64.5l-72 -289q-32 -121 -2.5 -183t129.5 -62q198 0 261 253l70 282q8 30 11.5 45t4 31t-3 22.5
t-14 13.5t-25 9.5t-39.5 6.5l4 18h245l-4 -18q-74 -10 -93.5 -29.5t-37.5 -98.5zM712 818h-296l16 68h296z" />
    <glyph glyph-name="umacron" unicode="&#x16b;" horiz-adv-x="616" 
d="M60 188v-1l49 166q20 70 10.5 89t-63.5 21l4 17l230 67l-100 -355q-37 -127 6 -127q42 0 108.5 125.5t98.5 251.5l23 92h123l-105 -419q-16 -66 16 -66q28 0 64 29.5t65 76.5l15 -11q-40 -76 -95.5 -116.5t-106.5 -40.5q-54 0 -70.5 39t1.5 124l16 77
q-56 -122 -104.5 -181t-106.5 -59t-81 49.5t3 151.5zM525 664h-296l16 68h296z" />
    <glyph glyph-name="Ubreve" unicode="&#x16c;" horiz-adv-x="799" 
d="M758 579h-2l-69 -280q-41 -161 -128 -236.5t-224 -75.5q-297 0 -225 288l75 303q22 78 13 99t-78 30l4 18h335l-4 -18q-41 -5 -59.5 -9.5t-33.5 -21t-20.5 -34t-17.5 -64.5l-72 -289q-32 -121 -2.5 -183t129.5 -62q198 0 261 253l70 282q8 30 11.5 45t4 31t-3 22.5
t-14 13.5t-25 9.5t-39.5 6.5l4 18h245l-4 -18q-74 -10 -93.5 -29.5t-37.5 -98.5zM561 787q-66 0 -95 39t-18 93h47q-11 -47 8 -70t62 -23q82 0 105 93h48q-11 -55 -50.5 -93.5t-106.5 -38.5z" />
    <glyph glyph-name="ubreve" unicode="&#x16d;" horiz-adv-x="616" 
d="M60 188v-1l49 166q20 70 10.5 89t-63.5 21l4 17l230 67l-100 -355q-37 -127 6 -127q42 0 108.5 125.5t98.5 251.5l23 92h123l-105 -419q-16 -66 16 -66q28 0 64 29.5t65 76.5l15 -11q-40 -76 -95.5 -116.5t-106.5 -40.5q-54 0 -70.5 39t1.5 124l16 77
q-56 -122 -104.5 -181t-106.5 -59t-81 49.5t3 151.5zM385 661h-1q89 0 114 100h52q-13 -59 -57.5 -100t-116.5 -41q-71 0 -99.5 41.5t-16.5 99.5h48q-9 -53 10.5 -76.5t66.5 -23.5z" />
    <glyph glyph-name="Uring" unicode="&#x16e;" horiz-adv-x="799" 
d="M477 892q0 40 27 67t66 27t66.5 -27t27.5 -67q0 -38 -27.5 -65.5t-66.5 -27.5t-66 27.5t-27 65.5zM516 892q0 -25 15 -40t39 -15t39 15.5t15 39.5q0 25 -15.5 41t-38.5 16q-24 0 -39 -16t-15 -41zM758 579h-2l-69 -280q-41 -161 -128 -236.5t-224 -75.5q-297 0 -225 288
l75 303q22 78 13 99t-78 30l4 18h335l-4 -18q-41 -5 -59.5 -9.5t-33.5 -21t-20.5 -34t-17.5 -64.5l-72 -289q-32 -121 -2.5 -183t129.5 -62q198 0 261 253l70 282q8 30 11.5 45t4 31t-3 22.5t-14 13.5t-25 9.5t-39.5 6.5l4 18h245l-4 -18q-74 -10 -93.5 -29.5t-37.5 -98.5z
" />
    <glyph glyph-name="uring" unicode="&#x16f;" horiz-adv-x="616" 
d="M289 702q0 40 27 67t66 27t66.5 -27t27.5 -67q0 -38 -27.5 -65.5t-66.5 -27.5t-66 27.5t-27 65.5zM328 702q0 -25 15 -40t39 -15t39 15.5t15 39.5q0 25 -15.5 41t-38.5 16q-24 0 -39 -16t-15 -41zM60 188v-1l49 166q20 70 10.5 89t-63.5 21l4 17l230 67l-100 -355
q-37 -127 6 -127q42 0 108.5 125.5t98.5 251.5l23 92h123l-105 -419q-16 -66 16 -66q28 0 64 29.5t65 76.5l15 -11q-40 -76 -95.5 -116.5t-106.5 -40.5q-54 0 -70.5 39t1.5 124l16 77q-56 -122 -104.5 -181t-106.5 -59t-81 49.5t3 151.5z" />
    <glyph glyph-name="Uhungarumlaut" unicode="&#x170;" horiz-adv-x="799" 
d="M890 922l-251 -129h-21l115 129h157zM690 922l-251 -129h-21l115 129h157zM758 579h-2l-69 -280q-41 -161 -128 -236.5t-224 -75.5q-297 0 -225 288l75 303q22 78 13 99t-78 30l4 18h335l-4 -18q-41 -5 -59.5 -9.5t-33.5 -21t-20.5 -34t-17.5 -64.5l-72 -289
q-32 -121 -2.5 -183t129.5 -62q198 0 261 253l70 282q8 30 11.5 45t4 31t-3 22.5t-14 13.5t-25 9.5t-39.5 6.5l4 18h245l-4 -18q-74 -10 -93.5 -29.5t-37.5 -98.5z" />
    <glyph glyph-name="uhungarumlaut" unicode="&#x171;" horiz-adv-x="616" 
d="M558 772h144l-239 -169h-16zM363 772h144l-239 -169h-16zM60 188v-1l49 166q20 70 10.5 89t-63.5 21l4 17l230 67l-100 -355q-37 -127 6 -127q42 0 108.5 125.5t98.5 251.5l23 92h123l-105 -419q-16 -66 16 -66q28 0 64 29.5t65 76.5l15 -11q-40 -76 -95.5 -116.5
t-106.5 -40.5q-54 0 -70.5 39t1.5 124l16 77q-56 -122 -104.5 -181t-106.5 -59t-81 49.5t3 151.5z" />
    <glyph glyph-name="Uogonek" unicode="&#x172;" horiz-adv-x="799" 
d="M758 579l-1 -1l-69 -280q-40 -158 -125 -233.5t-217 -78.5q-59 -54 -59 -109q0 -28 16 -44.5t42 -16.5t51 13l5 -10q-52 -44 -110 -44q-37 0 -63.5 19.5t-26.5 57.5q0 66 113 135q-273 10 -204 288l75 303q22 78 13 99t-78 30l4 18h335l-4 -18q-41 -5 -59.5 -9.5
t-33.5 -21t-20.5 -34t-17.5 -64.5l-72 -289q-32 -121 -2.5 -183t129.5 -62q198 0 261 253l70 282q8 30 11.5 45t4 31t-3 22.5t-14 13.5t-25 9.5t-39.5 6.5l4 18h245l-4 -18q-74 -10 -93.5 -29.5t-37.5 -98.5z" />
    <glyph glyph-name="uogonek" unicode="&#x173;" horiz-adv-x="616" 
d="M60 188h1l49 166q20 70 10.5 89t-63.5 21l4 17l230 67l-100 -355q-37 -127 6 -127q42 0 108.5 125.5t98.5 251.5l23 92h123l-105 -419q-16 -66 16 -66q28 0 64 29.5t65 76.5l15 -11q-40 -76 -95.5 -116.5t-106.5 -40.5h-3q-59 -54 -59 -109q0 -28 16 -44.5t42 -16.5
t51 13l5 -10q-52 -44 -110 -44q-37 0 -63.5 19.5t-26.5 57.5q0 67 119 137q-69 18 -41 159l16 77q-56 -122 -104.5 -181t-106.5 -59t-81 49.5t3 151.5z" />
    <glyph glyph-name="Wcircumflex" unicode="&#x174;" horiz-adv-x="1043" 
d="M664 932h16l111 -139h-21l-113 59l-149 -59h-23zM1143 725l-1 1l-3 -18q-30 -3 -46 -8.5t-37 -22.5t-42 -49.5t-51 -89.5l-286 -545h-81l-33 491l-254 -491h-82l-42 617q-4 57 -17 74t-58 23l3 18h298l-4 -18q-51 -6 -68 -21t-15 -55l25 -463l206 401l-2 49q-4 55 -16 69
t-59 20l4 18h297l-3 -18q-54 -6 -70 -18t-14 -49l25 -472l178 343q25 48 40.5 79.5t21 53.5t7 33t-9.5 17.5t-19 8t-31 4.5l4 18h235z" />
    <glyph glyph-name="wcircumflex" unicode="&#x175;" horiz-adv-x="801" 
d="M524 772l116 -169h-17l-125 73l-168 -73h-19l200 169h13zM428 -8h1l-22 394l-202 -394h-72l-33 468q-2 33 -10 42t-37 18l3 18h250l-4 -18q-49 -6 -60.5 -18.5t-11.5 -53.5l13 -302l197 392h79l20 -392l140 250q19 34 27.5 51t14 32t0 21.5t-15 11t-29.5 8.5l4 18h177
l-4 -18q-42 -8 -59 -22t-49 -68l-250 -438h-67z" />
    <glyph glyph-name="Ycircumflex" unicode="&#x176;" horiz-adv-x="715" 
d="M409 292h1l-36 -146q-21 -75 -9 -97.5t87 -30.5l-4 -18h-357l4 18q56 6 81 17.5t36.5 33.5t24.5 77l35 139l-93 329q-16 54 -29.5 70.5t-46.5 22.5l4 18h295l-4 -18q-51 -6 -70 -22t-10 -50l79 -295l184 223q35 42 52 69t16.5 42.5t-13.5 22.5t-41 10l4 18h223l-4 -18
q-43 -6 -75 -29.5t-93 -95.5zM525 932h16l111 -139h-21l-113 59l-149 -59h-23z" />
    <glyph glyph-name="ycircumflex" unicode="&#x177;" horiz-adv-x="566" 
d="M510 428v1l-285 -464q-65 -107 -121.5 -146t-120.5 -39q-35 0 -68 9l31 124h7q31 -28 89 -28q43 0 73.5 15.5t53.5 55.5l19 30l-83 475q-4 31 -11.5 41.5t-37.5 18.5l4 18h255l-5 -18q-52 -8 -63 -19t-7 -53l46 -307l156 255q26 43 34 65t-1.5 37t-42.5 21l3 18h188
l-4 -18q-44 -12 -60 -25.5t-49 -66.5zM412 773l116 -169h-17l-125 73l-168 -73h-19l200 169h13z" />
    <glyph glyph-name="Ydieresis" unicode="&#x178;" horiz-adv-x="715" 
d="M409 292h1l-36 -146q-21 -75 -9 -97.5t87 -30.5l-4 -18h-357l4 18q56 6 81 17.5t36.5 33.5t24.5 77l35 139l-93 329q-16 54 -29.5 70.5t-46.5 22.5l4 18h295l-4 -18q-51 -6 -70 -22t-10 -50l79 -295l184 223q35 42 52 69t16.5 42.5t-13.5 22.5t-41 10l4 18h223l-4 -18
q-43 -6 -75 -29.5t-93 -95.5zM557 865q0 29 20 48t49 19q28 0 47.5 -19t19.5 -48q0 -30 -19.5 -49.5t-47.5 -19.5q-29 0 -49 19.5t-20 49.5zM334 865q0 29 19.5 48t48.5 19q28 0 47.5 -19t19.5 -48q0 -30 -19.5 -49.5t-47.5 -19.5q-29 0 -48.5 19.5t-19.5 49.5z" />
    <glyph glyph-name="Zacute" unicode="&#x179;" horiz-adv-x="688" 
d="M150 36h83q147 0 218 38t140 162h20l-84 -239q-76 3 -230 3h-329l2 12l582 677h-44q-151 0 -219.5 -37.5t-138.5 -162.5h-19l84 239q76 -3 229 -3h295l-2 -11zM699 922l-251 -129h-21l115 129h157z" />
    <glyph glyph-name="zacute" unicode="&#x17a;" horiz-adv-x="569" 
d="M617 772l-239 -169h-16l111 169h144zM249 0h-265l2 9l412 484h-53q-90 0 -137.5 -33.5t-85.5 -126.5h-21l70 207q40 -2 172 -2h230l-3 -10l-410 -483h87q90 0 137.5 33.5t85.5 126.5h21l-70 -207q-39 2 -172 2z" />
    <glyph glyph-name="Zdotaccent" unicode="&#x17b;" horiz-adv-x="688" 
d="M432 865q0 29 19.5 48t48.5 19t48 -19t19 -48q0 -30 -19 -49.5t-48 -19.5t-48.5 19.5t-19.5 49.5zM150 36h83q147 0 218 38t140 162h20l-84 -239q-76 3 -230 3h-329l2 12l582 677h-44q-151 0 -219.5 -37.5t-138.5 -162.5h-19l84 239q76 -3 229 -3h295l-2 -11z" />
    <glyph glyph-name="zdotaccent" unicode="&#x17c;" horiz-adv-x="569" 
d="M249 0h-265l2 9l412 484h-53q-90 0 -137.5 -33.5t-85.5 -126.5h-21l70 207q40 -2 172 -2h230l-3 -10l-410 -483h87q90 0 137.5 33.5t85.5 126.5h21l-70 -207q-39 2 -172 2zM351 705q0 29 19.5 48t48.5 19t48 -19t19 -48q0 -30 -19 -49.5t-48 -19.5t-48.5 19.5t-19.5 49.5
z" />
    <glyph glyph-name="Zcaron" unicode="&#x17d;" horiz-adv-x="688" 
d="M150 36h83q147 0 218 38t140 162h20l-84 -239q-76 3 -230 3h-329l2 12l582 677h-44q-151 0 -219.5 -37.5t-138.5 -162.5h-19l84 239q76 -3 229 -3h295l-2 -11zM520 793h-16l-111 139h21l113 -59l149 59h23z" />
    <glyph glyph-name="zcaron" unicode="&#x17e;" horiz-adv-x="569" 
d="M406 603l-116 169h17l125 -73l168 73h19l-200 -169h-13zM249 0h-265l2 9l412 484h-53q-90 0 -137.5 -33.5t-85.5 -126.5h-21l70 207q40 -2 172 -2h230l-3 -10l-410 -483h87q90 0 137.5 33.5t85.5 126.5h21l-70 -207q-39 2 -172 2z" />
    <glyph glyph-name="uni018F" unicode="&#x18f;" horiz-adv-x="761" 
d="M446 742q127 0 207.5 -75.5t80.5 -207.5q0 -118 -54.5 -225.5t-157.5 -177t-230 -69.5q-116 0 -181.5 64t-65.5 170q0 53 20 121h509q11 61 11 106q0 92 -52 144.5t-147 52.5q-165 0 -237 -131l-19 9q43 92 123 155.5t193 63.5zM303 24q95 0 161.5 79t98.5 195h-360
q-21 -52 -21 -114q0 -68 29.5 -114t91.5 -46z" />
    <glyph glyph-name="Scommaaccent" unicode="&#x218;" horiz-adv-x="626" 
d="M209 -178q-26 1 -44.5 18t-18.5 42q0 27 18 45t47 18t45.5 -19t16.5 -52q0 -55 -49.5 -106t-121.5 -79l-5 10q112 62 112 123zM547 217l1 1q0 -76 -47.5 -129.5t-117.5 -77t-151 -23.5q-143 0 -234 54l59 244h20q-17 -138 23 -199.5t139 -61.5q74 0 129 31.5t55 99.5
q0 64 -98 139l-80 61q-63 47 -95.5 90t-32.5 95q0 88 81.5 145t206.5 57q53 0 116.5 -13t96.5 -33l-51 -209h-20q11 104 -28.5 161t-122.5 57q-65 0 -111.5 -25t-46.5 -82q0 -62 71 -115l95 -72q37 -29 56 -45t43 -41.5t34 -51.5t10 -57z" />
    <glyph glyph-name="scommaaccent" unicode="&#x219;" horiz-adv-x="485" 
d="M131 -178q-26 1 -44.5 18t-18.5 42q0 27 18 45t47 18t45.5 -19t16.5 -52q0 -55 -49.5 -106t-121.5 -79l-5 10q112 62 112 123zM394 160l2 -1q0 -80 -72 -126.5t-161 -46.5q-97 0 -160 36l59 206h20q-15 -105 5.5 -155t82.5 -50q42 0 75 23.5t33 64.5t-39 82l-49 51
q-26 28 -40 45.5t-27.5 46t-13.5 56.5q0 71 67.5 113t146.5 42q86 0 144 -33l-50 -170h-20q27 167 -90 167q-37 0 -62.5 -19.5t-25.5 -53.5q0 -29 42 -77l50 -53q44 -46 63.5 -78.5t19.5 -69.5z" />
    <glyph glyph-name="Tcommaaccent" unicode="&#x21a;" horiz-adv-x="695" 
d="M244 -178q-26 1 -44.5 18t-18.5 42q0 27 18 45t47 18t45.5 -19t16.5 -52q0 -55 -49.5 -106t-121.5 -79l-5 10q112 62 112 123zM239 146h2l137 546q-108 0 -170.5 -43t-130.5 -165h-20l85 244q77 -3 238 -3h146q160 0 240 3l-36 -244h-20q-5 67 -12.5 102.5t-29 62t-57 35
t-98.5 8.5l-137 -546q-21 -75 -9 -97.5t87 -30.5l-4 -18h-357l4 18q56 6 81 17.5t36.5 33.5t24.5 77z" />
    <glyph glyph-name="tcommaaccent" unicode="&#x21b;" horiz-adv-x="404" 
d="M92 -178q-26 1 -44.5 18t-18.5 42q0 27 18 45t47 18t45.5 -19t16.5 -52q0 -55 -49.5 -106t-121.5 -79l-5 10q112 62 112 123zM61 150l86 344h-87l11 44h87l22 88l147 82l-43 -170h147l-11 -44h-147l-95 -379q-16 -66 16 -66q28 0 64 29.5t65 76.5l15 -11
q-40 -76 -95.5 -116.5t-106.5 -40.5q-115 0 -75 163z" />
    <glyph glyph-name="uni0232" unicode="&#x232;" horiz-adv-x="715" 
d="M409 292h1l-36 -146q-21 -75 -9 -97.5t87 -30.5l-4 -18h-357l4 18q56 6 81 17.5t36.5 33.5t24.5 77l35 139l-93 329q-16 54 -29.5 70.5t-46.5 22.5l4 18h295l-4 -18q-51 -6 -70 -22t-10 -50l79 -295l184 223q35 42 52 69t16.5 42.5t-13.5 22.5t-41 10l4 18h223l-4 -18
q-43 -6 -75 -29.5t-93 -95.5zM669 818h-296l16 68h296z" />
    <glyph glyph-name="uni0233" unicode="&#x233;" horiz-adv-x="566" 
d="M510 428v1l-285 -464q-65 -107 -121.5 -146t-120.5 -39q-35 0 -68 9l31 124h7q31 -28 89 -28q43 0 73.5 15.5t53.5 55.5l19 30l-83 475q-4 31 -11.5 41.5t-37.5 18.5l4 18h255l-5 -18q-52 -8 -63 -19t-7 -53l46 -307l156 255q26 43 34 65t-1.5 37t-42.5 21l3 18h188
l-4 -18q-44 -12 -60 -25.5t-49 -66.5zM531 666h-296l16 68h296z" />
    <glyph glyph-name="dotlessj" unicode="&#x237;" horiz-adv-x="331" 
d="M72 83v-1l68 271q18 70 9.5 88.5t-62.5 20.5l4 17l226 67q-31 -108 -58 -221l-56 -227q-30 -124 -98 -199.5t-205 -137.5l-5 12q76 64 114 136t63 174z" />
    <glyph glyph-name="uni0259" unicode="&#x259;" horiz-adv-x="500" 
d="M471 382h1q0 -97 -47 -188.5t-125.5 -149t-164.5 -57.5q-51 0 -91 23.5t-40 72.5q0 109 178 148l145 32q10 46 10 91q0 106 -78 106q-47 0 -95.5 -34.5t-82.5 -107.5l-18 9q94 220 261 220q71 0 109 -44t38 -121zM165 24q50 0 92 61.5t63 148.5l-46 -10
q-75 -17 -113.5 -56.5t-38.5 -92.5q0 -51 43 -51z" />
    <glyph glyph-name="circumflex" unicode="&#x2c6;" horiz-adv-x="373" 
d="M214 772l116 -169h-17l-125 73l-168 -73h-19l200 169h13z" />
    <glyph glyph-name="caron" unicode="&#x2c7;" horiz-adv-x="373" 
d="M163 603l-116 169h17l125 -73l168 73h19l-200 -169h-13z" />
    <glyph glyph-name="breve" unicode="&#x2d8;" horiz-adv-x="335" 
d="M173 662h-1q89 0 114 100h52q-13 -59 -57.5 -100t-116.5 -41q-71 0 -99.5 41.5t-16.5 99.5h48q-9 -53 10.5 -76.5t66.5 -23.5z" />
    <glyph glyph-name="dotaccent" unicode="&#x2d9;" horiz-adv-x="179" 
d="M22 705q0 29 19.5 48t48.5 19t48 -19t19 -48q0 -30 -19 -49.5t-48 -19.5t-48.5 19.5t-19.5 49.5z" />
    <glyph glyph-name="ring" unicode="&#x2da;" horiz-adv-x="227" 
d="M20 702q0 40 27 67t66 27t66.5 -27t27.5 -67q0 -38 -27.5 -65.5t-66.5 -27.5t-66 27.5t-27 65.5zM59 702q0 -25 15 -40t39 -15q23 0 38.5 15.5t15.5 39.5q0 25 -15.5 41t-38.5 16q-24 0 -39 -16t-15 -41z" />
    <glyph glyph-name="ogonek" unicode="&#x2db;" horiz-adv-x="248" 
d="M217 -170h1l5 -10q-52 -44 -110 -44q-37 0 -63.5 19t-26.5 58q0 78 155 157h20q-37 -23 -63.5 -59.5t-26.5 -72.5q0 -28 16 -44.5t42 -16.5t51 13z" />
    <glyph glyph-name="tilde" unicode="&#x2dc;" horiz-adv-x="374" 
d="M46 635h1h-19q0 53 24 94.5t70 41.5q30 0 80 -31.5t70 -31.5q27 0 40 14t15 46h19q0 -131 -86 -131q-35 0 -84 31.5t-74 31.5q-24 0 -39 -17t-17 -48z" />
    <glyph glyph-name="hungarumlaut" unicode="&#x2dd;" horiz-adv-x="458" 
d="M312 772h144l-239 -169h-16zM117 772h144l-239 -169h-16z" />
    <glyph glyph-name="uni032C" unicode="&#x32c;" horiz-adv-x="373" 
d="M180 -179h-23l-108 179h19l120 -83l170 83h19z" />
    <glyph glyph-name="Delta" unicode="&#x394;" horiz-adv-x="717" 
d="M7 0l354 725l352 -725h-706zM599 70l-238 497l-239 -497h477z" />
    <glyph glyph-name="Delta" unicode="&#x2206;" horiz-adv-x="717" 
d="M7 0l354 725l352 -725h-706zM599 70l-238 497l-239 -497h477z" />
    <glyph glyph-name="Omega" unicode="&#x3a9;" horiz-adv-x="795" 
d="M217 71v1l14 67q-71 27 -120.5 97.5t-49.5 172.5q0 151 106.5 240.5t261.5 89.5q149 0 248 -83t99 -219q0 -118 -73 -203.5t-177 -108.5l-12 -53h194l-15 -71h-271l36 177q109 12 174.5 83t65.5 175q0 113 -79.5 175.5t-191.5 62.5q-132 0 -209 -73t-77 -189
q0 -87 46.5 -149.5t131.5 -80.5l-37 -182h-268l14 71h189z" />
    <glyph glyph-name="Omega" unicode="&#x2126;" horiz-adv-x="795" 
d="M217 71v1l14 67q-71 27 -120.5 97.5t-49.5 172.5q0 151 106.5 240.5t261.5 89.5q149 0 248 -83t99 -219q0 -118 -73 -203.5t-177 -108.5l-12 -53h194l-15 -71h-271l36 177q109 12 174.5 83t65.5 175q0 113 -79.5 175.5t-191.5 62.5q-132 0 -209 -73t-77 -189
q0 -87 46.5 -149.5t131.5 -80.5l-37 -182h-268l14 71h189z" />
    <glyph glyph-name="pi" unicode="&#x3c0;" horiz-adv-x="631" 
d="M111 0v-1h-74l116 465h-76l18 70h577l-17 -70h-76l-80 -321q-11 -39 -11 -53q0 -15 11.5 -20t43.5 -5h14l-17 -66h-33q-55 0 -76 13t-21 48q0 23 11 72l83 333h-277z" />
    <glyph glyph-name="Wgrave" unicode="&#x1e80;" horiz-adv-x="1043" 
d="M467 922h157l51 -129h-17zM1143 725l-1 1l-3 -18q-30 -3 -46 -8.5t-37 -22.5t-42 -49.5t-51 -89.5l-286 -545h-81l-33 491l-254 -491h-82l-42 617q-4 57 -17 74t-58 23l3 18h298l-4 -18q-51 -6 -68 -21t-15 -55l25 -463l206 401l-2 49q-4 55 -16 69t-59 20l4 18h297
l-3 -18q-54 -6 -70 -18t-14 -49l25 -472l178 343q25 48 40.5 79.5t21 53.5t7 33t-9.5 17.5t-19 8t-31 4.5l4 18h235z" />
    <glyph glyph-name="wgrave" unicode="&#x1e81;" horiz-adv-x="801" 
d="M428 -8h1l-22 394l-202 -394h-72l-33 468q-2 33 -10 42t-37 18l3 18h250l-4 -18q-49 -6 -60.5 -18.5t-11.5 -53.5l13 -302l197 392h79l20 -392l140 250q19 34 27.5 51t14 32t0 21.5t-15 11t-29.5 8.5l4 18h177l-4 -18q-42 -8 -59 -22t-49 -68l-250 -438h-67zM343 772h144
l27 -169h-16z" />
    <glyph glyph-name="Wacute" unicode="&#x1e82;" horiz-adv-x="1043" 
d="M877 922l-251 -129h-21l115 129h157zM1143 725l-1 1l-3 -18q-30 -3 -46 -8.5t-37 -22.5t-42 -49.5t-51 -89.5l-286 -545h-81l-33 491l-254 -491h-82l-42 617q-4 57 -17 74t-58 23l3 18h298l-4 -18q-51 -6 -68 -21t-15 -55l25 -463l206 401l-2 49q-4 55 -16 69t-59 20
l4 18h297l-3 -18q-54 -6 -70 -18t-14 -49l25 -472l178 343q25 48 40.5 79.5t21 53.5t7 33t-9.5 17.5t-19 8t-31 4.5l4 18h235z" />
    <glyph glyph-name="wacute" unicode="&#x1e83;" horiz-adv-x="801" 
d="M713 772l-239 -169h-16l111 169h144zM428 -8h1l-22 394l-202 -394h-72l-33 468q-2 33 -10 42t-37 18l3 18h250l-4 -18q-49 -6 -60.5 -18.5t-11.5 -53.5l13 -302l197 392h79l20 -392l140 250q19 34 27.5 51t14 32t0 21.5t-15 11t-29.5 8.5l4 18h177l-4 -18q-42 -8 -59 -22
t-49 -68l-250 -438h-67z" />
    <glyph glyph-name="Wdieresis" unicode="&#x1e84;" horiz-adv-x="1043" 
d="M1143 725l-1 1l-3 -18q-30 -3 -46 -8.5t-37 -22.5t-42 -49.5t-51 -89.5l-286 -545h-81l-33 491l-254 -491h-82l-42 617q-4 57 -17 74t-58 23l3 18h298l-4 -18q-51 -6 -68 -21t-15 -55l25 -463l206 401l-2 49q-4 55 -16 69t-59 20l4 18h297l-3 -18q-54 -6 -70 -18t-14 -49
l25 -472l178 343q25 48 40.5 79.5t21 53.5t7 33t-9.5 17.5t-19 8t-31 4.5l4 18h235zM684 866q0 29 20 48t49 19q28 0 47.5 -19t19.5 -48q0 -30 -19.5 -49.5t-47.5 -19.5q-29 0 -49 19.5t-20 49.5zM461 866q0 29 19.5 48t48.5 19q28 0 47.5 -19t19.5 -48q0 -30 -19.5 -49.5
t-47.5 -19.5q-29 0 -48.5 19.5t-19.5 49.5z" />
    <glyph glyph-name="wdieresis" unicode="&#x1e85;" horiz-adv-x="801" 
d="M312 705q0 29 19.5 48t48.5 19q28 0 47.5 -19t19.5 -48q0 -30 -19.5 -49.5t-47.5 -19.5q-29 0 -48.5 19.5t-19.5 49.5zM535 705q0 29 20 48t49 19q28 0 47.5 -19t19.5 -48q0 -30 -19.5 -49.5t-47.5 -19.5q-29 0 -49 19.5t-20 49.5zM428 -8h1l-22 394l-202 -394h-72
l-33 468q-2 33 -10 42t-37 18l3 18h250l-4 -18q-49 -6 -60.5 -18.5t-11.5 -53.5l13 -302l197 392h79l20 -392l140 250q19 34 27.5 51t14 32t0 21.5t-15 11t-29.5 8.5l4 18h177l-4 -18q-42 -8 -59 -22t-49 -68l-250 -438h-67z" />
    <glyph glyph-name="uni1ECA" unicode="&#x1eca;" horiz-adv-x="413" 
d="M341 579h-2l-108 -433q-21 -76 -11 -98t79 -30l-4 -18h-335l4 18q72 8 91.5 28.5t39.5 99.5l108 433q8 30 11.5 45t4 31t-3 22.5t-14 13.5t-25 9.5t-39.5 6.5l4 18h335l-4 -18q-74 -9 -92 -28t-39 -100zM22 -155q0 29 19.5 48t48.5 19t48 -19t19 -48q0 -30 -19 -49.5
t-48 -19.5t-48.5 19.5t-19.5 49.5z" />
    <glyph glyph-name="uni1ECB" unicode="&#x1ecb;" horiz-adv-x="340" 
d="M56 150h1l51 204q18 70 9.5 88.5t-62.5 20.5l4 17l226 67q-14 -51 -59 -221l-53 -211q-16 -66 16 -66q28 0 64 29.5t65 76.5l15 -11q-40 -76 -95.5 -116.5t-106.5 -40.5q-115 0 -75 163zM249 636q-34 0 -58 23.5t-24 57.5q0 33 24 56t58 23q35 0 58.5 -23t23.5 -56
q0 -34 -23.5 -57.5t-58.5 -23.5zM6 -155q0 29 19.5 48t48.5 19t48 -19t19 -48q0 -30 -19 -49.5t-48 -19.5t-48.5 19.5t-19.5 49.5z" />
    <glyph glyph-name="uni1ECC" unicode="&#x1ecc;" horiz-adv-x="804" 
d="M199 -155q0 29 19.5 48t48.5 19t48 -19t19 -48q0 -30 -19 -49.5t-48 -19.5t-48.5 19.5t-19.5 49.5zM46 271q0 87 33 171.5t90 151t141 107.5t179 41q127 0 208 -75.5t81 -207.5q0 -88 -33 -172.5t-90.5 -151t-142 -107.5t-179.5 -41q-125 0 -206 76t-81 208zM196 245
q0 -221 151 -221q67 0 122.5 46t89 117.5t51.5 149t18 148.5q0 220 -152 220q-67 0 -122.5 -46t-88.5 -117t-51 -148.5t-18 -148.5z" />
    <glyph glyph-name="uni1ECD" unicode="&#x1ecd;" horiz-adv-x="566" 
d="M109 -155q0 29 19.5 48t48.5 19t48 -19t19 -48q0 -30 -19 -49.5t-48 -19.5t-48.5 19.5t-19.5 49.5zM401 374q0 137 -76 137q-52 0 -91 -61t-55 -138.5t-16 -151.5q0 -137 77 -137q53 0 91.5 61.5t54 138.5t15.5 151zM28 211q0 139 93.5 237.5t213.5 98.5
q87 0 144.5 -62.5t57.5 -160.5q0 -139 -93 -238t-213 -99q-87 0 -145 63t-58 161z" />
    <glyph glyph-name="uni1EE4" unicode="&#x1ee4;" horiz-adv-x="799" 
d="M758 579h-2l-69 -280q-41 -161 -128 -236.5t-224 -75.5q-297 0 -225 288l75 303q22 78 13 99t-78 30l4 18h335l-4 -18q-41 -5 -59.5 -9.5t-33.5 -21t-20.5 -34t-17.5 -64.5l-72 -289q-32 -121 -2.5 -183t129.5 -62q198 0 261 253l70 282q8 30 11.5 45t4 31t-3 22.5
t-14 13.5t-25 9.5t-39.5 6.5l4 18h245l-4 -18q-74 -10 -93.5 -29.5t-37.5 -98.5zM230 -155q0 29 19.5 48t48.5 19t48 -19t19 -48q0 -30 -19 -49.5t-48 -19.5t-48.5 19.5t-19.5 49.5z" />
    <glyph glyph-name="uni1EE5" unicode="&#x1ee5;" horiz-adv-x="616" 
d="M60 188v-1l49 166q20 70 10.5 89t-63.5 21l4 17l230 67l-100 -355q-37 -127 6 -127q42 0 108.5 125.5t98.5 251.5l23 92h123l-105 -419q-16 -66 16 -66q28 0 64 29.5t65 76.5l15 -11q-40 -76 -95.5 -116.5t-106.5 -40.5q-54 0 -70.5 39t1.5 124l16 77
q-56 -122 -104.5 -181t-106.5 -59t-81 49.5t3 151.5zM127 -156q0 29 19.5 48t48.5 19t48 -19t19 -48q0 -30 -19 -49.5t-48 -19.5t-48.5 19.5t-19.5 49.5z" />
    <glyph glyph-name="Ygrave" unicode="&#x1ef2;" horiz-adv-x="715" 
d="M409 292h1l-36 -146q-21 -75 -9 -97.5t87 -30.5l-4 -18h-357l4 18q56 6 81 17.5t36.5 33.5t24.5 77l35 139l-93 329q-16 54 -29.5 70.5t-46.5 22.5l4 18h295l-4 -18q-51 -6 -70 -22t-10 -50l79 -295l184 223q35 42 52 69t16.5 42.5t-13.5 22.5t-41 10l4 18h223l-4 -18
q-43 -6 -75 -29.5t-93 -95.5zM340 922h157l51 -129h-17z" />
    <glyph glyph-name="ygrave" unicode="&#x1ef3;" horiz-adv-x="566" 
d="M510 428v1l-285 -464q-65 -107 -121.5 -146t-120.5 -39q-35 0 -68 9l31 124h7q31 -28 89 -28q43 0 73.5 15.5t53.5 55.5l19 30l-83 475q-4 31 -11.5 41.5t-37.5 18.5l4 18h255l-5 -18q-52 -8 -63 -19t-7 -53l46 -307l156 255q26 43 34 65t-1.5 37t-42.5 21l3 18h188
l-4 -18q-44 -12 -60 -25.5t-49 -66.5zM238 773h144l27 -169h-16z" />
    <glyph glyph-name="endash" unicode="&#x2013;" horiz-adv-x="497" 
d="M455 241h-420l15 70h421z" />
    <glyph glyph-name="emdash" unicode="&#x2014;" horiz-adv-x="722" 
d="M681 241h-647l16 70h647z" />
    <glyph glyph-name="quoteleft" unicode="&#x2018;" horiz-adv-x="295" 
d="M170 604h1q33 0 55 -20.5t22 -52.5q0 -31 -22 -53t-55 -22q-34 0 -53.5 23t-19.5 61q0 65 54.5 129.5t125.5 94.5l9 -12q-113 -68 -117 -148z" />
    <glyph glyph-name="quoteright" unicode="&#x2019;" horiz-adv-x="295" 
d="M212 617q-33 0 -55 20.5t-22 52.5q0 31 22 52.5t55 21.5q34 0 53.5 -23t19.5 -61q0 -63 -55.5 -129t-124.5 -95l-8 12q44 27 78.5 66t36.5 83z" />
    <glyph glyph-name="quotesinglbase" unicode="&#x201a;" horiz-adv-x="323" 
d="M139 -12q-34 1 -56.5 23t-22.5 57q0 33 23 56.5t58 23.5q36 0 58.5 -25.5t22.5 -64.5q0 -79 -69 -151t-158 -108l-7 14q56 30 103.5 78.5t47.5 96.5z" />
    <glyph glyph-name="quotedblleft" unicode="&#x201c;" horiz-adv-x="500" 
d="M170 604h1q33 0 55 -20.5t22 -52.5q0 -31 -22 -53t-55 -22q-34 0 -53.5 23t-19.5 61q0 65 54.5 129.5t125.5 94.5l9 -12q-113 -68 -117 -148zM375 604h1q33 0 55 -20.5t22 -52.5q0 -31 -22 -53t-55 -22q-34 0 -53.5 23t-19.5 61q0 65 54.5 129.5t125.5 94.5l9 -12
q-113 -68 -117 -148z" />
    <glyph glyph-name="quotedblright" unicode="&#x201d;" horiz-adv-x="500" 
d="M212 617q-33 0 -55 20.5t-22 52.5q0 31 22 52.5t55 21.5q34 0 53.5 -23t19.5 -61q0 -63 -55.5 -129t-124.5 -95l-8 12q44 27 78.5 66t36.5 83zM417 617q-33 0 -55 20.5t-22 52.5q0 31 22 52.5t55 21.5q34 0 53.5 -23t19.5 -61q0 -63 -55.5 -129t-124.5 -95l-8 12
q44 27 78.5 66t36.5 83z" />
    <glyph glyph-name="quotedblbase" unicode="&#x201e;" horiz-adv-x="552" 
d="M139 -12q-34 1 -56.5 23t-22.5 57q0 33 23 56.5t58 23.5q36 0 58.5 -25.5t22.5 -64.5q0 -79 -69 -151t-158 -108l-7 14q56 30 103.5 78.5t47.5 96.5zM368 -12q-34 1 -56.5 23t-22.5 57q0 33 23.5 56.5t58.5 23.5q36 0 58 -25t22 -65q0 -79 -68.5 -151t-157.5 -108l-7 14
q56 31 103 79t47 96z" />
    <glyph glyph-name="dagger" unicode="&#x2020;" horiz-adv-x="540" 
d="M313 0h-74v426h-207v70h207v229h74v-229h207v-70h-207v-426z" />
    <glyph glyph-name="daggerdbl" unicode="&#x2021;" horiz-adv-x="558" 
d="M297 270h207l-18 -67h-208l-49 -203h-70l50 203h-206l16 67h208l42 173h-207l15 67h208l53 215h70l-53 -215h207l-16 -67h-208z" />
    <glyph glyph-name="bullet" unicode="&#x2022;" horiz-adv-x="453" 
d="M228 97q-74 0 -126.5 54t-52.5 132q0 75 52.5 127.5t126.5 52.5q79 0 133 -52.5t54 -127.5q0 -78 -54 -132t-133 -54z" />
    <glyph glyph-name="ellipsis" unicode="&#x2026;" horiz-adv-x="963" 
d="M138 -13q-33 0 -56.5 23.5t-23.5 57.5q0 33 23.5 56.5t56.5 23.5q35 0 58.5 -23.5t23.5 -56.5q0 -34 -23.5 -57.5t-58.5 -23.5zM459 -13q-33 0 -56.5 23.5t-23.5 57.5q0 33 23.5 56.5t56.5 23.5q35 0 58.5 -23.5t23.5 -56.5q0 -34 -23.5 -57.5t-58.5 -23.5zM780 -13
q-33 0 -56.5 23.5t-23.5 57.5q0 33 23.5 56.5t56.5 23.5q35 0 58.5 -23.5t23.5 -56.5q0 -34 -23.5 -57.5t-58.5 -23.5z" />
    <glyph glyph-name="perthousand" unicode="&#x2030;" horiz-adv-x="1487" 
d="M194 329q31 0 58 34t44 84t27 103.5t10 96.5q0 69 -43 69q-41 0 -74 -57t-49 -128.5t-16 -131.5q0 -70 43 -70zM63 473q0 102 73 182t157 80q58 0 94 -44t36 -116q0 -101 -73.5 -183t-158.5 -82q-57 0 -92.5 44.5t-35.5 118.5zM326 0h-76l508 725h76zM810 12q31 0 58 34
t44 84t27 103.5t10 96.5q0 69 -43 69q-41 0 -74 -57t-49 -128.5t-16 -131.5q0 -70 43 -70zM679 156q0 102 73 182t157 80q58 0 94 -44t36 -116q0 -101 -73.5 -183t-158.5 -82q-57 0 -92.5 44.5t-35.5 118.5zM1213 12q31 0 58 34t44 84t27 103.5t10 96.5q0 69 -43 69
q-41 0 -74 -57t-49 -128.5t-16 -131.5q0 -70 43 -70zM1082 156q0 102 73 182t157 80q58 0 94 -44t36 -116q0 -101 -73.5 -183t-158.5 -82q-57 0 -92.5 44.5t-35.5 118.5z" />
    <glyph glyph-name="guilsinglleft" unicode="&#x2039;" horiz-adv-x="373" 
d="M195 38l-157 235l270 234h53l-187 -234l66 -235h-45z" />
    <glyph glyph-name="guilsinglright" unicode="&#x203a;" horiz-adv-x="374" 
d="M191 507l156 -234l-268 -235h-54l185 235l-65 234h46z" />
    <glyph glyph-name="fraction" unicode="&#x2044;" horiz-adv-x="280" 
d="M-76 0h-76l508 725h76z" />
    <glyph glyph-name="zero.superior" unicode="&#x2070;" horiz-adv-x="402" 
d="M220 450q31 0 58 34t44 84t27 103.5t10 96.5q0 69 -43 69q-41 0 -74 -57t-49 -128.5t-16 -131.5q0 -70 43 -70zM89 594q0 102 73 182t157 80q58 0 94 -44t36 -116q0 -101 -73.5 -183t-158.5 -82q-57 0 -92.5 44.5t-35.5 118.5z" />
    <glyph glyph-name="four.superior" unicode="&#x2074;" horiz-adv-x="382" 
d="M310 438h-93l25 100h-193l17 68l263 240h82l-58 -233h70l-18 -75h-70zM260 613l45 178l-196 -178h151z" />
    <glyph glyph-name="five.superior" unicode="&#x2075;" horiz-adv-x="316" 
d="M98 649h1l120 197h184l-43 -81h-166l-24 -39q80 -11 123 -47t43 -90q0 -64 -61.5 -110.5t-137.5 -46.5q-55 0 -98 17l25 102h10q4 -95 74 -95q38 0 65.5 26.5t27.5 64.5q0 43 -36.5 70.5t-106.5 31.5z" />
    <glyph glyph-name="six.superior" unicode="&#x2076;" horiz-adv-x="377" 
d="M410 620h-2q0 -76 -56.5 -132.5t-129.5 -56.5q-63 0 -100.5 37t-37.5 102q0 57 30 108.5t79.5 88.5t105 63.5t114.5 42.5l3 -18q-72 -22 -125 -73t-81 -117q48 56 106 56q42 0 68 -26.5t26 -74.5zM264 677q-30 0 -63 -33q-20 -58 -20 -110q0 -82 42 -82q33 0 58.5 46
t25.5 103q0 76 -43 76z" />
    <glyph glyph-name="seven.superior" unicode="&#x2077;" horiz-adv-x="350" 
d="M199 438h1h-103q10 59 40.5 111.5t75 92.5t93.5 70.5t105 52.5h-287l19 81h309l-19 -82q-213 -122 -234 -326z" />
    <glyph glyph-name="eight.superior" unicode="&#x2078;" horiz-adv-x="371" 
d="M73 527v-1q0 44 38 74t88 45q-58 49 -58 103q0 46 44.5 77t113.5 31q54 0 89 -22t35 -60q0 -37 -34 -61.5t-78 -37.5q3 -2 17 -13.5t17.5 -14.5t15 -13.5t15 -15t11 -14.5t10 -17t5 -16t2.5 -19q0 -43 -32 -71.5t-73 -39t-87 -10.5q-57 0 -98 27t-41 69zM129 525
q0 -33 22.5 -53.5t66.5 -20.5q100 0 100 66q0 15 -10.5 30.5t-20 24t-32.5 27.5l-36 30l-6 4q-84 -41 -84 -108zM368 770q0 64 -70 64q-34 0 -56 -13.5t-22 -39.5q0 -35 47 -72l31 -25q70 37 70 86z" />
    <glyph glyph-name="nine.superior" unicode="&#x2079;" horiz-adv-x="364" 
d="M100 668v-1q0 76 57.5 132.5t128.5 56.5q62 0 99.5 -37t37.5 -102q0 -57 -29.5 -108.5t-78.5 -88.5t-104 -63t-114 -42l-4 17q73 22 125.5 73t80.5 118q-48 -56 -105 -56q-42 0 -68 26.5t-26 74.5zM245 610h-1q28 0 63 32q20 58 20 111q0 81 -42 81q-33 0 -58.5 -45.5
t-25.5 -102.5q0 -76 44 -76z" />
    <glyph glyph-name="plus.superior" unicode="&#x207a;" horiz-adv-x="382" 
d="M278 438h-46v133h-133v43h133v127h46v-127h132v-43h-132v-133z" />
    <glyph glyph-name="minus.superior" unicode="&#x207b;" horiz-adv-x="382" 
d="M105 614h300v-43h-300v43z" />
    <glyph glyph-name="equal.superior" unicode="&#x207c;" horiz-adv-x="382" 
d="M394 632h-278v42h278v-42zM394 516h-278v42h278v-42z" />
    <glyph glyph-name="parenleft.superior" unicode="&#x207d;" horiz-adv-x="188" 
d="M305 890v-1l6 -10q-80 -77 -120.5 -204.5t-40.5 -225.5q0 -109 19 -145l-12 -8q-81 120 -81 215q0 224 229 379z" />
    <glyph glyph-name="parenright.superior" unicode="&#x207e;" horiz-adv-x="197" 
d="M20 297l-5 10q79 78 119.5 205.5t40.5 224.5q0 111 -18 145l11 8q81 -118 81 -214q0 -224 -229 -379z" />
    <glyph glyph-name="n.superior" unicode="&#x207f;" horiz-adv-x="358" 
d="M245 746h-1l-30 -116q22 57 44.5 86.5t58.5 29.5q38 0 51 -29.5t-4 -102.5l-31 -111q-9 -34 11 -34q25 0 62 56l8 -5q-44 -89 -102 -89q-45 0 -59.5 25t1.5 95l23 77q18 70 -4 70q-17 0 -44 -62t-50 -146l-15 -52h-89l50 203q9 37 6 45.5t-31 10.5l2 9z" />
    <glyph glyph-name="zero.inferior" unicode="&#x2080;" horiz-adv-x="402" 
d="M110 -116q31 0 58 34t44 84t27 103.5t10 96.5q0 69 -43 69q-41 0 -74 -57t-49 -128.5t-16 -131.5q0 -70 43 -70zM-21 28q0 102 73 182t157 80q58 0 94 -44t36 -116q0 -101 -73.5 -183t-158.5 -82q-57 0 -92.5 44.5t-35.5 118.5z" />
    <glyph glyph-name="one.inferior" unicode="&#x2081;" horiz-adv-x="290" 
d="M209 288l-1 -2l-85 -340q-9 -42 -5 -51.5t29 -13.5l-2 -10h-189l3 10q38 2 50.5 14.5t24.5 57.5l66 267h-74l3 11q108 13 168 57h12z" />
    <glyph glyph-name="two.inferior" unicode="&#x2082;" horiz-adv-x="332" 
d="M-96 -128h-1l1 7q15 12 44 35q66 52 96.5 77.5t68 62.5t52 66t14.5 58t-17 45t-45 16q-71 0 -96 -65h-18q38 116 164 116q49 0 79.5 -23t30.5 -62q0 -42 -36.5 -83t-111.5 -94q1 0 -25 -18.5t-52.5 -37t-25.5 -18.5h193l-20 -82h-295z" />
    <glyph glyph-name="three.inferior" unicode="&#x2083;" horiz-adv-x="329" 
d="M29 -134l-1 -1q-56 0 -99 17l25 102h10q4 -95 74 -95q40 0 71 30.5t31 72.5q0 29 -19.5 53t-64.5 32l4 12l13 6q50 18 73.5 48.5t23.5 52.5q0 41 -54 43q-74 0 -98 -65h-18q18 56 63.5 86t104.5 30q41 0 70.5 -18t29.5 -49q0 -16 -9 -30.5t-18.5 -24t-28.5 -19.5
t-27.5 -13.5l-25.5 -10.5l-1 -2q82 -32 82 -103q0 -70 -65.5 -112t-145.5 -42z" />
    <glyph glyph-name="four.inferior" unicode="&#x2084;" horiz-adv-x="382" 
d="M200 -128h-93l25 100h-193l17 68l263 240h82l-58 -233h70l-18 -75h-70zM150 47l45 178l-196 -178h151z" />
    <glyph glyph-name="five.inferior" unicode="&#x2085;" horiz-adv-x="316" 
d="M-12 83h1l120 197h184l-43 -81h-166l-24 -39q80 -11 123 -47t43 -90q0 -64 -61.5 -110.5t-137.5 -46.5q-55 0 -98 17l25 102h10q4 -95 74 -95q38 0 65.5 26.5t27.5 64.5q0 43 -36.5 70.5t-106.5 31.5z" />
    <glyph glyph-name="six.inferior" unicode="&#x2086;" horiz-adv-x="377" 
d="M300 54h-2q0 -76 -56.5 -132.5t-129.5 -56.5q-63 0 -100.5 37t-37.5 102q0 57 30 108.5t79.5 88.5t105 63.5t114.5 42.5l3 -18q-72 -22 -125 -73t-81 -117q48 56 106 56q42 0 68 -26.5t26 -74.5zM154 111q-30 0 -63 -33q-20 -58 -20 -110q0 -82 42 -82q33 0 58.5 46
t25.5 103q0 76 -43 76z" />
    <glyph glyph-name="seven.inferior" unicode="&#x2087;" horiz-adv-x="350" 
d="M89 -128h1h-103q10 59 40.5 111.5t75 92.5t93.5 70.5t105 52.5h-287l19 81h309l-19 -82q-213 -122 -234 -326z" />
    <glyph glyph-name="eight.inferior" unicode="&#x2088;" horiz-adv-x="371" 
d="M-37 -39v-1q0 44 38 74t88 45q-58 49 -58 103q0 46 44.5 77t113.5 31q54 0 89 -22t35 -60q0 -37 -34 -61.5t-78 -37.5q3 -2 17 -13.5t17.5 -14.5t15 -13.5t15 -15t11 -14.5t10 -17t5 -16t2.5 -19q0 -43 -32 -71.5t-73 -39t-87 -10.5q-57 0 -98 27t-41 69zM19 -41
q0 -33 22.5 -53.5t66.5 -20.5q100 0 100 66q0 15 -10.5 30.5t-20 24t-32.5 27.5l-36 30l-6 4q-84 -41 -84 -108zM258 204q0 64 -70 64q-34 0 -56 -13.5t-22 -39.5q0 -35 47 -72l31 -25q70 37 70 86z" />
    <glyph glyph-name="nine.inferior" unicode="&#x2089;" horiz-adv-x="364" 
d="M-10 102v-1q0 76 57.5 132.5t128.5 56.5q62 0 99.5 -37t37.5 -102q0 -57 -29.5 -108.5t-78.5 -88.5t-104 -63t-114 -42l-4 17q73 22 125.5 73t80.5 118q-48 -56 -105 -56q-42 0 -68 26.5t-26 74.5zM135 44h-1q28 0 63 32q20 58 20 111q0 81 -42 81q-33 0 -58.5 -45.5
t-25.5 -102.5q0 -76 44 -76z" />
    <glyph glyph-name="parenleft.inferior" unicode="&#x208d;" horiz-adv-x="188" 
d="M195 324v-1l6 -10q-80 -77 -120.5 -204.5t-40.5 -225.5q0 -109 19 -145l-12 -8q-81 120 -81 215q0 224 229 379z" />
    <glyph glyph-name="parenright.inferior" unicode="&#x208e;" horiz-adv-x="197" 
d="M-90 -269l-5 10q79 78 119.5 205.5t40.5 224.5q0 111 -18 145l11 8q81 -118 81 -214q0 -224 -229 -379z" />
    <glyph glyph-name="Euro" unicode="&#x20ac;" horiz-adv-x="817" 
d="M386 266h-1h-135v-4q0 -106 42.5 -172.5t125.5 -66.5q77 0 133.5 52t73.5 153h122q-24 -83 -81 -139.5t-121 -79t-133 -22.5q-135 0 -212.5 76t-79.5 203h-135l54 63h83q3 29 17 88h-120l54 62h87q50 119 147.5 191t227.5 72q118 0 189.5 -65.5t71.5 -175.5h-122
q18 205 -143 205q-84 0 -146 -63t-97 -164h269l-56 -62h-231q-11 -45 -15 -88h185z" />
    <glyph glyph-name="afii61289" unicode="&#x2113;" horiz-adv-x="406" 
d="M120 141h1v77l-82 -62l-33 48l115 88v260q0 96 31 141t103 45q60 0 92 -42.5t32 -113.5q0 -167 -182 -306l-13 -10v-125q0 -54 14 -76t53 -22q52 0 93 41l34 -43q-59 -54 -133 -54q-70 0 -97.5 37t-27.5 117zM184 551v1v-211l20 16q110 83 110 222q0 103 -66 103
q-35 0 -49.5 -29.5t-14.5 -101.5z" />
    <glyph glyph-name="afii61352" unicode="&#x2116;" horiz-adv-x="1159" 
d="M599 150v-1l107 429q13 52 13 74q0 28 -17 39t-63 17l3 16h245l-3 -16q-69 -10 -91 -31t-42 -99l-145 -584h-84l-276 568l-103 -417q-13 -52 -13 -74q0 -28 17 -39t63 -17l-3 -16h-245l4 16q67 8 89.5 30.5t40.5 99.5l120 479l-1 2q-14 29 -21 41.5t-17 25t-22 17.5l4 15
h161zM885 563q0 73 53 130t133 57q51 0 83 -32t32 -88q0 -72 -54 -130t-133 -58q-50 0 -82 32.5t-32 88.5zM1092 672q0 59 -29 59q-38 0 -62 -63.5t-24 -145.5q0 -60 31 -60q37 0 60.5 63.5t23.5 146.5zM1127 345h-292l16 59h291z" />
    <glyph glyph-name="uni2117" unicode="&#x2117;" horiz-adv-x="837" 
d="M429 -13q-159 0 -267.5 105t-108.5 269t109 270t267 106q157 0 265.5 -106t108.5 -270t-108.5 -269t-265.5 -105zM429 677q-132 0 -220.5 -88.5t-88.5 -227.5q0 -138 88.5 -226.5t220.5 -88.5q133 0 220.5 88t87.5 227q0 140 -87.5 228t-220.5 88zM445 330h-79v-155h-67
v397h121q95 0 140.5 -24.5t45.5 -95.5q0 -53 -40.5 -87.5t-120.5 -34.5zM366 388h77q50 0 72 15t22 48q0 34 -25 47.5t-74 13.5h-72v-124z" />
    <glyph glyph-name="trademark" unicode="&#x2122;" horiz-adv-x="859" 
d="M157 319v344h-130v62h329v-62h-131v-344h-68zM658 319h-75l-119 333v-333h-68v406h115l112 -323l108 323h114v-406h-68v333z" />
    <glyph glyph-name="estimated" unicode="&#x212e;" horiz-adv-x="589" 
d="M511 150h-1h41q-26 -73 -88 -118t-157 -45q-130 0 -202 79.5t-72 201.5q0 124 74 201.5t195 77.5q123 0 193 -80t72 -198h-416v-193q24 -24 69.5 -39.5t95.5 -15.5q71 0 121 34t75 95zM149 461v-160h298v159q-57 53 -147 53q-102 0 -151 -52z" />
    <glyph glyph-name="onethird" unicode="&#x2153;" horiz-adv-x="899" 
d="M293 733l-1 -2l-85 -340q-9 -42 -5 -51.5t29 -13.5l-2 -10h-189l3 10q38 2 50.5 14.5t24.5 57.5l66 267h-74l3 11q108 13 168 57h12zM213 -2h-76l508 725h76zM616 -8l-1 -1q-56 0 -99 17l25 102h10q4 -95 74 -95q40 0 71 30.5t31 72.5q0 29 -19.5 53t-64.5 32l4 12l13 6
q50 18 73.5 48.5t23.5 52.5q0 41 -54 43q-74 0 -98 -65h-18q18 56 63.5 86t104.5 30q41 0 70.5 -18t29.5 -49q0 -16 -9 -30.5t-18.5 -24t-28.5 -19.5t-27.5 -13.5l-25.5 -10.5l-1 -2q82 -32 82 -103q0 -70 -65.5 -112t-145.5 -42z" />
    <glyph glyph-name="twothirds" unicode="&#x2154;" horiz-adv-x="941" 
d="M-12 317h-1l1 7q15 12 44 35q66 52 96.5 77.5t68 62.5t52 66t14.5 58t-17 45t-45 16q-71 0 -96 -65h-18q38 116 164 116q49 0 79.5 -23t30.5 -62q0 -42 -36.5 -83t-111.5 -94q1 0 -25 -18.5t-52.5 -37t-25.5 -18.5h193l-20 -82h-295zM255 0h-76l508 725h76zM658 -6l-1 -1
q-56 0 -99 17l25 102h10q4 -95 74 -95q40 0 71 30.5t31 72.5q0 29 -19.5 53t-64.5 32l4 12l13 6q50 18 73.5 48.5t23.5 52.5q0 41 -54 43q-74 0 -98 -65h-18q18 56 63.5 86t104.5 30q41 0 70.5 -18t29.5 -49q0 -16 -9 -30.5t-18.5 -24t-28.5 -19.5t-27.5 -13.5l-25.5 -10.5
l-1 -2q82 -32 82 -103q0 -70 -65.5 -112t-145.5 -42z" />
    <glyph glyph-name="uni2155" unicode="&#x2155;" horiz-adv-x="886" 
d="M293 733l-1 -2l-85 -340q-9 -42 -5 -51.5t29 -13.5l-2 -10h-189l3 10q38 2 50.5 14.5t24.5 57.5l66 267h-74l3 11q108 13 168 57h12zM213 -2h-76l508 725h76zM575 209h1l120 197h184l-43 -81h-166l-24 -39q80 -11 123 -47t43 -90q0 -64 -61.5 -110.5t-137.5 -46.5
q-55 0 -98 17l25 102h10q4 -95 74 -95q38 0 65.5 26.5t27.5 64.5q0 43 -36.5 70.5t-106.5 31.5z" />
    <glyph glyph-name="uni2156" unicode="&#x2156;" horiz-adv-x="928" 
d="M-12 317h-1l1 7q15 12 44 35q66 52 96.5 77.5t68 62.5t52 66t14.5 58t-17 45t-45 16q-71 0 -96 -65h-18q38 116 164 116q49 0 79.5 -23t30.5 -62q0 -42 -36.5 -83t-111.5 -94q1 0 -25 -18.5t-52.5 -37t-25.5 -18.5h193l-20 -82h-295zM255 0h-76l508 725h76zM617 211h1
l120 197h184l-43 -81h-166l-24 -39q80 -11 123 -47t43 -90q0 -64 -61.5 -110.5t-137.5 -46.5q-55 0 -98 17l25 102h10q4 -95 74 -95q38 0 65.5 26.5t27.5 64.5q0 43 -36.5 70.5t-106.5 31.5z" />
    <glyph glyph-name="uni2157" unicode="&#x2157;" horiz-adv-x="924" 
d="M113 311l-1 -1q-56 0 -99 17l25 102h10q4 -95 74 -95q40 0 71 30.5t31 72.5q0 29 -19.5 53t-64.5 32l4 12l13 6q50 18 73.5 48.5t23.5 52.5q0 41 -54 43q-74 0 -98 -65h-18q18 56 63.5 86t104.5 30q41 0 70.5 -18t29.5 -49q0 -16 -9 -30.5t-18.5 -24t-28.5 -19.5
t-27.5 -13.5l-25.5 -10.5l-1 -2q82 -32 82 -103q0 -70 -65.5 -112t-145.5 -42zM252 -1h-76l508 725h76zM614 210h1l120 197h184l-43 -81h-166l-24 -39q80 -11 123 -47t43 -90q0 -64 -61.5 -110.5t-137.5 -46.5q-55 0 -98 17l25 102h10q4 -95 74 -95q38 0 65.5 26.5
t27.5 64.5q0 43 -36.5 70.5t-106.5 31.5z" />
    <glyph glyph-name="uni2158" unicode="&#x2158;" horiz-adv-x="978" 
d="M284 317h-93l25 100h-193l17 68l263 240h82l-58 -233h70l-18 -75h-70zM234 492l45 178l-196 -178h151zM306 0h-76l508 725h76zM668 211h1l120 197h184l-43 -81h-166l-24 -39q80 -11 123 -47t43 -90q0 -64 -61.5 -110.5t-137.5 -46.5q-55 0 -98 17l25 102h10q4 -95 74 -95
q38 0 65.5 26.5t27.5 64.5q0 43 -36.5 70.5t-106.5 31.5z" />
    <glyph glyph-name="uni2159" unicode="&#x2159;" horiz-adv-x="947" 
d="M293 733l-1 -2l-85 -340q-9 -42 -5 -51.5t29 -13.5l-2 -10h-189l3 10q38 2 50.5 14.5t24.5 57.5l66 267h-74l3 11q108 13 168 57h12zM213 -2h-76l508 725h76zM887 180h-2q0 -76 -56.5 -132.5t-129.5 -56.5q-63 0 -100.5 37t-37.5 102q0 57 30 108.5t79.5 88.5t105 63.5
t114.5 42.5l3 -18q-72 -22 -125 -73t-81 -117q48 56 106 56q42 0 68 -26.5t26 -74.5zM741 237q-30 0 -63 -33q-20 -58 -20 -110q0 -82 42 -82q33 0 58.5 46t25.5 103q0 76 -43 76z" />
    <glyph glyph-name="uni215A" unicode="&#x215a;" horiz-adv-x="973" 
d="M72 528h1l120 197h184l-43 -81h-166l-24 -39q80 -11 123 -47t43 -90q0 -64 -61.5 -110.5t-137.5 -46.5q-55 0 -98 17l25 102h10q4 -95 74 -95q38 0 65.5 26.5t27.5 64.5q0 43 -36.5 70.5t-106.5 31.5zM241 0h-76l508 725h76zM915 182h-2q0 -76 -56.5 -132.5t-129.5 -56.5
q-63 0 -100.5 37t-37.5 102q0 57 30 108.5t79.5 88.5t105 63.5t114.5 42.5l3 -18q-72 -22 -125 -73t-81 -117q48 56 106 56q42 0 68 -26.5t26 -74.5zM769 239q-30 0 -63 -33q-20 -58 -20 -110q0 -82 42 -82q33 0 58.5 46t25.5 103q0 76 -43 76z" />
    <glyph glyph-name="oneeighth" unicode="&#x215b;" horiz-adv-x="941" 
d="M293 733l-1 -2l-85 -340q-9 -42 -5 -51.5t29 -13.5l-2 -10h-189l3 10q38 2 50.5 14.5t24.5 57.5l66 267h-74l3 11q108 13 168 57h12zM213 -2h-76l508 725h76zM550 87v-1q0 44 38 74t88 45q-58 49 -58 103q0 46 44.5 77t113.5 31q54 0 89 -22t35 -60q0 -37 -34 -61.5
t-78 -37.5q3 -2 17 -13.5t17.5 -14.5t15 -13.5t15 -15t11 -14.5t10 -17t5 -16t2.5 -19q0 -43 -32 -71.5t-73 -39t-87 -10.5q-57 0 -98 27t-41 69zM606 85q0 -33 22.5 -53.5t66.5 -20.5q100 0 100 66q0 15 -10.5 30.5t-20 24t-32.5 27.5l-36 30l-6 4q-84 -41 -84 -108z
M845 330q0 64 -70 64q-34 0 -56 -13.5t-22 -39.5q0 -35 47 -72l31 -25q70 37 70 86z" />
    <glyph glyph-name="threeeighths" unicode="&#x215c;" horiz-adv-x="980" 
d="M113 311l-1 -1q-56 0 -99 17l25 102h10q4 -95 74 -95q40 0 71 30.5t31 72.5q0 29 -19.5 53t-64.5 32l4 12l13 6q50 18 73.5 48.5t23.5 52.5q0 41 -54 43q-74 0 -98 -65h-18q18 56 63.5 86t104.5 30q41 0 70.5 -18t29.5 -49q0 -16 -9 -30.5t-18.5 -24t-28.5 -19.5
t-27.5 -13.5l-25.5 -10.5l-1 -2q82 -32 82 -103q0 -70 -65.5 -112t-145.5 -42zM252 -1h-76l508 725h76zM589 88v-1q0 44 38 74t88 45q-58 49 -58 103q0 46 44.5 77t113.5 31q54 0 89 -22t35 -60q0 -37 -34 -61.5t-78 -37.5q3 -2 17 -13.5t17.5 -14.5t15 -13.5t15 -15
t11 -14.5t10 -17t5 -16t2.5 -19q0 -43 -32 -71.5t-73 -39t-87 -10.5q-57 0 -98 27t-41 69zM645 86q0 -33 22.5 -53.5t66.5 -20.5q100 0 100 66q0 15 -10.5 30.5t-20 24t-32.5 27.5l-36 30l-6 4q-84 -41 -84 -108zM884 331q0 64 -70 64q-34 0 -56 -13.5t-22 -39.5
q0 -35 47 -72l31 -25q70 37 70 86z" />
    <glyph glyph-name="fiveeighths" unicode="&#x215d;" horiz-adv-x="967" 
d="M72 528h1l120 197h184l-43 -81h-166l-24 -39q80 -11 123 -47t43 -90q0 -64 -61.5 -110.5t-137.5 -46.5q-55 0 -98 17l25 102h10q4 -95 74 -95q38 0 65.5 26.5t27.5 64.5q0 43 -36.5 70.5t-106.5 31.5zM241 0h-76l508 725h76zM578 89v-1q0 44 38 74t88 45q-58 49 -58 103
q0 46 44.5 77t113.5 31q54 0 89 -22t35 -60q0 -37 -34 -61.5t-78 -37.5q3 -2 17 -13.5t17.5 -14.5t15 -13.5t15 -15t11 -14.5t10 -17t5 -16t2.5 -19q0 -43 -32 -71.5t-73 -39t-87 -10.5q-57 0 -98 27t-41 69zM634 87q0 -33 22.5 -53.5t66.5 -20.5q100 0 100 66
q0 15 -10.5 30.5t-20 24t-32.5 27.5l-36 30l-6 4q-84 -41 -84 -108zM873 332q0 64 -70 64q-34 0 -56 -13.5t-22 -39.5q0 -35 47 -72l31 -25q70 37 70 86z" />
    <glyph glyph-name="seveneighths" unicode="&#x215e;" horiz-adv-x="1002" 
d="M173 317h1h-103q10 59 40.5 111.5t75 92.5t93.5 70.5t105 52.5h-287l19 81h309l-19 -82q-213 -122 -234 -326zM275 0h-76l508 725h76zM612 89v-1q0 44 38 74t88 45q-58 49 -58 103q0 46 44.5 77t113.5 31q54 0 89 -22t35 -60q0 -37 -34 -61.5t-78 -37.5q3 -2 17 -13.5
t17.5 -14.5t15 -13.5t15 -15t11 -14.5t10 -17t5 -16t2.5 -19q0 -43 -32 -71.5t-73 -39t-87 -10.5q-57 0 -98 27t-41 69zM668 87q0 -33 22.5 -53.5t66.5 -20.5q100 0 100 66q0 15 -10.5 30.5t-20 24t-32.5 27.5l-36 30l-6 4q-84 -41 -84 -108zM907 332q0 64 -70 64
q-34 0 -56 -13.5t-22 -39.5q0 -35 47 -72l31 -25q70 37 70 86z" />
    <glyph glyph-name="uni215F" unicode="&#x215f;" horiz-adv-x="570" 
d="M293 733l-1 -2l-85 -340q-9 -42 -5 -51.5t29 -13.5l-2 -10h-189l3 10q38 2 50.5 14.5t24.5 57.5l66 267h-74l3 11q108 13 168 57h12zM213 -2h-76l508 725h76z" />
    <glyph glyph-name="uni2190" unicode="&#x2190;" horiz-adv-x="800" 
d="M20 273l309 309l51 -54l-220 -216h610v-76h-612l222 -219l-51 -53z" />
    <glyph glyph-name="uni2191" unicode="&#x2191;" horiz-adv-x="800" 
d="M399 745l310 -309l-55 -52l-217 221v-605h-75v605l-217 -221l-55 52z" />
    <glyph glyph-name="uni2192" unicode="&#x2192;" horiz-adv-x="800" 
d="M469 582l311 -309l-311 -309l-50 53l222 219h-611v76h609l-220 216z" />
    <glyph glyph-name="uni2193" unicode="&#x2193;" horiz-adv-x="800" 
d="M401 -20l-310 309l55 52l217 -221v605h75v-605l217 221l55 -52z" />
    <glyph glyph-name="uni2196" unicode="&#x2196;" horiz-adv-x="800" 
d="M132 100v438h438v-72h-312l451 -452l-54 -53l-452 451v-312h-71z" />
    <glyph glyph-name="uni2197" unicode="&#x2197;" horiz-adv-x="800" 
d="M668 538v-438h-72v312l-452 -451l-54 53l451 452h-311v72h438z" />
    <glyph glyph-name="uni2198" unicode="&#x2198;" horiz-adv-x="800" 
d="M668 438v-438h-438v72h312l-451 452l54 53l452 -451v312h71z" />
    <glyph glyph-name="uni2199" unicode="&#x2199;" horiz-adv-x="800" 
d="M132 0v438h72v-312l452 451l54 -53l-451 -452h311v-72h-438z" />
    <glyph glyph-name="uni219E" unicode="&#x219e;" horiz-adv-x="800" 
d="M20 273l311 309l50 -54l-220 -216h140l271 270l51 -54l-219 -216h366v-76h-368l221 -219l-51 -53l-273 272h-140l222 -219l-50 -53z" />
    <glyph glyph-name="uni219F" unicode="&#x219f;" horiz-adv-x="800" 
d="M399 745l310 -309l-55 -52l-217 222v-141l272 -272l-55 -50l-217 221v-364h-75v365l-217 -222l-55 50l272 272v141l-217 -222l-55 52z" />
    <glyph glyph-name="uni21A0" unicode="&#x21a0;" horiz-adv-x="800" 
d="M469 582l311 -309l-311 -309l-50 53l222 219h-140l-273 -272l-51 53l221 219h-368v76h366l-219 216l51 54l271 -270h140l-220 216z" />
    <glyph glyph-name="uni21A1" unicode="&#x21a1;" horiz-adv-x="800" 
d="M710 289l-310 -309l-309 309l55 52l217 -222v141l-272 272l55 50l217 -222v365h75v-364l217 221l55 -50l-272 -272v-141l217 222z" />
    <glyph glyph-name="uni21A2" unicode="&#x21a2;" horiz-adv-x="800" 
d="M20 273l309 309l51 -54l-220 -216h309l269 270l52 -54l-256 -255l256 -256l-52 -53l-272 272h-308l222 -219l-51 -53z" />
    <glyph glyph-name="uni21A3" unicode="&#x21a3;" horiz-adv-x="800" 
d="M780 273l-309 -309l-51 53l222 219h-308l-272 -272l-52 53l256 256l-256 255l52 54l269 -270h309l-220 216l51 54z" />
    <glyph glyph-name="uni21A4" unicode="&#x21a4;" horiz-adv-x="800" 
d="M668 538h82v-538h-82v236h-509l222 -230l-52 -53l-309 315l309 314l52 -54l-220 -217h507v227z" />
    <glyph glyph-name="uni21A5" unicode="&#x21a5;" horiz-adv-x="800" 
d="M399 745l310 -309l-55 -52l-217 222v-530h231v-76h-537v76h231v530l-217 -222l-55 52z" />
    <glyph glyph-name="uni21A6" unicode="&#x21a6;" horiz-adv-x="800" 
d="M132 236v-236h-82v538h82v-227h507l-220 217l52 54l309 -314l-309 -312l-52 53l222 227h-509z" />
    <glyph glyph-name="uni21A7" unicode="&#x21a7;" horiz-adv-x="800" 
d="M399 -20l-309 309l55 52l217 -222v530h-231v76h537v-76h-231v-530l217 222l55 -52z" />
    <glyph glyph-name="uni21B0" unicode="&#x21b0;" horiz-adv-x="800" 
d="M20 273l309 309l51 -54l-220 -217h590v-527h-75v451h-517l222 -218l-51 -53z" />
    <glyph glyph-name="uni21B1" unicode="&#x21b1;" horiz-adv-x="800" 
d="M469 582l311 -309l-311 -309l-50 53l222 218h-516v-451h-75v527h589l-220 217z" />
    <glyph glyph-name="uni21B2" unicode="&#x21b2;" horiz-adv-x="800" 
d="M675 725h75v-489h-592l222 -219l-51 -53l-309 309l309 309l51 -54l-220 -216h515v413z" />
    <glyph glyph-name="uni21B3" unicode="&#x21b3;" horiz-adv-x="800" 
d="M50 236v489h75v-413h514l-220 216l50 54l311 -309l-311 -309l-50 53l222 219h-591z" />
    <glyph glyph-name="partialdiff" unicode="&#x2202;" horiz-adv-x="559" 
d="M118 266q0 -101 43 -158t118 -57q70 0 119 55t49 160q0 106 -48.5 159.5t-119.5 53.5q-75 0 -118 -56t-43 -157zM273 544h1q51 0 92.5 -20.5t64.5 -55.5l1 2q-28 85 -105 140.5t-170 59.5v71q168 -12 269 -130t101 -302q0 -160 -67.5 -241t-180.5 -81q-109 0 -174 74.5
t-65 204.5q0 128 65 203t168 75z" />
    <glyph glyph-name="product" unicode="&#x220f;" horiz-adv-x="672" 
d="M155 -189h-74v914h523v-914h-75v844h-374v-844z" />
    <glyph glyph-name="summation" unicode="&#x2211;" horiz-adv-x="583" 
d="M32 -124l286 392l-286 393v64h531v-70h-444l285 -387l-285 -387h444v-70h-531v65z" />
    <glyph glyph-name="minus" unicode="&#x2212;" 
d="M52 312h534v-76h-534v76z" />
    <glyph glyph-name="radical" unicode="&#x221a;" horiz-adv-x="511" 
d="M5 225l138 62l163 -379l138 817h72l-157 -914h-88l-166 378l-68 -32z" />
    <glyph glyph-name="infinity" unicode="&#x221e;" horiz-adv-x="789" 
d="M769 253q0 -74 -46.5 -118t-123.5 -44q-103 0 -201 111q-97 -111 -195 -111q-79 0 -126.5 44.5t-47.5 117.5q0 75 48.5 119.5t127.5 44.5q100 0 195 -108q49 57 94.5 82.5t98.5 25.5q79 0 127.5 -45t48.5 -119zM202 355h-2q-43 0 -71.5 -27.5t-28.5 -74.5q0 -42 29 -70.5
t74 -28.5q71 0 153 100q-43 52 -78.5 76.5t-75.5 24.5zM595 154h1q42 0 70.5 27.5t28.5 71.5t-29.5 73t-76.5 29q-39 0 -73 -24t-76 -74q44 -54 79.5 -78.5t75.5 -24.5z" />
    <glyph glyph-name="integral" unicode="&#x222b;" horiz-adv-x="272" 
d="M112 145v345q0 134 35 189.5t102 55.5q34 0 55.5 -15.5t21.5 -43.5q0 -20 -12 -33t-32 -13q-19 0 -29.5 10.5t-10.5 27.5q0 20 10 30q-39 0 -54 -35t-15 -103q0 -24 1 -79t1 -89v-349q0 -130 -34.5 -184t-103.5 -54q-34 0 -54.5 14.5t-20.5 42.5q0 21 12.5 33.5
t31.5 12.5t29.5 -10.5t10.5 -27.5q0 -18 -10 -29q40 0 54 33.5t14 103.5q0 24 -1 78.5t-1 88.5z" />
    <glyph glyph-name="approxequal" unicode="&#x2248;" 
d="M525 449h76q-4 -66 -43.5 -104t-102.5 -38q-43 0 -119.5 35.5t-109.5 35.5q-29 0 -48 -18.5t-21 -52.5h-78q4 66 43 104t103 38q52 0 128 -35.5t102 -35.5q29 0 48 18.5t22 52.5zM525 262h76q-4 -66 -43.5 -104t-102.5 -38q-43 0 -119.5 35.5t-109.5 35.5
q-29 0 -48 -18.5t-21 -52.5h-78q4 66 43 104t103 38q52 0 128 -35.5t102 -35.5q29 0 48 18.5t22 52.5z" />
    <glyph glyph-name="notequal" unicode="&#x2260;" 
d="M567 138h-266l-94 -165l-65 36l74 129h-144v75h187l75 131h-262v75h305l83 144l65 -33l-63 -111h105v-75h-148l-75 -131h223v-75z" />
    <glyph glyph-name="lessequal" unicode="&#x2264;" 
d="M164 332l428 -133v-84l-535 182v70l535 184v-84zM55 0v75h540v-75h-540z" />
    <glyph glyph-name="greaterequal" unicode="&#x2265;" 
d="M486 332l-428 135v84l535 -184v-70l-535 -182v84zM595 0h-540v75h540v-75z" />
    <glyph glyph-name="uni25A0" unicode="&#x25a0;" horiz-adv-x="800" 
d="M121 0v538h535v-538h-535z" />
    <glyph glyph-name="uni25A1" unicode="&#x25a1;" horiz-adv-x="800" 
d="M121 0v538h535v-538h-535zM185 475v-411h408v411h-408z" />
    <glyph glyph-name="lozenge" unicode="&#x25ca;" horiz-adv-x="504" 
d="M259 635l-167 -286l167 -287l166 287zM10 349l249 422l246 -422l-246 -423z" />
    <glyph glyph-name="uni25CB" unicode="&#x25cb;" horiz-adv-x="800" 
d="M110 268q0 116 81.5 197.5t196.5 81.5q116 0 197.5 -81.5t81.5 -197.5t-82 -198.5t-197 -82.5t-196.5 82.5t-81.5 198.5zM601 268q0 93 -62 155.5t-151 62.5t-150.5 -62.5t-61.5 -155.5q0 -90 62 -155t150 -65q89 0 151 63.5t62 156.5z" />
    <glyph glyph-name="uni25CF" unicode="&#x25cf;" horiz-adv-x="800" 
d="M388 547q116 0 197.5 -81.5t81.5 -197.5t-82 -198.5t-197 -82.5t-196.5 82.5t-81.5 198.5t81.5 197.5t196.5 81.5z" />
    <glyph glyph-name="fi" unicode="&#xfb01;" horiz-adv-x="758" 
d="M474 150h1l51 204q18 70 9.5 88.5t-62.5 20.5l4 17l226 67q-14 -51 -59 -221l-53 -211q-16 -66 16 -66q28 0 64 29.5t65 76.5l15 -11q-40 -76 -95.5 -116.5t-106.5 -40.5q-115 0 -75 163zM667 636q-34 0 -58 23.5t-24 57.5q0 33 24 56t58 23q35 0 58.5 -23t23.5 -56
q0 -34 -23.5 -57.5t-58.5 -23.5zM42 0h-1l123 494h-85l11 44h85l3 12q28 109 112.5 169.5t196.5 60.5q13 0 39 -2l-32 -130h-11q-14 25 -23.5 38t-26.5 25.5t-36 12.5t-37 -6.5t-36 -21.5t-27.5 -46t-4.5 -73l4 -39h161l-11 -44h-155l-123 -494h-126z" />
    <glyph glyph-name="fl" unicode="&#xfb02;" horiz-adv-x="761" 
d="M41 0h-1l123 494h-85l11 44h85l3 12q28 109 112.5 169.5t196.5 60.5q13 0 39 -2l-32 -130h-11q-14 25 -23.5 38t-26.5 25.5t-36 12.5t-37 -6.5t-36 -21.5t-27.5 -46t-4.5 -73l4 -39h161l-11 -44h-155l-123 -494h-126zM475 150h1l117 460q19 70 10 88.5t-63 20.5l4 17
l226 67q-14 -51 -59 -221l-119 -467q-20 -66 15 -66q28 0 64 29.5t65 76.5l15 -11q-40 -76 -95.5 -116.5t-106.5 -40.5q-113 0 -74 163z" />
    <glyph glyph-name="apple" horiz-adv-x="453" 
d="M228 97q-74 0 -126.5 54t-52.5 132q0 75 52.5 127.5t126.5 52.5q79 0 133 -52.5t54 -127.5q0 -78 -54 -132t-133 -54z" />
    <glyph glyph-name="dot" horiz-adv-x="340" 
d="M248 636q-34 0 -58 23.5t-24 57.5q0 33 24 56t58 23q35 0 58.5 -23t23.5 -56q0 -34 -23.5 -57.5t-58.5 -23.5z" />
    <glyph glyph-name="dotaccent.low" horiz-adv-x="162" 
d="M12 -155q0 29 19.5 48t48.5 19t48 -19t19 -48q0 -30 -19 -49.5t-48 -19.5t-48.5 19.5t-19.5 49.5z" />
    <glyph glyph-name="commaaccent" horiz-adv-x="211" 
d="M122 -178q-26 1 -44.5 18t-18.5 42q0 27 18 45t47 18t45.5 -19t16.5 -52q0 -55 -49.5 -106t-121.5 -79l-5 10q112 62 112 123z" />
    <glyph glyph-name="caron.slovak" horiz-adv-x="220" 
d="M134 649q-26 1 -44.5 18t-18.5 42q0 27 18 45t47 18t45.5 -19t16.5 -52q0 -55 -49.5 -106t-121.5 -79l-5 10q112 62 112 123z" />
    <glyph glyph-name="zero.slashed" horiz-adv-x="694" 
d="M48 248q0 113 54 227.5t148 190.5t197 76q101 0 156 -72.5t55 -184.5q0 -114 -54 -229.5t-148 -192t-197 -76.5q-102 0 -156.5 73.5t-54.5 187.5zM438 707v-1q-49 0 -94 -42.5t-76.5 -110.5t-53 -142t-32.5 -147l346 237q3 31 3 60q0 146 -93 146zM268 22q47 0 90.5 41
t75 106t54 138t33.5 145l-344 -237q-2 -11 -2 -46q0 -147 93 -147z" />
    <glyph glyph-name="one.pof" horiz-adv-x="457" 
d="M372 573h-2l-106 -427q-21 -76 -11 -98t79 -30l-4 -18h-341l4 19q47 4 69 8.5t38.5 20.5t23 34t18.5 63l76 305h-138l5 22q172 17 267 101h22z" />
    <glyph glyph-name="two.pof" horiz-adv-x="518" 
d="M440 111l-1 1l-27 -111h-466l2 11q229 156 323 248.5t94 151.5q0 40 -30 61t-78 21q-118 0 -150 -93h-27q20 79 86.5 126t153.5 47q78 0 130 -32t52 -88q0 -29 -15 -57.5t-51 -61t-64 -53.5t-86 -62q-140 -98 -156 -109h310z" />
    <glyph glyph-name="three.pof" horiz-adv-x="531" 
d="M102 -182v-1q-100 0 -170 34l44 175h19q0 -82 35 -125t96 -43q76 0 131.5 52t55.5 123q0 132 -153 159l6 22l25 10q81 33 130.5 82t49.5 100q0 81 -109 81q-58 0 -107 -30.5t-68 -88.5h-30q25 95 103.5 150t175.5 55q73 0 123.5 -34.5t50.5 -86.5q0 -106 -198 -188l-1 -3
q60 -23 99.5 -71.5t39.5 -106.5q0 -76 -54.5 -138.5t-133.5 -94.5t-160 -32z" />
    <glyph glyph-name="four.pof" horiz-adv-x="628" 
d="M380 -166h-126l41 166h-320l15 57l462 499h108l-115 -459h124l-25 -97h-123zM319 97l89 353l-328 -353h239z" />
    <glyph glyph-name="five.pof" horiz-adv-x="520" 
d="M106 -182q-100 0 -170 34l44 175h19q0 -82 35 -125t96 -43q76 0 129.5 47.5t53.5 123.5q0 31 -12.5 61t-39.5 60t-78.5 52.5t-120.5 32.5l193 320h322l-65 -116h-284l-61 -101q138 -24 208.5 -94t70.5 -160q0 -79 -52 -141.5t-129 -94t-159 -31.5z" />
    <glyph glyph-name="six.pof" horiz-adv-x="626" 
d="M587 307l1 -1q0 -131 -100 -225.5t-233 -94.5q-101 0 -160 61.5t-59 172.5q0 81 35.5 155t92.5 130.5t135 106t156.5 83t163.5 59.5l7 -25q-136 -45 -243 -133t-163 -204q87 93 198 93q76 0 122.5 -49t46.5 -129zM344 418q-79 0 -136 -53q-40 -93 -40 -197
q0 -145 94 -145q77 0 132.5 81t55.5 178q0 34 -8 62t-33 51t-65 23z" />
    <glyph glyph-name="seven.pof" horiz-adv-x="523" 
d="M36 440l29 116h508l-19 -75l-555 -668l-67 53l549 574h-445z" />
    <glyph glyph-name="eight.pof" horiz-adv-x="618" 
d="M14 162v-1q0 40 20.5 76t55 61.5t72 44t80.5 31.5q-97 81 -97 171q0 91 78 143.5t188 52.5q90 0 151 -39t61 -106q0 -116 -208 -185l4 -3q33 -24 48.5 -36t41 -35t37.5 -41t22 -43t10 -52q0 -57 -30 -100.5t-78.5 -67t-102 -35t-108.5 -11.5q-100 0 -172.5 48.5
t-72.5 126.5zM106 165v-1q0 -65 41 -103.5t120 -38.5q77 0 133 32t56 98q0 28 -17.5 55t-39.5 45.5t-67 52.5l-60 45l-4 2q-162 -64 -162 -187zM535 593q0 53 -35.5 82t-92.5 29q-66 0 -110 -29t-44 -80q0 -41 25 -71.5t74 -65.5l38 -29q70 29 107.5 67t37.5 97z" />
    <glyph glyph-name="nine.pof" horiz-adv-x="626" 
d="M49 253q0 130 100 225t233 95q101 0 160 -61.5t59 -172.5q0 -80 -35.5 -155t-93 -133t-135 -108.5t-156.5 -85.5t-163 -61l-7 25q136 44 244 136t164 213q-88 -95 -201 -95q-76 0 -122.5 49t-46.5 129zM293 141q79 0 136 53q40 93 40 197q0 145 -94 145q-77 0 -132.5 -81
t-55.5 -178q0 -34 8 -62t33 -51t65 -23z" />
    <glyph glyph-name="zero.pof" horiz-adv-x="664" 
d="M395 573q106 0 171.5 -67t65.5 -168q0 -93 -51 -175t-131 -129t-166 -47q-109 0 -174 67t-65 170q0 141 105.5 245t244.5 104zM293 24q48 0 87.5 33.5t62.5 86t35 110.5t12 113q0 169 -103 169q-63 0 -110.5 -53t-69.5 -128.5t-22 -157.5q0 -75 25 -124t83 -49z" />
    <glyph glyph-name="zero.slashed.pof" horiz-adv-x="664" 
d="M632 338q0 -93 -51 -175t-131 -129t-166 -47q-109 0 -174 67t-65 170q0 141 105.5 245t244.5 104q106 0 171.5 -67t65.5 -168zM293 24v1q81 0 130 84t63 198l-300 -79q-1 -11 -1 -31q0 -75 25 -124t83 -49zM387 537v-1q-80 0 -131 -77.5t-67 -189.5l300 79q0 4 0.5 10
t0.5 10q0 169 -103 169z" />
    <glyph glyph-name="one.tlf" 
d="M520 736h-2l-147 -590q-21 -76 -11 -98t79 -30l-5 -18h-341l5 19q47 4 68.5 8.5t38.5 20.5t23 34t18 63l117 467h-138l6 23q174 17 267 101h22z" />
    <glyph glyph-name="two.tlf" 
d="M1 0l1 1l4 14q200 148 313 253.5t148 165t35 113.5q0 53 -34.5 81t-84.5 28q-134 0 -176 -118h-30q24 95 101 150t179 55q75 0 130 -40t55 -107q0 -73 -50 -135t-215 -199q-116 -95 -183 -145h351l-30 -117h-514z" />
    <glyph glyph-name="three.tlf" 
d="M190 -13v-1q-100 0 -170 34l44 175h19q0 -82 35 -125t96 -43q76 0 131.5 52t55.5 123q0 132 -153 159l6 22l25 10q81 33 130.5 82t49.5 100q0 81 -109 81q-58 0 -107 -30.5t-68 -88.5h-30q25 95 103.5 150t175.5 55q73 0 123.5 -34.5t50.5 -86.5q0 -106 -198 -188l-1 -3
q60 -23 99.5 -71.5t39.5 -106.5q0 -76 -54.5 -138.5t-133.5 -94.5t-160 -32z" />
    <glyph glyph-name="four.tlf" 
d="M422 0h-127l45 184h-320l15 59l459 482h108l-109 -436h124l-27 -105h-123zM366 289l83 331l-315 -331h232z" />
    <glyph glyph-name="five.tlf" 
d="M154 405l193 320h322l-65 -116h-284l-61 -101q138 -24 208.5 -94t70.5 -160q0 -79 -52 -141.5t-129 -94t-159 -31.5q-100 0 -170 34l44 175h19q0 -82 35 -125t96 -43q76 0 129.5 47.5t53.5 123.5q0 31 -12.5 61t-39.5 60t-78.5 52.5t-120.5 32.5z" />
    <glyph glyph-name="six.tlf" 
d="M613 307l1 -1q0 -131 -100 -225.5t-233 -94.5q-101 0 -160 61.5t-59 172.5q0 81 35.5 155t92.5 130.5t135 106t156.5 83t163.5 59.5l7 -25q-136 -45 -243 -133t-163 -204q87 93 198 93q76 0 122.5 -49t46.5 -129zM370 418q-79 0 -136 -53q-40 -93 -40 -197
q0 -145 94 -145q77 0 132.5 81t55.5 178q0 34 -8 62t-33 51t-65 23z" />
    <glyph glyph-name="seven.tlf" 
d="M226 0h1h-149q24 88 70 168.5t97 139t124 118.5t129.5 97.5t135.5 85.5h-468l29 116h505l-29 -117q-91 -71 -155.5 -130t-126 -133.5t-102 -159.5t-61.5 -185z" />
    <glyph glyph-name="eight.tlf" 
d="M10 162v-1q0 40 20.5 76t55 61.5t72 44t80.5 31.5q-97 81 -97 171q0 91 78 143.5t188 52.5q90 0 151 -39t61 -106q0 -116 -208 -185l4 -3q33 -24 48.5 -36t41 -35t37.5 -41t22 -43t10 -52q0 -57 -30 -100.5t-78.5 -67t-102 -35t-108.5 -11.5q-100 0 -172.5 48.5
t-72.5 126.5zM102 165v-1q0 -65 41 -103.5t120 -38.5q77 0 133 32t56 98q0 28 -17.5 55t-39.5 45.5t-67 52.5l-60 45l-4 2q-162 -64 -162 -187zM531 593q0 53 -35.5 82t-92.5 29q-66 0 -110 -29t-44 -80q0 -41 25 -71.5t74 -65.5l38 -29q70 29 107.5 67t37.5 97z" />
    <glyph glyph-name="nine.tlf" 
d="M99 423q0 130 100 225t233 95q101 0 160 -61.5t59 -172.5q0 -80 -35.5 -155t-93 -133t-135 -108.5t-156.5 -85.5t-163 -61l-7 25q136 44 244 136t164 213q-88 -95 -201 -95q-76 0 -122.5 49t-46.5 129zM343 311q79 0 136 53q40 93 40 197q0 145 -94 145q-77 0 -132.5 -81
t-55.5 -178q0 -34 8 -62t33 -51t65 -23z" />
    <glyph glyph-name="zero.tlf" 
d="M268 23q57 0 108.5 60t84 146t51.5 176t19 156q0 146 -93 146q-58 0 -109.5 -59t-84 -145.5t-51 -175.5t-18.5 -157q0 -147 93 -147zM48 248q0 113 54 227.5t148 190.5t197 76q101 0 156 -72.5t55 -184.5q0 -114 -54 -229.5t-148 -192t-197 -76.5q-102 0 -156.5 73.5
t-54.5 187.5z" />
    <glyph glyph-name="zero.slashed.tlf" 
d="M48 248q0 113 54 227.5t148 190.5t197 76q101 0 156 -72.5t55 -184.5q0 -114 -54 -229.5t-148 -192t-197 -76.5q-102 0 -156.5 73.5t-54.5 187.5zM438 707q-65 0 -121 -74t-88 -170t-47 -197l346 237q3 32 3 58q0 146 -93 146zM268 23q61 0 116.5 71.5t88.5 166t48 192.5
l-344 -237q-2 -11 -2 -46q0 -147 93 -147z" />
    <glyph glyph-name="one.case" horiz-adv-x="515" 
d="M431 736l1 1l-150 -601q-14 -54 -14 -75q0 -22 13 -30t51 -14l-5 -17h-319l4 18q75 8 95 26t40 97l118 475h-137l6 20q180 18 275 100h22z" />
    <glyph glyph-name="two.case" horiz-adv-x="684" 
d="M667 575h-1q0 -50 -31.5 -101t-80 -95t-123 -92t-145 -85t-161.5 -81h437l-31 -121h-548l21 84q80 49 129.5 80t117 76.5t108 81.5t80 78.5t58 83.5t18.5 81q0 57 -34 86.5t-88 29.5q-73 0 -131 -45t-77 -129h-46q18 107 99.5 171t197.5 64q101 0 166 -43t65 -124z" />
    <glyph glyph-name="three.case" horiz-adv-x="673" 
d="M244 -13q-108 0 -202 50l39 213h19q0 -121 34.5 -173.5t124.5 -52.5q78 0 130.5 63.5t52.5 146.5q0 62 -38 101.5t-112 39.5h-22l13 34h15q81 0 143.5 42t62.5 114q0 56 -35.5 86t-91.5 30q-68 0 -125 -42.5t-80 -122.5l-43 7q27 103 108 161t188 58q96 0 164.5 -39.5
t68.5 -115.5q0 -72 -65 -119t-149 -63l-1 -2q66 -17 108 -62.5t42 -109.5q0 -81 -55.5 -138.5t-132 -81.5t-161.5 -24z" />
    <glyph glyph-name="four.case" horiz-adv-x="690" 
d="M423 0h-138l47 187h-347l18 76l482 462h118l-106 -426h123l-27 -112h-124zM360 299l82 327l-341 -327h259z" />
    <glyph glyph-name="five.case" horiz-adv-x="671" 
d="M241 -13h1q-114 0 -208 50l39 213h19q0 -119 33 -172.5t115 -53.5q88 0 145 75.5t57 163.5q0 74 -32.5 117t-95.5 43q-51 0 -96 -27t-74 -75l-43 15l142 389h431l-35 -118h-392l-80 -214q74 92 207 92q93 0 155 -54t62 -147q0 -87 -52 -156.5t-131.5 -105t-166.5 -35.5z
" />
    <glyph glyph-name="six.case" horiz-adv-x="647" 
d="M595 315v1q0 -131 -101 -229.5t-232 -98.5q-103 0 -164.5 63.5t-61.5 174.5q0 81 35.5 157t93 134.5t135 109t156 85.5t162.5 60l8 -30q-131 -41 -235 -133t-159 -211q86 96 194 96q76 0 122.5 -49t46.5 -130zM352 425q-72 0 -134 -59q-38 -97 -38 -196q0 -145 88 -145
q72 0 124 82.5t52 181.5q0 33 -6.5 61t-28.5 51.5t-57 23.5z" />
    <glyph glyph-name="seven.case" horiz-adv-x="608" 
d="M224 0h-155q64 380 551 607h-496l28 118h533l-28 -120q-89 -56 -158 -115t-129 -133t-97 -164t-49 -193z" />
    <glyph glyph-name="eight.case" horiz-adv-x="677" 
d="M39 161v1q0 41 20.5 76.5t56 61t72.5 43.5t79 31q-99 81 -99 173q0 89 78 142t192 53q91 0 152.5 -39.5t61.5 -105.5q0 -117 -205 -182l1 -1q41 -31 61.5 -48t49 -45.5t40.5 -57t12 -61.5q0 -58 -30.5 -101.5t-80.5 -67t-104 -35t-111 -11.5q-100 0 -173 48t-73 126z
M134 164v1q0 -63 41 -101t119 -38q76 0 131 30.5t55 96.5q0 28 -18.5 55.5t-37 43t-65.5 51.5l-61 48q-4 1 -6 3q-158 -64 -158 -190zM561 596q0 55 -34.5 83.5t-92.5 28.5q-65 0 -107 -27.5t-42 -77.5q0 -38 23 -67t72 -67l42 -34q139 60 139 161z" />
    <glyph glyph-name="nine.case" horiz-adv-x="647" 
d="M77 428q0 132 96 224t222 92q108 0 172.5 -67.5t64.5 -181.5q0 -79 -33 -153t-87 -132t-127 -108t-150 -84.5t-159 -58.5l-9 30q131 41 229.5 133t147.5 210q-82 -96 -189 -96q-79 0 -128.5 53t-49.5 139zM326 307l-1 -1q71 0 131 57q31 87 31 177q0 166 -96 166
q-68 0 -116 -77.5t-48 -176.5q0 -34 7.5 -64.5t31 -55.5t60.5 -25z" />
    <glyph glyph-name="zero.case" horiz-adv-x="739" 
d="M565 541q0 83 -26 124.5t-85 41.5q-52 0 -98 -38.5t-77 -97.5t-53.5 -130t-33 -136.5t-10.5 -116.5q0 -165 113 -165q64 0 118 57.5t85.5 141.5t49 168.5t17.5 150.5zM48 258q0 84 28.5 168.5t79 155.5t129.5 115.5t172 44.5q113 0 178.5 -73.5t65.5 -197.5
q0 -84 -28.5 -169t-79 -155.5t-130 -115t-171.5 -44.5q-113 0 -178.5 73.5t-65.5 197.5z" />
    <glyph glyph-name="zero.slashed.case" horiz-adv-x="739" 
d="M48 258q0 84 28.5 168.5t79 155.5t129.5 115.5t172 44.5q113 0 178.5 -73.5t65.5 -197.5q0 -84 -28.5 -169t-79 -155.5t-130 -115t-171.5 -44.5q-113 0 -178.5 73.5t-65.5 197.5zM565 541q0 83 -26 124.5t-85 41.5q-49 0 -92 -33t-74 -88.5t-53 -117t-36 -129.5l356 93
q10 59 10 109zM295 23h1q48 0 90.5 32t73 86.5t52 115t35.5 127.5l-357 -94q-8 -62 -8 -102q0 -165 113 -165z" />
    <glyph glyph-name="a.superior" horiz-adv-x="349" 
d="M144 431q-30 0 -49 24.5t-19 68.5q0 79 54.5 150.5t125.5 71.5q24 0 42 -12l90 12l-34 -128l-28 -114q-7 -35 12 -35q28 0 61 56l9 -5q-44 -89 -105 -89q-66 0 -66 62q0 16 1 24q-32 -86 -94 -86zM192 479h-1q9 0 20.5 15t26.5 53.5t30 95.5l17 70q-9 13 -22 13
q-35 0 -61 -72t-26 -137q0 -38 16 -38z" />
    <glyph glyph-name="b.superior" horiz-adv-x="327" 
d="M79 468h2l79 317q10 37 6.5 45.5t-30.5 10.5l3 9l142 40q-4 -15 -16 -57.5t-19 -68.5l-29 -105q33 87 95 87q31 0 49.5 -25t18.5 -69q0 -79 -54 -150t-125 -71q-69 0 -122 37zM189 534l-16 -68q2 -15 22 -15q35 0 61 71.5t26 137.5q0 37 -17 37q-34 0 -76 -163z" />
    <glyph glyph-name="c.superior" horiz-adv-x="279" 
d="M76 532h-1q0 87 55.5 150.5t126.5 63.5q87 0 78 -101h-81q6 19 8.5 27.5t5.5 24t-1.5 22.5t-15.5 7q-34 0 -56.5 -60t-22.5 -114q0 -61 44 -61q21 0 46 16t43 56l10 -4q-49 -128 -152 -128q-43 0 -65 27.5t-22 73.5z" />
    <glyph glyph-name="d.superior" horiz-adv-x="350" 
d="M292 737l12 48q9 42 4.5 48t-28.5 8l2 9l143 40q-9 -31 -34 -126l-65 -259q-8 -36 12 -36q28 0 61 56l9 -5q-44 -89 -105 -89q-63 0 -66 62q0 16 1 24q-32 -86 -94 -86q-30 0 -49 25t-19 69q0 78 54.5 149t125.5 71q23 0 36 -8zM192 479h-1q9 0 20 15.5t26 53.5t30 95
l18 70q-9 13 -22 13q-35 0 -61 -72t-26 -137q0 -38 16 -38z" />
    <glyph glyph-name="e.superior" horiz-adv-x="286" 
d="M76 532h-1q0 88 56 151t134 63q33 0 57 -15t24 -43q0 -52 -68 -69l-105 -27q-4 -20 -4 -41q0 -60 46 -60q57 0 90 72l11 -4q-49 -128 -152 -128q-43 0 -65.5 27.5t-22.5 73.5zM248 726q-23 0 -43 -35.5t-29 -81.5l20 6q69 20 69 86q0 25 -17 25z" />
    <glyph glyph-name="f.superior" horiz-adv-x="235" 
d="M75 438h-1l68 275h-44l7 28h44v1q17 65 66.5 97.5t113.5 32.5q20 0 31 -1l-20 -80h-6q-22 41 -37 48q-6 3 -12 3q-25 0 -38 -16.5t-10 -67.5l1 -17h83l-7 -28h-79l-68 -275h-92z" />
    <glyph glyph-name="g.superior" horiz-adv-x="340" 
d="M107 621l1 -1q0 48 46 86.5t113 38.5q14 0 36 -5h118l-6 -28l-71 3q20 -23 20 -51q0 -48 -46.5 -86.5t-113.5 -38.5q-24 0 -39 5q-2 -1 -7.5 -4t-8.5 -5.5t-7 -5.5t-6 -6.5t-2 -6.5q0 -8 27 -13l82 -12q107 -14 107 -70q0 -51 -62.5 -81t-139.5 -30q-50 0 -85 14t-35 41
q0 45 94 59q-48 15 -48 51q0 12 6 23t20 22t22 16t27 16q-42 23 -42 69zM211 411l-70 10h-5q-47 -14 -47 -50q0 -19 23.5 -29t56.5 -10q41 0 73.5 13.5t32.5 34.5q0 13 -14.5 19t-49.5 12zM286 681q0 45 -29 45q-30 0 -49.5 -38.5t-19.5 -85.5q0 -44 28 -44q31 0 50.5 38.5
t19.5 84.5z" />
    <glyph glyph-name="h.superior" horiz-adv-x="354" 
d="M245 764h-1l-34 -134q22 57 44.5 86.5t58.5 29.5q38 0 51 -29.5t-4 -102.5l-31 -111q-9 -34 11 -34q25 0 62 56l8 -5q-44 -89 -102 -89q-45 0 -59.5 25t1.5 95l23 77q18 70 -4 70q-17 0 -46 -65t-47 -143l-12 -52h-92l87 347q9 42 5 48q-6 6 -29 8l2 9l142 40
q-3 -13 -8 -31t-12.5 -46t-13.5 -49z" />
    <glyph glyph-name="i.superior" horiz-adv-x="197" 
d="M90 537l26 104q9 37 6 45.5t-31 10.5l3 9l142 40q-9 -31 -34 -126l-29 -117q-7 -34 12 -34q25 0 62 56l9 -5q-46 -89 -105 -89q-43 0 -59 24t-2 82zM263 833v-1q1 -25 -16 -42.5t-42 -18.5q-24 -1 -42 16.5t-19 41.5q-1 22 10.5 37.5t29 19.5t35 1t30.5 -17.5t14 -36.5z
" />
    <glyph glyph-name="j.superior" horiz-adv-x="203" 
d="M285 833l-1 -1q1 -25 -16 -42.5t-41 -18.5t-41.5 16.5t-18.5 41.5q-1 36 27.5 52t59 2t31.5 -50zM99 487l39 153q9 37 6 45.5t-31 10.5l2 9l143 40q-9 -31 -34 -126l-31 -123q-20 -84 -63.5 -124t-129.5 -74l-4 9q75 63 103 180z" />
    <glyph glyph-name="k.superior" horiz-adv-x="357" 
d="M77 438l-1 -1l86 347q11 37 8 46t-30 11l2 9l142 40q-9 -31 -34 -126l-81 -326h-92zM234 502l2 -1l-24 96l92 83q14 13 20.5 20.5t9 14.5t-3.5 10.5t-20 4.5l2 10h115l-2 -10q-42 -1 -93 -48l-42 -37l38 -135q7 -27 12.5 -35.5t17.5 -8.5q23 0 45 58l9 -4
q-26 -90 -96 -90q-63 0 -82 72z" />
    <glyph glyph-name="l.superior" horiz-adv-x="198" 
d="M89 537h-1l62 248q9 42 5 48q-6 6 -29 8l2 9l143 40q-9 -31 -34 -126l-66 -260q-9 -35 13 -35q28 0 61 56l9 -5q-44 -89 -105 -89q-44 0 -59 25t-1 81z" />
    <glyph glyph-name="m.superior" horiz-adv-x="513" 
d="M466 431l-2 -1q-45 0 -61 24t1 89l24 84q21 70 -5 70q-15 0 -45 -65.5t-48 -142.5l-13 -52h-89l47 190q18 70 -3 70q-16 0 -46 -64.5t-50 -143.5l-13 -52h-89l50 203q10 37 6.5 45.5t-30.5 10.5l2 9l142 40l-30 -116q22 57 44.5 86.5t59.5 29.5q35 0 49.5 -22.5
t3.5 -79.5q0 -3 -2 -13q11 29 18.5 45t20 35t28 27.5t35.5 8.5q83 0 47 -132l-31 -111q-9 -34 12 -34q26 0 63 56l8 -5q-44 -89 -104 -89z" />
    <glyph glyph-name="o.superior" horiz-adv-x="330" 
d="M288 663q0 63 -31 63q-39 0 -63 -65.5t-24 -148.5q0 -62 31 -62q39 0 63 64.5t24 148.5zM76 553q0 75 54.5 134t134.5 59q52 0 84.5 -34t32.5 -91q0 -74 -54.5 -132t-135.5 -58q-51 0 -83.5 33t-32.5 89z" />
    <glyph glyph-name="p.superior" horiz-adv-x="329" 
d="M242 746l-23 -87q33 88 93 88q31 0 50 -25.5t19 -69.5q0 -78 -54.5 -149.5t-124.5 -71.5q-21 0 -37 8l-30 -123h-92l81 325q9 37 6 45.5t-31 10.5l3 9zM189 534l-18 -71q11 -12 24 -12q35 0 61 71.5t26 137.5q0 37 -17 37q-34 0 -76 -163z" />
    <glyph glyph-name="q.superior" horiz-adv-x="333" 
d="M188 316l50 203q-32 -88 -94 -88q-30 0 -49 25t-19 69q0 78 54.5 149.5t125.5 71.5q22 0 41 -12l89 12q-4 -14 -14.5 -55.5t-18.5 -70.5l-73 -304h-92zM192 479q9 0 20 15.5t26 54t30 95.5l17 70q-9 12 -22 12q-35 0 -61 -72t-26 -137q0 -38 16 -38z" />
    <glyph glyph-name="r.superior" horiz-adv-x="252" 
d="M241 746h3l-19 -84q16 30 47 57.5t60 27.5l2 -1q1 0 3 -0.5t4 -0.5l-23 -92h-4q-16 13 -45 13q-32 0 -50 -18l-52 -210h-92l51 203q9 37 6 45.5t-31 10.5l3 9z" />
    <glyph glyph-name="s.superior" horiz-adv-x="284" 
d="M310 542v2q0 -51 -48 -81t-103 -30q-58 0 -95 21l35 130h11q-10 -129 54 -129q26 0 45.5 12.5t19.5 33.5q0 25 -36 48l-21 13q-57 37 -57 88q0 45 40.5 70.5t90.5 25.5q62 0 93 -18l-27 -100h-9q0 45 -17.5 71t-46.5 26q-23 0 -36 -11t-13 -26q0 -22 25 -39l32 -21
q34 -22 48.5 -41t14.5 -45z" />
    <glyph glyph-name="t.superior" horiz-adv-x="238" 
d="M92 537h-1l44 176h-45l7 28h47l11 42l105 59l-25 -101h81l-7 -28h-82l-52 -210q-7 -34 15 -34q15 0 34 16.5t32 39.5l9 -5q-45 -89 -109 -89q-89 0 -64 106z" />
    <glyph glyph-name="u.superior" horiz-adv-x="359" 
d="M102 563l23 78q10 37 6.5 45.5t-31.5 10.5l2 9l142 40l-54 -198q-18 -69 3 -69q18 0 45 61.5t51 145.5l15 55h86l-61 -238q-7 -34 11 -34q25 0 62 56l8 -5q-44 -89 -97 -89q-34 0 -52.5 15.5t-17.5 50.5q9 43 11 50q-22 -56 -45 -86t-59 -30t-51 29t3 103z" />
    <glyph glyph-name="v.superior" horiz-adv-x="304" 
d="M127 438l-23 259q-1 18 -5 23.5t-21 11.5l2 9h162l-2 -9q-28 -6 -34 -13t-4 -29l10 -184l84 155q22 37 21 51.5t-27 19.5l2 9h100l-2 -9q-24 -6 -31.5 -13t-26.5 -39l-132 -242h-73z" />
    <glyph glyph-name="w.superior" horiz-adv-x="459" 
d="M284 438l-2 -3v217l-86 -217h-85l-10 259q0 18 -4 24.5t-21 11.5l2 9h162l-2 -9q-28 -6 -33.5 -12t-5.5 -29l-1 -184l91 235h81v-235l77 155q21 40 21 53.5t-24 18.5l2 9h100l-2 -9q-26 -6 -35 -13.5t-24 -38.5l-122 -242h-79z" />
    <glyph glyph-name="x.superior" horiz-adv-x="321" 
d="M263 622h1l59 -140q13 -29 38 -34l-2 -10h-155l2 10q20 2 22.5 10.5t-7.5 30.5l-25 59l-44 -48q-33 -39 -28 -46q4 -4 20 -6l-2 -10h-111l2 10q43 1 107 71l47 51l-52 126q-6 13 -12 20.5t-11 9.5t-15 4l2 10h154l-2 -10q-22 -2 -24.5 -9.5t8.5 -31.5l19 -45l31 34
q16 18 21.5 29t0.5 16.5t-21 7.5l3 10h117l-2 -10q-43 -4 -107 -72z" />
    <glyph glyph-name="y.superior" horiz-adv-x="321" 
d="M339 676l1 -2l-128 -245q-37 -69 -71.5 -93t-75.5 -24q-22 0 -40 6l19 81h4q21 -18 62 -18q47 0 61 26l5 9l-58 279q0 2 -1 6.5t-1.5 6t-1.5 5t-2 5t-3 4t-4.5 4t-6 3t-8.5 2.5l2 9h154l-2 -9q-21 -4 -26.5 -11.5t-1.5 -30.5l27 -153l64 124q11 22 15 35t-1 23t-22 13
l3 9h102l-2 -9q-26 -6 -36 -14.5t-27 -40.5z" />
    <glyph glyph-name="z.superior" horiz-adv-x="341" 
d="M210 438h-160v5l234 271h-18q-52 0 -81.5 -21t-55.5 -79h-12l45 128q35 -1 107 -1h138l-1 -6l-234 -270h41q52 0 81.5 21t55.5 79h12l-45 -128q-35 1 -107 1z" />
    <glyph glyph-name="zero.slashed.superior" horiz-adv-x="402" 
d="M89 594q0 102 73 182t157 80q58 0 94 -44t36 -116q0 -101 -73.5 -183t-158.5 -82q-57 0 -92.5 44.5t-35.5 118.5zM316 837v-1q-34 0 -63 -41t-46 -95.5t-26 -115.5l173 120q5 38 5 64q0 69 -43 69zM220 449q31 0 58.5 35.5t44.5 84.5t27 106l-172 -118q-1 -15 -1 -38
q0 -70 43 -70z" />
    <glyph glyph-name="period.superior" horiz-adv-x="196" 
d="M148 431q-22 0 -37 15t-15 37q0 23 15 38.5t37 15.5q23 0 38.5 -15.5t15.5 -38.5q0 -22 -15.5 -37t-38.5 -15z" />
    <glyph glyph-name="hyphen.superior" horiz-adv-x="207" 
d="M89 566l13 51h145l-13 -51h-145z" />
    <glyph glyph-name="comma.superior" horiz-adv-x="197" 
d="M148 432q-23 1 -37 15t-14 37q0 22 15 37.5t38 15.5q24 0 38 -16.5t14 -42.5q0 -54 -46 -97t-97 -60l-4 9q19 11 29 18t28 21.5t27 30t9 32.5z" />
    <glyph glyph-name="a.inferior" horiz-adv-x="349" 
d="M34 -135q-30 0 -49 24.5t-19 68.5q0 79 54.5 150.5t125.5 71.5q24 0 42 -12l90 12l-34 -128l-28 -114q-7 -35 12 -35q28 0 61 56l9 -5q-44 -89 -105 -89q-66 0 -66 62q0 16 1 24q-32 -86 -94 -86zM82 -87h-1q9 0 20.5 15t26.5 53.5t30 95.5l17 70q-9 13 -22 13
q-35 0 -61 -72t-26 -137q0 -38 16 -38z" />
    <glyph glyph-name="b.inferior" horiz-adv-x="327" 
d="M-31 -98h2l79 317q10 37 6.5 45.5t-30.5 10.5l3 9l142 40q-4 -15 -16 -57.5t-19 -68.5l-29 -105q33 87 95 87q31 0 49.5 -25t18.5 -69q0 -79 -54 -150t-125 -71q-69 0 -122 37zM79 -32l-16 -68q2 -15 22 -15q35 0 61 71.5t26 137.5q0 37 -17 37q-34 0 -76 -163z" />
    <glyph glyph-name="c.inferior" horiz-adv-x="279" 
d="M-34 -34h-1q0 87 55.5 150.5t126.5 63.5q87 0 78 -101h-81q6 19 8.5 27.5t5.5 24t-1.5 22.5t-15.5 7q-34 0 -56.5 -60t-22.5 -114q0 -61 44 -61q21 0 46 16t43 56l10 -4q-49 -128 -152 -128q-43 0 -65 27.5t-22 73.5z" />
    <glyph glyph-name="d.inferior" horiz-adv-x="350" 
d="M182 171l12 48q9 42 5 48q-6 6 -29 8l2 9l143 40q-9 -31 -34 -126l-65 -259q-8 -36 12 -36q28 0 61 56l9 -5q-44 -89 -105 -89q-63 0 -66 62q0 16 1 24q-32 -86 -94 -86q-30 0 -49 25t-19 69q0 78 54.5 149t125.5 71q23 0 36 -8zM82 -87h-1q9 0 20 15.5t26 53.5t30 95
l18 70q-9 13 -22 13q-35 0 -61 -72t-26 -137q0 -38 16 -38z" />
    <glyph glyph-name="e.inferior" horiz-adv-x="286" 
d="M-34 -34h-1q0 88 56 151t134 63q33 0 57 -15t24 -43q0 -52 -68 -69l-105 -27q-4 -20 -4 -41q0 -60 46 -60q57 0 90 72l11 -4q-49 -128 -152 -128q-43 0 -65.5 27.5t-22.5 73.5zM138 160q-23 0 -43 -35.5t-29 -81.5l20 6q69 20 69 86q0 25 -17 25z" />
    <glyph glyph-name="f.inferior" horiz-adv-x="235" 
d="M-35 -128h-1l68 275h-44l7 28h44v1q17 65 66.5 97.5t113.5 32.5q20 0 31 -1l-20 -80h-6q-1 1 -2 4q-22 41 -39 46q-4 1 -8 1q-25 0 -38 -16.5t-10 -67.5l1 -17h83l-7 -28h-79l-68 -275h-92z" />
    <glyph glyph-name="g.inferior" horiz-adv-x="340" 
d="M-3 55l1 -1q0 48 46 86.5t113 38.5q14 0 36 -5h118l-6 -28l-71 3q20 -23 20 -51q0 -48 -46.5 -86.5t-113.5 -38.5q-24 0 -39 5q-2 -1 -7.5 -4t-8.5 -5.5t-7 -5.5t-6 -6.5t-2 -6.5q0 -8 27 -13l82 -12q107 -14 107 -70q0 -51 -62.5 -81t-139.5 -30q-50 0 -85 14t-35 41
q0 45 94 59q-48 15 -48 51q0 12 6 23t20 22t22 16t27 16q-42 23 -42 69zM101 -155l-70 10h-5q-47 -14 -47 -50q0 -19 23.5 -29t56.5 -10q41 0 73.5 13.5t32.5 34.5q0 13 -14.5 19t-49.5 12zM176 115q0 45 -29 45q-30 0 -49.5 -38.5t-19.5 -85.5q0 -44 28 -44q31 0 50.5 38.5
t19.5 84.5z" />
    <glyph glyph-name="h.inferior" horiz-adv-x="354" 
d="M135 198h-1l-34 -134q22 57 44.5 86.5t58.5 29.5q38 0 51 -29.5t-4 -102.5l-31 -111q-9 -34 11 -34q25 0 62 56l8 -5q-44 -89 -102 -89q-45 0 -59.5 25t1.5 95l23 77q18 70 -4 70q-17 0 -46 -65t-47 -143l-12 -52h-92l87 347q9 42 4.5 48t-28.5 8l2 9l142 40
q-3 -13 -8 -31t-12.5 -46t-13.5 -49z" />
    <glyph glyph-name="i.inferior" horiz-adv-x="197" 
d="M-20 -29l26 104q9 37 6 45.5t-31 10.5l3 9l142 40q-9 -31 -34 -126l-29 -117q-7 -34 12 -34q25 0 62 56l9 -5q-46 -89 -105 -89q-43 0 -59 24t-2 82zM153 267v-1q1 -25 -16 -42.5t-42 -18.5q-24 -1 -42 16.5t-19 41.5q-1 22 10.5 37.5t29 19.5t35 1t30.5 -17.5t14 -36.5z
" />
    <glyph glyph-name="j.inferior" horiz-adv-x="203" 
d="M175 267l-1 -1q1 -25 -16 -42.5t-41 -18.5t-41.5 16.5t-18.5 41.5q-1 36 27.5 52t59 2t31.5 -50zM-11 -79l39 153q9 37 6 45.5t-31 10.5l2 9l143 40q-9 -31 -34 -126l-31 -123q-20 -84 -63.5 -124t-129.5 -74l-4 9q75 63 103 180z" />
    <glyph glyph-name="k.inferior" horiz-adv-x="357" 
d="M-33 -128l-1 -1l86 347q11 37 8 46t-30 11l2 9l142 40q-9 -31 -34 -126l-81 -326h-92zM124 -64l2 -1l-24 96l92 83q14 13 20.5 20.5t9 14.5t-3.5 10.5t-20 4.5l2 10h115l-2 -10q-42 -1 -93 -48l-42 -37l38 -135q7 -27 12.5 -35.5t17.5 -8.5q23 0 45 58l9 -4
q-26 -90 -96 -90q-63 0 -82 72z" />
    <glyph glyph-name="l.inferior" horiz-adv-x="198" 
d="M-21 -29h-1l62 248q9 42 4.5 48t-28.5 8l2 9l143 40q-9 -31 -34 -126l-66 -260q-9 -35 13 -35q28 0 61 56l9 -5q-44 -89 -105 -89q-44 0 -59 25t-1 81z" />
    <glyph glyph-name="m.inferior" horiz-adv-x="513" 
d="M356 -135l-2 -1q-45 0 -61 24t1 89l24 84q21 70 -5 70q-15 0 -45 -65.5t-48 -142.5l-13 -52h-89l47 190q18 70 -3 70q-16 0 -46 -64.5t-50 -143.5l-13 -52h-89l50 203q10 37 6.5 45.5t-30.5 10.5l2 9l142 40l-30 -116q22 57 44.5 86.5t59.5 29.5q35 0 49.5 -22.5
t3.5 -79.5q0 -3 -2 -13q11 29 18.5 45t20 35t28 27.5t35.5 8.5q83 0 47 -132l-31 -111q-9 -34 12 -34q26 0 63 56l8 -5q-44 -89 -104 -89z" />
    <glyph glyph-name="n.inferior" horiz-adv-x="358" 
d="M135 180h-1l-30 -116q22 57 44.5 86.5t58.5 29.5q38 0 51 -29.5t-4 -102.5l-31 -111q-9 -34 11 -34q25 0 62 56l8 -5q-44 -89 -102 -89q-45 0 -59.5 25t1.5 95l23 77q18 70 -4 70q-17 0 -44 -62t-50 -146l-15 -52h-89l50 203q9 37 6 45.5t-31 10.5l2 9z" />
    <glyph glyph-name="o.inferior" horiz-adv-x="330" 
d="M178 97q0 63 -31 63q-39 0 -63 -65.5t-24 -148.5q0 -62 31 -62q39 0 63 64.5t24 148.5zM-34 -13q0 75 54.5 134t134.5 59q52 0 84.5 -34t32.5 -91q0 -74 -54.5 -132t-135.5 -58q-51 0 -83.5 33t-32.5 89z" />
    <glyph glyph-name="p.inferior" horiz-adv-x="329" 
d="M132 180l-23 -87q33 88 93 88q31 0 50 -25.5t19 -69.5q0 -78 -54.5 -149.5t-124.5 -71.5q-21 0 -37 8l-30 -123h-92l81 325q9 37 6 45.5t-31 10.5l3 9zM79 -32l-18 -71q11 -12 24 -12q35 0 61 71.5t26 137.5q0 37 -17 37q-34 0 -76 -163z" />
    <glyph glyph-name="q.inferior" horiz-adv-x="333" 
d="M78 -250l50 203q-32 -88 -94 -88q-30 0 -49 25t-19 69q0 78 54.5 149.5t125.5 71.5q22 0 41 -12l89 12q-4 -14 -14.5 -55.5t-18.5 -70.5l-73 -304h-92zM82 -87q9 0 20 15.5t26 54t30 95.5l17 70q-9 12 -22 12q-35 0 -61 -72t-26 -137q0 -38 16 -38z" />
    <glyph glyph-name="r.inferior" horiz-adv-x="252" 
d="M131 180h3l-19 -84q16 30 47 57.5t60 27.5l2 -1q1 0 3 -0.5t4 -0.5l-23 -92h-4q-16 13 -45 13q-32 0 -50 -18l-52 -210h-92l51 203q9 37 6 45.5t-31 10.5l3 9z" />
    <glyph glyph-name="s.inferior" horiz-adv-x="284" 
d="M200 -24v2q0 -51 -48 -81t-103 -30q-58 0 -95 21l35 130h11q-10 -129 54 -129q26 0 45.5 12.5t19.5 33.5q0 25 -36 48l-21 13q-57 37 -57 88q0 45 40.5 70.5t90.5 25.5q62 0 93 -18l-27 -100h-9q0 45 -17.5 71t-46.5 26q-23 0 -36 -11t-13 -26q0 -22 25 -39l32 -21
q34 -22 48.5 -41t14.5 -45z" />
    <glyph glyph-name="t.inferior" horiz-adv-x="238" 
d="M-18 -29h-1l44 176h-45l7 28h47l11 42l105 59l-25 -101h81l-7 -28h-82l-52 -210q-7 -34 15 -34q15 0 34 16.5t32 39.5l9 -5q-45 -89 -109 -89q-89 0 -64 106z" />
    <glyph glyph-name="u.inferior" horiz-adv-x="359" 
d="M-8 -3l23 78q10 37 6.5 45.5t-31.5 10.5l2 9l142 40l-54 -198q-18 -69 3 -69q18 0 45 61.5t51 145.5l15 55h86l-61 -238q-7 -34 11 -34q25 0 62 56l8 -5q-44 -89 -97 -89q-34 0 -52.5 15.5t-17.5 50.5q9 43 11 50q-22 -56 -45 -86t-59 -30t-51 29t3 103z" />
    <glyph glyph-name="v.inferior" horiz-adv-x="304" 
d="M17 -128l-23 259q-1 18 -5 23.5t-21 11.5l2 9h162l-2 -9q-28 -6 -34 -13t-4 -29l10 -184l84 155q22 37 21 51.5t-27 19.5l2 9h100l-2 -9q-24 -6 -31.5 -13t-26.5 -39l-132 -242h-73z" />
    <glyph glyph-name="w.inferior" horiz-adv-x="459" 
d="M174 -128l-2 -3v217l-86 -217h-85l-10 259q0 18 -4 24.5t-21 11.5l2 9h162l-2 -9q-28 -6 -33.5 -12t-5.5 -29l-1 -184l91 235h81v-235l77 155q21 40 21 53.5t-24 18.5l2 9h100l-2 -9q-26 -6 -35 -13.5t-24 -38.5l-122 -242h-79z" />
    <glyph glyph-name="x.inferior" horiz-adv-x="321" 
d="M153 56h1l59 -140q13 -29 38 -34l-2 -10h-155l2 10q20 2 22.5 10.5t-7.5 30.5l-25 59l-44 -48q-33 -39 -28 -46q4 -4 20 -6l-2 -10h-111l2 10q43 1 107 71l47 51l-52 126q-6 13 -12 20.5t-11 9.5t-15 4l2 10h154l-2 -10q-22 -2 -24.5 -9.5t8.5 -31.5l19 -45l31 34
q16 18 21.5 29t0.5 16.5t-21 7.5l3 10h117l-2 -10q-43 -4 -107 -72z" />
    <glyph glyph-name="y.inferior" horiz-adv-x="321" 
d="M229 110l1 -2l-128 -245q-37 -69 -71.5 -93t-75.5 -24q-22 0 -40 6l19 81h4q21 -18 62 -18q47 0 61 26l5 9l-58 279q0 2 -1 6.5t-1.5 6t-1.5 5t-2 5t-3 4t-4.5 4t-6 3t-8.5 2.5l2 9h154l-2 -9q-21 -4 -26.5 -11.5t-1.5 -30.5l27 -153l64 124q11 22 15 35t-1 23t-22 13
l3 9h102l-2 -9q-26 -6 -36 -14.5t-27 -40.5z" />
    <glyph glyph-name="z.inferior" horiz-adv-x="341" 
d="M100 -128h-160v5l234 271h-18q-52 0 -81.5 -21t-55.5 -79h-12l45 128q35 -1 107 -1h138l-1 -6l-234 -270h41q52 0 81.5 21t55.5 79h12l-45 -128q-35 1 -107 1z" />
    <glyph glyph-name="zero.slashed.inferior" horiz-adv-x="402" 
d="M-21 28q0 102 73 182t157 80q58 0 94 -44t36 -116q0 -101 -73.5 -183t-158.5 -82q-57 0 -92.5 44.5t-35.5 118.5zM206 271v-1q-49 0 -85 -77t-50 -175l173 120q5 38 5 64q0 69 -43 69zM110 -117q31 0 58.5 35.5t44.5 84.5t27 106l-172 -118q-1 -15 -1 -38q0 -70 43 -70z
" />
    <glyph glyph-name="period.inferior" horiz-adv-x="196" 
d="M38 -135q-22 0 -37 15t-15 37q0 23 15 38.5t37 15.5q23 0 38.5 -15.5t15.5 -38.5q0 -22 -15.5 -37t-38.5 -15z" />
    <glyph glyph-name="hyphen.inferior" horiz-adv-x="207" 
d="M-21 0l13 51h145l-13 -51h-145z" />
    <glyph glyph-name="comma.inferior" horiz-adv-x="197" 
d="M38 -134q-23 1 -37 15t-14 37q0 22 15 37.5t38 15.5q24 0 38 -16.5t14 -42.5q0 -54 -46 -97t-97 -60l-4 9q19 11 29 18t28 21.5t27 30t9 32.5z" />
    <glyph glyph-name="equal.inferior" horiz-adv-x="382" 
d="M284 66h-278v42h278v-42zM284 -50h-278v42h278v-42z" />
    <glyph glyph-name="plus.inferior" horiz-adv-x="382" 
d="M168 -128h-46v133h-133v43h133v127h46v-127h132v-43h-132v-133z" />
    <glyph glyph-name="minus.inferior" horiz-adv-x="382" 
d="M-5 48h300v-43h-300v43z" />
    <glyph glyph-name="one.numerator" horiz-adv-x="290" 
d="M293 733l-1 -2l-85 -340q-9 -42 -5 -51.5t29 -13.5l-2 -10h-189l3 10q38 2 50.5 14.5t24.5 57.5l66 267h-74l3 11q108 13 168 57h12z" />
    <glyph glyph-name="two.numerator" horiz-adv-x="332" 
d="M-12 317h-1l1 7q15 12 44 35q66 52 96.5 77.5t68 62.5t52 66t14.5 58t-17 45t-45 16q-71 0 -96 -65h-18q38 116 164 116q49 0 79.5 -23t30.5 -62q0 -42 -36.5 -83t-111.5 -94q1 0 -25 -18.5t-52.5 -37t-25.5 -18.5h193l-20 -82h-295z" />
    <glyph glyph-name="three.numerator" horiz-adv-x="329" 
d="M113 311l-1 -1q-56 0 -99 17l25 102h10q4 -95 74 -95q40 0 71 30.5t31 72.5q0 29 -19.5 53t-64.5 32l4 12l13 6q50 18 73.5 48.5t23.5 52.5q0 41 -54 43q-74 0 -98 -65h-18q18 56 63.5 86t104.5 30q41 0 70.5 -18t29.5 -49q0 -16 -9 -30.5t-18.5 -24t-28.5 -19.5
t-27.5 -13.5l-25.5 -10.5l-1 -2q82 -32 82 -103q0 -70 -65.5 -112t-145.5 -42z" />
    <glyph glyph-name="four.numerator" horiz-adv-x="382" 
d="M284 317h-93l25 100h-193l17 68l263 240h82l-58 -233h70l-18 -75h-70zM234 492l45 178l-196 -178h151z" />
    <glyph glyph-name="five.numerator" horiz-adv-x="316" 
d="M72 528h1l120 197h184l-43 -81h-166l-24 -39q80 -11 123 -47t43 -90q0 -64 -61.5 -110.5t-137.5 -46.5q-55 0 -98 17l25 102h10q4 -95 74 -95q38 0 65.5 26.5t27.5 64.5q0 43 -36.5 70.5t-106.5 31.5z" />
    <glyph glyph-name="six.numerator" horiz-adv-x="377" 
d="M384 499h-2q0 -76 -56.5 -132.5t-129.5 -56.5q-63 0 -100.5 37t-37.5 102q0 57 30 108.5t79.5 88.5t105 63.5t114.5 42.5l3 -18q-72 -22 -125 -73t-81 -117q48 56 106 56q42 0 68 -26.5t26 -74.5zM238 556q-30 0 -63 -33q-20 -58 -20 -110q0 -82 42 -82q33 0 58.5 46
t25.5 103q0 76 -43 76z" />
    <glyph glyph-name="seven.numerator" horiz-adv-x="350" 
d="M173 317h1h-103q10 59 40.5 111.5t75 92.5t93.5 70.5t105 52.5h-287l19 81h309l-19 -82q-213 -122 -234 -326z" />
    <glyph glyph-name="eight.numerator" horiz-adv-x="371" 
d="M47 406v-1q0 44 38 74t88 45q-58 49 -58 103q0 46 44.5 77t113.5 31q54 0 89 -22t35 -60q0 -37 -34 -61.5t-78 -37.5q3 -2 17 -13.5t17.5 -14.5t15 -13.5t15 -15t11 -14.5t10 -17t5 -16t2.5 -19q0 -43 -32 -71.5t-73 -39t-87 -10.5q-57 0 -98 27t-41 69zM103 404
q0 -33 22.5 -53.5t66.5 -20.5q100 0 100 66q0 15 -10.5 30.5t-20 24t-32.5 27.5l-36 30l-6 4q-84 -41 -84 -108zM342 649q0 64 -70 64q-34 0 -56 -13.5t-22 -39.5q0 -35 47 -72l31 -25q70 37 70 86z" />
    <glyph glyph-name="nine.numerator" horiz-adv-x="364" 
d="M74 547v-1q0 76 57.5 132.5t128.5 56.5q62 0 99.5 -37t37.5 -102q0 -57 -29.5 -108.5t-78.5 -88.5t-104 -63t-114 -42l-4 17q73 22 125.5 73t80.5 118q-48 -56 -105 -56q-42 0 -68 26.5t-26 74.5zM219 489h-1q28 0 63 32q20 58 20 111q0 81 -42 81q-33 0 -58.5 -45.5
t-25.5 -102.5q0 -76 44 -76z" />
    <glyph glyph-name="zero.numerator" horiz-adv-x="402" 
d="M194 329q31 0 58 34t44 84t27 103.5t10 96.5q0 69 -43 69q-41 0 -74 -57t-49 -128.5t-16 -131.5q0 -70 43 -70zM63 473q0 102 73 182t157 80q58 0 94 -44t36 -116q0 -101 -73.5 -183t-158.5 -82q-57 0 -92.5 44.5t-35.5 118.5z" />
    <glyph glyph-name="zero.slashed.numerator" horiz-adv-x="402" 
d="M63 473q0 102 73 182t157 80q58 0 94 -44t36 -116q0 -101 -73.5 -183t-158.5 -82q-57 0 -92.5 44.5t-35.5 118.5zM290 716v-1q-34 0 -63 -41t-46 -95.5t-26 -115.5l173 120q5 38 5 64q0 69 -43 69zM194 328q31 0 58.5 35.5t44.5 84.5t27 106l-172 -118q-1 -15 -1 -38
q0 -70 43 -70z" />
    <glyph glyph-name="one.denominator" horiz-adv-x="290" 
d="M227 416l-1 -2l-85 -340q-9 -42 -5 -51.5t29 -13.5l-2 -10h-189l3 10q38 2 50.5 14.5t24.5 57.5l66 267h-74l3 11q108 13 168 57h12z" />
    <glyph glyph-name="two.denominator" horiz-adv-x="332" 
d="M-78 0h-1l1 7q15 12 44 35q66 52 96.5 77.5t68 62.5t52 66t14.5 58t-17 45t-45 16q-71 0 -96 -65h-18q38 116 164 116q49 0 79.5 -23t30.5 -62q0 -42 -36.5 -83t-111.5 -94q1 0 -25 -18.5t-52.5 -37t-25.5 -18.5h193l-20 -82h-295z" />
    <glyph glyph-name="three.denominator" horiz-adv-x="329" 
d="M47 -6l-1 -1q-56 0 -99 17l25 102h10q4 -95 74 -95q40 0 71 30.5t31 72.5q0 29 -19.5 53t-64.5 32l4 12l13 6q50 18 73.5 48.5t23.5 52.5q0 41 -54 43q-74 0 -98 -65h-18q18 56 63.5 86t104.5 30q41 0 70.5 -18t29.5 -49q0 -16 -9 -30.5t-18.5 -24t-28.5 -19.5
t-27.5 -13.5l-25.5 -10.5l-1 -2q82 -32 82 -103q0 -70 -65.5 -112t-145.5 -42z" />
    <glyph glyph-name="four.denominator" horiz-adv-x="382" 
d="M218 0h-93l25 100h-193l17 68l263 240h82l-58 -233h70l-18 -75h-70zM168 175l45 178l-196 -178h151z" />
    <glyph glyph-name="five.denominator" horiz-adv-x="316" 
d="M6 211h1l120 197h184l-43 -81h-166l-24 -39q80 -11 123 -47t43 -90q0 -64 -61.5 -110.5t-137.5 -46.5q-55 0 -98 17l25 102h10q4 -95 74 -95q38 0 65.5 26.5t27.5 64.5q0 43 -36.5 70.5t-106.5 31.5z" />
    <glyph glyph-name="six.denominator" horiz-adv-x="377" 
d="M318 182h-2q0 -76 -56.5 -132.5t-129.5 -56.5q-63 0 -100.5 37t-37.5 102q0 57 30 108.5t79.5 88.5t105 63.5t114.5 42.5l3 -18q-72 -22 -125 -73t-81 -117q48 56 106 56q42 0 68 -26.5t26 -74.5zM172 239q-30 0 -63 -33q-20 -58 -20 -110q0 -82 42 -82q33 0 58.5 46
t25.5 103q0 76 -43 76z" />
    <glyph glyph-name="seven.denominator" horiz-adv-x="350" 
d="M107 0h1h-103q10 59 40.5 111.5t75 92.5t93.5 70.5t105 52.5h-287l19 81h309l-19 -82q-213 -122 -234 -326z" />
    <glyph glyph-name="eight.denominator" horiz-adv-x="371" 
d="M-19 89v-1q0 44 38 74t88 45q-58 49 -58 103q0 46 44.5 77t113.5 31q54 0 89 -22t35 -60q0 -37 -34 -61.5t-78 -37.5q3 -2 17 -13.5t17.5 -14.5t15 -13.5t15 -15t11 -14.5t10 -17t5 -16t2.5 -19q0 -43 -32 -71.5t-73 -39t-87 -10.5q-57 0 -98 27t-41 69zM37 87
q0 -33 22.5 -53.5t66.5 -20.5q100 0 100 66q0 15 -10.5 30.5t-20 24t-32.5 27.5l-36 30l-6 4q-84 -41 -84 -108zM276 332q0 64 -70 64q-34 0 -56 -13.5t-22 -39.5q0 -35 47 -72l31 -25q70 37 70 86z" />
    <glyph glyph-name="nine.denominator" horiz-adv-x="364" 
d="M8 230v-1q0 76 57.5 132.5t128.5 56.5q62 0 99.5 -37t37.5 -102q0 -57 -29.5 -108.5t-78.5 -88.5t-104 -63t-114 -42l-4 17q73 22 125.5 73t80.5 118q-48 -56 -105 -56q-42 0 -68 26.5t-26 74.5zM153 172h-1q28 0 63 32q20 58 20 111q0 81 -42 81q-33 0 -58.5 -45.5
t-25.5 -102.5q0 -76 44 -76z" />
    <glyph glyph-name="zero.denominator" horiz-adv-x="402" 
d="M128 12q31 0 58 34t44 84t27 103.5t10 96.5q0 69 -43 69q-41 0 -74 -57t-49 -128.5t-16 -131.5q0 -70 43 -70zM-3 156q0 102 73 182t157 80q58 0 94 -44t36 -116q0 -101 -73.5 -183t-158.5 -82q-57 0 -92.5 44.5t-35.5 118.5z" />
    <glyph glyph-name="zero.slashed.denominator" horiz-adv-x="402" 
d="M-3 156q0 102 73 182t157 80q58 0 94 -44t36 -116q0 -101 -73.5 -183t-158.5 -82q-57 0 -92.5 44.5t-35.5 118.5zM224 399v-1q-34 0 -63 -41t-46 -95.5t-26 -115.5l173 120q5 38 5 64q0 69 -43 69zM128 11q31 0 58.5 35.5t44.5 84.5t27 106l-172 -118q-1 -15 -1 -38
q0 -70 43 -70z" />
    <glyph glyph-name="ampersand.case" horiz-adv-x="776" 
d="M39 180l-1 -1q0 100 76 161.5t191 86.5q-38 74 -38 132q0 62 36.5 105.5t87.5 61t110 17.5q76 0 125 -32t49 -81q0 -37 -21 -69.5t-57 -55t-70 -37.5t-73 -27h1l140 -203q59 93 73 227h99q-20 -76 -57 -133.5t-95 -120.5l100 -143l-114 -84l-79 118q-65 -61 -123.5 -88
t-131.5 -27q-99 0 -163.5 55.5t-64.5 137.5zM331 384l-12 18q-65 -26 -96 -78.5t-31 -116.5q0 -67 38.5 -110t100.5 -43q88 0 170 76zM588 627v1q0 38 -27 61t-63 23q-52 0 -80.5 -30.5t-28.5 -80.5q0 -58 49 -136q70 29 110 65.5t40 96.5z" />
    <glyph glyph-name="hyphen.case" horiz-adv-x="371" 
d="M44 329l23 88h271l-23 -88h-271z" />
    <glyph glyph-name="endash.case" horiz-adv-x="497" 
d="M454 337h-420l17 70h421z" />
    <glyph glyph-name="emdash.case" horiz-adv-x="722" 
d="M680 337h-646l16 70h648z" />
    <glyph glyph-name="question.case" horiz-adv-x="627" 
d="M658 610q0 -51 -38.5 -91t-94.5 -67.5t-114 -54.5t-103.5 -66.5t-55.5 -89.5l-3 -15h-35l4 19q11 53 33.5 95.5t48.5 68t55.5 46t56 36t48.5 32t35 39t13 52.5q0 43 -25.5 67t-75.5 24q-78 0 -152 -60.5t-126 -168.5h-19l73 225q118 41 233 41q110 0 176 -35t66 -97z
M217 -13q-33 0 -56.5 23.5t-23.5 57.5q0 33 23.5 56.5t56.5 23.5q35 0 58.5 -23.5t23.5 -56.5q0 -34 -23.5 -57.5t-58.5 -23.5z" />
    <glyph glyph-name="questiondown.case" horiz-adv-x="627" 
d="M2 119q0 51 38.5 91t94.5 67.5t114 54.5t103.5 66.5t55.5 89.5l3 15h35l-4 -19q-13 -62 -41 -109t-59.5 -72t-65.5 -47.5t-61.5 -38.5t-45 -42t-17.5 -60q0 -43 25.5 -67t75.5 -24q78 0 152 60.5t126 168.5h19l-73 -225q-118 -41 -233 -41q-110 0 -176 35t-66 97z
M441 581q-33 0 -56.5 23.5t-23.5 57.5q0 33 23.5 56.5t56.5 23.5q35 0 58.5 -23.5t23.5 -56.5q0 -34 -23.5 -57.5t-58.5 -23.5z" />
    <glyph glyph-name="exclam.case" horiz-adv-x="415" 
d="M183 461l65 262q7 27 65 33q58 5 79 -16q7 -7 5 -17l-65 -263l-126 -248h-20zM170 -13q-33 0 -56.5 23.5t-23.5 57.5q0 33 23.5 56.5t56.5 23.5q35 0 58.5 -23.5t23.5 -56.5q0 -34 -23.5 -57.5t-58.5 -23.5z" />
    <glyph glyph-name="exclamdown.case" horiz-adv-x="415" 
d="M293 283l-65 -262q-7 -27 -65 -33q-58 -5 -79 16q-7 7 -5 17l65 263l126 248h20zM304 596q-33 0 -56.5 23.5t-23.5 57.5q0 33 23.5 56.5t56.5 23.5q35 0 58.5 -23.5t23.5 -56.5q0 -34 -23.5 -57.5t-58.5 -23.5z" />
    <glyph glyph-name="guilsinglleft.case" horiz-adv-x="362" 
d="M192 136l-157 235l270 234h53l-187 -234l66 -235h-45z" />
    <glyph glyph-name="guilsinglright.case" horiz-adv-x="362" 
d="M181 605l156 -234l-268 -235h-54l185 235l-65 234h46z" />
    <glyph glyph-name="guillemotleft.case" horiz-adv-x="575" 
d="M408 136l-157 235l270 234h53l-187 -234l66 -235h-45zM195 136l-157 235l270 234h53l-187 -234l66 -235h-45z" />
    <glyph glyph-name="guillemotright.case" horiz-adv-x="575" 
d="M394 605l156 -234l-268 -235h-54l185 235l-65 234h46zM181 605l156 -234l-268 -235h-54l185 235l-65 234h46z" />
    <glyph glyph-name="parenleft.case" horiz-adv-x="346" 
d="M404 778v2l14 -16q-124 -98 -198.5 -268.5t-74.5 -313.5q0 -157 46 -219l-17 -14q-134 119 -134 300q0 159 97.5 292t266.5 237z" />
    <glyph glyph-name="parenright.case" horiz-adv-x="351" 
d="M-53 -52v-2l-14 16q124 98 198.5 268.5t74.5 313.5q0 157 -46 219l17 14q134 -119 134 -300q0 -303 -364 -529z" />
    <glyph glyph-name="bracketleft.case" horiz-adv-x="331" 
d="M2 -39l206 803h208l-9 -39h-90l-187 -725h89l-10 -39h-207z" />
    </font>
</defs>
</svg>
