<?xml version="1.0" standalone="no"?>
<!DOCTYPE svg PUBLIC "-//W3C//DTD SVG 1.1//EN" "http://www.w3.org/Graphics/SVG/1.1/DTD/svg11.dtd" >
<svg xmlns="http://www.w3.org/2000/svg" xmlns:xlink="http://www.w3.org/1999/xlink" version="1.1">
<metadata>
Created by FontForge 20170731 at Sun Jul 24 19:26:34 2016
 By Aleksey,,,
Copyright (c) 2014 Swiss Typefaces. All rights reserved.
</metadata>
<defs>
<font id="SuisseWorks-Bold" horiz-adv-x="678" >
  <font-face 
    font-family="Suisse Works"
    font-weight="700"
    font-stretch="normal"
    units-per-em="1000"
    panose-1="2 2 8 4 6 0 0 0 0 0"
    ascent="800"
    descent="-200"
    x-height="537"
    cap-height="724"
    bbox="-150 -311 1428 974"
    underline-thickness="60"
    underline-position="-230"
    unicode-range="U+0020-FB02"
  />
<missing-glyph horiz-adv-x="500" 
d="M0 0v725h500v-725h-500zM239 362l-220 334v-667zM260 362l221 -333v667zM250 346l-217 -327h433zM33 706l217 -328l216 328h-433z" />
    <glyph glyph-name=".notdef" horiz-adv-x="500" 
d="M0 0v725h500v-725h-500zM239 362l-220 334v-667zM260 362l221 -333v667zM250 346l-217 -327h433zM33 706l217 -328l216 328h-433z" />
    <glyph glyph-name=".null" horiz-adv-x="0" 
 />
    <glyph glyph-name="nonmarkingreturn" horiz-adv-x="200" 
 />
    <glyph glyph-name="space" unicode=" " horiz-adv-x="200" 
 />
    <glyph glyph-name="exclam" unicode="!" horiz-adv-x="431" 
d="M120 453v253q0 29 47 41t94.5 0t47.5 -41v-254l-84 -240h-20zM124 80q0 39 26.5 66.5t65.5 27.5q41 0 68 -27t27 -67t-26.5 -66.5t-68.5 -26.5q-39 0 -65.5 27t-26.5 66z" />
    <glyph glyph-name="quotedbl" unicode="&#x22;" horiz-adv-x="410" 
d="M224 725h142l-43 -273h-55zM44 725h142l-43 -273h-55z" />
    <glyph glyph-name="numbersign" unicode="#" horiz-adv-x="676" 
d="M66 535h143l27 190h75l-27 -190h159l27 190h75l-27 -190h136l-10 -72h-136l-24 -166h136l-9 -72h-137l-31 -225h-75l31 225h-158l-31 -225h-76l31 225h-143l10 72h143l24 166h-143zM274 463l-23 -166h158l24 166h-159z" />
    <glyph glyph-name="dollar" unicode="$" horiz-adv-x="672" 
d="M298 -102l-1 -1v90q-111 8 -178 66t-76 141h159q-2 -62 21 -109.5t74 -58.5v281l-48 15q-91 30 -137 85.5t-46 129.5q0 83 65 139t166 64v104h47v-104q113 -4 182 -61.5t79 -143.5h-159q2 65 -22.5 113t-78.5 57v-241l56 -19q109 -36 163 -89t54 -138q0 -105 -73 -166
t-200 -65v-89h-47zM481 151v-1q0 47 -36.5 83.5t-100.5 57.5v-270q65 3 101 38t36 92zM199 599v1q0 -42 23.5 -73t65.5 -45l9 -3v225q-47 -5 -72.5 -33.5t-25.5 -71.5z" />
    <glyph glyph-name="percent" unicode="%" horiz-adv-x="1055" 
d="M133 524q0 -90 12.5 -142.5t47.5 -52.5q36 0 48 52t12 143q0 90 -12 141t-48 51q-35 0 -47.5 -51.5t-12.5 -140.5zM13 524q0 90 55.5 150.5t124.5 60.5t124.5 -60.5t55.5 -150.5q0 -91 -55.5 -152.5t-124.5 -61.5t-124.5 61.5t-55.5 152.5zM311 0h-75l508 725h75z
M802 207q0 -90 12.5 -142.5t47.5 -52.5q36 0 48 52t12 143q0 90 -12 141t-48 51q-35 0 -47.5 -51.5t-12.5 -140.5zM682 207q0 90 55.5 150.5t124.5 60.5t124.5 -60.5t55.5 -150.5q0 -91 -55.5 -152.5t-124.5 -61.5t-124.5 61.5t-55.5 152.5z" />
    <glyph glyph-name="ampersand" unicode="&#x26;" horiz-adv-x="798" 
d="M289 -13v1q-102 0 -181 60t-79 156q0 156 218 210q-78 91 -78 177q0 72 64.5 112.5t155.5 40.5q97 0 151.5 -33t54.5 -92q0 -56 -50 -97t-129 -65l9 -9l172 -172q27 96 4 203h116q-5 -71 -28 -124t-61 -111l148 -147l-120 -113l-116 121q-56 -64 -109 -91t-142 -27z
M274 385h-1l-12 12q-34 -20 -48.5 -61t-14.5 -82q0 -84 53 -133t126 -49q85 0 140 58zM491 609q0 50 -26 78.5t-68 28.5q-84 0 -84 -82q0 -68 87 -162q91 49 91 137z" />
    <glyph glyph-name="quotesingle" unicode="'" horiz-adv-x="229" 
d="M44 725h142l-43 -273h-55z" />
    <glyph glyph-name="parenleft" unicode="(" horiz-adv-x="349" 
d="M208 276q0 -372 109 -509l-14 -17q-116 89 -182 222.5t-66 303.5q0 331 248 527l14 -18q-109 -137 -109 -509z" />
    <glyph glyph-name="parenright" unicode=")" horiz-adv-x="350" 
d="M143 276q0 160 -26.5 298t-83.5 211l14 18q249 -200 249 -527q0 -170 -66 -302.5t-183 -223.5l-14 17q57 73 83.5 211t26.5 298z" />
    <glyph glyph-name="asterisk" unicode="*" horiz-adv-x="369" 
d="M212 728v-121l118 43l21 -55l-118 -39l71 -101l-45 -34l-75 103l-71 -103l-49 33l72 101l-117 40l19 55l116 -43v121h58z" />
    <glyph glyph-name="plus" unicode="+" 
d="M380 0h-81v236h-236v76h236v226h81v-226h235v-76h-235v-236z" />
    <glyph glyph-name="comma" unicode="," horiz-adv-x="341" 
d="M79 81v-1q0 39 26 66t67 27t66.5 -29t25.5 -75q0 -81 -64.5 -158.5t-145.5 -117.5l-8 13q45 33 83 81t38 103q-38 1 -63 26.5t-25 64.5z" />
    <glyph glyph-name="hyphen" unicode="-" horiz-adv-x="346" 
d="M44 227v91h258v-91h-258z" />
    <glyph glyph-name="period" unicode="." horiz-adv-x="341" 
d="M77 80q0 39 26.5 66.5t65.5 27.5q41 0 68 -27t27 -67t-27 -66.5t-68 -26.5q-39 0 -65.5 27t-26.5 66z" />
    <glyph glyph-name="slash" unicode="/" horiz-adv-x="408" 
d="M62 -32h-62l343 808h65z" />
    <glyph glyph-name="zero" unicode="0" horiz-adv-x="680" 
d="M212 367q0 -345 128 -345t128 345q0 341 -128 341t-128 -341zM35 367q0 155 90.5 265t214.5 110q126 0 215.5 -109.5t89.5 -265.5t-89.5 -268t-215.5 -112q-124 0 -214.5 112t-90.5 268z" />
    <glyph glyph-name="one" unicode="1" horiz-adv-x="485" 
d="M342 739v-603q0 -74 12.5 -93.5t60.5 -25.5v-17h-335v17q68 6 84 27t16 101v474h-132v20q185 21 273 100h21z" />
    <glyph glyph-name="two" unicode="2" horiz-adv-x="574" 
d="M496 556h1q0 -72 -48 -136t-139 -144l-151 -132h344v-144h-524v12q176 174 232 241q114 136 122 249q1 11 1 22q0 60 -35 94t-93 34q-121 0 -153 -115h-32q19 100 84 153t172 53q93 0 156 -50t63 -137z" />
    <glyph glyph-name="three" unicode="3" horiz-adv-x="592" 
d="M222 -11q-94 0 -180 30v182h18q24 -79 69.5 -124t103.5 -45q62 0 102 39.5t40 97.5q0 26 -9 53t-29 55.5t-59.5 51t-93.5 30.5v22l22 10q67 29 97.5 76.5t30.5 89.5q0 46 -30.5 70t-81.5 25q-57 0 -96.5 -30t-53.5 -85h-32q17 98 85 151.5t172 53.5q76 0 136 -36.5
t60 -100.5q0 -56 -48.5 -96t-103.5 -61v-3q85 -25 139.5 -84t54.5 -138q0 -106 -94 -170t-219 -64z" />
    <glyph glyph-name="four" unicode="4" horiz-adv-x="645" 
d="M492 0h-162v164h-305v119l322 442h145v-429h111v-132h-111v-164zM330 296v325l-237 -325h237z" />
    <glyph glyph-name="five" unicode="5" horiz-adv-x="563" 
d="M62 366l128 359h327l-41 -143h-294l-30 -84q167 0 266.5 -68t99.5 -190q0 -114 -84 -182.5t-206 -68.5q-94 0 -180 30v182h18q24 -79 69.5 -124t103.5 -45q61 0 93 35.5t32 96.5q0 96 -79.5 152t-222.5 50z" />
    <glyph glyph-name="six" unicode="6" horiz-adv-x="623" 
d="M311 -13h-1q-124 0 -200 76t-76 213q0 92 44.5 175t117.5 143t159.5 102t178.5 64l10 -28q-123 -45 -212 -130t-115 -203q58 89 165 89q85 0 145.5 -63.5t60.5 -164.5q0 -117 -80 -195t-197 -78zM301 403q-53 0 -92 -36q-4 -27 -4 -63q0 -124 25.5 -203t82.5 -79
t81.5 55.5t24.5 139.5q0 89 -33.5 137.5t-84.5 48.5z" />
    <glyph glyph-name="seven" unicode="7" horiz-adv-x="555" 
d="M25 582h-1v143h525v-145q-136 -123 -204.5 -259t-74.5 -321h-182q3 84 28.5 160t64 134t95 113t111.5 94.5t125 80.5h-487z" />
    <glyph glyph-name="eight" unicode="8" horiz-adv-x="638" 
d="M312 -13q-112 0 -187 49.5t-75 139.5q0 58 41.5 102t109.5 69q-119 79 -119 198q0 89 69.5 142.5t169.5 53.5q96 0 161.5 -39.5t65.5 -111.5q0 -52 -41 -92.5t-102 -65.5q90 -43 136.5 -94t46.5 -132q0 -100 -82.5 -159.5t-193.5 -59.5zM154 179h1q0 -71 39.5 -111.5
t118.5 -40.5q78 0 114.5 31t36.5 80t-36.5 82.5t-103.5 64.5l-64 29q-20 8 -36 18q-70 -39 -70 -153zM452 584q0 118 -129 118q-57 0 -88 -26.5t-31 -70.5q0 -42 26.5 -73.5t94.5 -62.5l57 -26q70 46 70 141z" />
    <glyph glyph-name="nine" unicode="9" horiz-adv-x="623" 
d="M312 741h1q124 0 200 -76.5t76 -212.5q0 -92 -44.5 -175t-117.5 -143t-159.5 -102t-178.5 -64l-10 28q122 45 210.5 129.5t117.5 202.5q-60 -88 -166 -88q-85 0 -145.5 63.5t-60.5 164.5q0 117 80 195t197 78zM322 325q56 0 91 35q5 35 5 64q0 124 -25.5 203t-82.5 79
t-81.5 -55.5t-24.5 -139.5q0 -89 33.5 -137.5t84.5 -48.5z" />
    <glyph glyph-name="colon" unicode=":" horiz-adv-x="341" 
d="M77 450q0 39 26.5 66.5t65.5 27.5q41 0 68 -27t27 -67t-27 -66.5t-68 -26.5q-39 0 -65.5 27t-26.5 66zM77 80q0 39 26.5 66.5t65.5 27.5q41 0 68 -27t27 -67t-27 -66.5t-68 -26.5q-39 0 -65.5 27t-26.5 66z" />
    <glyph glyph-name="semicolon" unicode=";" horiz-adv-x="341" 
d="M77 450q0 39 26.5 66.5t65.5 27.5q41 0 68 -27t27 -67t-27 -66.5t-68 -26.5q-39 0 -65.5 27t-26.5 66zM79 81v-1q0 39 26 66t67 27t66.5 -29t25.5 -75q0 -81 -64.5 -158.5t-145.5 -117.5l-8 13q45 33 83 81t38 103q-38 1 -63 26.5t-25 64.5z" />
    <glyph glyph-name="less" unicode="&#x3c;" 
d="M59 309l521 234v-87l-424 -183l424 -180v-86l-521 231v71z" />
    <glyph glyph-name="equal" unicode="=" 
d="M587 344h-495v75h495v-75zM587 138h-495v75h495v-75z" />
    <glyph glyph-name="greater" unicode="&#x3e;" 
d="M620 309v-71l-521 -231v86l424 180l-424 183v87z" />
    <glyph glyph-name="question" unicode="?" horiz-adv-x="671" 
d="M307 707v-1q-116 0 -167 -192h-20v201q87 36 185 36q119 0 191 -38.5t72 -114.5q0 -52 -29.5 -90t-71 -61.5l-83 -47t-71 -62t-29.5 -92.5v-12h-31v9q0 58 16 105.5t38.5 78.5t45 59t38.5 59.5t16 66.5q0 45 -27 70.5t-73 25.5zM181 79q0 39 26.5 66.5t65.5 27.5
q41 0 68 -27t27 -67q0 -39 -27 -66t-68 -27q-39 0 -65.5 27t-26.5 66z" />
    <glyph glyph-name="at" unicode="@" horiz-adv-x="853" 
d="M625 157h1q-44 0 -71.5 27.5t-31.5 73.5q-50 -96 -159 -96q-64 0 -106 45t-42 133q0 95 58 166t151 71q87 0 117 -86l8 67h64l-32 -224q-14 -112 51 -112q45 0 75 50t30 137q0 128 -80 196.5t-213 68.5q-144 0 -235 -92t-91 -230q0 -132 78 -214.5t210 -82.5
q109 0 199 42l24 -63q-103 -47 -223 -47q-160 0 -259.5 103t-99.5 264q0 163 114 272.5t285 109.5q158 0 258.5 -83t100.5 -240q0 -117 -54 -186.5t-127 -69.5zM427 510q-59 0 -96 -50.5t-37 -121.5q0 -112 90 -112q61 0 98 52t37 125q0 52 -24 79.5t-68 27.5z" />
    <glyph glyph-name="A" unicode="A" horiz-adv-x="788" 
d="M0 0v-2v16q43 8 65 37t63 136l205 528q67 13 101 53h5l254 -647q21 -56 38.5 -77t57.5 -28v-16h-329v16q42 6 52 26t-5 57l-55 141h-258l-7 -18q-21 -54 -27 -92t-2.5 -58.5t19.5 -33t29.5 -16t38.5 -6.5v-16h-245zM324 567l-112 -283h222z" />
    <glyph glyph-name="B" unicode="B" horiz-adv-x="773" 
d="M306 359v-278q0 -29 10.5 -37.5t40.5 -8.5h33q84 0 120.5 41.5t36.5 125.5q0 80 -39 118.5t-129 38.5h-73zM306 689v-298h75q133 0 133 158q0 140 -141 140h-67zM31 725v1h153q50 0 202 2q165 2 235 -35t70 -119q0 -64 -45 -114t-112 -69v-2q87 -14 146.5 -59.5
t59.5 -125.5q0 -206 -353 -206q-23 0 -87 1t-93 1h-176v16q66 8 82.5 30t16.5 100v433q0 78 -16.5 99t-82.5 31v16z" />
    <glyph glyph-name="C" unicode="C" horiz-adv-x="763" 
d="M240 364q0 -157 55.5 -245t164.5 -88q176 0 252 181l29 -10q-14 -39 -35.5 -73t-57 -68t-91 -54t-123.5 -20q-77 0 -146.5 25t-124 71.5t-86.5 119t-32 161.5q0 175 117 278t284 103q143 0 231 -42l29 -231h-21q-87 234 -240 234q-93 0 -149 -93t-56 -249z" />
    <glyph glyph-name="D" unicode="D" horiz-adv-x="840" 
d="M306 36h39q136 0 195.5 79.5t59.5 249.5q0 167 -61 245.5t-196 78.5h-37v-653zM31 725h317q95 0 173.5 -19.5t141 -60.5t97.5 -112t35 -168t-34 -169t-96 -114t-141 -62t-177 -20h-316v16q66 8 82.5 30t16.5 100v433q0 78 -16.5 99t-82.5 31v16z" />
    <glyph glyph-name="E" unicode="E" horiz-adv-x="753" 
d="M306 396h108q45 0 70 25.5t33 86.5h18v-268h-18q-8 61 -33 86.5t-70 25.5h-108v-279q0 -23 11.5 -30t48.5 -7h41q84 0 137 27t81 73.5t51 128.5h22l-18 -267q-59 2 -273 2h-376v16q66 8 82.5 30t16.5 100v433q0 78 -16.5 99t-82.5 31v16h369q202 0 257 2l17 -267h-22
q-18 64 -36.5 102.5t-52.5 69.5t-86 44t-131 13h-40v-293z" />
    <glyph glyph-name="F" unicode="F" horiz-adv-x="716" 
d="M31 725h386q202 0 257 2l17 -267h-22q-18 64 -36.5 102.5t-52.5 69.5t-86 44t-131 13h-57v-293h101q45 0 70 25.5t33 86.5h18v-268h-18q-8 61 -33 86.5t-70 25.5h-101v-206q0 -79 18 -100.5t97 -29.5v-16h-390v16q66 8 82.5 30t16.5 100v433q0 78 -16.5 99t-82.5 31v16z
" />
    <glyph glyph-name="G" unicode="G" horiz-adv-x="841" 
d="M477 332h339v-16q-12 -2 -20.5 -4t-16 -4t-12 -6.5t-8 -6.5t-5.5 -9.5t-3.5 -11.5t-1.5 -16v-19v-24.5v-28.5v-122q-49 -35 -134 -56t-175 -21q-171 0 -283 100t-112 277q0 117 60 205.5t153.5 132t201.5 43.5q146 0 238 -40l24 -233h-21q-16 43 -36 80t-49.5 74
t-70 58.5t-86.5 21.5q-95 0 -157 -94t-62 -248q0 -155 59 -246.5t164 -91.5q53 0 83 17t30 66v77q0 78 -16.5 99t-82.5 31v16z" />
    <glyph glyph-name="H" unicode="H" horiz-adv-x="884" 
d="M754 579v-1v-433q0 -78 16.5 -100t82.5 -30v-16h-374v16q66 8 82.5 30t16.5 100v206h-272v-206q0 -78 17 -100t83 -30v-16h-375v16q66 8 82.5 30t16.5 100v433q0 78 -16.5 99t-82.5 31v16h375v-16q-67 -10 -83.5 -30.5t-16.5 -98.5v-183h272v183q0 78 -16.5 99t-82.5 31
v16h374v-16q-66 -10 -82.5 -31t-16.5 -99z" />
    <glyph glyph-name="I" unicode="I" horiz-adv-x="437" 
d="M306 579v-1v-433q0 -78 17 -100t83 -30v-16h-375v16q66 8 82.5 30t16.5 100v433q0 78 -16.5 99t-82.5 31v16h375v-16q-67 -10 -83.5 -30.5t-16.5 -98.5z" />
    <glyph glyph-name="J" unicode="J" horiz-adv-x="492" 
d="M206 218v361q0 78 -16.5 99t-82.5 31v16h374v-16q-66 -10 -82.5 -31t-16.5 -99v-348q0 -72 -21.5 -122t-59 -75.5t-78 -36t-89.5 -10.5q-71 0 -118 14v191h11q75 -166 127 -166q18 0 27.5 9t17 53t7.5 130z" />
    <glyph glyph-name="K" unicode="K" horiz-adv-x="827" 
d="M306 356l-1 -1v-210q0 -78 17 -100t83 -30v-16h-375v16q66 8 82.5 30t16.5 100v433q0 78 -16.5 99t-82.5 31v16h375v-16q-67 -10 -83.5 -30.5t-16.5 -98.5v-223l201 217q42 45 56 73.5t0.5 43.5t-57.5 18v16h265v-16q-50 -6 -96 -34.5t-109 -97.5l-116 -123l241 -323
q45 -58 78.5 -85.5t67.5 -28.5v-16h-366v16q38 1 50.5 18t-9.5 50z" />
    <glyph glyph-name="L" unicode="L" 
d="M31 0l-1 -1v16q66 8 82.5 30t16.5 100v433q0 78 -16.5 99t-82.5 31v16h375v-16q-67 -10 -83.5 -30.5t-16.5 -98.5v-507q0 -36 35 -36h40q66 0 110 15t73 51.5t45 78t34 113.5h21l-19 -294h-613z" />
    <glyph glyph-name="M" unicode="M" horiz-adv-x="1002" 
d="M971 725v-16q-66 -10 -82.5 -31t-16.5 -99v-433q0 -78 16.5 -100t82.5 -30v-16h-374v16q66 8 82.5 30t16.5 100v483l-225 -600h-50l-243 615v-498q0 -78 17 -100t83 -30v-16h-247v16q66 8 82.5 30t16.5 100v433q0 78 -16.5 99t-82.5 31v16h309l173 -451l168 451h290z" />
    <glyph glyph-name="N" unicode="N" horiz-adv-x="825" 
d="M658 167h-1v412q0 78 -16.5 99t-82.5 31v16h246v-16q-66 -10 -82.5 -31t-16.5 -99v-579h-149l-379 568v-422q0 -78 17 -100t83 -30v-16h-247v16q66 8 82.5 30t16.5 100v494l-2 3q-26 37 -41 49.5t-35 19.5v13h235z" />
    <glyph glyph-name="O" unicode="O" horiz-adv-x="892" 
d="M847 366q0 -90 -33.5 -163t-90 -119.5t-128 -71.5t-149.5 -25t-149.5 25t-128 71.5t-90 119.5t-33.5 163t33.5 163t90 119.5t128 71.5t149.5 25t149.5 -25t128 -71.5t90 -119.5t33.5 -163zM240 366q0 -157 53 -248.5t153 -91.5t153 91.5t53 248.5t-53 248.5t-153 91.5
t-153 -91.5t-53 -248.5z" />
    <glyph glyph-name="P" unicode="P" horiz-adv-x="731" 
d="M306 312v-166q0 -78 19 -100t94 -30v-16h-388v16q66 8 82.5 30t16.5 100v433q0 78 -16.5 99t-82.5 31v16h161q5 0 88.5 0.5t86.5 0.5q65 0 116 -5.5t97 -20t76 -37.5t47.5 -59.5t17.5 -84.5t-17.5 -84.5t-47.5 -59.5t-76 -37.5t-97 -20t-116 -5.5h-61zM306 346h47
q82 0 127.5 40t45.5 133q0 173 -173 173h-47v-346z" />
    <glyph glyph-name="Q" unicode="Q" horiz-adv-x="897" 
d="M847 366q0 -86 -31 -157t-83.5 -117t-119.5 -73t-142 -31l-55 -37q-2 -1 -10 -6.5t-13 -7.5l-14 -8l1 -2q49 19 111 19q50 0 82.5 -13.5t47.5 -32.5t27 -38.5t32.5 -33t53.5 -13.5q35 0 57 9l8 -29q-44 -22 -123 -22q-74 0 -121 14t-65.5 34t-29.5 40t-26 34t-43 14
q-37 0 -90 -34l-16 26l132 87q-156 9 -264 109.5t-108 268.5q0 90 33.5 163t90 119.5t128 71.5t149.5 25t149.5 -25t128 -71.5t90 -119.5t33.5 -163zM240 366q0 -157 53 -248.5t153 -91.5t153 91.5t53 248.5t-53 248.5t-153 91.5t-153 -91.5t-53 -248.5z" />
    <glyph glyph-name="R" unicode="R" horiz-adv-x="838" 
d="M306 352h1v-206q0 -78 19 -100t94 -30v-16h-388v16q66 8 82.5 30t16.5 100v433q0 78 -16.5 99t-82.5 31v16h161q5 0 83 0.5t81 0.5q81 0 142.5 -9t110.5 -30t75 -58t26 -90q0 -136 -182 -173l169 -259q34 -52 55.5 -67.5t69.5 -23.5v-16h-265q-16 32 -88 152l-25 40
q-45 72 -107 160h-32zM307 386h37q81 0 127 37.5t46 115.5t-46 115.5t-127 37.5h-37v-306z" />
    <glyph glyph-name="S" unicode="S" horiz-adv-x="634" 
d="M297 -13q-136 0 -240 53v241h19q9 -33 14.5 -51.5t17 -49.5t22 -49t28.5 -40.5t37.5 -35t47 -21t59.5 -8.5q67 0 107 30.5t40 83.5q0 45 -29.5 76t-88.5 60l-93 46q-181 91 -181 222q0 89 75.5 148t188.5 59q57 0 119.5 -11.5t95.5 -29.5v-209h-21q-14 44 -27 73.5
t-36.5 65t-58 54t-79.5 18.5q-53 0 -87 -26t-34 -73q0 -66 82 -107l110 -55q104 -52 154 -105.5t50 -131.5q0 -95 -85.5 -161t-206.5 -66z" />
    <glyph glyph-name="T" unicode="T" horiz-adv-x="810" 
d="M207 0l1 -1v16q73 8 91.5 30t18.5 100v542h-34q-56 0 -95 -17.5t-65.5 -56.5t-42 -78.5t-33.5 -106.5h-22l17 299q55 -2 298 -2h130q243 0 296 2l18 -299h-22q-15 54 -26.5 87.5t-31 70t-42.5 56.5t-57 33t-79 13h-34v-542q0 -78 18.5 -100t91.5 -30v-16h-396z" />
    <glyph glyph-name="U" unicode="U" horiz-adv-x="813" 
d="M110 278v-1v301q0 78 -16.5 99t-82.5 31v16h375v-16q-67 -10 -83.5 -30.5t-16.5 -98.5v-281q0 -125 42 -189.5t143 -64.5q98 0 142 64.5t44 186.5v284q0 78 -16.5 99t-82.5 31v16h251v-16q-66 -10 -82.5 -31t-16.5 -99v-281q0 -311 -279 -311q-321 0 -321 291z" />
    <glyph glyph-name="V" unicode="V" horiz-adv-x="746" 
d="M309 0l-214 608q-21 56 -37.5 74.5t-57.5 26.5v16h336v-16q-41 -6 -51.5 -24t2.5 -55l155 -474l117 347q18 55 23.5 93.5t2 58.5t-19 32.5t-28 15.5t-36.5 6v16h245v-16q-46 -9 -69.5 -38t-57.5 -134l-177 -537h-133z" />
    <glyph glyph-name="W" unicode="W" horiz-adv-x="1054" 
d="M1054 725v-16q-26 -5 -39.5 -10.5t-30.5 -22t-30 -50t-27 -89.5l-130 -537h-148l-125 434l-106 -434h-148l-176 607q-16 55 -34 74.5t-60 27.5v16h331v-16q-41 -6 -51 -24t1 -56l123 -473l91 376l-55 193h194l149 -569l84 347q12 47 17 81.5t2 56.5t-7 34.5t-18 19.5
t-23 9t-29 5v16h245z" />
    <glyph glyph-name="X" unicode="X" horiz-adv-x="815" 
d="M502 85l-139 210l-128 -165q-25 -32 -33 -54.5t6.5 -39t58.5 -20.5v-16h-268v16q41 4 75 21.5t52 35.5t47 53l162 210l-186 282q-37 53 -63.5 72t-52.5 19v16h383v-16q-61 -6 -76.5 -21t5.5 -48l104 -157l87 112q25 32 33 54.5t-6.5 39t-58.5 20.5v16h268v-16
q-60 -5 -98 -32.5t-76 -77.5l-121 -157l222 -335q60 -91 116 -91v-16h-384v16q61 6 77 21t-6 48z" />
    <glyph glyph-name="Y" unicode="Y" horiz-adv-x="760" 
d="M452 294v1v-148q0 -78 18.5 -100t91.5 -30v-16h-396v16q73 8 91.5 30t18.5 100v140l-185 332q-35 59 -47.5 72t-43.5 19v16h336v-16q-44 -6 -56.5 -19.5t3.5 -49.5l154 -293l124 211q49 87 41 116t-70 35v16h228v-16q-29 -6 -43 -15t-37 -38.5t-66 -100.5z" />
    <glyph glyph-name="Z" unicode="Z" horiz-adv-x="699" 
d="M243 36h79q63 0 108 9.5t74.5 25.5t51 46.5t34.5 63t27 84.5h22l-17 -267q-55 2 -246 2h-343v13l406 676h-57q-78 0 -128.5 -12.5t-82.5 -44.5t-48.5 -69t-34.5 -103h-22l17 267q55 -2 246 -2h320v-13z" />
    <glyph glyph-name="bracketleft" unicode="[" horiz-adv-x="328" 
d="M76 -216v982h235v-41h-85v-900h85v-41h-235z" />
    <glyph glyph-name="backslash" unicode="\" horiz-adv-x="408" 
d="M65 776l343 -808h-62l-346 808h65z" />
    <glyph glyph-name="bracketright" unicode="]" horiz-adv-x="328" 
d="M251 766v-982h-235v41h85v900h-85v41h235z" />
    <glyph glyph-name="asciicircum" unicode="^" horiz-adv-x="444" 
d="M258 725l204 -393h-88l-153 293l-152 -293h-87l202 393h74z" />
    <glyph glyph-name="underscore" unicode="_" horiz-adv-x="441" 
d="M24 -78v78h393v-78h-393z" />
    <glyph glyph-name="grave" unicode="`" horiz-adv-x="307" 
d="M22 772h190l73 -169h-14z" />
    <glyph glyph-name="a" unicode="a" horiz-adv-x="592" 
d="M343 82h2q-33 -47 -68 -71t-85 -24q-62 0 -107 41.5t-45 95.5q0 43 37 75.5t125 74.5q33 16 144 63v29q0 78 -17.5 108.5t-60.5 30.5q-92 0 -83 -145h-134q-2 67 69.5 127.5t175.5 60.5q100 0 152.5 -43t50.5 -142l-5 -229q0 -72 34 -72q19 0 42 17l12 -13
q-56 -77 -134 -77q-41 0 -70 23.5t-35 69.5zM341 107l4 190q-59 -21 -102 -46q-54 -33 -54 -82q0 -39 23 -67.5t61 -28.5q37 0 68 34z" />
    <glyph glyph-name="b" unicode="b" horiz-adv-x="632" 
d="M325 23q50 0 79.5 47t29.5 140t-36.5 163t-96.5 70q-45 0 -63 -24v-344q11 -23 35 -37.5t52 -14.5zM195 47v1l-107 -54h-16q4 76 4 169v473q0 67 -9.5 82.5t-58.5 17.5v16l234 71q-4 -208 -4 -224v-151q21 38 63 68.5t93 30.5q91 0 147 -74t56 -185q0 -134 -76.5 -217.5
t-181.5 -83.5q-84 0 -144 60z" />
    <glyph glyph-name="c" unicode="c" horiz-adv-x="525" 
d="M413 365q-39 0 -56 36l-39 83q-10 21 -29 21q-36 0 -73.5 -46.5t-37.5 -136.5q0 -96 46 -157.5t132 -61.5q69 0 122 45l12 -10q-15 -25 -25 -39.5t-31 -38.5t-41 -38t-50 -24.5t-63 -10.5q-111 0 -178 73t-67 192q0 125 85.5 210t192.5 85q74 0 125 -33t51 -81
q0 -29 -22 -48.5t-54 -19.5z" />
    <glyph glyph-name="d" unicode="d" horiz-adv-x="654" 
d="M307 511q-50 0 -79.5 -47t-29.5 -140t36.5 -163t96.5 -70q45 0 63 24v344q-11 23 -35 37.5t-52 14.5zM394 511v125q0 67 -10.5 81.5t-64.5 16.5v16l241 73q-4 -208 -4 -224v-419q0 -67 9.5 -82.5t58.5 -17.5v-16l-211 -73l-14 100q-19 -39 -62.5 -71.5t-98.5 -32.5
q-89 0 -146 77t-57 182q0 134 76.5 217.5t181.5 83.5q28 0 57 -10t44 -26z" />
    <glyph glyph-name="e" unicode="e" horiz-adv-x="562" 
d="M283 -13q-115 0 -181.5 74t-66.5 188q0 125 78 211.5t187 86.5q100 0 161.5 -57t65.5 -157h-351q0 -4 -0.5 -12t-0.5 -12q0 -96 54 -151t138 -55q40 0 79.5 14t62.5 38l12 -10q-37 -65 -97 -111.5t-141 -46.5zM284 505h1q-46 0 -74 -35t-33 -97h199q-2 61 -25.5 96.5
t-67.5 35.5z" />
    <glyph glyph-name="f" unicode="f" horiz-adv-x="414" 
d="M354 668h1l-40 58q-10 14 -12.5 17t-8 6.5t-11.5 3.5q-11 0 -24 -6.5t-25 -23t-17 -40t4 -62t34 -83.5h154v-50h-151v-352q0 -74 17 -94t84 -26v-16h-331v16q49 6 58.5 24t9.5 96v352h-68v50h68v4q0 111 78 185t172 74q57 0 92 -28t35 -65q0 -31 -18.5 -48.5t-45.5 -17.5
q-36 0 -55 26z" />
    <glyph glyph-name="g" unicode="g" horiz-adv-x="630" 
d="M52 372v1q0 85 67 131t166 46t164 -44h160v-47h-114q24 -37 24 -86q0 -86 -67 -132t-167 -46q-43 0 -75 7q-4 -4 -12.5 -13t-11.5 -12t-8.5 -9.5t-7.5 -10t-5 -8.5t-4 -9t-1 -8q0 -34 67 -37l110 -4q235 -10 235 -128q0 -81 -89 -134t-233 -53q-104 0 -169.5 28.5
t-65.5 77.5q0 26 34 50.5t83 42.5q-73 24 -73 86q0 23 20 52t40 48.5t56 49.5q-123 46 -123 161zM344 -42l-135 6q-37 2 -52 5q-22 -22 -22 -57q0 -43 51 -65.5t123 -22.5q74 0 125.5 19.5t51.5 54.5q0 32 -34.5 45t-107.5 15zM299 229q35 0 51 23t16 74q0 77 -24 134.5
t-69 57.5q-35 0 -51 -23t-16 -74q0 -49 9 -91t30.5 -71.5t53.5 -29.5z" />
    <glyph glyph-name="h" unicode="h" horiz-adv-x="644" 
d="M20 752l234 71q-4 -208 -4 -224v-156q54 104 160 104q67 0 110.5 -47.5t43.5 -142.5v-221q0 -78 9.5 -96t58.5 -24v-16h-286v16q40 6 48 24.5t8 95.5v192q0 56 -21.5 85t-60.5 29q-43 0 -70 -27v-279q0 -78 9.5 -96t58.5 -24v-16h-298v16q49 6 58.5 24t9.5 96v500
q0 67 -9.5 82.5t-58.5 17.5v16z" />
    <glyph glyph-name="i" unicode="i" horiz-adv-x="350" 
d="M257 323v-187q0 -78 9.5 -96t58.5 -24v-16h-298v16q49 6 58.5 24t9.5 96v224q0 67 -9.5 82.5t-58.5 17.5v16l234 71q-4 -208 -4 -224zM179 636q-41 0 -69.5 28.5t-28.5 69.5q0 39 29 67t69 28t68.5 -28t28.5 -67q0 -40 -28.5 -69t-68.5 -29z" />
    <glyph glyph-name="j" unicode="j" horiz-adv-x="338" 
d="M96 88v-1v272q0 67 -9.5 82.5t-58.5 17.5v16l234 71q-4 -208 -4 -224v-218q0 -78 -16 -133.5t-53 -95t-78.5 -64.5t-110.5 -56l-10 14q61 65 83.5 142.5t22.5 176.5zM179 635q-41 0 -69.5 28.5t-28.5 69.5q0 39 29 67t69 28t68.5 -28t28.5 -67q0 -40 -28.5 -69t-68.5 -29
z" />
    <glyph glyph-name="k" unicode="k" horiz-adv-x="689" 
d="M88 136v500q0 67 -9.5 82.5t-58.5 17.5v16l234 71q-4 -208 -4 -224v-463q0 -78 9 -96t55 -24v-16h-294v16q49 6 58.5 24t9.5 96zM366 0v-1v16q45 5 52.5 19.5t-19.5 49.5l-148 192l180 160q33 28 44 44t0 27t-52 15v16h216v-16q-47 -3 -75.5 -20t-81.5 -65l-99 -87
l213 -278q23 -30 41.5 -41t51.5 -15v-16h-323z" />
    <glyph glyph-name="l" unicode="l" horiz-adv-x="358" 
d="M98 136v500q0 67 -9.5 82.5t-58.5 17.5v16l234 71q-4 -208 -4 -224v-463q0 -78 9.5 -96t58.5 -24v-16h-298v16q49 6 58.5 24t9.5 96z" />
    <glyph glyph-name="m" unicode="m" horiz-adv-x="960" 
d="M566 357h1v-221q0 -78 9.5 -96t58.5 -24v-16h-286v16q40 6 48 24.5t8 95.5v192q0 56 -21.5 85t-60.5 29q-43 0 -70 -27v-279q0 -77 8 -95t49 -24v-16h-287v16q49 6 58.5 24t9.5 96v224q0 67 -9.5 82.5t-58.5 17.5v16l224 70l4 -104q61 105 162 105q50 0 88 -27.5
t55 -83.5q70 111 170 111q67 0 110.5 -47.5t43.5 -142.5v-221q0 -78 9.5 -96t58.5 -24v-16h-286v16q40 6 48 24.5t8 95.5v192q0 56 -21.5 85t-60.5 29q-48 0 -75 -29q5 -32 5 -57z" />
    <glyph glyph-name="n" unicode="n" horiz-adv-x="646" 
d="M22 460v-1v16l224 70l4 -104q61 105 162 105q67 0 110.5 -47.5t43.5 -142.5v-221q0 -78 9.5 -96t58.5 -24v-16h-286v16q40 6 48 24.5t8 95.5v192q0 56 -21.5 85t-60.5 29q-43 0 -70 -27v-279q0 -77 8 -95t49 -24v-16h-287v16q49 6 58.5 24t9.5 96v224q0 67 -9.5 82.5
t-58.5 17.5z" />
    <glyph glyph-name="o" unicode="o" horiz-adv-x="625" 
d="M312 547q120 0 200 -78.5t80 -201.5q0 -116 -78.5 -198t-201.5 -82t-200.5 79.5t-77.5 207.5q0 109 78.5 191t199.5 82zM303 512q-98 0 -98 -209q0 -46 5 -89t17 -89.5t37 -74.5t61 -28q96 0 96 215q0 44 -4.5 86t-16.5 87.5t-37 73.5t-60 28z" />
    <glyph glyph-name="p" unicode="p" horiz-adv-x="638" 
d="M240 546v-103q20 39 63 71.5t98 32.5q91 0 147 -74t56 -185q0 -134 -76.5 -217.5t-181.5 -83.5q-28 0 -57 10t-44 26v-103q0 -74 17 -94t84 -26v-16h-331v16q49 6 58.5 24t9.5 96v440q0 67 -9.5 82.5t-58.5 17.5v16zM332 23q50 0 79.5 47t29.5 140t-36.5 163t-96.5 70
q-45 0 -63 -24v-344q11 -23 35 -37.5t52 -14.5z" />
    <glyph glyph-name="q" unicode="q" horiz-adv-x="629" 
d="M307 511q-50 0 -79.5 -47t-29.5 -140t36.5 -163t96.5 -70q45 0 63 24v344q-11 23 -35 37.5t-52 14.5zM407 511l152 32q-3 -51 -3 -223v-400q0 -78 9.5 -96t58.5 -24v-16h-330v16q66 6 83 26t17 94v166q-21 -38 -63 -68.5t-93 -30.5q-89 0 -146 77t-57 182
q0 134 76.5 217.5t181.5 83.5q66 0 114 -36z" />
    <glyph glyph-name="r" unicode="r" horiz-adv-x="498" 
d="M257 403v-267q0 -76 12.5 -95t69.5 -25v-16h-312v16q49 6 58.5 24t9.5 96v224q0 67 -9.5 82.5t-58.5 17.5v16l224 70l3 -114q1 1 11 14t12.5 16l12.5 15t13.5 15.5t13.5 13t15.5 13t15 10t17 9t17 4.5t18.5 2q41 0 65.5 -23.5t24.5 -64.5q0 -43 -24 -69.5t-56 -26.5
q-18 0 -26 4.5t-19 19.5l-29 39q-16 20 -26 20q-23 0 -53 -40z" />
    <glyph glyph-name="s" unicode="s" horiz-adv-x="508" 
d="M260 549h-1q95 0 155 -23v-160h-18q-14 76 -60.5 110t-98.5 34q-34 0 -53 -15t-19 -39q0 -27 17 -46.5t56 -38.5l60 -29q83 -41 119 -84t36 -100q0 -81 -68.5 -126t-156.5 -45q-98 0 -169 31v180h18q46 -169 173 -169q34 0 58.5 15.5t24.5 45.5q0 28 -20 50.5t-73 47.5
l-54 26q-128 62 -128 181q0 72 58 113t144 41z" />
    <glyph glyph-name="t" unicode="t" horiz-adv-x="425" 
d="M239 -13q-68 0 -105.5 38t-37.5 133v330h-81v50h84v53l159 133v-186h132v-50h-132v-302q0 -70 13 -91.5t51 -21.5t73 29l11 -10q-26 -33 -42.5 -51t-51 -36t-73.5 -18z" />
    <glyph glyph-name="u" unicode="u" horiz-adv-x="635" 
d="M537 321v3v-141q0 -67 9.5 -82.5t58.5 -17.5v-16l-211 -73l-17 103q-51 -107 -151 -107q-70 0 -114 45.5t-44 142.5v193q0 27 -0.5 39.5t-4 29.5t-10.5 24t-20 13.5t-33 7.5v14l234 41q-4 -204 -4 -213v-122q0 -119 74 -119q44 0 71 33v250q0 27 -0.5 39.5t-4 29.5
t-10.5 24t-20 13.5t-33 7.5v14l234 41q-4 -204 -4 -217z" />
    <glyph glyph-name="v" unicode="v" horiz-adv-x="595" 
d="M338 0l1 1h-105l-166 453q-10 25 -15 34t-18 19.5t-35 16.5v15h306v-15q-49 -9 -58 -27t6 -55l95 -294l92 249q27 65 23.5 90t-55.5 36v15h186v-15q-43 -10 -59 -25.5t-36 -67.5z" />
    <glyph glyph-name="w" unicode="w" horiz-adv-x="830" 
d="M508 0h-1l-95 349l-98 -349h-124l-126 454q-9 32 -21 46t-44 23v15h300v-15q-49 -9 -58.5 -25.5t3.5 -55.5l72 -282l101 378h104l105 -384l61 242q8 32 10 53t1 33.5t-10.5 20.5t-17.5 11.5t-26 8.5v15h186v-15q-44 -10 -58.5 -25t-27.5 -68l-112 -430h-124z" />
    <glyph glyph-name="x" unicode="x" horiz-adv-x="641" 
d="M178 146l-1 -1l75 90l-158 224q-39 54 -74 62v16h296v-16q-41 -5 -44.5 -22.5t22.5 -52.5l61 -88l56 67q28 34 37 53t-1 30t-44 12v16h199v-16q-39 -4 -74 -32.5t-93 -96.5l-55 -66l175 -248q39 -54 74 -62v-16h-296v16q41 5 44.5 22.5t-22.5 52.5l-79 111l-75 -90
q-28 -34 -37 -53t1 -30t44 -12v-16h-199v16q39 2 74.5 31.5t93.5 98.5z" />
    <glyph glyph-name="y" unicode="y" horiz-adv-x="595" 
d="M269 -50h-2l14 37l-216 469q-12 24 -18.5 34.5t-18.5 20.5t-30 13v15h306v-15q-50 -9 -59 -26t7 -53l107 -266l80 218q27 65 23.5 90t-55.5 36v15h186v-15q-43 -10 -59 -25.5t-36 -67.5l-188 -494q-17 -43 -27.5 -65.5t-28 -47t-39.5 -35t-51 -10.5q-37 0 -65 19t-28 52
q0 25 16 45t42 20q20 0 38 -18l51 -51q29 52 51 105z" />
    <glyph glyph-name="z" unicode="z" horiz-adv-x="544" 
d="M500 0h1h-471v10l297 491h-70q-42 0 -66.5 -4.5t-45.5 -21t-32.5 -47.5t-19.5 -84h-21v194h437v-10l-296 -491h103q42 0 66 4.5t45 21t32.5 47.5t19.5 84h21v-194z" />
    <glyph glyph-name="braceleft" unicode="{" horiz-adv-x="356" 
d="M334 -216v-1h-44q-113 0 -161.5 26t-48.5 97v240q0 51 -16 82t-64 31v41q48 0 64 31t16 82v235q0 71 48.5 97t161.5 26h44v-31h-14q-45 0 -62.5 -21.5t-17.5 -62.5v-233q0 -66 -35 -98t-98 -43v-2q65 -14 99 -44t34 -97v-241q0 -40 17.5 -62t62.5 -22h14v-30z" />
    <glyph glyph-name="bar" unicode="|" horiz-adv-x="239" 
d="M157 -90h-75v815h75v-815z" />
    <glyph glyph-name="braceright" unicode="}" horiz-adv-x="356" 
d="M116 -102v241q0 67 34 97t99 44v2q-63 11 -98 43t-35 99v233q0 41 -17.5 62.5t-62.5 21.5h-14v31h44q113 0 161.5 -26t48.5 -97v-235q0 -51 16 -82t64 -31v-41q-48 0 -64 -31t-16 -82v-240q0 -71 -48.5 -97t-161.5 -26h-44v30h14q45 0 62.5 22t17.5 62z" />
    <glyph glyph-name="asciitilde" unicode="~" horiz-adv-x="563" 
d="M397 278q29 0 48 19t22 53h76q-4 -66 -43.5 -104.5t-102.5 -38.5q-43 0 -119.5 36.5t-109.5 36.5q-29 0 -48 -19t-21 -54h-78q4 67 43 105t103 38q52 0 128 -36t102 -36z" />
    <glyph glyph-name="uni00A0" unicode="&#xa0;" horiz-adv-x="200" 
 />
    <glyph glyph-name="exclamdown" unicode="&#xa1;" horiz-adv-x="431" 
d="M120 -178v238l85 241h20l84 -240v-239q0 -30 -47.5 -42t-94.5 0t-47 42zM124 454q0 39 26.5 66.5t65.5 27.5q41 0 68 -27t27 -67t-26.5 -66.5t-68.5 -26.5q-39 0 -65.5 27t-26.5 66z" />
    <glyph glyph-name="cent" unicode="&#xa2;" horiz-adv-x="596" 
d="M279 -102l-1 -1v91q-114 8 -182 83t-68 195t68 195t182 83v88h44v-87q96 -4 162 -49t82 -134h-148q-6 138 -95 145v-483q89 7 95 146h148q-15 -88 -81.5 -134t-161.5 -48v-90h-44zM189 265v-1q0 -105 21 -163.5t68 -73.5v474q-89 -29 -89 -236z" />
    <glyph glyph-name="sterling" unicode="&#xa3;" horiz-adv-x="673" 
d="M361 708l-1 1q-115 0 -115 -134q0 -16 3 -33t6 -28t11 -28.5t11 -23.5t14 -26t13 -23h185v-51h-161q9 -29 9 -52q0 -24 -13.5 -46t-38.5 -41t-47.5 -32.5t-52.5 -30t-42 -23.5l2 -1q81 35 140 35q42 0 85.5 -23t81.5 -23q64 0 134 34l48 -133q-26 -14 -80 -26t-94 -12
q-47 0 -106 19.5t-101 19.5q-93 0 -196 -42l-37 125q78 28 113 65t35 110q0 35 -16 76h-129v51h103q-17 31 -24.5 45.5t-16 43t-8.5 56.5q0 82 71.5 133.5t209.5 51.5q131 0 200 -55t80 -141h-159q3 68 -23.5 115t-93.5 47z" />
    <glyph glyph-name="currency" unicode="&#xa4;" horiz-adv-x="645" 
d="M80 352q0 77 45 141l-69 71l48 47l68 -68q65 51 148 51t152 -53l70 70l48 -47l-72 -72q45 -63 45 -140q0 -78 -46 -141l73 -72l-48 -47l-71 70q-69 -51 -151 -51q-83 0 -147 50l-69 -69l-48 47l70 71q-46 63 -46 142zM155 352q0 -75 46 -124t118 -49q75 0 122.5 49
t47.5 124t-48 125t-122 50q-71 0 -117.5 -50t-46.5 -125z" />
    <glyph glyph-name="yen" unicode="&#xa5;" horiz-adv-x="703" 
d="M260 126l-1 2v16h-164v45h164v75h-164v44h154l-159 312q-27 54 -41.5 68.5t-50.5 21.5v16h323v-16q-45 -6 -56 -20t4 -49l137 -293l84 159q27 51 38.5 88t10.5 57.5t-13.5 33.5t-26.5 17t-36 7v16h239v-16q-41 -8 -67.5 -39t-79.5 -134l-123 -231h154v-44h-163v-75h163
v-45h-163v-16q0 -75 11.5 -89.5t77.5 -20.5v-16h-342v16q67 6 78.5 20.5t11.5 89.5z" />
    <glyph glyph-name="brokenbar" unicode="&#xa6;" horiz-adv-x="239" 
d="M82 725h75v-305h-75v305zM82 215h75v-305h-75v305z" />
    <glyph glyph-name="section" unicode="&#xa7;" horiz-adv-x="667" 
d="M344 -188h-1q46 0 71 21t25 52q0 60 -82 100l-163 82q-77 38 -114 81t-37 101q0 117 161 171q-107 69 -107 163q0 77 66 118t158 41q132 0 198.5 -52t77.5 -136h-160q3 66 -24 110t-91 44q-42 0 -67 -23.5t-25 -50.5q0 -61 78 -99l164 -82q77 -38 114 -81t37 -101
q0 -62 -44.5 -105t-116.5 -67q59 -35 84.5 -74t25.5 -88q0 -78 -67.5 -119t-160.5 -41q-130 0 -202.5 56.5t-81.5 140.5h160q-1 -24 2 -46.5t12 -44t23 -37t36.5 -25t50.5 -9.5zM383 329l-134 66q-65 -30 -65 -89q0 -63 98 -115l133 -67q66 29 66 90q0 60 -98 115z" />
    <glyph glyph-name="dieresis" unicode="&#xa8;" horiz-adv-x="429" 
d="M22 694q0 32 22 55t54 23t55 -23t23 -55q0 -31 -22.5 -53.5t-55.5 -22.5q-32 0 -54 22.5t-22 53.5zM252 694q0 32 23 55t55 23t54.5 -22.5t22.5 -55.5q0 -31 -22.5 -53.5t-54.5 -22.5q-33 0 -55.5 22.5t-22.5 53.5z" />
    <glyph glyph-name="copyright" unicode="&#xa9;" horiz-adv-x="838" 
d="M44 361q0 164 109 270t267 106q157 0 265.5 -106t108.5 -270t-108.5 -269t-265.5 -105q-159 0 -267.5 105t-108.5 269zM113 361q0 -138 87.5 -225.5t219.5 -87.5t218.5 87t86.5 226t-86.5 226.5t-218.5 87.5t-219.5 -87.5t-87.5 -226.5zM417 219h-1q38 0 68 19t41 59
l67 -19q-17 -52 -61.5 -85.5t-114.5 -33.5q-89 0 -137.5 55t-48.5 154q0 96 51.5 150t139.5 54q68 0 111 -33.5t58 -89.5l-67 -21q-9 41 -38 62.5t-68 21.5q-50 0 -81.5 -37t-31.5 -107t32 -109.5t81 -39.5z" />
    <glyph glyph-name="ordfeminine" unicode="&#xaa;" horiz-adv-x="328" 
d="M283 634l-1 -106q-1 -48 19 -48q14 0 26 13l7 -5q-37 -57 -81 -57q-69 0 -73 65q-32 -65 -86 -65q-38 0 -61.5 22t-23.5 54q0 29 18.5 49.5t62.5 38.5q33 15 86 29v16q1 44 -6 63t-34 19q-16 0 -24.5 -11t-10.5 -28.5t0 -45.5h-83q6 52 45.5 81t96.5 29q52 0 88.5 -28.5
t34.5 -84.5zM151 497l1 -1q15 0 24 9v93q-38 -7 -56 -21q-15 -11 -15 -35q0 -21 13.5 -33t32.5 -12z" />
    <glyph glyph-name="guillemotleft" unicode="&#xab;" horiz-adv-x="588" 
d="M484 38l-225 235l225 234h49l-111 -234l111 -235h-49zM258 38l-225 235l225 234h49l-111 -234l111 -235h-49z" />
    <glyph glyph-name="logicalnot" unicode="&#xac;" 
d="M503 361h-449v76h530v-338h-81v262z" />
    <glyph glyph-name="uni00AD" unicode="&#xad;" horiz-adv-x="346" 
d="M44 227v91h258v-91h-258z" />
    <glyph glyph-name="registered" unicode="&#xae;" horiz-adv-x="838" 
d="M44 361q0 164 109 270t267 106q157 0 265.5 -106t108.5 -270t-108.5 -269t-265.5 -105q-159 0 -267.5 105t-108.5 269zM113 361q0 -138 87.5 -225.5t219.5 -87.5t218.5 87t86.5 226t-86.5 226.5t-218.5 87.5t-219.5 -87.5t-87.5 -226.5zM521 176v-1l-81 153h-20h-72v-153
h-73v397h122q96 0 141 -25t45 -97q0 -75 -72 -105l91 -169h-81zM510 449q0 34 -25 47.5t-71 13.5h-66v-122h71q91 0 91 61z" />
    <glyph glyph-name="macron" unicode="&#xaf;" horiz-adv-x="365" 
d="M343 665h-321v68h321v-68z" />
    <glyph glyph-name="degree" unicode="&#xb0;" horiz-adv-x="342" 
d="M22 589q0 62 43.5 105.5t104.5 43.5q62 0 106 -43.5t44 -105.5t-44 -105.5t-106 -43.5q-61 0 -104.5 43.5t-43.5 105.5zM93 589q0 -36 21.5 -61t55.5 -25q36 0 58 25t22 61q0 37 -22 61.5t-58 24.5q-35 0 -56 -24.5t-21 -61.5z" />
    <glyph glyph-name="plusminus" unicode="&#xb1;" 
d="M299 371v168h80v-168h230v-75h-230v-172h-80v172h-230v75h230zM609 0h-540v75h540v-75z" />
    <glyph glyph-name="twosuperior" unicode="&#xb2;" horiz-adv-x="360" 
d="M306 748h-1q0 -40 -37 -84t-70 -63q-43 -31 -87 -67h190v-96h-300v6q18 21 59.5 63t66 69.5t46 72t21.5 89.5q0 29 -19 47t-49 18q-63 0 -82 -63h-19q23 117 152 117q56 0 92.5 -29.5t36.5 -79.5z" />
    <glyph glyph-name="threesuperior" unicode="&#xb3;" horiz-adv-x="369" 
d="M141 433h1q-53 0 -104 15v106h10q36 -96 97 -96q33 0 55 22t22 54q0 33 -25 64.5t-79 40.5v12l11 6q37 16 52.5 43t15.5 52q0 24 -17 37t-41 14q-65 0 -82 -63h-19q10 55 51 85.5t102 30.5q42 0 78 -20.5t36 -56.5q0 -34 -30 -54.5t-58 -26.5v-2q47 -13 80 -48t33 -79
q0 -64 -55.5 -100t-133.5 -36z" />
    <glyph glyph-name="acute" unicode="&#xb4;" horiz-adv-x="307" 
d="M95 772h190l-249 -169h-14z" />
    <glyph glyph-name="mu" unicode="&#xb5;" horiz-adv-x="575" 
d="M142 -189h-79q9 39 9 158v569h81v-302q0 -179 128 -179q66 0 102 48.5t36 140.5v292h81v-538h-81v81q-21 -45 -56.5 -69.5t-78.5 -24.5q-91 0 -131 77v-86q0 -106 -11 -167z" />
    <glyph glyph-name="mu" unicode="&#x3bc;" horiz-adv-x="575" 
d="M142 -189h-79q9 39 9 158v569h81v-302q0 -179 128 -179q66 0 102 48.5t36 140.5v292h81v-538h-81v81q-21 -45 -56.5 -69.5t-78.5 -24.5q-91 0 -131 77v-86q0 -106 -11 -167z" />
    <glyph glyph-name="paragraph" unicode="&#xb6;" horiz-adv-x="516" 
d="M0 534v-1q0 91 61.5 141t183.5 50h196v-816h-71v749h-120v-749h-71v446q-75 9 -127 54t-52 126z" />
    <glyph glyph-name="periodcentered" unicode="&#xb7;" horiz-adv-x="341" 
d="M77 280q0 39 26.5 66.5t65.5 27.5q41 0 68 -27t27 -67t-27 -66.5t-68 -26.5q-39 0 -65.5 27t-26.5 66z" />
    <glyph glyph-name="cedilla" unicode="&#xb8;" horiz-adv-x="261" 
d="M53 -119l72 122h37l-50 -86q17 9 41 9q35 0 60.5 -21t25.5 -50q0 -46 -39.5 -70t-90.5 -24q-43 0 -87 25l13 32q32 -15 62 -15q26 0 45 10.5t19 31.5q0 22 -18 32.5t-41 9t-41 -10.5z" />
    <glyph glyph-name="onesuperior" unicode="&#xb9;" horiz-adv-x="289" 
d="M207 856v-1v-347q0 -38 6 -48.5t20 -13.5v-9h-185v8q29 2 38 16.5t9 58.5v270h-71v10q125 21 171 56h12z" />
    <glyph glyph-name="ordmasculine" unicode="&#xba;" horiz-adv-x="360" 
d="M180 746q69 0 115 -45.5t46 -112.5q0 -62 -45.5 -109.5t-118.5 -47.5q-72 0 -115 46.5t-43 117.5q0 56 45 103.5t116 47.5zM175 727q-39 0 -39 -118q0 -159 49 -159q39 0 39 123q0 154 -49 154z" />
    <glyph glyph-name="guillemotright" unicode="&#xbb;" horiz-adv-x="588" 
d="M556 273l-225 -235h-49l111 235l-111 234h49zM329 273l-225 -235h-49l111 235l-111 234h49z" />
    <glyph glyph-name="onequarter" unicode="&#xbc;" horiz-adv-x="972" 
d="M207 735v-1v-347q0 -38 6 -48.5t20 -13.5v-9h-185v8q29 2 38 16.5t9 58.5v270h-71v10q125 21 171 56h12zM214 -1h-75l508 725h75zM877 -1h-111v81h-164v101l172 226h103v-237h55v-90h-55v-81zM766 170v179l-136 -179h136z" />
    <glyph glyph-name="onehalf" unicode="&#xbd;" horiz-adv-x="932" 
d="M207 735v-1v-347q0 -38 6 -48.5t20 -13.5v-9h-185v8q29 2 38 16.5t9 58.5v270h-71v10q125 21 171 56h12zM214 -1h-75l508 725h75zM878 309h-1q0 -40 -37 -84t-70 -63q-43 -31 -87 -67h190v-96h-300v6q18 21 59.5 63t66 69.5t46 72t21.5 89.5q0 29 -19 47t-49 18
q-63 0 -82 -63h-19q23 117 152 117q56 0 92.5 -29.5t36.5 -79.5z" />
    <glyph glyph-name="threequarters" unicode="&#xbe;" horiz-adv-x="1051" 
d="M141 312h1q-53 0 -104 15v106h10q36 -96 97 -96q33 0 55 21.5t22 54.5t-25 64.5t-79 40.5v12l11 6q37 16 52.5 43t15.5 52t-17 37.5t-41 13.5q-65 0 -82 -63h-19q10 55 51 85.5t102 30.5q42 0 78 -20.5t36 -56.5q0 -34 -30 -54.5t-58 -26.5v-2q47 -13 80 -48t33 -79
q0 -64 -55.5 -100t-133.5 -36zM295 0h-75l508 725h75zM958 0h-111v81h-164v101l172 226h103v-237h55v-90h-55v-81zM847 171v179l-136 -179h136z" />
    <glyph glyph-name="questiondown" unicode="&#xbf;" horiz-adv-x="661" 
d="M371 -181l-1 -1q63 0 102.5 52t65.5 140h20v-201q-87 -36 -185 -36q-119 0 -191 38.5t-72 114.5q0 53 29.5 92t71 63.5l83 49t71 64.5t29.5 94v12h31v-9q0 -58 -16 -106.5t-38.5 -81t-45 -61.5t-38.5 -61.5t-16 -66.5q0 -45 27 -70.5t73 -25.5zM309 453q0 39 26.5 66.5
t65.5 27.5q41 0 68 -27t27 -67q0 -39 -27 -66t-68 -27q-39 0 -65.5 27t-26.5 66z" />
    <glyph glyph-name="Agrave" unicode="&#xc0;" horiz-adv-x="788" 
d="M0 0v-2v16q43 8 65 37t63 136l205 528q67 13 101 53h5l254 -647q21 -56 38.5 -77t57.5 -28v-16h-329v16q42 6 52 26t-5 57l-55 141h-258l-7 -18q-21 -54 -27 -92t-2.5 -58.5t19.5 -33t29.5 -16t38.5 -6.5v-16h-245zM324 567l-112 -283h222zM148 920h201l52 -129h-16z" />
    <glyph glyph-name="Aacute" unicode="&#xc1;" horiz-adv-x="788" 
d="M0 0v-2v16q43 8 65 37t63 136l205 528q67 13 101 53h5l254 -647q21 -56 38.5 -77t57.5 -28v-16h-329v16q42 6 52 26t-5 57l-55 141h-258l-7 -18q-21 -54 -27 -92t-2.5 -58.5t19.5 -33t29.5 -16t38.5 -6.5v-16h-245zM324 567l-112 -283h222zM600 920l-237 -129h-16l52 129
h201z" />
    <glyph glyph-name="Acircumflex" unicode="&#xc2;" horiz-adv-x="788" 
d="M0 0v-2v16q43 8 65 37t63 136l205 528q67 13 101 53h5l254 -647q21 -56 38.5 -77t57.5 -28v-16h-329v16q42 6 52 26t-5 57l-55 141h-258l-7 -18q-21 -54 -27 -92t-2.5 -58.5t19.5 -33t29.5 -16t38.5 -6.5v-16h-245zM324 567l-112 -283h222zM390 920h16l155 -129h-23
l-140 46l-140 -46h-23z" />
    <glyph glyph-name="Atilde" unicode="&#xc3;" horiz-adv-x="788" 
d="M0 0v-2v16q43 8 65 37t63 136l205 528q67 13 101 53h5l254 -647q21 -56 38.5 -77t57.5 -28v-16h-329v16q42 6 52 26t-5 57l-55 141h-258l-7 -18q-21 -54 -27 -92t-2.5 -58.5t19.5 -33t29.5 -16t38.5 -6.5v-16h-245zM324 567l-112 -283h222zM492 864h2q51 0 61 50h16
q0 -52 -24 -89t-69 -37q-34 0 -83.5 30.5t-79.5 30.5q-53 0 -63 -51h-16q0 53 24 90t69 37q33 0 83.5 -30.5t79.5 -30.5z" />
    <glyph glyph-name="Adieresis" unicode="&#xc4;" horiz-adv-x="788" 
d="M0 0v-2v16q43 8 65 37t63 136l205 528q67 13 101 53h5l254 -647q21 -56 38.5 -77t57.5 -28v-16h-329v16q42 6 52 26t-5 57l-55 141h-258l-7 -18q-21 -54 -27 -92t-2.5 -58.5t19.5 -33t29.5 -16t38.5 -6.5v-16h-245zM324 567l-112 -283h222zM433 857q0 27 19.5 47t47.5 20
q27 0 46.5 -20t19.5 -47t-19.5 -46t-46.5 -19q-28 0 -47.5 19t-19.5 46zM211 857q0 27 19 47t45 20q29 0 48.5 -20t19.5 -47t-19.5 -46t-48.5 -19q-26 0 -45 19t-19 46z" />
    <glyph glyph-name="Aring" unicode="&#xc5;" horiz-adv-x="788" 
d="M0 0v-2v16q43 8 65 37t63 136l205 528q67 13 101 53h5l254 -647q21 -56 38.5 -77t57.5 -28v-16h-329v16q42 6 52 26t-5 57l-55 141h-258l-7 -18q-21 -54 -27 -92t-2.5 -58.5t19.5 -33t29.5 -16t38.5 -6.5v-16h-245zM324 567l-112 -283h222zM285 878q0 39 27 66.5t66 27.5
t66.5 -27.5t27.5 -66.5q0 -38 -27.5 -65.5t-66.5 -27.5t-66 27.5t-27 65.5zM324 878q0 -25 15 -40.5t39 -15.5q23 0 38.5 15.5t15.5 40.5t-15.5 41t-38.5 16q-24 0 -39 -16t-15 -41z" />
    <glyph glyph-name="AE" unicode="&#xc6;" horiz-adv-x="1113" 
d="M490 725h270q202 0 257 2l17 -267h-22q-18 64 -36.5 102.5t-52.5 69.5t-86 44t-131 13h-40v-293h108q45 0 70 25.5t33 86.5h18v-268h-18q-8 61 -33 86.5t-70 25.5h-108v-279q0 -23 11.5 -30t48.5 -7h41q84 0 137 27t81 73.5t51 128.5h22l-18 -267q-59 2 -273 2h-376v16
q66 8 82.5 30t16.5 100v94h-239l-10 -18q-37 -64 -53 -104t-10.5 -61t21.5 -29.5t49 -11.5v-16h-259v16q51 8 84.5 40.5t93.5 131.5zM490 642l-211 -356h211v356z" />
    <glyph glyph-name="Ccedilla" unicode="&#xc7;" horiz-adv-x="763" 
d="M311 -119l1 1l65 110q-141 18 -236 116.5t-95 256.5q0 175 117 278t284 103q143 0 231 -42l29 -231h-21q-87 234 -240 234q-93 0 -149 -93t-56 -249q0 -157 55.5 -245t164.5 -88q176 0 252 181l29 -10q-14 -39 -35.5 -73t-57 -68t-91 -54t-123.5 -20h-24l-41 -71
q17 9 41 9q35 0 60.5 -21t25.5 -50q0 -46 -39.5 -70t-90.5 -24q-43 0 -87 25l13 32q32 -15 62 -15q26 0 45 10.5t19 31.5q0 22 -18 32.5t-41 9t-41 -10.5z" />
    <glyph glyph-name="Egrave" unicode="&#xc8;" horiz-adv-x="753" 
d="M166 922h201l52 -129h-16zM306 396h108q45 0 70 25.5t33 86.5h18v-268h-18q-8 61 -33 86.5t-70 25.5h-108v-279q0 -23 11.5 -30t48.5 -7h41q84 0 137 27t81 73.5t51 128.5h22l-18 -267q-59 2 -273 2h-376v16q66 8 82.5 30t16.5 100v433q0 78 -16.5 99t-82.5 31v16h369
q202 0 257 2l17 -267h-22q-18 64 -36.5 102.5t-52.5 69.5t-86 44t-131 13h-40v-293z" />
    <glyph glyph-name="Eacute" unicode="&#xc9;" horiz-adv-x="753" 
d="M306 396h108q45 0 70 25.5t33 86.5h18v-268h-18q-8 61 -33 86.5t-70 25.5h-108v-279q0 -23 11.5 -30t48.5 -7h41q84 0 137 27t81 73.5t51 128.5h22l-18 -267q-59 2 -273 2h-376v16q66 8 82.5 30t16.5 100v433q0 78 -16.5 99t-82.5 31v16h369q202 0 257 2l17 -267h-22
q-18 64 -36.5 102.5t-52.5 69.5t-86 44t-131 13h-40v-293zM594 922l-237 -129h-16l52 129h201z" />
    <glyph glyph-name="Ecircumflex" unicode="&#xca;" horiz-adv-x="753" 
d="M306 396h108q45 0 70 25.5t33 86.5h18v-268h-18q-8 61 -33 86.5t-70 25.5h-108v-279q0 -23 11.5 -30t48.5 -7h41q84 0 137 27t81 73.5t51 128.5h22l-18 -267q-59 2 -273 2h-376v16q66 8 82.5 30t16.5 100v433q0 78 -16.5 99t-82.5 31v16h369q202 0 257 2l17 -267h-22
q-18 64 -36.5 102.5t-52.5 69.5t-86 44t-131 13h-40v-293zM380 922h16l155 -129h-23l-140 46l-140 -46h-23z" />
    <glyph glyph-name="Edieresis" unicode="&#xcb;" horiz-adv-x="753" 
d="M306 396h108q45 0 70 25.5t33 86.5h18v-268h-18q-8 61 -33 86.5t-70 25.5h-108v-279q0 -23 11.5 -30t48.5 -7h41q84 0 137 27t81 73.5t51 128.5h22l-18 -267q-59 2 -273 2h-376v16q66 8 82.5 30t16.5 100v433q0 78 -16.5 99t-82.5 31v16h369q202 0 257 2l17 -267h-22
q-18 64 -36.5 102.5t-52.5 69.5t-86 44t-131 13h-40v-293zM443 859q0 27 19.5 47t47.5 20q27 0 46.5 -20t19.5 -47t-19.5 -46t-46.5 -19q-28 0 -47.5 19t-19.5 46zM221 859q0 27 19 47t45 20q29 0 48.5 -20t19.5 -47t-19.5 -46t-48.5 -19q-26 0 -45 19t-19 46z" />
    <glyph glyph-name="Igrave" unicode="&#xcc;" horiz-adv-x="437" 
d="M306 579v-1v-433q0 -78 17 -100t83 -30v-16h-375v16q66 8 82.5 30t16.5 100v433q0 78 -16.5 99t-82.5 31v16h375v-16q-67 -10 -83.5 -30.5t-16.5 -98.5zM53 921h201l52 -129h-16z" />
    <glyph glyph-name="Iacute" unicode="&#xcd;" horiz-adv-x="437" 
d="M306 579v-1v-433q0 -78 17 -100t83 -30v-16h-375v16q66 8 82.5 30t16.5 100v433q0 78 -16.5 99t-82.5 31v16h375v-16q-67 -10 -83.5 -30.5t-16.5 -98.5zM403 921l-237 -129h-16l52 129h201z" />
    <glyph glyph-name="Icircumflex" unicode="&#xce;" horiz-adv-x="437" 
d="M306 579v-1v-433q0 -78 17 -100t83 -30v-16h-375v16q66 8 82.5 30t16.5 100v433q0 78 -16.5 99t-82.5 31v16h375v-16q-67 -10 -83.5 -30.5t-16.5 -98.5zM210 921h16l155 -129h-23l-140 46l-140 -46h-23z" />
    <glyph glyph-name="Idieresis" unicode="&#xcf;" horiz-adv-x="437" 
d="M306 579v-1v-433q0 -78 17 -100t83 -30v-16h-375v16q66 8 82.5 30t16.5 100v433q0 78 -16.5 99t-82.5 31v16h375v-16q-67 -10 -83.5 -30.5t-16.5 -98.5zM262 858q0 27 19.5 47t47.5 20q27 0 46.5 -20t19.5 -47t-19.5 -46t-46.5 -19q-28 0 -47.5 19t-19.5 46zM40 858
q0 27 19 47t45 20q29 0 48.5 -20t19.5 -47t-19.5 -46t-48.5 -19q-26 0 -45 19t-19 46z" />
    <glyph glyph-name="Eth" unicode="&#xd0;" horiz-adv-x="870" 
d="M61 725h317q95 0 173.5 -19.5t141 -60.5t97.5 -112t35 -168t-34 -169t-96 -114t-141 -62t-177 -20h-316v16q66 8 82.5 30t16.5 100v206h-130v44h130v183q0 78 -16.5 99t-82.5 31v16zM336 36h39q136 0 195.5 79.5t59.5 249.5q0 167 -61 245.5t-196 78.5h-37v-293h102v-44
h-102v-316z" />
    <glyph glyph-name="Ntilde" unicode="&#xd1;" horiz-adv-x="825" 
d="M532 866h2q51 0 61 50h16q0 -52 -24 -89t-69 -37q-34 0 -83.5 30.5t-79.5 30.5q-53 0 -63 -51h-16q0 53 24 90t69 37q33 0 83.5 -30.5t79.5 -30.5zM660 167h-1v412q0 78 -16.5 99t-82.5 31v16h246v-16q-66 -10 -82.5 -31t-16.5 -99v-579h-149l-379 568v-422
q0 -78 17 -100t83 -30v-16h-247v16q66 8 82.5 30t16.5 100v494l-2 3q-26 37 -41 49.5t-35 19.5v13h235z" />
    <glyph glyph-name="Ograve" unicode="&#xd2;" horiz-adv-x="892" 
d="M232 922h201l52 -129h-16zM847 366q0 -90 -33.5 -163t-90 -119.5t-128 -71.5t-149.5 -25t-149.5 25t-128 71.5t-90 119.5t-33.5 163t33.5 163t90 119.5t128 71.5t149.5 25t149.5 -25t128 -71.5t90 -119.5t33.5 -163zM240 366q0 -157 53 -248.5t153 -91.5t153 91.5
t53 248.5t-53 248.5t-153 91.5t-153 -91.5t-53 -248.5z" />
    <glyph glyph-name="Oacute" unicode="&#xd3;" horiz-adv-x="892" 
d="M847 366q0 -90 -33.5 -163t-90 -119.5t-128 -71.5t-149.5 -25t-149.5 25t-128 71.5t-90 119.5t-33.5 163t33.5 163t90 119.5t128 71.5t149.5 25t149.5 -25t128 -71.5t90 -119.5t33.5 -163zM240 366q0 -157 53 -248.5t153 -91.5t153 91.5t53 248.5t-53 248.5t-153 91.5
t-153 -91.5t-53 -248.5zM674 922l-237 -129h-16l52 129h201z" />
    <glyph glyph-name="Ocircumflex" unicode="&#xd4;" horiz-adv-x="892" 
d="M847 366q0 -90 -33.5 -163t-90 -119.5t-128 -71.5t-149.5 -25t-149.5 25t-128 71.5t-90 119.5t-33.5 163t33.5 163t90 119.5t128 71.5t149.5 25t149.5 -25t128 -71.5t90 -119.5t33.5 -163zM240 366q0 -157 53 -248.5t153 -91.5t153 91.5t53 248.5t-53 248.5t-153 91.5
t-153 -91.5t-53 -248.5zM438 922h16l155 -129h-23l-140 46l-140 -46h-23z" />
    <glyph glyph-name="Otilde" unicode="&#xd5;" horiz-adv-x="892" 
d="M847 366q0 -90 -33.5 -163t-90 -119.5t-128 -71.5t-149.5 -25t-149.5 25t-128 71.5t-90 119.5t-33.5 163t33.5 163t90 119.5t128 71.5t149.5 25t149.5 -25t128 -71.5t90 -119.5t33.5 -163zM240 366q0 -157 53 -248.5t153 -91.5t153 91.5t53 248.5t-53 248.5t-153 91.5
t-153 -91.5t-53 -248.5zM536 866h2q51 0 61 50h16q0 -52 -24 -89t-69 -37q-34 0 -83.5 30.5t-79.5 30.5q-53 0 -63 -51h-16q0 53 24 90t69 37q33 0 83.5 -30.5t79.5 -30.5z" />
    <glyph glyph-name="Odieresis" unicode="&#xd6;" horiz-adv-x="892" 
d="M847 366q0 -90 -33.5 -163t-90 -119.5t-128 -71.5t-149.5 -25t-149.5 25t-128 71.5t-90 119.5t-33.5 163t33.5 163t90 119.5t128 71.5t149.5 25t149.5 -25t128 -71.5t90 -119.5t33.5 -163zM240 366q0 -157 53 -248.5t153 -91.5t153 91.5t53 248.5t-53 248.5t-153 91.5
t-153 -91.5t-53 -248.5zM490 859q0 27 19.5 47t47.5 20q27 0 46.5 -20t19.5 -47t-19.5 -46t-46.5 -19q-28 0 -47.5 19t-19.5 46zM268 859q0 27 19 47t45 20q29 0 48.5 -20t19.5 -47t-19.5 -46t-48.5 -19q-26 0 -45 19t-19 46z" />
    <glyph glyph-name="multiply" unicode="&#xd7;" 
d="M576 92l-57 -57l-181 181l-178 -178l-57 57l178 178l-178 179l57 57l178 -179l178 178l57 -57l-178 -178z" />
    <glyph glyph-name="Oslash" unicode="&#xd8;" horiz-adv-x="892" 
d="M847 366q0 -90 -33.5 -163t-90 -119.5t-128 -71.5t-149.5 -25q-118 0 -213 52l-59 -87l-35 23l58 86q-152 107 -152 305q0 90 33.5 163t90 119.5t128 71.5t149.5 25q100 0 186 -39l61 90l35 -23l-59 -87q82 -48 130 -129.5t48 -190.5zM652 366h-1q0 143 -43 230
l-320 -473q54 -97 158 -97q100 0 153 91.5t53 248.5zM239 366q0 -118 29 -198l316 468q-54 70 -139 70q-100 0 -153 -91.5t-53 -248.5z" />
    <glyph glyph-name="Ugrave" unicode="&#xd9;" horiz-adv-x="813" 
d="M256 922h201l52 -129h-16zM110 278v-1v301q0 78 -16.5 99t-82.5 31v16h375v-16q-67 -10 -83.5 -30.5t-16.5 -98.5v-281q0 -125 42 -189.5t143 -64.5q98 0 142 64.5t44 186.5v284q0 78 -16.5 99t-82.5 31v16h251v-16q-66 -10 -82.5 -31t-16.5 -99v-281q0 -311 -279 -311
q-321 0 -321 291z" />
    <glyph glyph-name="Uacute" unicode="&#xda;" horiz-adv-x="813" 
d="M110 278v-1v301q0 78 -16.5 99t-82.5 31v16h375v-16q-67 -10 -83.5 -30.5t-16.5 -98.5v-281q0 -125 42 -189.5t143 -64.5q98 0 142 64.5t44 186.5v284q0 78 -16.5 99t-82.5 31v16h251v-16q-66 -10 -82.5 -31t-16.5 -99v-281q0 -311 -279 -311q-321 0 -321 291zM678 921
l-237 -129h-16l52 129h201z" />
    <glyph glyph-name="Ucircumflex" unicode="&#xdb;" horiz-adv-x="813" 
d="M110 278v-1v301q0 78 -16.5 99t-82.5 31v16h375v-16q-67 -10 -83.5 -30.5t-16.5 -98.5v-281q0 -125 42 -189.5t143 -64.5q98 0 142 64.5t44 186.5v284q0 78 -16.5 99t-82.5 31v16h251v-16q-66 -10 -82.5 -31t-16.5 -99v-281q0 -311 -279 -311q-321 0 -321 291zM451 921
h16l155 -129h-23l-140 46l-140 -46h-23z" />
    <glyph glyph-name="Udieresis" unicode="&#xdc;" horiz-adv-x="813" 
d="M110 278v-1v301q0 78 -16.5 99t-82.5 31v16h375v-16q-67 -10 -83.5 -30.5t-16.5 -98.5v-281q0 -125 42 -189.5t143 -64.5q98 0 142 64.5t44 186.5v284q0 78 -16.5 99t-82.5 31v16h251v-16q-66 -10 -82.5 -31t-16.5 -99v-281q0 -311 -279 -311q-321 0 -321 291zM501 858
q0 27 19.5 47t47.5 20q27 0 46.5 -20t19.5 -47t-19.5 -46t-46.5 -19q-28 0 -47.5 19t-19.5 46zM279 858q0 27 19 47t45 20q29 0 48.5 -20t19.5 -47t-19.5 -46t-48.5 -19q-26 0 -45 19t-19 46z" />
    <glyph glyph-name="Yacute" unicode="&#xdd;" horiz-adv-x="760" 
d="M452 294v1v-148q0 -78 18.5 -100t91.5 -30v-16h-396v16q73 8 91.5 30t18.5 100v140l-185 332q-35 59 -47.5 72t-43.5 19v16h336v-16q-44 -6 -56.5 -19.5t3.5 -49.5l154 -293l124 211q49 87 41 116t-70 35v16h228v-16q-29 -6 -43 -15t-37 -38.5t-66 -100.5zM656 923
l-237 -129h-16l52 129h201z" />
    <glyph glyph-name="Thorn" unicode="&#xde;" horiz-adv-x="698" 
d="M306 573v-357q109 6 153 42.5t44 141.5q0 173 -173 173h-24zM31 725h1h275v-119h38q82 0 142.5 -9t110.5 -30.5t75.5 -62t25.5 -100.5q0 -58 -27 -101t-72 -66t-94.5 -33.5t-103.5 -10.5q-65 0 -96 5v-52q0 -78 19 -100t94 -30v-16h-388v16q66 8 82.5 30t16.5 100v433
q0 78 -16.5 99t-82.5 31v16z" />
    <glyph glyph-name="germandbls" unicode="&#xdf;" horiz-adv-x="703" 
d="M25 0v16q49 6 58.5 24t9.5 96v317q0 157 78.5 238t204.5 81q99 0 159 -33t60 -97q0 -53 -41 -90.5t-90 -55.5v-3q92 -33 145.5 -98.5t53.5 -150.5q0 -121 -82.5 -189.5t-191.5 -68.5q-45 0 -77 6v85h6q39 -35 82 -35q48 0 76 36t28 110q0 80 -46 140.5t-151 77.5v22
l22 10q70 32 99 73t29 109q0 115 -95 115q-107 0 -107 -196v-334l3 -205h-233z" />
    <glyph glyph-name="agrave" unicode="&#xe0;" horiz-adv-x="592" 
d="M343 82h2q-33 -47 -68 -71t-85 -24q-62 0 -107 41.5t-45 95.5q0 43 37 75.5t125 74.5q33 16 144 63v29q0 78 -17.5 108.5t-60.5 30.5q-92 0 -83 -145h-134q-2 67 69.5 127.5t175.5 60.5q100 0 152.5 -43t50.5 -142l-5 -229q0 -72 34 -72q19 0 42 17l12 -13
q-56 -77 -134 -77q-41 0 -70 23.5t-35 69.5zM341 107l4 190q-59 -21 -102 -46q-54 -33 -54 -82q0 -39 23 -67.5t61 -28.5q37 0 68 34zM93 772h190l73 -169h-14z" />
    <glyph glyph-name="aacute" unicode="&#xe1;" horiz-adv-x="592" 
d="M343 82h2q-33 -47 -68 -71t-85 -24q-62 0 -107 41.5t-45 95.5q0 43 37 75.5t125 74.5q33 16 144 63v29q0 78 -17.5 108.5t-60.5 30.5q-92 0 -83 -145h-134q-2 67 69.5 127.5t175.5 60.5q100 0 152.5 -43t50.5 -142l-5 -229q0 -72 34 -72q19 0 42 17l12 -13
q-56 -77 -134 -77q-41 0 -70 23.5t-35 69.5zM341 107l4 190q-59 -21 -102 -46q-54 -33 -54 -82q0 -39 23 -67.5t61 -28.5q37 0 68 34zM323 772h190l-249 -169h-14z" />
    <glyph glyph-name="acircumflex" unicode="&#xe2;" horiz-adv-x="592" 
d="M343 82h2q-33 -47 -68 -71t-85 -24q-62 0 -107 41.5t-45 95.5q0 43 37 75.5t125 74.5q33 16 144 63v29q0 78 -17.5 108.5t-60.5 30.5q-92 0 -83 -145h-134q-2 67 69.5 127.5t175.5 60.5q100 0 152.5 -43t50.5 -142l-5 -229q0 -72 34 -72q19 0 42 17l12 -13
q-56 -77 -134 -77q-41 0 -70 23.5t-35 69.5zM341 107l4 190q-59 -21 -102 -46q-54 -33 -54 -82q0 -39 23 -67.5t61 -28.5q37 0 68 34zM304 772l165 -169h-18l-154 71l-155 -71h-16l164 169h14z" />
    <glyph glyph-name="atilde" unicode="&#xe3;" horiz-adv-x="592" 
d="M343 82h2q-33 -47 -68 -71t-85 -24q-62 0 -107 41.5t-45 95.5q0 43 37 75.5t125 74.5q33 16 144 63v29q0 78 -17.5 108.5t-60.5 30.5q-92 0 -83 -145h-134q-2 67 69.5 127.5t175.5 60.5q100 0 152.5 -43t50.5 -142l-5 -229q0 -72 34 -72q19 0 42 17l12 -13
q-56 -77 -134 -77q-41 0 -70 23.5t-35 69.5zM341 107l4 190q-59 -21 -102 -46q-54 -33 -54 -82q0 -39 23 -67.5t61 -28.5q37 0 68 34zM151 630h-19q0 54 24 99.5t70 45.5q30 0 85 -29t76 -29q28 0 40.5 12t14.5 43h19q0 -74 -25 -107t-61 -33q-35 0 -89.5 29.5t-78.5 29.5
q-52 0 -56 -61z" />
    <glyph glyph-name="adieresis" unicode="&#xe4;" horiz-adv-x="592" 
d="M343 82h2q-33 -47 -68 -71t-85 -24q-62 0 -107 41.5t-45 95.5q0 43 37 75.5t125 74.5q33 16 144 63v29q0 78 -17.5 108.5t-60.5 30.5q-92 0 -83 -145h-134q-2 67 69.5 127.5t175.5 60.5q100 0 152.5 -43t50.5 -142l-5 -229q0 -72 34 -72q19 0 42 17l12 -13
q-56 -77 -134 -77q-41 0 -70 23.5t-35 69.5zM341 107l4 190q-59 -21 -102 -46q-54 -33 -54 -82q0 -39 23 -67.5t61 -28.5q37 0 68 34zM106 694q0 32 22 55t54 23t55 -23t23 -55q0 -31 -22.5 -53.5t-55.5 -22.5q-32 0 -54 22.5t-22 53.5zM336 694q0 32 23 55t55 23
t54.5 -22.5t22.5 -55.5q0 -31 -22.5 -53.5t-54.5 -22.5q-33 0 -55.5 22.5t-22.5 53.5z" />
    <glyph glyph-name="aring" unicode="&#xe5;" horiz-adv-x="592" 
d="M343 82h2q-33 -47 -68 -71t-85 -24q-62 0 -107 41.5t-45 95.5q0 43 37 75.5t125 74.5q33 16 144 63v29q0 78 -17.5 108.5t-60.5 30.5q-92 0 -83 -145h-134q-2 67 69.5 127.5t175.5 60.5q100 0 152.5 -43t50.5 -142l-5 -229q0 -72 34 -72q19 0 42 17l12 -13
q-56 -77 -134 -77q-41 0 -70 23.5t-35 69.5zM341 107l4 190q-59 -21 -102 -46q-54 -33 -54 -82q0 -39 23 -67.5t61 -28.5q37 0 68 34zM192 701q0 41 30.5 70.5t72.5 29.5q43 0 73 -29.5t30 -70.5q0 -42 -29.5 -70.5t-73.5 -28.5q-42 0 -72.5 28.5t-30.5 70.5zM237 701
q0 -26 16 -43t42 -17q27 0 43 16.5t16 43.5q0 26 -17 43t-42 17q-26 0 -42 -17t-16 -43z" />
    <glyph glyph-name="ae" unicode="&#xe6;" horiz-adv-x="851" 
d="M572 -13q-141 0 -206 107q-26 -48 -71 -77.5t-105 -29.5q-62 0 -107 41.5t-45 95.5q0 43 37 75.5t125 74.5q33 16 144 63v29q0 78 -17.5 108.5t-60.5 30.5q-92 0 -83 -145h-134q-2 67 69.5 127.5t175.5 60.5q93 0 133 -62q70 61 162 61q100 0 161.5 -57t65.5 -157h-351
q0 -4 -0.5 -12t-0.5 -12q0 -96 54 -151t138 -55q40 0 79.5 14t62.5 38l12 -10q-37 -65 -97 -111.5t-141 -46.5zM573 505h1q-46 0 -74 -35t-33 -97h199q-2 61 -25.5 96.5t-67.5 35.5zM340 122l4 175q-59 -21 -102 -46q-54 -33 -54 -82q0 -36 22.5 -58.5t61.5 -22.5
q37 0 68 34z" />
    <glyph glyph-name="ccedilla" unicode="&#xe7;" horiz-adv-x="525" 
d="M168 -119h-1l65 110q-91 15 -144 85t-53 176q0 125 85.5 210t192.5 85q74 0 125 -33t51 -81q0 -29 -22 -48.5t-54 -19.5q-39 0 -56 36l-39 83q-10 21 -29 21q-36 0 -73.5 -46.5t-37.5 -136.5q0 -96 46 -157.5t132 -61.5q69 0 122 45l12 -10q-15 -25 -25 -39.5t-31 -38.5
t-41 -38t-50 -24.5t-63 -10.5h-12l-41 -70q17 9 41 9q35 0 60.5 -21t25.5 -50q0 -46 -39.5 -70t-90.5 -24q-43 0 -87 25l13 32q32 -15 62 -15q26 0 45 10.5t19 31.5q0 22 -18 32.5t-41 9t-41 -10.5z" />
    <glyph glyph-name="egrave" unicode="&#xe8;" horiz-adv-x="562" 
d="M283 -13q-115 0 -181.5 74t-66.5 188q0 125 78 211.5t187 86.5q100 0 161.5 -57t65.5 -157h-351q0 -4 -0.5 -12t-0.5 -12q0 -96 54 -151t138 -55q40 0 79.5 14t62.5 38l12 -10q-37 -65 -97 -111.5t-141 -46.5zM284 505h1q-46 0 -74 -35t-33 -97h199q-2 61 -25.5 96.5
t-67.5 35.5zM81 772h190l73 -169h-14z" />
    <glyph glyph-name="eacute" unicode="&#xe9;" horiz-adv-x="562" 
d="M321 772h190l-249 -169h-14zM283 -13q-115 0 -181.5 74t-66.5 188q0 125 78 211.5t187 86.5q100 0 161.5 -57t65.5 -157h-351q0 -4 -0.5 -12t-0.5 -12q0 -96 54 -151t138 -55q40 0 79.5 14t62.5 38l12 -10q-37 -65 -97 -111.5t-141 -46.5zM284 505h1q-46 0 -74 -35
t-33 -97h199q-2 61 -25.5 96.5t-67.5 35.5z" />
    <glyph glyph-name="ecircumflex" unicode="&#xea;" horiz-adv-x="562" 
d="M300 772l165 -169h-18l-154 71l-155 -71h-16l164 169h14zM283 -13q-115 0 -181.5 74t-66.5 188q0 125 78 211.5t187 86.5q100 0 161.5 -57t65.5 -157h-351q0 -4 -0.5 -12t-0.5 -12q0 -96 54 -151t138 -55q40 0 79.5 14t62.5 38l12 -10q-37 -65 -97 -111.5t-141 -46.5z
M284 505h1q-46 0 -74 -35t-33 -97h199q-2 61 -25.5 96.5t-67.5 35.5z" />
    <glyph glyph-name="edieresis" unicode="&#xeb;" horiz-adv-x="562" 
d="M92 694q0 32 22 55t54 23t55 -23t23 -55q0 -31 -22.5 -53.5t-55.5 -22.5q-32 0 -54 22.5t-22 53.5zM322 694q0 32 23 55t55 23t54.5 -22.5t22.5 -55.5q0 -31 -22.5 -53.5t-54.5 -22.5q-33 0 -55.5 22.5t-22.5 53.5zM283 -13q-115 0 -181.5 74t-66.5 188q0 125 78 211.5
t187 86.5q100 0 161.5 -57t65.5 -157h-351q0 -4 -0.5 -12t-0.5 -12q0 -96 54 -151t138 -55q40 0 79.5 14t62.5 38l12 -10q-37 -65 -97 -111.5t-141 -46.5zM284 505h1q-46 0 -74 -35t-33 -97h199q-2 61 -25.5 96.5t-67.5 35.5z" />
    <glyph glyph-name="igrave" unicode="&#xec;" horiz-adv-x="350" 
d="M-2 772h190l73 -169h-14zM257 323v-187q0 -78 9.5 -96t58.5 -24v-16h-298v16q49 6 58.5 24t9.5 96v224q0 67 -9.5 82.5t-58.5 17.5v16l234 71q-4 -208 -4 -224z" />
    <glyph glyph-name="iacute" unicode="&#xed;" horiz-adv-x="350" 
d="M165 772h190l-249 -169h-14zM257 323v-187q0 -78 9.5 -96t58.5 -24v-16h-298v16q49 6 58.5 24t9.5 96v224q0 67 -9.5 82.5t-58.5 17.5v16l234 71q-4 -208 -4 -224z" />
    <glyph glyph-name="icircumflex" unicode="&#xee;" horiz-adv-x="350" 
d="M183 772l165 -169h-18l-154 71l-155 -71h-16l164 169h14zM257 323v-187q0 -78 9.5 -96t58.5 -24v-16h-298v16q49 6 58.5 24t9.5 96v224q0 67 -9.5 82.5t-58.5 17.5v16l234 71q-4 -208 -4 -224z" />
    <glyph glyph-name="idieresis" unicode="&#xef;" horiz-adv-x="350" 
d="M-16 694q0 32 22 55t54 23t55 -23t23 -55q0 -31 -22.5 -53.5t-55.5 -22.5q-32 0 -54 22.5t-22 53.5zM214 694q0 32 23 55t55 23t54.5 -22.5t22.5 -55.5q0 -31 -22.5 -53.5t-54.5 -22.5q-33 0 -55.5 22.5t-22.5 53.5zM257 323v-187q0 -78 9.5 -96t58.5 -24v-16h-298v16
q49 6 58.5 24t9.5 96v224q0 67 -9.5 82.5t-58.5 17.5v16l234 71q-4 -208 -4 -224z" />
    <glyph glyph-name="eth" unicode="&#xf0;" horiz-adv-x="620" 
d="M299 -13q-119 0 -191.5 71.5t-72.5 184.5q0 134 77 217.5t183 83.5q36 0 60 -7q-42 83 -120 138l-66 -73l-24 21l63 69q-45 26 -91 41l9 26q58 -12 111 -33l63 69l25 -21l-56 -61q140 -60 226 -164.5t86 -241.5q0 -144 -82.5 -232t-199.5 -88zM405 305q0 90 -26 171
q-32 32 -79 32q-50 0 -76 -49t-26 -137q0 -119 32 -207.5t91 -88.5q49 0 66.5 74.5t17.5 204.5z" />
    <glyph glyph-name="ntilde" unicode="&#xf1;" horiz-adv-x="646" 
d="M22 460v-1v16l224 70l4 -104q61 105 162 105q67 0 110.5 -47.5t43.5 -142.5v-221q0 -78 9.5 -96t58.5 -24v-16h-286v16q40 6 48 24.5t8 95.5v192q0 56 -21.5 85t-60.5 29q-43 0 -70 -27v-279q0 -77 8 -95t49 -24v-16h-287v16q49 6 58.5 24t9.5 96v224q0 67 -9.5 82.5
t-58.5 17.5zM190 629h-19q0 54 24 99.5t70 45.5q29 0 85 -29t76 -29q28 0 40.5 12t14.5 43h19q0 -74 -25 -107t-61 -33q-35 0 -89.5 29.5t-78.5 29.5q-52 0 -56 -61z" />
    <glyph glyph-name="ograve" unicode="&#xf2;" horiz-adv-x="625" 
d="M312 547q120 0 200 -78.5t80 -201.5q0 -116 -78.5 -198t-201.5 -82t-200.5 79.5t-77.5 207.5q0 109 78.5 191t199.5 82zM303 512q-98 0 -98 -209q0 -46 5 -89t17 -89.5t37 -74.5t61 -28q96 0 96 215q0 44 -4.5 86t-16.5 87.5t-37 73.5t-60 28zM101 772h190l73 -169h-14z
" />
    <glyph glyph-name="oacute" unicode="&#xf3;" horiz-adv-x="625" 
d="M347 772h190l-249 -169h-14zM312 547q120 0 200 -78.5t80 -201.5q0 -116 -78.5 -198t-201.5 -82t-200.5 79.5t-77.5 207.5q0 109 78.5 191t199.5 82zM303 512q-98 0 -98 -209q0 -46 5 -89t17 -89.5t37 -74.5t61 -28q96 0 96 215q0 44 -4.5 86t-16.5 87.5t-37 73.5t-60 28
z" />
    <glyph glyph-name="ocircumflex" unicode="&#xf4;" horiz-adv-x="625" 
d="M325 772l165 -169h-18l-154 71l-155 -71h-16l164 169h14zM312 547q120 0 200 -78.5t80 -201.5q0 -116 -78.5 -198t-201.5 -82t-200.5 79.5t-77.5 207.5q0 109 78.5 191t199.5 82zM303 512q-98 0 -98 -209q0 -46 5 -89t17 -89.5t37 -74.5t61 -28q96 0 96 215q0 44 -4.5 86
t-16.5 87.5t-37 73.5t-60 28z" />
    <glyph glyph-name="otilde" unicode="&#xf5;" horiz-adv-x="625" 
d="M312 547q120 0 200 -78.5t80 -201.5q0 -116 -78.5 -198t-201.5 -82t-200.5 79.5t-77.5 207.5q0 109 78.5 191t199.5 82zM303 512q-98 0 -98 -209q0 -46 5 -89t17 -89.5t37 -74.5t61 -28q96 0 96 215q0 44 -4.5 86t-16.5 87.5t-37 73.5t-60 28zM173 630h-19q0 54 24 99.5
t70 45.5q30 0 85 -29t76 -29q28 0 40.5 12t14.5 43h19q0 -74 -25 -107t-61 -33q-35 0 -89.5 29.5t-78.5 29.5q-52 0 -56 -61z" />
    <glyph glyph-name="odieresis" unicode="&#xf6;" horiz-adv-x="625" 
d="M123 694q0 32 22 55t54 23t55 -23t23 -55q0 -31 -22.5 -53.5t-55.5 -22.5q-32 0 -54 22.5t-22 53.5zM353 694q0 32 23 55t55 23t54.5 -22.5t22.5 -55.5q0 -31 -22.5 -53.5t-54.5 -22.5q-33 0 -55.5 22.5t-22.5 53.5zM312 547q120 0 200 -78.5t80 -201.5
q0 -116 -78.5 -198t-201.5 -82t-200.5 79.5t-77.5 207.5q0 109 78.5 191t199.5 82zM303 512q-98 0 -98 -209q0 -46 5 -89t17 -89.5t37 -74.5t61 -28q96 0 96 215q0 44 -4.5 86t-16.5 87.5t-37 73.5t-60 28z" />
    <glyph glyph-name="divide" unicode="&#xf7;" 
d="M289 49v107h105v-107h-105zM289 385v109h105v-109h-105zM600 230h-522v76h522v-76z" />
    <glyph glyph-name="oslash" unicode="&#xf8;" horiz-adv-x="625" 
d="M312 547v-1q82 0 149 -39l34 50l35 -23l-35 -51q97 -82 97 -217q0 -116 -78.5 -198t-201.5 -82q-76 0 -135 31l-51 -75l-35 23l50 74q-107 80 -107 235q0 109 78.5 191t199.5 82zM303 511v1q-98 0 -98 -209q0 -85 14 -150l179 262q-30 96 -95 96zM421 237v-1
q0 63 -10 124l-177 -258q32 -80 91 -80q96 0 96 215z" />
    <glyph glyph-name="ugrave" unicode="&#xf9;" horiz-adv-x="635" 
d="M537 321v3v-141q0 -67 9.5 -82.5t58.5 -17.5v-16l-211 -73l-17 103q-51 -107 -151 -107q-70 0 -114 45.5t-44 142.5v193q0 27 -0.5 39.5t-4 29.5t-10.5 24t-20 13.5t-33 7.5v14l234 41q-4 -204 -4 -213v-122q0 -119 74 -119q44 0 71 33v250q0 27 -0.5 39.5t-4 29.5
t-10.5 24t-20 13.5t-33 7.5v14l234 41q-4 -204 -4 -217zM100 775h190l73 -169h-14z" />
    <glyph glyph-name="uacute" unicode="&#xfa;" horiz-adv-x="635" 
d="M351 772h190l-249 -169h-14zM537 321v3v-141q0 -67 9.5 -82.5t58.5 -17.5v-16l-211 -73l-17 103q-51 -107 -151 -107q-70 0 -114 45.5t-44 142.5v193q0 27 -0.5 39.5t-4 29.5t-10.5 24t-20 13.5t-33 7.5v14l234 41q-4 -204 -4 -213v-122q0 -119 74 -119q44 0 71 33v250
q0 27 -0.5 39.5t-4 29.5t-10.5 24t-20 13.5t-33 7.5v14l234 41q-4 -204 -4 -217z" />
    <glyph glyph-name="ucircumflex" unicode="&#xfb;" horiz-adv-x="635" 
d="M314 772l165 -169h-18l-154 71l-155 -71h-16l164 169h14zM537 321v3v-141q0 -67 9.5 -82.5t58.5 -17.5v-16l-211 -73l-17 103q-51 -107 -151 -107q-70 0 -114 45.5t-44 142.5v193q0 27 -0.5 39.5t-4 29.5t-10.5 24t-20 13.5t-33 7.5v14l234 41q-4 -204 -4 -213v-122
q0 -119 74 -119q44 0 71 33v250q0 27 -0.5 39.5t-4 29.5t-10.5 24t-20 13.5t-33 7.5v14l234 41q-4 -204 -4 -217z" />
    <glyph glyph-name="udieresis" unicode="&#xfc;" horiz-adv-x="635" 
d="M111 694q0 32 22 55t54 23t55 -23t23 -55q0 -31 -22.5 -53.5t-55.5 -22.5q-32 0 -54 22.5t-22 53.5zM341 694q0 32 23 55t55 23t54.5 -22.5t22.5 -55.5q0 -31 -22.5 -53.5t-54.5 -22.5q-33 0 -55.5 22.5t-22.5 53.5zM537 321v3v-141q0 -67 9.5 -82.5t58.5 -17.5v-16
l-211 -73l-17 103q-51 -107 -151 -107q-70 0 -114 45.5t-44 142.5v193q0 27 -0.5 39.5t-4 29.5t-10.5 24t-20 13.5t-33 7.5v14l234 41q-4 -204 -4 -213v-122q0 -119 74 -119q44 0 71 33v250q0 27 -0.5 39.5t-4 29.5t-10.5 24t-20 13.5t-33 7.5v14l234 41q-4 -204 -4 -217z
" />
    <glyph glyph-name="yacute" unicode="&#xfd;" horiz-adv-x="595" 
d="M269 -50h-2l14 37l-216 469q-12 24 -18.5 34.5t-18.5 20.5t-30 13v15h306v-15q-50 -9 -59 -26t7 -53l107 -266l80 218q27 65 23.5 90t-55.5 36v15h186v-15q-43 -10 -59 -25.5t-36 -67.5l-188 -494q-17 -43 -27.5 -65.5t-28 -47t-39.5 -35t-51 -10.5q-37 0 -65 19t-28 52
q0 25 16 45t42 20q20 0 38 -18l51 -51q29 52 51 105zM365 772h190l-249 -169h-14z" />
    <glyph glyph-name="thorn" unicode="&#xfe;" horiz-adv-x="654" 
d="M323 443q-45 0 -63 -24v-344q11 -23 35 -37.5t52 -14.5q50 0 79.5 47t29.5 140t-36.5 163t-96.5 70zM361 -200v-1v-16h-331v16q49 6 58.5 24t9.5 96v716q0 67 -9.5 82.5t-58.5 17.5v16l234 71q-4 -208 -4 -224v-69q0 -44 -5 -86q20 39 63 71.5t98 32.5q91 0 147 -74
t56 -185q0 -134 -76.5 -217.5t-181.5 -83.5q-28 0 -57 10t-44 26v-103q0 -74 17 -94t84 -26z" />
    <glyph glyph-name="ydieresis" unicode="&#xff;" horiz-adv-x="595" 
d="M269 -50h-2l14 37l-216 469q-12 24 -18.5 34.5t-18.5 20.5t-30 13v15h306v-15q-50 -9 -59 -26t7 -53l107 -266l80 218q27 65 23.5 90t-55.5 36v15h186v-15q-43 -10 -59 -25.5t-36 -67.5l-188 -494q-17 -43 -27.5 -65.5t-28 -47t-39.5 -35t-51 -10.5q-37 0 -65 19t-28 52
q0 25 16 45t42 20q20 0 38 -18l51 -51q29 52 51 105zM151 694q0 32 22 55t54 23t55 -23t23 -55q0 -31 -22.5 -53.5t-55.5 -22.5q-32 0 -54 22.5t-22 53.5zM381 694q0 32 23 55t55 23t54.5 -22.5t22.5 -55.5q0 -31 -22.5 -53.5t-54.5 -22.5q-33 0 -55.5 22.5t-22.5 53.5z" />
    <glyph glyph-name="Amacron" unicode="&#x100;" horiz-adv-x="788" 
d="M0 0v-2v16q43 8 65 37t63 136l205 528q67 13 101 53h5l254 -647q21 -56 38.5 -77t57.5 -28v-16h-329v16q42 6 52 26t-5 57l-55 141h-258l-7 -18q-21 -54 -27 -92t-2.5 -58.5t19.5 -33t29.5 -16t38.5 -6.5v-16h-245zM324 567l-112 -283h222zM544 821h-296v68h296v-68z" />
    <glyph glyph-name="amacron" unicode="&#x101;" horiz-adv-x="592" 
d="M343 82h2q-33 -47 -68 -71t-85 -24q-62 0 -107 41.5t-45 95.5q0 43 37 75.5t125 74.5q33 16 144 63v29q0 78 -17.5 108.5t-60.5 30.5q-92 0 -83 -145h-134q-2 67 69.5 127.5t175.5 60.5q100 0 152.5 -43t50.5 -142l-5 -229q0 -72 34 -72q19 0 42 17l12 -13
q-56 -77 -134 -77q-41 0 -70 23.5t-35 69.5zM341 107l4 190q-59 -21 -102 -46q-54 -33 -54 -82q0 -39 23 -67.5t61 -28.5q37 0 68 34zM444 665h-321v68h321v-68z" />
    <glyph glyph-name="Abreve" unicode="&#x102;" horiz-adv-x="788" 
d="M0 0v-2v16q43 8 65 37t63 136l205 528q67 13 101 53h5l254 -647q21 -56 38.5 -77t57.5 -28v-16h-329v16q42 6 52 26t-5 57l-55 141h-258l-7 -18q-21 -54 -27 -92t-2.5 -58.5t19.5 -33t29.5 -16t38.5 -6.5v-16h-245zM324 567l-112 -283h222zM390 827q82 0 88 93h48
q0 -53 -35 -92.5t-101 -39.5q-65 0 -99.5 39.5t-34.5 92.5h48q5 -93 86 -93z" />
    <glyph glyph-name="abreve" unicode="&#x103;" horiz-adv-x="592" 
d="M343 82h2q-33 -47 -68 -71t-85 -24q-62 0 -107 41.5t-45 95.5q0 43 37 75.5t125 74.5q33 16 144 63v29q0 78 -17.5 108.5t-60.5 30.5q-92 0 -83 -145h-134q-2 67 69.5 127.5t175.5 60.5q100 0 152.5 -43t50.5 -142l-5 -229q0 -72 34 -72q19 0 42 17l12 -13
q-56 -77 -134 -77q-41 0 -70 23.5t-35 69.5zM341 107l4 190q-59 -21 -102 -46q-54 -33 -54 -82q0 -39 23 -67.5t61 -28.5q37 0 68 34zM291 663h1q88 0 94 99h51q0 -56 -37.5 -98.5t-107.5 -42.5t-107.5 42.5t-37.5 98.5h51q8 -99 93 -99z" />
    <glyph glyph-name="Aogonek" unicode="&#x104;" horiz-adv-x="788" 
d="M324 569l-112 -283h222zM677 -177v-2l5 -9q-53 -35 -102 -35q-41 0 -69.5 24.5t-28.5 65.5q0 34 34 65.5t103 65.5h-160v16q42 6 52 26t-5 57l-55 141h-258l-7 -18q-21 -54 -27 -92t-2.5 -58.5t19.5 -33t29.5 -16t38.5 -6.5v-16h-245v16q43 8 65 37t63 136l205 528
q67 13 101 53h5l254 -647q21 -56 38.5 -77t57.5 -28v-16h-155q-60 -47 -60 -109q0 -33 16 -55t49 -22q16 0 39 9z" />
    <glyph glyph-name="aogonek" unicode="&#x105;" horiz-adv-x="592" 
d="M339 107l4 190q-59 -21 -102 -46q-54 -33 -54 -82q0 -39 23 -67.5t61 -28.5q37 0 68 34zM539 -177h2l5 -9q-53 -35 -102 -35q-41 0 -69.5 24.5t-28.5 65.5q0 58 117 120h-12q-41 0 -70 23.5t-35 69.5q-33 -47 -68 -71t-85 -24q-62 0 -107 41.5t-45 95.5q0 43 37 75.5
t125 74.5q33 16 144 63v29q0 78 -17.5 108.5t-60.5 30.5q-92 0 -83 -145h-134q-2 67 69.5 127.5t175.5 60.5q100 0 152.5 -43t50.5 -142l-5 -229q0 -72 34 -72q19 0 42 17l12 -13q-40 -55 -94 -71q-54 -44 -54 -104q0 -33 16 -55t49 -22q16 0 39 9z" />
    <glyph glyph-name="Cacute" unicode="&#x106;" horiz-adv-x="763" 
d="M240 364q0 -157 55.5 -245t164.5 -88q176 0 252 181l29 -10q-14 -39 -35.5 -73t-57 -68t-91 -54t-123.5 -20q-77 0 -146.5 25t-124 71.5t-86.5 119t-32 161.5q0 175 117 278t284 103q143 0 231 -42l29 -231h-21q-87 234 -240 234q-93 0 -149 -93t-56 -249zM641 922
l-237 -129h-16l52 129h201z" />
    <glyph glyph-name="cacute" unicode="&#x107;" horiz-adv-x="546" 
d="M321 772h190l-249 -169h-14zM413 365q-39 0 -56 36l-39 83q-10 21 -29 21q-36 0 -73.5 -46.5t-37.5 -136.5q0 -96 46 -157.5t132 -61.5q69 0 122 45l12 -10q-15 -25 -25 -39.5t-31 -38.5t-41 -38t-50 -24.5t-63 -10.5q-111 0 -178 73t-67 192q0 125 85.5 210t192.5 85
q74 0 125 -33t51 -81q0 -29 -22 -48.5t-54 -19.5z" />
    <glyph glyph-name="Ccircumflex" unicode="&#x108;" horiz-adv-x="763" 
d="M240 364q0 -157 55.5 -245t164.5 -88q176 0 252 181l29 -10q-14 -39 -35.5 -73t-57 -68t-91 -54t-123.5 -20q-77 0 -146.5 25t-124 71.5t-86.5 119t-32 161.5q0 175 117 278t284 103q143 0 231 -42l29 -231h-21q-87 234 -240 234q-93 0 -149 -93t-56 -249zM426 922h16
l155 -129h-23l-140 46l-140 -46h-23z" />
    <glyph glyph-name="ccircumflex" unicode="&#x109;" horiz-adv-x="525" 
d="M295 772l165 -169h-18l-154 71l-155 -71h-16l164 169h14zM413 365q-39 0 -56 36l-39 83q-10 21 -29 21q-36 0 -73.5 -46.5t-37.5 -136.5q0 -96 46 -157.5t132 -61.5q69 0 122 45l12 -10q-15 -25 -25 -39.5t-31 -38.5t-41 -38t-50 -24.5t-63 -10.5q-111 0 -178 73t-67 192
q0 125 85.5 210t192.5 85q74 0 125 -33t51 -81q0 -29 -22 -48.5t-54 -19.5z" />
    <glyph glyph-name="Cdotaccent" unicode="&#x10a;" horiz-adv-x="763" 
d="M240 364q0 -157 55.5 -245t164.5 -88q176 0 252 181l29 -10q-14 -39 -35.5 -73t-57 -68t-91 -54t-123.5 -20q-77 0 -146.5 25t-124 71.5t-86.5 119t-32 161.5q0 175 117 278t284 103q143 0 231 -42l29 -231h-21q-87 234 -240 234q-93 0 -149 -93t-56 -249zM372 866
q0 32 22 54.5t54 22.5q33 0 55.5 -22.5t22.5 -54.5t-22.5 -54.5t-55.5 -22.5q-32 0 -54 22.5t-22 54.5z" />
    <glyph glyph-name="cdotaccent" unicode="&#x10b;" horiz-adv-x="525" 
d="M413 365q-39 0 -56 36l-39 83q-10 21 -29 21q-36 0 -73.5 -46.5t-37.5 -136.5q0 -96 46 -157.5t132 -61.5q69 0 122 45l12 -10q-15 -25 -25 -39.5t-31 -38.5t-41 -38t-50 -24.5t-63 -10.5q-111 0 -178 73t-67 192q0 125 85.5 210t192.5 85q74 0 125 -33t51 -81
q0 -29 -22 -48.5t-54 -19.5zM219 694q0 33 22.5 55.5t54.5 22.5t54.5 -23t22.5 -55q0 -31 -22.5 -53.5t-54.5 -22.5t-54.5 22.5t-22.5 53.5z" />
    <glyph glyph-name="Ccaron" unicode="&#x10c;" horiz-adv-x="763" 
d="M425 793l-155 129h23l140 -46l140 46h23l-155 -129h-16zM240 364q0 -157 55.5 -245t164.5 -88q176 0 252 181l29 -10q-14 -39 -35.5 -73t-57 -68t-91 -54t-123.5 -20q-77 0 -146.5 25t-124 71.5t-86.5 119t-32 161.5q0 175 117 278t284 103q143 0 231 -42l29 -231h-21
q-87 234 -240 234q-93 0 -149 -93t-56 -249z" />
    <glyph glyph-name="ccaron" unicode="&#x10d;" horiz-adv-x="525" 
d="M309 603h-14l-164 169h16l155 -71l154 71h18zM413 365q-39 0 -56 36l-39 83q-10 21 -29 21q-36 0 -73.5 -46.5t-37.5 -136.5q0 -96 46 -157.5t132 -61.5q69 0 122 45l12 -10q-15 -25 -25 -39.5t-31 -38.5t-41 -38t-50 -24.5t-63 -10.5q-111 0 -178 73t-67 192
q0 125 85.5 210t192.5 85q74 0 125 -33t51 -81q0 -29 -22 -48.5t-54 -19.5z" />
    <glyph glyph-name="Dcaron" unicode="&#x10e;" horiz-adv-x="829" 
d="M375 793l-155 129h23l140 -46l140 46h23l-155 -129h-16zM306 36h39q136 0 195.5 79.5t59.5 249.5q0 167 -61 245.5t-196 78.5h-37v-653zM31 725h317q95 0 173.5 -19.5t141 -60.5t97.5 -112t35 -168t-34 -169t-96 -114t-141 -62t-177 -20h-316v16q66 8 82.5 30t16.5 100
v433q0 78 -16.5 99t-82.5 31v16z" />
    <glyph glyph-name="dcaron" unicode="&#x10f;" horiz-adv-x="722" 
d="M307 511q-50 0 -79.5 -47t-29.5 -140t36.5 -163t96.5 -70q45 0 63 24v344q-11 23 -35 37.5t-52 14.5zM394 511v125q0 67 -10.5 81.5t-64.5 16.5v16l241 73q-4 -208 -4 -224v-419q0 -67 9.5 -82.5t58.5 -17.5v-16l-211 -73l-14 100q-19 -39 -62.5 -71.5t-98.5 -32.5
q-89 0 -146 77t-57 182q0 134 76.5 217.5t181.5 83.5q28 0 57 -10t44 -26zM622 755v1q0 28 20 47.5t49 19.5q30 0 48 -21t18 -54q0 -59 -42.5 -107t-103.5 -74l-5 10q83 59 83 114q-27 1 -47 19t-20 45z" />
    <glyph glyph-name="Dcroat" unicode="&#x110;" horiz-adv-x="870" 
d="M61 725h317q95 0 173.5 -19.5t141 -60.5t97.5 -112t35 -168t-34 -169t-96 -114t-141 -62t-177 -20h-316v16q66 8 82.5 30t16.5 100v206h-130v44h130v183q0 78 -16.5 99t-82.5 31v16zM336 36h39q136 0 195.5 79.5t59.5 249.5q0 167 -61 245.5t-196 78.5h-37v-293h102v-44
h-102v-316z" />
    <glyph glyph-name="dcroat" unicode="&#x111;" horiz-adv-x="682" 
d="M263 643h131q0 62 -11 75.5t-64 15.5v16l241 73q-4 -176 -4 -180h96v-50h-96v-413q0 -67 9.5 -82.5t58.5 -17.5v-16l-211 -73l-14 100q-19 -39 -62.5 -71.5t-98.5 -32.5q-89 0 -146 77t-57 182q0 134 76.5 217.5t181.5 83.5q28 0 57 -10t44 -26v82h-131v50zM307 511
q-50 0 -79.5 -47t-29.5 -140t36.5 -163t96.5 -70q45 0 63 24v344q-11 23 -35 37.5t-52 14.5z" />
    <glyph glyph-name="Emacron" unicode="&#x112;" horiz-adv-x="753" 
d="M550 818h-296v68h296v-68zM306 396h108q45 0 70 25.5t33 86.5h18v-268h-18q-8 61 -33 86.5t-70 25.5h-108v-279q0 -23 11.5 -30t48.5 -7h41q84 0 137 27t81 73.5t51 128.5h22l-18 -267q-59 2 -273 2h-376v16q66 8 82.5 30t16.5 100v433q0 78 -16.5 99t-82.5 31v16h369
q202 0 257 2l17 -267h-22q-18 64 -36.5 102.5t-52.5 69.5t-86 44t-131 13h-40v-293z" />
    <glyph glyph-name="emacron" unicode="&#x113;" horiz-adv-x="562" 
d="M283 -13q-115 0 -181.5 74t-66.5 188q0 125 78 211.5t187 86.5q100 0 161.5 -57t65.5 -157h-351q0 -4 -0.5 -12t-0.5 -12q0 -96 54 -151t138 -55q40 0 79.5 14t62.5 38l12 -10q-37 -65 -97 -111.5t-141 -46.5zM284 505h1q-46 0 -74 -35t-33 -97h199q-2 61 -25.5 96.5
t-67.5 35.5zM447 665h-321v68h321v-68z" />
    <glyph glyph-name="Ebreve" unicode="&#x114;" horiz-adv-x="753" 
d="M404 829q82 0 88 93h48q0 -53 -35 -92.5t-101 -39.5q-65 0 -99.5 39.5t-34.5 92.5h48q5 -93 86 -93zM306 396h108q45 0 70 25.5t33 86.5h18v-268h-18q-8 61 -33 86.5t-70 25.5h-108v-279q0 -23 11.5 -30t48.5 -7h41q84 0 137 27t81 73.5t51 128.5h22l-18 -267
q-59 2 -273 2h-376v16q66 8 82.5 30t16.5 100v433q0 78 -16.5 99t-82.5 31v16h369q202 0 257 2l17 -267h-22q-18 64 -36.5 102.5t-52.5 69.5t-86 44t-131 13h-40v-293z" />
    <glyph glyph-name="ebreve" unicode="&#x115;" horiz-adv-x="562" 
d="M283 -13q-115 0 -181.5 74t-66.5 188q0 125 78 211.5t187 86.5q100 0 161.5 -57t65.5 -157h-351q0 -4 -0.5 -12t-0.5 -12q0 -96 54 -151t138 -55q40 0 79.5 14t62.5 38l12 -10q-37 -65 -97 -111.5t-141 -46.5zM284 505h1q-46 0 -74 -35t-33 -97h199q-2 61 -25.5 96.5
t-67.5 35.5zM299 663h1q88 0 94 99h51q0 -56 -37.5 -98.5t-107.5 -42.5t-107.5 42.5t-37.5 98.5h51q8 -99 93 -99z" />
    <glyph glyph-name="Edotaccent" unicode="&#x116;" horiz-adv-x="753" 
d="M306 396h108q45 0 70 25.5t33 86.5h18v-268h-18q-8 61 -33 86.5t-70 25.5h-108v-279q0 -23 11.5 -30t48.5 -7h41q84 0 137 27t81 73.5t51 128.5h22l-18 -267q-59 2 -273 2h-376v16q66 8 82.5 30t16.5 100v433q0 78 -16.5 99t-82.5 31v16h369q202 0 257 2l17 -267h-22
q-18 64 -36.5 102.5t-52.5 69.5t-86 44t-131 13h-40v-293zM324 866q0 32 22 54.5t54 22.5q33 0 55.5 -22.5t22.5 -54.5t-22.5 -54.5t-55.5 -22.5q-32 0 -54 22.5t-22 54.5z" />
    <glyph glyph-name="edotaccent" unicode="&#x117;" horiz-adv-x="562" 
d="M283 -13q-115 0 -181.5 74t-66.5 188q0 125 78 211.5t187 86.5q100 0 161.5 -57t65.5 -157h-351q0 -4 -0.5 -12t-0.5 -12q0 -96 54 -151t138 -55q40 0 79.5 14t62.5 38l12 -10q-37 -65 -97 -111.5t-141 -46.5zM284 505h1q-46 0 -74 -35t-33 -97h199q-2 61 -25.5 96.5
t-67.5 35.5zM222 694q0 33 22.5 55.5t54.5 22.5t54.5 -23t22.5 -55q0 -31 -22.5 -53.5t-54.5 -22.5t-54.5 22.5t-22.5 53.5z" />
    <glyph glyph-name="Eogonek" unicode="&#x118;" horiz-adv-x="753" 
d="M306 396h-1h108q45 0 70 25.5t33 86.5h18v-268h-18q-8 61 -33 86.5t-70 25.5h-108v-279q0 -23 11.5 -30t48.5 -7h41q84 0 137 27t81 73.5t51 128.5h22l-18 -267q-60 2 -93 2q-59 -46 -59 -109q0 -33 16 -55t49 -22q16 0 39 9l5 -9q-53 -35 -102 -35q-41 0 -69.5 24.5
t-28.5 65.5q0 34 34 65.5t103 65.5h-166h-376v16q66 8 82.5 30t16.5 100v433q0 78 -16.5 99t-82.5 31v16h369q202 0 257 2l17 -267h-22q-18 64 -36.5 102.5t-52.5 69.5t-86 44t-131 13h-40v-293z" />
    <glyph glyph-name="eogonek" unicode="&#x119;" horiz-adv-x="562" 
d="M283 -13l-1 1q-115 0 -181.5 74t-66.5 188q0 125 78 211.5t187 86.5q100 0 161.5 -57t65.5 -157h-351q0 -4 -0.5 -12t-0.5 -12q0 -96 54 -151t138 -55q40 0 79.5 14t62.5 38l12 -10q-70 -121 -178 -150q-54 -44 -54 -105q0 -33 16 -55t49 -22q16 0 39 9l5 -9
q-53 -35 -102 -35q-41 0 -69.5 24.5t-28.5 65.5q0 58 117 120q-20 -2 -31 -2zM283 506h1q-46 0 -74 -35t-33 -97h199q-2 61 -25.5 96.5t-67.5 35.5z" />
    <glyph glyph-name="Ecaron" unicode="&#x11a;" horiz-adv-x="753" 
d="M397 793l-155 129h23l140 -46l140 46h23l-155 -129h-16zM306 396h108q45 0 70 25.5t33 86.5h18v-268h-18q-8 61 -33 86.5t-70 25.5h-108v-279q0 -23 11.5 -30t48.5 -7h41q84 0 137 27t81 73.5t51 128.5h22l-18 -267q-59 2 -273 2h-376v16q66 8 82.5 30t16.5 100v433
q0 78 -16.5 99t-82.5 31v16h369q202 0 257 2l17 -267h-22q-18 64 -36.5 102.5t-52.5 69.5t-86 44t-131 13h-40v-293z" />
    <glyph glyph-name="ecaron" unicode="&#x11b;" horiz-adv-x="562" 
d="M300 603h-14l-164 169h16l155 -71l154 71h18zM283 -13q-115 0 -181.5 74t-66.5 188q0 125 78 211.5t187 86.5q100 0 161.5 -57t65.5 -157h-351q0 -4 -0.5 -12t-0.5 -12q0 -96 54 -151t138 -55q40 0 79.5 14t62.5 38l12 -10q-37 -65 -97 -111.5t-141 -46.5zM284 505h1
q-46 0 -74 -35t-33 -97h199q-2 61 -25.5 96.5t-67.5 35.5z" />
    <glyph glyph-name="Gcircumflex" unicode="&#x11c;" horiz-adv-x="841" 
d="M454 922h16l155 -129h-23l-140 46l-140 -46h-23zM477 332h339v-16q-12 -2 -20.5 -4t-16 -4t-12 -6.5t-8 -6.5t-5.5 -9.5t-3.5 -11.5t-1.5 -16v-19v-24.5v-28.5v-122q-49 -35 -134 -56t-175 -21q-171 0 -283 100t-112 277q0 117 60 205.5t153.5 132t201.5 43.5
q146 0 238 -40l24 -233h-21q-16 43 -36 80t-49.5 74t-70 58.5t-86.5 21.5q-95 0 -157 -94t-62 -248q0 -155 59 -246.5t164 -91.5q53 0 83 17t30 66v77q0 78 -16.5 99t-82.5 31v16z" />
    <glyph glyph-name="gcircumflex" unicode="&#x11d;" horiz-adv-x="630" 
d="M300 772l165 -169h-18l-154 71l-155 -71h-16l164 169h14zM52 372v1q0 85 67 131t166 46t164 -44h160v-47h-114q24 -37 24 -86q0 -86 -67 -132t-167 -46q-43 0 -75 7q-4 -4 -12.5 -13t-11.5 -12t-8.5 -9.5t-7.5 -10t-5 -8.5t-4 -9t-1 -8q0 -34 67 -37l110 -4
q235 -10 235 -128q0 -81 -89 -134t-233 -53q-104 0 -169.5 28.5t-65.5 77.5q0 26 34 50.5t83 42.5q-73 24 -73 86q0 23 20 52t40 48.5t56 49.5q-123 46 -123 161zM344 -42l-135 6q-37 2 -52 5q-22 -22 -22 -57q0 -43 51 -65.5t123 -22.5q74 0 125.5 19.5t51.5 54.5
q0 32 -34.5 45t-107.5 15zM299 229q35 0 51 23t16 74q0 77 -24 134.5t-69 57.5q-35 0 -51 -23t-16 -74q0 -49 9 -91t30.5 -71.5t53.5 -29.5z" />
    <glyph glyph-name="Gbreve" unicode="&#x11e;" horiz-adv-x="841" 
d="M441 829q82 0 88 93h48q0 -53 -35 -92.5t-101 -39.5q-65 0 -99.5 39.5t-34.5 92.5h48q5 -93 86 -93zM477 332h339v-16q-12 -2 -20.5 -4t-16 -4t-12 -6.5t-8 -6.5t-5.5 -9.5t-3.5 -11.5t-1.5 -16v-19v-24.5v-28.5v-122q-49 -35 -134 -56t-175 -21q-171 0 -283 100
t-112 277q0 117 60 205.5t153.5 132t201.5 43.5q146 0 238 -40l24 -233h-21q-16 43 -36 80t-49.5 74t-70 58.5t-86.5 21.5q-95 0 -157 -94t-62 -248q0 -155 59 -246.5t164 -91.5q53 0 83 17t30 66v77q0 78 -16.5 99t-82.5 31v16z" />
    <glyph glyph-name="gbreve" unicode="&#x11f;" horiz-adv-x="630" 
d="M52 372v1q0 85 67 131t166 46t164 -44h160v-47h-114q24 -37 24 -86q0 -86 -67 -132t-167 -46q-43 0 -75 7q-4 -4 -12.5 -13t-11.5 -12t-8.5 -9.5t-7.5 -10t-5 -8.5t-4 -9t-1 -8q0 -34 67 -37l110 -4q235 -10 235 -128q0 -81 -89 -134t-233 -53q-104 0 -169.5 28.5
t-65.5 77.5q0 26 34 50.5t83 42.5q-73 24 -73 86q0 23 20 52t40 48.5t56 49.5q-123 46 -123 161zM344 -42l-135 6q-37 2 -52 5q-22 -22 -22 -57q0 -43 51 -65.5t123 -22.5q74 0 125.5 19.5t51.5 54.5q0 32 -34.5 45t-107.5 15zM299 229q35 0 51 23t16 74q0 77 -24 134.5
t-69 57.5q-35 0 -51 -23t-16 -74q0 -49 9 -91t30.5 -71.5t53.5 -29.5zM297 665h1q88 0 94 99h51q0 -56 -37.5 -98.5t-107.5 -42.5t-107.5 42.5t-37.5 98.5h51q8 -99 93 -99z" />
    <glyph glyph-name="Gdotaccent" unicode="&#x120;" horiz-adv-x="841" 
d="M385 866q0 32 22 54.5t54 22.5q33 0 55.5 -22.5t22.5 -54.5t-22.5 -54.5t-55.5 -22.5q-32 0 -54 22.5t-22 54.5zM477 332h339v-16q-12 -2 -20.5 -4t-16 -4t-12 -6.5t-8 -6.5t-5.5 -9.5t-3.5 -11.5t-1.5 -16v-19v-24.5v-28.5v-122q-49 -35 -134 -56t-175 -21
q-171 0 -283 100t-112 277q0 117 60 205.5t153.5 132t201.5 43.5q146 0 238 -40l24 -233h-21q-16 43 -36 80t-49.5 74t-70 58.5t-86.5 21.5q-95 0 -157 -94t-62 -248q0 -155 59 -246.5t164 -91.5q53 0 83 17t30 66v77q0 78 -16.5 99t-82.5 31v16z" />
    <glyph glyph-name="gdotaccent" unicode="&#x121;" horiz-adv-x="630" 
d="M52 372v1q0 85 67 131t166 46t164 -44h160v-47h-114q24 -37 24 -86q0 -86 -67 -132t-167 -46q-43 0 -75 7q-4 -4 -12.5 -13t-11.5 -12t-8.5 -9.5t-7.5 -10t-5 -8.5t-4 -9t-1 -8q0 -34 67 -37l110 -4q235 -10 235 -128q0 -81 -89 -134t-233 -53q-104 0 -169.5 28.5
t-65.5 77.5q0 26 34 50.5t83 42.5q-73 24 -73 86q0 23 20 52t40 48.5t56 49.5q-123 46 -123 161zM344 -42l-135 6q-37 2 -52 5q-22 -22 -22 -57q0 -43 51 -65.5t123 -22.5q74 0 125.5 19.5t51.5 54.5q0 32 -34.5 45t-107.5 15zM299 229q35 0 51 23t16 74q0 77 -24 134.5
t-69 57.5q-35 0 -51 -23t-16 -74q0 -49 9 -91t30.5 -71.5t53.5 -29.5zM207 696q0 33 22.5 55.5t54.5 22.5t54.5 -23t22.5 -55q0 -31 -22.5 -53.5t-54.5 -22.5t-54.5 22.5t-22.5 53.5z" />
    <glyph glyph-name="Gcommaaccent" unicode="&#x122;" horiz-adv-x="841" 
d="M477 332h339v-16q-12 -2 -20.5 -4t-16 -4t-12 -6.5t-8 -6.5t-5.5 -9.5t-3.5 -11.5t-1.5 -16v-19v-24.5v-28.5v-122q-49 -35 -134 -56t-175 -21q-171 0 -283 100t-112 277q0 117 60 205.5t153.5 132t201.5 43.5q146 0 238 -40l24 -233h-21q-16 43 -36 80t-49.5 74
t-70 58.5t-86.5 21.5q-95 0 -157 -94t-62 -248q0 -155 59 -246.5t164 -91.5q53 0 83 17t30 66v77q0 78 -16.5 99t-82.5 31v16zM370 -122v1q0 28 20 47.5t49 19.5q30 0 48 -21t18 -54q0 -59 -42.5 -107t-103.5 -74l-5 10q83 59 83 114q-27 1 -47 19t-20 45z" />
    <glyph glyph-name="gcommaaccent" unicode="&#x123;" horiz-adv-x="630" 
d="M364 673q0 -28 -19.5 -48t-49.5 -20t-47.5 21.5t-17.5 54.5q0 58 42 106.5t103 74.5l5 -10q-27 -22 -40 -33t-28 -34.5t-15 -46.5q27 -2 47 -20t20 -45zM52 372v1q0 85 67 131t166 46t164 -44h160v-47h-114q24 -37 24 -86q0 -86 -67 -132t-167 -46q-43 0 -75 7
q-4 -4 -12.5 -13t-11.5 -12t-8.5 -9.5t-7.5 -10t-5 -8.5t-4 -9t-1 -8q0 -34 67 -37l110 -4q235 -10 235 -128q0 -81 -89 -134t-233 -53q-104 0 -169.5 28.5t-65.5 77.5q0 26 34 50.5t83 42.5q-73 24 -73 86q0 23 20 52t40 48.5t56 49.5q-123 46 -123 161zM344 -42l-135 6
q-37 2 -52 5q-22 -22 -22 -57q0 -43 51 -65.5t123 -22.5q74 0 125.5 19.5t51.5 54.5q0 32 -34.5 45t-107.5 15zM299 229q35 0 51 23t16 74q0 77 -24 134.5t-69 57.5q-35 0 -51 -23t-16 -74q0 -49 9 -91t30.5 -71.5t53.5 -29.5z" />
    <glyph glyph-name="Hcircumflex" unicode="&#x124;" horiz-adv-x="884" 
d="M754 579v-1v-433q0 -78 16.5 -100t82.5 -30v-16h-374v16q66 8 82.5 30t16.5 100v206h-272v-206q0 -78 17 -100t83 -30v-16h-375v16q66 8 82.5 30t16.5 100v433q0 78 -16.5 99t-82.5 31v16h375v-16q-67 -10 -83.5 -30.5t-16.5 -98.5v-183h272v183q0 78 -16.5 99t-82.5 31
v16h374v-16q-66 -10 -82.5 -31t-16.5 -99zM434 921h16l155 -129h-23l-140 46l-140 -46h-23z" />
    <glyph glyph-name="hcircumflex" unicode="&#x125;" horiz-adv-x="644" 
d="M169 962h16l155 -129h-23l-140 46l-140 -46h-23zM20 752l234 71q-4 -208 -4 -224v-156q54 104 160 104q67 0 110.5 -47.5t43.5 -142.5v-221q0 -78 9.5 -96t58.5 -24v-16h-286v16q40 6 48 24.5t8 95.5v192q0 56 -21.5 85t-60.5 29q-43 0 -70 -27v-279q0 -78 9.5 -96
t58.5 -24v-16h-298v16q49 6 58.5 24t9.5 96v500q0 67 -9.5 82.5t-58.5 17.5v16z" />
    <glyph glyph-name="Hbar" unicode="&#x126;" horiz-adv-x="902" 
d="M763 579v-1v-19h89v-45h-89v-369q0 -78 16.5 -100t82.5 -30v-16h-374v16q66 8 82.5 30t16.5 100v206h-272v-206q0 -78 17 -100t83 -30v-16h-375v16q66 8 82.5 30t16.5 100v369h-99v45h99v19q0 78 -16.5 99t-82.5 31v16h375v-16q-67 -10 -83.5 -30.5t-16.5 -98.5v-19h272
v19q0 78 -16.5 99t-82.5 31v16h374v-16q-66 -10 -82.5 -31t-16.5 -99zM315 395h272v119h-272v-119z" />
    <glyph glyph-name="hbar" unicode="&#x127;" horiz-adv-x="663" 
d="M39 752v1l234 71q-4 -188 -4 -191h130v-50h-130v-140q54 104 160 104q67 0 110.5 -47.5t43.5 -142.5v-221q0 -78 9.5 -96t58.5 -24v-16h-286v16q40 6 48 24.5t8 95.5v192q0 56 -21.5 85t-60.5 29q-43 0 -70 -27v-279q0 -78 9.5 -96t58.5 -24v-16h-298v16q49 6 58.5 24
t9.5 96v447h-97v50h97v3q0 67 -9.5 82.5t-58.5 17.5v16z" />
    <glyph glyph-name="Itilde" unicode="&#x128;" horiz-adv-x="437" 
d="M306 579v-1v-433q0 -78 17 -100t83 -30v-16h-375v16q66 8 82.5 30t16.5 100v433q0 78 -16.5 99t-82.5 31v16h375v-16q-67 -10 -83.5 -30.5t-16.5 -98.5zM315 865h2q51 0 61 50h16q0 -52 -24 -89t-69 -37q-34 0 -83.5 30.5t-79.5 30.5q-53 0 -63 -51h-16q0 53 24 90t69 37
q33 0 83.5 -30.5t79.5 -30.5z" />
    <glyph glyph-name="itilde" unicode="&#x129;" horiz-adv-x="350" 
d="M28 630h-19q0 54 24 99.5t70 45.5q29 0 85 -29t76 -29q28 0 40.5 12t14.5 43h19q0 -74 -25 -107t-61 -33q-35 0 -89.5 29.5t-78.5 29.5q-52 0 -56 -61zM257 323v-187q0 -78 9.5 -96t58.5 -24v-16h-298v16q49 6 58.5 24t9.5 96v224q0 67 -9.5 82.5t-58.5 17.5v16l234 71
q-4 -208 -4 -224z" />
    <glyph glyph-name="Imacron" unicode="&#x12a;" horiz-adv-x="437" 
d="M306 579v-1v-433q0 -78 17 -100t83 -30v-16h-375v16q66 8 82.5 30t16.5 100v433q0 78 -16.5 99t-82.5 31v16h375v-16q-67 -10 -83.5 -30.5t-16.5 -98.5zM366 817h-296v68h296v-68z" />
    <glyph glyph-name="imacron" unicode="&#x12b;" horiz-adv-x="344" 
d="M257 323v-187q0 -78 9.5 -96t58.5 -24v-16h-298v16q49 6 58.5 24t9.5 96v224q0 67 -9.5 82.5t-58.5 17.5v16l234 71q-4 -208 -4 -224zM335 665h-321v68h321v-68z" />
    <glyph glyph-name="Ibreve" unicode="&#x12c;" horiz-adv-x="437" 
d="M306 579v-1v-433q0 -78 17 -100t83 -30v-16h-375v16q66 8 82.5 30t16.5 100v433q0 78 -16.5 99t-82.5 31v16h375v-16q-67 -10 -83.5 -30.5t-16.5 -98.5zM217 828q82 0 88 93h48q0 -53 -35 -92.5t-101 -39.5q-65 0 -99.5 39.5t-34.5 92.5h48q5 -93 86 -93z" />
    <glyph glyph-name="ibreve" unicode="&#x12d;" horiz-adv-x="344" 
d="M257 323v-187q0 -78 9.5 -96t58.5 -24v-16h-298v16q49 6 58.5 24t9.5 96v224q0 67 -9.5 82.5t-58.5 17.5v16l234 71q-4 -208 -4 -224zM172 663h1q88 0 94 99h51q0 -56 -37.5 -98.5t-107.5 -42.5t-107.5 42.5t-37.5 98.5h51q8 -99 93 -99z" />
    <glyph glyph-name="Iogonek" unicode="&#x12e;" horiz-adv-x="437" 
d="M320 -177v-1l5 -9q-53 -35 -102 -35q-41 0 -69.5 24.5t-28.5 65.5q0 34 34 65.5t103 65.5h-231v16q66 8 82.5 30t16.5 100v433q0 78 -16.5 99t-82.5 31v16h375v-16q-67 -10 -83.5 -30.5t-16.5 -98.5v-433q0 -78 17 -100t83 -30v-16h-130q-60 -47 -60 -109q0 -33 16 -55
t49 -22q16 0 39 9z" />
    <glyph glyph-name="iogonek" unicode="&#x12f;" horiz-adv-x="350" 
d="M257 323v-187q0 -78 9.5 -96t58.5 -24v-16h-127q-60 -47 -60 -109q0 -33 16 -55t49 -22q16 0 39 9l5 -9q-53 -35 -102 -35q-41 0 -69.5 24.5t-28.5 65.5q0 34 34 65.5t103 65.5h-157v16q49 6 58.5 24t9.5 96v224q0 67 -9.5 82.5t-58.5 17.5v16l234 71q-4 -208 -4 -224z
M179 636q-41 0 -69.5 28.5t-28.5 69.5q0 39 29 67t69 28t68.5 -28t28.5 -67q0 -40 -28.5 -69t-68.5 -29z" />
    <glyph glyph-name="Idotaccent" unicode="&#x130;" horiz-adv-x="437" 
d="M306 579v-1v-433q0 -78 17 -100t83 -30v-16h-375v16q66 8 82.5 30t16.5 100v433q0 78 -16.5 99t-82.5 31v16h375v-16q-67 -10 -83.5 -30.5t-16.5 -98.5zM139 865q0 32 22 54.5t54 22.5q33 0 55.5 -22.5t22.5 -54.5t-22.5 -54.5t-55.5 -22.5q-32 0 -54 22.5t-22 54.5z" />
    <glyph glyph-name="dotlessi" unicode="&#x131;" horiz-adv-x="350" 
d="M257 323v-187q0 -78 9.5 -96t58.5 -24v-16h-298v16q49 6 58.5 24t9.5 96v224q0 67 -9.5 82.5t-58.5 17.5v16l234 71q-4 -208 -4 -224z" />
    <glyph glyph-name="Jcircumflex" unicode="&#x134;" horiz-adv-x="492" 
d="M206 218v361q0 78 -16.5 99t-82.5 31v16h374v-16q-66 -10 -82.5 -31t-16.5 -99v-348q0 -72 -21.5 -122t-59 -75.5t-78 -36t-89.5 -10.5q-71 0 -118 14v191h11q75 -166 127 -166q18 0 27.5 9t17 53t7.5 130zM285 922h16l155 -129h-23l-140 46l-140 -46h-23z" />
    <glyph glyph-name="jcircumflex" unicode="&#x135;" horiz-adv-x="338" 
d="M183 772l165 -169h-18l-154 71l-155 -71h-16l164 169h14zM96 88v-1v272q0 67 -9.5 82.5t-58.5 17.5v16l234 71q-4 -208 -4 -224v-218q0 -78 -16 -133.5t-53 -95t-78.5 -64.5t-110.5 -56l-10 14q61 65 83.5 142.5t22.5 176.5z" />
    <glyph glyph-name="Kcommaaccent" unicode="&#x136;" horiz-adv-x="827" 
d="M306 356l-1 -1v-210q0 -78 17 -100t83 -30v-16h-375v16q66 8 82.5 30t16.5 100v433q0 78 -16.5 99t-82.5 31v16h375v-16q-67 -10 -83.5 -30.5t-16.5 -98.5v-223l201 217q42 45 56 73.5t0.5 43.5t-57.5 18v16h265v-16q-50 -6 -96 -34.5t-109 -97.5l-116 -123l241 -323
q45 -58 78.5 -85.5t67.5 -28.5v-16h-366v16q38 1 50.5 18t-9.5 50zM359 -123v1q0 28 20 47.5t49 19.5q30 0 48 -21t18 -54q0 -59 -42.5 -107t-103.5 -74l-5 10q83 59 83 114q-27 1 -47 19t-20 45z" />
    <glyph glyph-name="kcommaaccent" unicode="&#x137;" horiz-adv-x="689" 
d="M88 136v500q0 67 -9.5 82.5t-58.5 17.5v16l234 71q-4 -208 -4 -224v-463q0 -78 9 -96t55 -24v-16h-294v16q49 6 58.5 24t9.5 96zM366 0v-1v16q45 5 52.5 19.5t-19.5 49.5l-148 192l180 160q33 28 44 44t0 27t-52 15v16h216v-16q-47 -3 -75.5 -20t-81.5 -65l-99 -87
l213 -278q23 -30 41.5 -41t51.5 -15v-16h-323zM256 -123v1q0 28 20 47.5t49 19.5q30 0 48 -21t18 -54q0 -59 -42.5 -107t-103.5 -74l-5 10q83 59 83 114q-27 1 -47 19t-20 45z" />
    <glyph glyph-name="Lacute" unicode="&#x139;" 
d="M31 0l-1 -1v16q66 8 82.5 30t16.5 100v433q0 78 -16.5 99t-82.5 31v16h375v-16q-67 -10 -83.5 -30.5t-16.5 -98.5v-507q0 -36 35 -36h40q66 0 110 15t73 51.5t45 78t34 113.5h21l-19 -294h-613zM405 921l-237 -129h-16l52 129h201z" />
    <glyph glyph-name="lacute" unicode="&#x13a;" horiz-adv-x="358" 
d="M355 962l-237 -129h-16l52 129h201zM98 136v500q0 67 -9.5 82.5t-58.5 17.5v16l234 71q-4 -208 -4 -224v-463q0 -78 9.5 -96t58.5 -24v-16h-298v16q49 6 58.5 24t9.5 96z" />
    <glyph glyph-name="Lcommaaccent" unicode="&#x13b;" 
d="M31 0l-1 -1v16q66 8 82.5 30t16.5 100v433q0 78 -16.5 99t-82.5 31v16h375v-16q-67 -10 -83.5 -30.5t-16.5 -98.5v-507q0 -36 35 -36h40q66 0 110 15t73 51.5t45 78t34 113.5h21l-19 -294h-613zM268 -123v1q0 28 20 47.5t49 19.5q30 0 48 -21t18 -54q0 -59 -42.5 -107
t-103.5 -74l-5 10q83 59 83 114q-27 1 -47 19t-20 45z" />
    <glyph glyph-name="lcommaaccent" unicode="&#x13c;" horiz-adv-x="348" 
d="M105 -122v1q0 28 20 47.5t49 19.5q30 0 48 -21t18 -54q0 -59 -42.5 -107t-103.5 -74l-5 10q83 59 83 114q-27 1 -47 19t-20 45zM98 137v500q0 67 -9.5 82.5t-58.5 17.5v16l234 71q-4 -208 -4 -224v-463q0 -78 9.5 -96t58.5 -24v-16h-298v16q49 6 58.5 24t9.5 96z" />
    <glyph glyph-name="Lcaron" unicode="&#x13d;" 
d="M462 676v1q0 28 20 47.5t49 19.5q30 0 48 -21t18 -54q0 -59 -42.5 -107t-103.5 -74l-5 10q83 59 83 114q-27 1 -47 19t-20 45zM31 1l-1 -1v16q66 8 82.5 30t16.5 100v433q0 78 -16.5 99t-82.5 31v16h375v-16q-67 -10 -83.5 -30.5t-16.5 -98.5v-507q0 -36 35 -36h40
q66 0 110 15t73 51.5t45 78t34 113.5h21l-19 -294h-613z" />
    <glyph glyph-name="lcaron" unicode="&#x13e;" horiz-adv-x="425" 
d="M325 755v1q0 28 20 47.5t49 19.5q30 0 48 -21t18 -54q0 -59 -42.5 -107t-103.5 -74l-5 10q83 59 83 114q-27 1 -47 19t-20 45zM98 137v500q0 67 -9.5 82.5t-58.5 17.5v16l234 71q-4 -208 -4 -224v-463q0 -78 9.5 -96t58.5 -24v-16h-298v16q49 6 58.5 24t9.5 96z" />
    <glyph glyph-name="Ldot" unicode="&#x13f;" 
d="M416 452q0 32 22 54.5t54 22.5q33 0 55.5 -22.5t22.5 -54.5t-22.5 -54.5t-55.5 -22.5q-32 0 -54 22.5t-22 54.5zM31 0l-1 -1v16q66 8 82.5 30t16.5 100v433q0 78 -16.5 99t-82.5 31v16h375v-16q-67 -10 -83.5 -30.5t-16.5 -98.5v-507q0 -36 35 -36h40q66 0 110 15
t73 51.5t45 78t34 113.5h21l-19 -294h-613z" />
    <glyph glyph-name="ldot" unicode="&#x140;" horiz-adv-x="443" 
d="M318 452q0 32 22 54.5t54 22.5q33 0 55.5 -22.5t22.5 -54.5t-22.5 -54.5t-55.5 -22.5q-32 0 -54 22.5t-22 54.5zM98 136v500q0 67 -9.5 82.5t-58.5 17.5v16l234 71q-4 -208 -4 -224v-463q0 -78 9.5 -96t58.5 -24v-16h-298v16q49 6 58.5 24t9.5 96z" />
    <glyph glyph-name="Lslash" unicode="&#x141;" 
d="M31 0l-1 -1v16q66 8 82.5 30t16.5 100v166l-70 -36l-20 41l90 46v216q0 78 -16.5 99t-82.5 31v16h375v-16q-67 -10 -83.5 -30.5t-16.5 -98.5v-125l70 36l21 -40l-91 -47v-331q0 -36 35 -36h40q66 0 110 15t73 51.5t45 78t34 113.5h21l-19 -294h-613z" />
    <glyph glyph-name="lslash" unicode="&#x142;" horiz-adv-x="377" 
d="M101 383v253q0 67 -9.5 82.5t-58.5 17.5v16l234 71q-4 -208 -4 -224v-132l84 43l21 -40l-105 -55v-279q0 -78 9.5 -96t58.5 -24v-16h-298v16q49 6 58.5 24t9.5 96v195l-69 -35l-21 41z" />
    <glyph glyph-name="Nacute" unicode="&#x143;" horiz-adv-x="825" 
d="M658 167h-1v412q0 78 -16.5 99t-82.5 31v16h246v-16q-66 -10 -82.5 -31t-16.5 -99v-579h-149l-379 568v-422q0 -78 17 -100t83 -30v-16h-247v16q66 8 82.5 30t16.5 100v494l-2 3q-26 37 -41 49.5t-35 19.5v13h235zM671 922l-237 -129h-16l52 129h201z" />
    <glyph glyph-name="nacute" unicode="&#x144;" horiz-adv-x="646" 
d="M372 772h190l-249 -169h-14zM22 460v-1v16l224 70l4 -104q61 105 162 105q67 0 110.5 -47.5t43.5 -142.5v-221q0 -78 9.5 -96t58.5 -24v-16h-286v16q40 6 48 24.5t8 95.5v192q0 56 -21.5 85t-60.5 29q-43 0 -70 -27v-279q0 -77 8 -95t49 -24v-16h-287v16q49 6 58.5 24
t9.5 96v224q0 67 -9.5 82.5t-58.5 17.5z" />
    <glyph glyph-name="Ncommaaccent" unicode="&#x145;" horiz-adv-x="825" 
d="M658 167h-1v412q0 78 -16.5 99t-82.5 31v16h246v-16q-66 -10 -82.5 -31t-16.5 -99v-579h-149l-379 568v-422q0 -78 17 -100t83 -30v-16h-247v16q66 8 82.5 30t16.5 100v494l-2 3q-26 37 -41 49.5t-35 19.5v13h235zM333 -122v1q0 28 20 47.5t49 19.5q30 0 48 -21t18 -54
q0 -59 -42.5 -107t-103.5 -74l-5 10q83 59 83 114q-27 1 -47 19t-20 45z" />
    <glyph glyph-name="ncommaaccent" unicode="&#x146;" horiz-adv-x="646" 
d="M22 460v-1v16l224 70l4 -104q61 105 162 105q67 0 110.5 -47.5t43.5 -142.5v-221q0 -78 9.5 -96t58.5 -24v-16h-286v16q40 6 48 24.5t8 95.5v192q0 56 -21.5 85t-60.5 29q-43 0 -70 -27v-279q0 -77 8 -95t49 -24v-16h-287v16q49 6 58.5 24t9.5 96v224q0 67 -9.5 82.5
t-58.5 17.5zM256 -123v1q0 28 20 47.5t49 19.5q30 0 48 -21t18 -54q0 -59 -42.5 -107t-103.5 -74l-5 10q83 59 83 114q-27 1 -47 19t-20 45z" />
    <glyph glyph-name="Ncaron" unicode="&#x147;" horiz-adv-x="825" 
d="M446 793l-155 129h23l140 -46l140 46h23l-155 -129h-16zM658 167h-1v412q0 78 -16.5 99t-82.5 31v16h246v-16q-66 -10 -82.5 -31t-16.5 -99v-579h-149l-379 568v-422q0 -78 17 -100t83 -30v-16h-247v16q66 8 82.5 30t16.5 100v494l-2 3q-26 37 -41 49.5t-35 19.5v13h235z
" />
    <glyph glyph-name="ncaron" unicode="&#x148;" horiz-adv-x="646" 
d="M330 603h-14l-164 169h16l155 -71l154 71h18zM22 460v-1v16l224 70l4 -104q61 105 162 105q67 0 110.5 -47.5t43.5 -142.5v-221q0 -78 9.5 -96t58.5 -24v-16h-286v16q40 6 48 24.5t8 95.5v192q0 56 -21.5 85t-60.5 29q-43 0 -70 -27v-279q0 -77 8 -95t49 -24v-16h-287v16
q49 6 58.5 24t9.5 96v224q0 67 -9.5 82.5t-58.5 17.5z" />
    <glyph glyph-name="Eng" unicode="&#x14a;" horiz-adv-x="825" 
d="M130 146v493l-2 3q-27 38 -41.5 50.5t-35.5 19.5v13h235l372 -558v412q0 78 -16.5 99t-82.5 31v16h246v-16q-66 -10 -82.5 -31t-16.5 -99v-474q0 -78 -15.5 -133.5t-52 -95.5t-78 -66t-110.5 -56l-8 10q50 54 75 125t25 134l-364 544v-421q0 -78 17 -100t83 -30v-16h-247
v16q66 8 82.5 30t16.5 100z" />
    <glyph glyph-name="eng" unicode="&#x14b;" horiz-adv-x="621" 
d="M556 357v-252q0 -78 -15.5 -133.5t-52 -95.5t-78 -66t-110.5 -56l-7 10q60 64 80.5 141.5t20.5 181.5v240q0 114 -72 114q-43 0 -70 -27v-279q0 -77 8 -95t49 -24v-16h-287v16q49 6 58.5 24t9.5 96v224q0 67 -9.5 82.5t-58.5 17.5v16l224 70l4 -104q61 105 162 105
q65 0 104.5 -47.5t39.5 -142.5z" />
    <glyph glyph-name="Omacron" unicode="&#x14c;" horiz-adv-x="892" 
d="M847 366q0 -90 -33.5 -163t-90 -119.5t-128 -71.5t-149.5 -25t-149.5 25t-128 71.5t-90 119.5t-33.5 163t33.5 163t90 119.5t128 71.5t149.5 25t149.5 -25t128 -71.5t90 -119.5t33.5 -163zM240 366q0 -157 53 -248.5t153 -91.5t153 91.5t53 248.5t-53 248.5t-153 91.5
t-153 -91.5t-53 -248.5zM594 818h-296v68h296v-68z" />
    <glyph glyph-name="omacron" unicode="&#x14d;" horiz-adv-x="625" 
d="M475 665h-321v68h321v-68zM312 547q120 0 200 -78.5t80 -201.5q0 -116 -78.5 -198t-201.5 -82t-200.5 79.5t-77.5 207.5q0 109 78.5 191t199.5 82zM303 512q-98 0 -98 -209q0 -46 5 -89t17 -89.5t37 -74.5t61 -28q96 0 96 215q0 44 -4.5 86t-16.5 87.5t-37 73.5t-60 28z
" />
    <glyph glyph-name="Obreve" unicode="&#x14e;" horiz-adv-x="892" 
d="M847 366q0 -90 -33.5 -163t-90 -119.5t-128 -71.5t-149.5 -25t-149.5 25t-128 71.5t-90 119.5t-33.5 163t33.5 163t90 119.5t128 71.5t149.5 25t149.5 -25t128 -71.5t90 -119.5t33.5 -163zM240 366q0 -157 53 -248.5t153 -91.5t153 91.5t53 248.5t-53 248.5t-153 91.5
t-153 -91.5t-53 -248.5zM445 829q82 0 88 93h48q0 -53 -35 -92.5t-101 -39.5q-65 0 -99.5 39.5t-34.5 92.5h48q5 -93 86 -93z" />
    <glyph glyph-name="obreve" unicode="&#x14f;" horiz-adv-x="625" 
d="M312 547q120 0 200 -78.5t80 -201.5q0 -116 -78.5 -198t-201.5 -82t-200.5 79.5t-77.5 207.5q0 109 78.5 191t199.5 82zM303 512q-98 0 -98 -209q0 -46 5 -89t17 -89.5t37 -74.5t61 -28q96 0 96 215q0 44 -4.5 86t-16.5 87.5t-37 73.5t-60 28zM309 663h1q88 0 94 99h51
q0 -56 -37.5 -98.5t-107.5 -42.5t-107.5 42.5t-37.5 98.5h51q8 -99 93 -99z" />
    <glyph glyph-name="Ohungarumlaut" unicode="&#x150;" horiz-adv-x="892" 
d="M847 366q0 -90 -33.5 -163t-90 -119.5t-128 -71.5t-149.5 -25t-149.5 25t-128 71.5t-90 119.5t-33.5 163t33.5 163t90 119.5t128 71.5t149.5 25t149.5 -25t128 -71.5t90 -119.5t33.5 -163zM240 366q0 -157 53 -248.5t153 -91.5t153 91.5t53 248.5t-53 248.5t-153 91.5
t-153 -91.5t-53 -248.5zM777 922l-237 -129h-16l52 129h201zM564 922l-237 -129h-16l52 129h201z" />
    <glyph glyph-name="ohungarumlaut" unicode="&#x151;" horiz-adv-x="625" 
d="M478 772h190l-249 -169h-14zM263 772h190l-249 -169h-14zM312 547q120 0 200 -78.5t80 -201.5q0 -116 -78.5 -198t-201.5 -82t-200.5 79.5t-77.5 207.5q0 109 78.5 191t199.5 82zM303 512q-98 0 -98 -209q0 -46 5 -89t17 -89.5t37 -74.5t61 -28q96 0 96 215q0 44 -4.5 86
t-16.5 87.5t-37 73.5t-60 28z" />
    <glyph glyph-name="OE" unicode="&#x152;" horiz-adv-x="1277" 
d="M830 396h108q45 0 70 25.5t33 86.5h18v-268h-18q-8 61 -33 86.5t-70 25.5h-108v-279q0 -23 11.5 -30t48.5 -7h41q84 0 137 27t81 73.5t51 128.5h22l-18 -267q-59 2 -273 2h-257v78q-89 -91 -228 -91q-78 0 -149.5 25t-128 71.5t-90 119.5t-33.5 163t33.5 163t90 119.5
t128 71.5t149.5 25q141 0 228 -92v72h250q202 0 257 2l17 -267h-22q-18 64 -36.5 102.5t-52.5 69.5t-86 44t-131 13h-40v-293zM240 366q0 -157 53 -248.5t153 -91.5t153 91.5t53 248.5t-53 248.5t-153 91.5t-153 -91.5t-53 -248.5z" />
    <glyph glyph-name="oe" unicode="&#x153;" horiz-adv-x="941" 
d="M312 547h4q121 0 184 -88q77 88 188 88q100 0 158 -56t62 -158h-345q0 -4 -0.5 -12t-0.5 -12q0 -96 54.5 -151t139.5 -55q86 0 135 44l12 -10q-35 -60 -94 -105t-139 -45q-115 0 -184 75q-62 -75 -174 -75q-122 0 -199.5 81.5t-77.5 205.5q0 107 78.5 190t198.5 83z
M307 512q-97 0 -97 -209q0 -42 5 -84.5t16.5 -90t36.5 -77t61 -29.5q95 0 95 215v1v11v2q-1 42 -6.5 80.5t-17 83t-35.5 71t-58 26.5zM673 505h2q-46 0 -74 -35t-33 -97h188q4 62 -18.5 97t-64.5 35z" />
    <glyph glyph-name="Racute" unicode="&#x154;" horiz-adv-x="838" 
d="M306 352h1v-206q0 -78 19 -100t94 -30v-16h-388v16q66 8 82.5 30t16.5 100v433q0 78 -16.5 99t-82.5 31v16h161q5 0 83 0.5t81 0.5q81 0 142.5 -9t110.5 -30t75 -58t26 -90q0 -136 -182 -173l169 -259q34 -52 55.5 -67.5t69.5 -23.5v-16h-265q-16 32 -88 152l-25 40
q-45 72 -107 160h-32zM307 386h37q81 0 127 37.5t46 115.5t-46 115.5t-127 37.5h-37v-306zM580 922l-237 -129h-16l52 129h201z" />
    <glyph glyph-name="racute" unicode="&#x155;" horiz-adv-x="498" 
d="M307 772h190l-249 -169h-14zM257 403v-267q0 -76 12.5 -95t69.5 -25v-16h-312v16q49 6 58.5 24t9.5 96v224q0 67 -9.5 82.5t-58.5 17.5v16l224 70l3 -114q1 1 11 14t12.5 16l12.5 15t13.5 15.5t13.5 13t15.5 13t15 10t17 9t17 4.5t18.5 2q41 0 65.5 -23.5t24.5 -64.5
q0 -43 -24 -69.5t-56 -26.5q-18 0 -26 4.5t-19 19.5l-29 39q-16 20 -26 20q-23 0 -53 -40z" />
    <glyph glyph-name="Rcommaaccent" unicode="&#x156;" horiz-adv-x="838" 
d="M306 352h1v-206q0 -78 19 -100t94 -30v-16h-388v16q66 8 82.5 30t16.5 100v433q0 78 -16.5 99t-82.5 31v16h161q5 0 83 0.5t81 0.5q81 0 142.5 -9t110.5 -30t75 -58t26 -90q0 -136 -182 -173l169 -259q34 -52 55.5 -67.5t69.5 -23.5v-16h-265q-16 32 -88 152l-25 40
q-45 72 -107 160h-32zM307 386h37q81 0 127 37.5t46 115.5t-46 115.5t-127 37.5h-37v-306zM354 -122v1q0 28 20 47.5t49 19.5q30 0 48 -21t18 -54q0 -59 -42.5 -107t-103.5 -74l-5 10q83 59 83 114q-27 1 -47 19t-20 45z" />
    <glyph glyph-name="rcommaaccent" unicode="&#x157;" horiz-adv-x="498" 
d="M257 403v-267q0 -76 12.5 -95t69.5 -25v-16h-312v16q49 6 58.5 24t9.5 96v224q0 67 -9.5 82.5t-58.5 17.5v16l224 70l3 -114q1 1 11 14t12.5 16l12.5 15t13.5 15.5t13.5 13t15.5 13t15 10t17 9t17 4.5t18.5 2q41 0 65.5 -23.5t24.5 -64.5q0 -43 -24 -69.5t-56 -26.5
q-18 0 -26 4.5t-19 19.5l-29 39q-16 20 -26 20q-23 0 -53 -40zM107 -122v1q0 28 20 47.5t49 19.5q30 0 48 -21t18 -54q0 -59 -42.5 -107t-103.5 -74l-5 10q83 59 83 114q-27 1 -47 19t-20 45z" />
    <glyph glyph-name="Rcaron" unicode="&#x158;" horiz-adv-x="838" 
d="M384 793l-155 129h23l140 -46l140 46h23l-155 -129h-16zM306 352h1v-206q0 -78 19 -100t94 -30v-16h-388v16q66 8 82.5 30t16.5 100v433q0 78 -16.5 99t-82.5 31v16h161q5 0 83 0.5t81 0.5q81 0 142.5 -9t110.5 -30t75 -58t26 -90q0 -136 -182 -173l169 -259
q34 -52 55.5 -67.5t69.5 -23.5v-16h-265q-16 32 -88 152l-25 40q-45 72 -107 160h-32zM307 386h37q81 0 127 37.5t46 115.5t-46 115.5t-127 37.5h-37v-306z" />
    <glyph glyph-name="rcaron" unicode="&#x159;" horiz-adv-x="498" 
d="M273 603h-14l-164 169h16l155 -71l154 71h18zM257 403v-267q0 -76 12.5 -95t69.5 -25v-16h-312v16q49 6 58.5 24t9.5 96v224q0 67 -9.5 82.5t-58.5 17.5v16l224 70l3 -114q1 1 11 14t12.5 16l12.5 15t13.5 15.5t13.5 13t15.5 13t15 10t17 9t17 4.5t18.5 2
q41 0 65.5 -23.5t24.5 -64.5q0 -43 -24 -69.5t-56 -26.5q-18 0 -26 4.5t-19 19.5l-29 39q-16 20 -26 20q-23 0 -53 -40z" />
    <glyph glyph-name="Sacute" unicode="&#x15a;" horiz-adv-x="634" 
d="M297 -13q-136 0 -240 53v241h19q9 -33 14.5 -51.5t17 -49.5t22 -49t28.5 -40.5t37.5 -35t47 -21t59.5 -8.5q67 0 107 30.5t40 83.5q0 45 -29.5 76t-88.5 60l-93 46q-181 91 -181 222q0 89 75.5 148t188.5 59q57 0 119.5 -11.5t95.5 -29.5v-209h-21q-14 44 -27 73.5
t-36.5 65t-58 54t-79.5 18.5q-53 0 -87 -26t-34 -73q0 -66 82 -107l110 -55q104 -52 154 -105.5t50 -131.5q0 -95 -85.5 -161t-206.5 -66zM531 922l-237 -129h-16l52 129h201z" />
    <glyph glyph-name="sacute" unicode="&#x15b;" horiz-adv-x="508" 
d="M300 772h190l-249 -169h-14zM260 549h-1q95 0 155 -23v-160h-18q-14 76 -60.5 110t-98.5 34q-34 0 -53 -15t-19 -39q0 -27 17 -46.5t56 -38.5l60 -29q83 -41 119 -84t36 -100q0 -81 -68.5 -126t-156.5 -45q-98 0 -169 31v180h18q46 -169 173 -169q34 0 58.5 15.5
t24.5 45.5q0 28 -20 50.5t-73 47.5l-54 26q-128 62 -128 181q0 72 58 113t144 41z" />
    <glyph glyph-name="Scircumflex" unicode="&#x15c;" horiz-adv-x="634" 
d="M297 -13q-136 0 -240 53v241h19q9 -33 14.5 -51.5t17 -49.5t22 -49t28.5 -40.5t37.5 -35t47 -21t59.5 -8.5q67 0 107 30.5t40 83.5q0 45 -29.5 76t-88.5 60l-93 46q-181 91 -181 222q0 89 75.5 148t188.5 59q57 0 119.5 -11.5t95.5 -29.5v-209h-21q-14 44 -27 73.5
t-36.5 65t-58 54t-79.5 18.5q-53 0 -87 -26t-34 -73q0 -66 82 -107l110 -55q104 -52 154 -105.5t50 -131.5q0 -95 -85.5 -161t-206.5 -66zM316 922h16l155 -129h-23l-140 46l-140 -46h-23z" />
    <glyph glyph-name="scircumflex" unicode="&#x15d;" horiz-adv-x="508" 
d="M270 772l165 -169h-18l-154 71l-155 -71h-16l164 169h14zM260 549h-1q95 0 155 -23v-160h-18q-14 76 -60.5 110t-98.5 34q-34 0 -53 -15t-19 -39q0 -27 17 -46.5t56 -38.5l60 -29q83 -41 119 -84t36 -100q0 -81 -68.5 -126t-156.5 -45q-98 0 -169 31v180h18
q46 -169 173 -169q34 0 58.5 15.5t24.5 45.5q0 28 -20 50.5t-73 47.5l-54 26q-128 62 -128 181q0 72 58 113t144 41z" />
    <glyph glyph-name="Scedilla" unicode="&#x15e;" horiz-adv-x="634" 
d="M216 -119v-1l63 106q-124 4 -222 53v241h19q9 -33 14.5 -51.5t17 -49.5t22 -49t28.5 -40.5t37.5 -35t47 -21t59.5 -8.5q67 0 107 30.5t40 83.5q0 45 -29.5 76t-88.5 60l-93 46q-181 91 -181 222q0 89 75.5 148t188.5 59q57 0 119.5 -11.5t95.5 -29.5v-209h-21
q-14 44 -27 73.5t-36.5 65t-58 54t-79.5 18.5q-53 0 -87 -26t-34 -73q0 -66 82 -107l110 -55q104 -52 154 -105.5t50 -131.5q0 -91 -79 -156t-194 -70l-41 -70q17 9 41 9q35 0 60.5 -21t25.5 -50q0 -46 -39.5 -70t-90.5 -24q-43 0 -87 25l13 32q32 -15 62 -15q26 0 45 10.5
t19 31.5q0 22 -18 32.5t-41 9t-41 -10.5z" />
    <glyph glyph-name="scedilla" unicode="&#x15f;" horiz-adv-x="508" 
d="M152 -119h-1l63 106q-92 4 -155 31v180h18q46 -169 173 -169q34 0 58.5 15.5t24.5 45.5q0 28 -20 50.5t-73 47.5l-54 26q-128 62 -128 181q0 72 58 113t144 41q95 0 155 -23v-160h-18q-14 76 -60.5 110t-98.5 34q-34 0 -53 -15t-19 -39q0 -27 17 -46.5t56 -38.5l60 -29
q83 -41 119 -84t36 -100q0 -76 -60 -120t-142 -50l-41 -71q17 9 41 9q35 0 60.5 -21t25.5 -50q0 -46 -39.5 -70t-90.5 -24q-43 0 -87 25l13 32q32 -15 62 -15q26 0 45 10.5t19 31.5q0 22 -18 32.5t-41 9t-41 -10.5z" />
    <glyph glyph-name="Scaron" unicode="&#x160;" horiz-adv-x="634" 
d="M316 793l-155 129h23l140 -46l140 46h23l-155 -129h-16zM297 -13q-136 0 -240 53v241h19q9 -33 14.5 -51.5t17 -49.5t22 -49t28.5 -40.5t37.5 -35t47 -21t59.5 -8.5q67 0 107 30.5t40 83.5q0 45 -29.5 76t-88.5 60l-93 46q-181 91 -181 222q0 89 75.5 148t188.5 59
q57 0 119.5 -11.5t95.5 -29.5v-209h-21q-14 44 -27 73.5t-36.5 65t-58 54t-79.5 18.5q-53 0 -87 -26t-34 -73q0 -66 82 -107l110 -55q104 -52 154 -105.5t50 -131.5q0 -95 -85.5 -161t-206.5 -66z" />
    <glyph glyph-name="scaron" unicode="&#x161;" horiz-adv-x="508" 
d="M271 580h-14l-164 169h16l155 -71l154 71h18zM260 549h-1q95 0 155 -23v-160h-18q-14 76 -60.5 110t-98.5 34q-34 0 -53 -15t-19 -39q0 -27 17 -46.5t56 -38.5l60 -29q83 -41 119 -84t36 -100q0 -81 -68.5 -126t-156.5 -45q-98 0 -169 31v180h18q46 -169 173 -169
q34 0 58.5 15.5t24.5 45.5q0 28 -20 50.5t-73 47.5l-54 26q-128 62 -128 181q0 72 58 113t144 41z" />
    <glyph glyph-name="uni0162" unicode="&#x162;" horiz-adv-x="810" 
d="M207 0l1 -1v16q73 8 91.5 30t18.5 100v542h-34q-56 0 -95 -17.5t-65.5 -56.5t-42 -78.5t-33.5 -106.5h-22l17 299q55 -2 298 -2h130q243 0 296 2l18 -299h-22q-15 54 -26.5 87.5t-31 70t-42.5 56.5t-57 33t-79 13h-34v-542q0 -78 18.5 -100t91.5 -30v-16h-396zM327 -123
v1q0 28 20 47.5t49 19.5q30 0 48 -21t18 -54q0 -59 -42.5 -107t-103.5 -74l-5 10q83 59 83 114q-27 1 -47 19t-20 45z" />
    <glyph glyph-name="uni0163" unicode="&#x163;" horiz-adv-x="425" 
d="M127 -122v1q0 28 20 47.5t49 19.5q30 0 48 -21t18 -54q0 -59 -42.5 -107t-103.5 -74l-5 10q83 59 83 114q-27 1 -47 19t-20 45zM239 -12q-68 0 -105.5 38t-37.5 133v330h-81v50h84v53l159 133v-186h132v-50h-132v-302q0 -70 13 -91.5t51 -21.5t73 29l11 -10
q-26 -33 -42.5 -51t-51 -36t-73.5 -18z" />
    <glyph glyph-name="Tcaron" unicode="&#x164;" horiz-adv-x="810" 
d="M207 0l1 -1v16q73 8 91.5 30t18.5 100v542h-34q-56 0 -95 -17.5t-65.5 -56.5t-42 -78.5t-33.5 -106.5h-22l17 299q55 -2 298 -2h130q243 0 296 2l18 -299h-22q-15 54 -26.5 87.5t-31 70t-42.5 56.5t-57 33t-79 13h-34v-542q0 -78 18.5 -100t91.5 -30v-16h-396zM398 792
l-155 129h23l140 -46l140 46h23l-155 -129h-16z" />
    <glyph glyph-name="tcaron" unicode="&#x165;" horiz-adv-x="526" 
d="M426 755v1q0 28 20 47.5t49 19.5q30 0 48 -21t18 -54q0 -59 -42.5 -107t-103.5 -74l-5 10q83 59 83 114q-27 1 -47 19t-20 45zM239 -12q-68 0 -105.5 38t-37.5 133v330h-81v50h84v53l159 133v-186h132v-50h-132v-302q0 -70 13 -91.5t51 -21.5t73 29l11 -10
q-26 -33 -42.5 -51t-51 -36t-73.5 -18z" />
    <glyph glyph-name="Tbar" unicode="&#x166;" horiz-adv-x="810" 
d="M207 0l1 -1v16q73 8 91.5 30t18.5 100v206h-131v44h131v292h-34q-56 0 -95 -17.5t-65.5 -56.5t-42 -78.5t-33.5 -106.5h-22l17 299q55 -2 298 -2h130q243 0 296 2l18 -299h-22q-15 54 -26.5 87.5t-31 70t-42.5 56.5t-57 33t-79 13h-34v-292h131v-44h-131v-206
q0 -78 18.5 -100t91.5 -30v-16h-396z" />
    <glyph glyph-name="tbar" unicode="&#x167;" horiz-adv-x="435" 
d="M249 -13q-68 0 -105.5 38t-37.5 133v174h-91v50h91v106h-81v50h84v53l159 133v-186h132v-50h-132v-106h122v-50h-122v-146q0 -70 13 -91.5t51 -21.5t73 29l11 -10q-26 -33 -42.5 -51t-51 -36t-73.5 -18z" />
    <glyph glyph-name="Utilde" unicode="&#x168;" horiz-adv-x="813" 
d="M552 866h2q51 0 61 50h16q0 -52 -24 -89t-69 -37q-34 0 -83.5 30.5t-79.5 30.5q-53 0 -63 -51h-16q0 53 24 90t69 37q33 0 83.5 -30.5t79.5 -30.5zM112 278v-1v301q0 78 -16.5 99t-82.5 31v16h375v-16q-67 -10 -83.5 -30.5t-16.5 -98.5v-281q0 -125 42 -189.5t143 -64.5
q98 0 142 64.5t44 186.5v284q0 78 -16.5 99t-82.5 31v16h251v-16q-66 -10 -82.5 -31t-16.5 -99v-281q0 -311 -279 -311q-321 0 -321 291z" />
    <glyph glyph-name="utilde" unicode="&#x169;" horiz-adv-x="635" 
d="M537 321v3v-141q0 -67 9.5 -82.5t58.5 -17.5v-16l-211 -73l-17 103q-51 -107 -151 -107q-70 0 -114 45.5t-44 142.5v193q0 27 -0.5 39.5t-4 29.5t-10.5 24t-20 13.5t-33 7.5v14l234 41q-4 -204 -4 -213v-122q0 -119 74 -119q44 0 71 33v250q0 27 -0.5 39.5t-4 29.5
t-10.5 24t-20 13.5t-33 7.5v14l234 41q-4 -204 -4 -217zM170 633h-19q0 54 24 99.5t70 45.5q29 0 85 -29t76 -29q28 0 40.5 12t14.5 43h19q0 -74 -25 -107t-61 -33q-35 0 -89.5 29.5t-78.5 29.5q-52 0 -56 -61z" />
    <glyph glyph-name="Umacron" unicode="&#x16a;" horiz-adv-x="813" 
d="M615 818h-296v68h296v-68zM110 278v-1v301q0 78 -16.5 99t-82.5 31v16h375v-16q-67 -10 -83.5 -30.5t-16.5 -98.5v-281q0 -125 42 -189.5t143 -64.5q98 0 142 64.5t44 186.5v284q0 78 -16.5 99t-82.5 31v16h251v-16q-66 -10 -82.5 -31t-16.5 -99v-281q0 -311 -279 -311
q-321 0 -321 291z" />
    <glyph glyph-name="umacron" unicode="&#x16b;" horiz-adv-x="635" 
d="M537 321v3v-141q0 -67 9.5 -82.5t58.5 -17.5v-16l-211 -73l-17 103q-51 -107 -151 -107q-70 0 -114 45.5t-44 142.5v193q0 27 -0.5 39.5t-4 29.5t-10.5 24t-20 13.5t-33 7.5v14l234 41q-4 -204 -4 -213v-122q0 -119 74 -119q44 0 71 33v250q0 27 -0.5 39.5t-4 29.5
t-10.5 24t-20 13.5t-33 7.5v14l234 41q-4 -204 -4 -217zM470 668h-321v68h321v-68z" />
    <glyph glyph-name="Ubreve" unicode="&#x16c;" horiz-adv-x="813" 
d="M473 829q82 0 88 93h48q0 -53 -35 -92.5t-101 -39.5q-65 0 -99.5 39.5t-34.5 92.5h48q5 -93 86 -93zM110 278v-1v301q0 78 -16.5 99t-82.5 31v16h375v-16q-67 -10 -83.5 -30.5t-16.5 -98.5v-281q0 -125 42 -189.5t143 -64.5q98 0 142 64.5t44 186.5v284q0 78 -16.5 99
t-82.5 31v16h251v-16q-66 -10 -82.5 -31t-16.5 -99v-281q0 -311 -279 -311q-321 0 -321 291z" />
    <glyph glyph-name="ubreve" unicode="&#x16d;" horiz-adv-x="635" 
d="M537 321v3v-141q0 -67 9.5 -82.5t58.5 -17.5v-16l-211 -73l-17 103q-51 -107 -151 -107q-70 0 -114 45.5t-44 142.5v193q0 27 -0.5 39.5t-4 29.5t-10.5 24t-20 13.5t-33 7.5v14l234 41q-4 -204 -4 -213v-122q0 -119 74 -119q44 0 71 33v250q0 27 -0.5 39.5t-4 29.5
t-10.5 24t-20 13.5t-33 7.5v14l234 41q-4 -204 -4 -217zM313 666h1q88 0 94 99h51q0 -56 -37.5 -98.5t-107.5 -42.5t-107.5 42.5t-37.5 98.5h51q8 -99 93 -99z" />
    <glyph glyph-name="Uring" unicode="&#x16e;" horiz-adv-x="813" 
d="M110 278v-1v301q0 78 -16.5 99t-82.5 31v16h375v-16q-67 -10 -83.5 -30.5t-16.5 -98.5v-281q0 -125 42 -189.5t143 -64.5q98 0 142 64.5t44 186.5v284q0 78 -16.5 99t-82.5 31v16h251v-16q-66 -10 -82.5 -31t-16.5 -99v-281q0 -311 -279 -311q-321 0 -321 291zM378 879
q0 39 27 66.5t66 27.5t66.5 -27.5t27.5 -66.5q0 -38 -27.5 -65.5t-66.5 -27.5t-66 27.5t-27 65.5zM417 879q0 -25 15 -40.5t39 -15.5q23 0 38.5 15.5t15.5 40.5t-15.5 41t-38.5 16q-24 0 -39 -16t-15 -41z" />
    <glyph glyph-name="uring" unicode="&#x16f;" horiz-adv-x="635" 
d="M215 723q0 41 30.5 70.5t72.5 29.5q43 0 73 -29.5t30 -70.5q0 -42 -29.5 -70.5t-73.5 -28.5q-42 0 -72.5 28.5t-30.5 70.5zM260 723q0 -26 16 -43t42 -17q27 0 43 16.5t16 43.5q0 26 -17 43t-42 17q-26 0 -42 -17t-16 -43zM537 321v3v-141q0 -67 9.5 -82.5t58.5 -17.5
v-16l-211 -73l-17 103q-51 -107 -151 -107q-70 0 -114 45.5t-44 142.5v193q0 27 -0.5 39.5t-4 29.5t-10.5 24t-20 13.5t-33 7.5v14l234 41q-4 -204 -4 -213v-122q0 -119 74 -119q44 0 71 33v250q0 27 -0.5 39.5t-4 29.5t-10.5 24t-20 13.5t-33 7.5v14l234 41
q-4 -204 -4 -217z" />
    <glyph glyph-name="Uhungarumlaut" unicode="&#x170;" horiz-adv-x="813" 
d="M110 278v-1v301q0 78 -16.5 99t-82.5 31v16h375v-16q-67 -10 -83.5 -30.5t-16.5 -98.5v-281q0 -125 42 -189.5t143 -64.5q98 0 142 64.5t44 186.5v284q0 78 -16.5 99t-82.5 31v16h251v-16q-66 -10 -82.5 -31t-16.5 -99v-281q0 -311 -279 -311q-321 0 -321 291zM788 921
l-237 -129h-16l52 129h201zM575 921l-237 -129h-16l52 129h201z" />
    <glyph glyph-name="uhungarumlaut" unicode="&#x171;" horiz-adv-x="635" 
d="M436 772h190l-249 -169h-14zM221 772h190l-249 -169h-14zM537 321v3v-141q0 -67 9.5 -82.5t58.5 -17.5v-16l-211 -73l-17 103q-51 -107 -151 -107q-70 0 -114 45.5t-44 142.5v193q0 27 -0.5 39.5t-4 29.5t-10.5 24t-20 13.5t-33 7.5v14l234 41q-4 -204 -4 -213v-122
q0 -119 74 -119q44 0 71 33v250q0 27 -0.5 39.5t-4 29.5t-10.5 24t-20 13.5t-33 7.5v14l234 41q-4 -204 -4 -217z" />
    <glyph glyph-name="Uogonek" unicode="&#x172;" horiz-adv-x="813" 
d="M110 278l-2 -1v301q0 78 -16.5 99t-82.5 31v16h375v-16q-67 -10 -83.5 -30.5t-16.5 -98.5v-281q0 -125 42 -189.5t143 -64.5q98 0 142 64.5t44 186.5v284q0 78 -16.5 99t-82.5 31v16h251v-16q-66 -10 -82.5 -31t-16.5 -99v-281q0 -274 -215 -307q-49 -42 -49 -101
q0 -33 16 -55t49 -22q16 0 39 9l5 -9q-53 -35 -102 -35q-41 0 -69.5 24.5t-28.5 65.5q0 59 115 120q-12 -1 -37 -1q-321 0 -321 291z" />
    <glyph glyph-name="uogonek" unicode="&#x173;" horiz-adv-x="635" 
d="M537 321l-1 4v-141q0 -67 9.5 -82.5t58.5 -17.5v-16l-191 -66q-52 -44 -52 -103q0 -33 16 -55t49 -22q16 0 39 9l5 -9q-53 -35 -102 -35q-41 0 -69.5 24.5t-28.5 65.5q0 60 123 123l-16 97q-51 -107 -151 -107q-70 0 -114 45.5t-44 142.5v193q0 27 -0.5 39.5t-4 29.5
t-10.5 24t-20 13.5t-33 7.5v14l234 41q-4 -204 -4 -213v-122q0 -119 74 -119q44 0 71 33v250q0 27 -0.5 39.5t-4 29.5t-10.5 24t-20 13.5t-33 7.5v14l234 41q-4 -204 -4 -217z" />
    <glyph glyph-name="Wcircumflex" unicode="&#x174;" horiz-adv-x="1054" 
d="M543 922h16l155 -129h-23l-140 46l-140 -46h-23zM1054 725v-16q-26 -5 -39.5 -10.5t-30.5 -22t-30 -50t-27 -89.5l-130 -537h-148l-125 434l-106 -434h-148l-176 607q-16 55 -34 74.5t-60 27.5v16h331v-16q-41 -6 -51 -24t1 -56l123 -473l91 376l-55 193h194l149 -569
l84 347q12 47 17 81.5t2 56.5t-7 34.5t-18 19.5t-23 9t-29 5v16h245z" />
    <glyph glyph-name="wcircumflex" unicode="&#x175;" horiz-adv-x="830" 
d="M473 772l165 -169h-18l-154 71l-155 -71h-16l164 169h14zM508 0h-1l-95 349l-98 -349h-124l-126 454q-9 32 -21 46t-44 23v15h300v-15q-49 -9 -58.5 -25.5t3.5 -55.5l72 -282l101 378h104l105 -384l61 242q8 32 10 53t1 33.5t-10.5 20.5t-17.5 11.5t-26 8.5v15h186v-15
q-44 -10 -58.5 -25t-27.5 -68l-112 -430h-124z" />
    <glyph glyph-name="Ycircumflex" unicode="&#x176;" horiz-adv-x="760" 
d="M452 294v1v-148q0 -78 18.5 -100t91.5 -30v-16h-396v16q73 8 91.5 30t18.5 100v140l-185 332q-35 59 -47.5 72t-43.5 19v16h336v-16q-44 -6 -56.5 -19.5t3.5 -49.5l154 -293l124 211q49 87 41 116t-70 35v16h228v-16q-29 -6 -43 -15t-37 -38.5t-66 -100.5zM410 923h16
l155 -129h-23l-140 46l-140 -46h-23z" />
    <glyph glyph-name="ycircumflex" unicode="&#x177;" horiz-adv-x="595" 
d="M269 -50h-2l14 37l-216 469q-12 24 -18.5 34.5t-18.5 20.5t-30 13v15h306v-15q-50 -9 -59 -26t7 -53l107 -266l80 218q27 65 23.5 90t-55.5 36v15h186v-15q-43 -10 -59 -25.5t-36 -67.5l-188 -494q-17 -43 -27.5 -65.5t-28 -47t-39.5 -35t-51 -10.5q-37 0 -65 19t-28 52
q0 25 16 45t42 20q20 0 38 -18l51 -51q29 52 51 105zM355 772l165 -169h-18l-154 71l-155 -71h-16l164 169h14z" />
    <glyph glyph-name="Ydieresis" unicode="&#x178;" horiz-adv-x="760" 
d="M452 294v1v-148q0 -78 18.5 -100t91.5 -30v-16h-396v16q73 8 91.5 30t18.5 100v140l-185 332q-35 59 -47.5 72t-43.5 19v16h336v-16q-44 -6 -56.5 -19.5t3.5 -49.5l154 -293l124 211q49 87 41 116t-70 35v16h228v-16q-29 -6 -43 -15t-37 -38.5t-66 -100.5zM462 860
q0 27 19.5 47t47.5 20q27 0 46.5 -20t19.5 -47t-19.5 -46t-46.5 -19q-28 0 -47.5 19t-19.5 46zM240 860q0 27 19 47t45 20q29 0 48.5 -20t19.5 -47t-19.5 -46t-48.5 -19q-26 0 -45 19t-19 46z" />
    <glyph glyph-name="Zacute" unicode="&#x179;" horiz-adv-x="699" 
d="M243 36h79q63 0 108 9.5t74.5 25.5t51 46.5t34.5 63t27 84.5h22l-17 -267q-55 2 -246 2h-343v13l406 676h-57q-78 0 -128.5 -12.5t-82.5 -44.5t-48.5 -69t-34.5 -103h-22l17 267q55 -2 246 -2h320v-13zM583 922l-237 -129h-16l52 129h201z" />
    <glyph glyph-name="zacute" unicode="&#x17a;" horiz-adv-x="544" 
d="M327 772h190l-249 -169h-14zM500 0h1h-471v10l297 491h-70q-42 0 -66.5 -4.5t-45.5 -21t-32.5 -47.5t-19.5 -84h-21v194h437v-10l-296 -491h103q42 0 66 4.5t45 21t32.5 47.5t19.5 84h21v-194z" />
    <glyph glyph-name="Zdotaccent" unicode="&#x17b;" horiz-adv-x="699" 
d="M299 866q0 32 22 54.5t54 22.5q33 0 55.5 -22.5t22.5 -54.5t-22.5 -54.5t-55.5 -22.5q-32 0 -54 22.5t-22 54.5zM243 36h79q63 0 108 9.5t74.5 25.5t51 46.5t34.5 63t27 84.5h22l-17 -267q-55 2 -246 2h-343v13l406 676h-57q-78 0 -128.5 -12.5t-82.5 -44.5t-48.5 -69
t-34.5 -103h-22l17 267q55 -2 246 -2h320v-13z" />
    <glyph glyph-name="zdotaccent" unicode="&#x17c;" horiz-adv-x="544" 
d="M500 0h1h-471v10l297 491h-70q-42 0 -66.5 -4.5t-45.5 -21t-32.5 -47.5t-19.5 -84h-21v194h437v-10l-296 -491h103q42 0 66 4.5t45 21t32.5 47.5t19.5 84h21v-194zM217 694q0 33 22.5 55.5t54.5 22.5t54.5 -23t22.5 -55q0 -31 -22.5 -53.5t-54.5 -22.5t-54.5 22.5
t-22.5 53.5z" />
    <glyph glyph-name="Zcaron" unicode="&#x17d;" horiz-adv-x="699" 
d="M390 793l-155 129h23l140 -46l140 46h23l-155 -129h-16zM243 36h79q63 0 108 9.5t74.5 25.5t51 46.5t34.5 63t27 84.5h22l-17 -267q-55 2 -246 2h-343v13l406 676h-57q-78 0 -128.5 -12.5t-82.5 -44.5t-48.5 -69t-34.5 -103h-22l17 267q55 -2 246 -2h320v-13z" />
    <glyph glyph-name="zcaron" unicode="&#x17e;" horiz-adv-x="544" 
d="M314 580h-14l-164 169h16l155 -71l154 71h18zM500 0h1h-471v10l297 491h-70q-42 0 -66.5 -4.5t-45.5 -21t-32.5 -47.5t-19.5 -84h-21v194h437v-10l-296 -491h103q42 0 66 4.5t45 21t32.5 47.5t19.5 84h21v-194z" />
    <glyph glyph-name="uni018F" unicode="&#x18f;" horiz-adv-x="808" 
d="M763 363l1 -1q0 -118 -55 -205t-140 -128.5t-185 -41.5q-91 0 -162.5 29t-113.5 77.5t-60.5 109.5t-10.5 127h540q1 11 1 33q0 124 -65.5 205t-177.5 81q-49 0 -93.5 -10.5t-90 -44t-65.5 -87.5l-23 7q29 94 114.5 161t205.5 67q162 0 271 -98.5t109 -280.5zM395 26h1
q79 0 124 68t57 192h-344q-9 -111 32.5 -185.5t129.5 -74.5z" />
    <glyph glyph-name="Scommaaccent" unicode="&#x218;" horiz-adv-x="634" 
d="M297 -13q-136 0 -240 53v241h19q9 -33 14.5 -51.5t17 -49.5t22 -49t28.5 -40.5t37.5 -35t47 -21t59.5 -8.5q67 0 107 30.5t40 83.5q0 45 -29.5 76t-88.5 60l-93 46q-181 91 -181 222q0 89 75.5 148t188.5 59q57 0 119.5 -11.5t95.5 -29.5v-209h-21q-14 44 -27 73.5
t-36.5 65t-58 54t-79.5 18.5q-53 0 -87 -26t-34 -73q0 -66 82 -107l110 -55q104 -52 154 -105.5t50 -131.5q0 -95 -85.5 -161t-206.5 -66zM236 -122v1q0 28 20 47.5t49 19.5q30 0 48 -21t18 -54q0 -59 -42.5 -107t-103.5 -74l-5 10q83 59 83 114q-27 1 -47 19t-20 45z" />
    <glyph glyph-name="scommaaccent" unicode="&#x219;" horiz-adv-x="508" 
d="M260 549h-1q95 0 155 -23v-160h-18q-14 76 -60.5 110t-98.5 34q-34 0 -53 -15t-19 -39q0 -27 17 -46.5t56 -38.5l60 -29q83 -41 119 -84t36 -100q0 -81 -68.5 -126t-156.5 -45q-98 0 -169 31v180h18q46 -169 173 -169q34 0 58.5 15.5t24.5 45.5q0 28 -20 50.5t-73 47.5
l-54 26q-128 62 -128 181q0 72 58 113t144 41zM181 -122v1q0 28 20 47.5t49 19.5q30 0 48 -21t18 -54q0 -59 -42.5 -107t-103.5 -74l-5 10q83 59 83 114q-27 1 -47 19t-20 45z" />
    <glyph glyph-name="Tcommaaccent" unicode="&#x21a;" horiz-adv-x="810" 
d="M207 0l1 -1v16q73 8 91.5 30t18.5 100v542h-34q-56 0 -95 -17.5t-65.5 -56.5t-42 -78.5t-33.5 -106.5h-22l17 299q55 -2 298 -2h130q243 0 296 2l18 -299h-22q-15 54 -26.5 87.5t-31 70t-42.5 56.5t-57 33t-79 13h-34v-542q0 -78 18.5 -100t91.5 -30v-16h-396zM327 -123
v1q0 28 20 47.5t49 19.5q30 0 48 -21t18 -54q0 -59 -42.5 -107t-103.5 -74l-5 10q83 59 83 114q-27 1 -47 19t-20 45z" />
    <glyph glyph-name="tcommaaccent" unicode="&#x21b;" horiz-adv-x="425" 
d="M127 -122v1q0 28 20 47.5t49 19.5q30 0 48 -21t18 -54q0 -59 -42.5 -107t-103.5 -74l-5 10q83 59 83 114q-27 1 -47 19t-20 45zM239 -12q-68 0 -105.5 38t-37.5 133v330h-81v50h84v53l159 133v-186h132v-50h-132v-302q0 -70 13 -91.5t51 -21.5t73 29l11 -10
q-26 -33 -42.5 -51t-51 -36t-73.5 -18z" />
    <glyph glyph-name="uni0232" unicode="&#x232;" horiz-adv-x="760" 
d="M452 294v1v-148q0 -78 18.5 -100t91.5 -30v-16h-396v16q73 8 91.5 30t18.5 100v140l-185 332q-35 59 -47.5 72t-43.5 19v16h336v-16q-44 -6 -56.5 -19.5t3.5 -49.5l154 -293l124 211q49 87 41 116t-70 35v16h228v-16q-29 -6 -43 -15t-37 -38.5t-66 -100.5zM569 819h-296
v68h296v-68z" />
    <glyph glyph-name="uni0233" unicode="&#x233;" horiz-adv-x="595" 
d="M269 -50h-2l14 37l-216 469q-12 24 -18.5 34.5t-18.5 20.5t-30 13v15h306v-15q-50 -9 -59 -26t7 -53l107 -266l80 218q27 65 23.5 90t-55.5 36v15h186v-15q-43 -10 -59 -25.5t-36 -67.5l-188 -494q-17 -43 -27.5 -65.5t-28 -47t-39.5 -35t-51 -10.5q-37 0 -65 19t-28 52
q0 25 16 45t42 20q20 0 38 -18l51 -51q29 52 51 105zM492 665h-321v68h321v-68z" />
    <glyph glyph-name="dotlessj" unicode="&#x237;" horiz-adv-x="338" 
d="M96 88v-1v272q0 67 -9.5 82.5t-58.5 17.5v16l234 71q-4 -208 -4 -224v-218q0 -78 -16 -133.5t-53 -95t-78.5 -64.5t-110.5 -56l-10 14q61 65 83.5 142.5t22.5 176.5z" />
    <glyph glyph-name="uni0259" unicode="&#x259;" horiz-adv-x="554" 
d="M271 547q115 0 181.5 -74t66.5 -188q0 -125 -78 -211.5t-187 -86.5q-100 0 -161.5 57t-65.5 157h351q0 4 0.5 12t0.5 12q0 96 -54 151t-138 55q-40 0 -79.5 -14t-62.5 -38l-12 10q37 65 97 111.5t141 46.5zM270 29h-1q46 0 74 35t33 97h-199q2 -61 25.5 -96.5t67.5 -35.5
z" />
    <glyph glyph-name="circumflex" unicode="&#x2c6;" horiz-adv-x="387" 
d="M201 772l165 -169h-18l-154 71l-155 -71h-16l164 169h14z" />
    <glyph glyph-name="caron" unicode="&#x2c7;" horiz-adv-x="387" 
d="M200 603h-14l-164 169h16l155 -71l154 71h18z" />
    <glyph glyph-name="breve" unicode="&#x2d8;" horiz-adv-x="334" 
d="M167 663h1q88 0 94 99h51q0 -56 -37.5 -98.5t-107.5 -42.5t-107.5 42.5t-37.5 98.5h51q8 -99 93 -99z" />
    <glyph glyph-name="dotaccent" unicode="&#x2d9;" horiz-adv-x="198" 
d="M22 694q0 33 22.5 55.5t54.5 22.5t54.5 -23t22.5 -55q0 -31 -22.5 -53.5t-54.5 -22.5t-54.5 22.5t-22.5 53.5z" />
    <glyph glyph-name="ring" unicode="&#x2da;" horiz-adv-x="250" 
d="M22 723q0 41 30.5 70.5t72.5 29.5q43 0 73 -29.5t30 -70.5q0 -42 -29.5 -70.5t-73.5 -28.5q-42 0 -72.5 28.5t-30.5 70.5zM67 723q0 -26 16 -43t42 -17q27 0 43 16.5t16 43.5q0 26 -17 43t-42 17q-26 0 -42 -17t-16 -43z" />
    <glyph glyph-name="ogonek" unicode="&#x2db;" horiz-adv-x="255" 
d="M228 -177h-1l5 -9q-53 -35 -102 -35q-41 0 -69.5 24.5t-28.5 65.5q0 35 35.5 67t108.5 67h12q-64 -46 -64 -112q0 -33 16 -55t49 -22q16 0 39 9z" />
    <glyph glyph-name="tilde" unicode="&#x2dc;" horiz-adv-x="389" 
d="M47 630h-19q0 54 24 99.5t70 45.5q30 0 85 -29t76 -29q28 0 40.5 12t14.5 43h19q0 -74 -25 -107t-61 -33q-35 0 -89.5 29.5t-78.5 29.5q-52 0 -56 -61z" />
    <glyph glyph-name="hungarumlaut" unicode="&#x2dd;" horiz-adv-x="522" 
d="M310 772h190l-249 -169h-14zM95 772h190l-249 -169h-14z" />
    <glyph glyph-name="uni032C" unicode="&#x32c;" horiz-adv-x="369" 
d="M197 -129h-24l-151 129h26l137 -49l136 49h26z" />
    <glyph glyph-name="Delta" unicode="&#x394;" horiz-adv-x="755" 
d="M22 0l356 729l355 -729h-711zM608 75l-230 482l-232 -482h462z" />
    <glyph glyph-name="Delta" unicode="&#x2206;" horiz-adv-x="755" 
d="M22 0l356 729l355 -729h-711zM608 75l-230 482l-232 -482h462z" />
    <glyph glyph-name="Omega" unicode="&#x3a9;" horiz-adv-x="792" 
d="M396 738q93 0 172.5 -35t132 -109.5t52.5 -175.5q0 -103 -60.5 -181.5t-145.5 -103.5v-58h195v-75h-278v182q93 16 149 81t56 158q0 111 -77.5 179t-195.5 68q-117 0 -195 -68t-78 -179q0 -93 56 -158t149 -81v-182h-277v75h194v58q-85 25 -145.5 103.5t-60.5 181.5
q0 101 52.5 175.5t132 109.5t172.5 35z" />
    <glyph glyph-name="Omega" unicode="&#x2126;" horiz-adv-x="792" 
d="M396 738q93 0 172.5 -35t132 -109.5t52.5 -175.5q0 -103 -60.5 -181.5t-145.5 -103.5v-58h195v-75h-278v182q93 16 149 81t56 158q0 111 -77.5 179t-195.5 68q-117 0 -195 -68t-78 -179q0 -93 56 -158t149 -81v-182h-277v75h194v58q-85 25 -145.5 103.5t-60.5 181.5
q0 101 52.5 175.5t132 109.5t172.5 35z" />
    <glyph glyph-name="pi" unicode="&#x3c0;" horiz-adv-x="640" 
d="M182 0h-80v463h-75v75h580v-75h-77v-318q0 -49 10 -62t53 -13h17v-70h-38q-75 0 -98.5 25.5t-23.5 107.5v330h-268v-463z" />
    <glyph glyph-name="Wgrave" unicode="&#x1e80;" horiz-adv-x="1054" 
d="M368 922h201l52 -129h-16zM1054 725v-16q-26 -5 -39.5 -10.5t-30.5 -22t-30 -50t-27 -89.5l-130 -537h-148l-125 434l-106 -434h-148l-176 607q-16 55 -34 74.5t-60 27.5v16h331v-16q-41 -6 -51 -24t1 -56l123 -473l91 376l-55 193h194l149 -569l84 347q12 47 17 81.5
t2 56.5t-7 34.5t-18 19.5t-23 9t-29 5v16h245z" />
    <glyph glyph-name="wgrave" unicode="&#x1e81;" horiz-adv-x="830" 
d="M508 0h-1l-95 349l-98 -349h-124l-126 454q-9 32 -21 46t-44 23v15h300v-15q-49 -9 -58.5 -25.5t3.5 -55.5l72 -282l101 378h104l105 -384l61 242q8 32 10 53t1 33.5t-10.5 20.5t-17.5 11.5t-26 8.5v15h186v-15q-44 -10 -58.5 -25t-27.5 -68l-112 -430h-124zM246 772h190
l73 -169h-14z" />
    <glyph glyph-name="Wacute" unicode="&#x1e82;" horiz-adv-x="1054" 
d="M1054 725v-16q-26 -5 -39.5 -10.5t-30.5 -22t-30 -50t-27 -89.5l-130 -537h-148l-125 434l-106 -434h-148l-176 607q-16 55 -34 74.5t-60 27.5v16h331v-16q-41 -6 -51 -24t1 -56l123 -473l91 376l-55 193h194l149 -569l84 347q12 47 17 81.5t2 56.5t-7 34.5t-18 19.5
t-23 9t-29 5v16h245zM754 922l-237 -129h-16l52 129h201z" />
    <glyph glyph-name="wacute" unicode="&#x1e83;" horiz-adv-x="830" 
d="M521 772h190l-249 -169h-14zM508 0h-1l-95 349l-98 -349h-124l-126 454q-9 32 -21 46t-44 23v15h300v-15q-49 -9 -58.5 -25.5t3.5 -55.5l72 -282l101 378h104l105 -384l61 242q8 32 10 53t1 33.5t-10.5 20.5t-17.5 11.5t-26 8.5v15h186v-15q-44 -10 -58.5 -25t-27.5 -68
l-112 -430h-124z" />
    <glyph glyph-name="Wdieresis" unicode="&#x1e84;" horiz-adv-x="1054" 
d="M600 859q0 27 19.5 47t47.5 20q27 0 46.5 -20t19.5 -47t-19.5 -46t-46.5 -19q-28 0 -47.5 19t-19.5 46zM378 859q0 27 19 47t45 20q29 0 48.5 -20t19.5 -47t-19.5 -46t-48.5 -19q-26 0 -45 19t-19 46zM1054 725v-16q-26 -5 -39.5 -10.5t-30.5 -22t-30 -50t-27 -89.5
l-130 -537h-148l-125 434l-106 -434h-148l-176 607q-16 55 -34 74.5t-60 27.5v16h331v-16q-41 -6 -51 -24t1 -56l123 -473l91 376l-55 193h194l149 -569l84 347q12 47 17 81.5t2 56.5t-7 34.5t-18 19.5t-23 9t-29 5v16h245z" />
    <glyph glyph-name="wdieresis" unicode="&#x1e85;" horiz-adv-x="830" 
d="M273 694q0 32 22 55t54 23t55 -23t23 -55q0 -31 -22.5 -53.5t-55.5 -22.5q-32 0 -54 22.5t-22 53.5zM503 694q0 32 23 55t55 23t54.5 -22.5t22.5 -55.5q0 -31 -22.5 -53.5t-54.5 -22.5q-33 0 -55.5 22.5t-22.5 53.5zM508 0h-1l-95 349l-98 -349h-124l-126 454
q-9 32 -21 46t-44 23v15h300v-15q-49 -9 -58.5 -25.5t3.5 -55.5l72 -282l101 378h104l105 -384l61 242q8 32 10 53t1 33.5t-10.5 20.5t-17.5 11.5t-26 8.5v15h186v-15q-44 -10 -58.5 -25t-27.5 -68l-112 -430h-124z" />
    <glyph glyph-name="uni1ECA" unicode="&#x1eca;" horiz-adv-x="437" 
d="M306 579v-1v-433q0 -78 17 -100t83 -30v-16h-375v16q66 8 82.5 30t16.5 100v433q0 78 -16.5 99t-82.5 31v16h375v-16q-67 -10 -83.5 -30.5t-16.5 -98.5zM141 -151q0 33 22.5 55.5t54.5 22.5t54.5 -23t22.5 -55q0 -31 -22.5 -53.5t-54.5 -22.5t-54.5 22.5t-22.5 53.5z" />
    <glyph glyph-name="uni1ECB" unicode="&#x1ecb;" horiz-adv-x="350" 
d="M92 -150q0 33 22.5 55.5t54.5 22.5t54.5 -23t22.5 -55q0 -31 -22.5 -53.5t-54.5 -22.5t-54.5 22.5t-22.5 53.5zM257 323v-187q0 -78 9.5 -96t58.5 -24v-16h-298v16q49 6 58.5 24t9.5 96v224q0 67 -9.5 82.5t-58.5 17.5v16l234 71q-4 -208 -4 -224zM179 636
q-41 0 -69.5 28.5t-28.5 69.5q0 39 29 67t69 28t68.5 -28t28.5 -67q0 -40 -28.5 -69t-68.5 -29z" />
    <glyph glyph-name="uni1ECC" unicode="&#x1ecc;" horiz-adv-x="892" 
d="M847 366q0 -90 -33.5 -163t-90 -119.5t-128 -71.5t-149.5 -25t-149.5 25t-128 71.5t-90 119.5t-33.5 163t33.5 163t90 119.5t128 71.5t149.5 25t149.5 -25t128 -71.5t90 -119.5t33.5 -163zM240 366q0 -157 53 -248.5t153 -91.5t153 91.5t53 248.5t-53 248.5t-153 91.5
t-153 -91.5t-53 -248.5zM369 -150q0 33 22.5 55.5t54.5 22.5t54.5 -23t22.5 -55q0 -31 -22.5 -53.5t-54.5 -22.5t-54.5 22.5t-22.5 53.5z" />
    <glyph glyph-name="uni1ECD" unicode="&#x1ecd;" horiz-adv-x="625" 
d="M312 547q120 0 200 -78.5t80 -201.5q0 -116 -78.5 -198t-201.5 -82t-200.5 79.5t-77.5 207.5q0 109 78.5 191t199.5 82zM303 512q-98 0 -98 -209q0 -46 5 -89t17 -89.5t37 -74.5t61 -28q96 0 96 215q0 44 -4.5 86t-16.5 87.5t-37 73.5t-60 28zM249 -150q0 33 22.5 55.5
t54.5 22.5t54.5 -23t22.5 -55q0 -31 -22.5 -53.5t-54.5 -22.5t-54.5 22.5t-22.5 53.5z" />
    <glyph glyph-name="uni1EE4" unicode="&#x1ee4;" horiz-adv-x="813" 
d="M110 278v-1v301q0 78 -16.5 99t-82.5 31v16h375v-16q-67 -10 -83.5 -30.5t-16.5 -98.5v-281q0 -125 42 -189.5t143 -64.5q98 0 142 64.5t44 186.5v284q0 78 -16.5 99t-82.5 31v16h251v-16q-66 -10 -82.5 -31t-16.5 -99v-281q0 -311 -279 -311q-321 0 -321 291zM359 -151
q0 33 22.5 55.5t54.5 22.5t54.5 -23t22.5 -55q0 -31 -22.5 -53.5t-54.5 -22.5t-54.5 22.5t-22.5 53.5z" />
    <glyph glyph-name="uni1EE5" unicode="&#x1ee5;" horiz-adv-x="635" 
d="M537 321v3v-141q0 -67 9.5 -82.5t58.5 -17.5v-16l-211 -73l-17 103q-51 -107 -151 -107q-70 0 -114 45.5t-44 142.5v193q0 27 -0.5 39.5t-4 29.5t-10.5 24t-20 13.5t-33 7.5v14l234 41q-4 -204 -4 -213v-122q0 -119 74 -119q44 0 71 33v250q0 27 -0.5 39.5t-4 29.5
t-10.5 24t-20 13.5t-33 7.5v14l234 41q-4 -204 -4 -217zM233 -147q0 33 22.5 55.5t54.5 22.5t54.5 -23t22.5 -55q0 -31 -22.5 -53.5t-54.5 -22.5t-54.5 22.5t-22.5 53.5z" />
    <glyph glyph-name="Ygrave" unicode="&#x1ef2;" horiz-adv-x="760" 
d="M452 294v1v-148q0 -78 18.5 -100t91.5 -30v-16h-396v16q73 8 91.5 30t18.5 100v140l-185 332q-35 59 -47.5 72t-43.5 19v16h336v-16q-44 -6 -56.5 -19.5t3.5 -49.5l154 -293l124 211q49 87 41 116t-70 35v16h228v-16q-29 -6 -43 -15t-37 -38.5t-66 -100.5zM215 923h201
l52 -129h-16z" />
    <glyph glyph-name="ygrave" unicode="&#x1ef3;" horiz-adv-x="595" 
d="M269 -50h-2l14 37l-216 469q-12 24 -18.5 34.5t-18.5 20.5t-30 13v15h306v-15q-50 -9 -59 -26t7 -53l107 -266l80 218q27 65 23.5 90t-55.5 36v15h186v-15q-43 -10 -59 -25.5t-36 -67.5l-188 -494q-17 -43 -27.5 -65.5t-28 -47t-39.5 -35t-51 -10.5q-37 0 -65 19t-28 52
q0 25 16 45t42 20q20 0 38 -18l51 -51q29 52 51 105zM115 772h190l73 -169h-14z" />
    <glyph glyph-name="endash" unicode="&#x2013;" horiz-adv-x="516" 
d="M472 239h-428v77h428v-77z" />
    <glyph glyph-name="emdash" unicode="&#x2014;" horiz-adv-x="742" 
d="M698 239h-654v77h654v-77z" />
    <glyph glyph-name="quoteleft" unicode="&#x2018;" horiz-adv-x="273" 
d="M214 519h-1q0 -36 -24 -61t-62 -25t-61 27t-23 70q0 67 50.5 133t114.5 106l10 -15q-32 -25 -60 -66t-31 -86q39 2 63 -22t24 -61z" />
    <glyph glyph-name="quoteright" unicode="&#x2019;" horiz-adv-x="273" 
d="M37 684v1q0 35 24 60t63 25q38 0 61 -26.5t23 -69.5q0 -67 -50.5 -133.5t-114.5 -106.5l-10 15q32 25 60.5 66t31.5 87q-40 -2 -64 21t-24 61z" />
    <glyph glyph-name="quotesinglbase" unicode="&#x201a;" horiz-adv-x="340" 
d="M78 81v-1q0 39 26 66t67 27t66.5 -29t25.5 -75q0 -81 -64.5 -158.5t-145.5 -117.5l-8 13q45 33 83 81t38 103q-38 1 -63 26.5t-25 64.5z" />
    <glyph glyph-name="quotedblleft" unicode="&#x201c;" horiz-adv-x="516" 
d="M436 519h-1q0 -36 -24 -61t-62 -25t-61 27t-23 70q0 67 50.5 133t114.5 106l10 -15q-32 -25 -60 -66t-31 -86q39 2 63 -22t24 -61zM213 519h-1q0 -36 -24 -61t-62 -25t-61 27t-23 70q0 67 50.5 133t114.5 106l10 -15q-32 -25 -60 -66t-31 -86q39 2 63 -22t24 -61z" />
    <glyph glyph-name="quotedblright" unicode="&#x201d;" horiz-adv-x="494" 
d="M259 684v1q0 35 24 60t63 25q38 0 61 -26.5t23 -69.5q0 -67 -50.5 -133.5t-114.5 -106.5l-10 15q32 25 60.5 66t31.5 87q-40 -2 -64 21t-24 61zM37 685v1q0 35 24 60t63 25q38 0 61 -26.5t23 -69.5q0 -67 -50.5 -133.5t-114.5 -106.5l-10 15q32 25 60.5 66t31.5 87
q-40 -2 -64 21t-24 61z" />
    <glyph glyph-name="quotedblbase" unicode="&#x201e;" horiz-adv-x="592" 
d="M330 81v-1q0 39 26 66t67 27t66.5 -29t25.5 -75q0 -81 -64.5 -158.5t-145.5 -117.5l-8 13q45 33 83 81t38 103q-38 1 -63 26.5t-25 64.5zM78 80v-1q0 39 26 66t67 27t66.5 -29t25.5 -75q0 -81 -64.5 -158.5t-145.5 -117.5l-8 13q45 33 83 81t38 103q-38 1 -63 26.5
t-25 64.5z" />
    <glyph glyph-name="dagger" unicode="&#x2020;" horiz-adv-x="551" 
d="M315 0h-80v421h-207v77h207v227h80v-227h208v-77h-208v-421z" />
    <glyph glyph-name="daggerdbl" unicode="&#x2021;" horiz-adv-x="595" 
d="M332 270h208v-67h-208v-203h-70v203h-207v67h207v173h-207v67h207v215h70v-215h208v-67h-208v-173z" />
    <glyph glyph-name="bullet" unicode="&#x2022;" horiz-adv-x="454" 
d="M44 283q0 75 52.5 127.5t126.5 52.5q79 0 133 -52.5t54 -127.5q0 -78 -54 -132t-133 -54q-74 0 -126.5 54t-52.5 132z" />
    <glyph glyph-name="ellipsis" unicode="&#x2026;" horiz-adv-x="1023" 
d="M759 80q0 39 26.5 66.5t65.5 27.5q41 0 68 -27t27 -67t-27 -66.5t-68 -26.5q-39 0 -65.5 27t-26.5 66zM418 80q0 39 26.5 66.5t65.5 27.5q41 0 68 -27t27 -67t-26.5 -66.5t-68.5 -26.5q-39 0 -65.5 27t-26.5 66zM77 80q0 39 26.5 66.5t65.5 27.5q41 0 68 -27t27 -67
t-27 -66.5t-68 -26.5q-39 0 -65.5 27t-26.5 66z" />
    <glyph glyph-name="perthousand" unicode="&#x2030;" horiz-adv-x="1442" 
d="M133 524q0 -90 12.5 -142.5t47.5 -52.5q36 0 48 52t12 143q0 90 -12 141t-48 51q-35 0 -47.5 -51.5t-12.5 -140.5zM13 524q0 90 55.5 150.5t124.5 60.5t124.5 -60.5t55.5 -150.5q0 -91 -55.5 -152.5t-124.5 -61.5t-124.5 61.5t-55.5 152.5zM311 0h-75l508 725h75z
M802 207q0 -90 12.5 -142.5t47.5 -52.5q36 0 48 52t12 143q0 90 -12 141t-48 51q-35 0 -47.5 -51.5t-12.5 -140.5zM682 207q0 90 55.5 150.5t124.5 60.5t124.5 -60.5t55.5 -150.5q0 -91 -55.5 -152.5t-124.5 -61.5t-124.5 61.5t-55.5 152.5zM1188 207q0 -90 12.5 -142.5
t47.5 -52.5q36 0 48 52t12 143q0 90 -12 141t-48 51q-35 0 -47.5 -51.5t-12.5 -140.5zM1068 207q0 90 55.5 150.5t124.5 60.5t124.5 -60.5t55.5 -150.5q0 -91 -55.5 -152.5t-124.5 -61.5t-124.5 61.5t-55.5 152.5z" />
    <glyph glyph-name="guilsinglleft" unicode="&#x2039;" horiz-adv-x="361" 
d="M258 38l-225 235l225 234h49l-111 -234l111 -235h-49z" />
    <glyph glyph-name="guilsinglright" unicode="&#x203a;" horiz-adv-x="361" 
d="M329 273l-225 -235h-49l111 235l-111 234h49z" />
    <glyph glyph-name="fraction" unicode="&#x2044;" horiz-adv-x="283" 
d="M-75 0h-75l508 725h75z" />
    <glyph glyph-name="zero.superior" unicode="&#x2070;" horiz-adv-x="428" 
d="M154 645q0 -90 12.5 -142.5t47.5 -52.5q36 0 48 52t12 143q0 90 -12 141t-48 51q-35 0 -47.5 -51.5t-12.5 -140.5zM34 645q0 90 55.5 150.5t124.5 60.5t124.5 -60.5t55.5 -150.5q0 -91 -55.5 -152.5t-124.5 -61.5t-124.5 61.5t-55.5 152.5z" />
    <glyph glyph-name="four.superior" unicode="&#x2074;" horiz-adv-x="400" 
d="M305 438h-111v81h-164v101l172 226h103v-237h55v-90h-55v-81zM194 609v179l-136 -179h136z" />
    <glyph glyph-name="five.superior" unicode="&#x2075;" horiz-adv-x="352" 
d="M37 629l1 1l77 217h187l-26 -96h-171l-12 -32q91 10 153.5 -28.5t62.5 -115.5q0 -65 -48.5 -103.5t-122.5 -38.5q-52 0 -103 15v106h9q36 -96 98 -96t62 66q0 61 -49.5 91.5t-117.5 13.5z" />
    <glyph glyph-name="six.superior" unicode="&#x2076;" horiz-adv-x="397" 
d="M194 431q-69 0 -114 40t-45 117q0 55 29 103.5t76 82.5t96 57.5t101 37.5l6 -17q-158 -79 -187 -195q28 57 95 57q45 0 78.5 -36.5t33.5 -90.5q0 -69 -48.5 -112.5t-120.5 -43.5zM191 658l1 1q-26 0 -40 -16q-2 -7 -2 -34q0 -159 47 -159q52 0 52 112q0 52 -18.5 74
t-39.5 22z" />
    <glyph glyph-name="seven.superior" unicode="&#x2077;" horiz-adv-x="341" 
d="M25 750v96h307v-97q-69 -59 -103.5 -133.5t-42.5 -177.5h-125q6 107 72 181.5t177 130.5h-285z" />
    <glyph glyph-name="eight.superior" unicode="&#x2078;" horiz-adv-x="366" 
d="M180 431q-65 0 -108 27.5t-43 77.5q0 61 79 90q-61 50 -61 113q0 52 40 84t97 32q54 0 91 -21.5t37 -61.5q0 -26 -21 -48.5t-52 -35.5q50 -26 74 -55t24 -77q0 -56 -47.5 -90.5t-109.5 -34.5zM111 624v-2l4 -8q-6 -4 -10 -8.5t-7 -11t-4.5 -11t-2 -12.5t-0.5 -11.5v-12.5
v-11q0 -83 89 -83q77 0 77 56q0 20 -13.5 36.5t-28 25t-37.5 18.5l-29 13q-31 17 -38 22zM254 767v1q0 36 -17.5 49.5t-51.5 13.5q-59 0 -59 -49q0 -23 11.5 -40t51.5 -35l28 -11l11 -5v1q26 21 26 75z" />
    <glyph glyph-name="nine.superior" unicode="&#x2079;" horiz-adv-x="397" 
d="M203 855v1q69 0 114.5 -40t45.5 -117q0 -55 -29 -104t-76 -83t-96 -57.5t-101 -37.5l-7 16q63 29 117.5 79.5t70.5 115.5q-31 -57 -95 -57q-45 0 -78.5 36t-33.5 90q0 69 48.5 113.5t119.5 44.5zM245 646l-1 -4q3 16 3 36q0 158 -48 158q-52 0 -52 -112q0 -54 18 -75
t41 -21q25 0 39 18z" />
    <glyph glyph-name="plus.superior" unicode="&#x207a;" horiz-adv-x="382" 
d="M214 438h-46v133h-133v43h133v126h46v-126h132v-43h-132v-133z" />
    <glyph glyph-name="minus.superior" unicode="&#x207b;" horiz-adv-x="382" 
d="M41 614h300v-43h-300v43z" />
    <glyph glyph-name="equal.superior" unicode="&#x207c;" horiz-adv-x="382" 
d="M331 632h-279v42h279v-42zM331 516h-279v42h279v-42z" />
    <glyph glyph-name="parenleft.superior" unicode="&#x207d;" horiz-adv-x="211" 
d="M135 593v-1q0 -84 14 -164t40 -122l-8 -10q-150 118 -150 297q0 184 150 297l8 -10q-26 -42 -40 -122.5t-14 -164.5z" />
    <glyph glyph-name="parenright.superior" unicode="&#x207e;" horiz-adv-x="211" 
d="M78 593h-1q0 84 -14.5 164.5t-40.5 122.5l7 10q151 -117 151 -297q0 -100 -40 -169.5t-111 -126.5l-7 10q27 42 41.5 122.5t14.5 163.5z" />
    <glyph glyph-name="n.superior" unicode="&#x207f;" horiz-adv-x="370" 
d="M16 695h1v9l137 41l5 -64q11 19 19.5 30.5t28 23t44.5 11.5q35 0 57 -26.5t22 -80.5v-129q0 -42 4.5 -51t27.5 -13v-8h-167v8q17 4 20.5 13t3.5 51v110q0 56 -32 56q-7 0 -12 -1.5t-9.5 -4.5t-6.5 -4v-156q0 -42 3.5 -51t21.5 -13v-8h-168v8q23 4 27.5 13t4.5 51v134v10
q0 28 -4 33.5t-28 7.5z" />
    <glyph glyph-name="zero.inferior" unicode="&#x2080;" horiz-adv-x="428" 
d="M175 79q0 -90 12.5 -142.5t47.5 -52.5q36 0 48 52t12 143q0 90 -12 141t-48 51q-35 0 -47.5 -51.5t-12.5 -140.5zM55 79q0 90 55.5 150.5t124.5 60.5t124.5 -60.5t55.5 -150.5q0 -91 -55.5 -152.5t-124.5 -61.5t-124.5 61.5t-55.5 152.5z" />
    <glyph glyph-name="one.inferior" unicode="&#x2081;" horiz-adv-x="289" 
d="M207 290v-1v-347q0 -38 6 -48.5t20 -13.5v-9h-185v8q29 2 38 16.5t9 58.5v270h-71v10q125 21 171 56h12z" />
    <glyph glyph-name="two.inferior" unicode="&#x2082;" horiz-adv-x="360" 
d="M306 182h-1q0 -40 -37 -84t-70 -63q-43 -31 -87 -67h190v-96h-300v6q18 21 59.5 63t66 69.5t46 72t21.5 89.5q0 29 -19 47t-49 18q-63 0 -82 -63h-19q23 117 152 117q56 0 92.5 -29.5t36.5 -79.5z" />
    <glyph glyph-name="three.inferior" unicode="&#x2083;" horiz-adv-x="369" 
d="M141 -133h1q-53 0 -104 15v106h10q36 -96 97 -96q33 0 55 22t22 54q0 33 -25 64.5t-79 40.5v12l11 6q37 16 52.5 43t15.5 52q0 24 -17 37t-41 14q-65 0 -82 -63h-19q10 55 51 85.5t102 30.5q42 0 78 -20.5t36 -56.5q0 -34 -30 -54.5t-58 -26.5v-2q47 -13 80 -48t33 -79
q0 -64 -55.5 -100t-133.5 -36z" />
    <glyph glyph-name="four.inferior" unicode="&#x2084;" horiz-adv-x="400" 
d="M305 -128h-111v81h-164v101l172 226h103v-237h55v-90h-55v-81zM194 43v179l-136 -179h136z" />
    <glyph glyph-name="five.inferior" unicode="&#x2085;" horiz-adv-x="352" 
d="M37 63l1 1l77 217h187l-26 -96h-171l-12 -32q91 10 153.5 -28.5t62.5 -115.5q0 -65 -48.5 -103.5t-122.5 -38.5q-52 0 -103 15v106h9q36 -96 98 -96t62 66q0 61 -49.5 91.5t-117.5 13.5z" />
    <glyph glyph-name="six.inferior" unicode="&#x2086;" horiz-adv-x="397" 
d="M194 -135q-69 0 -114 40t-45 117q0 55 29 103.5t76 82.5t96 57.5t101 37.5l6 -17q-158 -79 -187 -195q28 57 95 57q45 0 78.5 -36.5t33.5 -90.5q0 -69 -48.5 -112.5t-120.5 -43.5zM191 92l1 1q-26 0 -40 -16q-2 -7 -2 -34q0 -159 47 -159q52 0 52 112q0 52 -18.5 74
t-39.5 22z" />
    <glyph glyph-name="seven.inferior" unicode="&#x2087;" horiz-adv-x="339" 
d="M25 184v96h307v-97q-69 -59 -103.5 -133.5t-42.5 -177.5h-125q6 107 72 181.5t177 130.5h-285z" />
    <glyph glyph-name="eight.inferior" unicode="&#x2088;" horiz-adv-x="366" 
d="M180 -135q-65 0 -108 27.5t-43 77.5q0 61 79 90q-61 50 -61 113q0 52 40 84t97 32q54 0 91 -21.5t37 -61.5q0 -26 -21 -48.5t-52 -35.5q50 -26 74 -55t24 -77q0 -56 -47.5 -90.5t-109.5 -34.5zM111 58v-2l4 -8q-6 -4 -10 -8.5t-7 -11t-4.5 -11t-2 -12.5t-0.5 -11.5v-12.5
v-11q0 -83 89 -83q77 0 77 56q0 20 -13.5 36.5t-28 25t-37.5 18.5l-29 13q-31 17 -38 22zM254 201v1q0 36 -17.5 49.5t-51.5 13.5q-59 0 -59 -49q0 -23 11.5 -40t51.5 -35l28 -11l11 -5v1q26 21 26 75z" />
    <glyph glyph-name="nine.inferior" unicode="&#x2089;" horiz-adv-x="397" 
d="M203 289v1q69 0 114.5 -40t45.5 -117q0 -55 -29 -104t-76 -83t-96 -57.5t-101 -37.5l-7 16q63 29 117.5 79.5t70.5 115.5q-31 -57 -95 -57q-45 0 -78.5 36t-33.5 90q0 69 48.5 113.5t119.5 44.5zM245 80l-1 -4q3 16 3 36q0 158 -48 158q-52 0 -52 -112q0 -54 18 -75
t41 -21q25 0 39 18z" />
    <glyph glyph-name="parenleft.inferior" unicode="&#x208d;" horiz-adv-x="211" 
d="M135 27v-1q0 -84 14 -164t40 -122l-8 -10q-150 118 -150 297q0 185 150 297l8 -10q-26 -42 -40 -122.5t-14 -164.5z" />
    <glyph glyph-name="parenright.inferior" unicode="&#x208e;" horiz-adv-x="211" 
d="M78 27h-1q0 84 -14.5 164.5t-40.5 122.5l7 10q151 -117 151 -297q0 -100 -40 -169.5t-111 -126.5l-7 10q27 42 41.5 122.5t14.5 163.5z" />
    <glyph glyph-name="Euro" unicode="&#x20ac;" horiz-adv-x="853" 
d="M426 266l-1 -1h-110q10 -111 50 -177.5t109 -66.5q81 0 117.5 54t47.5 157l158 -2q-27 -118 -115 -181t-208 -63q-135 0 -222 73.5t-111 205.5h-142l40 64h95q-1 11 -1 35q0 41 2 52h-136l40 63h106q27 125 112.5 193.5t216.5 68.5q121 0 208 -62.5t115 -181.5l-158 -1
q-11 105 -45.5 158t-118.5 53q-130 0 -158 -228h231l-40 -63h-196q-1 -17 -1 -51v-35h155z" />
    <glyph glyph-name="afii61289" unicode="&#x2113;" horiz-adv-x="406" 
d="M115 141h1v77l-82 -62l-33 48l115 88v260q0 96 31 141t103 45q60 0 92 -42.5t32 -113.5q0 -167 -182 -306l-13 -10v-125q0 -54 14 -76t53 -22q52 0 93 41l34 -43q-59 -54 -133 -54q-70 0 -97.5 37t-27.5 117zM179 551v1v-211l20 16q110 83 110 222q0 103 -66 103
q-35 0 -49.5 -29.5t-14.5 -101.5z" />
    <glyph glyph-name="afii61352" unicode="&#x2116;" horiz-adv-x="1167" 
d="M648 177v402q0 78 -16.5 99t-82.5 31v16h246v-16q-66 -10 -82.5 -31t-16.5 -99v-579h-149l-369 556v-410q0 -78 17 -100t83 -30v-16h-247v16q66 8 82.5 30t16.5 100v483l-2 3q-26 40 -42 57t-35 23v13h235zM977 744q68 0 113 -45t45 -109q0 -61 -45 -107.5t-117 -46.5
t-114.5 45.5t-42.5 114.5q0 56 45 102t116 46zM971 725q-32 0 -32 -115q0 -155 42 -155q30 0 30 120q0 150 -40 150zM1127 335h-302v66h302v-66z" />
    <glyph glyph-name="uni2117" unicode="&#x2117;" horiz-adv-x="838" 
d="M44 361q0 164 109 270t267 106q157 0 265.5 -106t108.5 -270t-108.5 -269t-265.5 -105q-159 0 -267.5 105t-108.5 269zM113 361q0 -138 87.5 -225.5t219.5 -87.5t218.5 87t86.5 226t-86.5 226.5t-218.5 87.5t-219.5 -87.5t-87.5 -226.5zM434 329h-72v-153h-73v397h122
q96 0 141 -25t45 -97q0 -53 -41 -87.5t-122 -34.5zM524 450q0 34 -25 47.5t-71 13.5h-66v-122h71q91 0 91 61z" />
    <glyph glyph-name="trademark" unicode="&#x2122;" horiz-adv-x="860" 
d="M141 320v342h-129v63h331v-63h-130v-342h-72zM645 320h-77l-115 321v-321h-72v405h118l110 -317l106 317h117v-405h-72v321z" />
    <glyph glyph-name="estimated" unicode="&#x212e;" horiz-adv-x="589" 
d="M505 150h-1h41q-26 -73 -88 -118t-157 -45q-130 0 -202 79.5t-72 201.5q0 124 74 201.5t195 77.5q123 0 193 -80t72 -198h-416v-193q24 -24 69.5 -39.5t95.5 -15.5q71 0 121 34t75 95zM143 461v-160h298v159q-57 53 -147 53q-102 0 -151 -52z" />
    <glyph glyph-name="onethird" unicode="&#x2153;" horiz-adv-x="941" 
d="M207 735v-1v-347q0 -38 6 -48.5t20 -13.5v-9h-185v8q29 2 38 16.5t9 58.5v270h-71v10q125 21 171 56h12zM214 -1h-75l508 725h75zM713 -6h1q-53 0 -104 15v106h10q36 -96 97 -96q33 0 55 21.5t22 54.5t-25 64.5t-79 40.5v12l11 6q37 16 52.5 43t15.5 52t-17 37.5
t-41 13.5q-65 0 -82 -63h-19q10 55 51 85.5t102 30.5q42 0 78 -20.5t36 -56.5q0 -34 -30 -54.5t-58 -26.5v-2q47 -13 80 -48t33 -79q0 -64 -55.5 -100t-133.5 -36z" />
    <glyph glyph-name="twothirds" unicode="&#x2154;" horiz-adv-x="1012" 
d="M306 627h-1q0 -40 -37 -84t-70 -63q-43 -31 -87 -67h190v-96h-300v6q18 21 59.5 63t66 69.5t46 72t21.5 89.5q0 29 -19 47t-49 18q-63 0 -82 -63h-19q23 117 152 117q56 0 92.5 -29.5t36.5 -79.5zM284 0h-75l508 725h75zM783 -5h1q-53 0 -104 15v106h10q36 -96 97 -96
q33 0 55 22t22 54q0 33 -25 64.5t-79 40.5v12l11 6q37 16 52.5 43t15.5 52q0 24 -17 37t-41 14q-65 0 -82 -63h-19q10 55 51 85.5t102 30.5q42 0 78 -20.5t36 -56.5q0 -34 -30 -54.5t-58 -26.5v-2q47 -13 80 -48t33 -79q0 -64 -55.5 -100t-133.5 -36z" />
    <glyph glyph-name="uni2155" unicode="&#x2155;" horiz-adv-x="924" 
d="M207 735v-1v-347q0 -38 6 -48.5t20 -13.5v-9h-185v8q29 2 38 16.5t9 58.5v270h-71v10q125 21 171 56h12zM214 -1h-75l508 725h75zM609 190l1 1l77 217h187l-26 -96h-171l-12 -32q91 10 153.5 -28.5t62.5 -115.5q0 -65 -48.5 -103.5t-122.5 -38.5q-52 0 -103 15v106h9
q36 -96 98 -96t62 66q0 61 -49.5 91.5t-117.5 13.5z" />
    <glyph glyph-name="uni2156" unicode="&#x2156;" horiz-adv-x="995" 
d="M306 627h-1q0 -40 -37 -84t-70 -63q-43 -31 -87 -67h190v-96h-300v6q18 21 59.5 63t66 69.5t46 72t21.5 89.5q0 29 -19 47t-49 18q-63 0 -82 -63h-19q23 117 152 117q56 0 92.5 -29.5t36.5 -79.5zM284 0h-75l508 725h75zM679 191l1 1l77 217h187l-26 -96h-171l-12 -32
q91 10 153.5 -28.5t62.5 -115.5q0 -65 -48.5 -103.5t-122.5 -38.5q-52 0 -103 15v106h9q36 -96 98 -96t62 66q0 61 -49.5 91.5t-117.5 13.5z" />
    <glyph glyph-name="uni2157" unicode="&#x2157;" horiz-adv-x="1004" 
d="M141 312h1q-53 0 -104 15v106h10q36 -96 97 -96q33 0 55 21.5t22 54.5t-25 64.5t-79 40.5v12l11 6q37 16 52.5 43t15.5 52t-17 37.5t-41 13.5q-65 0 -82 -63h-19q10 55 51 85.5t102 30.5q42 0 78 -20.5t36 -56.5q0 -34 -30 -54.5t-58 -26.5v-2q47 -13 80 -48t33 -79
q0 -64 -55.5 -100t-133.5 -36zM295 0h-75l508 725h75zM690 191l1 1l77 217h187l-26 -96h-171l-12 -32q91 10 153.5 -28.5t62.5 -115.5q0 -65 -48.5 -103.5t-122.5 -38.5q-52 0 -103 15v106h9q36 -96 98 -96t62 66q0 61 -49.5 91.5t-117.5 13.5z" />
    <glyph glyph-name="uni2158" unicode="&#x2158;" horiz-adv-x="1035" 
d="M305 317h-111v81h-164v101l172 226h103v-237h55v-90h-55v-81zM194 488v179l-136 -179h136zM325 0h-75l508 725h75zM720 191l1 1l77 217h187l-26 -96h-171l-12 -32q91 10 153.5 -28.5t62.5 -115.5q0 -65 -48.5 -103.5t-122.5 -38.5q-52 0 -103 15v106h9q36 -96 98 -96
t62 66q0 61 -49.5 91.5t-117.5 13.5z" />
    <glyph glyph-name="uni2159" unicode="&#x2159;" horiz-adv-x="969" 
d="M207 735v-1v-347q0 -38 6 -48.5t20 -13.5v-9h-185v8q29 2 38 16.5t9 58.5v270h-71v10q125 21 171 56h12zM214 -1h-75l508 725h75zM766 -8q-69 0 -114 40t-45 117q0 55 29 103.5t76 82.5t96 57.5t101 37.5l6 -17q-158 -79 -187 -195q28 57 95 57q45 0 78.5 -36.5
t33.5 -90.5q0 -69 -48.5 -112.5t-120.5 -43.5zM763 219l1 1q-26 0 -40 -16q-2 -7 -2 -34q0 -159 47 -159q52 0 52 112q0 52 -18.5 74t-39.5 22z" />
    <glyph glyph-name="uni215A" unicode="&#x215a;" horiz-adv-x="1033" 
d="M37 508l1 1l77 217h187l-26 -96h-171l-12 -32q91 10 153.5 -28.5t62.5 -115.5q0 -65 -48.5 -103.5t-122.5 -38.5q-52 0 -103 15v106h9q36 -96 98 -96t62 66q0 61 -49.5 91.5t-117.5 13.5zM278 1h-75l508 725h75zM830 -6q-69 0 -114 40t-45 117q0 55 29 103.5t76 82.5
t96 57.5t101 37.5l6 -17q-158 -79 -187 -195q28 57 95 57q45 0 78.5 -36.5t33.5 -90.5q0 -69 -48.5 -112.5t-120.5 -43.5zM827 221l1 1q-26 0 -40 -16q-2 -7 -2 -34q0 -159 47 -159q52 0 52 112q0 52 -18.5 74t-39.5 22z" />
    <glyph glyph-name="oneeighth" unicode="&#x215b;" horiz-adv-x="938" 
d="M207 735v-1v-347q0 -38 6 -48.5t20 -13.5v-9h-185v8q29 2 38 16.5t9 58.5v270h-71v10q125 21 171 56h12zM214 -1h-75l508 725h75zM752 -8q-65 0 -108 27.5t-43 77.5q0 61 79 90q-61 50 -61 113q0 52 40 84t97 32q54 0 91 -21.5t37 -61.5q0 -26 -21 -48.5t-52 -35.5
q50 -26 74 -55t24 -77q0 -56 -47.5 -90.5t-109.5 -34.5zM683 185v-2l4 -8q-6 -4 -10 -8.5t-7 -11t-4.5 -11t-2 -12.5t-0.5 -11.5v-12.5v-11q0 -83 89 -83q77 0 77 56q0 20 -13.5 36.5t-28 25t-37.5 18.5l-29 13q-31 17 -38 22zM826 328v1q0 36 -17.5 49.5t-51.5 13.5
q-59 0 -59 -49q0 -23 11.5 -40t51.5 -35l28 -11l11 -5v1q26 21 26 75z" />
    <glyph glyph-name="threeeighths" unicode="&#x215c;" horiz-adv-x="1018" 
d="M141 312h1q-53 0 -104 15v106h10q36 -96 97 -96q33 0 55 21.5t22 54.5t-25 64.5t-79 40.5v12l11 6q37 16 52.5 43t15.5 52t-17 37.5t-41 13.5q-65 0 -82 -63h-19q10 55 51 85.5t102 30.5q42 0 78 -20.5t36 -56.5q0 -34 -30 -54.5t-58 -26.5v-2q47 -13 80 -48t33 -79
q0 -64 -55.5 -100t-133.5 -36zM295 0h-75l508 725h75zM833 -7q-65 0 -108 27.5t-43 77.5q0 61 79 90q-61 50 -61 113q0 52 40 84t97 32q54 0 91 -21.5t37 -61.5q0 -26 -21 -48.5t-52 -35.5q50 -26 74 -55t24 -77q0 -56 -47.5 -90.5t-109.5 -34.5zM764 186v-2l4 -8
q-6 -4 -10 -8.5t-7 -11t-4.5 -11t-2 -12.5t-0.5 -11.5v-12.5v-11q0 -83 89 -83q77 0 77 56q0 20 -13.5 36.5t-28 25t-37.5 18.5l-29 13q-31 17 -38 22zM907 329v1q0 36 -17.5 49.5t-51.5 13.5q-59 0 -59 -49q0 -23 11.5 -40t51.5 -35l28 -11l11 -5v1q26 21 26 75z" />
    <glyph glyph-name="fiveeighths" unicode="&#x215d;" horiz-adv-x="1001" 
d="M37 508l1 1l77 217h187l-26 -96h-171l-12 -32q91 10 153.5 -28.5t62.5 -115.5q0 -65 -48.5 -103.5t-122.5 -38.5q-52 0 -103 15v106h9q36 -96 98 -96t62 66q0 61 -49.5 91.5t-117.5 13.5zM278 1h-75l508 725h75zM816 -6q-65 0 -108 27.5t-43 77.5q0 61 79 90
q-61 50 -61 113q0 52 40 84t97 32q54 0 91 -21.5t37 -61.5q0 -26 -21 -48.5t-52 -35.5q50 -26 74 -55t24 -77q0 -56 -47.5 -90.5t-109.5 -34.5zM747 187v-2l4 -8q-6 -4 -10 -8.5t-7 -11t-4.5 -11t-2 -12.5t-0.5 -11.5v-12.5v-11q0 -83 89 -83q77 0 77 56q0 20 -13.5 36.5
t-28 25t-37.5 18.5l-29 13q-31 17 -38 22zM890 330v1q0 36 -17.5 49.5t-51.5 13.5q-59 0 -59 -49q0 -23 11.5 -40t51.5 -35l28 -11l11 -5v1q26 21 26 75z" />
    <glyph glyph-name="seveneighths" unicode="&#x215e;" horiz-adv-x="990" 
d="M25 629v96h307v-97q-69 -59 -103.5 -133.5t-42.5 -177.5h-125q6 107 72 181.5t177 130.5h-285zM266 0h-75l508 725h75zM804 -7q-65 0 -108 27.5t-43 77.5q0 61 79 90q-61 50 -61 113q0 52 40 84t97 32q54 0 91 -21.5t37 -61.5q0 -26 -21 -48.5t-52 -35.5q50 -26 74 -55
t24 -77q0 -56 -47.5 -90.5t-109.5 -34.5zM735 186v-2l4 -8q-6 -4 -10 -8.5t-7 -11t-4.5 -11t-2 -12.5t-0.5 -11.5v-12.5v-11q0 -83 89 -83q77 0 77 56q0 20 -13.5 36.5t-28 25t-37.5 18.5l-29 13q-31 17 -38 22zM878 329v1q0 36 -17.5 49.5t-51.5 13.5q-59 0 -59 -49
q0 -23 11.5 -40t51.5 -35l28 -11l11 -5v1q26 21 26 75z" />
    <glyph glyph-name="uni215F" unicode="&#x215f;" horiz-adv-x="572" 
d="M207 735v-1v-347q0 -38 6 -48.5t20 -13.5v-9h-185v8q29 2 38 16.5t9 58.5v270h-71v10q125 21 171 56h12zM214 -1h-75l508 725h75z" />
    <glyph glyph-name="uni2190" unicode="&#x2190;" horiz-adv-x="800" 
d="M20 273l309 309l51 -54l-220 -216h600v-76h-602l222 -219l-51 -53z" />
    <glyph glyph-name="uni2191" unicode="&#x2191;" horiz-adv-x="800" 
d="M400 745l310 -309l-55 -52l-217 221v-605h-75v605l-217 -221l-55 52z" />
    <glyph glyph-name="uni2192" unicode="&#x2192;" horiz-adv-x="800" 
d="M468 582l311 -309l-311 -309l-50 53l222 219h-600v76h598l-220 216z" />
    <glyph glyph-name="uni2193" unicode="&#x2193;" horiz-adv-x="800" 
d="M401 -20l-310 309l55 52l217 -221v605h75v-605l217 221l55 -52z" />
    <glyph glyph-name="uni2196" unicode="&#x2196;" horiz-adv-x="800" 
d="M132 100v438h438v-72h-312l452 -452l-54 -53l-453 451v-312h-71z" />
    <glyph glyph-name="uni2197" unicode="&#x2197;" horiz-adv-x="800" 
d="M668 538v-438h-72v312l-452 -451l-54 53l451 452h-311v72h438z" />
    <glyph glyph-name="uni2198" unicode="&#x2198;" horiz-adv-x="800" 
d="M668 438v-438h-438v72h312l-452 452l54 53l453 -451v312h71z" />
    <glyph glyph-name="uni2199" unicode="&#x2199;" horiz-adv-x="800" 
d="M132 0v438h72v-312l452 451l54 -53l-451 -452h311v-72h-438z" />
    <glyph glyph-name="uni219E" unicode="&#x219e;" horiz-adv-x="800" 
d="M331 -36l-311 309l311 309l50 -54l-220 -216h140l271 270l51 -54l-219 -216h356v-76h-358l221 -219l-51 -53l-273 272h-140l222 -219z" />
    <glyph glyph-name="uni219F" unicode="&#x219f;" horiz-adv-x="800" 
d="M91 436l309 309l310 -309l-55 -52l-217 222v-141l272 -272l-55 -50l-217 221v-364h-75v365l-217 -222l-55 50l272 272v141l-217 -222z" />
    <glyph glyph-name="uni21A0" unicode="&#x21a0;" horiz-adv-x="800" 
d="M469 582l311 -309l-311 -309l-50 53l222 219h-140l-273 -272l-51 53l221 219h-358v76h356l-219 216l51 54l271 -270h140l-220 216z" />
    <glyph glyph-name="uni21A1" unicode="&#x21a1;" horiz-adv-x="800" 
d="M710 289l-310 -309l-309 309l55 52l217 -222v141l-272 272l55 50l217 -222v365h75v-364l217 221l55 -50l-272 -272v-141l217 222z" />
    <glyph glyph-name="uni21A2" unicode="&#x21a2;" horiz-adv-x="800" 
d="M20 273l309 309l51 -54l-220 -216h309l269 270l52 -54l-256 -255l256 -256l-52 -53l-272 272h-308l222 -219l-51 -53z" />
    <glyph glyph-name="uni21A3" unicode="&#x21a3;" horiz-adv-x="800" 
d="M780 273l-309 -309l-51 53l222 219h-308l-272 -272l-52 53l256 256l-256 255l52 54l269 -270h309l-220 216l51 54z" />
    <glyph glyph-name="uni21A4" unicode="&#x21a4;" horiz-adv-x="800" 
d="M750 0h-82v236h-509l222 -230l-52 -53l-309 315l309 314l52 -54l-220 -217h507v227h82v-538z" />
    <glyph glyph-name="uni21A5" unicode="&#x21a5;" horiz-adv-x="800" 
d="M400 745l310 -309l-55 -52l-217 222v-526h231v-80h-537v80h231v526l-217 -222l-55 52z" />
    <glyph glyph-name="uni21A6" unicode="&#x21a6;" horiz-adv-x="800" 
d="M132 236v-236h-82v538h82v-227h507l-220 217l52 54l309 -314l-309 -312l-52 53l222 227h-509z" />
    <glyph glyph-name="uni21A7" unicode="&#x21a7;" horiz-adv-x="800" 
d="M400 -20l-309 309l55 52l217 -222v526h-231v80h537v-80h-231v-526l217 222l55 -52z" />
    <glyph glyph-name="uni21B0" unicode="&#x21b0;" horiz-adv-x="800" 
d="M750 -216h-75v452h-517l222 -219l-51 -53l-309 309l309 309l51 -54l-220 -216h590v-528z" />
    <glyph glyph-name="uni21B1" unicode="&#x21b1;" horiz-adv-x="800" 
d="M469 582l311 -309l-311 -309l-50 53l222 219h-516v-452h-75v527h589l-220 217z" />
    <glyph glyph-name="uni21B2" unicode="&#x21b2;" horiz-adv-x="800" 
d="M20 273l309 309l51 -54l-220 -216h515v413h75v-489h-592l222 -219l-51 -53z" />
    <glyph glyph-name="uni21B3" unicode="&#x21b3;" horiz-adv-x="800" 
d="M469 582l311 -309l-311 -309l-50 53l222 219h-591v489h75v-413h514l-220 216z" />
    <glyph glyph-name="partialdiff" unicode="&#x2202;" horiz-adv-x="566" 
d="M441 266q0 103 -46.5 155.5t-117.5 52.5q-74 0 -115.5 -55t-41.5 -153q0 -99 41 -154t116 -55q70 0 117 53.5t47 155.5zM276 -13q-110 0 -175 74.5t-65 204.5q0 128 65 203t168 75t157 -77l1 1q-30 85 -105.5 140.5t-168.5 59.5v74q168 -10 271 -129t103 -302
q0 -160 -68 -242t-183 -82z" />
    <glyph glyph-name="product" unicode="&#x220f;" horiz-adv-x="673" 
d="M155 -189h-81v914h525v-914h-81v839h-363v-839z" />
    <glyph glyph-name="summation" unicode="&#x2211;" horiz-adv-x="588" 
d="M28 -120l282 388l-282 388v69h531v-75h-436l281 -382l-281 -382h436v-75h-531v69z" />
    <glyph glyph-name="minus" unicode="&#x2212;" 
d="M72 312h534v-76h-534v76z" />
    <glyph glyph-name="radical" unicode="&#x221a;" horiz-adv-x="513" 
d="M0 227l142 65l158 -371l135 804h78l-158 -914h-87l-166 374l-68 -30z" />
    <glyph glyph-name="infinity" unicode="&#x221e;" horiz-adv-x="794" 
d="M588 418q78 0 127.5 -45.5t49.5 -118.5t-48 -118.5t-125 -45.5q-101 0 -196 108q-47 -51 -92 -79.5t-101 -28.5q-78 0 -126.5 45.5t-48.5 118.5t49 118.5t129 45.5q99 0 191 -105q49 56 92.5 80.5t98.5 24.5zM205 162h1q40 0 71.5 21.5t73.5 70.5q-39 48 -72 70.5
t-74 22.5q-43 0 -70 -25.5t-27 -67.5q0 -39 27.5 -65.5t69.5 -26.5zM585 347q-39 0 -70.5 -23t-69.5 -69q38 -47 72 -70t73 -23q42 0 69 25.5t27 66.5q0 40 -27.5 66.5t-73.5 26.5z" />
    <glyph glyph-name="integral" unicode="&#x222b;" horiz-adv-x="299" 
d="M111 144v339q0 137 36.5 195t105.5 58q35 0 58 -16t23 -45q0 -22 -12.5 -35.5t-33.5 -13.5q-20 0 -32 11.5t-12 29.5q0 22 8 30q-38 0 -51 -34t-13 -101q0 -21 1.5 -75.5t1.5 -91.5v-346q0 -132 -35.5 -188.5t-105.5 -56.5q-36 0 -58.5 15.5t-22.5 46.5q0 20 13 34t33 14
t32 -12t12 -30q0 -15 -8 -29q37 0 49.5 33.5t12.5 100.5q0 21 -1 75.5t-1 91.5z" />
    <glyph glyph-name="approxequal" unicode="&#x2248;" 
d="M455 378q29 0 48 18.5t22 52.5h76q-4 -66 -43.5 -104t-102.5 -38q-43 0 -119.5 35.5t-109.5 35.5q-29 0 -48 -18.5t-21 -52.5h-78q4 66 43 104t103 38q52 0 128 -35.5t102 -35.5zM455 191q29 0 48 18.5t22 52.5h76q-4 -66 -43.5 -104t-102.5 -38q-43 0 -119.5 35.5
t-109.5 35.5q-29 0 -48 -18.5t-21 -52.5h-78q4 66 43 104t103 38q52 0 128 -35.5t102 -35.5z" />
    <glyph glyph-name="notequal" unicode="&#x2260;" 
d="M92 344v75h285l83 144l65 -33l-64 -111h125v-75h-167l-75 -131h242v-75h-285l-94 -165l-65 36l74 129h-124v75h167l75 131h-242z" />
    <glyph glyph-name="lessequal" unicode="&#x2264;" 
d="M178 332l428 -133v-84l-535 182v70l535 184v-84zM69 0v75h540v-75h-540z" />
    <glyph glyph-name="greaterequal" unicode="&#x2265;" 
d="M500 332l-428 135v84l535 -184v-70l-535 -182v84zM609 0h-540v75h540v-75z" />
    <glyph glyph-name="uni25A0" unicode="&#x25a0;" horiz-adv-x="800" 
d="M133 0v538h535v-538h-535z" />
    <glyph glyph-name="uni25A1" unicode="&#x25a1;" horiz-adv-x="800" 
d="M133 0v538h535v-538h-535zM197 475v-411h408v411h-408z" />
    <glyph glyph-name="lozenge" unicode="&#x25ca;" horiz-adv-x="508" 
d="M256 626l-161 -278l161 -277l160 277zM7 348l249 424l246 -424l-246 -424z" />
    <glyph glyph-name="uni25CB" unicode="&#x25cb;" horiz-adv-x="800" 
d="M122 268q0 116 81.5 197.5t196.5 81.5q116 0 197.5 -81.5t81.5 -197.5t-82 -198.5t-197 -82.5t-196.5 82.5t-81.5 198.5zM400 48q89 0 151 63.5t62 156.5t-62 155.5t-151 62.5t-150.5 -62.5t-61.5 -155.5q0 -90 62 -155t150 -65z" />
    <glyph glyph-name="uni25CF" unicode="&#x25cf;" horiz-adv-x="800" 
d="M122 268q0 116 81.5 197.5t196.5 81.5q116 0 197.5 -81.5t81.5 -197.5t-82 -198.5t-197 -82.5t-196.5 82.5t-81.5 198.5z" />
    <glyph glyph-name="fi" unicode="&#xfb01;" horiz-adv-x="764" 
d="M354 668h1l-40 58q-10 14 -12.5 17t-8 6.5t-11.5 3.5q-11 0 -24 -6.5t-25 -23t-17 -40t4 -62t34 -83.5h154v-50h-151v-352q0 -74 17 -94t84 -26v-16h-331v16q49 6 58.5 24t9.5 96v352h-68v50h68v4q0 111 78 185t172 74q57 0 92 -28t35 -65q0 -31 -18.5 -48.5t-45.5 -17.5
q-36 0 -55 26zM672 323v-187q0 -78 9.5 -96t58.5 -24v-16h-298v16q49 6 58.5 24t9.5 96v224q0 67 -9.5 82.5t-58.5 17.5v16l234 71q-4 -208 -4 -224zM594 636q-41 0 -69.5 28.5t-28.5 69.5q0 39 29 67t69 28t68.5 -28t28.5 -67q0 -40 -28.5 -69t-68.5 -29z" />
    <glyph glyph-name="fl" unicode="&#xfb02;" horiz-adv-x="795" 
d="M354 668h1l-40 58q-10 14 -12.5 17t-8 6.5t-11.5 3.5q-11 0 -24 -6.5t-25 -23t-17 -40t4 -62t34 -83.5h154v-50h-151v-352q0 -74 17 -94t84 -26v-16h-331v16q49 6 58.5 24t9.5 96v352h-68v50h68v4q0 111 78 185t172 74q57 0 92 -28t35 -65q0 -31 -18.5 -48.5t-45.5 -17.5
q-36 0 -55 26zM536 136v500q0 67 -9.5 82.5t-58.5 17.5v16l234 71q-4 -208 -4 -224v-463q0 -78 9.5 -96t58.5 -24v-16h-298v16q49 6 58.5 24t9.5 96z" />
    <glyph glyph-name="apple" horiz-adv-x="454" 
d="M44 283q0 75 52.5 127.5t126.5 52.5q79 0 133 -52.5t54 -127.5q0 -78 -54 -132t-133 -54q-74 0 -126.5 54t-52.5 132z" />
    <glyph glyph-name="dot" horiz-adv-x="357" 
d="M179 636q-41 0 -69.5 28.5t-28.5 69.5q0 39 29 67t69 28t68.5 -28t28.5 -67q0 -40 -28.5 -69t-68.5 -29z" />
    <glyph glyph-name="dotaccent.low" horiz-adv-x="198" 
d="M22 -150q0 33 22.5 55.5t54.5 22.5t54.5 -23t22.5 -55q0 -31 -22.5 -53.5t-54.5 -22.5t-54.5 22.5t-22.5 53.5z" />
    <glyph glyph-name="commaaccent" horiz-adv-x="180" 
d="M38 -122v1q0 28 20 47.5t49 19.5q30 0 48 -21t18 -54q0 -59 -42.5 -107t-103.5 -74l-5 10q83 59 83 114q-27 1 -47 19t-20 45z" />
    <glyph glyph-name="caron.slovak" horiz-adv-x="263" 
d="M72 755v1q0 28 20 47.5t49 19.5q30 0 48 -21t18 -54q0 -59 -42.5 -107t-103.5 -74l-5 10q83 59 83 114q-27 1 -47 19t-20 45z" />
    <glyph glyph-name="zero.slashed" horiz-adv-x="680" 
d="M35 367q0 155 90.5 265t214.5 110q126 0 215.5 -109.5t89.5 -265.5t-89.5 -268t-215.5 -112q-124 0 -214.5 112t-90.5 268zM212 367q0 -73 2 -94l251 196q-15 239 -125 239q-128 0 -128 -341zM468 367q0 33 -1 52l-248 -195q23 -202 121 -202q128 0 128 345z" />
    <glyph glyph-name="one.pof" horiz-adv-x="475" 
d="M332 573v-437q0 -74 12.5 -93.5t60.5 -25.5v-17h-335v17q68 6 84 27t16 101v308h-132v20q185 21 273 100h21z" />
    <glyph glyph-name="two.pof" horiz-adv-x="520" 
d="M455 437q0 -29 -12 -55.5t-42 -57t-50 -48t-67 -54.5l-121 -95h297v-127h-470v9q10 9 31 27q57 49 85.5 75t74 70.5t68.5 74.5t41 66.5t18 66.5q0 45 -31.5 72t-82.5 27q-114 0 -136 -84h-28q15 77 74.5 123t153.5 46q86 0 141.5 -34.5t55.5 -101.5z" />
    <glyph glyph-name="three.pof" horiz-adv-x="542" 
d="M18 -150v182h18q24 -79 69.5 -124t103.5 -45q62 0 102 39.5t40 97.5q0 26 -9 53t-29 55.5t-59.5 51t-93.5 30.5v22l22 10q67 29 97.5 76.5t30.5 89.5q0 46 -30.5 70t-81.5 25q-57 0 -96.5 -30t-53.5 -85h-32q17 98 85 151.5t172 53.5q76 0 136 -36.5t60 -100.5
q0 -56 -48.5 -96t-103.5 -61v-3q85 -25 139.5 -84t54.5 -138q0 -106 -94 -170t-219 -64q-94 0 -180 30z" />
    <glyph glyph-name="four.pof" horiz-adv-x="665" 
d="M502 -165h-162v165h-305v114l322 442h145v-429h111v-127h-111v-165zM340 127v325l-237 -325h237z" />
    <glyph glyph-name="five.pof" horiz-adv-x="525" 
d="M32 197l128 359h327l-41 -143h-294l-30 -84q167 0 266.5 -68t99.5 -190q0 -114 -84 -182.5t-206 -68.5q-94 0 -180 30v182h18q24 -79 69.5 -124t103.5 -45q61 0 93 35.5t32 96.5q0 96 -79.5 152t-222.5 50z" />
    <glyph glyph-name="six.pof" horiz-adv-x="643" 
d="M321 -13h-1q-124 0 -200 76t-76 213q0 92 44.5 175t117.5 143t159.5 102t178.5 64l10 -28q-123 -45 -212 -130t-115 -203q58 89 165 89q85 0 145.5 -63.5t60.5 -164.5q0 -117 -80 -195t-197 -78zM311 403q-53 0 -92 -36q-4 -27 -4 -63q0 -124 25.5 -203t82.5 -79
t81.5 55.5t24.5 139.5q0 89 -33.5 137.5t-84.5 48.5z" />
    <glyph glyph-name="seven.pof" horiz-adv-x="545" 
d="M5 413v143h525v-143l-376 -610l-105 74l442 536h-486z" />
    <glyph glyph-name="eight.pof" horiz-adv-x="618" 
d="M302 -13q-112 0 -187 49.5t-75 139.5q0 58 41.5 102t109.5 69q-119 79 -119 198q0 89 69.5 142.5t169.5 53.5q96 0 161.5 -39.5t65.5 -111.5q0 -52 -41 -92.5t-102 -65.5q90 -43 136.5 -94t46.5 -132q0 -100 -82.5 -159.5t-193.5 -59.5zM144 179h1q0 -71 39.5 -111.5
t118.5 -40.5q78 0 114.5 31t36.5 80t-36.5 82.5t-103.5 64.5l-64 29q-20 8 -36 18q-70 -39 -70 -153zM442 584q0 118 -129 118q-57 0 -88 -26.5t-31 -70.5q0 -42 26.5 -73.5t94.5 -62.5l57 -26q70 46 70 141z" />
    <glyph glyph-name="nine.pof" horiz-adv-x="643" 
d="M322 573h1q124 0 200 -76.5t76 -212.5q0 -92 -44.5 -175t-117.5 -143t-159.5 -102t-178.5 -64l-10 28q122 45 210.5 129.5t117.5 202.5q-60 -88 -166 -88q-85 0 -145.5 63.5t-60.5 164.5q0 117 80 195t197 78zM332 157q56 0 91 35q5 35 5 64q0 124 -25.5 203t-82.5 79
t-81.5 -55.5t-24.5 -139.5q0 -89 33.5 -137.5t84.5 -48.5z" />
    <glyph glyph-name="zero.pof" horiz-adv-x="677" 
d="M337 573q126 0 210.5 -83.5t84.5 -209.5q0 -118 -82.5 -205.5t-212.5 -87.5q-128 0 -210 85t-82 216q0 111 82.5 198t209.5 87zM328 537q-30 0 -51.5 -18.5t-33 -51t-17 -69.5t-5.5 -80t5.5 -88.5t19 -94.5t40.5 -80t65 -31q39 0 63.5 37t32.5 84t8 104q0 41 -5.5 85
t-18 92.5t-39.5 79.5t-64 31z" />
    <glyph glyph-name="zero.slashed.pof" horiz-adv-x="677" 
d="M337 573q126 0 210.5 -83.5t84.5 -209.5q0 -118 -82.5 -205.5t-212.5 -87.5q-128 0 -210 85t-82 216q0 111 82.5 198t209.5 87zM328 537l-1 1q-30 0 -51.5 -18.5t-33 -51t-17 -69.5t-5.5 -80q0 -42 4 -83l220 127q-11 74 -39.5 124t-76.5 50zM454 250v-1q0 33 -4 69
l-219 -127q32 -166 119 -166q39 0 63.5 37t32.5 84t8 104z" />
    <glyph glyph-name="one.tlf" 
d="M429 739v-603q0 -74 12.5 -93.5t60.5 -25.5v-17h-335v17q68 6 84 27t16 101v474h-132v20q185 21 273 100h21z" />
    <glyph glyph-name="two.tlf" 
d="M572 556h1q0 -72 -48 -136t-139 -144l-151 -132h344v-144h-524v12q176 174 232 241q114 136 122 249q1 11 1 22q0 60 -35 94t-93 34q-121 0 -153 -115h-32q19 100 84 153t172 53q93 0 156 -50t63 -137z" />
    <glyph glyph-name="three.tlf" 
d="M284 -11q-94 0 -180 30v182h18q24 -79 69.5 -124t103.5 -45q62 0 102 39.5t40 97.5q0 26 -9 53t-29 55.5t-59.5 51t-93.5 30.5v22l22 10q67 29 97.5 76.5t30.5 89.5q0 46 -30.5 70t-81.5 25q-57 0 -96.5 -30t-53.5 -85h-32q17 98 85 151.5t172 53.5q76 0 136 -36.5
t60 -100.5q0 -56 -48.5 -96t-103.5 -61v-3q85 -25 139.5 -84t54.5 -138q0 -106 -94 -170t-219 -64z" />
    <glyph glyph-name="four.tlf" 
d="M500 0h-162v164h-305v119l322 442h145v-429h111v-132h-111v-164zM338 296v325l-237 -325h237z" />
    <glyph glyph-name="five.tlf" 
d="M113 366l128 359h327l-41 -143h-294l-30 -84q167 0 266.5 -68t99.5 -190q0 -114 -84 -182.5t-206 -68.5q-94 0 -180 30v182h18q24 -79 69.5 -124t103.5 -45q61 0 93 35.5t32 96.5q0 96 -79.5 152t-222.5 50z" />
    <glyph glyph-name="six.tlf" 
d="M335 -13h-1q-124 0 -200 76t-76 213q0 92 44.5 175t117.5 143t159.5 102t178.5 64l10 -28q-123 -45 -212 -130t-115 -203q58 89 165 89q85 0 145.5 -63.5t60.5 -164.5q0 -117 -80 -195t-197 -78zM325 403q-53 0 -92 -36q-4 -27 -4 -63q0 -124 25.5 -203t82.5 -79
t81.5 55.5t24.5 139.5q0 89 -33.5 137.5t-84.5 48.5z" />
    <glyph glyph-name="seven.tlf" 
d="M86 583h-1v143h525v-145q-136 -123 -204.5 -259t-74.5 -321h-182q3 84 28.5 160t64 134t95 113t111.5 94.5t125 80.5h-487z" />
    <glyph glyph-name="eight.tlf" horiz-adv-x="680" 
d="M333 -13q-112 0 -187 49.5t-75 139.5q0 58 41.5 102t109.5 69q-119 79 -119 198q0 89 69.5 142.5t169.5 53.5q96 0 161.5 -39.5t65.5 -111.5q0 -52 -41 -92.5t-102 -65.5q90 -43 136.5 -94t46.5 -132q0 -100 -82.5 -159.5t-193.5 -59.5zM175 179h1q0 -71 39.5 -111.5
t118.5 -40.5q78 0 114.5 31t36.5 80t-36.5 82.5t-103.5 64.5l-64 29q-19 8 -36 18q-70 -39 -70 -153zM473 584q0 118 -129 118q-57 0 -88 -26.5t-31 -70.5q0 -42 26.5 -73.5t94.5 -62.5l57 -26q70 46 70 141z" />
    <glyph glyph-name="nine.tlf" 
d="M347 741h1q124 0 200 -76.5t76 -212.5q0 -92 -44.5 -175t-117.5 -143t-159.5 -102t-178.5 -64l-10 28q122 45 210.5 129.5t117.5 202.5q-60 -88 -166 -88q-85 0 -145.5 63.5t-60.5 164.5q0 117 80 195t197 78zM357 325q56 0 91 35q5 35 5 64q0 124 -25.5 203t-82.5 79
t-81.5 -55.5t-24.5 -139.5q0 -89 33.5 -137.5t84.5 -48.5z" />
    <glyph glyph-name="zero.tlf" 
d="M212 367q0 -345 128 -345t128 345q0 341 -128 341t-128 -341zM35 367q0 155 90.5 265t214.5 110q126 0 215.5 -109.5t89.5 -265.5t-89.5 -268t-215.5 -112q-124 0 -214.5 112t-90.5 268z" />
    <glyph glyph-name="zero.slashed.tlf" 
d="M35 367q0 155 90.5 265t214.5 110q126 0 215.5 -109.5t89.5 -265.5t-89.5 -268t-215.5 -112q-124 0 -214.5 112t-90.5 268zM212 367v1q0 -70 2 -91l250 196q-15 235 -124 235q-128 0 -128 -341zM468 368l1 -1q0 9 -0.5 29t-0.5 29l-249 -196q23 -206 121 -206
q128 0 128 345z" />
    <glyph glyph-name="one.case" horiz-adv-x="460" 
d="M331 740v-606q0 -73 12 -92t58 -25v-17h-344v16q65 6 81.5 28t16.5 101v477h-130v19q192 21 284 99h22z" />
    <glyph glyph-name="two.case" horiz-adv-x="686" 
d="M342 745q120 0 191 -48.5t71 -131.5q0 -67 -50 -131t-146 -148l-146 -131h351v-155h-561v21q75 65 120 105.5t99.5 97.5t83 100.5t49 96.5t20.5 104q0 71 -37 111t-108 40q-154 0 -177 -161h-41q4 43 22 82t50.5 73.5t86 54.5t122.5 20z" />
    <glyph glyph-name="three.case" horiz-adv-x="716" 
d="M89 15l-1 1v226h18q19 -97 71 -158t124 -61q69 0 111 45t42 127q0 180 -173 180h-25l7 32h16q76 0 116 42.5t40 100.5q0 60 -38 93.5t-91 33.5q-80 0 -130.5 -47t-63.5 -118l-39 7q16 99 87.5 163t197.5 64q39 0 80 -7.5t84 -24t70 -50.5t27 -81q0 -66 -44.5 -113
t-119.5 -68v-2q85 -19 136.5 -71t51.5 -132q0 -94 -94.5 -152t-243.5 -58q-50 0 -116 8t-100 20z" />
    <glyph glyph-name="four.case" horiz-adv-x="714" 
d="M533 0h-175v174h-338v140l356 411h157v-410h125v-141h-125v-174zM358 315v313l-271 -313h271z" />
    <glyph glyph-name="five.case" horiz-adv-x="712" 
d="M291 411q-93 0 -145 -98l-43 13l68 399h440l-24 -154h-399l-37 -194q27 43 86 72t133 29q72 0 132.5 -24t102.5 -80t42 -137q0 -108 -93.5 -179t-244.5 -71q-130 0 -212 28v216h18q18 -94 69 -151.5t117 -57.5q72 0 115 52.5t43 141.5q0 87 -48 141t-120 54z" />
    <glyph glyph-name="six.case" horiz-adv-x="685" 
d="M345 -13v-1q-134 0 -215.5 80.5t-81.5 224.5q0 117 69.5 216t180.5 162.5t248 92.5l9 -34q-143 -42 -218.5 -122.5t-93.5 -205.5q59 91 179 91q93 0 158.5 -65t65.5 -172q0 -117 -89.5 -192t-211.5 -75zM333 404v1q-24 0 -52.5 -12.5t-42.5 -30.5q-2 -38 -2 -58
q0 -62 4 -107.5t15.5 -88t36 -65t60.5 -22.5q55 0 81.5 54.5t26.5 148.5q0 87 -37.5 133.5t-89.5 46.5z" />
    <glyph glyph-name="seven.case" horiz-adv-x="643" 
d="M56 571l-1 -1v154h527v-156q-130 -117 -195 -251t-73 -318h-195q3 83 28.5 157.5t63.5 131t94.5 110.5t112 93t126.5 80h-488z" />
    <glyph glyph-name="eight.case" horiz-adv-x="685" 
d="M334 -13q-120 0 -200.5 50t-80.5 139q0 57 43.5 101t114.5 67q-121 84 -121 201q0 90 73.5 145t179.5 55q102 0 172 -39.5t70 -110.5q0 -50 -42 -90.5t-105 -65.5q98 -48 145 -95.5t47 -124.5q0 -73 -44 -127t-110 -79.5t-142 -25.5zM166 179q0 -69 45 -110t123 -41
t117 30.5t39 77.5q0 85 -148 145l-65 27q-20 7 -43 21q-68 -39 -68 -150zM480 588l-1 -1q0 58 -36.5 87.5t-98.5 29.5q-61 0 -96 -25t-35 -65q0 -77 123 -131l75 -32q1 -1 3 -1q66 44 66 138z" />
    <glyph glyph-name="nine.case" horiz-adv-x="691" 
d="M344 745q134 0 215.5 -81t81.5 -225q0 -117 -69.5 -217t-180.5 -163.5t-248 -92.5l-9 34q141 41 216 122t96 206q-59 -89 -179 -89q-93 0 -158.5 67t-65.5 175q0 117 89.5 190.5t211.5 73.5zM356 325q24 0 52 13t42 31q3 27 3 57q0 63 -4 108t-15.5 88t-36 65.5
t-60.5 22.5q-55 0 -81.5 -55.5t-26.5 -148.5q0 -87 37.5 -134t89.5 -47z" />
    <glyph glyph-name="zero.case" horiz-adv-x="783" 
d="M248 369q0 -347 143 -347q36 0 62.5 21.5t41.5 54t24 81.5t11.5 92.5t2.5 97.5q0 70 -5 123t-19 107t-43.5 83.5t-74.5 29.5q-44 0 -74 -29.5t-44 -83.5t-19.5 -107.5t-5.5 -122.5zM58 369q0 153 97.5 264.5t235.5 111.5q139 0 236.5 -111.5t97.5 -264.5t-98 -267.5
t-236 -114.5q-91 0 -168 53.5t-121 141t-44 187.5z" />
    <glyph glyph-name="zero.slashed.case" horiz-adv-x="783" 
d="M58 369q0 153 97.5 264.5t235.5 111.5q139 0 236.5 -111.5t97.5 -264.5t-98 -267.5t-236 -114.5q-91 0 -168 53.5t-121 141t-44 187.5zM533 369q0 49 -3 99l-278 -218q21 -228 139 -228q36 0 62.5 21.5t41.5 54t24 81.5t11.5 92.5t2.5 97.5zM248 369l-1 1q0 -47 1 -70
l276 216q-24 196 -133 196q-44 0 -74 -29.5t-44 -83.5t-19.5 -107.5t-5.5 -122.5z" />
    <glyph glyph-name="a.superior" horiz-adv-x="328" 
d="M283 634l-1 -106q-1 -48 19 -48q14 0 26 13l7 -5q-37 -57 -81 -57q-69 0 -73 65q-32 -65 -86 -65q-38 0 -61.5 22t-23.5 54q0 29 18.5 49.5t62.5 38.5q33 15 86 29v16q1 44 -6 63t-34 19q-16 0 -24.5 -11t-10.5 -28.5t0 -45.5h-83q6 52 45.5 81t96.5 29q52 0 88.5 -28.5
t34.5 -84.5zM151 497l1 -1q15 0 24 9v93q-38 -7 -56 -21q-15 -11 -15 -35q0 -21 13.5 -33t32.5 -12z" />
    <glyph glyph-name="b.superior" horiz-adv-x="368" 
d="M154 762h-1v-73q11 21 34.5 39t54.5 18q48 0 79 -44t31 -101q0 -78 -44 -124t-104 -46q-50 0 -90 28l-65 -24h-9q2 21 2 95v258q0 36 -3.5 42.5t-27.5 8.5v9l146 42q-3 -87 -3 -128zM153 669l-1 -192q13 -27 45 -27q20 0 32 25.5t12 70.5q0 49 -17.5 89.5t-47.5 40.5
q-16 0 -23 -7z" />
    <glyph glyph-name="c.superior" horiz-adv-x="284" 
d="M188 745h1q39 0 68 -19.5t29 -46.5q0 -18 -11.5 -28.5t-31.5 -10.5q-21 0 -31 21l-24 48q-8 12 -18 12q-21 0 -37 -20.5t-16 -71.5q0 -60 26 -92.5t67 -32.5q38 0 62 20l7 -5q-19 -40 -47 -64t-76 -24q-61 0 -99 42.5t-38 115.5q0 61 46 108.5t123 47.5z" />
    <glyph glyph-name="d.superior" horiz-adv-x="376" 
d="M172 725h1q-43 0 -43 -95q0 -49 17 -89t47 -40q18 0 23 6v191q-13 27 -45 27zM217 739h1v49q0 37 -3.5 43t-30.5 8v8l148 43q0 -11 -1 -54t-1 -74v-233q0 -35 4.5 -42t30.5 -7v-9l-135 -39l-8 62q-7 -21 -33.5 -42t-58.5 -21q-48 0 -79 44t-31 101q0 77 43 123.5
t105 46.5q26 0 49 -7z" />
    <glyph glyph-name="e.superior" horiz-adv-x="313" 
d="M158 431q-64 0 -101.5 42.5t-37.5 106.5q0 71 44.5 118.5t108.5 47.5q59 0 91 -35t34 -84h-182v-11q0 -51 28 -81.5t74 -30.5q48 0 71 22l6 -6q-53 -89 -136 -89zM162 719q-21 0 -34.5 -18t-13.5 -52h86q4 70 -38 70z" />
    <glyph glyph-name="f.superior" horiz-adv-x="241" 
d="M167 862q-11 0 -20 -7.5t-13.5 -26.5t8.5 -52l12 -35h82v-32h-80v-199q0 -37 10 -49t41 -16v-7h-194v8q23 4 27 13t4 51v199h-31v32h31v17q0 37 16 64.5t41 40.5t48 19t43 6q37 0 58 -15t21 -35q0 -17 -10 -26.5t-25 -9.5q-19 0 -29 14l-22 32q-9 14 -18 14z" />
    <glyph glyph-name="g.superior" horiz-adv-x="338" 
d="M26 641v1q0 52 38 78.5t92 26.5q39 0 66 -13l126 8v-32l-92 3q29 -27 29 -71q0 -53 -37.5 -80t-91.5 -27q-26 0 -48 6q-16 -22 -16 -34q0 -5 0.5 -7t3 -6.5t10 -6.5t20.5 -2l52 -1q40 -1 58 -3t39 -7.5t29 -17.5t8 -32q0 -56 -51.5 -85t-126.5 -29q-56 0 -90 13t-34 38
q0 16 19 25t61 16q-57 9 -57 57q0 41 54 88q-61 27 -61 94zM123 642q0 -45 6.5 -66.5t26.5 -21.5q33 0 33 88q0 86 -33 86q-20 0 -26.5 -21t-6.5 -65zM187 398v1l-70 3h-8q-35 -12 -35 -31q0 -15 12.5 -23t24 -9t31.5 -1q43 0 79 10t36 26q0 9 -3 13.5t-14.5 7t-20.5 3
t-32 0.5z" />
    <glyph glyph-name="h.superior" horiz-adv-x="367" 
d="M15 848l145 42q0 -11 -1 -54t-1 -74v-80q28 64 90 64q36 0 58 -26.5t22 -80.5v-129q0 -42 4 -51t27 -13v-8h-344v8q23 4 27 13t4 51v278q0 36 -3.5 42.5t-27.5 8.5v9zM158 666l1 -1v-156q0 -41 4.5 -50t30.5 -13q17 4 20 13t3 51v109q0 56 -31 56q-7 0 -28 -9z" />
    <glyph glyph-name="i.superior" horiz-adv-x="196" 
d="M156 618v-108q0 -41 4.5 -50.5t26.5 -13.5v-8h-174v8q23 4 27 13t4 51v134q0 36 -3.5 42.5t-27.5 8.5v9l146 42q-3 -87 -3 -128zM96 774q-27 0 -45.5 19t-18.5 45t18.5 44.5t45.5 18.5q25 0 44 -18.5t19 -44.5t-19 -45t-44 -19z" />
    <glyph glyph-name="j.superior" horiz-adv-x="201" 
d="M103 774q-26 0 -45 19t-19 45t19 44.5t45 18.5t44.5 -18.5t18.5 -44.5t-18.5 -45t-44.5 -19zM50 490v1v154q0 35 -4 42t-28 9v9l146 42q-3 -87 -3 -128v-118q0 -51 -11 -85.5t-36 -56t-48.5 -33t-63.5 -26.5l-9 -3l-6 9q63 65 63 184z" />
    <glyph glyph-name="k.superior" horiz-adv-x="388" 
d="M203 438v-1v8q24 5 28 12t-7 26l-66 114v-88q0 -42 4 -51t27 -13v-8h-174v8q23 4 27 13t4 51v278q0 36 -3.5 42.5t-27.5 8.5v9l145 42q0 -11 -1 -54t-1 -74v-164l78 84q10 10 14.5 15t9 14t-2 14.5t-23.5 8.5v8h116v-8q-29 -3 -46 -13t-40 -34l-19 -23l104 -186
q3 -5 6 -9t6.5 -6.5t5.5 -4.5t7 -3.5t6.5 -2.5t8.5 -2.5t10 -2.5v-8h-196z" />
    <glyph glyph-name="l.superior" horiz-adv-x="200" 
d="M47 510v278q0 36 -4 42.5t-28 8.5v9l146 42q-3 -87 -3 -128v-252q0 -42 4.5 -51t27.5 -13v-8h-175v8q23 4 27.5 13t4.5 51z" />
    <glyph glyph-name="m.superior" horiz-adv-x="540" 
d="M499 639v-129q0 -42 4.5 -51t27.5 -13v-8h-337v8q17 4 20.5 13t3.5 51v110q0 56 -32 56q-7 0 -12 -1.5t-9.5 -4.5t-6.5 -4v-156q0 -42 3.5 -51t21.5 -13v-8h-168v8q23 4 27.5 13t4.5 51v134v10q0 28 -4 33.5t-28 7.5v9l137 41l5 -64q11 19 19.5 30.5t28 23t44.5 11.5
q60 0 76 -69v5q35 64 94 64q36 0 58 -26.5t22 -80.5zM329 639h-1v-129q0 -42 5 -50.5t31 -12.5q16 4 19.5 13.5t3.5 49.5v110q0 56 -32 56q-15 0 -28 -8q2 -18 2 -29z" />
    <glyph glyph-name="o.superior" horiz-adv-x="360" 
d="M180 746q69 0 115 -45.5t46 -112.5q0 -62 -45.5 -109.5t-118.5 -47.5q-72 0 -115 46.5t-43 117.5q0 56 45 103.5t116 47.5zM175 727q-39 0 -39 -118q0 -159 49 -159q39 0 39 123q0 154 -49 154z" />
    <glyph glyph-name="p.superior" horiz-adv-x="374" 
d="M151 745v-1l3 -64q7 22 32.5 43.5t58.5 21.5q48 0 79 -44t31 -101q0 -79 -43 -124.5t-106 -45.5q-23 0 -49 7v-50q0 -39 10.5 -49t46.5 -14v-8h-200v8q22 4 26.5 13.5t4.5 50.5v256q0 36 -3.5 42.5t-27.5 8.5v9zM157 667v-190q12 -26 43 -26q45 0 45 94q0 49 -17.5 89.5
t-47.5 40.5q-17 0 -23 -8z" />
    <glyph glyph-name="q.superior" horiz-adv-x="364" 
d="M216 388v1v100q-11 -21 -33.5 -39t-53.5 -18q-48 0 -79 44t-31 101q0 77 43 123.5t105 46.5q31 0 57 -9l106 7q-2 -56 -2 -122v-234q0 -42 4 -51t27 -13v-8h-199v8q35 4 45.5 14t10.5 49zM172 726h1q-43 0 -43 -95q0 -49 17 -89t47 -40q18 0 23 6v191q-13 27 -45 27z" />
    <glyph glyph-name="r.superior" horiz-adv-x="289" 
d="M153 745l4 -68q15 23 24 34.5t26 23t35 11.5q24 0 39.5 -14.5t15.5 -38.5q0 -26 -14.5 -41t-34.5 -15q-10 0 -14.5 2.5t-13.5 12.5l-16 18q-8 11 -16 11q-7 0 -24 -25v-146q0 -39 6.5 -50t32.5 -15v-7h-182v8q23 4 27 13t4 51v134q0 36 -3.5 42.5t-27.5 8.5v9z" />
    <glyph glyph-name="s.superior" horiz-adv-x="304" 
d="M153 746l1 1q60 0 102 -14l-3 -101h-9q-9 47 -42.5 69.5t-65.5 22.5q-33 0 -33 -23q0 -30 43 -48l38 -15q97 -40 97 -108q0 -49 -44 -74t-102 -25q-62 0 -104 15v121h10q44 -113 116 -113q38 0 38 20q0 16 -12 30.5t-50 30.5l-32 12q-36 14 -54.5 44.5t-18.5 65.5
q0 42 33.5 65.5t91.5 23.5z" />
    <glyph glyph-name="t.superior" horiz-adv-x="246" 
d="M139 431q-89 0 -89 104v174h-44v32h46v16l109 97v-113h75v-32h-75v-157q0 -37 7 -50.5t27 -13.5q19 0 39 20l8 -6q-22 -34 -44.5 -52.5t-58.5 -18.5z" />
    <glyph glyph-name="u.superior" horiz-adv-x="359" 
d="M312 615h1v-85q0 -33 4.5 -41.5t27.5 -8.5v-9l-131 -39l-11 61q-30 -62 -84 -62q-83 0 -83 101v119q0 23 -1 33.5t-9 20.5t-25 11v6l150 22q-3 -84 -3 -125v-67q0 -29 5 -43t21 -14t26 8v148q0 22 -1.5 33t-9 21t-23.5 11v6l149 22q-3 -84 -3 -129z" />
    <glyph glyph-name="v.superior" horiz-adv-x="347" 
d="M208 443h-86l-85 250q-1 2 -3 7t-3 7l-3 6t-4 5.5t-5.5 4.5t-8 5.5t-10.5 5.5v7h195v-7q-26 -9 -31 -18t2 -30l45 -163l48 141q14 34 12 46.5t-32 23.5v7h108v-7q-5 -2 -13 -5t-11 -4t-8 -3.5t-7 -5t-5 -7.5t-5.5 -11t-6.5 -15z" />
    <glyph glyph-name="w.superior" horiz-adv-x="479" 
d="M280 443v1l-38 174l-45 -174h-104l-58 251q-2 16 -8 24t-27 16v7h190v-7q-27 -8 -32.5 -16.5t-0.5 -31.5l35 -160l52 214h80l49 -220l28 142q3 19 3.5 31t-3 18.5t-6 9t-11 6t-12.5 6.5v7h107v-7q-5 -2 -13 -5t-10.5 -3.5t-7 -3.5t-5.5 -5t-4 -7.5t-4 -11.5t-3 -16
l-48 -239h-104z" />
    <glyph glyph-name="x.superior" horiz-adv-x="370" 
d="M98 520l-2 2l40 45l-96 132q-2 2 -7.5 9.5t-9 12t-9.5 9.5t-11 6v8h185v-8q-43 -4 -10 -44l31 -43l36 40q14 14 18.5 24.5t-1.5 16t-23 5.5v8h107v-8q-15 0 -31.5 -11.5t-27.5 -22.5t-37 -40l-28 -32l106 -145q1 -1 9 -12.5t14.5 -17.5t13.5 -7v-8h-185v8q39 4 11 43
l-41 56l-48 -54q-20 -20 -19 -33.5t26 -12.5v-8h-107v8q15 0 31.5 11.5t27.5 22.5t37 40z" />
    <glyph glyph-name="y.superior" horiz-adv-x="339" 
d="M62 314h-1q-26 0 -33 -1v140h5q18 -54 31 -76t35 -22t38.5 17.5t24.5 41.5l4 13l-130 269q-14 31 -36 38v7h188v-7q-27 -9 -31 -17t6 -28l55 -133l35 108q2 7 6 18.5t5 15t2.5 10.5t-0.5 9t-5.5 6t-9 6t-15.5 5v7h103v-7q-5 -2 -14 -5.5t-12 -5t-8 -4.5t-7.5 -7.5
t-6.5 -11t-8 -17.5l-93 -264q-20 -58 -50 -81.5t-78 -23.5z" />
    <glyph glyph-name="z.superior" horiz-adv-x="294" 
d="M283 438h1h-273v6l156 277h-35q-63 0 -87 -115h-11v135h250v-6l-156 -277h53q71 0 90 115h12v-135z" />
    <glyph glyph-name="zero.slashed.superior" horiz-adv-x="428" 
d="M34 645q0 90 55.5 150.5t124.5 60.5t124.5 -60.5t55.5 -150.5q0 -91 -55.5 -152.5t-124.5 -61.5t-124.5 61.5t-55.5 152.5zM154 645v-44l119 93q-3 69 -15.5 106t-43.5 37q-35 0 -47.5 -51.5t-12.5 -140.5zM214 450q36 0 48 52t12 143v21l-118 -93q7 -123 58 -123z" />
    <glyph glyph-name="period.superior" horiz-adv-x="186" 
d="M33 490q0 26 16.5 43.5t42.5 17.5q27 0 44 -17.5t17 -43.5q0 -25 -17 -42t-44 -17q-26 0 -42.5 17t-16.5 42z" />
    <glyph glyph-name="hyphen.superior" horiz-adv-x="181" 
d="M21 564v52h138v-52h-138z" />
    <glyph glyph-name="comma.superior" horiz-adv-x="186" 
d="M35 491v1q0 25 17 42.5t43 17.5t42 -18.5t16 -48.5q0 -50 -39.5 -95.5t-90.5 -70.5l-5 8q72 51 72 107q-24 1 -39.5 16.5t-15.5 40.5z" />
    <glyph glyph-name="a.inferior" horiz-adv-x="328" 
d="M283 68l-1 -106q-1 -48 19 -48q14 0 26 13l7 -5q-37 -57 -81 -57q-69 0 -73 65q-32 -65 -86 -65q-38 0 -61.5 22t-23.5 54q0 29 18.5 49.5t62.5 38.5q33 15 86 29v16q1 44 -6 63t-34 19q-16 0 -24.5 -11t-10.5 -28.5t0 -45.5h-83q6 52 45.5 81t96.5 29q52 0 88.5 -28.5
t34.5 -84.5zM151 -69l1 -1q15 0 24 9v93q-38 -7 -56 -21q-15 -11 -15 -35q0 -21 13.5 -33t32.5 -12z" />
    <glyph glyph-name="b.inferior" horiz-adv-x="371" 
d="M154 196h-1v-73q11 21 34.5 39t54.5 18q48 0 79 -44t31 -101q0 -78 -44 -124t-104 -46q-50 0 -90 28l-65 -24h-9q2 21 2 95v258q0 36 -3.5 42.5t-27.5 8.5v9l146 42q-3 -87 -3 -128zM153 103l-1 -192q13 -27 45 -27q20 0 32 25.5t12 70.5q0 49 -17.5 89.5t-47.5 40.5
q-16 0 -23 -7z" />
    <glyph glyph-name="c.inferior" horiz-adv-x="284" 
d="M188 179h1q39 0 68 -19.5t29 -46.5q0 -18 -11.5 -28.5t-31.5 -10.5q-21 0 -31 21l-24 48q-8 12 -18 12q-21 0 -37 -20.5t-16 -71.5q0 -60 26 -92.5t67 -32.5q38 0 62 20l7 -5q-19 -40 -47 -64t-76 -24q-61 0 -99 42.5t-38 115.5q0 61 46 108.5t123 47.5z" />
    <glyph glyph-name="d.inferior" horiz-adv-x="376" 
d="M172 159h1q-43 0 -43 -95q0 -49 17 -89t47 -40q18 0 23 6v191q-13 27 -45 27zM217 173h1v49q0 37 -3.5 43t-30.5 8v8l148 43q0 -11 -1 -54t-1 -74v-233q0 -35 4.5 -42t30.5 -7v-9l-135 -39l-8 62q-7 -21 -33.5 -42t-58.5 -21q-48 0 -79 44t-31 101q0 77 43 123.5
t105 46.5q26 0 49 -7z" />
    <glyph glyph-name="e.inferior" horiz-adv-x="313" 
d="M158 -135q-64 0 -101.5 42.5t-37.5 106.5q0 71 44.5 118.5t108.5 47.5q59 0 91 -35t34 -84h-182v-11q0 -51 28 -81.5t74 -30.5q48 0 71 22l6 -6q-53 -89 -136 -89zM162 153q-21 0 -34.5 -18t-13.5 -52h86q4 70 -38 70z" />
    <glyph glyph-name="f.inferior" horiz-adv-x="241" 
d="M167 296q-11 0 -20 -7.5t-13.5 -26.5t8.5 -52l12 -35h82v-32h-80v-199q0 -37 10 -49t41 -16v-7h-194v8q23 4 27 13t4 51v199h-31v32h31v17q0 37 16 64.5t41 40.5t48 19t43 6q37 0 58 -15t21 -35q0 -17 -10 -26.5t-25 -9.5q-19 0 -29 14l-22 32q-9 14 -18 14z" />
    <glyph glyph-name="g.inferior" horiz-adv-x="338" 
d="M26 75v1q0 52 38 78.5t92 26.5q39 0 66 -13l126 8v-32l-92 3q29 -27 29 -71q0 -53 -37.5 -80t-91.5 -27q-26 0 -48 6q-16 -22 -16 -34q0 -5 0.5 -7t3 -6.5t10 -6.5t20.5 -2l52 -1q40 -1 58 -3t39 -7.5t29 -17.5t8 -32q0 -56 -51.5 -85t-126.5 -29q-56 0 -90 13t-34 38
q0 16 19 25t61 16q-57 9 -57 57q0 41 54 88q-61 27 -61 94zM123 76q0 -45 6.5 -66.5t26.5 -21.5q33 0 33 88q0 86 -33 86q-20 0 -26.5 -21t-6.5 -65zM187 -168v1l-70 3h-8q-35 -12 -35 -31q0 -15 12.5 -23t24 -9t31.5 -1q43 0 79 10t36 26q0 9 -3 13.5t-14.5 7t-20.5 3
t-32 0.5z" />
    <glyph glyph-name="h.inferior" horiz-adv-x="368" 
d="M15 282l145 42q0 -11 -1 -54t-1 -74v-80q28 64 90 64q36 0 58 -26.5t22 -80.5v-129q0 -42 4 -51t27 -13v-8h-344v8q23 4 27 13t4 51v278q0 36 -3.5 42.5t-27.5 8.5v9zM158 100l1 -1v-156q0 -41 4.5 -50t30.5 -13q17 4 20 13t3 51v109q0 56 -31 56q-7 0 -28 -9z" />
    <glyph glyph-name="i.inferior" horiz-adv-x="196" 
d="M156 52v-108q0 -41 4.5 -50.5t26.5 -13.5v-8h-174v8q23 4 27 13t4 51v134q0 36 -3.5 42.5t-27.5 8.5v9l146 42q-3 -87 -3 -128zM96 208q-27 0 -45.5 19t-18.5 45t18.5 44.5t45.5 18.5q25 0 44 -18.5t19 -44.5t-19 -45t-44 -19z" />
    <glyph glyph-name="j.inferior" horiz-adv-x="201" 
d="M103 208q-26 0 -45 19t-19 45t19 44.5t45 18.5t44.5 -18.5t18.5 -44.5t-18.5 -45t-44.5 -19zM50 -76v1v154q0 35 -4 42t-28 9v9l146 42q-3 -87 -3 -128v-118q0 -51 -11 -85.5t-36 -56t-48.5 -33t-63.5 -26.5l-9 -3l-6 9q63 65 63 184z" />
    <glyph glyph-name="k.inferior" horiz-adv-x="388" 
d="M203 -128v-1v8q24 5 28 12t-7 26l-66 114v-88q0 -42 4 -51t27 -13v-8h-174v8q23 4 27 13t4 51v278q0 36 -3.5 42.5t-27.5 8.5v9l145 42q0 -11 -1 -54t-1 -74v-164l78 84q10 10 14.5 15t9 14t-2 14.5t-23.5 8.5v8h116v-8q-29 -3 -46 -13t-40 -34l-19 -23l104 -186
q3 -5 6 -9t6.5 -6.5t5.5 -4.5t7 -3.5t6.5 -2.5t8.5 -2.5t10 -2.5v-8h-196z" />
    <glyph glyph-name="l.inferior" horiz-adv-x="200" 
d="M47 -56v278q0 36 -4 42.5t-28 8.5v9l146 42q-3 -87 -3 -128v-252q0 -42 4.5 -51t27.5 -13v-8h-175v8q23 4 27.5 13t4.5 51z" />
    <glyph glyph-name="m.inferior" horiz-adv-x="540" 
d="M499 73v-129q0 -42 4.5 -51t27.5 -13v-8h-337v8q17 4 20.5 13t3.5 51v110q0 56 -32 56q-7 0 -12 -1.5t-9.5 -4.5t-6.5 -4v-156q0 -42 3.5 -51t21.5 -13v-8h-168v8q23 4 27.5 13t4.5 51v134v10q0 28 -4 33.5t-28 7.5v9l137 41l5 -64q11 19 19.5 30.5t28 23t44.5 11.5
q60 0 76 -69v5q35 64 94 64q36 0 58 -26.5t22 -80.5zM329 73h-1v-129q0 -42 5 -50.5t31 -12.5q16 4 19.5 13.5t3.5 49.5v110q0 56 -32 56q-15 0 -28 -8q2 -18 2 -29z" />
    <glyph glyph-name="n.inferior" horiz-adv-x="370" 
d="M16 129h1v9l137 41l5 -64q11 19 19.5 30.5t28 23t44.5 11.5q35 0 57 -26.5t22 -80.5v-129q0 -42 4.5 -51t27.5 -13v-8h-167v8q17 4 20.5 13t3.5 51v110q0 56 -32 56q-7 0 -12 -1.5t-9.5 -4.5t-6.5 -4v-156q0 -42 3.5 -51t21.5 -13v-8h-168v8q23 4 27.5 13t4.5 51v134v10
q0 28 -4 33.5t-28 7.5z" />
    <glyph glyph-name="o.inferior" horiz-adv-x="360" 
d="M180 180q69 0 115 -45.5t46 -112.5q0 -62 -45.5 -109.5t-118.5 -47.5q-72 0 -115 46.5t-43 117.5q0 56 45 103.5t116 47.5zM175 161q-39 0 -39 -118q0 -159 49 -159q39 0 39 123q0 154 -49 154z" />
    <glyph glyph-name="p.inferior" horiz-adv-x="374" 
d="M151 179v-1l3 -64q7 22 32.5 43.5t58.5 21.5q48 0 79 -44t31 -101q0 -79 -43 -124.5t-106 -45.5q-23 0 -49 7v-50q0 -39 10.5 -49t46.5 -14v-8h-200v8q22 4 26.5 13.5t4.5 50.5v256q0 36 -3.5 42.5t-27.5 8.5v9zM157 101v-190q12 -26 43 -26q45 0 45 94q0 49 -17.5 89.5
t-47.5 40.5q-17 0 -23 -8z" />
    <glyph glyph-name="q.inferior" horiz-adv-x="364" 
d="M216 -178v1v100q-11 -21 -33.5 -39t-53.5 -18q-48 0 -79 44t-31 101q0 77 43 123.5t105 46.5q31 0 57 -9l106 7q-2 -56 -2 -122v-234q0 -42 4 -51t27 -13v-8h-199v8q35 4 45.5 14t10.5 49zM172 160h1q-43 0 -43 -95q0 -49 17 -89t47 -40q18 0 23 6v191q-13 27 -45 27z
" />
    <glyph glyph-name="r.inferior" horiz-adv-x="289" 
d="M153 179l4 -68q15 23 24 34.5t26 23t35 11.5q24 0 39.5 -14.5t15.5 -38.5q0 -26 -14.5 -41t-34.5 -15q-10 0 -14.5 2.5t-13.5 12.5l-16 18q-8 11 -16 11q-7 0 -24 -25v-146q0 -39 6.5 -50t32.5 -15v-7h-182v8q23 4 27 13t4 51v134q0 36 -3.5 42.5t-27.5 8.5v9z" />
    <glyph glyph-name="s.inferior" horiz-adv-x="304" 
d="M153 180l1 1q60 0 102 -14l-3 -101h-9q-9 47 -42.5 69.5t-65.5 22.5q-33 0 -33 -23q0 -30 43 -48l38 -15q97 -40 97 -108q0 -49 -44 -74t-102 -25q-62 0 -104 15v121h10q44 -113 116 -113q38 0 38 20q0 16 -12 30.5t-50 30.5l-32 12q-36 14 -54.5 44.5t-18.5 65.5
q0 42 33.5 65.5t91.5 23.5z" />
    <glyph glyph-name="t.inferior" horiz-adv-x="246" 
d="M139 -135q-89 0 -89 104v174h-44v32h46v16l109 97v-113h75v-32h-75v-157q0 -37 7 -50.5t27 -13.5q19 0 39 20l8 -6q-22 -34 -44.5 -52.5t-58.5 -18.5z" />
    <glyph glyph-name="u.inferior" horiz-adv-x="359" 
d="M312 49h1v-85q0 -33 4.5 -41.5t27.5 -8.5v-9l-131 -39l-11 61q-30 -62 -84 -62q-83 0 -83 101v119q0 23 -1 33.5t-9 20.5t-25 11v6l150 22q-3 -84 -3 -125v-67q0 -29 5 -43t21 -14t26 8v148q0 22 -1.5 33t-9 21t-23.5 11v6l149 22q-3 -84 -3 -129z" />
    <glyph glyph-name="v.inferior" horiz-adv-x="347" 
d="M208 -123h-86l-85 250q-1 2 -3 7t-3 7l-3 6t-4 5.5t-5.5 4.5t-8 5.5t-10.5 5.5v7h195v-7q-26 -9 -31 -18t2 -30l45 -163l48 141q14 34 12 46.5t-32 23.5v7h108v-7q-5 -2 -13 -5t-11 -4t-8 -3.5t-7 -5t-5 -7.5t-5.5 -11t-6.5 -15z" />
    <glyph glyph-name="w.inferior" horiz-adv-x="479" 
d="M280 -123v1l-38 174l-45 -174h-104l-58 251q-2 16 -8 24t-27 16v7h190v-7q-27 -8 -32.5 -16.5t-0.5 -31.5l35 -160l52 214h80l49 -220l28 142q3 19 3.5 31t-3 18.5t-6 9t-11 6t-12.5 6.5v7h107v-7q-5 -2 -13 -5t-10.5 -3.5t-7 -3.5t-5.5 -5t-4 -7.5t-4 -11.5t-3 -16
l-48 -239h-104z" />
    <glyph glyph-name="x.inferior" horiz-adv-x="370" 
d="M98 -46l-2 2l40 45l-96 132q-2 2 -7.5 9.5t-9 12t-9.5 9.5t-11 6v8h185v-8q-43 -4 -10 -44l31 -43l36 40q14 14 18.5 24.5t-1.5 16t-23 5.5v8h107v-8q-15 0 -31.5 -11.5t-27.5 -22.5t-37 -40l-28 -32l106 -145q1 -1 9 -12.5t14.5 -17.5t13.5 -7v-8h-185v8q39 4 11 43
l-41 56l-48 -54q-20 -20 -19 -33.5t26 -12.5v-8h-107v8q15 0 31.5 11.5t27.5 22.5t37 40z" />
    <glyph glyph-name="y.inferior" horiz-adv-x="339" 
d="M62 -252h-1q-26 0 -33 -1v140h5q18 -54 31 -76t35 -22t38.5 17.5t24.5 41.5l4 13l-130 269q-14 31 -36 38v7h188v-7q-27 -9 -31 -17t6 -28l55 -133l35 108q2 7 6 18.5t5 15t2.5 10.5t-0.5 9t-5.5 6t-9 6t-15.5 5v7h103v-7q-5 -2 -14 -5.5t-12 -5t-8 -4.5t-7.5 -7.5
t-6.5 -11t-8 -17.5l-93 -264q-20 -58 -50 -81.5t-78 -23.5z" />
    <glyph glyph-name="z.inferior" horiz-adv-x="300" 
d="M283 -128h1h-273v6l156 277h-35q-63 0 -87 -115h-11v135h250v-6l-156 -277h53q71 0 90 115h12v-135z" />
    <glyph glyph-name="zero.slashed.inferior" horiz-adv-x="428" 
d="M55 79q0 90 55.5 150.5t124.5 60.5t124.5 -60.5t55.5 -150.5q0 -91 -55.5 -152.5t-124.5 -61.5t-124.5 61.5t-55.5 152.5zM175 79v-44l119 93q-3 69 -15.5 106t-43.5 37q-35 0 -47.5 -51.5t-12.5 -140.5zM235 -116q36 0 48 52t12 143v21l-118 -93q7 -123 58 -123z" />
    <glyph glyph-name="period.inferior" horiz-adv-x="186" 
d="M33 -76q0 26 16.5 43.5t42.5 17.5q27 0 44 -17.5t17 -43.5q0 -25 -17 -42t-44 -17q-26 0 -42.5 17t-16.5 42z" />
    <glyph glyph-name="hyphen.inferior" horiz-adv-x="180" 
d="M21 -2v52h138v-52h-138z" />
    <glyph glyph-name="comma.inferior" horiz-adv-x="186" 
d="M35 -75v1q0 25 17 42.5t43 17.5t42 -18.5t16 -48.5q0 -50 -39.5 -95.5t-90.5 -70.5l-5 8q72 51 72 107q-24 1 -39.5 16.5t-15.5 40.5z" />
    <glyph glyph-name="equal.inferior" horiz-adv-x="383" 
d="M331 66h-279v42h279v-42zM331 -50h-279v42h279v-42z" />
    <glyph glyph-name="plus.inferior" horiz-adv-x="381" 
d="M214 -128h-46v133h-133v43h133v126h46v-126h132v-43h-132v-133z" />
    <glyph glyph-name="minus.inferior" horiz-adv-x="382" 
d="M41 48h300v-43h-300v43z" />
    <glyph glyph-name="one.numerator" horiz-adv-x="289" 
d="M207 735v-1v-347q0 -38 6 -48.5t20 -13.5v-9h-185v8q29 2 38 16.5t9 58.5v270h-71v10q125 21 171 56h12z" />
    <glyph glyph-name="two.numerator" horiz-adv-x="360" 
d="M306 627h-1q0 -40 -37 -84t-70 -63q-43 -31 -87 -67h190v-96h-300v6q18 21 59.5 63t66 69.5t46 72t21.5 89.5q0 29 -19 47t-49 18q-63 0 -82 -63h-19q23 117 152 117q56 0 92.5 -29.5t36.5 -79.5z" />
    <glyph glyph-name="three.numerator" horiz-adv-x="369" 
d="M141 312h1q-53 0 -104 15v106h10q36 -96 97 -96q33 0 55 21.5t22 54.5t-25 64.5t-79 40.5v12l11 6q37 16 52.5 43t15.5 52t-17 37.5t-41 13.5q-65 0 -82 -63h-19q10 55 51 85.5t102 30.5q42 0 78 -20.5t36 -56.5q0 -34 -30 -54.5t-58 -26.5v-2q47 -13 80 -48t33 -79
q0 -64 -55.5 -100t-133.5 -36z" />
    <glyph glyph-name="four.numerator" horiz-adv-x="400" 
d="M305 317h-111v81h-164v101l172 226h103v-237h55v-90h-55v-81zM194 488v179l-136 -179h136z" />
    <glyph glyph-name="five.numerator" horiz-adv-x="352" 
d="M37 508l1 1l77 217h187l-26 -96h-171l-12 -32q91 10 153.5 -28.5t62.5 -115.5q0 -65 -48.5 -103.5t-122.5 -38.5q-52 0 -103 15v106h9q36 -96 98 -96t62 66q0 61 -49.5 91.5t-117.5 13.5z" />
    <glyph glyph-name="six.numerator" horiz-adv-x="397" 
d="M194 310q-69 0 -114 40t-45 117q0 55 29 103.5t76 82.5t96 57.5t101 37.5l6 -17q-158 -79 -187 -195q28 57 95 57q45 0 78.5 -36.5t33.5 -90.5q0 -69 -48.5 -112.5t-120.5 -43.5zM191 537l1 1q-26 0 -40 -16q-2 -7 -2 -34q0 -159 47 -159q52 0 52 112q0 52 -18.5 74
t-39.5 22z" />
    <glyph glyph-name="seven.numerator" horiz-adv-x="341" 
d="M25 629v96h307v-97q-69 -59 -103.5 -133.5t-42.5 -177.5h-125q6 107 72 181.5t177 130.5h-285z" />
    <glyph glyph-name="eight.numerator" horiz-adv-x="366" 
d="M180 310q-65 0 -108 27.5t-43 77.5q0 61 79 90q-61 50 -61 113q0 52 40 84t97 32q54 0 91 -21.5t37 -61.5q0 -26 -21 -48.5t-52 -35.5q50 -26 74 -55t24 -77q0 -56 -47.5 -90.5t-109.5 -34.5zM111 503v-2l4 -8q-6 -4 -10 -8.5t-7 -11t-4.5 -11t-2 -12.5t-0.5 -11.5v-12.5
v-11q0 -83 89 -83q77 0 77 56q0 20 -13.5 36.5t-28 25t-37.5 18.5l-29 13q-31 17 -38 22zM254 646v1q0 36 -17.5 49.5t-51.5 13.5q-59 0 -59 -49q0 -23 11.5 -40t51.5 -35l28 -11l11 -5v1q26 21 26 75z" />
    <glyph glyph-name="nine.numerator" horiz-adv-x="397" 
d="M203 734v1q69 0 114.5 -40t45.5 -117q0 -55 -29 -104t-76 -83t-96 -57.5t-101 -37.5l-7 16q63 29 117.5 79.5t70.5 115.5q-31 -57 -95 -57q-45 0 -78.5 36t-33.5 90q0 69 48.5 113.5t119.5 44.5zM245 525l-1 -4q3 17 3 36q0 158 -48 158q-52 0 -52 -112q0 -54 18 -75
t41 -21q25 0 39 18z" />
    <glyph glyph-name="zero.numerator" horiz-adv-x="386" 
d="M133 524q0 -90 12.5 -142.5t47.5 -52.5q36 0 48 52t12 143q0 90 -12 141t-48 51q-35 0 -47.5 -51.5t-12.5 -140.5zM13 524q0 90 55.5 150.5t124.5 60.5t124.5 -60.5t55.5 -150.5q0 -91 -55.5 -152.5t-124.5 -61.5t-124.5 61.5t-55.5 152.5z" />
    <glyph glyph-name="zero.slashed.numerator" horiz-adv-x="386" 
d="M13 524q0 90 55.5 150.5t124.5 60.5t124.5 -60.5t55.5 -150.5q0 -91 -55.5 -152.5t-124.5 -61.5t-124.5 61.5t-55.5 152.5zM133 524v-44l119 93q-3 69 -15.5 106t-43.5 37q-35 0 -47.5 -51.5t-12.5 -140.5zM193 329q36 0 48 52t12 143v21l-118 -93q7 -123 58 -123z" />
    <glyph glyph-name="one.denominator" horiz-adv-x="289" 
d="M207 418v-1v-347q0 -38 6 -48.5t20 -13.5v-9h-185v8q29 2 38 16.5t9 58.5v270h-71v10q125 21 171 56h12z" />
    <glyph glyph-name="two.denominator" horiz-adv-x="360" 
d="M306 310h-1q0 -40 -37 -84t-70 -63q-43 -31 -87 -67h190v-96h-300v6q18 21 59.5 63t66 69.5t46 72t21.5 89.5q0 29 -19 47t-49 18q-63 0 -82 -63h-19q23 117 152 117q56 0 92.5 -29.5t36.5 -79.5z" />
    <glyph glyph-name="three.denominator" horiz-adv-x="369" 
d="M141 -5h1q-53 0 -104 15v106h10q36 -96 97 -96q33 0 55 22t22 54q0 33 -25 64.5t-79 40.5v12l11 6q37 16 52.5 43t15.5 52q0 24 -17 37t-41 14q-65 0 -82 -63h-19q10 55 51 85.5t102 30.5q42 0 78 -20.5t36 -56.5q0 -34 -30 -54.5t-58 -26.5v-2q47 -13 80 -48t33 -79
q0 -64 -55.5 -100t-133.5 -36z" />
    <glyph glyph-name="four.denominator" horiz-adv-x="400" 
d="M305 0h-111v81h-164v101l172 226h103v-237h55v-90h-55v-81zM194 171v179l-136 -179h136z" />
    <glyph glyph-name="five.denominator" horiz-adv-x="352" 
d="M37 191l1 1l77 217h187l-26 -96h-171l-12 -32q91 10 153.5 -28.5t62.5 -115.5q0 -65 -48.5 -103.5t-122.5 -38.5q-52 0 -103 15v106h9q36 -96 98 -96t62 66q0 61 -49.5 91.5t-117.5 13.5z" />
    <glyph glyph-name="six.denominator" horiz-adv-x="397" 
d="M194 -7q-69 0 -114 40t-45 117q0 55 29 103.5t76 82.5t96 57.5t101 37.5l6 -17q-158 -79 -187 -195q28 57 95 57q45 0 78.5 -36.5t33.5 -90.5q0 -69 -48.5 -112.5t-120.5 -43.5zM191 220l1 1q-26 0 -40 -16q-2 -7 -2 -34q0 -159 47 -159q52 0 52 112q0 52 -18.5 74
t-39.5 22z" />
    <glyph glyph-name="seven.denominator" horiz-adv-x="341" 
d="M25 312v96h307v-97q-69 -59 -103.5 -133.5t-42.5 -177.5h-125q6 107 72 181.5t177 130.5h-285z" />
    <glyph glyph-name="eight.denominator" horiz-adv-x="366" 
d="M180 -7q-65 0 -108 27.5t-43 77.5q0 61 79 90q-61 50 -61 113q0 52 40 84t97 32q54 0 91 -21.5t37 -61.5q0 -26 -21 -48.5t-52 -35.5q50 -26 74 -55t24 -77q0 -56 -47.5 -90.5t-109.5 -34.5zM111 186v-2l4 -8q-6 -4 -10 -8.5t-7 -11t-4.5 -11t-2 -12.5t-0.5 -11.5v-12.5
v-11q0 -83 89 -83q77 0 77 56q0 20 -13.5 36.5t-28 25t-37.5 18.5l-29 13q-31 17 -38 22zM254 329v1q0 36 -17.5 49.5t-51.5 13.5q-59 0 -59 -49q0 -23 11.5 -40t51.5 -35l28 -11l11 -5v1q26 21 26 75z" />
    <glyph glyph-name="nine.denominator" horiz-adv-x="397" 
d="M203 417v1q69 0 114.5 -40t45.5 -117q0 -55 -29 -104t-76 -83t-96 -57.5t-101 -37.5l-7 16q63 29 117.5 79.5t70.5 115.5q-31 -57 -95 -57q-45 0 -78.5 36t-33.5 90q0 69 48.5 113.5t119.5 44.5zM245 208l-1 -4q3 16 3 36q0 158 -48 158q-52 0 -52 -112q0 -54 18 -75
t41 -21q25 0 39 18z" />
    <glyph glyph-name="zero.denominator" horiz-adv-x="386" 
d="M133 207q0 -90 12.5 -142.5t47.5 -52.5q36 0 48 52t12 143q0 90 -12 141t-48 51q-35 0 -47.5 -51.5t-12.5 -140.5zM13 207q0 90 55.5 150.5t124.5 60.5t124.5 -60.5t55.5 -150.5q0 -91 -55.5 -152.5t-124.5 -61.5t-124.5 61.5t-55.5 152.5z" />
    <glyph glyph-name="zero.slashed.denominator" horiz-adv-x="386" 
d="M13 207q0 90 55.5 150.5t124.5 60.5t124.5 -60.5t55.5 -150.5q0 -91 -55.5 -152.5t-124.5 -61.5t-124.5 61.5t-55.5 152.5zM133 207v-44l119 93q-3 69 -15.5 106t-43.5 37q-35 0 -47.5 -51.5t-12.5 -140.5zM193 12q36 0 48 52t12 143v21l-118 -93q7 -123 58 -123z" />
    <glyph glyph-name="ampersand.case" horiz-adv-x="814" 
d="M288 -13v-2q-63 0 -121.5 24t-98.5 74.5t-40 115.5q0 157 222 212q-79 92 -79 180q0 72 67 112.5t160 40.5q103 0 159 -33t56 -91t-51.5 -98.5t-133.5 -62.5l13 -12l167 -161q25 99 -2 197h124q-4 -47 -20 -92.5t-31 -71.5t-40 -63l156 -150l-130 -123l-121 124
q-55 -65 -109.5 -92.5t-146.5 -27.5zM279 379v-1l-15 15q-55 -36 -55 -138q0 -84 54.5 -131t126.5 -47q84 0 132 51zM502 605q0 50 -26 79.5t-66 29.5q-83 0 -83 -81q0 -70 89 -163q86 44 86 135z" />
    <glyph glyph-name="hyphen.case" horiz-adv-x="346" 
d="M44 323v91h258v-91h-258z" />
    <glyph glyph-name="endash.case" horiz-adv-x="518" 
d="M473 336h-428v77h428v-77z" />
    <glyph glyph-name="emdash.case" horiz-adv-x="742" 
d="M698 336h-654v77h654v-77z" />
    <glyph glyph-name="question.case" horiz-adv-x="677" 
d="M349 706q-46 0 -86 -23t-69 -61.5t-49 -77t-34 -81.5h-21l19 243q97 39 239 39q136 0 216 -38.5t80 -117.5q0 -51 -24 -90t-59.5 -59.5t-77.5 -40.5t-77.5 -36t-59.5 -44.5t-24 -65.5v-11h-30v16q0 65 17 112t41 73.5t48 48.5t41 50.5t17 66.5q0 48 -28 72.5t-79 24.5z
M218 80q0 39 26.5 66.5t65.5 27.5q41 0 68 -27t27 -67t-26.5 -66.5t-68.5 -26.5q-39 0 -65.5 27t-26.5 66z" />
    <glyph glyph-name="questiondown.case" horiz-adv-x="677" 
d="M385 26q148 0 238 243h21l-19 -243q-97 -39 -239 -39q-136 0 -216 38.5t-80 117.5q0 51 24 89t59.5 58.5t77.5 40.5t77.5 36t59.5 44t24 65v11h30v-16q0 -65 -17 -112t-41 -72.5t-48 -47t-41 -50t-17 -66.5q0 -48 28 -72.5t79 -24.5zM329 651q0 39 26.5 66.5t65.5 27.5
q41 0 68 -27t27 -67q0 -39 -27 -66t-68 -27q-39 0 -65.5 27t-26.5 66z" />
    <glyph glyph-name="exclam.case" horiz-adv-x="505" 
d="M150 473v228q0 29 51 41t102.5 0t51.5 -41v-229l-92 -230h-20zM162 80q0 39 26.5 66.5t65.5 27.5q41 0 68 -27t27 -67t-26.5 -66.5t-68.5 -26.5q-39 0 -65.5 27t-26.5 66z" />
    <glyph glyph-name="exclamdown.case" horiz-adv-x="505" 
d="M150 33v223l93 231h20l92 -230v-224q0 -29 -51.5 -41t-102.5 -0.5t-51 41.5zM162 651q0 39 26.5 66.5t65.5 27.5q41 0 68 -27t27 -67q0 -39 -26.5 -66t-68.5 -27q-39 0 -65.5 27t-26.5 66z" />
    <glyph glyph-name="guilsinglleft.case" horiz-adv-x="361" 
d="M258 136l-225 235l225 234h49l-111 -234l111 -235h-49z" />
    <glyph glyph-name="guilsinglright.case" horiz-adv-x="362" 
d="M329 371l-225 -235h-49l111 235l-111 234h49z" />
    <glyph glyph-name="guillemotleft.case" horiz-adv-x="566" 
d="M462 136l-225 235l225 234h49l-111 -234l111 -235h-49zM258 136l-225 235l225 234h49l-111 -234l111 -235h-49z" />
    <glyph glyph-name="guillemotright.case" horiz-adv-x="566" 
d="M533 371l-225 -235h-49l111 235l-111 234h49zM329 371l-225 -235h-49l111 235l-111 234h49z" />
    <glyph glyph-name="parenleft.case" horiz-adv-x="372" 
d="M208 331l-1 1q0 -150 24.5 -254t84.5 -179l-14 -17q-121 92 -184.5 199t-63.5 250q0 276 248 472l14 -18q-108 -137 -108 -454z" />
    <glyph glyph-name="parenright.case" horiz-adv-x="372" 
d="M164 331q0 315 -109 454l13 18q249 -196 249 -472q0 -143 -63.5 -250t-185.5 -200l-13 17q60 75 84.5 179t24.5 254z" />
    <glyph glyph-name="bracketleft.case" horiz-adv-x="347" 
d="M77 -31v787h235v-31h-85v-725h85v-31h-235z" />
    <glyph glyph-name="bracketright.case" horiz-adv-x="347" 
d="M270 756v-787h-235v31h85v725h-85v31h235z" />
    <glyph glyph-name="braceleft.case" horiz-adv-x="399" 
d="M356 -30v-2h-44q-113 0 -161.5 25.5t-48.5 96.5v144q0 50 -16 81t-64 31v27q48 0 64 31t16 81v145q0 71 48.5 97t161.5 26h44v-30h-14q-45 0 -62.5 -22t-17.5 -63v-143q0 -66 -33.5 -94t-99.5 -39v-3q66 -11 99.5 -38.5t33.5 -93.5v-144q0 -40 17.5 -61.5t62.5 -21.5h14
v-30z" />
    <glyph glyph-name="braceright.case" horiz-adv-x="399" 
d="M87 -30h-44v30h14q45 0 62.5 21.5t17.5 61.5v144q0 66 33.5 94t99.5 39v3q-66 11 -99.5 39.5t-33.5 94.5v143q0 41 -17.5 63t-62.5 22h-14v30h44q113 0 161.5 -26t48.5 -97v-145q0 -50 16 -81t64 -31v-27q-48 0 -64 -31t-16 -81v-144q0 -71 -48.5 -96.5t-161.5 -25.5z
" />
    <glyph glyph-name="bar.case" horiz-adv-x="239" 
d="M157 0h-75v725h75v-725z" />
    <glyph glyph-name="brokenbar.case" horiz-adv-x="239" 
d="M82 725h75v-260h-75v260zM82 260h75v-260h-75v260z" />
    <glyph glyph-name="periodcentered.case" horiz-adv-x="341" 
d="M77 398q0 39 26.5 66.5t65.5 27.5q41 0 68 -27t27 -67t-27 -66.5t-68 -26.5q-39 0 -65.5 27t-26.5 66z" />
    <glyph glyph-name="bullet.case" horiz-adv-x="453" 
d="M44 381q0 75 52.5 127.5t126.5 52.5q79 0 133 -52.5t54 -127.5q0 -78 -54 -132t-133 -54q-74 0 -126.5 54t-52.5 132z" />
    <glyph glyph-name="plus.case" 
d="M380 95h-81v236h-236v76h236v226h81v-226h235v-76h-235v-236z" />
    <glyph glyph-name="minus.case" 
d="M72 407h534v-76h-534v76z" />
    <glyph glyph-name="divide.case" 
d="M289 144v107h105v-107h-105zM289 480v109h105v-109h-105zM600 325h-522v76h522v-76z" />
    <glyph glyph-name="multiply.case" 
d="M576 187l-57 -57l-181 181l-178 -178l-57 57l178 178l-178 179l57 57l178 -179l178 178l57 -57l-178 -178z" />
    <glyph glyph-name="equal.case" 
d="M587 439h-495v75h495v-75zM587 233h-495v75h495v-75z" />
    <glyph glyph-name="plusminus.case" 
d="M299 466v168h80v-168h230v-75h-230v-172h-80v172h-230v75h230zM609 95h-540v75h540v-75z" />
    <glyph glyph-name="less.case" 
d="M59 404l521 234v-87l-424 -183l424 -180v-86l-521 231v71z" />
    <glyph glyph-name="greater.case" 
d="M620 404v-71l-521 -231v86l424 180l-424 183v87z" />
    <glyph glyph-name="lessequal.case" 
d="M178 427l428 -133v-84l-535 182v70l535 184v-84zM69 95v75h540v-75h-540z" />
    <glyph glyph-name="greaterequal.case" 
d="M500 427l-428 135v84l535 -184v-70l-535 -182v84zM609 95h-540v75h540v-75z" />
    <glyph glyph-name="notequal.case" 
d="M92 439v75h285l83 144l65 -33l-64 -111h125v-75h-167l-75 -131h242v-75h-285l-94 -165l-65 36l74 129h-124v75h167l75 131h-242z" />
    <glyph glyph-name="acute.case" horiz-adv-x="297" 
d="M275 922l-237 -129h-16l52 129h201z" />
    <glyph glyph-name="breve.case" horiz-adv-x="314" 
d="M156 829q82 0 88 93h48q0 -53 -35 -92.5t-101 -39.5q-65 0 -99.5 39.5t-34.5 92.5h48q5 -93 86 -93z" />
    <glyph glyph-name="caron.case" horiz-adv-x="369" 
d="M176 793l-155 129h23l140 -46l140 46h23l-155 -129h-16z" />
    <glyph glyph-name="cedilla.case" horiz-adv-x="261" 
d="M53 -119l72 122h37l-50 -86q17 9 41 9q35 0 60.5 -21t25.5 -50q0 -46 -39.5 -70t-90.5 -24q-43 0 -87 25l13 32q32 -15 62 -15q26 0 45 10.5t19 31.5q0 22 -18 32.5t-41 9t-41 -10.5z" />
    <glyph glyph-name="circumflex.case" horiz-adv-x="369" 
d="M176 922h16l155 -129h-23l-140 46l-140 -46h-23z" />
    <glyph glyph-name="dieresis.case" horiz-adv-x="399" 
d="M244 859q0 27 19.5 47t47.5 20q27 0 46.5 -20t19.5 -47t-19.5 -46t-46.5 -19q-28 0 -47.5 19t-19.5 46zM22 859q0 27 19 47t45 20q29 0 48.5 -20t19.5 -47t-19.5 -46t-48.5 -19q-26 0 -45 19t-19 46z" />
    <glyph glyph-name="dotaccent.case" horiz-adv-x="176" 
d="M11 866q0 32 22 54.5t54 22.5q33 0 55.5 -22.5t22.5 -54.5t-22.5 -54.5t-55.5 -22.5q-32 0 -54 22.5t-22 54.5z" />
    <glyph glyph-name="grave.case" horiz-adv-x="297" 
d="M22 922h201l52 -129h-16z" />
    <glyph glyph-name="hungarumlaut.case" horiz-adv-x="510" 
d="M488 922l-237 -129h-16l52 129h201zM275 922l-237 -129h-16l52 129h201z" />
    <glyph glyph-name="macron.case" horiz-adv-x="345" 
d="M319 818h-296v68h296v-68z" />
    <glyph glyph-name="ogonek.case" horiz-adv-x="255" 
d="M228 -177h-1l5 -9q-53 -35 -102 -35q-41 0 -69.5 24.5t-28.5 65.5q0 35 35.5 67t108.5 67h12q-64 -46 -64 -112q0 -33 16 -55t49 -22q16 0 39 9z" />
    <glyph glyph-name="ring.case" horiz-adv-x="231" 
d="M22 880q0 39 27 66.5t66 27.5t66.5 -27.5t27.5 -66.5q0 -38 -27.5 -65.5t-66.5 -27.5t-66 27.5t-27 65.5zM61 880q0 -25 15 -40.5t39 -15.5q23 0 38.5 15.5t15.5 40.5t-15.5 41t-38.5 16q-24 0 -39 -16t-15 -41z" />
    <glyph glyph-name="tilde.case" horiz-adv-x="378" 
d="M279 866h2q51 0 61 50h16q0 -52 -24 -89t-69 -37q-34 0 -83.5 30.5t-79.5 30.5q-53 0 -63 -51h-16q0 53 24 90t69 37q33 0 83.5 -30.5t79.5 -30.5z" />
    <glyph glyph-name="germandbls.ss03" horiz-adv-x="688" 
d="M246 -216v-1h-162v669q0 157 78.5 238t204.5 81q99 0 159 -33t60 -97q0 -53 -41 -90.5t-90 -55.5v-3q91 -32 145 -97.5t54 -144.5q0 -126 -82 -195t-192 -69q-45 0 -77 6v85h6q39 -35 82 -35q104 0 104 161q0 75 -46 130.5t-151 72.5v22l22 10q70 32 99 73t29 109
q0 115 -95 115q-107 0 -107 -196v-755z" />
    </font>
</defs>
</svg>
