<?xml version="1.0" standalone="no"?>
<!DOCTYPE svg PUBLIC "-//W3C//DTD SVG 1.1//EN" "http://www.w3.org/Graphics/SVG/1.1/DTD/svg11.dtd" >
<svg xmlns="http://www.w3.org/2000/svg" xmlns:xlink="http://www.w3.org/1999/xlink" version="1.1">
<metadata>
Created by FontForge 20170731 at Sun Jul 24 19:26:20 2016
 By Aleksey,,,
Copyright (c) 2014 Swiss Typefaces. All rights reserved.
</metadata>
<defs>
<font id="SuisseWorks-BoldItalic" horiz-adv-x="678" >
  <font-face 
    font-family="Suisse Works"
    font-weight="700"
    font-style="italic"
    font-stretch="normal"
    units-per-em="1000"
    panose-1="2 2 8 4 6 0 0 0 0 0"
    ascent="800"
    descent="-200"
    x-height="538"
    cap-height="725"
    bbox="-150 -313 1506 988"
    underline-thickness="60"
    underline-position="-230"
    slope="-14"
    unicode-range="U+0020-FB02"
  />
<missing-glyph horiz-adv-x="500" 
d="M0 0v725h500v-725h-500zM239 362l-220 334v-667zM260 362l221 -333v667zM250 346l-217 -327h433zM33 706l217 -328l216 328h-433z" />
    <glyph glyph-name=".notdef" horiz-adv-x="500" 
d="M0 0v725h500v-725h-500zM239 362l-220 334v-667zM260 362l221 -333v667zM250 346l-217 -327h433zM33 706l217 -328l216 328h-433z" />
    <glyph glyph-name=".null" horiz-adv-x="0" 
 />
    <glyph glyph-name="nonmarkingreturn" horiz-adv-x="200" 
 />
    <glyph glyph-name="space" unicode=" " horiz-adv-x="200" 
 />
    <glyph glyph-name="exclam" unicode="!" horiz-adv-x="423" 
d="M157 453l64 255q9 35 77 44q66 9 99 -14q18 -12 13 -30l-64 -256l-144 -240h-20zM169 -13q-39 0 -65.5 27t-26.5 66t26.5 66.5t65.5 27.5q41 0 68 -27t27 -67t-27 -66.5t-68 -26.5z" />
    <glyph glyph-name="quotedbl" unicode="&#x22;" horiz-adv-x="410" 
d="M87 725h142l-43 -273h-55zM267 725h142l-43 -273h-55z" />
    <glyph glyph-name="numbersign" unicode="#" horiz-adv-x="676" 
d="M66 535h143l27 190h75l-27 -190h159l27 190h75l-27 -190h136l-10 -72h-136l-24 -166h136l-9 -72h-137l-31 -225h-75l31 225h-158l-31 -225h-76l31 225h-143l10 72h143l24 166h-143zM274 463l-23 -166h158l24 166h-159z" />
    <glyph glyph-name="dollar" unicode="$" horiz-adv-x="673" 
d="M222 -102v-2l22 90q-103 6 -171.5 67t-56.5 140h160q-21 -60 -1 -112t78 -60l67 268l-52 37q-66 44 -98.5 88t-32.5 98q0 74 45 127t110 76.5t141 25.5l26 103h47l-27 -106q96 -10 158.5 -69t52.5 -134h-160q18 56 3 105t-63 63l-61 -244l41 -28q37 -27 52 -37.5
t40.5 -32.5t35.5 -37.5t19 -37.5t9 -46q0 -62 -26.5 -110.5t-72.5 -77.5t-100 -45t-116 -19l-22 -90h-47zM449 142q0 33 -22 60.5t-67 59.5l-60 -241q149 10 149 121zM288 595v1q0 -53 59 -96l22 -16l56 222q-137 -6 -137 -111z" />
    <glyph glyph-name="percent" unicode="%" horiz-adv-x="1109" 
d="M199 329q39 0 70.5 58t46 132.5t14.5 141.5q0 55 -34 55q-38 0 -69.5 -57t-46.5 -131.5t-15 -141.5q0 -57 34 -57zM61 488q0 105 76 176t158 71q60 0 100 -46.5t40 -126.5q0 -101 -78 -176.5t-159 -75.5q-57 0 -97 47.5t-40 130.5zM338 0h-75l508 725h75zM857 12
q39 0 70.5 58t46 132.5t14.5 141.5q0 55 -34 55q-38 0 -69.5 -57t-46.5 -131.5t-15 -141.5q0 -57 34 -57zM719 171q0 105 76 176t158 71q60 0 100 -46.5t40 -126.5q0 -101 -78 -176.5t-159 -75.5q-57 0 -97 47.5t-40 130.5z" />
    <glyph glyph-name="ampersand" unicode="&#x26;" horiz-adv-x="798" 
d="M31 181l2 2q0 53 22.5 96.5t62 72.5t87 48t104.5 30q-40 67 -40 126q0 50 22.5 88.5t60.5 59.5t81 31.5t89 10.5q83 0 136 -33t53 -80q0 -121 -227 -185l3 -6l136 -181q55 94 55 217h116q-10 -40 -25 -74.5t-41.5 -68.5t-39 -48t-46.5 -50l114 -151l-135 -105l-92 130
q-71 -67 -131 -95.5t-138 -28.5q-98 0 -163.5 55t-65.5 139zM334 391l-9 12q-58 -24 -84.5 -71t-26.5 -105q0 -64 41 -109t100 -45q81 0 156 67zM607 631q0 40 -27.5 63t-62.5 23q-49 0 -75.5 -29t-26.5 -73q0 -62 52 -141q65 28 102.5 64.5t37.5 92.5z" />
    <glyph glyph-name="quotesingle" unicode="'" horiz-adv-x="229" 
d="M87 725h142l-43 -273h-55z" />
    <glyph glyph-name="parenleft" unicode="(" horiz-adv-x="333" 
d="M428 803l10 -18q-74 -73 -132 -177.5t-90 -211.5t-48 -202.5t-16 -171.5q0 -195 34 -258l-21 -14q-29 44 -49 77.5t-44 84t-36.5 106t-12.5 112.5q0 395 405 673z" />
    <glyph glyph-name="parenright" unicode=")" horiz-adv-x="350" 
d="M-78 -250v-1l-10 17q74 73 132 178t90 211.5t48 202t16 171.5q0 195 -34 258l21 15q40 -58 66 -104.5t51 -124t25 -151.5q0 -397 -405 -672z" />
    <glyph glyph-name="asterisk" unicode="*" horiz-adv-x="387" 
d="M279 728v-121l118 43l21 -55l-118 -39l71 -101l-45 -34l-75 103l-71 -103l-49 33l72 101l-117 40l19 55l116 -43v121h58z" />
    <glyph glyph-name="plus" unicode="+" 
d="M360 0h-81v236h-236v76h236v226h81v-226h235v-76h-235v-236z" />
    <glyph glyph-name="comma" unicode="," horiz-adv-x="349" 
d="M148 -10q-39 1 -64 26.5t-25 64.5t26 66t67 27q42 0 67.5 -29.5t25.5 -74.5q0 -50 -25.5 -97.5t-65.5 -82t-81.5 -59t-81.5 -38.5l-7 16q164 92 164 181z" />
    <glyph glyph-name="hyphen" unicode="-" horiz-adv-x="368" 
d="M44 227l23 91h258l-23 -91h-258z" />
    <glyph glyph-name="period" unicode="." horiz-adv-x="347" 
d="M149 -13q-39 0 -65.5 27t-26.5 66t26.5 66.5t65.5 27.5q41 0 68 -27t27 -67t-27 -66.5t-68 -26.5z" />
    <glyph glyph-name="slash" unicode="/" horiz-adv-x="509" 
d="M16 -72h-71l558 858h71z" />
    <glyph glyph-name="zero" unicode="0" horiz-adv-x="714" 
d="M277 22q55 0 104 60t79 149t47.5 184t17.5 171q0 122 -77 122q-54 0 -102.5 -59.5t-79.5 -147t-48.5 -182.5t-17.5 -173q0 -124 77 -124zM44 276q0 119 61 228.5t155.5 173.5t191.5 64q103 0 166.5 -77t63.5 -205q0 -116 -61.5 -227t-157 -178.5t-191.5 -67.5
q-102 0 -165 79t-63 210z" />
    <glyph glyph-name="one" unicode="1" horiz-adv-x="515" 
d="M452 739l-150 -603q-18 -75 -11 -94t54 -25l-4 -17h-335l4 17q69 6 90 27t42 101l118 474h-132l5 20q192 22 298 100h21z" />
    <glyph glyph-name="two" unicode="2" horiz-adv-x="589" 
d="M-89 0v-1l3 12q236 188 294 239q153 136 184 232q10 31 10 61q0 51 -31 79.5t-80 28.5q-58 0 -104 -28.5t-68 -86.5h-32q33 102 108 154t184 52q84 0 139.5 -41.5t55.5 -109.5q0 -75 -65.5 -148t-197.5 -167l-184 -132h344l-36 -144h-524z" />
    <glyph glyph-name="three" unicode="3" horiz-adv-x="584" 
d="M135 -11h1q-105 0 -178 30l45 182h18q4 -169 131 -169q73 0 127.5 54t54.5 128q0 52 -35 94.5t-114 55.5l6 22l24 10q88 34 130 86.5t42 92.5q0 37 -26 56.5t-70 20.5q-130 0 -174 -115h-32q31 98 112 151.5t186 53.5q73 0 124.5 -32t51.5 -87q0 -102 -195 -175l-1 -3
q66 -25 105.5 -72t39.5 -110t-34 -116.5t-89 -87t-120 -52t-130 -18.5z" />
    <glyph glyph-name="four" unicode="4" horiz-adv-x="677" 
d="M434 0h-163l44 178h-341l30 118l466 429h145l-104 -415h125l-33 -132h-125zM348 310l79 317l-346 -317h267z" />
    <glyph glyph-name="five" unicode="5" horiz-adv-x="561" 
d="M62 376l212 349h327l-77 -143h-294l-43 -71q142 -19 218 -83.5t76 -160.5q0 -75 -52.5 -140t-133.5 -101.5t-167 -36.5q-94 0 -172 30l45 182h18q7 -169 131 -169q69 0 117 47t48 115q0 78 -64 126.5t-189 55.5z" />
    <glyph glyph-name="six" unicode="6" horiz-adv-x="670" 
d="M614 322q0 -134 -101.5 -234.5t-229.5 -100.5q-109 0 -176 66.5t-67 180.5q0 82 35.5 158t93 134t134.5 107.5t156 82.5t162 56l6 -31q-129 -40 -223.5 -130.5t-144.5 -208.5q82 100 187 100q75 0 121.5 -47.5t46.5 -132.5zM358 424q-54 0 -114 -60q-34 -95 -34 -194
q0 -145 75 -145q60 0 105.5 81.5t45.5 182.5q0 135 -78 135z" />
    <glyph glyph-name="seven" unicode="7" horiz-adv-x="619" 
d="M236 0h-181q20 106 74.5 199t132.5 164t164.5 124.5t186.5 94.5h-509l34 143h547l-34 -145q-378 -220 -415 -580z" />
    <glyph glyph-name="eight" unicode="8" horiz-adv-x="660" 
d="M16 158v1q0 134 224 211q-102 89 -102 181q0 82 79 137t201 55q95 0 157 -39.5t62 -106.5q0 -109 -198 -176q39 -30 62 -49.5t50 -48.5t39.5 -58.5t12.5 -61.5q0 -58 -31.5 -102t-83.5 -67.5t-108.5 -35t-115.5 -11.5q-101 0 -174.5 47.5t-73.5 123.5zM116 157h1
q0 -58 40 -94.5t117 -36.5q75 0 127 27t52 91q0 27 -19 55t-34 41.5t-59 49.5l-65 52q-2 2 -6 4t-5 4q-149 -71 -149 -193zM541 592q0 56 -33.5 85t-91.5 29q-61 0 -100 -23.5t-39 -70.5q0 -37 20 -65t65 -63l55 -44q60 33 92 68.5t32 83.5z" />
    <glyph glyph-name="nine" unicode="9" horiz-adv-x="647" 
d="M64 409q0 134 101.5 235t229.5 101q109 0 176 -66.5t67 -180.5q0 -83 -35.5 -159t-92.5 -133.5t-134 -107t-156 -82.5t-162 -56l-7 30q128 38 222 128.5t145 208.5q-82 -98 -186 -98q-75 0 -121.5 48t-46.5 132zM321 308h1q50 0 111 57q35 100 35 196q0 145 -75 145
q-60 0 -105.5 -81.5t-45.5 -182.5q0 -134 79 -134z" />
    <glyph glyph-name="colon" unicode=":" horiz-adv-x="395" 
d="M149 -13q-39 0 -65.5 27t-26.5 66t26.5 66.5t65.5 27.5q41 0 68 -27t27 -67t-27 -66.5t-68 -26.5zM241 357q-39 0 -65.5 27t-26.5 66t26.5 66.5t65.5 27.5q41 0 68 -27t27 -67t-27 -66.5t-68 -26.5z" />
    <glyph glyph-name="semicolon" unicode=";" horiz-adv-x="398" 
d="M148 -10q-39 1 -64 26.5t-25 64.5t26 66t67 27q42 0 67.5 -29.5t25.5 -74.5q0 -50 -25.5 -97.5t-65.5 -82t-81.5 -59t-81.5 -38.5l-7 16q164 92 164 181zM243 357q-39 0 -65.5 27t-26.5 66t26.5 66.5t65.5 27.5q41 0 68 -27t27 -67t-27 -66.5t-68 -26.5z" />
    <glyph glyph-name="less" unicode="&#x3c;" 
d="M39 309l521 234v-87l-424 -183l424 -180v-86l-521 231v71z" />
    <glyph glyph-name="equal" unicode="=" 
d="M567 344h-495v75h495v-75zM567 138h-495v75h495v-75z" />
    <glyph glyph-name="greater" unicode="&#x3e;" 
d="M600 309v-71l-521 -231v86l424 180l-424 183v87z" />
    <glyph glyph-name="question" unicode="?" horiz-adv-x="629" 
d="M624 621q0 -47 -24 -83.5t-60.5 -58t-81.5 -45t-86 -45.5t-75 -59t-47 -85l-3 -11h-31l2 9q15 67 40.5 118t52.5 77t55 49t50 39t36 42.5t14 62.5q0 37 -21.5 56.5t-58.5 19.5q-113 0 -215 -192h-20l50 201q85 36 194 36q104 0 166.5 -34.5t62.5 -96.5zM208 -13
q-39 0 -65.5 27t-26.5 66t26.5 66.5t65.5 27.5q41 0 68 -27t27 -67t-26.5 -66.5t-68.5 -26.5z" />
    <glyph glyph-name="at" unicode="@" horiz-adv-x="853" 
d="M816 413h2q0 -117 -54 -186.5t-127 -69.5q-44 0 -71.5 27.5t-31.5 73.5q-50 -96 -159 -96q-64 0 -106 45t-42 133q0 95 58 166t151 71q87 0 117 -86l8 67h64l-32 -224q-2 -22 -2 -35q0 -77 52 -77q45 0 75 50t30 137q0 128 -80 196.5t-213 68.5q-144 0 -235 -92t-91 -230
q0 -132 78 -214.5t210 -82.5q109 0 199 42l24 -63q-103 -47 -223 -47q-160 0 -259.5 103t-99.5 264q0 163 114 272.5t285 109.5q158 0 258.5 -83t100.5 -240zM530 403q0 52 -24 79.5t-68 27.5q-59 0 -96 -50.5t-37 -121.5q0 -112 90 -112q61 0 98 52t37 125z" />
    <glyph glyph-name="A" unicode="A" horiz-adv-x="760" 
d="M-78 0l1 -1l4 16q47 9 77.5 38t96.5 134l324 528q70 13 104 50h4l82 -644q6 -56 19 -77t51 -28l-4 -16h-316l5 16q45 6 60 23t8 60l-16 141h-236l-10 -18q-27 -46 -43.5 -80t-21 -55.5t-4 -35t12.5 -20.5t21.5 -9.5t28.5 -5.5l-5 -16h-243zM387 573l-172 -288h203z" />
    <glyph glyph-name="B" unicode="B" horiz-adv-x="753" 
d="M134 725h1h153q23 0 84.5 1t106.5 1q133 0 193 -33t60 -98q0 -75 -58.5 -131.5t-148.5 -75.5l-1 -2q70 -11 118 -51.5t48 -107.5q0 -55 -27 -97t-68.5 -66.5t-98.5 -40t-108.5 -21t-107.5 -5.5q-23 0 -72 1t-78 1h-175l4 16q68 8 89.5 30t41.5 100l108 433q19 76 7.5 98
t-75.5 32zM319 359h-1l-65 -260q-10 -45 -2.5 -54.5t42.5 -9.5q102 0 154.5 56t52.5 149q0 62 -31.5 90.5t-107.5 28.5h-42zM401 689l-75 -298h45q85 0 132.5 56t47.5 143q0 50 -26.5 74.5t-86.5 24.5h-37z" />
    <glyph glyph-name="C" unicode="C" horiz-adv-x="723" 
d="M689 470h-21q-4 49 -7.5 76.5t-13.5 62t-25.5 52t-42.5 30t-65 12.5q-67 0 -123.5 -48.5t-90.5 -122t-52.5 -153.5t-18.5 -151q0 -189 153 -189q148 0 252 183l26 -15q-24 -52 -53 -90.5t-68 -68.5t-90.5 -45.5t-115.5 -15.5q-128 0 -211 76t-83 206q0 134 71 244
t183 169.5t238 59.5q110 0 198 -42z" />
    <glyph glyph-name="D" unicode="D" horiz-adv-x="822" 
d="M134 725v1h281q82 0 151 -16.5t124.5 -50t87 -90t31.5 -130.5q0 -90 -33 -165t-88 -124.5t-128 -84t-151.5 -49.5t-161.5 -15h-292l3 16q68 8 89.5 30t41.5 100l108 433q20 77 9 98t-75 31zM238 37h27q108 0 190 60t122.5 155.5t40.5 209.5q0 121 -45.5 174.5
t-146.5 53.5h-25z" />
    <glyph glyph-name="E" unicode="E" horiz-adv-x="718" 
d="M134 725l-2 1h344q202 0 258 2l-49 -267h-22q-1 44 -4.5 72t-13 56.5t-26 45t-43.5 30.5t-66.5 19.5t-94.5 5.5h-16l-73 -293h137l89 120h19l-71 -285h-19l-29 121h-137l-70 -279q-6 -24 4 -30.5t48 -6.5q121 0 194.5 53.5t138.5 175.5h22l-86 -267q-58 2 -271 2h-340
l3 16q68 8 89.5 30t41.5 100l108 433q20 77 9 98t-75 31z" />
    <glyph glyph-name="F" unicode="F" horiz-adv-x="658" 
d="M-46 0h-2l4 16q68 8 89.5 30t41.5 100l108 433q19 81 8.5 100.5t-74.5 29.5l4 16h355q191 0 247 2l-50 -267h-22q-2 53 -6.5 84.5t-18.5 62.5t-40.5 47t-71 25.5t-110.5 9.5h-15l-73 -293h136l88 120h19l-71 -285h-19l-28 121h-136l-52 -206q-20 -77 -7.5 -99.5
t89.5 -30.5l-4 -16h-389z" />
    <glyph glyph-name="G" unicode="G" horiz-adv-x="787" 
d="M360 -13q-153 0 -243 77t-90 209q0 94 38.5 180t105 150t161.5 101.5t204 37.5q47 0 110 -11.5t102 -30.5l-39 -230h-20q-4 45 -9 76t-16 63t-28 51t-45 31t-67 12q-72 0 -132.5 -45.5t-97.5 -116.5t-57 -152.5t-20 -160.5q0 -92 39.5 -147t112.5 -55q98 0 123 96l11 42
q20 79 8 99.5t-85 30.5l5 18h349l-5 -18q-52 -8 -65.5 -25.5t-32.5 -104.5l-25 -100q-53 -36 -131.5 -56.5t-160.5 -20.5z" />
    <glyph glyph-name="H" unicode="H" horiz-adv-x="882" 
d="M811 579v4l-108 -433q-19 -75 -8 -99t75 -32l-4 -16h-373l3 16q68 8 89.5 30t41.5 100l51 206h-262l-51 -206q-19 -75 -8 -99t75 -32l-4 -16h-373l3 16q68 8 89.5 30t41.5 100l108 433q20 77 9 98t-75 31l3 16h375l-4 -16q-69 -10 -90.5 -31t-41.5 -99l-46 -183h262
l46 183q20 77 9 98t-75 31l3 16h375l-4 -16q-69 -10 -90.5 -31t-41.5 -99z" />
    <glyph glyph-name="I" unicode="I" horiz-adv-x="445" 
d="M373 579v2l-108 -433q-19 -75 -8 -99t75 -32l-4 -16h-373l3 16q68 8 89.5 30t41.5 100l108 433q20 77 9 98t-75 31l3 16h375l-4 -16q-69 -10 -90.5 -31t-41.5 -99z" />
    <glyph glyph-name="J" unicode="J" horiz-adv-x="503" 
d="M453 579h1l-86 -348q-18 -72 -52.5 -122t-78.5 -75.5t-87 -36t-91 -10.5q-70 0 -114 14l48 191h11q7 -33 12.5 -54t16 -51t24.5 -45.5t32 -15.5q19 0 31 9.5t29 52.5t39 130l90 361q19 76 7.5 98t-75.5 32l5 16h374l-4 -16q-70 -11 -91 -31.5t-41 -98.5z" />
    <glyph glyph-name="K" unicode="K" horiz-adv-x="814" 
d="M373 579v2l-108 -433q-19 -75 -8 -99t75 -32l-4 -16h-373l3 16q68 8 89.5 30t41.5 100l108 433q20 77 9 98t-75 31l3 16h375l-4 -16q-69 -10 -90.5 -31t-41.5 -99zM318 358l1 -1l255 217q115 100 78 125q-14 9 -46 11l3 16h265l-3 -16q-52 -6 -101.5 -34.5t-133.5 -100.5
l-166 -141l162 -314q27 -54 55 -77.5t64 -24.5l-3 -16h-355l3 16q39 1 56.5 18.5t2.5 49.5z" />
    <glyph glyph-name="L" unicode="L" horiz-adv-x="651" 
d="M373 579l-1 1l-126 -507q-9 -36 26 -36q88 0 149 30.5t99.5 81.5t87.5 146h21l-92 -294h-582l3 16q68 8 89.5 30t41.5 100l108 433q20 77 9 98t-75 31l3 16h375l-4 -16q-69 -10 -90.5 -31t-41.5 -99z" />
    <glyph glyph-name="M" unicode="M" horiz-adv-x="1000" 
d="M1064 725l1 3l-3 -16q-70 -11 -91 -31.5t-41 -98.5l-108 -433q-19 -76 -8 -99.5t73 -31.5l-3 -16h-374l3 16q68 8 90 30t42 100l121 483l-371 -600h-49l-84 615l-125 -498q-19 -75 -8 -99t75 -32l-3 -16h-246l3 16q68 8 89.5 30t41.5 100l108 433q20 77 9 98t-75 31l3 16
h287l65 -468l288 468h290z" />
    <glyph glyph-name="N" unicode="N" horiz-adv-x="807" 
d="M606 140l2 1l109 439q19 76 7.5 98t-75.5 32l4 16h246l-3 -16q-70 -11 -91 -31.5t-41 -98.5l-144 -579h-149l-231 555l-102 -409q-19 -75 -8 -99t75 -32l-3 -16h-246l3 16q68 8 89.5 30t41.5 100l120 482l-1 4q-18 40 -30 57t-29 23l4 13h208z" />
    <glyph glyph-name="O" unicode="O" horiz-adv-x="814" 
d="M38 269q0 117 59 225t167 178t235 70q123 0 205 -76t82 -205q0 -88 -35.5 -173.5t-95.5 -152t-147 -107.5t-183 -41q-123 0 -205 76.5t-82 205.5zM229 228q0 -202 110 -202q59 0 110 48.5t82 122t48 153.5t17 151q0 202 -111 202q-59 0 -109.5 -48.5t-81.5 -122
t-48 -153.5t-17 -151z" />
    <glyph glyph-name="P" unicode="P" horiz-adv-x="720" 
d="M134 725h-1h161q5 0 76.5 0.5t75.5 0.5q311 0 311 -171q0 -64 -32 -112.5t-85 -76t-113.5 -41t-125.5 -13.5q-66 0 -94 5l-43 -171q-21 -74 -7 -98t87 -32l-3 -16h-387l3 16q68 8 89.5 30t41.5 100l108 433q19 81 8.5 100.5t-74.5 29.5zM400 692h-1l-89 -357q4 0 11 -0.5
t11 -0.5q105 0 167.5 61t62.5 163q0 72 -35 103t-102 31h-25z" />
    <glyph glyph-name="Q" unicode="Q" horiz-adv-x="814" 
d="M38 269q0 117 59 225t167 178t235 70q123 0 205 -76t82 -205q0 -113 -55.5 -218.5t-157 -176t-222.5 -78.5l-56 -37q-2 -1 -10 -6.5t-13 -7.5l-14 -8l1 -2q49 19 111 19q50 0 82.5 -13.5t47.5 -32.5t27 -38.5t32.5 -33t53.5 -13.5q35 0 57 9l8 -29q-44 -22 -123 -22
q-74 0 -121 14t-65.5 34t-29.5 40t-26 34t-43 14q-37 0 -90 -34l-16 26l132 88q-112 9 -185 84t-73 196zM229 228q0 -202 110 -202q59 0 110 48.5t82 122t48 153.5t17 151q0 202 -111 202q-59 0 -109.5 -48.5t-81.5 -122t-48 -153.5t-17 -151z" />
    <glyph glyph-name="R" unicode="R" horiz-adv-x="796" 
d="M134 725l-1 -1h161q4 0 73.5 0.5t72.5 0.5q311 0 311 -149q0 -157 -227 -204q32 -23 68 -118l54 -147q20 -53 37 -68t65 -23l-3 -16h-256q-13 52 -49 152l-71 193h-55l-50 -199q-21 -74 -7 -98t87 -32l-3 -16h-387l3 16q68 8 89.5 30t41.5 100l108 433q19 81 8.5 100.5
t-74.5 29.5zM427 689h-27l-77 -308h27q214 0 214 205q0 55 -34 79t-103 24z" />
    <glyph glyph-name="S" unicode="S" horiz-adv-x="660" 
d="M584 240h1q0 -65 -31.5 -115.5t-84 -79.5t-113 -43.5t-125.5 -14.5q-142 0 -236 53l59 241h19q1 -37 3 -60t7 -57t16 -55t28.5 -42t46 -31t66.5 -10q186 0 186 118q0 60 -88 121l-92 64q-66 44 -98.5 88t-32.5 98q0 74 49 127.5t119 77t148 23.5q54 0 116.5 -10.5
t99.5 -28.5l-54 -214h-20q-3 35 -6.5 58.5t-13.5 56t-24.5 51.5t-42 33.5t-63.5 14.5q-64 0 -110.5 -23.5t-46.5 -82.5q0 -53 59 -96l102 -71q33 -23 44.5 -31.5t36 -27.5t33.5 -30t21.5 -29t17 -35.5t4.5 -37.5z" />
    <glyph glyph-name="T" unicode="T" horiz-adv-x="721" 
d="M232 146h-2l136 542q-103 0 -169.5 -57.5t-130.5 -182.5h-22l87 279q54 -2 268 -2h130q212 0 268 2l-52 -279h-22q-1 41 -2.5 63t-5.5 52t-11.5 45.5t-20 33.5t-31.5 26.5t-45.5 14t-62.5 5.5l-136 -542q-20 -76 -7 -99t84 -31l-4 -16h-397l5 16q76 8 99.5 30t43.5 100z
" />
    <glyph glyph-name="U" unicode="U" horiz-adv-x="830" 
d="M793 579v2l-70 -281q-76 -311 -362 -311q-153 0 -222 70t-31 221l75 301q15 49 12.5 76t-18 36.5t-60.5 16.5l4 16h375l-5 -16q-69 -10 -90.5 -31t-41.5 -99l-70 -281q-31 -119 -1.5 -180t131.5 -61q101 0 161 59t90 179l70 284q15 49 12.5 76t-18 36.5t-60.5 16.5l4 16
h251l-4 -16q-70 -11 -91 -31.5t-41 -98.5z" />
    <glyph glyph-name="V" unicode="V" horiz-adv-x="736" 
d="M232 0l-62 608q-6 55 -19 74t-51 27l3 16h326l-4 -16q-44 -6 -57.5 -23t-10.5 -56l36 -474l201 347q31 53 46 91t17 58.5t-9.5 33t-24.5 16.5t-36 7l3 16h248l-3 -16q-49 -9 -79 -37.5t-92 -134.5l-310 -537h-122z" />
    <glyph glyph-name="W" unicode="W" horiz-adv-x="1033" 
d="M1135 725v-1l-3 -16q-27 -5 -42 -10.5t-36.5 -22t-43.5 -50.5t-49 -89l-263 -537h-137l-18 440l-213 -440h-137l-25 607q-4 56 -16.5 75t-51.5 27l3 16h320l-3 -16q-42 -6 -56.5 -23.5t-14.5 -56.5l5 -473l185 375l-3 87q-4 54 -15.5 68.5t-52.5 23.5l3 16h320l-3 -16
q-44 -6 -57.5 -19.5t-13.5 -49.5l5 -484l169 347q27 55 40 92.5t15.5 58.5t-7 33t-21 15.5t-34.5 6.5l3 16h248z" />
    <glyph glyph-name="X" unicode="X" horiz-adv-x="815" 
d="M455 85h-2l-90 207l-167 -162q-24 -24 -37 -41.5t-17 -34t10.5 -26t48.5 -12.5l-4 -16h-277l3 16q42 4 79.5 21t61 36t59.5 53l220 213l-121 279q-39 91 -91 91l3 16h372l-3 -16q-62 -6 -81.5 -21t-5.5 -48l70 -164l123 119q24 24 37 41.5t17 34t-10.5 26t-48.5 12.5
l4 16h278l-3 -16q-43 -4 -81 -21.5t-60.5 -35.5t-59.5 -53l-175 -170l139 -322q37 -91 93 -91l-4 -16h-372l3 16q63 6 83 21t6 48z" />
    <glyph glyph-name="Y" unicode="Y" horiz-adv-x="760" 
d="M447 294v1l-37 -148q-19 -77 -6 -99.5t84 -30.5l-4 -16h-396l3 16q76 8 99.5 30t43.5 100l35 140l-102 332q-20 58 -29 71.5t-39 19.5l3 16h320l-3 -16q-47 -6 -63.5 -20t-7.5 -49l86 -299l188 217q49 58 62.5 89.5t0.5 43.5t-54 18l3 16h228l-3 -16q-42 -9 -70.5 -31.5
t-114.5 -122.5z" />
    <glyph glyph-name="Z" unicode="Z" horiz-adv-x="706" 
d="M193 36h69q98 0 163 26t105.5 72.5t83.5 130.5h21l-84 -267q-53 2 -244 2h-342l3 13l563 676h-46q-66 0 -114.5 -10t-81 -25t-61.5 -47t-48 -62.5t-47 -84.5h-22l84 267q54 -2 245 -2h320l-3 -13z" />
    <glyph glyph-name="bracketleft" unicode="[" horiz-adv-x="386" 
d="M-28 -216l245 988h234l-13 -52h-85l-219 -884h85l-13 -52h-234z" />
    <glyph glyph-name="backslash" unicode="\" horiz-adv-x="509" 
d="M574 -72h-71l-558 858h71z" />
    <glyph glyph-name="bracketright" unicode="]" horiz-adv-x="391" 
d="M424 772l-245 -988h-234l13 52h85l219 884h-86l14 52h234z" />
    <glyph glyph-name="asciicircum" unicode="^" horiz-adv-x="440" 
d="M258 725l204 -393h-88l-153 293l-152 -293h-87l202 393h74z" />
    <glyph glyph-name="underscore" unicode="_" horiz-adv-x="444" 
d="M-16 -79l19 78h393l-19 -78h-393z" />
    <glyph glyph-name="grave" unicode="`" horiz-adv-x="306" 
d="M39 772h190l31 -169h-14z" />
    <glyph glyph-name="a" unicode="a" horiz-adv-x="620" 
d="M143 -13v1q-55 0 -88 43.5t-33 122.5q0 89 42.5 180t118 152.5t159.5 61.5q44 0 75 -22l158 22q-4 -14 -61 -225l-51 -205q-10 -63 21 -63q47 0 110 100l16 -9q-41 -80 -89.5 -119t-96.5 -39q-55 0 -85.5 28.5t-30.5 84.5q0 19 3 42q-59 -156 -168 -156zM227 74h-1
q16 0 37 27.5t48.5 96.5t52.5 169l30 123q-17 22 -40 22q-43 0 -80.5 -65t-57 -149.5t-19.5 -156.5q0 -67 30 -67z" />
    <glyph glyph-name="b" unicode="b" horiz-adv-x="581" 
d="M27 54l141 562q17 66 11 82t-55 18l4 16l252 71q-6 -24 -60 -224l-52 -189q59 157 169 157q55 0 88 -43.5t33 -122.5q0 -89 -42.5 -180t-118 -152.5t-158.5 -61.5q-111 0 -212 67zM217 169l-32 -120q2 -10 14 -18t28 -8q43 0 80 65t56.5 149.5t19.5 156.5q0 66 -31 66
q-16 0 -36.5 -27t-47 -95t-51.5 -169z" />
    <glyph glyph-name="c" unicode="c" horiz-adv-x="496" 
d="M22 166q0 154 98 267.5t225 113.5q152 0 138 -179h-143q30 89 26 117q-4 27 -32 27q-41 0 -74.5 -55.5t-50 -126t-16.5 -129.5q0 -50 20 -79t57 -29q38 0 81.5 28.5t75.5 100.5l19 -8q-88 -227 -270 -227q-77 0 -115.5 49t-38.5 130z" />
    <glyph glyph-name="d" unicode="d" horiz-adv-x="622" 
d="M406 531l1 1l21 85q17 66 11 82t-55 18l4 16l252 71q-30 -104 -60 -224l-116 -460q-14 -65 21 -65q47 0 110 100l16 -9q-41 -80 -89.5 -119t-96.5 -39q-112 0 -117 113q0 19 3 42q-59 -156 -168 -156q-55 0 -88 44t-33 123q0 90 42.5 180t117.5 150.5t159 60.5
q37 0 65 -14zM228 74q17 0 37.5 27.5t47.5 96.5t52 169l31 122q-16 23 -42 23q-43 0 -80 -64.5t-56.5 -149t-19.5 -156.5q0 -68 30 -68z" />
    <glyph glyph-name="e" unicode="e" horiz-adv-x="507" 
d="M22 166l1 1q0 156 99.5 268.5t237.5 112.5q59 0 101 -26t42 -76q0 -96 -122 -126l-186 -47q-6 -39 -6 -73q0 -50 20.5 -78.5t60.5 -28.5q97 0 158 129l19 -8q-88 -227 -270 -227q-76 0 -115.5 49.5t-39.5 129.5zM329 513q-41 0 -75.5 -61.5t-52.5 -145.5l35 9
q65 17 94.5 60t29.5 93q0 45 -31 45z" />
    <glyph glyph-name="f" unicode="f" horiz-adv-x="417" 
d="M20 0h-1l122 488h-79l12 50h79v3q19 77 69.5 130.5t113.5 77t136 23.5q26 0 53 -3l-35 -141h-11q-33 61 -52 76q-17 13 -35 13q-45 0 -67.5 -29.5t-17.5 -118.5l2 -31h147l-12 -50h-140l-122 -488h-162z" />
    <glyph glyph-name="g" unicode="g" horiz-adv-x="603" 
d="M76 325v2q0 86 81.5 154t201.5 68q35 0 65 -9h210l-12 -50l-124 5q34 -37 34 -90q0 -87 -81.5 -154.5t-201.5 -67.5q-41 0 -70 10q-54 -31 -54 -51q0 -17 47 -23l146 -21q91 -13 140 -41t49 -82q0 -61 -56 -107.5t-136.5 -69t-166.5 -22.5q-89 0 -150.5 25.5t-61.5 73.5
q0 27 16.5 46.5t47.5 31t52.5 17t53.5 10.5q-44 12 -65.5 36t-21.5 51q0 22 11.5 42.5t33.5 38t41 29t46 26.5q-75 38 -75 122zM259 -43l-123 18l-10 2l3 -1q-87 -28 -87 -89q0 -34 41.5 -52t100.5 -18q73 0 131 24t58 63q0 22 -26.5 33t-87.5 20zM392 435q0 42 -12.5 61
t-39.5 19q-54 0 -88.5 -67.5t-34.5 -151.5q0 -79 52 -79q54 0 88.5 68.5t34.5 149.5z" />
    <glyph glyph-name="h" unicode="h" horiz-adv-x="628" 
d="M320 579h-1l-61 -240q19 49 34 80t37.5 63.5t51 48.5t62.5 16q43 0 68.5 -22.5t32.5 -74.5t-18 -136l-56 -199q-16 -61 19 -61q48 0 111 100l15 -9q-80 -158 -182 -158q-164 0 -101 212l40 139q11 39 13.5 67.5t-2.5 42.5t-17 14q-31 0 -84 -115.5t-85 -253.5l-22 -93
h-161l154 616q17 66 11 82t-55 18l4 16l252 71q-30 -104 -60 -224z" />
    <glyph glyph-name="i" unicode="i" horiz-adv-x="349" 
d="M350 699q0 -42 -30 -72t-72 -30t-72 30t-30 72q0 41 30 70.5t72 29.5t72 -29.5t30 -70.5zM46 175l47 185q17 66 10.5 82t-55.5 18l4 16l252 71q-30 -104 -60 -224l-52 -208q-16 -61 21 -61q47 0 110 100l16 -9q-41 -80 -89.5 -119t-96.5 -39q-76 0 -104 43.5t-3 144.5z
" />
    <glyph glyph-name="j" unicode="j" horiz-adv-x="360" 
d="M64 88h1l69 272q17 66 10.5 82t-55.5 18l4 16l252 71q-30 -104 -60 -224l-55 -218q-19 -78 -49 -133.5t-75.5 -95.5t-93.5 -66t-123 -56l-8 16q77 64 117.5 140.5t65.5 177.5zM391 699q0 -42 -30 -72t-72 -30t-72 30t-30 72q0 41 30 70.5t72 29.5t72 -29.5t30 -70.5z" />
    <glyph glyph-name="k" unicode="k" horiz-adv-x="633" 
d="M23 0h1l154 616q17 66 11 82t-55 18l4 16l252 71q-30 -104 -60 -224l-145 -579h-162zM305 115h1l-44 171l164 148q25 23 36.5 35.5t16 24.5t-6 18t-36.5 9l4 17h205l-4 -17q-41 -2 -76 -18.5t-90 -66.5l-75 -68l67 -238q14 -47 24 -62.5t32 -15.5q39 0 80 101l16 -7
q-26 -86 -68 -122.5t-103 -36.5q-60 0 -93.5 32.5t-49.5 95.5z" />
    <glyph glyph-name="l" unicode="l" horiz-adv-x="351" 
d="M45 175h-1l110 441q17 66 11 82t-55 18l4 16l252 71q-30 -104 -60 -224l-116 -462q-16 -63 22 -63q47 0 110 100l16 -9q-41 -80 -89.5 -119t-96.5 -39q-77 0 -104 45.5t-3 142.5z" />
    <glyph glyph-name="m" unicode="m" horiz-adv-x="911" 
d="M712 -13h-1q-78 0 -106.5 43t2.5 157l43 151q35 124 -9 124q-29 0 -82 -115.5t-87 -253.5l-23 -93h-157l84 338q31 124 -6 124q-29 0 -82.5 -116t-87.5 -253l-23 -93h-157l89 360q17 66 10.5 82t-55.5 18l4 16l252 71l-54 -208q40 101 80.5 154.5t105.5 53.5
q128 0 93 -182q-2 -16 -5 -25q20 50 34.5 80t36.5 63t50 48.5t62 15.5q42 0 67 -21.5t32.5 -73.5t-17.5 -138l-55 -199q-17 -61 21 -61q48 0 111 100l15 -9q-80 -158 -185 -158z" />
    <glyph glyph-name="n" unicode="n" horiz-adv-x="635" 
d="M320 547h-2l-54 -208q19 49 34 80t37.5 63.5t51 48.5t62.5 16q43 0 68.5 -22.5t32.5 -74.5t-18 -136l-56 -199q-16 -61 19 -61q48 0 111 100l15 -9q-80 -158 -182 -158q-164 0 -101 212l40 139q11 39 13.5 67.5t-2.5 42.5t-17 14q-30 0 -79.5 -111.5t-88.5 -257.5
l-26 -93h-157l88 360q17 66 10.5 82t-55.5 18l4 16z" />
    <glyph glyph-name="o" unicode="o" horiz-adv-x="586" 
d="M398 399q0 113 -56 113q-68 0 -111 -116t-43 -264q0 -110 56 -110q46 0 82 56.5t54 141.5t18 179zM22 205q0 86 42.5 164t120.5 128t172 50q90 0 148.5 -61t58.5 -161q0 -132 -97 -235t-239 -103q-90 0 -148 59.5t-58 158.5z" />
    <glyph glyph-name="p" unicode="p" horiz-adv-x="584" 
d="M315 547h1l-42 -157q59 158 168 158q55 0 88 -44t33 -123q0 -89 -42.5 -180t-117.5 -152.5t-158 -61.5q-33 0 -65 15l-54 -218h-162l144 576q17 66 10.5 82t-55.5 18l4 16zM222 169l-30 -125q16 -21 42 -21q42 0 79.5 64.5t57 149.5t19.5 157q0 67 -31 67
q-17 0 -37.5 -27t-47 -95.5t-52.5 -169.5z" />
    <glyph glyph-name="q" unicode="q" horiz-adv-x="590" 
d="M221 -216h1l90 361q-59 -158 -168 -158q-55 0 -88 44t-33 123q0 89 43 180t118 152t158 61q44 0 75 -22l156 22q-8 -28 -61 -224l-129 -539h-162zM228 73h-1q17 0 37.5 27.5t47.5 96.5t52 170l30 122q-17 22 -40 22q-43 0 -80 -64.5t-56.5 -149t-19.5 -156.5
q0 -68 30 -68z" />
    <glyph glyph-name="r" unicode="r" horiz-adv-x="447" 
d="M314 547h1l-35 -148q31 55 85.5 102t106.5 47q5 0 19 -2l-41 -163h-7q-29 23 -77 23q-24 0 -50 -9t-40 -23l-93 -374h-162l90 360q17 66 10.5 82t-55.5 18l4 16z" />
    <glyph glyph-name="s" unicode="s" horiz-adv-x="503" 
d="M436 183l-1 -2q0 -61 -43.5 -107.5t-103 -67.5t-120.5 -21q-105 0 -169 37l62 230h19q-8 -116 15 -172t82 -56q46 0 80.5 22.5t34.5 60.5q0 45 -64 87l-37 24q-101 69 -101 159q0 53 37 93t89 58.5t106 18.5q110 0 164 -32l-48 -177h-16q2 80 -28.5 126t-83.5 46
q-42 0 -64.5 -19.5t-22.5 -47.5q0 -38 45 -69l57 -38q58 -37 84.5 -73t26.5 -80z" />
    <glyph glyph-name="t" unicode="t" horiz-adv-x="422" 
d="M51 175l-2 -1l78 313h-81l12 50h85l19 76l185 103l-45 -179h144l-12 -50h-145l-93 -373q-13 -61 25 -61q26 0 59 29.5t59 71.5l16 -9q-41 -79 -92.5 -118.5t-100.5 -39.5q-75 0 -104.5 43.5t-6.5 144.5z" />
    <glyph glyph-name="u" unicode="u" horiz-adv-x="637" 
d="M68 220h-2l40 140q19 65 12.5 81.5t-56.5 18.5l4 16l251 71l-96 -351q-35 -124 5 -124q32 0 82 112t90 257l27 97h151l-108 -423q-15 -61 19 -61q48 0 111 100l15 -9q-80 -158 -174 -158q-124 0 -119 119q6 51 18 89q-19 -48 -34.5 -79.5t-38 -64t-51 -48.5t-62.5 -16
q-40 0 -66 22t-35.5 73.5t17.5 137.5z" />
    <glyph glyph-name="v" unicode="v" horiz-adv-x="540" 
d="M114 0v1l-41 460q-2 30 -10 41t-37 20l3 16h286l-3 -16q-50 -9 -60 -21.5t-8 -52.5l19 -327l150 275q26 47 33 70t-2 36t-41 20l3 16h177l-3 -16q-44 -12 -58.5 -24.5t-44.5 -67.5l-236 -430h-127z" />
    <glyph glyph-name="w" unicode="w" horiz-adv-x="815" 
d="M392 0v385l-156 -385h-148l-17 460q0 30 -7.5 40.5t-37.5 20.5l4 16h286l-4 -16q-49 -9 -59.5 -21t-10.5 -52v-327l163 417h141v-417l138 275q19 38 26.5 57t8 35t-9.5 22.5t-32 11.5l4 16h177l-4 -16q-46 -13 -61 -25t-45 -67l-219 -430h-137z" />
    <glyph glyph-name="x" unicode="x" horiz-adv-x="572" 
d="M354 326h-1l104 -248q14 -31 29 -44t38 -17l-3 -17h-275l4 17q37 4 42 19t-14 54l-44 106l-79 -86q-58 -64 -51 -80q4 -11 37 -13l-4 -17h-198l4 17q77 4 190 129l84 91l-92 223q-14 34 -28.5 45.5t-38.5 15.5l4 17h273l-4 -17q-39 -4 -43 -18t16 -55l33 -81l56 60
q30 32 39.5 52t0 30t-37.5 12l5 17h208l-4 -17q-41 -3 -85 -33t-105 -96z" />
    <glyph glyph-name="y" unicode="y" horiz-adv-x="570" 
d="M489 423l-1 1l-230 -436q-65 -122 -126.5 -165t-135.5 -43q-35 0 -70 11l34 143h6q39 -32 110 -32q85 0 110 48l9 17l-103 494l-3 15t-3 13t-4.5 10t-8 10t-12 7t-18.5 7l4 16h273l-4 -16q-37 -8 -46.5 -21t-2.5 -53l48 -273l115 221q15 29 22 48.5t8 36.5t-10 27t-33 14
l4 16h182l-4 -16q-45 -13 -62.5 -28t-47.5 -72z" />
    <glyph glyph-name="z" unicode="z" horiz-adv-x="604" 
d="M259 0h-284l1 9l415 482h-33q-91 0 -144.5 -37.5t-95.5 -139.5h-22l79 226q43 -2 190 -2h244l-1 -10l-415 -481h72q91 0 145 37.5t96 139.5h21l-78 -226q-43 2 -190 2z" />
    <glyph glyph-name="braceleft" unicode="{" horiz-adv-x="380" 
d="M215 -216h1h-44q-95 0 -137 20t-42 75q0 33 8 59l51 209q8 38 8 55q0 58 -59 58l10 41q47 0 71 31t37 82l57 235q19 72 70.5 97.5t170.5 25.5h43l-7 -31h-14q-46 0 -68.5 -21.5t-32.5 -62.5l-58 -233q-18 -72 -58.5 -106t-110.5 -36v-2q51 -11 76 -32.5t25 -71.5
q0 -28 -9 -66l-54 -213q-5 -22 -5 -33q0 -50 64 -50h14z" />
    <glyph glyph-name="bar" unicode="|" horiz-adv-x="239" 
d="M157 -90h-75v815h75v-815z" />
    <glyph glyph-name="braceright" unicode="}" horiz-adv-x="401" 
d="M184 772v1h43q95 0 137.5 -20t42.5 -76q0 -20 -8 -57l-52 -210q-8 -38 -8 -53q0 -59 60 -59l-10 -42q-81 0 -108 -112l-58 -235q-18 -72 -70.5 -97.5t-170.5 -25.5h-44l8 30h14q45 0 67.5 21.5t32.5 62.5l58 234q18 72 59 106t110 36v2q-48 8 -74 30.5t-26 70.5
q0 27 9 66l53 213q5 22 5 33q0 50 -64 50h-14z" />
    <glyph glyph-name="asciitilde" unicode="~" horiz-adv-x="690" 
d="M98 207h-78q4 67 43 105t103 38q52 0 128 -36t102 -36q29 0 48 19t22 53h76q-4 -66 -43.5 -104.5t-102.5 -38.5q-43 0 -119.5 36.5t-109.5 36.5q-29 0 -48 -19t-21 -54z" />
    <glyph glyph-name="uni00A0" unicode="&#xa0;" horiz-adv-x="200" 
 />
    <glyph glyph-name="exclamdown" unicode="&#xa1;" horiz-adv-x="423" 
d="M298 82l-68 -258q-9 -35 -76 -45q-66 -10 -100 14q-18 12 -13 31l68 259l144 240h20zM283 361q-39 0 -65.5 27t-26.5 66t26.5 66.5t65.5 27.5q41 0 68 -27t27 -67t-27 -66.5t-68 -26.5z" />
    <glyph glyph-name="cent" unicode="&#xa2;" horiz-adv-x="613" 
d="M193 -102l2 -1l23 91q-89 11 -141.5 67.5t-52.5 143.5q0 136 95.5 235t236.5 109l22 87h43l-22 -87q91 -6 149.5 -57.5t49.5 -125.5h-148q26 137 -60 147l-120 -483h1q113 0 141 146h148q-59 -177 -301 -183l-22 -89h-44zM175 157q0 -99 54 -125l117 471
q-44 -10 -78.5 -49.5t-54 -93t-29 -106t-9.5 -97.5z" />
    <glyph glyph-name="sterling" unicode="&#xa3;" 
d="M314 544q0 -16 3 -35t6 -32t9.5 -35t8.5 -31h183l-13 -51h-161q1 -3 1 -12q0 -29 -13.5 -55.5t-31.5 -44.5t-48.5 -37.5t-51 -29.5t-53.5 -25t-43 -20l2 -1q73 30 130 30q44 0 102 -21t89 -21q42 0 96 27l47 -123q-67 -40 -155 -40q-47 0 -121.5 19.5t-108.5 19.5
q-91 0 -172 -42l-45 125q95 35 149 85.5t54 134.5q0 15 -3 32h-129l13 51h104q-21 69 -21 111q0 62 28.5 107t76 68t99 33.5t108.5 10.5q119 0 186 -55t67 -141h-160q17 66 -6.5 114t-91.5 48q-72 0 -103 -46t-31 -118z" />
    <glyph glyph-name="currency" unicode="&#xa4;" horiz-adv-x="645" 
d="M320 111q-83 0 -147 50l-69 -69l-48 47l70 71q-46 63 -46 142q0 77 45 141l-69 71l48 47l68 -68q65 51 148 51t152 -53l70 70l48 -47l-72 -72q45 -63 45 -140q0 -78 -46 -141l73 -72l-48 -47l-71 70q-69 -51 -151 -51zM319 527q-71 0 -117.5 -50t-46.5 -125t46 -124
t118 -49q75 0 122.5 49t47.5 124t-48 125t-122 50z" />
    <glyph glyph-name="yen" unicode="&#xa5;" horiz-adv-x="703" 
d="M199 126h-1l4 16h-163l11 45h163l20 75h-163l10 44h154l-71 312q-13 55 -22.5 69t-44.5 22l3 16h312l-3 -16q-46 -6 -63 -21.5t-8 -47.5l65 -293l123 159q39 50 60 86.5t25.5 57.5t-5 34t-22 17.5t-34.5 7.5l3 16h239l-3 -16q-44 -8 -78.5 -38.5t-113.5 -133.5l-179 -231
h154l-11 -44h-164l-20 -75h164l-11 -45h-164l-4 -16q-19 -77 -11 -90.5t73 -19.5l-3 -16h-342l4 16q67 6 83 21t34 89z" />
    <glyph glyph-name="brokenbar" unicode="&#xa6;" horiz-adv-x="239" 
d="M82 725h75v-305h-75v305zM82 215h75v-305h-75v305z" />
    <glyph glyph-name="section" unicode="&#xa7;" horiz-adv-x="668" 
d="M666 554h-3h-159q16 65 -3.5 109.5t-84.5 44.5q-42 0 -72.5 -22t-30.5 -64q0 -55 52 -94l144 -103q56 -40 85.5 -79t29.5 -89q0 -37 -19.5 -65.5t-55 -47t-68.5 -29.5t-78 -20q81 -64 81 -141t-63.5 -127t-186.5 -50q-112 0 -180.5 54t-66.5 135h159q-17 -64 3.5 -109
t86.5 -45q43 0 73.5 21.5t30.5 63.5q0 57 -53 94l-144 104q-115 81 -115 173q0 29 14 53t34 39.5t52 28.5t58 20t63 15q-81 64 -81 142q0 77 63.5 126.5t186.5 49.5q111 0 179.5 -55t68.5 -133zM184 309q0 -52 66 -103l115 -86q45 12 72 32t27 59q0 51 -66 102l-116 86
q-28 -8 -46.5 -16.5t-35 -27.5t-16.5 -46z" />
    <glyph glyph-name="dieresis" unicode="&#xa8;" horiz-adv-x="429" 
d="M22 694q0 32 22 55t54 23t55 -23t23 -55q0 -31 -22.5 -53.5t-55.5 -22.5q-32 0 -54 22.5t-22 53.5zM252 694q0 32 23 55t55 23t54.5 -22.5t22.5 -55.5q0 -31 -22.5 -53.5t-54.5 -22.5q-33 0 -55.5 22.5t-22.5 53.5z" />
    <glyph glyph-name="copyright" unicode="&#xa9;" horiz-adv-x="837" 
d="M431 -13q-159 0 -267.5 105t-108.5 269t109 270t267 106q157 0 265.5 -106t108.5 -270t-108.5 -269t-265.5 -105zM431 675q-132 0 -219.5 -87.5t-87.5 -226.5q0 -138 87.5 -225.5t219.5 -87.5t218.5 87t86.5 226t-86.5 226.5t-218.5 87.5zM315 368h-1q0 -70 32 -109.5
t81 -39.5q38 0 68 19t41 59l67 -19q-17 -52 -61.5 -85.5t-114.5 -33.5q-89 0 -137.5 55t-48.5 154q0 96 51.5 150t139.5 54q68 0 111 -33.5t58 -89.5l-67 -21q-9 41 -37.5 62.5t-68.5 21.5q-50 0 -81.5 -37t-31.5 -107z" />
    <glyph glyph-name="ordfeminine" unicode="&#xaa;" horiz-adv-x="353" 
d="M144 431q-30 0 -49.5 25.5t-19.5 71.5q0 80 50.5 149t124.5 69q22 0 42 -13l103 13l-43 -162l-16 -79q-7 -34 15 -34q4 0 8.5 1.5t8.5 5.5l7.5 7.5t7.5 9.5t6.5 9.5t6.5 10.5t6 9l9 -4q-44 -89 -127 -89q-31 0 -47.5 13.5t-16.5 32.5q0 7 1 14q-12 -31 -29.5 -45.5
t-47.5 -14.5zM201 483h-1q17 0 53 136l25 97q-7 10 -16 10q-25 0 -47 -76.5t-22 -140.5q0 -26 8 -26z" />
    <glyph glyph-name="guillemotleft" unicode="&#xab;" horiz-adv-x="618" 
d="M203 38l-170 235l283 234h53l-173 -234l52 -235h-45zM430 38l-170 235l283 234h53l-173 -234l52 -235h-45z" />
    <glyph glyph-name="logicalnot" unicode="&#xac;" 
d="M481 361h-449v76h530v-338h-81v262z" />
    <glyph glyph-name="uni00AD" unicode="&#xad;" horiz-adv-x="368" 
d="M44 227l23 91h258l-23 -91h-258z" />
    <glyph glyph-name="registered" unicode="&#xae;" horiz-adv-x="837" 
d="M431 -13q-159 0 -267.5 105t-108.5 269t109 270t267 106q157 0 265.5 -106t108.5 -270t-108.5 -269t-265.5 -105zM431 675q-132 0 -219.5 -87.5t-87.5 -226.5q0 -138 87.5 -225.5t219.5 -87.5t218.5 87t86.5 226t-86.5 226.5t-218.5 87.5zM532 176v-1l-81 153h-20h-72
v-153h-73v397h122q96 0 141 -25t45 -97q0 -75 -72 -105l91 -169h-81zM359 388h71q91 0 91 61q0 34 -25 47.5t-71 13.5h-66v-122z" />
    <glyph glyph-name="macron" unicode="&#xaf;" horiz-adv-x="365" 
d="M335 665h-321l16 68h321z" />
    <glyph glyph-name="degree" unicode="&#xb0;" horiz-adv-x="360" 
d="M237 440q-61 0 -104.5 43.5t-43.5 105.5t43.5 105.5t104.5 43.5q62 0 106 -43.5t44 -105.5t-44 -105.5t-106 -43.5zM237 675q-35 0 -56 -24.5t-21 -61.5q0 -36 21.5 -61t55.5 -25q36 0 58 25t22 61q0 37 -22 61.5t-58 24.5z" />
    <glyph glyph-name="plusminus" unicode="&#xb1;" 
d="M269 371v167h80v-167h230v-75h-230v-172h-80v172h-230v75h230zM579 0h-540v75h540v-75z" />
    <glyph glyph-name="twosuperior" unicode="&#xb2;" horiz-adv-x="343" 
d="M10 438v-1l1 6q24 21 80 64.5t92 73.5t67 75t31 87q0 27 -15.5 43.5t-42.5 16.5q-69 0 -94 -63h-19q45 117 170 117q54 0 85 -24t31 -63q0 -24 -14.5 -49t-41.5 -49.5t-45 -38t-46 -32.5l-45 -30t-56 -37h186l-23 -96h-301z" />
    <glyph glyph-name="threesuperior" unicode="&#xb3;" horiz-adv-x="326" 
d="M127 433q-62 0 -104 15l26 106h10q2 -56 20 -76t54 -20q39 0 69 31.5t30 75.5q0 25 -19.5 49t-61.5 31l3 12l13 6q39 14 62 38.5t26.5 37.5t3.5 23q0 19 -13.5 29.5t-32.5 11.5q-73 0 -98 -63h-19q21 57 68 86.5t111 29.5q42 0 71 -17t29 -49q0 -36 -38 -60t-70 -31
l-1 -2q85 -33 85 -105q0 -75 -69 -117t-155 -42z" />
    <glyph glyph-name="acute" unicode="&#xb4;" horiz-adv-x="307" 
d="M306 772l-291 -169h-14l115 169h190z" />
    <glyph glyph-name="mu" unicode="&#xb5;" horiz-adv-x="580" 
d="M57 -189h-2h-79q20 40 49 158l141 566h81l-75 -299q-12 -48 -12 -82q0 -97 97 -97q66 0 114 48.5t71 140.5l72 289h81l-133 -535h-81l20 81q-67 -94 -160 -94q-90 0 -111 77l-22 -86q-29 -117 -51 -167z" />
    <glyph glyph-name="mu" unicode="&#x3bc;" horiz-adv-x="580" 
d="M57 -189h-2h-79q20 40 49 158l141 566h81l-75 -299q-12 -48 -12 -82q0 -97 97 -97q66 0 114 48.5t71 140.5l72 289h81l-133 -535h-81l20 81q-67 -94 -160 -94q-90 0 -111 77l-22 -86q-29 -117 -51 -167z" />
    <glyph glyph-name="paragraph" unicode="&#xb6;" horiz-adv-x="499" 
d="M49 507q0 5 2 27q9 94 87.5 142.5t188.5 48.5h201l-173 -816h-76l160 746h-116l-158 -746h-75l99 460q-59 7 -99.5 41t-40.5 97z" />
    <glyph glyph-name="periodcentered" unicode="&#xb7;" horiz-adv-x="342" 
d="M169 186q-39 0 -65.5 27t-26.5 66t26.5 66.5t65.5 27.5q41 0 68 -27t27 -67q0 -39 -27 -66t-68 -27z" />
    <glyph glyph-name="cedilla" unicode="&#xb8;" horiz-adv-x="261" 
d="M51 -119l103 122h37l-72 -86q19 9 43 9q31 0 51 -18.5t20 -43.5q0 -47 -41.5 -74t-96.5 -27q-53 0 -91 25l12 20q24 -12 59 -12q31 0 53.5 13.5t22.5 39.5q0 17 -15 27t-36 10q-22 0 -41 -10z" />
    <glyph glyph-name="onesuperior" unicode="&#xb9;" horiz-adv-x="289" 
d="M331 856l-86 -347q-8 -42 -5.5 -50.5t16.5 -11.5l-2 -9h-185l2 8q30 2 42 16t24 59l67 270h-71l2 10q131 20 185 55h11z" />
    <glyph glyph-name="ordmasculine" unicode="&#xba;" horiz-adv-x="341" 
d="M286 677q0 50 -20 50q-34 0 -58 -66.5t-24 -163.5q0 -47 20 -47q34 0 58 65t24 162zM73 550q0 72 56 134t148 62q53 0 86.5 -33t33.5 -91q0 -71 -56.5 -131t-149.5 -60q-53 0 -85.5 31t-32.5 88z" />
    <glyph glyph-name="guillemotright" unicode="&#xbb;" horiz-adv-x="618" 
d="M188 507h1l169 -235l-281 -234h-1h-54l174 234l-53 235h45zM415 507l170 -235l-282 -234h-54l174 234l-53 235h45z" />
    <glyph glyph-name="onequarter" unicode="&#xbc;" horiz-adv-x="985" 
d="M305 735l-86 -347q-8 -42 -5.5 -50.5t16.5 -11.5l-2 -9h-185l2 8q30 2 42 16t24 59l67 270h-71l2 10q131 20 185 55h11zM214 0h-75l508 725h75zM846 0h-112l24 97h-203l25 99l266 212h103l-56 -222h71l-22 -89h-72zM780 186l43 171l-212 -171h169z" />
    <glyph glyph-name="onehalf" unicode="&#xbd;" horiz-adv-x="915" 
d="M305 735l-86 -347q-8 -42 -5.5 -50.5t16.5 -11.5l-2 -9h-185l2 8q30 2 42 16t24 59l67 270h-71l2 10q131 20 185 55h11zM214 0h-75l508 725h75zM518 0v-2l1 6q24 21 80 64.5t92 73.5t67 75t31 87q0 27 -15.5 43.5t-42.5 16.5q-69 0 -94 -63h-19q45 117 170 117
q54 0 85 -24t31 -63q0 -46 -48 -95.5t-99 -73.5q11 11 -11 -3q-15 -10 -57 -39q-28 -19 -35 -24h188l-23 -96h-301z" />
    <glyph glyph-name="threequarters" unicode="&#xbe;" horiz-adv-x="1022" 
d="M101 312q-62 0 -104 15l26 106h10q2 -56 20 -76t54 -20q39 0 69 31.5t30 75.5q0 25 -19.5 49t-61.5 31l3 12l13 6q39 14 62 38.5t26.5 37.5t3.5 23q0 19 -13.5 29.5t-32.5 11.5q-73 0 -98 -63h-19q21 57 68 86.5t111 29.5q42 0 71 -17t29 -49q0 -36 -38 -60t-70 -31
l-1 -2q85 -33 85 -105q0 -75 -69 -117t-155 -42zM251 0h-75l508 725h75zM883 0h-112l24 97h-203l25 99l266 212h103l-56 -222h71l-22 -89h-72zM817 186l43 171l-212 -171h169z" />
    <glyph glyph-name="questiondown" unicode="&#xbf;" horiz-adv-x="629" 
d="M30 -93q0 56 33 96.5t83 67.5t101.5 53t96.5 68t60 98l3 11h31l-2 -9q-15 -67 -40.5 -118.5t-52.5 -78.5t-55 -51t-50 -40.5t-36 -43.5t-14 -63q0 -37 21.5 -56.5t58.5 -19.5q113 0 215 192h20l-50 -201q-85 -36 -194 -36q-104 0 -166.5 34.5t-62.5 96.5zM443 361
q-39 0 -65.5 27t-26.5 66t26.5 66.5t65.5 27.5q41 0 68 -27t27 -67t-27 -66.5t-68 -26.5z" />
    <glyph glyph-name="Agrave" unicode="&#xc0;" horiz-adv-x="760" 
d="M-78 0l1 -1l4 16q47 9 77.5 38t96.5 134l324 528q70 13 104 50h4l82 -644q6 -56 19 -77t51 -28l-4 -16h-316l5 16q45 6 60 23t8 60l-16 141h-236l-10 -18q-27 -46 -43.5 -80t-21 -55.5t-4 -35t12.5 -20.5t21.5 -9.5t28.5 -5.5l-5 -16h-243zM387 573l-172 -288h203z
M275 921h201l20 -129h-16z" />
    <glyph glyph-name="Aacute" unicode="&#xc1;" horiz-adv-x="760" 
d="M733 922l-269 -129h-16l84 129h201zM-78 0l1 -1l4 16q47 9 77.5 38t96.5 134l324 528q70 13 104 50h4l82 -644q6 -56 19 -77t51 -28l-4 -16h-316l5 16q45 6 60 23t8 60l-16 141h-236l-10 -18q-27 -46 -43.5 -80t-21 -55.5t-4 -35t12.5 -20.5t21.5 -9.5t28.5 -5.5l-5 -16
h-243zM387 573l-172 -288h203z" />
    <glyph glyph-name="Acircumflex" unicode="&#xc2;" horiz-adv-x="760" 
d="M-78 0l1 -1l4 16q47 9 77.5 38t96.5 134l324 528q70 13 104 50h4l82 -644q6 -56 19 -77t51 -28l-4 -16h-316l5 16q45 6 60 23t8 60l-16 141h-236l-10 -18q-27 -46 -43.5 -80t-21 -55.5t-4 -35t12.5 -20.5t21.5 -9.5t28.5 -5.5l-5 -16h-243zM387 573l-172 -288h203z
M516 921h16l123 -129h-21l-127 46l-155 -46h-23z" />
    <glyph glyph-name="Atilde" unicode="&#xc3;" horiz-adv-x="760" 
d="M-78 0l1 -1l4 16q47 9 77.5 38t96.5 134l324 528q70 13 104 50h4l82 -644q6 -56 19 -77t51 -28l-4 -16h-316l5 16q45 6 60 23t8 60l-16 141h-236l-10 -18q-27 -46 -43.5 -80t-21 -55.5t-4 -35t12.5 -20.5t21.5 -9.5t28.5 -5.5l-5 -16h-243zM387 573l-172 -288h203z
M587 865h2q51 0 61 50h16q0 -52 -24 -89t-69 -37q-34 0 -83.5 30.5t-79.5 30.5q-53 0 -63 -51h-16q0 53 24 90t69 37q33 0 83.5 -30.5t79.5 -30.5z" />
    <glyph glyph-name="Adieresis" unicode="&#xc4;" horiz-adv-x="760" 
d="M-78 0l1 -1l4 16q47 9 77.5 38t96.5 134l324 528q70 13 104 50h4l82 -644q6 -56 19 -77t51 -28l-4 -16h-316l5 16q45 6 60 23t8 60l-16 141h-236l-10 -18q-27 -46 -43.5 -80t-21 -55.5t-4 -35t12.5 -20.5t21.5 -9.5t28.5 -5.5l-5 -16h-243zM387 573l-172 -288h203z
M553 858q0 27 19.5 47t47.5 20q27 0 46.5 -20t19.5 -47t-19.5 -46t-46.5 -19q-28 0 -47.5 19t-19.5 46zM331 858q0 27 19 47t45 20q29 0 48.5 -20t19.5 -47t-19.5 -46t-48.5 -19q-26 0 -45 19t-19 46z" />
    <glyph glyph-name="Aring" unicode="&#xc5;" horiz-adv-x="760" 
d="M-78 0l1 -1l4 16q47 9 77.5 38t96.5 134l324 528q70 13 104 50h4l82 -644q6 -56 19 -77t51 -28l-4 -16h-316l5 16q45 6 60 23t8 60l-16 141h-236l-10 -18q-27 -46 -43.5 -80t-21 -55.5t-4 -35t12.5 -20.5t21.5 -9.5t28.5 -5.5l-5 -16h-243zM387 573l-172 -288h203z
M385 885q0 41 30.5 70.5t72.5 29.5q43 0 73 -29.5t30 -70.5q0 -42 -29.5 -70.5t-73.5 -28.5q-42 0 -72.5 28.5t-30.5 70.5zM430 885q0 -26 16 -43t42 -17q27 0 43 16.5t16 43.5q0 26 -17 43t-42 17q-26 0 -42 -17t-16 -43z" />
    <glyph glyph-name="AE" unicode="&#xc6;" horiz-adv-x="1105" 
d="M621 725h-2h244q202 0 258 2l-49 -267h-22q-1 44 -4.5 71.5t-12.5 56.5t-25.5 45.5t-43.5 30.5t-67 19.5t-95 5.5h-15l-73 -293h136l90 120h18l-71 -285h-18l-30 121h-136l-70 -279q-8 -24 2.5 -30.5t48.5 -6.5q121 0 194.5 53.5t138.5 175.5h22l-85 -267q-58 2 -272 2
h-340l4 16q66 8 89 30.5t42 99.5l23 94h-232l-15 -18q-123 -150 -104 -186q8 -15 43 -20l-5 -16h-265l4 16q50 9 103 45.5t131 126.5zM597 634l-293 -348h206z" />
    <glyph glyph-name="Ccedilla" unicode="&#xc7;" horiz-adv-x="723" 
d="M201 -119h1l91 108q-113 12 -183 86.5t-70 193.5q0 134 71 244t183 169.5t238 59.5q110 0 198 -42l-40 -230h-21q-4 49 -7.5 76.5t-13.5 62t-25.5 52t-42.5 30t-65 12.5q-67 0 -123.5 -48.5t-90.5 -122t-52.5 -153.5t-18.5 -151q0 -189 153 -189q148 0 252 183l26 -15
q-24 -52 -53 -90.5t-68 -68.5t-90.5 -45.5t-115.5 -15.5h-6l-59 -70q19 9 43 9q31 0 51 -18.5t20 -43.5q0 -47 -41.5 -74t-96.5 -27q-53 0 -91 25l12 20q24 -12 59 -12q31 0 53.5 13.5t22.5 39.5q0 17 -15 27t-36 10q-22 0 -41 -10z" />
    <glyph glyph-name="Egrave" unicode="&#xc8;" horiz-adv-x="718" 
d="M134 725l-2 1h344q202 0 258 2l-49 -267h-22q-1 44 -4.5 72t-13 56.5t-26 45t-43.5 30.5t-66.5 19.5t-94.5 5.5h-16l-73 -293h137l89 120h19l-71 -285h-19l-29 121h-137l-70 -279q-6 -24 4 -30.5t48 -6.5q121 0 194.5 53.5t138.5 175.5h22l-86 -267q-58 2 -271 2h-340
l3 16q68 8 89.5 30t41.5 100l108 433q20 77 9 98t-75 31zM317 923h201l20 -129h-16z" />
    <glyph glyph-name="Eacute" unicode="&#xc9;" horiz-adv-x="718" 
d="M134 725l-2 1h344q202 0 258 2l-49 -267h-22q-1 44 -4.5 72t-13 56.5t-26 45t-43.5 30.5t-66.5 19.5t-94.5 5.5h-16l-73 -293h137l89 120h19l-71 -285h-19l-29 121h-137l-70 -279q-6 -24 4 -30.5t48 -6.5q121 0 194.5 53.5t138.5 175.5h22l-86 -267q-58 2 -271 2h-340
l3 16q68 8 89.5 30t41.5 100l108 433q20 77 9 98t-75 31zM710 923l-269 -129h-16l84 129h201z" />
    <glyph glyph-name="Ecircumflex" unicode="&#xca;" horiz-adv-x="718" 
d="M134 725l-2 1h344q202 0 258 2l-49 -267h-22q-1 44 -4.5 72t-13 56.5t-26 45t-43.5 30.5t-66.5 19.5t-94.5 5.5h-16l-73 -293h137l89 120h19l-71 -285h-19l-29 121h-137l-70 -279q-6 -24 4 -30.5t48 -6.5q121 0 194.5 53.5t138.5 175.5h22l-86 -267q-58 2 -271 2h-340
l3 16q68 8 89.5 30t41.5 100l108 433q20 77 9 98t-75 31zM518 923h16l123 -129h-21l-127 46l-155 -46h-23z" />
    <glyph glyph-name="Edieresis" unicode="&#xcb;" horiz-adv-x="718" 
d="M134 725l-2 1h344q202 0 258 2l-49 -267h-22q-1 44 -4.5 72t-13 56.5t-26 45t-43.5 30.5t-66.5 19.5t-94.5 5.5h-16l-73 -293h137l89 120h19l-71 -285h-19l-29 121h-137l-70 -279q-6 -24 4 -30.5t48 -6.5q121 0 194.5 53.5t138.5 175.5h22l-86 -267q-58 2 -271 2h-340
l3 16q68 8 89.5 30t41.5 100l108 433q20 77 9 98t-75 31zM541 860q0 27 19.5 47t47.5 20q27 0 46.5 -20t19.5 -47t-19.5 -46t-46.5 -19q-28 0 -47.5 19t-19.5 46zM319 860q0 27 19 47t45 20q29 0 48.5 -20t19.5 -47t-19.5 -46t-48.5 -19q-26 0 -45 19t-19 46z" />
    <glyph glyph-name="Igrave" unicode="&#xcc;" horiz-adv-x="445" 
d="M373 579v2l-108 -433q-19 -75 -8 -99t75 -32l-4 -16h-373l3 16q68 8 89.5 30t41.5 100l108 433q20 77 9 98t-75 31l3 16h375l-4 -16q-69 -10 -90.5 -31t-41.5 -99zM193 924h201l20 -129h-16z" />
    <glyph glyph-name="Iacute" unicode="&#xcd;" horiz-adv-x="445" 
d="M373 579v2l-108 -433q-19 -75 -8 -99t75 -32l-4 -16h-373l3 16q68 8 89.5 30t41.5 100l108 433q20 77 9 98t-75 31l3 16h375l-4 -16q-69 -10 -90.5 -31t-41.5 -99zM544 924l-269 -129h-16l84 129h201z" />
    <glyph glyph-name="Icircumflex" unicode="&#xce;" horiz-adv-x="445" 
d="M373 579v2l-108 -433q-19 -75 -8 -99t75 -32l-4 -16h-373l3 16q68 8 89.5 30t41.5 100l108 433q20 77 9 98t-75 31l3 16h375l-4 -16q-69 -10 -90.5 -31t-41.5 -99zM357 924h16l123 -129h-21l-127 46l-155 -46h-23z" />
    <glyph glyph-name="Idieresis" unicode="&#xcf;" horiz-adv-x="445" 
d="M373 579v2l-108 -433q-19 -75 -8 -99t75 -32l-4 -16h-373l3 16q68 8 89.5 30t41.5 100l108 433q20 77 9 98t-75 31l3 16h375l-4 -16q-69 -10 -90.5 -31t-41.5 -99zM386 861q0 27 19.5 47t47.5 20q27 0 46.5 -20t19.5 -47t-19.5 -46t-46.5 -19q-28 0 -47.5 19t-19.5 46z
M164 861q0 27 19 47t45 20q29 0 48.5 -20t19.5 -47t-19.5 -46t-48.5 -19q-26 0 -45 19t-19 46z" />
    <glyph glyph-name="Eth" unicode="&#xd0;" horiz-adv-x="839" 
d="M151 725v1h281q82 0 151 -16.5t124.5 -50t87 -90t31.5 -130.5q0 -90 -33 -165t-88 -124.5t-128 -84t-151.5 -49.5t-161.5 -15h-292l3 16q68 8 89.5 30t41.5 100l51 206h-105l12 44h104l46 183q20 77 9 98t-75 31zM255 37h27q108 0 190 60t122.5 155.5t40.5 209.5
q0 121 -45.5 174.5t-146.5 53.5h-25l-73 -293h127l-12 -44h-126z" />
    <glyph glyph-name="Ntilde" unicode="&#xd1;" horiz-adv-x="807" 
d="M606 140l2 1l109 439q19 76 7.5 98t-75.5 32l4 16h246l-3 -16q-70 -11 -91 -31.5t-41 -98.5l-144 -579h-149l-231 555l-102 -409q-19 -75 -8 -99t75 -32l-3 -16h-246l3 16q68 8 89.5 30t41.5 100l120 482l-1 4q-18 40 -30 57t-29 23l4 13h208zM643 867h2q51 0 61 50h16
q0 -52 -24 -89t-69 -37q-34 0 -83.5 30.5t-79.5 30.5q-53 0 -63 -51h-16q0 53 24 90t69 37q33 0 83.5 -30.5t79.5 -30.5z" />
    <glyph glyph-name="Ograve" unicode="&#xd2;" horiz-adv-x="814" 
d="M38 269q0 117 59 225t167 178t235 70q123 0 205 -76t82 -205q0 -88 -35.5 -173.5t-95.5 -152t-147 -107.5t-183 -41q-123 0 -205 76.5t-82 205.5zM229 228q0 -202 110 -202q59 0 110 48.5t82 122t48 153.5t17 151q0 202 -111 202q-59 0 -109.5 -48.5t-81.5 -122
t-48 -153.5t-17 -151zM367 922h201l20 -129h-16z" />
    <glyph glyph-name="Oacute" unicode="&#xd3;" horiz-adv-x="814" 
d="M38 269q0 117 59 225t167 178t235 70q123 0 205 -76t82 -205q0 -88 -35.5 -173.5t-95.5 -152t-147 -107.5t-183 -41q-123 0 -205 76.5t-82 205.5zM229 228q0 -202 110 -202q59 0 110 48.5t82 122t48 153.5t17 151q0 202 -111 202q-59 0 -109.5 -48.5t-81.5 -122
t-48 -153.5t-17 -151zM750 922l-269 -129h-16l84 129h201z" />
    <glyph glyph-name="Ocircumflex" unicode="&#xd4;" horiz-adv-x="814" 
d="M38 269q0 117 59 225t167 178t235 70q123 0 205 -76t82 -205q0 -88 -35.5 -173.5t-95.5 -152t-147 -107.5t-183 -41q-123 0 -205 76.5t-82 205.5zM229 228q0 -202 110 -202q59 0 110 48.5t82 122t48 153.5t17 151q0 202 -111 202q-59 0 -109.5 -48.5t-81.5 -122
t-48 -153.5t-17 -151zM536 922h16l123 -129h-21l-127 46l-155 -46h-23z" />
    <glyph glyph-name="Otilde" unicode="&#xd5;" horiz-adv-x="814" 
d="M38 269q0 117 59 225t167 178t235 70q123 0 205 -76t82 -205q0 -88 -35.5 -173.5t-95.5 -152t-147 -107.5t-183 -41q-123 0 -205 76.5t-82 205.5zM229 228q0 -202 110 -202q59 0 110 48.5t82 122t48 153.5t17 151q0 202 -111 202q-59 0 -109.5 -48.5t-81.5 -122
t-48 -153.5t-17 -151zM616 866h2q51 0 61 50h16q0 -52 -24 -89t-69 -37q-34 0 -83.5 30.5t-79.5 30.5q-53 0 -63 -51h-16q0 53 24 90t69 37q33 0 83.5 -30.5t79.5 -30.5z" />
    <glyph glyph-name="Odieresis" unicode="&#xd6;" horiz-adv-x="814" 
d="M38 269q0 117 59 225t167 178t235 70q123 0 205 -76t82 -205q0 -88 -35.5 -173.5t-95.5 -152t-147 -107.5t-183 -41q-123 0 -205 76.5t-82 205.5zM229 228q0 -202 110 -202q59 0 110 48.5t82 122t48 153.5t17 151q0 202 -111 202q-59 0 -109.5 -48.5t-81.5 -122
t-48 -153.5t-17 -151zM557 859q0 27 19.5 47t47.5 20q27 0 46.5 -20t19.5 -47t-19.5 -46t-46.5 -19q-28 0 -47.5 19t-19.5 46zM335 859q0 27 19 47t45 20q29 0 48.5 -20t19.5 -47t-19.5 -46t-48.5 -19q-26 0 -45 19t-19 46z" />
    <glyph glyph-name="multiply" unicode="&#xd7;" 
d="M555 92l-57 -57l-181 181l-178 -178l-57 57l178 178l-178 179l57 57l178 -179l178 178l57 -57l-178 -178z" />
    <glyph glyph-name="Oslash" unicode="&#xd8;" horiz-adv-x="814" 
d="M38 269q0 117 59 225t167 178t235 70q91 0 164 -45l91 99l29 -23l-90 -97q93 -78 93 -215q0 -88 -35.5 -173.5t-95.5 -152t-147 -107.5t-183 -41q-123 0 -201 73l-100 -108l-28 23l103 111q-61 74 -61 183zM596 501q0 38 -4 65l-361 -390q13 -150 108 -150q59 0 110 48.5
t82 122t48 153.5t17 151zM229 228v-1l355 384q-26 92 -99 92q-59 0 -109.5 -48.5t-81.5 -122t-48 -153.5t-17 -151z" />
    <glyph glyph-name="Ugrave" unicode="&#xd9;" horiz-adv-x="830" 
d="M793 579v2l-70 -281q-76 -311 -362 -311q-153 0 -222 70t-31 221l75 301q15 49 12.5 76t-18 36.5t-60.5 16.5l4 16h375l-5 -16q-69 -10 -90.5 -31t-41.5 -99l-70 -281q-31 -119 -1.5 -180t131.5 -61q101 0 161 59t90 179l70 284q15 49 12.5 76t-18 36.5t-60.5 16.5l4 16
h251l-4 -16q-70 -11 -91 -31.5t-41 -98.5zM392 924h201l20 -129h-16z" />
    <glyph glyph-name="Uacute" unicode="&#xda;" horiz-adv-x="830" 
d="M793 579v2l-70 -281q-76 -311 -362 -311q-153 0 -222 70t-31 221l75 301q15 49 12.5 76t-18 36.5t-60.5 16.5l4 16h375l-5 -16q-69 -10 -90.5 -31t-41.5 -99l-70 -281q-31 -119 -1.5 -180t131.5 -61q101 0 161 59t90 179l70 284q15 49 12.5 76t-18 36.5t-60.5 16.5l4 16
h251l-4 -16q-70 -11 -91 -31.5t-41 -98.5zM829 924l-269 -129h-16l84 129h201z" />
    <glyph glyph-name="Ucircumflex" unicode="&#xdb;" horiz-adv-x="830" 
d="M793 579v2l-70 -281q-76 -311 -362 -311q-153 0 -222 70t-31 221l75 301q15 49 12.5 76t-18 36.5t-60.5 16.5l4 16h375l-5 -16q-69 -10 -90.5 -31t-41.5 -99l-70 -281q-31 -119 -1.5 -180t131.5 -61q101 0 161 59t90 179l70 284q15 49 12.5 76t-18 36.5t-60.5 16.5l4 16
h251l-4 -16q-70 -11 -91 -31.5t-41 -98.5zM614 924h16l123 -129h-21l-127 46l-155 -46h-23z" />
    <glyph glyph-name="Udieresis" unicode="&#xdc;" horiz-adv-x="830" 
d="M793 579v2l-70 -281q-76 -311 -362 -311q-153 0 -222 70t-31 221l75 301q15 49 12.5 76t-18 36.5t-60.5 16.5l4 16h375l-5 -16q-69 -10 -90.5 -31t-41.5 -99l-70 -281q-31 -119 -1.5 -180t131.5 -61q101 0 161 59t90 179l70 284q15 49 12.5 76t-18 36.5t-60.5 16.5l4 16
h251l-4 -16q-70 -11 -91 -31.5t-41 -98.5zM646 861q0 27 19.5 47t47.5 20q27 0 46.5 -20t19.5 -47t-19.5 -46t-46.5 -19q-28 0 -47.5 19t-19.5 46zM424 861q0 27 19 47t45 20q29 0 48.5 -20t19.5 -47t-19.5 -46t-48.5 -19q-26 0 -45 19t-19 46z" />
    <glyph glyph-name="Yacute" unicode="&#xdd;" horiz-adv-x="760" 
d="M447 294v1l-37 -148q-19 -77 -6 -99.5t84 -30.5l-4 -16h-396l3 16q76 8 99.5 30t43.5 100l35 140l-102 332q-20 58 -29 71.5t-39 19.5l3 16h320l-3 -16q-47 -6 -63.5 -20t-7.5 -49l86 -299l188 217q49 58 62.5 89.5t0.5 43.5t-54 18l3 16h228l-3 -16q-42 -9 -70.5 -31.5
t-114.5 -122.5zM790 923l-269 -129h-16l84 129h201z" />
    <glyph glyph-name="Thorn" unicode="&#xde;" horiz-adv-x="685" 
d="M367 551h-1l-90 -357q4 0 10 -0.5t10 -0.5q106 0 169 60t63 164q0 73 -35 103.5t-102 30.5h-24zM133 725h-1h276l-36 -141h38q311 0 311 -170q0 -64 -32 -112.5t-85 -76t-113.5 -41t-125.5 -13.5q-66 0 -94 5l-8 -30q-21 -74 -7 -98t87 -32l-3 -16h-387l3 16
q68 8 89.5 30t41.5 100l108 433q19 81 8.5 100.5t-74.5 29.5z" />
    <glyph glyph-name="germandbls" unicode="&#xdf;" horiz-adv-x="688" 
d="M184 0h-164l112 453q38 155 137.5 237t225.5 82q88 0 139 -26.5t51 -78.5q0 -30 -18.5 -59t-48 -51t-58 -37.5t-56.5 -25.5l-1 -3q69 -26 109 -81.5t40 -123.5t-32 -126.5t-82.5 -95.5t-109.5 -57.5t-116 -20.5q-39 0 -75 6l21 85h6q32 -35 74 -35q59 0 104 55.5
t45 143.5q0 141 -151 166l5 22l25 9q88 32 134 94t46 128q0 75 -73 75q-108 0 -157 -196z" />
    <glyph glyph-name="agrave" unicode="&#xe0;" horiz-adv-x="620" 
d="M143 -13v1q-55 0 -88 43.5t-33 122.5q0 89 42.5 180t118 152.5t159.5 61.5q44 0 75 -22l158 22q-4 -14 -61 -225l-51 -205q-10 -63 21 -63q47 0 110 100l16 -9q-41 -80 -89.5 -119t-96.5 -39q-55 0 -85.5 28.5t-30.5 84.5q0 19 3 42q-59 -156 -168 -156zM227 74h-1
q16 0 37 27.5t48.5 96.5t52.5 169l30 123q-17 22 -40 22q-43 0 -80.5 -65t-57 -149.5t-19.5 -156.5q0 -67 30 -67zM194 773h190l31 -169h-14z" />
    <glyph glyph-name="aacute" unicode="&#xe1;" horiz-adv-x="620" 
d="M666 772l-291 -169h-14l115 169h190zM143 -13v1q-55 0 -88 43.5t-33 122.5q0 89 42.5 180t118 152.5t159.5 61.5q44 0 75 -22l158 22q-4 -14 -61 -225l-51 -205q-10 -63 21 -63q47 0 110 100l16 -9q-41 -80 -89.5 -119t-96.5 -39q-55 0 -85.5 28.5t-30.5 84.5q0 19 3 42
q-59 -156 -168 -156zM227 74h-1q16 0 37 27.5t48.5 96.5t52.5 169l30 123q-17 22 -40 22q-43 0 -80.5 -65t-57 -149.5t-19.5 -156.5q0 -67 30 -67z" />
    <glyph glyph-name="acircumflex" unicode="&#xe2;" horiz-adv-x="620" 
d="M143 -13v1q-55 0 -88 43.5t-33 122.5q0 89 42.5 180t118 152.5t159.5 61.5q44 0 75 -22l158 22q-4 -14 -61 -225l-51 -205q-10 -63 21 -63q47 0 110 100l16 -9q-41 -80 -89.5 -119t-96.5 -39q-55 0 -85.5 28.5t-30.5 84.5q0 19 3 42q-59 -156 -168 -156zM227 74h-1
q16 0 37 27.5t48.5 96.5t52.5 169l30 123q-17 22 -40 22q-43 0 -80.5 -65t-57 -149.5t-19.5 -156.5q0 -67 30 -67zM447 773l123 -169h-17l-130 71l-180 -71h-16l206 169h14z" />
    <glyph glyph-name="atilde" unicode="&#xe3;" horiz-adv-x="620" 
d="M143 -13v1q-55 0 -88 43.5t-33 122.5q0 89 42.5 180t118 152.5t159.5 61.5q44 0 75 -22l158 22q-4 -14 -61 -225l-51 -205q-10 -63 21 -63q47 0 110 100l16 -9q-41 -80 -89.5 -119t-96.5 -39q-55 0 -85.5 28.5t-30.5 84.5q0 19 3 42q-59 -156 -168 -156zM227 74h-1
q16 0 37 27.5t48.5 96.5t52.5 169l30 123q-17 22 -40 22q-43 0 -80.5 -65t-57 -149.5t-19.5 -156.5q0 -67 30 -67zM283 631h-19q0 54 24 99.5t70 45.5q30 0 85 -29t76 -29q28 0 40.5 12t14.5 43h19q0 -74 -25 -107t-61 -33q-35 0 -89.5 29.5t-78.5 29.5q-52 0 -56 -61z" />
    <glyph glyph-name="adieresis" unicode="&#xe4;" horiz-adv-x="620" 
d="M143 -13v1q-55 0 -88 43.5t-33 122.5q0 89 42.5 180t118 152.5t159.5 61.5q44 0 75 -22l158 22q-4 -14 -61 -225l-51 -205q-10 -63 21 -63q47 0 110 100l16 -9q-41 -80 -89.5 -119t-96.5 -39q-55 0 -85.5 28.5t-30.5 84.5q0 19 3 42q-59 -156 -168 -156zM227 74h-1
q16 0 37 27.5t48.5 96.5t52.5 169l30 123q-17 22 -40 22q-43 0 -80.5 -65t-57 -149.5t-19.5 -156.5q0 -67 30 -67zM224 695q0 32 22 55t54 23t55 -23t23 -55q0 -31 -22.5 -53.5t-55.5 -22.5q-32 0 -54 22.5t-22 53.5zM454 695q0 32 23 55t55 23t54.5 -22.5t22.5 -55.5
q0 -31 -22.5 -53.5t-54.5 -22.5q-33 0 -55.5 22.5t-22.5 53.5z" />
    <glyph glyph-name="aring" unicode="&#xe5;" horiz-adv-x="620" 
d="M143 -13v1q-55 0 -88 43.5t-33 122.5q0 89 42.5 180t118 152.5t159.5 61.5q44 0 75 -22l158 22q-4 -14 -61 -225l-51 -205q-10 -63 21 -63q47 0 110 100l16 -9q-41 -80 -89.5 -119t-96.5 -39q-55 0 -85.5 28.5t-30.5 84.5q0 19 3 42q-59 -156 -168 -156zM227 74h-1
q16 0 37 27.5t48.5 96.5t52.5 169l30 123q-17 22 -40 22q-43 0 -80.5 -65t-57 -149.5t-19.5 -156.5q0 -67 30 -67zM323 724q0 41 30.5 70.5t72.5 29.5q43 0 73 -29.5t30 -70.5q0 -42 -29.5 -70.5t-73.5 -28.5q-42 0 -72.5 28.5t-30.5 70.5zM368 724q0 -26 16 -43t42 -17
q27 0 43 16.5t16 43.5q0 26 -17 43t-42 17q-26 0 -42 -17t-16 -43z" />
    <glyph glyph-name="ae" unicode="&#xe6;" horiz-adv-x="810" 
d="M514 498v2q75 46 148 46q59 0 101 -25.5t42 -75.5q0 -95 -122 -126l-186 -46q-7 -47 -7 -74q0 -49 21 -77t60 -28q99 0 160 129l18 -8q-88 -227 -270 -227q-70 0 -109 41t-45 112q-1 9 -1 26q-62 -180 -181 -180q-55 0 -88 43t-33 122q0 90 43 180.5t118 151t158 60.5
q41 0 72 -21l114 21q-3 -8 -7 -24t-6 -22zM197 141h-1q0 -66 30 -66q17 0 37.5 27t47.5 95t52 169l30 122q-17 22 -40 22q-43 0 -80 -64.5t-56.5 -148.5t-19.5 -156zM661 467q0 44 -32 44q-41 0 -76 -62t-52 -145l35 10q64 17 94.5 60t30.5 93z" />
    <glyph glyph-name="ccedilla" unicode="&#xe7;" horiz-adv-x="496" 
d="M22 166h1q0 154 98 267.5t225 113.5q152 0 138 -179h-143q30 89 26 117q-4 27 -32 27q-41 0 -74.5 -55.5t-50 -126t-16.5 -129.5q0 -50 20 -79t57 -29q38 0 81.5 28.5t75.5 100.5l19 -8q-39 -101 -104 -162.5t-159 -64.5l-59 -70q19 9 43 9q31 0 51 -18.5t20 -43.5
q0 -47 -41.5 -74t-96.5 -27q-53 0 -91 25l12 20q24 -12 59 -12q31 0 53.5 13.5t22.5 39.5q0 17 -15 27t-36 10q-22 0 -41 -10l-8 5l91 108q-63 9 -94.5 56.5t-31.5 120.5z" />
    <glyph glyph-name="egrave" unicode="&#xe8;" horiz-adv-x="507" 
d="M22 166l1 1q0 156 99.5 268.5t237.5 112.5q59 0 101 -26t42 -76q0 -96 -122 -126l-186 -47q-6 -39 -6 -73q0 -50 20.5 -78.5t60.5 -28.5q97 0 158 129l19 -8q-88 -227 -270 -227q-76 0 -115.5 49.5t-39.5 129.5zM329 513q-41 0 -75.5 -61.5t-52.5 -145.5l35 9
q65 17 94.5 60t29.5 93q0 45 -31 45zM151 773h190l31 -169h-14z" />
    <glyph glyph-name="eacute" unicode="&#xe9;" horiz-adv-x="507" 
d="M22 166l1 1q0 156 99.5 268.5t237.5 112.5q59 0 101 -26t42 -76q0 -96 -122 -126l-186 -47q-6 -39 -6 -73q0 -50 20.5 -78.5t60.5 -28.5q97 0 158 129l19 -8q-88 -227 -270 -227q-76 0 -115.5 49.5t-39.5 129.5zM329 513q-41 0 -75.5 -61.5t-52.5 -145.5l35 9
q65 17 94.5 60t29.5 93q0 45 -31 45zM612 773l-291 -169h-14l115 169h190z" />
    <glyph glyph-name="ecircumflex" unicode="&#xea;" horiz-adv-x="507" 
d="M22 166l1 1q0 156 99.5 268.5t237.5 112.5q59 0 101 -26t42 -76q0 -96 -122 -126l-186 -47q-6 -39 -6 -73q0 -50 20.5 -78.5t60.5 -28.5q97 0 158 129l19 -8q-88 -227 -270 -227q-76 0 -115.5 49.5t-39.5 129.5zM329 513q-41 0 -75.5 -61.5t-52.5 -145.5l35 9
q65 17 94.5 60t29.5 93q0 45 -31 45zM415 773l123 -169h-17l-130 71l-180 -71h-16l206 169h14z" />
    <glyph glyph-name="edieresis" unicode="&#xeb;" horiz-adv-x="507" 
d="M22 166l1 1q0 156 99.5 268.5t237.5 112.5q59 0 101 -26t42 -76q0 -96 -122 -126l-186 -47q-6 -39 -6 -73q0 -50 20.5 -78.5t60.5 -28.5q97 0 158 129l19 -8q-88 -227 -270 -227q-76 0 -115.5 49.5t-39.5 129.5zM329 513q-41 0 -75.5 -61.5t-52.5 -145.5l35 9
q65 17 94.5 60t29.5 93q0 45 -31 45zM182 695q0 32 22 55t54 23t55 -23t23 -55q0 -31 -22.5 -53.5t-55.5 -22.5q-32 0 -54 22.5t-22 53.5zM412 695q0 32 23 55t55 23t54.5 -22.5t22.5 -55.5q0 -31 -22.5 -53.5t-54.5 -22.5q-33 0 -55.5 22.5t-22.5 53.5z" />
    <glyph glyph-name="igrave" unicode="&#xec;" horiz-adv-x="349" 
d="M46 175l47 185q17 66 10.5 82t-55.5 18l4 16l252 71q-30 -104 -60 -224l-52 -208q-16 -61 21 -61q47 0 110 100l16 -9q-41 -80 -89.5 -119t-96.5 -39q-76 0 -104 43.5t-3 144.5zM60 772h190l31 -169h-14z" />
    <glyph glyph-name="iacute" unicode="&#xed;" horiz-adv-x="349" 
d="M46 175l47 185q17 66 10.5 82t-55.5 18l4 16l252 71q-30 -104 -60 -224l-52 -208q-16 -61 21 -61q47 0 110 100l16 -9q-41 -80 -89.5 -119t-96.5 -39q-76 0 -104 43.5t-3 144.5zM455 772l-291 -169h-14l115 169h190z" />
    <glyph glyph-name="icircumflex" unicode="&#xee;" horiz-adv-x="349" 
d="M46 175l47 185q17 66 10.5 82t-55.5 18l4 16l252 71q-30 -104 -60 -224l-52 -208q-16 -61 21 -61q47 0 110 100l16 -9q-41 -80 -89.5 -119t-96.5 -39q-76 0 -104 43.5t-3 144.5zM280 772l123 -169h-17l-130 71l-180 -71h-16l206 169h14z" />
    <glyph glyph-name="idieresis" unicode="&#xef;" horiz-adv-x="349" 
d="M46 175l47 185q17 66 10.5 82t-55.5 18l4 16l252 71q-30 -104 -60 -224l-52 -208q-16 -61 21 -61q47 0 110 100l16 -9q-41 -80 -89.5 -119t-96.5 -39q-76 0 -104 43.5t-3 144.5zM46 694q0 32 22 55t54 23t55 -23t23 -55q0 -31 -22.5 -53.5t-55.5 -22.5q-32 0 -54 22.5
t-22 53.5zM276 694q0 32 23 55t55 23t54.5 -22.5t22.5 -55.5q0 -31 -22.5 -53.5t-54.5 -22.5q-33 0 -55.5 22.5t-22.5 53.5z" />
    <glyph glyph-name="eth" unicode="&#xf0;" horiz-adv-x="593" 
d="M222 623h1l82 71q-33 24 -81 46l12 19q61 -15 103 -35l82 71l19 -21l-74 -64q95 -52 150 -137t55 -192q0 -153 -104 -273.5t-247 -120.5q-104 0 -151 51.5t-47 131.5q0 75 32 145.5t80.5 119.5t107.5 79t113 30q27 0 50 -9q-20 88 -79 141l-86 -74zM418 425h1q0 18 -2 48
q-13 35 -49 35q-49 0 -93 -77t-66.5 -169t-22.5 -156q0 -25 2.5 -40.5t13.5 -29.5t32 -14q39 0 81.5 51.5t72.5 147t30 204.5z" />
    <glyph glyph-name="ntilde" unicode="&#xf1;" horiz-adv-x="635" 
d="M320 547h-2l-54 -208q19 49 34 80t37.5 63.5t51 48.5t62.5 16q43 0 68.5 -22.5t32.5 -74.5t-18 -136l-56 -199q-16 -61 19 -61q48 0 111 100l15 -9q-80 -158 -182 -158q-164 0 -101 212l40 139q11 39 13.5 67.5t-2.5 42.5t-17 14q-30 0 -79.5 -111.5t-88.5 -257.5
l-26 -93h-157l88 360q17 66 10.5 82t-55.5 18l4 16zM244 630h-19q0 54 24 99.5t70 45.5q29 0 85 -29t76 -29q28 0 40.5 12t14.5 43h19q0 -74 -25 -107t-61 -33q-35 0 -89.5 29.5t-78.5 29.5q-52 0 -56 -61z" />
    <glyph glyph-name="ograve" unicode="&#xf2;" horiz-adv-x="586" 
d="M398 399q0 113 -56 113q-68 0 -111 -116t-43 -264q0 -110 56 -110q46 0 82 56.5t54 141.5t18 179zM22 205q0 86 42.5 164t120.5 128t172 50q90 0 148.5 -61t58.5 -161q0 -132 -97 -235t-239 -103q-90 0 -148 59.5t-58 158.5zM179 772h190l31 -169h-14z" />
    <glyph glyph-name="oacute" unicode="&#xf3;" horiz-adv-x="586" 
d="M398 399q0 113 -56 113q-68 0 -111 -116t-43 -264q0 -110 56 -110q46 0 82 56.5t54 141.5t18 179zM22 205q0 86 42.5 164t120.5 128t172 50q90 0 148.5 -61t58.5 -161q0 -132 -97 -235t-239 -103q-90 0 -148 59.5t-58 158.5zM619 772l-291 -169h-14l115 169h190z" />
    <glyph glyph-name="ocircumflex" unicode="&#xf4;" horiz-adv-x="586" 
d="M398 399q0 113 -56 113q-68 0 -111 -116t-43 -264q0 -110 56 -110q46 0 82 56.5t54 141.5t18 179zM22 205q0 86 42.5 164t120.5 128t172 50q90 0 148.5 -61t58.5 -161q0 -132 -97 -235t-239 -103q-90 0 -148 59.5t-58 158.5zM410 772l123 -169h-17l-130 71l-180 -71h-16
l206 169h14z" />
    <glyph glyph-name="otilde" unicode="&#xf5;" horiz-adv-x="586" 
d="M398 399q0 113 -56 113q-68 0 -111 -116t-43 -264q0 -110 56 -110q46 0 82 56.5t54 141.5t18 179zM22 205q0 86 42.5 164t120.5 128t172 50q90 0 148.5 -61t58.5 -161q0 -132 -97 -235t-239 -103q-90 0 -148 59.5t-58 158.5zM233 630h-19q0 54 24 99.5t70 45.5
q30 0 85 -29t76 -29q28 0 40.5 12t14.5 43h19q0 -74 -25 -107t-61 -33q-35 0 -89.5 29.5t-78.5 29.5q-52 0 -56 -61z" />
    <glyph glyph-name="odieresis" unicode="&#xf6;" horiz-adv-x="586" 
d="M398 399q0 113 -56 113q-68 0 -111 -116t-43 -264q0 -110 56 -110q46 0 82 56.5t54 141.5t18 179zM22 205q0 86 42.5 164t120.5 128t172 50q90 0 148.5 -61t58.5 -161q0 -132 -97 -235t-239 -103q-90 0 -148 59.5t-58 158.5zM184 694q0 32 22 55t54 23t55 -23t23 -55
q0 -31 -22.5 -53.5t-55.5 -22.5q-32 0 -54 22.5t-22 53.5zM414 694q0 32 23 55t55 23t54.5 -22.5t22.5 -55.5q0 -31 -22.5 -53.5t-54.5 -22.5q-33 0 -55.5 22.5t-22.5 53.5z" />
    <glyph glyph-name="divide" unicode="&#xf7;" 
d="M269 49v107h105v-107h-105zM269 385v109h105v-109h-105zM580 230h-522v76h522v-76z" />
    <glyph glyph-name="oslash" unicode="&#xf8;" horiz-adv-x="586" 
d="M22 205v1q0 86 42.5 164t120.5 128t172 50q91 0 149 -61l67 72l29 -23l-74 -79q36 -55 36 -132q0 -132 -97 -235t-239 -103q-63 0 -110 29l-68 -73l-28 23l67 71q-67 61 -67 168zM398 400v-1q0 113 -56 113q-45 0 -80.5 -55t-53.5 -138t-20 -175l209 225q1 11 1 31z
M244 22q58 0 97.5 83t52.5 206l-204 -218q11 -71 54 -71z" />
    <glyph glyph-name="ugrave" unicode="&#xf9;" horiz-adv-x="637" 
d="M68 220h-2l40 140q19 65 12.5 81.5t-56.5 18.5l4 16l251 71l-96 -351q-35 -124 5 -124q32 0 82 112t90 257l27 97h151l-108 -423q-15 -61 19 -61q48 0 111 100l15 -9q-80 -158 -174 -158q-124 0 -119 119q6 51 18 89q-19 -48 -34.5 -79.5t-38 -64t-51 -48.5t-62.5 -16
q-40 0 -66 22t-35.5 73.5t17.5 137.5zM214 772h190l31 -169h-14z" />
    <glyph glyph-name="uacute" unicode="&#xfa;" horiz-adv-x="637" 
d="M68 220h-2l40 140q19 65 12.5 81.5t-56.5 18.5l4 16l251 71l-96 -351q-35 -124 5 -124q32 0 82 112t90 257l27 97h151l-108 -423q-15 -61 19 -61q48 0 111 100l15 -9q-80 -158 -174 -158q-124 0 -119 119q6 51 18 89q-19 -48 -34.5 -79.5t-38 -64t-51 -48.5t-62.5 -16
q-40 0 -66 22t-35.5 73.5t17.5 137.5zM651 772l-291 -169h-14l115 169h190z" />
    <glyph glyph-name="ucircumflex" unicode="&#xfb;" horiz-adv-x="637" 
d="M68 220h-2l40 140q19 65 12.5 81.5t-56.5 18.5l4 16l251 71l-96 -351q-35 -124 5 -124q32 0 82 112t90 257l27 97h151l-108 -423q-15 -61 19 -61q48 0 111 100l15 -9q-80 -158 -174 -158q-124 0 -119 119q6 51 18 89q-19 -48 -34.5 -79.5t-38 -64t-51 -48.5t-62.5 -16
q-40 0 -66 22t-35.5 73.5t17.5 137.5zM427 772l123 -169h-17l-130 71l-180 -71h-16l206 169h14z" />
    <glyph glyph-name="udieresis" unicode="&#xfc;" horiz-adv-x="637" 
d="M68 220h-2l40 140q19 65 12.5 81.5t-56.5 18.5l4 16l251 71l-96 -351q-35 -124 5 -124q32 0 82 112t90 257l27 97h151l-108 -423q-15 -61 19 -61q48 0 111 100l15 -9q-80 -158 -174 -158q-124 0 -119 119q6 51 18 89q-19 -48 -34.5 -79.5t-38 -64t-51 -48.5t-62.5 -16
q-40 0 -66 22t-35.5 73.5t17.5 137.5zM201 694q0 32 22 55t54 23t55 -23t23 -55q0 -31 -22.5 -53.5t-55.5 -22.5q-32 0 -54 22.5t-22 53.5zM431 694q0 32 23 55t55 23t54.5 -22.5t22.5 -55.5q0 -31 -22.5 -53.5t-54.5 -22.5q-33 0 -55.5 22.5t-22.5 53.5z" />
    <glyph glyph-name="yacute" unicode="&#xfd;" horiz-adv-x="570" 
d="M489 423l-1 1l-230 -436q-65 -122 -126.5 -165t-135.5 -43q-35 0 -70 11l34 143h6q39 -32 110 -32q85 0 110 48l9 17l-103 494l-3 15t-3 13t-4.5 10t-8 10t-12 7t-18.5 7l4 16h273l-4 -16q-37 -8 -46.5 -21t-2.5 -53l48 -273l115 221q15 29 22 48.5t8 36.5t-10 27t-33 14
l4 16h182l-4 -16q-45 -13 -62.5 -28t-47.5 -72zM643 773l-291 -169h-14l115 169h190z" />
    <glyph glyph-name="thorn" unicode="&#xfe;" horiz-adv-x="584" 
d="M-37 -216h1l208 832q17 66 10.5 82t-54.5 18l4 16l252 71q-30 -104 -60 -224l-51 -189q59 158 168 158q55 0 88 -44t33 -123q0 -89 -42.5 -180t-117.5 -152.5t-158 -61.5q-33 0 -65 15l-54 -218h-162zM222 169l-30 -125q16 -21 42 -21q42 0 79.5 64.5t57 149.5t19.5 157
q0 67 -31 67q-17 0 -37.5 -27t-47 -95.5t-52.5 -169.5z" />
    <glyph glyph-name="ydieresis" unicode="&#xff;" horiz-adv-x="570" 
d="M489 423l-1 1l-230 -436q-65 -122 -126.5 -165t-135.5 -43q-35 0 -70 11l34 143h6q39 -32 110 -32q85 0 110 48l9 17l-103 494l-3 15t-3 13t-4.5 10t-8 10t-12 7t-18.5 7l4 16h273l-4 -16q-37 -8 -46.5 -21t-2.5 -53l48 -273l115 221q15 29 22 48.5t8 36.5t-10 27t-33 14
l4 16h182l-4 -16q-45 -13 -62.5 -28t-47.5 -72zM173 695q0 32 22 55t54 23t55 -23t23 -55q0 -31 -22.5 -53.5t-55.5 -22.5q-32 0 -54 22.5t-22 53.5zM403 695q0 32 23 55t55 23t54.5 -22.5t22.5 -55.5q0 -31 -22.5 -53.5t-54.5 -22.5q-33 0 -55.5 22.5t-22.5 53.5z" />
    <glyph glyph-name="Amacron" unicode="&#x100;" horiz-adv-x="760" 
d="M-78 0l1 -1l4 16q47 9 77.5 38t96.5 134l324 528q70 13 104 50h4l82 -644q6 -56 19 -77t51 -28l-4 -16h-316l5 16q45 6 60 23t8 60l-16 141h-236l-10 -18q-27 -46 -43.5 -80t-21 -55.5t-4 -35t12.5 -20.5t21.5 -9.5t28.5 -5.5l-5 -16h-243zM387 573l-172 -288h203z
M637 817h-296l16 68h296z" />
    <glyph glyph-name="amacron" unicode="&#x101;" horiz-adv-x="620" 
d="M143 -13v1q-55 0 -88 43.5t-33 122.5q0 89 42.5 180t118 152.5t159.5 61.5q44 0 75 -22l158 22q-4 -14 -61 -225l-51 -205q-10 -63 21 -63q47 0 110 100l16 -9q-41 -80 -89.5 -119t-96.5 -39q-55 0 -85.5 28.5t-30.5 84.5q0 19 3 42q-59 -156 -168 -156zM227 74h-1
q16 0 37 27.5t48.5 96.5t52.5 169l30 123q-17 22 -40 22q-43 0 -80.5 -65t-57 -149.5t-19.5 -156.5q0 -67 30 -67zM570 666h-321l16 68h321z" />
    <glyph glyph-name="Abreve" unicode="&#x102;" horiz-adv-x="760" 
d="M-78 0l1 -1l4 16q47 9 77.5 38t96.5 134l324 528q70 13 104 50h4l82 -644q6 -56 19 -77t51 -28l-4 -16h-316l5 16q45 6 60 23t8 60l-16 141h-236l-10 -18q-27 -46 -43.5 -80t-21 -55.5t-4 -35t12.5 -20.5t21.5 -9.5t28.5 -5.5l-5 -16h-243zM387 573l-172 -288h203z
M487 790q-71 0 -98 42.5t-14 98.5h49q-17 -99 68 -99q88 0 119 99h53q-15 -58 -61 -99.5t-116 -41.5z" />
    <glyph glyph-name="abreve" unicode="&#x103;" horiz-adv-x="620" 
d="M143 -13v1q-55 0 -88 43.5t-33 122.5q0 89 42.5 180t118 152.5t159.5 61.5q44 0 75 -22l158 22q-4 -14 -61 -225l-51 -205q-10 -63 21 -63q47 0 110 100l16 -9q-41 -80 -89.5 -119t-96.5 -39q-55 0 -85.5 28.5t-30.5 84.5q0 19 3 42q-59 -156 -168 -156zM227 74h-1
q16 0 37 27.5t48.5 96.5t52.5 169l30 123q-17 22 -40 22q-43 0 -80.5 -65t-57 -149.5t-19.5 -156.5q0 -67 30 -67zM416 664q88 0 119 99h53q-15 -58 -61 -99.5t-116 -41.5q-71 0 -98 42.5t-14 98.5h49q-17 -99 68 -99z" />
    <glyph glyph-name="Aogonek" unicode="&#x104;" horiz-adv-x="760" 
d="M386 574l-172 -288h203zM585 -192l1 -3l2 -9q-58 -35 -112 -35q-37 0 -62.5 17.5t-25.5 53.5q0 82 156 166h-178l5 16q45 6 60 23t8 60l-16 141h-236l-10 -18q-27 -46 -43.5 -80t-21 -55.5t-4 -35t12.5 -20.5t21.5 -9.5t28.5 -5.5l-5 -16h-243l4 16q47 9 77.5 38
t96.5 134l324 528q70 13 104 50h4l82 -644q6 -56 19 -77t51 -28l-4 -16h-113q-83 -69 -83 -141q0 -27 15.5 -43t42.5 -16q19 0 42 9z" />
    <glyph glyph-name="aogonek" unicode="&#x105;" horiz-adv-x="620" 
d="M227 73h-1q16 0 37 27.5t48.5 96.5t52.5 169l30 123q-17 22 -40 22q-43 0 -80.5 -65t-57 -149.5t-19.5 -156.5q0 -67 30 -67zM464 -192l1 1l2 -9q-58 -35 -112 -35q-37 0 -62.5 17.5t-25.5 53.5q0 78 135 153q-94 11 -94 112q0 19 3 42q-59 -156 -168 -156
q-55 0 -88 43.5t-33 122.5q0 89 42.5 180t118 152.5t159.5 61.5q44 0 75 -22l158 22q-4 -14 -61 -225l-51 -205q-10 -63 21 -63q47 0 110 100l16 -9q-76 -149 -177 -158q-69 -63 -69 -129q0 -27 15.5 -43t42.5 -16q20 0 42 9z" />
    <glyph glyph-name="Cacute" unicode="&#x106;" horiz-adv-x="723" 
d="M689 470h-21q-4 49 -7.5 76.5t-13.5 62t-25.5 52t-42.5 30t-65 12.5q-67 0 -123.5 -48.5t-90.5 -122t-52.5 -153.5t-18.5 -151q0 -189 153 -189q148 0 252 183l26 -15q-24 -52 -53 -90.5t-68 -68.5t-90.5 -45.5t-115.5 -15.5q-128 0 -211 76t-83 206q0 134 71 244
t183 169.5t238 59.5q110 0 198 -42zM749 922l-269 -129h-16l84 129h201z" />
    <glyph glyph-name="cacute" unicode="&#x107;" horiz-adv-x="496" 
d="M22 166q0 154 98 267.5t225 113.5q152 0 138 -179h-143q30 89 26 117q-4 27 -32 27q-41 0 -74.5 -55.5t-50 -126t-16.5 -129.5q0 -50 20 -79t57 -29q38 0 81.5 28.5t75.5 100.5l19 -8q-88 -227 -270 -227q-77 0 -115.5 49t-38.5 130zM608 772l-291 -169h-14l115 169h190z
" />
    <glyph glyph-name="Ccircumflex" unicode="&#x108;" horiz-adv-x="723" 
d="M689 470h-21q-4 49 -7.5 76.5t-13.5 62t-25.5 52t-42.5 30t-65 12.5q-67 0 -123.5 -48.5t-90.5 -122t-52.5 -153.5t-18.5 -151q0 -189 153 -189q148 0 252 183l26 -15q-24 -52 -53 -90.5t-68 -68.5t-90.5 -45.5t-115.5 -15.5q-128 0 -211 76t-83 206q0 134 71 244
t183 169.5t238 59.5q110 0 198 -42zM545 922h16l123 -129h-21l-127 46l-155 -46h-23z" />
    <glyph glyph-name="ccircumflex" unicode="&#x109;" horiz-adv-x="496" 
d="M22 166q0 154 98 267.5t225 113.5q152 0 138 -179h-143q30 89 26 117q-4 27 -32 27q-41 0 -74.5 -55.5t-50 -126t-16.5 -129.5q0 -50 20 -79t57 -29q38 0 81.5 28.5t75.5 100.5l19 -8q-88 -227 -270 -227q-77 0 -115.5 49t-38.5 130zM398 772l123 -169h-17l-130 71
l-180 -71h-16l206 169h14z" />
    <glyph glyph-name="Cdotaccent" unicode="&#x10a;" horiz-adv-x="723" 
d="M689 470h-21q-4 49 -7.5 76.5t-13.5 62t-25.5 52t-42.5 30t-65 12.5q-67 0 -123.5 -48.5t-90.5 -122t-52.5 -153.5t-18.5 -151q0 -189 153 -189q148 0 252 183l26 -15q-24 -52 -53 -90.5t-68 -68.5t-90.5 -45.5t-115.5 -15.5q-128 0 -211 76t-83 206q0 134 71 244
t183 169.5t238 59.5q110 0 198 -42zM457 866q0 32 22 54.5t54 22.5q33 0 55.5 -22.5t22.5 -54.5t-22.5 -54.5t-55.5 -22.5q-32 0 -54 22.5t-22 54.5z" />
    <glyph glyph-name="cdotaccent" unicode="&#x10b;" horiz-adv-x="496" 
d="M22 166q0 154 98 267.5t225 113.5q152 0 138 -179h-143q30 89 26 117q-4 27 -32 27q-41 0 -74.5 -55.5t-50 -126t-16.5 -129.5q0 -50 20 -79t57 -29q38 0 81.5 28.5t75.5 100.5l19 -8q-88 -227 -270 -227q-77 0 -115.5 49t-38.5 130zM302 694q0 33 22.5 55.5t54.5 22.5
t54.5 -23t22.5 -55q0 -31 -22.5 -53.5t-54.5 -22.5t-54.5 22.5t-22.5 53.5z" />
    <glyph glyph-name="Ccaron" unicode="&#x10c;" horiz-adv-x="723" 
d="M689 470h-21q-4 49 -7.5 76.5t-13.5 62t-25.5 52t-42.5 30t-65 12.5q-67 0 -123.5 -48.5t-90.5 -122t-52.5 -153.5t-18.5 -151q0 -189 153 -189q148 0 252 183l26 -15q-24 -52 -53 -90.5t-68 -68.5t-90.5 -45.5t-115.5 -15.5q-128 0 -211 76t-83 206q0 134 71 244
t183 169.5t238 59.5q110 0 198 -42zM531 793h-16l-123 129h21l127 -46l155 46h23z" />
    <glyph glyph-name="ccaron" unicode="&#x10d;" horiz-adv-x="496" 
d="M22 166q0 154 98 267.5t225 113.5q152 0 138 -179h-143q30 89 26 117q-4 27 -32 27q-41 0 -74.5 -55.5t-50 -126t-16.5 -129.5q0 -50 20 -79t57 -29q38 0 81.5 28.5t75.5 100.5l19 -8q-88 -227 -270 -227q-77 0 -115.5 49t-38.5 130zM345 603l-123 169h17l130 -71l180 71
h16l-206 -169h-14z" />
    <glyph glyph-name="Dcaron" unicode="&#x10e;" horiz-adv-x="822" 
d="M134 725v1h281q82 0 151 -16.5t124.5 -50t87 -90t31.5 -130.5q0 -90 -33 -165t-88 -124.5t-128 -84t-151.5 -49.5t-161.5 -15h-292l3 16q68 8 89.5 30t41.5 100l108 433q20 77 9 98t-75 31zM238 37h27q108 0 190 60t122.5 155.5t40.5 209.5q0 121 -45.5 174.5
t-146.5 53.5h-25zM482 794h-16l-123 129h21l127 -46l155 46h23z" />
    <glyph glyph-name="dcaron" unicode="&#x10f;" horiz-adv-x="734" 
d="M406 531l1 1l21 85q17 66 11 82t-55 18l4 16l252 71q-30 -104 -60 -224l-116 -460q-14 -65 21 -65q47 0 110 100l16 -9q-41 -80 -89.5 -119t-96.5 -39q-112 0 -117 113q0 19 3 42q-59 -156 -168 -156q-55 0 -88 44t-33 123q0 90 42.5 180t117.5 150.5t159 60.5
q37 0 65 -14zM228 74q17 0 37.5 27.5t47.5 96.5t52 169l31 122q-16 23 -42 23q-43 0 -80 -64.5t-56.5 -149t-19.5 -156.5q0 -68 30 -68zM747 641v1q-27 1 -47 19t-20 45q0 28 20 47.5t49 19.5q30 0 47.5 -21t17.5 -54q0 -60 -50 -108t-128 -73l-5 10q116 62 116 114z" />
    <glyph glyph-name="Dcroat" unicode="&#x110;" horiz-adv-x="839" 
d="M151 725v1h281q82 0 151 -16.5t124.5 -50t87 -90t31.5 -130.5q0 -90 -33 -165t-88 -124.5t-128 -84t-151.5 -49.5t-161.5 -15h-292l3 16q68 8 89.5 30t41.5 100l51 206h-105l12 44h104l46 183q20 77 9 98t-75 31zM255 37h27q108 0 190 60t122.5 155.5t40.5 209.5
q0 121 -45.5 174.5t-146.5 53.5h-25l-73 -293h127l-12 -44h-126z" />
    <glyph glyph-name="dcroat" unicode="&#x111;" horiz-adv-x="643" 
d="M321 633h110q13 54 5.5 67.5t-52.5 15.5l4 16l252 71q-39 -141 -47 -170h117l-12 -50h-117q-1 -1 -1 -3l-116 -460q-14 -65 21 -65q47 0 110 100l16 -9q-41 -80 -89.5 -119t-96.5 -39q-112 0 -117 113q0 19 3 42q-59 -156 -168 -156q-55 0 -88 44t-33 123q0 90 42.5 180
t117.5 150.5t159 60.5q37 0 65 -14l13 52h-110zM227 73q17 0 37.5 27.5t47.5 96.5t52 169l31 122q-16 23 -42 23q-43 0 -80 -64.5t-56.5 -149t-19.5 -156.5q0 -68 30 -68z" />
    <glyph glyph-name="Emacron" unicode="&#x112;" horiz-adv-x="718" 
d="M134 725l-2 1h344q202 0 258 2l-49 -267h-22q-1 44 -4.5 72t-13 56.5t-26 45t-43.5 30.5t-66.5 19.5t-94.5 5.5h-16l-73 -293h137l89 120h19l-71 -285h-19l-29 121h-137l-70 -279q-6 -24 4 -30.5t48 -6.5q121 0 194.5 53.5t138.5 175.5h22l-86 -267q-58 2 -271 2h-340
l3 16q68 8 89.5 30t41.5 100l108 433q20 77 9 98t-75 31zM653 819h-296l16 68h296z" />
    <glyph glyph-name="emacron" unicode="&#x113;" horiz-adv-x="507" 
d="M22 166l1 1q0 156 99.5 268.5t237.5 112.5q59 0 101 -26t42 -76q0 -96 -122 -126l-186 -47q-6 -39 -6 -73q0 -50 20.5 -78.5t60.5 -28.5q97 0 158 129l19 -8q-88 -227 -270 -227q-76 0 -115.5 49.5t-39.5 129.5zM329 513q-41 0 -75.5 -61.5t-52.5 -145.5l35 9
q65 17 94.5 60t29.5 93q0 45 -31 45zM534 666h-321l16 68h321z" />
    <glyph glyph-name="Ebreve" unicode="&#x114;" horiz-adv-x="718" 
d="M134 725l-2 1h344q202 0 258 2l-49 -267h-22q-1 44 -4.5 72t-13 56.5t-26 45t-43.5 30.5t-66.5 19.5t-94.5 5.5h-16l-73 -293h137l89 120h19l-71 -285h-19l-29 121h-137l-70 -279q-6 -24 4 -30.5t48 -6.5q121 0 194.5 53.5t138.5 175.5h22l-86 -267q-58 2 -271 2h-340
l3 16q68 8 89.5 30t41.5 100l108 433q20 77 9 98t-75 31zM477 792q-71 0 -98 42.5t-14 98.5h49q-17 -99 68 -99q88 0 119 99h53q-15 -58 -61 -99.5t-116 -41.5z" />
    <glyph glyph-name="ebreve" unicode="&#x115;" horiz-adv-x="507" 
d="M22 166l1 1q0 156 99.5 268.5t237.5 112.5q59 0 101 -26t42 -76q0 -96 -122 -126l-186 -47q-6 -39 -6 -73q0 -50 20.5 -78.5t60.5 -28.5q97 0 158 129l19 -8q-88 -227 -270 -227q-76 0 -115.5 49.5t-39.5 129.5zM329 513q-41 0 -75.5 -61.5t-52.5 -145.5l35 9
q65 17 94.5 60t29.5 93q0 45 -31 45zM376 664q88 0 119 99h53q-15 -58 -61 -99.5t-116 -41.5q-71 0 -98 42.5t-14 98.5h49q-17 -99 68 -99z" />
    <glyph glyph-name="Edotaccent" unicode="&#x116;" horiz-adv-x="718" 
d="M134 725l-2 1h344q202 0 258 2l-49 -267h-22q-1 44 -4.5 72t-13 56.5t-26 45t-43.5 30.5t-66.5 19.5t-94.5 5.5h-16l-73 -293h137l89 120h19l-71 -285h-19l-29 121h-137l-70 -279q-6 -24 4 -30.5t48 -6.5q121 0 194.5 53.5t138.5 175.5h22l-86 -267q-58 2 -271 2h-340
l3 16q68 8 89.5 30t41.5 100l108 433q20 77 9 98t-75 31zM409 867q0 32 22 54.5t54 22.5q33 0 55.5 -22.5t22.5 -54.5t-22.5 -54.5t-55.5 -22.5q-32 0 -54 22.5t-22 54.5z" />
    <glyph glyph-name="edotaccent" unicode="&#x117;" horiz-adv-x="507" 
d="M22 166l1 1q0 156 99.5 268.5t237.5 112.5q59 0 101 -26t42 -76q0 -96 -122 -126l-186 -47q-6 -39 -6 -73q0 -50 20.5 -78.5t60.5 -28.5q97 0 158 129l19 -8q-88 -227 -270 -227q-76 0 -115.5 49.5t-39.5 129.5zM329 513q-41 0 -75.5 -61.5t-52.5 -145.5l35 9
q65 17 94.5 60t29.5 93q0 45 -31 45zM309 695q0 33 22.5 55.5t54.5 22.5t54.5 -23t22.5 -55q0 -31 -22.5 -53.5t-54.5 -22.5t-54.5 22.5t-22.5 53.5z" />
    <glyph glyph-name="Eogonek" unicode="&#x118;" horiz-adv-x="718" 
d="M503 -192l-3 -1l2 -9q-58 -35 -112 -35q-37 0 -62.5 17.5t-25.5 53.5q0 82 156 166h-165h-340l3 16q68 8 89.5 30t41.5 100l108 433q20 77 9 98t-75 31l3 16h344q202 0 258 2l-49 -267h-22q-1 44 -4.5 72t-13 56.5t-26 45t-43.5 30.5t-66.5 19.5t-94.5 5.5h-16l-73 -293
h137l89 120h19l-71 -285h-19l-29 121h-137l-70 -279q-6 -24 4 -30.5t48 -6.5q121 0 194.5 53.5t138.5 175.5h22l-86 -267q-52 2 -81 2q-82 -68 -82 -141q0 -27 15.5 -43t42.5 -16q19 0 42 9z" />
    <glyph glyph-name="eogonek" unicode="&#x119;" horiz-adv-x="507" 
d="M328 512q-41 0 -75.5 -61.5t-52.5 -145.5l35 9q65 17 94.5 60t29.5 93q0 45 -31 45zM292 -192l2 1l2 -9q-58 -35 -112 -35q-37 0 -62.5 17.5t-25.5 53.5q0 80 146 160q-32 -8 -64 -8q-76 0 -115.5 49.5t-39.5 129.5q0 156 99.5 268.5t237.5 112.5q59 0 101 -26t42 -76
q0 -96 -122 -126l-186 -47q-6 -39 -6 -73q0 -50 20.5 -78.5t60.5 -28.5q97 0 158 129l19 -8q-53 -136 -143 -191h1q-44 -28 -78.5 -73t-34.5 -92q0 -27 15.5 -43t42.5 -16q20 0 42 9z" />
    <glyph glyph-name="Ecaron" unicode="&#x11a;" horiz-adv-x="718" 
d="M134 725l-2 1h344q202 0 258 2l-49 -267h-22q-1 44 -4.5 72t-13 56.5t-26 45t-43.5 30.5t-66.5 19.5t-94.5 5.5h-16l-73 -293h137l89 120h19l-71 -285h-19l-29 121h-137l-70 -279q-6 -24 4 -30.5t48 -6.5q121 0 194.5 53.5t138.5 175.5h22l-86 -267q-58 2 -271 2h-340
l3 16q68 8 89.5 30t41.5 100l108 433q20 77 9 98t-75 31zM492 794h-16l-123 129h21l127 -46l155 46h23z" />
    <glyph glyph-name="ecaron" unicode="&#x11b;" horiz-adv-x="507" 
d="M22 166l1 1q0 156 99.5 268.5t237.5 112.5q59 0 101 -26t42 -76q0 -96 -122 -126l-186 -47q-6 -39 -6 -73q0 -50 20.5 -78.5t60.5 -28.5q97 0 158 129l19 -8q-88 -227 -270 -227q-76 0 -115.5 49.5t-39.5 129.5zM329 513q-41 0 -75.5 -61.5t-52.5 -145.5l35 9
q65 17 94.5 60t29.5 93q0 45 -31 45zM359 604l-123 169h17l130 -71l180 71h16l-206 -169h-14z" />
    <glyph glyph-name="Gcircumflex" unicode="&#x11c;" horiz-adv-x="787" 
d="M360 -13q-153 0 -243 77t-90 209q0 94 38.5 180t105 150t161.5 101.5t204 37.5q47 0 110 -11.5t102 -30.5l-39 -230h-20q-4 45 -9 76t-16 63t-28 51t-45 31t-67 12q-72 0 -132.5 -45.5t-97.5 -116.5t-57 -152.5t-20 -160.5q0 -92 39.5 -147t112.5 -55q98 0 123 96l11 42
q20 79 8 99.5t-85 30.5l5 18h349l-5 -18q-52 -8 -65.5 -25.5t-32.5 -104.5l-25 -100q-53 -36 -131.5 -56.5t-160.5 -20.5zM546 922h16l123 -129h-21l-127 46l-155 -46h-23z" />
    <glyph glyph-name="gcircumflex" unicode="&#x11d;" horiz-adv-x="603" 
d="M76 325v2q0 86 81.5 154t201.5 68q35 0 65 -9h210l-12 -50l-124 5q34 -37 34 -90q0 -87 -81.5 -154.5t-201.5 -67.5q-41 0 -70 10q-54 -31 -54 -51q0 -17 47 -23l146 -21q91 -13 140 -41t49 -82q0 -61 -56 -107.5t-136.5 -69t-166.5 -22.5q-89 0 -150.5 25.5t-61.5 73.5
q0 27 16.5 46.5t47.5 31t52.5 17t53.5 10.5q-44 12 -65.5 36t-21.5 51q0 22 11.5 42.5t33.5 38t41 29t46 26.5q-75 38 -75 122zM259 -43l-123 18l-10 2l3 -1q-87 -28 -87 -89q0 -34 41.5 -52t100.5 -18q73 0 131 24t58 63q0 22 -26.5 33t-87.5 20zM392 435q0 42 -12.5 61
t-39.5 19q-54 0 -88.5 -67.5t-34.5 -151.5q0 -79 52 -79q54 0 88.5 68.5t34.5 149.5zM412 774l123 -169h-17l-130 71l-180 -71h-16l206 169h14z" />
    <glyph glyph-name="Gbreve" unicode="&#x11e;" horiz-adv-x="787" 
d="M360 -13q-153 0 -243 77t-90 209q0 94 38.5 180t105 150t161.5 101.5t204 37.5q47 0 110 -11.5t102 -30.5l-39 -230h-20q-4 45 -9 76t-16 63t-28 51t-45 31t-67 12q-72 0 -132.5 -45.5t-97.5 -116.5t-57 -152.5t-20 -160.5q0 -92 39.5 -147t112.5 -55q98 0 123 96l11 42
q20 79 8 99.5t-85 30.5l5 18h349l-5 -18q-52 -8 -65.5 -25.5t-32.5 -104.5l-25 -100q-53 -36 -131.5 -56.5t-160.5 -20.5zM523 791q-71 0 -98 42.5t-14 98.5h49q-17 -99 68 -99q88 0 119 99h53q-15 -58 -61 -99.5t-116 -41.5z" />
    <glyph glyph-name="gbreve" unicode="&#x11f;" horiz-adv-x="603" 
d="M76 325v2q0 86 81.5 154t201.5 68q35 0 65 -9h210l-12 -50l-124 5q34 -37 34 -90q0 -87 -81.5 -154.5t-201.5 -67.5q-41 0 -70 10q-54 -31 -54 -51q0 -17 47 -23l146 -21q91 -13 140 -41t49 -82q0 -61 -56 -107.5t-136.5 -69t-166.5 -22.5q-89 0 -150.5 25.5t-61.5 73.5
q0 27 16.5 46.5t47.5 31t52.5 17t53.5 10.5q-44 12 -65.5 36t-21.5 51q0 22 11.5 42.5t33.5 38t41 29t46 26.5q-75 38 -75 122zM259 -43l-123 18l-10 2l3 -1q-87 -28 -87 -89q0 -34 41.5 -52t100.5 -18q73 0 131 24t58 63q0 22 -26.5 33t-87.5 20zM392 435q0 42 -12.5 61
t-39.5 19q-54 0 -88.5 -67.5t-34.5 -151.5q0 -79 52 -79q54 0 88.5 68.5t34.5 149.5zM382 665q88 0 119 99h53q-15 -58 -61 -99.5t-116 -41.5q-71 0 -98 42.5t-14 98.5h49q-17 -99 68 -99z" />
    <glyph glyph-name="Gdotaccent" unicode="&#x120;" horiz-adv-x="787" 
d="M360 -13q-153 0 -243 77t-90 209q0 94 38.5 180t105 150t161.5 101.5t204 37.5q47 0 110 -11.5t102 -30.5l-39 -230h-20q-4 45 -9 76t-16 63t-28 51t-45 31t-67 12q-72 0 -132.5 -45.5t-97.5 -116.5t-57 -152.5t-20 -160.5q0 -92 39.5 -147t112.5 -55q98 0 123 96l11 42
q20 79 8 99.5t-85 30.5l5 18h349l-5 -18q-52 -8 -65.5 -25.5t-32.5 -104.5l-25 -100q-53 -36 -131.5 -56.5t-160.5 -20.5zM470 866q0 32 22 54.5t54 22.5q33 0 55.5 -22.5t22.5 -54.5t-22.5 -54.5t-55.5 -22.5q-32 0 -54 22.5t-22 54.5z" />
    <glyph glyph-name="gdotaccent" unicode="&#x121;" horiz-adv-x="603" 
d="M76 325v2q0 86 81.5 154t201.5 68q35 0 65 -9h210l-12 -50l-124 5q34 -37 34 -90q0 -87 -81.5 -154.5t-201.5 -67.5q-41 0 -70 10q-54 -31 -54 -51q0 -17 47 -23l146 -21q91 -13 140 -41t49 -82q0 -61 -56 -107.5t-136.5 -69t-166.5 -22.5q-89 0 -150.5 25.5t-61.5 73.5
q0 27 16.5 46.5t47.5 31t52.5 17t53.5 10.5q-44 12 -65.5 36t-21.5 51q0 22 11.5 42.5t33.5 38t41 29t46 26.5q-75 38 -75 122zM259 -43l-123 18l-10 2l3 -1q-87 -28 -87 -89q0 -34 41.5 -52t100.5 -18q73 0 131 24t58 63q0 22 -26.5 33t-87.5 20zM392 435q0 42 -12.5 61
t-39.5 19q-54 0 -88.5 -67.5t-34.5 -151.5q0 -79 52 -79q54 0 88.5 68.5t34.5 149.5zM312 696q0 33 22.5 55.5t54.5 22.5t54.5 -23t22.5 -55q0 -31 -22.5 -53.5t-54.5 -22.5t-54.5 22.5t-22.5 53.5z" />
    <glyph glyph-name="Gcommaaccent" unicode="&#x122;" horiz-adv-x="787" 
d="M360 -13q-153 0 -243 77t-90 209q0 94 38.5 180t105 150t161.5 101.5t204 37.5q47 0 110 -11.5t102 -30.5l-39 -230h-20q-4 45 -9 76t-16 63t-28 51t-45 31t-67 12q-72 0 -132.5 -45.5t-97.5 -116.5t-57 -152.5t-20 -160.5q0 -92 39.5 -147t112.5 -55q98 0 123 96l11 42
q20 79 8 99.5t-85 30.5l5 18h349l-5 -18q-52 -8 -65.5 -25.5t-32.5 -104.5l-25 -100q-53 -36 -131.5 -56.5t-160.5 -20.5zM316 -187v1q-27 1 -47 19t-20 45q0 28 20 47.5t49 19.5q30 0 47.5 -21t17.5 -54q0 -60 -50 -108t-128 -73l-5 10q116 62 116 114z" />
    <glyph glyph-name="gcommaaccent" unicode="&#x123;" horiz-adv-x="603" 
d="M394 758q27 -2 46.5 -20t19.5 -45q0 -28 -19.5 -48t-49.5 -20t-47.5 21.5t-17.5 54.5q0 59 50.5 107.5t127.5 73.5l5 -10q-115 -61 -115 -114zM76 325v2q0 86 81.5 154t201.5 68q35 0 65 -9h210l-12 -50l-124 5q34 -37 34 -90q0 -87 -81.5 -154.5t-201.5 -67.5
q-41 0 -70 10q-54 -31 -54 -51q0 -17 47 -23l146 -21q91 -13 140 -41t49 -82q0 -61 -56 -107.5t-136.5 -69t-166.5 -22.5q-89 0 -150.5 25.5t-61.5 73.5q0 27 16.5 46.5t47.5 31t52.5 17t53.5 10.5q-44 12 -65.5 36t-21.5 51q0 22 11.5 42.5t33.5 38t41 29t46 26.5
q-75 38 -75 122zM259 -43l-123 18l-10 2l3 -1q-87 -28 -87 -89q0 -34 41.5 -52t100.5 -18q73 0 131 24t58 63q0 22 -26.5 33t-87.5 20zM392 435q0 42 -12.5 61t-39.5 19q-54 0 -88.5 -67.5t-34.5 -151.5q0 -79 52 -79q54 0 88.5 68.5t34.5 149.5z" />
    <glyph glyph-name="Hcircumflex" unicode="&#x124;" horiz-adv-x="882" 
d="M811 579v4l-108 -433q-19 -75 -8 -99t75 -32l-4 -16h-373l3 16q68 8 89.5 30t41.5 100l51 206h-262l-51 -206q-19 -75 -8 -99t75 -32l-4 -16h-373l3 16q68 8 89.5 30t41.5 100l108 433q20 77 9 98t-75 31l3 16h375l-4 -16q-69 -10 -90.5 -31t-41.5 -99l-46 -183h262
l46 183q20 77 9 98t-75 31l3 16h375l-4 -16q-69 -10 -90.5 -31t-41.5 -99zM574 926h16l123 -129h-21l-127 46l-155 -46h-23z" />
    <glyph glyph-name="hcircumflex" unicode="&#x125;" horiz-adv-x="628" 
d="M320 579h-1l-61 -240q19 49 34 80t37.5 63.5t51 48.5t62.5 16q43 0 68.5 -22.5t32.5 -74.5t-18 -136l-56 -199q-16 -61 19 -61q48 0 111 100l15 -9q-80 -158 -182 -158q-164 0 -101 212l40 139q11 39 13.5 67.5t-2.5 42.5t-17 14q-31 0 -84 -115.5t-85 -253.5l-22 -93
h-161l154 616q17 66 11 82t-55 18l4 16l252 71q-30 -104 -60 -224zM315 922h16l123 -129h-21l-127 46l-155 -46h-23z" />
    <glyph glyph-name="Hbar" unicode="&#x126;" horiz-adv-x="922" 
d="M831 579v4l-5 -19h100l-12 -45h-99l-92 -369q-19 -75 -8 -99t75 -32l-4 -16h-373l3 16q68 8 89.5 30t41.5 100l51 206h-262l-51 -206q-19 -75 -8 -99t75 -32l-4 -16h-373l3 16q68 8 89.5 30t41.5 100l92 369h-99l12 45h98l5 19q20 77 9 98t-75 31l3 16h375l-4 -16
q-69 -10 -90.5 -31t-41.5 -99l-5 -19h262l5 19q20 77 9 98t-75 31l3 16h375l-4 -16q-69 -10 -90.5 -31t-41.5 -99zM347 400h262l30 119h-262z" />
    <glyph glyph-name="hbar" unicode="&#x127;" horiz-adv-x="628" 
d="M320 579l-2 -1l-61 -240q19 49 34 80t37.5 63.5t51 48.5t62.5 16q43 0 68.5 -22.5t32.5 -74.5t-18 -136l-56 -199q-16 -61 19 -61q48 0 111 100l15 -9q-80 -158 -182 -158q-164 0 -101 212l40 139q11 39 13.5 67.5t-2.5 42.5t-17 14q-31 0 -84 -115.5t-85 -253.5l-22 -93
h-161l145 583h-108l12 50h109q13 54 5.5 67.5t-52.5 15.5l4 16l252 71q-39 -141 -47 -170h118l-12 -50h-118q-1 -1 -1 -3z" />
    <glyph glyph-name="Itilde" unicode="&#x128;" horiz-adv-x="445" 
d="M373 579v2l-108 -433q-19 -75 -8 -99t75 -32l-4 -16h-373l3 16q68 8 89.5 30t41.5 100l108 433q20 77 9 98t-75 31l3 16h375l-4 -16q-69 -10 -90.5 -31t-41.5 -99zM436 868h2q51 0 61 50h16q0 -52 -24 -89t-69 -37q-34 0 -83.5 30.5t-79.5 30.5q-53 0 -63 -51h-16
q0 53 24 90t69 37q33 0 83.5 -30.5t79.5 -30.5z" />
    <glyph glyph-name="itilde" unicode="&#x129;" horiz-adv-x="349" 
d="M46 175l47 185q17 66 10.5 82t-55.5 18l4 16l252 71q-30 -104 -60 -224l-52 -208q-16 -61 21 -61q47 0 110 100l16 -9q-41 -80 -89.5 -119t-96.5 -39q-76 0 -104 43.5t-3 144.5zM93 630h-19q0 54 24 99.5t70 45.5q29 0 84.5 -29t76.5 -29q28 0 40.5 12t14.5 43h19
q0 -74 -25 -107t-61 -33q-35 0 -89.5 29.5t-78.5 29.5q-52 0 -56 -61z" />
    <glyph glyph-name="Imacron" unicode="&#x12a;" horiz-adv-x="445" 
d="M373 579v2l-108 -433q-19 -75 -8 -99t75 -32l-4 -16h-373l3 16q68 8 89.5 30t41.5 100l108 433q20 77 9 98t-75 31l3 16h375l-4 -16q-69 -10 -90.5 -31t-41.5 -99zM489 820h-296l16 68h296z" />
    <glyph glyph-name="imacron" unicode="&#x12b;" horiz-adv-x="349" 
d="M46 175l47 185q17 66 10.5 82t-55.5 18l4 16l252 71q-30 -104 -60 -224l-52 -208q-16 -61 21 -61q47 0 110 100l16 -9q-41 -80 -89.5 -119t-96.5 -39q-76 0 -104 43.5t-3 144.5zM394 665h-321l16 68h321z" />
    <glyph glyph-name="Ibreve" unicode="&#x12c;" horiz-adv-x="445" 
d="M373 579v2l-108 -433q-19 -75 -8 -99t75 -32l-4 -16h-373l3 16q68 8 89.5 30t41.5 100l108 433q20 77 9 98t-75 31l3 16h375l-4 -16q-69 -10 -90.5 -31t-41.5 -99zM337 793q-71 0 -98 42.5t-14 98.5h49q-17 -99 68 -99q88 0 119 99h53q-15 -58 -61 -99.5t-116 -41.5z" />
    <glyph glyph-name="ibreve" unicode="&#x12d;" horiz-adv-x="349" 
d="M46 175l47 185q17 66 10.5 82t-55.5 18l4 16l252 71q-30 -104 -60 -224l-52 -208q-16 -61 21 -61q47 0 110 100l16 -9q-41 -80 -89.5 -119t-96.5 -39q-76 0 -104 43.5t-3 144.5zM251 663q88 0 119 99h53q-15 -58 -61 -99.5t-116 -41.5q-71 0 -98 42.5t-14 98.5h49
q-17 -99 68 -99z" />
    <glyph glyph-name="Iogonek" unicode="&#x12e;" horiz-adv-x="445" 
d="M185 -192l2 -9q-58 -35 -112 -35q-37 0 -62.5 17.5t-25.5 53.5q0 82 156 166h-188l3 16q68 8 89.5 30t41.5 100l108 433q20 77 9 98t-75 31l3 16h375l-4 -16q-69 -10 -90.5 -31t-41.5 -99l-108 -433q-19 -75 -8 -99t75 -32l-4 -16h-160q-83 -69 -83 -141q0 -27 15.5 -43
t42.5 -16q19 0 42 9z" />
    <glyph glyph-name="iogonek" unicode="&#x12f;" horiz-adv-x="349" 
d="M350 699q0 -42 -30 -72t-72 -30t-72 30t-30 72q0 41 30 70.5t72 29.5t72 -29.5t30 -70.5zM173 -192l1 -1l2 -9q-58 -35 -112 -35q-37 0 -62.5 17.5t-25.5 53.5q0 77 139 156q-108 21 -68 185l47 185q17 66 10.5 82t-55.5 18l4 16l252 71q-30 -104 -60 -224l-52 -208
q-16 -61 21 -61q47 0 110 100l16 -9q-41 -80 -89.5 -119t-96.5 -39h-12q-69 -63 -69 -129q0 -27 15.5 -43t42.5 -16q19 0 42 9z" />
    <glyph glyph-name="Idotaccent" unicode="&#x130;" horiz-adv-x="445" 
d="M373 579v2l-108 -433q-19 -75 -8 -99t75 -32l-4 -16h-373l3 16q68 8 89.5 30t41.5 100l108 433q20 77 9 98t-75 31l3 16h375l-4 -16q-69 -10 -90.5 -31t-41.5 -99zM275 868q0 32 22 54.5t54 22.5q33 0 55.5 -22.5t22.5 -54.5t-22.5 -54.5t-55.5 -22.5q-32 0 -54 22.5
t-22 54.5z" />
    <glyph glyph-name="dotlessi" unicode="&#x131;" horiz-adv-x="349" 
d="M46 175l47 185q17 66 10.5 82t-55.5 18l4 16l252 71q-30 -104 -60 -224l-52 -208q-16 -61 21 -61q47 0 110 100l16 -9q-41 -80 -89.5 -119t-96.5 -39q-76 0 -104 43.5t-3 144.5z" />
    <glyph glyph-name="Jcircumflex" unicode="&#x134;" horiz-adv-x="503" 
d="M453 579h1l-86 -348q-18 -72 -52.5 -122t-78.5 -75.5t-87 -36t-91 -10.5q-70 0 -114 14l48 191h11q7 -33 12.5 -54t16 -51t24.5 -45.5t32 -15.5q19 0 31 9.5t29 52.5t39 130l90 361q19 76 7.5 98t-75.5 32l5 16h374l-4 -16q-70 -11 -91 -31.5t-41 -98.5zM434 922h16
l123 -129h-21l-127 46l-155 -46h-23z" />
    <glyph glyph-name="jcircumflex" unicode="&#x135;" horiz-adv-x="360" 
d="M316 772l123 -169h-17l-130 71l-180 -71h-16l206 169h14zM64 88h1l69 272q17 66 10.5 82t-55.5 18l4 16l252 71q-30 -104 -60 -224l-55 -218q-19 -78 -49 -133.5t-75.5 -95.5t-93.5 -66t-123 -56l-8 16q77 64 117.5 140.5t65.5 177.5z" />
    <glyph glyph-name="Kcommaaccent" unicode="&#x136;" horiz-adv-x="814" 
d="M373 579v2l-108 -433q-19 -75 -8 -99t75 -32l-4 -16h-373l3 16q68 8 89.5 30t41.5 100l108 433q20 77 9 98t-75 31l3 16h375l-4 -16q-69 -10 -90.5 -31t-41.5 -99zM318 358l1 -1l255 217q115 100 78 125q-14 9 -46 11l3 16h265l-3 -16q-52 -6 -101.5 -34.5t-133.5 -100.5
l-166 -141l162 -314q27 -54 55 -77.5t64 -24.5l-3 -16h-355l3 16q39 1 56.5 18.5t2.5 49.5zM328 -186v1q-27 1 -47 19t-20 45q0 28 20 47.5t49 19.5q30 0 47.5 -21t17.5 -54q0 -60 -50 -108t-128 -73l-5 10q116 62 116 114z" />
    <glyph glyph-name="kcommaaccent" unicode="&#x137;" horiz-adv-x="633" 
d="M23 0h1l154 616q17 66 11 82t-55 18l4 16l252 71q-30 -104 -60 -224l-145 -579h-162zM305 115h1l-44 171l164 148q25 23 36.5 35.5t16 24.5t-6 18t-36.5 9l4 17h205l-4 -17q-41 -2 -76 -18.5t-90 -66.5l-75 -68l67 -238q14 -47 24 -62.5t32 -15.5q39 0 80 101l16 -7
q-26 -86 -68 -122.5t-103 -36.5q-60 0 -93.5 32.5t-49.5 95.5zM234 -187v1q-27 1 -47 19t-20 45q0 28 20 47.5t49 19.5q30 0 47.5 -21t17.5 -54q0 -60 -50 -108t-128 -73l-5 10q116 62 116 114z" />
    <glyph glyph-name="Lacute" unicode="&#x139;" horiz-adv-x="651" 
d="M373 579l-1 1l-126 -507q-9 -36 26 -36q88 0 149 30.5t99.5 81.5t87.5 146h21l-92 -294h-582l3 16q68 8 89.5 30t41.5 100l108 433q20 77 9 98t-75 31l3 16h375l-4 -16q-69 -10 -90.5 -31t-41.5 -99zM558 923l-269 -129h-16l84 129h201z" />
    <glyph glyph-name="lacute" unicode="&#x13a;" horiz-adv-x="351" 
d="M45 175h-1l110 441q17 66 11 82t-55 18l4 16l252 71q-30 -104 -60 -224l-116 -462q-16 -63 22 -63q47 0 110 100l16 -9q-41 -80 -89.5 -119t-96.5 -39q-77 0 -104 45.5t-3 142.5zM481 922l-269 -129h-16l84 129h201z" />
    <glyph glyph-name="Lcommaaccent" unicode="&#x13b;" horiz-adv-x="651" 
d="M373 579l-1 1l-126 -507q-9 -36 26 -36q88 0 149 30.5t99.5 81.5t87.5 146h21l-92 -294h-582l3 16q68 8 89.5 30t41.5 100l108 433q20 77 9 98t-75 31l3 16h375l-4 -16q-69 -10 -90.5 -31t-41.5 -99zM265 -186v1q-27 1 -47 19t-20 45q0 28 20 47.5t49 19.5q30 0 47.5 -21
t17.5 -54q0 -60 -50 -108t-128 -73l-5 10q116 62 116 114z" />
    <glyph glyph-name="lcommaaccent" unicode="&#x13c;" horiz-adv-x="350" 
d="M45 175h-1l110 441q17 66 11 82t-55 18l4 16l252 71q-30 -104 -60 -224l-116 -462q-16 -63 22 -63q47 0 110 100l16 -9q-41 -80 -89.5 -119t-96.5 -39q-77 0 -104 45.5t-3 142.5zM83 -187v1q-27 1 -47 19t-20 45q0 28 20 47.5t49 19.5q30 0 47.5 -21t17.5 -54
q0 -60 -50 -108t-128 -73l-5 10q116 62 116 114z" />
    <glyph glyph-name="Lcaron" unicode="&#x13d;" horiz-adv-x="651" 
d="M373 579l-1 1l-126 -507q-9 -36 26 -36q88 0 149 30.5t99.5 81.5t87.5 146h21l-92 -294h-582l3 16q68 8 89.5 30t41.5 100l108 433q20 77 9 98t-75 31l3 16h375l-4 -16q-69 -10 -90.5 -31t-41.5 -99zM614 612v1q-27 1 -47 19t-20 45q0 28 20 47.5t49 19.5q30 0 47.5 -21
t17.5 -54q0 -60 -50 -108t-128 -73l-5 10q116 62 116 114z" />
    <glyph glyph-name="lcaron" unicode="&#x13e;" horiz-adv-x="464" 
d="M476 640v1q-27 1 -47 19t-20 45q0 28 20 47.5t49 19.5q30 0 47.5 -21t17.5 -54q0 -60 -50 -108t-128 -73l-5 10q116 62 116 114zM45 176h-1l110 441q17 66 11 82t-55 18l4 16l252 71q-30 -104 -60 -224l-116 -462q-16 -63 22 -63q47 0 110 100l16 -9q-41 -80 -89.5 -119
t-96.5 -39q-77 0 -104 45.5t-3 142.5z" />
    <glyph glyph-name="Ldot" unicode="&#x13f;" horiz-adv-x="651" 
d="M453 452q0 32 22 54.5t54 22.5q33 0 55.5 -22.5t22.5 -54.5t-22.5 -54.5t-55.5 -22.5q-32 0 -54 22.5t-22 54.5zM373 579l-1 1l-126 -507q-9 -36 26 -36q88 0 149 30.5t99.5 81.5t87.5 146h21l-92 -294h-582l3 16q68 8 89.5 30t41.5 100l108 433q20 77 9 98t-75 31l3 16
h375l-4 -16q-69 -10 -90.5 -31t-41.5 -99z" />
    <glyph glyph-name="ldot" unicode="&#x140;" horiz-adv-x="473" 
d="M45 175h-1l110 441q17 66 11 82t-55 18l4 16l252 71q-30 -104 -60 -224l-116 -462q-16 -63 22 -63q47 0 110 100l16 -9q-41 -80 -89.5 -119t-96.5 -39q-77 0 -104 45.5t-3 142.5zM364 452q0 32 22 54.5t54 22.5q33 0 55.5 -22.5t22.5 -54.5t-22.5 -54.5t-55.5 -22.5
q-32 0 -54 22.5t-22 54.5z" />
    <glyph glyph-name="Lslash" unicode="&#x141;" horiz-adv-x="651" 
d="M373 579l-1 1l-32 -127l84 39l20 -40l-118 -55l-80 -324q-9 -36 26 -36q88 0 149 30.5t99.5 81.5t87.5 146h21l-92 -294h-582l3 16q68 8 89.5 30t41.5 100l39 157l-89 -41l-21 40l124 58l55 219q20 77 9 98t-75 31l3 16h375l-4 -16q-69 -10 -90.5 -31t-41.5 -99z" />
    <glyph glyph-name="lslash" unicode="&#x142;" horiz-adv-x="397" 
d="M110 359h-1l64 257q17 66 11 82t-55 18l4 16l252 71q-30 -104 -60 -224l-34 -134l99 46l21 -40l-134 -62l-68 -272q-16 -63 22 -63q47 0 110 100l16 -9q-41 -80 -89.5 -119t-96.5 -39q-77 0 -104 45.5t-3 142.5l32 128l-89 -41l-21 40z" />
    <glyph glyph-name="Nacute" unicode="&#x143;" horiz-adv-x="807" 
d="M606 140l2 1l109 439q19 76 7.5 98t-75.5 32l4 16h246l-3 -16q-70 -11 -91 -31.5t-41 -98.5l-144 -579h-149l-231 555l-102 -409q-19 -75 -8 -99t75 -32l-3 -16h-246l3 16q68 8 89.5 30t41.5 100l120 482l-1 4q-18 40 -30 57t-29 23l4 13h208zM784 923l-269 -129h-16
l84 129h201z" />
    <glyph glyph-name="nacute" unicode="&#x144;" horiz-adv-x="635" 
d="M320 547h-2l-54 -208q19 49 34 80t37.5 63.5t51 48.5t62.5 16q43 0 68.5 -22.5t32.5 -74.5t-18 -136l-56 -199q-16 -61 19 -61q48 0 111 100l15 -9q-80 -158 -182 -158q-164 0 -101 212l40 139q11 39 13.5 67.5t-2.5 42.5t-17 14q-30 0 -79.5 -111.5t-88.5 -257.5
l-26 -93h-157l88 360q17 66 10.5 82t-55.5 18l4 16zM673 772l-291 -169h-14l115 169h190z" />
    <glyph glyph-name="Ncommaaccent" unicode="&#x145;" horiz-adv-x="807" 
d="M606 140l2 1l109 439q19 76 7.5 98t-75.5 32l4 16h246l-3 -16q-70 -11 -91 -31.5t-41 -98.5l-144 -579h-149l-231 555l-102 -409q-19 -75 -8 -99t75 -32l-3 -16h-246l3 16q68 8 89.5 30t41.5 100l120 482l-1 4q-18 40 -30 57t-29 23l4 13h208zM325 -186v1q-27 1 -47 19
t-20 45q0 28 20 47.5t49 19.5q30 0 47.5 -21t17.5 -54q0 -60 -50 -108t-128 -73l-5 10q116 62 116 114z" />
    <glyph glyph-name="ncommaaccent" unicode="&#x146;" horiz-adv-x="635" 
d="M320 547h-2l-54 -208q19 49 34 80t37.5 63.5t51 48.5t62.5 16q43 0 68.5 -22.5t32.5 -74.5t-18 -136l-56 -199q-16 -61 19 -61q48 0 111 100l15 -9q-80 -158 -182 -158q-164 0 -101 212l40 139q11 39 13.5 67.5t-2.5 42.5t-17 14q-30 0 -79.5 -111.5t-88.5 -257.5
l-26 -93h-157l88 360q17 66 10.5 82t-55.5 18l4 16zM242 -187v1q-27 1 -47 19t-20 45q0 28 20 47.5t49 19.5q30 0 47.5 -21t17.5 -54q0 -60 -50 -108t-128 -73l-5 10q116 62 116 114z" />
    <glyph glyph-name="Ncaron" unicode="&#x147;" horiz-adv-x="807" 
d="M606 140l2 1l109 439q19 76 7.5 98t-75.5 32l4 16h246l-3 -16q-70 -11 -91 -31.5t-41 -98.5l-144 -579h-149l-231 555l-102 -409q-19 -75 -8 -99t75 -32l-3 -16h-246l3 16q68 8 89.5 30t41.5 100l120 482l-1 4q-18 40 -30 57t-29 23l4 13h208zM549 794h-16l-123 129h21
l127 -46l155 46h23z" />
    <glyph glyph-name="ncaron" unicode="&#x148;" horiz-adv-x="635" 
d="M320 547h-2l-54 -208q19 49 34 80t37.5 63.5t51 48.5t62.5 16q43 0 68.5 -22.5t32.5 -74.5t-18 -136l-56 -199q-16 -61 19 -61q48 0 111 100l15 -9q-80 -158 -182 -158q-164 0 -101 212l40 139q11 39 13.5 67.5t-2.5 42.5t-17 14q-30 0 -79.5 -111.5t-88.5 -257.5
l-26 -93h-157l88 360q17 66 10.5 82t-55.5 18l4 16zM367 603l-123 169h17l130 -71l180 71h16l-206 -169h-14z" />
    <glyph glyph-name="Eng" unicode="&#x14a;" horiz-adv-x="807" 
d="M453 44h2l-213 511l-103 -409q-19 -75 -8 -99t75 -32l-3 -16h-246l3 16q68 8 89.5 30t41.5 100l120 482l-1 4q-18 40 -30 57t-29 23l4 13h208l243 -585l110 439q19 76 7.5 98t-75.5 32l4 16h246l-3 -16q-70 -11 -91 -31.5t-41 -98.5l-118 -474q-16 -63 -40 -112
t-51.5 -83t-69.5 -63t-82.5 -48.5t-101.5 -43.5l-4 10q122 112 157 280z" />
    <glyph glyph-name="eng" unicode="&#x14b;" horiz-adv-x="589" 
d="M281 22h-1l97 316q12 40 14.5 68.5t-3 42t-17.5 13.5q-30 0 -79.5 -111.5t-88.5 -257.5l-26 -93h-157l88 360q17 66 10.5 82t-55.5 18l4 16l252 71l-54 -208q19 49 34 80t37.5 63.5t51 48.5t62.5 16q43 0 68.5 -22.5t32.5 -74.5t-18 -136l-58 -209q-21 -78 -51 -133.5
t-75.5 -95.5t-94 -66t-123.5 -56l-5 10q106 99 155 258z" />
    <glyph glyph-name="Omacron" unicode="&#x14c;" horiz-adv-x="814" 
d="M38 269q0 117 59 225t167 178t235 70q123 0 205 -76t82 -205q0 -88 -35.5 -173.5t-95.5 -152t-147 -107.5t-183 -41q-123 0 -205 76.5t-82 205.5zM229 228q0 -202 110 -202q59 0 110 48.5t82 122t48 153.5t17 151q0 202 -111 202q-59 0 -109.5 -48.5t-81.5 -122
t-48 -153.5t-17 -151zM663 818h-296l16 68h296z" />
    <glyph glyph-name="omacron" unicode="&#x14d;" horiz-adv-x="586" 
d="M398 399q0 113 -56 113q-68 0 -111 -116t-43 -264q0 -110 56 -110q46 0 82 56.5t54 141.5t18 179zM22 205q0 86 42.5 164t120.5 128t172 50q90 0 148.5 -61t58.5 -161q0 -132 -97 -235t-239 -103q-90 0 -148 59.5t-58 158.5zM534 665h-321l16 68h321z" />
    <glyph glyph-name="Obreve" unicode="&#x14e;" horiz-adv-x="814" 
d="M38 269q0 117 59 225t167 178t235 70q123 0 205 -76t82 -205q0 -88 -35.5 -173.5t-95.5 -152t-147 -107.5t-183 -41q-123 0 -205 76.5t-82 205.5zM229 228q0 -202 110 -202q59 0 110 48.5t82 122t48 153.5t17 151q0 202 -111 202q-59 0 -109.5 -48.5t-81.5 -122
t-48 -153.5t-17 -151zM519 791q-71 0 -98 42.5t-14 98.5h49q-17 -99 68 -99q88 0 119 99h53q-15 -58 -61 -99.5t-116 -41.5z" />
    <glyph glyph-name="obreve" unicode="&#x14f;" horiz-adv-x="586" 
d="M398 399q0 113 -56 113q-68 0 -111 -116t-43 -264q0 -110 56 -110q46 0 82 56.5t54 141.5t18 179zM22 205q0 86 42.5 164t120.5 128t172 50q90 0 148.5 -61t58.5 -161q0 -132 -97 -235t-239 -103q-90 0 -148 59.5t-58 158.5zM376 663q88 0 119 99h53q-15 -58 -61 -99.5
t-116 -41.5q-71 0 -98 42.5t-14 98.5h49q-17 -99 68 -99z" />
    <glyph glyph-name="Ohungarumlaut" unicode="&#x150;" horiz-adv-x="814" 
d="M38 269q0 117 59 225t167 178t235 70q123 0 205 -76t82 -205q0 -88 -35.5 -173.5t-95.5 -152t-147 -107.5t-183 -41q-123 0 -205 76.5t-82 205.5zM229 228q0 -202 110 -202q59 0 110 48.5t82 122t48 153.5t17 151q0 202 -111 202q-59 0 -109.5 -48.5t-81.5 -122
t-48 -153.5t-17 -151zM878 922l-269 -129h-16l84 129h201zM651 922l-269 -129h-16l84 129h201z" />
    <glyph glyph-name="ohungarumlaut" unicode="&#x151;" horiz-adv-x="586" 
d="M398 399q0 113 -56 113q-68 0 -111 -116t-43 -264q0 -110 56 -110q46 0 82 56.5t54 141.5t18 179zM22 205q0 86 42.5 164t120.5 128t172 50q90 0 148.5 -61t58.5 -161q0 -132 -97 -235t-239 -103q-90 0 -148 59.5t-58 158.5zM551 772h190l-291 -169h-14zM336 772h190
l-291 -169h-14z" />
    <glyph glyph-name="OE" unicode="&#x152;" horiz-adv-x="1144" 
d="M660 725h-1h244q202 0 258 2l-50 -267h-21q-1 44 -4.5 72t-13 56.5t-26 45t-43.5 30.5t-66.5 19.5t-94.5 5.5h-16l-73 -293h137l89 120h19l-71 -285h-19l-29 121h-137l-70 -279q-4 -24 5.5 -30.5t46.5 -6.5q121 0 194.5 53.5t138.5 175.5h21l-85 -267q-58 2 -273 2h-242
l10 43q-82 -56 -168 -56q-120 0 -201 76.5t-81 205.5q0 116 59 225t164.5 178.5t228.5 69.5q102 0 154 -80zM228 228q0 -202 110 -202q59 0 110 48.5t82 122t48 153.5t17 151q0 202 -111 202q-59 0 -109.5 -48.5t-81.5 -122t-48 -153.5t-17 -151z" />
    <glyph glyph-name="oe" unicode="&#x153;" horiz-adv-x="852" 
d="M22 205l1 1q0 133 96.5 236t238.5 103q105 0 146 -84q86 84 201 84q59 0 101 -25.5t42 -75.5q0 -96 -122 -126l-186 -47q-6 -39 -6 -73q0 -105 81 -105q97 0 158 129l19 -8q-88 -227 -270 -227q-83 0 -113 61q-74 -61 -181 -61q-90 0 -148 59.5t-58 158.5zM399 400
q0 110 -56 110q-46 0 -82 -56.5t-54 -141.5t-18 -179q0 -110 56 -110q46 0 82 56.5t54 141.5t18 179zM674 510q-42 0 -76 -61.5t-52 -145.5l35 10q65 17 94.5 60t29.5 93q0 44 -31 44z" />
    <glyph glyph-name="Racute" unicode="&#x154;" horiz-adv-x="796" 
d="M134 725l-1 -1h161q4 0 73.5 0.5t72.5 0.5q311 0 311 -149q0 -157 -227 -204q32 -23 68 -118l54 -147q20 -53 37 -68t65 -23l-3 -16h-256q-13 52 -49 152l-71 193h-55l-50 -199q-21 -74 -7 -98t87 -32l-3 -16h-387l3 16q68 8 89.5 30t41.5 100l108 433q19 81 8.5 100.5
t-74.5 29.5zM427 689h-27l-77 -308h27q214 0 214 205q0 55 -34 79t-103 24zM706 921l-269 -129h-16l84 129h201z" />
    <glyph glyph-name="racute" unicode="&#x155;" horiz-adv-x="447" 
d="M314 547h1l-35 -148q31 55 85.5 102t106.5 47q5 0 19 -2l-41 -163h-7q-29 23 -77 23q-24 0 -50 -9t-40 -23l-93 -374h-162l90 360q17 66 10.5 82t-55.5 18l4 16zM629 772l-291 -169h-14l115 169h190z" />
    <glyph glyph-name="Rcommaaccent" unicode="&#x156;" horiz-adv-x="796" 
d="M134 725l-1 -1h161q4 0 73.5 0.5t72.5 0.5q311 0 311 -149q0 -157 -227 -204q32 -23 68 -118l54 -147q20 -53 37 -68t65 -23l-3 -16h-256q-13 52 -49 152l-71 193h-55l-50 -199q-21 -74 -7 -98t87 -32l-3 -16h-387l3 16q68 8 89.5 30t41.5 100l108 433q19 81 8.5 100.5
t-74.5 29.5zM427 689h-27l-77 -308h27q214 0 214 205q0 55 -34 79t-103 24zM360 -188v1q-27 1 -47 19t-20 45q0 28 20 47.5t49 19.5q30 0 47.5 -21t17.5 -54q0 -60 -50 -108t-128 -73l-5 10q116 62 116 114z" />
    <glyph glyph-name="rcommaaccent" unicode="&#x157;" horiz-adv-x="447" 
d="M314 547h1l-35 -148q31 55 85.5 102t106.5 47q5 0 19 -2l-41 -163h-7q-29 23 -77 23q-24 0 -50 -9t-40 -23l-93 -374h-162l90 360q17 66 10.5 82t-55.5 18l4 16zM83 -187v1q-27 1 -47 19t-20 45q0 28 20 47.5t49 19.5q30 0 47.5 -21t17.5 -54q0 -60 -50 -108t-128 -73
l-5 10q116 62 116 114z" />
    <glyph glyph-name="Rcaron" unicode="&#x158;" horiz-adv-x="796" 
d="M134 725l-1 -1h161q4 0 73.5 0.5t72.5 0.5q311 0 311 -149q0 -157 -227 -204q32 -23 68 -118l54 -147q20 -53 37 -68t65 -23l-3 -16h-256q-13 52 -49 152l-71 193h-55l-50 -199q-21 -74 -7 -98t87 -32l-3 -16h-387l3 16q68 8 89.5 30t41.5 100l108 433q19 81 8.5 100.5
t-74.5 29.5zM427 689h-27l-77 -308h27q214 0 214 205q0 55 -34 79t-103 24zM481 792h-16l-123 129h21l127 -46l155 46h23z" />
    <glyph glyph-name="rcaron" unicode="&#x159;" horiz-adv-x="447" 
d="M314 547h1l-35 -148q31 55 85.5 102t106.5 47q5 0 19 -2l-41 -163h-7q-29 23 -77 23q-24 0 -50 -9t-40 -23l-93 -374h-162l90 360q17 66 10.5 82t-55.5 18l4 16zM319 603l-123 169h17l130 -71l180 71h16l-206 -169h-14z" />
    <glyph glyph-name="Sacute" unicode="&#x15a;" horiz-adv-x="660" 
d="M584 240h1q0 -65 -31.5 -115.5t-84 -79.5t-113 -43.5t-125.5 -14.5q-142 0 -236 53l59 241h19q1 -37 3 -60t7 -57t16 -55t28.5 -42t46 -31t66.5 -10q186 0 186 118q0 60 -88 121l-92 64q-66 44 -98.5 88t-32.5 98q0 74 49 127.5t119 77t148 23.5q54 0 116.5 -10.5
t99.5 -28.5l-54 -214h-20q-3 35 -6.5 58.5t-13.5 56t-24.5 51.5t-42 33.5t-63.5 14.5q-64 0 -110.5 -23.5t-46.5 -82.5q0 -53 59 -96l102 -71q33 -23 44.5 -31.5t36 -27.5t33.5 -30t21.5 -29t17 -35.5t4.5 -37.5zM691 922l-269 -129h-16l84 129h201z" />
    <glyph glyph-name="sacute" unicode="&#x15b;" horiz-adv-x="503" 
d="M436 183l-1 -2q0 -61 -43.5 -107.5t-103 -67.5t-120.5 -21q-105 0 -169 37l62 230h19q-8 -116 15 -172t82 -56q46 0 80.5 22.5t34.5 60.5q0 45 -64 87l-37 24q-101 69 -101 159q0 53 37 93t89 58.5t106 18.5q110 0 164 -32l-48 -177h-16q2 80 -28.5 126t-83.5 46
q-42 0 -64.5 -19.5t-22.5 -47.5q0 -38 45 -69l57 -38q58 -37 84.5 -73t26.5 -80zM604 770l-291 -169h-14l115 169h190z" />
    <glyph glyph-name="Scircumflex" unicode="&#x15c;" horiz-adv-x="660" 
d="M584 240h1q0 -65 -31.5 -115.5t-84 -79.5t-113 -43.5t-125.5 -14.5q-142 0 -236 53l59 241h19q1 -37 3 -60t7 -57t16 -55t28.5 -42t46 -31t66.5 -10q186 0 186 118q0 60 -88 121l-92 64q-66 44 -98.5 88t-32.5 98q0 74 49 127.5t119 77t148 23.5q54 0 116.5 -10.5
t99.5 -28.5l-54 -214h-20q-3 35 -6.5 58.5t-13.5 56t-24.5 51.5t-42 33.5t-63.5 14.5q-64 0 -110.5 -23.5t-46.5 -82.5q0 -53 59 -96l102 -71q33 -23 44.5 -31.5t36 -27.5t33.5 -30t21.5 -29t17 -35.5t4.5 -37.5zM471 922h16l123 -129h-21l-127 46l-155 -46h-23z" />
    <glyph glyph-name="scircumflex" unicode="&#x15d;" horiz-adv-x="503" 
d="M436 183l-1 -2q0 -61 -43.5 -107.5t-103 -67.5t-120.5 -21q-105 0 -169 37l62 230h19q-8 -116 15 -172t82 -56q46 0 80.5 22.5t34.5 60.5q0 45 -64 87l-37 24q-101 69 -101 159q0 53 37 93t89 58.5t106 18.5q110 0 164 -32l-48 -177h-16q2 80 -28.5 126t-83.5 46
q-42 0 -64.5 -19.5t-22.5 -47.5q0 -38 45 -69l57 -38q58 -37 84.5 -73t26.5 -80zM397 770l123 -169h-17l-130 71l-180 -71h-16l206 169h14z" />
    <glyph glyph-name="Scedilla" unicode="&#x15e;" horiz-adv-x="660" 
d="M121 -119h-1l90 106q-129 4 -215 53l59 241h19q1 -37 3 -60t7 -57t16 -55t28.5 -42t46 -31t66.5 -10q186 0 186 118q0 60 -88 121l-92 64q-66 44 -98.5 88t-32.5 98q0 74 49 127.5t119 77t148 23.5q54 0 116.5 -10.5t99.5 -28.5l-54 -214h-20q-3 35 -6.5 58.5t-13.5 56
t-24.5 51.5t-42 33.5t-63.5 14.5q-64 0 -110.5 -23.5t-46.5 -82.5q0 -53 59 -96l102 -71q33 -23 44.5 -31.5t36 -27.5t33.5 -30t21.5 -29t17 -35.5t4.5 -37.5q0 -63 -29.5 -112t-78.5 -78.5t-107 -45t-121 -17.5l-59 -70q19 9 43 9q31 0 51 -18.5t20 -43.5q0 -47 -41.5 -74
t-96.5 -27q-53 0 -91 25l12 20q24 -12 59 -12q31 0 53.5 13.5t22.5 39.5q0 17 -15 27t-36 10q-22 0 -41 -10z" />
    <glyph glyph-name="scedilla" unicode="&#x15f;" horiz-adv-x="503" 
d="M68 -119l-2 -3l90 106q-96 3 -157 37l62 230h19q-8 -116 15 -172t82 -56q46 0 80.5 22.5t34.5 60.5q0 45 -64 87l-37 24q-101 69 -101 159q0 53 37 93t89 58.5t106 18.5q110 0 164 -32l-48 -177h-16q2 80 -28.5 126t-83.5 46q-42 0 -64.5 -19.5t-22.5 -47.5q0 -38 45 -69
l57 -38q58 -37 84.5 -73t26.5 -80q0 -83 -73.5 -134.5t-166.5 -59.5l-60 -71q19 9 43 9q31 0 51 -18.5t20 -43.5q0 -47 -41.5 -74t-96.5 -27q-54 0 -91 25l12 20q24 -12 59 -12q31 0 53.5 13.5t22.5 39.5q0 17 -15 27t-36 10q-22 0 -41 -10z" />
    <glyph glyph-name="Scaron" unicode="&#x160;" horiz-adv-x="660" 
d="M584 240h1q0 -65 -31.5 -115.5t-84 -79.5t-113 -43.5t-125.5 -14.5q-142 0 -236 53l59 241h19q1 -37 3 -60t7 -57t16 -55t28.5 -42t46 -31t66.5 -10q186 0 186 118q0 60 -88 121l-92 64q-66 44 -98.5 88t-32.5 98q0 74 49 127.5t119 77t148 23.5q54 0 116.5 -10.5
t99.5 -28.5l-54 -214h-20q-3 35 -6.5 58.5t-13.5 56t-24.5 51.5t-42 33.5t-63.5 14.5q-64 0 -110.5 -23.5t-46.5 -82.5q0 -53 59 -96l102 -71q33 -23 44.5 -31.5t36 -27.5t33.5 -30t21.5 -29t17 -35.5t4.5 -37.5zM459 793h-16l-123 129h21l127 -46l155 46h23z" />
    <glyph glyph-name="scaron" unicode="&#x161;" horiz-adv-x="503" 
d="M436 183l-1 -2q0 -61 -43.5 -107.5t-103 -67.5t-120.5 -21q-105 0 -169 37l62 230h19q-8 -116 15 -172t82 -56q46 0 80.5 22.5t34.5 60.5q0 45 -64 87l-37 24q-101 69 -101 159q0 53 37 93t89 58.5t106 18.5q110 0 164 -32l-48 -177h-16q2 80 -28.5 126t-83.5 46
q-42 0 -64.5 -19.5t-22.5 -47.5q0 -38 45 -69l57 -38q58 -37 84.5 -73t26.5 -80zM338 601l-123 169h17l130 -71l180 71h16l-206 -169h-14z" />
    <glyph glyph-name="uni0162" unicode="&#x162;" horiz-adv-x="721" 
d="M232 146h-2l136 542q-103 0 -169.5 -57.5t-130.5 -182.5h-22l87 279q54 -2 268 -2h130q212 0 268 2l-52 -279h-22q-1 41 -2.5 63t-5.5 52t-11.5 45.5t-20 33.5t-31.5 26.5t-45.5 14t-62.5 5.5l-136 -542q-20 -76 -7 -99t84 -31l-4 -16h-397l5 16q76 8 99.5 30t43.5 100z
M262 -187v1q-27 1 -47 19t-20 45q0 28 20 47.5t49 19.5q30 0 47.5 -21t17.5 -54q0 -60 -50 -108t-128 -73l-5 10q116 62 116 114z" />
    <glyph glyph-name="uni0163" unicode="&#x163;" horiz-adv-x="422" 
d="M100 -187v1q-27 1 -47 19t-20 45q0 28 20 47.5t49 19.5q30 0 47.5 -21t17.5 -54q0 -60 -50 -108t-128 -73l-5 10q116 62 116 114zM51 176l-2 -1l78 313h-81l12 50h85l19 76l185 103l-45 -179h144l-12 -50h-145l-93 -373q-13 -61 25 -61q26 0 59 29.5t59 71.5l16 -9
q-41 -79 -92.5 -118.5t-100.5 -39.5q-75 0 -104.5 43.5t-6.5 144.5z" />
    <glyph glyph-name="Tcaron" unicode="&#x164;" horiz-adv-x="721" 
d="M232 146h-2l136 542q-103 0 -169.5 -57.5t-130.5 -182.5h-22l87 279q54 -2 268 -2h130q212 0 268 2l-52 -279h-22q-1 41 -2.5 63t-5.5 52t-11.5 45.5t-20 33.5t-31.5 26.5t-45.5 14t-62.5 5.5l-136 -542q-20 -76 -7 -99t84 -31l-4 -16h-397l5 16q76 8 99.5 30t43.5 100z
M479 793h-16l-123 129h21l127 -46l155 46h23z" />
    <glyph glyph-name="tcaron" unicode="&#x165;" horiz-adv-x="627" 
d="M586 640v1q-27 1 -47 19t-20 45q0 28 20 47.5t49 19.5q30 0 47.5 -21t17.5 -54q0 -60 -50 -108t-128 -73l-5 10q116 62 116 114zM51 176l-2 -1l78 313h-81l12 50h85l19 76l185 103l-45 -179h144l-12 -50h-145l-93 -373q-13 -61 25 -61q26 0 59 29.5t59 71.5l16 -9
q-41 -79 -92.5 -118.5t-100.5 -39.5q-75 0 -104.5 43.5t-6.5 144.5z" />
    <glyph glyph-name="Tbar" unicode="&#x166;" horiz-adv-x="721" 
d="M232 146h-2l51 206h-113l12 44h112l74 292q-103 0 -169.5 -57.5t-130.5 -182.5h-22l87 279q54 -2 268 -2h130q212 0 268 2l-52 -279h-22q-1 41 -2.5 63t-5.5 52t-11.5 45.5t-20 33.5t-31.5 26.5t-45.5 14t-62.5 5.5l-74 -292h120l-12 -44h-119l-51 -206q-20 -76 -7 -99
t84 -31l-4 -16h-397l5 16q76 8 99.5 30t43.5 100z" />
    <glyph glyph-name="tbar" unicode="&#x167;" horiz-adv-x="422" 
d="M51 175l-2 -1l39 157h-71l12 50h71l27 106h-81l12 50h85l19 76l185 103l-45 -179h144l-12 -50h-145l-27 -106h142l-12 -50h-142l-54 -217q-13 -61 25 -61q26 0 59 29.5t59 71.5l16 -9q-41 -79 -92.5 -118.5t-100.5 -39.5q-75 0 -104.5 43.5t-6.5 144.5z" />
    <glyph glyph-name="Utilde" unicode="&#x168;" horiz-adv-x="830" 
d="M793 579v2l-70 -281q-76 -311 -362 -311q-153 0 -222 70t-31 221l75 301q15 49 12.5 76t-18 36.5t-60.5 16.5l4 16h375l-5 -16q-69 -10 -90.5 -31t-41.5 -99l-70 -281q-31 -119 -1.5 -180t131.5 -61q101 0 161 59t90 179l70 284q15 49 12.5 76t-18 36.5t-60.5 16.5l4 16
h251l-4 -16q-70 -11 -91 -31.5t-41 -98.5zM691 868h2q51 0 61 50h16q0 -52 -24 -89t-69 -37q-34 0 -83.5 30.5t-79.5 30.5q-53 0 -63 -51h-16q0 53 24 90t69 37q33 0 83.5 -30.5t79.5 -30.5z" />
    <glyph glyph-name="utilde" unicode="&#x169;" horiz-adv-x="637" 
d="M68 220h-2l40 140q19 65 12.5 81.5t-56.5 18.5l4 16l251 71l-96 -351q-35 -124 5 -124q32 0 82 112t90 257l27 97h151l-108 -423q-15 -61 19 -61q48 0 111 100l15 -9q-80 -158 -174 -158q-124 0 -119 119q6 51 18 89q-19 -48 -34.5 -79.5t-38 -64t-51 -48.5t-62.5 -16
q-40 0 -66 22t-35.5 73.5t17.5 137.5zM256 630h-19q0 54 24 99.5t70 45.5q29 0 85 -29t76 -29q28 0 40.5 12t14.5 43h19q0 -74 -25 -107t-61 -33q-35 0 -89.5 29.5t-78.5 29.5q-52 0 -56 -61z" />
    <glyph glyph-name="Umacron" unicode="&#x16a;" horiz-adv-x="830" 
d="M793 579v2l-70 -281q-76 -311 -362 -311q-153 0 -222 70t-31 221l75 301q15 49 12.5 76t-18 36.5t-60.5 16.5l4 16h375l-5 -16q-69 -10 -90.5 -31t-41.5 -99l-70 -281q-31 -119 -1.5 -180t131.5 -61q101 0 161 59t90 179l70 284q15 49 12.5 76t-18 36.5t-60.5 16.5l4 16
h251l-4 -16q-70 -11 -91 -31.5t-41 -98.5zM741 820h-296l16 68h296z" />
    <glyph glyph-name="umacron" unicode="&#x16b;" horiz-adv-x="637" 
d="M68 220h-2l40 140q19 65 12.5 81.5t-56.5 18.5l4 16l251 71l-96 -351q-35 -124 5 -124q32 0 82 112t90 257l27 97h151l-108 -423q-15 -61 19 -61q48 0 111 100l15 -9q-80 -158 -174 -158q-124 0 -119 119q6 51 18 89q-19 -48 -34.5 -79.5t-38 -64t-51 -48.5t-62.5 -16
q-40 0 -66 22t-35.5 73.5t17.5 137.5zM567 665h-321l16 68h321z" />
    <glyph glyph-name="Ubreve" unicode="&#x16c;" horiz-adv-x="830" 
d="M793 579v2l-70 -281q-76 -311 -362 -311q-153 0 -222 70t-31 221l75 301q15 49 12.5 76t-18 36.5t-60.5 16.5l4 16h375l-5 -16q-69 -10 -90.5 -31t-41.5 -99l-70 -281q-31 -119 -1.5 -180t131.5 -61q101 0 161 59t90 179l70 284q15 49 12.5 76t-18 36.5t-60.5 16.5l4 16
h251l-4 -16q-70 -11 -91 -31.5t-41 -98.5zM593 793q-71 0 -98 42.5t-14 98.5h49q-17 -99 68 -99q88 0 119 99h53q-15 -58 -61 -99.5t-116 -41.5z" />
    <glyph glyph-name="ubreve" unicode="&#x16d;" horiz-adv-x="637" 
d="M68 220h-2l40 140q19 65 12.5 81.5t-56.5 18.5l4 16l251 71l-96 -351q-35 -124 5 -124q32 0 82 112t90 257l27 97h151l-108 -423q-15 -61 19 -61q48 0 111 100l15 -9q-80 -158 -174 -158q-124 0 -119 119q6 51 18 89q-19 -48 -34.5 -79.5t-38 -64t-51 -48.5t-62.5 -16
q-40 0 -66 22t-35.5 73.5t17.5 137.5zM394 663q88 0 119 99h53q-15 -58 -61 -99.5t-116 -41.5q-71 0 -98 42.5t-14 98.5h49q-17 -99 68 -99z" />
    <glyph glyph-name="Uring" unicode="&#x16e;" horiz-adv-x="830" 
d="M793 579v2l-70 -281q-76 -311 -362 -311q-153 0 -222 70t-31 221l75 301q15 49 12.5 76t-18 36.5t-60.5 16.5l4 16h375l-5 -16q-69 -10 -90.5 -31t-41.5 -99l-70 -281q-31 -119 -1.5 -180t131.5 -61q101 0 161 59t90 179l70 284q15 49 12.5 76t-18 36.5t-60.5 16.5l4 16
h251l-4 -16q-70 -11 -91 -31.5t-41 -98.5zM493 888q0 41 30.5 70.5t72.5 29.5q43 0 73 -29.5t30 -70.5q0 -42 -29.5 -70.5t-73.5 -28.5q-42 0 -72.5 28.5t-30.5 70.5zM538 888q0 -26 16 -43t42 -17q27 0 43 16.5t16 43.5q0 26 -17 43t-42 17q-26 0 -42 -17t-16 -43z" />
    <glyph glyph-name="uring" unicode="&#x16f;" horiz-adv-x="637" 
d="M68 220h-2l40 140q19 65 12.5 81.5t-56.5 18.5l4 16l251 71l-96 -351q-35 -124 5 -124q32 0 82 112t90 257l27 97h151l-108 -423q-15 -61 19 -61q48 0 111 100l15 -9q-80 -158 -174 -158q-124 0 -119 119q6 51 18 89q-19 -48 -34.5 -79.5t-38 -64t-51 -48.5t-62.5 -16
q-40 0 -66 22t-35.5 73.5t17.5 137.5zM295 723q0 41 30.5 70.5t72.5 29.5q43 0 73 -29.5t30 -70.5q0 -42 -29.5 -70.5t-73.5 -28.5q-42 0 -72.5 28.5t-30.5 70.5zM340 723q0 -26 16 -43t42 -17q27 0 43 16.5t16 43.5q0 26 -17 43t-42 17q-26 0 -42 -17t-16 -43z" />
    <glyph glyph-name="Uhungarumlaut" unicode="&#x170;" horiz-adv-x="830" 
d="M793 579v2l-70 -281q-76 -311 -362 -311q-153 0 -222 70t-31 221l75 301q15 49 12.5 76t-18 36.5t-60.5 16.5l4 16h375l-5 -16q-69 -10 -90.5 -31t-41.5 -99l-70 -281q-31 -119 -1.5 -180t131.5 -61q101 0 161 59t90 179l70 284q15 49 12.5 76t-18 36.5t-60.5 16.5l4 16
h251l-4 -16q-70 -11 -91 -31.5t-41 -98.5zM932 924l-269 -129h-16l84 129h201zM705 924l-269 -129h-16l84 129h201z" />
    <glyph glyph-name="uhungarumlaut" unicode="&#x171;" horiz-adv-x="637" 
d="M68 220h-2l40 140q19 65 12.5 81.5t-56.5 18.5l4 16l251 71l-96 -351q-35 -124 5 -124q32 0 82 112t90 257l27 97h151l-108 -423q-15 -61 19 -61q48 0 111 100l15 -9q-80 -158 -174 -158q-124 0 -119 119q6 51 18 89q-19 -48 -34.5 -79.5t-38 -64t-51 -48.5t-62.5 -16
q-40 0 -66 22t-35.5 73.5t17.5 137.5zM552 772h190l-291 -169h-14zM337 772h190l-291 -169h-14z" />
    <glyph glyph-name="Uogonek" unicode="&#x172;" horiz-adv-x="830" 
d="M381 -192l2 2l2 -9q-58 -35 -112 -35q-37 0 -62.5 17.5t-25.5 53.5q0 78 135 153q-131 10 -188.5 80t-22.5 210l75 301q15 49 12.5 76t-18 36.5t-60.5 16.5l4 16h375l-5 -16q-69 -10 -90.5 -31t-41.5 -99l-70 -281q-31 -119 -1.5 -180t131.5 -61q101 0 161 59t90 179
l70 284q15 49 12.5 76t-18 36.5t-60.5 16.5l4 16h251l-4 -16q-70 -11 -91 -31.5t-41 -98.5l-70 -281q-76 -311 -362 -311h-12q-69 -63 -69 -129q0 -27 15.5 -43t42.5 -16q19 0 42 9z" />
    <glyph glyph-name="uogonek" unicode="&#x173;" horiz-adv-x="637" 
d="M450 -192l-2 -1l2 -9q-58 -35 -112 -35q-37 0 -62.5 17.5t-25.5 53.5q0 78 142 157q-77 19 -73 114q6 51 18 89q-19 -48 -34.5 -79.5t-38 -64t-51 -48.5t-62.5 -16q-40 0 -66 22t-35.5 73.5t17.5 137.5l40 140q19 65 12.5 81.5t-56.5 18.5l4 16l251 71l-96 -351
q-35 -124 5 -124q32 0 82 112t90 257l27 97h151l-108 -423q-15 -61 19 -61q48 0 111 100l15 -9q-80 -158 -174 -158q-14 0 -21 1q-69 -63 -69 -129q0 -27 15.5 -43t42.5 -16q20 0 42 9z" />
    <glyph glyph-name="Wcircumflex" unicode="&#x174;" horiz-adv-x="1033" 
d="M1135 725v-1l-3 -16q-27 -5 -42 -10.5t-36.5 -22t-43.5 -50.5t-49 -89l-263 -537h-137l-18 440l-213 -440h-137l-25 607q-4 56 -16.5 75t-51.5 27l3 16h320l-3 -16q-42 -6 -56.5 -23.5t-14.5 -56.5l5 -473l185 375l-3 87q-4 54 -15.5 68.5t-52.5 23.5l3 16h320l-3 -16
q-44 -6 -57.5 -19.5t-13.5 -49.5l5 -484l169 347q27 55 40 92.5t15.5 58.5t-7 33t-21 15.5t-34.5 6.5l3 16h248zM671 921h16l123 -129h-21l-127 46l-155 -46h-23z" />
    <glyph glyph-name="wcircumflex" unicode="&#x175;" horiz-adv-x="815" 
d="M392 0v385l-156 -385h-148l-17 460q0 30 -7.5 40.5t-37.5 20.5l4 16h286l-4 -16q-49 -9 -59.5 -21t-10.5 -52v-327l163 417h141v-417l138 275q19 38 26.5 57t8 35t-9.5 22.5t-32 11.5l4 16h177l-4 -16q-46 -13 -61 -25t-45 -67l-219 -430h-137zM522 772l123 -169h-17
l-130 71l-180 -71h-16l206 169h14z" />
    <glyph glyph-name="Ycircumflex" unicode="&#x176;" horiz-adv-x="760" 
d="M447 294v1l-37 -148q-19 -77 -6 -99.5t84 -30.5l-4 -16h-396l3 16q76 8 99.5 30t43.5 100l35 140l-102 332q-20 58 -29 71.5t-39 19.5l3 16h320l-3 -16q-47 -6 -63.5 -20t-7.5 -49l86 -299l188 217q49 58 62.5 89.5t0.5 43.5t-54 18l3 16h228l-3 -16q-42 -9 -70.5 -31.5
t-114.5 -122.5zM551 923h16l123 -129h-21l-127 46l-155 -46h-23z" />
    <glyph glyph-name="ycircumflex" unicode="&#x177;" horiz-adv-x="570" 
d="M489 423l-1 1l-230 -436q-65 -122 -126.5 -165t-135.5 -43q-35 0 -70 11l34 143h6q39 -32 110 -32q85 0 110 48l9 17l-103 494l-3 15t-3 13t-4.5 10t-8 10t-12 7t-18.5 7l4 16h273l-4 -16q-37 -8 -46.5 -21t-2.5 -53l48 -273l115 221q15 29 22 48.5t8 36.5t-10 27t-33 14
l4 16h182l-4 -16q-45 -13 -62.5 -28t-47.5 -72zM397 773l123 -169h-17l-130 71l-180 -71h-16l206 169h14z" />
    <glyph glyph-name="Ydieresis" unicode="&#x178;" horiz-adv-x="760" 
d="M447 294v1l-37 -148q-19 -77 -6 -99.5t84 -30.5l-4 -16h-396l3 16q76 8 99.5 30t43.5 100l35 140l-102 332q-20 58 -29 71.5t-39 19.5l3 16h320l-3 -16q-47 -6 -63.5 -20t-7.5 -49l86 -299l188 217q49 58 62.5 89.5t0.5 43.5t-54 18l3 16h228l-3 -16q-42 -9 -70.5 -31.5
t-114.5 -122.5zM598 860q0 27 19.5 47t47.5 20q27 0 46.5 -20t19.5 -47t-19.5 -46t-46.5 -19q-28 0 -47.5 19t-19.5 46zM376 860q0 27 19 47t45 20q29 0 48.5 -20t19.5 -47t-19.5 -46t-48.5 -19q-26 0 -45 19t-19 46z" />
    <glyph glyph-name="Zacute" unicode="&#x179;" horiz-adv-x="706" 
d="M193 36h69q98 0 163 26t105.5 72.5t83.5 130.5h21l-84 -267q-53 2 -244 2h-342l3 13l563 676h-46q-66 0 -114.5 -10t-81 -25t-61.5 -47t-48 -62.5t-47 -84.5h-22l84 267q54 -2 245 -2h320l-3 -13zM716 922l-269 -129h-16l84 129h201z" />
    <glyph glyph-name="zacute" unicode="&#x17a;" horiz-adv-x="604" 
d="M259 0h-284l1 9l415 482h-33q-91 0 -144.5 -37.5t-95.5 -139.5h-22l79 226q43 -2 190 -2h244l-1 -10l-415 -481h72q91 0 145 37.5t96 139.5h21l-78 -226q-43 2 -190 2zM676 772l-291 -169h-14l115 169h190z" />
    <glyph glyph-name="Zdotaccent" unicode="&#x17b;" horiz-adv-x="706" 
d="M193 36h69q98 0 163 26t105.5 72.5t83.5 130.5h21l-84 -267q-53 2 -244 2h-342l3 13l563 676h-46q-66 0 -114.5 -10t-81 -25t-61.5 -47t-48 -62.5t-47 -84.5h-22l84 267q54 -2 245 -2h320l-3 -13zM437 866q0 32 22 54.5t54 22.5q33 0 55.5 -22.5t22.5 -54.5t-22.5 -54.5
t-55.5 -22.5q-32 0 -54 22.5t-22 54.5z" />
    <glyph glyph-name="zdotaccent" unicode="&#x17c;" horiz-adv-x="604" 
d="M259 0h-284l1 9l415 482h-33q-91 0 -144.5 -37.5t-95.5 -139.5h-22l79 226q43 -2 190 -2h244l-1 -10l-415 -481h72q91 0 145 37.5t96 139.5h21l-78 -226q-43 2 -190 2zM358 694q0 33 22.5 55.5t54.5 22.5t54.5 -23t22.5 -55q0 -31 -22.5 -53.5t-54.5 -22.5t-54.5 22.5
t-22.5 53.5z" />
    <glyph glyph-name="Zcaron" unicode="&#x17d;" horiz-adv-x="706" 
d="M193 36h69q98 0 163 26t105.5 72.5t83.5 130.5h21l-84 -267q-53 2 -244 2h-342l3 13l563 676h-46q-66 0 -114.5 -10t-81 -25t-61.5 -47t-48 -62.5t-47 -84.5h-22l84 267q54 -2 245 -2h320l-3 -13zM501 793h-16l-123 129h21l127 -46l155 46h23z" />
    <glyph glyph-name="zcaron" unicode="&#x17e;" horiz-adv-x="604" 
d="M259 0h-284l1 9l415 482h-33q-91 0 -144.5 -37.5t-95.5 -139.5h-22l79 226q43 -2 190 -2h244l-1 -10l-415 -481h72q91 0 145 37.5t96 139.5h21l-78 -226q-43 2 -190 2zM409 603l-123 169h17l130 -71l180 71h16l-206 -169h-14z" />
    <glyph glyph-name="uni018F" unicode="&#x18f;" horiz-adv-x="780" 
d="M460 742q128 0 210.5 -75.5t82.5 -206.5q0 -117 -59 -225t-167 -178t-235 -70q-124 0 -189 62t-65 163q0 61 25 130h490q9 51 9 97q0 97 -53.5 148.5t-133.5 51.5q-148 0 -223 -129l-22 12q103 220 330 220zM306 26v-1q86 0 147 78t90 193h-308q-30 -37 -30 -125
q0 -61 24 -103t77 -42z" />
    <glyph glyph-name="Scommaaccent" unicode="&#x218;" horiz-adv-x="660" 
d="M584 240h1q0 -65 -31.5 -115.5t-84 -79.5t-113 -43.5t-125.5 -14.5q-142 0 -236 53l59 241h19q1 -37 3 -60t7 -57t16 -55t28.5 -42t46 -31t66.5 -10q186 0 186 118q0 60 -88 121l-92 64q-66 44 -98.5 88t-32.5 98q0 74 49 127.5t119 77t148 23.5q54 0 116.5 -10.5
t99.5 -28.5l-54 -214h-20q-3 35 -6.5 58.5t-13.5 56t-24.5 51.5t-42 33.5t-63.5 14.5q-64 0 -110.5 -23.5t-46.5 -82.5q0 -53 59 -96l102 -71q33 -23 44.5 -31.5t36 -27.5t33.5 -30t21.5 -29t17 -35.5t4.5 -37.5zM228 -187v1q-27 1 -47 19t-20 45q0 28 20 47.5t49 19.5
q30 0 47.5 -21t17.5 -54q0 -60 -50 -108t-128 -73l-5 10q116 62 116 114z" />
    <glyph glyph-name="scommaaccent" unicode="&#x219;" horiz-adv-x="503" 
d="M436 183l-1 -2q0 -61 -43.5 -107.5t-103 -67.5t-120.5 -21q-105 0 -169 37l62 230h19q-8 -116 15 -172t82 -56q46 0 80.5 22.5t34.5 60.5q0 45 -64 87l-37 24q-101 69 -101 159q0 53 37 93t89 58.5t106 18.5q110 0 164 -32l-48 -177h-16q2 80 -28.5 126t-83.5 46
q-42 0 -64.5 -19.5t-22.5 -47.5q0 -38 45 -69l57 -38q58 -37 84.5 -73t26.5 -80zM136 -189v1q-27 1 -47 19t-20 45q0 28 20 47.5t49 19.5q30 0 47.5 -21t17.5 -54q0 -60 -50 -108t-128 -73l-5 10q116 62 116 114z" />
    <glyph glyph-name="Tcommaaccent" unicode="&#x21a;" horiz-adv-x="721" 
d="M232 146h-2l136 542q-103 0 -169.5 -57.5t-130.5 -182.5h-22l87 279q54 -2 268 -2h130q212 0 268 2l-52 -279h-22q-1 41 -2.5 63t-5.5 52t-11.5 45.5t-20 33.5t-31.5 26.5t-45.5 14t-62.5 5.5l-136 -542q-20 -76 -7 -99t84 -31l-4 -16h-397l5 16q76 8 99.5 30t43.5 100z
M262 -187v1q-27 1 -47 19t-20 45q0 28 20 47.5t49 19.5q30 0 47.5 -21t17.5 -54q0 -60 -50 -108t-128 -73l-5 10q116 62 116 114z" />
    <glyph glyph-name="tcommaaccent" unicode="&#x21b;" horiz-adv-x="422" 
d="M100 -187v1q-27 1 -47 19t-20 45q0 28 20 47.5t49 19.5q30 0 47.5 -21t17.5 -54q0 -60 -50 -108t-128 -73l-5 10q116 62 116 114zM51 176l-2 -1l78 313h-81l12 50h85l19 76l185 103l-45 -179h144l-12 -50h-145l-93 -373q-13 -61 25 -61q26 0 59 29.5t59 71.5l16 -9
q-41 -79 -92.5 -118.5t-100.5 -39.5q-75 0 -104.5 43.5t-6.5 144.5z" />
    <glyph glyph-name="uni0232" unicode="&#x232;" horiz-adv-x="760" 
d="M447 294v1l-37 -148q-19 -77 -6 -99.5t84 -30.5l-4 -16h-396l3 16q76 8 99.5 30t43.5 100l35 140l-102 332q-20 58 -29 71.5t-39 19.5l3 16h320l-3 -16q-47 -6 -63.5 -20t-7.5 -49l86 -299l188 217q49 58 62.5 89.5t0.5 43.5t-54 18l3 16h228l-3 -16q-42 -9 -70.5 -31.5
t-114.5 -122.5zM698 819h-296l16 68h296z" />
    <glyph glyph-name="uni0233" unicode="&#x233;" horiz-adv-x="570" 
d="M489 423l-1 1l-230 -436q-65 -122 -126.5 -165t-135.5 -43q-35 0 -70 11l34 143h6q39 -32 110 -32q85 0 110 48l9 17l-103 494l-3 15t-3 13t-4.5 10t-8 10t-12 7t-18.5 7l4 16h273l-4 -16q-37 -8 -46.5 -21t-2.5 -53l48 -273l115 221q15 29 22 48.5t8 36.5t-10 27t-33 14
l4 16h182l-4 -16q-45 -13 -62.5 -28t-47.5 -72zM520 666h-321l16 68h321z" />
    <glyph glyph-name="dotlessj" unicode="&#x237;" horiz-adv-x="360" 
d="M64 88h1l69 272q17 66 10.5 82t-55.5 18l4 16l252 71q-30 -104 -60 -224l-55 -218q-19 -78 -49 -133.5t-75.5 -95.5t-93.5 -66t-123 -56l-8 16q77 64 117.5 140.5t65.5 177.5z" />
    <glyph glyph-name="uni0259" unicode="&#x259;" horiz-adv-x="621" 
d="M504 370l1 -1q0 -157 -100 -270t-238 -113q-59 0 -101.5 26t-42.5 76q0 96 123 126l185 45q7 38 7 77q0 105 -81 105q-38 0 -82 -27.5t-78 -101.5l-19 8q87 227 270 227q77 0 116.5 -48.5t39.5 -128.5zM198 21q41 0 75 61.5t52 145.5l-34 -9q-65 -17 -94.5 -60t-29.5 -93
q0 -45 31 -45z" />
    <glyph glyph-name="circumflex" unicode="&#x2c6;" horiz-adv-x="387" 
d="M222 772l123 -169h-17l-130 71l-180 -71h-16l206 169h14z" />
    <glyph glyph-name="caron" unicode="&#x2c7;" horiz-adv-x="387" 
d="M167 603l-123 169h17l130 -71l180 71h16l-206 -169h-14z" />
    <glyph glyph-name="breve" unicode="&#x2d8;" horiz-adv-x="334" 
d="M158 663q88 0 119 99h53q-15 -58 -61 -99.5t-116 -41.5q-71 0 -98 42.5t-14 98.5h49q-17 -99 68 -99z" />
    <glyph glyph-name="dotaccent" unicode="&#x2d9;" horiz-adv-x="198" 
d="M22 694q0 33 22.5 55.5t54.5 22.5t54.5 -23t22.5 -55q0 -31 -22.5 -53.5t-54.5 -22.5t-54.5 22.5t-22.5 53.5z" />
    <glyph glyph-name="ring" unicode="&#x2da;" horiz-adv-x="250" 
d="M22 723q0 41 30.5 70.5t72.5 29.5q43 0 73 -29.5t30 -70.5q0 -42 -29.5 -70.5t-73.5 -28.5q-42 0 -72.5 28.5t-30.5 70.5zM67 723q0 -26 16 -43t42 -17q27 0 43 16.5t16 43.5q0 26 -17 43t-42 17q-26 0 -42 -17t-16 -43z" />
    <glyph glyph-name="ogonek" unicode="&#x2db;" horiz-adv-x="255" 
d="M207 -192v1l2 -9q-58 -35 -112 -35q-37 0 -62.5 17.5t-25.5 53.5q0 24 13.5 48.5t32.5 42.5t49 37.5t51.5 31.5t52.5 27h12q-44 -28 -78.5 -73t-34.5 -92q0 -27 15.5 -43t42.5 -16q19 0 42 9z" />
    <glyph glyph-name="tilde" unicode="&#x2dc;" horiz-adv-x="389" 
d="M47 630h-19q0 54 24 99.5t70 45.5q30 0 85 -29t76 -29q28 0 40.5 12t14.5 43h19q0 -74 -25 -107t-61 -33q-35 0 -89.5 29.5t-78.5 29.5q-52 0 -56 -61z" />
    <glyph glyph-name="hungarumlaut" unicode="&#x2dd;" horiz-adv-x="522" 
d="M341 772h190l-291 -169h-14zM126 772h190l-291 -169h-14z" />
    <glyph glyph-name="uni032C" unicode="&#x32c;" horiz-adv-x="430" 
d="M177 -179h-14l-119 179h16l134 -71l175 71h17z" />
    <glyph glyph-name="Delta" unicode="&#x394;" horiz-adv-x="707" 
d="M-12 0l356 729l355 -729h-711zM574 75l-230 482l-232 -482h462z" />
    <glyph glyph-name="Delta" unicode="&#x2206;" horiz-adv-x="707" 
d="M-12 0l356 729l355 -729h-711zM574 75l-230 482l-232 -482h462z" />
    <glyph glyph-name="Omega" unicode="&#x3a9;" horiz-adv-x="801" 
d="M213 76l12 60q-71 30 -119.5 98.5t-48.5 171.5q0 151 106.5 241.5t260.5 90.5q150 0 249.5 -83.5t99.5 -218.5q0 -116 -71 -202t-176 -111l-11 -47h196l-16 -76h-279l38 180q107 12 170.5 82.5t63.5 172.5q0 110 -77.5 171t-187.5 61q-127 0 -203.5 -72.5t-76.5 -185.5
q0 -84 46 -145.5t130 -78.5l-39 -185h-277l15 76h195z" />
    <glyph glyph-name="Omega" unicode="&#x2126;" horiz-adv-x="801" 
d="M213 76l12 60q-71 30 -119.5 98.5t-48.5 171.5q0 151 106.5 241.5t260.5 90.5q150 0 249.5 -83.5t99.5 -218.5q0 -116 -71 -202t-176 -111l-11 -47h196l-16 -76h-279l38 180q107 12 170.5 82.5t63.5 172.5q0 110 -77.5 171t-187.5 61q-127 0 -203.5 -72.5t-76.5 -185.5
q0 -84 46 -145.5t130 -78.5l-39 -185h-277l15 76h195z" />
    <glyph glyph-name="pi" unicode="&#x3c0;" horiz-adv-x="640" 
d="M116 0v-1h-80l115 460h-76l20 75h580l-20 -75h-76l-78 -315q-9 -33 -9 -48q0 -16 11 -21.5t41 -5.5h17l-17 -70h-38q-56 0 -78.5 12.5t-22.5 47.5q0 21 12 74l81 327h-268z" />
    <glyph glyph-name="Wgrave" unicode="&#x1e80;" horiz-adv-x="1033" 
d="M1135 725v-1l-3 -16q-27 -5 -42 -10.5t-36.5 -22t-43.5 -50.5t-49 -89l-263 -537h-137l-18 440l-213 -440h-137l-25 607q-4 56 -16.5 75t-51.5 27l3 16h320l-3 -16q-42 -6 -56.5 -23.5t-14.5 -56.5l5 -473l185 375l-3 87q-4 54 -15.5 68.5t-52.5 23.5l3 16h320l-3 -16
q-44 -6 -57.5 -19.5t-13.5 -49.5l5 -484l169 347q27 55 40 92.5t15.5 58.5t-7 33t-21 15.5t-34.5 6.5l3 16h248zM483 921h201l20 -129h-16z" />
    <glyph glyph-name="wgrave" unicode="&#x1e81;" horiz-adv-x="815" 
d="M392 0v385l-156 -385h-148l-17 460q0 30 -7.5 40.5t-37.5 20.5l4 16h286l-4 -16q-49 -9 -59.5 -21t-10.5 -52v-327l163 417h141v-417l138 275q19 38 26.5 57t8 35t-9.5 22.5t-32 11.5l4 16h177l-4 -16q-46 -13 -61 -25t-45 -67l-219 -430h-137zM300 772h190l31 -169h-14z
" />
    <glyph glyph-name="Wacute" unicode="&#x1e82;" horiz-adv-x="1033" 
d="M1135 725v-1l-3 -16q-27 -5 -42 -10.5t-36.5 -22t-43.5 -50.5t-49 -89l-263 -537h-137l-18 440l-213 -440h-137l-25 607q-4 56 -16.5 75t-51.5 27l3 16h320l-3 -16q-42 -6 -56.5 -23.5t-14.5 -56.5l5 -473l185 375l-3 87q-4 54 -15.5 68.5t-52.5 23.5l3 16h320l-3 -16
q-44 -6 -57.5 -19.5t-13.5 -49.5l5 -484l169 347q27 55 40 92.5t15.5 58.5t-7 33t-21 15.5t-34.5 6.5l3 16h248zM888 921l-269 -129h-16l84 129h201z" />
    <glyph glyph-name="wacute" unicode="&#x1e83;" horiz-adv-x="815" 
d="M392 0v385l-156 -385h-148l-17 460q0 30 -7.5 40.5t-37.5 20.5l4 16h286l-4 -16q-49 -9 -59.5 -21t-10.5 -52v-327l163 417h141v-417l138 275q19 38 26.5 57t8 35t-9.5 22.5t-32 11.5l4 16h177l-4 -16q-46 -13 -61 -25t-45 -67l-219 -430h-137zM724 772l-291 -169h-14
l115 169h190z" />
    <glyph glyph-name="Wdieresis" unicode="&#x1e84;" horiz-adv-x="1033" 
d="M1135 725v-1l-3 -16q-27 -5 -42 -10.5t-36.5 -22t-43.5 -50.5t-49 -89l-263 -537h-137l-18 440l-213 -440h-137l-25 607q-4 56 -16.5 75t-51.5 27l3 16h320l-3 -16q-42 -6 -56.5 -23.5t-14.5 -56.5l5 -473l185 375l-3 87q-4 54 -15.5 68.5t-52.5 23.5l3 16h320l-3 -16
q-44 -6 -57.5 -19.5t-13.5 -49.5l5 -484l169 347q27 55 40 92.5t15.5 58.5t-7 33t-21 15.5t-34.5 6.5l3 16h248zM682 858q0 27 19.5 47t47.5 20q27 0 46.5 -20t19.5 -47t-19.5 -46t-46.5 -19q-28 0 -47.5 19t-19.5 46zM460 858q0 27 19 47t45 20q29 0 48.5 -20t19.5 -47
t-19.5 -46t-48.5 -19q-26 0 -45 19t-19 46z" />
    <glyph glyph-name="wdieresis" unicode="&#x1e85;" horiz-adv-x="815" 
d="M392 0v385l-156 -385h-148l-17 460q0 30 -7.5 40.5t-37.5 20.5l4 16h286l-4 -16q-49 -9 -59.5 -21t-10.5 -52v-327l163 417h141v-417l138 275q19 38 26.5 57t8 35t-9.5 22.5t-32 11.5l4 16h177l-4 -16q-46 -13 -61 -25t-45 -67l-219 -430h-137zM295 694q0 32 22 55t54 23
t55 -23t23 -55q0 -31 -22.5 -53.5t-55.5 -22.5q-32 0 -54 22.5t-22 53.5zM525 694q0 32 23 55t55 23t54.5 -22.5t22.5 -55.5q0 -31 -22.5 -53.5t-54.5 -22.5q-33 0 -55.5 22.5t-22.5 53.5z" />
    <glyph glyph-name="uni1ECA" unicode="&#x1eca;" horiz-adv-x="445" 
d="M373 579v2l-108 -433q-19 -75 -8 -99t75 -32l-4 -16h-373l3 16q68 8 89.5 30t41.5 100l108 433q20 77 9 98t-75 31l3 16h375l-4 -16q-69 -10 -90.5 -31t-41.5 -99zM46 -148q0 33 22.5 55.5t54.5 22.5t54.5 -23t22.5 -55q0 -31 -22.5 -53.5t-54.5 -22.5t-54.5 22.5
t-22.5 53.5z" />
    <glyph glyph-name="uni1ECB" unicode="&#x1ecb;" horiz-adv-x="349" 
d="M350 699q0 -42 -30 -72t-72 -30t-72 30t-30 72q0 41 30 70.5t72 29.5t72 -29.5t30 -70.5zM46 175l47 185q17 66 10.5 82t-55.5 18l4 16l252 71q-30 -104 -60 -224l-52 -208q-16 -61 21 -61q47 0 110 100l16 -9q-41 -80 -89.5 -119t-96.5 -39q-76 0 -104 43.5t-3 144.5z
M21 -150q0 33 22.5 55.5t54.5 22.5t54.5 -23t22.5 -55q0 -31 -22.5 -53.5t-54.5 -22.5t-54.5 22.5t-22.5 53.5z" />
    <glyph glyph-name="uni1ECC" unicode="&#x1ecc;" horiz-adv-x="814" 
d="M38 269q0 117 59 225t167 178t235 70q123 0 205 -76t82 -205q0 -88 -35.5 -173.5t-95.5 -152t-147 -107.5t-183 -41q-123 0 -205 76.5t-82 205.5zM229 228q0 -202 110 -202q59 0 110 48.5t82 122t48 153.5t17 151q0 202 -111 202q-59 0 -109.5 -48.5t-81.5 -122
t-48 -153.5t-17 -151zM203 -150q0 33 22.5 55.5t54.5 22.5t54.5 -23t22.5 -55q0 -31 -22.5 -53.5t-54.5 -22.5t-54.5 22.5t-22.5 53.5z" />
    <glyph glyph-name="uni1ECD" unicode="&#x1ecd;" horiz-adv-x="586" 
d="M398 399q0 113 -56 113q-68 0 -111 -116t-43 -264q0 -110 56 -110q46 0 82 56.5t54 141.5t18 179zM22 205q0 86 42.5 164t120.5 128t172 50q90 0 148.5 -61t58.5 -161q0 -132 -97 -235t-239 -103q-90 0 -148 59.5t-58 158.5zM122 -150q0 33 22.5 55.5t54.5 22.5t54.5 -23
t22.5 -55q0 -31 -22.5 -53.5t-54.5 -22.5t-54.5 22.5t-22.5 53.5z" />
    <glyph glyph-name="uni1EE4" unicode="&#x1ee4;" horiz-adv-x="830" 
d="M793 579v2l-70 -281q-76 -311 -362 -311q-153 0 -222 70t-31 221l75 301q15 49 12.5 76t-18 36.5t-60.5 16.5l4 16h375l-5 -16q-69 -10 -90.5 -31t-41.5 -99l-70 -281q-31 -119 -1.5 -180t131.5 -61q101 0 161 59t90 179l70 284q15 49 12.5 76t-18 36.5t-60.5 16.5l4 16
h251l-4 -16q-70 -11 -91 -31.5t-41 -98.5zM263 -148q0 33 22.5 55.5t54.5 22.5t54.5 -23t22.5 -55q0 -31 -22.5 -53.5t-54.5 -22.5t-54.5 22.5t-22.5 53.5z" />
    <glyph glyph-name="uni1EE5" unicode="&#x1ee5;" horiz-adv-x="637" 
d="M68 220h-2l40 140q19 65 12.5 81.5t-56.5 18.5l4 16l251 71l-96 -351q-35 -124 5 -124q32 0 82 112t90 257l27 97h151l-108 -423q-15 -61 19 -61q48 0 111 100l15 -9q-80 -158 -174 -158q-124 0 -119 119q6 51 18 89q-19 -48 -34.5 -79.5t-38 -64t-51 -48.5t-62.5 -16
q-40 0 -66 22t-35.5 73.5t17.5 137.5zM140 -150q0 33 22.5 55.5t54.5 22.5t54.5 -23t22.5 -55q0 -31 -22.5 -53.5t-54.5 -22.5t-54.5 22.5t-22.5 53.5z" />
    <glyph glyph-name="Ygrave" unicode="&#x1ef2;" horiz-adv-x="760" 
d="M447 294v1l-37 -148q-19 -77 -6 -99.5t84 -30.5l-4 -16h-396l3 16q76 8 99.5 30t43.5 100l35 140l-102 332q-20 58 -29 71.5t-39 19.5l3 16h320l-3 -16q-47 -6 -63.5 -20t-7.5 -49l86 -299l188 217q49 58 62.5 89.5t0.5 43.5t-54 18l3 16h228l-3 -16q-42 -9 -70.5 -31.5
t-114.5 -122.5zM372 923h201l20 -129h-16z" />
    <glyph glyph-name="ygrave" unicode="&#x1ef3;" horiz-adv-x="570" 
d="M489 423l-1 1l-230 -436q-65 -122 -126.5 -165t-135.5 -43q-35 0 -70 11l34 143h6q39 -32 110 -32q85 0 110 48l9 17l-103 494l-3 15t-3 13t-4.5 10t-8 10t-12 7t-18.5 7l4 16h273l-4 -16q-37 -8 -46.5 -21t-2.5 -53l48 -273l115 221q15 29 22 48.5t8 36.5t-10 27t-33 14
l4 16h182l-4 -16q-45 -13 -62.5 -28t-47.5 -72zM187 773h190l31 -169h-14z" />
    <glyph glyph-name="endash" unicode="&#x2013;" horiz-adv-x="516" 
d="M462 239h-428l19 77h428z" />
    <glyph glyph-name="emdash" unicode="&#x2014;" horiz-adv-x="742" 
d="M688 239h-654l19 77h654z" />
    <glyph glyph-name="quoteleft" unicode="&#x2018;" horiz-adv-x="272" 
d="M148 602l-1 1q39 2 63 -22t24 -61q0 -36 -24 -61t-62 -25t-61 27t-23 70q0 69 61.5 137.5t136.5 101.5l9 -15q-45 -27 -82.5 -67.5t-40.5 -85.5z" />
    <glyph glyph-name="quoteright" unicode="&#x2019;" horiz-adv-x="272" 
d="M200 600l1 -1q-39 -2 -63 22t-24 61q0 36 24 61t62 25t61 -27t23 -70q0 -69 -61.5 -137.5t-136.5 -101.5l-9 15q45 27 82.5 67.5t40.5 85.5z" />
    <glyph glyph-name="quotesinglbase" unicode="&#x201a;" horiz-adv-x="349" 
d="M148 -10q-39 1 -64 26.5t-25 64.5t26 66t67 27q42 0 67.5 -29.5t25.5 -74.5q0 -50 -25.5 -97.5t-65.5 -82t-81.5 -59t-81.5 -38.5l-7 16q164 92 164 181z" />
    <glyph glyph-name="quotedblleft" unicode="&#x201c;" horiz-adv-x="494" 
d="M148 602l-1 1q39 2 63 -22t24 -61q0 -36 -24 -61t-62 -25t-61 27t-23 70q0 69 61.5 137.5t136.5 101.5l9 -15q-45 -27 -82.5 -67.5t-40.5 -85.5zM369 603l-1 1q39 2 63 -22t24 -61q0 -36 -24 -61t-62 -25t-61 27t-23 70q0 69 61.5 137.5t136.5 101.5l9 -15
q-45 -27 -82.5 -67.5t-40.5 -85.5z" />
    <glyph glyph-name="quotedblright" unicode="&#x201d;" horiz-adv-x="494" 
d="M200 600l1 -1q-39 -2 -63 22t-24 61q0 36 24 61t62 25t61 -27t23 -70q0 -69 -61.5 -137.5t-136.5 -101.5l-9 15q45 27 82.5 67.5t40.5 85.5zM423 599l1 -1q-39 -2 -63 22t-24 61q0 36 24 61t62 25t61 -27t23 -70q0 -69 -61.5 -137.5t-136.5 -101.5l-9 15q45 27 82.5 67.5
t40.5 85.5z" />
    <glyph glyph-name="quotedblbase" unicode="&#x201e;" horiz-adv-x="594" 
d="M148 -10q-39 1 -64 26.5t-25 64.5t26 66t67 27q42 0 67.5 -29.5t25.5 -74.5q0 -50 -25.5 -97.5t-65.5 -82t-81.5 -59t-81.5 -38.5l-7 16q164 92 164 181zM392 -10q-38 1 -63 26.5t-25 64.5t26 66t67 27q42 0 67.5 -29.5t25.5 -74.5q0 -50 -25.5 -97t-65.5 -82t-82 -59.5
t-82 -38.5l-6 16q163 93 163 181z" />
    <glyph glyph-name="dagger" unicode="&#x2020;" horiz-adv-x="552" 
d="M315 0h-80v421h-207v77h207v227h80v-227h208v-77h-208v-421z" />
    <glyph glyph-name="daggerdbl" unicode="&#x2021;" horiz-adv-x="594" 
d="M308 270h207l-16 -67h-208l-50 -203h-70l50 203h-207l16 67h208l44 173h-208l16 67h208l53 215h70l-53 -215h207l-16 -67h-208z" />
    <glyph glyph-name="bullet" unicode="&#x2022;" horiz-adv-x="453" 
d="M223 97q-74 0 -126.5 54t-52.5 132q0 75 52.5 127.5t126.5 52.5q79 0 133 -52.5t54 -127.5q0 -78 -54 -132t-133 -54z" />
    <glyph glyph-name="ellipsis" unicode="&#x2026;" horiz-adv-x="1041" 
d="M149 -13q-39 0 -65.5 27t-26.5 66t26.5 66.5t65.5 27.5q41 0 68 -27t27 -67t-27 -66.5t-68 -26.5zM496 -13q-39 0 -65.5 27t-26.5 66t26.5 66.5t65.5 27.5q41 0 68 -27t27 -67t-26.5 -66.5t-68.5 -26.5zM843 -13q-39 0 -65.5 27t-26.5 66t26.5 66.5t65.5 27.5
q41 0 68 -27t27 -67t-27 -66.5t-68 -26.5z" />
    <glyph glyph-name="perthousand" unicode="&#x2030;" horiz-adv-x="1522" 
d="M199 329q39 0 70.5 58t46 132.5t14.5 141.5q0 55 -34 55q-38 0 -69.5 -57t-46.5 -131.5t-15 -141.5q0 -57 34 -57zM61 488q0 105 76 176t158 71q60 0 100 -46.5t40 -126.5q0 -101 -78 -176.5t-159 -75.5q-57 0 -97 47.5t-40 130.5zM338 0h-75l508 725h75zM857 12
q39 0 70.5 58t46 132.5t14.5 141.5q0 55 -34 55q-38 0 -69.5 -57t-46.5 -131.5t-15 -141.5q0 -57 34 -57zM719 171q0 105 76 176t158 71q60 0 100 -46.5t40 -126.5q0 -101 -78 -176.5t-159 -75.5q-57 0 -97 47.5t-40 130.5zM1270 12q39 0 70.5 58t46 132.5t14.5 141.5
q0 55 -34 55q-38 0 -69.5 -57t-46.5 -131.5t-15 -141.5q0 -57 34 -57zM1132 171q0 105 76 176t158 71q60 0 100 -46.5t40 -126.5q0 -101 -78 -176.5t-159 -75.5q-57 0 -97 47.5t-40 130.5z" />
    <glyph glyph-name="guilsinglleft" unicode="&#x2039;" horiz-adv-x="391" 
d="M203 38l-170 235l283 234h53l-173 -234l52 -235h-45z" />
    <glyph glyph-name="guilsinglright" unicode="&#x203a;" horiz-adv-x="391" 
d="M188 507l170 -235l-282 -234h-54l174 234l-53 235h45z" />
    <glyph glyph-name="fraction" unicode="&#x2044;" horiz-adv-x="283" 
d="M-75 0h-75l508 725h75z" />
    <glyph glyph-name="zero.superior" unicode="&#x2070;" horiz-adv-x="413" 
d="M225 450q39 0 70.5 58t46 132.5t14.5 141.5q0 55 -34 55q-38 0 -69.5 -57t-46.5 -131.5t-15 -141.5q0 -57 34 -57zM87 609q0 105 76 176t158 71q60 0 100 -46.5t40 -126.5q0 -101 -78 -176.5t-159 -75.5q-57 0 -97 47.5t-40 130.5z" />
    <glyph glyph-name="four.superior" unicode="&#x2074;" horiz-adv-x="413" 
d="M338 438h-112l24 97h-203l25 99l266 212h103l-56 -222h71l-22 -89h-72zM272 624l43 171l-212 -171h169z" />
    <glyph glyph-name="five.superior" unicode="&#x2075;" horiz-adv-x="314" 
d="M81 633l130 213h187l-50 -96h-171l-14 -23q81 -7 127 -40t46 -91q0 -61 -64 -112t-142 -51q-51 0 -98 15l26 106h10q5 -51 23 -73.5t51 -22.5q35 0 58.5 26t23.5 60q0 49 -39 71t-104 18z" />
    <glyph glyph-name="six.superior" unicode="&#x2076;" horiz-adv-x="383" 
d="M420 628h-2q0 -77 -57.5 -137t-127.5 -60q-66 0 -108 40t-42 106q0 59 29.5 112t79 90t104 63t113.5 41l3 -21q-131 -39 -184 -185q42 53 98 53q42 0 68 -25.5t26 -76.5zM267 680q-20 0 -50 -33q-17 -57 -17 -113q0 -22 0.5 -31t3 -23.5t9.5 -20.5t18 -6q24 0 44.5 46.5
t20.5 104.5q0 61 -16 72q-6 4 -13 4z" />
    <glyph glyph-name="seven.superior" unicode="&#x2077;" horiz-adv-x="390" 
d="M244 438h-1h-120q12 113 101 197t215 115h-310l22 96h331l-22 -97q-102 -40 -160 -122.5t-56 -188.5z" />
    <glyph glyph-name="eight.superior" unicode="&#x2078;" horiz-adv-x="367" 
d="M68 525v-1q0 77 124 117q-60 58 -60 109q0 41 45 73.5t120 32.5q56 0 91 -19.5t36 -56.5q0 -62 -108 -99q32 -27 47.5 -41.5t31.5 -39t16 -47.5q0 -43 -32.5 -72t-74.5 -39.5t-90 -10.5q-66 0 -106 26t-40 68zM204 631v-1l1 -1q-76 -42 -76 -111q0 -29 22 -49t64 -20
q38 0 66.5 15.5t28.5 45.5q0 14 -10.5 31t-18 23.5t-27.5 25.5l-40 33zM365 771q-2 62 -69 62q-28 0 -49 -13t-21 -32q0 -34 40 -67l37 -31q64 30 62 81z" />
    <glyph glyph-name="nine.superior" unicode="&#x2079;" horiz-adv-x="356" 
d="M93 660l1 -2q0 79 57.5 139t127.5 60q67 0 108.5 -40t41.5 -107q0 -59 -29.5 -110.5t-78.5 -87.5t-103.5 -61t-113.5 -40l-4 19q130 37 184 181q-44 -53 -97 -53q-42 0 -68 26t-26 76zM246 608q19 0 48 29q18 60 18 114q0 82 -31 82q-29 0 -47 -44.5t-18 -106.5v-10.5
v-13.5t0.5 -13.5t3 -14.5l5.5 -11t8.5 -8.5t12.5 -2.5z" />
    <glyph glyph-name="plus.superior" unicode="&#x207a;" horiz-adv-x="382" 
d="M278 438h-46v133h-133v43h133v127h46v-127h132v-43h-132v-133z" />
    <glyph glyph-name="minus.superior" unicode="&#x207b;" horiz-adv-x="382" 
d="M105 614h300v-43h-300v43z" />
    <glyph glyph-name="equal.superior" unicode="&#x207c;" horiz-adv-x="382" 
d="M394 632h-278v42h278v-42zM394 516h-278v42h278v-42z" />
    <glyph glyph-name="parenleft.superior" unicode="&#x207d;" horiz-adv-x="196" 
d="M303 890l6 -10q-81 -85 -117.5 -212.5t-36.5 -227.5q0 -93 13 -135l-13 -8q-1 2 -21 34t-26.5 44t-19.5 40t-18 53t-5 51q0 117 59.5 201.5t178.5 169.5z" />
    <glyph glyph-name="parenright.superior" unicode="&#x207e;" horiz-adv-x="205" 
d="M26 297l-5 10q81 85 117.5 213t36.5 228q0 96 -12 134l12 8q3 -6 26 -43t32.5 -56t20.5 -54.5t11 -67.5q0 -118 -60 -202.5t-179 -169.5z" />
    <glyph glyph-name="n.superior" unicode="&#x207f;" horiz-adv-x="368" 
d="M262 746l-19 -68q23 68 82 68q90 0 49 -149l-25 -94q-7 -32 12 -32q18 0 52 53l9 -4q-25 -49 -47.5 -69t-52.5 -20q-33 0 -51 11.5t-25 44t12 91.5l14 48q7 25 9.5 40.5t0 21.5t-8.5 6q-3 0 -6.5 -3t-7 -9t-7 -13.5t-8 -20t-8 -23.5t-9 -28.5t-10 -31.5t-11 -35.5
t-11.5 -38.5l-16 -53h-108l50 206q9 35 7 42t-27 9l2 9z" />
    <glyph glyph-name="zero.inferior" unicode="&#x2080;" horiz-adv-x="413" 
d="M115 -116q39 0 70.5 58t46 132.5t14.5 141.5q0 55 -34 55q-38 0 -69.5 -57t-46.5 -131.5t-15 -141.5q0 -57 34 -57zM-23 43q0 105 76 176t158 71q60 0 100 -46.5t40 -126.5q0 -101 -78 -176.5t-159 -75.5q-57 0 -97 47.5t-40 130.5z" />
    <glyph glyph-name="one.inferior" unicode="&#x2081;" horiz-adv-x="289" 
d="M221 290l-86 -347q-8 -42 -5.5 -50.5t16.5 -11.5l-2 -9h-185l2 8q30 2 42 16t24 59l67 270h-71l2 10q131 20 185 55h11z" />
    <glyph glyph-name="two.inferior" unicode="&#x2082;" horiz-adv-x="343" 
d="M-100 -128v-1l1 6q24 21 80 64.5t92 73.5t67 75t31 87q0 27 -15.5 43.5t-42.5 16.5q-69 0 -94 -63h-19q45 117 170 117q54 0 85 -24t31 -63q0 -24 -14.5 -49t-41.5 -49.5t-45 -38t-46 -32.5l-45 -30t-56 -37h186l-23 -96h-301z" />
    <glyph glyph-name="three.inferior" unicode="&#x2083;" horiz-adv-x="326" 
d="M17 -133q-62 0 -104 15l26 106h10q2 -56 20 -76t54 -20q39 0 69 31.5t30 75.5q0 25 -19.5 49t-61.5 31l3 12l13 6q39 14 62 38.5t26.5 37.5t3.5 23q0 19 -13.5 29.5t-32.5 11.5q-73 0 -98 -63h-19q21 57 68 86.5t111 29.5q42 0 71 -17t29 -49q0 -36 -38 -60t-70 -31
l-1 -2q85 -33 85 -105q0 -75 -69 -117t-155 -42z" />
    <glyph glyph-name="four.inferior" unicode="&#x2084;" horiz-adv-x="413" 
d="M228 -128h-112l24 97h-203l25 99l266 212h103l-56 -222h71l-22 -89h-72zM162 58l43 171l-212 -171h169z" />
    <glyph glyph-name="five.inferior" unicode="&#x2085;" horiz-adv-x="314" 
d="M-29 67l130 213h187l-50 -96h-171l-14 -23q81 -7 127 -40t46 -91q0 -61 -64 -112t-142 -51q-51 0 -98 15l26 106h10q5 -51 23 -73.5t51 -22.5q35 0 58.5 26t23.5 60q0 49 -39 71t-104 18z" />
    <glyph glyph-name="six.inferior" unicode="&#x2086;" horiz-adv-x="383" 
d="M310 62h-2q0 -77 -57.5 -137t-127.5 -60q-66 0 -108 40t-42 106q0 59 29.5 112t79 90t104 63t113.5 41l3 -21q-131 -39 -184 -185q42 53 98 53q42 0 68 -25.5t26 -76.5zM157 114q-20 0 -50 -33q-17 -57 -17 -113q0 -22 0.5 -31t3 -23.5t9.5 -20.5t18 -6q24 0 44.5 46.5
t20.5 104.5q0 61 -16 72q-6 4 -13 4z" />
    <glyph glyph-name="seven.inferior" unicode="&#x2087;" horiz-adv-x="390" 
d="M134 -128h-1h-120q12 113 101 197t215 115h-310l22 96h331l-22 -97q-102 -40 -160 -122.5t-56 -188.5z" />
    <glyph glyph-name="eight.inferior" unicode="&#x2088;" horiz-adv-x="368" 
d="M-42 -41v-1q0 77 124 117q-60 58 -60 109q0 41 45 73.5t120 32.5q56 0 91 -19.5t36 -56.5q0 -62 -108 -99q32 -27 47.5 -41.5t31.5 -39t16 -47.5q0 -43 -32.5 -72t-74.5 -39.5t-90 -10.5q-66 0 -106 26t-40 68zM94 65v-1l1 -1q-76 -42 -76 -111q0 -29 22 -49t64 -20
q38 0 66.5 15.5t28.5 45.5q0 14 -10.5 31t-18 23.5t-27.5 25.5l-40 33zM255 205q-2 62 -69 62q-28 0 -49 -13t-21 -32q0 -34 40 -67l37 -31q64 30 62 81z" />
    <glyph glyph-name="nine.inferior" unicode="&#x2089;" horiz-adv-x="356" 
d="M-17 94l1 -2q0 79 57.5 139t127.5 60q67 0 108.5 -40t41.5 -107q0 -59 -29.5 -110.5t-78.5 -87.5t-103.5 -61t-113.5 -40l-4 19q130 37 184 181q-44 -53 -97 -53q-42 0 -68 26t-26 76zM136 42q19 0 48 29q18 60 18 114q0 82 -31 82q-29 0 -47 -44.5t-18 -106.5v-10.5
v-13.5t0.5 -13.5t3 -14.5l5.5 -11t8.5 -8.5t12.5 -2.5z" />
    <glyph glyph-name="parenleft.inferior" unicode="&#x208d;" horiz-adv-x="196" 
d="M193 324l6 -10q-81 -85 -117.5 -212.5t-36.5 -227.5q0 -93 13 -135l-13 -8q-1 2 -21 34t-26.5 44t-19.5 40t-18 53t-5 51q0 117 59.5 201.5t178.5 169.5z" />
    <glyph glyph-name="parenright.inferior" unicode="&#x208e;" horiz-adv-x="205" 
d="M-84 -268l-5 10q81 85 117.5 213t36.5 228q0 96 -12 134l12 8q3 -6 26 -43t32.5 -56t20.5 -54.5t11 -67.5q0 -118 -60 -202.5t-179 -169.5z" />
    <glyph glyph-name="Euro" unicode="&#x20ac;" horiz-adv-x="857" 
d="M405 266h-1h-117v-29q0 -215 141 -215q71 0 122.5 52.5t71.5 156.5h158q-22 -69 -62.5 -119t-91.5 -76t-101 -37.5t-103 -11.5q-145 0 -222.5 74t-78.5 205h-141l56 64h88q6 44 18 87h-126l57 63h92q54 117 156 189.5t241 72.5q118 0 189.5 -65.5t71.5 -178.5h-158
q8 58 4 104.5t-33.5 76t-82.5 29.5q-72 0 -129.5 -64t-91.5 -164h249l-57 -63h-211q-15 -67 -18 -87h167z" />
    <glyph glyph-name="afii61289" unicode="&#x2113;" horiz-adv-x="406" 
d="M115 141h1v77l-82 -62l-33 48l115 88v260q0 96 31 141t103 45q60 0 92 -42.5t32 -113.5q0 -167 -182 -306l-13 -10v-125q0 -54 14 -76t53 -22q52 0 93 41l34 -43q-59 -54 -133 -54q-70 0 -97.5 37t-27.5 117zM179 551v1v-211l20 16q110 83 110 222q0 103 -66 103
q-35 0 -49.5 -29.5t-14.5 -101.5z" />
    <glyph glyph-name="afii61352" unicode="&#x2116;" horiz-adv-x="1173" 
d="M605 140h1l110 439q13 52 13 74q0 28 -17 39t-63 17l4 16h246l-3 -16q-70 -11 -91 -31.5t-41 -98.5l-144 -579h-149l-231 555l-102 -409q-13 -52 -13 -74q0 -28 17 -39t63 -17l-3 -16h-246l3 16q68 8 89.5 30t41.5 100l120 482l-1 4q-18 40 -30 57t-29 23l4 13h208z
M874 562q0 69 56 129t150 60q53 0 84.5 -30t31.5 -88q0 -70 -56 -130t-149 -60q-52 0 -84.5 31.5t-32.5 87.5zM1084 689q0 44 -18 44q-32 0 -55.5 -64.5t-23.5 -161.5q0 -44 17 -44q33 0 56.5 64t23.5 162zM1128 335h-303l17 66h302z" />
    <glyph glyph-name="uni2117" unicode="&#x2117;" horiz-adv-x="837" 
d="M431 -13q-159 0 -267.5 105t-108.5 269t109 270t267 106q157 0 265.5 -106t108.5 -270t-108.5 -269t-265.5 -105zM431 675q-132 0 -219.5 -87.5t-87.5 -226.5q0 -138 87.5 -225.5t219.5 -87.5t218.5 87t86.5 226t-86.5 226.5t-218.5 87.5zM449 329h-72v-153h-73v397h122
q96 0 141 -25t45 -97q0 -53 -41 -87.5t-122 -34.5zM377 389h71q91 0 91 61q0 34 -25 47.5t-71 13.5h-66v-122z" />
    <glyph glyph-name="trademark" unicode="&#x2122;" horiz-adv-x="860" 
d="M156 320v342h-129v63h331v-63h-130v-342h-72zM660 320h-77l-115 321v-321h-72v405h118l110 -317l106 317h117v-405h-72v321z" />
    <glyph glyph-name="estimated" unicode="&#x212e;" horiz-adv-x="589" 
d="M505 150h-1h41q-26 -73 -88 -118t-157 -45q-130 0 -202 79.5t-72 201.5q0 124 74 201.5t195 77.5q123 0 193 -80t72 -198h-416v-193q24 -24 69.5 -39.5t95.5 -15.5q71 0 121 34t75 95zM143 461v-160h298v159q-57 53 -147 53q-102 0 -151 -52z" />
    <glyph glyph-name="onethird" unicode="&#x2153;" horiz-adv-x="898" 
d="M305 735l-86 -347q-8 -42 -5.5 -50.5t16.5 -11.5l-2 -9h-185l2 8q30 2 42 16t24 59l67 270h-71l2 10q131 20 185 55h11zM214 0h-75l508 725h75zM635 -5q-62 0 -104 15l26 106h10q2 -56 20 -76t54 -20q39 0 69 31.5t30 75.5q0 25 -19.5 49t-61.5 31l3 12l13 6
q39 14 62 38.5t26.5 37.5t3.5 23q0 19 -13.5 29.5t-32.5 11.5q-73 0 -98 -63h-19q21 57 68 86.5t111 29.5q42 0 71 -17t29 -49q0 -36 -38 -60t-70 -31l-1 -2q85 -33 85 -105q0 -75 -69 -117t-155 -42z" />
    <glyph glyph-name="twothirds" unicode="&#x2154;" horiz-adv-x="952" 
d="M-16 317v-1l1 6q24 21 80 64.5t92 73.5t67 75t31 87q0 27 -15.5 43.5t-42.5 16.5q-69 0 -94 -63h-19q45 117 170 117q54 0 85 -24t31 -63q0 -46 -48 -95.5t-99 -73.5q13 11 -15 -7q-7 -5 -88 -60h188l-23 -96h-301zM268 -1h-75l508 725h75zM689 -6q-62 0 -104 15l26 106
h10q2 -56 20 -76t54 -20q39 0 69 31.5t30 75.5q0 25 -19.5 49t-61.5 31l3 12l13 6q39 14 62 38.5t26.5 37.5t3.5 23q0 19 -13.5 29.5t-32.5 11.5q-73 0 -98 -63h-19q21 57 68 86.5t111 29.5q42 0 71 -17t29 -49q0 -36 -38 -60t-70 -31l-1 -2q85 -33 85 -105q0 -75 -69 -117
t-155 -42z" />
    <glyph glyph-name="uni2155" unicode="&#x2155;" horiz-adv-x="886" 
d="M305 735l-86 -347q-8 -42 -5.5 -50.5t16.5 -11.5l-2 -9h-185l2 8q30 2 42 16t24 59l67 270h-71l2 10q131 20 185 55h11zM214 0h-75l508 725h75zM589 195l130 213h187l-50 -96h-171l-14 -23q81 -7 127 -40t46 -91q0 -61 -64 -112t-142 -51q-51 0 -98 15l26 106h10
q5 -51 23 -73.5t51 -22.5q35 0 58.5 26t23.5 60q0 49 -39 71t-104 18z" />
    <glyph glyph-name="uni2156" unicode="&#x2156;" horiz-adv-x="940" 
d="M-16 317v-1l1 6q24 21 80 64.5t92 73.5t67 75t31 87q0 27 -15.5 43.5t-42.5 16.5q-69 0 -94 -63h-19q45 117 170 117q54 0 85 -24t31 -63q0 -46 -48 -95.5t-99 -73.5q13 11 -15 -7q-7 -5 -88 -60h188l-23 -96h-301zM268 -1h-75l508 725h75zM643 194l130 213h187l-50 -96
h-171l-14 -23q81 -7 127 -40t46 -91q0 -61 -64 -112t-142 -51q-51 0 -98 15l26 106h10q5 -51 23 -73.5t51 -22.5q35 0 58.5 26t23.5 60q0 49 -39 71t-104 18z" />
    <glyph glyph-name="uni2157" unicode="&#x2157;" horiz-adv-x="923" 
d="M101 312q-62 0 -104 15l26 106h10q2 -56 20 -76t54 -20q39 0 69 31.5t30 75.5q0 25 -19.5 49t-61.5 31l3 12l13 6q39 14 62 38.5t26.5 37.5t3.5 23q0 19 -13.5 29.5t-32.5 11.5q-73 0 -98 -63h-19q21 57 68 86.5t111 29.5q42 0 71 -17t29 -49q0 -36 -38 -60t-70 -31
l-1 -2q85 -33 85 -105q0 -75 -69 -117t-155 -42zM251 0h-75l508 725h75zM626 195l130 213h187l-50 -96h-171l-14 -23q81 -7 127 -40t46 -91q0 -61 -64 -112t-142 -51q-51 0 -98 15l26 106h10q5 -51 23 -73.5t51 -22.5q35 0 58.5 26t23.5 60q0 49 -39 71t-104 18z" />
    <glyph glyph-name="uni2158" unicode="&#x2158;" horiz-adv-x="1010" 
d="M312 317h-112l24 97h-203l25 99l266 212h103l-56 -222h71l-22 -89h-72zM246 503l43 171l-212 -171h169zM338 0h-75l508 725h75zM713 195l130 213h187l-50 -96h-171l-14 -23q81 -7 127 -40t46 -91q0 -61 -64 -112t-142 -51q-51 0 -98 15l26 106h10q5 -51 23 -73.5
t51 -22.5q35 0 58.5 26t23.5 60q0 49 -39 71t-104 18z" />
    <glyph glyph-name="uni2159" unicode="&#x2159;" horiz-adv-x="955" 
d="M305 735l-86 -347q-8 -42 -5.5 -50.5t16.5 -11.5l-2 -9h-185l2 8q30 2 42 16t24 59l67 270h-71l2 10q131 20 185 55h11zM214 0h-75l508 725h75zM928 190l1 -1q0 -77 -57.5 -137t-127.5 -60q-66 0 -108 40t-42 106q0 59 29.5 112t79 90t104 63t113.5 41l3 -21
q-56 -16 -99 -54t-66.5 -86t-35 -95.5t-11.5 -91.5q0 -22 0.5 -31t3 -23.5t9.5 -20.5t18 -6q24 0 44.5 46.5t20.5 104.5v10.5v13.5t-0.5 14t-2.5 14.5t-5 11.5t-8.5 9t-12.5 3t-13 -3.5t-18.5 -15.5t-16.5 -15l5 21q44 63 99 63q42 0 68 -25.5t26 -76.5z" />
    <glyph glyph-name="uni215A" unicode="&#x215a;" horiz-adv-x="980" 
d="M55 512l130 213h187l-50 -96h-171l-14 -23q81 -7 127 -40t46 -91q0 -61 -64 -112t-142 -51q-51 0 -98 15l26 106h10q5 -51 23 -73.5t51 -22.5q35 0 58.5 26t23.5 60q0 49 -39 71t-104 18zM239 0h-75l508 725h75zM953 190l1 -1q0 -77 -57.5 -137t-127.5 -60q-66 0 -108 40
t-42 106q0 59 29.5 112t79 90t104 63t113.5 41l3 -21q-56 -16 -99 -54t-66.5 -86t-35 -95.5t-11.5 -91.5q0 -22 0.5 -31t3 -23.5t9.5 -20.5t18 -6q24 0 44.5 46.5t20.5 104.5v10.5v13.5t-0.5 14t-2.5 14.5t-5 11.5t-8.5 9t-12.5 3t-13 -3.5t-18.5 -15.5t-16.5 -15l5 21
q44 63 99 63q42 0 68 -25.5t26 -76.5z" />
    <glyph glyph-name="oneeighth" unicode="&#x215b;" horiz-adv-x="940" 
d="M305 735l-86 -347q-8 -42 -5.5 -50.5t16.5 -11.5l-2 -9h-185l2 8q30 2 42 16t24 59l67 270h-71l2 10q131 20 185 55h11zM214 0h-75l508 725h75zM576 87v1q0 77 124 117q-60 58 -60 109q0 41 45 73.5t120 32.5q57 0 92 -22.5t35 -60.5q0 -34 -32.5 -58.5t-70.5 -34.5
l-9 11q53 37 53 76q0 66 -69 66q-70 0 -70 -44q0 -35 40 -68l43 -36q34 -29 50 -43.5t34 -41t18 -49.5q0 -43 -33.5 -72t-77 -39.5t-91.5 -10.5q-58 0 -99.5 27t-41.5 67zM712 195v-1l1 -1q-76 -42 -76 -111q0 -29 22 -48t64 -19q95 0 95 59q0 14 -10.5 31t-18 23.5
t-27.5 25.5l-40 33z" />
    <glyph glyph-name="threeeighths" unicode="&#x215c;" horiz-adv-x="977" 
d="M101 312q-62 0 -104 15l26 106h10q2 -56 20 -76t54 -20q39 0 69 31.5t30 75.5q0 25 -19.5 49t-61.5 31l3 12l13 6q39 14 62 38.5t26.5 37.5t3.5 23q0 19 -13.5 29.5t-32.5 11.5q-73 0 -98 -63h-19q21 57 68 86.5t111 29.5q42 0 71 -17t29 -49q0 -36 -38 -60t-70 -31
l-1 -2q85 -33 85 -105q0 -75 -69 -117t-155 -42zM251 0h-75l508 725h75zM613 87v1q0 77 124 117q-60 58 -60 109q0 41 45 73.5t120 32.5q57 0 92 -22.5t35 -60.5q0 -34 -32.5 -58.5t-70.5 -34.5l-9 11q53 37 53 76q0 66 -69 66q-70 0 -70 -44q0 -35 40 -68l43 -36
q34 -29 50 -43.5t34 -41t18 -49.5q0 -43 -33.5 -72t-77 -39.5t-91.5 -10.5q-58 0 -99.5 27t-41.5 67zM749 195v-1l1 -1q-76 -42 -76 -111q0 -29 22 -48t64 -19q95 0 95 59q0 14 -10.5 31t-18 23.5t-27.5 25.5l-40 33z" />
    <glyph glyph-name="fiveeighths" unicode="&#x215d;" horiz-adv-x="965" 
d="M55 512l130 213h187l-50 -96h-171l-14 -23q81 -7 127 -40t46 -91q0 -61 -64 -112t-142 -51q-51 0 -98 15l26 106h10q5 -51 23 -73.5t51 -22.5q35 0 58.5 26t23.5 60q0 49 -39 71t-104 18zM239 0h-75l508 725h75zM601 87v1q0 77 124 117q-60 58 -60 109q0 41 45 73.5
t120 32.5q57 0 92 -22.5t35 -60.5q0 -34 -32.5 -58.5t-70.5 -34.5l-9 11q53 37 53 76q0 66 -69 66q-70 0 -70 -44q0 -35 40 -68l43 -36q34 -29 50 -43.5t34 -41t18 -49.5q0 -43 -33.5 -72t-77 -39.5t-91.5 -10.5q-58 0 -99.5 27t-41.5 67zM737 195v-1l1 -1q-76 -42 -76 -111
q0 -29 22 -48t64 -19q95 0 95 59q0 14 -10.5 31t-18 23.5t-27.5 25.5l-40 33z" />
    <glyph glyph-name="seveneighths" unicode="&#x215e;" horiz-adv-x="1041" 
d="M218 317h-1h-120q12 113 101 197t215 115h-310l22 96h331l-22 -97q-102 -40 -160 -122.5t-56 -188.5zM314 0h-75l508 725h75zM676 87v1q0 77 124 117q-60 58 -60 109q0 41 45 73.5t120 32.5q57 0 92 -22.5t35 -60.5q0 -34 -32.5 -58.5t-70.5 -34.5l-9 11q53 37 53 76
q0 66 -69 66q-70 0 -70 -44q0 -35 40 -68l43 -36q34 -29 50 -43.5t34 -41t18 -49.5q0 -43 -33.5 -72t-77 -39.5t-91.5 -10.5q-58 0 -99.5 27t-41.5 67zM812 195v-1l1 -1q-76 -42 -76 -111q0 -29 22 -48t64 -19q95 0 95 59q0 14 -10.5 31t-18 23.5t-27.5 25.5l-40 33z" />
    <glyph glyph-name="uni215F" unicode="&#x215f;" horiz-adv-x="572" 
d="M305 735l-86 -347q-8 -42 -5.5 -50.5t16.5 -11.5l-2 -9h-185l2 8q30 2 42 16t24 59l67 270h-71l2 10q131 20 185 55h11zM214 0h-75l508 725h75z" />
    <glyph glyph-name="uni2190" unicode="&#x2190;" horiz-adv-x="800" 
d="M20 273l309 309l51 -54l-220 -216h600v-76h-602l222 -219l-51 -53z" />
    <glyph glyph-name="uni2191" unicode="&#x2191;" horiz-adv-x="800" 
d="M400 745l310 -309l-55 -52l-217 221v-605h-75v605l-217 -221l-55 52z" />
    <glyph glyph-name="uni2192" unicode="&#x2192;" horiz-adv-x="800" 
d="M469 582l311 -309l-311 -309l-50 53l222 219h-601v76h599l-220 216z" />
    <glyph glyph-name="uni2193" unicode="&#x2193;" horiz-adv-x="800" 
d="M401 -20l-310 309l55 52l217 -221v605h75v-605l217 221l55 -52z" />
    <glyph glyph-name="uni2196" unicode="&#x2196;" horiz-adv-x="800" 
d="M132 100v438h438v-72h-312l451 -452l-54 -53l-452 451v-312h-71z" />
    <glyph glyph-name="uni2197" unicode="&#x2197;" horiz-adv-x="800" 
d="M668 538v-438h-72v312l-452 -451l-54 53l451 452h-311v72h438z" />
    <glyph glyph-name="uni2198" unicode="&#x2198;" horiz-adv-x="800" 
d="M668 438v-438h-438v72h312l-451 452l54 53l452 -451v312h71z" />
    <glyph glyph-name="uni2199" unicode="&#x2199;" horiz-adv-x="800" 
d="M132 0v438h72v-312l452 451l54 -53l-451 -452h311v-72h-438z" />
    <glyph glyph-name="uni219E" unicode="&#x219e;" horiz-adv-x="800" 
d="M20 273l311 309l50 -54l-220 -216h140l271 270l51 -54l-219 -216h356v-76h-358l221 -219l-51 -53l-273 272h-140l222 -219l-50 -53z" />
    <glyph glyph-name="uni219F" unicode="&#x219f;" horiz-adv-x="800" 
d="M91 436l309 309l310 -309l-55 -52l-217 222v-141l272 -272l-55 -50l-217 221v-364h-75v365l-217 -222l-55 50l272 272v141l-217 -222z" />
    <glyph glyph-name="uni21A0" unicode="&#x21a0;" horiz-adv-x="800" 
d="M469 582l311 -309l-311 -309l-50 53l222 219h-140l-273 -272l-51 53l221 219h-358v76h356l-219 216l51 54l271 -270h140l-220 216z" />
    <glyph glyph-name="uni21A1" unicode="&#x21a1;" horiz-adv-x="800" 
d="M710 289l-310 -309l-309 309l55 52l217 -222v141l-272 272l55 50l217 -222v365h75v-364l217 221l55 -50l-272 -272v-141l217 222z" />
    <glyph glyph-name="uni21A2" unicode="&#x21a2;" horiz-adv-x="800" 
d="M20 273l309 309l51 -54l-220 -216h309l269 270l52 -54l-256 -255l256 -256l-52 -53l-272 272h-308l222 -219l-51 -53z" />
    <glyph glyph-name="uni21A3" unicode="&#x21a3;" horiz-adv-x="800" 
d="M780 273l-309 -309l-51 53l222 219h-308l-272 -272l-52 53l256 256l-256 255l52 54l269 -270h309l-220 216l51 54z" />
    <glyph glyph-name="uni21A4" unicode="&#x21a4;" horiz-adv-x="800" 
d="M750 0h-82v236h-509l222 -230l-52 -53l-309 315l309 314l52 -54l-220 -217h507v227h82v-538z" />
    <glyph glyph-name="uni21A5" unicode="&#x21a5;" horiz-adv-x="800" 
d="M400 745l310 -309l-55 -52l-217 222v-526h231v-80h-537v80h231v526l-217 -222l-55 52z" />
    <glyph glyph-name="uni21A6" unicode="&#x21a6;" horiz-adv-x="800" 
d="M132 236v-236h-82v538h82v-227h507l-220 217l52 54l309 -314l-309 -312l-52 53l222 227h-509z" />
    <glyph glyph-name="uni21A7" unicode="&#x21a7;" horiz-adv-x="800" 
d="M400 -20l-309 309l55 52l217 -222v526h-231v80h537v-80h-231v-526l217 222l55 -52z" />
    <glyph glyph-name="uni21B0" unicode="&#x21b0;" horiz-adv-x="800" 
d="M740 -216h-75v452h-507l222 -219l-51 -53l-309 309l309 309l51 -54l-220 -216h580v-528z" />
    <glyph glyph-name="uni21B1" unicode="&#x21b1;" horiz-adv-x="800" 
d="M469 582l311 -309l-311 -309l-50 53l222 219h-506v-452h-75v527h579l-220 217z" />
    <glyph glyph-name="uni21B2" unicode="&#x21b2;" horiz-adv-x="800" 
d="M20 273l309 309l51 -54l-220 -216h505v413h75v-489h-582l222 -219l-51 -53z" />
    <glyph glyph-name="uni21B3" unicode="&#x21b3;" horiz-adv-x="800" 
d="M469 582l311 -309l-311 -309l-50 53l222 219h-581v489h75v-413h504l-220 216z" />
    <glyph glyph-name="partialdiff" unicode="&#x2202;" horiz-adv-x="560" 
d="M117 266q0 -99 41 -154t116 -55q70 0 117 53.5t47 155.5q0 103 -46.5 155.5t-117.5 52.5q-74 0 -115.5 -55t-41.5 -153zM266 544q103 0 157 -77l1 1q-30 85 -105.5 140.5t-168.5 59.5v74q168 -10 271 -129t103 -302q0 -160 -68 -242t-183 -82q-110 0 -175 74.5t-65 204.5
q0 128 65 203t168 75z" />
    <glyph glyph-name="product" unicode="&#x220f;" horiz-adv-x="661" 
d="M149 -189h-81v914h525v-914h-81v839h-363v-839z" />
    <glyph glyph-name="summation" unicode="&#x2211;" horiz-adv-x="583" 
d="M26 -120l282 388l-282 388v69h531v-75h-436l281 -382l-281 -382h436v-75h-531v69z" />
    <glyph glyph-name="minus" unicode="&#x2212;" 
d="M52 312h534v-76h-534v76z" />
    <glyph glyph-name="radical" unicode="&#x221a;" horiz-adv-x="513" 
d="M0 227l142 65l158 -371l135 804h78l-158 -914h-87l-166 374l-68 -30z" />
    <glyph glyph-name="infinity" unicode="&#x221e;" horiz-adv-x="789" 
d="M763 254q0 -73 -48 -118.5t-125 -45.5q-101 0 -196 108q-47 -51 -92 -79.5t-101 -28.5q-78 0 -126.5 45.5t-48.5 118.5t49 118.5t129 45.5q99 0 191 -105q49 56 92.5 80.5t98.5 24.5q78 0 127.5 -45.5t49.5 -118.5zM203 347h1q-43 0 -70 -25.5t-27 -67.5
q0 -39 27.5 -65.5t69.5 -26.5q40 0 71.5 21.5t73.5 70.5q-39 48 -72 70.5t-74 22.5zM588 162q42 0 69 25.5t27 66.5q0 40 -27.5 66.5t-73.5 26.5q-39 0 -70.5 -23t-69.5 -69q38 -47 72 -70t73 -23z" />
    <glyph glyph-name="integral" unicode="&#x222b;" horiz-adv-x="292" 
d="M108 144v339q0 137 36.5 195t105.5 58q35 0 58 -16t23 -45q0 -22 -12.5 -35.5t-33.5 -13.5q-20 0 -32 11.5t-12 29.5q0 22 8 30q-38 0 -51 -34t-13 -101q0 -21 1.5 -75.5t1.5 -91.5v-346q0 -132 -35.5 -188.5t-105.5 -56.5q-36 0 -58.5 15.5t-22.5 46.5q0 20 13 34t33 14
t32 -12t12 -30q0 -15 -8 -29q37 0 49.5 33.5t12.5 100.5q0 21 -1 75.5t-1 91.5z" />
    <glyph glyph-name="approxequal" unicode="&#x2248;" 
d="M505 449h76q-4 -66 -43.5 -104t-102.5 -38q-43 0 -119.5 35.5t-109.5 35.5q-29 0 -48 -18.5t-21 -52.5h-78q4 66 43 104t103 38q52 0 128 -35.5t102 -35.5q29 0 48 18.5t22 52.5zM505 262h76q-4 -66 -43.5 -104t-102.5 -38q-43 0 -119.5 35.5t-109.5 35.5
q-29 0 -48 -18.5t-21 -52.5h-78q4 66 43 104t103 38q52 0 128 -35.5t102 -35.5q29 0 48 18.5t22 52.5z" />
    <glyph glyph-name="notequal" unicode="&#x2260;" 
d="M92 344v75h285l83 144l65 -33l-64 -111h125v-75h-167l-75 -131h242v-75h-285l-94 -165l-65 36l74 129h-124v75h167l75 131h-242z" />
    <glyph glyph-name="lessequal" unicode="&#x2264;" 
d="M158 332l428 -133v-84l-535 182v70l535 184v-84zM49 0v75h540v-75h-540z" />
    <glyph glyph-name="greaterequal" unicode="&#x2265;" 
d="M500 332l-428 135v84l535 -184v-70l-535 -182v84zM609 0h-540v75h540v-75z" />
    <glyph glyph-name="uni25A0" unicode="&#x25a0;" horiz-adv-x="800" 
d="M133 0v538h535v-538h-535z" />
    <glyph glyph-name="uni25A1" unicode="&#x25a1;" horiz-adv-x="800" 
d="M133 0v538h535v-538h-535zM197 475v-411h408v411h-408z" />
    <glyph glyph-name="lozenge" unicode="&#x25ca;" horiz-adv-x="508" 
d="M256 626l-161 -278l161 -277l160 277zM7 348l249 424l246 -424l-246 -424z" />
    <glyph glyph-name="uni25CB" unicode="&#x25cb;" horiz-adv-x="800" 
d="M122 268q0 116 81.5 197.5t196.5 81.5q116 0 197.5 -81.5t81.5 -197.5t-82 -198.5t-197 -82.5t-196.5 82.5t-81.5 198.5zM613 268q0 93 -62 155.5t-151 62.5t-150.5 -62.5t-61.5 -155.5q0 -90 62 -155t150 -65q89 0 151 63.5t62 156.5z" />
    <glyph glyph-name="uni25CF" unicode="&#x25cf;" horiz-adv-x="800" 
d="M400 547q116 0 197.5 -81.5t81.5 -197.5t-82 -198.5t-197 -82.5t-196.5 82.5t-81.5 198.5t81.5 197.5t196.5 81.5z" />
    <glyph glyph-name="fi" unicode="&#xfb01;" horiz-adv-x="766" 
d="M767 699q0 -42 -30 -72t-72 -30t-72 30t-30 72q0 41 30 70.5t72 29.5t72 -29.5t30 -70.5zM463 175l47 185q17 66 10.5 82t-55.5 18l4 16l252 71q-30 -104 -60 -224l-52 -208q-16 -61 21 -61q47 0 110 100l16 -9q-41 -80 -89.5 -119t-96.5 -39q-76 0 -104 43.5t-3 144.5z
M20 0h-1l122 488h-79l12 50h79v3q19 77 69.5 130.5t113.5 77t136 23.5q26 0 53 -3l-35 -141h-11q-33 61 -52 76q-17 13 -35 13q-45 0 -67.5 -29.5t-17.5 -118.5l2 -31h147l-12 -50h-140l-122 -488h-162z" />
    <glyph glyph-name="fl" unicode="&#xfb02;" horiz-adv-x="768" 
d="M20 0h-1l122 488h-79l12 50h79v3q19 77 69.5 130.5t113.5 77t136 23.5q26 0 53 -3l-35 -141h-11q-33 61 -52 76q-17 13 -35 13q-45 0 -67.5 -29.5t-17.5 -118.5l2 -31h147l-12 -50h-140l-122 -488h-162zM461 175h-1l110 441q17 66 11 82t-55 18l4 16l252 71
q-30 -104 -60 -224l-116 -462q-16 -63 22 -63q47 0 110 100l16 -9q-41 -80 -89.5 -119t-96.5 -39q-77 0 -104 45.5t-3 142.5z" />
    <glyph glyph-name="apple" horiz-adv-x="453" 
d="M223 97q-74 0 -126.5 54t-52.5 132q0 75 52.5 127.5t126.5 52.5q79 0 133 -52.5t54 -127.5q0 -78 -54 -132t-133 -54z" />
    <glyph glyph-name="dot" horiz-adv-x="349" 
d="M350 699q0 -42 -30 -72t-72 -30t-72 30t-30 72q0 41 30 70.5t72 29.5t72 -29.5t30 -70.5z" />
    <glyph glyph-name="dotaccent.low" horiz-adv-x="198" 
d="M22 -150q0 33 22.5 55.5t54.5 22.5t54.5 -23t22.5 -55q0 -31 -22.5 -53.5t-54.5 -22.5t-54.5 22.5t-22.5 53.5z" />
    <glyph glyph-name="commaaccent" horiz-adv-x="181" 
d="M107 -187v1q-27 1 -47 19t-20 45q0 28 20 47.5t49 19.5q30 0 47.5 -21t17.5 -54q0 -60 -50 -108t-128 -73l-5 10q116 62 116 114z" />
    <glyph glyph-name="caron.slovak" horiz-adv-x="271" 
d="M160 640v1q-27 1 -47 19t-20 45q0 28 20 47.5t49 19.5q30 0 47.5 -21t17.5 -54q0 -60 -50 -108t-128 -73l-5 10q116 62 116 114z" />
    <glyph glyph-name="zero.slashed" horiz-adv-x="714" 
d="M44 276q0 119 61 228.5t155.5 173.5t191.5 64q103 0 166.5 -77t63.5 -205q0 -116 -61.5 -227t-157 -178.5t-191.5 -67.5q-102 0 -165 79t-63 210zM448 708v1q-59 0 -111.5 -71t-84 -170t-44.5 -205l309 212q8 66 8 111q0 122 -77 122zM277 23v-1q56 0 105 63t79.5 150.5
t47.5 188.5l-306 -211q-3 -35 -3 -66q0 -124 77 -124z" />
    <glyph glyph-name="one.pof" horiz-adv-x="475" 
d="M408 573h1l-109 -437q-18 -75 -10.5 -94t53.5 -25l-4 -17h-335l4 17q69 6 90 27t42 101l77 308h-132l4 20q192 22 298 100h21z" />
    <glyph glyph-name="two.pof" horiz-adv-x="530" 
d="M443 127h1l-31 -127h-470l2 9q55 39 74.5 53t70 51t72 55t60 50.5t56 53.5t39 48t30 50t8.5 44q0 36 -26 55t-71 19q-118 0 -147 -84h-28q22 75 92.5 122t166.5 47q74 0 126 -32.5t52 -87.5q0 -24 -13.5 -49t-30.5 -44t-53 -46.5t-60 -43.5l-72 -48l-145 -95h297z" />
    <glyph glyph-name="three.pof" horiz-adv-x="528" 
d="M85 -180h1q-105 0 -178 30l45 182h18q4 -169 131 -169q73 0 127.5 54t54.5 128q0 52 -35 94.5t-114 55.5l6 22l24 10q88 34 130 86.5t42 92.5q0 37 -26 56.5t-70 20.5q-130 0 -174 -115h-32q31 98 112 151.5t186 53.5q73 0 124.5 -32t51.5 -87q0 -102 -195 -175l-1 -3
q63 -25 102 -72.5t39 -109.5q0 -63 -33.5 -116.5t-87.5 -87t-118.5 -52t-129.5 -18.5z" />
    <glyph glyph-name="four.pof" horiz-adv-x="641" 
d="M394 -165h-162l41 165h-305l29 114l432 442h145l-108 -429h112l-32 -127h-111zM304 127l82 325l-318 -325h236z" />
    <glyph glyph-name="five.pof" horiz-adv-x="533" 
d="M95 -180q-94 0 -172 30l45 182h18q7 -169 131 -169q69 0 117 47t48 115q0 78 -64 126.5t-189 55.5l212 349h327l-77 -143h-294l-43 -71q142 -19 218 -83.5t76 -160.5q0 -75 -52.5 -140t-133.5 -101.5t-167 -36.5z" />
    <glyph glyph-name="six.pof" horiz-adv-x="654" 
d="M614 322q0 -134 -101.5 -234.5t-229.5 -100.5q-109 0 -176 66.5t-67 180.5q0 82 35.5 158t93 134t134.5 107.5t156 82.5t162 56l6 -31q-129 -40 -223.5 -130.5t-144.5 -208.5q82 100 187 100q75 0 121.5 -47.5t46.5 -132.5zM358 424q-54 0 -114 -60q-34 -95 -34 -194
q0 -145 75 -145q60 0 105.5 81.5t45.5 182.5q0 135 -78 135z" />
    <glyph glyph-name="seven.pof" horiz-adv-x="562" 
d="M22 413l35 143h525l-35 -143l-521 -613l-92 74l574 539h-486z" />
    <glyph glyph-name="eight.pof" horiz-adv-x="643" 
d="M5 158v1q0 134 224 211q-102 89 -102 181q0 82 79 137t201 55q95 0 157 -39.5t62 -106.5q0 -109 -198 -176q39 -30 62 -49.5t50 -48.5t39.5 -58.5t12.5 -61.5q0 -58 -31.5 -102t-83.5 -67.5t-108.5 -35t-115.5 -11.5q-101 0 -174.5 47.5t-73.5 123.5zM105 157h1
q0 -58 40 -94.5t117 -36.5q75 0 127 27t52 91q0 27 -19 55t-34 41.5t-59 49.5l-65 52q-1 2 -5 4t-6 4q-149 -71 -149 -193zM530 592q0 56 -33.5 85t-91.5 29q-61 0 -100 -23.5t-39 -70.5q0 -37 20 -65t65 -63l55 -44q60 33 92 68.5t32 83.5z" />
    <glyph glyph-name="nine.pof" horiz-adv-x="647" 
d="M64 237q0 134 101.5 235t229.5 101q109 0 176 -66.5t67 -180.5q0 -83 -35.5 -159t-92.5 -133.5t-134 -107t-156 -82.5t-162 -56l-7 30q128 38 222 128.5t145 208.5q-82 -98 -186 -98q-75 0 -121.5 48t-46.5 132zM321 136h1q50 0 111 57q35 100 35 196q0 145 -75 145
q-60 0 -105.5 -81.5t-45.5 -182.5q0 -134 79 -134z" />
    <glyph glyph-name="zero.pof" horiz-adv-x="677" 
d="M401 573q109 0 175 -64t66 -164q0 -88 -48 -170.5t-133.5 -135t-184.5 -52.5q-110 0 -174.5 64t-64.5 166q0 88 47.5 170t132.5 134t184 52zM287 24q41 0 77 41t58 102t34 124.5t12 114.5q0 131 -76 131q-54 0 -98 -65.5t-64.5 -151t-20.5 -162.5q0 -134 78 -134z" />
    <glyph glyph-name="zero.slashed.pof" horiz-adv-x="677" 
d="M642 345q0 -88 -48 -170.5t-133.5 -135t-184.5 -52.5q-110 0 -174.5 64t-64.5 166q0 88 47.5 170t132.5 134t184 52q109 0 175 -64t66 -164zM287 24q62 0 106 82t65 195l-244 -64q-5 -47 -5 -79q0 -134 78 -134zM392 537v-1q-41 0 -77 -39t-58 -94.5t-35 -122.5l242 63
q4 31 4 63q0 131 -76 131z" />
    <glyph glyph-name="one.tlf" 
d="M523 739l-150 -603q-18 -75 -11 -94t54 -25l-4 -17h-335l4 17q69 6 90 27t42 101l118 474h-132l5 20q192 22 298 100h21z" />
    <glyph glyph-name="two.tlf" 
d="M-14 0v-1l3 12q236 188 294 239q153 136 184 232q10 31 10 61q0 51 -31 79.5t-80 28.5q-58 0 -104 -28.5t-68 -86.5h-32q33 102 108 154t184 52q84 0 139.5 -41.5t55.5 -109.5q0 -75 -65.5 -148t-197.5 -167l-184 -132h344l-36 -144h-524z" />
    <glyph glyph-name="three.tlf" 
d="M196 -11h1q-105 0 -178 30l45 182h18q4 -169 131 -169q73 0 127.5 54t54.5 128q0 52 -35 94.5t-114 55.5l6 22l24 10q88 34 130 86.5t42 92.5q0 37 -26 56.5t-70 20.5q-130 0 -174 -115h-32q31 98 112 151.5t186 53.5q73 0 124.5 -32t51.5 -87q0 -102 -195 -175l-1 -3
q66 -25 105.5 -72t39.5 -110t-34 -116.5t-89 -87t-120 -52t-130 -18.5z" />
    <glyph glyph-name="four.tlf" 
d="M436 0h-163l44 178h-341l30 118l466 429h145l-104 -415h125l-33 -132h-125zM350 310l79 317l-346 -317h267z" />
    <glyph glyph-name="five.tlf" 
d="M125 376l212 349h327l-77 -143h-294l-43 -71q142 -19 218 -83.5t76 -160.5q0 -75 -52.5 -140t-133.5 -101.5t-167 -36.5q-94 0 -172 30l45 182h18q7 -169 131 -169q69 0 117 47t48 115q0 78 -64 126.5t-189 55.5z" />
    <glyph glyph-name="six.tlf" 
d="M612 322q0 -134 -101.5 -234.5t-229.5 -100.5q-109 0 -176 66.5t-67 180.5q0 82 35.5 158t93 134t134.5 107.5t156 82.5t162 56l6 -31q-129 -40 -223.5 -130.5t-144.5 -208.5q82 100 187 100q75 0 121.5 -47.5t46.5 -132.5zM356 424q-54 0 -114 -60q-34 -95 -34 -194
q0 -145 75 -145q60 0 105.5 81.5t45.5 182.5q0 135 -78 135z" />
    <glyph glyph-name="seven.tlf" 
d="M261 0h-181q20 106 74.5 199t132.5 164t164.5 124.5t186.5 94.5h-509l34 143h547l-34 -145q-378 -220 -415 -580z" />
    <glyph glyph-name="eight.tlf" 
d="M19 158v1q0 134 224 211q-102 89 -102 181q0 82 79 137t201 55q95 0 157 -39.5t62 -106.5q0 -109 -198 -176q39 -30 62 -49.5t50 -48.5t39.5 -58.5t12.5 -61.5q0 -58 -31.5 -102t-83.5 -67.5t-108.5 -35t-115.5 -11.5q-101 0 -174.5 47.5t-73.5 123.5zM119 157h1
q0 -58 40 -94.5t117 -36.5q75 0 127 27t52 91q0 27 -19 55t-34 41.5t-59 49.5l-65 52q-1 2 -5 4t-6 4q-149 -71 -149 -193zM544 592q0 56 -33.5 85t-91.5 29q-61 0 -100 -23.5t-39 -70.5q0 -37 20 -65t65 -63l55 -44q60 33 92 68.5t32 83.5z" />
    <glyph glyph-name="nine.tlf" 
d="M83 409q0 134 101.5 235t229.5 101q109 0 176 -66.5t67 -180.5q0 -83 -35.5 -159t-92.5 -133.5t-134 -107t-156 -82.5t-162 -56l-7 30q128 38 222 128.5t145 208.5q-82 -98 -186 -98q-75 0 -121.5 48t-46.5 132zM340 308h1q49 0 111 57q35 100 35 196q0 145 -75 145
q-60 0 -105.5 -81.5t-45.5 -182.5q0 -134 79 -134z" />
    <glyph glyph-name="zero.tlf" 
d="M277 22q55 0 104 60t79 149t47.5 184t17.5 171q0 122 -77 122q-54 0 -102.5 -59.5t-79.5 -147t-48.5 -182.5t-17.5 -173q0 -124 77 -124zM44 276q0 119 61 228.5t155.5 173.5t191.5 64q103 0 166.5 -77t63.5 -205q0 -116 -61.5 -227t-157 -178.5t-191.5 -67.5
q-102 0 -165 79t-63 210z" />
    <glyph glyph-name="zero.slashed.tlf" 
d="M44 276q0 119 61 228.5t155.5 173.5t191.5 64q103 0 166.5 -77t63.5 -205q0 -116 -61.5 -227t-157 -178.5t-191.5 -67.5q-102 0 -165 79t-63 210zM448 708q-45 0 -85.5 -40t-70 -105t-50.5 -139t-32 -151l308 212q7 50 7 101q0 122 -77 122zM277 22v1q43 0 82.5 37
t68.5 98.5t49.5 131.5t33.5 146l-307 -212q-4 -36 -4 -78q0 -124 77 -124z" />
    <glyph glyph-name="one.case" horiz-adv-x="526" 
d="M464 740v-1l-151 -604q-13 -48 -13 -75q0 -23 11.5 -31.5t42.5 -12.5l-5 -17h-343l4 16q67 6 89.5 29t40.5 102l118 473h-131l6 21q197 22 309 100h22z" />
    <glyph glyph-name="two.case" horiz-adv-x="647" 
d="M651 586q0 -47 -23.5 -92t-66.5 -83.5t-94 -73t-116 -67t-122.5 -57.5t-122.5 -53l-15 -6h463l-39 -154h-556l35 140q19 12 80.5 47.5t103.5 61.5t101 69t96 80t64 84t27 91q0 49 -29.5 74.5t-79.5 25.5q-70 0 -131.5 -45t-80.5 -127h-49q23 108 105.5 174.5t216.5 66.5
q102 0 167.5 -41t65.5 -115z" />
    <glyph glyph-name="three.case" horiz-adv-x="658" 
d="M194 -13q-120 0 -208 42l50 230h21q4 -118 33.5 -173.5t104.5 -55.5q79 0 134.5 65t55.5 143q0 134 -130 134h-24l16 37h15q75 0 129 44.5t54 114.5q0 51 -30 78t-83 27q-62 0 -119.5 -39t-79.5 -124l-44 7q23 105 108.5 165t197.5 60q103 0 173 -37.5t70 -112.5
q0 -48 -33.5 -85.5t-79.5 -58.5t-103 -32l-1 -3q66 -21 109.5 -68.5t43.5 -110.5q0 -61 -36.5 -110t-94 -78t-122 -44t-127.5 -15z" />
    <glyph glyph-name="four.case" horiz-adv-x="694" 
d="M453 0h-175l43 174h-338l34 139l460 412h156l-102 -410h127l-37 -141h-125zM356 315l78 313l-348 -313h270z" />
    <glyph glyph-name="five.case" horiz-adv-x="654" 
d="M212 -13h-1q-124 0 -213 40l50 229h21q3 -115 32 -170.5t94 -55.5q78 0 139 78t61 160q0 155 -117 155q-45 0 -84.5 -25.5t-64.5 -69.5l-46 16l142 381h455l-49 -154h-417l-69 -178q33 43 87.5 70t122.5 27q104 0 166 -50t62 -152q0 -90 -57.5 -160.5t-141 -105.5
t-172.5 -35z" />
    <glyph glyph-name="six.case" horiz-adv-x="671" 
d="M629 325l-1 -1q0 -134 -105.5 -236t-233.5 -102q-112 0 -183 68t-71 183q0 83 36 159.5t93.5 133.5t136 105.5t157 81t161.5 55.5l5 -31q-126 -38 -217 -127.5t-140 -206.5q78 99 186 99q76 0 126 -47.5t50 -133.5zM352 423q-54 0 -100 -56q-35 -99 -35 -198
q0 -145 73 -145q55 0 100 82t45 182q0 20 -3 40t-11 43t-26 37.5t-43 14.5z" />
    <glyph glyph-name="seven.case" horiz-adv-x="607" 
d="M241 0v-1h-193q20 103 74 194t131.5 161t166 123t190.5 93h-515l36 154h553l-36 -157q-368 -201 -407 -567z" />
    <glyph glyph-name="eight.case" horiz-adv-x="665" 
d="M13 157q0 42 21 78t57.5 61.5t71 41.5t74.5 29q-104 95 -104 184q0 80 79.5 135.5t204.5 55.5q96 0 158.5 -39.5t62.5 -106.5q0 -111 -195 -172q55 -44 82.5 -69t55 -67.5t27.5 -83.5q0 -58 -32.5 -102.5t-85.5 -68t-110.5 -35t-117.5 -11.5q-102 0 -175.5 48t-73.5 122z
M116 153v-1q0 -56 39.5 -92t116.5 -36q176 0 176 115q0 27 -18.5 55t-35 42.5t-55.5 46.5l-66 55l-12 9q-145 -73 -145 -194zM434 430q0 -1 1 -1zM538 589q0 57 -33 86t-91 29q-59 0 -96.5 -22t-37.5 -68q0 -35 18.5 -63t62.5 -62l72 -58l-11 10q116 66 116 148z" />
    <glyph glyph-name="nine.case" horiz-adv-x="671" 
d="M59 407h1q0 134 105.5 236t233.5 102q112 0 183 -68t71 -183q0 -102 -53.5 -193t-141.5 -156.5t-186 -111t-203 -73.5l-5 31q126 38 216.5 127t139.5 206q-79 -98 -185 -98q-76 0 -126 47.5t-50 133.5zM336 308q54 0 100 56q35 103 35 198q0 145 -73 145q-55 0 -100 -82
t-45 -182q0 -20 3 -40t11 -43t26 -37.5t43 -14.5z" />
    <glyph glyph-name="zero.case" horiz-adv-x="771" 
d="M578 552q0 157 -102 157q-58 0 -109 -60t-82.5 -146.5t-49.5 -174t-18 -151.5q0 -80 25 -117.5t77 -37.5q58 0 109 59.5t82.5 146t49.5 173.5t18 151zM50 268q0 83 30 166.5t83.5 152.5t137.5 112t182 43q116 0 189 -73.5t73 -207.5q0 -83 -30 -166t-83 -152.5
t-136.5 -112.5t-181.5 -43q-117 0 -190.5 73.5t-73.5 207.5z" />
    <glyph glyph-name="zero.slashed.case" horiz-adv-x="771" 
d="M50 268q0 83 30 166.5t83.5 152.5t137.5 112t182 43q116 0 189 -73.5t73 -207.5q0 -83 -30 -166t-83 -152.5t-136.5 -112.5t-181.5 -43q-117 0 -190.5 73.5t-73.5 207.5zM578 552v-1q0 157 -102 157q-56 0 -106.5 -58t-82 -137.5t-50.5 -170.5l329 86q12 70 12 124z
M319 21q56 0 105.5 57t80.5 134t51 168l-328 -87q-11 -60 -11 -117q0 -80 25 -117.5t77 -37.5z" />
    <glyph glyph-name="a.superior" horiz-adv-x="353" 
d="M144 431q-30 0 -49.5 25.5t-19.5 71.5q0 80 50.5 149t124.5 69q22 0 42 -13l103 13l-43 -162l-16 -79q-7 -34 15 -34q4 0 8.5 1.5t8.5 5.5l7.5 7.5t7.5 9.5t6.5 9.5t6.5 10.5t6 9l9 -4q-44 -89 -127 -89q-31 0 -47.5 13.5t-16.5 32.5q0 7 1 14q-12 -31 -29.5 -45.5
t-47.5 -14.5zM201 483h-1q17 0 53 136l25 97q-7 10 -16 10q-25 0 -47 -76.5t-22 -140.5q0 -26 8 -26z" />
    <glyph glyph-name="b.superior" horiz-adv-x="333" 
d="M74 470h2l79 318q9 35 7 42t-27 9l3 9l156 42q-4 -16 -16.5 -60t-19.5 -68l-21 -77q22 61 78 61q31 0 50.5 -25.5t19.5 -71.5q0 -79 -51 -148.5t-124 -69.5q-77 0 -136 39zM210 560l-25 -94q-1 -6 2.5 -10.5t13.5 -4.5q25 0 46.5 76t21.5 141q0 24 -10 24q-3 0 -6.5 -3.5
t-16 -36t-26.5 -92.5z" />
    <glyph glyph-name="c.superior" horiz-adv-x="285" 
d="M75 539h-1q0 91 52.5 149t126.5 58q92 0 86 -108l-95 2q2 6 8 21t9 24t5 20t-2 16.5t-13 5.5q-29 0 -45 -56t-16 -109q0 -60 43 -60q52 0 79 65l12 -3q-42 -133 -158 -133q-47 0 -69 30t-22 78z" />
    <glyph glyph-name="d.superior" horiz-adv-x="354" 
d="M281 738h-1l12 50q9 40 5 45q-4 4 -24 6l2 9l157 42q-33 -121 -35 -128l-60 -252q-9 -39 13 -39q18 0 52 53l9 -4q-43 -89 -122 -89q-34 0 -51.5 13t-17.5 33q0 7 1 14q-15 -32 -31 -46t-40 -14q-34 0 -54.5 25.5t-20.5 72.5q0 79 50 147t124 68q19 0 32 -6zM200 483
q18 0 51 136l24 99q-6 8 -16 8q-25 0 -46 -76t-21 -140q0 -27 8 -27z" />
    <glyph glyph-name="e.superior" horiz-adv-x="291" 
d="M73 539h1q0 92 54 149.5t137 57.5q38 0 63 -16t25 -46q0 -46 -38 -56l-128 -35q-2 -7 -2 -31q0 -60 48 -60q49 0 80 65l12 -3q-24 -61 -60.5 -97t-99.5 -36q-47 0 -69.5 30t-22.5 78zM244 727q-18 0 -33 -35t-22 -80l14 5q55 18 55 88q0 22 -14 22z" />
    <glyph glyph-name="f.superior" horiz-adv-x="234" 
d="M63 438h-1l69 271h-42l8 32h40q18 65 70.5 96t114.5 31q29 0 38 -2l-22 -86h-6q-3 5 -8.5 15.5t-9 16.5t-8.5 13t-11 10t-13 3q-24 0 -31 -14t-5 -70v-13h75l-8 -32h-70l-68 -271h-112z" />
    <glyph glyph-name="g.superior" horiz-adv-x="347" 
d="M100 617v-1q0 47 48.5 88t126.5 41q17 0 37 -5h121l-8 -32l-67 4q17 -20 17 -48q0 -48 -48 -88.5t-127 -40.5q-27 0 -44 7q-1 -1 -6.5 -4t-7.5 -4.5t-5.5 -4.5t-5 -6t-1.5 -6q0 -6 24 -12l98 -17q58 -13 87.5 -29.5t29.5 -49.5q0 -46 -66 -73t-149 -27q-52 0 -92 12.5
t-40 39.5q0 43 82 56q-38 18 -38 50q0 16 13.5 32.5t27 26t34.5 22.5q-41 23 -41 69zM214 394l-80 14q-1 0 -9 2q-39 -16 -39 -41q0 -19 29 -28t66 -9q38 0 67.5 9.5t29.5 23.5q0 5 -3 9t-12 7.5t-16.5 5t-23.5 5.5q-6 1 -9 2zM281 684q0 42 -22 42q-25 0 -44.5 -39
t-19.5 -92q0 -41 22 -41q24 0 44 39.5t20 90.5z" />
    <glyph glyph-name="h.superior" horiz-adv-x="360" 
d="M256 762l-2 -1l-23 -91q24 75 85 75q90 0 49 -149l-24 -94q-7 -32 11 -32q22 0 53 53l9 -4q-24 -49 -46.5 -69t-53.5 -20q-107 0 -64 147l14 48q6 21 9 32.5t4.5 20.5t0 12t-6.5 3q-8 0 -22.5 -25t-32 -73.5t-29.5 -104.5l-12 -53h-112l88 350q9 40 6 45t-25 7l2 9
l157 42q-33 -121 -35 -128z" />
    <glyph glyph-name="i.superior" horiz-adv-x="202" 
d="M84 551h-1l24 93q9 35 7 42t-26 9l2 9l157 42q-33 -121 -35 -128l-29 -115q-8 -32 16 -32q4 0 8.5 1.5t8.5 5.5l7.5 7.5t7.5 9.5t6.5 9.5t6.5 10.5t6 9l9 -4q-44 -89 -102 -89q-105 0 -73 120zM271 821q0 -28 -20 -48.5t-48 -20.5q-29 0 -49 20.5t-20 48.5q0 29 20 49
t49 20q28 0 48 -20t20 -49z" />
    <glyph glyph-name="j.superior" horiz-adv-x="219" 
d="M298 821q0 -28 -20 -48.5t-48 -20.5q-29 0 -48.5 20.5t-19.5 48.5q0 29 19.5 49t48.5 20q28 0 48 -20t20 -49zM96 490v1l39 154q9 35 7 42t-27 9l2 9l157 42q-25 -89 -35 -128l-30 -118q-8 -31 -19.5 -56t-21 -42.5t-28.5 -33.5t-29.5 -24t-37 -19t-36.5 -15t-42 -15
l-6 11q78 64 107 183z" />
    <glyph glyph-name="k.superior" horiz-adv-x="377" 
d="M74 438l86 350q9 40 5 45q-4 4 -24 6l2 9l157 42q-25 -89 -35 -128l-80 -324h-111zM244 514l1 1l-16 84l90 84l8 8q12 11 16 16t6.5 11t-3.5 8.5t-19 4.5l3 10h116l-3 -10q-47 0 -95 -47l-23 -24l34 -143q1 -3 2 -8q4 -17 6.5 -23.5t7.5 -11.5t13 -5q13 0 25 20.5
t19 47.5l9 -4q-12 -57 -37 -79.5t-65 -22.5q-79 0 -95 83z" />
    <glyph glyph-name="l.superior" horiz-adv-x="202" 
d="M82 551h1l58 237q9 35 7 42t-27 9l3 9l156 42q-25 -89 -35 -128l-63 -257q-8 -34 15 -34q4 0 8.5 1.5t9 5.5t7.5 7t7.5 9.5t6 9.5t6.5 11t6 9l9 -4q-43 -88 -111 -88q-43 0 -60.5 30.5t-3.5 88.5z" />
    <glyph glyph-name="m.superior" horiz-adv-x="526" 
d="M471 430q-30 0 -46.5 10t-23 40t9.5 84l16 63q6 22 8.5 34.5t3 20.5t-1.5 10.5t-7 2.5q-13 0 -38 -59t-46 -145l-13 -53h-107l46 188q14 60 9 67q-2 2 -5 2q-14 0 -38.5 -59t-44.5 -145l-13 -53h-108l51 206q9 35 7 42t-28 9l3 9l158 42l-21 -78q10 32 31 55.5t54 23.5
q37 0 52 -17.5t9 -74.5q0 1 4.5 12.5t5.5 14t6 13t8 14t8.5 11.5t11 11.5t13 8t16.5 6t19 1.5q92 0 50 -150l-23 -94q-8 -32 13 -32q18 0 52 53l9 -4q-45 -90 -110 -90z" />
    <glyph glyph-name="o.superior" horiz-adv-x="341" 
d="M286 677q0 50 -20 50q-34 0 -58 -66.5t-24 -163.5q0 -47 20 -47q34 0 58 65t24 162zM73 550q0 72 56 134t148 62q53 0 86.5 -33t33.5 -91q0 -71 -56.5 -131t-149.5 -60q-53 0 -85.5 31t-32.5 88z" />
    <glyph glyph-name="p.superior" horiz-adv-x="333" 
d="M255 746h1l-17 -61q23 62 77 62q31 0 50.5 -26t19.5 -72q0 -79 -51 -148.5t-123 -69.5q-20 0 -33 7l-31 -122h-111l82 328q9 35 7 42t-28 9l3 9zM209 558l-25 -99q6 -8 17 -8q25 0 46.5 76t21.5 141q0 26 -10 26q-17 0 -50 -136z" />
    <glyph glyph-name="q.superior" horiz-adv-x="343" 
d="M178 316h-1l44 177q-23 -62 -78 -62q-30 0 -49.5 25.5t-19.5 72.5q0 80 50 148.5t124 68.5q21 0 41 -13l104 13l-34 -128l-69 -302h-112zM200 484q16 0 52 136l25 96q-7 10 -18 10q-25 0 -46 -76t-21 -140q0 -26 8 -26z" />
    <glyph glyph-name="r.superior" horiz-adv-x="261" 
d="M255 746h2l-22 -100q9 30 42 65.5t63 35.5q2 0 12 -2l-27 -104h-3q-17 11 -39 11q-12 0 -28.5 -6.5t-22.5 -14.5l-48 -193h-112l52 206q9 35 7 42t-28 9l3 9z" />
    <glyph glyph-name="s.superior" horiz-adv-x="293" 
d="M333 554q0 -58 -50 -90.5t-118 -32.5q-53 0 -102 21l36 143h11q-2 -69 18 -107t54 -38q26 0 40.5 13.5t14.5 34.5q0 25 -50 51l-14 7q-68 34 -68 86q0 48 44 76t97 28q72 0 103 -17l-25 -104h-8q-7 44 -27.5 72.5t-48.5 28.5q-26 0 -37 -11.5t-11 -24.5q0 -22 27 -33
l36 -14q78 -32 78 -89z" />
    <glyph glyph-name="t.superior" horiz-adv-x="247" 
d="M87 551h1l39 158h-42l7 32h47l9 36l125 70l-26 -106h79l-7 -32h-81l-51 -206q-6 -32 19 -32t58 53l10 -4q-44 -89 -114 -89q-43 0 -65.5 29.5t-7.5 90.5z" />
    <glyph glyph-name="u.superior" horiz-adv-x="370" 
d="M107 580l17 64q10 35 7.5 42t-26.5 9l2 9l153 42l-52 -195q-7 -25 -7.5 -42t2.5 -22t6 -5q6 0 11.5 8.5t13.5 30.5t14 41.5t18 59t20 64.5l17 57h101l-62 -240q-8 -32 12 -32q5 0 10.5 3t12.5 10.5t10 11t11 15.5t9 13l9 -4q-24 -49 -51 -69.5t-66 -20.5q-23 0 -41 12
t-18 36q0 20 5 41q-23 -88 -88 -88q-24 0 -39.5 12t-22 45.5t11.5 91.5zM245 519l1 3q-1 -1 -1 -3z" />
    <glyph glyph-name="v.superior" horiz-adv-x="298" 
d="M103 443l-13 254q0 15 -4.5 22t-22.5 15l2 8h180l-1 -8q-25 -5 -31.5 -12.5t-5.5 -30.5l2 -190l77 161q12 25 15.5 39t-2 22.5t-22.5 10.5l1 8h100l-1 -8q-26 -6 -33.5 -14t-21.5 -40l-112 -237h-107z" />
    <glyph glyph-name="w.superior" horiz-adv-x="467" 
d="M264 443l1 2l13 211l-62 -211h-126l-1 254q0 11 -1 16t-6.5 10.5t-17.5 9.5l3 8h182l-3 -8q-26 -6 -32 -13.5t-6 -30.5l-7 -198l72 249h115l-12 -249l77 169q11 25 14.5 38t-1 22t-19.5 11l2 8h100l-3 -8q-3 -1 -10 -3t-8.5 -2.5t-7 -2.5t-6.5 -3.5t-5 -4.5t-5.5 -6
t-5 -7.5t-6 -10t-5.5 -13.5l-106 -237h-117z" />
    <glyph glyph-name="x.superior" horiz-adv-x="296" 
d="M263 629h1l63 -147q12 -30 36 -36l-1 -9h-168l3 9q13 0 17 6.5t2 14t-9 21.5l-21 50l-43 -49q-31 -39 -18 -43q3 -1 10 -1l-1 -9h-104l2 9q39 -1 105 74l38 43l-56 134q-3 7 -6.5 13t-5.5 9t-6.5 5.5t-6 3.5t-6.5 2.5t-6 1.5l3 9h165l-2 -9q-14 -1 -18 -6.5t-2 -11.5
t10 -24l16 -39l32 36q9 10 11.5 20.5t-2 17.5t-16.5 7l3 9h115l-2 -9q-37 -1 -105 -72z" />
    <glyph glyph-name="y.superior" horiz-adv-x="323" 
d="M327 673l-1 2l-98 -229q-37 -78 -74.5 -104t-83.5 -26q-27 0 -41 7l21 91h3q27 -20 75 -20q49 0 50 14v2l-70 289q-1 3 -2 8t-1.5 7t-2 6t-4 6t-7 4.5t-10.5 4.5l2 8h164l-2 -8q-13 -6 -16 -13t1 -31l28 -134l41 105q30 65 -9 71l3 8h99l-2 -8q-26 -6 -35.5 -15
t-27.5 -45z" />
    <glyph glyph-name="z.superior" horiz-adv-x="360" 
d="M215 438h1h-170v5l235 270h-7q-52 0 -85 -23t-60 -86h-13l50 138q37 -1 117 -1h145l1 -6l-237 -269h32q53 0 86.5 23t59.5 86h12l-48 -138q-39 1 -119 1z" />
    <glyph glyph-name="zero.slashed.superior" horiz-adv-x="413" 
d="M87 609q0 105 76 176t158 71q60 0 100 -46.5t40 -126.5q0 -101 -78 -176.5t-159 -75.5q-57 0 -97 47.5t-40 130.5zM225 450q30 0 56.5 35.5t42 86t24.5 110.5l-153 -105q-4 -33 -4 -70q0 -57 34 -57zM322 837q-43 0 -76.5 -69.5t-46.5 -162.5l153 105q4 33 4 72
q0 55 -34 55z" />
    <glyph glyph-name="period.superior" horiz-adv-x="210" 
d="M154 431q-26 0 -42 17t-16 42q0 27 16 44t42 17q27 0 44 -17.5t17 -43.5q0 -25 -17 -42t-44 -17z" />
    <glyph glyph-name="hyphen.superior" horiz-adv-x="200" 
d="M87 564l12 52h138l-13 -52h-137z" />
    <glyph glyph-name="comma.superior" horiz-adv-x="212" 
d="M154 433v1q-26 1 -41 16.5t-15 40.5t16.5 42.5t42.5 17.5t42.5 -19t16.5 -48q0 -33 -17.5 -63t-44.5 -50t-50.5 -33t-45.5 -20l-4 10q1 0 11.5 6t14 8.5t14 9t15.5 10.5t13.5 11.5t13 13.5t9.5 13.5t7 16t2 16.5z" />
    <glyph glyph-name="a.inferior" horiz-adv-x="353" 
d="M34 -135q-30 0 -49.5 25.5t-19.5 71.5q0 80 50.5 149t124.5 69q22 0 42 -13l103 13l-43 -162l-16 -79q-7 -34 15 -34q4 0 8.5 1.5t8.5 5.5l7.5 7.5t7.5 9.5t6.5 9.5t6.5 10.5t6 9l9 -4q-44 -89 -127 -89q-31 0 -47.5 13.5t-16.5 32.5q0 7 1 14q-12 -31 -29.5 -45.5
t-47.5 -14.5zM91 -83h-1q17 0 53 136l25 97q-7 10 -16 10q-25 0 -47 -76.5t-22 -140.5q0 -26 8 -26z" />
    <glyph glyph-name="b.inferior" horiz-adv-x="333" 
d="M-36 -96h2l79 318q9 35 7 42t-27 9l3 9l156 42q-4 -16 -16.5 -60t-19.5 -68l-21 -77q22 61 78 61q31 0 50.5 -25.5t19.5 -71.5q0 -79 -51 -148.5t-124 -69.5q-77 0 -136 39zM100 -6l-25 -94q-1 -6 2.5 -10.5t13.5 -4.5q25 0 46.5 76t21.5 141q0 24 -10 24q-3 0 -6.5 -3.5
t-16 -36t-26.5 -92.5z" />
    <glyph glyph-name="c.inferior" horiz-adv-x="285" 
d="M-35 -27h-1q0 91 52.5 149t126.5 58q92 0 86 -108l-95 2q2 6 8 21t9 24t5 20t-2 16.5t-13 5.5q-29 0 -45 -56t-16 -109q0 -60 43 -60q52 0 79 65l12 -3q-42 -133 -158 -133q-47 0 -69 30t-22 78z" />
    <glyph glyph-name="d.inferior" horiz-adv-x="354" 
d="M171 172h-1l12 50q9 40 5 45q-4 4 -24 6l2 9l157 42q-33 -121 -35 -128l-60 -252q-9 -39 13 -39q18 0 52 53l9 -4q-43 -89 -122 -89q-34 0 -51.5 13t-17.5 33q0 7 1 14q-15 -32 -31 -46t-40 -14q-34 0 -54.5 25.5t-20.5 72.5q0 79 50 147t124 68q19 0 32 -6zM90 -83
q18 0 51 136l24 99q-6 8 -16 8q-25 0 -46 -76t-21 -140q0 -27 8 -27z" />
    <glyph glyph-name="e.inferior" horiz-adv-x="291" 
d="M-37 -27h1q0 92 54 149.5t137 57.5q38 0 63 -16t25 -46q0 -46 -38 -56l-128 -35q-2 -7 -2 -31q0 -60 48 -60q49 0 80 65l12 -3q-24 -61 -60.5 -97t-99.5 -36q-47 0 -69.5 30t-22.5 78zM134 161q-18 0 -33 -35t-22 -80l14 5q55 18 55 88q0 22 -14 22z" />
    <glyph glyph-name="f.inferior" horiz-adv-x="234" 
d="M-47 -128h-1l69 271h-42l8 32h40q18 65 70.5 96t114.5 31q29 0 38 -2l-22 -86h-6q-3 5 -8.5 15.5t-9 16.5t-8.5 13t-11 10t-13 3q-24 0 -31 -14t-5 -70v-13h75l-8 -32h-70l-68 -271h-112z" />
    <glyph glyph-name="g.inferior" horiz-adv-x="347" 
d="M-10 51v-1q0 47 48.5 88t126.5 41q17 0 37 -5h121l-8 -32l-67 4q17 -20 17 -48q0 -48 -48 -88.5t-127 -40.5q-27 0 -44 7q-1 -1 -6.5 -4t-7.5 -4.5t-5.5 -4.5t-5 -6t-1.5 -6q0 -6 24 -12l98 -17q58 -13 87.5 -29.5t29.5 -49.5q0 -46 -66 -73t-149 -27q-52 0 -92 12.5
t-40 39.5q0 43 82 56q-38 18 -38 50q0 16 13.5 32.5t27 26t34.5 22.5q-41 23 -41 69zM104 -172l-80 14q-1 0 -9 2q-39 -16 -39 -41q0 -19 29 -28t66 -9q38 0 67.5 9.5t29.5 23.5q0 5 -3 9t-12 7.5t-16.5 5t-23.5 5.5q-2 0 -3 0.5t-3 1t-3 0.5zM171 118q0 42 -22 42
q-25 0 -44.5 -39t-19.5 -92q0 -41 22 -41q24 0 44 39.5t20 90.5z" />
    <glyph glyph-name="h.inferior" horiz-adv-x="360" 
d="M146 196l-2 -1l-23 -91q24 75 85 75q90 0 49 -149l-24 -94q-7 -32 11 -32q22 0 53 53l9 -4q-24 -49 -46.5 -69t-53.5 -20q-107 0 -64 147l14 48q6 21 9 32.5t4.5 20.5t0 12t-6.5 3q-8 0 -22.5 -25t-32 -73.5t-29.5 -104.5l-12 -53h-112l88 350q9 40 6 45q-5 5 -25 7l2 9
l157 42q-33 -121 -35 -128z" />
    <glyph glyph-name="i.inferior" horiz-adv-x="202" 
d="M-26 -15h-1l24 93q9 35 7 42t-26 9l2 9l157 42q-33 -121 -35 -128l-29 -115q-8 -32 16 -32q4 0 8.5 1.5t8.5 5.5l7.5 7.5t7.5 9.5t6.5 9.5t6.5 10.5t6 9l9 -4q-44 -89 -102 -89q-105 0 -73 120zM161 255q0 -28 -20 -48.5t-48 -20.5q-29 0 -49 20.5t-20 48.5q0 29 20 49
t49 20q28 0 48 -20t20 -49z" />
    <glyph glyph-name="j.inferior" horiz-adv-x="219" 
d="M188 255q0 -28 -20 -48.5t-48 -20.5q-29 0 -48.5 20.5t-19.5 48.5q0 29 19.5 49t48.5 20q28 0 48 -20t20 -49zM-14 -76v1l39 154q9 35 7 42t-27 9l2 9l157 42q-25 -89 -35 -128l-30 -118q-8 -31 -19.5 -56t-21 -42.5t-28.5 -33.5t-29.5 -24t-37 -19t-36.5 -15t-42 -15
l-6 11q78 64 107 183z" />
    <glyph glyph-name="k.inferior" horiz-adv-x="377" 
d="M-36 -128l86 350q9 40 5 45q-4 4 -24 6l2 9l157 42q-25 -89 -35 -128l-80 -324h-111zM134 -52l1 1l-16 84l90 84l8 8q12 11 16 16t6.5 11t-3.5 8.5t-19 4.5l3 10h116l-3 -10q-47 0 -95 -47l-23 -24l34 -143q1 -3 2 -8q4 -17 6.5 -23.5t7.5 -11.5t13 -5q13 0 25 20.5
t19 47.5l9 -4q-12 -57 -37 -79.5t-65 -22.5q-79 0 -95 83z" />
    <glyph glyph-name="l.inferior" horiz-adv-x="202" 
d="M-28 -15h1l58 237q9 35 7 42t-27 9l3 9l156 42q-25 -89 -35 -128l-63 -257q-8 -34 15 -34q4 0 8.5 1.5t9 5.5t7.5 7t7.5 9.5t6 9.5t6.5 11t6 9l9 -4q-43 -88 -111 -88q-43 0 -60.5 30.5t-3.5 88.5z" />
    <glyph glyph-name="m.inferior" horiz-adv-x="526" 
d="M361 -136q-30 0 -46.5 10t-23 40t9.5 84l16 63q6 22 8.5 34.5t3 20.5t-1.5 10.5t-7 2.5q-13 0 -38 -59t-46 -145l-13 -53h-107l46 188q14 60 9 67q-2 2 -5 2q-14 0 -38.5 -59t-44.5 -145l-13 -53h-108l51 206q9 35 7 42t-28 9l3 9l158 42l-21 -78q10 32 31 55.5t54 23.5
q37 0 52 -17.5t9 -74.5q0 1 4.5 12.5t5.5 14t6 13t8 14t8.5 11.5t11 11.5t13 8t16.5 6t19 1.5q92 0 50 -150l-23 -94q-8 -32 13 -32q18 0 52 53l9 -4q-45 -90 -110 -90z" />
    <glyph glyph-name="n.inferior" horiz-adv-x="368" 
d="M152 180l-19 -68q23 68 82 68q90 0 49 -149l-25 -94q-7 -32 12 -32q18 0 52 53l9 -4q-25 -49 -47.5 -69t-52.5 -20q-33 0 -51 11.5t-25 44t12 91.5l14 48q7 25 9.5 40.5t0 21.5t-8.5 6q-3 0 -6.5 -3t-7 -9t-7 -13.5t-8 -20t-8 -23.5t-9 -28.5t-10 -31.5t-11 -35.5
t-11.5 -38.5l-16 -53h-108l50 206q9 35 7 42t-27 9l2 9z" />
    <glyph glyph-name="o.inferior" horiz-adv-x="341" 
d="M176 111q0 50 -20 50q-34 0 -58 -66.5t-24 -163.5q0 -47 20 -47q34 0 58 65t24 162zM-37 -16q0 72 56 134t148 62q53 0 86.5 -33t33.5 -91q0 -71 -56.5 -131t-149.5 -60q-53 0 -85.5 31t-32.5 88z" />
    <glyph glyph-name="p.inferior" horiz-adv-x="333" 
d="M145 180h1l-17 -61q23 62 77 62q31 0 50.5 -26t19.5 -72q0 -79 -51 -148.5t-123 -69.5q-20 0 -33 7l-31 -122h-111l82 328q9 35 7 42t-28 9l3 9zM99 -8l-25 -99q6 -8 17 -8q25 0 46.5 76t21.5 141q0 26 -10 26q-17 0 -50 -136z" />
    <glyph glyph-name="q.inferior" horiz-adv-x="343" 
d="M68 -250h-1l44 177q-23 -62 -78 -62q-30 0 -49.5 25.5t-19.5 72.5q0 80 50 148.5t124 68.5q21 0 41 -13l104 13q-4 -13 -8.5 -29.5t-12 -45.5t-13.5 -53l-69 -302h-112zM90 -82q16 0 52 136l25 96q-7 10 -18 10q-25 0 -46 -76t-21 -140q0 -26 8 -26z" />
    <glyph glyph-name="r.inferior" horiz-adv-x="261" 
d="M145 180h2l-22 -100q9 30 42 65.5t63 35.5q2 0 12 -2l-27 -104h-3q-17 11 -39 11q-12 0 -28.5 -6.5t-22.5 -14.5l-48 -193h-112l52 206q9 35 7 42t-28 9l3 9z" />
    <glyph glyph-name="s.inferior" horiz-adv-x="293" 
d="M223 -12q0 -58 -50 -90.5t-118 -32.5q-53 0 -102 21l36 143h11q-2 -69 18 -107t54 -38q26 0 40.5 13.5t14.5 34.5q0 25 -50 51l-14 7q-68 34 -68 86q0 48 44 76t97 28q72 0 103 -17l-25 -104h-8q-7 44 -27.5 72.5t-48.5 28.5q-26 0 -37 -11.5t-11 -24.5q0 -22 27 -33
l36 -14q78 -32 78 -89z" />
    <glyph glyph-name="t.inferior" horiz-adv-x="247" 
d="M-23 -15h1l39 158h-42l7 32h47l9 36l125 70l-26 -106h79l-7 -32h-81l-51 -206q-6 -32 19 -32t58 53l10 -4q-44 -89 -114 -89q-43 0 -65.5 29.5t-7.5 90.5z" />
    <glyph glyph-name="u.inferior" horiz-adv-x="370" 
d="M-3 14l17 64q10 35 7.5 42t-26.5 9l2 9l153 42l-52 -195q-7 -25 -7.5 -42t2.5 -22t6 -5q6 0 11.5 8.5t13.5 30.5t14 41.5t18 59t20 64.5l17 57h101l-62 -240q-8 -32 12 -32q5 0 10.5 3t12.5 10.5t10 11t11 15.5t9 13l9 -4q-24 -49 -51 -69.5t-66 -20.5q-23 0 -41 12
t-18 36q0 20 5 41q-23 -88 -88 -88q-24 0 -39.5 12t-22 45.5t11.5 91.5zM135 -47l1 3q-1 -1 -1 -3z" />
    <glyph glyph-name="v.inferior" horiz-adv-x="298" 
d="M-7 -123l-13 254q0 15 -4.5 22t-22.5 15l2 8h180l-1 -8q-25 -5 -31.5 -12.5t-5.5 -30.5l2 -190l77 161q12 25 15.5 39t-2 22.5t-22.5 10.5l1 8h100l-1 -8q-26 -6 -33.5 -14t-21.5 -40l-112 -237h-107z" />
    <glyph glyph-name="w.inferior" horiz-adv-x="467" 
d="M154 -123l1 2l13 211l-62 -211h-126l-1 254q0 11 -1 16t-6.5 10.5t-17.5 9.5l3 8h182l-3 -8q-26 -6 -32 -13.5t-6 -30.5l-7 -198l72 249h115l-12 -249l77 169q11 25 14.5 38t-1 22t-19.5 11l2 8h100l-3 -8q-3 -1 -10 -3t-8.5 -2.5t-7 -2.5t-6.5 -3.5t-5 -4.5t-5.5 -6
t-5 -7.5t-6 -10t-5.5 -13.5l-106 -237h-117z" />
    <glyph glyph-name="x.inferior" horiz-adv-x="296" 
d="M153 63h1l63 -147q12 -30 36 -36l-1 -9h-168l3 9q13 0 17 6.5t2 14t-9 21.5l-21 50l-43 -49q-31 -39 -18 -43q3 -1 10 -1l-1 -9h-104l2 9q39 -1 105 74l38 43l-56 134q-3 7 -6.5 13t-5.5 9t-6.5 5.5t-6 3.5t-6.5 2.5t-6 1.5l3 9h165l-2 -9q-14 -1 -18 -6.5t-2 -11.5
t10 -24l16 -39l32 36q9 10 11.5 20.5t-2 17.5t-16.5 7l3 9h115l-2 -9q-37 -1 -105 -72z" />
    <glyph glyph-name="y.inferior" horiz-adv-x="323" 
d="M217 107l-1 2l-98 -229q-37 -78 -74.5 -104t-83.5 -26q-27 0 -41 7l21 91h3q27 -20 75 -20q49 0 50 14v2l-70 289q-1 3 -2 8t-1.5 7t-2 6t-4 6t-7 4.5t-10.5 4.5l2 8h164l-2 -8q-13 -6 -16 -13t1 -31l28 -134l41 105q30 65 -9 71l3 8h99l-2 -8q-26 -6 -35.5 -15
t-27.5 -45z" />
    <glyph glyph-name="z.inferior" horiz-adv-x="360" 
d="M105 -128h1h-170v5l235 270h-7q-52 0 -85 -23t-60 -86h-13l50 138q37 -1 117 -1h145l1 -6l-237 -269h32q53 0 86.5 23t59.5 86h12l-48 -138q-39 1 -119 1z" />
    <glyph glyph-name="zero.slashed.inferior" horiz-adv-x="413" 
d="M-23 43q0 105 76 176t158 71q60 0 100 -46.5t40 -126.5q0 -101 -78 -176.5t-159 -75.5q-57 0 -97 47.5t-40 130.5zM115 -116q30 0 56.5 35.5t42 86t24.5 110.5l-153 -105q-4 -33 -4 -70q0 -57 34 -57zM212 271q-43 0 -76.5 -69.5t-46.5 -162.5l153 105q4 33 4 72
q0 55 -34 55z" />
    <glyph glyph-name="period.inferior" horiz-adv-x="210" 
d="M44 -135q-26 0 -42 17t-16 42q0 27 16 44t42 17q27 0 44 -17.5t17 -43.5q0 -25 -17 -42t-44 -17z" />
    <glyph glyph-name="hyphen.inferior" horiz-adv-x="200" 
d="M-23 -2l12 52h138l-13 -52h-137z" />
    <glyph glyph-name="comma.inferior" horiz-adv-x="212" 
d="M44 -133v1q-26 1 -41 16.5t-15 40.5t16.5 42.5t42.5 17.5t42.5 -19t16.5 -48q0 -33 -17.5 -63t-44.5 -50t-50.5 -33t-45.5 -20l-4 10q1 0 11.5 6t14 8.5t14 9t15.5 10.5t13.5 11.5t13 13.5t9.5 13.5t7 16t2 16.5z" />
    <glyph glyph-name="equal.inferior" horiz-adv-x="382" 
d="M284 66h-278v42h278v-42zM284 -50h-278v42h278v-42z" />
    <glyph glyph-name="plus.inferior" horiz-adv-x="382" 
d="M168 -128h-46v133h-133v43h133v127h46v-127h132v-43h-132v-133z" />
    <glyph glyph-name="minus.inferior" horiz-adv-x="382" 
d="M-5 48h300v-43h-300v43z" />
    <glyph glyph-name="one.numerator" horiz-adv-x="289" 
d="M305 735l-86 -347q-8 -42 -5.5 -50.5t16.5 -11.5l-2 -9h-185l2 8q30 2 42 16t24 59l67 270h-71l2 10q131 20 185 55h11z" />
    <glyph glyph-name="two.numerator" horiz-adv-x="343" 
d="M-16 317v-1l1 6q24 21 80 64.5t92 73.5t67 75t31 87q0 27 -15.5 43.5t-42.5 16.5q-69 0 -94 -63h-19q45 117 170 117q54 0 85 -24t31 -63q0 -46 -48 -95.5t-99 -73.5q13 11 -15 -7q-7 -5 -88 -60h188l-23 -96h-301z" />
    <glyph glyph-name="three.numerator" horiz-adv-x="326" 
d="M101 312q-62 0 -104 15l26 106h10q2 -56 20 -76t54 -20q39 0 69 31.5t30 75.5q0 25 -19.5 49t-61.5 31l3 12l13 6q39 14 62 38.5t26.5 37.5t3.5 23q0 19 -13.5 29.5t-32.5 11.5q-73 0 -98 -63h-19q21 57 68 86.5t111 29.5q42 0 71 -17t29 -49q0 -36 -38 -60t-70 -31
l-1 -2q85 -33 85 -105q0 -75 -69 -117t-155 -42z" />
    <glyph glyph-name="four.numerator" horiz-adv-x="413" 
d="M312 317h-112l24 97h-203l25 99l266 212h103l-56 -222h71l-22 -89h-72zM246 503l43 171l-212 -171h169z" />
    <glyph glyph-name="five.numerator" horiz-adv-x="314" 
d="M55 512l130 213h187l-50 -96h-171l-14 -23q81 -7 127 -40t46 -91q0 -61 -64 -112t-142 -51q-51 0 -98 15l26 106h10q5 -51 23 -73.5t51 -22.5q35 0 58.5 26t23.5 60q0 49 -39 71t-104 18z" />
    <glyph glyph-name="six.numerator" horiz-adv-x="383" 
d="M394 507l1 -1q0 -77 -57.5 -137t-127.5 -60q-66 0 -108 40t-42 106q0 59 29.5 112t79 90t104 63t113.5 41l3 -21q-56 -16 -99 -54t-66.5 -86t-35 -95.5t-11.5 -91.5q0 -22 0.5 -31t3 -23.5t9.5 -20.5t18 -6q24 0 44.5 46.5t20.5 104.5v10.5v13.5t-0.5 14t-2.5 14.5
t-5 11.5t-8.5 9t-12.5 3t-13 -3.5t-18.5 -15.5t-16.5 -15l5 21q44 63 99 63q42 0 68 -25.5t26 -76.5z" />
    <glyph glyph-name="seven.numerator" horiz-adv-x="390" 
d="M218 317h-1h-120q12 113 101 197t215 115h-310l22 96h331l-22 -97q-102 -40 -160 -122.5t-56 -188.5z" />
    <glyph glyph-name="eight.numerator" horiz-adv-x="368" 
d="M42 404v1q0 77 124 117q-60 58 -60 109q0 41 45 73.5t120 32.5q57 0 92 -22.5t35 -60.5q0 -34 -32.5 -58.5t-70.5 -34.5l-9 11q53 37 53 76q0 66 -69 66q-70 0 -70 -44q0 -35 40 -68l43 -36q34 -29 50 -43.5t34 -41t18 -49.5q0 -43 -33.5 -72t-77 -39.5t-91.5 -10.5
q-58 0 -99.5 27t-41.5 67zM178 512v-1l1 -1q-76 -42 -76 -111q0 -29 22 -48t64 -19q95 0 95 59q0 14 -10.5 31t-18 23.5t-27.5 25.5l-40 33z" />
    <glyph glyph-name="nine.numerator" horiz-adv-x="356" 
d="M67 539l-1 -2q0 79 57.5 139t127.5 60q67 0 108.5 -40t41.5 -107q0 -59 -29.5 -110.5t-78.5 -87.5t-103.5 -61t-113.5 -40l-4 20q133 36 188 190q-44 -63 -99 -63q-42 0 -68 26t-26 76zM266 519l-5 -18q23 65 23 130q0 22 -0.5 31t-3 23.5t-9.5 20.5t-18 6
q-24 0 -44.5 -46.5t-20.5 -104.5v-10.5v-13.5t0.5 -13.5t3 -14.5l5.5 -11t8.5 -8.5t12.5 -2.5t13.5 4t17.5 13.5t17 14.5z" />
    <glyph glyph-name="zero.numerator" horiz-adv-x="413" 
d="M199 329q39 0 70.5 58t46 132.5t14.5 141.5q0 55 -34 55q-38 0 -69.5 -57t-46.5 -131.5t-15 -141.5q0 -57 34 -57zM61 488q0 105 76 176t158 71q60 0 100 -46.5t40 -126.5q0 -101 -78 -176.5t-159 -75.5q-57 0 -97 47.5t-40 130.5z" />
    <glyph glyph-name="zero.slashed.numerator" horiz-adv-x="413" 
d="M61 488q0 105 76 176t158 71q60 0 100 -46.5t40 -126.5q0 -101 -78 -176.5t-159 -75.5q-57 0 -97 47.5t-40 130.5zM296 716h-1q-46 0 -80 -77.5t-45 -176.5l153 106q7 58 7 93q0 55 -34 55zM198 329v1q42 0 73 61t46 149l-151 -103q-2 -38 -2 -51q0 -57 34 -57z" />
    <glyph glyph-name="one.denominator" horiz-adv-x="289" 
d="M267 418l-86 -347q-8 -42 -5.5 -50.5t16.5 -11.5l-2 -9h-185l2 8q30 2 42 16t24 59l67 270h-71l2 10q131 20 185 55h11z" />
    <glyph glyph-name="two.denominator" horiz-adv-x="343" 
d="M-54 0v-2l1 6q24 21 80 64.5t92 73.5t67 75t31 87q0 27 -15.5 43.5t-42.5 16.5q-69 0 -94 -63h-19q45 117 170 117q54 0 85 -24t31 -63q0 -46 -48 -95.5t-99 -73.5q11 11 -11 -3q-15 -10 -57 -39q-28 -19 -35 -24h188l-23 -96h-301z" />
    <glyph glyph-name="three.denominator" horiz-adv-x="326" 
d="M63 -5q-62 0 -104 15l26 106h10q2 -56 20 -76t54 -20q39 0 69 31.5t30 75.5q0 25 -19.5 49t-61.5 31l3 12l13 6q39 14 62 38.5t26.5 37.5t3.5 23q0 19 -13.5 29.5t-32.5 11.5q-73 0 -98 -63h-19q21 57 68 86.5t111 29.5q42 0 71 -17t29 -49q0 -36 -38 -60t-70 -31l-1 -2
q85 -33 85 -105q0 -75 -69 -117t-155 -42z" />
    <glyph glyph-name="four.denominator" horiz-adv-x="413" 
d="M274 0h-112l24 97h-203l25 99l266 212h103l-56 -222h71l-22 -89h-72zM208 186l43 171l-212 -171h169z" />
    <glyph glyph-name="five.denominator" horiz-adv-x="314" 
d="M17 195l130 213h187l-50 -96h-171l-14 -23q81 -7 127 -40t46 -91q0 -61 -64 -112t-142 -51q-51 0 -98 15l26 106h10q5 -51 23 -73.5t51 -22.5q35 0 58.5 26t23.5 60q0 49 -39 71t-104 18z" />
    <glyph glyph-name="six.denominator" horiz-adv-x="383" 
d="M356 190l1 -1q0 -77 -57.5 -137t-127.5 -60q-66 0 -108 40t-42 106q0 59 29.5 112t79 90t104 63t113.5 41l3 -21q-56 -16 -99 -54t-66.5 -86t-35 -95.5t-11.5 -91.5q0 -22 0.5 -31t3 -23.5t9.5 -20.5t18 -6q24 0 44.5 46.5t20.5 104.5v10.5v13.5t-0.5 14t-2.5 14.5
t-5 11.5t-8.5 9t-12.5 3t-13 -3.5t-18.5 -15.5t-16.5 -15l5 21q44 63 99 63q42 0 68 -25.5t26 -76.5z" />
    <glyph glyph-name="seven.denominator" horiz-adv-x="390" 
d="M180 0h-1h-120q12 113 101 197t215 115h-310l22 96h331l-22 -97q-102 -40 -160 -122.5t-56 -188.5z" />
    <glyph glyph-name="eight.denominator" horiz-adv-x="368" 
d="M4 87v1q0 77 124 117q-60 58 -60 109q0 41 45 73.5t120 32.5q57 0 92 -22.5t35 -60.5q0 -34 -32.5 -58.5t-70.5 -34.5l-9 11q53 37 53 76q0 66 -69 66q-70 0 -70 -44q0 -35 40 -68l43 -36q34 -29 50 -43.5t34 -41t18 -49.5q0 -43 -33.5 -72t-77 -39.5t-91.5 -10.5
q-58 0 -99.5 27t-41.5 67zM140 195v-1l1 -1q-76 -42 -76 -111q0 -29 22 -48t64 -19q95 0 95 59q0 14 -10.5 31t-18 23.5t-27.5 25.5l-40 33z" />
    <glyph glyph-name="nine.denominator" horiz-adv-x="356" 
d="M29 222l-1 -2q0 79 57.5 139t127.5 60q67 0 108.5 -40t41.5 -107q0 -59 -29.5 -110.5t-78.5 -87.5t-103.5 -61t-113.5 -40l-4 20q133 36 188 190q-44 -63 -99 -63q-42 0 -68 26t-26 76zM228 202l-5 -18q23 65 23 130q0 22 -0.5 31t-3 23.5t-9.5 20.5t-18 6
q-24 0 -44.5 -46.5t-20.5 -104.5v-10.5v-13.5t0.5 -13.5t3 -14.5l5.5 -11t8.5 -8.5t12.5 -2.5t13.5 4t17.5 13.5t17 14.5z" />
    <glyph glyph-name="zero.denominator" horiz-adv-x="413" 
d="M161 12q39 0 70.5 58t46 132.5t14.5 141.5q0 55 -34 55q-38 0 -69.5 -57t-46.5 -131.5t-15 -141.5q0 -57 34 -57zM23 171q0 105 76 176t158 71q60 0 100 -46.5t40 -126.5q0 -101 -78 -176.5t-159 -75.5q-57 0 -97 47.5t-40 130.5z" />
    <glyph glyph-name="zero.slashed.denominator" horiz-adv-x="413" 
d="M23 171q0 105 76 176t158 71q60 0 100 -46.5t40 -126.5q0 -101 -78 -176.5t-159 -75.5q-57 0 -97 47.5t-40 130.5zM258 399h-1q-46 0 -80 -77.5t-45 -176.5l153 106q7 58 7 93q0 55 -34 55zM160 12v1q42 0 73 61t46 149l-151 -103q-2 -38 -2 -51q0 -57 34 -57z" />
    <glyph glyph-name="ampersand.case" horiz-adv-x="808" 
d="M28 182h1q0 103 79.5 164.5t201.5 81.5q-41 68 -41 124q0 68 41.5 113.5t98 63t121.5 17.5q87 0 141.5 -33t54.5 -80q0 -38 -23 -70.5t-61.5 -54.5t-73 -35.5t-72.5 -23.5l6 -6l134 -171q47 83 47 198v14h124q-6 -24 -13 -45t-20 -42.5t-20 -34t-26 -34.5t-23 -26.5
t-28 -29.5l-24 -24l121 -154l-145 -115l-98 135q-75 -69 -134 -98t-140 -29q-97 0 -163 55t-66 140zM327 400l-1 1q-55 -22 -80 -68t-25 -100q0 -62 42.5 -108.5t99.5 -46.5q81 0 150 63l-179 250q-1 1 -7 9zM613 631v1q0 41 -27.5 64t-62.5 23q-48 0 -73.5 -29t-25.5 -70
q0 -66 59 -153l-2 9q64 31 98 65.5t34 89.5z" />
    <glyph glyph-name="hyphen.case" horiz-adv-x="345" 
d="M33 328l23 91h258l-23 -91h-258z" />
    <glyph glyph-name="endash.case" horiz-adv-x="516" 
d="M462 334h-428l19 77h428z" />
    <glyph glyph-name="emdash.case" horiz-adv-x="742" 
d="M688 334h-654l19 77h654z" />
    <glyph glyph-name="question.case" horiz-adv-x="649" 
d="M688 617v-1q0 -60 -38 -104t-94.5 -70.5t-114.5 -50t-104.5 -58.5t-57.5 -81l-3 -11h-30l4 16q15 59 40.5 105t52 71t54.5 48t49.5 39.5t35.5 42.5t14 59q0 81 -96 81q-78 0 -153.5 -71.5t-126.5 -171.5h-21l79 243q110 39 249 39q122 0 191.5 -31t69.5 -94zM240 -14
q-39 0 -65.5 27t-26.5 66t26.5 66.5t65.5 27.5q41 0 68 -27t27 -67q0 -39 -26.5 -66t-68.5 -27z" />
    <glyph glyph-name="questiondown.case" horiz-adv-x="656" 
d="M12 112q0 60 38 104t94 70.5t113.5 50.5t104.5 59t59 80l3 11h30l-4 -16q-18 -70 -50 -120.5t-64.5 -77t-63 -49t-49.5 -50.5t-19 -67q0 -81 96 -81q78 0 153.5 71.5t126.5 171.5h21l-79 -243q-110 -39 -249 -39q-122 0 -191.5 31t-69.5 94zM457 555q-39 0 -65.5 27
t-26.5 66t26.5 66.5t65.5 27.5q41 0 68 -27t27 -67t-27 -66.5t-68 -26.5z" />
    <glyph glyph-name="exclam.case" horiz-adv-x="394" 
d="M129 473l1 1l60 223q9 34 81 44q72 9 109 -14q19 -12 14 -31l-60 -224l-150 -230h-20zM145 -12q-39 0 -65.5 27t-26.5 66t26.5 66.5t65.5 27.5q41 0 68 -27t27 -67q0 -39 -27 -66t-68 -27z" />
    <glyph glyph-name="exclamdown.case" horiz-adv-x="394" 
d="M309 257v-1l-60 -223q-8 -30 -62 -42t-102.5 0.5t-40.5 42.5l60 224l150 230h20zM291 555q-39 0 -65.5 27t-26.5 66t26.5 66.5t65.5 27.5q41 0 68 -27t27 -67t-27 -66.5t-68 -26.5z" />
    <glyph glyph-name="guilsinglleft.case" horiz-adv-x="361" 
d="M201 136l-170 235l283 234h53l-173 -234l52 -235h-45z" />
    <glyph glyph-name="guilsinglright.case" horiz-adv-x="362" 
d="M161 605l170 -235l-282 -234h-54l174 234l-53 235h45z" />
    <glyph glyph-name="guillemotleft.case" horiz-adv-x="588" 
d="M429 136l-170 235l283 234h53l-173 -234l52 -235h-45zM203 136l-170 235l283 234h53l-173 -234l52 -235h-45z" />
    <glyph glyph-name="guillemotright.case" horiz-adv-x="589" 
d="M387 605l170 -235l-282 -234h-54l174 234l-53 235h45zM161 605l170 -235l-282 -234h-54l174 234l-53 235h45z" />
    <glyph glyph-name="parenleft.case" horiz-adv-x="371" 
d="M417 803l13 -18q-117 -111 -190.5 -307t-73.5 -345q0 -162 39 -237l-17 -15q-153 151 -153 349q0 90 29 172.5t83 153.5t119.5 130t150.5 117z" />
    <glyph glyph-name="parenright.case" horiz-adv-x="362" 
d="M-48 -119v1l-13 17q117 114 190.5 308t73.5 343q0 162 -39 237l17 16q153 -151 153 -351q0 -173 -101.5 -312t-280.5 -259z" />
    <glyph glyph-name="bracketleft.case" horiz-adv-x="332" 
d="M2 -41l201 808h233l-10 -42h-85l-181 -725h85l-9 -41h-234z" />
    <glyph glyph-name="bracketright.case" horiz-adv-x="341" 
d="M387 767l-207 -808h-234l10 41h85l187 725h-85l10 42h234z" />
    <glyph glyph-name="braceleft.case" horiz-adv-x="400" 
d="M262 -30h-43q-95 0 -138.5 20.5t-43.5 77.5q0 26 9 62l27 106q8 32 8 55q0 57 -59 57l7 27q81 0 108 112l37 146q18 73 67.5 98t173.5 25h43l-7 -31h-15q-45 0 -67.5 -21.5t-32.5 -62.5l-34 -136q-17 -67 -60 -99t-110 -43v-3q52 -12 78.5 -32.5t26.5 -63.5q0 -20 -6 -45
l-34 -136q-5 -22 -5 -33q0 -50 64 -50h13z" />
    <glyph glyph-name="braceright.case" horiz-adv-x="408" 
d="M154 756v1h43q96 0 138 -20t42 -77q0 -26 -9 -64l-26 -107q-8 -32 -8 -56q0 -57 59 -57l-6 -26q-81 0 -108 -112l-36 -144q-18 -73 -67.5 -98t-173.5 -25h-44l7 30h15q45 0 67.5 21.5t32.5 62.5l34 135q17 67 59.5 99t109.5 43v2q-50 10 -77 31.5t-27 64.5q0 20 6 45
l34 137q5 22 5 33q0 50 -64 50h-14z" />
    <glyph glyph-name="bar.case" horiz-adv-x="239" 
d="M157 0h-75v725h75v-725z" />
    <glyph glyph-name="brokenbar.case" horiz-adv-x="239" 
d="M82 725h75v-260h-75v260zM82 260h75v-260h-75v260z" />
    <glyph glyph-name="periodcentered.case" horiz-adv-x="342" 
d="M169 285q-39 0 -65.5 27t-26.5 66t26.5 66.5t65.5 27.5q41 0 68 -27t27 -67t-27 -66.5t-68 -26.5z" />
    <glyph glyph-name="bullet.case" horiz-adv-x="453" 
d="M223 195q-74 0 -126.5 54t-52.5 132q0 75 52.5 127.5t126.5 52.5q79 0 133 -52.5t54 -127.5q0 -78 -54 -132t-133 -54z" />
    </font>
</defs>
</svg>
