<?xml version="1.0" standalone="no"?>
<!DOCTYPE svg PUBLIC "-//W3C//DTD SVG 1.1//EN" "http://www.w3.org/Graphics/SVG/1.1/DTD/svg11.dtd" >
<svg xmlns="http://www.w3.org/2000/svg" xmlns:xlink="http://www.w3.org/1999/xlink" version="1.1">
<metadata>
Created by FontForge 20170731 at Sun Jul 24 19:26:06 2016
 By Aleksey,,,
Copyright (c) 2014 Swiss Typefaces. All rights reserved.
</metadata>
<defs>
<font id="SuisseWorks-Book" horiz-adv-x="678" >
  <font-face 
    font-family="Suisse Works"
    font-weight="400"
    font-stretch="normal"
    units-per-em="1000"
    panose-1="2 2 5 4 6 0 0 0 0 0"
    ascent="800"
    descent="-200"
    x-height="538"
    cap-height="725"
    bbox="-155 -311 1405 974"
    underline-thickness="60"
    underline-position="-230"
    unicode-range="U+0020-FB02"
  />
<missing-glyph horiz-adv-x="500" 
d="M0 0v725h500v-725h-500zM239 362l-220 334v-667zM260 362l221 -333v667zM250 346l-217 -327h433zM33 706l217 -328l216 328h-433z" />
    <glyph glyph-name=".notdef" horiz-adv-x="500" 
d="M0 0v725h500v-725h-500zM239 362l-220 334v-667zM260 362l221 -333v667zM250 346l-217 -327h433zM33 706l217 -328l216 328h-433z" />
    <glyph glyph-name=".null" horiz-adv-x="0" 
 />
    <glyph glyph-name="nonmarkingreturn" horiz-adv-x="258" 
 />
    <glyph glyph-name="space" unicode=" " horiz-adv-x="258" 
 />
    <glyph glyph-name="exclam" unicode="!" horiz-adv-x="373" 
d="M126 503v222q0 17 30 24.5t59.5 0t29.5 -24.5v-223l-49 -290h-20zM112 61q0 30 22 52t52 22q31 0 52.5 -22t21.5 -52t-21.5 -52t-52.5 -22q-30 0 -52 22t-22 52z" />
    <glyph glyph-name="quotedbl" unicode="&#x22;" horiz-adv-x="374" 
d="M215 725h117l-37 -256h-43zM44 725h117l-37 -256h-43z" />
    <glyph glyph-name="numbersign" unicode="#" horiz-adv-x="710" 
d="M83 528h142l28 197h68l-28 -197h170l28 197h68l-28 -197h137l-9 -65h-137l-24 -171h137l-10 -65h-136l-32 -227h-69l32 227h-169l-31 -227h-69l32 227h-141l9 65h141l24 171h-141zM284 463l-24 -171h169l25 171h-170z" />
    <glyph glyph-name="dollar" unicode="$" horiz-adv-x="637" 
d="M283 -102h1v91q-96 9 -169 63t-81 143h112q0 -64 37.5 -110.5t100.5 -58.5v304l-26 7q-85 24 -144 76.5t-59 135.5q0 87 65 137.5t164 54.5v104h47v-104q94 -6 161 -60.5t76 -146.5h-112q-1 69 -33 115t-93 55v-275l32 -9q49 -14 85.5 -29.5t72 -40.5t54.5 -62.5
t19 -85.5q0 -101 -74.5 -157t-188.5 -58v-89h-47zM340 315v-1l-9 2v-294q82 2 126.5 38.5t44.5 106.5q0 62 -41.5 95t-120.5 53zM143 578v-1q0 -98 141 -136v263q-73 -4 -107 -39t-34 -87z" />
    <glyph glyph-name="percent" unicode="%" horiz-adv-x="1043" 
d="M769 206q0 -193 79 -193t79 193q0 192 -79 192t-79 -192zM681 206q0 87 48 149.5t119 62.5q72 0 119.5 -62.5t47.5 -149.5q0 -86 -47.5 -149.5t-119.5 -63.5q-71 0 -119 63.5t-48 149.5zM302 0h-67l508 725h66zM116 523q0 -193 79 -193t79 193q0 192 -79 192t-79 -192z
M28 523q0 87 48 149.5t119 62.5q72 0 119.5 -62.5t47.5 -149.5q0 -86 -47.5 -149.5t-119.5 -63.5q-71 0 -119 63.5t-48 149.5z" />
    <glyph glyph-name="ampersand" unicode="&#x26;" horiz-adv-x="724" 
d="M294 -13h1q-110 0 -183 65.5t-73 158.5q0 41 16.5 75.5t47.5 59t62 41.5t73 33q-76 94 -76 167q0 72 52 113.5t135 41.5q71 0 119 -35t48 -98q0 -53 -47 -98t-113 -72l194 -222q42 99 31 231h78q-5 -138 -81 -264l114 -130l-77 -65l-96 108q-51 -58 -102.5 -84
t-122.5 -26zM254 401q-46 -21 -72 -68.5t-26 -100.5q0 -84 45 -140t123 -56q100 0 170 91l-239 273q-1 0 -1 1zM449 608q0 49 -27.5 74t-74.5 25q-45 0 -67.5 -24.5t-22.5 -62.5q0 -41 20 -77t62 -85q110 52 110 150z" />
    <glyph glyph-name="quotesingle" unicode="'" horiz-adv-x="204" 
d="M44 725h117l-37 -256h-43z" />
    <glyph glyph-name="parenleft" unicode="(" horiz-adv-x="311" 
d="M162 276h-1q0 -386 127 -509l-14 -17q-107 84 -163 223t-56 302q0 164 56 302.5t164 225.5l14 -18q-127 -123 -127 -509z" />
    <glyph glyph-name="parenright" unicode=")" horiz-adv-x="311" 
d="M151 276h-1q0 385 -128 509l14 18q108 -87 164 -225.5t56 -302.5q0 -163 -56 -302t-163 -223l-14 17q128 124 128 509z" />
    <glyph glyph-name="asterisk" unicode="*" horiz-adv-x="378" 
d="M216 726v-120l120 40l19 -52l-120 -39l73 -102l-44 -33l-75 103l-73 -102l-46 32l72 101l-117 40l16 53l119 -41v120h56z" />
    <glyph glyph-name="plus" unicode="+" 
d="M375 0h-72v241h-241v68h241v229h72v-229h241v-68h-241v-241z" />
    <glyph glyph-name="comma" unicode="," horiz-adv-x="354" 
d="M103 60q0 31 21.5 53t53.5 22q33 0 53.5 -23.5t20.5 -60.5q0 -67 -55 -141.5t-123 -107.5l-7 12q41 32 75 80t34 93q-31 1 -52 21t-21 52z" />
    <glyph glyph-name="hyphen" unicode="-" horiz-adv-x="386" 
d="M54 232v89h279v-89h-279z" />
    <glyph glyph-name="period" unicode="." horiz-adv-x="356" 
d="M104 61q0 30 22 52t52 22q31 0 52.5 -22t21.5 -52t-21.5 -52t-52.5 -22q-30 0 -52 22t-22 52z" />
    <glyph glyph-name="slash" unicode="/" horiz-adv-x="398" 
d="M52 -32h-52l343 808h55z" />
    <glyph glyph-name="zero" unicode="0" horiz-adv-x="662" 
d="M168 366q0 -64 8.5 -121.5t26.5 -109t51 -82t77 -30.5t77 30.5t50.5 82t26 109t8.5 121.5t-8.5 121t-26 108t-50.5 81t-77 30t-77 -30t-51 -81t-26.5 -108t-8.5 -121zM50 366q0 94 30.5 178t96.5 141t154 57t154 -57t96.5 -141t30.5 -178q0 -95 -30.5 -179.5t-96.5 -142
t-154 -57.5t-154 57.5t-96.5 142t-30.5 179.5z" />
    <glyph glyph-name="one" unicode="1" horiz-adv-x="457" 
d="M301 741v-596q0 -81 13 -100t78 -27v-18h-307v20q44 4 64 8.5t32 20t13.5 33.5t1.5 63v471h-141v24q90 8 141.5 33t82.5 68h22z" />
    <glyph glyph-name="two" unicode="2" horiz-adv-x="521" 
d="M455 563l-2 -1q0 -75 -46.5 -146t-136.5 -163q-26 -26 -76 -79.5t-70 -74.5h343v-100h-472v16q196 198 271 307.5t75 195.5q0 73 -36 109t-102 36q-61 0 -104 -34t-56 -92h-29q17 98 79 151.5t157 53.5q86 0 145.5 -46.5t59.5 -132.5z" />
    <glyph glyph-name="three" unicode="3" horiz-adv-x="538" 
d="M218 -13h-1q-119 0 -183 29v153h20q19 -62 66 -102t110 -40q67 0 107.5 38.5t40.5 102.5q0 19 -4.5 39t-17.5 45.5t-34 46.5t-58 38.5t-85 24.5v22l23 10q70 30 106 77t36 86q0 50 -32 78.5t-95 28.5q-58 0 -102 -35t-56 -92h-29q17 98 79 151.5t157 53.5
q81 0 133.5 -36.5t52.5 -100.5q0 -52 -45.5 -101t-101.5 -77v-3q182 -64 182 -215q0 -67 -40.5 -119t-101 -77.5t-127.5 -25.5z" />
    <glyph glyph-name="four" unicode="4" horiz-adv-x="600" 
d="M440 0h-106v196h-330v23l349 506h87v-441h129v-88h-129v-196zM334 284v336l-231 -336h231z" />
    <glyph glyph-name="five" unicode="5" horiz-adv-x="533" 
d="M58 407l112 318h318l-33 -100h-277l-45 -125q171 -25 255 -95.5t84 -169.5q0 -112 -80.5 -180t-188.5 -68q-50 0 -100.5 10.5t-77.5 25.5v157h20q17 -75 64.5 -114t109.5 -39q63 0 106 43t43 112q0 38 -13 69.5t-45 63t-96 55.5t-156 37z" />
    <glyph glyph-name="six" unicode="6" horiz-adv-x="607" 
d="M314 -13v-1q-126 0 -195 83.5t-69 221.5q0 169 124 294.5t319 164.5l6 -25q-147 -39 -225 -118t-99 -202q65 78 164 78q94 0 156 -61t62 -169t-71.5 -187t-171.5 -79zM301 421q-78 0 -130 -46q-3 -35 -3 -71q0 -120 37 -201t110 -81q64 0 95 50.5t31 137.5q0 38 -7 73.5
t-22.5 67.5t-44 51t-66.5 19z" />
    <glyph glyph-name="seven" unicode="7" horiz-adv-x="529" 
d="M26 625h1v100h492v-100q-62 -62 -103.5 -107.5t-86 -108t-70 -120t-40.5 -132.5t-13 -157h-118q1 65 15 126t34 109.5t54.5 98.5t64 85.5t74.5 77t75 66.5t77 62h-456z" />
    <glyph glyph-name="eight" unicode="8" horiz-adv-x="625" 
d="M303 -13q-105 0 -179 49.5t-74 143.5q0 63 48 112.5t121 75.5q-137 77 -137 191q0 82 67.5 131.5t166.5 49.5q94 0 159.5 -42.5t65.5 -115.5q0 -105 -160 -170l15 -7q84 -40 131.5 -87.5t47.5 -118.5q0 -100 -79 -156t-193 -56zM144 184q0 -71 41.5 -116t117.5 -45
q79 0 126 36.5t47 94.5q0 51 -33 86t-108 70l-81 40l-7 3q-103 -50 -103 -169zM452 578q0 64 -37.5 95.5t-101.5 31.5t-102.5 -32t-38.5 -79q0 -46 35 -79.5t101 -65.5l48 -24q96 59 96 153z" />
    <glyph glyph-name="nine" unicode="9" horiz-adv-x="599" 
d="M283 742q126 0 195 -83.5t69 -221.5q0 -170 -123.5 -295t-319.5 -164l-6 25q148 39 225 118t98 203q-62 -79 -163 -79q-94 0 -156 64t-62 172t71 184.5t172 76.5zM296 307q80 0 129 46q4 31 4 71q0 120 -37 201t-110 81q-63 0 -94.5 -51t-31.5 -137q0 -38 7 -73.5
t22.5 -67.5t44 -51t66.5 -19z" />
    <glyph glyph-name="colon" unicode=":" horiz-adv-x="357" 
d="M104 471q0 30 22 52t52 22q31 0 52.5 -22t21.5 -52t-21.5 -52t-52.5 -22q-30 0 -52 22t-22 52zM104 61q0 30 22 52t52 22q31 0 52.5 -22t21.5 -52t-21.5 -52t-52.5 -22q-30 0 -52 22t-22 52z" />
    <glyph glyph-name="semicolon" unicode=";" horiz-adv-x="354" 
d="M103 60q0 31 21.5 53t53.5 22q33 0 53.5 -23.5t20.5 -60.5q0 -67 -55 -141.5t-123 -107.5l-7 12q41 32 75 80t34 93q-31 1 -52 21t-21 52zM104 471q0 30 22 52t52 22q31 0 52.5 -22t21.5 -52t-21.5 -52t-52.5 -22q-30 0 -52 22t-22 52z" />
    <glyph glyph-name="less" unicode="&#x3c;" 
d="M67 307l521 237v-79l-435 -191l435 -189v-78l-521 234v66z" />
    <glyph glyph-name="equal" unicode="=" 
d="M582 348h-485v68h485v-68zM582 141h-485v69h485v-69z" />
    <glyph glyph-name="greater" unicode="&#x3e;" 
d="M612 307v-66l-521 -234v78l436 189l-436 191v79z" />
    <glyph glyph-name="question" unicode="?" horiz-adv-x="566" 
d="M260 717v-1q-124 0 -158 -168h-20v173q29 13 83 22t95 9q113 0 174 -38.5t61 -105.5q0 -38 -13.5 -71t-35 -58.5t-48 -49t-52.5 -46.5t-47.5 -47.5t-35 -57t-13.5 -68.5v-12h-29v9q0 57 15.5 105.5t37.5 83t44.5 66t38 68t15.5 76.5q0 111 -112 111zM166 60q0 30 22 52
t52 22q31 0 52.5 -22t21.5 -52t-21.5 -52t-52.5 -22q-30 0 -52 22t-22 52z" />
    <glyph glyph-name="at" unicode="@" horiz-adv-x="846" 
d="M630 159q-45 0 -73.5 29.5t-30.5 75.5q-52 -100 -161 -100q-64 0 -105 44.5t-41 131.5q0 96 58.5 167t151.5 71q46 0 76.5 -25.5t42.5 -66.5l10 73h55l-32 -228q-7 -41 5.5 -78t50.5 -37q47 0 78.5 52.5t31.5 142.5q0 129 -83 199.5t-218 70.5q-148 0 -240.5 -93.5
t-92.5 -235.5q0 -136 81 -220.5t217 -84.5q108 0 199 44l21 -58q-101 -46 -221 -46q-161 0 -261 103t-100 264q0 163 113.5 273t285.5 110q159 0 259.5 -84t100.5 -239q0 -117 -53.5 -186t-124.5 -69zM430 518q-62 0 -103 -53t-41 -127q0 -116 96 -116q63 0 102.5 54
t39.5 130q0 54 -24.5 83t-69.5 29z" />
    <glyph glyph-name="A" unicode="A" horiz-adv-x="781" 
d="M5 0h-2v18q49 4 71 31.5t64 138.5l215 542q32 5 56 35h4l257 -646q23 -61 41.5 -80t64.5 -21v-18h-293v18q54 6 68.5 23t-0.5 55l-55 140h-291l-5 -14q-22 -57 -32.5 -91.5t-13.5 -57t8 -33.5t25 -15t43 -7v-18h-225zM349 605l-126 -320h251z" />
    <glyph glyph-name="B" unicode="B" horiz-adv-x="722" 
d="M254 357v-287q0 -21 10 -28.5t36 -7.5h39q111 0 159.5 42.5t48.5 128.5q0 76 -42.5 114t-144.5 38h-106zM254 689v-297h104q84 0 121.5 43t37.5 112q0 77 -42 109.5t-148 32.5h-73zM38 725h122q42 0 107 1t78 1q155 0 223 -40.5t68 -122.5q0 -62 -43.5 -109t-109.5 -66
v-2q76 -15 133 -58.5t57 -116.5q0 -93 -75.5 -153.5t-245.5 -60.5q-12 0 -77 1t-114 1h-123v18q69 8 84 27t15 101v433q0 31 -0.5 48t-5.5 32t-9 21.5t-18.5 12.5t-26.5 8t-39 6v18z" />
    <glyph glyph-name="C" unicode="C" horiz-adv-x="739" 
d="M179 366h1q0 -155 67 -243.5t184 -88.5q96 0 160 51t89 120l27 -9q-22 -85 -100.5 -147t-194.5 -62q-165 0 -263.5 108t-98.5 272q0 171 112.5 274.5t275.5 103.5q118 0 214 -40l23 -220h-19q-27 119 -84 171.5t-152 52.5q-100 0 -170.5 -87t-70.5 -256z" />
    <glyph glyph-name="D" unicode="D" horiz-adv-x="800" 
d="M254 36h98q125 0 197 85t72 244q0 158 -73 241t-199 83h-95v-653zM38 725h316q79 0 148 -20.5t125.5 -62t89.5 -113t33 -164.5t-32 -165t-88.5 -114.5t-126 -64t-150.5 -21.5h-315v18q69 8 84 27t15 101v433q0 31 -0.5 48t-5.5 32t-9 21.5t-18.5 12.5t-26.5 8t-39 6v18z
" />
    <glyph glyph-name="E" unicode="E" horiz-adv-x="715" 
d="M670 223l-39 -224q-76 1 -224 1h-369v18q69 8 84 27t15 101v433q0 31 -0.5 48t-5.5 32t-9 21.5t-18.5 12.5t-26.5 8t-39 6v18h355q149 0 225 3l27 -224h-18q-14 44 -29 75t-37 51.5t-42.5 32t-56.5 17.5t-67 7.5t-85 1.5h-56v-293h135q45 0 70 25.5t33 86.5h18v-268h-18
q-8 61 -33 86.5t-70 25.5h-135v-272q0 -29 8 -37.5t38 -8.5h21q77 0 124 6t88.5 26t68.5 57.5t49 99.5h19z" />
    <glyph glyph-name="F" unicode="F" horiz-adv-x="688" 
d="M38 0v18q69 8 84 27t15 101v433q0 31 -0.5 48t-5.5 32t-9 21.5t-18.5 12.5t-26.5 8t-39 6v18h379q149 0 224 3l28 -224h-18q-14 44 -29.5 75t-37 51.5t-42.5 32t-56.5 17.5t-66.5 7.5t-85 1.5h-80v-293h137q45 0 70 25.5t33 86.5h18v-268h-18q-8 61 -33 86.5t-70 25.5
h-137v-207q0 -29 0.5 -43t4 -31t9.5 -23.5t19 -13.5t30.5 -10t44.5 -5v-19h-324z" />
    <glyph glyph-name="G" unicode="G" horiz-adv-x="817" 
d="M519 340l1 1h272v-21q-44 -6 -54 -27.5t-10 -99.5v-125q-57 -41 -142.5 -61t-160.5 -20q-177 0 -276.5 108.5t-99.5 267.5q0 172 113.5 277t284.5 105q132 0 232 -38l19 -222h-18q-30 118 -90.5 171t-155.5 53q-49 0 -92.5 -18.5t-81.5 -57.5t-60 -109t-22 -163
q0 -152 71 -244t188 -92q172 0 172 97v71q0 79 -13.5 100.5t-76.5 25.5v21z" />
    <glyph glyph-name="H" unicode="H" horiz-adv-x="842" 
d="M705 579v-433q0 -82 15.5 -101t83.5 -27v-18h-315v18q68 8 83.5 27t15.5 101v206h-334v-206q0 -82 15 -101t84 -27v-18h-315v18q69 8 84 27t15 101v433q0 31 -0.5 48t-5.5 32t-9 21.5t-18.5 12.5t-26.5 8t-39 6v18h315v-18q-27 -4 -39 -6t-26.5 -8t-18.5 -12.5t-9 -21.5
t-5.5 -32t-0.5 -48v-183h334v183q0 30 -0.5 48t-5.5 32.5t-9.5 21t-19 12.5t-26 8t-38.5 6v18h315v-18q-27 -4 -38.5 -6t-26 -8t-19 -12.5t-9.5 -21t-5.5 -32.5t-0.5 -48z" />
    <glyph glyph-name="I" unicode="I" horiz-adv-x="391" 
d="M254 579v-433q0 -82 15 -101t84 -27v-18h-315v18q69 8 84 27t15 101v433q0 31 -0.5 48t-5.5 32t-9 21.5t-18.5 12.5t-26.5 8t-39 6v18h315v-18q-27 -4 -39 -6t-26.5 -8t-18.5 -12.5t-9 -21.5t-5.5 -32t-0.5 -48z" />
    <glyph glyph-name="J" unicode="J" horiz-adv-x="433" 
d="M201 226h-1v353q0 31 -0.5 48t-5.5 32t-9 21.5t-18.5 12.5t-26.5 8t-39 6v18h315v-18q-27 -4 -39 -6t-26.5 -8t-18.5 -12.5t-9 -21.5t-5.5 -32t-0.5 -48v-345q0 -247 -189 -247q-71 0 -118 14v139h11q70 -117 119 -117q14 0 23 5.5t19 24t14.5 61.5t4.5 112z" />
    <glyph glyph-name="K" unicode="K" horiz-adv-x="778" 
d="M254 579v-433q0 -82 15 -101t84 -27v-18h-315v18q69 8 84 27t15 101v433q0 31 -0.5 48t-5.5 32t-9 21.5t-18.5 12.5t-26.5 8t-39 6v18h315v-18q-27 -4 -39 -6t-26.5 -8t-18.5 -12.5t-9 -21.5t-5.5 -32t-0.5 -48zM255 371l1 1l224 203q87 80 91 105q2 16 -22 22
q-14 4 -37 5v18h237v-18q-48 -6 -84.5 -29t-129.5 -106l-174 -153l265 -300q51 -58 77 -78t66 -23v-18h-297v18q37 1 48 13t4 27t-26 37z" />
    <glyph glyph-name="L" unicode="L" horiz-adv-x="629" 
d="M38 0h1v18q69 8 84 27t15 101v433q0 31 -0.5 48t-5.5 32t-9 21.5t-18.5 12.5t-26.5 8t-39 6v18h315v-18q-27 -4 -39 -6t-26.5 -8t-18.5 -12.5t-9 -21.5t-5.5 -32t-0.5 -48v-500q0 -28 8 -36.5t36 -8.5h17q59 0 95.5 4t68 15t53 33.5t39.5 55t37 84.5h19l-38 -227
q-36 0 -113.5 0.5t-103.5 0.5h-335z" />
    <glyph glyph-name="M" unicode="M" horiz-adv-x="971" 
d="M933 725v-18q-27 -4 -39 -6t-26.5 -8t-18.5 -12.5t-9 -21.5t-5.5 -32t-0.5 -48v-433q0 -82 15 -101t84 -27v-18h-315v18q69 8 84 27t15 101v483l-249 -602h-21l-263 617v-498q0 -82 15 -101t84 -27v-18h-245v18q69 8 84 27t15 101v433q0 31 -0.5 48t-5.5 32t-9 21.5
t-18.5 12.5t-26.5 8t-39 6v18h246l210 -508l208 508h231z" />
    <glyph glyph-name="N" unicode="N" horiz-adv-x="804" 
d="M641 176l-1 -1v403q0 31 -0.5 48t-5.5 32t-9 21.5t-18.5 12.5t-26.5 8t-39 6v18h244v-18q-27 -4 -38.5 -6t-26 -8t-19 -12.5t-9.5 -21t-5.5 -32.5t-0.5 -48v-587h-50l-456 576v-422q0 -82 15.5 -101t83.5 -27v-18h-244v18q68 8 83.5 27t15.5 101v480l-4 5q-47 61 -82 79
v16h159z" />
    <glyph glyph-name="O" unicode="O" horiz-adv-x="848" 
d="M50 366q0 88 31.5 161.5t84.5 120t119.5 72t138.5 25.5t138.5 -25.5t119.5 -72t84.5 -120t31.5 -161.5t-31.5 -161.5t-84.5 -120t-119.5 -72t-138.5 -25.5t-138.5 25.5t-119.5 72t-84.5 120t-31.5 161.5zM668 366q0 154 -68 248.5t-176 94.5t-176 -94.5t-68 -248.5
t68 -248.5t176 -94.5t176 94.5t68 248.5z" />
    <glyph glyph-name="P" unicode="P" horiz-adv-x="669" 
d="M530 516q0 99 -47.5 136t-146.5 37h-82v-347h82q99 0 146.5 37t47.5 137zM38 0v18q69 8 84 27t15 101v433q0 31 -0.5 48t-5.5 32t-9 21.5t-18.5 12.5t-26.5 8t-39 6v18h111q38 0 107.5 0.5t88.5 0.5q314 0 314 -210q0 -211 -314 -211h-91v-160q0 -44 1.5 -62t13 -34.5
t32 -21.5t61.5 -8v-19h-324z" />
    <glyph glyph-name="Q" unicode="Q" horiz-adv-x="848" 
d="M50 366h1q0 88 31.5 161.5t84.5 120t119.5 72t138.5 25.5t138.5 -25.5t119.5 -72t84.5 -120t31.5 -161.5q0 -162 -98 -263t-238 -114l-48 -31q-2 -1 -10 -6.5t-13 -7.5l-14 -8l1 -2q32 13 87 13q43 0 75.5 -14.5t52 -34.5t37 -40.5t42 -35t55.5 -14.5q38 0 57 8l6 -21
q-59 -22 -123 -22q-54 0 -93.5 15t-61 37t-39 43.5t-39 36.5t-49.5 15q-8 0 -16 -1.5t-13 -3t-14 -6.5t-12 -6.5t-15.5 -10t-16.5 -10.5l-12 20l132 85q-71 1 -137 27t-118 72.5t-83 119t-31 160.5zM669 366q0 154 -68 248.5t-176 94.5t-176 -94.5t-68 -248.5t68 -248.5
t176 -94.5t176 94.5t68 248.5z" />
    <glyph glyph-name="R" unicode="R" horiz-adv-x="742" 
d="M38 0v-2v18q69 8 84 27t15 101v433q0 31 -0.5 48t-5.5 32t-9 21.5t-18.5 12.5t-26.5 8t-39 6v18h121q32 0 99.5 0.5t84.5 0.5q314 0 314 -191q0 -149 -187 -182l150 -234q37 -55 64 -75.5t71 -24.5v-18h-204q-42 84 -82 144l-52 81q-18 27 -41.5 66.5t-33.5 52.5h-88
v-198q0 -81 15.5 -100t85.5 -27v-18h-317zM528 533q0 90 -46.5 122t-146.5 32h-81v-309h81q100 0 146.5 32t46.5 123z" />
    <glyph glyph-name="S" unicode="S" horiz-adv-x="614" 
d="M296 -13l1 1q-136 0 -232 54v246h20q9 -80 29.5 -134.5t50.5 -81.5t61.5 -37.5t70.5 -10.5q69 0 119 36.5t50 104.5q0 49 -35.5 80.5t-106.5 64.5l-81 36q-173 76 -173 210q0 82 70.5 137.5t171.5 55.5q130 0 204 -47l3 -209h-20q-31 220 -190 220q-64 0 -106 -31
t-42 -86q0 -27 9 -49t27.5 -37.5t34.5 -25t40 -20.5l85 -38q101 -45 152 -93t51 -127q0 -101 -78.5 -160t-185.5 -59z" />
    <glyph glyph-name="T" unicode="T" horiz-adv-x="770" 
d="M217 0v19q74 6 92 28t18 99v548h-31q-114 0 -161.5 -36.5t-89.5 -159.5h-19l29 230q76 -3 226 -3h209q149 0 225 3l29 -230h-18q-41 122 -90 159t-162 37h-30v-548q0 -77 18 -99t92 -28v-19h-337z" />
    <glyph glyph-name="U" unicode="U" horiz-adv-x="787" 
d="M120 273v1v306q0 44 -2 64.5t-15 35t-28.5 18t-53.5 9.5v18h314v-18q-27 -4 -38.5 -6t-26 -8t-19 -12.5t-9.5 -21t-5.5 -32.5t-0.5 -48v-295q0 -247 188 -247q200 0 200 261v281q0 30 -0.5 48t-5.5 32.5t-9.5 21t-19 12.5t-26 8t-38.5 6v18h244v-18q-27 -4 -39 -6
t-26.5 -8t-18.5 -12.5t-9 -21.5t-5.5 -32t-0.5 -48v-280q0 -158 -67.5 -235t-207.5 -77q-275 0 -275 286z" />
    <glyph glyph-name="V" unicode="V" horiz-adv-x="764" 
d="M364 -10h-1l-252 619q-23 60 -39.5 77t-63.5 21v18h292v-18q-53 -6 -68.5 -22.5t-0.5 -53.5l193 -483l132 355q21 58 31 92.5t13 57.5t-8 33t-24 14t-43 7v18h229v-18q-53 -4 -72 -29t-63 -141l-202 -547h-53z" />
    <glyph glyph-name="W" unicode="W" horiz-adv-x="1068" 
d="M1058 725l1 1v-18q-39 -3 -58 -13.5t-37 -45t-40 -111.5l-161 -549h-54l-176 516l-151 -516h-55l-212 622q-21 59 -38.5 75.5t-66.5 20.5v18h294v-18q-52 -6 -67 -21.5t-3 -53.5l149 -458l119 415l-46 136h130l179 -551l98 340q38 136 33.5 161.5t-66.5 31.5v18h228z" />
    <glyph glyph-name="X" unicode="X" horiz-adv-x="826" 
d="M541 93l-2 -1l-144 222l-120 -160q-28 -36 -42 -60.5t-17.5 -38.5t5.5 -22t21 -10.5t36 -4.5v-18h-259v18q50 3 100 36.5t120 127.5l130 173l-165 255q-62 95 -142 97v18h317v-18q-57 -2 -67 -21.5t15 -53.5l116 -179l87 117q45 60 54.5 89t-3.5 37t-53 11v18h259v-18
q-51 -3 -100 -36t-120 -128l-98 -130l194 -298q62 -95 142 -97v-18h-317v18q56 2 67 21.5t-14 53.5z" />
    <glyph glyph-name="Y" unicode="Y" horiz-adv-x="726" 
d="M412 290h-1v-144q0 -78 18 -99.5t92 -27.5v-19h-337v19q74 6 92 28t18 99v139l-187 326q-32 54 -51 72t-53 24v18h294v-18q-53 -6 -68.5 -22.5t2.5 -51.5l161 -290l131 223q32 54 38 84t-8.5 42t-51.5 15v18h220v-18q-41 -6 -69 -30t-61 -82z" />
    <glyph glyph-name="Z" unicode="Z" horiz-adv-x="673" 
d="M185 36h99q54 0 84.5 1.5t66.5 7.5t56.5 17.5t42 32t37 51.5t29.5 75h18l-28 -224q-76 3 -223 3h-324v11l433 678h-52q-53 0 -84 -1.5t-66.5 -7.5t-56 -17.5t-42 -32t-37 -51.5t-29.5 -75h-19l29 224q76 -3 223 -3h282v-10z" />
    <glyph glyph-name="bracketleft" unicode="[" horiz-adv-x="292" 
d="M86 -216v988h194v-37h-91v-914h91v-37h-194z" />
    <glyph glyph-name="backslash" unicode="\" horiz-adv-x="398" 
d="M55 776l343 -808h-52l-346 808h55z" />
    <glyph glyph-name="bracketright" unicode="]" horiz-adv-x="292" 
d="M206 772v-988h-193v37h91v914h-91v37h193z" />
    <glyph glyph-name="asciicircum" unicode="^" horiz-adv-x="468" 
d="M269 725l201 -393h-79l-158 305l-156 -305h-79l200 393h71z" />
    <glyph glyph-name="underscore" unicode="_" horiz-adv-x="484" 
d="M23 -72v72h438v-72h-438z" />
    <glyph glyph-name="grave" unicode="`" horiz-adv-x="232" 
d="M13 772h129l73 -169h-16z" />
    <glyph glyph-name="a" unicode="a" horiz-adv-x="551" 
d="M351 92l3 216q-88 -33 -140 -66q-34 -21 -47.5 -42t-11.5 -52q2 -41 30 -72t72 -31q49 0 94 47zM354 66h-2q-47 -43 -72 -58q-29 -19 -84 -19q-59 0 -108.5 38t-49.5 94q0 46 37.5 78.5t123.5 74.5q71 34 155 70v23q0 77 -24.5 109.5t-76.5 32.5q-108 0 -99 -139h-102
q0 66 66 122t159 56q81 0 130 -38.5t47 -131.5l-5 -259q-1 -40 7 -52.5t30 -12.5q17 0 44 20l10 -10q-1 -2 -8.5 -11t-10 -11.5t-9.5 -10.5t-10.5 -11t-10 -9t-12 -8t-12.5 -5.5t-14.5 -4.5t-15.5 -1q-33 0 -56.5 19t-26.5 55z" />
    <glyph glyph-name="b" unicode="b" horiz-adv-x="598" 
d="M152 48l1 1l-62 -57h-16q4 76 4 171v482q0 72 -10.5 85t-69.5 13v18l188 62q-2 -106 -2 -219v-148q67 91 157 91q96 0 155 -76.5t59 -185.5q0 -126 -76.5 -212t-178.5 -86q-88 0 -149 61zM303 27q72 0 106.5 59.5t34.5 159.5q0 103 -44.5 166t-116.5 63q-66 0 -99 -45
v-342q17 -28 50 -44.5t69 -16.5z" />
    <glyph glyph-name="c" unicode="c" horiz-adv-x="508" 
d="M316 547h1q62 0 104 -30.5t42 -70.5q0 -24 -15.5 -39t-41.5 -15q-35 0 -48 28l-32 66q-10 20 -38 20q-62 0 -108 -49.5t-46 -149.5q0 -99 50 -165t141 -66q79 0 143 56l11 -10q-79 -135 -209 -135q-112 0 -172 76.5t-60 193.5q0 131 82 210.5t196 79.5z" />
    <glyph glyph-name="d" unicode="d" horiz-adv-x="608" 
d="M409 504v144q0 70 -11.5 82t-78.5 12v18l199 63q-3 -159 -3 -219v-440q0 -70 10.5 -84t66.5 -16v-17l-166 -55l-14 88q-57 -93 -160 -93q-97 0 -155.5 75t-58.5 188q0 127 76 212t177 85q74 0 118 -43zM291 512h-1q-70 0 -106 -61t-36 -159q0 -104 45.5 -169t117.5 -65
q63 0 98 47v341q-15 32 -47 49t-71 17z" />
    <glyph glyph-name="e" unicode="e" horiz-adv-x="536" 
d="M278 -13h-1q-118 0 -179 76t-61 200q0 117 72.5 200.5t174.5 83.5q85 0 142.5 -56t63.5 -161h-358v-5q0 -113 51.5 -181t142.5 -68q94 0 161 65l12 -10q-83 -144 -221 -144zM265 510q-52 0 -87 -35t-44 -106h235q2 60 -25 100.5t-79 40.5z" />
    <glyph glyph-name="f" unicode="f" horiz-adv-x="408" 
d="M363 695l-35 51q-10 15 -25 15q-19 0 -41 -11t-42 -37t-20.5 -68.5t22.5 -106.5h169v-40h-166v-354q0 -32 0.5 -48.5t5.5 -32t10.5 -21.5t22 -12t32 -7.5t48.5 -3.5v-19h-305v18q57 6 68.5 26t11.5 100v354h-86v40h86v11q0 111 68.5 181.5t163.5 70.5q45 0 74.5 -23
t29.5 -52q0 -22 -15 -35.5t-38 -13.5q-26 0 -39 18z" />
    <glyph glyph-name="g" unicode="g" horiz-adv-x="598" 
d="M273 209l-1 1q-44 0 -68 8q-53 -45 -53 -77t67 -37l105 -5q101 -4 164.5 -36.5t63.5 -97.5q0 -28 -16 -58.5t-48.5 -60t-91.5 -48.5t-134 -19q-102 0 -165 36.5t-63 89.5q0 73 137 106q-96 18 -96 85q0 25 15.5 48.5t33 38.5t55.5 42q-52 21 -81.5 60.5t-29.5 92.5
q0 75 57 122t148 47q71 0 121 -29h172v-43h-120q33 -42 33 -97q0 -75 -57 -122t-148 -47zM342 4l-141 5h-1q-35 -14 -54 -38.5t-19 -52.5q0 -48 51 -73t126 -25t124 29.5t49 79.5q0 39 -34.5 56t-100.5 19zM277 243q46 0 72.5 29.5t26.5 85.5q0 63 -29.5 110t-80.5 47
q-46 0 -72.5 -29.5t-26.5 -85.5q0 -63 29.5 -110t80.5 -47z" />
    <glyph glyph-name="h" unicode="h" horiz-adv-x="610" 
d="M203 604v-149q35 42 71.5 67t87.5 25q69 0 111.5 -47.5t42.5 -142.5v-213q0 -80 11.5 -100t68.5 -26v-18h-264v18q55 6 66.5 26t11.5 100v192q0 138 -102 138q-74 0 -105 -46v-284q0 -80 11.5 -100t66.5 -26v-18h-264v18q57 6 68.5 26t11.5 100v501q0 72 -10.5 85
t-69.5 13v18l188 62q-2 -106 -2 -219z" />
    <glyph glyph-name="i" unicode="i" horiz-adv-x="339" 
d="M226 328v-184q0 -80 11.5 -100t68.5 -26v-18h-266v18q57 6 68.5 26t11.5 100v222q0 74 -10.5 87.5t-69.5 13.5v18l188 62q-2 -106 -2 -219zM168 668q-30 0 -52 20.5t-22 50.5q0 29 22 49.5t52 20.5q31 0 52 -20.5t21 -49.5q0 -31 -21 -51t-52 -20z" />
    <glyph glyph-name="j" unicode="j" horiz-adv-x="307" 
d="M109 81v285q0 74 -10.5 87.5t-69.5 13.5v18l188 62q-2 -106 -2 -219v-231q0 -115 -41 -192t-156 -139l-8 10q61 64 80 133.5t19 171.5zM154 668q-30 0 -52 20.5t-22 50.5q0 29 22 49.5t52 20.5q31 0 52 -20.5t21 -49.5q0 -31 -21 -51t-52 -20z" />
    <glyph glyph-name="k" unicode="k" horiz-adv-x="625" 
d="M97 144v501q0 72 -10.5 85t-69.5 13v18l188 62q-2 -106 -2 -219v-460q0 -80 11.5 -100t68.5 -26v-18h-266v18q57 6 68.5 26t11.5 100zM354 0v18q52 2 54.5 19.5t-28.5 50.5l-174 203l170 142q104 83 -4 87v18h230v-18q-32 0 -60 -11t-47 -25t-64 -51l-126 -102l219 -255
q25 -29 48 -42.5t55 -15.5v-18h-273z" />
    <glyph glyph-name="l" unicode="l" horiz-adv-x="336" 
d="M121 144v501q0 72 -10.5 85t-69.5 13v18l188 62q-2 -106 -2 -219v-460q0 -80 11.5 -100t68.5 -26v-18h-266v18q57 6 68.5 26t11.5 100z" />
    <glyph glyph-name="m" unicode="m" horiz-adv-x="921" 
d="M19 467v18l184 62l2 -92q70 92 159 92q50 0 87 -26.5t54 -79.5q75 106 172 106q68 0 110.5 -48t42.5 -142v-213q0 -80 11.5 -100t68.5 -26v-18h-264v18q55 6 66.5 26t11.5 100v192q0 138 -101 138q-31 0 -62.5 -14.5t-50.5 -40.5q6 -27 6 -62v-213q0 -80 11.5 -100
t68.5 -26v-18h-263v18q55 6 66 26t11 100v192q0 138 -101 138q-73 0 -104 -46v-284q0 -80 11.5 -100t66.5 -26v-18h-264v18q57 6 68.5 26t11.5 100v225q0 72 -10.5 85t-69.5 13z" />
    <glyph glyph-name="n" unicode="n" horiz-adv-x="604" 
d="M17 467v18l185 62l1 -92q35 42 71.5 67t87.5 25q69 0 110.5 -47.5t41.5 -142.5v-213q0 -80 11.5 -100t68.5 -26v-18h-264v18q55 6 66.5 26t11.5 100v192q0 138 -100 138q-71 0 -105 -46v-284q0 -80 11.5 -100t66.5 -26v-18h-264v18q57 6 68.5 26t11.5 100v225
q0 72 -10.5 85t-69.5 13z" />
    <glyph glyph-name="o" unicode="o" horiz-adv-x="624" 
d="M296 508q-71 0 -107 -54t-36 -151q0 -40 9.5 -85.5t28.5 -89.5t54 -73t80 -29q70 0 105 54t35 152q0 40 -9.5 85t-28 89t-53 73t-78.5 29zM306 547q111 0 192.5 -79.5t81.5 -199.5q0 -117 -78 -199t-189 -82t-192.5 80t-81.5 201q0 117 77.5 198t189.5 81z" />
    <glyph glyph-name="p" unicode="p" horiz-adv-x="607" 
d="M8 -216v-1v18q57 6 68.5 26t11.5 100v440q0 73 -10.5 86t-69.5 13v18l183 62v-90q72 90 160 90q96 0 154.5 -76t58.5 -186q0 -125 -76 -211.5t-177 -86.5q-73 0 -117 43v-102v-46.5t3.5 -31.5t8.5 -23t18 -11.5t28 -8.5t42 -4v-18h-286zM312 21h1q70 0 105.5 62t35.5 161
q0 103 -44.5 166t-116.5 63q-68 0 -99 -42v-344q32 -66 118 -66z" />
    <glyph glyph-name="q" unicode="q" horiz-adv-x="601" 
d="M309 -216v18q27 2 42 4t28 8.5t18 11.5t8.5 23t3.5 31.5v46.5v149q-58 -90 -157 -90q-97 0 -155.5 75t-58.5 188q0 127 76 212t177 85q71 0 118 -34l108 30q-2 -36 -2 -232v-382q0 -80 11.5 -100t68.5 -26v-18h-286zM291 512h-1q-70 0 -106 -61t-36 -159
q0 -104 45.5 -169t117.5 -65q63 0 98 47v350q-15 26 -47 41.5t-71 15.5z" />
    <glyph glyph-name="r" unicode="r" horiz-adv-x="435" 
d="M18 0h2v18q57 6 68.5 26t11.5 100v224q0 73 -10.5 86t-69.5 13v18l184 62l2 -104q24 32 41 50.5t46 36.5t58 18q34 0 54.5 -18t20.5 -48q0 -27 -17.5 -45.5t-44.5 -18.5q-18 0 -34 15l-32 31q-9 9 -18 9q-30 0 -76 -59v-270q0 -85 16.5 -102t102.5 -23v-19h-305z" />
    <glyph glyph-name="s" unicode="s" horiz-adv-x="473" 
d="M256 547h-1q82 0 130 -24l1 -152h-21q-27 136 -131 136q-40 0 -67 -19t-27 -51q0 -30 20.5 -49.5t61.5 -40.5l56 -30q73 -39 105.5 -74t32.5 -96q0 -73 -58 -116.5t-138 -43.5q-87 0 -159 37v188h19q24 -180 147 -180q44 0 74.5 21t30.5 65q0 30 -21.5 52t-67.5 45
l-56 30q-65 36 -95 68.5t-30 89.5q0 69 60.5 106.5t133.5 37.5z" />
    <glyph glyph-name="t" unicode="t" horiz-adv-x="345" 
d="M208 -13h1q-62 0 -93.5 36.5t-31.5 118.5v356h-87v40h88v90l105 73v-163h130v-40h-130v-337q0 -59 14.5 -82.5t54.5 -23.5q43 0 77 31l9 -9q-27 -42 -57.5 -66t-79.5 -24z" />
    <glyph glyph-name="u" unicode="u" horiz-adv-x="587" 
d="M493 342v1v-178q0 -70 10.5 -84t67.5 -16v-17l-168 -55l-13 97q-25 -43 -64.5 -72.5t-89.5 -29.5q-69 0 -113 49t-44 151q0 29 1 108.5t1 108.5q0 65 -11 81t-66 20v18l184 18q-2 -104 -2 -199v-136q0 -76 22.5 -112t72.5 -36q67 0 106 62v284q0 65 -11 81t-66 20v18
l186 18q-3 -156 -3 -200z" />
    <glyph glyph-name="v" unicode="v" horiz-adv-x="570" 
d="M292 -12h-28l-192 465q-17 37 -29.5 51t-38.5 16v18h243v-18q-28 -2 -43.5 -7t-19 -16.5t-1 -23t10.5 -32.5l118 -300l104 247q31 72 26.5 99.5t-54.5 31.5v18h178v-18q-33 -4 -50 -23.5t-38 -73.5z" />
    <glyph glyph-name="w" unicode="w" horiz-adv-x="804" 
d="M527 -12l-130 394l-133 -394h-29l-163 464q-15 38 -28 51t-41 17v18h242v-18q-53 -3 -61.5 -23t8.5 -57l88 -276l126 374h43l123 -375l79 228q19 53 22.5 77.5t-8 36.5t-43.5 15v18h178v-18q-35 -4 -50.5 -22t-36.5 -74l-156 -436h-30z" />
    <glyph glyph-name="x" unicode="x" horiz-adv-x="621" 
d="M180 146l1 -1l82 111l-137 203q-22 33 -39 44.5t-47 15.5v18h244v-18q-46 -4 -50 -17t25 -54l69 -104l44 59q21 27 32 43.5t17 31t1 22.5t-17.5 13.5t-36.5 7.5v18h212v-18q-45 -6 -77 -31.5t-86 -95.5l-63 -85l154 -229q22 -32 39 -44t47 -16v-18h-244v18q46 4 50 17
t-25 54l-87 129l-62 -84q-18 -24 -27.5 -38t-17 -28.5t-7 -22t5.5 -14t17.5 -10t32.5 -5.5v-18h-212v18q44 6 77 32t85 96z" />
    <glyph glyph-name="y" unicode="y" horiz-adv-x="591" 
d="M151 -221l-1 1q-39 0 -62.5 17.5t-23.5 47.5q0 25 14.5 41t32.5 16q16 0 30 -16l50 -49q24 41 55 114l19 46l-194 457q-16 37 -29 51t-40 16v18h246v-18q-54 -3 -63.5 -23t8.5 -56l130 -313l108 261q28 66 22 93.5t-59 36.5v18h191v-18q-35 -5 -48 -20.5t-34 -64.5
q-3 -8 -5 -12l-209 -495q-34 -83 -61 -116t-77 -33z" />
    <glyph glyph-name="z" unicode="z" horiz-adv-x="577" 
d="M495 0h-448v9l329 488h-83q-56 0 -84 -3.5t-51.5 -17.5t-33 -40t-15.5 -74h-21v176h425v-10l-324 -487h104q103 0 135.5 22.5t46.5 112.5h20v-176z" />
    <glyph glyph-name="braceleft" unicode="{" horiz-adv-x="343" 
d="M316 -216v-2h-44q-90 0 -121 27t-31 96v239q0 117 -80 117v33q80 0 80 117v236q0 69 31 96t121 27h44v-37h-13q-50 0 -65.5 -18t-15.5 -66v-228q0 -67 -29 -98.5t-83 -42.5v-3q54 -11 83 -42.5t29 -98.5v-231q0 -48 15.5 -66t65.5 -18h13v-37z" />
    <glyph glyph-name="bar" unicode="|" horiz-adv-x="242" 
d="M157 -90h-72v815h72v-815z" />
    <glyph glyph-name="braceright" unicode="}" horiz-adv-x="343" 
d="M121 -95v2v231q0 67 29 98.5t83 42.5v3q-54 11 -83 42.5t-29 98.5v228q0 48 -15.5 66t-65.5 18h-13v37h44q90 0 121 -27t31 -96v-242q0 -50 16 -80.5t64 -30.5v-33q-48 0 -64 -30.5t-16 -80.5v-245q0 -69 -31 -96t-121 -27h-44v37h13q50 0 65.5 18t15.5 66z" />
    <glyph glyph-name="asciitilde" unicode="~" horiz-adv-x="690" 
d="M460 270q29 0 48.5 18.5t21.5 55.5h70q-5 -66 -42 -102t-98 -36q-43 0 -119.5 37t-109.5 37q-29 0 -48.5 -18.5t-21.5 -55.5h-71q4 66 42 102t99 36q52 0 127.5 -37t101.5 -37z" />
    <glyph glyph-name="uni00A0" unicode="&#xa0;" horiz-adv-x="258" 
 />
    <glyph glyph-name="exclamdown" unicode="&#xa1;" horiz-adv-x="373" 
d="M127 -193v225l49 290h20l50 -291v-224q0 -18 -30 -26t-59.5 0t-29.5 26zM112 473q0 30 22 52t52 22q31 0 52.5 -22t21.5 -52t-21.5 -52t-52.5 -22q-30 0 -52 22t-22 52z" />
    <glyph glyph-name="cent" unicode="&#xa2;" horiz-adv-x="580" 
d="M276 -102l1 -1v90q-105 8 -169 85t-64 193q0 117 64 192.5t169 85.5v88h47v-88q83 -6 141 -52t73 -128h-102q-5 65 -35 101.5t-78 41.5v-482q103 13 113 144h102q-14 -83 -72.5 -128.5t-142.5 -51.5v-90h-47zM156 264q0 -218 121 -240v480q-121 -22 -121 -240z" />
    <glyph glyph-name="sterling" unicode="&#xa3;" horiz-adv-x="662" 
d="M356 706h1q-70 0 -108.5 -38t-38.5 -109q0 -64 44 -154h203v-45h-182q19 -48 19 -88q0 -101 -146 -178l1 -2q64 27 103 27q40 0 98 -22.5t97 -22.5q59 0 130 31l32 -86q-70 -35 -154 -35q-43 0 -111 20t-106 20q-66 0 -164 -41l-31 78q62 26 103 71t41 125q0 46 -23 103
h-120v45h99q-43 84 -43 140q0 95 76 146t181 51q107 0 180.5 -51.5t82.5 -150.5h-112q0 76 -37.5 121t-114.5 45z" />
    <glyph glyph-name="currency" unicode="&#xa4;" horiz-adv-x="645" 
d="M80 352h-2q0 80 46 143l-69 71l46 44l68 -68q65 52 149 52q88 0 154 -54l70 70l46 -44l-72 -73q46 -63 46 -141q0 -77 -47 -142l73 -72l-46 -45l-72 70q-65 -52 -150 -52q-83 0 -148 51l-69 -69l-46 45l70 71q-47 61 -47 143zM147 352q0 -77 48 -128.5t122 -51.5
q78 0 127.5 51.5t49.5 128.5q0 78 -49.5 130t-127.5 52q-74 0 -122 -52t-48 -130z" />
    <glyph glyph-name="yen" unicode="&#xa5;" horiz-adv-x="697" 
d="M589 142l2 2h-198q0 -75 18.5 -97t90.5 -30v-16h-321v16q72 8 90 29.5t18 96.5h-181v45h181v75h-181v44h169l-169 312q-29 56 -43 70.5t-49 20.5v16h278v-16q-54 -6 -69.5 -19.5t0.5 -49.5l154 -297l100 180q40 76 50 115.5t-2.5 53t-49.5 16.5v16h205v-16
q-42 -6 -68.5 -37t-83.5 -135l-128 -231h187v-44h-198v-75h198v-45z" />
    <glyph glyph-name="brokenbar" unicode="&#xa6;" horiz-adv-x="242" 
d="M85 725h72v-305h-72v305zM85 215h72v-305h-72v305z" />
    <glyph glyph-name="section" unicode="&#xa7;" horiz-adv-x="611" 
d="M300 -184l1 -1q54 0 88 29.5t34 74.5q0 42 -25 71t-84 60l-134 71q-70 36 -107.5 77.5t-37.5 101.5q0 52 42 90.5t105 58.5q-93 64 -93 147q0 68 62 107t145 39q93 0 152.5 -43.5t73.5 -128.5h-99q-3 53 -37 94.5t-92 41.5q-47 0 -80.5 -24t-33.5 -66q0 -58 96 -109
l144 -76q77 -42 114 -77.5t37 -89.5q0 -114 -147 -164q92 -66 92 -147q0 -80 -63 -127t-151 -47q-98 0 -163.5 50.5t-77.5 140.5h101q5 -70 41 -112t97 -42zM232 418l-21 11q-36 -15 -59.5 -44t-23.5 -65t24 -60.5t75 -51.5l136 -73q23 -12 34 -19q36 19 58.5 47.5
t22.5 61.5q0 34 -28.5 63t-85.5 61z" />
    <glyph glyph-name="dieresis" unicode="&#xa8;" horiz-adv-x="385" 
d="M19 709q0 27 18 45t46 18q26 0 44 -18t18 -45q0 -29 -17.5 -47t-44.5 -18q-28 0 -46 18t-18 47zM238 709q0 27 18.5 45t46.5 18q26 0 44 -18t18 -45q0 -29 -17.5 -47t-44.5 -18q-28 0 -46.5 18t-18.5 47z" />
    <glyph glyph-name="copyright" unicode="&#xa9;" horiz-adv-x="837" 
d="M44 361q0 164 109 270t267 106q157 0 265.5 -106t108.5 -270t-108.5 -269t-265.5 -105q-159 0 -267.5 105t-108.5 269zM109 361q0 -139 89 -228t222 -89t221.5 88.5t88.5 228.5t-88.5 229t-221.5 89t-222 -89t-89 -229zM416 214h-1q39 0 71 19.5t43 59.5l62 -18
q-17 -51 -62 -84.5t-114 -33.5q-88 0 -136.5 55.5t-48.5 153.5q0 96 51 150.5t139 54.5q68 0 111 -33.5t58 -89.5l-61 -20q-11 41 -41.5 63t-70.5 22q-51 0 -85 -38t-34 -109t34.5 -111.5t84.5 -40.5z" />
    <glyph glyph-name="ordfeminine" unicode="&#xaa;" horiz-adv-x="309" 
d="M261 641l1 -1l-3 -127q-1 -44 18 -44q9 0 23 14l8 -7q-28 -44 -66 -44q-52 0 -56 56q-30 -58 -87 -58q-35 0 -58.5 22t-23.5 53q0 54 81 87q40 16 88 30v22q4 79 -50 79q-53 0 -49 -76h-65q6 45 44.5 72t84.5 27q47 0 79.5 -26t30.5 -79zM139 480v1q31 0 46 20l1 96
q-46 -9 -72 -26q-24 -14 -24 -43q0 -21 14 -34.5t35 -13.5z" />
    <glyph glyph-name="guillemotleft" unicode="&#xab;" horiz-adv-x="568" 
d="M444 38l-205 235l205 234h49l-131 -234l131 -235h-49zM238 38l-205 235l205 234h49l-131 -234l131 -235h-49z" />
    <glyph glyph-name="logicalnot" unicode="&#xac;" 
d="M526 369h-457v68h530v-338h-73v270z" />
    <glyph glyph-name="uni00AD" unicode="&#xad;" horiz-adv-x="386" 
d="M54 232v89h279v-89h-279z" />
    <glyph glyph-name="registered" unicode="&#xae;" horiz-adv-x="837" 
d="M44 361q0 164 109 270t267 106q157 0 265.5 -106t108.5 -270t-108.5 -269t-265.5 -105q-159 0 -267.5 105t-108.5 269zM109 361q0 -139 89 -228t222 -89t221.5 88.5t88.5 228.5t-88.5 229t-221.5 89t-222 -89t-89 -229zM528 175l1 -1l-82 156q-7 -1 -22 -1h-84v-155h-63
v397h120q95 0 140.5 -24.5t45.5 -95.5q0 -76 -73 -106l90 -170h-73zM518 450q0 34 -25 47.5t-74 13.5h-77v-124h82q50 0 72 15t22 48z" />
    <glyph glyph-name="macron" unicode="&#xaf;" horiz-adv-x="325" 
d="M310 665h-296v68h296v-68z" />
    <glyph glyph-name="degree" unicode="&#xb0;" horiz-adv-x="342" 
d="M22 589q0 63 43.5 106t104.5 43q63 0 106.5 -43t43.5 -106q0 -62 -44 -105.5t-106 -43.5q-61 0 -104.5 43.5t-43.5 105.5zM90 589q0 -39 22 -64.5t58 -25.5q38 0 60.5 25.5t22.5 64.5t-22.5 64.5t-60.5 25.5q-36 0 -58 -25.5t-22 -64.5z" />
    <glyph glyph-name="plusminus" unicode="&#xb1;" 
d="M304 365v174h71v-174h238v-68h-238v-180h-71v180h-238v68h238zM613 0h-547v68h547v-68z" />
    <glyph glyph-name="twosuperior" unicode="&#xb2;" horiz-adv-x="320" 
d="M278 753l1 -1q0 -41 -20 -70.5t-84 -93.5q-51 -49 -84 -78h198v-73h-299v7q118 106 163 170t45 115q0 36 -20 56t-54 20q-72 0 -89 -65h-17q10 56 45.5 86t93.5 30q51 0 86 -27t35 -76z" />
    <glyph glyph-name="threesuperior" unicode="&#xb3;" horiz-adv-x="339" 
d="M131 431h1q-58 0 -100 20v103h10q12 -49 37.5 -74.5t59.5 -25.5q37 0 59 22t22 57q0 33 -25 66t-83 42v12l13 6q38 16 56 42.5t18 50.5q0 53 -66 53q-69 0 -86 -65h-18q10 56 47 86t94 30q45 0 76.5 -20.5t31.5 -56.5q0 -31 -26.5 -55.5t-57.5 -37.5v-2q49 -15 78 -47
t29 -76q0 -60 -51.5 -95t-118.5 -35z" />
    <glyph glyph-name="acute" unicode="&#xb4;" horiz-adv-x="243" 
d="M92 772h129l-186 -169h-16z" />
    <glyph glyph-name="mu" unicode="&#xb5;" horiz-adv-x="570" 
d="M135 -189v1h-70q10 43 10 157v570h71v-294q0 -96 35.5 -146t101.5 -50q67 0 104 52t37 148v290h70v-538h-70v85q-42 -98 -141 -98q-97 0 -137 91v-101q0 -106 -11 -167z" />
    <glyph glyph-name="mu" unicode="&#x3bc;" horiz-adv-x="570" 
d="M135 -189v1h-70q10 43 10 157v570h71v-294q0 -96 35.5 -146t101.5 -50q67 0 104 52t37 148v290h70v-538h-70v85q-42 -98 -141 -98q-97 0 -137 91v-101q0 -106 -11 -167z" />
    <glyph glyph-name="paragraph" unicode="&#xb6;" horiz-adv-x="556" 
d="M20 534v-1q0 91 61.5 141t183.5 50h185v-816h-66v754h-118v-754h-67v446q-75 9 -127 54t-52 126z" />
    <glyph glyph-name="periodcentered" unicode="&#xb7;" horiz-adv-x="357" 
d="M104 278q0 30 22 52t52 22q31 0 52.5 -22t21.5 -52t-21.5 -52t-52.5 -22q-30 0 -52 22t-22 52z" />
    <glyph glyph-name="cedilla" unicode="&#xb8;" horiz-adv-x="248" 
d="M50 -119h2l73 122h37l-51 -86q19 9 42 9q34 0 55.5 -20.5t21.5 -50.5q0 -46 -34 -70t-75 -24q-47 0 -98 29l10 22q30 -14 63 -14q29 0 46 12t17 35q0 22 -18 32.5t-41 9t-41 -10.5z" />
    <glyph glyph-name="onesuperior" unicode="&#xb9;" horiz-adv-x="291" 
d="M194 853v-334q0 -44 8 -54.5t45 -16.5v-10h-198v11q45 4 55 15t10 56v265h-77v11q99 11 145 57h12z" />
    <glyph glyph-name="ordmasculine" unicode="&#xba;" horiz-adv-x="349" 
d="M173 746q65 0 110 -44.5t45 -112.5q0 -65 -43.5 -111.5t-109.5 -46.5t-110 45.5t-44 114.5q0 62 43 108.5t109 46.5zM168 726q-63 0 -63 -117q0 -33 6 -66t24 -62.5t46 -29.5q63 0 63 119q0 31 -6 64t-24 62.5t-46 29.5z" />
    <glyph glyph-name="guillemotright" unicode="&#xbb;" horiz-adv-x="568" 
d="M535 273l-205 -235h-50l132 235l-132 234h50zM329 273l-205 -235h-50l132 235l-132 234h50z" />
    <glyph glyph-name="onequarter" unicode="&#xbc;" horiz-adv-x="907" 
d="M822 0h-80v99h-176v48l186 261h70v-243h67v-66h-67v-99zM742 165v184l-132 -184h132zM194 732v-334q0 -44 8 -54.5t45 -16.5v-10h-198v11q45 4 55 15t10 56v265h-77v11q99 11 145 57h12zM203 0h-67l508 725h66z" />
    <glyph glyph-name="onehalf" unicode="&#xbd;" horiz-adv-x="875" 
d="M833 315l1 -1q0 -41 -20 -70.5t-84 -93.5q-51 -49 -84 -78h198v-73h-299v7q118 106 163 170t45 115q0 36 -20 56t-54 20q-72 0 -89 -65h-17q10 56 45.5 86t93.5 30q51 0 86 -27t35 -76zM195 731v-334q0 -44 8 -54.5t45 -16.5v-10h-198v11q45 4 55 15t10 56v265h-77v11
q99 11 145 57h12zM204 -1h-67l508 725h66z" />
    <glyph glyph-name="threequarters" unicode="&#xbe;" horiz-adv-x="955" 
d="M131 310h1q-58 0 -100 20v103h10q12 -49 37.5 -74.5t59.5 -25.5q37 0 59 22t22 57q0 33 -25 66t-83 42v12l13 6q38 16 56 42.5t18 50.5q0 53 -66 53q-69 0 -86 -65h-18q10 56 47 86t94 30q45 0 76.5 -20.5t31.5 -56.5q0 -31 -26.5 -55.5t-57.5 -37.5v-2q49 -15 78 -47
t29 -76q0 -60 -51.5 -95t-118.5 -35zM871 0h-80v99h-176v48l186 261h70v-243h67v-66h-67v-99zM791 165v184l-132 -184h132zM252 0h-67l508 725h66z" />
    <glyph glyph-name="questiondown" unicode="&#xbf;" horiz-adv-x="574" 
d="M320 -186v-1q124 0 158 167h20v-172q-29 -13 -83 -22t-96 -9q-113 0 -173.5 38.5t-60.5 105.5q0 44 18 82.5t45 65t59 56.5t59 56t45 63t18 79v12h30v-9q0 -57 -15.5 -106t-38 -83.5t-45 -66.5t-38 -69t-15.5 -76q0 -111 113 -111zM265 472q0 30 22 52t52 22
q31 0 52.5 -22t21.5 -52t-21.5 -52t-52.5 -22q-30 0 -52 22t-22 52z" />
    <glyph glyph-name="Agrave" unicode="&#xc0;" horiz-adv-x="781" 
d="M5 0h-2v18q49 4 71 31.5t64 138.5l215 542q32 5 56 35h4l257 -646q23 -61 41.5 -80t64.5 -21v-18h-293v18q54 6 68.5 23t-0.5 55l-55 140h-291l-5 -14q-22 -57 -32.5 -91.5t-13.5 -57t8 -33.5t25 -15t43 -7v-18h-225zM349 605l-126 -320h251zM155 922h157l83 -129h-21z
" />
    <glyph glyph-name="Aacute" unicode="&#xc1;" horiz-adv-x="781" 
d="M5 0h-2v18q49 4 71 31.5t64 138.5l215 542q32 5 56 35h4l257 -646q23 -61 41.5 -80t64.5 -21v-18h-293v18q54 6 68.5 23t-0.5 55l-55 140h-291l-5 -14q-22 -57 -32.5 -91.5t-13.5 -57t8 -33.5t25 -15t43 -7v-18h-225zM349 605l-126 -320h251zM604 922l-219 -129h-21
l83 129h157z" />
    <glyph glyph-name="Acircumflex" unicode="&#xc2;" horiz-adv-x="781" 
d="M5 0h-2v18q49 4 71 31.5t64 138.5l215 542q32 5 56 35h4l257 -646q23 -61 41.5 -80t64.5 -21v-18h-293v18q54 6 68.5 23t-0.5 55l-55 140h-291l-5 -14q-22 -57 -32.5 -91.5t-13.5 -57t8 -33.5t25 -15t43 -7v-18h-225zM349 605l-126 -320h251zM383 932h16l145 -139h-23
l-130 59l-130 -59h-23z" />
    <glyph glyph-name="Atilde" unicode="&#xc3;" horiz-adv-x="781" 
d="M5 0h-2v18q49 4 71 31.5t64 138.5l215 542q32 5 56 35h4l257 -646q23 -61 41.5 -80t64.5 -21v-18h-293v18q54 6 68.5 23t-0.5 55l-55 140h-291l-5 -14q-22 -57 -32.5 -91.5t-13.5 -57t8 -33.5t25 -15t43 -7v-18h-225zM349 605l-126 -320h251zM493 864h2q51 0 61 50h16
q0 -53 -24 -90t-69 -37q-34 0 -83.5 30.5t-79.5 30.5q-53 0 -63 -50h-16q0 53 24 90t69 37q33 0 83.5 -30.5t79.5 -30.5z" />
    <glyph glyph-name="Adieresis" unicode="&#xc4;" horiz-adv-x="781" 
d="M5 0h-2v18q49 4 71 31.5t64 138.5l215 542q32 5 56 35h4l257 -646q23 -61 41.5 -80t64.5 -21v-18h-293v18q54 6 68.5 23t-0.5 55l-55 140h-291l-5 -14q-22 -57 -32.5 -91.5t-13.5 -57t8 -33.5t25 -15t43 -7v-18h-225zM349 605l-126 -320h251zM440 860q0 27 18 45.5
t46 18.5q26 0 44.5 -18.5t18.5 -45.5q0 -28 -18.5 -46t-44.5 -18q-28 0 -46 18t-18 46zM213 860q0 27 18 45.5t46 18.5q26 0 44 -18.5t18 -45.5q0 -28 -18 -46t-44 -18q-28 0 -46 18t-18 46z" />
    <glyph glyph-name="Aring" unicode="&#xc5;" horiz-adv-x="781" 
d="M5 0h-2v18q49 4 71 31.5t64 138.5l215 542q32 5 56 35h4l257 -646q23 -61 41.5 -80t64.5 -21v-18h-293v18q54 6 68.5 23t-0.5 55l-55 140h-291l-5 -14q-22 -57 -32.5 -91.5t-13.5 -57t8 -33.5t25 -15t43 -7v-18h-225zM349 605l-126 -320h251zM294 880q0 39 27 66.5
t66 27.5t66.5 -27.5t27.5 -66.5q0 -38 -27.5 -65.5t-66.5 -27.5t-66 27.5t-27 65.5zM333 880q0 -25 15 -40.5t39 -15.5q23 0 38.5 15.5t15.5 40.5t-15.5 41t-38.5 16q-24 0 -39 -16t-15 -41z" />
    <glyph glyph-name="AE" unicode="&#xc6;" horiz-adv-x="1096" 
d="M518 725v1h256q149 0 225 3l27 -224h-18q-14 44 -29 75t-37 51.5t-42.5 32t-56.5 17.5t-67 7.5t-85 1.5h-57v-293h136q45 0 70 25.5t33 86.5h18v-268h-18q-8 61 -33 86.5t-70 25.5h-136v-272q0 -28 8.5 -37t38.5 -9h19q78 0 125 6t89 25.5t69 57.5t49 100h19l-39 -224
q-76 1 -224 1h-369v16q68 8 83.5 27t15.5 95v98h-262l-9 -14q-42 -64 -61.5 -100.5t-22 -60.5t11.5 -33t48 -12v-16h-240v16q52 4 88.5 37t101.5 134zM518 647l-225 -352h225v352z" />
    <glyph glyph-name="Ccedilla" unicode="&#xc7;" horiz-adv-x="739" 
d="M179 366h3q0 -155 67 -243.5t184 -88.5q96 0 160 51t89 120l27 -9q-22 -85 -100.5 -147t-194.5 -62h-9l-42 -70q17 9 42 9q34 0 54.5 -20.5t20.5 -50.5q0 -46 -33 -70t-73 -24q-48 0 -99 29l10 22q26 -14 64 -14q28 0 45 12t17 35q0 33 -36.5 40.5t-62.5 -9.5l-9 5
l64 108q-146 15 -231.5 121t-85.5 257q0 171 112.5 274.5t275.5 103.5q118 0 214 -40l23 -220h-19q-27 119 -84 171.5t-152 52.5q-100 0 -170.5 -87t-70.5 -256z" />
    <glyph glyph-name="Egrave" unicode="&#xc8;" horiz-adv-x="715" 
d="M183 922h157l83 -129h-21zM670 223l-39 -224q-76 1 -224 1h-369v18q69 8 84 27t15 101v433q0 31 -0.5 48t-5.5 32t-9 21.5t-18.5 12.5t-26.5 8t-39 6v18h355q149 0 225 3l27 -224h-18q-14 44 -29 75t-37 51.5t-42.5 32t-56.5 17.5t-67 7.5t-85 1.5h-56v-293h135
q45 0 70 25.5t33 86.5h18v-268h-18q-8 61 -33 86.5t-70 25.5h-135v-272q0 -29 8 -37.5t38 -8.5h21q77 0 124 6t88.5 26t68.5 57.5t49 99.5h19z" />
    <glyph glyph-name="Eacute" unicode="&#xc9;" horiz-adv-x="715" 
d="M670 223l-39 -224q-76 1 -224 1h-369v18q69 8 84 27t15 101v433q0 31 -0.5 48t-5.5 32t-9 21.5t-18.5 12.5t-26.5 8t-39 6v18h355q149 0 225 3l27 -224h-18q-14 44 -29 75t-37 51.5t-42.5 32t-56.5 17.5t-67 7.5t-85 1.5h-56v-293h135q45 0 70 25.5t33 86.5h18v-268h-18
q-8 61 -33 86.5t-70 25.5h-135v-272q0 -29 8 -37.5t38 -8.5h21q77 0 124 6t88.5 26t68.5 57.5t49 99.5h19zM578 922l-219 -129h-21l83 129h157z" />
    <glyph glyph-name="Ecircumflex" unicode="&#xca;" horiz-adv-x="715" 
d="M364 932h16l145 -139h-23l-130 59l-130 -59h-23zM670 223l-39 -224q-76 1 -224 1h-369v18q69 8 84 27t15 101v433q0 31 -0.5 48t-5.5 32t-9 21.5t-18.5 12.5t-26.5 8t-39 6v18h355q149 0 225 3l27 -224h-18q-14 44 -29 75t-37 51.5t-42.5 32t-56.5 17.5t-67 7.5t-85 1.5
h-56v-293h135q45 0 70 25.5t33 86.5h18v-268h-18q-8 61 -33 86.5t-70 25.5h-135v-272q0 -29 8 -37.5t38 -8.5h21q77 0 124 6t88.5 26t68.5 57.5t49 99.5h19z" />
    <glyph glyph-name="Edieresis" unicode="&#xcb;" horiz-adv-x="715" 
d="M670 223l-39 -224q-76 1 -224 1h-369v18q69 8 84 27t15 101v433q0 31 -0.5 48t-5.5 32t-9 21.5t-18.5 12.5t-26.5 8t-39 6v18h355q149 0 225 3l27 -224h-18q-14 44 -29 75t-37 51.5t-42.5 32t-56.5 17.5t-67 7.5t-85 1.5h-56v-293h135q45 0 70 25.5t33 86.5h18v-268h-18
q-8 61 -33 86.5t-70 25.5h-135v-272q0 -29 8 -37.5t38 -8.5h21q77 0 124 6t88.5 26t68.5 57.5t49 99.5h19zM423 860q0 27 18 45.5t46 18.5q26 0 44.5 -18.5t18.5 -45.5q0 -28 -18 -46t-45 -18q-28 0 -46 18t-18 46zM196 860q0 27 18 45.5t46 18.5q26 0 44 -18.5t18 -45.5
q0 -28 -18 -46t-44 -18q-28 0 -46 18t-18 46z" />
    <glyph glyph-name="Igrave" unicode="&#xcc;" horiz-adv-x="391" 
d="M254 579v-433q0 -82 15 -101t84 -27v-18h-315v18q69 8 84 27t15 101v433q0 31 -0.5 48t-5.5 32t-9 21.5t-18.5 12.5t-26.5 8t-39 6v18h315v-18q-27 -4 -39 -6t-26.5 -8t-18.5 -12.5t-9 -21.5t-5.5 -32t-0.5 -48zM20 922h157l83 -129h-21z" />
    <glyph glyph-name="Iacute" unicode="&#xcd;" horiz-adv-x="391" 
d="M254 579v-433q0 -82 15 -101t84 -27v-18h-315v18q69 8 84 27t15 101v433q0 31 -0.5 48t-5.5 32t-9 21.5t-18.5 12.5t-26.5 8t-39 6v18h315v-18q-27 -4 -39 -6t-26.5 -8t-18.5 -12.5t-9 -21.5t-5.5 -32t-0.5 -48zM386 922l-219 -129h-21l83 129h157z" />
    <glyph glyph-name="Icircumflex" unicode="&#xce;" horiz-adv-x="391" 
d="M254 579v-433q0 -82 15 -101t84 -27v-18h-315v18q69 8 84 27t15 101v433q0 31 -0.5 48t-5.5 32t-9 21.5t-18.5 12.5t-26.5 8t-39 6v18h315v-18q-27 -4 -39 -6t-26.5 -8t-18.5 -12.5t-9 -21.5t-5.5 -32t-0.5 -48zM184 932h16l145 -139h-23l-130 59l-130 -59h-23z" />
    <glyph glyph-name="Idieresis" unicode="&#xcf;" horiz-adv-x="391" 
d="M254 579v-433q0 -82 15 -101t84 -27v-18h-315v18q69 8 84 27t15 101v433q0 31 -0.5 48t-5.5 32t-9 21.5t-18.5 12.5t-26.5 8t-39 6v18h315v-18q-27 -4 -39 -6t-26.5 -8t-18.5 -12.5t-9 -21.5t-5.5 -32t-0.5 -48zM246 860q0 27 18 45.5t46 18.5q26 0 44.5 -18.5
t18.5 -45.5q0 -28 -18.5 -46t-44.5 -18q-28 0 -46 18t-18 46zM19 860q0 27 18 45.5t46 18.5q26 0 44 -18.5t18 -45.5q0 -28 -18 -46t-44 -18q-28 0 -46 18t-18 46z" />
    <glyph glyph-name="Eth" unicode="&#xd0;" horiz-adv-x="812" 
d="M51 725h316q79 0 148 -20.5t125.5 -62t89.5 -113t33 -164.5t-32 -165t-88.5 -114.5t-126 -64t-150.5 -21.5h-315v18q69 8 84 27t15 101v206h-104v44h104v183q0 31 -0.5 48t-5.5 32t-9 21.5t-18.5 12.5t-26.5 8t-39 6v18zM267 36h98q125 0 197 85t72 244q0 158 -73 241
t-199 83h-95v-293h148v-44h-148v-316z" />
    <glyph glyph-name="Ntilde" unicode="&#xd1;" horiz-adv-x="804" 
d="M524 864h2q51 0 61 50h16q0 -53 -24 -90t-69 -37q-34 0 -83.5 30.5t-79.5 30.5q-53 0 -63 -50h-16q0 53 24 90t69 37q33 0 83.5 -30.5t79.5 -30.5zM643 176l-1 -1v403q0 31 -0.5 48t-5.5 32t-9 21.5t-18.5 12.5t-26.5 8t-39 6v18h244v-18q-27 -4 -38.5 -6t-26 -8
t-19 -12.5t-9.5 -21t-5.5 -32.5t-0.5 -48v-587h-50l-456 576v-422q0 -82 15.5 -101t83.5 -27v-18h-244v18q68 8 83.5 27t15.5 101v480l-4 5q-47 61 -82 79v16h159z" />
    <glyph glyph-name="Ograve" unicode="&#xd2;" horiz-adv-x="848" 
d="M254 922h157l83 -129h-21zM50 366q0 88 31.5 161.5t84.5 120t119.5 72t138.5 25.5t138.5 -25.5t119.5 -72t84.5 -120t31.5 -161.5t-31.5 -161.5t-84.5 -120t-119.5 -72t-138.5 -25.5t-138.5 25.5t-119.5 72t-84.5 120t-31.5 161.5zM668 366q0 154 -68 248.5t-176 94.5
t-176 -94.5t-68 -248.5t68 -248.5t176 -94.5t176 94.5t68 248.5z" />
    <glyph glyph-name="Oacute" unicode="&#xd3;" horiz-adv-x="848" 
d="M631 922l-219 -129h-21l83 129h157zM50 366q0 88 31.5 161.5t84.5 120t119.5 72t138.5 25.5t138.5 -25.5t119.5 -72t84.5 -120t31.5 -161.5t-31.5 -161.5t-84.5 -120t-119.5 -72t-138.5 -25.5t-138.5 25.5t-119.5 72t-84.5 120t-31.5 161.5zM668 366q0 154 -68 248.5
t-176 94.5t-176 -94.5t-68 -248.5t68 -248.5t176 -94.5t176 94.5t68 248.5z" />
    <glyph glyph-name="Ocircumflex" unicode="&#xd4;" horiz-adv-x="848" 
d="M416 932h16l145 -139h-23l-130 59l-130 -59h-23zM50 366q0 88 31.5 161.5t84.5 120t119.5 72t138.5 25.5t138.5 -25.5t119.5 -72t84.5 -120t31.5 -161.5t-31.5 -161.5t-84.5 -120t-119.5 -72t-138.5 -25.5t-138.5 25.5t-119.5 72t-84.5 120t-31.5 161.5zM668 366
q0 154 -68 248.5t-176 94.5t-176 -94.5t-68 -248.5t68 -248.5t176 -94.5t176 94.5t68 248.5z" />
    <glyph glyph-name="Otilde" unicode="&#xd5;" horiz-adv-x="848" 
d="M50 366q0 88 31.5 161.5t84.5 120t119.5 72t138.5 25.5t138.5 -25.5t119.5 -72t84.5 -120t31.5 -161.5t-31.5 -161.5t-84.5 -120t-119.5 -72t-138.5 -25.5t-138.5 25.5t-119.5 72t-84.5 120t-31.5 161.5zM668 366q0 154 -68 248.5t-176 94.5t-176 -94.5t-68 -248.5
t68 -248.5t176 -94.5t176 94.5t68 248.5zM517 864h2q51 0 61 50h16q0 -53 -24 -90t-69 -37q-34 0 -83.5 30.5t-79.5 30.5q-53 0 -63 -50h-16q0 53 24 90t69 37q33 0 83.5 -30.5t79.5 -30.5z" />
    <glyph glyph-name="Odieresis" unicode="&#xd6;" horiz-adv-x="848" 
d="M50 366q0 88 31.5 161.5t84.5 120t119.5 72t138.5 25.5t138.5 -25.5t119.5 -72t84.5 -120t31.5 -161.5t-31.5 -161.5t-84.5 -120t-119.5 -72t-138.5 -25.5t-138.5 25.5t-119.5 72t-84.5 120t-31.5 161.5zM668 366q0 154 -68 248.5t-176 94.5t-176 -94.5t-68 -248.5
t68 -248.5t176 -94.5t176 94.5t68 248.5zM474 860q0 27 18 45.5t46 18.5q26 0 44.5 -18.5t18.5 -45.5q0 -28 -18.5 -46t-44.5 -18q-28 0 -46 18t-18 46zM247 860q0 27 18 45.5t46 18.5q26 0 44 -18.5t18 -45.5q0 -28 -18 -46t-44 -18q-28 0 -46 18t-18 46z" />
    <glyph glyph-name="multiply" unicode="&#xd7;" 
d="M574 88l-51 -51l-185 185l-183 -183l-51 51l183 184l-183 183l51 51l183 -183l183 183l51 -51l-182 -183z" />
    <glyph glyph-name="Oslash" unicode="&#xd8;" horiz-adv-x="848" 
d="M50 366h1q0 88 31.5 161.5t84.5 120t119.5 72t138.5 25.5q98 0 183 -46l69 97l35 -23l-68 -96q154 -107 154 -311q0 -88 -31.5 -161.5t-84.5 -120t-119.5 -72t-138.5 -25.5q-121 0 -219 66l-71 -101l-35 23l73 104q-122 107 -122 287zM669 366q0 153 -68 248l-351 -498
q67 -93 175 -93t176 94.5t68 248.5zM181 366h-1q0 -124 45 -212l347 493q-62 62 -147 62q-108 0 -176 -94.5t-68 -248.5z" />
    <glyph glyph-name="Ugrave" unicode="&#xd9;" horiz-adv-x="787" 
d="M232 922h157l83 -129h-21zM120 273v1v306q0 44 -2 64.5t-15 35t-28.5 18t-53.5 9.5v18h314v-18q-27 -4 -38.5 -6t-26 -8t-19 -12.5t-9.5 -21t-5.5 -32.5t-0.5 -48v-295q0 -247 188 -247q200 0 200 261v281q0 30 -0.5 48t-5.5 32.5t-9.5 21t-19 12.5t-26 8t-38.5 6v18h244
v-18q-27 -4 -39 -6t-26.5 -8t-18.5 -12.5t-9 -21.5t-5.5 -32t-0.5 -48v-280q0 -158 -67.5 -235t-207.5 -77q-275 0 -275 286z" />
    <glyph glyph-name="Uacute" unicode="&#xda;" horiz-adv-x="787" 
d="M120 273v1v306q0 44 -2 64.5t-15 35t-28.5 18t-53.5 9.5v18h314v-18q-27 -4 -38.5 -6t-26 -8t-19 -12.5t-9.5 -21t-5.5 -32.5t-0.5 -48v-295q0 -247 188 -247q200 0 200 261v281q0 30 -0.5 48t-5.5 32.5t-9.5 21t-19 12.5t-26 8t-38.5 6v18h244v-18q-27 -4 -39 -6
t-26.5 -8t-18.5 -12.5t-9 -21.5t-5.5 -32t-0.5 -48v-280q0 -158 -67.5 -235t-207.5 -77q-275 0 -275 286zM629 923l-219 -129h-21l83 129h157z" />
    <glyph glyph-name="Ucircumflex" unicode="&#xdb;" horiz-adv-x="787" 
d="M418 932h16l145 -139h-23l-130 59l-130 -59h-23zM120 273v1v306q0 44 -2 64.5t-15 35t-28.5 18t-53.5 9.5v18h314v-18q-27 -4 -38.5 -6t-26 -8t-19 -12.5t-9.5 -21t-5.5 -32.5t-0.5 -48v-295q0 -247 188 -247q200 0 200 261v281q0 30 -0.5 48t-5.5 32.5t-9.5 21t-19 12.5
t-26 8t-38.5 6v18h244v-18q-27 -4 -39 -6t-26.5 -8t-18.5 -12.5t-9 -21.5t-5.5 -32t-0.5 -48v-280q0 -158 -67.5 -235t-207.5 -77q-275 0 -275 286z" />
    <glyph glyph-name="Udieresis" unicode="&#xdc;" horiz-adv-x="787" 
d="M120 273v1v306q0 44 -2 64.5t-15 35t-28.5 18t-53.5 9.5v18h314v-18q-27 -4 -38.5 -6t-26 -8t-19 -12.5t-9.5 -21t-5.5 -32.5t-0.5 -48v-295q0 -247 188 -247q200 0 200 261v281q0 30 -0.5 48t-5.5 32.5t-9.5 21t-19 12.5t-26 8t-38.5 6v18h244v-18q-27 -4 -39 -6
t-26.5 -8t-18.5 -12.5t-9 -21.5t-5.5 -32t-0.5 -48v-280q0 -158 -67.5 -235t-207.5 -77q-275 0 -275 286zM476 861q0 27 18 45.5t46 18.5q26 0 44.5 -18.5t18.5 -45.5t-18.5 -45.5t-44.5 -18.5q-28 0 -46 18t-18 46zM249 861q0 27 18 45.5t46 18.5q26 0 44 -18.5t18 -45.5
q0 -28 -18 -46t-44 -18q-28 0 -46 18t-18 46z" />
    <glyph glyph-name="Yacute" unicode="&#xdd;" horiz-adv-x="726" 
d="M412 290h-1v-144q0 -78 18 -99.5t92 -27.5v-19h-337v19q74 6 92 28t18 99v139l-187 326q-32 54 -51 72t-53 24v18h294v-18q-53 -6 -68.5 -22.5t2.5 -51.5l161 -290l131 223q32 54 38 84t-8.5 42t-51.5 15v18h220v-18q-41 -6 -69 -30t-61 -82zM602 922l-219 -129h-21
l83 129h157z" />
    <glyph glyph-name="Thorn" unicode="&#xde;" horiz-adv-x="669" 
d="M254 222h82q99 0 146.5 37t47.5 136q0 100 -47.5 137t-146.5 37h-82v-347zM659 395q0 -210 -314 -210h-91v-40q0 -44 1.5 -62t13 -34.5t32 -21.5t61.5 -8v-19h-324v18q69 8 84 27t15 101v433q0 31 -0.5 48t-5.5 32t-9 21.5t-18.5 12.5t-26.5 8t-39 6v18h216v-120h91
q314 0 314 -210z" />
    <glyph glyph-name="germandbls" unicode="&#xdf;" horiz-adv-x="673" 
d="M41 0v1v18q57 6 68.5 26t11.5 100v357q0 134 67.5 217t182.5 83q96 0 149.5 -40.5t53.5 -105.5q0 -52 -38 -96.5t-92 -69.5v-3q84 -34 132.5 -103t48.5 -149q0 -105 -70.5 -176t-167.5 -71q-71 0 -121 14v74h2q33 -27 59 -39t60 -12q61 0 95.5 48.5t34.5 120.5
q0 79 -50 146t-149 85v22l23 10q136 58 136 181q0 127 -113 127q-138 0 -138 -240v-322l2 -203h-187z" />
    <glyph glyph-name="agrave" unicode="&#xe0;" horiz-adv-x="551" 
d="M351 92l3 216q-88 -33 -140 -66q-34 -21 -47.5 -42t-11.5 -52q2 -41 30 -72t72 -31q49 0 94 47zM354 66h-2q-47 -43 -72 -58q-29 -19 -84 -19q-59 0 -108.5 38t-49.5 94q0 46 37.5 78.5t123.5 74.5q71 34 155 70v23q0 77 -24.5 109.5t-76.5 32.5q-108 0 -99 -139h-102
q0 66 66 122t159 56q81 0 130 -38.5t47 -131.5l-5 -259q-1 -40 7 -52.5t30 -12.5q17 0 44 20l10 -10q-1 -2 -8.5 -11t-10 -11.5t-9.5 -10.5t-10.5 -11t-10 -9t-12 -8t-12.5 -5.5t-14.5 -4.5t-15.5 -1q-33 0 -56.5 19t-26.5 55zM110 774h129l73 -169h-16z" />
    <glyph glyph-name="aacute" unicode="&#xe1;" horiz-adv-x="551" 
d="M351 92l3 216q-88 -33 -140 -66q-34 -21 -47.5 -42t-11.5 -52q2 -41 30 -72t72 -31q49 0 94 47zM354 66h-2q-47 -43 -72 -58q-29 -19 -84 -19q-59 0 -108.5 38t-49.5 94q0 46 37.5 78.5t123.5 74.5q71 34 155 70v23q0 77 -24.5 109.5t-76.5 32.5q-108 0 -99 -139h-102
q0 66 66 122t159 56q81 0 130 -38.5t47 -131.5l-5 -259q-1 -40 7 -52.5t30 -12.5q17 0 44 20l10 -10q-1 -2 -8.5 -11t-10 -11.5t-9.5 -10.5t-10.5 -11t-10 -9t-12 -8t-12.5 -5.5t-14.5 -4.5t-15.5 -1q-33 0 -56.5 19t-26.5 55zM322 774h129l-186 -169h-16z" />
    <glyph glyph-name="acircumflex" unicode="&#xe2;" horiz-adv-x="551" 
d="M351 92l3 216q-88 -33 -140 -66q-34 -21 -47.5 -42t-11.5 -52q2 -41 30 -72t72 -31q49 0 94 47zM354 66h-2q-47 -43 -72 -58q-29 -19 -84 -19q-59 0 -108.5 38t-49.5 94q0 46 37.5 78.5t123.5 74.5q71 34 155 70v23q0 77 -24.5 109.5t-76.5 32.5q-108 0 -99 -139h-102
q0 66 66 122t159 56q81 0 130 -38.5t47 -131.5l-5 -259q-1 -40 7 -52.5t30 -12.5q17 0 44 20l10 -10q-1 -2 -8.5 -11t-10 -11.5t-9.5 -10.5t-10.5 -11t-10 -9t-12 -8t-12.5 -5.5t-14.5 -4.5t-15.5 -1q-33 0 -56.5 19t-26.5 55zM278 774l158 -169h-20l-145 81l-145 -81h-19
l158 169h13z" />
    <glyph glyph-name="atilde" unicode="&#xe3;" horiz-adv-x="551" 
d="M351 92l3 216q-88 -33 -140 -66q-34 -21 -47.5 -42t-11.5 -52q2 -41 30 -72t72 -31q49 0 94 47zM354 66h-2q-47 -43 -72 -58q-29 -19 -84 -19q-59 0 -108.5 38t-49.5 94q0 46 37.5 78.5t123.5 74.5q71 34 155 70v23q0 77 -24.5 109.5t-76.5 32.5q-108 0 -99 -139h-102
q0 66 66 122t159 56q81 0 130 -38.5t47 -131.5l-5 -259q-1 -40 7 -52.5t30 -12.5q17 0 44 20l10 -10q-1 -2 -8.5 -11t-10 -11.5t-9.5 -10.5t-10.5 -11t-10 -9t-12 -8t-12.5 -5.5t-14.5 -4.5t-15.5 -1q-33 0 -56.5 19t-26.5 55zM126 637h1h-19q0 53 24 94.5t70 41.5
q30 0 80 -31.5t70 -31.5q27 0 40 14t15 46h19q0 -131 -86 -131q-35 0 -84 31.5t-74 31.5q-24 0 -39 -17t-17 -48z" />
    <glyph glyph-name="adieresis" unicode="&#xe4;" horiz-adv-x="551" 
d="M351 92l3 216q-88 -33 -140 -66q-34 -21 -47.5 -42t-11.5 -52q2 -41 30 -72t72 -31q49 0 94 47zM354 66h-2q-47 -43 -72 -58q-29 -19 -84 -19q-59 0 -108.5 38t-49.5 94q0 46 37.5 78.5t123.5 74.5q71 34 155 70v23q0 77 -24.5 109.5t-76.5 32.5q-108 0 -99 -139h-102
q0 66 66 122t159 56q81 0 130 -38.5t47 -131.5l-5 -259q-1 -40 7 -52.5t30 -12.5q17 0 44 20l10 -10q-1 -2 -8.5 -11t-10 -11.5t-9.5 -10.5t-10.5 -11t-10 -9t-12 -8t-12.5 -5.5t-14.5 -4.5t-15.5 -1q-33 0 -56.5 19t-26.5 55zM100 711q0 27 18 45t46 18q26 0 44 -18t18 -45
q0 -29 -17.5 -47t-44.5 -18q-28 0 -46 18t-18 47zM319 711q0 27 18.5 45t46.5 18q26 0 44 -18t18 -45q0 -29 -17.5 -47t-44.5 -18q-28 0 -46.5 18t-18.5 47z" />
    <glyph glyph-name="aring" unicode="&#xe5;" horiz-adv-x="551" 
d="M351 92l3 216q-88 -33 -140 -66q-34 -21 -47.5 -42t-11.5 -52q2 -41 30 -72t72 -31q49 0 94 47zM354 66h-2q-47 -43 -72 -58q-29 -19 -84 -19q-59 0 -108.5 38t-49.5 94q0 46 37.5 78.5t123.5 74.5q71 34 155 70v23q0 77 -24.5 109.5t-76.5 32.5q-108 0 -99 -139h-102
q0 66 66 122t159 56q81 0 130 -38.5t47 -131.5l-5 -259q-1 -40 7 -52.5t30 -12.5q17 0 44 20l10 -10q-1 -2 -8.5 -11t-10 -11.5t-9.5 -10.5t-10.5 -11t-10 -9t-12 -8t-12.5 -5.5t-14.5 -4.5t-15.5 -1q-33 0 -56.5 19t-26.5 55zM175 703q0 40 27 67t66 27t66.5 -27t27.5 -67
q0 -38 -27.5 -65.5t-66.5 -27.5t-66 27.5t-27 65.5zM214 703q0 -25 15 -40t39 -15t39 15t15 40t-15.5 41t-38.5 16q-24 0 -39 -16t-15 -41z" />
    <glyph glyph-name="ae" unicode="&#xe6;" horiz-adv-x="846" 
d="M588 -13h-1q-136 0 -199 105q-76 -105 -190 -105q-59 0 -108.5 38t-49.5 94q0 46 37.5 78.5t123.5 74.5q71 34 155 70v23q0 77 -24.5 109.5t-76.5 32.5q-108 0 -99 -139h-102q0 66 66 122t159 56q106 0 140 -84q74 85 175 85q85 0 142.5 -56t63.5 -161h-358v-5
q0 -113 51.5 -181t142.5 -68q94 0 161 65l12 -10q-83 -144 -221 -144zM575 510q-52 0 -87 -35t-44 -106h235q2 60 -25 100.5t-79 40.5zM350 107l2 201q-88 -33 -140 -66q-34 -21 -47.5 -42t-11.5 -52q2 -39 29.5 -63.5t73.5 -24.5q49 0 94 47z" />
    <glyph glyph-name="ccedilla" unicode="&#xe7;" horiz-adv-x="508" 
d="M171 -119h3l65 108q-96 12 -146.5 86.5t-50.5 181.5q0 131 82 210.5t196 79.5q62 0 104 -30.5t42 -70.5q0 -24 -15.5 -39t-41.5 -15q-35 0 -48 28l-32 66q-10 20 -38 20q-62 0 -108 -49.5t-46 -149.5q0 -99 50 -165t141 -66q79 0 143 56l11 -10q-80 -134 -208 -135
l-42 -70q19 9 42 9q34 0 55.5 -20.5t21.5 -50.5q0 -46 -34 -70t-75 -24q-47 0 -98 29l10 22q30 -14 63 -14q29 0 46 12t17 35q0 22 -18 32.5t-41 9t-41 -10.5z" />
    <glyph glyph-name="egrave" unicode="&#xe8;" horiz-adv-x="536" 
d="M278 -13h-1q-118 0 -179 76t-61 200q0 117 72.5 200.5t174.5 83.5q85 0 142.5 -56t63.5 -161h-358v-5q0 -113 51.5 -181t142.5 -68q94 0 161 65l12 -10q-83 -144 -221 -144zM265 510q-52 0 -87 -35t-44 -106h235q2 60 -25 100.5t-79 40.5zM103 772h129l73 -169h-16z" />
    <glyph glyph-name="eacute" unicode="&#xe9;" horiz-adv-x="536" 
d="M321 772h129l-186 -169h-16zM278 -13h-1q-118 0 -179 76t-61 200q0 117 72.5 200.5t174.5 83.5q85 0 142.5 -56t63.5 -161h-358v-5q0 -113 51.5 -181t142.5 -68q94 0 161 65l12 -10q-83 -144 -221 -144zM265 510q-52 0 -87 -35t-44 -106h235q2 60 -25 100.5t-79 40.5z
" />
    <glyph glyph-name="ecircumflex" unicode="&#xea;" horiz-adv-x="536" 
d="M287 772l158 -169h-20l-145 81l-145 -81h-19l158 169h13zM278 -13h-1q-118 0 -179 76t-61 200q0 117 72.5 200.5t174.5 83.5q85 0 142.5 -56t63.5 -161h-358v-5q0 -113 51.5 -181t142.5 -68q94 0 161 65l12 -10q-83 -144 -221 -144zM265 510q-52 0 -87 -35t-44 -106h235
q2 60 -25 100.5t-79 40.5z" />
    <glyph glyph-name="edieresis" unicode="&#xeb;" horiz-adv-x="536" 
d="M112 709q0 27 18 45t46 18q26 0 44 -18t18 -45q0 -29 -17.5 -47t-44.5 -18q-28 0 -46 18t-18 47zM331 709q0 27 18.5 45t46.5 18q26 0 44 -18t18 -45q0 -29 -17.5 -47t-44.5 -18q-28 0 -46.5 18t-18.5 47zM278 -13h-1q-118 0 -179 76t-61 200q0 117 72.5 200.5
t174.5 83.5q85 0 142.5 -56t63.5 -161h-358v-5q0 -113 51.5 -181t142.5 -68q94 0 161 65l12 -10q-83 -144 -221 -144zM265 510q-52 0 -87 -35t-44 -106h235q2 60 -25 100.5t-79 40.5z" />
    <glyph glyph-name="igrave" unicode="&#xec;" horiz-adv-x="339" 
d="M226 328v-184q0 -80 11.5 -100t68.5 -26v-18h-266v18q57 6 68.5 26t11.5 100v222q0 74 -10.5 87.5t-69.5 13.5v18l188 62q-2 -106 -2 -219zM13 772h129l73 -169h-16z" />
    <glyph glyph-name="iacute" unicode="&#xed;" horiz-adv-x="339" 
d="M186 772h129l-186 -169h-16zM226 328v-184q0 -80 11.5 -100t68.5 -26v-18h-266v18q57 6 68.5 26t11.5 100v222q0 74 -10.5 87.5t-69.5 13.5v18l188 62q-2 -106 -2 -219z" />
    <glyph glyph-name="icircumflex" unicode="&#xee;" horiz-adv-x="339" 
d="M174 772l158 -169h-20l-145 81l-145 -81h-19l158 169h13zM226 328v-184q0 -80 11.5 -100t68.5 -26v-18h-266v18q57 6 68.5 26t11.5 100v222q0 74 -10.5 87.5t-69.5 13.5v18l188 62q-2 -106 -2 -219z" />
    <glyph glyph-name="idieresis" unicode="&#xef;" horiz-adv-x="339" 
d="M-5 709q0 27 18 45t46 18q26 0 44 -18t18 -45q0 -29 -17.5 -47t-44.5 -18q-28 0 -46 18t-18 47zM214 709q0 27 18.5 45t46.5 18q26 0 44 -18t18 -45q0 -29 -17.5 -47t-44.5 -18q-28 0 -46.5 18t-18.5 47zM226 328v-184q0 -80 11.5 -100t68.5 -26v-18h-266v18
q57 6 68.5 26t11.5 100v222q0 74 -10.5 87.5t-69.5 13.5v18l188 62q-2 -106 -2 -219z" />
    <glyph glyph-name="eth" unicode="&#xf0;" horiz-adv-x="592" 
d="M292 -13q-110 0 -182.5 74t-72.5 192q0 125 78 209t179 84q47 0 84 -23q-50 99 -149 159l-73 -80l-24 21l69 76q-44 23 -105 43l7 19q63 -11 123 -33l61 67l25 -21l-54 -59q128 -57 209 -162t81 -236q0 -146 -70 -238t-186 -92zM430 255q0 114 -27 204q-39 52 -108 52
q-71 0 -106.5 -59t-35.5 -157q0 -113 40 -192.5t111 -79.5q57 0 91.5 55t34.5 177z" />
    <glyph glyph-name="ntilde" unicode="&#xf1;" horiz-adv-x="607" 
d="M17 467v18l185 62l1 -92q35 42 71.5 67t87.5 25q69 0 110.5 -47.5t41.5 -142.5v-213q0 -80 11.5 -100t68.5 -26v-18h-264v18q55 6 66.5 26t11.5 100v192q0 138 -100 138q-71 0 -105 -46v-284q0 -80 11.5 -100t66.5 -26v-18h-264v18q57 6 68.5 26t11.5 100v225
q0 72 -10.5 85t-69.5 13zM163 635h1h-19q0 53 24 94.5t70 41.5q29 0 79 -31.5t71 -31.5q27 0 40 14t15 46h19q0 -131 -86 -131q-35 0 -84 31.5t-74 31.5q-24 0 -39 -17t-17 -48z" />
    <glyph glyph-name="ograve" unicode="&#xf2;" horiz-adv-x="624" 
d="M134 772h129l73 -169h-16zM296 508q-71 0 -107 -54t-36 -151q0 -40 9.5 -85.5t28.5 -89.5t54 -73t80 -29q70 0 105 54t35 152q0 40 -9.5 85t-28 89t-53 73t-78.5 29zM306 547q111 0 192.5 -79.5t81.5 -199.5q0 -117 -78 -199t-189 -82t-192.5 80t-81.5 201
q0 117 77.5 198t189.5 81z" />
    <glyph glyph-name="oacute" unicode="&#xf3;" horiz-adv-x="624" 
d="M347 772h129l-186 -169h-16zM296 508q-71 0 -107 -54t-36 -151q0 -40 9.5 -85.5t28.5 -89.5t54 -73t80 -29q70 0 105 54t35 152q0 40 -9.5 85t-28 89t-53 73t-78.5 29zM306 547q111 0 192.5 -79.5t81.5 -199.5q0 -117 -78 -199t-189 -82t-192.5 80t-81.5 201
q0 117 77.5 198t189.5 81z" />
    <glyph glyph-name="ocircumflex" unicode="&#xf4;" horiz-adv-x="624" 
d="M316 772l158 -169h-20l-145 81l-145 -81h-19l158 169h13zM296 508q-71 0 -107 -54t-36 -151q0 -40 9.5 -85.5t28.5 -89.5t54 -73t80 -29q70 0 105 54t35 152q0 40 -9.5 85t-28 89t-53 73t-78.5 29zM306 547q111 0 192.5 -79.5t81.5 -199.5q0 -117 -78 -199t-189 -82
t-192.5 80t-81.5 201q0 117 77.5 198t189.5 81z" />
    <glyph glyph-name="otilde" unicode="&#xf5;" horiz-adv-x="624" 
d="M296 508q-71 0 -107 -54t-36 -151q0 -40 9.5 -85.5t28.5 -89.5t54 -73t80 -29q70 0 105 54t35 152q0 40 -9.5 85t-28 89t-53 73t-78.5 29zM306 547q111 0 192.5 -79.5t81.5 -199.5q0 -117 -78 -199t-189 -82t-192.5 80t-81.5 201q0 117 77.5 198t189.5 81zM169 635h1h-19
q0 53 24 94.5t70 41.5q29 0 79 -31.5t71 -31.5q27 0 40 14t15 46h19q0 -131 -86 -131q-35 0 -84 31.5t-74 31.5q-24 0 -39 -17t-17 -48z" />
    <glyph glyph-name="odieresis" unicode="&#xf6;" horiz-adv-x="624" 
d="M138 709q0 27 18 45t46 18q26 0 44 -18t18 -45q0 -29 -17.5 -47t-44.5 -18q-28 0 -46 18t-18 47zM357 709q0 27 18.5 45t46.5 18q26 0 44 -18t18 -45q0 -29 -17.5 -47t-44.5 -18q-28 0 -46.5 18t-18.5 47zM296 508q-71 0 -107 -54t-36 -151q0 -40 9.5 -85.5t28.5 -89.5
t54 -73t80 -29q70 0 105 54t35 152q0 40 -9.5 85t-28 89t-53 73t-78.5 29zM306 547q111 0 192.5 -79.5t81.5 -199.5q0 -117 -78 -199t-189 -82t-192.5 80t-81.5 201q0 117 77.5 198t189.5 81z" />
    <glyph glyph-name="divide" unicode="&#xf7;" 
d="M293 59v102h97v-102h-97zM293 385v103h97v-103h-97zM598 238h-517v68h517v-68z" />
    <glyph glyph-name="oslash" unicode="&#xf8;" horiz-adv-x="624" 
d="M306 547q85 0 153 -47l48 65l34 -24l-50 -67q89 -83 89 -206q0 -117 -78 -199t-189 -82q-79 0 -147 44l-61 -83l-34 24l61 84q-93 85 -93 212q0 117 77.5 198t189.5 81zM296 508h1q-71 0 -107 -54t-36 -151q0 -89 36 -170l223 302q-46 73 -117 73zM466 232h-1
q0 85 -32 162l-222 -301q45 -67 115 -67t105 54t35 152z" />
    <glyph glyph-name="ugrave" unicode="&#xf9;" horiz-adv-x="587" 
d="M493 342v1v-178q0 -70 10.5 -84t67.5 -16v-17l-168 -55l-13 97q-25 -43 -64.5 -72.5t-89.5 -29.5q-69 0 -113 49t-44 151q0 29 1 108.5t1 108.5q0 65 -11 81t-66 20v18l184 18q-2 -104 -2 -199v-136q0 -76 22.5 -112t72.5 -36q67 0 106 62v284q0 65 -11 81t-66 20v18
l186 18q-3 -156 -3 -200zM127 773h129l73 -169h-16z" />
    <glyph glyph-name="uacute" unicode="&#xfa;" horiz-adv-x="587" 
d="M336 772h129l-186 -169h-16zM493 342v1v-178q0 -70 10.5 -84t67.5 -16v-17l-168 -55l-13 97q-25 -43 -64.5 -72.5t-89.5 -29.5q-69 0 -113 49t-44 151q0 29 1 108.5t1 108.5q0 65 -11 81t-66 20v18l184 18q-2 -104 -2 -199v-136q0 -76 22.5 -112t72.5 -36q67 0 106 62
v284q0 65 -11 81t-66 20v18l186 18q-3 -156 -3 -200z" />
    <glyph glyph-name="ucircumflex" unicode="&#xfb;" horiz-adv-x="587" 
d="M293 772l158 -169h-20l-145 81l-145 -81h-19l158 169h13zM493 342v1v-178q0 -70 10.5 -84t67.5 -16v-17l-168 -55l-13 97q-25 -43 -64.5 -72.5t-89.5 -29.5q-69 0 -113 49t-44 151q0 29 1 108.5t1 108.5q0 65 -11 81t-66 20v18l184 18q-2 -104 -2 -199v-136
q0 -76 22.5 -112t72.5 -36q67 0 106 62v284q0 65 -11 81t-66 20v18l186 18q-3 -156 -3 -200z" />
    <glyph glyph-name="udieresis" unicode="&#xfc;" horiz-adv-x="587" 
d="M109 709q0 27 18 45t46 18q26 0 44 -18t18 -45q0 -29 -17.5 -47t-44.5 -18q-28 0 -46 18t-18 47zM328 709q0 27 18.5 45t46.5 18q26 0 44 -18t18 -45q0 -29 -17.5 -47t-44.5 -18q-28 0 -46.5 18t-18.5 47zM493 342v1v-178q0 -70 10.5 -84t67.5 -16v-17l-168 -55l-13 97
q-25 -43 -64.5 -72.5t-89.5 -29.5q-69 0 -113 49t-44 151q0 29 1 108.5t1 108.5q0 65 -11 81t-66 20v18l184 18q-2 -104 -2 -199v-136q0 -76 22.5 -112t72.5 -36q67 0 106 62v284q0 65 -11 81t-66 20v18l186 18q-3 -156 -3 -200z" />
    <glyph glyph-name="yacute" unicode="&#xfd;" horiz-adv-x="591" 
d="M151 -221l-1 1q-39 0 -62.5 17.5t-23.5 47.5q0 25 14.5 41t32.5 16q16 0 30 -16l50 -49q24 41 55 114l19 46l-194 457q-16 37 -29 51t-40 16v18h246v-18q-54 -3 -63.5 -23t8.5 -56l130 -313l108 261q28 66 22 93.5t-59 36.5v18h191v-18q-35 -5 -48 -20.5t-34 -64.5
q-3 -8 -5 -12l-209 -495q-34 -83 -61 -116t-77 -33zM374 773h129l-186 -169h-16z" />
    <glyph glyph-name="thorn" unicode="&#xfe;" horiz-adv-x="641" 
d="M345 22h1q70 0 105.5 62t35.5 161q0 103 -44.5 166t-116.5 63q-68 0 -99 -42v-344q15 -32 47 -49t71 -17zM328 -198v-1v-18h-286v18q57 6 68.5 26t11.5 100v717q0 72 -10.5 85t-69.5 13v18l188 62q-2 -106 -2 -219v-61l-3 -86q72 90 160 90q96 0 155 -76.5t59 -185.5
q0 -125 -76.5 -211.5t-176.5 -86.5q-74 0 -118 43v-102v-46.5t3.5 -31.5t8.5 -23t18 -11.5t28 -8.5t42 -4z" />
    <glyph glyph-name="ydieresis" unicode="&#xff;" horiz-adv-x="591" 
d="M151 -221l-1 1q-39 0 -62.5 17.5t-23.5 47.5q0 25 14.5 41t32.5 16q16 0 30 -16l50 -49q24 41 55 114l19 46l-194 457q-16 37 -29 51t-40 16v18h246v-18q-54 -3 -63.5 -23t8.5 -56l130 -313l108 261q28 66 22 93.5t-59 36.5v18h191v-18q-35 -5 -48 -20.5t-34 -64.5
q-3 -8 -5 -12l-209 -495q-34 -83 -61 -116t-77 -33zM143 710q0 27 18 45t46 18q26 0 44 -18t18 -45q0 -29 -17.5 -47t-44.5 -18q-28 0 -46 18t-18 47zM362 710q0 27 18.5 45t46.5 18q26 0 44 -18t18 -45q0 -29 -17.5 -47t-44.5 -18q-28 0 -46.5 18t-18.5 47z" />
    <glyph glyph-name="Amacron" unicode="&#x100;" horiz-adv-x="781" 
d="M5 0h-2v18q49 4 71 31.5t64 138.5l215 542q32 5 56 35h4l257 -646q23 -61 41.5 -80t64.5 -21v-18h-293v18q54 6 68.5 23t-0.5 55l-55 140h-291l-5 -14q-22 -57 -32.5 -91.5t-13.5 -57t8 -33.5t25 -15t43 -7v-18h-225zM349 605l-126 -320h251zM539 818h-296v68h296v-68z
" />
    <glyph glyph-name="amacron" unicode="&#x101;" horiz-adv-x="546" 
d="M351 92l3 216q-88 -33 -140 -66q-34 -21 -47.5 -42t-11.5 -52q2 -41 30 -72t72 -31q49 0 94 47zM354 66h-2q-47 -43 -72 -58q-29 -19 -84 -19q-59 0 -108.5 38t-49.5 94q0 46 37.5 78.5t123.5 74.5q71 34 155 70v23q0 77 -24.5 109.5t-76.5 32.5q-108 0 -99 -139h-102
q0 66 66 122t159 56q81 0 130 -38.5t47 -131.5l-5 -259q-1 -40 7 -52.5t30 -12.5q17 0 44 20l10 -10q-1 -2 -8.5 -11t-10 -11.5t-9.5 -10.5t-10.5 -11t-10 -9t-12 -8t-12.5 -5.5t-14.5 -4.5t-15.5 -1q-33 0 -56.5 19t-26.5 55zM413 667h-296v68h296v-68z" />
    <glyph glyph-name="Abreve" unicode="&#x102;" horiz-adv-x="781" 
d="M5 0h-2v18q49 4 71 31.5t64 138.5l215 542q32 5 56 35h4l257 -646q23 -61 41.5 -80t64.5 -21v-18h-293v18q54 6 68.5 23t-0.5 55l-55 140h-291l-5 -14q-22 -57 -32.5 -91.5t-13.5 -57t8 -33.5t25 -15t43 -7v-18h-225zM349 605l-126 -320h251zM389 830q82 0 88 96h48
q0 -54 -35 -94.5t-101 -40.5q-65 0 -99.5 40.5t-34.5 94.5h48q5 -96 86 -96z" />
    <glyph glyph-name="abreve" unicode="&#x103;" horiz-adv-x="551" 
d="M351 92l3 216q-88 -33 -140 -66q-34 -21 -47.5 -42t-11.5 -52q2 -41 30 -72t72 -31q49 0 94 47zM354 66h-2q-47 -43 -72 -58q-29 -19 -84 -19q-59 0 -108.5 38t-49.5 94q0 46 37.5 78.5t123.5 74.5q71 34 155 70v23q0 77 -24.5 109.5t-76.5 32.5q-108 0 -99 -139h-102
q0 66 66 122t159 56q81 0 130 -38.5t47 -131.5l-5 -259q-1 -40 7 -52.5t30 -12.5q17 0 44 20l10 -10q-1 -2 -8.5 -11t-10 -11.5t-9.5 -10.5t-10.5 -11t-10 -9t-12 -8t-12.5 -5.5t-14.5 -4.5t-15.5 -1q-33 0 -56.5 19t-26.5 55zM263 665h1q88 0 94 99h51q0 -56 -37.5 -98.5
t-107.5 -42.5t-107.5 42.5t-37.5 98.5h51q8 -99 93 -99z" />
    <glyph glyph-name="Aogonek" unicode="&#x104;" horiz-adv-x="781" 
d="M351 605l-126 -320h251zM689 -161l-2 -1l6 -10q-49 -49 -109 -49q-38 0 -65 20.5t-27 61.5q0 69 125 138h-136v18q54 6 68.5 23t-0.5 55l-55 140h-291l-5 -14q-22 -57 -32.5 -91.5t-13.5 -57t8 -33.5t25 -15t43 -7v-18h-225v18q49 4 71 31.5t64 138.5l215 542q32 5 56 35
h4l257 -646q23 -61 41.5 -80t64.5 -21v-18h-133q-72 -51 -72 -111q0 -29 17 -46.5t43 -17.5q31 0 58 15z" />
    <glyph glyph-name="aogonek" unicode="&#x105;" horiz-adv-x="551" 
d="M351 92l3 216q-88 -33 -140 -66q-34 -21 -47.5 -42t-11.5 -52q2 -41 30 -72t72 -31q49 0 94 47zM516 -143v2l6 -10q-49 -49 -109 -49q-38 0 -65 20.5t-27 61.5q0 56 88 115q-51 14 -55 70q-47 -43 -72 -58q-29 -19 -84 -19q-59 0 -108.5 38t-49.5 94q0 46 37.5 78.5
t123.5 74.5q71 34 155 70v23q0 77 -24.5 109.5t-76.5 32.5q-108 0 -99 -139h-102q0 66 66 122t159 56q81 0 130 -38.5t47 -131.5l-5 -259q-1 -40 7 -52.5t30 -12.5q17 0 44 20l10 -10q-1 -1 -11.5 -13.5t-13 -15t-11.5 -12.5t-14.5 -13t-14.5 -8.5t-18 -7.5t-19 -2
q-42 -44 -42 -87q0 -29 17 -46.5t43 -17.5q31 0 58 15z" />
    <glyph glyph-name="Cacute" unicode="&#x106;" horiz-adv-x="739" 
d="M179 366h1q0 -155 67 -243.5t184 -88.5q96 0 160 51t89 120l27 -9q-22 -85 -100.5 -147t-194.5 -62q-165 0 -263.5 108t-98.5 272q0 171 112.5 274.5t275.5 103.5q118 0 214 -40l23 -220h-19q-27 119 -84 171.5t-152 52.5q-100 0 -170.5 -87t-70.5 -256zM639 922
l-219 -129h-21l83 129h157z" />
    <glyph glyph-name="cacute" unicode="&#x107;" horiz-adv-x="508" 
d="M340 772h129l-186 -169h-16zM316 547h1q62 0 104 -30.5t42 -70.5q0 -24 -15.5 -39t-41.5 -15q-35 0 -48 28l-32 66q-10 20 -38 20q-62 0 -108 -49.5t-46 -149.5q0 -99 50 -165t141 -66q79 0 143 56l11 -10q-79 -135 -209 -135q-112 0 -172 76.5t-60 193.5q0 131 82 210.5
t196 79.5z" />
    <glyph glyph-name="Ccircumflex" unicode="&#x108;" horiz-adv-x="739" 
d="M179 366h1q0 -155 67 -243.5t184 -88.5q96 0 160 51t89 120l27 -9q-22 -85 -100.5 -147t-194.5 -62q-165 0 -263.5 108t-98.5 272q0 171 112.5 274.5t275.5 103.5q118 0 214 -40l23 -220h-19q-27 119 -84 171.5t-152 52.5q-100 0 -170.5 -87t-70.5 -256zM420 932h16
l145 -139h-23l-130 59l-130 -59h-23z" />
    <glyph glyph-name="ccircumflex" unicode="&#x109;" horiz-adv-x="508" 
d="M291 772l158 -169h-20l-145 81l-145 -81h-19l158 169h13zM316 547h1q62 0 104 -30.5t42 -70.5q0 -24 -15.5 -39t-41.5 -15q-35 0 -48 28l-32 66q-10 20 -38 20q-62 0 -108 -49.5t-46 -149.5q0 -99 50 -165t141 -66q79 0 143 56l11 -10q-79 -135 -209 -135
q-112 0 -172 76.5t-60 193.5q0 131 82 210.5t196 79.5z" />
    <glyph glyph-name="Cdotaccent" unicode="&#x10a;" horiz-adv-x="739" 
d="M357 860q0 27 18 45.5t45 18.5q26 0 44 -18.5t18 -45.5q0 -28 -18 -46t-44 -18q-28 0 -45.5 18t-17.5 46zM179 366h1q0 -155 67 -243.5t184 -88.5q96 0 160 51t89 120l27 -9q-22 -85 -100.5 -147t-194.5 -62q-165 0 -263.5 108t-98.5 272q0 171 112.5 274.5t275.5 103.5
q118 0 214 -40l23 -220h-19q-27 119 -84 171.5t-152 52.5q-100 0 -170.5 -87t-70.5 -256z" />
    <glyph glyph-name="cdotaccent" unicode="&#x10b;" horiz-adv-x="508" 
d="M316 547h1q62 0 104 -30.5t42 -70.5q0 -24 -15.5 -39t-41.5 -15q-35 0 -48 28l-32 66q-10 20 -38 20q-62 0 -108 -49.5t-46 -149.5q0 -99 50 -165t141 -66q79 0 143 56l11 -10q-79 -135 -209 -135q-112 0 -172 76.5t-60 193.5q0 131 82 210.5t196 79.5zM236 709
q0 27 18 45t46 18q26 0 44 -18t18 -45q0 -29 -17.5 -47t-44.5 -18q-28 0 -46 18t-18 47z" />
    <glyph glyph-name="Ccaron" unicode="&#x10c;" horiz-adv-x="739" 
d="M179 366h1q0 -155 67 -243.5t184 -88.5q96 0 160 51t89 120l27 -9q-22 -85 -100.5 -147t-194.5 -62q-165 0 -263.5 108t-98.5 272q0 171 112.5 274.5t275.5 103.5q118 0 214 -40l23 -220h-19q-27 119 -84 171.5t-152 52.5q-100 0 -170.5 -87t-70.5 -256zM429 793
l-145 139h23l130 -59l130 59h23l-145 -139h-16z" />
    <glyph glyph-name="ccaron" unicode="&#x10d;" horiz-adv-x="508" 
d="M307 603h-13l-158 169h19l145 -81l145 81h20zM316 547h1q62 0 104 -30.5t42 -70.5q0 -24 -15.5 -39t-41.5 -15q-35 0 -48 28l-32 66q-10 20 -38 20q-62 0 -108 -49.5t-46 -149.5q0 -99 50 -165t141 -66q79 0 143 56l11 -10q-79 -135 -209 -135q-112 0 -172 76.5
t-60 193.5q0 131 82 210.5t196 79.5z" />
    <glyph glyph-name="Dcaron" unicode="&#x10e;" horiz-adv-x="800" 
d="M254 36h98q125 0 197 85t72 244q0 158 -73 241t-199 83h-95v-653zM38 725h316q79 0 148 -20.5t125.5 -62t89.5 -113t33 -164.5t-32 -165t-88.5 -114.5t-126 -64t-150.5 -21.5h-315v18q69 8 84 27t15 101v433q0 31 -0.5 48t-5.5 32t-9 21.5t-18.5 12.5t-26.5 8t-39 6v18z
M373 793l-145 139h23l130 -59l130 59h23l-145 -139h-16z" />
    <glyph glyph-name="dcaron" unicode="&#x10f;" horiz-adv-x="679" 
d="M409 504v144q0 70 -11.5 82t-78.5 12v18l199 63q-3 -159 -3 -219v-440q0 -70 10.5 -84t66.5 -16v-17l-166 -55l-14 88q-57 -93 -160 -93q-97 0 -155.5 75t-58.5 188q0 127 76 212t177 85q74 0 118 -43zM291 512h-1q-70 0 -106 -61t-36 -159q0 -104 45.5 -169t117.5 -65
q63 0 98 47v341q-15 32 -47 49t-71 17zM587 750v-1q0 26 18.5 43.5t44.5 17.5q27 0 43 -19t16 -49q0 -54 -38.5 -107.5t-94.5 -79.5l-5 10q77 58 77 127q-25 2 -43 18t-18 40z" />
    <glyph glyph-name="Dcroat" unicode="&#x110;" horiz-adv-x="812" 
d="M51 725h316q79 0 148 -20.5t125.5 -62t89.5 -113t33 -164.5t-32 -165t-88.5 -114.5t-126 -64t-150.5 -21.5h-315v18q69 8 84 27t15 101v206h-104v44h104v183q0 31 -0.5 48t-5.5 32t-9 21.5t-18.5 12.5t-26.5 8t-39 6v18zM267 36h98q125 0 197 85t72 244q0 158 -73 241
t-199 83h-95v-293h148v-44h-148v-316z" />
    <glyph glyph-name="dcroat" unicode="&#x111;" horiz-adv-x="611" 
d="M409 637v1v11q0 70 -11.5 82t-78.5 12v18l199 63q-3 -141 -3 -187h81v-40h-81v-433q0 -70 10.5 -84t66.5 -16v-17l-166 -55l-14 88q-57 -93 -160 -93q-97 0 -155.5 75t-58.5 188q0 127 76 212t177 85q74 0 118 -43v93h-151v40h151zM291 513h-1q-70 0 -106 -61t-36 -159
q0 -104 45.5 -169t117.5 -65q63 0 98 47v341q-15 32 -47 49t-71 17z" />
    <glyph glyph-name="Emacron" unicode="&#x112;" horiz-adv-x="715" 
d="M670 223l-39 -224q-76 1 -224 1h-369v18q69 8 84 27t15 101v433q0 31 -0.5 48t-5.5 32t-9 21.5t-18.5 12.5t-26.5 8t-39 6v18h355q149 0 225 3l27 -224h-18q-14 44 -29 75t-37 51.5t-42.5 32t-56.5 17.5t-67 7.5t-85 1.5h-56v-293h135q45 0 70 25.5t33 86.5h18v-268h-18
q-8 61 -33 86.5t-70 25.5h-135v-272q0 -29 8 -37.5t38 -8.5h21q77 0 124 6t88.5 26t68.5 57.5t49 99.5h19zM530 818h-296v68h296v-68z" />
    <glyph glyph-name="emacron" unicode="&#x113;" horiz-adv-x="536" 
d="M278 -13h-1q-118 0 -179 76t-61 200q0 117 72.5 200.5t174.5 83.5q85 0 142.5 -56t63.5 -161h-358v-5q0 -113 51.5 -181t142.5 -68q94 0 161 65l12 -10q-83 -144 -221 -144zM265 510q-52 0 -87 -35t-44 -106h235q2 60 -25 100.5t-79 40.5zM429 665h-296v68h296v-68z" />
    <glyph glyph-name="Ebreve" unicode="&#x114;" horiz-adv-x="715" 
d="M670 223l-39 -224q-76 1 -224 1h-369v18q69 8 84 27t15 101v433q0 31 -0.5 48t-5.5 32t-9 21.5t-18.5 12.5t-26.5 8t-39 6v18h355q149 0 225 3l27 -224h-18q-14 44 -29 75t-37 51.5t-42.5 32t-56.5 17.5t-67 7.5t-85 1.5h-56v-293h135q45 0 70 25.5t33 86.5h18v-268h-18
q-8 61 -33 86.5t-70 25.5h-135v-272q0 -29 8 -37.5t38 -8.5h21q77 0 124 6t88.5 26t68.5 57.5t49 99.5h19zM376 826q82 0 88 96h48q0 -54 -35 -94.5t-101 -40.5q-65 0 -99.5 40.5t-34.5 94.5h48q5 -96 86 -96z" />
    <glyph glyph-name="ebreve" unicode="&#x115;" horiz-adv-x="536" 
d="M278 -13h-1q-118 0 -179 76t-61 200q0 117 72.5 200.5t174.5 83.5q85 0 142.5 -56t63.5 -161h-358v-5q0 -113 51.5 -181t142.5 -68q94 0 161 65l12 -10q-83 -144 -221 -144zM265 510q-52 0 -87 -35t-44 -106h235q2 60 -25 100.5t-79 40.5zM285 663h1q88 0 94 99h51
q0 -56 -37.5 -98.5t-107.5 -42.5t-107.5 42.5t-37.5 98.5h51q8 -99 93 -99z" />
    <glyph glyph-name="Edotaccent" unicode="&#x116;" horiz-adv-x="715" 
d="M314 860q0 27 18 45.5t45 18.5q26 0 44 -18.5t18 -45.5q0 -28 -18 -46t-44 -18q-28 0 -45.5 18t-17.5 46zM670 223l-39 -224q-76 1 -224 1h-369v18q69 8 84 27t15 101v433q0 31 -0.5 48t-5.5 32t-9 21.5t-18.5 12.5t-26.5 8t-39 6v18h355q149 0 225 3l27 -224h-18
q-14 44 -29 75t-37 51.5t-42.5 32t-56.5 17.5t-67 7.5t-85 1.5h-56v-293h135q45 0 70 25.5t33 86.5h18v-268h-18q-8 61 -33 86.5t-70 25.5h-135v-272q0 -29 8 -37.5t38 -8.5h21q77 0 124 6t88.5 26t68.5 57.5t49 99.5h19z" />
    <glyph glyph-name="edotaccent" unicode="&#x117;" horiz-adv-x="536" 
d="M278 -13h-1q-118 0 -179 76t-61 200q0 117 72.5 200.5t174.5 83.5q85 0 142.5 -56t63.5 -161h-358v-5q0 -113 51.5 -181t142.5 -68q94 0 161 65l12 -10q-83 -144 -221 -144zM265 510q-52 0 -87 -35t-44 -106h235q2 60 -25 100.5t-79 40.5zM216 709q0 27 18 45t46 18
q26 0 44 -18t18 -45q0 -29 -17.5 -47t-44.5 -18q-28 0 -46 18t-18 47z" />
    <glyph glyph-name="Eogonek" unicode="&#x118;" horiz-adv-x="715" 
d="M670 223h2l-39 -224h-47q-72 -51 -72 -111q0 -29 17 -46.5t43 -17.5q31 0 58 15l6 -10q-49 -49 -109 -49q-38 0 -65 20.5t-27 61.5q0 69 125 138h-155h-369v18q69 8 84 27t15 101v433q0 31 -0.5 48t-5.5 32t-9 21.5t-18.5 12.5t-26.5 8t-39 6v18h355q149 0 225 3l27 -224
h-18q-14 44 -29 75t-37 51.5t-42.5 32t-56.5 17.5t-67 7.5t-85 1.5h-56v-293h135q45 0 70 25.5t33 86.5h18v-268h-18q-8 61 -33 86.5t-70 25.5h-135v-272q0 -29 8 -37.5t38 -8.5h21q77 0 124 6t88.5 26t68.5 57.5t49 99.5h19z" />
    <glyph glyph-name="eogonek" unicode="&#x119;" horiz-adv-x="536" 
d="M278 -13v-1q-118 0 -179 76t-61 200q0 117 72.5 200.5t174.5 83.5q85 0 142.5 -56t63.5 -161h-358v-5q0 -113 51.5 -181t142.5 -68q94 0 161 65l12 -10q-61 -104 -153 -133q-69 -50 -69 -109q0 -29 17 -46.5t43 -17.5q31 0 58 15l6 -10q-49 -49 -109 -49q-38 0 -65 20.5
t-27 61.5q0 62 107 127q-20 -2 -30 -2zM266 509q-52 0 -87 -35t-44 -106h235q2 60 -25 100.5t-79 40.5z" />
    <glyph glyph-name="Ecaron" unicode="&#x11a;" horiz-adv-x="715" 
d="M670 223l-39 -224q-76 1 -224 1h-369v18q69 8 84 27t15 101v433q0 31 -0.5 48t-5.5 32t-9 21.5t-18.5 12.5t-26.5 8t-39 6v18h355q149 0 225 3l27 -224h-18q-14 44 -29 75t-37 51.5t-42.5 32t-56.5 17.5t-67 7.5t-85 1.5h-56v-293h135q45 0 70 25.5t33 86.5h18v-268h-18
q-8 61 -33 86.5t-70 25.5h-135v-272q0 -29 8 -37.5t38 -8.5h21q77 0 124 6t88.5 26t68.5 57.5t49 99.5h19zM371 793l-145 139h23l130 -59l130 59h23l-145 -139h-16z" />
    <glyph glyph-name="ecaron" unicode="&#x11b;" horiz-adv-x="536" 
d="M290 603h-13l-158 169h19l145 -81l145 81h20zM278 -13h-1q-118 0 -179 76t-61 200q0 117 72.5 200.5t174.5 83.5q85 0 142.5 -56t63.5 -161h-358v-5q0 -113 51.5 -181t142.5 -68q94 0 161 65l12 -10q-83 -144 -221 -144zM265 510q-52 0 -87 -35t-44 -106h235
q2 60 -25 100.5t-79 40.5z" />
    <glyph glyph-name="Gcircumflex" unicode="&#x11c;" horiz-adv-x="817" 
d="M430 932h16l145 -139h-23l-130 59l-130 -59h-23zM519 340l1 1h272v-21q-44 -6 -54 -27.5t-10 -99.5v-125q-57 -41 -142.5 -61t-160.5 -20q-177 0 -276.5 108.5t-99.5 267.5q0 172 113.5 277t284.5 105q132 0 232 -38l19 -222h-18q-30 118 -90.5 171t-155.5 53
q-49 0 -92.5 -18.5t-81.5 -57.5t-60 -109t-22 -163q0 -152 71 -244t188 -92q172 0 172 97v71q0 79 -13.5 100.5t-76.5 25.5v21z" />
    <glyph glyph-name="gcircumflex" unicode="&#x11d;" horiz-adv-x="598" 
d="M286 772l158 -169h-20l-145 81l-145 -81h-19l158 169h13zM273 209l-1 1q-44 0 -68 8q-53 -45 -53 -77t67 -37l105 -5q101 -4 164.5 -36.5t63.5 -97.5q0 -28 -16 -58.5t-48.5 -60t-91.5 -48.5t-134 -19q-102 0 -165 36.5t-63 89.5q0 73 137 106q-96 18 -96 85
q0 25 15.5 48.5t33 38.5t55.5 42q-52 21 -81.5 60.5t-29.5 92.5q0 75 57 122t148 47q71 0 121 -29h172v-43h-120q33 -42 33 -97q0 -75 -57 -122t-148 -47zM342 4l-141 5h-1q-35 -14 -54 -38.5t-19 -52.5q0 -48 51 -73t126 -25t124 29.5t49 79.5q0 39 -34.5 56t-100.5 19z
M277 243q46 0 72.5 29.5t26.5 85.5q0 63 -29.5 110t-80.5 47q-46 0 -72.5 -29.5t-26.5 -85.5q0 -63 29.5 -110t80.5 -47z" />
    <glyph glyph-name="Gbreve" unicode="&#x11e;" horiz-adv-x="817" 
d="M439 826q82 0 88 96h48q0 -54 -35 -94.5t-101 -40.5q-65 0 -99.5 40.5t-34.5 94.5h48q5 -96 86 -96zM519 340l1 1h272v-21q-44 -6 -54 -27.5t-10 -99.5v-125q-57 -41 -142.5 -61t-160.5 -20q-177 0 -276.5 108.5t-99.5 267.5q0 172 113.5 277t284.5 105q132 0 232 -38
l19 -222h-18q-30 118 -90.5 171t-155.5 53q-49 0 -92.5 -18.5t-81.5 -57.5t-60 -109t-22 -163q0 -152 71 -244t188 -92q172 0 172 97v71q0 79 -13.5 100.5t-76.5 25.5v21z" />
    <glyph glyph-name="gbreve" unicode="&#x11f;" horiz-adv-x="598" 
d="M273 209l-1 1q-44 0 -68 8q-53 -45 -53 -77t67 -37l105 -5q101 -4 164.5 -36.5t63.5 -97.5q0 -28 -16 -58.5t-48.5 -60t-91.5 -48.5t-134 -19q-102 0 -165 36.5t-63 89.5q0 73 137 106q-96 18 -96 85q0 25 15.5 48.5t33 38.5t55.5 42q-52 21 -81.5 60.5t-29.5 92.5
q0 75 57 122t148 47q71 0 121 -29h172v-43h-120q33 -42 33 -97q0 -75 -57 -122t-148 -47zM342 4l-141 5h-1q-35 -14 -54 -38.5t-19 -52.5q0 -48 51 -73t126 -25t124 29.5t49 79.5q0 39 -34.5 56t-100.5 19zM277 243q46 0 72.5 29.5t26.5 85.5q0 63 -29.5 110t-80.5 47
q-46 0 -72.5 -29.5t-26.5 -85.5q0 -63 29.5 -110t80.5 -47zM281 664h1q88 0 94 99h51q0 -56 -37.5 -98.5t-107.5 -42.5t-107.5 42.5t-37.5 98.5h51q8 -99 93 -99z" />
    <glyph glyph-name="Gdotaccent" unicode="&#x120;" horiz-adv-x="817" 
d="M380 860q0 27 18 45.5t45 18.5q26 0 44 -18.5t18 -45.5q0 -28 -18 -46t-44 -18q-28 0 -45.5 18t-17.5 46zM519 340l1 1h272v-21q-44 -6 -54 -27.5t-10 -99.5v-125q-57 -41 -142.5 -61t-160.5 -20q-177 0 -276.5 108.5t-99.5 267.5q0 172 113.5 277t284.5 105
q132 0 232 -38l19 -222h-18q-30 118 -90.5 171t-155.5 53q-49 0 -92.5 -18.5t-81.5 -57.5t-60 -109t-22 -163q0 -152 71 -244t188 -92q172 0 172 97v71q0 79 -13.5 100.5t-76.5 25.5v21z" />
    <glyph glyph-name="gdotaccent" unicode="&#x121;" horiz-adv-x="598" 
d="M273 209l-1 1q-44 0 -68 8q-53 -45 -53 -77t67 -37l105 -5q101 -4 164.5 -36.5t63.5 -97.5q0 -28 -16 -58.5t-48.5 -60t-91.5 -48.5t-134 -19q-102 0 -165 36.5t-63 89.5q0 73 137 106q-96 18 -96 85q0 25 15.5 48.5t33 38.5t55.5 42q-52 21 -81.5 60.5t-29.5 92.5
q0 75 57 122t148 47q71 0 121 -29h172v-43h-120q33 -42 33 -97q0 -75 -57 -122t-148 -47zM342 4l-141 5h-1q-35 -14 -54 -38.5t-19 -52.5q0 -48 51 -73t126 -25t124 29.5t49 79.5q0 39 -34.5 56t-100.5 19zM277 243q46 0 72.5 29.5t26.5 85.5q0 63 -29.5 110t-80.5 47
q-46 0 -72.5 -29.5t-26.5 -85.5q0 -63 29.5 -110t80.5 -47zM208 710q0 27 18 45t46 18q26 0 44 -18t18 -45q0 -29 -17.5 -47t-44.5 -18q-28 0 -46 18t-18 47z" />
    <glyph glyph-name="Gcommaaccent" unicode="&#x122;" horiz-adv-x="817" 
d="M375 -116v-1q0 26 18.5 43.5t44.5 17.5q27 0 43 -19t16 -49q0 -54 -38.5 -107.5t-94.5 -79.5l-5 10q77 58 77 127q-25 2 -43 18t-18 40zM519 339l1 1h272v-21q-44 -6 -54 -27.5t-10 -99.5v-125q-57 -41 -142.5 -61t-160.5 -20q-177 0 -276.5 108.5t-99.5 267.5
q0 172 113.5 277t284.5 105q132 0 232 -38l19 -222h-18q-30 118 -90.5 171t-155.5 53q-49 0 -92.5 -18.5t-81.5 -57.5t-60 -109t-22 -163q0 -152 71 -244t188 -92q172 0 172 97v71q0 79 -13.5 100.5t-76.5 25.5v21z" />
    <glyph glyph-name="gcommaaccent" unicode="&#x123;" horiz-adv-x="598" 
d="M336 669v-2q0 -26 -18 -44t-44 -18q-27 0 -43.5 19.5t-16.5 49.5q0 55 38.5 108t94.5 80l6 -10q-78 -61 -78 -126q25 -1 43 -17t18 -40zM273 207l-1 1q-44 0 -68 8q-53 -45 -53 -77t67 -37l105 -5q101 -4 164.5 -36.5t63.5 -97.5q0 -28 -16 -58.5t-48.5 -60t-91.5 -48.5
t-134 -19q-102 0 -165 36.5t-63 89.5q0 73 137 106q-96 18 -96 85q0 25 15.5 48.5t33 38.5t55.5 42q-52 21 -81.5 60.5t-29.5 92.5q0 75 57 122t148 47q71 0 121 -29h172v-43h-120q33 -42 33 -97q0 -75 -57 -122t-148 -47zM342 2l-141 5h-1q-35 -14 -54 -38.5t-19 -52.5
q0 -48 51 -73t126 -25t124 29.5t49 79.5q0 39 -34.5 56t-100.5 19zM277 241q46 0 72.5 29.5t26.5 85.5q0 63 -29.5 110t-80.5 47q-46 0 -72.5 -29.5t-26.5 -85.5q0 -63 29.5 -110t80.5 -47z" />
    <glyph glyph-name="Hcircumflex" unicode="&#x124;" horiz-adv-x="842" 
d="M705 579v-433q0 -82 15.5 -101t83.5 -27v-18h-315v18q68 8 83.5 27t15.5 101v206h-334v-206q0 -82 15 -101t84 -27v-18h-315v18q69 8 84 27t15 101v433q0 31 -0.5 48t-5.5 32t-9 21.5t-18.5 12.5t-26.5 8t-39 6v18h315v-18q-27 -4 -39 -6t-26.5 -8t-18.5 -12.5t-9 -21.5
t-5.5 -32t-0.5 -48v-183h334v183q0 30 -0.5 48t-5.5 32.5t-9.5 21t-19 12.5t-26 8t-38.5 6v18h315v-18q-27 -4 -38.5 -6t-26 -8t-19 -12.5t-9.5 -21t-5.5 -32.5t-0.5 -48zM411 932h16l145 -139h-23l-130 59l-130 -59h-23z" />
    <glyph glyph-name="hcircumflex" unicode="&#x125;" horiz-adv-x="608" 
d="M202 604v-149q35 42 71.5 67t87.5 25q69 0 111.5 -47.5t42.5 -142.5v-213q0 -80 11.5 -100t68.5 -26v-18h-264v18q55 6 66.5 26t11.5 100v192q0 138 -102 138q-74 0 -105 -46v-284q0 -80 11.5 -100t66.5 -26v-18h-264v18q57 6 68.5 26t11.5 100v501q0 72 -10.5 85
t-69.5 13v18l188 62q-2 -106 -2 -219zM145 957h16l145 -139h-23l-130 59l-130 -59h-23z" />
    <glyph glyph-name="Hbar" unicode="&#x126;" horiz-adv-x="842" 
d="M705 579v-11h98v-45h-98v-377q0 -82 15.5 -101t83.5 -27v-18h-315v18q68 8 83.5 27t15.5 101v206h-334v-206q0 -82 15 -101t84 -27v-18h-315v18q69 8 84 27t15 101v377h-99v45h99v11q0 31 -0.5 48t-5.5 32t-9 21.5t-18.5 12.5t-26.5 8t-39 6v18h315v-18q-27 -4 -39 -6
t-26.5 -8t-18.5 -12.5t-9 -21.5t-5.5 -32t-0.5 -48v-11h334v11q0 30 -0.5 48t-5.5 32.5t-9.5 21t-19 12.5t-26 8t-38.5 6v18h315v-18q-27 -4 -38.5 -6t-26 -8t-19 -12.5t-9.5 -21t-5.5 -32.5t-0.5 -48zM254 396h334v127h-334v-127z" />
    <glyph glyph-name="hbar" unicode="&#x127;" horiz-adv-x="614" 
d="M207 597v1v-142q35 42 71.5 67t87.5 25q69 0 111.5 -47.5t42.5 -142.5v-213q0 -80 11.5 -100t68.5 -26v-18h-264v18q55 6 66.5 26t11.5 100v192q0 138 -102 138q-74 0 -105 -46v-284q0 -80 11.5 -100t66.5 -26v-18h-264v18q57 6 68.5 26t11.5 100v453h-70v40h70v8
q0 72 -10.5 85t-69.5 13v18l188 62q-2 -94 -2 -187h167v-40h-167z" />
    <glyph glyph-name="Itilde" unicode="&#x128;" horiz-adv-x="391" 
d="M254 579v-433q0 -82 15 -101t84 -27v-18h-315v18q69 8 84 27t15 101v433q0 31 -0.5 48t-5.5 32t-9 21.5t-18.5 12.5t-26.5 8t-39 6v18h315v-18q-27 -4 -39 -6t-26.5 -8t-18.5 -12.5t-9 -21.5t-5.5 -32t-0.5 -48zM283 864h2q51 0 61 50h16q0 -53 -24 -90t-69 -37
q-34 0 -83.5 30.5t-79.5 30.5q-53 0 -63 -50h-16q0 53 24 90t69 37q33 0 83.5 -30.5t79.5 -30.5z" />
    <glyph glyph-name="itilde" unicode="&#x129;" horiz-adv-x="339" 
d="M226 328v-184q0 -80 11.5 -100t68.5 -26v-18h-266v18q57 6 68.5 26t11.5 100v222q0 74 -10.5 87.5t-69.5 13.5v18l188 62q-2 -106 -2 -219zM17 635h1h-19q0 53 24 94.5t70 41.5q29 0 79.5 -31.5t70.5 -31.5q27 0 40 14t15 46h19q0 -131 -86 -131q-35 0 -84 31.5t-74 31.5
q-24 0 -39 -17t-17 -48z" />
    <glyph glyph-name="Imacron" unicode="&#x12a;" horiz-adv-x="391" 
d="M254 579v-433q0 -82 15 -101t84 -27v-18h-315v18q69 8 84 27t15 101v433q0 31 -0.5 48t-5.5 32t-9 21.5t-18.5 12.5t-26.5 8t-39 6v18h315v-18q-27 -4 -39 -6t-26.5 -8t-18.5 -12.5t-9 -21.5t-5.5 -32t-0.5 -48zM342 818h-296v68h296v-68z" />
    <glyph glyph-name="imacron" unicode="&#x12b;" horiz-adv-x="339" 
d="M226 328v-184q0 -80 11.5 -100t68.5 -26v-18h-266v18q57 6 68.5 26t11.5 100v222q0 74 -10.5 87.5t-69.5 13.5v18l188 62q-2 -106 -2 -219zM311 665h-296v68h296v-68z" />
    <glyph glyph-name="Ibreve" unicode="&#x12c;" horiz-adv-x="391" 
d="M254 579v-433q0 -82 15 -101t84 -27v-18h-315v18q69 8 84 27t15 101v433q0 31 -0.5 48t-5.5 32t-9 21.5t-18.5 12.5t-26.5 8t-39 6v18h315v-18q-27 -4 -39 -6t-26.5 -8t-18.5 -12.5t-9 -21.5t-5.5 -32t-0.5 -48zM194 826q82 0 88 96h48q0 -54 -35 -94.5t-101 -40.5
q-65 0 -99.5 40.5t-34.5 94.5h48q5 -96 86 -96z" />
    <glyph glyph-name="ibreve" unicode="&#x12d;" horiz-adv-x="339" 
d="M226 328v-184q0 -80 11.5 -100t68.5 -26v-18h-266v18q57 6 68.5 26t11.5 100v222q0 74 -10.5 87.5t-69.5 13.5v18l188 62q-2 -106 -2 -219zM167 663h1q88 0 94 99h51q0 -56 -37.5 -98.5t-107.5 -42.5t-107.5 42.5t-37.5 98.5h51q8 -99 93 -99z" />
    <glyph glyph-name="Iogonek" unicode="&#x12e;" horiz-adv-x="391" 
d="M279 -161v-1l6 -10q-49 -49 -109 -49q-38 0 -65 20.5t-27 61.5q0 69 125 138h-171v18q69 8 84 27t15 101v433q0 31 -0.5 48t-5.5 32t-9 21.5t-18.5 12.5t-26.5 8t-39 6v18h315v-18q-27 -4 -39 -6t-26.5 -8t-18.5 -12.5t-9 -21.5t-5.5 -32t-0.5 -48v-433q0 -82 15 -101
t84 -27v-18h-120q-72 -51 -72 -111q0 -29 17 -46.5t43 -17.5q31 0 58 15z" />
    <glyph glyph-name="iogonek" unicode="&#x12f;" horiz-adv-x="339" 
d="M226 328v-1v-184q0 -80 11.5 -100t68.5 -26v-18h-101q-72 -51 -72 -111q0 -29 17 -46.5t43 -17.5q31 0 58 15l6 -10q-49 -49 -109 -49q-38 0 -65 20.5t-27 61.5q0 69 125 138h-141v18q57 6 68.5 26t11.5 100v222q0 74 -10.5 87.5t-69.5 13.5v18l188 62q-2 -106 -2 -219z
M168 667q-30 0 -52 20.5t-22 50.5q0 29 22 49.5t52 20.5q31 0 52 -20.5t21 -49.5q0 -31 -21 -51t-52 -20z" />
    <glyph glyph-name="Idotaccent" unicode="&#x130;" horiz-adv-x="391" 
d="M254 579v-433q0 -82 15 -101t84 -27v-18h-315v18q69 8 84 27t15 101v433q0 31 -0.5 48t-5.5 32t-9 21.5t-18.5 12.5t-26.5 8t-39 6v18h315v-18q-27 -4 -39 -6t-26.5 -8t-18.5 -12.5t-9 -21.5t-5.5 -32t-0.5 -48zM132 860q0 27 18 45.5t45 18.5q26 0 44 -18.5t18 -45.5
q0 -28 -18 -46t-44 -18q-28 0 -45.5 18t-17.5 46z" />
    <glyph glyph-name="dotlessi" unicode="&#x131;" horiz-adv-x="339" 
d="M226 328v-184q0 -80 11.5 -100t68.5 -26v-18h-266v18q57 6 68.5 26t11.5 100v222q0 74 -10.5 87.5t-69.5 13.5v18l188 62q-2 -106 -2 -219z" />
    <glyph glyph-name="Jcircumflex" unicode="&#x134;" horiz-adv-x="433" 
d="M201 226h-1v353q0 31 -0.5 48t-5.5 32t-9 21.5t-18.5 12.5t-26.5 8t-39 6v18h315v-18q-27 -4 -39 -6t-26.5 -8t-18.5 -12.5t-9 -21.5t-5.5 -32t-0.5 -48v-345q0 -247 -189 -247q-71 0 -118 14v139h11q70 -117 119 -117q14 0 23 5.5t19 24t14.5 61.5t4.5 112zM246 932h16
l145 -139h-23l-130 59l-130 -59h-23z" />
    <glyph glyph-name="jcircumflex" unicode="&#x135;" horiz-adv-x="307" 
d="M161 772l158 -169h-20l-145 81l-145 -81h-19l158 169h13zM109 81v285q0 74 -10.5 87.5t-69.5 13.5v18l188 62q-2 -106 -2 -219v-231q0 -115 -41 -192t-156 -139l-8 10q61 64 80 133.5t19 171.5z" />
    <glyph glyph-name="Kcommaaccent" unicode="&#x136;" horiz-adv-x="778" 
d="M313 -116v-1q0 26 18.5 43.5t44.5 17.5q27 0 43 -19t16 -49q0 -54 -38.5 -107.5t-94.5 -79.5l-5 10q77 58 77 127q-25 2 -43 18t-18 40zM254 578v-433q0 -82 15 -101t84 -27v-18h-315v18q69 8 84 27t15 101v433q0 31 -0.5 48t-5.5 32t-9 21.5t-18.5 12.5t-26.5 8t-39 6
v18h315v-18q-27 -4 -39 -6t-26.5 -8t-18.5 -12.5t-9 -21.5t-5.5 -32t-0.5 -48zM255 370l1 1l224 203q87 80 91 105q2 16 -22 22q-14 4 -37 5v18h237v-18q-48 -6 -84.5 -29t-129.5 -106l-174 -153l265 -300q51 -58 77 -78t66 -23v-18h-297v18q37 1 48 13t4 27t-26 37z" />
    <glyph glyph-name="kcommaaccent" unicode="&#x137;" horiz-adv-x="631" 
d="M236 -116v-1q0 26 18.5 43.5t44.5 17.5q27 0 43 -19t16 -49q0 -54 -38.5 -107.5t-94.5 -79.5l-5 10q77 58 77 127q-25 2 -43 18t-18 40zM97 143v501q0 72 -10.5 85t-69.5 13v18l188 62q-2 -106 -2 -219v-460q0 -80 11.5 -100t68.5 -26v-18h-266v18q57 6 68.5 26t11.5 100
zM354 -1v18q52 2 54.5 19.5t-28.5 50.5l-174 203l170 142q104 83 -4 87v18h230v-18q-32 0 -60 -11t-47 -25t-64 -51l-126 -102l219 -255q25 -29 48 -42.5t55 -15.5v-18h-273z" />
    <glyph glyph-name="Lacute" unicode="&#x139;" horiz-adv-x="629" 
d="M382 922l-219 -129h-21l83 129h157zM38 0h1v18q69 8 84 27t15 101v433q0 31 -0.5 48t-5.5 32t-9 21.5t-18.5 12.5t-26.5 8t-39 6v18h315v-18q-27 -4 -39 -6t-26.5 -8t-18.5 -12.5t-9 -21.5t-5.5 -32t-0.5 -48v-500q0 -28 8 -36.5t36 -8.5h17q59 0 95.5 4t68 15t53 33.5
t39.5 55t37 84.5h19l-38 -227q-36 0 -113.5 0.5t-103.5 0.5h-335z" />
    <glyph glyph-name="lacute" unicode="&#x13a;" horiz-adv-x="336" 
d="M324 942l-219 -129h-21l83 129h157zM121 144v501q0 72 -10.5 85t-69.5 13v18l188 62q-2 -106 -2 -219v-460q0 -80 11.5 -100t68.5 -26v-18h-266v18q57 6 68.5 26t11.5 100z" />
    <glyph glyph-name="Lcommaaccent" unicode="&#x13b;" horiz-adv-x="629" 
d="M268 -116v-1q0 26 18.5 43.5t44.5 17.5q27 0 43 -19t16 -49q0 -54 -38.5 -107.5t-94.5 -79.5l-5 10q77 58 77 127q-25 2 -43 18t-18 40zM38 -1h1v18q69 8 84 27t15 101v433q0 31 -0.5 48t-5.5 32t-9 21.5t-18.5 12.5t-26.5 8t-39 6v18h315v-18q-27 -4 -39 -6t-26.5 -8
t-18.5 -12.5t-9 -21.5t-5.5 -32t-0.5 -48v-500q0 -28 8 -36.5t36 -8.5h17q59 0 95.5 4t68 15t53 33.5t39.5 55t37 84.5h19l-38 -227q-36 0 -113.5 0.5t-103.5 0.5h-335z" />
    <glyph glyph-name="lcommaaccent" unicode="&#x13c;" horiz-adv-x="336" 
d="M99 -116v-1q0 26 18.5 43.5t44.5 17.5q27 0 43 -19t16 -49q0 -54 -38.5 -107.5t-94.5 -79.5l-5 10q77 58 77 127q-25 2 -43 18t-18 40zM121 143v501q0 72 -10.5 85t-69.5 13v18l188 62q-2 -106 -2 -219v-460q0 -80 11.5 -100t68.5 -26v-18h-266v18q57 6 68.5 26t11.5 100
z" />
    <glyph glyph-name="Lcaron" unicode="&#x13d;" horiz-adv-x="629" 
d="M402 682v-1q0 26 18.5 43.5t44.5 17.5q27 0 43 -19t16 -49q0 -54 -38.5 -107.5t-94.5 -79.5l-5 10q77 58 77 127q-25 2 -43 18t-18 40zM38 -1h1v18q69 8 84 27t15 101v433q0 31 -0.5 48t-5.5 32t-9 21.5t-18.5 12.5t-26.5 8t-39 6v18h315v-18q-27 -4 -39 -6t-26.5 -8
t-18.5 -12.5t-9 -21.5t-5.5 -32t-0.5 -48v-500q0 -28 8 -36.5t36 -8.5h17q59 0 95.5 4t68 15t53 33.5t39.5 55t37 84.5h19l-38 -227q-36 0 -113.5 0.5t-103.5 0.5h-335z" />
    <glyph glyph-name="lcaron" unicode="&#x13e;" horiz-adv-x="380" 
d="M301 750v-1q0 26 18.5 43.5t44.5 17.5q27 0 43 -19t16 -49q0 -54 -38.5 -107.5t-94.5 -79.5l-5 10q77 58 77 127q-25 2 -43 18t-18 40zM121 143v501q0 72 -10.5 85t-69.5 13v18l188 62q-2 -106 -2 -219v-460q0 -80 11.5 -100t68.5 -26v-18h-266v18q57 6 68.5 26t11.5 100
z" />
    <glyph glyph-name="Ldot" unicode="&#x13f;" horiz-adv-x="629" 
d="M418 446q0 27 18 45.5t45 18.5q26 0 44 -18.5t18 -45.5q0 -28 -18 -46t-44 -18q-28 0 -45.5 18t-17.5 46zM38 0h1v18q69 8 84 27t15 101v433q0 31 -0.5 48t-5.5 32t-9 21.5t-18.5 12.5t-26.5 8t-39 6v18h315v-18q-27 -4 -39 -6t-26.5 -8t-18.5 -12.5t-9 -21.5t-5.5 -32
t-0.5 -48v-500q0 -28 8 -36.5t36 -8.5h17q59 0 95.5 4t68 15t53 33.5t39.5 55t37 84.5h19l-38 -227q-36 0 -113.5 0.5t-103.5 0.5h-335z" />
    <glyph glyph-name="ldot" unicode="&#x140;" horiz-adv-x="417" 
d="M307 446q0 27 18 45.5t45 18.5q26 0 44 -18.5t18 -45.5q0 -28 -18 -46t-44 -18q-28 0 -45.5 18t-17.5 46zM121 144v501q0 72 -10.5 85t-69.5 13v18l188 62q-2 -106 -2 -219v-460q0 -80 11.5 -100t68.5 -26v-18h-266v18q57 6 68.5 26t11.5 100z" />
    <glyph glyph-name="Lslash" unicode="&#x141;" horiz-adv-x="629" 
d="M38 0h1v18q69 8 84 27t15 101v179l-70 -38l-22 38l92 51v203q0 31 -0.5 48t-5.5 32t-9 21.5t-18.5 12.5t-26.5 8t-39 6v18h315v-18q-27 -4 -39 -6t-26.5 -8t-18.5 -12.5t-9 -21.5t-5.5 -32t-0.5 -48v-138l77 43l22 -39l-99 -55v-311q0 -28 8 -36.5t36 -8.5h17
q59 0 95.5 4t68 15t53 33.5t39.5 55t37 84.5h19l-38 -227q-36 0 -113.5 0.5t-103.5 0.5h-335z" />
    <glyph glyph-name="lslash" unicode="&#x142;" horiz-adv-x="345" 
d="M127 387v258q0 72 -10.5 85t-69.5 13v18l188 62q-2 -106 -2 -219v-162l81 42l21 -41l-102 -53v-246q0 -80 11.5 -100t68.5 -26v-18h-266v18q57 6 68.5 26t11.5 100v192l-95 -49l-21 41z" />
    <glyph glyph-name="Nacute" unicode="&#x143;" horiz-adv-x="804" 
d="M615 922l-219 -129h-21l83 129h157zM641 176l-1 -1v403q0 31 -0.5 48t-5.5 32t-9 21.5t-18.5 12.5t-26.5 8t-39 6v18h244v-18q-27 -4 -38.5 -6t-26 -8t-19 -12.5t-9.5 -21t-5.5 -32.5t-0.5 -48v-587h-50l-456 576v-422q0 -82 15.5 -101t83.5 -27v-18h-244v18
q68 8 83.5 27t15.5 101v480l-4 5q-47 61 -82 79v16h159z" />
    <glyph glyph-name="nacute" unicode="&#x144;" horiz-adv-x="607" 
d="M366 772h129l-186 -169h-16zM17 467v18l185 62l1 -92q35 42 71.5 67t87.5 25q69 0 110.5 -47.5t41.5 -142.5v-213q0 -80 11.5 -100t68.5 -26v-18h-264v18q55 6 66.5 26t11.5 100v192q0 138 -100 138q-71 0 -105 -46v-284q0 -80 11.5 -100t66.5 -26v-18h-264v18
q57 6 68.5 26t11.5 100v225q0 72 -10.5 85t-69.5 13z" />
    <glyph glyph-name="Ncommaaccent" unicode="&#x145;" horiz-adv-x="804" 
d="M358 -116v-1q0 26 18.5 43.5t44.5 17.5q27 0 43 -19t16 -49q0 -54 -38.5 -107.5t-94.5 -79.5l-5 10q77 58 77 127q-25 2 -43 18t-18 40zM641 175l-1 -1v403q0 31 -0.5 48t-5.5 32t-9 21.5t-18.5 12.5t-26.5 8t-39 6v18h244v-18q-27 -4 -38.5 -6t-26 -8t-19 -12.5
t-9.5 -21t-5.5 -32.5t-0.5 -48v-587h-50l-456 576v-422q0 -82 15.5 -101t83.5 -27v-18h-244v18q68 8 83.5 27t15.5 101v480l-4 5q-47 61 -82 79v16h159z" />
    <glyph glyph-name="ncommaaccent" unicode="&#x146;" horiz-adv-x="607" 
d="M238 -116v-1q0 26 18.5 43.5t44.5 17.5q27 0 43 -19t16 -49q0 -54 -38.5 -107.5t-94.5 -79.5l-5 10q77 58 77 127q-25 2 -43 18t-18 40zM17 466v18l185 62l1 -92q35 42 71.5 67t87.5 25q69 0 110.5 -47.5t41.5 -142.5v-213q0 -80 11.5 -100t68.5 -26v-18h-264v18
q55 6 66.5 26t11.5 100v192q0 138 -100 138q-71 0 -105 -46v-284q0 -80 11.5 -100t66.5 -26v-18h-264v18q57 6 68.5 26t11.5 100v225q0 72 -10.5 85t-69.5 13z" />
    <glyph glyph-name="Ncaron" unicode="&#x147;" horiz-adv-x="804" 
d="M427 793l-145 139h23l130 -59l130 59h23l-145 -139h-16zM641 176l-1 -1v403q0 31 -0.5 48t-5.5 32t-9 21.5t-18.5 12.5t-26.5 8t-39 6v18h244v-18q-27 -4 -38.5 -6t-26 -8t-19 -12.5t-9.5 -21t-5.5 -32.5t-0.5 -48v-587h-50l-456 576v-422q0 -82 15.5 -101t83.5 -27v-18
h-244v18q68 8 83.5 27t15.5 101v480l-4 5q-47 61 -82 79v16h159z" />
    <glyph glyph-name="ncaron" unicode="&#x148;" horiz-adv-x="607" 
d="M319 603h-13l-158 169h19l145 -81l145 81h20zM17 467v18l185 62l1 -92q35 42 71.5 67t87.5 25q69 0 110.5 -47.5t41.5 -142.5v-213q0 -80 11.5 -100t68.5 -26v-18h-264v18q55 6 66.5 26t11.5 100v192q0 138 -100 138q-71 0 -105 -46v-284q0 -80 11.5 -100t66.5 -26v-18
h-264v18q57 6 68.5 26t11.5 100v225q0 72 -10.5 85t-69.5 13z" />
    <glyph glyph-name="Eng" unicode="&#x14a;" horiz-adv-x="775" 
d="M107 138l1 -3v487l-4 5q-30 36 -46.5 53t-38.5 27v16h159l435 -549v408q0 77 -15 95t-84 28v18h244v-18q-69 -10 -84 -28t-15 -95v-487q0 -114 -42.5 -191.5t-157.5 -139.5l-8 10q60 64 80 130.5t20 158.5l-398 503v-429q0 -74 15.5 -93t83.5 -27v-18h-244v18
q67 8 83 27.5t16 93.5z" />
    <glyph glyph-name="eng" unicode="&#x14b;" horiz-adv-x="591" 
d="M511 357l1 -1v-260q0 -115 -41 -191.5t-156 -138.5l-8 10q61 65 80 133.5t19 171.5v255q0 71 -23 104.5t-74 33.5q-73 0 -106 -44v-286q0 -80 11.5 -100t66.5 -26v-18h-264v18q57 6 68.5 26t11.5 100v210q0 77 -11.5 95t-68.5 18v18l185 62l1 -89q64 89 159 89
q68 0 108.5 -47.5t40.5 -142.5z" />
    <glyph glyph-name="Omacron" unicode="&#x14c;" horiz-adv-x="848" 
d="M50 366q0 88 31.5 161.5t84.5 120t119.5 72t138.5 25.5t138.5 -25.5t119.5 -72t84.5 -120t31.5 -161.5t-31.5 -161.5t-84.5 -120t-119.5 -72t-138.5 -25.5t-138.5 25.5t-119.5 72t-84.5 120t-31.5 161.5zM668 366q0 154 -68 248.5t-176 94.5t-176 -94.5t-68 -248.5
t68 -248.5t176 -94.5t176 94.5t68 248.5zM572 818h-296v68h296v-68z" />
    <glyph glyph-name="omacron" unicode="&#x14d;" horiz-adv-x="624" 
d="M457 665h-296v68h296v-68zM296 508q-71 0 -107 -54t-36 -151q0 -40 9.5 -85.5t28.5 -89.5t54 -73t80 -29q70 0 105 54t35 152q0 40 -9.5 85t-28 89t-53 73t-78.5 29zM306 547q111 0 192.5 -79.5t81.5 -199.5q0 -117 -78 -199t-189 -82t-192.5 80t-81.5 201
q0 117 77.5 198t189.5 81z" />
    <glyph glyph-name="Obreve" unicode="&#x14e;" horiz-adv-x="848" 
d="M50 366q0 88 31.5 161.5t84.5 120t119.5 72t138.5 25.5t138.5 -25.5t119.5 -72t84.5 -120t31.5 -161.5t-31.5 -161.5t-84.5 -120t-119.5 -72t-138.5 -25.5t-138.5 25.5t-119.5 72t-84.5 120t-31.5 161.5zM668 366q0 154 -68 248.5t-176 94.5t-176 -94.5t-68 -248.5
t68 -248.5t176 -94.5t176 94.5t68 248.5zM423 826q82 0 88 96h48q0 -54 -35 -94.5t-101 -40.5q-65 0 -99.5 40.5t-34.5 94.5h48q5 -96 86 -96z" />
    <glyph glyph-name="obreve" unicode="&#x14f;" horiz-adv-x="624" 
d="M296 508q-71 0 -107 -54t-36 -151q0 -40 9.5 -85.5t28.5 -89.5t54 -73t80 -29q70 0 105 54t35 152q0 40 -9.5 85t-28 89t-53 73t-78.5 29zM306 547q111 0 192.5 -79.5t81.5 -199.5q0 -117 -78 -199t-189 -82t-192.5 80t-81.5 201q0 117 77.5 198t189.5 81zM312 663h1
q88 0 94 99h51q0 -56 -37.5 -98.5t-107.5 -42.5t-107.5 42.5t-37.5 98.5h51q8 -99 93 -99z" />
    <glyph glyph-name="Ohungarumlaut" unicode="&#x150;" horiz-adv-x="848" 
d="M721 922l-219 -129h-21l83 129h157zM544 922l-219 -129h-21l83 129h157zM50 366q0 88 31.5 161.5t84.5 120t119.5 72t138.5 25.5t138.5 -25.5t119.5 -72t84.5 -120t31.5 -161.5t-31.5 -161.5t-84.5 -120t-119.5 -72t-138.5 -25.5t-138.5 25.5t-119.5 72t-84.5 120
t-31.5 161.5zM668 366q0 154 -68 248.5t-176 94.5t-176 -94.5t-68 -248.5t68 -248.5t176 -94.5t176 94.5t68 248.5z" />
    <glyph glyph-name="ohungarumlaut" unicode="&#x151;" horiz-adv-x="624" 
d="M431 772h129l-186 -161h-16zM255 772h129l-186 -161h-16zM296 508q-71 0 -107 -54t-36 -151q0 -40 9.5 -85.5t28.5 -89.5t54 -73t80 -29q70 0 105 54t35 152q0 40 -9.5 85t-28 89t-53 73t-78.5 29zM306 547q111 0 192.5 -79.5t81.5 -199.5q0 -117 -78 -199t-189 -82
t-192.5 80t-81.5 201q0 117 77.5 198t189.5 81z" />
    <glyph glyph-name="OE" unicode="&#x152;" horiz-adv-x="1240" 
d="M50 366q0 88 31.5 161.5t84.5 120t119.5 72t138.5 25.5q159 0 251 -116v96h244q148 0 224 3l28 -224h-18q-17 53 -38 87t-43.5 54t-61.5 29.5t-74.5 12t-99.5 2.5h-57v-293h136q45 0 70 25.5t33 86.5h18v-268h-18q-8 61 -33 86.5t-70 25.5h-136v-272q0 -28 8.5 -37
t37.5 -9h15q64 0 104.5 3.5t79.5 14.5t64.5 32t48 54.5t40.5 84.5h19l-40 -224q-76 1 -223 1h-258v102q-91 -115 -251 -115q-72 0 -138.5 25.5t-119.5 72t-84.5 120t-31.5 161.5zM668 366q0 154 -68 248.5t-176 94.5t-176 -94.5t-68 -248.5t68 -248.5t176 -94.5t176 94.5
t68 248.5z" />
    <glyph glyph-name="oe" unicode="&#x153;" horiz-adv-x="968" 
d="M710 -13h-2q-131 0 -194 97q-79 -97 -203 -97q-111 0 -192.5 80t-81.5 201q0 117 77.5 198t189.5 81q64 0 118 -32.5t90 -88.5q79 121 204 121q85 0 142.5 -56t63.5 -161h-358v-5q0 -113 51.5 -181t142.5 -68q94 0 161 65l12 -10q-83 -144 -221 -144zM696 510
q-52 0 -87 -35t-44 -106h235q2 60 -25 100.5t-79 40.5zM294 508q-71 0 -107 -54t-36 -151q0 -40 9.5 -85.5t28.5 -89.5t54 -73t80 -29q70 0 105 54t35 152q0 40 -9.5 85t-28 89t-53 73t-78.5 29z" />
    <glyph glyph-name="Racute" unicode="&#x154;" horiz-adv-x="742" 
d="M38 0v-2v18q69 8 84 27t15 101v433q0 31 -0.5 48t-5.5 32t-9 21.5t-18.5 12.5t-26.5 8t-39 6v18h121q32 0 99.5 0.5t84.5 0.5q314 0 314 -191q0 -149 -187 -182l150 -234q37 -55 64 -75.5t71 -24.5v-18h-204q-42 84 -82 144l-52 81q-18 27 -41.5 66.5t-33.5 52.5h-88
v-198q0 -81 15.5 -100t85.5 -27v-18h-317zM528 533q0 90 -46.5 122t-146.5 32h-81v-309h81q100 0 146.5 32t46.5 123zM541 920l-219 -129h-21l83 129h157z" />
    <glyph glyph-name="racute" unicode="&#x155;" horiz-adv-x="435" 
d="M302 772h129l-186 -169h-16zM18 0h2v18q57 6 68.5 26t11.5 100v224q0 73 -10.5 86t-69.5 13v18l184 62l2 -104q24 32 41 50.5t46 36.5t58 18q34 0 54.5 -18t20.5 -48q0 -27 -17.5 -45.5t-44.5 -18.5q-18 0 -34 15l-32 31q-9 9 -18 9q-30 0 -76 -59v-270q0 -85 16.5 -102
t102.5 -23v-19h-305z" />
    <glyph glyph-name="Rcommaaccent" unicode="&#x156;" horiz-adv-x="742" 
d="M343 -116v-1q0 26 18.5 43.5t44.5 17.5q27 0 43 -19t16 -49q0 -54 -38.5 -107.5t-94.5 -79.5l-5 10q77 58 77 127q-25 2 -43 18t-18 40zM38 -1v-2v18q69 8 84 27t15 101v433q0 31 -0.5 48t-5.5 32t-9 21.5t-18.5 12.5t-26.5 8t-39 6v18h121q32 0 99.5 0.5t84.5 0.5
q314 0 314 -191q0 -149 -187 -182l150 -234q37 -55 64 -75.5t71 -24.5v-18h-204q-42 84 -82 144l-52 81q-18 27 -41.5 66.5t-33.5 52.5h-88v-198q0 -81 15.5 -100t85.5 -27v-18h-317zM528 532q0 90 -46.5 122t-146.5 32h-81v-309h81q100 0 146.5 32t46.5 123z" />
    <glyph glyph-name="rcommaaccent" unicode="&#x157;" horiz-adv-x="435" 
d="M83 -116v-1q0 26 18.5 43.5t44.5 17.5q27 0 43 -19t16 -49q0 -54 -38.5 -107.5t-94.5 -79.5l-5 10q77 58 77 127q-25 2 -43 18t-18 40zM18 -1h2v18q57 6 68.5 26t11.5 100v224q0 73 -10.5 86t-69.5 13v18l184 62l2 -104q24 32 41 50.5t46 36.5t58 18q34 0 54.5 -18
t20.5 -48q0 -27 -17.5 -45.5t-44.5 -18.5q-18 0 -34 15l-32 31q-9 9 -18 9q-30 0 -76 -59v-270q0 -85 16.5 -102t102.5 -23v-19h-305z" />
    <glyph glyph-name="Rcaron" unicode="&#x158;" horiz-adv-x="742" 
d="M38 0v-2v18q69 8 84 27t15 101v433q0 31 -0.5 48t-5.5 32t-9 21.5t-18.5 12.5t-26.5 8t-39 6v18h121q32 0 99.5 0.5t84.5 0.5q314 0 314 -191q0 -149 -187 -182l150 -234q37 -55 64 -75.5t71 -24.5v-18h-204q-42 84 -82 144l-52 81q-18 27 -41.5 66.5t-33.5 52.5h-88
v-198q0 -81 15.5 -100t85.5 -27v-18h-317zM528 533q0 90 -46.5 122t-146.5 32h-81v-309h81q100 0 146.5 32t46.5 123zM332 791l-145 139h23l130 -59l130 59h23l-145 -139h-16z" />
    <glyph glyph-name="rcaron" unicode="&#x159;" horiz-adv-x="435" 
d="M270 603h-13l-158 169h19l145 -81l145 81h20zM18 0h2v18q57 6 68.5 26t11.5 100v224q0 73 -10.5 86t-69.5 13v18l184 62l2 -104q24 32 41 50.5t46 36.5t58 18q34 0 54.5 -18t20.5 -48q0 -27 -17.5 -45.5t-44.5 -18.5q-18 0 -34 15l-32 31q-9 9 -18 9q-30 0 -76 -59v-270
q0 -85 16.5 -102t102.5 -23v-19h-305z" />
    <glyph glyph-name="Sacute" unicode="&#x15a;" horiz-adv-x="614" 
d="M296 -13l1 1q-136 0 -232 54v246h20q9 -80 29.5 -134.5t50.5 -81.5t61.5 -37.5t70.5 -10.5q69 0 119 36.5t50 104.5q0 49 -35.5 80.5t-106.5 64.5l-81 36q-173 76 -173 210q0 82 70.5 137.5t171.5 55.5q130 0 204 -47l3 -209h-20q-31 220 -190 220q-64 0 -106 -31
t-42 -86q0 -27 9 -49t27.5 -37.5t34.5 -25t40 -20.5l85 -38q101 -45 152 -93t51 -127q0 -101 -78.5 -160t-185.5 -59zM515 923l-219 -129h-21l83 129h157z" />
    <glyph glyph-name="sacute" unicode="&#x15b;" horiz-adv-x="473" 
d="M287 772h129l-186 -169h-16zM256 547h-1q82 0 130 -24l1 -152h-21q-27 136 -131 136q-40 0 -67 -19t-27 -51q0 -30 20.5 -49.5t61.5 -40.5l56 -30q73 -39 105.5 -74t32.5 -96q0 -73 -58 -116.5t-138 -43.5q-87 0 -159 37v188h19q24 -180 147 -180q44 0 74.5 21t30.5 65
q0 30 -21.5 52t-67.5 45l-56 30q-65 36 -95 68.5t-30 89.5q0 69 60.5 106.5t133.5 37.5z" />
    <glyph glyph-name="Scircumflex" unicode="&#x15c;" horiz-adv-x="614" 
d="M296 -13l1 1q-136 0 -232 54v246h20q9 -80 29.5 -134.5t50.5 -81.5t61.5 -37.5t70.5 -10.5q69 0 119 36.5t50 104.5q0 49 -35.5 80.5t-106.5 64.5l-81 36q-173 76 -173 210q0 82 70.5 137.5t171.5 55.5q130 0 204 -47l3 -209h-20q-31 220 -190 220q-64 0 -106 -31
t-42 -86q0 -27 9 -49t27.5 -37.5t34.5 -25t40 -20.5l85 -38q101 -45 152 -93t51 -127q0 -101 -78.5 -160t-185.5 -59zM307 933h16l145 -139h-23l-130 59l-130 -59h-23z" />
    <glyph glyph-name="scircumflex" unicode="&#x15d;" horiz-adv-x="473" 
d="M252 772l158 -169h-20l-145 81l-145 -81h-19l158 169h13zM256 547h-1q82 0 130 -24l1 -152h-21q-27 136 -131 136q-40 0 -67 -19t-27 -51q0 -30 20.5 -49.5t61.5 -40.5l56 -30q73 -39 105.5 -74t32.5 -96q0 -73 -58 -116.5t-138 -43.5q-87 0 -159 37v188h19
q24 -180 147 -180q44 0 74.5 21t30.5 65q0 30 -21.5 52t-67.5 45l-56 30q-65 36 -95 68.5t-30 89.5q0 69 60.5 106.5t133.5 37.5z" />
    <glyph glyph-name="Scedilla" unicode="&#x15e;" horiz-adv-x="614" 
d="M312 -13l2 2l-42 -70q17 9 42 9q34 0 54.5 -20.5t20.5 -50.5q0 -46 -33 -70t-73 -24q-48 0 -99 29l10 22q26 -14 64 -14q28 0 45 12t17 35q0 33 -36.5 40.5t-62.5 -9.5l-9 5l63 106q-122 4 -209 53v246h20q9 -80 29.5 -134.5t50.5 -81.5t61.5 -37.5t70.5 -10.5
q69 0 119 36.5t50 104.5q0 49 -35.5 80.5t-106.5 64.5l-81 36q-173 76 -173 210q0 82 70.5 137.5t171.5 55.5q130 0 204 -47l3 -209h-20q-31 220 -190 220q-64 0 -106 -31t-42 -86q0 -27 9 -49t27.5 -37.5t34.5 -25t40 -20.5l85 -38q101 -45 152 -93t51 -127
q0 -97 -73 -155.5t-176 -63.5z" />
    <glyph glyph-name="scedilla" unicode="&#x15f;" horiz-adv-x="473" 
d="M136 -119h3l64 107q-78 5 -140 36v188h19q24 -180 147 -180q44 0 74.5 21t30.5 65q0 30 -21.5 52t-67.5 45l-56 30q-65 36 -95 68.5t-30 89.5q0 69 60.5 106.5t133.5 37.5q82 0 130 -24l1 -152h-21q-27 136 -131 136q-40 0 -67 -19t-27 -51q0 -30 20.5 -49.5t61.5 -40.5
l56 -30q73 -39 105.5 -74t32.5 -96q0 -69 -52.5 -112t-127.5 -48l-42 -70q19 9 42 9q34 0 55.5 -20.5t21.5 -50.5q0 -46 -34 -70t-75 -24q-47 0 -98 29l10 22q30 -14 63 -14q29 0 46 12t17 35q0 22 -18 32.5t-41 9t-41 -10.5z" />
    <glyph glyph-name="Scaron" unicode="&#x160;" horiz-adv-x="614" 
d="M296 -13l1 1q-136 0 -232 54v246h20q9 -80 29.5 -134.5t50.5 -81.5t61.5 -37.5t70.5 -10.5q69 0 119 36.5t50 104.5q0 49 -35.5 80.5t-106.5 64.5l-81 36q-173 76 -173 210q0 82 70.5 137.5t171.5 55.5q130 0 204 -47l3 -209h-20q-31 220 -190 220q-64 0 -106 -31
t-42 -86q0 -27 9 -49t27.5 -37.5t34.5 -25t40 -20.5l85 -38q101 -45 152 -93t51 -127q0 -101 -78.5 -160t-185.5 -59zM310 794l-145 139h23l130 -59l130 59h23l-145 -139h-16z" />
    <glyph glyph-name="scaron" unicode="&#x161;" horiz-adv-x="473" 
d="M257 603h-13l-158 169h19l145 -81l145 81h20zM256 547h-1q82 0 130 -24l1 -152h-21q-27 136 -131 136q-40 0 -67 -19t-27 -51q0 -30 20.5 -49.5t61.5 -40.5l56 -30q73 -39 105.5 -74t32.5 -96q0 -73 -58 -116.5t-138 -43.5q-87 0 -159 37v188h19q24 -180 147 -180
q44 0 74.5 21t30.5 65q0 30 -21.5 52t-67.5 45l-56 30q-65 36 -95 68.5t-30 89.5q0 69 60.5 106.5t133.5 37.5z" />
    <glyph glyph-name="uni0162" unicode="&#x162;" horiz-adv-x="770" 
d="M315 -116v-1q0 26 18.5 43.5t44.5 17.5q27 0 43 -19t16 -49q0 -54 -38.5 -107.5t-94.5 -79.5l-5 10q77 58 77 127q-25 2 -43 18t-18 40zM217 -1v19q74 6 92 28t18 99v548h-31q-114 0 -161.5 -36.5t-89.5 -159.5h-19l29 230q76 -3 226 -3h209q149 0 225 3l29 -230h-18
q-41 122 -90 159t-162 37h-30v-548q0 -77 18 -99t92 -28v-19h-337z" />
    <glyph glyph-name="uni0163" unicode="&#x163;" horiz-adv-x="345" 
d="M120 -116v-1q0 26 18.5 43.5t44.5 17.5q27 0 43 -19t16 -49q0 -54 -38.5 -107.5t-94.5 -79.5l-5 10q77 58 77 127q-25 2 -43 18t-18 40zM208 -14h1q-62 0 -93.5 36.5t-31.5 118.5v356h-87v40h88v90l105 73v-163h130v-40h-130v-337q0 -59 14.5 -82.5t54.5 -23.5
q43 0 77 31l9 -9q-27 -42 -57.5 -66t-79.5 -24z" />
    <glyph glyph-name="Tcaron" unicode="&#x164;" horiz-adv-x="770" 
d="M217 0v19q74 6 92 28t18 99v548h-31q-114 0 -161.5 -36.5t-89.5 -159.5h-19l29 230q76 -3 226 -3h209q149 0 225 3l29 -230h-18q-41 122 -90 159t-162 37h-30v-548q0 -77 18 -99t92 -28v-19h-337zM377 793l-145 139h23l130 -59l130 59h23l-145 -139h-16z" />
    <glyph glyph-name="tcaron" unicode="&#x165;" horiz-adv-x="442" 
d="M356 750v-1q0 26 18.5 43.5t44.5 17.5q27 0 43 -19t16 -49q0 -54 -38.5 -107.5t-94.5 -79.5l-5 10q77 58 77 127q-25 2 -43 18t-18 40zM208 -14h1q-62 0 -93.5 36.5t-31.5 118.5v356h-87v40h88v90l105 73v-163h130v-40h-130v-337q0 -59 14.5 -82.5t54.5 -23.5q43 0 77 31
l9 -9q-27 -42 -57.5 -66t-79.5 -24z" />
    <glyph glyph-name="Tbar" unicode="&#x166;" horiz-adv-x="770" 
d="M217 0v19q74 6 92 28t18 99v206h-130v44h130v298h-31q-114 0 -161.5 -36.5t-89.5 -159.5h-19l29 230q76 -3 226 -3h209q149 0 225 3l29 -230h-18q-41 122 -90 159t-162 37h-30v-298h130v-44h-130v-206q0 -77 18 -99t92 -28v-19h-337z" />
    <glyph glyph-name="tbar" unicode="&#x167;" horiz-adv-x="372" 
d="M222 -13h1q-62 0 -93.5 36.5t-31.5 118.5v191h-87v40h87v125h-87v40h88v90l105 73v-163h130v-40h-130v-125h130v-40h-130v-172q0 -59 14.5 -82.5t54.5 -23.5q43 0 77 31l9 -9q-27 -42 -57.5 -66t-79.5 -24z" />
    <glyph glyph-name="Utilde" unicode="&#x168;" horiz-adv-x="787" 
d="M120 273v1v306q0 44 -2 64.5t-15 35t-28.5 18t-53.5 9.5v18h314v-18q-27 -4 -38.5 -6t-26 -8t-19 -12.5t-9.5 -21t-5.5 -32.5t-0.5 -48v-295q0 -247 188 -247q200 0 200 261v281q0 30 -0.5 48t-5.5 32.5t-9.5 21t-19 12.5t-26 8t-38.5 6v18h244v-18q-27 -4 -39 -6
t-26.5 -8t-18.5 -12.5t-9 -21.5t-5.5 -32t-0.5 -48v-280q0 -158 -67.5 -235t-207.5 -77q-275 0 -275 286zM521 865h2q51 0 61 50h16q0 -53 -24 -90t-69 -37q-34 0 -83.5 30.5t-79.5 30.5q-53 0 -63 -50h-16q0 53 24 90t69 37q33 0 83.5 -30.5t79.5 -30.5z" />
    <glyph glyph-name="utilde" unicode="&#x169;" horiz-adv-x="587" 
d="M493 342v1v-178q0 -70 10.5 -84t67.5 -16v-17l-168 -55l-13 97q-25 -43 -64.5 -72.5t-89.5 -29.5q-69 0 -113 49t-44 151q0 29 1 108.5t1 108.5q0 65 -11 81t-66 20v18l184 18q-2 -104 -2 -199v-136q0 -76 22.5 -112t72.5 -36q67 0 106 62v284q0 65 -11 81t-66 20v18
l186 18q-3 -156 -3 -200zM154 636h1h-19q0 53 24 94.5t70 41.5q30 0 80 -31.5t70 -31.5q27 0 40 14t15 46h19q0 -131 -86 -131q-35 0 -84 31.5t-74 31.5q-24 0 -39 -17t-17 -48z" />
    <glyph glyph-name="Umacron" unicode="&#x16a;" horiz-adv-x="787" 
d="M120 273v1v306q0 44 -2 64.5t-15 35t-28.5 18t-53.5 9.5v18h314v-18q-27 -4 -38.5 -6t-26 -8t-19 -12.5t-9.5 -21t-5.5 -32.5t-0.5 -48v-295q0 -247 188 -247q200 0 200 261v281q0 30 -0.5 48t-5.5 32.5t-9.5 21t-19 12.5t-26 8t-38.5 6v18h244v-18q-27 -4 -39 -6
t-26.5 -8t-18.5 -12.5t-9 -21.5t-5.5 -32t-0.5 -48v-280q0 -158 -67.5 -235t-207.5 -77q-275 0 -275 286zM572 819h-296v68h296v-68z" />
    <glyph glyph-name="umacron" unicode="&#x16b;" horiz-adv-x="587" 
d="M493 342v1v-178q0 -70 10.5 -84t67.5 -16v-17l-168 -55l-13 97q-25 -43 -64.5 -72.5t-89.5 -29.5q-69 0 -113 49t-44 151q0 29 1 108.5t1 108.5q0 65 -11 81t-66 20v18l184 18q-2 -104 -2 -199v-136q0 -76 22.5 -112t72.5 -36q67 0 106 62v284q0 65 -11 81t-66 20v18
l186 18q-3 -156 -3 -200zM437 666h-296v68h296v-68z" />
    <glyph glyph-name="Ubreve" unicode="&#x16c;" horiz-adv-x="787" 
d="M120 273v1v306q0 44 -2 64.5t-15 35t-28.5 18t-53.5 9.5v18h314v-18q-27 -4 -38.5 -6t-26 -8t-19 -12.5t-9.5 -21t-5.5 -32.5t-0.5 -48v-295q0 -247 188 -247q200 0 200 261v281q0 30 -0.5 48t-5.5 32.5t-9.5 21t-19 12.5t-26 8t-38.5 6v18h244v-18q-27 -4 -39 -6
t-26.5 -8t-18.5 -12.5t-9 -21.5t-5.5 -32t-0.5 -48v-280q0 -158 -67.5 -235t-207.5 -77q-275 0 -275 286zM414 827q82 0 88 96h48q0 -54 -35 -94.5t-101 -40.5q-65 0 -99.5 40.5t-34.5 94.5h48q5 -96 86 -96z" />
    <glyph glyph-name="ubreve" unicode="&#x16d;" horiz-adv-x="587" 
d="M493 342v1v-178q0 -70 10.5 -84t67.5 -16v-17l-168 -55l-13 97q-25 -43 -64.5 -72.5t-89.5 -29.5q-69 0 -113 49t-44 151q0 29 1 108.5t1 108.5q0 65 -11 81t-66 20v18l184 18q-2 -104 -2 -199v-136q0 -76 22.5 -112t72.5 -36q67 0 106 62v284q0 65 -11 81t-66 20v18
l186 18q-3 -156 -3 -200zM291 664h1q88 0 94 99h51q0 -56 -37.5 -98.5t-107.5 -42.5t-107.5 42.5t-37.5 98.5h51q8 -99 93 -99z" />
    <glyph glyph-name="Uring" unicode="&#x16e;" horiz-adv-x="787" 
d="M334 880q0 39 27 66.5t66 27.5t66.5 -27.5t27.5 -66.5q0 -38 -27.5 -65.5t-66.5 -27.5t-66 27.5t-27 65.5zM373 880q0 -25 15 -40.5t39 -15.5q23 0 38.5 15.5t15.5 40.5t-15.5 41t-38.5 16q-24 0 -39 -16t-15 -41zM120 273v1v306q0 44 -2 64.5t-15 35t-28.5 18t-53.5 9.5
v18h314v-18q-27 -4 -38.5 -6t-26 -8t-19 -12.5t-9.5 -21t-5.5 -32.5t-0.5 -48v-295q0 -247 188 -247q200 0 200 261v281q0 30 -0.5 48t-5.5 32.5t-9.5 21t-19 12.5t-26 8t-38.5 6v18h244v-18q-27 -4 -39 -6t-26.5 -8t-18.5 -12.5t-9 -21.5t-5.5 -32t-0.5 -48v-280
q0 -158 -67.5 -235t-207.5 -77q-275 0 -275 286z" />
    <glyph glyph-name="uring" unicode="&#x16f;" horiz-adv-x="587" 
d="M197 702q0 40 27 67t66 27t66.5 -27t27.5 -67q0 -38 -27.5 -65.5t-66.5 -27.5t-66 27.5t-27 65.5zM236 702q0 -25 15 -40t39 -15t39 15.5t15 39.5q0 25 -15.5 41t-38.5 16q-24 0 -39 -16t-15 -41zM493 342v1v-178q0 -70 10.5 -84t67.5 -16v-17l-168 -55l-13 97
q-25 -43 -64.5 -72.5t-89.5 -29.5q-69 0 -113 49t-44 151q0 29 1 108.5t1 108.5q0 65 -11 81t-66 20v18l184 18q-2 -104 -2 -199v-136q0 -76 22.5 -112t72.5 -36q67 0 106 62v284q0 65 -11 81t-66 20v18l186 18q-3 -156 -3 -200z" />
    <glyph glyph-name="Uhungarumlaut" unicode="&#x170;" horiz-adv-x="787" 
d="M696 922l-219 -129h-21l83 129h157zM519 922l-219 -129h-21l83 129h157zM120 273v1v306q0 44 -2 64.5t-15 35t-28.5 18t-53.5 9.5v18h314v-18q-27 -4 -38.5 -6t-26 -8t-19 -12.5t-9.5 -21t-5.5 -32.5t-0.5 -48v-295q0 -247 188 -247q200 0 200 261v281q0 30 -0.5 48
t-5.5 32.5t-9.5 21t-19 12.5t-26 8t-38.5 6v18h244v-18q-27 -4 -39 -6t-26.5 -8t-18.5 -12.5t-9 -21.5t-5.5 -32t-0.5 -48v-280q0 -158 -67.5 -235t-207.5 -77q-275 0 -275 286z" />
    <glyph glyph-name="uhungarumlaut" unicode="&#x171;" horiz-adv-x="587" 
d="M493 342v1v-178q0 -70 10.5 -84t67.5 -16v-17l-168 -55l-13 97q-25 -43 -64.5 -72.5t-89.5 -29.5q-69 0 -113 49t-44 151q0 29 1 108.5t1 108.5q0 65 -11 81t-66 20v18l184 18q-2 -104 -2 -199v-136q0 -76 22.5 -112t72.5 -36q67 0 106 62v284q0 65 -11 81t-66 20v18
l186 18q-3 -156 -3 -200zM401 773h129l-186 -161h-16zM225 773h129l-186 -161h-16z" />
    <glyph glyph-name="Uogonek" unicode="&#x172;" horiz-adv-x="787" 
d="M120 273v1v306q0 44 -2 64.5t-15 35t-28.5 18t-53.5 9.5v18h314v-18q-27 -4 -38.5 -6t-26 -8t-19 -12.5t-9.5 -21t-5.5 -32.5t-0.5 -48v-295q0 -247 188 -247q200 0 200 261v281q0 30 -0.5 48t-5.5 32.5t-9.5 21t-19 12.5t-26 8t-38.5 6v18h244v-18q-27 -4 -39 -6
t-26.5 -8t-18.5 -12.5t-9 -21.5t-5.5 -32t-0.5 -48v-280q0 -280 -218 -308q-60 -50 -60 -103q0 -29 17 -46.5t43 -17.5q31 0 58 15l6 -10q-49 -49 -109 -49q-38 0 -65 20.5t-27 61.5q0 61 104 125h-24q-275 0 -275 286z" />
    <glyph glyph-name="uogonek" unicode="&#x173;" horiz-adv-x="587" 
d="M493 342v1v-178q0 -70 10.5 -84t67.5 -16v-17l-146 -48q-63 -49 -63 -105q0 -29 17 -46.5t43 -17.5q31 0 58 15l6 -10q-49 -49 -109 -49q-38 0 -65 20.5t-27 61.5q0 66 117 133l-12 88q-25 -43 -64.5 -72.5t-89.5 -29.5q-69 0 -113 49t-44 151q0 29 1 108.5t1 108.5
q0 65 -11 81t-66 20v18l184 18q-2 -104 -2 -199v-136q0 -76 22.5 -112t72.5 -36q67 0 106 62v284q0 65 -11 81t-66 20v18l186 18q-3 -156 -3 -200z" />
    <glyph glyph-name="Wcircumflex" unicode="&#x174;" horiz-adv-x="1067" 
d="M542 932h16l145 -139h-23l-130 59l-130 -59h-23zM1058 725l1 1v-18q-39 -3 -58 -13.5t-37 -45t-40 -111.5l-161 -549h-54l-176 516l-151 -516h-55l-212 622q-21 59 -38.5 75.5t-66.5 20.5v18h294v-18q-52 -6 -67 -21.5t-3 -53.5l149 -458l119 415l-46 136h130l179 -551
l98 340q38 136 33.5 161.5t-66.5 31.5v18h228z" />
    <glyph glyph-name="wcircumflex" unicode="&#x175;" horiz-adv-x="804" 
d="M437 772l158 -169h-20l-145 81l-145 -81h-19l158 169h13zM527 -12l-130 394l-133 -394h-29l-163 464q-15 38 -28 51t-41 17v18h242v-18q-53 -3 -61.5 -23t8.5 -57l88 -276l126 374h43l123 -375l79 228q19 53 22.5 77.5t-8 36.5t-43.5 15v18h178v-18q-35 -4 -50.5 -22
t-36.5 -74l-156 -436h-30z" />
    <glyph glyph-name="Ycircumflex" unicode="&#x176;" horiz-adv-x="726" 
d="M412 290h-1v-144q0 -78 18 -99.5t92 -27.5v-19h-337v19q74 6 92 28t18 99v139l-187 326q-32 54 -51 72t-53 24v18h294v-18q-53 -6 -68.5 -22.5t2.5 -51.5l161 -290l131 223q32 54 38 84t-8.5 42t-51.5 15v18h220v-18q-41 -6 -69 -30t-61 -82zM376 932h16l145 -139h-23
l-130 59l-130 -59h-23z" />
    <glyph glyph-name="ycircumflex" unicode="&#x177;" horiz-adv-x="591" 
d="M151 -221l-1 1q-39 0 -62.5 17.5t-23.5 47.5q0 25 14.5 41t32.5 16q16 0 30 -16l50 -49q24 41 55 114l19 46l-194 457q-16 37 -29 51t-40 16v18h246v-18q-54 -3 -63.5 -23t8.5 -56l130 -313l108 261q28 66 22 93.5t-59 36.5v18h191v-18q-35 -5 -48 -20.5t-34 -64.5
q-3 -8 -5 -12l-209 -495q-34 -83 -61 -116t-77 -33zM327 773l158 -169h-20l-145 81l-145 -81h-19l158 169h13z" />
    <glyph glyph-name="Ydieresis" unicode="&#x178;" horiz-adv-x="726" 
d="M412 290h-1v-144q0 -78 18 -99.5t92 -27.5v-19h-337v19q74 6 92 28t18 99v139l-187 326q-32 54 -51 72t-53 24v18h294v-18q-53 -6 -68.5 -22.5t2.5 -51.5l161 -290l131 223q32 54 38 84t-8.5 42t-51.5 15v18h220v-18q-41 -6 -69 -30t-61 -82zM440 860q0 27 18 45.5
t46 18.5q26 0 44.5 -18.5t18.5 -45.5q0 -28 -18.5 -46t-44.5 -18q-28 0 -46 18t-18 46zM213 860q0 27 18 45.5t46 18.5q26 0 44 -18.5t18 -45.5q0 -28 -18 -46t-44 -18q-28 0 -46 18t-18 46z" />
    <glyph glyph-name="Zacute" unicode="&#x179;" horiz-adv-x="673" 
d="M185 36h99q54 0 84.5 1.5t66.5 7.5t56.5 17.5t42 32t37 51.5t29.5 75h18l-28 -224q-76 3 -223 3h-324v11l433 678h-52q-53 0 -84 -1.5t-66.5 -7.5t-56 -17.5t-42 -32t-37 -51.5t-29.5 -75h-19l29 224q76 -3 223 -3h282v-10zM564 922l-219 -129h-21l83 129h157z" />
    <glyph glyph-name="zacute" unicode="&#x17a;" horiz-adv-x="577" 
d="M352 772h129l-186 -169h-16zM495 0h-448v9l329 488h-83q-56 0 -84 -3.5t-51.5 -17.5t-33 -40t-15.5 -74h-21v176h425v-10l-324 -487h104q103 0 135.5 22.5t46.5 112.5h20v-176z" />
    <glyph glyph-name="Zdotaccent" unicode="&#x17b;" horiz-adv-x="673" 
d="M313 860q0 27 18 45.5t45 18.5q26 0 44 -18.5t18 -45.5q0 -28 -18 -46t-44 -18q-28 0 -45.5 18t-17.5 46zM185 36h99q54 0 84.5 1.5t66.5 7.5t56.5 17.5t42 32t37 51.5t29.5 75h18l-28 -224q-76 3 -223 3h-324v11l433 678h-52q-53 0 -84 -1.5t-66.5 -7.5t-56 -17.5
t-42 -32t-37 -51.5t-29.5 -75h-19l29 224q76 -3 223 -3h282v-10z" />
    <glyph glyph-name="zdotaccent" unicode="&#x17c;" horiz-adv-x="577" 
d="M495 0h-448v9l329 488h-83q-56 0 -84 -3.5t-51.5 -17.5t-33 -40t-15.5 -74h-21v176h425v-10l-324 -487h104q103 0 135.5 22.5t46.5 112.5h20v-176zM237 709q0 27 18 45t46 18q26 0 44 -18t18 -45q0 -29 -17.5 -47t-44.5 -18q-28 0 -46 18t-18 47z" />
    <glyph glyph-name="Zcaron" unicode="&#x17d;" horiz-adv-x="673" 
d="M185 36h99q54 0 84.5 1.5t66.5 7.5t56.5 17.5t42 32t37 51.5t29.5 75h18l-28 -224q-76 3 -223 3h-324v11l433 678h-52q-53 0 -84 -1.5t-66.5 -7.5t-56 -17.5t-42 -32t-37 -51.5t-29.5 -75h-19l29 224q76 -3 223 -3h282v-10zM362 793l-145 139h23l130 -59l130 59h23
l-145 -139h-16z" />
    <glyph glyph-name="zcaron" unicode="&#x17e;" horiz-adv-x="577" 
d="M308 603h-13l-158 169h19l145 -81l145 81h20zM495 0h-448v9l329 488h-83q-56 0 -84 -3.5t-51.5 -17.5t-33 -40t-15.5 -74h-21v176h425v-10l-324 -487h104q103 0 135.5 22.5t46.5 112.5h20v-176z" />
    <glyph glyph-name="uni018F" unicode="&#x18f;" horiz-adv-x="770" 
d="M721 372q0 -180 -102.5 -282.5t-251.5 -102.5q-143 0 -232 94.5t-85 261.5h549v15q0 143 -71.5 219t-188.5 76q-94 0 -162.5 -39t-92.5 -97l-19 5q23 85 105.5 153.5t203.5 68.5q163 0 255 -101.5t92 -270.5zM368 22q97 0 157 73t71 203h-417q0 -72 18.5 -132.5
t62.5 -102t108 -41.5z" />
    <glyph glyph-name="Scommaaccent" unicode="&#x218;" horiz-adv-x="614" 
d="M237 -116v-1q0 26 18.5 43.5t44.5 17.5q27 0 43 -19t16 -49q0 -54 -38.5 -107.5t-94.5 -79.5l-5 10q77 58 77 127q-25 2 -43 18t-18 40zM296 -14l1 1q-136 0 -232 54v246h20q9 -80 29.5 -134.5t50.5 -81.5t61.5 -37.5t70.5 -10.5q69 0 119 36.5t50 104.5q0 49 -35.5 80.5
t-106.5 64.5l-81 36q-173 76 -173 210q0 82 70.5 137.5t171.5 55.5q130 0 204 -47l3 -209h-20q-31 220 -190 220q-64 0 -106 -31t-42 -86q0 -27 9 -49t27.5 -37.5t34.5 -25t40 -20.5l85 -38q101 -45 152 -93t51 -127q0 -101 -78.5 -160t-185.5 -59z" />
    <glyph glyph-name="scommaaccent" unicode="&#x219;" horiz-adv-x="473" 
d="M173 -116v-1q0 26 18.5 43.5t44.5 17.5q27 0 43 -19t16 -49q0 -54 -38.5 -107.5t-94.5 -79.5l-5 10q77 58 77 127q-25 2 -43 18t-18 40zM256 546h-1q82 0 130 -24l1 -152h-21q-27 136 -131 136q-40 0 -67 -19t-27 -51q0 -30 20.5 -49.5t61.5 -40.5l56 -30
q73 -39 105.5 -74t32.5 -96q0 -73 -58 -116.5t-138 -43.5q-87 0 -159 37v188h19q24 -180 147 -180q44 0 74.5 21t30.5 65q0 30 -21.5 52t-67.5 45l-56 30q-65 36 -95 68.5t-30 89.5q0 69 60.5 106.5t133.5 37.5z" />
    <glyph glyph-name="Tcommaaccent" unicode="&#x21a;" horiz-adv-x="770" 
d="M315 -116v-1q0 26 18.5 43.5t44.5 17.5q27 0 43 -19t16 -49q0 -54 -38.5 -107.5t-94.5 -79.5l-5 10q77 58 77 127q-25 2 -43 18t-18 40zM217 -1v19q74 6 92 28t18 99v548h-31q-114 0 -161.5 -36.5t-89.5 -159.5h-19l29 230q76 -3 226 -3h209q149 0 225 3l29 -230h-18
q-41 122 -90 159t-162 37h-30v-548q0 -77 18 -99t92 -28v-19h-337z" />
    <glyph glyph-name="tcommaaccent" unicode="&#x21b;" horiz-adv-x="345" 
d="M120 -116v-1q0 26 18.5 43.5t44.5 17.5q27 0 43 -19t16 -49q0 -54 -38.5 -107.5t-94.5 -79.5l-5 10q77 58 77 127q-25 2 -43 18t-18 40zM208 -14h1q-62 0 -93.5 36.5t-31.5 118.5v356h-87v40h88v90l105 73v-163h130v-40h-130v-337q0 -59 14.5 -82.5t54.5 -23.5
q43 0 77 31l9 -9q-27 -42 -57.5 -66t-79.5 -24z" />
    <glyph glyph-name="uni0232" unicode="&#x232;" horiz-adv-x="726" 
d="M412 290h-1v-144q0 -78 18 -99.5t92 -27.5v-19h-337v19q74 6 92 28t18 99v139l-187 326q-32 54 -51 72t-53 24v18h294v-18q-53 -6 -68.5 -22.5t2.5 -51.5l161 -290l131 223q32 54 38 84t-8.5 42t-51.5 15v18h220v-18q-41 -6 -69 -30t-61 -82zM539 818h-296v68h296v-68z
" />
    <glyph glyph-name="uni0233" unicode="&#x233;" horiz-adv-x="591" 
d="M151 -221l-1 1q-39 0 -62.5 17.5t-23.5 47.5q0 25 14.5 41t32.5 16q16 0 30 -16l50 -49q24 41 55 114l19 46l-194 457q-16 37 -29 51t-40 16v18h246v-18q-54 -3 -63.5 -23t8.5 -56l130 -313l108 261q28 66 22 93.5t-59 36.5v18h191v-18q-35 -5 -48 -20.5t-34 -64.5
q-3 -8 -5 -12l-209 -495q-34 -83 -61 -116t-77 -33zM456 666h-296v68h296v-68z" />
    <glyph glyph-name="dotlessj" unicode="&#x237;" horiz-adv-x="307" 
d="M109 81v285q0 74 -10.5 87.5t-69.5 13.5v18l188 62q-2 -106 -2 -219v-231q0 -115 -41 -192t-156 -139l-8 10q61 64 80 133.5t19 171.5z" />
    <glyph glyph-name="uni0259" unicode="&#x259;" horiz-adv-x="527" 
d="M248 547h1q118 0 179 -76t61 -200q0 -117 -72.5 -200.5t-174.5 -83.5q-85 0 -142.5 56t-63.5 161h358v5q0 113 -51.5 181t-142.5 68q-94 0 -161 -65l-12 10q83 144 221 144zM261 24q52 0 87 35t44 106h-235q-2 -60 25 -100.5t79 -40.5z" />
    <glyph glyph-name="circumflex" unicode="&#x2c6;" horiz-adv-x="362" 
d="M188 772l158 -169h-20l-145 81l-145 -81h-19l158 169h13z" />
    <glyph glyph-name="caron" unicode="&#x2c7;" horiz-adv-x="362" 
d="M188 603h-13l-158 169h19l145 -81l145 81h20z" />
    <glyph glyph-name="breve" unicode="&#x2d8;" horiz-adv-x="331" 
d="M167 663h1q88 0 94 99h51q0 -56 -37.5 -98.5t-107.5 -42.5t-107.5 42.5t-37.5 98.5h51q8 -99 93 -99z" />
    <glyph glyph-name="dotaccent" unicode="&#x2d9;" horiz-adv-x="167" 
d="M20 709q0 27 18 45t46 18q26 0 44 -18t18 -45q0 -29 -17.5 -47t-44.5 -18q-28 0 -46 18t-18 47z" />
    <glyph glyph-name="ring" unicode="&#x2da;" horiz-adv-x="227" 
d="M20 702q0 40 27 67t66 27t66.5 -27t27.5 -67q0 -38 -27.5 -65.5t-66.5 -27.5t-66 27.5t-27 65.5zM59 702q0 -25 15 -40t39 -15q23 0 38.5 15.5t15.5 39.5q0 25 -15.5 41t-38.5 16q-24 0 -39 -16t-15 -41z" />
    <glyph glyph-name="ogonek" unicode="&#x2db;" horiz-adv-x="242" 
d="M215 -161v-1l6 -10q-49 -49 -109 -49q-38 0 -65 20.5t-27 61.5q0 70 129 140h23q-75 -51 -75 -113q0 -29 17 -46.5t43 -17.5q31 0 58 15z" />
    <glyph glyph-name="tilde" unicode="&#x2dc;" horiz-adv-x="374" 
d="M46 635h1h-19q0 53 24 94.5t70 41.5q30 0 80 -31.5t70 -31.5q27 0 40 14t15 46h19q0 -131 -86 -131q-35 0 -84 31.5t-74 31.5q-24 0 -39 -17t-17 -48z" />
    <glyph glyph-name="hungarumlaut" unicode="&#x2dd;" horiz-adv-x="420" 
d="M271 772h129l-186 -161h-16zM95 772h129l-186 -161h-16z" />
    <glyph glyph-name="uni032C" unicode="&#x32c;" horiz-adv-x="362" 
d="M195 -179h-28l-147 179h21l140 -90l140 90h21z" />
    <glyph glyph-name="Delta" unicode="&#x394;" horiz-adv-x="729" 
d="M12 0l353 723l352 -723h-705zM607 67l-242 505l-242 -505h484z" />
    <glyph glyph-name="Delta" unicode="&#x2206;" horiz-adv-x="729" 
d="M12 0l353 723l352 -723h-705zM607 67l-242 505l-242 -505h484z" />
    <glyph glyph-name="Omega" unicode="&#x3a9;" horiz-adv-x="838" 
d="M419 738q92 0 171 -34.5t132 -108.5t53 -175q0 -110 -63.5 -187t-147.5 -101v-65h191v-67h-266v177q97 16 155.5 82.5t58.5 163.5q0 115 -82 185.5t-202 70.5t-202 -70.5t-82 -185.5q0 -97 58 -163.5t155 -82.5v-177h-265v67h190v65q-84 24 -147 101t-63 187
q0 101 52.5 175t131.5 108.5t172 34.5z" />
    <glyph glyph-name="Omega" unicode="&#x2126;" horiz-adv-x="838" 
d="M419 738q92 0 171 -34.5t132 -108.5t53 -175q0 -110 -63.5 -187t-147.5 -101v-65h191v-67h-266v177q97 16 155.5 82.5t58.5 163.5q0 115 -82 185.5t-202 70.5t-202 -70.5t-82 -185.5q0 -97 58 -163.5t155 -82.5v-177h-265v67h190v65q-84 24 -147 101t-63 187
q0 101 52.5 175t131.5 108.5t172 34.5z" />
    <glyph glyph-name="pi" unicode="&#x3c0;" horiz-adv-x="673" 
d="M189 0h-72v472h-75v66h578v-66h-77v-329q0 -53 9.5 -66.5t55.5 -13.5h13v-63h-34q-71 0 -93.5 25t-22.5 106v341h-282v-472z" />
    <glyph glyph-name="Wgrave" unicode="&#x1e80;" horiz-adv-x="1067" 
d="M332 922h157l83 -129h-21zM1058 725l1 1v-18q-39 -3 -58 -13.5t-37 -45t-40 -111.5l-161 -549h-54l-176 516l-151 -516h-55l-212 622q-21 59 -38.5 75.5t-66.5 20.5v18h294v-18q-52 -6 -67 -21.5t-3 -53.5l149 -458l119 415l-46 136h130l179 -551l98 340
q38 136 33.5 161.5t-66.5 31.5v18h228z" />
    <glyph glyph-name="wgrave" unicode="&#x1e81;" horiz-adv-x="804" 
d="M527 -12l-130 394l-133 -394h-29l-163 464q-15 38 -28 51t-41 17v18h242v-18q-53 -3 -61.5 -23t8.5 -57l88 -276l126 374h43l123 -375l79 228q19 53 22.5 77.5t-8 36.5t-43.5 15v18h178v-18q-35 -4 -50.5 -22t-36.5 -74l-156 -436h-30zM237 772h129l73 -169h-16z" />
    <glyph glyph-name="Wacute" unicode="&#x1e82;" horiz-adv-x="1067" 
d="M741 922l-219 -129h-21l83 129h157zM1058 725l1 1v-18q-39 -3 -58 -13.5t-37 -45t-40 -111.5l-161 -549h-54l-176 516l-151 -516h-55l-212 622q-21 59 -38.5 75.5t-66.5 20.5v18h294v-18q-52 -6 -67 -21.5t-3 -53.5l149 -458l119 415l-46 136h130l179 -551l98 340
q38 136 33.5 161.5t-66.5 31.5v18h228z" />
    <glyph glyph-name="wacute" unicode="&#x1e83;" horiz-adv-x="804" 
d="M492 772h129l-186 -169h-16zM527 -12l-130 394l-133 -394h-29l-163 464q-15 38 -28 51t-41 17v18h242v-18q-53 -3 -61.5 -23t8.5 -57l88 -276l126 374h43l123 -375l79 228q19 53 22.5 77.5t-8 36.5t-43.5 15v18h178v-18q-35 -4 -50.5 -22t-36.5 -74l-156 -436h-30z" />
    <glyph glyph-name="Wdieresis" unicode="&#x1e84;" horiz-adv-x="1067" 
d="M1058 725l1 1v-18q-39 -3 -58 -13.5t-37 -45t-40 -111.5l-161 -549h-54l-176 516l-151 -516h-55l-212 622q-21 59 -38.5 75.5t-66.5 20.5v18h294v-18q-52 -6 -67 -21.5t-3 -53.5l149 -458l119 415l-46 136h130l179 -551l98 340q38 136 33.5 161.5t-66.5 31.5v18h228z
M597 861q0 27 18 45.5t46 18.5q26 0 44.5 -18.5t18.5 -45.5t-18 -45.5t-45 -18.5q-28 0 -46 18t-18 46zM370 861q0 27 18 45.5t46 18.5q26 0 44 -18.5t18 -45.5q0 -28 -18 -46t-44 -18q-28 0 -46 18t-18 46z" />
    <glyph glyph-name="wdieresis" unicode="&#x1e85;" horiz-adv-x="804" 
d="M249 709q0 27 18 45t46 18q26 0 44 -18t18 -45q0 -29 -17.5 -47t-44.5 -18q-28 0 -46 18t-18 47zM468 709q0 27 18.5 45t46.5 18q26 0 44 -18t18 -45q0 -29 -17.5 -47t-44.5 -18q-28 0 -46.5 18t-18.5 47zM527 -12l-130 394l-133 -394h-29l-163 464q-15 38 -28 51t-41 17
v18h242v-18q-53 -3 -61.5 -23t8.5 -57l88 -276l126 374h43l123 -375l79 228q19 53 22.5 77.5t-8 36.5t-43.5 15v18h178v-18q-35 -4 -50.5 -22t-36.5 -74l-156 -436h-30z" />
    <glyph glyph-name="uni1ECA" unicode="&#x1eca;" horiz-adv-x="391" 
d="M254 579v-433q0 -82 15 -101t84 -27v-18h-315v18q69 8 84 27t15 101v433q0 31 -0.5 48t-5.5 32t-9 21.5t-18.5 12.5t-26.5 8t-39 6v18h315v-18q-27 -4 -39 -6t-26.5 -8t-18.5 -12.5t-9 -21.5t-5.5 -32t-0.5 -48zM131 -158q0 27 18 45t46 18q26 0 44 -18t18 -45
q0 -29 -17.5 -46.5t-44.5 -17.5q-28 0 -46 17.5t-18 46.5z" />
    <glyph glyph-name="uni1ECB" unicode="&#x1ecb;" horiz-adv-x="339" 
d="M103 -158q0 27 18 45t46 18q26 0 44 -18t18 -45q0 -29 -17.5 -46.5t-44.5 -17.5q-28 0 -46 17.5t-18 46.5zM226 328v-184q0 -80 11.5 -100t68.5 -26v-18h-266v18q57 6 68.5 26t11.5 100v222q0 74 -10.5 87.5t-69.5 13.5v18l188 62q-2 -106 -2 -219zM168 668
q-30 0 -52 20.5t-22 50.5q0 29 22 49.5t52 20.5q31 0 52 -20.5t21 -49.5q0 -31 -21 -51t-52 -20z" />
    <glyph glyph-name="uni1ECC" unicode="&#x1ecc;" horiz-adv-x="848" 
d="M362 -158q0 27 18 45t46 18q26 0 44 -18t18 -45q0 -29 -17.5 -46.5t-44.5 -17.5q-28 0 -46 17.5t-18 46.5zM50 366q0 88 31.5 161.5t84.5 120t119.5 72t138.5 25.5t138.5 -25.5t119.5 -72t84.5 -120t31.5 -161.5t-31.5 -161.5t-84.5 -120t-119.5 -72t-138.5 -25.5
t-138.5 25.5t-119.5 72t-84.5 120t-31.5 161.5zM668 366q0 154 -68 248.5t-176 94.5t-176 -94.5t-68 -248.5t68 -248.5t176 -94.5t176 94.5t68 248.5z" />
    <glyph glyph-name="uni1ECD" unicode="&#x1ecd;" horiz-adv-x="624" 
d="M254 -158q0 27 18 45t46 18q26 0 44 -18t18 -45q0 -29 -17.5 -46.5t-44.5 -17.5q-28 0 -46 17.5t-18 46.5zM296 508q-71 0 -107 -54t-36 -151q0 -40 9.5 -85.5t28.5 -89.5t54 -73t80 -29q70 0 105 54t35 152q0 40 -9.5 85t-28 89t-53 73t-78.5 29zM306 547
q111 0 192.5 -79.5t81.5 -199.5q0 -117 -78 -199t-189 -82t-192.5 80t-81.5 201q0 117 77.5 198t189.5 81z" />
    <glyph glyph-name="uni1EE4" unicode="&#x1ee4;" horiz-adv-x="787" 
d="M345 -158q0 27 18 45t46 18q26 0 44 -18t18 -45q0 -29 -17.5 -46.5t-44.5 -17.5q-28 0 -46 17.5t-18 46.5zM120 273v1v306q0 44 -2 64.5t-15 35t-28.5 18t-53.5 9.5v18h314v-18q-27 -4 -38.5 -6t-26 -8t-19 -12.5t-9.5 -21t-5.5 -32.5t-0.5 -48v-295q0 -247 188 -247
q200 0 200 261v281q0 30 -0.5 48t-5.5 32.5t-9.5 21t-19 12.5t-26 8t-38.5 6v18h244v-18q-27 -4 -39 -6t-26.5 -8t-18.5 -12.5t-9 -21.5t-5.5 -32t-0.5 -48v-280q0 -158 -67.5 -235t-207.5 -77q-275 0 -275 286z" />
    <glyph glyph-name="uni1EE5" unicode="&#x1ee5;" horiz-adv-x="587" 
d="M232 -158q0 27 18 45t46 18q26 0 44 -18t18 -45q0 -29 -17.5 -46.5t-44.5 -17.5q-28 0 -46 17.5t-18 46.5zM493 342v1v-178q0 -70 10.5 -84t67.5 -16v-17l-168 -55l-13 97q-25 -43 -64.5 -72.5t-89.5 -29.5q-69 0 -113 49t-44 151q0 29 1 108.5t1 108.5q0 65 -11 81
t-66 20v18l184 18q-2 -104 -2 -199v-136q0 -76 22.5 -112t72.5 -36q67 0 106 62v284q0 65 -11 81t-66 20v18l186 18q-3 -156 -3 -200z" />
    <glyph glyph-name="Ygrave" unicode="&#x1ef2;" horiz-adv-x="726" 
d="M412 290h-1v-144q0 -78 18 -99.5t92 -27.5v-19h-337v19q74 6 92 28t18 99v139l-187 326q-32 54 -51 72t-53 24v18h294v-18q-53 -6 -68.5 -22.5t2.5 -51.5l161 -290l131 223q32 54 38 84t-8.5 42t-51.5 15v18h220v-18q-41 -6 -69 -30t-61 -82zM191 922h157l83 -129h-21z
" />
    <glyph glyph-name="ygrave" unicode="&#x1ef3;" horiz-adv-x="591" 
d="M151 -221l-1 1q-39 0 -62.5 17.5t-23.5 47.5q0 25 14.5 41t32.5 16q16 0 30 -16l50 -49q24 41 55 114l19 46l-194 457q-16 37 -29 51t-40 16v18h246v-18q-54 -3 -63.5 -23t8.5 -56l130 -313l108 261q28 66 22 93.5t-59 36.5v18h191v-18q-35 -5 -48 -20.5t-34 -64.5
q-3 -8 -5 -12l-209 -495q-34 -83 -61 -116t-77 -33zM155 773h129l73 -169h-16z" />
    <glyph glyph-name="endash" unicode="&#x2013;" horiz-adv-x="486" 
d="M451 243h-416v66h416v-66z" />
    <glyph glyph-name="emdash" unicode="&#x2014;" horiz-adv-x="713" 
d="M678 243h-643v66h643v-66z" />
    <glyph glyph-name="quoteleft" unicode="&#x2018;" horiz-adv-x="307" 
d="M211 542q0 -30 -19.5 -49.5t-50.5 -19.5q-32 0 -50 21t-18 57q0 62 43.5 123.5t105.5 92.5l7 -11q-86 -64 -87 -147q29 0 49 -19t20 -48z" />
    <glyph glyph-name="quoteright" unicode="&#x2019;" horiz-adv-x="307" 
d="M73 698q0 29 20 49t50 20q32 0 50.5 -22t18.5 -56q0 -61 -44 -123t-105 -93l-7 11q86 64 86 147q-29 1 -49 19.5t-20 47.5z" />
    <glyph glyph-name="quotesinglbase" unicode="&#x201a;" horiz-adv-x="354" 
d="M108 60q0 29 20 49t50 20q32 0 50.5 -22t18.5 -56q0 -61 -44 -123t-105 -93l-7 11q86 64 86 147q-29 1 -49 19.5t-20 47.5z" />
    <glyph glyph-name="quotedblleft" unicode="&#x201c;" horiz-adv-x="501" 
d="M406 542q0 -30 -20 -49.5t-50 -19.5q-32 0 -50 21t-18 57q0 62 43.5 123.5t105.5 92.5l7 -11q-86 -64 -87 -147q29 0 49 -19t20 -48zM211 542q0 -30 -19.5 -49.5t-50.5 -19.5q-32 0 -50 21t-18 57q0 62 43.5 123.5t105.5 92.5l7 -11q-86 -64 -87 -147q29 0 49 -19t20 -48
z" />
    <glyph glyph-name="quotedblright" unicode="&#x201d;" horiz-adv-x="502" 
d="M73 698q0 29 20 49t50 20q32 0 50.5 -22t18.5 -56q0 -61 -44 -123t-105 -93l-7 11q86 64 86 147q-29 1 -49 19.5t-20 47.5zM268 698q0 29 20 49t50 20q32 0 50.5 -22t18.5 -56q0 -61 -44 -123t-105 -93l-7 11q86 64 86 147q-29 1 -49 19.5t-20 47.5z" />
    <glyph glyph-name="quotedblbase" unicode="&#x201e;" horiz-adv-x="569" 
d="M323 60q0 29 20 49t50 20q32 0 50.5 -22t18.5 -56q0 -61 -44 -123t-105 -93l-7 11q86 64 86 147q-29 1 -49 19.5t-20 47.5zM108 60q0 29 20 49t50 20q32 0 50.5 -22t18.5 -56q0 -61 -44 -123t-105 -93l-7 11q86 64 86 147q-29 1 -49 19.5t-20 47.5z" />
    <glyph glyph-name="dagger" unicode="&#x2020;" horiz-adv-x="535" 
d="M302 0h-71v428h-207v66h207v231h71v-231h208v-66h-208v-428z" />
    <glyph glyph-name="daggerdbl" unicode="&#x2021;" horiz-adv-x="594" 
d="M332 270h208v-67h-208v-203h-70v203h-207v67h207v173h-207v67h207v215h70v-215h208v-67h-208v-173z" />
    <glyph glyph-name="bullet" unicode="&#x2022;" horiz-adv-x="454" 
d="M44 283q0 75 52.5 127.5t126.5 52.5q79 0 133 -52.5t54 -127.5q0 -78 -54 -132t-133 -54q-74 0 -126.5 54t-52.5 132z" />
    <glyph glyph-name="ellipsis" unicode="&#x2026;" horiz-adv-x="1068" 
d="M816 61q0 30 22 52t52 22q31 0 52.5 -22t21.5 -52t-21.5 -52t-52.5 -22q-30 0 -52 22t-22 52zM460 61q0 30 22 52t52 22q31 0 52.5 -22t21.5 -52t-21.5 -52t-52.5 -22q-30 0 -52 22t-22 52zM104 61q0 30 22 52t52 22q31 0 52.5 -22t21.5 -52t-21.5 -52t-52.5 -22
q-30 0 -52 22t-22 52z" />
    <glyph glyph-name="perthousand" unicode="&#x2030;" horiz-adv-x="1432" 
d="M769 206q0 -193 79 -193t79 193q0 192 -79 192t-79 -192zM681 206q0 87 48 149.5t119 62.5q72 0 119.5 -62.5t47.5 -149.5q0 -86 -47.5 -149.5t-119.5 -63.5q-71 0 -119 63.5t-48 149.5zM1159 206q0 -193 79 -193t79 193q0 192 -79 192t-79 -192zM1071 206q0 87 48 149.5
t119 62.5q72 0 119.5 -62.5t47.5 -149.5q0 -86 -47.5 -149.5t-119.5 -63.5q-71 0 -119 63.5t-48 149.5zM302 0h-67l508 725h66zM116 523q0 -193 79 -193t79 193q0 192 -79 192t-79 -192zM28 523q0 87 48 149.5t119 62.5q72 0 119.5 -62.5t47.5 -149.5q0 -86 -47.5 -149.5
t-119.5 -63.5q-71 0 -119 63.5t-48 149.5z" />
    <glyph glyph-name="guilsinglleft" unicode="&#x2039;" horiz-adv-x="361" 
d="M238 38l-205 235l205 234h49l-131 -234l131 -235h-49z" />
    <glyph glyph-name="guilsinglright" unicode="&#x203a;" horiz-adv-x="362" 
d="M329 273l-205 -235h-50l132 235l-132 234h50z" />
    <glyph glyph-name="fraction" unicode="&#x2044;" horiz-adv-x="264" 
d="M-88 0h-67l508 725h66z" />
    <glyph glyph-name="zero.superior" unicode="&#x2070;" horiz-adv-x="390" 
d="M116 644q0 -193 79 -193t79 193q0 192 -79 192t-79 -192zM28 644q0 87 48 149.5t119 62.5q72 0 119.5 -62.5t47.5 -149.5q0 -86 -47.5 -149.5t-119.5 -63.5q-71 0 -119 63.5t-48 149.5z" />
    <glyph glyph-name="four.superior" unicode="&#x2074;" horiz-adv-x="352" 
d="M267 438h-80v99h-176v48l186 261h70v-243h67v-66h-67v-99zM187 603v184l-132 -184h132z" />
    <glyph glyph-name="five.superior" unicode="&#x2075;" horiz-adv-x="320" 
d="M42 652l1 1l69 194h184l-22 -72h-163l-20 -55q96 -5 148.5 -44t52.5 -104q0 -64 -46.5 -102.5t-112.5 -38.5q-56 0 -102 18v103h11q12 -47 37.5 -72.5t59.5 -25.5q35 0 55 22t20 58q0 51 -42 82.5t-130 35.5z" />
    <glyph glyph-name="six.superior" unicode="&#x2076;" horiz-adv-x="377" 
d="M191 431q-70 0 -111.5 44t-41.5 121q0 99 79 170.5t190 97.5l6 -16q-155 -50 -184 -183q33 46 92 46q50 0 84.5 -35t34.5 -93q0 -64 -43.5 -108t-105.5 -44zM185 669q-34 0 -59 -22q-2 -24 -2 -37q0 -159 68 -159q63 0 63 108q0 49 -19 79.5t-51 30.5z" />
    <glyph glyph-name="seven.superior" unicode="&#x2077;" horiz-adv-x="305" 
d="M12 774l2 -1v72h289v-73q-81 -76 -122 -152.5t-43 -182.5h-89q2 60 21.5 112t55.5 93.5t71 70.5t83 61h-268z" />
    <glyph glyph-name="eight.superior" unicode="&#x2078;" horiz-adv-x="375" 
d="M183 431v-2q-62 0 -104 27.5t-42 79.5q0 66 87 100q-69 45 -69 111q0 48 38.5 77.5t94.5 29.5q53 0 90.5 -23t37.5 -63q0 -58 -83 -91q50 -22 77.5 -51t27.5 -73q0 -56 -46.5 -89t-108.5 -33zM94 538q0 -40 22.5 -64t66.5 -24q45 0 67 19t22 48q0 28 -19.5 46t-59.5 38
l-40 19l-13 6q-46 -23 -46 -88zM263 763q0 69 -74 69q-34 0 -53 -16.5t-19 -40.5q0 -44 71 -79l30 -14q45 28 45 81z" />
    <glyph glyph-name="nine.superior" unicode="&#x2079;" horiz-adv-x="377" 
d="M187 856h-1q70 0 111.5 -45t41.5 -122q0 -99 -79 -170t-191 -97l-5 15q74 24 122 70.5t62 114.5q-33 -48 -92 -48q-50 0 -84 36t-34 94q0 64 43.5 108t105.5 44zM192 618q34 0 58 21q3 18 3 38q0 158 -68 158q-64 0 -64 -108q0 -49 19 -79t52 -30z" />
    <glyph glyph-name="plus.superior" unicode="&#x207a;" horiz-adv-x="382" 
d="M215 438h-48v132h-131v44h131v128h48v-128h131v-44h-131v-132z" />
    <glyph glyph-name="minus.superior" unicode="&#x207b;" horiz-adv-x="382" 
d="M39 614h304v-44h-304v44z" />
    <glyph glyph-name="equal.superior" unicode="&#x207c;" horiz-adv-x="382" 
d="M331 631h-280v44h280v-44zM331 515h-280v44h280v-44z" />
    <glyph glyph-name="parenleft.superior" unicode="&#x207d;" horiz-adv-x="189" 
d="M107 593v1q0 -211 65 -286l-8 -10q-133 106 -133 296q0 193 133 296l8 -10q-65 -75 -65 -287z" />
    <glyph glyph-name="parenright.superior" unicode="&#x207e;" horiz-adv-x="190" 
d="M82 593v-1q0 211 -66 287l8 10q135 -104 135 -296q0 -188 -135 -296l-8 10q66 76 66 286z" />
    <glyph glyph-name="n.superior" unicode="&#x207f;" horiz-adv-x="351" 
d="M9 698l-1 -1v9l122 39v-56q38 56 91 56q38 0 60.5 -26.5t22.5 -80.5v-121q0 -46 5.5 -56t37.5 -14v-10h-159v10q26 4 31 14t5 56v107q0 68 -46 68q-30 0 -46 -18v-157q0 -46 5 -56t31 -14v-10h-159v10q32 4 38 14.5t6 55.5v120q0 38 -7.5 48.5t-36.5 12.5z" />
    <glyph glyph-name="zero.inferior" unicode="&#x2080;" horiz-adv-x="390" 
d="M116 78q0 -193 79 -193t79 193q0 192 -79 192t-79 -192zM28 78q0 87 48 149.5t119 62.5q72 0 119.5 -62.5t47.5 -149.5q0 -86 -47.5 -149.5t-119.5 -63.5q-71 0 -119 63.5t-48 149.5z" />
    <glyph glyph-name="one.inferior" unicode="&#x2081;" horiz-adv-x="291" 
d="M194 287v-334q0 -44 8 -54.5t45 -16.5v-10h-198v11q45 4 55 15t10 56v265h-77v11q99 11 145 57h12z" />
    <glyph glyph-name="two.inferior" unicode="&#x2082;" horiz-adv-x="314" 
d="M278 187l1 -1q0 -41 -20 -70.5t-84 -93.5q-51 -49 -84 -78h198v-73h-299v7q118 106 163 170t45 115q0 36 -20 56t-54 20q-72 0 -89 -65h-17q10 56 45.5 86t93.5 30q51 0 86 -27t35 -76z" />
    <glyph glyph-name="three.inferior" unicode="&#x2083;" horiz-adv-x="335" 
d="M131 -135h1q-58 0 -100 20v103h10q12 -49 37.5 -74.5t59.5 -25.5q37 0 59 22t22 57q0 33 -25 66t-83 42v12l13 6q38 16 56 42.5t18 50.5q0 53 -66 53q-69 0 -86 -65h-18q10 56 47 86t94 30q45 0 76.5 -20.5t31.5 -56.5q0 -31 -26.5 -55.5t-57.5 -37.5v-2q49 -15 78 -47
t29 -76q0 -60 -51.5 -95t-118.5 -35z" />
    <glyph glyph-name="four.inferior" unicode="&#x2084;" horiz-adv-x="352" 
d="M267 -128h-80v99h-176v48l186 261h70v-243h67v-66h-67v-99zM187 37v184l-132 -184h132z" />
    <glyph glyph-name="five.inferior" unicode="&#x2085;" horiz-adv-x="320" 
d="M42 86l1 1l69 194h184l-22 -72h-163l-20 -55q96 -5 148.5 -44t52.5 -104q0 -64 -46.5 -102.5t-112.5 -38.5q-56 0 -102 18v103h11q12 -47 37.5 -72.5t59.5 -25.5q35 0 55 22t20 58q0 51 -42 82.5t-130 35.5z" />
    <glyph glyph-name="six.inferior" unicode="&#x2086;" horiz-adv-x="377" 
d="M191 -135q-70 0 -111.5 44t-41.5 121q0 99 79 170.5t190 97.5l6 -16q-155 -50 -184 -183q33 46 92 46q50 0 84.5 -35t34.5 -93q0 -64 -43.5 -108t-105.5 -44zM185 103q-34 0 -59 -22q-2 -24 -2 -37q0 -159 68 -159q63 0 63 108q0 49 -19 79.5t-51 30.5z" />
    <glyph glyph-name="seven.inferior" unicode="&#x2087;" horiz-adv-x="305" 
d="M12 208l2 -1v72h289v-73q-81 -76 -122 -152.5t-43 -182.5h-89q2 60 21.5 112t55.5 93.5t71 70.5t83 61h-268z" />
    <glyph glyph-name="eight.inferior" unicode="&#x2088;" horiz-adv-x="376" 
d="M183 -135v-2q-62 0 -104 27.5t-42 79.5q0 66 87 100q-69 45 -69 111q0 48 38.5 77.5t94.5 29.5q53 0 90.5 -23t37.5 -63q0 -58 -83 -91q50 -22 77.5 -51t27.5 -73q0 -56 -46.5 -89t-108.5 -33zM94 -28q0 -40 22.5 -64t66.5 -24q45 0 67 19t22 48q0 28 -19.5 46t-59.5 38
l-40 19l-13 6q-46 -23 -46 -88zM263 197q0 69 -74 69q-34 0 -53 -16.5t-19 -40.5q0 -44 71 -79l30 -14q45 28 45 81z" />
    <glyph glyph-name="nine.inferior" unicode="&#x2089;" horiz-adv-x="377" 
d="M187 290h-1q70 0 111.5 -45t41.5 -122q0 -99 -79 -170t-191 -97l-5 15q74 24 122 70.5t62 114.5q-33 -48 -92 -48q-50 0 -84 36t-34 94q0 64 43.5 108t105.5 44zM192 52q34 0 58 21q3 18 3 38q0 158 -68 158q-64 0 -64 -108q0 -49 19 -79t52 -30z" />
    <glyph glyph-name="parenleft.inferior" unicode="&#x208d;" horiz-adv-x="186" 
d="M107 27v1q0 -211 65 -286l-8 -10q-133 106 -133 296q0 193 133 296l8 -10q-65 -75 -65 -287z" />
    <glyph glyph-name="parenright.inferior" unicode="&#x208e;" horiz-adv-x="188" 
d="M81 27v-1q0 211 -66 287l8 10q135 -104 135 -296q0 -188 -135 -296l-8 10q66 76 66 286z" />
    <glyph glyph-name="Euro" unicode="&#x20ac;" horiz-adv-x="771" 
d="M368 266h-137q17 -115 68.5 -179t129.5 -64q89 0 135 51.5t59 149.5h103q-17 -113 -99 -175t-196 -62q-130 0 -210 74t-102 205h-127l40 60h80q-1 13 -1 40q0 39 2 50h-121l40 60h90q27 125 107 195t203 70q112 0 192 -63t98 -173h-103q-21 200 -187 200
q-76 0 -128.5 -59.5t-70.5 -169.5h258l-41 -60h-224q-1 -17 -1 -50q0 -27 1 -40h183z" />
    <glyph glyph-name="afii61289" unicode="&#x2113;" horiz-adv-x="406" 
d="M115 141h1v77l-82 -62l-33 48l115 88v260q0 96 31 141t103 45q60 0 92 -42.5t32 -113.5q0 -167 -182 -306l-13 -10v-125q0 -54 14 -76t53 -22q52 0 93 41l34 -43q-59 -54 -133 -54q-70 0 -97.5 37t-27.5 117zM179 551v1v-211l20 16q110 83 110 222q0 103 -66 103
q-35 0 -49.5 -29.5t-14.5 -101.5z" />
    <glyph glyph-name="afii61352" unicode="&#x2116;" horiz-adv-x="1152" 
d="M630 185v394q0 79 -16 99.5t-84 30.5v16h245v-16q-68 -10 -84 -30.5t-16 -99.5v-587h-50l-441 571v-417q0 -78 16 -100t83 -30v-16h-245v16q67 8 83 30t16 100v478q-49 67 -83 85v16h159zM956 750q64 0 108.5 -43.5t44.5 -109.5q0 -64 -42.5 -109.5t-109.5 -45.5
q-65 0 -108.5 45t-43.5 112q0 61 43 106t108 45zM951 731q-59 0 -59 -114q0 -23 3.5 -47t11 -49.5t22.5 -42t36 -16.5q56 0 56 118q0 21 -3.5 44.5t-10.5 49t-21.5 41.5t-34.5 16zM1102 352h-286v55h286v-55z" />
    <glyph glyph-name="uni2117" unicode="&#x2117;" horiz-adv-x="837" 
d="M44 361q0 164 109 270t267 106q157 0 265.5 -106t108.5 -270t-108.5 -269t-265.5 -105q-159 0 -267.5 105t-108.5 269zM109 361q0 -139 89 -228t222 -89t221.5 88.5t88.5 228.5t-88.5 229t-221.5 89t-222 -89t-89 -229zM442 330h-83v-155h-64v397h120q95 0 140.5 -24.5
t45.5 -95.5q0 -52 -40.5 -87t-118.5 -35zM535 451q0 61 -99 61h-77v-124h81q50 0 72.5 15t22.5 48z" />
    <glyph glyph-name="trademark" unicode="&#x2122;" horiz-adv-x="876" 
d="M148 319v345h-130v61h327v-61h-131v-345h-66zM648 319h-74l-122 338v-338h-65v406h112l114 -327l110 327h112v-406h-66v338z" />
    <glyph glyph-name="estimated" unicode="&#x212e;" horiz-adv-x="589" 
d="M505 150h-1h41q-26 -73 -88 -118t-157 -45q-130 0 -202 79.5t-72 201.5q0 124 74 201.5t195 77.5q123 0 193 -80t72 -198h-416v-193q24 -24 69.5 -39.5t95.5 -15.5q71 0 121 34t75 95zM143 461v-160h298v159q-57 53 -147 53q-102 0 -151 -52z" />
    <glyph glyph-name="onethird" unicode="&#x2153;" horiz-adv-x="893" 
d="M194 732v-334q0 -44 8 -54.5t45 -16.5v-10h-198v11q45 4 55 15t10 56v265h-77v11q99 11 145 57h12zM203 0h-67l508 725h66zM686 -7h1q-58 0 -100 20v103h10q12 -49 37.5 -74.5t59.5 -25.5q37 0 59 22t22 57q0 33 -25 66t-83 42v12l13 6q38 16 56 42.5t18 50.5
q0 53 -66 53q-69 0 -86 -65h-18q10 56 47 86t94 30q45 0 76.5 -20.5t31.5 -56.5q0 -31 -26.5 -55.5t-57.5 -37.5v-2q49 -15 78 -47t29 -76q0 -60 -51.5 -95t-118.5 -35z" />
    <glyph glyph-name="twothirds" unicode="&#x2154;" horiz-adv-x="923" 
d="M278 632l1 -1q0 -41 -20 -70.5t-84 -93.5q-51 -49 -84 -78h198v-73h-299v7q118 106 163 170t45 115q0 36 -20 56t-54 20q-72 0 -89 -65h-17q10 56 45.5 86t93.5 30q51 0 86 -27t35 -76zM233 -1h-67l508 725h66zM716 -8h1q-58 0 -100 20v103h10q12 -49 37.5 -74.5
t59.5 -25.5q37 0 59 22t22 57q0 33 -25 66t-83 42v12l13 6q38 16 56 42.5t18 50.5q0 53 -66 53q-69 0 -86 -65h-18q10 56 47 86t94 30q45 0 76.5 -20.5t31.5 -56.5q0 -31 -26.5 -55.5t-57.5 -37.5v-2q49 -15 78 -47t29 -76q0 -60 -51.5 -95t-118.5 -35z" />
    <glyph glyph-name="uni2155" unicode="&#x2155;" horiz-adv-x="874" 
d="M194 732v-334q0 -44 8 -54.5t45 -16.5v-10h-198v11q45 4 55 15t10 56v265h-77v11q99 11 145 57h12zM203 0h-67l508 725h66zM597 214l1 1l69 194h184l-22 -72h-163l-20 -55q96 -5 148.5 -44t52.5 -104q0 -64 -46.5 -102.5t-112.5 -38.5q-56 0 -102 18v103h11
q12 -47 37.5 -72.5t59.5 -25.5q35 0 55 22t20 58q0 51 -42 82.5t-130 35.5z" />
    <glyph glyph-name="uni2156" unicode="&#x2156;" horiz-adv-x="904" 
d="M278 632l1 -1q0 -41 -20 -70.5t-84 -93.5q-51 -49 -84 -78h198v-73h-299v7q118 106 163 170t45 115q0 36 -20 56t-54 20q-72 0 -89 -65h-17q10 56 45.5 86t93.5 30q51 0 86 -27t35 -76zM233 -1h-67l508 725h66zM627 213l1 1l69 194h184l-22 -72h-163l-20 -55
q96 -5 148.5 -44t52.5 -104q0 -64 -46.5 -102.5t-112.5 -38.5q-56 0 -102 18v103h11q12 -47 37.5 -72.5t59.5 -25.5q35 0 55 22t20 58q0 51 -42 82.5t-130 35.5z" />
    <glyph glyph-name="uni2157" unicode="&#x2157;" horiz-adv-x="922" 
d="M131 310h1q-58 0 -100 20v103h10q12 -49 37.5 -74.5t59.5 -25.5q37 0 59 22t22 57q0 33 -25 66t-83 42v12l13 6q38 16 56 42.5t18 50.5q0 53 -66 53q-69 0 -86 -65h-18q10 56 47 86t94 30q45 0 76.5 -20.5t31.5 -56.5q0 -31 -26.5 -55.5t-57.5 -37.5v-2q49 -15 78 -47
t29 -76q0 -60 -51.5 -95t-118.5 -35zM252 0h-67l508 725h66zM646 214l1 1l69 194h184l-22 -72h-163l-20 -55q96 -5 148.5 -44t52.5 -104q0 -64 -46.5 -102.5t-112.5 -38.5q-56 0 -102 18v103h11q12 -47 37.5 -72.5t59.5 -25.5q35 0 55 22t20 58q0 51 -42 82.5t-130 35.5z
" />
    <glyph glyph-name="uni2158" unicode="&#x2158;" horiz-adv-x="936" 
d="M264 0h-67l508 725h66zM267 317h-80v99h-176v48l186 261h70v-243h67v-66h-67v-99zM187 482v184l-132 -184h132zM658 214l1 1l69 194h184l-22 -72h-163l-20 -55q96 -5 148.5 -44t52.5 -104q0 -64 -46.5 -102.5t-112.5 -38.5q-56 0 -102 18v103h11q12 -47 37.5 -72.5
t59.5 -25.5q35 0 55 22t20 58q0 51 -42 82.5t-130 35.5z" />
    <glyph glyph-name="uni2159" unicode="&#x2159;" horiz-adv-x="932" 
d="M746 -7q-70 0 -111.5 44t-41.5 121q0 99 79 170.5t190 97.5l6 -16q-155 -50 -184 -183q33 46 92 46q50 0 84.5 -35t34.5 -93q0 -64 -43.5 -108t-105.5 -44zM740 231q-34 0 -59 -22q-2 -24 -2 -37q0 -159 68 -159q63 0 63 108q0 49 -19 79.5t-51 30.5zM194 732v-334
q0 -44 8 -54.5t45 -16.5v-10h-198v11q45 4 55 15t10 56v265h-77v11q99 11 145 57h12zM203 0h-67l508 725h66z" />
    <glyph glyph-name="uni215A" unicode="&#x215a;" horiz-adv-x="961" 
d="M42 531l1 1l69 194h184l-22 -72h-163l-20 -55q96 -5 148.5 -44t52.5 -104q0 -64 -46.5 -102.5t-112.5 -38.5q-56 0 -102 18v103h11q12 -47 37.5 -72.5t59.5 -25.5q35 0 55 22t20 58q0 51 -42 82.5t-130 35.5zM233 1h-67l508 725h66zM776 -6q-70 0 -111.5 44t-41.5 121
q0 99 79 170.5t190 97.5l6 -16q-155 -50 -184 -183q33 46 92 46q50 0 84.5 -35t34.5 -93q0 -64 -43.5 -108t-105.5 -44zM770 232q-34 0 -59 -22q-2 -24 -2 -37q0 -159 68 -159q63 0 63 108q0 49 -19 79.5t-51 30.5z" />
    <glyph glyph-name="oneeighth" unicode="&#x215b;" horiz-adv-x="929" 
d="M194 732v-334q0 -44 8 -54.5t45 -16.5v-10h-198v11q45 4 55 15t10 56v265h-77v11q99 11 145 57h12zM203 0h-67l508 725h66zM738 -7v-2q-62 0 -104 27.5t-42 79.5q0 66 87 100q-69 45 -69 111q0 48 38.5 77.5t94.5 29.5q53 0 90.5 -23t37.5 -63q0 -58 -83 -91
q50 -22 77.5 -51t27.5 -73q0 -56 -46.5 -89t-108.5 -33zM649 100q0 -40 22.5 -64t66.5 -24q45 0 67 19t22 48q0 28 -19.5 46t-59.5 38l-40 19l-13 6q-46 -23 -46 -88zM818 325q0 69 -74 69q-34 0 -53 -16.5t-19 -40.5q0 -44 71 -79l30 -14q45 28 45 81z" />
    <glyph glyph-name="threeeighths" unicode="&#x215c;" horiz-adv-x="977" 
d="M131 310h1q-58 0 -100 20v103h10q12 -49 37.5 -74.5t59.5 -25.5q37 0 59 22t22 57q0 33 -25 66t-83 42v12l13 6q38 16 56 42.5t18 50.5q0 53 -66 53q-69 0 -86 -65h-18q10 56 47 86t94 30q45 0 76.5 -20.5t31.5 -56.5q0 -31 -26.5 -55.5t-57.5 -37.5v-2q49 -15 78 -47
t29 -76q0 -60 -51.5 -95t-118.5 -35zM252 0h-67l508 725h66zM787 -7v-2q-62 0 -104 27.5t-42 79.5q0 66 87 100q-69 45 -69 111q0 48 38.5 77.5t94.5 29.5q53 0 90.5 -23t37.5 -63q0 -58 -83 -91q50 -22 77.5 -51t27.5 -73q0 -56 -46.5 -89t-108.5 -33zM698 100
q0 -40 22.5 -64t66.5 -24q45 0 67 19t22 48q0 28 -19.5 46t-59.5 38l-40 19l-13 6q-46 -23 -46 -88zM867 325q0 69 -74 69q-34 0 -53 -16.5t-19 -40.5q0 -44 71 -79l30 -14q45 28 45 81z" />
    <glyph glyph-name="fiveeighths" unicode="&#x215d;" horiz-adv-x="958" 
d="M42 531l1 1l69 194h184l-22 -72h-163l-20 -55q96 -5 148.5 -44t52.5 -104q0 -64 -46.5 -102.5t-112.5 -38.5q-56 0 -102 18v103h11q12 -47 37.5 -72.5t59.5 -25.5q35 0 55 22t20 58q0 51 -42 82.5t-130 35.5zM233 1h-67l508 725h66zM768 -6v-2q-62 0 -104 27.5t-42 79.5
q0 66 87 100q-69 45 -69 111q0 48 38.5 77.5t94.5 29.5q53 0 90.5 -23t37.5 -63q0 -58 -83 -91q50 -22 77.5 -51t27.5 -73q0 -56 -46.5 -89t-108.5 -33zM679 101q0 -40 22.5 -64t66.5 -24q45 0 67 19t22 48q0 28 -19.5 46t-59.5 38l-40 19l-13 6q-46 -23 -46 -88zM848 326
q0 69 -74 69q-34 0 -53 -16.5t-19 -40.5q0 -44 71 -79l30 -14q45 28 45 81z" />
    <glyph glyph-name="seveneighths" unicode="&#x215e;" horiz-adv-x="943" 
d="M217 0h-67l508 725h66zM752 -7v-2q-62 0 -104 27.5t-42 79.5q0 66 87 100q-69 45 -69 111q0 48 38.5 77.5t94.5 29.5q53 0 90.5 -23t37.5 -63q0 -58 -83 -91q50 -22 77.5 -51t27.5 -73q0 -56 -46.5 -89t-108.5 -33zM663 100q0 -40 22.5 -64t66.5 -24q45 0 67 19t22 48
q0 28 -19.5 46t-59.5 38l-40 19l-13 6q-46 -23 -46 -88zM832 325q0 69 -74 69q-34 0 -53 -16.5t-19 -40.5q0 -44 71 -79l30 -14q45 28 45 81zM12 651l2 -1v72h289v-73q-81 -76 -122 -152.5t-43 -182.5h-89q2 60 21.5 112t55.5 93.5t71 70.5t83 61h-268z" />
    <glyph glyph-name="uni215F" unicode="&#x215f;" horiz-adv-x="555" 
d="M194 732v-334q0 -44 8 -54.5t45 -16.5v-10h-198v11q45 4 55 15t10 56v265h-77v11q99 11 145 57h12zM203 0h-67l508 725h66z" />
    <glyph glyph-name="uni2190" unicode="&#x2190;" horiz-adv-x="800" 
d="M20 268l308 308l43 -47l-230 -226h629v-65h-634l235 -232l-43 -47z" />
    <glyph glyph-name="uni2191" unicode="&#x2191;" horiz-adv-x="800" 
d="M400 742l308 -308l-47 -43l-228 232v-623h-65v623l-229 -232l-46 43z" />
    <glyph glyph-name="uni2192" unicode="&#x2192;" horiz-adv-x="800" 
d="M486 576l309 -308l-309 -309l-43 47l235 232h-648v65h643l-230 226z" />
    <glyph glyph-name="uni2193" unicode="&#x2193;" horiz-adv-x="800" 
d="M400 -17l-307 308l46 44l229 -233v623h65v-623l228 233l47 -44z" />
    <glyph glyph-name="uni2196" unicode="&#x2196;" horiz-adv-x="800" 
d="M132 125v437h436v-61h-328l467 -469l-45 -46l-469 468v-329h-61z" />
    <glyph glyph-name="uni2197" unicode="&#x2197;" horiz-adv-x="800" 
d="M668 562v-437h-60v329l-469 -468l-47 46l469 469h-328v61h435z" />
    <glyph glyph-name="uni2198" unicode="&#x2198;" horiz-adv-x="800" 
d="M668 436v-436h-435v61h328l-469 469l47 45l470 -467v328h59z" />
    <glyph glyph-name="uni2199" unicode="&#x2199;" horiz-adv-x="800" 
d="M132 0v436h61v-328l469 467l46 -45l-467 -469h327v-61h-436z" />
    <glyph glyph-name="uni219E" unicode="&#x219e;" horiz-adv-x="800" 
d="M329 -35l-309 308l309 308l42 -47l-230 -226h162l273 273l42 -47l-229 -226h381v-65h-386l234 -231l-42 -47l-279 278h-161l235 -231z" />
    <glyph glyph-name="uni219F" unicode="&#x219f;" horiz-adv-x="800" 
d="M93 429l307 308l308 -308l-47 -43l-228 232v-161l275 -275l-47 -44l-228 233v-376h-65v377l-229 -234l-46 44l275 276v161l-229 -233z" />
    <glyph glyph-name="uni21A0" unicode="&#x21a0;" horiz-adv-x="800" 
d="M471 581l309 -308l-309 -308l-44 47l236 231h-160l-279 -278l-43 47l234 231h-385v65h380l-229 226l43 47l273 -273h160l-230 226z" />
    <glyph glyph-name="uni21A1" unicode="&#x21a1;" horiz-adv-x="800" 
d="M708 290l-308 -308l-307 308l46 44l229 -233v161l-275 275l46 44l229 -233v377h65v-376l228 232l47 -44l-275 -275v-161l228 233z" />
    <glyph glyph-name="uni21A2" unicode="&#x21a2;" horiz-adv-x="800" 
d="M20 268l308 308l44 -47l-231 -226h331l274 273l44 -47l-261 -261l261 -262l-44 -47l-278 279h-332l236 -232l-44 -47z" />
    <glyph glyph-name="uni21A3" unicode="&#x21a3;" horiz-adv-x="800" 
d="M780 268l-308 -309l-43 47l235 232h-332l-278 -279l-44 47l261 262l-261 261l44 47l274 -273h330l-229 226l43 47z" />
    <glyph glyph-name="uni21A4" unicode="&#x21a4;" horiz-adv-x="800" 
d="M751 0h-72v238h-543l235 -234l-43 -47l-308 309l308 310l43 -47l-230 -226h538v235h72v-538z" />
    <glyph glyph-name="uni21A5" unicode="&#x21a5;" horiz-adv-x="800" 
d="M400 742l308 -308l-47 -43l-228 232v-558h231v-65h-536v65h240v559l-229 -233l-46 43z" />
    <glyph glyph-name="uni21A6" unicode="&#x21a6;" horiz-adv-x="800" 
d="M121 238v-238h-71v538h71v-235h536l-230 226l45 47l308 -310l-308 -308l-45 46l236 234h-542z" />
    <glyph glyph-name="uni21A7" unicode="&#x21a7;" horiz-adv-x="800" 
d="M400 -18l-307 308l46 44l229 -233v559h-240v65h536v-65h-231v-559l228 233l47 -44z" />
    <glyph glyph-name="uni21B0" unicode="&#x21b0;" horiz-adv-x="800" 
d="M686 -216v454h-550l235 -232l-43 -47l-308 309l308 308l43 -47l-230 -226h609v-519h-64z" />
    <glyph glyph-name="uni21B1" unicode="&#x21b1;" horiz-adv-x="800" 
d="M471 576l309 -308l-309 -309l-44 47l236 232h-549v-454h-64v519h607l-230 226z" />
    <glyph glyph-name="uni21B2" unicode="&#x21b2;" horiz-adv-x="800" 
d="M20 268l308 308l43 -47l-230 -226h545v422h64v-487h-614l235 -232l-43 -47z" />
    <glyph glyph-name="uni21B3" unicode="&#x21b3;" horiz-adv-x="800" 
d="M471 576l309 -308l-309 -309l-44 47l236 232h-613v487h64v-422h543l-230 226z" />
    <glyph glyph-name="partialdiff" unicode="&#x2202;" horiz-adv-x="570" 
d="M451 266q0 107 -50 161.5t-120 54.5q-76 0 -120 -57t-44 -159t44 -159.5t120 -57.5q70 0 120 55t50 162zM280 -13q-108 0 -172.5 74.5t-64.5 204.5q0 128 65 203t168 75q50 0 91.5 -20t65.5 -54l1 1q-28 84 -106 142t-169 62v65q168 -12 268 -129.5t100 -302.5
q0 -159 -67.5 -240t-179.5 -81z" />
    <glyph glyph-name="product" unicode="&#x220f;" horiz-adv-x="672" 
d="M146 -189h-71v914h522v-914h-72v847h-379v-847z" />
    <glyph glyph-name="summation" unicode="&#x2211;" horiz-adv-x="581" 
d="M24 -126l289 394l-289 395v62h531v-67h-447l288 -390l-288 -390h447v-67h-531v63z" />
    <glyph glyph-name="minus" unicode="&#x2212;" 
d="M77 309h524v-68h-524v68z" />
    <glyph glyph-name="radical" unicode="&#x221a;" horiz-adv-x="540" 
d="M0 224l136 61l165 -383l140 823h69l-157 -914h-87l-167 380l-69 -32z" />
    <glyph glyph-name="infinity" unicode="&#x221e;" horiz-adv-x="787" 
d="M589 416h1q78 0 126 -44.5t48 -118.5t-46 -117.5t-122 -43.5q-106 0 -205 112q-96 -112 -195 -112q-79 0 -126.5 43.5t-47.5 117.5t48 118.5t127 44.5q103 0 196 -109q51 58 96.5 83.5t99.5 25.5zM198 149q71 0 155 105q-44 53 -81.5 78.5t-78.5 25.5q-43 0 -71.5 -28
t-28.5 -77q0 -44 29.5 -74t75.5 -30zM587 358q-40 0 -74.5 -24.5t-77.5 -76.5q45 -57 82 -82.5t78 -25.5q42 0 71 29t29 75t-30 75.5t-78 29.5z" />
    <glyph glyph-name="integral" unicode="&#x222b;" horiz-adv-x="271" 
d="M105 146v349q0 129 34.5 184t99.5 55q33 0 53.5 -15.5t20.5 -41.5q0 -20 -11 -32.5t-30 -12.5q-18 0 -29 10.5t-11 25.5q0 17 11 31q-41 0 -56 -34t-15 -105q0 -27 1 -82t1 -87v-352q0 -128 -34 -181t-101 -53q-33 0 -53.5 14.5t-20.5 41.5q0 20 12.5 32.5t31.5 12.5
q18 0 28 -10.5t10 -26.5q0 -17 -11 -30q40 0 55.5 34.5t15.5 104.5q0 27 -1 82t-1 86z" />
    <glyph glyph-name="approxequal" unicode="&#x2248;" 
d="M454 373q29 0 48.5 18.5t21.5 53.5h71q-5 -65 -42.5 -100.5t-98.5 -35.5q-43 0 -119.5 36t-109.5 36q-29 0 -48.5 -18.5t-21.5 -53.5h-72q4 65 42.5 100.5t99.5 35.5q52 0 127.5 -36t101.5 -36zM454 189q29 0 48.5 18.5t21.5 53.5h71q-5 -65 -42.5 -101.5t-98.5 -36.5
q-43 0 -119.5 36.5t-109.5 36.5q-29 0 -48.5 -18t-21.5 -55h-72q4 66 42.5 102t99.5 36q52 0 127.5 -36t101.5 -36z" />
    <glyph glyph-name="notequal" unicode="&#x2260;" 
d="M92 345v71h288l82 143l61 -33l-63 -110h127v-71h-168l-76 -133h244v-71h-285l-95 -166l-62 33l76 133h-129v71h170l77 133h-247z" />
    <glyph glyph-name="lessequal" unicode="&#x2264;" 
d="M162 333l449 -140v-75l-544 182v65l544 183v-75zM66 0v68h547v-68h-547z" />
    <glyph glyph-name="greaterequal" unicode="&#x2265;" 
d="M517 333l-450 140v75l545 -183v-65l-545 -182v75zM613 0h-547v68h547v-68z" />
    <glyph glyph-name="uni25A0" unicode="&#x25a0;" horiz-adv-x="800" 
d="M133 0v538h535v-538h-535z" />
    <glyph glyph-name="uni25A1" unicode="&#x25a1;" horiz-adv-x="800" 
d="M133 0v538h535v-538h-535zM197 475v-411h408v411h-408z" />
    <glyph glyph-name="lozenge" unicode="&#x25ca;" horiz-adv-x="576" 
d="M289 645l-170 -296l170 -296l169 296zM40 349l249 422l247 -422l-247 -421z" />
    <glyph glyph-name="uni25CB" unicode="&#x25cb;" horiz-adv-x="800" 
d="M122 268q0 116 81.5 197.5t196.5 81.5q116 0 197.5 -81.5t81.5 -197.5t-82 -198.5t-197 -82.5t-196.5 82.5t-81.5 198.5zM400 48q89 0 151 63.5t62 156.5t-62 155.5t-151 62.5t-150.5 -62.5t-61.5 -155.5q0 -90 62 -155t150 -65z" />
    <glyph glyph-name="uni25CF" unicode="&#x25cf;" horiz-adv-x="800" 
d="M122 268q0 116 81.5 197.5t196.5 81.5q116 0 197.5 -81.5t81.5 -197.5t-82 -198.5t-197 -82.5t-196.5 82.5t-81.5 198.5z" />
    <glyph glyph-name="fi" unicode="&#xfb01;" horiz-adv-x="747" 
d="M363 695l-35 51q-10 15 -25 15q-19 0 -41 -11t-42 -37t-20.5 -68.5t22.5 -106.5h169v-40h-166v-354q0 -32 0.5 -48.5t5.5 -32t10.5 -21.5t22 -12t32 -7.5t48.5 -3.5v-19h-305v18q57 6 68.5 26t11.5 100v354h-86v40h86v11q0 111 68.5 181.5t163.5 70.5q45 0 74.5 -23
t29.5 -52q0 -22 -15 -35.5t-38 -13.5q-26 0 -39 18zM634 328v-184q0 -80 11.5 -100t68.5 -26v-18h-266v18q57 6 68.5 26t11.5 100v222q0 74 -10.5 87.5t-69.5 13.5v18l188 62q-2 -106 -2 -219zM576 668q-30 0 -52 20.5t-22 50.5q0 29 22 49.5t52 20.5q31 0 52 -20.5
t21 -49.5q0 -31 -21 -51t-52 -20z" />
    <glyph glyph-name="fl" unicode="&#xfb02;" horiz-adv-x="748" 
d="M363 695l-35 51q-10 15 -25 15q-19 0 -41 -11t-42 -37t-20.5 -68.5t22.5 -106.5h169v-40h-166v-354q0 -32 0.5 -48.5t5.5 -32t10.5 -21.5t22 -12t32 -7.5t48.5 -3.5v-19h-305v18q57 6 68.5 26t11.5 100v354h-86v40h86v11q0 111 68.5 181.5t163.5 70.5q45 0 74.5 -23
t29.5 -52q0 -22 -15 -35.5t-38 -13.5q-26 0 -39 18zM533 144v501q0 72 -10.5 85t-69.5 13v18l188 62q-2 -106 -2 -219v-460q0 -80 11.5 -100t68.5 -26v-18h-266v18q57 6 68.5 26t11.5 100z" />
    <glyph glyph-name="apple" horiz-adv-x="454" 
d="M44 283q0 75 52.5 127.5t126.5 52.5q79 0 133 -52.5t54 -127.5q0 -78 -54 -132t-133 -54q-74 0 -126.5 54t-52.5 132z" />
    <glyph glyph-name="dot" horiz-adv-x="335" 
d="M168 668q-30 0 -52 20.5t-22 50.5q0 29 22 49.5t52 20.5q31 0 52 -20.5t21 -49.5q0 -31 -21 -51t-52 -20z" />
    <glyph glyph-name="dotaccent.low" horiz-adv-x="163" 
d="M18 -158q0 27 18 45t46 18q26 0 44 -18t18 -45q0 -29 -17.5 -46.5t-44.5 -17.5q-28 0 -46 17.5t-18 46.5z" />
    <glyph glyph-name="commaaccent" horiz-adv-x="179" 
d="M36 -116v-1q0 26 18.5 43.5t44.5 17.5q27 0 43 -19t16 -49q0 -54 -38.5 -107.5t-94.5 -79.5l-5 10q77 58 77 127q-25 2 -43 18t-18 40z" />
    <glyph glyph-name="caron.slovak" horiz-adv-x="302" 
d="M98 750v-1q0 26 18.5 43.5t44.5 17.5q27 0 43 -19t16 -49q0 -54 -38.5 -107.5t-94.5 -79.5l-5 10q77 58 77 127q-25 2 -43 18t-18 40z" />
    <glyph glyph-name="zero.slashed" horiz-adv-x="662" 
d="M50 366q0 94 30.5 178t96.5 141t154 57t154 -57t96.5 -141t30.5 -178q0 -95 -30.5 -179.5t-96.5 -142t-154 -57.5t-154 57.5t-96.5 142t-30.5 179.5zM168 366l1 -1q0 -76 8 -123l309 242q-13 98 -52 160t-103 62q-44 0 -77 -30t-51 -81t-26.5 -108t-8.5 -121zM494 365v1
q0 34 -3 69l-305 -240q39 -173 146 -173q44 0 77 30.5t50.5 82t26 109t8.5 121.5z" />
    <glyph glyph-name="one.pof" horiz-adv-x="474" 
d="M305 573v-428q0 -81 12.5 -100t79.5 -27v-18h-307v20q44 4 64 8.5t32 20t13.5 33.5t1.5 63v303h-141v24q90 8 140.5 32.5t82.5 68.5h22z" />
    <glyph glyph-name="two.pof" horiz-adv-x="517" 
d="M450 432q0 -56 -35 -103t-110 -112q-76 -69 -149 -130h308v-87h-439v12q181 155 250 235.5t69 148.5q0 49 -32 75.5t-88 26.5q-54 0 -91.5 -27t-48.5 -73h-27q10 76 66.5 125.5t139.5 49.5q78 0 132.5 -36.5t54.5 -104.5z" />
    <glyph glyph-name="three.pof" horiz-adv-x="543" 
d="M39 -154v-1v150h20q19 -59 66.5 -98.5t110.5 -39.5q67 0 107.5 38.5t40.5 102.5q0 19 -4.5 39t-17.5 45.5t-34 46.5t-58 38.5t-85 24.5v22l23 10q69 30 104.5 76.5t35.5 86.5q0 50 -31.5 78.5t-95.5 29.5q-59 0 -102 -35t-55 -93h-29q17 98 78.5 151.5t155.5 53.5
q81 0 133.5 -36.5t52.5 -100.5q0 -52 -44.5 -100.5t-100.5 -76.5v-3q182 -64 182 -215q0 -67 -40.5 -119t-101 -77.5t-127.5 -25.5q-122 0 -184 28z" />
    <glyph glyph-name="four.pof" horiz-adv-x="606" 
d="M451 -167h-105v167h-329v23l348 533h86v-477h130v-79h-130v-167zM346 79v369l-242 -369h242z" />
    <glyph glyph-name="five.pof" horiz-adv-x="533" 
d="M73 240v1l111 316h300l-33 -100h-259l-44 -125q159 -25 240 -96t81 -169q0 -112 -80.5 -180t-188.5 -68q-50 0 -100.5 10.5t-77.5 25.5v155h19q18 -74 65 -112.5t109 -38.5q63 0 106.5 43t43.5 113q0 180 -292 225z" />
    <glyph glyph-name="six.pof" horiz-adv-x="615" 
d="M318 -13v-1q-126 0 -195 83.5t-69 221.5q0 169 124 294.5t319 164.5l6 -25q-147 -39 -225 -118t-99 -202q65 78 165 78q94 0 155.5 -61t61.5 -169q0 -109 -71 -187.5t-172 -78.5zM305 421q-78 0 -130 -46q-3 -35 -3 -71q0 -120 37 -201t110 -81q64 0 95 50.5t31 137.5
q0 38 -7 73.5t-22.5 67.5t-44 51t-66.5 19z" />
    <glyph glyph-name="seven.pof" horiz-adv-x="571" 
d="M41 456v100h499v-33l-392 -706l-72 44l386 595h-421z" />
    <glyph glyph-name="eight.pof" horiz-adv-x="613" 
d="M298 -13v-2q-101 0 -172.5 49.5t-71.5 142.5q0 62 45.5 111t116.5 77q-131 76 -131 191q0 81 65 130.5t160 49.5q91 0 154.5 -42t63.5 -115q0 -103 -154 -168l14 -7q80 -41 126 -88t46 -118q0 -99 -76.5 -155t-185.5 -56zM144 182v2q0 -71 40.5 -116t113.5 -45
q77 0 121 36t44 94q0 51 -31 85t-103 70l-78 40q-7 2 -8 3q-99 -52 -99 -169zM441 576v-1q0 64 -35.5 95.5t-97.5 31.5t-98.5 -31.5t-36.5 -79.5q0 -47 33 -80t97 -64l46 -24q92 56 92 153z" />
    <glyph glyph-name="nine.pof" horiz-adv-x="615" 
d="M297 573q126 0 195 -83.5t69 -221.5q0 -169 -124 -294.5t-319 -164.5l-6 25q148 39 225 118t98 203q-61 -78 -163 -78q-94 0 -156 63.5t-62 172.5q0 107 71.5 183.5t171.5 76.5zM310 138h-1q76 0 130 45q4 31 4 72q0 77 -14.5 138.5t-48.5 102.5t-83 41
q-64 0 -95.5 -50.5t-31.5 -137.5q0 -38 7 -73.5t22.5 -67.5t44 -51t66.5 -19z" />
    <glyph glyph-name="zero.pof" horiz-adv-x="656" 
d="M324 573q116 0 199 -83t83 -209q0 -123 -79 -208.5t-195 -85.5t-199 83.5t-83 210.5q0 123 78.5 207.5t195.5 84.5zM315 536q-75 0 -113 -58t-38 -160q0 -42 10 -90t30 -95t56.5 -78t83.5 -31q72 0 109.5 58.5t37.5 160.5q0 42 -9.5 89.5t-29 95t-55.5 78t-82 30.5z" />
    <glyph glyph-name="zero.slashed.pof" horiz-adv-x="656" 
d="M324 573q116 0 199 -83t83 -209q0 -123 -79 -208.5t-195 -85.5t-199 83.5t-83 210.5q0 123 78.5 207.5t195.5 84.5zM491 243h1q0 45 -12 101l-295 -159q20 -70 60 -115.5t99 -45.5q72 0 109.5 58.5t37.5 160.5zM316 536l-1 1q-75 0 -113 -58t-38 -160q0 -45 10 -95
l295 156q-20 68 -58.5 112t-94.5 44z" />
    <glyph glyph-name="one.tlf" 
d="M399 741v-596q0 -81 13 -100t78 -27v-18h-307v20q44 4 64 8.5t32 20t13.5 33.5t1.5 63v471h-141v24q90 8 141.5 33t82.5 68h22z" />
    <glyph glyph-name="two.tlf" 
d="M550 563l-2 -1q0 -75 -46.5 -146t-136.5 -163q-26 -26 -76 -79.5t-70 -74.5h343v-100h-472v16q196 198 271 307.5t75 195.5q0 73 -36 109t-102 36q-61 0 -104 -34t-56 -92h-29q17 98 79 151.5t157 53.5q86 0 145.5 -46.5t59.5 -132.5z" />
    <glyph glyph-name="three.tlf" 
d="M308 -13h-1q-119 0 -183 29v153h20q19 -62 66 -102t110 -40q67 0 107.5 38.5t40.5 102.5q0 19 -4.5 39t-17.5 45.5t-34 46.5t-58 38.5t-85 24.5v22l23 10q70 30 106 77t36 86q0 50 -32 78.5t-95 28.5q-58 0 -102 -35t-56 -92h-29q17 98 79 151.5t157 53.5
q81 0 133.5 -36.5t52.5 -100.5q0 -52 -45.5 -101t-101.5 -77v-3q182 -64 182 -215q0 -67 -40.5 -119t-101 -77.5t-127.5 -25.5z" />
    <glyph glyph-name="four.tlf" 
d="M470 0h-106v196h-330v23l349 506h87v-441h129v-88h-129v-196zM364 284v336l-231 -336h231z" />
    <glyph glyph-name="five.tlf" 
d="M141 407l112 318h318l-33 -100h-277l-45 -125q171 -25 255 -95.5t84 -169.5q0 -112 -80.5 -180t-188.5 -68q-50 0 -100.5 10.5t-77.5 25.5v157h20q17 -75 64.5 -114t109.5 -39q63 0 106 43t43 112q0 38 -13 69.5t-45 63t-96 55.5t-156 37z" />
    <glyph glyph-name="six.tlf" 
d="M350 -13v-1q-126 0 -195 83.5t-69 221.5q0 169 124 294.5t319 164.5l6 -25q-147 -39 -225 -118t-99 -202q65 78 164 78q94 0 156 -61t62 -169t-71.5 -187t-171.5 -79zM337 421q-78 0 -130 -46q-3 -35 -3 -71q0 -120 37 -201t110 -81q64 0 95 50.5t31 137.5q0 38 -7 73.5
t-22.5 67.5t-44 51t-66.5 19z" />
    <glyph glyph-name="seven.tlf" 
d="M108 625h1v100h492v-100q-62 -62 -103.5 -107.5t-86 -108t-70 -120t-40.5 -132.5t-13 -157h-118q1 65 15 126t34 109.5t54.5 98.5t64 85.5t74.5 77t75 66.5t77 62h-456z" />
    <glyph glyph-name="eight.tlf" 
d="M330 -13q-105 0 -179 49.5t-74 143.5q0 63 48 112.5t121 75.5q-137 77 -137 191q0 82 67.5 131.5t166.5 49.5q94 0 159.5 -42.5t65.5 -115.5q0 -105 -160 -170l15 -7q84 -40 131.5 -87.5t47.5 -118.5q0 -100 -79 -156t-193 -56zM171 184q0 -71 41.5 -116t117.5 -45
q79 0 126 36.5t47 94.5q0 51 -33 86t-108 70l-81 40l-7 3q-103 -50 -103 -169zM479 578q0 64 -37.5 95.5t-101.5 31.5t-102.5 -32t-38.5 -79q0 -46 35 -79.5t101 -65.5l48 -24q96 59 96 153z" />
    <glyph glyph-name="nine.tlf" 
d="M332 742q126 0 195 -83.5t69 -221.5q0 -170 -123.5 -295t-319.5 -164l-6 25q148 39 225 118t98 203q-62 -79 -163 -79q-94 0 -156 64t-62 172t71 184.5t172 76.5zM345 307q80 0 129 46q4 31 4 71q0 120 -37 201t-110 81q-63 0 -94.5 -51t-31.5 -137q0 -38 7 -73.5
t22.5 -67.5t44 -51t66.5 -19z" />
    <glyph glyph-name="zero.tlf" 
d="M176 366q0 -64 8.5 -121.5t26.5 -109t51 -82t77 -30.5t77 30.5t50.5 82t26 109t8.5 121.5t-8.5 121t-26 108t-50.5 81t-77 30t-77 -30t-51 -81t-26.5 -108t-8.5 -121zM58 366q0 94 30.5 178t96.5 141t154 57t154 -57t96.5 -141t30.5 -178q0 -95 -30.5 -179.5t-96.5 -142
t-154 -57.5t-154 57.5t-96.5 142t-30.5 179.5z" />
    <glyph glyph-name="zero.slashed.tlf" 
d="M58 366q0 94 30.5 178t96.5 141t154 57t154 -57t96.5 -141t30.5 -178q0 -95 -30.5 -179.5t-96.5 -142t-154 -57.5t-154 57.5t-96.5 142t-30.5 179.5zM176 366v1q0 -60 5 -104l309 241q-35 202 -151 202q-44 0 -77 -30t-51 -81t-26.5 -108t-8.5 -121zM501 367v-1
q0 40 -5 92l-307 -241q15 -87 52.5 -140t97.5 -53q44 0 77 30.5t50.5 82t26 109t8.5 121.5z" />
    <glyph glyph-name="one.case" horiz-adv-x="526" 
d="M339 734v-590q0 -79 13.5 -99t75.5 -28v-17h-316v20q44 4 63.5 8.5t31.5 20t13.5 33.5t1.5 63v465h-140v24q90 9 144.5 33t90.5 67h22z" />
    <glyph glyph-name="two.case" horiz-adv-x="640" 
d="M313 742q107 0 176.5 -48.5t69.5 -129.5q0 -84 -65 -163t-213 -195q-10 -8 -37 -29.5t-52 -41t-42 -31.5h419v-104h-550v40q222 180 314 298t92 203q0 71 -40.5 107.5t-103.5 36.5q-77 0 -128.5 -42t-65.5 -122h-37q10 100 82.5 160.5t180.5 60.5z" />
    <glyph glyph-name="three.case" horiz-adv-x="654" 
d="M77 26h1l-16 221h18q28 -117 82 -170.5t135 -53.5q66 0 109 45.5t43 126.5q0 83 -50.5 132.5t-145.5 49.5h-21l3 31h16q82 0 129.5 39t47.5 108q0 62 -39 96t-104 34q-74 0 -125.5 -44t-65.5 -119l-36 6q16 99 87 156.5t175 57.5q105 0 172 -44t67 -113q0 -65 -46 -109
t-118 -67v-3q82 -17 136 -67.5t54 -129.5q0 -98 -82 -160t-206 -62q-117 0 -220 39z" />
    <glyph glyph-name="four.case" horiz-adv-x="668" 
d="M491 0h-117v194h-354v42l373 489h98v-434h130v-97h-130v-194zM374 291v333l-256 -333h256z" />
    <glyph glyph-name="five.case" horiz-adv-x="646" 
d="M288 423q-117 0 -162 -96l-44 13l70 385h410l-16 -103h-370l-42 -230q29 44 80.5 68t115.5 24q68 0 126 -25.5t97 -81t39 -131.5q0 -112 -87 -185.5t-209 -73.5q-124 0 -214 41l-17 216h19q28 -114 77.5 -167.5t127.5 -53.5q79 0 123 54.5t44 145.5q0 93 -45 146.5
t-123 53.5z" />
    <glyph glyph-name="six.case" horiz-adv-x="689" 
d="M354 -13q-134 0 -209 81.5t-75 218.5q0 84 36 162.5t95.5 137.5t134.5 102t155 64l12 -31q-251 -86 -291 -321q69 85 179 85q99 0 164 -62t65 -168q0 -109 -79 -189t-187 -80zM341 418h-1q-81 0 -132 -48q-3 -31 -3 -65q0 -77 14.5 -138.5t50 -102.5t87.5 -41q65 0 98 52
t33 141q0 82 -37 142t-110 60z" />
    <glyph glyph-name="seven.case" horiz-adv-x="565" 
d="M28 622v103h517v-104q-77 -72 -130 -133t-99.5 -137t-68.5 -163.5t-20 -187.5h-135q1 89 28.5 171t64.5 141.5t98.5 122t108 99.5t116.5 88h-480z" />
    <glyph glyph-name="eight.case" horiz-adv-x="682" 
d="M332 -13q-109 0 -186 49.5t-77 142.5q0 62 48 111t121 75q-136 78 -136 193q0 82 70 133t172 51q98 0 165.5 -42t67.5 -115q0 -104 -161 -168l8 -3q90 -42 139.5 -90.5t49.5 -123.5q0 -101 -82 -157t-199 -56zM167 183l-1 -2q0 -71 43 -115t122 -44q82 0 128 35t46 93
q0 51 -35 85.5t-111 68.5l-79 38q-3 2 -7 4.5t-7 3.5q-99 -51 -99 -167zM482 578q0 63 -38 94.5t-103 31.5q-64 0 -103.5 -31.5t-39.5 -77.5q0 -44 35 -76.5t101 -63.5l54 -27q94 57 94 150z" />
    <glyph glyph-name="nine.case" horiz-adv-x="679" 
d="M331 742q134 0 209 -81t75 -218q0 -84 -36.5 -162.5t-97 -137.5t-135.5 -102.5t-156 -64.5l-14 36q126 43 200.5 120t95.5 196q-68 -84 -179 -84q-97 0 -162.5 62.5t-65.5 170.5q0 109 79 187t187 78zM344 312h1q80 0 131 48q4 28 4 65q0 77 -14.5 138t-50 102t-87.5 41
q-64 0 -97.5 -51.5t-33.5 -139.5q0 -84 37 -143.5t110 -59.5z" />
    <glyph glyph-name="zero.case" horiz-adv-x="728" 
d="M198 366q0 -68 8.5 -126.5t27 -108.5t52 -79t78.5 -29t78 29t51.5 79t27 108.5t8.5 126.5t-8.5 126t-27 107.5t-51.5 78t-78 28.5t-78.5 -28.5t-52 -78t-27 -107.5t-8.5 -126zM68 366q0 100 34 184.5t103 138t159 53.5t159 -53.5t103 -138t34 -184.5t-34 -185.5
t-103 -139.5t-159 -54t-159 54t-103 139.5t-34 185.5z" />
    <glyph glyph-name="zero.slashed.case" horiz-adv-x="728" 
d="M68 366q0 100 34 184.5t103 138t159 53.5t159 -53.5t103 -138t34 -184.5t-34 -185.5t-103 -139.5t-159 -54t-159 54t-103 139.5t-34 185.5zM529 366q0 21 -2 61l-323 -171q29 -233 160 -233q45 0 78 29t51.5 79t27 108.5t8.5 126.5zM198 366v-1q0 -48 2 -62l323 171
q-29 232 -159 232q-45 0 -78.5 -28.5t-52 -78t-27 -107.5t-8.5 -126z" />
    <glyph glyph-name="a.superior" horiz-adv-x="309" 
d="M261 641l1 -1l-3 -127q-1 -44 18 -44q9 0 23 14l8 -7q-28 -44 -66 -44q-52 0 -56 56q-30 -58 -87 -58q-35 0 -58.5 22t-23.5 53q0 54 81 87q40 16 88 30v22q4 79 -50 79q-53 0 -49 -76h-65q6 45 44.5 72t84.5 27q47 0 79.5 -26t30.5 -79zM139 480v1q31 0 46 20l1 96
q-46 -9 -72 -26q-24 -14 -24 -43q0 -21 14 -34.5t35 -13.5z" />
    <glyph glyph-name="b.superior" horiz-adv-x="349" 
d="M123 765l-1 -1v-72q32 53 89 53q51 0 84 -44.5t33 -103.5q0 -73 -43 -120t-102 -47q-52 0 -90 29l-43 -26h-9q2 21 2 96v252q0 39 -6.5 49t-36.5 12v9l125 39q-2 -62 -2 -125zM122 675v-194q17 -30 58 -30q66 0 66 111q0 53 -23 92t-59 39q-27 0 -42 -18z" />
    <glyph glyph-name="c.superior" horiz-adv-x="287" 
d="M163 722q-34 0 -52 -29.5t-18 -76.5q0 -59 29 -92.5t77 -33.5q45 0 69 24l7 -5q-15 -31 -44 -54.5t-70 -23.5q-66 0 -103 43.5t-37 109.5q0 68 46 115.5t109 47.5q43 0 68.5 -18t25.5 -43q0 -14 -9.5 -23t-25.5 -9q-21 0 -29 17l-19 38q-6 13 -24 13z" />
    <glyph glyph-name="d.superior" horiz-adv-x="355" 
d="M167 726h2q-65 0 -65 -111q0 -56 22 -94t58 -38q28 0 42 18v195q-19 30 -59 30zM227 732v-1v50q0 38 -8 47.5t-41 11.5v9l131 41q-2 -62 -2 -125v-229q0 -40 6 -50t34 -10v-9l-110 -34l-7 54q-13 -23 -36.5 -39.5t-54.5 -16.5q-52 0 -84 43.5t-32 105.5q0 73 42.5 119.5
t101.5 46.5q30 0 60 -14z" />
    <glyph glyph-name="e.superior" horiz-adv-x="302" 
d="M161 431h1q-64 0 -102 42.5t-38 106.5q0 71 42 118.5t102 47.5q55 0 86.5 -32.5t32.5 -88.5h-193v-13q0 -56 31 -89t80 -33q50 0 76 26l7 -6q-47 -79 -125 -79zM156 723q-26 0 -43.5 -19t-19.5 -57h116q4 76 -53 76z" />
    <glyph glyph-name="f.superior" horiz-adv-x="225" 
d="M154 853l1 -1q-23 0 -31 -21t6 -68l9 -23h89v-26h-88v-197q0 -45 9.5 -54.5t51.5 -13.5v-11h-184v10q32 4 37.5 14t5.5 56v197h-41v26h41v9q0 58 39.5 94t84.5 36q34 0 54 -15.5t20 -37.5q0 -16 -9.5 -25.5t-24.5 -9.5q-18 0 -28 15l-21 33q-10 13 -21 13z" />
    <glyph glyph-name="g.superior" horiz-adv-x="325" 
d="M33 645v-2q0 47 33 74t85 27q29 0 51 -9l117 4v-26l-79 1q31 -28 31 -70q0 -46 -34 -73t-86 -27q-17 0 -39 5q-25 -19 -25 -36q0 -20 36 -21l63 -3q65 -2 93 -16t28 -52q0 -44 -44.5 -77t-123.5 -33q-56 0 -90 18t-34 46q0 34 78 53q-55 10 -55 52q0 33 57 75
q-62 25 -62 90zM188 422l-74 2h-4q-38 -14 -38 -45q0 -46 79 -46q43 0 76 14.5t33 39.5q0 19 -16.5 26t-55.5 9zM106 643q0 -81 45 -81q47 0 47 81q0 82 -47 82q-45 0 -45 -82z" />
    <glyph glyph-name="h.superior" horiz-adv-x="351" 
d="M8 851v-1l125 39q-2 -62 -2 -125v-74q33 55 90 55q37 0 59.5 -26.5t22.5 -80.5v-121q0 -45 6 -55.5t37 -14.5v-10h-159v10q26 4 31 14t5 56v107q0 69 -45 69q-28 0 -47 -19v-157q0 -45 5.5 -55.5t32.5 -14.5v-10h-161v10q32 4 37.5 14t5.5 56v264q0 39 -6.5 49t-36.5 12
v9z" />
    <glyph glyph-name="i.superior" horiz-adv-x="192" 
d="M138 621v-1v-103q0 -45 6 -55.5t37 -14.5v-10h-166v10q32 4 37.5 14t5.5 56v120q0 39 -6.5 49t-36.5 12v9l125 39q-2 -62 -2 -125zM95 790q-21 0 -35.5 15t-14.5 35t14.5 34t35.5 14t35.5 -14t14.5 -34t-14.5 -35t-35.5 -15z" />
    <glyph glyph-name="j.superior" horiz-adv-x="184" 
d="M92 791q-20 0 -34.5 15t-14.5 35t14.5 34t34.5 14q21 0 36 -14t15 -34t-15 -35t-36 -15zM56 486v-1v152q0 39 -6.5 49t-36.5 12v9l125 39q0 -12 -1 -52.5t-1 -72.5v-126q0 -76 -30 -118t-102 -75l-5 8q34 37 45.5 78t11.5 98z" />
    <glyph glyph-name="k.superior" horiz-adv-x="359" 
d="M51 518v-1v264q0 39 -6.5 49t-36.5 12v9l125 39q-2 -62 -2 -125v-247q0 -45 6 -55.5t37 -14.5v-10h-166v10q32 4 37.5 14t5.5 56zM196 437v-1v10q27 2 30 9t-13 30l-81 114l85 82q13 12 20 22t1.5 18.5t-27.5 8.5v10h125v-10q-26 0 -44 -10t-46 -38l-47 -44l112 -160
q21 -30 55 -31v-10h-170z" />
    <glyph glyph-name="l.superior" horiz-adv-x="194" 
d="M60 518v-1v264q0 39 -6.5 49t-36.5 12v9l125 39q-2 -62 -2 -125v-247q0 -46 5.5 -56t37.5 -14v-10h-166v10q31 4 37 14.5t6 55.5z" />
    <glyph glyph-name="m.superior" horiz-adv-x="523" 
d="M303 639l-2 -1v-121q0 -45 5.5 -55.5t32.5 -14.5v-10h-153v10q26 4 31 14t5 56v107q0 68 -46 68q-30 0 -46 -18v-157q0 -46 5 -56t31 -14v-10h-160v10q32 4 38.5 14.5t6.5 55.5v120q0 38 -7.5 48.5t-37.5 12.5v9l123 39v-56q38 56 91 56q58 0 76 -60q37 60 98 60
q37 0 59 -26.5t22 -80.5v-121q0 -45 6 -55.5t37 -14.5v-10h-158v10q26 4 30.5 14t4.5 56v107q0 68 -44 68q-34 0 -51 -21q3 -15 3 -33z" />
    <glyph glyph-name="o.superior" horiz-adv-x="349" 
d="M173 746q65 0 110 -44.5t45 -112.5q0 -65 -43.5 -111.5t-109.5 -46.5t-110 45.5t-44 114.5q0 62 43 108.5t109 46.5zM168 726q-63 0 -63 -117q0 -33 6 -66t24 -62.5t46 -29.5q63 0 63 119q0 31 -6 64t-24 62.5t-46 29.5z" />
    <glyph glyph-name="p.superior" horiz-adv-x="353" 
d="M125 746l-1 -1v-56q13 23 37 39.5t54 16.5q52 0 85 -44t33 -104q0 -73 -43 -120t-102 -47q-39 0 -61 13v-48q0 -43 9 -54t48 -15v-11h-180v11q31 4 37.5 14.5t6.5 54.5v242q0 38 -7.5 48.5t-36.5 12.5v9zM126 676l-1 -196q18 -31 60 -31q32 0 48.5 30.5t16.5 82.5
q0 54 -22 92.5t-59 38.5q-27 0 -43 -17z" />
    <glyph glyph-name="q.superior" horiz-adv-x="349" 
d="M225 396h1v87q-31 -52 -89 -52q-52 0 -84 43.5t-32 105.5q0 73 42.5 119.5t101.5 46.5q30 0 63 -14l78 12q-1 -31 -1 -128v-220q0 -44 6 -54.5t37 -14.5v-11h-179v11q39 4 47.5 15t8.5 54zM168 726h2q-65 0 -65 -111q0 -56 22 -94t58 -38q29 0 42 18v195q-19 30 -59 30z
" />
    <glyph glyph-name="r.superior" horiz-adv-x="256" 
d="M9 438v11q32 4 38.5 14t6.5 55v125q0 40 -6.5 47.5t-38.5 7.5v9l123 39l1 -56q39 54 74 54q19 0 34 -11.5t15 -33.5t-12 -32t-29 -10q-13 0 -23 11l-18 22q-5 5 -9 5q-13 0 -32 -26v-151q0 -41 9.5 -54t49.5 -15v-11h-183z" />
    <glyph glyph-name="s.superior" horiz-adv-x="277" 
d="M147 746h-3q50 0 81 -14l3 -94h-10q-9 42 -32 64.5t-50 22.5q-49 0 -49 -34q0 -25 42 -48l33 -17q47 -25 67 -46.5t20 -53.5q0 -44 -37 -69.5t-85 -25.5q-55 0 -95 19v108h11q22 -104 90 -104q56 0 56 41q0 28 -47 52l-31 16q-39 21 -58.5 42.5t-19.5 54.5q0 41 34 63.5
t80 22.5z" />
    <glyph glyph-name="t.superior" horiz-adv-x="215" 
d="M126 431h-1q-79 0 -79 94v190h-46v26h48v37l78 63v-100h75v-26h-75v-177q0 -34 8.5 -48t28.5 -14q23 0 42 19l6 -5q-32 -59 -85 -59z" />
    <glyph glyph-name="u.superior" horiz-adv-x="339" 
d="M287 623h1v-87q0 -40 6.5 -49t35.5 -11v-9l-111 -34l-10 57q-29 -59 -85 -59q-83 0 -83 108v114q0 25 -1.5 35.5t-10.5 19t-29 9.5v9l121 15q0 -11 -1 -48t-1 -68v-71q0 -73 43 -73q28 0 45 24v148q0 25 -1.5 35.5t-10 19t-27.5 9.5v9l121 15q0 -11 -1 -49t-1 -69z" />
    <glyph glyph-name="v.superior" horiz-adv-x="327" 
d="M179 435l1 1h-43l-99 258q-8 20 -14.5 28t-23.5 11v9h159v-9q-27 -2 -33 -14.5t3 -32.5l59 -167l53 140q17 39 14.5 54t-31.5 19v9h103v-9q-21 -3 -30.5 -13t-21.5 -41z" />
    <glyph glyph-name="w.superior" horiz-adv-x="459" 
d="M288 435l1 2l-59 204l-63 -204h-51l-78 258q-7 20 -14 28t-24 10v10h157v-10q-28 -2 -33 -12.5t3 -32.5l43 -157l63 212h47l61 -214l38 133q10 45 6 55.5t-28 14.5v10h103v-10q-22 -2 -32 -12.5t-17 -41.5l-72 -243h-51z" />
    <glyph glyph-name="x.superior" horiz-adv-x="363" 
d="M104 520l43 54l-85 123q-20 29 -44 34v10h156v-10q-23 -3 -25 -11t13 -30l36 -52l29 36q25 30 25 43t-29 15v10h115v-10q-24 -2 -43.5 -18t-50.5 -54l-33 -41l95 -136q20 -29 44 -34v-10h-156v10q24 3 26.5 11t-13.5 30l-46 66l-40 -50q-17 -21 -22.5 -32t1 -18t26.5 -8
v-10h-115v10q23 2 42.5 18t50.5 54z" />
    <glyph glyph-name="y.superior" horiz-adv-x="331" 
d="M68 313h-1q-24 0 -40 4v87h10q12 -32 22 -44.5t27 -12.5q35 0 58 61l11 25l-118 261q-12 28 -24 33q-6 3 -14 4v10h167v-10q-29 -2 -35.5 -12.5t1.5 -31.5l62 -159l51 131q10 28 12 40.5t-4.5 21t-26.5 10.5v10h105v-10q-23 -4 -30.5 -12.5t-20.5 -40.5l-108 -272
q-21 -52 -45.5 -72.5t-58.5 -20.5z" />
    <glyph glyph-name="z.superior" horiz-adv-x="313" 
d="M280 438h-259v5l173 276h-42q-48 0 -68 -22.5t-28 -85.5h-12v130h243v-6l-172 -275h60q45 0 64 23t30 85h11v-130z" />
    <glyph glyph-name="zero.slashed.superior" horiz-adv-x="390" 
d="M28 644q0 87 48 149.5t119 62.5q72 0 119.5 -62.5t47.5 -149.5q0 -86 -47.5 -149.5t-119.5 -63.5q-71 0 -119 63.5t-48 149.5zM116 644v1q0 -43 2 -56l153 120q-15 127 -76 127q-79 0 -79 -192zM274 645v1q0 6 -0.5 18t-0.5 19l-152 -120q14 -111 74 -111q79 0 79 193z
" />
    <glyph glyph-name="period.superior" horiz-adv-x="196" 
d="M49 479q0 20 14 34.5t34 14.5q21 0 35.5 -14.5t14.5 -34.5t-14.5 -34t-35.5 -14q-20 0 -34 14t-14 34z" />
    <glyph glyph-name="hyphen.superior" horiz-adv-x="202" 
d="M27 567v51h149v-51h-149z" />
    <glyph glyph-name="comma.superior" horiz-adv-x="197" 
d="M50 479h-1q0 21 14 35t35 14t34.5 -16t13.5 -39q0 -42 -34 -85t-77 -65l-4 8q65 51 65 100q-20 1 -33 14.5t-13 33.5z" />
    <glyph glyph-name="a.inferior" horiz-adv-x="309" 
d="M261 75l1 -1l-3 -127q-1 -44 18 -44q9 0 23 14l8 -7q-28 -44 -66 -44q-52 0 -56 56q-30 -58 -87 -58q-35 0 -58.5 22t-23.5 53q0 54 81 87q40 16 88 30v22q4 79 -50 79q-53 0 -49 -76h-65q6 45 44.5 72t84.5 27q47 0 79.5 -26t30.5 -79zM139 -86v1q31 0 46 20l1 96
q-46 -9 -72 -26q-24 -14 -24 -43q0 -21 14 -34.5t35 -13.5z" />
    <glyph glyph-name="b.inferior" horiz-adv-x="348" 
d="M123 199l-1 -1v-72q32 53 89 53q51 0 84 -44.5t33 -103.5q0 -73 -43 -120t-102 -47q-52 0 -90 29l-43 -26h-9q2 21 2 96v252q0 39 -6.5 49t-36.5 12v9l125 39q-2 -62 -2 -125zM122 109v-194q17 -30 58 -30q66 0 66 111q0 53 -23 92t-59 39q-27 0 -42 -18z" />
    <glyph glyph-name="c.inferior" horiz-adv-x="287" 
d="M163 156q-34 0 -52 -29.5t-18 -76.5q0 -59 29 -92.5t77 -33.5q45 0 69 24l7 -5q-15 -31 -44 -54.5t-70 -23.5q-66 0 -103 43.5t-37 109.5q0 68 46 115.5t109 47.5q43 0 68.5 -18t25.5 -43q0 -14 -9.5 -23t-25.5 -9q-21 0 -29 17l-19 38q-6 13 -24 13z" />
    <glyph glyph-name="d.inferior" horiz-adv-x="353" 
d="M167 160h2q-65 0 -65 -111q0 -56 22 -94t58 -38q28 0 42 18v195q-19 30 -59 30zM227 166v-1v50q0 38 -8 47.5t-41 11.5v9l131 41q-2 -62 -2 -125v-229q0 -40 6 -50t34 -10v-9l-110 -34l-7 54q-13 -23 -36.5 -39.5t-54.5 -16.5q-52 0 -84 43.5t-32 105.5q0 73 42.5 119.5
t101.5 46.5q30 0 60 -14z" />
    <glyph glyph-name="e.inferior" horiz-adv-x="301" 
d="M161 -135h1q-64 0 -102 42.5t-38 106.5q0 71 42 118.5t102 47.5q55 0 86.5 -32.5t32.5 -88.5h-193v-13q0 -56 31 -89t80 -33q50 0 76 26l7 -6q-47 -79 -125 -79zM156 157q-26 0 -43.5 -19t-19.5 -57h116q4 76 -53 76z" />
    <glyph glyph-name="f.inferior" horiz-adv-x="225" 
d="M154 287l1 -1q-23 0 -31 -21t6 -68l9 -23h89v-26h-88v-197q0 -45 9.5 -54.5t51.5 -13.5v-11h-184v10q32 4 37.5 14t5.5 56v197h-41v26h41v9q0 58 39.5 94t84.5 36q34 0 54 -15.5t20 -37.5q0 -16 -9.5 -25.5t-24.5 -9.5q-18 0 -28 15l-21 33q-10 13 -21 13z" />
    <glyph glyph-name="g.inferior" horiz-adv-x="324" 
d="M33 79v-2q0 47 33 74t85 27q29 0 51 -9l117 4v-26l-79 1q31 -28 31 -70q0 -46 -34 -73t-86 -27q-17 0 -39 5q-25 -19 -25 -36q0 -20 36 -21l63 -3q65 -2 93 -16t28 -52q0 -44 -44.5 -77t-123.5 -33q-56 0 -90 18t-34 46q0 34 78 53q-55 10 -55 52q0 33 57 75
q-62 25 -62 90zM188 -144l-74 2h-4q-38 -14 -38 -45q0 -46 79 -46q43 0 76 14.5t33 39.5q0 19 -16.5 26t-55.5 9zM106 77q0 -81 45 -81q47 0 47 81q0 82 -47 82q-45 0 -45 -82z" />
    <glyph glyph-name="h.inferior" horiz-adv-x="351" 
d="M8 285v-1l125 39q-2 -62 -2 -125v-74q33 55 90 55q37 0 59.5 -26.5t22.5 -80.5v-121q0 -45 6 -55.5t37 -14.5v-10h-159v10q26 4 31 14t5 56v107q0 69 -45 69q-28 0 -47 -19v-157q0 -45 5.5 -55.5t32.5 -14.5v-10h-161v10q32 4 37.5 14t5.5 56v264q0 39 -6.5 49t-36.5 12
v9z" />
    <glyph glyph-name="i.inferior" horiz-adv-x="192" 
d="M138 55v-1v-103q0 -45 6 -55.5t37 -14.5v-10h-166v10q32 4 37.5 14t5.5 56v120q0 39 -6.5 49t-36.5 12v9l125 39q-2 -62 -2 -125zM95 224q-21 0 -35.5 15t-14.5 35t14.5 34t35.5 14t35.5 -14t14.5 -34t-14.5 -35t-35.5 -15z" />
    <glyph glyph-name="j.inferior" horiz-adv-x="182" 
d="M92 225q-20 0 -34.5 15t-14.5 35t14.5 34t34.5 14q21 0 36 -14t15 -34t-15 -35t-36 -15zM56 -80v-1v152q0 39 -6.5 49t-36.5 12v9l125 39q0 -12 -1 -52.5t-1 -72.5v-126q0 -76 -30 -118t-102 -75l-5 8q34 37 45.5 78t11.5 98z" />
    <glyph glyph-name="k.inferior" horiz-adv-x="356" 
d="M51 -48v-1v264q0 39 -6.5 49t-36.5 12v9l125 39q-2 -62 -2 -125v-247q0 -45 6 -55.5t37 -14.5v-10h-166v10q32 4 37.5 14t5.5 56zM196 -129v-1v10q27 2 30 9t-13 30l-81 114l85 82q13 12 20 22t1.5 18.5t-27.5 8.5v10h125v-10q-26 0 -44 -10t-46 -38l-47 -44l112 -160
q21 -30 55 -31v-10h-170z" />
    <glyph glyph-name="l.inferior" horiz-adv-x="193" 
d="M60 -48v-1v264q0 39 -6.5 49t-36.5 12v9l125 39q-2 -62 -2 -125v-247q0 -46 5.5 -56t37.5 -14v-10h-166v10q31 4 37 14.5t6 55.5z" />
    <glyph glyph-name="m.inferior" horiz-adv-x="523" 
d="M303 73l-2 -1v-121q0 -45 5.5 -55.5t32.5 -14.5v-10h-153v10q26 4 31 14t5 56v107q0 68 -46 68q-30 0 -46 -18v-157q0 -46 5 -56t31 -14v-10h-160v10q32 4 38.5 14.5t6.5 55.5v120q0 38 -7.5 48.5t-37.5 12.5v9l123 39v-56q38 56 91 56q58 0 76 -60q37 60 98 60
q37 0 59 -26.5t22 -80.5v-121q0 -45 6 -55.5t37 -14.5v-10h-158v10q26 4 30.5 14t4.5 56v107q0 68 -44 68q-34 0 -51 -21q3 -15 3 -33z" />
    <glyph glyph-name="n.inferior" horiz-adv-x="352" 
d="M9 132l-1 -1v9l122 39v-56q38 56 91 56q38 0 60.5 -26.5t22.5 -80.5v-121q0 -46 5.5 -56t37.5 -14v-10h-159v10q26 4 31 14t5 56v107q0 68 -46 68q-30 0 -46 -18v-157q0 -46 5 -56t31 -14v-10h-159v10q32 4 38 14.5t6 55.5v120q0 38 -7.5 48.5t-36.5 12.5z" />
    <glyph glyph-name="o.inferior" horiz-adv-x="348" 
d="M173 180q65 0 110 -44.5t45 -112.5q0 -65 -43.5 -111.5t-109.5 -46.5t-110 45.5t-44 114.5q0 62 43 108.5t109 46.5zM168 160q-63 0 -63 -117q0 -33 6 -66t24 -62.5t46 -29.5q63 0 63 119q0 31 -6 64t-24 62.5t-46 29.5z" />
    <glyph glyph-name="p.inferior" horiz-adv-x="353" 
d="M125 180l-1 -1v-56q13 23 37 39.5t54 16.5q52 0 85 -44t33 -104q0 -73 -43 -120t-102 -47q-39 0 -61 13v-48q0 -43 9 -54t48 -15v-11h-180v11q31 4 37.5 14.5t6.5 54.5v242q0 38 -7.5 48.5t-36.5 12.5v9zM126 110l-1 -196q18 -31 60 -31q32 0 48.5 30.5t16.5 82.5
q0 54 -22 92.5t-59 38.5q-27 0 -43 -17z" />
    <glyph glyph-name="q.inferior" horiz-adv-x="347" 
d="M225 -170h1v87q-31 -52 -89 -52q-52 0 -84 43.5t-32 105.5q0 73 42.5 119.5t101.5 46.5q30 0 63 -14l78 12q-1 -31 -1 -128v-220q0 -44 6 -54.5t37 -14.5v-11h-179v11q39 4 47.5 15t8.5 54zM168 160h2q-65 0 -65 -111q0 -56 22 -94t58 -38q29 0 42 18v195q-19 30 -59 30z
" />
    <glyph glyph-name="r.inferior" horiz-adv-x="256" 
d="M9 -128v11q32 4 38.5 14t6.5 55v125q0 40 -6.5 47.5t-38.5 7.5v9l123 39l1 -56q39 54 74 54q19 0 34 -11.5t15 -33.5t-12 -32t-29 -10q-13 0 -23 11l-18 22q-5 5 -9 5q-13 0 -32 -26v-151q0 -41 9.5 -54t49.5 -15v-11h-183z" />
    <glyph glyph-name="s.inferior" horiz-adv-x="274" 
d="M147 180h-3q50 0 81 -14l3 -94h-10q-9 42 -32 64.5t-50 22.5q-49 0 -49 -34q0 -25 42 -48l33 -17q47 -25 67 -46.5t20 -53.5q0 -44 -37 -69.5t-85 -25.5q-55 0 -95 19v108h11q22 -104 90 -104q56 0 56 41q0 28 -47 52l-31 16q-39 21 -58.5 42.5t-19.5 54.5q0 41 34 63.5
t80 22.5z" />
    <glyph glyph-name="t.inferior" horiz-adv-x="211" 
d="M126 -135h-1q-79 0 -79 94v190h-46v26h48v37l78 63v-100h75v-26h-75v-177q0 -34 8.5 -48t28.5 -14q23 0 42 19l6 -5q-32 -59 -85 -59z" />
    <glyph glyph-name="u.inferior" horiz-adv-x="336" 
d="M287 57h1v-87q0 -40 6.5 -49t35.5 -11v-9l-111 -34l-10 57q-29 -59 -85 -59q-83 0 -83 108v114q0 25 -1.5 35.5t-10.5 19t-29 9.5v9l121 15q0 -11 -1 -48t-1 -68v-71q0 -73 43 -73q28 0 45 24v148q0 25 -1.5 35.5t-10 19t-27.5 9.5v9l121 15q0 -11 -1 -49t-1 -69z" />
    <glyph glyph-name="v.inferior" horiz-adv-x="328" 
d="M180 -131l1 1h-43l-99 258q-8 20 -14.5 28t-23.5 11v9h159v-9q-27 -2 -33 -14.5t3 -32.5l59 -167l53 140q17 39 14.5 54t-31.5 19v9h103v-9q-21 -3 -30.5 -13t-21.5 -41z" />
    <glyph glyph-name="w.inferior" horiz-adv-x="461" 
d="M289 -131l1 2l-59 204l-63 -204h-51l-78 258q-7 20 -14 28t-24 10v10h157v-10q-28 -2 -33 -12.5t3 -32.5l43 -157l63 212h47l61 -214l38 133q10 45 6 55.5t-28 14.5v10h103v-10q-22 -2 -32 -12.5t-17 -41.5l-72 -243h-51z" />
    <glyph glyph-name="x.inferior" horiz-adv-x="364" 
d="M104 -46l43 54l-85 123q-20 29 -44 34v10h156v-10q-23 -3 -25 -11t13 -30l36 -52l29 36q25 30 25 43t-29 15v10h115v-10q-24 -2 -43.5 -18t-50.5 -54l-33 -41l95 -136q20 -29 44 -34v-10h-156v10q24 3 26.5 11t-13.5 30l-46 66l-40 -50q-17 -21 -22.5 -32t1 -18t26.5 -8
v-10h-115v10q23 2 42.5 18t50.5 54z" />
    <glyph glyph-name="y.inferior" horiz-adv-x="332" 
d="M69 -253h-1q-24 0 -40 4v87h10q12 -32 22 -44.5t27 -12.5q35 0 58 61l11 25l-118 261q0 1 -1 3q-12 26 -26 31l-11 3v10h167v-10q-29 -2 -35.5 -12.5t1.5 -31.5l62 -159l51 131q10 28 12 40.5t-4.5 21t-26.5 10.5v10h105v-10q-23 -4 -30.5 -12.5t-20.5 -40.5l-108 -272
q-21 -52 -45.5 -72.5t-58.5 -20.5z" />
    <glyph glyph-name="z.inferior" horiz-adv-x="315" 
d="M280 -128h-259v5l173 276h-42q-48 0 -68 -22.5t-28 -85.5h-12v130h243v-6l-172 -275h60q45 0 64 23t30 85h11v-130z" />
    <glyph glyph-name="zero.slashed.inferior" horiz-adv-x="390" 
d="M28 78q0 87 48 149.5t119 62.5q72 0 119.5 -62.5t47.5 -149.5q0 -86 -47.5 -149.5t-119.5 -63.5q-71 0 -119 63.5t-48 149.5zM116 78v1q0 -43 2 -56l153 120q-15 127 -76 127q-79 0 -79 -192zM274 79v1q0 6 -0.5 18t-0.5 19l-152 -120q14 -111 74 -111q79 0 79 193z" />
    <glyph glyph-name="period.inferior" horiz-adv-x="197" 
d="M49 -87q0 20 14 34.5t34 14.5q21 0 35.5 -14.5t14.5 -34.5t-14.5 -34t-35.5 -14q-20 0 -34 14t-14 34z" />
    <glyph glyph-name="hyphen.inferior" horiz-adv-x="203" 
d="M27 1v51h149v-51h-149z" />
    <glyph glyph-name="comma.inferior" horiz-adv-x="198" 
d="M50 -87h-1q0 21 14 35t35 14t34.5 -16t13.5 -39q0 -42 -34 -85t-77 -65l-4 8q65 51 65 100q-20 1 -33 14.5t-13 33.5z" />
    <glyph glyph-name="equal.inferior" horiz-adv-x="382" 
d="M331 65h-280v44h280v-44zM331 -51h-280v44h280v-44z" />
    <glyph glyph-name="plus.inferior" horiz-adv-x="382" 
d="M215 -128h-48v132h-131v44h131v128h48v-128h131v-44h-131v-132z" />
    <glyph glyph-name="minus.inferior" horiz-adv-x="382" 
d="M39 48h304v-44h-304v44z" />
    <glyph glyph-name="one.numerator" horiz-adv-x="291" 
d="M194 732v-334q0 -44 8 -54.5t45 -16.5v-10h-198v11q45 4 55 15t10 56v265h-77v11q99 11 145 57h12z" />
    <glyph glyph-name="two.numerator" horiz-adv-x="320" 
d="M278 632l1 -1q0 -41 -20 -70.5t-84 -93.5q-51 -49 -84 -78h198v-73h-299v7q118 106 163 170t45 115q0 36 -20 56t-54 20q-72 0 -89 -65h-17q10 56 45.5 86t93.5 30q51 0 86 -27t35 -76z" />
    <glyph glyph-name="three.numerator" horiz-adv-x="339" 
d="M131 310h1q-58 0 -100 20v103h10q12 -49 37.5 -74.5t59.5 -25.5q37 0 59 22t22 57q0 33 -25 66t-83 42v12l13 6q38 16 56 42.5t18 50.5q0 53 -66 53q-69 0 -86 -65h-18q10 56 47 86t94 30q45 0 76.5 -20.5t31.5 -56.5q0 -31 -26.5 -55.5t-57.5 -37.5v-2q49 -15 78 -47
t29 -76q0 -60 -51.5 -95t-118.5 -35z" />
    <glyph glyph-name="four.numerator" horiz-adv-x="352" 
d="M267 317h-80v99h-176v48l186 261h70v-243h67v-66h-67v-99zM187 482v184l-132 -184h132z" />
    <glyph glyph-name="five.numerator" horiz-adv-x="320" 
d="M42 531l1 1l69 194h184l-22 -72h-163l-20 -55q96 -5 148.5 -44t52.5 -104q0 -64 -46.5 -102.5t-112.5 -38.5q-56 0 -102 18v103h11q12 -47 37.5 -72.5t59.5 -25.5q35 0 55 22t20 58q0 51 -42 82.5t-130 35.5z" />
    <glyph glyph-name="six.numerator" horiz-adv-x="377" 
d="M191 310q-70 0 -111.5 44t-41.5 121q0 99 79 170.5t190 97.5l6 -16q-155 -50 -184 -183q33 46 92 46q50 0 84.5 -35t34.5 -93q0 -64 -43.5 -108t-105.5 -44zM185 548q-34 0 -59 -22q-2 -24 -2 -37q0 -159 68 -159q63 0 63 108q0 49 -19 79.5t-51 30.5z" />
    <glyph glyph-name="seven.numerator" horiz-adv-x="305" 
d="M12 653l2 -1v72h289v-73q-81 -76 -122 -152.5t-43 -182.5h-89q2 60 21.5 112t55.5 93.5t71 70.5t83 61h-268z" />
    <glyph glyph-name="eight.numerator" horiz-adv-x="375" 
d="M183 310v-2q-62 0 -104 27.5t-42 79.5q0 66 87 100q-69 45 -69 111q0 48 38.5 77.5t94.5 29.5q53 0 90.5 -23t37.5 -63q0 -58 -83 -91q50 -22 77.5 -51t27.5 -73q0 -56 -46.5 -89t-108.5 -33zM94 417q0 -40 22.5 -64t66.5 -24q45 0 67 19t22 48q0 28 -19.5 46t-59.5 38
l-40 19l-13 6q-46 -23 -46 -88zM263 642q0 69 -74 69q-34 0 -53 -16.5t-19 -40.5q0 -44 71 -79l30 -14q45 28 45 81z" />
    <glyph glyph-name="nine.numerator" horiz-adv-x="377" 
d="M187 735h-1q70 0 111.5 -45t41.5 -122q0 -99 -79 -170t-191 -97l-5 15q74 24 122 70.5t62 114.5q-33 -48 -92 -48q-50 0 -84 36t-34 94q0 64 43.5 108t105.5 44zM192 497q34 0 58 21q3 18 3 38q0 158 -68 158q-64 0 -64 -108q0 -49 19 -79t52 -30z" />
    <glyph glyph-name="zero.numerator" horiz-adv-x="390" 
d="M116 523q0 -193 79 -193t79 193q0 192 -79 192t-79 -192zM28 523q0 87 48 149.5t119 62.5q72 0 119.5 -62.5t47.5 -149.5q0 -86 -47.5 -149.5t-119.5 -63.5q-71 0 -119 63.5t-48 149.5z" />
    <glyph glyph-name="zero.slashed.numerator" horiz-adv-x="390" 
d="M28 523q0 87 48 149.5t119 62.5q72 0 119.5 -62.5t47.5 -149.5q0 -86 -47.5 -149.5t-119.5 -63.5q-71 0 -119 63.5t-48 149.5zM116 523v1q0 -43 2 -56l153 120q-15 127 -76 127q-79 0 -79 -192zM274 524v1q0 7 -0.5 19t-0.5 18l-152 -120q14 -111 74 -111q79 0 79 193z
" />
    <glyph glyph-name="one.denominator" horiz-adv-x="291" 
d="M194 415v-334q0 -44 8 -54.5t45 -16.5v-10h-198v11q45 4 55 15t10 56v265h-77v11q99 11 145 57h12z" />
    <glyph glyph-name="two.denominator" horiz-adv-x="320" 
d="M278 315l1 -1q0 -41 -20 -70.5t-84 -93.5q-51 -49 -84 -78h198v-73h-299v7q118 106 163 170t45 115q0 36 -20 56t-54 20q-72 0 -89 -65h-17q10 56 45.5 86t93.5 30q51 0 86 -27t35 -76z" />
    <glyph glyph-name="three.denominator" horiz-adv-x="339" 
d="M131 -7h1q-58 0 -100 20v103h10q12 -49 37.5 -74.5t59.5 -25.5q37 0 59 22t22 57q0 33 -25 66t-83 42v12l13 6q38 16 56 42.5t18 50.5q0 53 -66 53q-69 0 -86 -65h-18q10 56 47 86t94 30q45 0 76.5 -20.5t31.5 -56.5q0 -31 -26.5 -55.5t-57.5 -37.5v-2q49 -15 78 -47
t29 -76q0 -60 -51.5 -95t-118.5 -35z" />
    <glyph glyph-name="four.denominator" horiz-adv-x="352" 
d="M267 0h-80v99h-176v48l186 261h70v-243h67v-66h-67v-99zM187 165v184l-132 -184h132z" />
    <glyph glyph-name="five.denominator" horiz-adv-x="320" 
d="M42 214l1 1l69 194h184l-22 -72h-163l-20 -55q96 -5 148.5 -44t52.5 -104q0 -64 -46.5 -102.5t-112.5 -38.5q-56 0 -102 18v103h11q12 -47 37.5 -72.5t59.5 -25.5q35 0 55 22t20 58q0 51 -42 82.5t-130 35.5z" />
    <glyph glyph-name="six.denominator" horiz-adv-x="377" 
d="M191 -7q-70 0 -111.5 44t-41.5 121q0 99 79 170.5t190 97.5l6 -16q-155 -50 -184 -183q33 46 92 46q50 0 84.5 -35t34.5 -93q0 -64 -43.5 -108t-105.5 -44zM185 231q-34 0 -59 -22q-2 -24 -2 -37q0 -159 68 -159q63 0 63 108q0 49 -19 79.5t-51 30.5z" />
    <glyph glyph-name="seven.denominator" horiz-adv-x="305" 
d="M12 336l2 -1v72h289v-73q-81 -76 -122 -152.5t-43 -182.5h-89q2 60 21.5 112t55.5 93.5t71 70.5t83 61h-268z" />
    <glyph glyph-name="eight.denominator" horiz-adv-x="375" 
d="M183 -7v-2q-62 0 -104 27.5t-42 79.5q0 66 87 100q-69 45 -69 111q0 48 38.5 77.5t94.5 29.5q53 0 90.5 -23t37.5 -63q0 -58 -83 -91q50 -22 77.5 -51t27.5 -73q0 -56 -46.5 -89t-108.5 -33zM94 100q0 -40 22.5 -64t66.5 -24q45 0 67 19t22 48q0 28 -19.5 46t-59.5 38
l-40 19l-13 6q-46 -23 -46 -88zM263 325q0 69 -74 69q-34 0 -53 -16.5t-19 -40.5q0 -44 71 -79l30 -14q45 28 45 81z" />
    <glyph glyph-name="nine.denominator" horiz-adv-x="377" 
d="M187 418h-1q70 0 111.5 -45t41.5 -122q0 -99 -79 -170t-191 -97l-5 15q74 24 122 70.5t62 114.5q-33 -48 -92 -48q-50 0 -84 36t-34 94q0 64 43.5 108t105.5 44zM192 180q34 0 58 21q3 18 3 38q0 158 -68 158q-64 0 -64 -108q0 -49 19 -79t52 -30z" />
    <glyph glyph-name="zero.denominator" horiz-adv-x="390" 
d="M116 206q0 -193 79 -193t79 193q0 192 -79 192t-79 -192zM28 206q0 87 48 149.5t119 62.5q72 0 119.5 -62.5t47.5 -149.5q0 -86 -47.5 -149.5t-119.5 -63.5q-71 0 -119 63.5t-48 149.5z" />
    <glyph glyph-name="zero.slashed.denominator" horiz-adv-x="390" 
d="M28 206q0 87 48 149.5t119 62.5q72 0 119.5 -62.5t47.5 -149.5q0 -86 -47.5 -149.5t-119.5 -63.5q-71 0 -119 63.5t-48 149.5zM116 206v1q0 -43 2 -56l153 120q-15 127 -76 127q-79 0 -79 -192zM274 207v1q0 6 -0.5 18t-0.5 19l-152 -120q14 -111 74 -111q79 0 79 193z
" />
    <glyph glyph-name="ampersand.case" horiz-adv-x="740" 
d="M294 -13v-1q-108 0 -183 64.5t-75 158.5q0 139 203 209q-76 92 -76 170q0 72 55 113t139 41q76 0 125.5 -34.5t49.5 -96.5q0 -54 -47.5 -97.5t-117.5 -70.5h1l192 -214q40 101 26 225h85q-5 -131 -82 -257l121 -134l-86 -75l-100 111q-52 -59 -104.5 -85.5t-125.5 -26.5z
M258 395v-1l-4 3q-43 -21 -66.5 -66t-23.5 -95q0 -83 47 -138.5t124 -55.5q96 0 163 85zM457 606q0 50 -26.5 75.5t-72.5 25.5q-45 0 -67.5 -24.5t-22.5 -61.5q0 -41 20 -76.5t63 -85.5q106 50 106 147z" />
    <glyph glyph-name="hyphen.case" horiz-adv-x="387" 
d="M54 328v89h279v-89h-279z" />
    <glyph glyph-name="endash.case" horiz-adv-x="486" 
d="M451 340h-416v66h416v-66z" />
    <glyph glyph-name="emdash.case" horiz-adv-x="713" 
d="M678 340h-643v66h643v-66z" />
    <glyph glyph-name="question.case" horiz-adv-x="646" 
d="M345 706q-88 0 -144 -53.5t-83 -171.5h-18l16 220q109 41 226 41q118 0 193.5 -37.5t75.5 -108.5q0 -41 -22.5 -74t-57 -53.5t-74 -43.5t-74 -44t-57 -56t-22.5 -78v-30h-37v34q0 65 22 113.5t53.5 75.5t62.5 49t53 49.5t22 63.5q0 47 -33 75.5t-102 28.5zM215 61
q0 30 22 52t52 22q31 0 52.5 -22t21.5 -52t-21.5 -52t-52.5 -22q-30 0 -52 22t-22 52z" />
    <glyph glyph-name="questiondown.case" horiz-adv-x="646" 
d="M361 23h-1q88 0 144 53.5t85 171.5h18l-16 -220q-109 -41 -227 -41q-117 0 -193 37.5t-76 108.5q0 41 23 74t57 53.5t74 43.5t74 44t57 56t23 78v30h37v-34q0 -55 -16 -98.5t-39.5 -68.5t-51.5 -48t-51.5 -39.5t-39.5 -41.5t-16 -55q0 -47 33.5 -75.5t101.5 -28.5z
M343 671q0 30 22 52t52 22q31 0 52.5 -22t21.5 -52t-21.5 -52t-52.5 -22q-30 0 -52 22t-22 52z" />
    <glyph glyph-name="exclam.case" horiz-adv-x="424" 
d="M147 474v244q0 17 32 24.5t64 0t32 -24.5v-245l-53 -261h-20zM138 61q0 30 22 52t52 22q31 0 52.5 -22t21.5 -52t-21.5 -52t-52.5 -22q-30 0 -52 22t-22 52z" />
    <glyph glyph-name="exclamdown.case" horiz-adv-x="424" 
d="M147 16v239l55 262h20l53 -261v-240q0 -18 -32 -25.5t-64 0t-32 25.5zM138 671q0 30 22 52t52 22q31 0 52.5 -22t21.5 -52t-21.5 -52t-52.5 -22q-30 0 -52 22t-22 52z" />
    <glyph glyph-name="guilsinglleft.case" horiz-adv-x="361" 
d="M238 136l-205 235l205 234h49l-131 -234l131 -235h-49z" />
    <glyph glyph-name="guilsinglright.case" horiz-adv-x="362" 
d="M329 371l-205 -235h-50l132 235l-132 234h50z" />
    <glyph glyph-name="guillemotleft.case" horiz-adv-x="566" 
d="M442 136l-205 235l205 234h49l-131 -234l131 -235h-49zM238 136l-205 235l205 234h49l-131 -234l131 -235h-49z" />
    <glyph glyph-name="guillemotright.case" horiz-adv-x="566" 
d="M533 371l-205 -235h-50l132 235l-132 234h50zM329 371l-205 -235h-50l132 235l-132 234h50z" />
    <glyph glyph-name="parenleft.case" horiz-adv-x="333" 
d="M167 356q0 -295 126 -424l-18 -16q-109 83 -165 196.5t-56 244.5q0 132 56 246.5t165 197.5l18 -18q-126 -130 -126 -427z" />
    <glyph glyph-name="parenright.case" horiz-adv-x="333" 
d="M166 356v-2q0 300 -127 427l19 18q109 -83 165 -197.5t56 -246.5q0 -131 -56 -245t-165 -197l-19 17q127 127 127 426z" />
    <glyph glyph-name="bracketleft.case" horiz-adv-x="330" 
d="M87 -37v799h198v-37h-91v-725h91v-37h-198z" />
    <glyph glyph-name="bracketright.case" horiz-adv-x="330" 
d="M244 762v-799h-198v37h90v725h-90v37h198z" />
    <glyph glyph-name="braceleft.case" horiz-adv-x="372" 
d="M324 -37v-1h-49q-90 0 -121 27t-31 96v144q0 117 -80 117v32q80 0 80 117v143q0 69 31 96t121 27h49v-37h-13q-50 0 -65.5 -18t-15.5 -66v-135q0 -67 -29 -98.5t-83 -42.5v-3q54 -11 83 -42t29 -99v-136q0 -48 15.5 -66t65.5 -18h13v-37z" />
    <glyph glyph-name="braceright.case" horiz-adv-x="372" 
d="M97 -37v2h-49v37h13q51 0 66 17.5t15 66.5v135q0 67 29 98.5t83 42.5v3q-54 11 -83 42.5t-29 98.5v135q0 49 -15 66.5t-66 17.5h-13v37h49q90 0 121 -27t31 -96v-144q0 -51 16 -83.5t64 -32.5v-33q-80 0 -80 -116v-144q0 -69 -31 -96t-121 -27z" />
    <glyph glyph-name="bar.case" horiz-adv-x="242" 
d="M157 0h-72v725h72v-725z" />
    <glyph glyph-name="brokenbar.case" horiz-adv-x="242" 
d="M85 725h72v-260h-72v260zM85 260h72v-260h-72v260z" />
    <glyph glyph-name="periodcentered.case" horiz-adv-x="356" 
d="M104 379q0 30 22 52t52 22q31 0 52.5 -22t21.5 -52t-21.5 -52t-52.5 -22q-30 0 -52 22t-22 52z" />
    <glyph glyph-name="bullet.case" horiz-adv-x="453" 
d="M44 381q0 75 52.5 127.5t126.5 52.5q79 0 133 -52.5t54 -127.5q0 -78 -54 -132t-133 -54q-74 0 -126.5 54t-52.5 132z" />
    <glyph glyph-name="plus.case" 
d="M375 95h-72v241h-241v68h241v229h72v-229h241v-68h-241v-241z" />
    <glyph glyph-name="minus.case" 
d="M77 404h524v-68h-524v68z" />
    <glyph glyph-name="divide.case" 
d="M293 154v102h97v-102h-97zM293 480v103h97v-103h-97zM598 333h-517v68h517v-68z" />
    <glyph glyph-name="multiply.case" 
d="M574 183l-51 -51l-185 185l-183 -183l-51 51l183 184l-183 183l51 51l183 -183l183 183l51 -51l-182 -183z" />
    <glyph glyph-name="equal.case" 
d="M582 443h-485v68h485v-68zM582 236h-485v69h485v-69z" />
    <glyph glyph-name="plusminus.case" 
d="M304 460v174h71v-174h238v-68h-238v-180h-71v180h-238v68h238zM613 95h-547v68h547v-68z" />
    <glyph glyph-name="less.case" 
d="M67 402l521 237v-79l-435 -191l435 -189v-78l-521 234v66z" />
    <glyph glyph-name="greater.case" 
d="M612 402v-66l-521 -234v78l436 189l-436 191v79z" />
    <glyph glyph-name="lessequal.case" 
d="M162 428l449 -140v-75l-544 182v65l544 183v-75zM66 95v68h547v-68h-547z" />
    <glyph glyph-name="greaterequal.case" 
d="M517 428l-450 140v75l545 -183v-65l-545 -182v75zM613 95h-547v68h547v-68z" />
    <glyph glyph-name="notequal.case" 
d="M92 440v71h288l82 143l61 -33l-63 -110h127v-71h-168l-76 -133h244v-71h-285l-95 -166l-62 33l76 133h-129v71h170l77 133h-247z" />
    <glyph glyph-name="acute.case" horiz-adv-x="280" 
d="M260 922l-219 -129h-21l83 129h157z" />
    <glyph glyph-name="breve.case" horiz-adv-x="310" 
d="M154 826q82 0 88 96h48q0 -54 -35 -94.5t-101 -40.5q-65 0 -99.5 40.5t-34.5 94.5h48q5 -96 86 -96z" />
    <glyph glyph-name="caron.case" horiz-adv-x="346" 
d="M165 793l-145 139h23l130 -59l130 59h23l-145 -139h-16z" />
    <glyph glyph-name="cedilla.case" horiz-adv-x="244" 
d="M48 -119h1l72 122h38l-51 -86q17 9 42 9q34 0 54.5 -20.5t20.5 -50.5q0 -46 -33 -70t-73 -24q-48 0 -99 29l10 22q26 -14 64 -14q28 0 45 12t17 35q0 33 -36.5 40.5t-62.5 -9.5z" />
    <glyph glyph-name="circumflex.case" horiz-adv-x="346" 
d="M165 932h16l145 -139h-23l-130 59l-130 -59h-23z" />
    <glyph glyph-name="dieresis.case" horiz-adv-x="392" 
d="M246 860q0 27 18 45.5t46 18.5q26 0 44.5 -18.5t18.5 -45.5q0 -28 -18.5 -46t-44.5 -18q-28 0 -46 18t-18 46zM19 860q0 27 18 45.5t46 18.5q26 0 44 -18.5t18 -45.5q0 -28 -18 -46t-44 -18q-28 0 -46 18t-18 46z" />
    <glyph glyph-name="dotaccent.case" horiz-adv-x="155" 
d="M15 860q0 27 18 45.5t45 18.5q26 0 44 -18.5t18 -45.5q0 -28 -18 -46t-44 -18q-28 0 -45.5 18t-17.5 46z" />
    <glyph glyph-name="grave.case" horiz-adv-x="280" 
d="M14 922h157l83 -129h-21z" />
    <glyph glyph-name="hungarumlaut.case" horiz-adv-x="451" 
d="M438 922l-219 -129h-21l83 129h157zM261 922l-219 -129h-21l83 129h157z" />
    <glyph glyph-name="macron.case" horiz-adv-x="341" 
d="M319 818h-296v68h296v-68z" />
    <glyph glyph-name="ogonek.case" horiz-adv-x="240" 
d="M213 -155v1l7 -11q-50 -50 -110 -50q-37 0 -63.5 20.5t-26.5 60.5q0 37 38 73.5t88 62.5h24q-34 -22 -54.5 -52t-20.5 -59q0 -28 17 -45t42 -17q31 0 59 16z" />
    <glyph glyph-name="ring.case" horiz-adv-x="227" 
d="M20 880q0 39 27 66.5t66 27.5t66.5 -27.5t27.5 -66.5q0 -38 -27.5 -65.5t-66.5 -27.5t-66 27.5t-27 65.5zM59 880q0 -25 15 -40.5t39 -15.5q23 0 38.5 15.5t15.5 40.5t-15.5 41t-38.5 16q-24 0 -39 -16t-15 -41z" />
    <glyph glyph-name="tilde.case" horiz-adv-x="374" 
d="M277 864h2q51 0 61 50h16q0 -53 -24 -90t-69 -37q-34 0 -83.5 30.5t-79.5 30.5q-53 0 -63 -50h-16q0 53 24 90t69 37q33 0 83.5 -30.5t79.5 -30.5z" />
    <glyph glyph-name="germandbls.ss03" horiz-adv-x="654" 
d="M207 -216v1h-106v702q0 133 68 213t183 80q97 0 150 -39t53 -104q0 -50 -38 -93t-92 -68v-3q85 -35 133 -98.5t48 -143.5q0 -105 -71 -174.5t-167 -69.5q-71 0 -122 14v74h3q33 -27 59 -39t59 -12q61 0 96 47t35 118q0 78 -49.5 139.5t-149.5 82.5v21l23 10
q136 58 136 177q0 124 -114 124q-72 0 -104.5 -59t-32.5 -174v-726z" />
    </font>
</defs>
</svg>
