<?xml version="1.0" standalone="no"?>
<!DOCTYPE svg PUBLIC "-//W3C//DTD SVG 1.1//EN" "http://www.w3.org/Graphics/SVG/1.1/DTD/svg11.dtd" >
<svg xmlns="http://www.w3.org/2000/svg" xmlns:xlink="http://www.w3.org/1999/xlink" version="1.1">
<metadata>
Created by FontForge 20170731 at Sun Jul 24 18:21:00 2016
 By Aleksey,,,
Copyright (c) 2015 Swiss Typefaces. All rights reserved.
</metadata>
<defs>
<font id="SuisseIntlCondensed-RegItalic" horiz-adv-x="548" >
  <font-face 
    font-family="Suisse Int'l Condensed"
    font-weight="400"
    font-style="italic"
    font-stretch="condensed"
    units-per-em="1000"
    panose-1="2 11 5 6 0 0 0 0 0 0"
    ascent="800"
    descent="-200"
    x-height="538"
    cap-height="725"
    bbox="-118 -234 1063 934"
    underline-thickness="60"
    underline-position="-230"
    slope="-12"
    unicode-range="U+0020-FB02"
  />
<missing-glyph horiz-adv-x="500" 
d="M0 0v725h500v-725h-500zM239 362l-220 334v-667zM260 362l221 -333v667zM250 346l-217 -327h433zM33 706l217 -328l216 328h-433z" />
    <glyph glyph-name=".notdef" horiz-adv-x="500" 
d="M0 0v725h500v-725h-500zM239 362l-220 334v-667zM260 362l221 -333v667zM250 346l-217 -327h433zM33 706l217 -328l216 328h-433z" />
    <glyph glyph-name=".null" horiz-adv-x="0" 
 />
    <glyph glyph-name="nonmarkingreturn" horiz-adv-x="333" 
 />
    <glyph glyph-name="space" unicode=" " horiz-adv-x="180" 
 />
    <glyph glyph-name="exclam" unicode="!" horiz-adv-x="264" 
d="M80 194l54 328l43 203h93l-43 -203l-85 -328h-62zM15 0l23 108h108l-23 -108h-108z" />
    <glyph glyph-name="quotedbl" unicode="&#x22;" horiz-adv-x="309" 
d="M186 725l-20 -240h-62l-20 240h102zM339 725l-20 -240h-62l-20 240h102z" />
    <glyph glyph-name="numbersign" unicode="#" horiz-adv-x="563" 
d="M317 0l29 210h-130l-29 -210h-72l29 210h-110l8 69h111l26 184h-109l9 69h109l27 193h72l-27 -193h130l27 193h71l-27 -193h111l-8 -69h-112l-26 -184h110l-8 -69h-111l-29 -210h-71zM251 463l-26 -184h130l26 184h-130z" />
    <glyph glyph-name="dollar" unicode="$" horiz-adv-x="511" 
d="M465 230q0 -105 -64 -173t-185 -70l-18 -86h-43l18 88q-75 8 -117 49.5t-42 112.5q0 25 9 70l2 10h92l-2 -10q-7 -40 -7 -58q0 -108 110 -108q73 0 112 42t39 113q0 37 -18.5 62t-59.5 49l-79 45q-49 32 -75.5 65t-26.5 83q0 94 58.5 155.5t161.5 67.5l17 79h43l-17 -79
q158 -12 158 -149q0 -25 -6 -55l-1 -5h-92l1 5q4 17 4 42q0 95 -95 95q-66 -1 -103.5 -38t-37.5 -102q0 -53 52 -84l82 -48q66 -41 98 -77t32 -91z" />
    <glyph glyph-name="percent" unicode="%" horiz-adv-x="785" 
d="M126 406q0 -55 45 -55q39 0 56.5 34.5t35.5 120.5l6 29q14 72 14 100q0 54 -43 54q-39 0 -58 -35.5t-35 -118.5l-6 -29q-15 -68 -15 -100zM334 546l-11 -52q-20 -99 -54.5 -142t-101.5 -43q-54 0 -78 24.5t-24 76.5q0 32 11 84l11 52q22 102 53 144t100 42
q105 0 105 -101q0 -33 -11 -85zM194 0l390 725h48l-390 -725h-48zM537 89q0 -55 45 -55q39 0 56.5 34.5t35.5 120.5l6 29q14 72 14 100q0 54 -43 54q-39 0 -58 -35.5t-35 -118.5l-6 -29q-15 -68 -15 -100zM745 229l-11 -52q-20 -99 -54.5 -142t-101.5 -43q-54 0 -78 24.5
t-24 76.5q0 32 11 84l11 52q22 102 53 144t100 42q105 0 105 -101q0 -33 -11 -85z" />
    <glyph glyph-name="ampersand" unicode="&#x26;" horiz-adv-x="600" 
d="M483 400h75q-37 -159 -108 -255l80 -145h-97l-42 76q-89 -89 -205 -89q-87 0 -137.5 42t-50.5 116q0 82 42.5 136.5t137.5 113.5l30 18q-43 80 -43 134q0 85 49 138t133 53q60 0 100 -26.5t40 -80.5q0 -115 -173 -223l-6 -4l105 -190q42 68 70 186zM193 53q97 0 165 84
l-121 223l-26 -16q-125 -81 -125 -186q0 -48 28 -76.5t79 -28.5zM245 560q0 -35 34 -101v-2l6 4q62 40 93.5 76.5t31.5 82.5q0 26 -18.5 40.5t-49.5 14.5q-46 0 -71.5 -32t-25.5 -83z" />
    <glyph glyph-name="quotesingle" unicode="'" horiz-adv-x="156" 
d="M186 725l-20 -240h-62l-20 240h102z" />
    <glyph glyph-name="parenleft" unicode="(" horiz-adv-x="244" 
d="M150 -175h-73q-52 123 -52 277q0 170 74 342.5t165 280.5h77q-102 -128 -168.5 -296t-66.5 -345q0 -142 44 -259z" />
    <glyph glyph-name="parenright" unicode=")" horiz-adv-x="236" 
d="M-28 -181h-73q99 127 166 303.5t67 353.5q0 136 -43 249h73q51 -121 51 -271q0 -101 -22.5 -200t-60 -179.5t-76.5 -142.5t-82 -113z" />
    <glyph glyph-name="asterisk" unicode="*" horiz-adv-x="382" 
d="M190 420l-51 34l71 98l-115 41l20 56l114 -41v117h60v-117l116 40l20 -56l-117 -39l71 -98l-46 -35l-73 99z" />
    <glyph glyph-name="plus" unicode="+" 
d="M237 0v233h-209v72h209v233h75v-233h209v-72h-209v-233h-75z" />
    <glyph glyph-name="comma" unicode="," horiz-adv-x="228" 
d="M-28 -130l75 130h-44l23 108h108l-24 -114l-84 -124h-54z" />
    <glyph glyph-name="hyphen" unicode="-" horiz-adv-x="400" 
d="M40 236l17 79h308l-17 -79h-308z" />
    <glyph glyph-name="period" unicode="." horiz-adv-x="228" 
d="M3 0l23 108h108l-23 -108h-108z" />
    <glyph glyph-name="slash" unicode="/" horiz-adv-x="334" 
d="M-43 0l392 725h88l-393 -725h-87z" />
    <glyph glyph-name="zero" unicode="0" horiz-adv-x="547" 
d="M135 159q0 -55 20.5 -81t68.5 -26q33 0 58.5 13t42.5 33t32.5 60.5t26 78.5t25.5 103l10 46q26 122 26 182q0 54 -20.5 80.5t-69.5 26.5q-32 0 -57.5 -13t-43 -34.5t-33 -60.5t-26.5 -78t-24 -101l-10 -47q-26 -130 -26 -182zM515 408l-19 -90q-37 -180 -96.5 -255.5
t-177.5 -75.5q-92 0 -133.5 43.5t-41.5 138.5q0 62 18 149l19 90q37 178 97.5 254.5t178.5 76.5q92 0 133.5 -43t41.5 -138q0 -52 -20 -150z" />
    <glyph glyph-name="one" unicode="1" horiz-adv-x="324" 
d="M90 0l121 570h-136l12 58q38 0 57 0.5t39 4.5t28 8.5t19 17.5t16.5 26t16.5 40h71l-154 -725h-90z" />
    <glyph glyph-name="two" unicode="2" horiz-adv-x="478" 
d="M-19 0l15 69l102 103q148 152 201 218q106 133 107 210q0 37 -22 56.5t-62 19.5q-56 0 -89.5 -37.5t-51.5 -115.5l-1 -5h-85l1 5q19 113 75 164.5t158 51.5q75 0 122.5 -35t47.5 -99q0 -47 -22.5 -98.5t-74 -115t-95 -110t-125.5 -128.5l-82 -81h293l-15 -72h-397z" />
    <glyph glyph-name="three" unicode="3" horiz-adv-x="503" 
d="M441 254q0 -123 -65.5 -195t-188.5 -72q-81 0 -128.5 37.5t-47.5 105.5q0 24 7 54l1 5h84l-1 -5q-5 -28 -5 -46q0 -86 90 -86q47 0 81 20t50 52t22.5 62.5t6.5 61.5q-1 48 -29.5 72t-95.5 24h-40l14 66h38q83 0 123.5 49t40.5 131q0 86 -84 86q-55 0 -84 -31t-45 -99
l-1 -5h-84l1 5q20 101 72 146.5t146 45.5q75 0 124.5 -34t49.5 -99q0 -84 -41 -143.5t-113 -77.5q47 -12 74.5 -45.5t27.5 -84.5z" />
    <glyph glyph-name="four" unicode="4" horiz-adv-x="507" 
d="M244 0l40 189h-286l14 67l385 469h90l-99 -464h83l-15 -72h-83l-40 -189h-89zM87 261h212l74 344z" />
    <glyph glyph-name="five" unicode="5" horiz-adv-x="502" 
d="M448 263l-10 -50q-44 -226 -250 -226q-80 0 -125.5 38t-45.5 109q0 26 5 50l2 10h85l-2 -10q-6 -26 -6 -47q0 -86 92 -86q121 0 154 167l7 35q8 43 8 68q0 99 -88 99q-80 0 -131 -93l-80 3l120 395h344l-15 -71h-274l-75 -244q55 77 146 77q70 0 108 -39t38 -113
q0 -37 -7 -72z" />
    <glyph glyph-name="six" unicode="6" horiz-adv-x="530" 
d="M472 252l-7 -38q-50 -227 -242 -227q-178 0 -178 177q0 50 13 109l21 101q40 192 103.5 278.5t187.5 86.5q77 0 117 -36.5t40 -99.5q0 -29 -5 -53l-1 -5h-85l1 5q5 20 5 45q0 81 -82 81q-72 0 -114.5 -65t-69.5 -202l-5 -25q20 37 63 66t98 29q71 0 110 -38.5t39 -112.5
q0 -34 -9 -76zM129 156q0 -106 91 -106q57 0 97 42t57 123l6 30q7 29 7 63q0 105 -92 105q-58 0 -100.5 -46t-54.5 -123l-4 -25q-7 -40 -7 -63z" />
    <glyph glyph-name="seven" unicode="7" horiz-adv-x="434" 
d="M118 0h-92q55 214 152.5 370.5t247.5 283.5h-332l15 71h414l-15 -71q-155 -131 -245.5 -283t-144.5 -371z" />
    <glyph glyph-name="eight" unicode="8" horiz-adv-x="535" 
d="M482 259q0 -122 -65.5 -197t-189.5 -75q-92 0 -147.5 39t-55.5 117q0 96 50.5 161t120.5 85q-32 11 -54.5 41.5t-22.5 79.5q0 98 64.5 163.5t172.5 65.5q82 0 132 -36t50 -105q0 -91 -44 -141t-103 -68q92 -33 92 -130zM115 153q0 -50 27.5 -76.5t78.5 -26.5q63 0 106 36
t57 104l4 20q5 20 5 44q0 49 -28 74.5t-80 25.5q-62 0 -105 -37.5t-57 -105.5l-4 -20q-4 -15 -4 -38zM206 499q0 -84 92 -84q115 0 139 124l3 15q5 27 5 41q0 81 -92 81q-115 0 -139 -122l-3 -15q-5 -25 -5 -40z" />
    <glyph glyph-name="nine" unicode="9" horiz-adv-x="530" 
d="M508 454l-22 -101q-43 -196 -102.5 -281t-182.5 -85q-79 0 -121.5 38t-42.5 102q0 17 7 50l2 10h85l-2 -10q-5 -28 -5 -46q0 -81 80 -81q71 0 113.5 65t70.5 203l6 25q-21 -38 -61 -66.5t-94 -28.5q-73 0 -114 40t-41 116q0 28 8 71l8 38q47 226 248 226q173 0 173 -171
q0 -62 -13 -114zM177 421q0 -107 92 -107q57 0 98 44t58 127l5 25q7 33 7 61q0 105 -92 105q-121 0 -155 -163l-6 -30q-7 -33 -7 -62z" />
    <glyph glyph-name="colon" unicode=":" horiz-adv-x="228" 
d="M94 430l23 108h108l-23 -108h-108zM3 0l23 108h108l-23 -108h-108z" />
    <glyph glyph-name="semicolon" unicode=";" horiz-adv-x="228" 
d="M-28 -130l75 130h-44l23 108h108l-24 -114l-84 -124h-54zM94 430l23 108h108l-23 -108h-108z" />
    <glyph glyph-name="less" unicode="&#x3c;" 
d="M453 3l-407 227v78l407 228v-82l-323 -185l323 -184v-82z" />
    <glyph glyph-name="equal" unicode="=" 
d="M63 122v72h421v-72h-421zM63 343v72h421v-72h-421z" />
    <glyph glyph-name="greater" unicode="&#x3e;" 
d="M502 230l-407 -227v82l323 184l-323 185v82l407 -228v-78z" />
    <glyph glyph-name="question" unicode="?" horiz-adv-x="472" 
d="M144 195l9 41q13 66 41 99t94 80q53 40 81 83t28 100q0 77 -85 77q-109 0 -140 -151l-1 -5h-84v5q22 109 76.5 161.5t148.5 52.5q76 0 126.5 -31t50.5 -99q0 -36 -9 -68t-21.5 -54t-34 -45t-36.5 -35t-40 -31q-7 -5 -22.5 -16.5t-20.5 -15.5t-15.5 -13t-14.5 -14
t-11 -14.5t-10.5 -18.5t-7.5 -21.5t-7 -27.5l-9 -39h-86zM92 0l23 108h108l-23 -108h-108z" />
    <glyph glyph-name="at" unicode="@" horiz-adv-x="785" 
d="M582 72l20 -45q-76 -40 -184 -40q-152 0 -243.5 103t-91.5 266q0 162 101 272t251 110q139 0 228.5 -87t89.5 -236q0 -114 -51 -183.5t-119 -69.5q-44 0 -68 24.5t-24 64.5q0 12 1 15q-43 -101 -128 -101h-2q-49 0 -85 45t-36 129q0 96 50.5 168t123.5 72q60 0 85 -62
q5 -11 11 -31q0 6 1 13q7 35 7 61h51l-31 -231q-4 -25 -4 -48q0 -70 48 -70q47 0 81.5 54.5t34.5 143.5v3q0 128 -77.5 202.5t-188.5 74.5q-123 0 -209.5 -98.5t-86.5 -235.5q0 -136 80 -227t200 -91q95 0 165 35zM304 339q0 -57 19.5 -87.5t48.5 -30.5q50 0 83 55.5
t33 130.5q0 55 -20.5 85t-51.5 30q-48 0 -80 -53.5t-32 -129.5z" />
    <glyph glyph-name="A" unicode="A" horiz-adv-x="529" 
d="M-47 0l348 725h111l50 -725h-90l-10 187h-228l-86 -187h-95zM339 634l-175 -381h195z" />
    <glyph glyph-name="B" unicode="B" horiz-adv-x="528" 
d="M15 0l154 725h142q111 0 165 -30t54 -108q0 -74 -37.5 -130t-114.5 -75q49 -10 78 -43t29 -87q0 -123 -73.5 -187.5t-209.5 -64.5h-187zM123 67h86q94 0 138.5 52.5t44.5 131.5q0 49 -31 71t-103 22h-76zM195 408h75q83 0 126.5 44t45.5 117q1 47 -29 68t-94 21h-71z" />
    <glyph glyph-name="C" unicode="C" horiz-adv-x="529" 
d="M491 236l-2 -10q-25 -120 -85.5 -179.5t-167.5 -59.5q-102 0 -149 48t-47 153q0 64 18 149l16 77q36 172 103.5 248t187.5 76q189 0 189 -169q0 -26 -8 -69l-2 -10h-92l2 10q7 32 7 66q0 103 -99 103q-80 0 -123.5 -69.5t-73.5 -217.5l-8 -38q-21 -103 -21 -161
q0 -65 23.5 -96t78.5 -31q65 0 102 40t56 130l2 10h93z" />
    <glyph glyph-name="D" unicode="D" horiz-adv-x="555" 
d="M123 67h86q89 0 140 65.5t82 211.5l8 38q17 85 17 138q0 71 -29.5 104.5t-93.5 33.5h-84zM15 0l154 725h168q109 0 163 -48.5t54 -155.5q0 -54 -17 -133l-16 -77q-36 -170 -109.5 -240.5t-207.5 -70.5h-189z" />
    <glyph glyph-name="E" unicode="E" horiz-adv-x="461" 
d="M15 0l154 725h367l-16 -74h-273l-51 -240h250l-15 -73h-250l-56 -265h274l-16 -73h-368z" />
    <glyph glyph-name="F" unicode="F" horiz-adv-x="430" 
d="M15 0l154 725h348l-16 -74h-254l-51 -240h231l-15 -73h-231l-72 -338h-94z" />
    <glyph glyph-name="G" unicode="G" horiz-adv-x="558" 
d="M375 0l20 95q-35 -55 -76 -81.5t-104 -26.5q-91 0 -133.5 47t-42.5 148q0 69 19 155l16 77q36 172 104 248t189 76q187 0 187 -168q0 -27 -8 -70l-2 -10h-94l2 10q8 38 8 67q0 102 -98 102q-80 0 -123.5 -69.5t-73.5 -217.5l-8 -38q-22 -110 -22 -164q0 -62 23.5 -93
t78.5 -31q75 0 117.5 52t63.5 158l6 31h-166l15 69h250l-78 -366h-70z" />
    <glyph glyph-name="H" unicode="H" horiz-adv-x="580" 
d="M15 0l154 725h95l-67 -314h247l67 314h94l-154 -725h-94l72 338h-248l-72 -338h-94z" />
    <glyph glyph-name="I" unicode="I" horiz-adv-x="238" 
d="M15 0l154 725h94l-154 -725h-94z" />
    <glyph glyph-name="J" unicode="J" horiz-adv-x="439" 
d="M474 725l-112 -527q-24 -113 -73.5 -162t-142.5 -49q-81 0 -122 38.5t-41 108.5q0 33 7 65l2 10h93l-2 -10q-7 -32 -7 -64q0 -79 70 -79q52 0 79 34t43 109l112 526h94z" />
    <glyph glyph-name="K" unicode="K" horiz-adv-x="526" 
d="M381 0l-114 347l-112 -127l-46 -220h-94l154 725h94l-75 -353l312 353h99l-265 -302l137 -423h-90z" />
    <glyph glyph-name="L" unicode="L" horiz-adv-x="447" 
d="M15 0l154 725h94l-138 -652h274l-16 -73h-368z" />
    <glyph glyph-name="M" unicode="M" horiz-adv-x="727" 
d="M15 -1l154 726h135l26 -618l286 618h136l-154 -725h-86l134 629h-2l-20 -41l-274 -588h-81l-29 588l-3 41h-2l-134 -629z" />
    <glyph glyph-name="N" unicode="N" horiz-adv-x="582" 
d="M15 0l154 725h114l110 -603l128 603h86l-154 -725h-113l-111 602l-128 -602h-86z" />
    <glyph glyph-name="O" unicode="O" horiz-adv-x="564" 
d="M136 183q0 -64 24 -95.5t79 -31.5q86 0 126.5 66t73.5 222l8 38q22 108 22 160q0 64 -24 95.5t-80 31.5q-81 0 -125.5 -70t-74.5 -217l-8 -38q-21 -103 -21 -161zM546 388l-16 -77q-37 -174 -102.5 -249t-190.5 -75q-102 0 -149.5 48.5t-47.5 153.5q0 63 18 148l16 77
q36 172 104.5 248t189.5 76q102 0 149 -48t47 -153q0 -63 -18 -149z" />
    <glyph glyph-name="P" unicode="P" horiz-adv-x="505" 
d="M15 0l154 725h142q122 0 179 -31t57 -114q0 -277 -286 -277h-88l-64 -303h-94zM188 370h71q193 0 193 199q0 53 -34 71t-110 18h-59z" />
    <glyph glyph-name="Q" unicode="Q" horiz-adv-x="564" 
d="M546 390l-16 -77q-25 -118 -59 -186.5t-90 -102.5l51 -89l-55 -35l-56 99q-36 -10 -84 -10q-102 0 -149.5 48.5t-47.5 153.5q0 63 18 148l16 77q36 172 104.5 248t189.5 76q102 0 149 -48t47 -153q0 -63 -18 -149zM136 185q0 -64 24 -95.5t79 -31.5q20 0 45 5l-50 89
l56 33l51 -90q33 31 54.5 89t43.5 162l8 38q22 108 22 160q0 64 -24 95.5t-80 31.5q-81 0 -125.5 -70t-74.5 -217l-8 -38q-21 -103 -21 -161z" />
    <glyph glyph-name="R" unicode="R" horiz-adv-x="537" 
d="M364 0l-52 328q-10 -2 -18 -2h-116l-69 -326h-94l154 725h141q123 0 180.5 -31t57.5 -112v-17q0 -5 -2 -19q-10 -86 -46 -133t-104 -69l59 -344h-91zM191 388h71q90 0 134 34.5t56 115.5q3 18 3 31q0 53 -35 71t-112 18h-59z" />
    <glyph glyph-name="S" unicode="S" horiz-adv-x="511" 
d="M465 230q0 -105 -65 -174t-187 -69q-93 0 -146 41.5t-53 122.5q0 25 9 70l2 10h92l-2 -10q-7 -40 -7 -58q0 -108 110 -108q73 0 112 42t39 113q0 37 -18.5 62t-59.5 49l-79 45q-49 32 -75.5 65t-26.5 83q0 100 65 162t177 62q83 0 131 -37.5t48 -112.5q0 -25 -6 -55
l-1 -5h-92l1 5q4 17 4 42q0 95 -95 95q-66 -1 -103.5 -38t-37.5 -102q0 -53 52 -84l82 -48q66 -41 98 -77t32 -91z" />
    <glyph glyph-name="T" unicode="T" horiz-adv-x="455" 
d="M123 0l139 652h-176l15 73h447l-15 -73h-177l-139 -652h-94z" />
    <glyph glyph-name="U" unicode="U" horiz-adv-x="555" 
d="M590 725l-98 -462q-18 -82 -36.5 -131t-49.5 -83.5t-74.5 -48t-110.5 -13.5q-97 0 -137.5 31.5t-40.5 108.5q0 53 18 136l98 462h94l-101 -474q-14 -67 -14 -106q0 -47 21 -68t72 -21q73 0 107 43.5t57 151.5l101 474h94z" />
    <glyph glyph-name="V" unicode="V" horiz-adv-x="487" 
d="M134 0l-30 725h92l15 -625l271 625h95l-330 -725h-113z" />
    <glyph glyph-name="W" unicode="W" horiz-adv-x="725" 
d="M86 0l24 725h86l-25 -618l245 618h87l-14 -618l233 618h87l-277 -725h-110l14 613l-240 -613h-110z" />
    <glyph glyph-name="X" unicode="X" horiz-adv-x="495" 
d="M-54 0l276 376l-107 349h86l82 -267l196 267h99l-266 -361l112 -364h-86l-87 282l-207 -282h-98z" />
    <glyph glyph-name="Y" unicode="Y" horiz-adv-x="493" 
d="M147 0l61 288l-103 437h87l75 -352l220 352h99l-285 -438l-61 -287h-93z" />
    <glyph glyph-name="Z" unicode="Z" horiz-adv-x="482" 
d="M-31 0l14 71l448 578h-302l16 77h406l-15 -72l-448 -578h334l-16 -76h-437z" />
    <glyph glyph-name="bracketleft" unicode="[" horiz-adv-x="267" 
d="M-22 -175l191 900h196l-14 -65h-120l-163 -769h119l-14 -66h-195z" />
    <glyph glyph-name="backslash" unicode="\" horiz-adv-x="334" 
d="M168 -2l-89 729h86l90 -729h-87z" />
    <glyph glyph-name="bracketright" unicode="]" horiz-adv-x="263" 
d="M-94 -175l14 65h115l163 770h-114l14 65h190l-191 -900h-191z" />
    <glyph glyph-name="asciicircum" unicode="^" horiz-adv-x="500" 
d="M20 338l204 387h73l203 -387h-84l-156 300l-157 -300h-83z" />
    <glyph glyph-name="underscore" unicode="_" horiz-adv-x="444" 
d="M-55 -78l17 82h417l-17 -82h-417z" />
    <glyph glyph-name="grave" unicode="`" horiz-adv-x="222" 
d="M199 606l-77 119h107l40 -119h-70z" />
    <glyph glyph-name="a" unicode="a" horiz-adv-x="446" 
d="M259 0l16 77q-55 -90 -161 -90q-50 0 -81.5 27.5t-31.5 80.5q0 22 4 39l3 15q13 65 56 97t135 64l121 41l9 46q5 25 5 35q0 63 -70 63q-89 0 -110 -102l-2 -11h-85l2 11q19 88 69 124.5t133 36.5q69 0 111.5 -30t42.5 -94q0 -23 -6 -50q-6 -19 -24.5 -105t-20.5 -104
q-28 -150 -30 -171h-85zM97 107q0 -60 58 -60q106 0 138 155l20 95l-92 -34q-55 -19 -82 -44.5t-36 -68.5l-2 -10q-4 -16 -4 -33z" />
    <glyph glyph-name="b" unicode="b" horiz-adv-x="485" 
d="M454 308l-16 -78q-27 -127 -75 -185t-130 -58q-49 0 -81 27.5t-40 73.5l-19 -88h-90l154 725h90l-57 -271q50 96 146 96q128 0 128 -150q0 -45 -10 -92zM133 165q0 -112 80 -112q54 0 84.5 48t52.5 154l6 28q14 70 14 110q0 91 -71 91q-109 0 -153 -215q-13 -65 -13 -104
z" />
    <glyph glyph-name="c" unicode="c" horiz-adv-x="439" 
d="M385 178l-1 -5q-39 -186 -200 -186q-163 0 -163 161q0 46 10 85l16 78q27 125 80 182t151 57q72 0 111.5 -36.5t39.5 -102.5q0 -16 -5 -48l-1 -5h-85l1 5q6 25 6 47q0 76 -73 76q-59 0 -87.5 -46.5t-48.5 -148.5l-9 -45q-15 -72 -15 -110q0 -44 16.5 -65t56.5 -21
q87 0 113 123l1 5h86z" />
    <glyph glyph-name="d" unicode="d" horiz-adv-x="486" 
d="M281 0l18 83q-23 -43 -62.5 -69.5t-89.5 -26.5q-61 0 -93.5 37t-32.5 108q0 48 11 97l16 78q26 126 76 184.5t133 58.5q48 0 80 -27.5t39 -73.5l59 276h90l-154 -725h-90zM116 142q0 -46 17 -67.5t55 -21.5q110 0 154 215q13 56 13 105q0 111 -81 111q-54 0 -85.5 -48.5
t-52.5 -152.5l-6 -29q-14 -70 -14 -112z" />
    <glyph glyph-name="e" unicode="e" horiz-adv-x="452" 
d="M393 172l-1 -5q-18 -90 -72.5 -135t-132.5 -45q-82 0 -125.5 41t-43.5 121q0 43 10 84l16 78q27 125 80.5 182t152.5 57q161 0 161 -153q0 -42 -12 -96l-9 -42h-293l-2 -13q-13 -67 -13 -105q0 -46 18 -68.5t59 -22.5q96 0 119 117l1 5h87zM138 324l-1 -5h203l2 7
q10 44 10 79q0 82 -79 82q-57 0 -88 -43.5t-47 -119.5z" />
    <glyph glyph-name="f" unicode="f" horiz-adv-x="266" 
d="M20 0l101 477h-71l13 61h71l13 60q16 75 50 101t110 26h52l-13 -60h-32q-40 0 -54 -13t-24 -59l-12 -55h96l-13 -61h-96l-101 -477h-90z" />
    <glyph glyph-name="g" unicode="g" horiz-adv-x="487" 
d="M484 538l-108 -509q-23 -111 -73.5 -164t-150.5 -53q-77 0 -117 33t-40 89q0 22 4 37l1 5h82l-1 -5q-3 -17 -3 -30q0 -65 76 -65q55 0 83.5 30t44.5 104l22 102q-51 -98 -145 -98q-64 0 -99 39t-35 113q0 43 10 87l13 64q50 233 218 233q49 0 76.5 -27.5t33.5 -71.5
l18 87h90zM119 169q0 -46 16 -68t53 -22q115 0 156 199q12 58 12 100q0 106 -83 106q-55 0 -85.5 -44.5t-51.5 -144.5l-3 -15q-14 -70 -14 -111z" />
    <glyph glyph-name="h" unicode="h" horiz-adv-x="470" 
d="M3 0l154 725h90l-57 -271q53 96 149 96q56 0 83 -27t27 -86q0 -34 -11 -86l-75 -351h-89l70 331q12 60 12 87q0 33 -13 49t-43 16q-47 0 -85 -44.5t-55 -122.5l-67 -316h-90z" />
    <glyph glyph-name="i" unicode="i" horiz-adv-x="210" 
d="M3 0l114 538h90l-114 -538h-90zM133 615l23 110h90l-23 -110h-90z" />
    <glyph glyph-name="j" unicode="j" horiz-adv-x="210" 
d="M-115 -175l13 60h22q40 0 53.5 16.5t23.5 70.5l120 566h90l-121 -570q-18 -88 -47 -115.5t-106 -27.5h-48zM133 615l23 110h90l-23 -110h-90z" />
    <glyph glyph-name="k" unicode="k" horiz-adv-x="444" 
d="M297 0l-80 268l-88 -96l-36 -172h-90l154 725h90l-89 -417l212 231h95l-188 -205l101 -334h-81z" />
    <glyph glyph-name="l" unicode="l" horiz-adv-x="210" 
d="M3 0l154 725h90l-154 -725h-90z" />
    <glyph glyph-name="m" unicode="m" horiz-adv-x="716" 
d="M3 0l114 538h90l-18 -87q57 99 144 99q101 0 103 -101q16 35 58.5 68t97.5 33q52 0 77.5 -26.5t25.5 -82.5q0 -32 -11 -90l-75 -351h-90l70 331q13 60 13 93q0 59 -48 59t-85.5 -51.5t-55.5 -141.5l-62 -290h-90l70 331q13 60 13 93q0 59 -49 59q-48 0 -85 -51.5
t-55 -141.5l-62 -290h-90z" />
    <glyph glyph-name="n" unicode="n" horiz-adv-x="469" 
d="M3 0l114 538h89l-18 -87q55 99 150 99q56 0 83 -27t27 -86q0 -42 -10 -86l-75 -351h-90l70 331q12 60 12 87q0 33 -13 49t-43 16q-50 0 -87.5 -51t-56.5 -142l-62 -290h-90z" />
    <glyph glyph-name="o" unicode="o" horiz-adv-x="462" 
d="M111 138q0 -88 76 -88q59 0 88.5 48.5t51.5 152.5l8 36q15 73 15 111q0 44 -17.5 66t-58.5 22q-59 0 -89 -49t-50 -151l-8 -36q-16 -64 -16 -112zM431 304l-17 -79q-27 -124 -80.5 -181t-150.5 -57q-162 0 -162 160q0 42 10 86l16 78q25 125 79.5 182t153.5 57
q161 0 161 -159q0 -41 -10 -87z" />
    <glyph glyph-name="p" unicode="p" horiz-adv-x="486" 
d="M-34 -175l151 713h90l-17 -84q50 96 148 96q127 0 127 -146q0 -46 -11 -96l-16 -78q-26 -126 -75.5 -184.5t-130.5 -58.5q-50 0 -81.5 27.5t-38.5 73.5l-56 -263h-90zM134 165q0 -112 79 -112q54 0 84 48t53 154l6 28q14 70 14 112q0 46 -16.5 67.5t-54.5 21.5
q-107 0 -153 -215q-12 -61 -12 -104z" />
    <glyph glyph-name="q" unicode="q" horiz-adv-x="485" 
d="M241 -175l55 260q-23 -43 -64 -70.5t-91 -27.5q-123 0 -123 140q0 43 12 102l16 78q50 243 211 243q49 0 77 -27.5t34 -71.5l18 87h90l-145 -713h-90zM114 139q0 -44 15 -65t50 -21q113 0 157 215q12 62 12 104q0 112 -78 112q-54 0 -84.5 -48t-51.5 -153l-6 -29
q-14 -60 -14 -115z" />
    <glyph glyph-name="r" unicode="r" horiz-adv-x="289" 
d="M3 0l114 538h88l-22 -107q49 107 146 107h20l-17 -83h-33q-60 0 -93 -38.5t-52 -130.5l-61 -286h-90z" />
    <glyph glyph-name="s" unicode="s" horiz-adv-x="432" 
d="M369 144q-9 -77 -66.5 -117t-138.5 -40q-76 0 -118.5 34.5t-42.5 98.5q0 18 5 45l1 5h84l-1 -5q-4 -17 -4 -37q0 -77 80 -77q45 0 78 20t39 60q1 3 1 9v10q0 48 -56 75l-71 35q-92 43 -92 123v10q0 8 1 11q8 70 62.5 108t132.5 38q66 0 108 -31.5t42 -89.5q0 -13 -5 -38
l-1 -5h-81l1 5q4 15 4 29q0 66 -77 66q-38 0 -67.5 -17.5t-34.5 -56.5q-2 -14 -2 -19q0 -39 48 -65l73 -36q52 -26 75.5 -54t23.5 -74v-10q0 -7 -1 -10z" />
    <glyph glyph-name="t" unicode="t" horiz-adv-x="269" 
d="M199 0h-65q-54 0 -76 15t-22 53q0 22 8 62l73 347h-72l13 61h71l29 136h90l-29 -136h93l-13 -61h-92l-71 -336q-7 -35 -7 -46q0 -20 12 -27t42 -7h29z" />
    <glyph glyph-name="u" unicode="u" horiz-adv-x="466" 
d="M261 0l18 85q-53 -98 -151 -98q-54 0 -79.5 25.5t-25.5 81.5q0 42 11 90l75 354h89l-70 -333q-13 -60 -13 -91t12 -46t40 -15q50 0 87 50.5t58 141.5l62 293h89l-114 -538h-88z" />
    <glyph glyph-name="v" unicode="v" horiz-adv-x="400" 
d="M91 0l-26 538h88l10 -442l198 442h88l-252 -538h-106z" />
    <glyph glyph-name="w" unicode="w" horiz-adv-x="574" 
d="M54 0l23 538h78l-25 -432l173 432h83l-9 -431l156 431h78l-201 -538h-96l11 447l-175 -447h-96z" />
    <glyph glyph-name="x" unicode="x" horiz-adv-x="391" 
d="M-58 0l213 279l-87 259h85l61 -181l138 181h89l-200 -262l93 -276h-85l-67 199l-152 -199h-88z" />
    <glyph glyph-name="y" unicode="y" horiz-adv-x="397" 
d="M-45 -175l13 61h28q39 0 54.5 13t39.5 64l18 38l-44 537h84l22 -443l190 443h87l-252 -545q-51 -110 -84.5 -139t-116.5 -29h-39z" />
    <glyph glyph-name="z" unicode="z" horiz-adv-x="378" 
d="M-40 0l13 60l323 416h-216l13 62h314l-12 -60l-323 -416h244l-13 -62h-343z" />
    <glyph glyph-name="braceleft" unicode="{" horiz-adv-x="265" 
d="M164 -175h-23q-70 0 -99.5 20t-29.5 70q0 23 6 54l34 159q7 35 7 54q0 28 -12.5 42.5t-43.5 16.5l15 69q44 2 64 30t32 83l33 158q16 83 53 113.5t123 30.5h29l-14 -69h-12q-54 0 -72.5 -16t-28.5 -65l-34 -162q-13 -65 -41 -96.5t-70 -40.5v-2q29 -9 44 -27.5t15 -55.5
q0 -23 -6 -53l-34 -163q-5 -27 -5 -40q0 -23 15 -32t57 -9h13z" />
    <glyph glyph-name="bar" unicode="|" horiz-adv-x="227" 
d="M72 -90v815h83v-815h-83z" />
    <glyph glyph-name="braceright" unicode="}" horiz-adv-x="258" 
d="M-74 -175h-23l14 69h13q53 0 71.5 16t28.5 65l35 167q13 66 39 96t68 41l1 3q-29 9 -43 26.5t-14 53.5q0 28 7 57l33 156q5 27 5 40q0 24 -15 33t-56 9h-12l14 68h24q69 0 98 -18.5t29 -67.5q0 -22 -8 -59l-32 -152q-7 -33 -7 -53q0 -61 58 -62l-16 -71
q-44 0 -64.5 -27.5t-31.5 -81.5l-35 -164q-18 -84 -56.5 -114t-124.5 -30z" />
    <glyph glyph-name="asciitilde" unicode="~" 
d="M107 190h-70q11 149 132 149q47 0 111 -36t93 -36q60 0 66 72h70q-12 -149 -132 -149q-41 0 -106 36t-99 36q-59 0 -65 -72z" />
    <glyph glyph-name="uni00A0" unicode="&#xa0;" horiz-adv-x="180" 
 />
    <glyph glyph-name="exclamdown" unicode="&#xa1;" horiz-adv-x="270" 
d="M-14 -175l42 200l82 322h62l-51 -322l-42 -200h-93zM107 430l23 108h108l-23 -108h-108z" />
    <glyph glyph-name="cent" unicode="&#xa2;" horiz-adv-x="444" 
d="M131 -92l17 80q-131 12 -131 155q0 36 11 91l17 79q25 121 76.5 178t145.5 60l14 66h42l-14 -69q56 -8 86 -42.5t30 -90.5q0 -23 -6 -50l-1 -6h-84l1 5q6 27 6 47q0 77 -73 77q-58 0 -88 -48t-50 -149l-9 -44q-14 -67 -14 -109q0 -44 17.5 -66t57.5 -22q87 0 112 124l1 5
h86l-1 -5q-38 -175 -190 -186l-17 -80h-42z" />
    <glyph glyph-name="sterling" unicode="&#xa3;" horiz-adv-x="527" 
d="M55 325l12 55h97q-1 4 -8.5 26.5t-9.5 30t-6.5 24.5t-6 30.5t-1.5 27.5q0 101 70 160t173 59q79 0 122.5 -38t43.5 -111q0 -35 -7 -64l-1 -4h-85l2 7q6 28 6 51q0 97 -93 97q-60 0 -100.5 -42.5t-40.5 -110.5q0 -18 3.5 -38.5t7 -33.5t10.5 -37t10 -34h167l-12 -55h-144
q2 -18 2 -26q0 -58 -46.5 -127t-104.5 -102l1 -2q48 22 86 22q25 0 65 -16.5t69 -16.5q33 0 93 30l15 -63q-71 -37 -119 -37q-37 0 -86.5 19t-82.5 19q-64 0 -142 -37l-18 62q72 34 127.5 103.5t55.5 139.5q0 15 -3 32h-121z" />
    <glyph glyph-name="currency" unicode="&#xa4;" horiz-adv-x="618" 
d="M108 92l-38 37l69 70q-50 62 -50 144q0 83 49 146l-68 69l38 37l67 -67q63 54 151 54q89 0 154 -56l69 69l38 -37l-70 -71q48 -62 48 -144q0 -80 -49 -142l71 -72l-38 -37l-70 70q-68 -55 -153 -55t-149 53zM165 343q0 -70 46 -118t115 -48q72 0 118.5 48t46.5 118
q0 72 -46.5 121.5t-118.5 49.5q-69 0 -115 -49.5t-46 -121.5z" />
    <glyph glyph-name="yen" unicode="&#xa5;" horiz-adv-x="495" 
d="M68 229l12 56h127l1 3l-103 437h87l75 -352l220 352h99l-285 -438l-1 -2h128l-12 -56h-128l-16 -78h129l-12 -55h-129l-20 -96h-93l20 96h-127l12 55h127l16 78h-127z" />
    <glyph glyph-name="brokenbar" unicode="&#xa6;" horiz-adv-x="203" 
d="M143 420h-83v305h83v-305zM60 -90v305h83v-305h-83z" />
    <glyph glyph-name="section" unicode="&#xa7;" horiz-adv-x="594" 
d="M494 -23q0 -73 -55 -115t-143 -42q-87 0 -144.5 47t-57.5 136v3h88v-3q0 -58 32 -89t82 -31q48 0 79.5 23t31.5 69q0 69 -86 110l-120 60q-66 34 -98.5 70t-32.5 94q0 86 101 142q-65 55 -65 136q0 75 51 116t139 41q83 0 135 -46.5t52 -130.5v-4h-88v4q0 50 -27 82
t-74 32q-100 0 -100 -92q0 -39 18.5 -64.5t60.5 -45.5l118 -60q65 -34 96.5 -70t31.5 -94q0 -86 -98 -141q73 -56 73 -137zM250 207l112 -56q68 38 68 98q0 35 -19.5 60t-68.5 48l-105 53l-9 4q-69 -38 -69 -98q0 -66 91 -109z" />
    <glyph glyph-name="dieresis" unicode="&#xa8;" horiz-adv-x="328" 
d="M99 616l23 108h80l-23 -108h-80zM296 616l23 108h80l-22 -108h-81z" />
    <glyph glyph-name="copyright" unicode="&#xa9;" horiz-adv-x="835" 
d="M437 33q135 0 228.5 95.5t93.5 234.5t-93.5 234.5t-228.5 95.5t-228 -95.5t-93 -234.5t93 -234.5t228 -95.5zM437 -13q-154 0 -263 109t-109 267t109 266.5t263 108.5q155 0 264 -108.5t109 -266.5t-109 -267t-264 -109zM437 155q-76 0 -106.5 43t-30.5 139v53
q0 96 30.5 139t106.5 43q126 0 126 -135v-5h-72v4q0 48 -13 66.5t-42 18.5q-36 0 -47.5 -34.5t-11.5 -110.5v-24q0 -78 11.5 -112t47.5 -34q29 0 42 18.5t13 66.5v3h72v-3q0 -136 -126 -136z" />
    <glyph glyph-name="ordfeminine" unicode="&#xaa;" horiz-adv-x="253" 
d="M208 438l8 41q-32 -49 -87 -49q-30 0 -47.5 17t-17.5 46q0 13 4 30q8 35 35 56q24 19 78 36l61 20l5 20q3 7 3 23q0 30 -36 30q-25 0 -38 -11.5t-19 -40.5l-1 -5h-55l1 5q8 49 34 71t76 22q98 0 98 -68q0 -17 -4 -33l-25 -112q-12 -64 -16 -98h-57zM128 501q0 -30 31 -30
q50 0 66 79l10 49l-43 -16q-30 -12 -43 -23.5t-18 -33.5q-3 -15 -3 -25z" />
    <glyph glyph-name="guillemotleft" unicode="&#xab;" horiz-adv-x="323" 
d="M263 80l-102 146l23 107l162 141l-23 -105l-102 -94l64 -90zM113 80l-102 146l23 107l162 141l-23 -105l-102 -94l64 -90z" />
    <glyph glyph-name="logicalnot" unicode="&#xac;" 
d="M452 88v270h-434v73h509v-343h-75z" />
    <glyph glyph-name="uni00AD" unicode="&#xad;" horiz-adv-x="400" 
d="M40 236l17 79h308l-17 -79h-308z" />
    <glyph glyph-name="registered" unicode="&#xae;" horiz-adv-x="835" 
d="M437 -13q-154 0 -263 109t-109 267t109 266.5t263 108.5q155 0 264 -108.5t109 -266.5t-109 -267t-264 -109zM437 33q135 0 228.5 95.5t93.5 234.5t-93.5 234.5t-228.5 95.5t-228 -95.5t-93 -234.5t93 -234.5t228 -95.5zM394 164h-70v403h101q79 0 113.5 -24.5
t34.5 -90.5q0 -72 -59 -99l69 -189h-68l-59 176h-16q-3 -1 -13 -1h-33v-175zM394 516v-131h31q42 0 57 13.5t15 52.5t-15.5 52t-57.5 13h-30z" />
    <glyph glyph-name="overscore" unicode="&#xaf;" horiz-adv-x="282" 
d="M104 636l13 64h231l-13 -64h-231z" />
    <glyph glyph-name="degree" unicode="&#xb0;" horiz-adv-x="341" 
d="M383 587q0 -62 -43.5 -106t-106.5 -44q-62 0 -105.5 44t-43.5 106q0 63 43.5 107t105.5 44q63 0 106.5 -44t43.5 -107zM145 587q0 -40 24.5 -67t63.5 -27t64 27t25 67q0 42 -25 68.5t-64 26.5t-63.5 -27t-24.5 -68z" />
    <glyph glyph-name="plusminus" unicode="&#xb1;" 
d="M219 120v173h-205v72h205v173h75v-173h205v-72h-205v-173h-75zM14 0v72h485v-72h-485z" />
    <glyph glyph-name="twosuperior" unicode="&#xb2;" horiz-adv-x="275" 
d="M59 438l10 47l56 58q68 69 93.5 96.5t49.5 66t24 67.5q0 38 -41 38q-31 0 -45.5 -18t-23.5 -61l-1 -5h-60l1 5q13 63 42.5 92.5t86.5 29.5q46 0 74.5 -20t28.5 -57q0 -27 -9.5 -52.5t-38 -60.5t-48 -56t-71.5 -74l-46 -47h157l-11 -49h-228z" />
    <glyph glyph-name="threesuperior" unicode="&#xb3;" horiz-adv-x="288" 
d="M318 563q-15 -133 -143 -133q-47 0 -75 20.5t-28 61.5q0 16 4 32l1 5h59l-1 -5q-4 -15 -4 -29q0 -43 43 -43q62 0 78 78q3 15 3 28q0 49 -62 49h-22l10 45h21q62 0 78 71q3 15 3 27q0 41 -41 41q-50 0 -63 -69l-1 -5h-59l1 5q22 111 123 111q44 0 73.5 -18.5t29.5 -56.5
v-8q0 -5 -1 -8q-4 -44 -26.5 -71.5t-55.5 -36.5q56 -18 56 -75v-8q0 -5 -1 -8z" />
    <glyph glyph-name="acute" unicode="&#xb4;" horiz-adv-x="224" 
d="M97 605l90 120h109l-127 -120h-72z" />
    <glyph glyph-name="mu" unicode="&#xb5;" horiz-adv-x="473" 
d="M90 -7l-1 -6q-22 -108 -41 -162h-89q11 29 39 155l118 558h90l-77 -363q-7 -40 -7 -61q0 -31 12 -46t40 -15q50 0 87 50.5t58 141.5l62 293h89l-114 -538h-88l18 85q-53 -98 -151 -98q-25 0 -45 6z" />
    <glyph glyph-name="mu" unicode="&#x3bc;" horiz-adv-x="473" 
d="M90 -7l-1 -6q-22 -108 -41 -162h-89q11 29 39 155l118 558h90l-77 -363q-7 -40 -7 -61q0 -31 12 -46t40 -15q50 0 87 50.5t58 141.5l62 293h89l-114 -538h-88l18 85q-53 -98 -151 -98q-25 0 -45 6z" />
    <glyph glyph-name="paragraph" unicode="&#xb6;" horiz-adv-x="464" 
d="M92 -89l99 465q-56 0 -94.5 36t-38.5 96q0 95 68.5 156t184.5 61h173l-173 -814h-59l161 759h-102l-161 -759h-58z" />
    <glyph glyph-name="middot" unicode="&#xb7;" horiz-adv-x="228" 
d="M49 215l23 108h108l-23 -108h-108z" />
    <glyph glyph-name="cedilla" unicode="&#xb8;" horiz-adv-x="241" 
d="M135 -106q0 -39 -38.5 -63t-89.5 -24q-44 0 -77 13l21 38q22 -12 55 -12q28 0 47 11.5t19 32.5q0 26 -38 26q-27 0 -44 -9l-17 16l65 78h42l-44 -53q17 3 34 3q28 0 46.5 -15.5t18.5 -41.5z" />
    <glyph glyph-name="onesuperior" unicode="&#xb9;" horiz-adv-x="183" 
d="M113 438l67 314h-74l9 41q52 0 65.5 7.5t29.5 45.5h49l-87 -408h-59z" />
    <glyph glyph-name="ordmasculine" unicode="&#xba;" horiz-adv-x="262" 
d="M140 515q0 -43 35 -43q30 0 43.5 24.5t26.5 82.5l5 22q8 40 8 62q0 43 -34 43q-30 0 -44.5 -25.5t-25.5 -79.5l-5 -22q-9 -45 -9 -64zM315 611l-9 -42q-15 -72 -45 -105.5t-86 -33.5q-97 0 -97 91q0 24 5 48l9 42q15 70 46.5 104t87.5 34q94 0 94 -92q0 -25 -5 -46z" />
    <glyph glyph-name="guillemotright" unicode="&#xbb;" horiz-adv-x="323" 
d="M214 473l102 -146l-23 -107l-162 -141l23 105l102 94l-64 90zM64 473l102 -146l-23 -107l-162 -141l23 105l102 94l-64 90z" />
    <glyph glyph-name="onequarter" unicode="&#xbc;" horiz-adv-x="646" 
d="M87 317l67 314h-74l8 41q52 0 66 8t30 45h49l-87 -408h-59zM70 0l390 725h48l-390 -725h-48zM464 0l22 104h-157l10 46l208 258h61l-54 -255h47l-11 -49h-47l-22 -104h-57zM393 153h103l36 171z" />
    <glyph glyph-name="onehalf" unicode="&#xbd;" horiz-adv-x="629" 
d="M87 317l67 314h-74l8 41q52 0 66 8t30 45h49l-87 -408h-59zM70 0l390 725h48l-390 -725h-48zM320 0l10 47l56 58q68 69 93.5 96.5t49.5 66t24 67.5q0 38 -41 38q-31 0 -45.5 -18t-23.5 -61l-1 -5h-60l1 5q13 63 42.5 92.5t86.5 29.5q46 0 74.5 -20t28.5 -57
q0 -27 -9.5 -52.5t-38 -60.5t-48 -56t-71.5 -74l-46 -47h156l-10 -49h-228z" />
    <glyph glyph-name="threequarters" unicode="&#xbe;" horiz-adv-x="751" 
d="M292 442q-15 -133 -143 -133q-47 0 -75 20.5t-28 61.5q0 16 4 32l1 5h59l-1 -5q-4 -15 -4 -29q0 -43 43 -43q62 0 78 78q3 15 3 28q0 49 -62 49h-22l10 45h21q62 0 78 71q3 15 3 27q0 41 -41 41q-50 0 -63 -69l-1 -5h-59l1 5q22 111 123 111q44 0 73.5 -18.5t29.5 -56.5
v-8q0 -5 -1 -8q-4 -44 -26.5 -71.5t-55.5 -36.5q56 -18 56 -75v-8q0 -5 -1 -8zM175 0l390 725h48l-390 -725h-48zM569 0l22 104h-157l10 46l208 258h61l-54 -255h47l-11 -49h-47l-22 -104h-57zM498 153h103l36 171z" />
    <glyph glyph-name="questiondown" unicode="&#xbf;" horiz-adv-x="463" 
d="M375 28l-1 -5q-41 -211 -231 -211q-76 0 -123 31t-47 99q0 42 12 77.5t35 64t43 47t50 40.5q5 4 17.5 13.5t16.5 12.5l14 10.5t13 11t10 11t10 12.5t8 13t7.5 16t6 18.5t6.5 22.5l8 36h86l-8 -37q-14 -67 -42 -100.5t-93 -79.5q-108 -78 -108 -179q0 -76 85 -76
q108 0 139 147l1 5h85zM237 430l23 108h108l-23 -108h-108z" />
    <glyph glyph-name="Agrave" unicode="&#xc0;" horiz-adv-x="529" 
d="M-47 0l348 725h111l50 -725h-90l-10 187h-228l-86 -187h-95zM339 634l-175 -381h195zM328 774l-98 113h112l64 -113h-78z" />
    <glyph glyph-name="Aacute" unicode="&#xc1;" horiz-adv-x="529" 
d="M-47 0l348 725h111l50 -725h-90l-10 187h-228l-86 -187h-95zM339 634l-175 -381h195zM325 774l81 113h115l-116 -113h-80z" />
    <glyph glyph-name="Acircumflex" unicode="&#xc2;" horiz-adv-x="529" 
d="M-47 0l348 725h111l50 -725h-90l-10 187h-228l-86 -187h-95zM339 634l-175 -381h195zM213 774l128 113h86l92 -113h-89l-53 68l-74 -68h-90z" />
    <glyph glyph-name="Atilde" unicode="&#xc3;" horiz-adv-x="529" 
d="M-47 0l348 725h111l50 -725h-90l-10 187h-228l-86 -187h-95zM339 634l-175 -381h195zM281 776h-65q34 105 117 105q26 0 56.5 -25.5t45.5 -25.5q29 0 48 51h65q-38 -105 -120 -105q-28 0 -56.5 24t-41.5 24q-32 0 -49 -48z" />
    <glyph glyph-name="Adieresis" unicode="&#xc4;" horiz-adv-x="529" 
d="M-47 0l348 725h111l50 -725h-90l-10 187h-228l-86 -187h-95zM339 634l-175 -381h195zM237 778l22 104h82l-22 -104h-82zM432 778l23 104h81l-22 -104h-82z" />
    <glyph glyph-name="Aring" unicode="&#xc5;" horiz-adv-x="529" 
d="M-47 0l348 725h111l50 -725h-90l-10 187h-228l-86 -187h-95zM339 634l-175 -381h195zM465 850q0 -35 -25 -59t-62 -24q-38 0 -63.5 24t-25.5 59q0 36 26 60t63 24q36 0 61.5 -24t25.5 -60zM328 850q0 -21 14.5 -34.5t35.5 -13.5q20 0 34.5 13.5t14.5 34.5q0 22 -14.5 36
t-34.5 14q-21 0 -35.5 -13.5t-14.5 -36.5z" />
    <glyph glyph-name="AE" unicode="&#xc6;" horiz-adv-x="758" 
d="M-57 0l531 725h359l-15 -74h-263l-52 -240h241l-16 -73h-239l-57 -265h265l-15 -73h-357l37 175h-198l-123 -175h-98zM448 579l-232 -330h162z" />
    <glyph glyph-name="Ccedilla" unicode="&#xc7;" horiz-adv-x="529" 
d="M491 236l-2 -10q-25 -120 -85.5 -179.5t-167.5 -59.5q-102 0 -149 48t-47 153q0 64 18 149l16 77q36 172 103.5 248t187.5 76q189 0 189 -169q0 -26 -8 -69l-2 -10h-92l2 10q7 32 7 66q0 103 -99 103q-80 0 -123.5 -69.5t-73.5 -217.5l-8 -38q-21 -103 -21 -161
q0 -65 23.5 -96t78.5 -31q65 0 102 40t56 130l2 10h93zM307 -105q0 -42 -37.5 -65t-89.5 -23q-45 0 -78 13l21 38q22 -12 55 -12q28 0 47 11t19 33q0 26 -38 26q-26 0 -43 -9l-19 16l65 78h44l-44 -53q15 3 32 3q26 0 46 -17.5t20 -38.5z" />
    <glyph glyph-name="Egrave" unicode="&#xc8;" horiz-adv-x="461" 
d="M353 774l-98 113h112l64 -113h-78zM15 0l154 725h367l-16 -74h-273l-51 -240h250l-15 -73h-250l-56 -265h274l-16 -73h-368z" />
    <glyph glyph-name="Eacute" unicode="&#xc9;" horiz-adv-x="461" 
d="M15 0l154 725h367l-16 -74h-273l-51 -240h250l-15 -73h-250l-56 -265h274l-16 -73h-368zM284 774l81 113h115l-116 -113h-80z" />
    <glyph glyph-name="Ecircumflex" unicode="&#xca;" horiz-adv-x="461" 
d="M205 774l128 113h86l92 -113h-89l-53 68l-74 -68h-90zM15 0l154 725h367l-16 -74h-273l-51 -240h250l-15 -73h-250l-56 -265h274l-16 -73h-368z" />
    <glyph glyph-name="Edieresis" unicode="&#xcb;" horiz-adv-x="461" 
d="M15 0l154 725h367l-16 -74h-273l-51 -240h250l-15 -73h-250l-56 -265h274l-16 -73h-368zM223 778l22 104h82l-22 -104h-82zM418 778l23 104h81l-22 -104h-82z" />
    <glyph glyph-name="Igrave" unicode="&#xcc;" horiz-adv-x="238" 
d="M15 0l154 725h94l-154 -725h-94zM189 774l-98 113h112l64 -113h-78z" />
    <glyph glyph-name="Iacute" unicode="&#xcd;" horiz-adv-x="238" 
d="M15 0l154 725h94l-154 -725h-94zM184 774l81 113h115l-116 -113h-80z" />
    <glyph glyph-name="Icircumflex" unicode="&#xce;" horiz-adv-x="238" 
d="M15 0l154 725h94l-154 -725h-94zM74 774l128 113h86l92 -113h-89l-53 68l-74 -68h-90z" />
    <glyph glyph-name="Idieresis" unicode="&#xcf;" horiz-adv-x="238" 
d="M100 778l22 104h82l-22 -104h-82zM270 778l22 104h82l-22 -104h-82zM15 0l154 725h94l-154 -725h-94z" />
    <glyph glyph-name="Eth" unicode="&#xd0;" horiz-adv-x="555" 
d="M8 330l15 72h78l69 323h168q109 0 163 -48.5t54 -155.5q0 -54 -17 -133l-16 -77q-36 -170 -109.5 -240.5t-207.5 -70.5h-189l70 330h-78zM124 67h86q89 0 140 65.5t82 211.5l8 38q17 85 17 138q0 71 -29.5 104.5t-93.5 33.5h-84l-55 -256h141l-15 -72h-141z" />
    <glyph glyph-name="Ntilde" unicode="&#xd1;" horiz-adv-x="582" 
d="M15 0l154 725h114l110 -603l128 603h86l-154 -725h-113l-111 602l-128 -602h-86zM305 776h-65q34 105 117 105q26 0 56.5 -25.5t45.5 -25.5q29 0 48 51h65q-38 -105 -120 -105q-28 0 -56.5 24t-41.5 24q-32 0 -49 -48z" />
    <glyph glyph-name="Ograve" unicode="&#xd2;" horiz-adv-x="564" 
d="M360 774l-98 113h112l64 -113h-78zM136 183q0 -64 24 -95.5t79 -31.5q86 0 126.5 66t73.5 222l8 38q22 108 22 160q0 64 -24 95.5t-80 31.5q-81 0 -125.5 -70t-74.5 -217l-8 -38q-21 -103 -21 -161zM546 388l-16 -77q-37 -174 -102.5 -249t-190.5 -75q-102 0 -149.5 48.5
t-47.5 153.5q0 63 18 148l16 77q36 172 104.5 248t189.5 76q102 0 149 -48t47 -153q0 -63 -18 -149z" />
    <glyph glyph-name="Oacute" unicode="&#xd3;" horiz-adv-x="564" 
d="M136 183q0 -64 24 -95.5t79 -31.5q86 0 126.5 66t73.5 222l8 38q22 108 22 160q0 64 -24 95.5t-80 31.5q-81 0 -125.5 -70t-74.5 -217l-8 -38q-21 -103 -21 -161zM546 388l-16 -77q-37 -174 -102.5 -249t-190.5 -75q-102 0 -149.5 48.5t-47.5 153.5q0 63 18 148l16 77
q36 172 104.5 248t189.5 76q102 0 149 -48t47 -153q0 -63 -18 -149zM338 774l81 113h115l-116 -113h-80z" />
    <glyph glyph-name="Ocircumflex" unicode="&#xd4;" horiz-adv-x="564" 
d="M239 774l128 113h86l92 -113h-89l-53 68l-74 -68h-90zM136 183q0 -64 24 -95.5t79 -31.5q86 0 126.5 66t73.5 222l8 38q22 108 22 160q0 64 -24 95.5t-80 31.5q-81 0 -125.5 -70t-74.5 -217l-8 -38q-21 -103 -21 -161zM546 388l-16 -77q-37 -174 -102.5 -249t-190.5 -75
q-102 0 -149.5 48.5t-47.5 153.5q0 63 18 148l16 77q36 172 104.5 248t189.5 76q102 0 149 -48t47 -153q0 -63 -18 -149z" />
    <glyph glyph-name="Otilde" unicode="&#xd5;" horiz-adv-x="564" 
d="M136 183q0 -64 24 -95.5t79 -31.5q86 0 126.5 66t73.5 222l8 38q22 108 22 160q0 64 -24 95.5t-80 31.5q-81 0 -125.5 -70t-74.5 -217l-8 -38q-21 -103 -21 -161zM546 388l-16 -77q-37 -174 -102.5 -249t-190.5 -75q-102 0 -149.5 48.5t-47.5 153.5q0 63 18 148l16 77
q36 172 104.5 248t189.5 76q102 0 149 -48t47 -153q0 -63 -18 -149zM298 776h-65q34 105 117 105q26 0 56.5 -25.5t45.5 -25.5q28 0 48 51h65q-38 -105 -120 -105q-28 0 -56.5 24t-41.5 24q-33 0 -49 -48z" />
    <glyph glyph-name="Odieresis" unicode="&#xd6;" horiz-adv-x="564" 
d="M250 778l22 104h82l-22 -104h-82zM445 778l23 104h81l-22 -104h-82zM136 183q0 -64 24 -95.5t79 -31.5q86 0 126.5 66t73.5 222l8 38q22 108 22 160q0 64 -24 95.5t-80 31.5q-81 0 -125.5 -70t-74.5 -217l-8 -38q-21 -103 -21 -161zM546 388l-16 -77
q-37 -174 -102.5 -249t-190.5 -75q-102 0 -149.5 48.5t-47.5 153.5q0 63 18 148l16 77q36 172 104.5 248t189.5 76q102 0 149 -48t47 -153q0 -63 -18 -149z" />
    <glyph glyph-name="multiply" unicode="&#xd7;" 
d="M109 36l-51 53l165 178l-166 180l52 52l164 -178l165 177l52 -52l-166 -179l166 -179l-52 -52l-164 177z" />
    <glyph glyph-name="Oslash" unicode="&#xd8;" horiz-adv-x="564" 
d="M38 -65h-50l81 126q-29 50 -29 128q0 63 18 148l16 77q36 172 104.5 248t189.5 76q75 0 121 -28l52 80h50l-70 -108q43 -49 43 -145q0 -63 -18 -149l-16 -77q-37 -174 -102.5 -249t-190.5 -75q-93 0 -139 40zM469 542q0 23 -5 51l-315 -487q23 -50 90 -50q86 0 126.5 66
t73.5 222l8 38q22 108 22 160zM136 183v-19l307 474q-25 31 -78 31q-81 0 -125.5 -70t-74.5 -217l-8 -38q-21 -103 -21 -161z" />
    <glyph glyph-name="Ugrave" unicode="&#xd9;" horiz-adv-x="555" 
d="M346 774l-98 113h112l64 -113h-78zM590 725l-98 -462q-18 -82 -36.5 -131t-49.5 -83.5t-74.5 -48t-110.5 -13.5q-97 0 -137.5 31.5t-40.5 108.5q0 53 18 136l98 462h94l-101 -474q-14 -67 -14 -106q0 -47 21 -68t72 -21q73 0 107 43.5t57 151.5l101 474h94z" />
    <glyph glyph-name="Uacute" unicode="&#xda;" horiz-adv-x="555" 
d="M590 725l-98 -462q-18 -82 -36.5 -131t-49.5 -83.5t-74.5 -48t-110.5 -13.5q-97 0 -137.5 31.5t-40.5 108.5q0 53 18 136l98 462h94l-101 -474q-14 -67 -14 -106q0 -47 21 -68t72 -21q73 0 107 43.5t57 151.5l101 474h94zM343 774l81 113h115l-116 -113h-80z" />
    <glyph glyph-name="Ucircumflex" unicode="&#xdb;" horiz-adv-x="555" 
d="M590 725l-98 -462q-18 -82 -36.5 -131t-49.5 -83.5t-74.5 -48t-110.5 -13.5q-97 0 -137.5 31.5t-40.5 108.5q0 53 18 136l98 462h94l-101 -474q-14 -67 -14 -106q0 -47 21 -68t72 -21q73 0 107 43.5t57 151.5l101 474h94zM227 774l128 113h86l92 -113h-89l-53 68l-74 -68
h-90z" />
    <glyph glyph-name="Udieresis" unicode="&#xdc;" horiz-adv-x="555" 
d="M590 725l-98 -462q-18 -82 -36.5 -131t-49.5 -83.5t-74.5 -48t-110.5 -13.5q-97 0 -137.5 31.5t-40.5 108.5q0 53 18 136l98 462h94l-101 -474q-14 -67 -14 -106q0 -47 21 -68t72 -21q73 0 107 43.5t57 151.5l101 474h94zM247 778l22 104h82l-22 -104h-82zM442 778
l23 104h81l-22 -104h-82z" />
    <glyph glyph-name="Yacute" unicode="&#xdd;" horiz-adv-x="493" 
d="M147 0l61 288l-103 437h87l75 -352l220 352h99l-285 -438l-61 -287h-93zM298 774l81 113h115l-116 -113h-80z" />
    <glyph glyph-name="Thorn" unicode="&#xde;" horiz-adv-x="505" 
d="M12 0l153 720h95l-30 -145h46q111 0 167.5 -33t56.5 -113q0 -10 -2 -32q-12 -131 -84 -189t-212 -58h-63l-32 -150h-95zM153 218h54q97 0 141 39.5t50 134.5q1 4 1 11v11q0 54 -33 73.5t-108 19.5h-43z" />
    <glyph glyph-name="germandbls" unicode="&#xdf;" horiz-adv-x="506" 
d="M0 0l112 525q24 113 76.5 160.5t147.5 47.5q77 0 123.5 -35.5t46.5 -100.5q0 -85 -40 -131.5t-106 -59.5q103 -22 103 -131q0 -122 -62 -198.5t-191 -76.5h-58l13 61h46q81 0 120.5 59t39.5 149q0 51 -28.5 75.5t-91.5 24.5h-25l14 62h21q71 0 111.5 38t40.5 119
q0 82 -79 82q-55 0 -85 -33.5t-46 -109.5l-112 -527h-91z" />
    <glyph glyph-name="agrave" unicode="&#xe0;" horiz-adv-x="446" 
d="M259 0l16 77q-55 -90 -161 -90q-50 0 -81.5 27.5t-31.5 80.5q0 22 4 39l3 15q13 65 56 97t135 64l121 41l9 46q5 25 5 35q0 63 -70 63q-89 0 -110 -102l-2 -11h-85l2 11q19 88 69 124.5t133 36.5q69 0 111.5 -30t42.5 -94q0 -23 -6 -50q-6 -19 -24.5 -105t-20.5 -104
q-28 -150 -30 -171h-85zM97 107q0 -60 58 -60q106 0 138 155l20 95l-92 -34q-55 -19 -82 -44.5t-36 -68.5l-2 -10q-4 -16 -4 -33zM278 606l-77 119h107l40 -119h-70z" />
    <glyph glyph-name="aacute" unicode="&#xe1;" horiz-adv-x="446" 
d="M259 0l16 77q-55 -90 -161 -90q-50 0 -81.5 27.5t-31.5 80.5q0 22 4 39l3 15q13 65 56 97t135 64l121 41l9 46q5 25 5 35q0 63 -70 63q-89 0 -110 -102l-2 -11h-85l2 11q19 88 69 124.5t133 36.5q69 0 111.5 -30t42.5 -94q0 -23 -6 -50q-6 -19 -24.5 -105t-20.5 -104
q-28 -150 -30 -171h-85zM97 107q0 -60 58 -60q106 0 138 155l20 95l-92 -34q-55 -19 -82 -44.5t-36 -68.5l-2 -10q-4 -16 -4 -33zM234 605l90 120h109l-127 -120h-72z" />
    <glyph glyph-name="acircumflex" unicode="&#xe2;" horiz-adv-x="446" 
d="M259 0l16 77q-55 -90 -161 -90q-50 0 -81.5 27.5t-31.5 80.5q0 22 4 39l3 15q13 65 56 97t135 64l121 41l9 46q5 25 5 35q0 63 -70 63q-89 0 -110 -102l-2 -11h-85l2 11q19 88 69 124.5t133 36.5q69 0 111.5 -30t42.5 -94q0 -23 -6 -50q-6 -19 -24.5 -105t-20.5 -104
q-28 -150 -30 -171h-85zM97 107q0 -60 58 -60q106 0 138 155l20 95l-92 -34q-55 -19 -82 -44.5t-36 -68.5l-2 -10q-4 -16 -4 -33zM139 606l133 119h79l84 -119h-82l-51 70l-80 -70h-83z" />
    <glyph glyph-name="atilde" unicode="&#xe3;" horiz-adv-x="446" 
d="M259 0l16 77q-55 -90 -161 -90q-50 0 -81.5 27.5t-31.5 80.5q0 22 4 39l3 15q13 65 56 97t135 64l121 41l9 46q5 25 5 35q0 63 -70 63q-89 0 -110 -102l-2 -11h-85l2 11q19 88 69 124.5t133 36.5q69 0 111.5 -30t42.5 -94q0 -23 -6 -50q-6 -19 -24.5 -105t-20.5 -104
q-28 -150 -30 -171h-85zM97 107q0 -60 58 -60q106 0 138 155l20 95l-92 -34q-55 -19 -82 -44.5t-36 -68.5l-2 -10q-4 -16 -4 -33zM204 621h-65q34 105 117 105q26 0 56.5 -25.5t45.5 -25.5q28 0 48 51h65q-38 -105 -120 -105q-28 0 -56.5 24t-41.5 24q-33 0 -49 -48z" />
    <glyph glyph-name="adieresis" unicode="&#xe4;" horiz-adv-x="446" 
d="M259 0l16 77q-55 -90 -161 -90q-50 0 -81.5 27.5t-31.5 80.5q0 22 4 39l3 15q13 65 56 97t135 64l121 41l9 46q5 25 5 35q0 63 -70 63q-89 0 -110 -102l-2 -11h-85l2 11q19 88 69 124.5t133 36.5q69 0 111.5 -30t42.5 -94q0 -23 -6 -50q-6 -19 -24.5 -105t-20.5 -104
q-28 -150 -30 -171h-85zM97 107q0 -60 58 -60q106 0 138 155l20 95l-92 -34q-55 -19 -82 -44.5t-36 -68.5l-2 -10q-4 -16 -4 -33zM159 616l23 108h80l-23 -108h-80zM356 616l23 108h80l-22 -108h-81z" />
    <glyph glyph-name="aring" unicode="&#xe5;" horiz-adv-x="446" 
d="M259 0l16 77q-55 -90 -161 -90q-50 0 -81.5 27.5t-31.5 80.5q0 22 4 39l3 15q13 65 56 97t135 64l121 41l9 46q5 25 5 35q0 63 -70 63q-89 0 -110 -102l-2 -11h-85l2 11q19 88 69 124.5t133 36.5q69 0 111.5 -30t42.5 -94q0 -23 -6 -50q-6 -19 -24.5 -105t-20.5 -104
q-28 -150 -30 -171h-85zM97 107q0 -60 58 -60q106 0 138 155l20 95l-92 -34q-55 -19 -82 -44.5t-36 -68.5l-2 -10q-4 -16 -4 -33zM400 678q0 -38 -25.5 -61.5t-64.5 -23.5t-64.5 23.5t-25.5 61.5q0 37 26 61.5t64 24.5t64 -24.5t26 -61.5zM261 678q0 -21 14 -34.5t35 -13.5
t35 13.5t14 34.5t-14 35t-35 14t-35 -14t-14 -35z" />
    <glyph glyph-name="ae" unicode="&#xe6;" horiz-adv-x="719" 
d="M302 86q-63 -99 -186 -99q-56 0 -86.5 28.5t-30.5 81.5q0 20 4 40l2 10q14 59 60 95q36 28 133 61l125 41l11 48q4 15 4 34q0 62 -73 62q-95 0 -117 -101l-1 -10h-82l2 10q34 160 209 160q110 0 130 -69q50 68 151 68q79 0 115.5 -35.5t36.5 -109.5q0 -45 -12 -102
l-8 -38h-292l-6 -30q-12 -62 -12 -93q0 -88 76 -88q98 0 121 116l1 4h86l-1 -4q-17 -87 -76.5 -133t-138.5 -46q-62 0 -100.5 24.5t-44.5 74.5zM91 110q0 -62 65 -62q109 0 140 152l19 90l-94 -33q-58 -19 -87.5 -43t-37.5 -65l-2 -11q-3 -15 -3 -28zM409 316h207l2 13
q8 46 8 71q0 43 -18 64t-59 21q-58 0 -89.5 -40t-47.5 -115z" />
    <glyph glyph-name="ccedilla" unicode="&#xe7;" horiz-adv-x="439" 
d="M385 178l-1 -5q-39 -186 -200 -186q-163 0 -163 161q0 46 10 85l16 78q27 125 80 182t151 57q72 0 111.5 -36.5t39.5 -102.5q0 -16 -5 -48l-1 -5h-85l1 5q6 25 6 47q0 76 -73 76q-59 0 -87.5 -46.5t-48.5 -148.5l-9 -45q-15 -72 -15 -110q0 -44 16.5 -65t56.5 -21
q87 0 113 123l1 5h86zM233 -106q0 -39 -38.5 -63t-89.5 -24q-44 0 -77 13l21 38q22 -12 55 -12q28 0 47 11.5t19 32.5q0 26 -38 26q-27 0 -44 -9l-17 16l65 78h42l-44 -53q16 3 34 3q28 0 46.5 -15.5t18.5 -41.5z" />
    <glyph glyph-name="egrave" unicode="&#xe8;" horiz-adv-x="452" 
d="M393 172l-1 -5q-18 -90 -72.5 -135t-132.5 -45q-82 0 -125.5 41t-43.5 121q0 43 10 84l16 78q27 125 80.5 182t152.5 57q161 0 161 -153q0 -42 -12 -96l-9 -42h-293l-2 -13q-13 -67 -13 -105q0 -46 18 -68.5t59 -22.5q96 0 119 117l1 5h87zM138 324l-1 -5h203l2 7
q10 44 10 79q0 82 -79 82q-57 0 -88 -43.5t-47 -119.5zM277 606l-77 119h107l40 -119h-70z" />
    <glyph glyph-name="eacute" unicode="&#xe9;" horiz-adv-x="452" 
d="M250 605l90 120h109l-127 -120h-72zM393 172l-1 -5q-18 -90 -72.5 -135t-132.5 -45q-82 0 -125.5 41t-43.5 121q0 43 10 84l16 78q27 125 80.5 182t152.5 57q161 0 161 -153q0 -42 -12 -96l-9 -42h-293l-2 -13q-13 -67 -13 -105q0 -46 18 -68.5t59 -22.5q96 0 119 117
l1 5h87zM138 324l-1 -5h203l2 7q10 44 10 79q0 82 -79 82q-57 0 -88 -43.5t-47 -119.5z" />
    <glyph glyph-name="ecircumflex" unicode="&#xea;" horiz-adv-x="452" 
d="M151 606l133 119h79l84 -119h-82l-51 70l-80 -70h-83zM393 172l-1 -5q-18 -90 -72.5 -135t-132.5 -45q-82 0 -125.5 41t-43.5 121q0 43 10 84l16 78q27 125 80.5 182t152.5 57q161 0 161 -153q0 -42 -12 -96l-9 -42h-293l-2 -13q-13 -67 -13 -105q0 -46 18 -68.5
t59 -22.5q96 0 119 117l1 5h87zM138 324l-1 -5h203l2 7q10 44 10 79q0 82 -79 82q-57 0 -88 -43.5t-47 -119.5z" />
    <glyph glyph-name="edieresis" unicode="&#xeb;" horiz-adv-x="452" 
d="M165 616l23 108h80l-23 -108h-80zM362 616l23 108h80l-22 -108h-81zM393 172l-1 -5q-18 -90 -72.5 -135t-132.5 -45q-82 0 -125.5 41t-43.5 121q0 43 10 84l16 78q27 125 80.5 182t152.5 57q161 0 161 -153q0 -42 -12 -96l-9 -42h-293l-2 -13q-13 -67 -13 -105
q0 -46 18 -68.5t59 -22.5q96 0 119 117l1 5h87zM138 324l-1 -5h203l2 7q10 44 10 79q0 82 -79 82q-57 0 -88 -43.5t-47 -119.5z" />
    <glyph glyph-name="igrave" unicode="&#xec;" horiz-adv-x="211" 
d="M3 0l114 538h90l-114 -538h-90zM144 606l-77 119h107l40 -119h-70z" />
    <glyph glyph-name="iacute" unicode="&#xed;" horiz-adv-x="211" 
d="M137 605l90 120h109l-127 -120h-72zM3 0l114 538h90l-114 -538h-90z" />
    <glyph glyph-name="icircumflex" unicode="&#xee;" horiz-adv-x="211" 
d="M41 606l117 119h79l68 -119h-82l-35 70l-64 -70h-83zM3 0l114 538h90l-114 -538h-90z" />
    <glyph glyph-name="idieresis" unicode="&#xef;" horiz-adv-x="211" 
d="M57 616l23 109h81l-23 -109h-81zM221 616l23 109h81l-23 -109h-81zM3 0l114 538h90l-114 -538h-90z" />
    <glyph glyph-name="eth" unicode="&#xf0;" horiz-adv-x="475" 
d="M208 569l-34 26l97 54q-14 11 -37.5 29.5t-26.5 21.5l64 38q40 -33 62 -55l87 48l34 -27l-92 -51q88 -96 88 -235q0 -50 -10 -106l-18 -84q-25 -123 -83.5 -182t-158.5 -59q-159 0 -159 154q0 43 10 87l17 80q51 238 235 238q64 0 86 -46l2 1q-15 65 -69 119zM113 139
q0 -44 17.5 -66.5t58.5 -22.5q60 0 92.5 49t53.5 150l8 36q11 48 11 99q0 99 -78 99q-55 0 -86.5 -47t-53.5 -150l-8 -37q-15 -72 -15 -110z" />
    <glyph glyph-name="ntilde" unicode="&#xf1;" horiz-adv-x="469" 
d="M3 0l114 538h89l-18 -87q55 99 150 99q56 0 83 -27t27 -86q0 -42 -10 -86l-75 -351h-90l70 331q12 60 12 87q0 33 -13 49t-43 16q-50 0 -87.5 -51t-56.5 -142l-62 -290h-90zM223 621h-65q34 105 117 105q26 0 56.5 -25.5t45.5 -25.5q29 0 48 51h65q-38 -105 -120 -105
q-28 0 -56.5 24t-41.5 24q-32 0 -49 -48z" />
    <glyph glyph-name="ograve" unicode="&#xf2;" horiz-adv-x="462" 
d="M111 138q0 -88 76 -88q59 0 88.5 48.5t51.5 152.5l8 36q15 73 15 111q0 44 -17.5 66t-58.5 22q-59 0 -89 -49t-50 -151l-8 -36q-16 -64 -16 -112zM431 304l-17 -79q-27 -124 -80.5 -181t-150.5 -57q-162 0 -162 160q0 42 10 86l16 78q25 125 79.5 182t153.5 57
q161 0 161 -159q0 -41 -10 -87zM270 606l-77 119h107l40 -119h-70z" />
    <glyph glyph-name="oacute" unicode="&#xf3;" horiz-adv-x="462" 
d="M257 605l90 120h109l-127 -120h-72zM111 138q0 -88 76 -88q59 0 88.5 48.5t51.5 152.5l8 36q15 73 15 111q0 44 -17.5 66t-58.5 22q-59 0 -89 -49t-50 -151l-8 -36q-16 -64 -16 -112zM431 304l-17 -79q-27 -124 -80.5 -181t-150.5 -57q-162 0 -162 160q0 42 10 86l16 78
q25 125 79.5 182t153.5 57q161 0 161 -159q0 -41 -10 -87z" />
    <glyph glyph-name="ocircumflex" unicode="&#xf4;" horiz-adv-x="462" 
d="M147 606l133 119h79l84 -119h-82l-51 70l-80 -70h-83zM111 138q0 -88 76 -88q59 0 88.5 48.5t51.5 152.5l8 36q15 73 15 111q0 44 -17.5 66t-58.5 22q-59 0 -89 -49t-50 -151l-8 -36q-16 -64 -16 -112zM431 304l-17 -79q-27 -124 -80.5 -181t-150.5 -57q-162 0 -162 160
q0 42 10 86l16 78q25 125 79.5 182t153.5 57q161 0 161 -159q0 -41 -10 -87z" />
    <glyph glyph-name="otilde" unicode="&#xf5;" horiz-adv-x="462" 
d="M111 138q0 -88 76 -88q59 0 88.5 48.5t51.5 152.5l8 36q15 73 15 111q0 44 -17.5 66t-58.5 22q-59 0 -89 -49t-50 -151l-8 -36q-16 -64 -16 -112zM431 304l-17 -79q-27 -124 -80.5 -181t-150.5 -57q-162 0 -162 160q0 42 10 86l16 78q25 125 79.5 182t153.5 57
q161 0 161 -159q0 -41 -10 -87zM221 621h-65q34 105 117 105q26 0 56.5 -25.5t45.5 -25.5q29 0 48 51h65q-38 -105 -120 -105q-28 0 -56.5 24t-41.5 24q-33 0 -49 -48z" />
    <glyph glyph-name="odieresis" unicode="&#xf6;" horiz-adv-x="462" 
d="M167 616l23 108h80l-23 -108h-80zM364 616l23 108h80l-22 -108h-81zM111 138q0 -88 76 -88q59 0 88.5 48.5t51.5 152.5l8 36q15 73 15 111q0 44 -17.5 66t-58.5 22q-59 0 -89 -49t-50 -151l-8 -36q-16 -64 -16 -112zM431 304l-17 -79q-27 -124 -80.5 -181t-150.5 -57
q-162 0 -162 160q0 42 10 86l16 78q25 125 79.5 182t153.5 57q161 0 161 -159q0 -41 -10 -87z" />
    <glyph glyph-name="divide" unicode="&#xf7;" 
d="M224 39v119h100v-119h-100zM38 233v73h472v-73h-472zM224 378v118h100v-118h-100z" />
    <glyph glyph-name="oslash" unicode="&#xf8;" horiz-adv-x="462" 
d="M33 -65h-44l65 100q-33 41 -33 112q0 42 10 86l16 78q25 125 79.5 182t153.5 57q57 0 93 -21l48 74h43l-62 -96q39 -39 39 -116q0 -41 -10 -87l-17 -79q-27 -124 -80.5 -181t-150.5 -57q-63 0 -101 24zM350 398q0 9 -2 25l-223 -346q18 -27 62 -27q59 0 88.5 48.5
t51.5 152.5l8 36q15 73 15 111zM111 138v-14l220 340q-19 22 -57 22q-59 0 -89 -49t-50 -151l-8 -36q-16 -64 -16 -112z" />
    <glyph glyph-name="ugrave" unicode="&#xf9;" horiz-adv-x="466" 
d="M261 0l18 85q-53 -98 -151 -98q-54 0 -79.5 25.5t-25.5 81.5q0 42 11 90l75 354h89l-70 -333q-13 -60 -13 -91t12 -46t40 -15q50 0 87 50.5t58 141.5l62 293h89l-114 -538h-88zM269 606l-77 119h107l40 -119h-70z" />
    <glyph glyph-name="uacute" unicode="&#xfa;" horiz-adv-x="466" 
d="M253 605l90 120h109l-127 -120h-72zM261 0l18 85q-53 -98 -151 -98q-54 0 -79.5 25.5t-25.5 81.5q0 42 11 90l75 354h89l-70 -333q-13 -60 -13 -91t12 -46t40 -15q50 0 87 50.5t58 141.5l62 293h89l-114 -538h-88z" />
    <glyph glyph-name="ucircumflex" unicode="&#xfb;" horiz-adv-x="466" 
d="M142 606l133 119h79l84 -119h-82l-51 70l-80 -70h-83zM261 0l18 85q-53 -98 -151 -98q-54 0 -79.5 25.5t-25.5 81.5q0 42 11 90l75 354h89l-70 -333q-13 -60 -13 -91t12 -46t40 -15q50 0 87 50.5t58 141.5l62 293h89l-114 -538h-88z" />
    <glyph glyph-name="udieresis" unicode="&#xfc;" horiz-adv-x="466" 
d="M161 616l23 108h80l-23 -108h-80zM358 616l23 108h80l-22 -108h-81zM261 0l18 85q-53 -98 -151 -98q-54 0 -79.5 25.5t-25.5 81.5q0 42 11 90l75 354h89l-70 -333q-13 -60 -13 -91t12 -46t40 -15q50 0 87 50.5t58 141.5l62 293h89l-114 -538h-88z" />
    <glyph glyph-name="yacute" unicode="&#xfd;" horiz-adv-x="397" 
d="M-45 -175l13 61h28q39 0 54.5 13t39.5 64l18 38l-44 537h84l22 -443l190 443h87l-252 -545q-51 -110 -84.5 -139t-116.5 -29h-39zM238 605l90 120h109l-127 -120h-72z" />
    <glyph glyph-name="thorn" unicode="&#xfe;" horiz-adv-x="486" 
d="M112 88l-56 -263h-90l191 900h90l-57 -271q50 96 148 96q127 0 127 -146q0 -46 -11 -96l-16 -78q-26 -126 -75.5 -184.5t-130.5 -58.5q-50 0 -81.5 27.5t-38.5 73.5zM134 165q0 -112 79 -112q54 0 84 48t53 154l6 28q14 70 14 112q0 46 -16.5 67.5t-54.5 21.5
q-107 0 -153 -215q-12 -61 -12 -104z" />
    <glyph glyph-name="ydieresis" unicode="&#xff;" horiz-adv-x="397" 
d="M-45 -175l13 61h28q39 0 54.5 13t39.5 64l18 38l-44 537h84l22 -443l190 443h87l-252 -545q-51 -110 -84.5 -139t-116.5 -29h-39zM141 616l23 108h80l-23 -108h-80zM338 616l23 108h80l-22 -108h-81z" />
    <glyph glyph-name="Amacron" unicode="&#x100;" horiz-adv-x="529" 
d="M-47 0l348 725h111l50 -725h-90l-10 187h-228l-86 -187h-95zM339 634l-175 -381h195zM260 801l14 66h236l-14 -66h-236z" />
    <glyph glyph-name="amacron" unicode="&#x101;" horiz-adv-x="446" 
d="M259 0l16 77q-55 -90 -161 -90q-50 0 -81.5 27.5t-31.5 80.5q0 22 4 39l3 15q13 65 56 97t135 64l121 41l9 46q5 25 5 35q0 63 -70 63q-89 0 -110 -102l-2 -11h-85l2 11q19 88 69 124.5t133 36.5q69 0 111.5 -30t42.5 -94q0 -23 -6 -50q-6 -19 -24.5 -105t-20.5 -104
q-28 -150 -30 -171h-85zM97 107q0 -60 58 -60q106 0 138 155l20 95l-92 -34q-55 -19 -82 -44.5t-36 -68.5l-2 -10q-4 -16 -4 -33zM176 636l13 64h231l-13 -64h-231z" />
    <glyph glyph-name="Abreve" unicode="&#x102;" horiz-adv-x="529" 
d="M-47 0l348 725h111l50 -725h-90l-10 187h-228l-86 -187h-95zM339 634l-175 -381h195zM458 886h69q-13 -57 -46.5 -85t-99.5 -28q-53 0 -87 24t-34 67v10q0 4 2 12h69q-1 -3 -1 -9v-6q0 -51 57 -51q56 0 71 66z" />
    <glyph glyph-name="abreve" unicode="&#x103;" horiz-adv-x="446" 
d="M259 0l16 77q-55 -90 -161 -90q-50 0 -81.5 27.5t-31.5 80.5q0 22 4 39l3 15q13 65 56 97t135 64l121 41l9 46q5 25 5 35q0 63 -70 63q-89 0 -110 -102l-2 -11h-85l2 11q19 88 69 124.5t133 36.5q69 0 111.5 -30t42.5 -94q0 -23 -6 -50q-6 -19 -24.5 -105t-20.5 -104
q-28 -150 -30 -171h-85zM97 107q0 -60 58 -60q106 0 138 155l20 95l-92 -34q-55 -19 -82 -44.5t-36 -68.5l-2 -10q-4 -16 -4 -33zM372 725h65q-15 -61 -48.5 -91.5t-99.5 -30.5q-116 0 -116 92q0 13 3 30h64q-2 -16 -2 -21q0 -49 55 -49q63 0 79 70z" />
    <glyph glyph-name="Aogonek" unicode="&#x104;" horiz-adv-x="529" 
d="M-47 0l348 725h111l50 -725q-109 -48 -109 -98q0 -16 12 -25.5t32 -9.5q19 0 37 5l-11 -54q-28 -6 -59 -6q-39 0 -67.5 18.5t-28.5 50.5q0 37 28.5 68.5t75.5 50.5l-10 187h-228l-86 -187h-95zM339 634l-175 -381h195z" />
    <glyph glyph-name="aogonek" unicode="&#x105;" horiz-adv-x="446" 
d="M259 0l16 77q-55 -90 -161 -90q-50 0 -81.5 27.5t-31.5 80.5q0 22 4 39l3 15q13 65 56 97t135 64l121 41l9 46q5 25 5 35q0 63 -70 63q-89 0 -110 -102l-2 -11h-85l2 11q19 88 69 124.5t133 36.5q69 0 111.5 -30t42.5 -94q0 -23 -6 -50q-6 -19 -24.5 -105t-20.5 -104
q-28 -150 -30 -171q-113 -50 -113 -96q0 -16 13 -26.5t33 -10.5q15 0 39 6l-11 -54q-27 -7 -61 -7q-39 0 -67.5 18.5t-28.5 50.5q0 34 33 68.5t78 50.5zM97 107q0 -60 58 -60q106 0 138 155l20 95l-92 -34q-55 -19 -82 -44.5t-36 -68.5l-2 -10q-4 -16 -4 -33z" />
    <glyph glyph-name="Cacute" unicode="&#x106;" horiz-adv-x="529" 
d="M491 236l-2 -10q-25 -120 -85.5 -179.5t-167.5 -59.5q-102 0 -149 48t-47 153q0 64 18 149l16 77q36 172 103.5 248t187.5 76q189 0 189 -169q0 -26 -8 -69l-2 -10h-92l2 10q7 32 7 66q0 103 -99 103q-80 0 -123.5 -69.5t-73.5 -217.5l-8 -38q-21 -103 -21 -161
q0 -65 23.5 -96t78.5 -31q65 0 102 40t56 130l2 10h93zM329 774l81 113h115l-116 -113h-80z" />
    <glyph glyph-name="cacute" unicode="&#x107;" horiz-adv-x="439" 
d="M252 605l90 120h109l-127 -120h-72zM385 178l-1 -5q-39 -186 -200 -186q-163 0 -163 161q0 46 10 85l16 78q27 125 80 182t151 57q72 0 111.5 -36.5t39.5 -102.5q0 -16 -5 -48l-1 -5h-85l1 5q6 25 6 47q0 76 -73 76q-59 0 -87.5 -46.5t-48.5 -148.5l-9 -45
q-15 -72 -15 -110q0 -44 16.5 -65t56.5 -21q87 0 113 123l1 5h86z" />
    <glyph glyph-name="Ccircumflex" unicode="&#x108;" horiz-adv-x="529" 
d="M491 236l-2 -10q-25 -120 -85.5 -179.5t-167.5 -59.5q-102 0 -149 48t-47 153q0 64 18 149l16 77q36 172 103.5 248t187.5 76q189 0 189 -169q0 -26 -8 -69l-2 -10h-92l2 10q7 32 7 66q0 103 -99 103q-80 0 -123.5 -69.5t-73.5 -217.5l-8 -38q-21 -103 -21 -161
q0 -65 23.5 -96t78.5 -31q65 0 102 40t56 130l2 10h93zM228 774l128 113h86l92 -113h-89l-53 68l-74 -68h-90z" />
    <glyph glyph-name="ccircumflex" unicode="&#x109;" horiz-adv-x="439" 
d="M131 606l133 119h79l84 -119h-82l-51 70l-80 -70h-83zM385 178l-1 -5q-39 -186 -200 -186q-163 0 -163 161q0 46 10 85l16 78q27 125 80 182t151 57q72 0 111.5 -36.5t39.5 -102.5q0 -16 -5 -48l-1 -5h-85l1 5q6 25 6 47q0 76 -73 76q-59 0 -87.5 -46.5t-48.5 -148.5
l-9 -45q-15 -72 -15 -110q0 -44 16.5 -65t56.5 -21q87 0 113 123l1 5h86z" />
    <glyph glyph-name="Cdotaccent" unicode="&#x10a;" horiz-adv-x="529" 
d="M491 236l-2 -10q-25 -120 -85.5 -179.5t-167.5 -59.5q-102 0 -149 48t-47 153q0 64 18 149l16 77q36 172 103.5 248t187.5 76q189 0 189 -169q0 -26 -8 -69l-2 -10h-92l2 10q7 32 7 66q0 103 -99 103q-80 0 -123.5 -69.5t-73.5 -217.5l-8 -38q-21 -103 -21 -161
q0 -65 23.5 -96t78.5 -31q65 0 102 40t56 130l2 10h93zM338 781l22 103h93l-22 -103h-93z" />
    <glyph glyph-name="cdotaccent" unicode="&#x10b;" horiz-adv-x="439" 
d="M385 178l-1 -5q-39 -186 -200 -186q-163 0 -163 161q0 46 10 85l16 78q27 125 80 182t151 57q72 0 111.5 -36.5t39.5 -102.5q0 -16 -5 -48l-1 -5h-85l1 5q6 25 6 47q0 76 -73 76q-59 0 -87.5 -46.5t-48.5 -148.5l-9 -45q-15 -72 -15 -110q0 -44 16.5 -65t56.5 -21
q87 0 113 123l1 5h86zM265 616l23 109h81l-24 -109h-80z" />
    <glyph glyph-name="Ccaron" unicode="&#x10c;" horiz-adv-x="529" 
d="M416 774h-85l-93 113h89l52 -67l80 67h91zM491 236l-2 -10q-25 -120 -85.5 -179.5t-167.5 -59.5q-102 0 -149 48t-47 153q0 64 18 149l16 77q36 172 103.5 248t187.5 76q189 0 189 -169q0 -26 -8 -69l-2 -10h-92l2 10q7 32 7 66q0 103 -99 103q-80 0 -123.5 -69.5
t-73.5 -217.5l-8 -38q-21 -103 -21 -161q0 -65 23.5 -96t78.5 -31q65 0 102 40t56 130l2 10h93z" />
    <glyph glyph-name="ccaron" unicode="&#x10d;" horiz-adv-x="439" 
d="M260 606l-95 119h82l59 -69l77 69h81l-126 -119h-78zM385 178l-1 -5q-39 -186 -200 -186q-163 0 -163 161q0 46 10 85l16 78q27 125 80 182t151 57q72 0 111.5 -36.5t39.5 -102.5q0 -16 -5 -48l-1 -5h-85l1 5q6 25 6 47q0 76 -73 76q-59 0 -87.5 -46.5t-48.5 -148.5
l-9 -45q-15 -72 -15 -110q0 -44 16.5 -65t56.5 -21q87 0 113 123l1 5h86z" />
    <glyph glyph-name="Dcaron" unicode="&#x10e;" horiz-adv-x="555" 
d="M406 774h-85l-93 113h89l52 -67l80 67h91zM123 67h86q89 0 140 65.5t82 211.5l8 38q17 85 17 138q0 71 -29.5 104.5t-93.5 33.5h-84zM15 0l154 725h168q109 0 163 -48.5t54 -155.5q0 -54 -17 -133l-16 -77q-36 -170 -109.5 -240.5t-207.5 -70.5h-189z" />
    <glyph glyph-name="dcaron" unicode="&#x10f;" horiz-adv-x="555" 
d="M532 555l62 170h86l-90 -170h-58zM281 0l18 83q-23 -43 -62.5 -69.5t-89.5 -26.5q-61 0 -93.5 37t-32.5 108q0 48 11 97l16 78q26 126 76 184.5t133 58.5q48 0 80 -27.5t39 -73.5l59 276h90l-154 -725h-90zM116 142q0 -46 17 -67.5t55 -21.5q110 0 154 215q13 56 13 105
q0 111 -81 111q-54 0 -85.5 -48.5t-52.5 -152.5l-6 -29q-14 -70 -14 -112z" />
    <glyph glyph-name="Dcroat" unicode="&#x110;" horiz-adv-x="555" 
d="M8 330l15 72h78l69 323h168q109 0 163 -48.5t54 -155.5q0 -54 -17 -133l-16 -77q-36 -170 -109.5 -240.5t-207.5 -70.5h-189l70 330h-78zM124 67h86q89 0 140 65.5t82 211.5l8 38q17 85 17 138q0 71 -29.5 104.5t-93.5 33.5h-84l-55 -256h141l-15 -72h-141z" />
    <glyph glyph-name="dslash" unicode="&#x111;" horiz-adv-x="481" 
d="M313 580l12 54h90l20 91h90l-20 -91h91l-12 -54h-90l-123 -580h-90l18 83q-23 -43 -62.5 -69.5t-89.5 -26.5q-61 0 -93.5 37t-32.5 108q0 48 11 97l16 78q26 126 76 184.5t133 58.5q48 0 80 -27.5t39 -73.5l28 131h-91zM116 142q0 -46 17 -67.5t55 -21.5q110 0 154 215
q13 56 13 105q0 111 -81 111q-54 0 -85.5 -48.5t-52.5 -152.5l-6 -29q-14 -70 -14 -112z" />
    <glyph glyph-name="Emacron" unicode="&#x112;" horiz-adv-x="461" 
d="M246 801l14 66h236l-14 -66h-236zM15 0l154 725h367l-16 -74h-273l-51 -240h250l-15 -73h-250l-56 -265h274l-16 -73h-368z" />
    <glyph glyph-name="emacron" unicode="&#x113;" horiz-adv-x="452" 
d="M393 172l-1 -5q-18 -90 -72.5 -135t-132.5 -45q-82 0 -125.5 41t-43.5 121q0 43 10 84l16 78q27 125 80.5 182t152.5 57q161 0 161 -153q0 -42 -12 -96l-9 -42h-293l-2 -13q-13 -67 -13 -105q0 -46 18 -68.5t59 -22.5q96 0 119 117l1 5h87zM138 324l-1 -5h203l2 7
q10 44 10 79q0 82 -79 82q-57 0 -88 -43.5t-47 -119.5zM192 636l13 64h231l-13 -64h-231z" />
    <glyph glyph-name="Ebreve" unicode="&#x114;" horiz-adv-x="461" 
d="M453 886h69q-13 -57 -46.5 -85t-99.5 -28q-53 0 -87 24t-34 67v10q0 4 2 12h69q-1 -3 -1 -9v-6q0 -51 57 -51q56 0 71 66zM15 0l154 725h367l-16 -74h-273l-51 -240h250l-15 -73h-250l-56 -265h274l-16 -73h-368z" />
    <glyph glyph-name="ebreve" unicode="&#x115;" horiz-adv-x="452" 
d="M393 172l-1 -5q-18 -90 -72.5 -135t-132.5 -45q-82 0 -125.5 41t-43.5 121q0 43 10 84l16 78q27 125 80.5 182t152.5 57q161 0 161 -153q0 -42 -12 -96l-9 -42h-293l-2 -13q-13 -67 -13 -105q0 -46 18 -68.5t59 -22.5q96 0 119 117l1 5h87zM138 324l-1 -5h203l2 7
q10 44 10 79q0 82 -79 82q-57 0 -88 -43.5t-47 -119.5zM390 725h65q-15 -61 -48.5 -91.5t-99.5 -30.5q-116 0 -116 92q0 13 3 30h64q-2 -16 -2 -21q0 -49 55 -49q63 0 79 70z" />
    <glyph glyph-name="Edotaccent" unicode="&#x116;" horiz-adv-x="461" 
d="M314 781l22 103h93l-22 -103h-93zM15 0l154 725h367l-16 -74h-273l-51 -240h250l-15 -73h-250l-56 -265h274l-16 -73h-368z" />
    <glyph glyph-name="edotaccent" unicode="&#x117;" horiz-adv-x="452" 
d="M393 172l-1 -5q-18 -90 -72.5 -135t-132.5 -45q-82 0 -125.5 41t-43.5 121q0 43 10 84l16 78q27 125 80.5 182t152.5 57q161 0 161 -153q0 -42 -12 -96l-9 -42h-293l-2 -13q-13 -67 -13 -105q0 -46 18 -68.5t59 -22.5q96 0 119 117l1 5h87zM138 324l-1 -5h203l2 7
q10 44 10 79q0 82 -79 82q-57 0 -88 -43.5t-47 -119.5zM264 616l23 109h81l-24 -109h-80z" />
    <glyph glyph-name="Eogonek" unicode="&#x118;" horiz-adv-x="461" 
d="M355 -128l-11 -54q-28 -6 -59 -6q-39 0 -67.5 18.5t-28.5 50.5q0 37 28.5 68.5t75.5 50.5h90q-109 -48 -109 -98q0 -16 12 -25.5t32 -9.5q19 0 37 5zM15 0l154 725h367l-16 -74h-273l-51 -240h250l-15 -73h-250l-56 -265h274l-16 -73h-368z" />
    <glyph glyph-name="eogonek" unicode="&#x119;" horiz-adv-x="452" 
d="M138 324l-1 -5h203l2 7q10 44 10 79q0 82 -79 82q-57 0 -88 -43.5t-47 -119.5zM273 -127l-11 -54q-27 -7 -61 -7q-39 0 -67.5 18.5t-28.5 50.5q0 54 61 107q-146 11 -146 161q0 43 10 84l16 78q27 125 80 182t151 57q160 0 160 -153q0 -42 -12 -96l-9 -42h-291l-3 -13
q-13 -67 -13 -105q0 -46 18 -68.5t59 -22.5q96 0 119 117l1 5h86l-1 -5q-20 -104 -97 -153q-39 -24 -72.5 -57t-33.5 -53q0 -16 13 -26.5t33 -10.5q15 0 39 6z" />
    <glyph glyph-name="Ecaron" unicode="&#x11a;" horiz-adv-x="461" 
d="M411 774h-85l-93 113h89l52 -67l80 67h91zM15 0l154 725h367l-16 -74h-273l-51 -240h250l-15 -73h-250l-56 -265h274l-16 -73h-368z" />
    <glyph glyph-name="ecaron" unicode="&#x11b;" horiz-adv-x="452" 
d="M266 606l-95 119h82l59 -69l77 69h81l-126 -119h-78zM393 172l-1 -5q-18 -90 -72.5 -135t-132.5 -45q-82 0 -125.5 41t-43.5 121q0 43 10 84l16 78q27 125 80.5 182t152.5 57q161 0 161 -153q0 -42 -12 -96l-9 -42h-293l-2 -13q-13 -67 -13 -105q0 -46 18 -68.5t59 -22.5
q96 0 119 117l1 5h87zM138 324l-1 -5h203l2 7q10 44 10 79q0 82 -79 82q-57 0 -88 -43.5t-47 -119.5z" />
    <glyph glyph-name="Gcircumflex" unicode="&#x11c;" horiz-adv-x="558" 
d="M235 774l128 113h86l92 -113h-89l-53 68l-74 -68h-90zM375 0l20 95q-35 -55 -76 -81.5t-104 -26.5q-91 0 -133.5 47t-42.5 148q0 69 19 155l16 77q36 172 104 248t189 76q187 0 187 -168q0 -27 -8 -70l-2 -10h-94l2 10q8 38 8 67q0 102 -98 102q-80 0 -123.5 -69.5
t-73.5 -217.5l-8 -38q-22 -110 -22 -164q0 -62 23.5 -93t78.5 -31q75 0 117.5 52t63.5 158l6 31h-166l15 69h250l-78 -366h-70z" />
    <glyph glyph-name="gcircumflex" unicode="&#x11d;" horiz-adv-x="487" 
d="M150 606l133 119h79l84 -119h-82l-51 70l-80 -70h-83zM484 538l-108 -509q-23 -111 -73.5 -164t-150.5 -53q-77 0 -117 33t-40 89q0 22 4 37l1 5h82l-1 -5q-3 -17 -3 -30q0 -65 76 -65q55 0 83.5 30t44.5 104l22 102q-51 -98 -145 -98q-64 0 -99 39t-35 113q0 43 10 87
l13 64q50 233 218 233q49 0 76.5 -27.5t33.5 -71.5l18 87h90zM119 169q0 -46 16 -68t53 -22q115 0 156 199q12 58 12 100q0 106 -83 106q-55 0 -85.5 -44.5t-51.5 -144.5l-3 -15q-14 -70 -14 -111z" />
    <glyph glyph-name="Gbreve" unicode="&#x11e;" horiz-adv-x="558" 
d="M463 886h69q-13 -57 -46.5 -85t-99.5 -28q-53 0 -87 24t-34 67v10q0 4 2 12h69q-1 -3 -1 -9v-6q0 -51 57 -51q56 0 71 66zM375 0l20 95q-35 -55 -76 -81.5t-104 -26.5q-91 0 -133.5 47t-42.5 148q0 69 19 155l16 77q36 172 104 248t189 76q187 0 187 -168q0 -27 -8 -70
l-2 -10h-94l2 10q8 38 8 67q0 102 -98 102q-80 0 -123.5 -69.5t-73.5 -217.5l-8 -38q-22 -110 -22 -164q0 -62 23.5 -93t78.5 -31q75 0 117.5 52t63.5 158l6 31h-166l15 69h250l-78 -366h-70z" />
    <glyph glyph-name="gbreve" unicode="&#x11f;" horiz-adv-x="487" 
d="M484 538l-108 -509q-23 -111 -73.5 -164t-150.5 -53q-77 0 -117 33t-40 89q0 22 4 37l1 5h82l-1 -5q-3 -17 -3 -30q0 -65 76 -65q55 0 83.5 30t44.5 104l22 102q-51 -98 -145 -98q-64 0 -99 39t-35 113q0 43 10 87l13 64q50 233 218 233q49 0 76.5 -27.5t33.5 -71.5
l18 87h90zM119 169q0 -46 16 -68t53 -22q115 0 156 199q12 58 12 100q0 106 -83 106q-55 0 -85.5 -44.5t-51.5 -144.5l-3 -15q-14 -70 -14 -111zM401 725h65q-15 -61 -48.5 -91.5t-99.5 -30.5q-116 0 -116 92q0 13 3 30h64q-2 -16 -2 -21q0 -49 55 -49q63 0 79 70z" />
    <glyph glyph-name="Gdotaccent" unicode="&#x120;" horiz-adv-x="558" 
d="M340 781l22 103h93l-22 -103h-93zM375 0l20 95q-35 -55 -76 -81.5t-104 -26.5q-91 0 -133.5 47t-42.5 148q0 69 19 155l16 77q36 172 104 248t189 76q187 0 187 -168q0 -27 -8 -70l-2 -10h-94l2 10q8 38 8 67q0 102 -98 102q-80 0 -123.5 -69.5t-73.5 -217.5l-8 -38
q-22 -110 -22 -164q0 -62 23.5 -93t78.5 -31q75 0 117.5 52t63.5 158l6 31h-166l15 69h250l-78 -366h-70z" />
    <glyph glyph-name="gdotaccent" unicode="&#x121;" horiz-adv-x="487" 
d="M484 538l-108 -509q-23 -111 -73.5 -164t-150.5 -53q-77 0 -117 33t-40 89q0 22 4 37l1 5h82l-1 -5q-3 -17 -3 -30q0 -65 76 -65q55 0 83.5 30t44.5 104l22 102q-51 -98 -145 -98q-64 0 -99 39t-35 113q0 43 10 87l13 64q50 233 218 233q49 0 76.5 -27.5t33.5 -71.5
l18 87h90zM119 169q0 -46 16 -68t53 -22q115 0 156 199q12 58 12 100q0 106 -83 106q-55 0 -85.5 -44.5t-51.5 -144.5l-3 -15q-14 -70 -14 -111zM259 616l23 109h81l-24 -109h-80z" />
    <glyph glyph-name="uni0122" unicode="&#x122;" horiz-adv-x="558" 
d="M128 -223l54 89h-34l17 84h89l-19 -90l-57 -83h-50zM375 0l20 95q-35 -55 -76 -81.5t-104 -26.5q-91 0 -133.5 47t-42.5 148q0 69 19 155l16 77q36 172 104 248t189 76q187 0 187 -168q0 -27 -8 -70l-2 -10h-94l2 10q8 38 8 67q0 102 -98 102q-80 0 -123.5 -69.5
t-73.5 -217.5l-8 -38q-22 -110 -22 -164q0 -62 23.5 -93t78.5 -31q75 0 117.5 52t63.5 158l6 31h-166l15 69h250l-78 -366h-70z" />
    <glyph glyph-name="uni0123" unicode="&#x123;" horiz-adv-x="487" 
d="M392 788l-54 -89h34l-17 -84h-89l19 90l57 83h50zM484 538l-108 -509q-23 -111 -73.5 -164t-150.5 -53q-77 0 -117 33t-40 89q0 22 4 37l1 5h82l-1 -5q-3 -17 -3 -30q0 -65 76 -65q55 0 83.5 30t44.5 104l22 102q-51 -98 -145 -98q-64 0 -99 39t-35 113q0 43 10 87l13 64
q50 233 218 233q49 0 76.5 -27.5t33.5 -71.5l18 87h90zM119 169q0 -46 16 -68t53 -22q115 0 156 199q12 58 12 100q0 106 -83 106q-55 0 -85.5 -44.5t-51.5 -144.5l-3 -15q-14 -70 -14 -111z" />
    <glyph glyph-name="Hcircumflex" unicode="&#x124;" horiz-adv-x="580" 
d="M15 0l154 725h95l-67 -314h247l67 314h94l-154 -725h-94l72 338h-248l-72 -338h-94zM237 774l128 113h86l92 -113h-89l-53 68l-74 -68h-90z" />
    <glyph glyph-name="hcircumflex" unicode="&#x125;" horiz-adv-x="470" 
d="M3 0l154 725h90l-57 -271q53 96 149 96q56 0 83 -27t27 -86q0 -34 -11 -86l-75 -351h-89l70 331q12 60 12 87q0 33 -13 49t-43 16q-47 0 -85 -44.5t-55 -122.5l-67 -316h-90zM66 774l128 113h86l92 -113h-89l-53 68l-74 -68h-90z" />
    <glyph glyph-name="Hbar" unicode="&#x126;" horiz-adv-x="580" 
d="M71 534l14 70h58l26 121h95l-26 -121h247l26 121h94l-26 -121h58l-14 -70h-59l-113 -534h-94l72 338h-248l-72 -338h-94l113 534h-57zM197 411h247l26 123h-247z" />
    <glyph glyph-name="hbar" unicode="&#x127;" horiz-adv-x="470" 
d="M50 580l12 54h75l20 91h90l-19 -91h105l-12 -54h-105l-26 -126q53 96 149 96q56 0 83 -27t27 -86q0 -34 -11 -86l-75 -351h-89l70 331q12 60 12 87q0 33 -13 49t-43 16q-47 0 -85 -44.5t-55 -122.5l-67 -316h-90l123 580h-76z" />
    <glyph glyph-name="Itilde" unicode="&#x128;" horiz-adv-x="238" 
d="M15 0l154 725h94l-154 -725h-94zM146 776h-61q20 58 46.5 80.5t60.5 22.5q26 0 56 -24.5t42 -24.5q13 0 21 11t18 38h61q-21 -59 -44.5 -81t-58.5 -22q-28 0 -60 24l-22 16q-11 8 -19 8q-13 0 -21.5 -11t-18.5 -37z" />
    <glyph glyph-name="itilde" unicode="&#x129;" horiz-adv-x="211" 
d="M111 617h-57q29 108 95 108q25 0 53 -24.5t40 -24.5q18 0 32 49h56q-15 -58 -35.5 -83t-49.5 -25q-24 0 -52.5 24t-41.5 24q-14 0 -22.5 -11.5t-17.5 -36.5zM3 0l114 538h90l-114 -538h-90z" />
    <glyph glyph-name="Imacron" unicode="&#x12a;" horiz-adv-x="238" 
d="M121 801l14 66h223l-14 -66h-223zM15 0l154 725h94l-154 -725h-94z" />
    <glyph glyph-name="imacron" unicode="&#x12b;" horiz-adv-x="211" 
d="M83 636l14 64h195l-14 -64h-195zM3 0l114 538h90l-114 -538h-90z" />
    <glyph glyph-name="Ibreve" unicode="&#x12c;" horiz-adv-x="238" 
d="M306 886h68q-13 -58 -44.5 -85.5t-95.5 -27.5q-51 0 -80.5 22.5t-29.5 64.5q0 12 3 26h69q-2 -14 -2 -19q0 -47 47 -47q27 0 42 15t23 51zM15 0l154 725h94l-154 -725h-94z" />
    <glyph glyph-name="ibreve" unicode="&#x12d;" horiz-adv-x="211" 
d="M248 725h66q-16 -61 -44.5 -91.5t-88.5 -30.5q-100 0 -100 86q0 19 4 36h64q-3 -15 -3 -26q0 -44 41 -44q25 0 38.5 16.5t22.5 53.5zM3 0l114 538h90l-114 -538h-90z" />
    <glyph glyph-name="Iogonek" unicode="&#x12e;" horiz-adv-x="238" 
d="M15 0l154 725h94l-154 -725q-113 -50 -113 -98q0 -16 12 -25.5t32 -9.5t38 5l-12 -54q-29 -6 -59 -6q-39 0 -67.5 18.5t-28.5 50.5q0 37 28.5 68.5t75.5 50.5z" />
    <glyph glyph-name="iogonek" unicode="&#x12f;" horiz-adv-x="211" 
d="M3 0l114 538h90l-114 -538h1q-112 -50 -112 -96q0 -16 13 -26.5t33 -10.5q15 0 39 6l-11 -54q-27 -7 -61 -7q-39 0 -67.5 18.5t-28.5 50.5q0 35 29.5 68t75.5 51h-1zM133 615l23 110h90l-23 -110h-90z" />
    <glyph glyph-name="Idot" unicode="&#x130;" horiz-adv-x="238" 
d="M15 0l154 725h94l-154 -725h-94zM180 781l22 103h93l-22 -103h-93z" />
    <glyph glyph-name="dotlessi" unicode="&#x131;" horiz-adv-x="210" 
d="M3 0l114 538h90l-114 -538h-90z" />
    <glyph glyph-name="Jcircumflex" unicode="&#x134;" horiz-adv-x="439" 
d="M474 725l-112 -527q-24 -113 -73.5 -162t-142.5 -49q-81 0 -122 38.5t-41 108.5q0 33 7 65l2 10h93l-2 -10q-7 -32 -7 -64q0 -79 70 -79q52 0 79 34t43 109l112 526h94zM291 774l128 113h86l92 -113h-89l-53 68l-74 -68h-90z" />
    <glyph glyph-name="jcircumflex" unicode="&#x135;" horiz-adv-x="210" 
d="M-115 -175l13 60h22q40 0 53.5 16.5t23.5 70.5l120 566h90l-121 -570q-18 -88 -47 -115.5t-106 -27.5h-48zM26 606l133 119h79l84 -119h-82l-51 70l-80 -70h-83z" />
    <glyph glyph-name="uni0136" unicode="&#x136;" horiz-adv-x="526" 
d="M130 -223l54 89h-34l17 84h89l-19 -90l-57 -83h-50zM381 0l-114 347l-112 -127l-46 -220h-94l154 725h94l-75 -353l312 353h99l-265 -302l137 -423h-90z" />
    <glyph glyph-name="uni0137" unicode="&#x137;" horiz-adv-x="444" 
d="M91 -223l54 89h-34l17 84h89l-19 -90l-57 -83h-50zM297 0l-80 268l-88 -96l-36 -172h-90l154 725h90l-89 -417l212 231h95l-188 -205l101 -334h-81z" />
    <glyph glyph-name="Lacute" unicode="&#x139;" horiz-adv-x="447" 
d="M15 0l154 725h94l-138 -652h274l-16 -73h-368zM184 774l81 113h115l-116 -113h-80z" />
    <glyph glyph-name="lacute" unicode="&#x13a;" horiz-adv-x="210" 
d="M3 0l154 725h90l-154 -725h-90zM171 774l81 113h115l-116 -113h-80z" />
    <glyph glyph-name="uni013B" unicode="&#x13b;" horiz-adv-x="447" 
d="M113 -223l54 89h-34l17 84h89l-19 -90l-57 -83h-50zM15 0l154 725h94l-138 -652h274l-16 -73h-368z" />
    <glyph glyph-name="uni013C" unicode="&#x13c;" horiz-adv-x="210" 
d="M-47 -223l54 89h-34l17 84h89l-19 -90l-57 -83h-50zM3 0l154 725h90l-154 -725h-90z" />
    <glyph glyph-name="Lcaron" unicode="&#x13d;" horiz-adv-x="447" 
d="M15 0l154 725h94l-138 -652h274l-16 -73h-368zM284 555l62 170h86l-90 -170h-58z" />
    <glyph glyph-name="lcaron" unicode="&#x13e;" horiz-adv-x="277" 
d="M254 555l62 170h86l-90 -170h-58zM3 0l154 725h90l-154 -725h-90z" />
    <glyph glyph-name="Ldot" unicode="&#x13f;" horiz-adv-x="447" 
d="M312 348l22 103h93l-22 -103h-93zM15 0l154 725h94l-138 -652h274l-16 -73h-368z" />
    <glyph glyph-name="ldot" unicode="&#x140;" horiz-adv-x="291" 
d="M221 318l23 109h81l-24 -109h-80zM3 0l154 725h90l-154 -725h-90z" />
    <glyph glyph-name="Lslash" unicode="&#x141;" horiz-adv-x="464" 
d="M-13 207l18 80l100 58l81 380h94l-68 -319l239 138l-16 -81l-240 -137l-53 -253h274l-16 -73h-368l56 265z" />
    <glyph glyph-name="lslash" unicode="&#x142;" horiz-adv-x="210" 
d="M-2 271l16 77l83 46l70 331h90l-58 -274l92 52l-16 -77l-93 -52l-79 -374h-90l67 317z" />
    <glyph glyph-name="Nacute" unicode="&#x143;" horiz-adv-x="582" 
d="M15 0l154 725h114l110 -603l128 603h86l-154 -725h-113l-111 602l-128 -602h-86zM351 774l81 113h115l-116 -113h-80z" />
    <glyph glyph-name="nacute" unicode="&#x144;" horiz-adv-x="469" 
d="M259 605l90 120h109l-127 -120h-72zM3 0l114 538h89l-18 -87q55 99 150 99q56 0 83 -27t27 -86q0 -42 -10 -86l-75 -351h-90l70 331q12 60 12 87q0 33 -13 49t-43 16q-50 0 -87.5 -51t-56.5 -142l-62 -290h-90z" />
    <glyph glyph-name="uni0145" unicode="&#x145;" horiz-adv-x="582" 
d="M134 -223l54 89h-34l17 84h89l-19 -90l-57 -83h-50zM15 0l154 725h114l110 -603l128 603h86l-154 -725h-113l-111 602l-128 -602h-86z" />
    <glyph glyph-name="uni0146" unicode="&#x146;" horiz-adv-x="469" 
d="M89 -223l54 89h-34l17 84h89l-19 -90l-57 -83h-50zM3 0l114 538h89l-18 -87q55 99 150 99q56 0 83 -27t27 -86q0 -42 -10 -86l-75 -351h-90l70 331q12 60 12 87q0 33 -13 49t-43 16q-50 0 -87.5 -51t-56.5 -142l-62 -290h-90z" />
    <glyph glyph-name="Ncaron" unicode="&#x147;" horiz-adv-x="582" 
d="M440 774h-85l-93 113h89l52 -67l80 67h91zM15 0l154 725h114l110 -603l128 603h86l-154 -725h-113l-111 602l-128 -602h-86z" />
    <glyph glyph-name="ncaron" unicode="&#x148;" horiz-adv-x="469" 
d="M273 606l-95 119h82l59 -69l77 69h81l-126 -119h-78zM3 0l114 538h89l-18 -87q55 99 150 99q56 0 83 -27t27 -86q0 -42 -10 -86l-75 -351h-90l70 331q12 60 12 87q0 33 -13 49t-43 16q-50 0 -87.5 -51t-56.5 -142l-62 -290h-90z" />
    <glyph glyph-name="Eng" unicode="&#x14a;" horiz-adv-x="582" 
d="M218 -175l16 74h22q56 0 76 15t30 65l5 21l-139 603l-128 -603h-85l154 725h113l122 -556l118 556h85l-158 -744q-20 -92 -58 -124t-128 -32h-45z" />
    <glyph glyph-name="eng" unicode="&#x14b;" horiz-adv-x="469" 
d="M181 -175h-32l13 60h17q46 0 62 17t26 70l76 359q12 60 12 87q0 33 -13 49t-43 16q-50 0 -87.5 -51t-56.5 -142l-62 -290h-90l114 538h89l-18 -87q55 99 150 99q56 0 83 -27t27 -86q0 -42 -10 -86l-81 -379q-18 -86 -55.5 -116.5t-120.5 -30.5z" />
    <glyph glyph-name="Omacron" unicode="&#x14c;" horiz-adv-x="564" 
d="M277 801l14 66h236l-14 -66h-236zM136 183q0 -64 24 -95.5t79 -31.5q86 0 126.5 66t73.5 222l8 38q22 108 22 160q0 64 -24 95.5t-80 31.5q-81 0 -125.5 -70t-74.5 -217l-8 -38q-21 -103 -21 -161zM546 388l-16 -77q-37 -174 -102.5 -249t-190.5 -75q-102 0 -149.5 48.5
t-47.5 153.5q0 63 18 148l16 77q36 172 104.5 248t189.5 76q102 0 149 -48t47 -153q0 -63 -18 -149z" />
    <glyph glyph-name="omacron" unicode="&#x14d;" horiz-adv-x="462" 
d="M199 636l13 64h231l-13 -64h-231zM111 138q0 -88 76 -88q59 0 88.5 48.5t51.5 152.5l8 36q15 73 15 111q0 44 -17.5 66t-58.5 22q-59 0 -89 -49t-50 -151l-8 -36q-16 -64 -16 -112zM431 304l-17 -79q-27 -124 -80.5 -181t-150.5 -57q-162 0 -162 160q0 42 10 86l16 78
q25 125 79.5 182t153.5 57q161 0 161 -159q0 -41 -10 -87z" />
    <glyph glyph-name="Obreve" unicode="&#x14e;" horiz-adv-x="564" 
d="M136 183q0 -64 24 -95.5t79 -31.5q86 0 126.5 66t73.5 222l8 38q22 108 22 160q0 64 -24 95.5t-80 31.5q-81 0 -125.5 -70t-74.5 -217l-8 -38q-21 -103 -21 -161zM546 388l-16 -77q-37 -174 -102.5 -249t-190.5 -75q-102 0 -149.5 48.5t-47.5 153.5q0 63 18 148l16 77
q36 172 104.5 248t189.5 76q102 0 149 -48t47 -153q0 -63 -18 -149zM475 886h69q-13 -57 -46.5 -85t-99.5 -28q-53 0 -87 24t-34 67v10q0 4 2 12h69q-1 -3 -1 -9v-6q0 -51 57 -51q56 0 71 66z" />
    <glyph glyph-name="obreve" unicode="&#x14f;" horiz-adv-x="462" 
d="M111 138q0 -88 76 -88q59 0 88.5 48.5t51.5 152.5l8 36q15 73 15 111q0 44 -17.5 66t-58.5 22q-59 0 -89 -49t-50 -151l-8 -36q-16 -64 -16 -112zM431 304l-17 -79q-27 -124 -80.5 -181t-150.5 -57q-162 0 -162 160q0 42 10 86l16 78q25 125 79.5 182t153.5 57
q161 0 161 -159q0 -41 -10 -87zM393 725h65q-15 -61 -48.5 -91.5t-99.5 -30.5q-116 0 -116 92q0 13 3 30h64q-2 -16 -2 -21q0 -49 55 -49q63 0 79 70z" />
    <glyph glyph-name="Ohungarumlaut" unicode="&#x150;" horiz-adv-x="564" 
d="M136 183q0 -64 24 -95.5t79 -31.5q86 0 126.5 66t73.5 222l8 38q22 108 22 160q0 64 -24 95.5t-80 31.5q-81 0 -125.5 -70t-74.5 -217l-8 -38q-21 -103 -21 -161zM546 388l-16 -77q-37 -174 -102.5 -249t-190.5 -75q-102 0 -149.5 48.5t-47.5 153.5q0 63 18 148l16 77
q36 172 104.5 248t189.5 76q102 0 149 -48t47 -153q0 -63 -18 -149zM425 774l82 113h109l-111 -113h-80zM252 774l81 113h110l-111 -113h-80z" />
    <glyph glyph-name="ohungarumlaut" unicode="&#x151;" horiz-adv-x="462" 
d="M347 605l90 120h106l-122 -120h-74zM172 605l90 120h106l-121 -120h-75zM111 138q0 -88 76 -88q59 0 88.5 48.5t51.5 152.5l8 36q15 73 15 111q0 44 -17.5 66t-58.5 22q-59 0 -89 -49t-50 -151l-8 -36q-16 -64 -16 -112zM431 304l-17 -79q-27 -124 -80.5 -181t-150.5 -57
q-162 0 -162 160q0 42 10 86l16 78q25 125 79.5 182t153.5 57q161 0 161 -159q0 -41 -10 -87z" />
    <glyph glyph-name="OE" unicode="&#x152;" horiz-adv-x="821" 
d="M372 0l154 725h367l-16 -74h-273l-51 -240h250l-15 -73h-250l-56 -265h274l-16 -73h-368zM136 183q0 -64 24 -95.5t79 -31.5q86 0 126.5 66t73.5 222l8 38q22 108 22 160q0 64 -24 95.5t-80 31.5q-81 0 -125.5 -70t-74.5 -217l-8 -38q-21 -103 -21 -161zM546 388l-16 -77
q-37 -174 -102.5 -249t-190.5 -75q-102 0 -149.5 48.5t-47.5 153.5q0 63 18 148l16 77q36 172 104.5 248t189.5 76q102 0 149 -48t47 -153q0 -63 -18 -149z" />
    <glyph glyph-name="oe" unicode="&#x153;" horiz-adv-x="748" 
d="M689 173l-1 -5q-18 -90 -72.5 -135t-132.5 -45q-82 0 -125.5 41t-43.5 121q0 43 10 84l16 78q27 125 80.5 182t152.5 57q161 0 161 -153q0 -42 -12 -96l-9 -42h-293l-2 -13q-13 -67 -13 -105q0 -46 18 -68.5t59 -22.5q96 0 119 117l1 5h87zM434 325l-1 -5h203l2 7
q10 44 10 79q0 82 -79 82q-57 0 -88 -43.5t-47 -119.5zM111 138q0 -88 76 -88q59 0 88.5 48.5t51.5 152.5l8 36q15 73 15 111q0 44 -17.5 66t-58.5 22q-59 0 -89 -49t-50 -151l-8 -36q-16 -64 -16 -112zM431 304l-17 -79q-27 -124 -80.5 -181t-150.5 -57q-162 0 -162 160
q0 42 10 86l16 78q25 125 79.5 182t153.5 57q161 0 161 -159q0 -41 -10 -87z" />
    <glyph glyph-name="Racute" unicode="&#x154;" horiz-adv-x="537" 
d="M364 0l-52 328q-10 -2 -18 -2h-116l-69 -326h-94l154 725h141q123 0 180.5 -31t57.5 -112v-17q0 -5 -2 -19q-10 -86 -46 -133t-104 -69l59 -344h-91zM191 388h71q90 0 134 34.5t56 115.5q3 18 3 31q0 53 -35 71t-112 18h-59zM315 774l81 113h115l-116 -113h-80z" />
    <glyph glyph-name="racute" unicode="&#x155;" horiz-adv-x="289" 
d="M178 605l90 120h109l-127 -120h-72zM3 0l114 538h88l-22 -107q49 107 146 107h20l-17 -83h-33q-60 0 -93 -38.5t-52 -130.5l-61 -286h-90z" />
    <glyph glyph-name="uni0156" unicode="&#x156;" horiz-adv-x="537" 
d="M143 -223l54 89h-34l17 84h89l-19 -90l-57 -83h-50zM364 0l-52 328q-10 -2 -18 -2h-116l-69 -326h-94l154 725h141q123 0 180.5 -31t57.5 -112v-17q0 -5 -2 -19q-10 -86 -46 -133t-104 -69l59 -344h-91zM191 388h71q90 0 134 34.5t56 115.5q3 18 3 31q0 53 -35 71
t-112 18h-59z" />
    <glyph glyph-name="uni0157" unicode="&#x157;" horiz-adv-x="289" 
d="M-46 -223l54 89h-34l17 84h89l-19 -90l-57 -83h-50zM3 0l114 538h88l-22 -107q49 107 146 107h20l-17 -83h-33q-60 0 -93 -38.5t-52 -130.5l-61 -286h-90z" />
    <glyph glyph-name="Rcaron" unicode="&#x158;" horiz-adv-x="537" 
d="M411 774h-85l-93 113h89l52 -67l80 67h91zM364 0l-52 328q-10 -2 -18 -2h-116l-69 -326h-94l154 725h141q123 0 180.5 -31t57.5 -112v-17q0 -5 -2 -19q-10 -86 -46 -133t-104 -69l59 -344h-91zM191 388h71q90 0 134 34.5t56 115.5q3 18 3 31q0 53 -35 71t-112 18h-59z
" />
    <glyph glyph-name="rcaron" unicode="&#x159;" horiz-adv-x="289" 
d="M207 606l-95 119h82l59 -69l77 69h81l-126 -119h-78zM3 0l114 538h88l-22 -107q49 107 146 107h20l-17 -83h-33q-60 0 -93 -38.5t-52 -130.5l-61 -286h-90z" />
    <glyph glyph-name="Sacute" unicode="&#x15a;" horiz-adv-x="511" 
d="M465 230q0 -105 -65 -174t-187 -69q-93 0 -146 41.5t-53 122.5q0 25 9 70l2 10h92l-2 -10q-7 -40 -7 -58q0 -108 110 -108q73 0 112 42t39 113q0 37 -18.5 62t-59.5 49l-79 45q-49 32 -75.5 65t-26.5 83q0 100 65 162t177 62q83 0 131 -37.5t48 -112.5q0 -25 -6 -55
l-1 -5h-92l1 5q4 17 4 42q0 95 -95 95q-66 -1 -103.5 -38t-37.5 -102q0 -53 52 -84l82 -48q66 -41 98 -77t32 -91zM317 774l81 113h115l-116 -113h-80z" />
    <glyph glyph-name="sacute" unicode="&#x15b;" horiz-adv-x="432" 
d="M212 605l90 120h109l-127 -120h-72zM369 144q-9 -77 -66.5 -117t-138.5 -40q-76 0 -118.5 34.5t-42.5 98.5q0 18 5 45l1 5h84l-1 -5q-4 -17 -4 -37q0 -77 80 -77q45 0 78 20t39 60q1 3 1 9v10q0 48 -56 75l-71 35q-92 43 -92 123v10q0 8 1 11q8 70 62.5 108t132.5 38
q66 0 108 -31.5t42 -89.5q0 -13 -5 -38l-1 -5h-81l1 5q4 15 4 29q0 66 -77 66q-38 0 -67.5 -17.5t-34.5 -56.5q-2 -14 -2 -19q0 -39 48 -65l73 -36q52 -26 75.5 -54t23.5 -74v-10q0 -7 -1 -10z" />
    <glyph glyph-name="Scircumflex" unicode="&#x15c;" horiz-adv-x="511" 
d="M465 230q0 -105 -65 -174t-187 -69q-93 0 -146 41.5t-53 122.5q0 25 9 70l2 10h92l-2 -10q-7 -40 -7 -58q0 -108 110 -108q73 0 112 42t39 113q0 37 -18.5 62t-59.5 49l-79 45q-49 32 -75.5 65t-26.5 83q0 100 65 162t177 62q83 0 131 -37.5t48 -112.5q0 -25 -6 -55
l-1 -5h-92l1 5q4 17 4 42q0 95 -95 95q-66 -1 -103.5 -38t-37.5 -102q0 -53 52 -84l82 -48q66 -41 98 -77t32 -91zM211 774l128 113h86l92 -113h-89l-53 68l-74 -68h-90z" />
    <glyph glyph-name="scircumflex" unicode="&#x15d;" horiz-adv-x="432" 
d="M131 606l133 119h79l84 -119h-82l-51 70l-80 -70h-83zM369 144q-9 -77 -66.5 -117t-138.5 -40q-76 0 -118.5 34.5t-42.5 98.5q0 18 5 45l1 5h84l-1 -5q-4 -17 -4 -37q0 -77 80 -77q45 0 78 20t39 60q1 3 1 9v10q0 48 -56 75l-71 35q-92 43 -92 123v10q0 8 1 11
q8 70 62.5 108t132.5 38q66 0 108 -31.5t42 -89.5q0 -13 -5 -38l-1 -5h-81l1 5q4 15 4 29q0 66 -77 66q-38 0 -67.5 -17.5t-34.5 -56.5q-2 -14 -2 -19q0 -39 48 -65l73 -36q52 -26 75.5 -54t23.5 -74v-10q0 -7 -1 -10z" />
    <glyph glyph-name="Scedilla" unicode="&#x15e;" horiz-adv-x="511" 
d="M465 230q0 -105 -65 -174t-187 -69q-93 0 -146 41.5t-53 122.5q0 25 9 70l2 10h92l-2 -10q-7 -40 -7 -58q0 -108 110 -108q73 0 112 42t39 113q0 37 -18.5 62t-59.5 49l-79 45q-49 32 -75.5 65t-26.5 83q0 100 65 162t177 62q83 0 131 -37.5t48 -112.5q0 -25 -6 -55
l-1 -5h-92l1 5q4 17 4 42q0 95 -95 95q-66 -1 -103.5 -38t-37.5 -102q0 -53 52 -84l82 -48q66 -41 98 -77t32 -91zM291 -105q0 -42 -37.5 -65t-89.5 -23q-45 0 -78 13l21 38q22 -12 55 -12q28 0 47 11t19 33q0 26 -38 26q-26 0 -43 -9l-19 16l65 78h44l-44 -53q15 3 32 3
q26 0 46 -17.5t20 -38.5z" />
    <glyph glyph-name="scedilla" unicode="&#x15f;" horiz-adv-x="432" 
d="M369 144q-9 -77 -66.5 -117t-138.5 -40q-76 0 -118.5 34.5t-42.5 98.5q0 18 5 45l1 5h84l-1 -5q-4 -17 -4 -37q0 -77 80 -77q45 0 78 20t39 60q1 3 1 9v10q0 48 -56 75l-71 35q-92 43 -92 123v10q0 8 1 11q8 70 62.5 108t132.5 38q66 0 108 -31.5t42 -89.5q0 -13 -5 -38
l-1 -5h-81l1 5q4 15 4 29q0 66 -77 66q-38 0 -67.5 -17.5t-34.5 -56.5q-2 -14 -2 -19q0 -39 48 -65l73 -36q52 -26 75.5 -54t23.5 -74v-10q0 -7 -1 -10zM257 -106q0 -39 -38.5 -63t-89.5 -24q-44 0 -77 13l21 38q22 -12 55 -12q28 0 47 11.5t19 32.5q0 26 -38 26
q-27 0 -44 -9l-17 16l65 78h42l-44 -53q16 3 34 3q28 0 46.5 -15.5t18.5 -41.5z" />
    <glyph glyph-name="Scaron" unicode="&#x160;" horiz-adv-x="511" 
d="M415 774h-85l-93 113h89l52 -67l80 67h91zM465 230q0 -105 -65 -174t-187 -69q-93 0 -146 41.5t-53 122.5q0 25 9 70l2 10h92l-2 -10q-7 -40 -7 -58q0 -108 110 -108q73 0 112 42t39 113q0 37 -18.5 62t-59.5 49l-79 45q-49 32 -75.5 65t-26.5 83q0 100 65 162t177 62
q83 0 131 -37.5t48 -112.5q0 -25 -6 -55l-1 -5h-92l1 5q4 17 4 42q0 95 -95 95q-66 -1 -103.5 -38t-37.5 -102q0 -53 52 -84l82 -48q66 -41 98 -77t32 -91z" />
    <glyph glyph-name="scaron" unicode="&#x161;" horiz-adv-x="432" 
d="M240 606l-95 119h82l59 -69l77 69h81l-126 -119h-78zM369 144q-9 -77 -66.5 -117t-138.5 -40q-76 0 -118.5 34.5t-42.5 98.5q0 18 5 45l1 5h84l-1 -5q-4 -17 -4 -37q0 -77 80 -77q45 0 78 20t39 60q1 3 1 9v10q0 48 -56 75l-71 35q-92 43 -92 123v10q0 8 1 11
q8 70 62.5 108t132.5 38q66 0 108 -31.5t42 -89.5q0 -13 -5 -38l-1 -5h-81l1 5q4 15 4 29q0 66 -77 66q-38 0 -67.5 -17.5t-34.5 -56.5q-2 -14 -2 -19q0 -39 48 -65l73 -36q52 -26 75.5 -54t23.5 -74v-10q0 -7 -1 -10z" />
    <glyph glyph-name="uni0162" unicode="&#x162;" horiz-adv-x="455" 
d="M77 -223l54 89h-34l17 84h89l-19 -90l-57 -83h-50zM123 0l139 652h-176l15 73h447l-15 -73h-177l-139 -652h-94z" />
    <glyph glyph-name="uni0163" unicode="&#x163;" horiz-adv-x="269" 
d="M-10 -223l54 89h-34l17 84h89l-19 -90l-57 -83h-50zM199 0h-65q-54 0 -76 15t-22 53q0 22 8 62l73 347h-72l13 61h71l29 136h90l-29 -136h93l-13 -61h-92l-71 -336q-7 -35 -7 -46q0 -20 12 -27t42 -7h29z" />
    <glyph glyph-name="Tcaron" unicode="&#x164;" horiz-adv-x="455" 
d="M371 774h-85l-93 113h89l52 -67l80 67h91zM123 0l139 652h-176l15 73h447l-15 -73h-177l-139 -652h-94z" />
    <glyph glyph-name="tcaron" unicode="&#x165;" horiz-adv-x="337" 
d="M314 555l62 170h86l-90 -170h-58zM199 0h-65q-54 0 -76 15t-22 53q0 22 8 62l73 347h-72l13 61h71l29 136h90l-29 -136h93l-13 -61h-92l-71 -336q-7 -35 -7 -46q0 -20 12 -27t42 -7h29z" />
    <glyph glyph-name="Tbar" unicode="&#x166;" horiz-adv-x="455" 
d="M18 330l16 72h175l53 250h-176l15 73h447l-15 -73h-177l-53 -250h176l-16 -72h-176l-70 -330h-94l70 330h-175z" />
    <glyph glyph-name="tbar" unicode="&#x167;" horiz-adv-x="269" 
d="M9 303l14 63h70l24 111h-72l13 61h71l29 136h90l-29 -136h93l-13 -61h-92l-24 -111h93l-14 -63h-92l-34 -162q-7 -35 -7 -46q0 -20 12 -27t42 -7h29l-13 -61h-65q-54 0 -76 15t-22 53q0 22 8 62l36 173h-71z" />
    <glyph glyph-name="Utilde" unicode="&#x168;" horiz-adv-x="555" 
d="M590 725l-98 -462q-18 -82 -36.5 -131t-49.5 -83.5t-74.5 -48t-110.5 -13.5q-97 0 -137.5 31.5t-40.5 108.5q0 53 18 136l98 462h94l-101 -474q-14 -67 -14 -106q0 -47 21 -68t72 -21q73 0 107 43.5t57 151.5l101 474h94zM294 776h-65q34 105 117 105q26 0 56.5 -25.5
t45.5 -25.5q28 0 48 51h65q-38 -105 -120 -105q-28 0 -56.5 24t-41.5 24q-33 0 -49 -48z" />
    <glyph glyph-name="utilde" unicode="&#x169;" horiz-adv-x="466" 
d="M261 0l18 85q-53 -98 -151 -98q-54 0 -79.5 25.5t-25.5 81.5q0 42 11 90l75 354h89l-70 -333q-13 -60 -13 -91t12 -46t40 -15q50 0 87 50.5t58 141.5l62 293h89l-114 -538h-88zM221 621h-65q34 105 117 105q26 0 56.5 -25.5t45.5 -25.5q29 0 48 51h65q-38 -105 -120 -105
q-28 0 -56.5 24t-41.5 24q-33 0 -49 -48z" />
    <glyph glyph-name="Umacron" unicode="&#x16a;" horiz-adv-x="555" 
d="M270 801l14 66h236l-14 -66h-236zM590 725l-98 -462q-18 -82 -36.5 -131t-49.5 -83.5t-74.5 -48t-110.5 -13.5q-97 0 -137.5 31.5t-40.5 108.5q0 53 18 136l98 462h94l-101 -474q-14 -67 -14 -106q0 -47 21 -68t72 -21q73 0 107 43.5t57 151.5l101 474h94z" />
    <glyph glyph-name="umacron" unicode="&#x16b;" horiz-adv-x="466" 
d="M261 0l18 85q-53 -98 -151 -98q-54 0 -79.5 25.5t-25.5 81.5q0 42 11 90l75 354h89l-70 -333q-13 -60 -13 -91t12 -46t40 -15q50 0 87 50.5t58 141.5l62 293h89l-114 -538h-88zM190 636l13 64h231l-13 -64h-231z" />
    <glyph glyph-name="Ubreve" unicode="&#x16c;" horiz-adv-x="555" 
d="M590 725l-98 -462q-18 -82 -36.5 -131t-49.5 -83.5t-74.5 -48t-110.5 -13.5q-97 0 -137.5 31.5t-40.5 108.5q0 53 18 136l98 462h94l-101 -474q-14 -67 -14 -106q0 -47 21 -68t72 -21q73 0 107 43.5t57 151.5l101 474h94zM471 886h69q-13 -57 -46.5 -85t-99.5 -28
q-53 0 -87 24t-34 67v10q0 4 2 12h69q-1 -3 -1 -9v-6q0 -51 57 -51q56 0 71 66z" />
    <glyph glyph-name="ubreve" unicode="&#x16d;" horiz-adv-x="466" 
d="M261 0l18 85q-53 -98 -151 -98q-54 0 -79.5 25.5t-25.5 81.5q0 42 11 90l75 354h89l-70 -333q-13 -60 -13 -91t12 -46t40 -15q50 0 87 50.5t58 141.5l62 293h89l-114 -538h-88zM388 725h65q-15 -61 -48.5 -91.5t-99.5 -30.5q-116 0 -116 92q0 13 3 30h64q-2 -16 -2 -21
q0 -49 55 -49q63 0 79 70z" />
    <glyph glyph-name="Uring" unicode="&#x16e;" horiz-adv-x="555" 
d="M590 725l-98 -462q-18 -82 -36.5 -131t-49.5 -83.5t-74.5 -48t-110.5 -13.5q-97 0 -137.5 31.5t-40.5 108.5q0 53 18 136l98 462h94l-101 -474q-14 -67 -14 -106q0 -47 21 -68t72 -21q73 0 107 43.5t57 151.5l101 474h94zM476 850q0 -35 -25 -59t-62 -24q-38 0 -63.5 24
t-25.5 59q0 36 26 60t63 24q36 0 61.5 -24t25.5 -60zM339 850q0 -21 14.5 -34.5t35.5 -13.5q20 0 34.5 13.5t14.5 34.5q0 22 -14.5 36t-34.5 14q-21 0 -35.5 -13.5t-14.5 -36.5z" />
    <glyph glyph-name="uring" unicode="&#x16f;" horiz-adv-x="466" 
d="M394 678q0 -38 -25.5 -61.5t-64.5 -23.5t-64.5 23.5t-25.5 61.5q0 37 26 61.5t64 24.5t64 -24.5t26 -61.5zM255 678q0 -21 14 -34.5t35 -13.5t35 13.5t14 34.5t-14 35t-35 14t-35 -14t-14 -35zM261 0l18 85q-53 -98 -151 -98q-54 0 -79.5 25.5t-25.5 81.5q0 42 11 90
l75 354h89l-70 -333q-13 -60 -13 -91t12 -46t40 -15q50 0 87 50.5t58 141.5l62 293h89l-114 -538h-88z" />
    <glyph glyph-name="Uhungarumlaut" unicode="&#x170;" horiz-adv-x="555" 
d="M590 725l-98 -462q-18 -82 -36.5 -131t-49.5 -83.5t-74.5 -48t-110.5 -13.5q-97 0 -137.5 31.5t-40.5 108.5q0 53 18 136l98 462h94l-101 -474q-14 -67 -14 -106q0 -47 21 -68t72 -21q73 0 107 43.5t57 151.5l101 474h94zM405 774l82 113h109l-111 -113h-80zM232 774
l81 113h110l-111 -113h-80z" />
    <glyph glyph-name="uhungarumlaut" unicode="&#x171;" horiz-adv-x="466" 
d="M261 0l18 85q-53 -98 -151 -98q-54 0 -79.5 25.5t-25.5 81.5q0 42 11 90l75 354h89l-70 -333q-13 -60 -13 -91t12 -46t40 -15q50 0 87 50.5t58 141.5l62 293h89l-114 -538h-88zM325 605l90 120h106l-122 -120h-74zM150 605l90 120h106l-121 -120h-75z" />
    <glyph glyph-name="Uogonek" unicode="&#x172;" horiz-adv-x="555" 
d="M272 -128l-11 -54q-29 -6 -59 -6q-39 0 -67.5 18.5t-28.5 50.5q0 37 28.5 68.5t75.5 50.5h90q-109 -48 -109 -98q0 -16 12 -25.5t32 -9.5q19 0 37 5zM590 725l-98 -462q-18 -82 -36.5 -131t-49.5 -83.5t-74.5 -48t-110.5 -13.5q-97 0 -137.5 31.5t-40.5 108.5
q0 53 18 136l98 462h94l-101 -474q-14 -67 -14 -106q0 -47 21 -68t72 -21q73 0 107 43.5t57 151.5l101 474h94z" />
    <glyph glyph-name="uogonek" unicode="&#x173;" horiz-adv-x="466" 
d="M261 0l18 85q-53 -98 -151 -98q-54 0 -79.5 25.5t-25.5 81.5q0 42 11 90l75 354h89l-70 -333q-13 -60 -13 -91t12 -46t40 -15q50 0 87 50.5t58 141.5l62 293h89l-114 -538q-110 -50 -110 -96q0 -16 13 -26.5t33 -10.5q15 0 39 6l-11 -54q-27 -7 -61 -7q-39 0 -67.5 18.5
t-28.5 50.5q0 35 30.5 67.5t76.5 51.5h-2z" />
    <glyph glyph-name="Wcircumflex" unicode="&#x174;" horiz-adv-x="725" 
d="M311 774l128 113h86l92 -113h-89l-53 68l-74 -68h-90zM86 0l24 725h86l-25 -618l245 618h87l-14 -618l233 618h87l-277 -725h-110l14 613l-240 -613h-110z" />
    <glyph glyph-name="wcircumflex" unicode="&#x175;" horiz-adv-x="574" 
d="M209 606l133 119h79l84 -119h-82l-51 70l-80 -70h-83zM54 0l23 538h78l-25 -432l173 432h83l-9 -431l156 431h78l-201 -538h-96l11 447l-175 -447h-96z" />
    <glyph glyph-name="Ycircumflex" unicode="&#x176;" horiz-adv-x="493" 
d="M147 0l61 288l-103 437h87l75 -352l220 352h99l-285 -438l-61 -287h-93zM201 774l128 113h86l92 -113h-89l-53 68l-74 -68h-90z" />
    <glyph glyph-name="ycircumflex" unicode="&#x177;" horiz-adv-x="397" 
d="M-45 -175l13 61h28q39 0 54.5 13t39.5 64l18 38l-44 537h84l22 -443l190 443h87l-252 -545q-51 -110 -84.5 -139t-116.5 -29h-39zM122 606l133 119h79l84 -119h-82l-51 70l-80 -70h-83z" />
    <glyph glyph-name="Ydieresis" unicode="&#x178;" horiz-adv-x="493" 
d="M147 0l61 288l-103 437h87l75 -352l220 352h99l-285 -438l-61 -287h-93zM218 778l22 104h82l-22 -104h-82zM413 778l23 104h81l-22 -104h-82z" />
    <glyph glyph-name="Zacute" unicode="&#x179;" horiz-adv-x="482" 
d="M-31 0l14 71l448 578h-302l16 77h406l-15 -72l-448 -578h334l-16 -76h-437zM284 774l81 113h115l-116 -113h-80z" />
    <glyph glyph-name="zacute" unicode="&#x17a;" horiz-adv-x="378" 
d="M217 605l90 120h109l-127 -120h-72zM-40 0l13 60l323 416h-216l13 62h314l-12 -60l-323 -416h244l-13 -62h-343z" />
    <glyph glyph-name="Zdotaccent" unicode="&#x17b;" horiz-adv-x="482" 
d="M298 781l22 103h93l-22 -103h-93zM-31 0l14 71l448 578h-302l16 77h406l-15 -72l-448 -578h334l-16 -76h-437z" />
    <glyph glyph-name="zdotaccent" unicode="&#x17c;" horiz-adv-x="378" 
d="M-40 0l13 60l323 416h-216l13 62h314l-12 -60l-323 -416h244l-13 -62h-343zM230 616l23 109h81l-24 -109h-80z" />
    <glyph glyph-name="Zcaron" unicode="&#x17d;" horiz-adv-x="482" 
d="M392 774h-85l-93 113h89l52 -67l80 67h91zM-31 0l14 71l448 578h-302l16 77h406l-15 -72l-448 -578h334l-16 -76h-437z" />
    <glyph glyph-name="zcaron" unicode="&#x17e;" horiz-adv-x="378" 
d="M224 606l-95 119h82l59 -69l77 69h81l-126 -119h-78zM-40 0l13 60l323 416h-216l13 62h314l-12 -60l-323 -416h244l-13 -62h-343z" />
    <glyph glyph-name="uni018F" unicode="&#x18f;" horiz-adv-x="559" 
d="M548 442l-28 -153q-28 -150 -96.5 -227t-194.5 -75q-93 1 -141 46.5t-48 123.5q0 48 11 96l25 119h364l10 48q15 73 15 137q0 112 -104 112q-128 0 -161 -165l-1 -5h-96l1 5q45 234 257 234q98 0 148 -48t50 -136q0 -56 -11 -112zM234 56q142 0 187 220l6 29h-269
l-14 -67q-9 -40 -9 -74q0 -108 99 -108z" />
    <glyph glyph-name="uni0218" unicode="&#x218;" horiz-adv-x="511" 
d="M115 -223l54 89h-34l17 84h89l-19 -90l-57 -83h-50zM465 230q0 -105 -65 -174t-187 -69q-93 0 -146 41.5t-53 122.5q0 25 9 70l2 10h92l-2 -10q-7 -40 -7 -58q0 -108 110 -108q73 0 112 42t39 113q0 37 -18.5 62t-59.5 49l-79 45q-49 32 -75.5 65t-26.5 83q0 100 65 162
t177 62q83 0 131 -37.5t48 -112.5q0 -25 -6 -55l-1 -5h-92l1 5q4 17 4 42q0 95 -95 95q-66 -1 -103.5 -38t-37.5 -102q0 -53 52 -84l82 -48q66 -41 98 -77t32 -91z" />
    <glyph glyph-name="uni0219" unicode="&#x219;" horiz-adv-x="432" 
d="M62 -223l54 89h-34l17 84h89l-19 -90l-57 -83h-50zM369 144q-9 -77 -66.5 -117t-138.5 -40q-76 0 -118.5 34.5t-42.5 98.5q0 18 5 45l1 5h84l-1 -5q-4 -17 -4 -37q0 -77 80 -77q45 0 78 20t39 60q1 3 1 9v10q0 48 -56 75l-71 35q-92 43 -92 123v10q0 8 1 11
q8 70 62.5 108t132.5 38q66 0 108 -31.5t42 -89.5q0 -13 -5 -38l-1 -5h-81l1 5q4 15 4 29q0 66 -77 66q-38 0 -67.5 -17.5t-34.5 -56.5q-2 -14 -2 -19q0 -39 48 -65l73 -36q52 -26 75.5 -54t23.5 -74v-10q0 -7 -1 -10z" />
    <glyph glyph-name="uni021A" unicode="&#x21a;" horiz-adv-x="455" 
d="M77 -223l54 89h-34l17 84h89l-19 -90l-57 -83h-50zM123 0l139 652h-176l15 73h447l-15 -73h-177l-139 -652h-94z" />
    <glyph glyph-name="uni021B" unicode="&#x21b;" horiz-adv-x="269" 
d="M-10 -223l54 89h-34l17 84h89l-19 -90l-57 -83h-50zM199 0h-65q-54 0 -76 15t-22 53q0 22 8 62l73 347h-72l13 61h71l29 136h90l-29 -136h93l-13 -61h-92l-71 -336q-7 -35 -7 -46q0 -20 12 -27t42 -7h29z" />
    <glyph glyph-name="uni0232" unicode="&#x232;" horiz-adv-x="493" 
d="M147 0l61 288l-103 437h87l75 -352l220 352h99l-285 -438l-61 -287h-93zM231 801l14 66h236l-14 -66h-236z" />
    <glyph glyph-name="uni0233" unicode="&#x233;" horiz-adv-x="397" 
d="M-45 -175l13 61h28q39 0 54.5 13t39.5 64l18 38l-44 537h84l22 -443l190 443h87l-252 -545q-51 -110 -84.5 -139t-116.5 -29h-39zM174 636l13 64h231l-13 -64h-231z" />
    <glyph glyph-name="uni0237" unicode="&#x237;" horiz-adv-x="210" 
d="M-115 -175l13 60h22q40 0 53.5 16.5t23.5 70.5l120 566h90l-121 -570q-18 -88 -47 -115.5t-106 -27.5h-48z" />
    <glyph glyph-name="uni0259" unicode="&#x259;" horiz-adv-x="458" 
d="M66 364l1 5q35 180 202 180q81 0 124.5 -41.5t43.5 -122.5q0 -37 -9 -82l-17 -79q-27 -124 -80 -180.5t-150 -56.5q-160 0 -160 152q0 37 11 95l9 39h290l4 17q14 67 14 106q0 46 -18 68t-60 22q-96 0 -119 -117l-1 -5h-85zM185 49q57 0 87.5 43.5t46.5 119.5l1 6h-206
l-2 -7q-9 -42 -9 -75q0 -44 19 -65.5t63 -21.5z" />
    <glyph glyph-name="circumflex" unicode="&#x2c6;" horiz-adv-x="346" 
d="M97 606l133 119h79l84 -119h-82l-51 70l-80 -70h-83z" />
    <glyph glyph-name="caron" unicode="&#x2c7;" horiz-adv-x="349" 
d="M217 606l-95 119h82l59 -69l77 69h81l-126 -119h-78z" />
    <glyph glyph-name="breve" unicode="&#x2d8;" horiz-adv-x="311" 
d="M318 725h65q-15 -61 -48.5 -91.5t-99.5 -30.5q-116 0 -116 92q0 13 3 30h64q-2 -16 -2 -21q0 -49 55 -49q63 0 79 70z" />
    <glyph glyph-name="dotaccent" unicode="&#x2d9;" horiz-adv-x="131" 
d="M99 616l23 109h81l-24 -109h-80z" />
    <glyph glyph-name="ring" unicode="&#x2da;" horiz-adv-x="234" 
d="M294 678q0 -38 -25.5 -61.5t-64.5 -23.5t-64.5 23.5t-25.5 61.5q0 37 26 61.5t64 24.5t64 -24.5t26 -61.5zM155 678q0 -21 14 -34.5t35 -13.5t35 13.5t14 34.5t-14 35t-35 14t-35 -14t-14 -35z" />
    <glyph glyph-name="ogonek" unicode="&#x2db;" horiz-adv-x="222" 
d="M113 -127l-12 -54q-27 -7 -61 -7q-39 0 -67.5 18.5t-28.5 50.5q0 35 29.5 68t75.5 51h87q-109 -49 -109 -96q0 -16 13 -26.5t33 -10.5q16 0 40 6z" />
    <glyph glyph-name="tilde" unicode="&#x2dc;" horiz-adv-x="360" 
d="M165 621h-65q34 105 117 105q26 0 56.5 -25.5t45.5 -25.5q29 0 48 51h65q-38 -105 -120 -105q-28 0 -56.5 24t-41.5 24q-32 0 -49 -48z" />
    <glyph glyph-name="hungarumlaut" unicode="&#x2dd;" horiz-adv-x="396" 
d="M272 605l90 120h106l-122 -120h-74zM97 605l90 120h106l-121 -120h-75z" />
    <glyph glyph-name="uni032C" unicode="&#x32c;" horiz-adv-x="399" 
d="M87 -140l-119 144h76l84 -84l123 84h74l-181 -144h-57z" />
    <glyph glyph-name="uni0394" unicode="&#x394;" horiz-adv-x="604" 
d="M71 75h406l-203 490zM-46 0l320 743l320 -743h-640z" />
    <glyph glyph-name="uni0394" unicode="&#x2206;" horiz-adv-x="604" 
d="M71 75h406l-203 490zM-46 0l320 743l320 -743h-640z" />
    <glyph glyph-name="uni03A9" unicode="&#x3a9;" horiz-adv-x="784" 
d="M130 0v79h169v72q-78 27 -133 98.5t-55 178.5q0 145 85 227.5t222 82.5t221.5 -82.5t84.5 -227.5q0 -108 -55 -179t-134 -98v-72h170v-79h-245v198q81 19 129 79.5t48 149.5q0 113 -59.5 176.5t-159.5 63.5t-160.5 -64t-60.5 -176q0 -87 49 -149t129 -80v-198h-245z" />
    <glyph glyph-name="uni03A9" unicode="&#x2126;" horiz-adv-x="784" 
d="M130 0v79h169v72q-78 27 -133 98.5t-55 178.5q0 145 85 227.5t222 82.5t221.5 -82.5t84.5 -227.5q0 -108 -55 -179t-134 -98v-72h170v-79h-245v198q81 19 129 79.5t48 149.5q0 113 -59.5 176.5t-159.5 63.5t-160.5 -64t-60.5 -176q0 -87 49 -149t129 -80v-198h-245z" />
    <glyph glyph-name="pi" unicode="&#x3c0;" horiz-adv-x="533" 
d="M37 0l98 465h-72l16 74h470l-16 -74h-71l-67 -316q-7 -40 -7 -50q0 -18 10.5 -24t39.5 -6h18l-14 -69h-31q-57 0 -79.5 13t-22.5 53q0 27 9 69l69 330h-176l-98 -465h-76z" />
    <glyph glyph-name="Wgrave" unicode="&#x1e80;" horiz-adv-x="725" 
d="M421 774l-98 113h112l64 -113h-78zM86 0l24 725h86l-25 -618l245 618h87l-14 -618l233 618h87l-277 -725h-110l14 613l-240 -613h-110z" />
    <glyph glyph-name="wgrave" unicode="&#x1e81;" horiz-adv-x="574" 
d="M54 0l23 538h78l-25 -432l173 432h83l-9 -431l156 431h78l-201 -538h-96l11 447l-175 -447h-96zM325 606l-77 119h107l40 -119h-70z" />
    <glyph glyph-name="Wacute" unicode="&#x1e82;" horiz-adv-x="725" 
d="M86 0l24 725h86l-25 -618l245 618h87l-14 -618l233 618h87l-277 -725h-110l14 613l-240 -613h-110zM433 774l81 113h115l-116 -113h-80z" />
    <glyph glyph-name="wacute" unicode="&#x1e83;" horiz-adv-x="574" 
d="M326 605l90 120h109l-127 -120h-72zM54 0l23 538h78l-25 -432l173 432h83l-9 -431l156 431h78l-201 -538h-96l11 447l-175 -447h-96z" />
    <glyph glyph-name="Wdieresis" unicode="&#x1e84;" horiz-adv-x="725" 
d="M331 778l22 104h82l-22 -104h-82zM526 778l23 104h81l-22 -104h-82zM86 0l24 725h86l-25 -618l245 618h87l-14 -618l233 618h87l-277 -725h-110l14 613l-240 -613h-110z" />
    <glyph glyph-name="wdieresis" unicode="&#x1e85;" horiz-adv-x="574" 
d="M225 616l23 108h80l-23 -108h-80zM422 616l23 108h80l-22 -108h-81zM54 0l23 538h78l-25 -432l173 432h83l-9 -431l156 431h78l-201 -538h-96l11 447l-175 -447h-96z" />
    <glyph glyph-name="uni1ECA" unicode="&#x1eca;" horiz-adv-x="238" 
d="M15 0l154 725h94l-154 -725h-94zM-13 -175l20 99h80l-20 -99h-80z" />
    <glyph glyph-name="uni1ECB" unicode="&#x1ecb;" horiz-adv-x="211" 
d="M3 0l114 538h90l-114 -538h-90zM133 615l23 110h90l-23 -110h-90zM-29 -175l20 99h80l-20 -99h-80z" />
    <glyph glyph-name="uni1ECC" unicode="&#x1ecc;" horiz-adv-x="564" 
d="M142 -175l20 99h80l-20 -99h-80zM136 183q0 -64 24 -95.5t79 -31.5q86 0 126.5 66t73.5 222l8 38q22 108 22 160q0 64 -24 95.5t-80 31.5q-81 0 -125.5 -70t-74.5 -217l-8 -38q-21 -103 -21 -161zM546 388l-16 -77q-37 -174 -102.5 -249t-190.5 -75q-102 0 -149.5 48.5
t-47.5 153.5q0 63 18 148l16 77q36 172 104.5 248t189.5 76q102 0 149 -48t47 -153q0 -63 -18 -149z" />
    <glyph glyph-name="uni1ECD" unicode="&#x1ecd;" horiz-adv-x="462" 
d="M98 -175l20 99h80l-20 -99h-80zM111 138q0 -88 76 -88q59 0 88.5 48.5t51.5 152.5l8 36q15 73 15 111q0 44 -17.5 66t-58.5 22q-59 0 -89 -49t-50 -151l-8 -36q-16 -64 -16 -112zM431 304l-17 -79q-27 -124 -80.5 -181t-150.5 -57q-162 0 -162 160q0 42 10 86l16 78
q25 125 79.5 182t153.5 57q161 0 161 -159q0 -41 -10 -87z" />
    <glyph glyph-name="uni1EE4" unicode="&#x1ee4;" horiz-adv-x="555" 
d="M149 -175l20 99h80l-20 -99h-80zM590 725l-98 -462q-18 -82 -36.5 -131t-49.5 -83.5t-74.5 -48t-110.5 -13.5q-97 0 -137.5 31.5t-40.5 108.5q0 53 18 136l98 462h94l-101 -474q-14 -67 -14 -106q0 -47 21 -68t72 -21q73 0 107 43.5t57 151.5l101 474h94z" />
    <glyph glyph-name="uni1EE5" unicode="&#x1ee5;" horiz-adv-x="466" 
d="M109 -175l20 99h80l-20 -99h-80zM261 0l18 85q-53 -98 -151 -98q-54 0 -79.5 25.5t-25.5 81.5q0 42 11 90l75 354h89l-70 -333q-13 -60 -13 -91t12 -46t40 -15q50 0 87 50.5t58 141.5l62 293h89l-114 -538h-88z" />
    <glyph glyph-name="Ygrave" unicode="&#x1ef2;" horiz-adv-x="493" 
d="M147 0l61 288l-103 437h87l75 -352l220 352h99l-285 -438l-61 -287h-93zM315 774l-98 113h112l64 -113h-78z" />
    <glyph glyph-name="ygrave" unicode="&#x1ef3;" horiz-adv-x="397" 
d="M-45 -175l13 61h28q39 0 54.5 13t39.5 64l18 38l-44 537h84l22 -443l190 443h87l-252 -545q-51 -110 -84.5 -139t-116.5 -29h-39zM255 606l-77 119h107l40 -119h-70z" />
    <glyph glyph-name="endash" unicode="&#x2013;" horiz-adv-x="496" 
d="M24 234l17 81h436l-16 -81h-437z" />
    <glyph glyph-name="emdash" unicode="&#x2014;" horiz-adv-x="725" 
d="M24 234l17 81h671l-16 -81h-672z" />
    <glyph glyph-name="quoteleft" unicode="&#x2018;" horiz-adv-x="228" 
d="M279 725l-75 -130h44l-23 -108h-108l24 114l84 124h54z" />
    <glyph glyph-name="quoteright" unicode="&#x2019;" horiz-adv-x="228" 
d="M113 487l75 130h-44l23 108h108l-24 -114l-84 -124h-54z" />
    <glyph glyph-name="quotesinglbase" unicode="&#x201a;" horiz-adv-x="228" 
d="M-28 -130l75 130h-44l23 108h108l-24 -114l-84 -124h-54z" />
    <glyph glyph-name="quotedblleft" unicode="&#x201c;" horiz-adv-x="395" 
d="M446 725l-75 -130h44l-23 -108h-108l24 114l84 124h54zM279 725l-75 -130h44l-23 -108h-108l24 114l84 124h54z" />
    <glyph glyph-name="quotedblright" unicode="&#x201d;" horiz-adv-x="395" 
d="M280 487l75 130h-44l23 108h108l-24 -114l-84 -124h-54zM113 487l75 130h-44l23 108h108l-24 -114l-84 -124h-54z" />
    <glyph glyph-name="quotedblbase" unicode="&#x201e;" horiz-adv-x="395" 
d="M139 -130l75 130h-44l23 108h108l-24 -114l-84 -124h-54zM-28 -130l75 130h-44l23 108h108l-24 -114l-84 -124h-54z" />
    <glyph glyph-name="dagger" unicode="&#x2020;" horiz-adv-x="481" 
d="M136 0l88 416h-173l16 74h172l50 235h83l-50 -235h173l-16 -74h-171l-88 -416h-84z" />
    <glyph glyph-name="daggerdbl" unicode="&#x2021;" horiz-adv-x="483" 
d="M138 0l43 200h-174l15 73h173l36 168h-173l15 73h173l45 211h83l-45 -211h173l-15 -73h-172l-36 -168h172l-15 -73h-171l-43 -200h-84z" />
    <glyph glyph-name="bullet" unicode="&#x2022;" horiz-adv-x="462" 
d="M413 276q0 -78 -52.5 -130.5t-131.5 -52.5q-73 0 -124.5 53t-51.5 130q0 73 52 125t124 52q78 0 131 -51.5t53 -125.5z" />
    <glyph glyph-name="ellipsis" unicode="&#x2026;" horiz-adv-x="685" 
d="M231 0l23 108h108l-23 -108h-108zM459 0l23 108h108l-23 -108h-108zM3 0l23 108h108l-23 -108h-108z" />
    <glyph glyph-name="perthousand" unicode="&#x2030;" horiz-adv-x="1092" 
d="M844 89q0 -55 45 -55q39 0 56.5 34.5t35.5 120.5l6 29q14 72 14 100q0 54 -43 54q-39 0 -58 -35.5t-35 -118.5l-6 -29q-15 -68 -15 -100zM1052 229l-11 -52q-20 -99 -54.5 -142t-101.5 -43q-54 0 -78 24.5t-24 76.5q0 32 11 84l11 52q22 102 53 144t100 42
q105 0 105 -101q0 -33 -11 -85zM126 406q0 -55 45 -55q39 0 56.5 34.5t35.5 120.5l6 29q14 72 14 100q0 54 -43 54q-39 0 -58 -35.5t-35 -118.5l-6 -29q-15 -68 -15 -100zM334 546l-11 -52q-20 -99 -54.5 -142t-101.5 -43q-54 0 -78 24.5t-24 76.5q0 32 11 84l11 52
q22 102 53 144t100 42q105 0 105 -101q0 -33 -11 -85zM194 0l390 725h48l-390 -725h-48zM537 89q0 -55 45 -55q39 0 56.5 34.5t35.5 120.5l6 29q14 72 14 100q0 54 -43 54q-39 0 -58 -35.5t-35 -118.5l-6 -29q-15 -68 -15 -100zM745 229l-11 -52q-20 -99 -54.5 -142
t-101.5 -43q-54 0 -78 24.5t-24 76.5q0 32 11 84l11 52q22 102 53 144t100 42q105 0 105 -101q0 -33 -11 -85z" />
    <glyph glyph-name="guilsinglleft" unicode="&#x2039;" horiz-adv-x="173" 
d="M113 80l-102 146l23 107l162 141l-23 -105l-102 -94l64 -90z" />
    <glyph glyph-name="guilsinglright" unicode="&#x203a;" horiz-adv-x="173" 
d="M64 473l102 -146l-23 -107l-162 -141l23 105l102 94l-64 90z" />
    <glyph glyph-name="fraction" unicode="&#x2044;" horiz-adv-x="171" 
d="M-113 0l390 725h48l-390 -725h-48z" />
    <glyph glyph-name="uni2070" unicode="&#x2070;" horiz-adv-x="307" 
d="M152 527q0 -55 45 -55q39 0 56.5 34.5t35.5 120.5l6 29q14 72 14 100q0 54 -43 54q-39 0 -58 -35.5t-35 -118.5l-6 -29q-15 -68 -15 -100zM360 667l-11 -52q-20 -99 -54.5 -142t-101.5 -43q-54 0 -78 24.5t-24 76.5q0 32 11 84l11 52q22 102 53 144t100 42
q105 0 105 -101q0 -33 -11 -85z" />
    <glyph glyph-name="uni2074" unicode="&#x2074;" horiz-adv-x="292" 
d="M203 438l22 104h-157l10 46l208 258h61l-54 -255h47l-11 -49h-47l-22 -104h-57zM132 591h103l36 171z" />
    <glyph glyph-name="uni2075" unicode="&#x2075;" horiz-adv-x="279" 
d="M322 586l-6 -28q-26 -128 -140 -128q-46 0 -73 21.5t-27 63.5q0 13 3 30l1 5h60l-1 -5q-3 -15 -3 -28q0 -44 43 -44q57 0 74 87l5 23q4 15 4 36q0 51 -41 51q-39 0 -64 -48l-55 2l67 222h199l-11 -49h-150l-39 -127q28 43 80 43q79 0 79 -83q0 -17 -5 -44z" />
    <glyph glyph-name="uni2076" unicode="&#x2076;" horiz-adv-x="292" 
d="M335 580l-5 -22q-14 -66 -47 -97t-90 -31q-102 0 -102 100q0 39 8 70l12 56q21 104 58 151t107 47q89 0 89 -78q0 -14 -3 -30l-1 -5h-58l1 5q3 15 3 25q0 40 -40 40q-35 0 -54.5 -32t-34.5 -105l-3 -15q28 49 82 49q83 0 83 -84q0 -17 -5 -44zM150 526q0 -53 42 -53
q60 0 76 87l3 15q4 15 4 36q0 52 -44 52q-27 0 -46.5 -23t-27.5 -65l-3 -15q-4 -15 -4 -34z" />
    <glyph glyph-name="uni2077" unicode="&#x2077;" horiz-adv-x="230" 
d="M143 438h-65q59 230 211 359h-173l11 49h226l-11 -49q-81 -70 -126.5 -154t-72.5 -205z" />
    <glyph glyph-name="uni2078" unicode="&#x2078;" horiz-adv-x="301" 
d="M338 581q0 -66 -37 -108.5t-109 -42.5q-113 0 -113 86q0 56 25.5 92t66.5 49q-16 6 -28.5 23t-12.5 43q0 55 34 92.5t97 37.5q47 0 77.5 -18t30.5 -57q0 -52 -24.5 -83t-55.5 -38q49 -20 49 -76zM140 523q0 -50 52 -50q64 0 79 76l1 5q3 15 3 25q0 53 -50 53
q-67 0 -81 -75l-1 -5q-3 -15 -3 -29zM192 717q0 -43 42 -43q53 0 67 67l1 5q2 14 2 23q0 42 -42 42q-53 0 -66 -64l-1 -5q-3 -15 -3 -25z" />
    <glyph glyph-name="uni2079" unicode="&#x2079;" horiz-adv-x="298" 
d="M353 685l-12 -56q-23 -106 -57.5 -152.5t-105.5 -46.5q-89 0 -89 79q0 15 3 30l1 5h57l-1 -5q-2 -10 -2 -26q0 -40 38 -40q35 0 55 33t35 105l3 16q-28 -49 -82 -49q-84 0 -84 85q0 14 5 39l5 25q25 126 141 126q51 0 75 -23t24 -74q0 -29 -9 -71zM178 674q0 -51 44 -51
q57 0 74 86l3 15q4 15 4 37q0 50 -42 50q-60 0 -76 -85l-3 -15q-4 -17 -4 -37z" />
    <glyph glyph-name="uni207A" unicode="&#x207a;" horiz-adv-x="346" 
d="M213 438v123h-120v54h120v123h56v-123h120v-54h-120v-123h-56z" />
    <glyph glyph-name="uni207B" unicode="&#x207b;" horiz-adv-x="338" 
d="M96 559v54h285v-54h-285z" />
    <glyph glyph-name="uni207C" unicode="&#x207c;" horiz-adv-x="342" 
d="M112 501v54h250v-54h-250zM112 620v54h250v-54h-250z" />
    <glyph glyph-name="uni207D" unicode="&#x207d;" horiz-adv-x="141" 
d="M156 336h-51q-30 70 -30 160q0 97 41.5 193.5t96.5 161.5h50q-55 -67 -93 -171t-38 -197q0 -85 24 -147z" />
    <glyph glyph-name="uni207E" unicode="&#x207e;" horiz-adv-x="142" 
d="M62 336h-51q55 73 93 172.5t38 198.5q0 79 -25 144h52q30 -66 30 -159q0 -102 -42 -197.5t-95 -158.5z" />
    <glyph glyph-name="uni207F" unicode="&#x207f;" horiz-adv-x="269" 
d="M67 438l64 303h62l-9 -44q31 53 85 53q60 0 60 -62q0 -20 -6 -45l-44 -205h-62l39 184q7 33 7 50q0 33 -28 33q-49 0 -71 -101l-35 -166h-62z" />
    <glyph glyph-name="uni2080" unicode="&#x2080;" horiz-adv-x="307" 
d="M33 -39q0 -55 45 -55q39 0 56.5 34.5t35.5 120.5l6 29q14 72 14 100q0 54 -43 54q-39 0 -58 -35.5t-35 -118.5l-6 -29q-15 -68 -15 -100zM241 101l-11 -52q-20 -99 -54.5 -142t-101.5 -43q-54 0 -78 24.5t-24 76.5q0 32 11 84l11 52q22 102 53 144t100 42q105 0 105 -101
q0 -33 -11 -85z" />
    <glyph glyph-name="uni2081" unicode="&#x2081;" horiz-adv-x="183" 
d="M-6 -128l67 314h-74l9 41q52 0 65.5 7.5t29.5 45.5h49l-87 -408h-59z" />
    <glyph glyph-name="uni2082" unicode="&#x2082;" horiz-adv-x="275" 
d="M-60 -128l10 47l56 58q68 69 93.5 96.5t49.5 66t24 67.5q0 38 -41 38q-31 0 -45.5 -18t-23.5 -61l-1 -5h-60l1 5q13 63 42.5 92.5t86.5 29.5q46 0 74.5 -20t28.5 -57q0 -27 -9.5 -52.5t-38 -60.5t-48 -56t-71.5 -74l-46 -47h157l-11 -49h-228z" />
    <glyph glyph-name="uni2083" unicode="&#x2083;" horiz-adv-x="288" 
d="M199 -3q-15 -133 -143 -133q-47 0 -75 20.5t-28 61.5q0 16 4 32l1 5h59l-1 -5q-4 -15 -4 -29q0 -43 43 -43q62 0 78 78q3 15 3 28q0 49 -62 49h-22l10 45h21q62 0 78 71q3 15 3 27q0 41 -41 41q-50 0 -63 -69l-1 -5h-59l1 5q22 111 123 111q44 0 73.5 -18.5t29.5 -56.5
v-8q0 -5 -1 -8q-4 -44 -26.5 -71.5t-55.5 -36.5q56 -18 56 -75v-8q0 -5 -1 -8z" />
    <glyph glyph-name="uni2084" unicode="&#x2084;" horiz-adv-x="292" 
d="M84 -128l22 104h-157l10 46l208 258h61l-54 -255h47l-11 -49h-47l-22 -104h-57zM13 25h103l36 171z" />
    <glyph glyph-name="uni2085" unicode="&#x2085;" horiz-adv-x="279" 
d="M203 20l-6 -28q-26 -128 -140 -128q-46 0 -73 21.5t-27 63.5q0 13 3 30l1 5h60l-1 -5q-3 -15 -3 -28q0 -44 43 -44q57 0 74 87l5 23q4 15 4 36q0 51 -41 51q-39 0 -64 -48l-55 2l67 222h199l-11 -49h-150l-39 -127q28 43 80 43q79 0 79 -83q0 -17 -5 -44z" />
    <glyph glyph-name="uni2086" unicode="&#x2086;" horiz-adv-x="292" 
d="M216 14l-5 -22q-14 -66 -47 -97t-90 -31q-102 0 -102 100q0 39 8 70l12 56q21 104 58 151t107 47q89 0 89 -78q0 -14 -3 -30l-1 -5h-58l1 5q3 15 3 25q0 40 -40 40q-35 0 -54.5 -32t-34.5 -105l-3 -15q28 49 82 49q83 0 83 -84q0 -17 -5 -44zM31 -40q0 -53 42 -53
q59 0 76 87l3 15q4 15 4 36q0 52 -44 52q-27 0 -46.5 -23t-27.5 -65l-3 -15q-4 -15 -4 -34z" />
    <glyph glyph-name="uni2087" unicode="&#x2087;" horiz-adv-x="230" 
d="M24 -128h-65q59 230 211 359h-173l11 49h226l-11 -49q-81 -70 -126.5 -154t-72.5 -205z" />
    <glyph glyph-name="uni2088" unicode="&#x2088;" horiz-adv-x="301" 
d="M219 15q0 -66 -37 -108.5t-109 -42.5q-113 0 -113 86q0 56 25.5 92t66.5 49q-16 6 -28.5 23t-12.5 43q0 55 34 92.5t97 37.5q47 0 77.5 -18t30.5 -57q0 -52 -24.5 -83t-55.5 -38q49 -20 49 -76zM21 -43q0 -50 52 -50q64 0 79 76l1 5q3 15 3 25q0 53 -50 53q-67 0 -81 -75
l-1 -5q-3 -15 -3 -29zM73 151q0 -43 42 -43q53 0 67 67l1 5q2 14 2 23q0 42 -42 42q-53 0 -66 -64l-1 -5q-3 -15 -3 -25z" />
    <glyph glyph-name="uni2089" unicode="&#x2089;" horiz-adv-x="298" 
d="M234 119l-12 -56q-23 -106 -57.5 -152.5t-105.5 -46.5q-89 0 -89 79q0 15 3 30l1 5h57l-1 -5q-2 -10 -2 -26q0 -40 38 -40q35 0 55 33t35 105l3 16q-28 -49 -82 -49q-84 0 -84 85q0 14 5 39l5 25q25 126 141 126q51 0 75 -23t24 -74q0 -29 -9 -71zM59 108q0 -51 44 -51
q57 0 74 86l3 15q4 15 4 37q0 50 -42 50q-60 0 -76 -85l-3 -15q-4 -17 -4 -37z" />
    <glyph glyph-name="uni208D" unicode="&#x208d;" horiz-adv-x="141" 
d="M37 -230h-51q-30 70 -30 160q0 97 41.5 193.5t96.5 161.5h50q-55 -67 -93 -171t-38 -197q0 -85 24 -147z" />
    <glyph glyph-name="uni208E" unicode="&#x208e;" horiz-adv-x="142" 
d="M-57 -230h-51q55 73 93 172.5t38 198.5q0 79 -25 144h52q30 -66 30 -159q0 -102 -42 -197.5t-95 -158.5z" />
    <glyph glyph-name="Euro" unicode="&#x20ac;" horiz-adv-x="593" 
d="M23 389l43 56h71q37 150 105.5 220t183.5 70q177 0 177 -163q0 -44 -8 -75l-1 -5h-87l1 5q8 43 8 66q0 105 -104 105q-70 0 -112 -55.5t-70 -167.5h225l-43 -56h-195q-2 -8 -2 -9l-8 -37l-3 -15h161l-44 -56h-128q-8 -59 -8 -96q0 -61 22.5 -91t75.5 -30q135 0 168 171
l1 5h86l-1 -6q-24 -117 -92 -177.5t-176 -60.5q-95 0 -136.5 42.5t-41.5 138.5q0 46 9 104h-102l43 56h70l13 61h-101z" />
    <glyph glyph-name="uni2113" unicode="&#x2113;" horiz-adv-x="468" 
d="M344 93l24 -51q-77 -55 -142 -55q-59 0 -86.5 25t-27.5 76q0 32 7 61l16 75l-88 -58l-22 52l126 85l51 239q21 102 60 149t110 47q54 0 84.5 -31t30.5 -85q0 -20 -4 -40q-19 -89 -77.5 -153.5t-167.5 -135.5l-8 -6l-29 -137q-5 -32 -5 -45q0 -27 12 -39t39 -12
q44 0 97 39zM286 554l-39 -187l11 8q122 83 149 206q4 17 4 39q0 56 -43 56q-31 0 -50 -29.5t-32 -92.5z" />
    <glyph glyph-name="uni2116" unicode="&#x2116;" horiz-adv-x="873" 
d="M689 473q0 -51 44 -51q34 0 50 28.5t30 92.5l5 24q9 42 9 70q0 51 -43 51q-34 0 -50.5 -28.5t-30.5 -92.5l-5 -25q-9 -40 -9 -69zM886 578l-11 -50q-16 -79 -49.5 -114.5t-95.5 -35.5q-105 0 -105 102q0 24 6 53l11 50q16 77 49.5 113t95.5 36q105 0 105 -102
q0 -24 -6 -52zM575 265l16 74h245l-16 -74h-245zM15 0l154 725h114l110 -603l128 603h86l-154 -725h-113l-111 602l-128 -602h-86z" />
    <glyph glyph-name="uni2117" unicode="&#x2117;" horiz-adv-x="835" 
d="M437 33q135 0 228.5 95.5t93.5 234.5t-93.5 234.5t-228.5 95.5t-228 -95.5t-93 -234.5t93 -234.5t228 -95.5zM437 -13q-154 0 -263 109t-109 267t109 266.5t263 108.5q155 0 264 -108.5t109 -266.5t-109 -267t-264 -109zM406 164h-70v403h101q79 0 114 -24.5t35 -90.5
q0 -105 -125 -111q-14 -2 -32 -2h-23v-175zM406 516v-131h31q42 0 57 13.5t15 52.5t-15 52t-57 13h-31z" />
    <glyph glyph-name="trademark" unicode="&#x2122;" horiz-adv-x="743" 
d="M389 323v402h95l73 -326l75 326h92v-402h-61v335h-1l-4 -26l-74 -309h-55l-74 309l-4 26h-1v-335h-61zM195 323v351h-91v51h250v-51h-91v-351h-68z" />
    <glyph glyph-name="estimated" unicode="&#x212e;" horiz-adv-x="576" 
d="M139 302h294v163q-53 53 -145 53q-99 0 -149 -52v-164zM495 147h40q-26 -72 -86.5 -116t-154.5 -44q-127 0 -198.5 80.5t-71.5 201.5q0 122 73.5 202t191.5 80q120 0 189 -81.5t71 -199.5h-410v-195q24 -24 68.5 -39.5t94.5 -15.5q70 0 119.5 33.5t73.5 93.5z" />
    <glyph glyph-name="onethird" unicode="&#x2153;" horiz-adv-x="642" 
d="M87 317l67 314h-74l8 41q52 0 66 8t30 45h49l-87 -408h-59zM70 0l390 725h48l-390 -725h-48zM579 125q-15 -133 -143 -133q-47 0 -75 20.5t-28 61.5q0 16 4 32l1 5h59l-1 -5q-4 -15 -4 -29q0 -43 43 -43q62 0 78 78q3 15 3 28q0 49 -62 49h-22l10 45h21q62 0 78 71
q3 15 3 27q0 41 -41 41q-50 0 -63 -69l-1 -5h-59l1 5q22 111 123 111q44 0 73.5 -18.5t29.5 -56.5v-8q0 -5 -1 -8q-4 -44 -26.5 -71.5t-55.5 -36.5q56 -18 56 -75v-8q0 -5 -1 -8z" />
    <glyph glyph-name="twothirds" unicode="&#x2154;" horiz-adv-x="734" 
d="M33 317l10 47l56 58q68 69 93.5 96.5t49.5 66t24 67.5q0 38 -41 38q-31 0 -45.5 -18t-23.5 -61l-1 -5h-60l1 5q13 63 42.5 92.5t86.5 29.5q46 0 74.5 -20t28.5 -57q0 -27 -9.5 -52.5t-38 -60.5t-48 -56t-71.5 -74l-46 -47h156l-10 -49h-228zM162 0l390 725h48l-390 -725
h-48zM671 125q-15 -133 -143 -133q-47 0 -75 20.5t-28 61.5q0 16 4 32l1 5h59l-1 -5q-4 -15 -4 -29q0 -43 43 -43q62 0 78 78q3 15 3 28q0 49 -62 49h-22l10 45h21q62 0 78 71q3 15 3 27q0 41 -41 41q-50 0 -63 -69l-1 -5h-59l1 5q22 111 123 111q44 0 73.5 -18.5
t29.5 -56.5v-8q0 -5 -1 -8q-4 -44 -26.5 -71.5t-55.5 -36.5q56 -18 56 -75v-8q0 -5 -1 -8z" />
    <glyph glyph-name="uni2155" unicode="&#x2155;" horiz-adv-x="633" 
d="M87 317l67 314h-74l8 41q52 0 66 8t30 45h49l-87 -408h-59zM70 0l390 725h48l-390 -725h-48zM583 148l-6 -28q-26 -128 -140 -128q-46 0 -73 21.5t-27 63.5q0 13 3 30l1 5h60l-1 -5q-3 -15 -3 -28q0 -44 43 -44q57 0 74 87l5 23q4 15 4 36q0 51 -41 51q-39 0 -64 -48
l-55 2l67 222h199l-11 -49h-150l-39 -127q28 43 80 43q79 0 79 -83q0 -17 -5 -44z" />
    <glyph glyph-name="uni2156" unicode="&#x2156;" horiz-adv-x="725" 
d="M33 317l10 47l56 58q68 69 93.5 96.5t49.5 66t24 67.5q0 38 -41 38q-31 0 -45.5 -18t-23.5 -61l-1 -5h-60l1 5q13 63 42.5 92.5t86.5 29.5q46 0 74.5 -20t28.5 -57q0 -27 -9.5 -52.5t-38 -60.5t-48 -56t-71.5 -74l-46 -47h156l-10 -49h-228zM162 0l390 725h48l-390 -725
h-48zM675 148l-6 -28q-26 -128 -140 -128q-46 0 -73 21.5t-27 63.5q0 13 3 30l1 5h60l-1 -5q-3 -15 -3 -28q0 -44 43 -44q57 0 74 87l5 23q4 15 4 36q0 51 -41 51q-39 0 -64 -48l-55 2l67 222h199l-11 -49h-150l-39 -127q28 43 80 43q79 0 79 -83q0 -17 -5 -44z" />
    <glyph glyph-name="uni2157" unicode="&#x2157;" horiz-adv-x="738" 
d="M292 442q-15 -133 -143 -133q-47 0 -75 20.5t-28 61.5q0 16 4 32l1 5h59l-1 -5q-4 -15 -4 -29q0 -43 43 -43q62 0 78 78q3 15 3 28q0 49 -62 49h-22l10 45h21q62 0 78 71q3 15 3 27q0 41 -41 41q-50 0 -63 -69l-1 -5h-59l1 5q22 111 123 111q44 0 73.5 -18.5t29.5 -56.5
v-8q0 -5 -1 -8q-4 -44 -26.5 -71.5t-55.5 -36.5q56 -18 56 -75v-8q0 -5 -1 -8zM175 0l390 725h48l-390 -725h-48zM688 148l-6 -28q-26 -128 -140 -128q-46 0 -73 21.5t-27 63.5q0 13 3 30l1 5h60l-1 -5q-3 -15 -3 -28q0 -44 43 -44q57 0 74 87l5 23q4 15 4 36q0 51 -41 51
q-39 0 -64 -48l-55 2l67 222h199l-11 -49h-150l-39 -127q28 43 80 43q79 0 79 -83q0 -17 -5 -44z" />
    <glyph glyph-name="uni2158" unicode="&#x2158;" horiz-adv-x="742" 
d="M177 317l22 104h-157l10 46l208 258h61l-54 -255h47l-11 -49h-47l-22 -104h-57zM106 470h103l36 171zM179 0l390 725h48l-390 -725h-48zM692 148l-6 -28q-26 -128 -140 -128q-46 0 -73 21.5t-27 63.5q0 13 3 30l1 5h60l-1 -5q-3 -15 -3 -28q0 -44 43 -44q57 0 74 87l5 23
q4 15 4 36q0 51 -41 51q-39 0 -64 -48l-55 2l67 222h199l-11 -49h-150l-39 -127q28 43 80 43q79 0 79 -83q0 -17 -5 -44z" />
    <glyph glyph-name="uni2159" unicode="&#x2159;" horiz-adv-x="646" 
d="M87 317l67 314h-74l8 41q52 0 66 8t30 45h49l-87 -408h-59zM70 0l390 725h48l-390 -725h-48zM596 142l-5 -22q-14 -66 -47 -97t-90 -31q-102 0 -102 100q0 39 8 70l12 56q21 104 58 151t107 47q89 0 89 -78q0 -14 -3 -30l-1 -5h-58l1 5q3 15 3 25q0 40 -40 40
q-35 0 -54.5 -32t-34.5 -105l-3 -15q28 49 82 49q83 0 83 -84q0 -17 -5 -44zM411 88q0 -53 42 -53q59 0 76 87l3 15q4 15 4 36q0 52 -44 52q-27 0 -46.5 -23t-27.5 -65l-3 -15q-4 -15 -4 -34z" />
    <glyph glyph-name="uni215A" unicode="&#x215a;" horiz-adv-x="742" 
d="M296 465l-6 -28q-26 -128 -140 -128q-46 0 -73 21.5t-27 63.5q0 14 3 30l1 5h60l-1 -5q-3 -15 -3 -28q0 -44 43 -44q57 0 74 87l5 23q4 15 4 36q0 51 -41 51q-39 0 -64 -48l-55 2l67 222h199l-11 -49h-150l-39 -127q28 43 80 43q79 0 79 -83q0 -17 -5 -44zM166 0l390 725
h48l-390 -725h-48zM692 142l-5 -22q-14 -66 -47 -97t-90 -31q-102 0 -102 100q0 39 8 70l12 56q21 104 58 151t107 47q89 0 89 -78q0 -14 -3 -30l-1 -5h-58l1 5q3 15 3 25q0 40 -40 40q-35 0 -54.5 -32t-34.5 -105l-3 -15q28 49 82 49q83 0 83 -84q0 -17 -5 -44zM507 88
q0 -53 42 -53q59 0 76 87l3 15q4 15 4 36q0 52 -44 52q-27 0 -46.5 -23t-27.5 -65l-3 -15q-4 -15 -4 -34z" />
    <glyph glyph-name="oneeighth" unicode="&#x215b;" horiz-adv-x="655" 
d="M87 317l67 314h-74l8 41q52 0 66 8t30 45h49l-87 -408h-59zM70 0l390 725h48l-390 -725h-48zM599 143q0 -66 -37 -108.5t-109 -42.5q-113 0 -113 86q0 56 25.5 92t66.5 49q-16 6 -28.5 23t-12.5 43q0 55 34 92.5t97 37.5q47 0 77.5 -18t30.5 -57q0 -52 -24.5 -83
t-55.5 -38q49 -20 49 -76zM401 85q0 -50 52 -50q64 0 79 76l1 5q3 15 3 25q0 53 -50 53q-67 0 -81 -75l-1 -5q-3 -15 -3 -29zM453 279q0 -43 42 -43q53 0 67 67l1 5q2 14 2 23q0 42 -42 42q-53 0 -66 -64l-1 -5q-3 -15 -3 -25z" />
    <glyph glyph-name="threeeighths" unicode="&#x215c;" horiz-adv-x="760" 
d="M292 442q-15 -133 -143 -133q-47 0 -75 20.5t-28 61.5q0 16 4 32l1 5h59l-1 -5q-4 -15 -4 -29q0 -43 43 -43q62 0 78 78q3 15 3 28q0 49 -62 49h-22l10 45h21q62 0 78 71q3 15 3 27q0 41 -41 41q-50 0 -63 -69l-1 -5h-59l1 5q22 111 123 111q44 0 73.5 -18.5t29.5 -56.5
v-8q0 -5 -1 -8q-4 -44 -26.5 -71.5t-55.5 -36.5q56 -18 56 -75v-8q0 -5 -1 -8zM175 0l390 725h48l-390 -725h-48zM704 143q0 -66 -37 -108.5t-109 -42.5q-113 0 -113 86q0 56 25.5 92t66.5 49q-16 6 -28.5 23t-12.5 43q0 55 34 92.5t97 37.5q47 0 77.5 -18t30.5 -57
q0 -52 -24.5 -83t-55.5 -38q49 -20 49 -76zM506 85q0 -50 52 -50q64 0 79 76l1 5q3 15 3 25q0 53 -50 53q-67 0 -81 -75l-1 -5q-3 -15 -3 -29zM558 279q0 -43 42 -43q53 0 67 67l1 5q2 14 2 23q0 42 -42 42q-53 0 -66 -64l-1 -5q-3 -15 -3 -25z" />
    <glyph glyph-name="fiveeighths" unicode="&#x215d;" horiz-adv-x="751" 
d="M296 465l-6 -28q-26 -128 -140 -128q-46 0 -73 21.5t-27 63.5q0 14 3 30l1 5h60l-1 -5q-3 -15 -3 -28q0 -44 43 -44q57 0 74 87l5 23q4 15 4 36q0 51 -41 51q-39 0 -64 -48l-55 2l67 222h199l-11 -49h-150l-39 -127q28 43 80 43q79 0 79 -83q0 -17 -5 -44zM166 0l390 725
h48l-390 -725h-48zM695 143q0 -66 -37 -108.5t-109 -42.5q-113 0 -113 86q0 56 25.5 92t66.5 49q-16 6 -28.5 23t-12.5 43q0 55 34 92.5t97 37.5q47 0 77.5 -18t30.5 -57q0 -52 -24.5 -83t-55.5 -38q49 -20 49 -76zM497 85q0 -50 52 -50q64 0 79 76l1 5q3 15 3 25
q0 53 -50 53q-67 0 -81 -75l-1 -5q-3 -15 -3 -29zM549 279q0 -43 42 -43q53 0 67 67l1 5q2 14 2 23q0 42 -42 42q-53 0 -66 -64l-1 -5q-3 -15 -3 -25z" />
    <glyph glyph-name="seveneighths" unicode="&#x215e;" horiz-adv-x="702" 
d="M117 317h-65q59 230 211 359h-173l11 49h226l-11 -49q-81 -70 -126.5 -154t-72.5 -205zM117 0l390 725h48l-390 -725h-48zM646 143q0 -66 -37 -108.5t-109 -42.5q-113 0 -113 86q0 56 25.5 92t66.5 49q-16 6 -28.5 23t-12.5 43q0 55 34 92.5t97 37.5q47 0 77.5 -18
t30.5 -57q0 -52 -24.5 -83t-55.5 -38q49 -20 49 -76zM448 85q0 -50 52 -50q64 0 79 76l1 5q3 15 3 25q0 53 -50 53q-67 0 -81 -75l-1 -5q-3 -15 -3 -29zM500 279q0 -43 42 -43q53 0 67 67l1 5q2 14 2 23q0 42 -42 42q-53 0 -66 -64l-1 -5q-3 -15 -3 -25z" />
    <glyph glyph-name="uni215F" unicode="&#x215f;" horiz-adv-x="354" 
d="M87 317l67 314h-74l8 41q52 0 66 8t30 45h49l-87 -408h-59zM70 0l390 725h48l-390 -725h-48z" />
    <glyph glyph-name="arrowleft" unicode="&#x2190;" horiz-adv-x="800" 
d="M766 228h-591l216 -216l-55 -54l-311 311l311 311l56 -54l-217 -216h591v-82z" />
    <glyph glyph-name="arrowup" unicode="&#x2191;" horiz-adv-x="800" 
d="M359 0v591l-216 -216l-54 55l311 311l311 -311l-54 -56l-216 217v-591h-82z" />
    <glyph glyph-name="arrowright" unicode="&#x2192;" horiz-adv-x="800" 
d="M34 310h591l-216 216l55 54l311 -311l-311 -311l-56 54l217 216h-591v82z" />
    <glyph glyph-name="arrowdown" unicode="&#x2193;" horiz-adv-x="800" 
d="M441 725v-591l216 216l54 -55l-311 -311l-311 311l54 56l216 -217v591h82z" />
    <glyph glyph-name="uni2196" unicode="&#x2196;" horiz-adv-x="800" 
d="M623 -15l-418 418v-305h-77v440h440v-77h-305l418 -418z" />
    <glyph glyph-name="uni2197" unicode="&#x2197;" horiz-adv-x="800" 
d="M81 43l418 418h-306v77h441v-440h-77v305l-418 -418z" />
    <glyph glyph-name="uni2198" unicode="&#x2198;" horiz-adv-x="800" 
d="M177 553l418 -418v306l77 -1v-440h-440v77h305l-418 418z" />
    <glyph glyph-name="uni2199" unicode="&#x2199;" horiz-adv-x="800" 
d="M719 495l-418 -418h306l-1 -77h-440v440h77v-305l418 418z" />
    <glyph glyph-name="uni219E" unicode="&#x219e;" horiz-adv-x="800" 
d="M766 228h-313l216 -216l-55 -54l-270 270h-169l216 -216l-55 -54l-311 311l311 311l56 -54l-217 -216h169l270 270l56 -54l-217 -216h313v-82z" />
    <glyph glyph-name="uni219F" unicode="&#x219f;" horiz-adv-x="800" 
d="M359 0v313l-216 -216l-54 55l270 270v169l-216 -216l-54 55l311 311l311 -311l-54 -56l-216 217v-169l270 -270l-54 -56l-216 217v-313h-82z" />
    <glyph glyph-name="uni21A0" unicode="&#x21a0;" horiz-adv-x="800" 
d="M34 310h313l-216 216l55 54l270 -270h169l-216 216l55 54l311 -311l-311 -311l-56 54l217 216h-169l-270 -270l-56 54l217 216h-313v82z" />
    <glyph glyph-name="uni21A1" unicode="&#x21a1;" horiz-adv-x="800" 
d="M441 725v-313h1l216 216l54 -55l-271 -271v-168l216 216l54 -55l-311 -311l-311 311l54 56l216 -217v170l-269 269l54 56l215 -216v312h82z" />
    <glyph glyph-name="uni21A2" unicode="&#x21a2;" horiz-adv-x="800" 
d="M749 12l-55 -54l-270 270h-278l216 -216l-55 -54l-311 311l311 311l56 -54l-217 -216h278l270 270l56 -54l-256 -256z" />
    <glyph glyph-name="uni21A3" unicode="&#x21a3;" horiz-adv-x="800" 
d="M52 12l255 258l-256 256l56 54l270 -270h278l-217 216l56 54l311 -311l-311 -311l-55 54l216 216h-278l-270 -270z" />
    <glyph glyph-name="uni21A4" unicode="&#x21a4;" horiz-adv-x="800" 
d="M742 0h-82v228h-469l216 -216l-55 -54l-311 311l311 311l56 -54l-217 -216h469v228h82v-538z" />
    <glyph glyph-name="uni21A5" unicode="&#x21a5;" horiz-adv-x="800" 
d="M131 0v82h228v509l-216 -216l-54 55l311 311l311 -311l-54 -56l-216 217v-509h228v-82h-538z" />
    <glyph glyph-name="uni21A6" unicode="&#x21a6;" horiz-adv-x="800" 
d="M58 538h82v-228h469l-216 216l55 54l311 -311l-311 -311l-56 54l217 216h-469v-228h-82v538z" />
    <glyph glyph-name="uni21A7" unicode="&#x21a7;" horiz-adv-x="800" 
d="M669 725v-82h-228v-509l216 216l54 -55l-311 -311l-311 311l54 56l216 -217v509h-228v82h538z" />
    <glyph glyph-name="uni21B0" unicode="&#x21b0;" horiz-adv-x="800" 
d="M726 -175h-82v403h-469l216 -216l-55 -54l-311 311l311 311l56 -54l-217 -216h551v-485z" />
    <glyph glyph-name="uni21B1" unicode="&#x21b1;" horiz-adv-x="800" 
d="M775 269l-311 -311l-55 54l216 216h-469v-403h-82v485h551l-217 216l56 54z" />
    <glyph glyph-name="uni21B2" unicode="&#x21b2;" horiz-adv-x="800" 
d="M644 310v415h82v-497h-551l217 -216l-56 -54l-311 311l311 311l55 -54l-216 -216h469z" />
    <glyph glyph-name="uni21B3" unicode="&#x21b3;" horiz-adv-x="800" 
d="M74 725h82v-415h469l-216 216l55 54l311 -311l-311 -311l-56 54l217 216h-551v497z" />
    <glyph glyph-name="partialdiff" unicode="&#x2202;" horiz-adv-x="497" 
d="M448 319v-49q0 -140 -45 -211.5t-151 -71.5q-194 0 -194 241v52q0 235 185 235q77 0 114 -50l2 2q-13 92 -64.5 144t-160.5 54v73h2q160 0 236 -102.5t76 -316.5zM142 264v-26q0 -93 24 -139t86 -46q60 0 84.5 45.5t24.5 138.5v28q0 93 -24.5 138.5t-84.5 45.5
q-61 0 -85.5 -46t-24.5 -139z" />
    <glyph glyph-name="product" unicode="&#x220f;" horiz-adv-x="643" 
d="M127 -175v900h393v-900h-85v826h-223v-826h-85z" />
    <glyph glyph-name="summation" unicode="&#x2211;" horiz-adv-x="500" 
d="M80 -175v72l227 378l-226 377v73h419v-74h-326l223 -376l-225 -376h328v-74h-420z" />
    <glyph glyph-name="minus" unicode="&#x2212;" 
d="M27 233v73h492v-73h-492z" />
    <glyph glyph-name="radical" unicode="&#x221a;" horiz-adv-x="502" 
d="M236 -175l-158 335l-78 -37l-32 73l146 69l155 -337l166 797h85l-194 -900h-90z" />
    <glyph glyph-name="infinity" unicode="&#x221e;" horiz-adv-x="788" 
d="M755 252q0 -71 -47.5 -116.5t-124.5 -45.5q-101 0 -192 108q-47 -54 -92.5 -80.5t-100.5 -26.5q-75 0 -123 45.5t-48 115.5q0 71 48.5 116.5t125.5 45.5q100 0 189 -105q46 54 91 79.5t100 25.5q77 0 125.5 -45.5t48.5 -116.5zM104 252q0 -39 27 -65t69 -26q41 0 73 22.5
t72 69.5q-38 47 -71 69t-72 22q-43 0 -70.5 -25t-27.5 -67zM437 254q39 -48 73 -70.5t73 -22.5q42 0 68.5 25t26.5 66q0 40 -27.5 66t-72.5 26q-38 0 -70.5 -22t-70.5 -68z" />
    <glyph glyph-name="integral" unicode="&#x222b;" horiz-adv-x="289" 
d="M190 345v-274q0 -250 -136 -250q-34 0 -55.5 16.5t-21.5 45.5q0 19 12 32t32 13q16 0 27 -10.5t11 -30.5q0 -14 -6 -26q32 2 43 34.5t11 101.5q0 26 -2.5 87.5t-2.5 99.5v293q0 251 137 251q34 0 55 -16.5t21 -45.5q0 -21 -11.5 -33t-32.5 -12q-16 0 -27 10t-11 30
q0 15 6 27q-32 -2 -43.5 -35t-11.5 -101q0 -28 3 -89.5t3 -117.5z" />
    <glyph glyph-name="approxequal" unicode="&#x2248;" 
d="M115 96h-74q11 147 138 147q39 0 72 -18t61 -36t55 -18q62 0 68 72h75q-11 -147 -138 -147q-43 0 -98 35.5t-91 35.5q-61 0 -68 -71zM115 305h-74q11 149 138 149q31 0 58.5 -11.5t45 -25t40 -25t44.5 -11.5q62 0 68 73h75q-11 -149 -138 -149q-43 0 -98 36t-91 36
q-61 0 -68 -72z" />
    <glyph glyph-name="notequal" unicode="&#x2260;" 
d="M63 343v72h241l60 123h83l-60 -123h97v-72h-133l-73 -149h206v-72h-241l-59 -122h-84l60 122h-97v72h132l73 149h-205z" />
    <glyph glyph-name="lessequal" unicode="&#x2264;" 
d="M491 541v-76l-362 -138l362 -140v-77l-470 177v78zM21 0v72h470v-72h-470z" />
    <glyph glyph-name="greaterequal" unicode="&#x2265;" 
d="M40 465v76l470 -176v-78l-470 -177v77l362 140zM510 72v-72h-470v72h470z" />
    <glyph glyph-name="filledbox" unicode="&#x25a0;" horiz-adv-x="624" 
d="M43 0v538h538v-538h-538z" />
    <glyph glyph-name="H22073" unicode="&#x25a1;" horiz-adv-x="624" 
d="M43 0v538h538v-538h-538zM124 457v-376h376v376h-376z" />
    <glyph glyph-name="lozenge" unicode="&#x25ca;" horiz-adv-x="534" 
d="M286 67l170 280l-170 279l-170 -279zM286 -76l-263 423l263 422l259 -422z" />
    <glyph glyph-name="circle" unicode="&#x25cb;" horiz-adv-x="602" 
d="M301 472q-88 0 -145 -59t-57 -145q0 -85 57 -144t145 -59q87 0 144.5 59t57.5 144q0 86 -57.5 145t-144.5 59zM301 550q121 0 202 -82t81 -200q0 -117 -81 -199t-202 -82t-202 82t-81 199q0 118 81 200t202 82z" />
    <glyph glyph-name="H18533" unicode="&#x25cf;" horiz-adv-x="602" 
d="M301 -13q-121 0 -202 82t-81 199q0 118 81 200t202 82t202 -82t81 -200q0 -117 -81 -199t-202 -82z" />
    <glyph glyph-name="fi" unicode="&#xfb01;" horiz-adv-x="476" 
d="M269 0l114 538h90l-114 -538h-90zM399 615l23 110h90l-23 -110h-90zM20 0l101 477h-71l13 61h71l13 60q16 75 50 101t110 26h52l-13 -60h-32q-40 0 -54 -13t-24 -59l-12 -55h96l-13 -61h-96l-101 -477h-90z" />
    <glyph glyph-name="fl" unicode="&#xfb02;" horiz-adv-x="476" 
d="M269 0l154 725h90l-154 -725h-90zM20 0l101 477h-71l13 61h71l13 60q16 75 50 101t110 26h52l-13 -60h-32q-40 0 -54 -13t-24 -59l-12 -55h96l-13 -61h-96l-101 -477h-90z" />
    <glyph glyph-name="_001" horiz-adv-x="0" 
 />
    <glyph glyph-name="_002" horiz-adv-x="180" 
 />
    <glyph glyph-name="bullet.001" horiz-adv-x="462" 
d="M413 276q0 -78 -52.5 -130.5t-131.5 -52.5q-73 0 -124.5 53t-51.5 130q0 73 52 125t124 52q78 0 131 -51.5t53 -125.5z" />
    <glyph glyph-name="_383" horiz-adv-x="210" 
d="M133 615l23 110h90l-23 -110h-90z" />
    <glyph glyph-name="_384" horiz-adv-x="131" 
d="M-67 -175l20 99h80l-20 -99h-80z" />
    <glyph glyph-name="_386" horiz-adv-x="140" 
d="M-79 -223l54 89h-34l17 84h89l-19 -90l-57 -83h-50z" />
    <glyph glyph-name="_390" horiz-adv-x="173" 
d="M97 555l62 170h86l-90 -170h-58z" />
    <glyph glyph-name="zero.zero" horiz-adv-x="547" 
d="M515 408l-19 -90q-37 -180 -96.5 -255.5t-177.5 -75.5q-92 0 -133.5 43.5t-41.5 138.5q0 62 18 149l19 90q37 178 97.5 254.5t178.5 76.5q92 0 133.5 -43t41.5 -138q0 -52 -20 -150zM161 341l-3 -15l275 132q12 63 12 110q0 54 -20.5 80.5t-69.5 26.5q-32 0 -57.5 -13
t-43 -34.5t-33 -60.5t-26.5 -78t-24 -101zM135 159q0 -55 20.5 -81t68.5 -26q33 0 58.5 13t42.5 33t32.5 60.5t26 78.5t25.5 103l10 46v1l-274 -131q-10 -53 -10 -97z" />
    <glyph glyph-name="one.onum" horiz-adv-x="300" 
d="M75 0l109 512h-119l12 58q86 2 109.5 13.5t45.5 68.5h70l-138 -652h-89z" />
    <glyph glyph-name="two.onum" horiz-adv-x="455" 
d="M-14 0l15 69l91 92q155 158 200 215q70 90 70 156q0 68 -69 68q-92 0 -119 -134l-2 -10h-83l1 10q21 99 71.5 148.5t140.5 49.5q69 0 111 -29.5t42 -85.5q0 -19 -4 -38.5t-8.5 -36t-16.5 -37.5t-19.5 -35t-27 -38t-30.5 -37.5t-37 -41.5t-39 -41.5t-45.5 -47t-47.5 -48.5
l-74 -76h257l-15 -72h-362z" />
    <glyph glyph-name="three.onum" horiz-adv-x="476" 
d="M402 225q0 -114 -60.5 -176t-173.5 -62q-72 0 -113.5 32.5t-41.5 95.5q0 25 6 53l1 5h84l-1 -5q-5 -28 -5 -42q0 -76 75 -76q70 0 104 53t34 118q0 84 -107 84h-36l14 66h34q66 0 102.5 44.5t36.5 113.5q0 71 -71 71q-46 0 -70.5 -27.5t-37.5 -86.5l-1 -5h-84l1 5
q35 178 209 178q149 0 149 -118q0 -74 -39.5 -130t-97.5 -72q89 -24 89 -119z" />
    <glyph glyph-name="four.onum" horiz-adv-x="483" 
d="M217 0l36 168h-250l14 67l337 417h89l-87 -412h76l-15 -72h-75l-36 -168h-89zM88 240h179l63 298z" />
    <glyph glyph-name="five.onum" horiz-adv-x="473" 
d="M406 235l-9 -43q-42 -205 -232 -205q-71 0 -110 32.5t-39 96.5q0 24 6 52l1 5h84l-1 -5q-5 -28 -5 -41q0 -77 77 -77q98 0 128 145l7 35q7 29 7 59q0 85 -73 85q-70 0 -109 -80l-80 4l106 354h314l-15 -72h-244l-63 -210q20 29 55.5 49t78.5 20q124 0 124 -130
q0 -43 -8 -74z" />
    <glyph glyph-name="six.onum" horiz-adv-x="498" 
d="M429 226l-7 -33q-41 -206 -224 -206q-78 0 -117.5 36t-39.5 117q0 53 13 112l19 92q35 167 94.5 243.5t171.5 76.5q69 0 103.5 -33t34.5 -90q0 -15 -6 -49l-1 -6h-84l1 5q5 28 5 41q0 68 -68 68q-61 0 -95 -53.5t-59 -173.5l-4 -24q17 31 54.5 56t85.5 25q131 0 131 -135
q0 -26 -8 -69zM125 139q0 -89 76 -89q48 0 81 37t47 107l6 26q6 32 6 57q0 89 -75 89q-48 0 -81.5 -39t-47.5 -109l-5 -22q-7 -27 -7 -57z" />
    <glyph glyph-name="seven.onum" horiz-adv-x="424" 
d="M129 0h-94q47 184 134.5 324.5t219.5 255.5h-292l15 72h371l-15 -72q-136 -118 -214.5 -253.5t-124.5 -326.5z" />
    <glyph glyph-name="eight.onum" horiz-adv-x="504" 
d="M436 230q0 -109 -64.5 -176t-174.5 -67q-82 0 -129.5 33.5t-47.5 102.5q0 89 45.5 146.5t107.5 78.5q-28 10 -48 37.5t-20 71.5q0 98 63 152.5t161 54.5q155 0 155 -120q0 -81 -40.5 -131t-89.5 -65q82 -31 82 -118zM114 136q0 -86 91 -86q107 0 132 125l3 15q4 17 4 38
q0 84 -88 84q-54 0 -88.5 -31.5t-47.5 -91.5l-2 -14q-4 -17 -4 -39zM193 444q0 -70 76 -70q92 0 115 108l2 10q5 25 5 39q0 69 -75 69q-95 0 -116 -108l-2 -10q-5 -25 -5 -38z" />
    <glyph glyph-name="nine.onum" horiz-adv-x="498" 
d="M457 399l-19 -90q-35 -169 -94 -245.5t-171 -76.5q-137 0 -137 123q0 23 6 50l1 5h84l-1 -5q-5 -28 -5 -41q0 -69 67 -69q60 0 94 54.5t59 174.5l5 24q-19 -33 -55 -57.5t-85 -24.5q-131 0 -131 133q0 40 8 71l7 35q43 204 230 204q77 0 114 -35.5t37 -116.5
q0 -45 -14 -113zM170 376q0 -90 75 -90q48 0 82 39t48 108l5 22q6 31 6 56q0 89 -75 89q-99 0 -130 -142l-5 -27q-6 -30 -6 -55z" />
    <glyph glyph-name="zero.onum" horiz-adv-x="512" 
d="M130 143q0 -47 17 -70t58 -23q65 0 97.5 59.5t59.5 192.5l9 46q23 104 23 162q0 46 -16.5 68t-57.5 22q-65 0 -98 -59.5t-60 -192.5l-9 -46q-23 -115 -23 -159zM466 366l-17 -82q-33 -159 -88.5 -228t-161.5 -69q-81 0 -119.5 37.5t-38.5 117.5q0 58 18 142l17 82
q34 159 88.5 228.5t160.5 69.5q81 0 120 -37.5t39 -116.5q0 -60 -18 -144z" />
    <glyph glyph-name="zero.onum_zero" horiz-adv-x="512" 
d="M466 366l-17 -82q-33 -159 -88.5 -228t-161.5 -69q-81 0 -119.5 37.5t-38.5 117.5q0 58 18 142l17 82q34 159 88.5 228.5t160.5 69.5q81 0 120 -37.5t39 -116.5q0 -60 -18 -144zM130 143q0 -47 17 -70t58 -23q65 0 97.5 59.5t59.5 192.5l9 46v2l-231 -115
q-10 -50 -10 -92zM162 348l-8 -40l231 114q9 51 9 88q0 46 -16.5 68t-57.5 22q-65 0 -98 -59.5t-60 -192.5z" />
    <glyph glyph-name="one.tnum" 
d="M2 0l14 72h170l106 497h-151l13 58q104 2 133.5 16t56.5 82h70l-139 -653h172l-15 -72h-430z" />
    <glyph glyph-name="two.tnum" 
d="M19 0l15 69l102 103q11 11 53 55t61 64t55.5 61t55.5 68t41.5 61.5t32 63.5t9.5 54q0 76 -85 76q-55 0 -88.5 -37.5t-51.5 -115.5l-1 -6h-85l1 5q27 114 80.5 165.5t152.5 51.5q75 0 122.5 -35t47.5 -99q0 -47 -22.5 -98.5t-74.5 -115t-94.5 -109t-125.5 -128.5l-82 -81
h293l-15 -72h-397z" />
    <glyph glyph-name="three.tnum" 
d="M471 254q0 -123 -65.5 -195t-188.5 -72q-81 0 -128.5 37t-47.5 107q0 20 7 53l1 7h84l-1 -7q-5 -21 -5 -46q0 -87 90 -87q47 0 81 20t50 52t22.5 62.5t6.5 61.5q0 97 -125 97h-39l14 66h37q82 0 123 50t41 131q0 85 -84 85q-55 0 -84 -31t-44 -99l-1 -5h-85l1 5
q23 102 74 147t144 45q75 0 124.5 -34t49.5 -99q0 -85 -40.5 -144t-113.5 -77q48 -11 75 -45t27 -85z" />
    <glyph glyph-name="four.tnum" 
d="M273 0l40 189h-285l14 67l384 469h90l-99 -464h83l-15 -72h-83l-40 -189h-89zM116 261h212l74 344z" />
    <glyph glyph-name="five.tnum" 
d="M477 261l-10 -48q-24 -113 -83 -169.5t-160 -56.5q-81 0 -129.5 38.5t-48.5 108.5q0 26 5 50l1 5h85l-1 -5q-5 -21 -5 -46q0 -87 91 -87q118 0 154 167l8 36q8 40 8 65q0 101 -89 101q-79 0 -130 -93l-81 3l120 395h345l-15 -71h-275l-75 -244q53 77 147 77q70 0 108 -39
t38 -113q0 -43 -8 -74z" />
    <glyph glyph-name="six.tnum" 
d="M482 254l-9 -40q-51 -227 -242 -227q-179 0 -179 177q0 50 13 109l21 101q40 193 104 278.5t188 85.5q77 0 118.5 -37t41.5 -99q0 -25 -7 -52l-1 -6h-85l1 5q5 27 5 44q0 82 -83 82q-71 0 -113 -64t-71 -202l-5 -25q21 38 63.5 67t97.5 29q71 0 110 -39t39 -115
q0 -45 -7 -72zM136 156q0 -106 92 -106q57 0 97 42t57 123l6 29q7 29 7 63q0 106 -92 106q-57 0 -97.5 -44t-57.5 -127l-5 -23q-7 -29 -7 -63z" />
    <glyph glyph-name="seven.tnum" 
d="M180 0h-93q55 214 152 370.5t246 283.5h-340l15 71h421l-15 -71q-154 -133 -243 -283.5t-143 -370.5z" />
    <glyph glyph-name="eight.tnum" 
d="M488 259q0 -123 -62 -197.5t-186 -74.5q-93 0 -151.5 39t-58.5 117q0 98 49.5 162t121.5 84q-31 9 -54 40t-23 79q0 102 63.5 166.5t172.5 64.5q82 0 132.5 -36t50.5 -105q0 -91 -44 -141t-103 -68q92 -33 92 -130zM121 153q0 -50 27.5 -76.5t78.5 -26.5q63 0 106 36.5
t57 106.5l3 15q6 34 6 48q0 48 -28.5 73t-79.5 25q-61 0 -104 -37.5t-59 -105.5l-3 -17q-4 -20 -4 -41zM212 499q0 -84 91 -84q115 0 139 124l3 15q6 32 6 41q0 81 -97 81q-111 0 -135 -123l-3 -15q-4 -20 -4 -39z" />
    <glyph glyph-name="nine.tnum" 
d="M524 454l-22 -101q-43 -196 -102.5 -281t-181.5 -85q-79 0 -121.5 38.5t-42.5 102.5q0 6 2 24l4 26l1 5h85l-1 -5q-5 -27 -5 -45q0 -83 81 -83q71 0 113 65.5t71 202.5l6 25q-21 -38 -61 -66.5t-94 -28.5q-73 0 -114.5 40.5t-41.5 117.5q0 27 8 70l8 37q45 226 249 226
q84 0 128 -40.5t44 -130.5q0 -62 -13 -114zM194 419q0 -105 92 -105q57 0 97.5 44t57.5 127l5 24q7 29 7 63q0 104 -91 104q-121 0 -155 -164l-6 -29q-7 -32 -7 -64z" />
    <glyph glyph-name="zero.tnum" 
d="M140 159q0 -55 20 -81t69 -26q33 0 58 13t42.5 33.5t33 60t26 78t25.5 103.5l10 46q26 127 26 181q0 55 -21 81.5t-70 26.5q-76 0 -114 -67.5t-69 -219.5l-10 -47q-26 -122 -26 -182zM520 408l-19 -90q-42 -182 -99.5 -256.5t-174.5 -74.5q-92 0 -134 43.5t-42 138.5
q0 63 18 149l19 90q37 177 98 254t178 77q92 0 133.5 -43t41.5 -138q0 -57 -19 -150z" />
    <glyph glyph-name="zero.tnum_zero" 
d="M520 408l-19 -90q-42 -182 -99.5 -256.5t-174.5 -74.5q-92 0 -134 43.5t-42 138.5q0 63 18 149l19 90q37 177 98 254t178 77q92 0 133.5 -43t41.5 -138q0 -57 -19 -150zM166 341l-3 -13l275 131q12 70 12 108q0 55 -21 81.5t-70 26.5q-76 0 -114 -67.5t-69 -219.5z
M140 159q0 -55 20 -81t69 -26q33 0 58 13t42.5 33.5t33 60t26 78t25.5 103.5l10 46q0 3 1 4l-276 -133q-9 -57 -9 -98z" />
    <glyph glyph-name="one.case" horiz-adv-x="310" 
d="M86 0l121 570h-134l12 60q100 2 125 15t52 80h72l-154 -725h-94z" />
    <glyph glyph-name="two.case" horiz-adv-x="471" 
d="M-23 0l16 71l101 103q160 165 204 219q87 106 98 182q2 10 2 13v13q0 75 -82 75q-106 0 -137 -154l-2 -6h-86l1 6q22 109 79 163.5t157 54.5q75 0 119.5 -33.5t44.5 -98.5q0 -9 -2 -27q-5 -45 -27.5 -91t-64 -97.5t-84 -97t-109.5 -113.5q-17 -16 -25 -25l-81 -83h290
l-16 -74h-396z" />
    <glyph glyph-name="three.case" horiz-adv-x="494" 
d="M432 223q-12 -113 -77 -174.5t-176 -61.5q-80 0 -126.5 38t-46.5 109q0 24 6 52l1 4h87l-1 -4q-5 -28 -5 -46q0 -87 87 -87q73 0 110 48.5t47 120.5q3 16 3 30q0 46 -29.5 68.5t-94.5 22.5h-40l15 68h37q69 0 109 43.5t50 117.5q3 15 3 29q0 75 -84 75q-54 0 -83 -32.5
t-42 -98.5l-1 -4h-87l1 4q40 196 222 196q76 0 122.5 -35t46.5 -107q0 -6 -2 -28q-8 -74 -49 -121.5t-102 -65.5q101 -24 101 -131q0 -8 -2 -30z" />
    <glyph glyph-name="four.case" horiz-adv-x="504" 
d="M241 0l39 189h-281l14 70l380 468h91l-97 -463h85l-16 -75h-84l-40 -189h-91zM86 264h208l75 342z" />
    <glyph glyph-name="five.case" horiz-adv-x="491" 
d="M440 261l-10 -47q-23 -111 -89 -169t-168 -58q-79 0 -121 36.5t-42 107.5q0 25 6 55l1 4h87l-1 -4q-5 -28 -5 -46q0 -87 88 -87q117 0 151 166l7 35q8 43 8 66q0 99 -87 99q-79 0 -127 -92l-81 3l119 397h344l-16 -73h-272l-73 -244q22 33 62 55.5t89 22.5q67 0 103 -38
t36 -110q0 -36 -9 -79z" />
    <glyph glyph-name="six.case" horiz-adv-x="517" 
d="M463 253l-8 -38q-47 -228 -250 -228q-86 0 -128 40.5t-42 131.5q0 47 14 117l21 100q40 192 103.5 278t187.5 86q78 0 117.5 -37t39.5 -102q0 -23 -6 -50l-1 -5h-87l1 4q5 27 5 45q0 81 -80 81q-69 0 -111 -65t-69 -201l-5 -25q20 37 61 66t94 29q71 0 111 -39t40 -115
q0 -42 -8 -73zM122 157q0 -104 89 -104q56 0 95 42t56 123l6 27q7 32 7 62q0 104 -89 104q-57 0 -96 -43.5t-56 -124.5l-5 -23q-7 -29 -7 -63z" />
    <glyph glyph-name="seven.case" horiz-adv-x="433" 
d="M119 0h-96q56 210 153 368t245 286h-330l15 73h411l-15 -73q-152 -131 -240 -283.5t-143 -370.5z" />
    <glyph glyph-name="eight.case" horiz-adv-x="525" 
d="M469 224q-13 -114 -81 -175.5t-180 -61.5q-89 0 -141 39.5t-52 116.5q0 9 2 31q11 87 58 141.5t110 74.5q-31 10 -53.5 41t-22.5 78q0 8 2 26q9 98 73.5 151.5t161.5 53.5q81 0 130.5 -35.5t49.5 -104.5q0 -8 -2 -24q-9 -82 -51 -126t-93 -60q39 -14 65.5 -47t26.5 -86
q0 -15 -3 -33zM108 153q0 -48 26.5 -74t77.5 -26q61 0 103 37t56 105l3 16q5 27 5 43q0 48 -27 73.5t-78 25.5q-61 0 -102.5 -37t-55.5 -105l-3 -16q-5 -28 -5 -42zM199 497q0 -81 88 -81q112 0 137 124l2 12q5 28 5 42q0 82 -89 82q-110 0 -135 -124l-3 -13q-5 -28 -5 -42z
" />
    <glyph glyph-name="nine.case" horiz-adv-x="517" 
d="M497 453l-21 -101q-41 -193 -104 -279t-187 -86q-77 0 -115.5 37t-38.5 102q0 25 6 52l1 5h87l-2 -5q-5 -28 -5 -46q0 -79 79 -79q70 0 110 64t69 201l6 25q-20 -37 -60.5 -65.5t-95.5 -28.5q-71 0 -111 39.5t-40 116.5q0 28 8 71l8 38q47 226 250 226q84 0 127 -40
t43 -130q0 -44 -14 -117zM171 420q0 -103 89 -103q57 0 96.5 44t56.5 125l4 22q7 29 7 63q0 105 -89 105q-115 0 -150 -165l-6 -27q-8 -40 -8 -64z" />
    <glyph glyph-name="zero.case" horiz-adv-x="532" 
d="M129 158q0 -53 20 -79t66 -26q75 0 111.5 66.5t70.5 221.5l10 46q26 127 26 180q0 54 -21 80.5t-68 26.5q-32 0 -56.5 -13t-42 -35t-33 -60.5t-26 -78.5t-22.5 -100l-9 -46q-26 -122 -26 -183zM505 407l-19 -87q-38 -178 -98 -255.5t-178 -77.5q-90 0 -131.5 43.5
t-41.5 137.5q0 57 19 152l18 87q37 178 98.5 256t178.5 78q92 0 132.5 -43.5t40.5 -137.5q0 -58 -19 -153z" />
    <glyph glyph-name="zero.case_zero" horiz-adv-x="532" 
d="M505 407l-19 -87q-38 -178 -98 -255.5t-178 -77.5q-90 0 -131.5 43.5t-41.5 137.5q0 57 19 152l18 87q37 178 98.5 256t178.5 78q92 0 132.5 -43.5t40.5 -137.5q0 -58 -19 -153zM155 341l-3 -14l268 129q13 70 13 111q0 54 -21 80.5t-68 26.5q-32 0 -56.5 -13t-42 -35
t-33 -60.5t-26 -78.5t-22.5 -100zM129 158q0 -53 20 -79t66 -26q75 0 111.5 66.5t70.5 221.5l10 45l-269 -129q-9 -57 -9 -99z" />
    <glyph glyph-name="a.sups" horiz-adv-x="253" 
d="M208 438l8 41q-32 -49 -87 -49q-30 0 -47.5 17t-17.5 46q0 13 4 30q8 35 35 56q24 19 78 36l61 20l5 20q3 7 3 23q0 30 -36 30q-25 0 -38 -11.5t-19 -40.5l-1 -5h-55l1 5q8 49 34 71t76 22q98 0 98 -68q0 -17 -4 -33l-25 -112q-12 -64 -16 -98h-57zM128 501q0 -30 31 -30
q50 0 66 79l10 49l-43 -16q-30 -12 -43 -23.5t-18 -33.5q-3 -15 -3 -25z" />
    <glyph glyph-name="b.sups" horiz-adv-x="273" 
d="M327 612l-9 -43q-15 -71 -43 -105t-75 -34q-27 0 -43.5 14t-18.5 38l-9 -44h-63l87 409h61l-32 -150q12 23 34.5 37t48.5 14q68 0 68 -82q0 -24 -6 -54zM149 530q0 -54 40 -54q28 0 42.5 24.5t26.5 82.5l3 15q9 49 9 65q0 41 -32 41q-57 0 -81 -115q-8 -40 -8 -59z" />
    <glyph glyph-name="c.sups" horiz-adv-x="251" 
d="M291 545l-1 -6q-9 -55 -41 -82t-79 -27q-93 0 -93 90q0 22 6 49l9 43q15 69 47.5 103t89.5 34q38 0 62 -19t24 -59q0 -13 -3 -30l-1 -5h-59l1 5q4 16 4 30q0 35 -35 35q-29 0 -42 -23t-26 -81l-6 -25q-9 -45 -9 -64q0 -21 7.5 -31t27.5 -10q23 0 36.5 15.5t21.5 51.5l1 6
h58z" />
    <glyph glyph-name="d.sups" horiz-adv-x="275" 
d="M220 438l9 44q-29 -52 -81 -52q-71 0 -71 81q0 29 7 58l8 42q29 137 117 137q26 0 43.5 -14t20.5 -37l32 150h62l-87 -409h-60zM141 516q0 -40 32 -40q57 0 81 113q7 32 7 60q0 55 -40 55q-27 0 -42.5 -26t-25.5 -81l-3 -15q-9 -49 -9 -66z" />
    <glyph glyph-name="e.sups" horiz-adv-x="258" 
d="M295 540l-1 -5q-21 -105 -122 -105q-94 0 -94 93q0 18 5 45l10 46q15 68 47 101.5t88 33.5q91 0 91 -86q0 -29 -7 -58l-4 -20h-159l-1 -8q-8 -40 -8 -61q0 -44 35 -44q47 0 59 63l1 5h60zM158 626l-1 -5h101l1 5q6 24 6 41q0 40 -40 40q-29 0 -43.5 -19.5t-23.5 -61.5z
" />
    <glyph glyph-name="f.sups" horiz-adv-x="156" 
d="M77 438l56 263h-39l9 41h38l6 31q9 44 30.5 59t68.5 15h30l-9 -40h-17q-21 0 -28.5 -7t-11.5 -29l-6 -29h50l-9 -41h-50l-56 -263h-62z" />
    <glyph glyph-name="g.sups" horiz-adv-x="280" 
d="M348 742l-60 -282q-15 -68 -44.5 -98t-89.5 -30q-43 0 -66.5 18.5t-23.5 51.5q0 8 2 22l1 5h55l-1 -5q-2 -14 -2 -15q0 -33 39 -33q28 0 42.5 15t23.5 57l11 50q-34 -52 -82 -52q-74 0 -74 84q0 22 6 49l8 38q27 131 123 131q26 0 41 -14.5t19 -37.5l10 46h62zM144 536
q0 -44 34 -44q31 0 48.5 24.5t29.5 78.5q8 38 8 59q0 49 -41 49q-28 0 -42.5 -23t-26.5 -75l-2 -9q-8 -40 -8 -60z" />
    <glyph glyph-name="h.sups" horiz-adv-x="267" 
d="M66 438l87 409h62l-32 -150q31 52 85 52q58 0 58 -62q0 -23 -5 -44l-44 -205h-61l39 184q8 38 8 49q0 33 -29 33q-50 0 -70 -100l-35 -166h-63z" />
    <glyph glyph-name="i.sups" horiz-adv-x="124" 
d="M68 438l64 302h62l-64 -302h-62zM140 782l14 65h62l-14 -65h-62z" />
    <glyph glyph-name="j.sups" horiz-adv-x="126" 
d="M1 338l9 42h13q20 0 26.5 8.5t12.5 37.5l67 314h62l-66 -313q-11 -52 -33.5 -70.5t-70.5 -18.5h-20zM137 782l14 65h62l-14 -65h-62z" />
    <glyph glyph-name="k.sups" horiz-adv-x="243" 
d="M67 438l87 409h59l-47 -221l110 115h59l-95 -102l41 -201h-53l-30 160l-48 -53l-23 -107h-60z" />
    <glyph glyph-name="l.sups" horiz-adv-x="123" 
d="M67 438l87 409h62l-87 -409h-62z" />
    <glyph glyph-name="m.sups" horiz-adv-x="406" 
d="M68 438l64 303h60l-9 -46q32 54 80 54q56 0 58 -59q32 59 85 59q58 0 58 -65q0 -22 -5 -46l-43 -200h-62l39 183q7 33 7 49q0 32 -24 32q-48 0 -66 -88l-37 -176h-62l41 193q6 32 6 41q0 30 -26 30q-46 0 -67 -99l-35 -165h-62z" />
    <glyph glyph-name="o.sups" horiz-adv-x="262" 
d="M140 515q0 -43 35 -43q30 0 43.5 24.5t26.5 82.5l5 22q8 40 8 62q0 43 -34 43q-30 0 -44.5 -25.5t-25.5 -79.5l-5 -22q-9 -45 -9 -64zM315 611l-9 -42q-15 -72 -45 -105.5t-86 -33.5q-97 0 -97 91q0 24 5 48l9 42q15 70 46.5 104t87.5 34q94 0 94 -92q0 -25 -5 -46z" />
    <glyph glyph-name="p.sups" horiz-adv-x="274" 
d="M46 338l85 402h61l-9 -44q12 24 35 38.5t49 14.5q68 0 68 -80q0 -22 -8 -59l-9 -41q-16 -72 -42.5 -105.5t-75.5 -33.5q-26 0 -43 15t-19 37l-30 -144h-62zM150 530q0 -54 40 -54q28 0 42 24t26 82l3 14q9 49 9 67q0 41 -32 41q-56 0 -80 -114q-8 -40 -8 -60z" />
    <glyph glyph-name="q.sups" horiz-adv-x="276" 
d="M199 338l30 144q-29 -52 -85 -52q-67 0 -67 81q0 25 6 58l10 41q28 139 118 139q26 0 43 -14.5t20 -38.5l9 44h62l-85 -402h-61zM141 518q0 -42 33 -42q56 0 80 114q7 29 7 60q0 54 -40 54q-26 0 -41 -25.5t-27 -82.5l-3 -14q-9 -39 -9 -64z" />
    <glyph glyph-name="r.sups" horiz-adv-x="170" 
d="M67 438l64 303h61l-13 -61q26 61 80 61h10l-12 -59h-19q-34 0 -49.5 -17.5t-25.5 -65.5l-34 -161h-62z" />
    <glyph glyph-name="s.sups" horiz-adv-x="242" 
d="M284 542q0 -50 -29.5 -81t-82.5 -31q-49 0 -75.5 24t-26.5 64q0 2 2 16l1 5h58l-1 -5q-2 -14 -2 -19q0 -41 40 -41q25 0 41 14.5t16 38.5q0 25 -31 38l-40 18q-52 20 -52 61q0 49 29.5 77.5t83.5 28.5q40 0 64.5 -19t24.5 -53q0 -7 -2 -21l-1 -5h-55l1 5q1 3 1 7v7
q0 36 -37 36q-23 0 -37 -13.5t-14 -34.5q0 -19 25 -31l38 -18q31 -14 46 -28.5t15 -39.5z" />
    <glyph glyph-name="t.sups" horiz-adv-x="157" 
d="M187 438h-45q-31 0 -44 9t-13 32q0 10 5 35l40 187h-39l9 41h38l16 79h62l-16 -79h50l-9 -41h-50l-38 -180q-3 -15 -3 -23q0 -12 5.5 -15.5t21.5 -3.5h18z" />
    <glyph glyph-name="u.sups" horiz-adv-x="262" 
d="M210 438l10 45q-32 -53 -79 -53q-62 0 -62 63q0 21 6 48l42 200h62l-38 -183q-7 -35 -7 -50q0 -32 25 -32q45 0 67 100l35 165h62l-64 -303h-59z" />
    <glyph glyph-name="v.sups" horiz-adv-x="228" 
d="M115 438l-12 304h62l-1 -239l103 239h58l-140 -304h-70z" />
    <glyph glyph-name="w.sups" horiz-adv-x="313" 
d="M91 438l17 304h51l-19 -236l91 236h53l-7 -236l79 236h50l-106 -304h-63l8 244l-92 -244h-62z" />
    <glyph glyph-name="x.sups" horiz-adv-x="225" 
d="M203 438l-33 101l-77 -101h-58l117 155l-48 149h58l31 -96l72 96h58l-113 -149l51 -155h-58z" />
    <glyph glyph-name="y.sups" horiz-adv-x="227" 
d="M39 338l8 42h19q20 0 29.5 7.5t20.5 32.5l8 18l-21 304h62l3 -239l97 239h57l-137 -306q-29 -62 -50.5 -80t-68.5 -18h-27z" />
    <glyph glyph-name="z.sups" horiz-adv-x="220" 
d="M47 438l9 40l175 223h-116l9 41h181l-9 -41l-175 -222h133l-9 -41h-198z" />
    <glyph glyph-name="uni2070.zero" horiz-adv-x="306" 
d="M361 668l-11 -53q-21 -98 -57.5 -141.5t-104.5 -43.5q-51 0 -74 23t-23 72q0 30 12 90l12 53q21 99 57 142t104 43q51 0 73.5 -23t22.5 -73q0 -34 -11 -89zM153 527q0 -55 43 -55q39 0 57 35t36 120l5 26l-135 -67q-6 -34 -6 -59zM173 657l-5 -23l135 66q7 40 7 60
q0 27 -9.5 39t-33.5 12q-38 0 -57 -35.5t-37 -118.5z" />
    <glyph glyph-name="period.sups" horiz-adv-x="143" 
d="M74 438l17 80h64l-17 -80h-64z" />
    <glyph glyph-name="hyphen.sups" horiz-adv-x="231" 
d="M88 563l11 51h181l-11 -51h-181z" />
    <glyph glyph-name="comma.sups" horiz-adv-x="161" 
d="M50 357l48 81h-16l17 80h65l-18 -84l-46 -77h-50z" />
    <glyph glyph-name="a.subs" horiz-adv-x="253" 
d="M89 -128l8 41q-32 -49 -87 -49q-30 0 -47.5 17t-17.5 46q0 13 4 30q8 35 35 56q24 19 78 36l61 20l5 20q3 7 3 23q0 30 -36 30q-25 0 -38 -11.5t-19 -40.5l-1 -5h-55l1 5q8 49 34 71t76 22q98 0 98 -68q0 -17 -4 -33l-25 -112q-12 -64 -16 -98h-57zM9 -65q0 -30 31 -30
q50 0 66 79l10 49l-43 -16q-30 -12 -43 -23.5t-18 -33.5q-3 -15 -3 -25z" />
    <glyph glyph-name="b.subs" horiz-adv-x="273" 
d="M208 46l-9 -43q-15 -71 -43 -105t-75 -34q-27 0 -43.5 14t-18.5 38l-9 -44h-63l87 409h61l-32 -150q12 23 34.5 37t48.5 14q68 0 68 -82q0 -24 -6 -54zM30 -36q0 -54 40 -54q28 0 42.5 24.5t26.5 82.5l3 15q9 49 9 65q0 41 -32 41q-57 0 -81 -115q-8 -40 -8 -59z" />
    <glyph glyph-name="c.subs" horiz-adv-x="251" 
d="M172 -21l-1 -6q-9 -55 -41 -82t-79 -27q-93 0 -93 90q0 22 6 49l9 43q15 69 47.5 103t89.5 34q38 0 62 -19t24 -59q0 -13 -3 -30l-1 -5h-59l1 5q4 16 4 30q0 35 -35 35q-29 0 -42 -23t-26 -81l-6 -25q-9 -45 -9 -64q0 -21 7.5 -31t27.5 -10q23 0 36.5 15.5t21.5 51.5l1 6
h58z" />
    <glyph glyph-name="d.subs" horiz-adv-x="275" 
d="M101 -128l9 44q-29 -52 -81 -52q-71 0 -71 81q0 29 7 58l8 42q29 137 117 137q26 0 43.5 -14t20.5 -37l32 150h62l-87 -409h-60zM22 -50q0 -40 32 -40q57 0 81 113q7 32 7 60q0 55 -40 55q-27 0 -42.5 -26t-25.5 -81l-3 -15q-9 -49 -9 -66z" />
    <glyph glyph-name="e.subs" horiz-adv-x="258" 
d="M176 -26l-1 -5q-21 -105 -122 -105q-94 0 -94 93q0 18 5 45l10 46q15 68 47 101.5t88 33.5q91 0 91 -86q0 -29 -7 -58l-4 -20h-159l-1 -8q-8 -40 -8 -61q0 -44 35 -44q47 0 59 63l1 5h60zM39 60l-1 -5h101l1 5q6 24 6 41q0 40 -40 40q-29 0 -43.5 -19.5t-23.5 -61.5z" />
    <glyph glyph-name="f.subs" horiz-adv-x="156" 
d="M-42 -128l56 263h-39l9 41h38l6 31q9 44 30.5 59t68.5 15h30l-9 -40h-17q-21 0 -28.5 -7t-11.5 -29l-6 -29h50l-9 -41h-50l-56 -263h-62z" />
    <glyph glyph-name="g.subs" horiz-adv-x="280" 
d="M229 176l-60 -282q-15 -68 -44.5 -98t-89.5 -30q-43 0 -66.5 18.5t-23.5 51.5q0 8 2 22l1 5h55l-1 -5q-2 -14 -2 -15q0 -33 39 -33q28 0 42.5 15t23.5 57l11 50q-34 -52 -82 -52q-74 0 -74 84q0 22 6 49l8 38q27 131 123 131q26 0 41 -14.5t19 -37.5l10 46h62zM25 -30
q0 -44 34 -44q31 0 48.5 24.5t29.5 78.5q8 38 8 59q0 49 -41 49q-28 0 -42.5 -23t-26.5 -75l-2 -9q-8 -40 -8 -60z" />
    <glyph glyph-name="h.subs" horiz-adv-x="267" 
d="M-53 -128l87 409h62l-32 -150q31 52 85 52q58 0 58 -62q0 -23 -5 -44l-44 -205h-61l39 184q8 38 8 49q0 33 -29 33q-50 0 -70 -100l-35 -166h-63z" />
    <glyph glyph-name="i.subs" horiz-adv-x="124" 
d="M-51 -128l64 302h62l-64 -302h-62zM21 216l14 65h62l-14 -65h-62z" />
    <glyph glyph-name="j.subs" horiz-adv-x="126" 
d="M-118 -228l9 42h13q20 0 26.5 8.5t12.5 37.5l67 314h62l-66 -313q-11 -52 -33.5 -70.5t-70.5 -18.5h-20zM18 216l14 65h62l-14 -65h-62z" />
    <glyph glyph-name="k.subs" horiz-adv-x="243" 
d="M-52 -128l87 409h59l-47 -221l110 115h59l-95 -102l41 -201h-53l-30 160l-48 -53l-23 -107h-60z" />
    <glyph glyph-name="l.subs" horiz-adv-x="123" 
d="M-52 -128l87 409h62l-87 -409h-62z" />
    <glyph glyph-name="m.subs" horiz-adv-x="406" 
d="M-51 -128l64 303h60l-9 -46q32 54 80 54q56 0 58 -59q32 59 85 59q58 0 58 -65q0 -22 -5 -46l-43 -200h-62l39 183q7 33 7 49q0 32 -24 32q-48 0 -66 -88l-37 -176h-62l41 193q6 32 6 41q0 30 -26 30q-46 0 -67 -99l-35 -165h-62z" />
    <glyph glyph-name="uni207F.002" horiz-adv-x="269" 
d="M-52 -128l64 303h62l-9 -44q31 53 85 53q60 0 60 -62q0 -20 -6 -45l-44 -205h-62l39 184q7 33 7 50q0 33 -28 33q-49 0 -71 -101l-35 -166h-62z" />
    <glyph glyph-name="o.subs" horiz-adv-x="262" 
d="M21 -51q0 -43 35 -43q30 0 43.5 24.5t26.5 82.5l5 22q8 40 8 62q0 43 -34 43q-30 0 -44.5 -25.5t-25.5 -79.5l-5 -22q-9 -45 -9 -64zM196 45l-9 -42q-15 -72 -45 -105.5t-86 -33.5q-97 0 -97 91q0 24 5 48l9 42q15 70 46.5 104t87.5 34q94 0 94 -92q0 -25 -5 -46z" />
    <glyph glyph-name="p.subs" horiz-adv-x="274" 
d="M-73 -228l85 402h61l-9 -44q12 24 35 38.5t49 14.5q68 0 68 -80q0 -22 -8 -59l-9 -41q-16 -72 -42.5 -105.5t-75.5 -33.5q-26 0 -43 15t-19 37l-30 -144h-62zM31 -36q0 -54 40 -54q28 0 42 24t26 82l3 14q9 49 9 67q0 41 -32 41q-56 0 -80 -114q-8 -40 -8 -60z" />
    <glyph glyph-name="q.subs" horiz-adv-x="276" 
d="M80 -228l30 144q-29 -52 -85 -52q-67 0 -67 81q0 25 6 58l10 41q28 139 118 139q26 0 43 -14.5t20 -38.5l9 44h62l-85 -402h-61zM22 -48q0 -42 33 -42q56 0 80 114q7 29 7 60q0 54 -40 54q-26 0 -41 -25.5t-27 -82.5l-3 -14q-9 -39 -9 -64z" />
    <glyph glyph-name="r.subs" horiz-adv-x="170" 
d="M-52 -128l64 303h61l-13 -61q26 61 80 61h10l-12 -59h-19q-34 0 -49.5 -17.5t-25.5 -65.5l-34 -161h-62z" />
    <glyph glyph-name="s.subs" horiz-adv-x="242" 
d="M165 -24q0 -50 -29.5 -81t-82.5 -31q-49 0 -75.5 24t-26.5 64q0 2 2 16l1 5h58l-1 -5q-2 -14 -2 -19q0 -41 40 -41q25 0 41 14.5t16 38.5q0 25 -31 38l-40 18q-52 20 -52 61q0 49 29.5 77.5t83.5 28.5q40 0 64.5 -19t24.5 -53q0 -7 -2 -21l-1 -5h-55l1 5q1 3 1 7v7
q0 36 -37 36q-23 0 -37 -13.5t-14 -34.5q0 -19 25 -31l38 -18q31 -14 46 -28.5t15 -39.5z" />
    <glyph glyph-name="t.subs" horiz-adv-x="157" 
d="M68 -128h-45q-31 0 -44 9t-13 32q0 10 5 35l40 187h-39l9 41h38l16 79h62l-16 -79h50l-9 -41h-50l-38 -180q-3 -15 -3 -23q0 -12 5.5 -15.5t21.5 -3.5h18z" />
    <glyph glyph-name="u.subs" horiz-adv-x="262" 
d="M91 -128l10 45q-32 -53 -79 -53q-62 0 -62 63q0 21 6 48l42 200h62l-38 -183q-7 -35 -7 -50q0 -32 25 -32q45 0 67 100l35 165h62l-64 -303h-59z" />
    <glyph glyph-name="v.subs" horiz-adv-x="228" 
d="M-4 -128l-12 304h62l-1 -239l103 239h58l-140 -304h-70z" />
    <glyph glyph-name="w.subs" horiz-adv-x="313" 
d="M-28 -128l17 304h51l-19 -236l91 236h53l-7 -236l79 236h50l-106 -304h-63l8 244l-92 -244h-62z" />
    <glyph glyph-name="x.subs" horiz-adv-x="225" 
d="M84 -128l-33 101l-77 -101h-58l117 155l-48 149h58l31 -96l72 96h58l-113 -149l51 -155h-58z" />
    <glyph glyph-name="y.subs" horiz-adv-x="227" 
d="M-80 -228l8 42h19q20 0 29.5 7.5t20.5 32.5l8 18l-21 304h62l3 -239l97 239h57l-137 -306q-29 -62 -50.5 -80t-68.5 -18h-27z" />
    <glyph glyph-name="z.subs" horiz-adv-x="220" 
d="M-72 -128l9 40l175 223h-116l9 41h181l-9 -41l-175 -222h133l-9 -41h-198z" />
    <glyph glyph-name="uni2080.zero" horiz-adv-x="306" 
d="M242 102l-11 -53q-21 -98 -57.5 -141.5t-104.5 -43.5q-51 0 -74 23t-23 72q0 30 12 90l12 53q21 99 57 142t104 43q51 0 73.5 -23t22.5 -73q0 -34 -11 -89zM34 -39q0 -55 43 -55q39 0 57 35t36 120l5 26l-135 -67q-6 -34 -6 -59zM54 91l-5 -23l135 66q7 40 7 60
q0 27 -9.5 39t-33.5 12q-38 0 -57 -35.5t-37 -118.5z" />
    <glyph glyph-name="period.subs" horiz-adv-x="143" 
d="M-45 -128l17 80h64l-17 -80h-64z" />
    <glyph glyph-name="hyphen.subs" horiz-adv-x="231" 
d="M-31 -3l11 51h181l-11 -51h-181z" />
    <glyph glyph-name="comma.subs" horiz-adv-x="161" 
d="M-69 -209l48 81h-16l17 80h65l-18 -84l-46 -77h-50z" />
    <glyph glyph-name="uni207C.003" horiz-adv-x="342" 
d="M-7 -65v54h250v-54h-250zM-7 54v54h250v-54h-250z" />
    <glyph glyph-name="uni207A.004" horiz-adv-x="346" 
d="M94 -128v123h-120v54h120v123h56v-123h120v-54h-120v-123h-56z" />
    <glyph glyph-name="uni207B.005" horiz-adv-x="338" 
d="M-23 -7v54h285v-54h-285z" />
    <glyph glyph-name="one.frac" horiz-adv-x="183" 
d="M87 317l67 314h-74l8 41q52 0 66 8t30 45h49l-87 -408h-59z" />
    <glyph glyph-name="two.frac" horiz-adv-x="275" 
d="M33 317l10 47l56 58q68 69 93.5 96.5t49.5 66t24 67.5q0 38 -41 38q-31 0 -45.5 -18t-23.5 -61l-1 -5h-60l1 5q13 63 42.5 92.5t86.5 29.5q46 0 74.5 -20t28.5 -57q0 -27 -9.5 -52.5t-38 -60.5t-48 -56t-71.5 -74l-46 -47h156l-10 -49h-228z" />
    <glyph glyph-name="three.frac" horiz-adv-x="288" 
d="M292 442q-15 -133 -143 -133q-47 0 -75 20.5t-28 61.5q0 16 4 32l1 5h59l-1 -5q-4 -15 -4 -29q0 -43 43 -43q62 0 78 78q3 15 3 28q0 49 -62 49h-22l10 45h21q62 0 78 71q3 15 3 27q0 41 -41 41q-50 0 -63 -69l-1 -5h-59l1 5q22 111 123 111q44 0 73.5 -18.5t29.5 -56.5
v-8q0 -5 -1 -8q-4 -44 -26.5 -71.5t-55.5 -36.5q56 -18 56 -75v-8q0 -5 -1 -8z" />
    <glyph glyph-name="four.frac" horiz-adv-x="292" 
d="M177 317l22 104h-157l10 46l208 258h61l-54 -255h47l-11 -49h-47l-22 -104h-57zM106 470h103l36 171z" />
    <glyph glyph-name="five.frac" horiz-adv-x="279" 
d="M296 465l-6 -28q-26 -128 -140 -128q-46 0 -73 21.5t-27 63.5q0 14 3 30l1 5h60l-1 -5q-3 -15 -3 -28q0 -44 43 -44q57 0 74 87l5 23q4 15 4 36q0 51 -41 51q-39 0 -64 -48l-55 2l67 222h199l-11 -49h-150l-39 -127q28 43 80 43q79 0 79 -83q0 -17 -5 -44z" />
    <glyph glyph-name="six.frac" horiz-adv-x="292" 
d="M309 459l-5 -22q-14 -66 -47 -97t-90 -31q-102 0 -102 100q0 39 8 70l12 56q21 104 58 151t107 47q89 0 89 -78q0 -13 -3 -30l-1 -5h-58l1 5q3 15 3 25q0 40 -40 40q-35 0 -54.5 -32t-34.5 -105l-3 -15q28 49 82 49q83 0 83 -84q0 -17 -5 -44zM124 405q0 -53 42 -53
q60 0 76 87l3 15q4 15 4 36q0 52 -44 52q-27 0 -46.5 -23t-27.5 -65l-3 -15q-4 -15 -4 -34z" />
    <glyph glyph-name="seven.frac" horiz-adv-x="230" 
d="M117 317h-65q59 230 211 359h-173l11 49h226l-11 -49q-81 -70 -126.5 -154t-72.5 -205z" />
    <glyph glyph-name="eight.frac" horiz-adv-x="301" 
d="M312 460q0 -66 -37 -108.5t-109 -42.5q-113 0 -113 86q0 56 25.5 92t66.5 49q-16 6 -28.5 23t-12.5 43q0 55 34 92.5t97 37.5q47 0 77.5 -18t30.5 -57q0 -52 -24.5 -83t-55.5 -38q49 -20 49 -76zM114 402q0 -50 52 -50q64 0 79 76l1 5q3 15 3 25q0 53 -50 53
q-67 0 -81 -75l-1 -5q-3 -15 -3 -29zM166 596q0 -43 42 -43q53 0 67 67l1 5q2 14 2 23q0 42 -42 42q-53 0 -66 -64l-1 -5q-3 -15 -3 -25z" />
    <glyph glyph-name="nine.frac" horiz-adv-x="298" 
d="M327 564l-12 -56q-23 -106 -57.5 -152.5t-105.5 -46.5q-89 0 -89 79q0 15 3 30l1 5h57l-1 -5q-2 -10 -2 -26q0 -40 38 -40q35 0 55 33t35 105l3 16q-28 -49 -82 -49q-84 0 -84 85q0 14 5 39l5 25q25 126 141 126q51 0 75 -23t24 -74q0 -29 -9 -71zM152 553q0 -51 44 -51
q57 0 74 86l3 15q4 15 4 37q0 50 -42 50q-60 0 -76 -85l-3 -15q-4 -17 -4 -37z" />
    <glyph glyph-name="zero.frac" horiz-adv-x="307" 
d="M126 406q0 -55 45 -55q39 0 56.5 34.5t35.5 120.5l6 29q14 72 14 100q0 54 -43 54q-39 0 -58 -35.5t-35 -118.5l-6 -29q-15 -68 -15 -100zM334 546l-11 -52q-20 -99 -54.5 -142t-101.5 -43q-54 0 -78 24.5t-24 76.5q0 32 11 84l11 52q22 102 53 144t100 42
q105 0 105 -101q0 -33 -11 -85z" />
    <glyph glyph-name="zero.frac_zero" horiz-adv-x="306" 
d="M335 547l-11 -53q-21 -98 -57.5 -141.5t-104.5 -43.5q-51 0 -74 23t-23 72q0 30 12 90l12 53q21 99 57 142t104 43q51 0 73.5 -23t22.5 -73q0 -34 -11 -89zM127 406q0 -55 43 -55q39 0 57 35t36 120l5 26l-135 -67q-6 -35 -6 -59zM147 536l-5 -23l135 66q7 40 7 60
q0 27 -9.5 39t-33.5 12q-38 0 -57 -35.5t-37 -118.5z" />
    <glyph glyph-name="one.dnom" horiz-adv-x="183" 
d="M20 0l67 314h-74l8 41q52 0 66 8t30 45h49l-87 -408h-59z" />
    <glyph glyph-name="two.dnom" horiz-adv-x="275" 
d="M-34 0l10 47l56 58q68 69 93.5 96.5t49.5 66t24 67.5q0 38 -41 38q-31 0 -45.5 -18t-23.5 -61l-1 -5h-60l1 5q13 63 42.5 92.5t86.5 29.5q46 0 74.5 -20t28.5 -57q0 -27 -9.5 -52.5t-38 -60.5t-48 -56t-71.5 -74l-46 -47h156l-10 -49h-228z" />
    <glyph glyph-name="three.dnom" horiz-adv-x="288" 
d="M225 125q-15 -133 -143 -133q-47 0 -75 20.5t-28 61.5q0 16 4 32l1 5h59l-1 -5q-4 -15 -4 -29q0 -43 43 -43q62 0 78 78q3 15 3 28q0 49 -62 49h-22l10 45h21q62 0 78 71q3 15 3 27q0 41 -41 41q-50 0 -63 -69l-1 -5h-59l1 5q22 111 123 111q44 0 73.5 -18.5t29.5 -56.5
v-8q0 -5 -1 -8q-4 -44 -26.5 -71.5t-55.5 -36.5q56 -18 56 -75v-8q0 -5 -1 -8z" />
    <glyph glyph-name="four.dnom" horiz-adv-x="292" 
d="M110 0l22 104h-157l10 46l208 258h61l-54 -255h47l-11 -49h-47l-22 -104h-57zM39 153h103l36 171z" />
    <glyph glyph-name="five.dnom" horiz-adv-x="279" 
d="M229 148l-6 -28q-26 -128 -140 -128q-46 0 -73 21.5t-27 63.5q0 13 3 30l1 5h60l-1 -5q-3 -15 -3 -28q0 -44 43 -44q57 0 74 87l5 23q4 15 4 36q0 51 -41 51q-39 0 -64 -48l-55 2l67 222h199l-11 -49h-150l-39 -127q28 43 80 43q79 0 79 -83q0 -17 -5 -44z" />
    <glyph glyph-name="six.dnom" horiz-adv-x="292" 
d="M242 142l-5 -22q-14 -66 -47 -97t-90 -31q-102 0 -102 100q0 39 8 70l12 56q21 104 58 151t107 47q89 0 89 -78q0 -14 -3 -30l-1 -5h-58l1 5q3 15 3 25q0 40 -40 40q-35 0 -54.5 -32t-34.5 -105l-3 -15q28 49 82 49q83 0 83 -84q0 -17 -5 -44zM57 88q0 -53 42 -53
q59 0 76 87l3 15q4 15 4 36q0 52 -44 52q-27 0 -46.5 -23t-27.5 -65l-3 -15q-4 -15 -4 -34z" />
    <glyph glyph-name="seven.dnom" horiz-adv-x="230" 
d="M50 0h-65q59 230 211 359h-173l11 49h226l-11 -49q-81 -70 -126.5 -154t-72.5 -205z" />
    <glyph glyph-name="eight.dnom" horiz-adv-x="301" 
d="M245 143q0 -66 -37 -108.5t-109 -42.5q-113 0 -113 86q0 56 25.5 92t66.5 49q-16 6 -28.5 23t-12.5 43q0 55 34 92.5t97 37.5q47 0 77.5 -18t30.5 -57q0 -52 -24.5 -83t-55.5 -38q49 -20 49 -76zM47 85q0 -50 52 -50q64 0 79 76l1 5q3 15 3 25q0 53 -50 53q-67 0 -81 -75
l-1 -5q-3 -15 -3 -29zM99 279q0 -43 42 -43q53 0 67 67l1 5q2 14 2 23q0 42 -42 42q-53 0 -66 -64l-1 -5q-3 -15 -3 -25z" />
    <glyph glyph-name="nine.dnom" horiz-adv-x="298" 
d="M260 247l-12 -56q-23 -106 -57.5 -152.5t-105.5 -46.5q-89 0 -89 79q0 15 3 30l1 5h57l-1 -5q-2 -10 -2 -26q0 -40 38 -40q35 0 55 33t35 105l3 16q-28 -49 -82 -49q-84 0 -84 85q0 14 5 39l5 25q25 126 141 126q51 0 75 -23t24 -74q0 -29 -9 -71zM85 236q0 -51 44 -51
q57 0 74 86l3 15q4 15 4 37q0 50 -42 50q-60 0 -76 -85l-3 -15q-4 -17 -4 -37z" />
    <glyph glyph-name="zero.dnom" horiz-adv-x="307" 
d="M59 89q0 -55 45 -55q39 0 56.5 34.5t35.5 120.5l6 29q14 72 14 100q0 54 -43 54q-39 0 -58 -35.5t-35 -118.5l-6 -29q-15 -68 -15 -100zM267 229l-11 -52q-20 -99 -54.5 -142t-101.5 -43q-54 0 -78 24.5t-24 76.5q0 32 11 84l11 52q22 102 53 144t100 42q105 0 105 -101
q0 -33 -11 -85z" />
    <glyph glyph-name="zero.dnom_zero" horiz-adv-x="306" 
d="M268 230l-11 -53q-20 -99 -55 -142t-103 -43q-101 0 -101 95q0 30 12 90l11 53q21 100 55 142.5t102 42.5q51 0 76 -23t25 -73q0 -34 -11 -89zM60 89q0 -55 43 -55q26 0 43.5 20.5t24.5 42.5t22 81q1 2 1.5 3.5t1 3.5t0.5 4l6 26l-136 -67q-6 -34 -6 -59zM81 219l-6 -23
l137 66q5 38 5 60q0 27 -9.5 39t-33.5 12q-16 0 -28.5 -7.5t-20.5 -17.5t-16.5 -33.5t-13.5 -41t-14 -54.5z" />
    <glyph glyph-name="ampersand.case" horiz-adv-x="604" 
d="M485 400h79q-37 -158 -109 -256l79 -144h-97l-41 76q-89 -89 -206 -89q-88 0 -139 42t-51 116q0 57 23 102t59.5 76.5t99.5 71.5l30 18q-45 84 -45 134q0 85 50.5 138t133.5 53q60 0 101 -27t41 -80q0 -115 -175 -223l-6 -4l104 -190q40 66 69 186zM197 56q100 0 165 81
l-121 223l-26 -16q-122 -79 -122 -186q0 -48 26.5 -75t77.5 -27zM251 560q0 -39 32 -101v-2l6 4q61 39 92 76t31 83q0 53 -66 53q-46 0 -70.5 -31t-24.5 -82z" />
    <glyph glyph-name="hyphen.006" horiz-adv-x="400" 
d="M60 331l17 79h308l-17 -79h-308z" />
    <glyph glyph-name="endash.007" horiz-adv-x="496" 
d="M44 329l17 81h436l-16 -81h-437z" />
    <glyph glyph-name="emdash.008" horiz-adv-x="725" 
d="M44 329l17 81h671l-16 -81h-672z" />
    <glyph glyph-name="question.case" horiz-adv-x="471" 
d="M149 194l11 50q13 67 42 100t94 74q113 69 113 177q0 34 -22.5 55t-65.5 21q-115 0 -144 -145l-2 -10h-95l2 10q42 212 236 212q77 0 133 -33.5t56 -97.5q0 -141 -145 -230q-54 -32 -74 -55.5t-31 -79.5l-10 -48h-98zM103 0l23 108h108l-23 -108h-108z" />
    <glyph glyph-name="questiondown.case" horiz-adv-x="471" 
d="M362 534l-10 -50q-15 -67 -43 -100.5t-93 -73.5q-112 -69 -112 -176q0 -80 85 -80q115 0 147 147l2 9h95l-2 -9q-46 -214 -240 -214q-80 0 -133 32.5t-53 102.5q0 136 146 229q55 33 74.5 56t30.5 78l11 49h95zM278 617l23 108h108l-23 -108h-108z" />
    <glyph glyph-name="exclam.case" horiz-adv-x="251" 
d="M78 191l51 331l43 203h101l-43 -203l-90 -331h-62zM15 0l23 108h108l-23 -108h-108z" />
    <glyph glyph-name="exclamdown.case" horiz-adv-x="254" 
d="M213 534l-51 -331l-43 -203h-101l43 203l90 331h62zM146 617l23 108h108l-23 -108h-108z" />
    <glyph glyph-name="guilsinglleft.009" horiz-adv-x="173" 
d="M133 178l-102 146l23 107l162 141l-23 -105l-102 -94l64 -90z" />
    <glyph glyph-name="guilsinglright.010" horiz-adv-x="173" 
d="M84 568l102 -146l-23 -107l-162 -141l23 105l102 94l-64 90z" />
    <glyph glyph-name="guilsinglleft_guilsinglleft" horiz-adv-x="323" 
d="M283 175l-102 146l23 107l162 141l-23 -105l-102 -94l64 -90zM133 175l-102 146l23 107l162 141l-23 -105l-102 -94l64 -90z" />
    <glyph glyph-name="guilsinglright_guilsinglright" horiz-adv-x="323" 
d="M234 568l102 -146l-23 -107l-162 -141l23 105l102 94l-64 90zM84 568l102 -146l-23 -107l-162 -141l23 105l102 94l-64 90z" />
    <glyph glyph-name="parenleft.case" horiz-adv-x="238" 
d="M175 0h-82q-52 109 -52 239q0 63 13 125q43 197 191 361h81q-147 -179 -184 -361q-15 -72 -15 -136q0 -118 48 -228z" />
    <glyph glyph-name="parenright.case" horiz-adv-x="239" 
d="M23 0h-81q90 110 143.5 242t53.5 255q0 112 -45 228h80q51 -111 51 -238q0 -135 -58.5 -262.5t-143.5 -224.5z" />
    <glyph glyph-name="bracketleft.case" horiz-adv-x="275" 
d="M23 0l154 725h193l-14 -65h-117l-126 -594h116l-14 -66h-192z" />
    <glyph glyph-name="bracketright.case" horiz-adv-x="278" 
d="M-62 0l14 66h116l126 594h-117l14 65h192l-154 -725h-191z" />
    <glyph glyph-name="braceleft.case" horiz-adv-x="264" 
d="M199 0h-23q-70 0 -99.5 18.5t-29.5 66.5q0 30 7 59l15 72q7 33 7 54q0 58 -56 59l15 70q44 0 64.5 29t31.5 84l14 69q18 83 56.5 113.5t125.5 30.5h24l-15 -69h-12q-54 0 -72.5 -16t-28.5 -65l-15 -73q-13 -65 -40 -96t-68 -42v-1q28 -9 42.5 -27.5t14.5 -54.5
q0 -15 -7 -55l-16 -76q-5 -27 -5 -39q0 -24 15 -33t57 -9h13z" />
    <glyph glyph-name="braceright.case" horiz-adv-x="263" 
d="M-63 0l15 69h11q54 0 73.5 16t29.5 65l16 76q14 65 39.5 96t66.5 41v2q-29 9 -43 27t-14 54q0 16 7 56l15 72q5 27 5 43q0 23 -14.5 30.5t-57.5 7.5h-13l15 70h19q68 0 100.5 -18t32.5 -62q0 -33 -7 -65l-14 -68q-7 -35 -7 -54q0 -58 57 -59l-15 -70q-44 0 -64.5 -29
t-32.5 -84l-15 -72q-18 -87 -50 -115.5t-117 -28.5h-38z" />
    <glyph glyph-name="bar.case" horiz-adv-x="227" 
d="M72 0v725h83v-725h-83z" />
    <glyph glyph-name="brokenbar.case" horiz-adv-x="203" 
d="M143 465h-83v260h83v-260zM60 0v260h83v-260h-83z" />
    <glyph glyph-name="period.011" horiz-adv-x="211" 
d="M69 308l23 108h108l-23 -108h-108z" />
    <glyph glyph-name="bullet.012" horiz-adv-x="462" 
d="M433 371q0 -78 -52.5 -130.5t-131.5 -52.5q-73 0 -124.5 53t-51.5 130q0 73 52 125t124 52q78 0 131 -51.5t53 -125.5z" />
    <glyph glyph-name="plus.013" 
d="M257 95v233h-209v72h209v233h75v-233h209v-72h-209v-233h-75z" />
    <glyph glyph-name="minus.014" 
d="M47 328v73h492v-73h-492z" />
    <glyph glyph-name="divide.015" 
d="M244 134v119h100v-119h-100zM58 328v73h472v-73h-472zM244 473v118h100v-118h-100z" />
    <glyph glyph-name="multiply.016" 
d="M129 131l-51 53l165 178l-166 180l52 52l164 -178l165 177l52 -52l-166 -179l166 -179l-52 -52l-164 177z" />
    <glyph glyph-name="equal.017" 
d="M83 217v72h421v-72h-421zM83 438v72h421v-72h-421z" />
    <glyph glyph-name="plusminus.018" 
d="M239 215v173h-205v72h205v173h75v-173h205v-72h-205v-173h-75zM34 95v72h485v-72h-485z" />
    <glyph glyph-name="less.019" 
d="M473 98l-407 227v78l407 228v-82l-323 -185l323 -184v-82z" />
    <glyph glyph-name="greater.020" 
d="M522 325l-407 -227v82l323 184l-323 185v82l407 -228v-78z" />
    <glyph glyph-name="lessequal.021" 
d="M511 636v-76l-362 -138l362 -140v-77l-470 177v78zM41 95v72h470v-72h-470z" />
    <glyph glyph-name="greaterequal.022" 
d="M60 560v76l470 -176v-78l-470 -177v77l362 140zM530 167v-72h-470v72h470z" />
    <glyph glyph-name="notequal.023" 
d="M83 438v72h241l60 123h83l-60 -123h97v-72h-133l-73 -149h206v-72h-241l-59 -122h-84l60 122h-97v72h132l73 149h-205z" />
    <glyph glyph-name="acute.case" horiz-adv-x="222" 
d="M133 774l81 113h115l-116 -113h-80z" />
    <glyph glyph-name="breve.case" horiz-adv-x="315" 
d="M353 886h69q-13 -57 -46.5 -85t-99.5 -28q-53 0 -87 24t-34 67v10q0 4 2 12h69q-1 -3 -1 -9v-6q0 -51 57 -51q56 0 71 66z" />
    <glyph glyph-name="caron.case" horiz-adv-x="362" 
d="M335 774h-85l-93 113h89l52 -67l80 67h91z" />
    <glyph glyph-name="cedilla.case" horiz-adv-x="241" 
d="M135 -105q0 -42 -37.5 -65t-89.5 -23q-45 0 -78 13l21 38q22 -12 55 -12q28 0 47 11t19 33q0 26 -38 26q-26 0 -43 -9l-19 16l65 78h44l-44 -53q15 3 32 3q26 0 46 -17.5t20 -38.5z" />
    <glyph glyph-name="circumflex.case" horiz-adv-x="356" 
d="M133 774l128 113h86l92 -113h-89l-53 68l-74 -68h-90z" />
    <glyph glyph-name="dieresis.case" horiz-adv-x="327" 
d="M133 778l22 104h82l-22 -104h-82zM328 778l23 104h81l-22 -104h-82z" />
    <glyph glyph-name="dotaccent.case" horiz-adv-x="143" 
d="M134 781l22 103h93l-22 -103h-93z" />
    <glyph glyph-name="grave.case" horiz-adv-x="250" 
d="M255 774l-98 113h112l64 -113h-78z" />
    <glyph glyph-name="hungarumlaut.case" horiz-adv-x="390" 
d="M306 774l82 113h109l-111 -113h-80zM133 774l81 113h110l-111 -113h-80z" />
    <glyph glyph-name="overscore.case" horiz-adv-x="286" 
d="M138 801l14 66h236l-14 -66h-236z" />
    <glyph glyph-name="ogonek.case" horiz-adv-x="221" 
d="M111 -128l-11 -54q-28 -6 -59 -6q-39 0 -67.5 18.5t-28.5 50.5q0 37 28.5 68.5t75.5 50.5h90q-109 -48 -109 -98q0 -16 12 -25.5t32 -9.5q19 0 37 5z" />
    <glyph glyph-name="ring.case" horiz-adv-x="230" 
d="M327 850q0 -35 -25 -59t-62 -24q-38 0 -63.5 24t-25.5 59q0 36 26 60t63 24q36 0 61.5 -24t25.5 -60zM190 850q0 -21 14.5 -34.5t35.5 -13.5q20 0 34.5 13.5t14.5 34.5q0 22 -14.5 36t-34.5 14q-21 0 -35.5 -13.5t-14.5 -36.5z" />
    <glyph glyph-name="tilde.case" horiz-adv-x="360" 
d="M198 776h-65q34 105 117 105q26 0 56.5 -25.5t45.5 -25.5q28 0 48 51h65q-38 -105 -120 -105q-28 0 -56.5 24t-41.5 24q-33 0 -49 -48z" />
    <glyph glyph-name="a.salt" horiz-adv-x="483" 
d="M276 0l17 85q-22 -43 -64 -70.5t-92 -27.5q-123 0 -123 138q0 45 12 102l17 78q49 241 211 241q49 0 80 -27t36 -71l18 86h91l-114 -534h-89zM108 138q0 -86 68 -86q115 0 160 214q13 58 13 103q0 112 -83 112q-53 0 -84 -48.5t-52 -151.5l-6 -29q-16 -68 -16 -114z" />
    <glyph glyph-name="aacute.salt" horiz-adv-x="483" 
d="M259 605l90 120h109l-127 -120h-72zM276 0l17 85q-22 -43 -64 -70.5t-92 -27.5q-123 0 -123 138q0 45 12 102l17 78q49 241 211 241q49 0 80 -27t36 -71l18 86h91l-114 -534h-89zM108 138q0 -86 68 -86q115 0 160 214q13 58 13 103q0 112 -83 112q-53 0 -84 -48.5
t-52 -151.5l-6 -29q-16 -68 -16 -114z" />
    <glyph glyph-name="abreve.salt" horiz-adv-x="483" 
d="M276 0l17 85q-22 -43 -64 -70.5t-92 -27.5q-123 0 -123 138q0 45 12 102l17 78q49 241 211 241q49 0 80 -27t36 -71l18 86h91l-114 -534h-89zM108 138q0 -86 68 -86q115 0 160 214q13 58 13 103q0 112 -83 112q-53 0 -84 -48.5t-52 -151.5l-6 -29q-16 -68 -16 -114z
M398 725h65q-15 -61 -48.5 -91.5t-99.5 -30.5q-116 0 -116 92q0 13 3 30h64q-2 -16 -2 -21q0 -49 55 -49q63 0 79 70z" />
    <glyph glyph-name="acircumflex.salt" horiz-adv-x="483" 
d="M149 606l133 119h79l84 -119h-82l-51 70l-80 -70h-83zM276 0l17 85q-22 -43 -64 -70.5t-92 -27.5q-123 0 -123 138q0 45 12 102l17 78q49 241 211 241q49 0 80 -27t36 -71l18 86h91l-114 -534h-89zM108 138q0 -86 68 -86q115 0 160 214q13 58 13 103q0 112 -83 112
q-53 0 -84 -48.5t-52 -151.5l-6 -29q-16 -68 -16 -114z" />
    <glyph glyph-name="adieresis.salt" horiz-adv-x="483" 
d="M168 616l23 108h80l-23 -108h-80zM365 616l23 108h80l-22 -108h-81zM276 0l17 85q-22 -43 -64 -70.5t-92 -27.5q-123 0 -123 138q0 45 12 102l17 78q49 241 211 241q49 0 80 -27t36 -71l18 86h91l-114 -534h-89zM108 138q0 -86 68 -86q115 0 160 214q13 58 13 103
q0 112 -83 112q-53 0 -84 -48.5t-52 -151.5l-6 -29q-16 -68 -16 -114z" />
    <glyph glyph-name="agrave.salt" horiz-adv-x="483" 
d="M276 0l17 85q-22 -43 -64 -70.5t-92 -27.5q-123 0 -123 138q0 45 12 102l17 78q49 241 211 241q49 0 80 -27t36 -71l18 86h91l-114 -534h-89zM108 138q0 -86 68 -86q115 0 160 214q13 58 13 103q0 112 -83 112q-53 0 -84 -48.5t-52 -151.5l-6 -29q-16 -68 -16 -114z
M275 606l-77 119h107l40 -119h-70z" />
    <glyph glyph-name="amacron.salt" horiz-adv-x="483" 
d="M276 0l17 85q-22 -43 -64 -70.5t-92 -27.5q-123 0 -123 138q0 45 12 102l17 78q49 241 211 241q49 0 80 -27t36 -71l18 86h91l-114 -534h-89zM108 138q0 -86 68 -86q115 0 160 214q13 58 13 103q0 112 -83 112q-53 0 -84 -48.5t-52 -151.5l-6 -29q-16 -68 -16 -114z
M198 636l13 64h231l-13 -64h-231z" />
    <glyph glyph-name="aogonek.salt" horiz-adv-x="488" 
d="M339 -127l-12 -54q-27 -7 -61 -7q-39 0 -67.5 18.5t-28.5 50.5q0 35 30 68t76 51l17 85q-22 -43 -64 -70.5t-92 -27.5q-123 0 -123 138q0 45 12 102l17 78q49 241 211 241q49 0 80 -27t36 -71l18 86h91l-114 -534q-112 -48 -112 -96q0 -16 13 -26.5t33 -10.5q16 0 40 6z
M108 138q0 -86 68 -86q115 0 160 214q13 58 13 103q0 112 -83 112q-53 0 -84 -48.5t-52 -151.5l-6 -29q-16 -68 -16 -114z" />
    <glyph glyph-name="aring.salt" horiz-adv-x="483" 
d="M407 678q0 -38 -25.5 -61.5t-64.5 -23.5t-64.5 23.5t-25.5 61.5q0 37 26 61.5t64 24.5t64 -24.5t26 -61.5zM268 678q0 -21 14 -34.5t35 -13.5t35 13.5t14 34.5t-14 35t-35 14t-35 -14t-14 -35zM276 0l17 85q-22 -43 -64 -70.5t-92 -27.5q-123 0 -123 138q0 45 12 102
l17 78q49 241 211 241q49 0 80 -27t36 -71l18 86h91l-114 -534h-89zM108 138q0 -86 68 -86q115 0 160 214q13 58 13 103q0 112 -83 112q-53 0 -84 -48.5t-52 -151.5l-6 -29q-16 -68 -16 -114z" />
    <glyph glyph-name="atilde.salt" horiz-adv-x="483" 
d="M276 0l17 85q-22 -43 -64 -70.5t-92 -27.5q-123 0 -123 138q0 45 12 102l17 78q49 241 211 241q49 0 80 -27t36 -71l18 86h91l-114 -534h-89zM108 138q0 -86 68 -86q115 0 160 214q13 58 13 103q0 112 -83 112q-53 0 -84 -48.5t-52 -151.5l-6 -29q-16 -68 -16 -114z
M222 621h-65q34 105 117 105q26 0 56.5 -25.5t45.5 -25.5q28 0 48 51h65q-38 -105 -120 -105q-28 0 -56.5 24t-41.5 24q-33 0 -49 -48z" />
    <glyph glyph-name="l.ss02" horiz-adv-x="230" 
d="M166 0h-47q-65 0 -90.5 14.5t-25.5 56.5q0 22 8 62l126 592h90l-122 -576q-6 -27 -6 -43q0 -23 14.5 -31.5t51.5 -8.5h15z" />
    <glyph glyph-name="lacute.ss02" horiz-adv-x="230" 
d="M166 0h-47q-65 0 -90.5 14.5t-25.5 56.5q0 22 8 62l126 592h90l-122 -576q-6 -27 -6 -43q0 -23 14.5 -31.5t51.5 -8.5h15zM171 774l81 113h115l-116 -113h-80z" />
    <glyph glyph-name="lcaron.ss02" horiz-adv-x="257" 
d="M234 555l62 170h86l-90 -170h-58zM166 0h-47q-65 0 -90.5 14.5t-25.5 56.5q0 22 8 62l126 592h90l-122 -576q-6 -27 -6 -43q0 -23 14.5 -31.5t51.5 -8.5h15z" />
    <glyph glyph-name="uni013C.ss02" horiz-adv-x="230" 
d="M-30 -223l54 89h-34l17 84h89l-19 -90l-57 -83h-50zM166 0h-47q-65 0 -90.5 14.5t-25.5 56.5q0 22 8 62l126 592h90l-122 -576q-6 -27 -6 -43q0 -23 14.5 -31.5t51.5 -8.5h15z" />
    <glyph glyph-name="ldot.ss02" horiz-adv-x="282" 
d="M166 0h-47q-65 0 -90.5 14.5t-25.5 56.5q0 22 8 62l126 592h90l-122 -576q-6 -27 -6 -43q0 -23 14.5 -31.5t51.5 -8.5h15zM201 318l22 103h93l-22 -103h-93z" />
    <glyph glyph-name="lslash.ss02" horiz-adv-x="230" 
d="M-16 267l17 79l63 35l73 344h90l-61 -287l112 63l-16 -79l-113 -63l-44 -210q-6 -27 -6 -43q0 -23 14.5 -31.5t51.5 -8.5h15l-14 -66h-47q-65 0 -90.5 14.5t-25.5 56.5q0 22 8 62l36 169z" />
    <glyph glyph-name="fl.ss02" horiz-adv-x="496" 
d="M20 0l101 477h-71l13 61h71l13 60q16 75 50 101t110 26h52l-13 -60h-32q-40 0 -54 -13t-24 -59l-12 -55h96l-13 -61h-96l-101 -477h-90zM432 0h-47q-65 0 -90.5 14.5t-25.5 56.5q0 22 8 62l126 592h90l-122 -576q-6 -27 -6 -43q0 -23 14.5 -31.5t51.5 -8.5h15z" />
    <glyph glyph-name="germandbls.ss03" horiz-adv-x="506" 
d="M-37 -175l149 700q24 113 76.5 160.5t147.5 47.5q77 0 123.5 -35.5t46.5 -100.5q0 -85 -40 -131.5t-106 -59.5q103 -22 103 -131q0 -122 -62 -198.5t-191 -76.5h-58l13 61h46q81 0 120.5 59t39.5 149q0 51 -28.5 75.5t-91.5 24.5h-25l14 62h21q71 0 111.5 38t40.5 119
q0 82 -79 82q-55 0 -85 -33.5t-46 -109.5l-149 -702h-91z" />
    </font>
</defs>
</svg>
