<?xml version="1.0" standalone="no"?>
<!DOCTYPE svg PUBLIC "-//W3C//DTD SVG 1.1//EN" "http://www.w3.org/Graphics/SVG/1.1/DTD/svg11.dtd" >
<svg xmlns="http://www.w3.org/2000/svg" xmlns:xlink="http://www.w3.org/1999/xlink" version="1.1">
<metadata>
Created by FontForge 20170731 at Sun Jul 24 18:25:29 2016
 By Aleksey,,,
Copyright (c) 2015 Swiss Typefaces. All rights reserved.
</metadata>
<defs>
<font id="SuisseIntlCondensed-Semibold" horiz-adv-x="548" >
  <font-face 
    font-family="Suisse Int'l Condensed"
    font-weight="600"
    font-stretch="condensed"
    units-per-em="1000"
    panose-1="2 11 7 6 0 0 0 0 0 0"
    ascent="800"
    descent="-200"
    x-height="538"
    cap-height="725"
    bbox="-62 -237 1079 934"
    underline-thickness="80"
    underline-position="-270"
    unicode-range="U+0020-FB02"
  />
<missing-glyph horiz-adv-x="500" 
d="M0 0v725h500v-725h-500zM239 362l-220 334v-667zM260 362l221 -333v667zM250 346l-217 -327h433zM33 706l217 -328l216 328h-433z" />
    <glyph glyph-name=".notdef" horiz-adv-x="500" 
d="M0 0v725h500v-725h-500zM239 362l-220 334v-667zM260 362l221 -333v667zM250 346l-217 -327h433zM33 706l217 -328l216 328h-433z" />
    <glyph glyph-name=".null" horiz-adv-x="0" 
 />
    <glyph glyph-name="nonmarkingreturn" horiz-adv-x="333" 
 />
    <glyph glyph-name="space" unicode=" " horiz-adv-x="180" 
 />
    <glyph glyph-name="exclam" unicode="!" horiz-adv-x="255" 
d="M82 211l-20 322v192h131v-192l-21 -322h-90zM57 0v141h141v-141h-141z" />
    <glyph glyph-name="quotedbl" unicode="&#x22;" horiz-adv-x="311" 
d="M118 466h-84l-20 259h125zM276 466h-84l-20 259h125z" />
    <glyph glyph-name="numbersign" unicode="#" horiz-adv-x="586" 
d="M299 0l27 196h-118l-27 -196h-98l27 196h-93l11 92h94l23 164h-91l10 93h94l25 180h98l-25 -180h118l25 180h97l-25 -180h95l-11 -93h-97l-23 -164h95l-11 -92h-96l-27 -196h-97zM243 452l-23 -164h118l23 164h-118z" />
    <glyph glyph-name="dollar" unicode="$" horiz-adv-x="517" 
d="M239 -93v85q-211 13 -211 240v5h132v-5q0 -78 24.5 -113.5t80.5 -35.5q96 0 96 105q0 45 -22.5 72t-70.5 49l-72 33q-83 37 -121.5 83t-38.5 130q0 90 54 137.5t149 49.5v76h51v-78q186 -20 186 -211v-4h-130v4q0 122 -97 122q-84 0 -84 -91q0 -40 15 -62.5t49 -37.5
l78 -36q47 -20 74.5 -35.5t56.5 -41t42 -60.5t13 -83q0 -99 -52 -152.5t-151 -59.5v-85h-51z" />
    <glyph glyph-name="percent" unicode="%" horiz-adv-x="793" 
d="M254 0l224 725h59l-224 -725h-59zM637 45q12 0 20 3.5t13 13.5t8 18.5t4.5 27.5t1.5 32v41v5v35v5v40.5t-1.5 32t-4.5 28t-8 18t-13 13t-20 3.5q-17 0 -27 -8.5t-14.5 -29.5t-5.5 -42t-1 -60v-35q0 -40 1 -61t5.5 -42t14.5 -29.5t27 -8.5zM637 -8q-74 0 -102.5 43
t-28.5 140v57q0 97 28 140t103 43q73 0 102 -43.5t29 -139.5v-57q0 -96 -29 -139.5t-102 -43.5zM154 364q31 0 39 31.5t8 108.5v35q0 39 -1 60t-5.5 42t-14.5 29.5t-26 8.5q-17 0 -27.5 -8.5t-15 -29.5t-5.5 -42t-1 -60v-35q0 -39 1 -60t5.5 -42t15 -29.5t27.5 -8.5z
M154 310q-75 0 -103 43t-28 140v57q0 97 28 140t103 43q73 0 102 -43.5t29 -139.5v-57q0 -96 -29 -139.5t-102 -43.5z" />
    <glyph glyph-name="ampersand" unicode="&#x26;" horiz-adv-x="628" 
d="M235 -12q-99 0 -159 55t-60 149q0 67 32.5 109.5t103.5 90.5l22 15l-3 5q-40 52 -55.5 89t-15.5 85q0 70 49 111.5t127 41.5q70 0 120.5 -38.5t50.5 -114.5q0 -59 -30.5 -101t-89.5 -83l-9 -7l116 -151q30 69 30 156h103q-4 -137 -67 -242l121 -157h-135l-52 68
q-78 -81 -199 -81zM251 78q82 0 127 64l-148 192l-16 -11q-42 -30 -58 -58t-16 -70q0 -50 30.5 -83.5t80.5 -33.5zM208 587q0 -31 10.5 -53t38.5 -59l6 -8l10 7q72 52 72 108q0 70 -69 70q-29 0 -48.5 -17t-19.5 -48z" />
    <glyph glyph-name="quotesingle" unicode="'" horiz-adv-x="153" 
d="M118 466h-84l-20 259h125z" />
    <glyph glyph-name="parenleft" unicode="(" horiz-adv-x="255" 
d="M269 -175h-107q-54 84 -93.5 200t-39.5 250t39.5 252t93.5 198h107q-121 -197 -121 -450q0 -248 121 -450z" />
    <glyph glyph-name="parenright" unicode=")" horiz-adv-x="255" 
d="M92 -175h-107q121 202 121 450q0 253 -121 450h107q54 -82 94 -199t40 -251q0 -242 -134 -450z" />
    <glyph glyph-name="asterisk" unicode="*" horiz-adv-x="392" 
d="M133 407l-68 45l65 90l-106 38l28 75l103 -39v109h80v-109l106 39l28 -75l-108 -37l65 -90l-62 -46l-68 91z" />
    <glyph glyph-name="plus" unicode="+" 
d="M223 0v219h-203v100h203v219h103v-219h202v-100h-202v-219h-103z" />
    <glyph glyph-name="comma" unicode="," horiz-adv-x="237" 
d="M39 -150l69 150h-60v141h141v-149l-74 -142h-76z" />
    <glyph glyph-name="hyphen" unicode="-" horiz-adv-x="347" 
d="M46 202v112h255v-112h-255z" />
    <glyph glyph-name="period" unicode="." horiz-adv-x="237" 
d="M48 0v141h141v-141h-141z" />
    <glyph glyph-name="slash" unicode="/" horiz-adv-x="369" 
d="M0 0l243 725h126l-243 -725h-126z" />
    <glyph glyph-name="zero" unicode="0" horiz-adv-x="550" 
d="M274 74q27 0 45.5 12t29 31t15.5 55t6.5 70t1.5 91v60q0 47 -1 76.5t-4 63t-9.5 52.5t-17 36.5t-27 24.5t-39.5 7t-39.5 -7t-27 -24.5t-16.5 -36.5t-9 -52.5t-4 -62.5t-1 -77v-60q0 -58 1 -91t6.5 -70t15.5 -55.5t28.5 -30.5t45.5 -12zM274 -12q-128 0 -178 76.5
t-50 249.5v98q0 173 50 250t178 77t179 -77t51 -250v-98q0 -173 -51 -249.5t-179 -76.5z" />
    <glyph glyph-name="one" unicode="1" horiz-adv-x="329" 
d="M133 0v553h-121v80q90 2 112.5 15t36.5 77h101v-725h-129z" />
    <glyph glyph-name="two" unicode="2" horiz-adv-x="502" 
d="M41 0v94l81 101q129 166 161 221q48 79 48 140q0 97 -79 97q-44 0 -63.5 -33.5t-19.5 -104.5v-9h-121v8q0 113 51.5 168.5t161.5 55.5q97 0 149.5 -44t52.5 -130q0 -55 -29.5 -119.5t-65 -114.5t-110.5 -146l-67 -85h275v-99h-425z" />
    <glyph glyph-name="three" unicode="3" horiz-adv-x="515" 
d="M241 -13q-97 0 -152 50t-55 155v4h121v-4q0 -59 20 -89t68 -30q58 0 79.5 34.5t21.5 95.5q0 63 -26 95.5t-96 32.5h-42v89h39q55 0 78.5 30t23.5 90q0 56 -19 84.5t-65 28.5q-44 0 -60.5 -26t-16.5 -89v-5h-121v5q0 104 54.5 152.5t149.5 48.5q211 0 211 -187
q0 -68 -31 -111t-78 -56q130 -36 130 -182q0 -113 -59.5 -164.5t-174.5 -51.5z" />
    <glyph glyph-name="four" unicode="4" horiz-adv-x="522" 
d="M283 0v179h-265v93l267 453h127v-446h86v-100h-86v-179h-129zM112 279h171v286z" />
    <glyph glyph-name="five" unicode="5" horiz-adv-x="507" 
d="M247 -13q-97 0 -154 50.5t-57 154.5v4h121v-4q0 -120 90 -120q88 0 88 143v46q0 142 -89 142q-63 0 -84 -78l-116 4l34 397h369v-99h-269l-17 -211q13 32 47 54t81 22q177 0 177 -226v-53q0 -226 -221 -226z" />
    <glyph glyph-name="six" unicode="6" horiz-adv-x="528" 
d="M271 -13q-122 0 -173.5 72.5t-51.5 236.5v103q0 180 49 260t179 80q100 0 149 -52t49 -140v-6h-121v5q0 107 -79 107q-57 0 -76 -52.5t-19 -173.5v-32q11 33 45.5 58.5t84.5 25.5q181 0 181 -227v-38q0 -227 -217 -227zM265 72q90 0 90 142v32q0 143 -90 143
q-91 0 -91 -144v-30q0 -143 91 -143z" />
    <glyph glyph-name="seven" unicode="7" horiz-adv-x="445" 
d="M213 0h-134q11 364 252 626h-317v99h424v-99q-118 -135 -169.5 -280.5t-55.5 -345.5z" />
    <glyph glyph-name="eight" unicode="8" horiz-adv-x="545" 
d="M273 -13q-115 0 -174 51.5t-59 165.5q0 141 119 183q-39 15 -70.5 56t-31.5 109q0 187 216 187q215 0 215 -187q0 -68 -31 -109t-71 -56q119 -42 119 -183q0 -114 -58.5 -165.5t-173.5 -51.5zM273 72q100 0 100 127v12q0 128 -100 128q-102 0 -102 -127v-13
q0 -127 102 -127zM273 422q46 0 64 27.5t18 83.5v9q0 57 -18 84t-64 27q-47 0 -65 -27.5t-18 -83.5v-9q0 -57 18 -84t65 -27z" />
    <glyph glyph-name="nine" unicode="9" horiz-adv-x="528" 
d="M253 -13q-100 0 -148 51.5t-48 140.5v6h121v-5q0 -56 19 -82t58 -26q58 0 77 53t19 174v32q-14 -35 -47 -59.5t-83 -24.5q-181 0 -181 227v37q0 228 217 228q122 0 173.5 -73t51.5 -237v-102q0 -179 -49.5 -259.5t-179.5 -80.5zM263 337q90 0 90 144v29q0 143 -90 143
q-91 0 -91 -142v-31q0 -143 91 -143z" />
    <glyph glyph-name="colon" unicode=":" horiz-adv-x="237" 
d="M48 0v141h141v-141h-141zM48 397v141h141v-141h-141z" />
    <glyph glyph-name="semicolon" unicode=";" horiz-adv-x="237" 
d="M39 -150l69 150h-60v141h141v-149l-74 -142h-76zM48 397v141h141v-141h-141z" />
    <glyph glyph-name="less" unicode="&#x3c;" 
d="M480 -4l-411 217v110l411 217v-113l-297 -159l297 -159v-113z" />
    <glyph glyph-name="equal" unicode="=" 
d="M61 110v99h427v-99h-427zM61 328v100h427v-100h-427z" />
    <glyph glyph-name="greater" unicode="&#x3e;" 
d="M480 213l-411 -217v113l297 159l-297 159v113l411 -217v-110z" />
    <glyph glyph-name="question" unicode="?" horiz-adv-x="447" 
d="M132 210v37q0 16 1 30t5.5 27t7 21.5t11.5 20.5t11.5 16.5t15.5 17t15.5 15t19.5 17t19 16.5q34 31 48 58.5t14 69.5q0 52 -20 74.5t-60 22.5q-43 0 -64 -30.5t-21 -103.5v-4h-121v4q0 219 208 219q210 0 210 -182q0 -99 -90 -177q-8 -7 -25 -21t-22.5 -19.5t-16 -17
t-14 -21t-6.5 -24t-3 -32.5v-34h-123zM123 0v141h141v-141h-141z" />
    <glyph glyph-name="at" unicode="@" horiz-adv-x="801" 
d="M397 -12q-153 0 -247.5 101.5t-94.5 264.5q0 161 105 270t256 109q141 0 235.5 -87t94.5 -233q0 -115 -53 -187.5t-123 -72.5q-46 0 -71.5 26t-27.5 67q-17 -42 -50 -67t-75 -26q-51 0 -91 47t-40 135q0 96 50.5 169t124.5 73q40 0 64.5 -26t33.5 -62q1 7 2.5 34.5
t3.5 34.5h64l-26 -227q-13 -115 38 -115q43 0 76.5 53t33.5 139q0 119 -78 191t-188 72q-123 0 -207.5 -92.5t-84.5 -225.5q0 -129 79 -216t194 -87q49 0 96.5 11.5t73.5 29.5l27 -57q-36 -21 -91.5 -33.5t-103.5 -12.5zM360 226q44 0 73 51t29 122q0 50 -18.5 77t-49.5 27
q-42 0 -69 -49t-27 -119q0 -53 17 -81t45 -28z" />
    <glyph glyph-name="A" unicode="A" horiz-adv-x="542" 
d="M7 0l183 725h161l184 -725h-137l-36 161h-190l-35 -161h-130zM267 595l-76 -346h152z" />
    <glyph glyph-name="B" unicode="B" horiz-adv-x="539" 
d="M61 0v725h198q113 0 172.5 -39.5t59.5 -142.5q0 -66 -31 -105.5t-78 -52.5q131 -37 131 -175q0 -118 -60 -164t-181 -46h-211zM195 92h69q65 0 89.5 30.5t24.5 90.5q0 62 -25 91t-96 29h-62v-241zM195 417h58q55 0 79 27t24 84q0 55 -23.5 80.5t-79.5 25.5h-58v-217z" />
    <glyph glyph-name="C" unicode="C" horiz-adv-x="537" 
d="M283 -13q-135 0 -191 77.5t-56 248.5v99q0 172 56 249.5t191 77.5q115 0 171.5 -59.5t56.5 -184.5v-8h-133v6q0 86 -22.5 118.5t-73.5 32.5q-34 0 -55.5 -16t-32 -53t-13.5 -79t-3 -111v-45q0 -69 3 -111t13.5 -79t32 -53t55.5 -16q51 0 73.5 32.5t22.5 118.5v6h133v-7
q0 -125 -56.5 -184.5t-171.5 -59.5z" />
    <glyph glyph-name="D" unicode="D" horiz-adv-x="562" 
d="M195 92h40q92 0 120.5 47.5t28.5 202.5v43q0 153 -28.5 201t-120.5 48h-40v-542zM61 0v725h168q77 0 129.5 -14t92 -49.5t57.5 -99.5t18 -160v-82q0 -96 -18 -159t-57.5 -98t-91.5 -49t-130 -14h-168z" />
    <glyph glyph-name="E" unicode="E" horiz-adv-x="469" 
d="M61 0v725h387v-100h-253v-203h231v-99h-231v-223h253v-100h-387z" />
    <glyph glyph-name="F" unicode="F" horiz-adv-x="438" 
d="M61 0v725h367v-100h-233v-203h211v-99h-211v-323h-134z" />
    <glyph glyph-name="G" unicode="G" horiz-adv-x="571" 
d="M260 -13q-119 0 -171.5 79t-52.5 247v99q0 171 57 249t192 78q114 0 172.5 -58.5t58.5 -171.5v-5h-133v4q0 75 -23.5 105.5t-74.5 30.5q-29 0 -48.5 -12t-31 -31.5t-17.5 -54.5t-8 -70.5t-2 -90.5v-45q0 -55 2 -90.5t8 -70.5t17.5 -54.5t31 -31.5t48.5 -12q62 0 90 43.5
t28 134.5v27h-141v91h257v-377h-96l-4 85q-42 -98 -159 -98z" />
    <glyph glyph-name="H" unicode="H" horiz-adv-x="586" 
d="M61 0v725h134v-303h196v303h134v-725h-134v323h-196v-323h-134z" />
    <glyph glyph-name="I" unicode="I" horiz-adv-x="256" 
d="M61 0v725h134v-725h-134z" />
    <glyph glyph-name="J" unicode="J" horiz-adv-x="457" 
d="M205 -12q-106 0 -156 52.5t-50 163.5v17h134v-17q0 -70 15 -96t54 -26q38 0 54 27t16 95v521h134v-522q0 -118 -50.5 -166.5t-150.5 -48.5z" />
    <glyph glyph-name="K" unicode="K" horiz-adv-x="551" 
d="M416 0l-158 309l-63 -96v-213h-134v725h134v-320l207 320h133l-198 -297l218 -428h-139z" />
    <glyph glyph-name="L" unicode="L" horiz-adv-x="457" 
d="M61 0v725h134v-625h253v-100h-387z" />
    <glyph glyph-name="M" unicode="M" horiz-adv-x="737" 
d="M61 0v725h189l118 -571l119 571h189v-725h-121v592h-2l-8 -50l-123 -542h-108l-123 542l-7 50h-2v-592h-121z" />
    <glyph glyph-name="N" unicode="N" horiz-adv-x="589" 
d="M61 0v725h157l189 -552v552h121v-725h-158l-188 552v-552h-121z" />
    <glyph glyph-name="O" unicode="O" horiz-adv-x="570" 
d="M285 81q29 0 48.5 12t31 31.5t17.5 54.5t8 70.5t2 90.5v45q0 55 -2 90.5t-8 70.5t-17.5 54.5t-31 31.5t-48.5 12t-48.5 -12t-31 -31.5t-17.5 -54.5t-8 -70.5t-2 -90.5v-45q0 -55 2 -90.5t8 -70.5t17.5 -54.5t31 -31.5t48.5 -12zM285 -13q-135 0 -192 77.5t-57 248.5v99
q0 171 57 249t192 78t192 -78t57 -249v-99q0 -171 -57 -248.5t-192 -77.5z" />
    <glyph glyph-name="P" unicode="P" horiz-adv-x="510" 
d="M61 0v725h190q65 0 108.5 -8.5t79.5 -30.5t53.5 -65.5t17.5 -109.5t-17.5 -110t-53.5 -67t-80 -32t-108 -9h-56v-293h-134zM195 385h40q78 0 105.5 23.5t27.5 100.5t-28 101t-105 24h-40v-249z" />
    <glyph glyph-name="Q" unicode="Q" horiz-adv-x="570" 
d="M285 -13q-135 0 -192 77.5t-57 248.5v99q0 171 57 249t192 78t192 -78t57 -249v-99q0 -206 -85 -278l64 -88l-76 -59l-78 106q-40 -7 -74 -7zM285 81q29 0 48.5 12t31 31.5t17.5 54.5t8 70.5t2 90.5v45q0 55 -2 90.5t-8 70.5t-17.5 54.5t-31 31.5t-48.5 12t-48.5 -12
t-31 -31.5t-17.5 -54.5t-8 -70.5t-2 -90.5v-45q0 -55 2 -90.5t8 -70.5t17.5 -54.5t31 -31.5t48.5 -12z" />
    <glyph glyph-name="R" unicode="R" horiz-adv-x="554" 
d="M392 0l-106 319q-26 -2 -39 -2h-52v-317h-134v725h190q144 0 206 -42.5t62 -155.5q0 -75 -28 -116.5t-84 -62.5l124 -348h-139zM195 401h56q76 0 102 22.5t26 93.5q0 70 -26.5 93.5t-101.5 23.5h-56v-233z" />
    <glyph glyph-name="S" unicode="S" horiz-adv-x="517" 
d="M266 -13q-239 0 -239 240v7h133v-7q0 -78 24.5 -113t80.5 -35q96 0 96 105q0 45 -22.5 71.5t-70.5 48.5l-72 33q-83 37 -121.5 83t-38.5 131q0 93 57.5 140.5t155.5 47.5q228 0 228 -213v-6h-131v6q0 122 -97 122q-84 0 -84 -92q0 -40 15 -61.5t49 -36.5l78 -36
q46 -20 74 -36t56.5 -41.5t42 -61t13.5 -82.5q0 -106 -58.5 -160t-168.5 -54z" />
    <glyph glyph-name="T" unicode="T" horiz-adv-x="468" 
d="M167 0v625h-159v100h452v-100h-159v-625h-134z" />
    <glyph glyph-name="U" unicode="U" horiz-adv-x="559" 
d="M280 -13q-73 0 -116.5 13.5t-69.5 49.5t-34.5 89t-8.5 143v443h134v-452q0 -55 3 -86.5t12.5 -58t28.5 -37t51 -10.5q60 0 77 42t17 150v452h134v-443q0 -90 -8.5 -143t-34 -89.5t-69 -49.5t-116.5 -13z" />
    <glyph glyph-name="V" unicode="V" horiz-adv-x="501" 
d="M170 0l-164 725h137l111 -587l111 587h129l-162 -725h-162z" />
    <glyph glyph-name="W" unicode="W" horiz-adv-x="728" 
d="M116 0l-104 725h122l75 -576l97 576h116l97 -576l75 576h122l-105 -725h-153l-94 573l-94 -573h-154z" />
    <glyph glyph-name="X" unicode="X" horiz-adv-x="519" 
d="M1 0l190 372l-173 353h145l99 -220l104 220h136l-173 -340l189 -385h-143l-118 254l-121 -254h-135z" />
    <glyph glyph-name="Y" unicode="Y" horiz-adv-x="510" 
d="M186 0v297l-183 428h135l117 -309l119 309h133l-187 -429v-296h-134z" />
    <glyph glyph-name="Z" unicode="Z" horiz-adv-x="500" 
d="M23 0v92l298 533h-270v100h416v-92l-299 -533h308v-100h-453z" />
    <glyph glyph-name="bracketleft" unicode="[" horiz-adv-x="279" 
d="M61 -175v900h213v-86h-108v-726h108v-88h-213z" />
    <glyph glyph-name="backslash" unicode="\" horiz-adv-x="369" 
d="M243 0l-243 725h126l243 -725h-126z" />
    <glyph glyph-name="bracketright" unicode="]" horiz-adv-x="279" 
d="M5 -175v88h107v726h-107v86h213v-900h-213z" />
    <glyph glyph-name="asciicircum" unicode="^" horiz-adv-x="522" 
d="M11 338l201 387h99l200 -387h-115l-135 269l-135 -269h-115z" />
    <glyph glyph-name="underscore" unicode="_" horiz-adv-x="472" 
d="M20 -106v112h433v-112h-433z" />
    <glyph glyph-name="grave" unicode="`" horiz-adv-x="258" 
d="M147 604l-124 121h149l63 -121h-88z" />
    <glyph glyph-name="a" unicode="a" horiz-adv-x="469" 
d="M172 -13q-65 0 -103.5 41t-38.5 108v11q0 65 56 108t211 88v37q0 53 -16 74t-52 21q-41 0 -57.5 -24.5t-16.5 -74.5v-9h-115v9q0 85 53 131t141 46q96 0 144 -38.5t48 -146.5q0 -36 -0.5 -104t-0.5 -91q0 -126 7 -173h-118l-3 73q-39 -86 -139 -86zM221 70q41 0 61 34
t20 110v56q-88 -25 -114 -48.5t-26 -65.5v-10q0 -76 59 -76z" />
    <glyph glyph-name="b" unicode="b" horiz-adv-x="506" 
d="M268 76q45 0 59.5 42t14.5 137v27q0 97 -14.5 138.5t-59.5 41.5q-51 0 -72 -47t-21 -146t21 -146t72 -47zM310 -13q-46 0 -81 24t-50 62v-73h-129v725h129v-260q15 38 50 62t81 24q85 0 124.5 -60t39.5 -185v-74q0 -125 -39.5 -185t-124.5 -60z" />
    <glyph glyph-name="c" unicode="c" horiz-adv-x="454" 
d="M239 -13q-108 0 -157.5 59.5t-49.5 183.5v79q0 124 49.5 183t157.5 59q86 0 139.5 -46.5t53.5 -148.5v-4h-121v4q0 60 -17.5 85t-54.5 25q-25 0 -40.5 -11t-23 -36.5t-9.5 -53t-2 -73.5v-46q0 -47 2 -74.5t9.5 -53t23 -36t40.5 -10.5q37 0 54.5 24.5t17.5 85.5v4h121v-5
q0 -101 -53.5 -147.5t-139.5 -46.5z" />
    <glyph glyph-name="d" unicode="d" horiz-adv-x="506" 
d="M196 -13q-85 0 -124.5 60t-39.5 185v74q0 125 39.5 185t124.5 60q46 0 81 -24t50 -62v260h129v-725h-129v73q-15 -38 -50 -62t-81 -24zM238 76q51 0 72 47t21 146t-21 146t-72 47q-45 0 -59.5 -41.5t-14.5 -138.5v-27q0 -95 14.5 -137t59.5 -42z" />
    <glyph glyph-name="e" unicode="e" horiz-adv-x="479" 
d="M239 -13q-107 0 -157 60.5t-50 179.5v85q0 121 50.5 180t159.5 59q111 0 158 -63t47 -199v-32h-286v-11q0 -91 16 -132.5t64 -41.5q38 0 57.5 23t19.5 78v4h121v-4q0 -98 -55 -142t-145 -44zM161 337v-8h164v8q0 70 -17 100.5t-64 30.5q-48 0 -65.5 -30.5t-17.5 -100.5z
" />
    <glyph glyph-name="f" unicode="f" horiz-adv-x="291" 
d="M68 0v456h-67v82h67v49q0 83 36.5 110.5t125.5 27.5h60v-79h-34q-36 0 -47.5 -11.5t-11.5 -47.5v-49h93v-82h-93v-456h-129z" />
    <glyph glyph-name="g" unicode="g" horiz-adv-x="511" 
d="M245 -188q-91 0 -143 41.5t-52 120.5v3h121v-3q0 -76 77 -76q47 0 65 25t18 98v82q-33 -86 -121 -86q-85 0 -131.5 58t-46.5 174v66q0 236 178 236q87 0 121 -87v74h130v-498q0 -120 -51 -174t-165 -54zM243 106q54 0 74 41.5t20 130.5q0 98 -20 141t-74 43
q-46 0 -62 -39.5t-16 -127.5v-17q0 -89 16 -130.5t62 -41.5z" />
    <glyph glyph-name="h" unicode="h" horiz-adv-x="494" 
d="M50 0v725h129v-260q37 86 135 86q74 0 104.5 -43t30.5 -143v-365h-129v321q0 37 -1.5 58t-7.5 42t-18.5 30t-32.5 9q-47 0 -64 -43t-17 -125v-292h-129z" />
    <glyph glyph-name="i" unicode="i" horiz-adv-x="229" 
d="M50 0v538h129v-538h-129zM50 604v121h129v-121h-129z" />
    <glyph glyph-name="j" unicode="j" horiz-adv-x="228" 
d="M-26 -175v80h25q34 0 42 15.5t8 65.5v552h129v-546q0 -101 -36 -134t-130 -33h-38zM50 604v121h129v-121h-129z" />
    <glyph glyph-name="k" unicode="k" horiz-adv-x="441" 
d="M327 0l-100 219l-48 -71v-148h-129v725h129v-401l143 214h125l-145 -211l151 -327h-126z" />
    <glyph glyph-name="l" unicode="l" horiz-adv-x="229" 
d="M50 0v725h129v-725h-129z" />
    <glyph glyph-name="m" unicode="m" horiz-adv-x="743" 
d="M50 0v538h129v-73q16 40 49 63t77 23q53 0 80 -23t40 -71q37 94 140 94q74 0 103.5 -46.5t29.5 -148.5v-356h-129v322q0 70 -10 104t-43 34q-43 0 -60 -36.5t-17 -106.5v-317h-129v342q0 60 -10 89t-44 29q-31 0 -48.5 -23t-23 -57.5t-5.5 -87.5v-292h-129z" />
    <glyph glyph-name="n" unicode="n" horiz-adv-x="494" 
d="M50 0v538h129v-73q37 86 135 86q74 0 104.5 -43t30.5 -143v-365h-129v321q0 37 -1.5 58t-7.5 42t-18.5 30t-32.5 9q-47 0 -64 -43t-17 -125v-292h-129z" />
    <glyph glyph-name="o" unicode="o" horiz-adv-x="484" 
d="M242 466q-48 0 -63 -41.5t-15 -134.5v-42q0 -93 15 -134.5t63 -41.5t63 41.5t15 134.5v42q0 93 -15 134.5t-63 41.5zM242 551q108 0 159 -59.5t51 -182.5v-80q0 -123 -51 -182.5t-159 -59.5t-159 59.5t-51 182.5v80q0 123 51 182.5t159 59.5z" />
    <glyph glyph-name="p" unicode="p" horiz-adv-x="506" 
d="M268 76q45 0 59.5 42t14.5 137v27q0 97 -14.5 138.5t-59.5 41.5q-51 0 -72 -47t-21 -146t21 -146t72 -47zM310 -13q-46 0 -81 24t-50 62v-248h-129v713h129v-73q15 38 50 62t81 24q85 0 124.5 -60t39.5 -185v-74q0 -125 -39.5 -185t-124.5 -60z" />
    <glyph glyph-name="q" unicode="q" horiz-adv-x="506" 
d="M196 -13q-85 0 -124.5 60t-39.5 185v74q0 125 39.5 185t124.5 60q46 0 81 -24t50 -62v73h129v-713h-129v248q-15 -38 -50 -62t-81 -24zM238 76q51 0 72 47t21 146t-21 146t-72 47q-45 0 -59.5 -41.5t-14.5 -138.5v-27q0 -95 14.5 -137t59.5 -42z" />
    <glyph glyph-name="r" unicode="r" horiz-adv-x="313" 
d="M50 0v538h128v-123q11 50 41.5 86.5t75.5 36.5h20v-134h-37q-61 0 -80 -23.5t-19 -100.5v-280h-129z" />
    <glyph glyph-name="s" unicode="s" horiz-adv-x="446" 
d="M229 -13q-98 0 -150.5 48.5t-52.5 136.5v3h118v-4q0 -47 22 -73t63 -26q34 0 55.5 16t21.5 48t-15.5 48.5t-54.5 31.5l-80 31q-61 23 -92 59.5t-31 95.5q0 77 51 113t137 36q80 0 134 -41t54 -127v-3h-116v3q0 83 -78 83q-30 0 -48.5 -14t-18.5 -42q0 -27 12 -39.5
t42 -25.5l77 -31q76 -30 110 -63.5t34 -102.5q0 -82 -53.5 -121.5t-140.5 -39.5z" />
    <glyph glyph-name="t" unicode="t" horiz-adv-x="295" 
d="M287 0h-93q-75 0 -102 30t-27 109v317h-66v82h66v142h129v-142h93v-82h-93v-303q0 -44 11.5 -57.5t45.5 -13.5h36v-82z" />
    <glyph glyph-name="u" unicode="u" horiz-adv-x="490" 
d="M440 538v-538h-129v73q-37 -86 -133 -86q-72 0 -102.5 43t-30.5 143v365h129v-322q0 -36 1.5 -58t7.5 -42.5t18 -29.5t31 -9q46 0 62.5 42.5t16.5 125.5v293h129z" />
    <glyph glyph-name="v" unicode="v" horiz-adv-x="422" 
d="M130 0l-127 538h128l80 -408l86 408h122l-133 -538h-156z" />
    <glyph glyph-name="w" unicode="w" horiz-adv-x="594" 
d="M92 0l-71 538h110l42 -394l63 394h120l64 -394l43 394h110l-72 -538h-139l-65 423l-66 -423h-139z" />
    <glyph glyph-name="x" unicode="x" horiz-adv-x="460" 
d="M10 0l156 273l-145 265h133l80 -146l83 146h123l-146 -255l156 -283h-135l-89 163l-93 -163h-123z" />
    <glyph glyph-name="y" unicode="y" horiz-adv-x="417" 
d="M42 -175v82h35q36 0 50.5 13t22.5 52l6 30l-153 536h127l88 -410l77 410h119l-131 -540q-26 -105 -62.5 -139t-123.5 -34h-55z" />
    <glyph glyph-name="z" unicode="z" horiz-adv-x="407" 
d="M20 0v82l225 374h-202v82h336v-82l-224 -374h232v-82h-367z" />
    <glyph glyph-name="braceleft" unicode="{" horiz-adv-x="299" 
d="M289 -175h-28q-99 0 -140 34.5t-41 127.5v149q0 53 -15 80t-60 27v95q45 0 60 26.5t15 79.5v119q0 94 41 128t140 34h28v-94h-14q-51 0 -67 -15.5t-16 -58.5v-129q0 -64 -23 -94.5t-66 -42.5v-2q43 -12 66 -42t23 -94v-158q0 -44 16 -60t67 -16h14v-94z" />
    <glyph glyph-name="bar" unicode="|" horiz-adv-x="240" 
d="M61 -90v815h118v-815h-118z" />
    <glyph glyph-name="braceright" unicode="}" horiz-adv-x="299" 
d="M37 -175h-27v94h14q51 0 67 16t16 60v158q0 64 23 94.5t66 41.5v2q-43 11 -66 41.5t-23 95.5v129q0 43 -16 58.5t-67 15.5h-14v94h27q100 0 140.5 -34t40.5 -128v-119q0 -53 15 -79.5t61 -26.5v-95q-46 0 -61 -27t-15 -80v-149q0 -94 -40.5 -128t-140.5 -34z" />
    <glyph glyph-name="asciitilde" unicode="~" 
d="M135 172h-93q4 88 35.5 132.5t102.5 44.5q37 0 70 -17.5t60 -34.5t51 -17q25 0 37.5 16t14.5 53h93q-4 -88 -35.5 -132.5t-102.5 -44.5q-40 0 -94.5 34.5t-86.5 34.5q-25 0 -37.5 -16t-14.5 -53z" />
    <glyph glyph-name="uni00A0" unicode="&#xa0;" horiz-adv-x="180" 
 />
    <glyph glyph-name="exclamdown" unicode="&#xa1;" horiz-adv-x="255" 
d="M62 -175v188l20 313h90l21 -313v-188h-131zM57 397v141h141v-141h-141z" />
    <glyph glyph-name="cent" unicode="&#xa2;" horiz-adv-x="457" 
d="M218 -87v79q-97 6 -141 65t-44 178v78q0 118 44 177t141 65v69h47v-69q76 -7 121.5 -54t45.5 -140v-5h-121v5q0 60 -17.5 84.5t-54.5 24.5q-25 0 -40.5 -11t-23 -36.5t-9.5 -53t-2 -73.5v-45q0 -95 13.5 -135t61.5 -40q37 0 54.5 25t17.5 86v3h121v-4q0 -93 -45.5 -140
t-121.5 -54v-79h-47z" />
    <glyph glyph-name="sterling" unicode="&#xa3;" horiz-adv-x="532" 
d="M32 317v70h96q-3 7 -13 27t-14.5 28.5t-12 26.5t-10.5 30.5t-6 29.5t-3 34q0 88 55.5 132t151.5 44q102 0 153 -53.5t51 -165.5v-4h-121v8q0 70 -20 99.5t-64 29.5q-78 0 -78 -93q0 -18 3 -36t10 -37.5t12 -31.5t16 -35.5t15 -32.5h165v-70h-141q5 -25 5 -40
q0 -55 -24.5 -99.5t-64.5 -69.5l1 -1q36 14 65 11q20 -2 58 -17.5t62 -15.5q38 1 78 26l40 -82q-64 -40 -113 -40q-36 0 -84 19t-77 19q-67 0 -139 -39l-44 89q123 67 123 181q0 27 -8 59h-123z" />
    <glyph glyph-name="currency" unicode="&#xa4;" horiz-adv-x="584" 
d="M76 88l-46 43l69 70q-46 63 -46 141q0 80 46 142l-69 70l46 43l67 -67q61 51 147 51q85 0 149 -53l70 69l45 -43l-70 -71q45 -64 45 -141q0 -76 -46 -138l71 -73l-45 -43l-71 70q-65 -52 -148 -52q-84 0 -145 50zM289 202q61 0 100 40.5t39 99.5q0 62 -39 103t-100 41
q-59 0 -96 -41t-37 -103q0 -59 37 -99.5t96 -40.5z" />
    <glyph glyph-name="yen" unicode="&#xa5;" horiz-adv-x="510" 
d="M57 238v66h129l-183 421h132l120 -309l121 309h131l-187 -421h129v-66h-132v-81h132v-65h-132v-92h-128v92h-132v65h132v81h-132z" />
    <glyph glyph-name="brokenbar" unicode="&#xa6;" horiz-adv-x="218" 
d="M50 -90v305h118v-305h-118zM50 420v305h118v-305h-118z" />
    <glyph glyph-name="section" unicode="&#xa7;" horiz-adv-x="522" 
d="M258 -176q-91 0 -152.5 45t-61.5 137v3h126v-3q0 -49 25.5 -73t64.5 -24q36 1 60 19t24 53q0 52 -67 90l-118 63q-66 37 -99 73t-33 93q0 87 109 142q-75 56 -75 145q0 76 57.5 117.5t150.5 41.5q88 0 146.5 -45t58.5 -135v-3h-126v3q0 46 -23 70.5t-60 24.5
q-78 -2 -78 -72q0 -57 62 -89l117 -63q66 -36 97.5 -72.5t31.5 -94.5q0 -89 -107 -142q82 -59 82 -145q0 -75 -59.5 -117t-152.5 -42zM154 311q0 -53 79 -95l74 -40q61 36 61 84q0 29 -17.5 51t-57.5 43l-77 40q-62 -37 -62 -83z" />
    <glyph glyph-name="dieresis" unicode="&#xa8;" horiz-adv-x="359" 
d="M23 608v117h114v-117h-114zM222 608v117h114v-117h-114z" />
    <glyph glyph-name="copyright" unicode="&#xa9;" horiz-adv-x="829" 
d="M414 42q132 0 221 92t89 230t-89 229t-221 91t-220.5 -91t-88.5 -229t88.5 -230t220.5 -92zM414 -12q-154 0 -262 108t-108 268q0 161 108 268t262 107t262.5 -107t108.5 -268q0 -160 -108.5 -268t-262.5 -108zM417 153q-83 0 -114.5 42.5t-31.5 139.5v60
q0 97 31.5 139.5t114.5 42.5q68 0 101 -33.5t33 -107.5v-6h-99v4q0 48 -7.5 61t-28.5 13q-27 0 -33 -28t-6 -101v-28q0 -40 0.5 -56t4 -37.5t11.5 -29t23 -7.5q21 0 28.5 13t7.5 60v4h99v-4q0 -74 -33 -107.5t-101 -33.5z" />
    <glyph glyph-name="ordfeminine" unicode="&#xaa;" horiz-adv-x="271" 
d="M95 430q-39 0 -60.5 24t-21.5 64v7q0 33 24 55q21 21 80 39l46 16v25q0 39 -35 39q-21 0 -29 -10t-8 -35v-6h-73v6q0 95 111 95q60 0 87.5 -21t27.5 -84v-4v-8.5t-0.5 -12t-0.5 -14.5v-16v-53q0 -63 5 -98h-75l-1 36q-23 -44 -77 -44zM127 481q20 0 29 15.5t9 50.5v44
q-18 -9 -30 -13q-23 -8 -31.5 -19t-8.5 -30v-7q0 -41 32 -41z" />
    <glyph glyph-name="guillemotleft" unicode="&#xab;" horiz-adv-x="366" 
d="M169 56l-144 149v152l144 147v-148l-77 -76l77 -77v-147zM341 56l-144 149v152l144 147v-148l-77 -76l77 -77v-147z" />
    <glyph glyph-name="logicalnot" unicode="&#xac;" 
d="M421 78v258h-397v100h500v-358h-103z" />
    <glyph glyph-name="uni00AD" unicode="&#xad;" horiz-adv-x="347" 
d="M46 202v112h255v-112h-255z" />
    <glyph glyph-name="registered" unicode="&#xae;" horiz-adv-x="829" 
d="M414 -12q-154 0 -262 108t-108 268q0 161 108 268t262 107t262.5 -107t108.5 -268q0 -160 -108.5 -268t-262.5 -108zM414 42q132 0 221 92t89 230t-89 229t-221 91t-220.5 -91t-88.5 -229t88.5 -230t220.5 -92zM377 163h-94v410h117q84 0 119 -25t35 -95q0 -71 -54 -99
l64 -191h-91l-50 173h-31h-15v-173zM377 506v-110h22q31 1 40.5 12t9.5 44t-9.5 43.5t-41.5 10.5h-21z" />
    <glyph glyph-name="overscore" unicode="&#xaf;" horiz-adv-x="290" 
d="M23 620v87h244v-87h-244z" />
    <glyph glyph-name="degree" unicode="&#xb0;" horiz-adv-x="336" 
d="M167 496q36 0 58.5 24t22.5 60q0 37 -22.5 61.5t-58.5 24.5q-35 0 -56.5 -24.5t-21.5 -61.5q0 -36 21.5 -60t56.5 -24zM167 424q-64 0 -109.5 46t-45.5 110q0 66 45 112t110 46q66 0 111.5 -46t45.5 -112q0 -64 -45.5 -110t-111.5 -46z" />
    <glyph glyph-name="plusminus" unicode="&#xb1;" 
d="M223 148v141h-186v100h186v140h103v-140h186v-100h-186v-141h-103zM37 0v99h475v-99h-475z" />
    <glyph glyph-name="twosuperior" unicode="&#xb2;" horiz-adv-x="288" 
d="M24 438v59l45 57q64 80 89.5 121t25.5 75q0 49 -40 49q-38 0 -38 -73v-5h-79v4q0 128 123 128q117 0 117 -98q0 -44 -25.5 -89t-83.5 -117l-38 -49h148v-62h-244z" />
    <glyph glyph-name="threesuperior" unicode="&#xb3;" horiz-adv-x="292" 
d="M138 429q-119 0 -119 118v2h77v-2q0 -65 43 -65q50 0 50 69q0 34 -12.5 51.5t-48.5 17.5h-24v55h23q49 0 49 62q0 31 -8.5 46t-33.5 15q-20 0 -28 -12.5t-8 -47.5v-2h-77v2q0 114 118 114q120 0 120 -106q0 -74 -59 -92q73 -23 73 -102q0 -66 -34 -94.5t-101 -28.5z" />
    <glyph glyph-name="acute" unicode="&#xb4;" horiz-adv-x="258" 
d="M23 604l63 121h149l-125 -121h-87z" />
    <glyph glyph-name="mu" unicode="&#xb5;" horiz-adv-x="495" 
d="M183 -13h-4q0 -95 -10 -162h-131q12 73 12 166v547h129v-322q0 -36 1.5 -58t7.5 -42.5t18 -29.5t31 -9q46 0 62.5 42.5t16.5 125.5v293h129v-538h-129v73q-37 -86 -133 -86z" />
    <glyph glyph-name="mu" unicode="&#x3bc;" horiz-adv-x="495" 
d="M183 -13h-4q0 -95 -10 -162h-131q12 73 12 166v547h129v-322q0 -36 1.5 -58t7.5 -42.5t18 -29.5t31 -9q46 0 62.5 42.5t16.5 125.5v293h129v-538h-129v73q-37 -86 -133 -86z" />
    <glyph glyph-name="paragraph" unicode="&#xb6;" horiz-adv-x="465" 
d="M170 -89v469q-69 0 -119 42t-50 129q0 174 226 174h174v-814h-73v746h-85v-746h-73z" />
    <glyph glyph-name="middot" unicode="&#xb7;" horiz-adv-x="237" 
d="M48 199v141h141v-141h-141z" />
    <glyph glyph-name="cedilla" unicode="&#xb8;" horiz-adv-x="257" 
d="M112 -188q-53 0 -89 14l15 47q30 -14 61 -14q54 0 54 32q0 31 -41 31q-24 0 -40 -10l-27 17l50 81h53l-33 -52q15 4 36 4q33 0 58 -18.5t25 -49.5q0 -40 -36 -61t-86 -21z" />
    <glyph glyph-name="onesuperior" unicode="&#xb9;" horiz-adv-x="203" 
d="M89 438v305h-69v52q48 0 60.5 8t22.5 43h64v-408h-78z" />
    <glyph glyph-name="ordmasculine" unicode="&#xba;" horiz-adv-x="279" 
d="M140 483q24 0 30.5 21t6.5 73v26q0 51 -6.5 71.5t-30.5 20.5t-31 -21t-7 -71v-26q0 -51 7 -72.5t31 -21.5zM140 430q-123 0 -123 137v46q0 136 123 136q121 0 121 -136v-46q0 -137 -121 -137z" />
    <glyph glyph-name="guillemotright" unicode="&#xbb;" horiz-adv-x="366" 
d="M25 56v147l77 77l-77 76v148l144 -147v-152zM197 56v147l77 77l-77 76v148l144 -147v-152z" />
    <glyph glyph-name="onequarter" unicode="&#xbc;" horiz-adv-x="657" 
d="M70 317v306h-69v51q50 2 62 9t21 42h64v-408h-78zM129 0l224 725h59l-224 -725h-59zM519 0v99h-150v57l147 252h78v-246h49v-63h-49v-99h-75zM430 162h89v146z" />
    <glyph glyph-name="onehalf" unicode="&#xbd;" horiz-adv-x="645" 
d="M70 317v306h-69v51q50 2 62 9t21 42h64v-408h-78zM129 0l224 725h59l-224 -725h-59zM381 0v59l45 57q64 80 89.5 121t25.5 75q0 49 -40 49q-38 0 -38 -73v-5h-80v4q0 128 124 128q117 0 117 -98q0 -44 -25.5 -89t-83.5 -117l-38 -49h148v-62h-244z" />
    <glyph glyph-name="threequarters" unicode="&#xbe;" horiz-adv-x="768" 
d="M138 310q-119 0 -119 119v2h77v-2q0 -34 9.5 -49.5t33.5 -15.5q50 0 50 68q0 34 -12.5 51.5t-48.5 17.5h-24v56h23q28 0 38.5 15.5t10.5 46.5q0 30 -9 45t-33 15q-20 0 -28 -12.5t-8 -47.5v-2h-77v2q0 114 118 114q120 0 120 -106q0 -74 -59 -92q73 -20 73 -102
q0 -66 -34 -94.5t-101 -28.5zM240 0l224 725h59l-224 -725h-59zM630 0v99h-150v57l147 252h78v-246h49v-63h-49v-99h-75zM541 162h89v146z" />
    <glyph glyph-name="questiondown" unicode="&#xbf;" horiz-adv-x="469" 
d="M236 -188q-209 0 -209 180q0 42 15.5 78.5t32 56t42.5 41.5q8 7 25 21t22.5 19t16 16.5t14 21t6.5 24.5t3 33v34h122v-36q0 -44 -14.5 -77.5t-30 -49.5t-51.5 -48q-6 -5 -9 -8q-34 -28 -48.5 -56t-14.5 -69q0 -52 20 -74t60 -22q44 0 64.5 30t20.5 102v4h121v-4
q0 -109 -54 -163t-154 -54zM195 397v141h141v-141h-141z" />
    <glyph glyph-name="Agrave" unicode="&#xc0;" horiz-adv-x="542" 
d="M7 0l183 725h161l184 -725h-137l-36 161h-190l-35 -161h-130zM267 595l-76 -346h152zM219 773l-129 113h161l60 -113h-92z" />
    <glyph glyph-name="Aacute" unicode="&#xc1;" horiz-adv-x="542" 
d="M7 0l183 725h161l184 -725h-137l-36 161h-190l-35 -161h-130zM267 595l-76 -346h152zM229 773l60 113h161l-128 -113h-93z" />
    <glyph glyph-name="Acircumflex" unicode="&#xc2;" horiz-adv-x="542" 
d="M7 0l183 725h161l184 -725h-137l-36 161h-190l-35 -161h-130zM267 595l-76 -346h152zM92 773l116 113h120l115 -113h-106l-69 56l-70 -56h-106z" />
    <glyph glyph-name="Atilde" unicode="&#xc3;" horiz-adv-x="542" 
d="M7 0l183 725h161l184 -725h-137l-36 161h-190l-35 -161h-130zM267 595l-76 -346h152zM181 773h-77q10 113 99 113q27 0 67 -20t51 -20q21 0 24 40h77q-5 -62 -33.5 -87.5t-64.5 -25.5q-23 0 -63 19t-53 19q-24 0 -27 -38z" />
    <glyph glyph-name="Adieresis" unicode="&#xc4;" horiz-adv-x="542" 
d="M7 0l183 725h161l184 -725h-137l-36 161h-190l-35 -161h-130zM267 595l-76 -346h152zM115 777v109h114v-109h-114zM314 777v109h114v-109h-114z" />
    <glyph glyph-name="Aring" unicode="&#xc5;" horiz-adv-x="542" 
d="M7 0l183 725h161l184 -725h-137l-36 161h-190l-35 -161h-130zM267 595l-76 -346h152zM271 806q19 0 32.5 12t13.5 32t-13.5 33t-32.5 13q-18 0 -31.5 -13t-13.5 -33t13 -32t32 -12zM271 766q-38 0 -63.5 24t-25.5 60t26 60t63 24t63 -24t26 -60t-25.5 -60t-63.5 -24z" />
    <glyph glyph-name="AE" unicode="&#xc6;" horiz-adv-x="808" 
d="M0 0l404 725h383v-100h-249v-204h227v-99h-227v-222h249v-100h-383v158h-183l-79 -158h-142zM404 520l-132 -262h132v262z" />
    <glyph glyph-name="Ccedilla" unicode="&#xc7;" horiz-adv-x="537" 
d="M283 -13q-135 0 -191 77.5t-56 248.5v99q0 172 56 249.5t191 77.5q115 0 171.5 -59.5t56.5 -184.5v-8h-133v6q0 86 -22.5 118.5t-73.5 32.5q-34 0 -55.5 -16t-32 -53t-13.5 -79t-3 -111v-45q0 -69 3 -111t13.5 -79t32 -53t55.5 -16q51 0 73.5 32.5t22.5 118.5v6h133v-7
q0 -125 -56.5 -184.5t-171.5 -59.5zM264 -188q-53 0 -89 14l15 47q30 -14 61 -14q54 0 54 32q0 31 -41 31q-24 0 -40 -10l-27 17l50 81h53l-33 -52q15 4 36 4q35 -1 59 -18.5t24 -49.5q0 -40 -36 -61t-86 -21z" />
    <glyph glyph-name="Egrave" unicode="&#xc8;" horiz-adv-x="469" 
d="M234 773l-129 113h161l60 -113h-92zM61 0v725h387v-100h-253v-203h231v-99h-231v-223h253v-100h-387z" />
    <glyph glyph-name="Eacute" unicode="&#xc9;" horiz-adv-x="469" 
d="M61 0v725h387v-100h-253v-203h231v-99h-231v-223h253v-100h-387zM195 773l60 113h161l-128 -113h-93z" />
    <glyph glyph-name="Ecircumflex" unicode="&#xca;" horiz-adv-x="469" 
d="M61 0v725h387v-100h-253v-203h231v-99h-231v-223h253v-100h-387zM78 773l116 113h120l115 -113h-106l-69 56l-70 -56h-106z" />
    <glyph glyph-name="Edieresis" unicode="&#xcb;" horiz-adv-x="469" 
d="M61 0v725h387v-100h-253v-203h231v-99h-231v-223h253v-100h-387zM99 777v109h114v-109h-114zM298 777v109h114v-109h-114z" />
    <glyph glyph-name="Igrave" unicode="&#xcc;" horiz-adv-x="256" 
d="M61 0v725h134v-725h-134zM92 773l-129 113h161l60 -113h-92z" />
    <glyph glyph-name="Iacute" unicode="&#xcd;" horiz-adv-x="256" 
d="M61 0v725h134v-725h-134zM74 773l60 113h161l-128 -113h-93z" />
    <glyph glyph-name="Icircumflex" unicode="&#xce;" horiz-adv-x="256" 
d="M-35 774l104 113h119l103 -113h-106l-57 56l-57 -56h-106zM61 0v725h134v-725h-134z" />
    <glyph glyph-name="Idieresis" unicode="&#xcf;" horiz-adv-x="256" 
d="M-14 776v110h114v-110h-114zM156 776v110h114v-110h-114zM61 0v725h134v-725h-134z" />
    <glyph glyph-name="Eth" unicode="&#xd0;" horiz-adv-x="562" 
d="M0 316v102h61v307h168q77 0 129.5 -14t92 -49.5t57.5 -99.5t18 -160v-82q0 -96 -18 -159t-57.5 -98t-91.5 -49t-130 -14h-168v316h-61zM195 92h40q92 0 120.5 47.5t28.5 202.5v43q0 153 -28.5 201t-120.5 48h-40v-216h123v-102h-123v-224z" />
    <glyph glyph-name="Ntilde" unicode="&#xd1;" horiz-adv-x="589" 
d="M225 773h-77q10 113 99 113q27 0 67 -20t51 -20q21 0 24 40h77q-5 -62 -33.5 -87.5t-64.5 -25.5q-23 0 -63 19t-53 19q-24 0 -27 -38zM61 0v725h157l189 -552v552h121v-725h-158l-188 552v-552h-121z" />
    <glyph glyph-name="Ograve" unicode="&#xd2;" horiz-adv-x="570" 
d="M252 773l-129 113h161l60 -113h-92zM285 81q29 0 48.5 12t31 31.5t17.5 54.5t8 70.5t2 90.5v45q0 55 -2 90.5t-8 70.5t-17.5 54.5t-31 31.5t-48.5 12t-48.5 -12t-31 -31.5t-17.5 -54.5t-8 -70.5t-2 -90.5v-45q0 -55 2 -90.5t8 -70.5t17.5 -54.5t31 -31.5t48.5 -12z
M285 -13q-135 0 -192 77.5t-57 248.5v99q0 171 57 249t192 78t192 -78t57 -249v-99q0 -171 -57 -248.5t-192 -77.5z" />
    <glyph glyph-name="Oacute" unicode="&#xd3;" horiz-adv-x="570" 
d="M285 81q29 0 48.5 12t31 31.5t17.5 54.5t8 70.5t2 90.5v45q0 55 -2 90.5t-8 70.5t-17.5 54.5t-31 31.5t-48.5 12t-48.5 -12t-31 -31.5t-17.5 -54.5t-8 -70.5t-2 -90.5v-45q0 -55 2 -90.5t8 -70.5t17.5 -54.5t31 -31.5t48.5 -12zM285 -13q-135 0 -192 77.5t-57 248.5v99
q0 171 57 249t192 78t192 -78t57 -249v-99q0 -171 -57 -248.5t-192 -77.5zM227 773l60 113h161l-128 -113h-93z" />
    <glyph glyph-name="Ocircumflex" unicode="&#xd4;" horiz-adv-x="570" 
d="M114 773l116 113h120l115 -113h-106l-69 56l-70 -56h-106zM285 81q29 0 48.5 12t31 31.5t17.5 54.5t8 70.5t2 90.5v45q0 55 -2 90.5t-8 70.5t-17.5 54.5t-31 31.5t-48.5 12t-48.5 -12t-31 -31.5t-17.5 -54.5t-8 -70.5t-2 -90.5v-45q0 -55 2 -90.5t8 -70.5t17.5 -54.5
t31 -31.5t48.5 -12zM285 -13q-135 0 -192 77.5t-57 248.5v99q0 171 57 249t192 78t192 -78t57 -249v-99q0 -171 -57 -248.5t-192 -77.5z" />
    <glyph glyph-name="Otilde" unicode="&#xd5;" horiz-adv-x="570" 
d="M201 773h-77q10 113 99 113q27 0 67 -20t51 -20q21 0 24 40h77q-5 -62 -33.5 -87.5t-64.5 -25.5q-23 0 -63 19t-53 19q-24 0 -27 -38zM285 81q29 0 48.5 12t31 31.5t17.5 54.5t8 70.5t2 90.5v45q0 55 -2 90.5t-8 70.5t-17.5 54.5t-31 31.5t-48.5 12t-48.5 -12t-31 -31.5
t-17.5 -54.5t-8 -70.5t-2 -90.5v-45q0 -55 2 -90.5t8 -70.5t17.5 -54.5t31 -31.5t48.5 -12zM285 -13q-135 0 -192 77.5t-57 248.5v99q0 171 57 249t192 78t192 -78t57 -249v-99q0 -171 -57 -248.5t-192 -77.5z" />
    <glyph glyph-name="Odieresis" unicode="&#xd6;" horiz-adv-x="570" 
d="M134 777v109h114v-109h-114zM333 777v109h114v-109h-114zM285 81q29 0 48.5 12t31 31.5t17.5 54.5t8 70.5t2 90.5v45q0 55 -2 90.5t-8 70.5t-17.5 54.5t-31 31.5t-48.5 12t-48.5 -12t-31 -31.5t-17.5 -54.5t-8 -70.5t-2 -90.5v-45q0 -55 2 -90.5t8 -70.5t17.5 -54.5
t31 -31.5t48.5 -12zM285 -13q-135 0 -192 77.5t-57 248.5v99q0 171 57 249t192 78t192 -78t57 -249v-99q0 -171 -57 -248.5t-192 -77.5z" />
    <glyph glyph-name="multiply" unicode="&#xd7;" 
d="M117 32l-69 72l157 161l-158 163l70 72l158 -163l156 161l71 -71l-158 -162l158 -162l-71 -71l-157 161z" />
    <glyph glyph-name="Oslash" unicode="&#xd8;" horiz-adv-x="570" 
d="M110 -65h-50l49 110q-73 74 -73 268v99q0 171 57 249t192 78q70 0 122 -23l33 74h51l-44 -98q87 -70 87 -280v-99q0 -171 -57 -248.5t-192 -77.5q-85 0 -139 30zM285 81q29 0 48.5 12t31 31.5t17.5 54.5t8 70.5t2 90.5v45q0 107 -10 161l-182 -409q23 -56 85 -56z
M178 385v-45q0 -83 5 -128l176 396q-24 36 -74 36q-29 0 -48.5 -12t-31 -31.5t-17.5 -54.5t-8 -70.5t-2 -90.5z" />
    <glyph glyph-name="Ugrave" unicode="&#xd9;" horiz-adv-x="559" 
d="M252 773l-129 113h161l60 -113h-92zM280 -13q-73 0 -116.5 13.5t-69.5 49.5t-34.5 89t-8.5 143v443h134v-452q0 -55 3 -86.5t12.5 -58t28.5 -37t51 -10.5q60 0 77 42t17 150v452h134v-443q0 -90 -8.5 -143t-34 -89.5t-69 -49.5t-116.5 -13z" />
    <glyph glyph-name="Uacute" unicode="&#xda;" horiz-adv-x="559" 
d="M280 -13q-73 0 -116.5 13.5t-69.5 49.5t-34.5 89t-8.5 143v443h134v-452q0 -55 3 -86.5t12.5 -58t28.5 -37t51 -10.5q60 0 77 42t17 150v452h134v-443q0 -90 -8.5 -143t-34 -89.5t-69 -49.5t-116.5 -13zM216 773l60 113h161l-128 -113h-93z" />
    <glyph glyph-name="Ucircumflex" unicode="&#xdb;" horiz-adv-x="559" 
d="M280 -13q-73 0 -116.5 13.5t-69.5 49.5t-34.5 89t-8.5 143v443h134v-452q0 -55 3 -86.5t12.5 -58t28.5 -37t51 -10.5q60 0 77 42t17 150v452h134v-443q0 -90 -8.5 -143t-34 -89.5t-69 -49.5t-116.5 -13zM104 773l116 113h120l115 -113h-106l-69 56l-70 -56h-106z" />
    <glyph glyph-name="Udieresis" unicode="&#xdc;" horiz-adv-x="559" 
d="M280 -13q-73 0 -116.5 13.5t-69.5 49.5t-34.5 89t-8.5 143v443h134v-452q0 -55 3 -86.5t12.5 -58t28.5 -37t51 -10.5q60 0 77 42t17 150v452h134v-443q0 -90 -8.5 -143t-34 -89.5t-69 -49.5t-116.5 -13zM123 777v109h114v-109h-114zM322 777v109h114v-109h-114z" />
    <glyph glyph-name="Yacute" unicode="&#xdd;" horiz-adv-x="510" 
d="M186 0v297l-183 428h135l117 -309l119 309h133l-187 -429v-296h-134zM204 773l60 113h161l-128 -113h-93z" />
    <glyph glyph-name="Thorn" unicode="&#xde;" horiz-adv-x="510" 
d="M61 0v725h134v-146h56q65 0 108.5 -8.5t79.5 -30.5t53.5 -65.5t17.5 -109.5t-17.5 -110t-53.5 -67t-80 -32t-108 -9h-56v-147h-134zM195 239h40q78 0 105.5 23.5t27.5 100.5t-28 101t-105 24h-40v-249z" />
    <glyph glyph-name="germandbls" unicode="&#xdf;" horiz-adv-x="525" 
d="M50 0v526q0 117 55 164.5t159 47.5q93 0 148.5 -42t55.5 -131q0 -61 -28 -102.5t-68 -54.5q120 -30 120 -189q0 -119 -49.5 -169t-164.5 -50h-48v82h35q52 0 75.5 34.5t23.5 102.5q0 70 -25.5 104t-81.5 34h-29v84h24q46 0 67.5 25.5t21.5 83.5q0 103 -81 103
q-43 0 -62 -28t-19 -93v-532h-129z" />
    <glyph glyph-name="agrave" unicode="&#xe0;" horiz-adv-x="469" 
d="M172 -13q-65 0 -103.5 41t-38.5 108v11q0 65 56 108t211 88v37q0 53 -16 74t-52 21q-41 0 -57.5 -24.5t-16.5 -74.5v-9h-115v9q0 85 53 131t141 46q96 0 144 -38.5t48 -146.5q0 -36 -0.5 -104t-0.5 -91q0 -126 7 -173h-118l-3 73q-39 -86 -139 -86zM221 70q41 0 61 34
t20 110v56q-88 -25 -114 -48.5t-26 -65.5v-10q0 -76 59 -76zM215 604l-124 121h149l63 -121h-88z" />
    <glyph glyph-name="aacute" unicode="&#xe1;" horiz-adv-x="469" 
d="M172 -13q-65 0 -103.5 41t-38.5 108v11q0 65 56 108t211 88v37q0 53 -16 74t-52 21q-41 0 -57.5 -24.5t-16.5 -74.5v-9h-115v9q0 85 53 131t141 46q96 0 144 -38.5t48 -146.5q0 -36 -0.5 -104t-0.5 -91q0 -126 7 -173h-118l-3 73q-39 -86 -139 -86zM221 70q41 0 61 34
t20 110v56q-88 -25 -114 -48.5t-26 -65.5v-10q0 -76 59 -76zM188 604l63 121h149l-125 -121h-87z" />
    <glyph glyph-name="acircumflex" unicode="&#xe2;" horiz-adv-x="469" 
d="M172 -13q-65 0 -103.5 41t-38.5 108v11q0 65 56 108t211 88v37q0 53 -16 74t-52 21q-41 0 -57.5 -24.5t-16.5 -74.5v-9h-115v9q0 85 53 131t141 46q96 0 144 -38.5t48 -146.5q0 -36 -0.5 -104t-0.5 -91q0 -126 7 -173h-118l-3 73q-39 -86 -139 -86zM221 70q41 0 61 34
t20 110v56q-88 -25 -114 -48.5t-26 -65.5v-10q0 -76 59 -76zM64 604l116 121h111l117 -121h-107l-65 58l-65 -58h-107z" />
    <glyph glyph-name="atilde" unicode="&#xe3;" horiz-adv-x="469" 
d="M172 -13q-65 0 -103.5 41t-38.5 108v11q0 65 56 108t211 88v37q0 53 -16 74t-52 21q-41 0 -57.5 -24.5t-16.5 -74.5v-9h-115v9q0 85 53 131t141 46q96 0 144 -38.5t48 -146.5q0 -36 -0.5 -104t-0.5 -91q0 -126 7 -173h-118l-3 73q-39 -86 -139 -86zM221 70q41 0 61 34
t20 110v56q-88 -25 -114 -48.5t-26 -65.5v-10q0 -76 59 -76zM158 608h-77q8 61 35.5 89t64.5 28q25 0 60 -19t44 -19q25 0 33 38h76q-5 -59 -35.5 -88t-63.5 -29q-19 0 -57 18l-25 13q-12 6 -23 6q-23 0 -32 -37z" />
    <glyph glyph-name="adieresis" unicode="&#xe4;" horiz-adv-x="469" 
d="M172 -13q-65 0 -103.5 41t-38.5 108v11q0 65 56 108t211 88v37q0 53 -16 74t-52 21q-41 0 -57.5 -24.5t-16.5 -74.5v-9h-115v9q0 85 53 131t141 46q96 0 144 -38.5t48 -146.5q0 -36 -0.5 -104t-0.5 -91q0 -126 7 -173h-118l-3 73q-39 -86 -139 -86zM221 70q41 0 61 34
t20 110v56q-88 -25 -114 -48.5t-26 -65.5v-10q0 -76 59 -76zM72 610v117h114v-117h-114zM271 610v117h114v-117h-114z" />
    <glyph glyph-name="aring" unicode="&#xe5;" horiz-adv-x="469" 
d="M172 -13q-65 0 -103.5 41t-38.5 108v11q0 65 56 108t211 88v37q0 53 -16 74t-52 21q-41 0 -57.5 -24.5t-16.5 -74.5v-9h-115v9q0 85 53 131t141 46q96 0 144 -38.5t48 -146.5q0 -36 -0.5 -104t-0.5 -91q0 -126 7 -173h-118l-3 73q-39 -86 -139 -86zM221 70q41 0 61 34
t20 110v56q-88 -25 -114 -48.5t-26 -65.5v-10q0 -76 59 -76zM236 653q18 0 31 12.5t13 30.5q0 20 -12.5 32t-31.5 12t-31.5 -12t-12.5 -32q0 -18 13 -30.5t31 -12.5zM236 609q-39 0 -66 24.5t-27 62.5t27 63t66 25t66 -25t27 -63t-27 -62.5t-66 -24.5z" />
    <glyph glyph-name="ae" unicode="&#xe6;" horiz-adv-x="741" 
d="M423 337v-8h164v8q0 70 -17 100.5t-64 30.5q-48 0 -65.5 -30.5t-17.5 -100.5zM158 159v-13q0 -78 59 -78q83 0 83 144v66l-63 -26q-45 -18 -62 -38t-17 -55zM701 177v-4q0 -98 -55 -142t-145 -44q-128 0 -173 100q-43 -100 -158 -100q-69 0 -106.5 38.5t-37.5 110.5v13
q0 58 40 92.5t137 71.5l92 35v49q0 41 -17 59.5t-54 18.5q-40 0 -55.5 -23.5t-15.5 -73.5v-9h-117v9q0 87 50 131t141 44q94 0 139 -44q50 42 138 42q111 0 158 -63t47 -199v-32h-286v-11q0 -91 16 -132.5t64 -41.5q38 0 57.5 23t19.5 78v4h121z" />
    <glyph glyph-name="ccedilla" unicode="&#xe7;" horiz-adv-x="454" 
d="M239 -13q-108 0 -157.5 59.5t-49.5 183.5v79q0 124 49.5 183t157.5 59q86 0 139.5 -46.5t53.5 -148.5v-4h-121v4q0 60 -17.5 85t-54.5 25q-25 0 -40.5 -11t-23 -36.5t-9.5 -53t-2 -73.5v-46q0 -47 2 -74.5t9.5 -53t23 -36t40.5 -10.5q37 0 54.5 24.5t17.5 85.5v4h121v-5
q0 -101 -53.5 -147.5t-139.5 -46.5zM219 -188q-53 0 -89 14l15 47q30 -14 61 -14q54 0 54 32q0 31 -41 31q-24 0 -40 -10l-27 17l50 81h53l-33 -52q15 4 36 4q33 0 58 -18.5t25 -49.5q0 -40 -36 -61t-86 -21z" />
    <glyph glyph-name="egrave" unicode="&#xe8;" horiz-adv-x="479" 
d="M239 -13q-107 0 -157 60.5t-50 179.5v85q0 121 50.5 180t159.5 59q111 0 158 -63t47 -199v-32h-286v-11q0 -91 16 -132.5t64 -41.5q38 0 57.5 23t19.5 78v4h121v-4q0 -98 -55 -142t-145 -44zM161 337v-8h164v8q0 70 -17 100.5t-64 30.5q-48 0 -65.5 -30.5t-17.5 -100.5z
M226 604l-124 121h149l63 -121h-88z" />
    <glyph glyph-name="eacute" unicode="&#xe9;" horiz-adv-x="479" 
d="M183 604l63 121h149l-125 -121h-87zM239 -13q-107 0 -157 60.5t-50 179.5v85q0 121 50.5 180t159.5 59q111 0 158 -63t47 -199v-32h-286v-11q0 -91 16 -132.5t64 -41.5q38 0 57.5 23t19.5 78v4h121v-4q0 -98 -55 -142t-145 -44zM161 337v-8h164v8q0 70 -17 100.5
t-64 30.5q-48 0 -65.5 -30.5t-17.5 -100.5z" />
    <glyph glyph-name="ecircumflex" unicode="&#xea;" horiz-adv-x="479" 
d="M75 604l116 121h111l117 -121h-107l-65 58l-65 -58h-107zM239 -13q-107 0 -157 60.5t-50 179.5v85q0 121 50.5 180t159.5 59q111 0 158 -63t47 -199v-32h-286v-11q0 -91 16 -132.5t64 -41.5q38 0 57.5 23t19.5 78v4h121v-4q0 -98 -55 -142t-145 -44zM161 337v-8h164v8
q0 70 -17 100.5t-64 30.5q-48 0 -65.5 -30.5t-17.5 -100.5z" />
    <glyph glyph-name="edieresis" unicode="&#xeb;" horiz-adv-x="479" 
d="M92 608v117h114v-117h-114zM291 608v117h114v-117h-114zM239 -13q-107 0 -157 60.5t-50 179.5v85q0 121 50.5 180t159.5 59q111 0 158 -63t47 -199v-32h-286v-11q0 -91 16 -132.5t64 -41.5q38 0 57.5 23t19.5 78v4h121v-4q0 -98 -55 -142t-145 -44zM161 337v-8h164v8
q0 70 -17 100.5t-64 30.5q-48 0 -65.5 -30.5t-17.5 -100.5z" />
    <glyph glyph-name="igrave" unicode="&#xec;" horiz-adv-x="229" 
d="M50 0v538h129v-538h-129zM77 604l-124 121h149l63 -121h-88z" />
    <glyph glyph-name="iacute" unicode="&#xed;" horiz-adv-x="229" 
d="M64 604l63 121h149l-125 -121h-87zM50 0v538h129v-538h-129z" />
    <glyph glyph-name="icircumflex" unicode="&#xee;" horiz-adv-x="229" 
d="M-43 604l102 121h110l103 -121h-97l-61 58l-60 -58h-97zM50 0v538h129v-538h-129z" />
    <glyph glyph-name="idieresis" unicode="&#xef;" horiz-adv-x="229" 
d="M138 608v117h113v-117h-113zM-22 608v117h114v-117h-114zM50 0v538h129v-538h-129z" />
    <glyph glyph-name="eth" unicode="&#xf0;" horiz-adv-x="488" 
d="M140 580l-52 26l77 48q-13 8 -27 16.5t-29 17t-21 12.5l82 51q6 -4 35 -19.5t45 -24.5l59 37l53 -26l-66 -41q74 -55 115.5 -140t41.5 -231v-76q0 -123 -51 -182.5t-159 -59.5t-159 59.5t-51 182.5v82q0 241 207 241q43 0 66 -27l3 1q-25 44 -98 97zM243 73q48 0 63 41.5
t15 134.5v43q0 94 -17 135t-63 41t-61 -41.5t-15 -134.5v-43q0 -93 15 -134.5t63 -41.5z" />
    <glyph glyph-name="ntilde" unicode="&#xf1;" horiz-adv-x="494" 
d="M50 0v538h129v-73q37 86 135 86q74 0 104.5 -43t30.5 -143v-365h-129v321q0 37 -1.5 58t-7.5 42t-18.5 30t-32.5 9q-47 0 -64 -43t-17 -125v-292h-129zM182 608h-77q8 61 35.5 89t64.5 28q25 0 60 -19t44 -19q25 0 33 38h76q-5 -59 -35.5 -88t-63.5 -29q-19 0 -57 18
l-25 13q-12 6 -23 6q-23 0 -32 -37z" />
    <glyph glyph-name="ograve" unicode="&#xf2;" horiz-adv-x="484" 
d="M242 466q-48 0 -63 -41.5t-15 -134.5v-42q0 -93 15 -134.5t63 -41.5t63 41.5t15 134.5v42q0 93 -15 134.5t-63 41.5zM242 551q108 0 159 -59.5t51 -182.5v-80q0 -123 -51 -182.5t-159 -59.5t-159 59.5t-51 182.5v80q0 123 51 182.5t159 59.5zM205 604l-124 121h149
l63 -121h-88z" />
    <glyph glyph-name="oacute" unicode="&#xf3;" horiz-adv-x="484" 
d="M193 604l63 121h149l-125 -121h-87zM242 466q-48 0 -63 -41.5t-15 -134.5v-42q0 -93 15 -134.5t63 -41.5t63 41.5t15 134.5v42q0 93 -15 134.5t-63 41.5zM242 551q108 0 159 -59.5t51 -182.5v-80q0 -123 -51 -182.5t-159 -59.5t-159 59.5t-51 182.5v80q0 123 51 182.5
t159 59.5z" />
    <glyph glyph-name="ocircumflex" unicode="&#xf4;" horiz-adv-x="484" 
d="M78 604l116 121h111l117 -121h-107l-65 58l-65 -58h-107zM242 466q-48 0 -63 -41.5t-15 -134.5v-42q0 -93 15 -134.5t63 -41.5t63 41.5t15 134.5v42q0 93 -15 134.5t-63 41.5zM242 551q108 0 159 -59.5t51 -182.5v-80q0 -123 -51 -182.5t-159 -59.5t-159 59.5t-51 182.5
v80q0 123 51 182.5t159 59.5z" />
    <glyph glyph-name="otilde" unicode="&#xf5;" horiz-adv-x="484" 
d="M242 466q-48 0 -63 -41.5t-15 -134.5v-42q0 -93 15 -134.5t63 -41.5t63 41.5t15 134.5v42q0 93 -15 134.5t-63 41.5zM242 551q108 0 159 -59.5t51 -182.5v-80q0 -123 -51 -182.5t-159 -59.5t-159 59.5t-51 182.5v80q0 123 51 182.5t159 59.5zM163 608h-77q8 61 35.5 89
t64.5 28q25 0 60 -19t44 -19q25 0 33 38h76q-5 -59 -35.5 -88t-63.5 -29q-19 0 -57 18l-25 13q-12 6 -23 6q-23 0 -32 -37z" />
    <glyph glyph-name="odieresis" unicode="&#xf6;" horiz-adv-x="484" 
d="M95 608v117h114v-117h-114zM294 608v117h114v-117h-114zM242 466q-48 0 -63 -41.5t-15 -134.5v-42q0 -93 15 -134.5t63 -41.5t63 41.5t15 134.5v42q0 93 -15 134.5t-63 41.5zM242 551q108 0 159 -59.5t51 -182.5v-80q0 -123 -51 -182.5t-159 -59.5t-159 59.5t-51 182.5
v80q0 123 51 182.5t159 59.5z" />
    <glyph glyph-name="divide" unicode="&#xf7;" 
d="M205 20v139h137v-139h-137zM41 217v100h466v-100h-466zM205 375v138h137v-138h-137z" />
    <glyph glyph-name="oslash" unicode="&#xf8;" horiz-adv-x="484" 
d="M242 551q51 0 93 -16l31 70h50l-41 -92q77 -56 77 -204v-80q0 -123 -51 -182.5t-159 -59.5q-55 0 -94 16l-29 -65h-50l39 87q-76 58 -76 204v80q0 123 51 182.5t159 59.5zM320 248v42q0 57 -4 90l-127 -285q17 -23 53 -23q48 0 63 41.5t15 134.5zM242 466
q-48 0 -63 -41.5t-15 -134.5v-42q0 -56 4 -89l126 284q-18 23 -52 23z" />
    <glyph glyph-name="ugrave" unicode="&#xf9;" horiz-adv-x="490" 
d="M440 538v-538h-129v73q-37 -86 -133 -86q-72 0 -102.5 43t-30.5 143v365h129v-322q0 -36 1.5 -58t7.5 -42.5t18 -29.5t31 -9q46 0 62.5 42.5t16.5 125.5v293h129zM211 604l-124 121h149l63 -121h-88z" />
    <glyph glyph-name="uacute" unicode="&#xfa;" horiz-adv-x="490" 
d="M194 604l63 121h149l-125 -121h-87zM440 538v-538h-129v73q-37 -86 -133 -86q-72 0 -102.5 43t-30.5 143v365h129v-322q0 -36 1.5 -58t7.5 -42.5t18 -29.5t31 -9q46 0 62.5 42.5t16.5 125.5v293h129z" />
    <glyph glyph-name="ucircumflex" unicode="&#xfb;" horiz-adv-x="490" 
d="M72 604l116 121h111l117 -121h-107l-65 58l-65 -58h-107zM440 538v-538h-129v73q-37 -86 -133 -86q-72 0 -102.5 43t-30.5 143v365h129v-322q0 -36 1.5 -58t7.5 -42.5t18 -29.5t31 -9q46 0 62.5 42.5t16.5 125.5v293h129z" />
    <glyph glyph-name="udieresis" unicode="&#xfc;" horiz-adv-x="490" 
d="M89 608v117h114v-117h-114zM288 608v117h114v-117h-114zM440 538v-538h-129v73q-37 -86 -133 -86q-72 0 -102.5 43t-30.5 143v365h129v-322q0 -36 1.5 -58t7.5 -42.5t18 -29.5t31 -9q46 0 62.5 42.5t16.5 125.5v293h129z" />
    <glyph glyph-name="yacute" unicode="&#xfd;" horiz-adv-x="417" 
d="M42 -175v82h35q36 0 50.5 13t22.5 52l6 30l-153 536h127l88 -410l77 410h119l-131 -540q-26 -105 -62.5 -139t-123.5 -34h-55zM156 604l63 121h149l-125 -121h-87z" />
    <glyph glyph-name="thorn" unicode="&#xfe;" horiz-adv-x="506" 
d="M268 76q45 0 59.5 42t14.5 137v27q0 97 -14.5 138.5t-59.5 41.5q-51 0 -72 -47t-21 -146t21 -146t72 -47zM310 -13q-46 0 -81 24t-50 62v-248h-129v900h129v-260q15 38 50 62t81 24q85 0 124.5 -60t39.5 -185v-74q0 -125 -39.5 -185t-124.5 -60z" />
    <glyph glyph-name="ydieresis" unicode="&#xff;" horiz-adv-x="417" 
d="M42 -175v82h35q36 0 50.5 13t22.5 52l6 30l-153 536h127l88 -410l77 410h119l-131 -540q-26 -105 -62.5 -139t-123.5 -34h-55zM55 608v117h114v-117h-114zM254 608v117h114v-117h-114z" />
    <glyph glyph-name="Amacron" unicode="&#x100;" horiz-adv-x="542" 
d="M7 0l183 725h161l184 -725h-137l-36 161h-190l-35 -161h-130zM267 595l-76 -346h152zM148 786v89h247v-89h-247z" />
    <glyph glyph-name="amacron" unicode="&#x101;" horiz-adv-x="469" 
d="M172 -13q-65 0 -103.5 41t-38.5 108v11q0 65 56 108t211 88v37q0 53 -16 74t-52 21q-41 0 -57.5 -24.5t-16.5 -74.5v-9h-115v9q0 85 53 131t141 46q96 0 144 -38.5t48 -146.5q0 -36 -0.5 -104t-0.5 -91q0 -126 7 -173h-118l-3 73q-39 -86 -139 -86zM221 70q41 0 61 34
t20 110v56q-88 -25 -114 -48.5t-26 -65.5v-10q0 -76 59 -76zM112 620v87h244v-87h-244z" />
    <glyph glyph-name="Abreve" unicode="&#x102;" horiz-adv-x="542" 
d="M7 0l183 725h161l184 -725h-137l-36 161h-190l-35 -161h-130zM267 595l-76 -346h152zM272 771q-72 0 -108 27.5t-40 87.5h89q4 -50 59 -50t59 50h89q-5 -60 -41 -87.5t-107 -27.5z" />
    <glyph glyph-name="abreve" unicode="&#x103;" horiz-adv-x="469" 
d="M172 -13q-65 0 -103.5 41t-38.5 108v11q0 65 56 108t211 88v37q0 53 -16 74t-52 21q-41 0 -57.5 -24.5t-16.5 -74.5v-9h-115v9q0 85 53 131t141 46q96 0 144 -38.5t48 -146.5q0 -36 -0.5 -104t-0.5 -91q0 -126 7 -173h-118l-3 73q-39 -86 -139 -86zM221 70q41 0 61 34
t20 110v56q-88 -25 -114 -48.5t-26 -65.5v-10q0 -76 59 -76zM234 603q-72 0 -104 30.5t-36 91.5h88q3 -55 52 -55t52 55h89q-7 -62 -37 -92t-104 -30z" />
    <glyph glyph-name="Aogonek" unicode="&#x104;" horiz-adv-x="542" 
d="M7 0l183 725h161l184 -725q-92 -42 -92 -81q0 -34 48 -34q19 0 43 6v-71q-37 -8 -75 -8q-56 0 -94 22t-38 66q0 30 19.5 58t51.5 42l-36 161h-190l-35 -161h-130zM267 595l-76 -346h152z" />
    <glyph glyph-name="aogonek" unicode="&#x105;" horiz-adv-x="469" 
d="M172 -13q-65 0 -103.5 41t-38.5 108v11q0 65 56 108t211 88v37q0 53 -16 74t-52 21q-41 0 -57.5 -24.5t-16.5 -74.5v-9h-115v9q0 85 53 131t141 46q96 0 144 -38.5t48 -146.5q0 -36 -0.5 -104t-0.5 -91q0 -126 7 -173q-83 -39 -83 -81q0 -35 47 -35q18 0 52 9v-71
q-33 -10 -83 -10q-55 0 -91.5 22t-36.5 66q0 29 22 57.5t55 42.5l-3 73q-39 -86 -139 -86zM221 70q41 0 61 34t20 110v56q-88 -25 -114 -48.5t-26 -65.5v-10q0 -76 59 -76z" />
    <glyph glyph-name="Cacute" unicode="&#x106;" horiz-adv-x="537" 
d="M283 -13q-135 0 -191 77.5t-56 248.5v99q0 172 56 249.5t191 77.5q115 0 171.5 -59.5t56.5 -184.5v-8h-133v6q0 86 -22.5 118.5t-73.5 32.5q-34 0 -55.5 -16t-32 -53t-13.5 -79t-3 -111v-45q0 -69 3 -111t13.5 -79t32 -53t55.5 -16q51 0 73.5 32.5t22.5 118.5v6h133v-7
q0 -125 -56.5 -184.5t-171.5 -59.5zM224 773l60 113h161l-128 -113h-93z" />
    <glyph glyph-name="cacute" unicode="&#x107;" horiz-adv-x="454" 
d="M176 604l63 121h149l-125 -121h-87zM239 -13q-108 0 -157.5 59.5t-49.5 183.5v79q0 124 49.5 183t157.5 59q86 0 139.5 -46.5t53.5 -148.5v-4h-121v4q0 60 -17.5 85t-54.5 25q-25 0 -40.5 -11t-23 -36.5t-9.5 -53t-2 -73.5v-46q0 -47 2 -74.5t9.5 -53t23 -36t40.5 -10.5
q37 0 54.5 24.5t17.5 85.5v4h121v-5q0 -101 -53.5 -147.5t-139.5 -46.5z" />
    <glyph glyph-name="Ccircumflex" unicode="&#x108;" horiz-adv-x="537" 
d="M283 -13q-135 0 -191 77.5t-56 248.5v99q0 172 56 249.5t191 77.5q115 0 171.5 -59.5t56.5 -184.5v-8h-133v6q0 86 -22.5 118.5t-73.5 32.5q-34 0 -55.5 -16t-32 -53t-13.5 -79t-3 -111v-45q0 -69 3 -111t13.5 -79t32 -53t55.5 -16q51 0 73.5 32.5t22.5 118.5v6h133v-7
q0 -125 -56.5 -184.5t-171.5 -59.5zM106 773l116 113h120l115 -113h-106l-69 56l-70 -56h-106z" />
    <glyph glyph-name="ccircumflex" unicode="&#x109;" horiz-adv-x="454" 
d="M67 604l116 121h111l117 -121h-107l-65 58l-65 -58h-107zM239 -13q-108 0 -157.5 59.5t-49.5 183.5v79q0 124 49.5 183t157.5 59q86 0 139.5 -46.5t53.5 -148.5v-4h-121v4q0 60 -17.5 85t-54.5 25q-25 0 -40.5 -11t-23 -36.5t-9.5 -53t-2 -73.5v-46q0 -47 2 -74.5
t9.5 -53t23 -36t40.5 -10.5q37 0 54.5 24.5t17.5 85.5v4h121v-5q0 -101 -53.5 -147.5t-139.5 -46.5z" />
    <glyph glyph-name="Cdotaccent" unicode="&#x10a;" horiz-adv-x="537" 
d="M283 -13q-135 0 -191 77.5t-56 248.5v99q0 172 56 249.5t191 77.5q115 0 171.5 -59.5t56.5 -184.5v-8h-133v6q0 86 -22.5 118.5t-73.5 32.5q-34 0 -55.5 -16t-32 -53t-13.5 -79t-3 -111v-45q0 -69 3 -111t13.5 -79t32 -53t55.5 -16q51 0 73.5 32.5t22.5 118.5v6h133v-7
q0 -125 -56.5 -184.5t-171.5 -59.5zM214 777v109h135v-109h-135z" />
    <glyph glyph-name="cdotaccent" unicode="&#x10b;" horiz-adv-x="454" 
d="M239 -13q-108 0 -157.5 59.5t-49.5 183.5v79q0 124 49.5 183t157.5 59q86 0 139.5 -46.5t53.5 -148.5v-4h-121v4q0 60 -17.5 85t-54.5 25q-25 0 -40.5 -11t-23 -36.5t-9.5 -53t-2 -73.5v-46q0 -47 2 -74.5t9.5 -53t23 -36t40.5 -10.5q37 0 54.5 24.5t17.5 85.5v4h121v-5
q0 -101 -53.5 -147.5t-139.5 -46.5zM184 608v117h114v-117h-114z" />
    <glyph glyph-name="Ccaron" unicode="&#x10c;" horiz-adv-x="537" 
d="M344 773h-121l-116 113h107l69 -56l69 56h107zM283 -13q-135 0 -191 77.5t-56 248.5v99q0 172 56 249.5t191 77.5q115 0 171.5 -59.5t56.5 -184.5v-8h-133v6q0 86 -22.5 118.5t-73.5 32.5q-34 0 -55.5 -16t-32 -53t-13.5 -79t-3 -111v-45q0 -69 3 -111t13.5 -79t32 -53
t55.5 -16q51 0 73.5 32.5t22.5 118.5v6h133v-7q0 -125 -56.5 -184.5t-171.5 -59.5z" />
    <glyph glyph-name="ccaron" unicode="&#x10d;" horiz-adv-x="454" 
d="M189 604l-118 121h107l65 -58l65 58h106l-116 -121h-109zM239 -13q-108 0 -157.5 59.5t-49.5 183.5v79q0 124 49.5 183t157.5 59q86 0 139.5 -46.5t53.5 -148.5v-4h-121v4q0 60 -17.5 85t-54.5 25q-25 0 -40.5 -11t-23 -36.5t-9.5 -53t-2 -73.5v-46q0 -47 2 -74.5
t9.5 -53t23 -36t40.5 -10.5q37 0 54.5 24.5t17.5 85.5v4h121v-5q0 -101 -53.5 -147.5t-139.5 -46.5z" />
    <glyph glyph-name="Dcaron" unicode="&#x10e;" horiz-adv-x="562" 
d="M340 773h-121l-116 113h107l69 -56l69 56h107zM195 92h40q92 0 120.5 47.5t28.5 202.5v43q0 153 -28.5 201t-120.5 48h-40v-542zM61 0v725h168q77 0 129.5 -14t92 -49.5t57.5 -99.5t18 -160v-82q0 -96 -18 -159t-57.5 -98t-91.5 -49t-130 -14h-168z" />
    <glyph glyph-name="dcaron" unicode="&#x10f;" horiz-adv-x="625" 
d="M196 -13q-85 0 -124.5 60t-39.5 185v74q0 125 39.5 185t124.5 60q46 0 81 -24t50 -62v260h129v-725h-129v73q-15 -38 -50 -62t-81 -24zM238 76q51 0 72 47t21 146t-21 146t-72 47q-45 0 -59.5 -41.5t-14.5 -138.5v-27q0 -95 14.5 -137t59.5 -42zM487 555l26 170h122
l-62 -170h-86z" />
    <glyph glyph-name="Dcroat" unicode="&#x110;" horiz-adv-x="562" 
d="M0 316v102h61v307h168q77 0 129.5 -14t92 -49.5t57.5 -99.5t18 -160v-82q0 -96 -18 -159t-57.5 -98t-91.5 -49t-130 -14h-168v316h-61zM195 92h40q92 0 120.5 47.5t28.5 202.5v43q0 153 -28.5 201t-120.5 48h-40v-216h123v-102h-123v-224z" />
    <glyph glyph-name="dslash" unicode="&#x111;" horiz-adv-x="506" 
d="M206 578v72h121v75h129v-75h68v-72h-68v-578h-129v73q-15 -38 -50 -62t-81 -24q-85 0 -124.5 60t-39.5 185v74q0 125 39.5 185t124.5 60q46 0 81 -24t50 -62v113h-121zM238 76q51 0 72 47t21 146t-21 146t-72 47q-45 0 -59.5 -41.5t-14.5 -138.5v-27q0 -95 14.5 -137
t59.5 -42z" />
    <glyph glyph-name="Emacron" unicode="&#x112;" horiz-adv-x="469" 
d="M132 786v89h247v-89h-247zM61 0v725h387v-100h-253v-203h231v-99h-231v-223h253v-100h-387z" />
    <glyph glyph-name="emacron" unicode="&#x113;" horiz-adv-x="479" 
d="M239 -13q-107 0 -157 60.5t-50 179.5v85q0 121 50.5 180t159.5 59q111 0 158 -63t47 -199v-32h-286v-11q0 -91 16 -132.5t64 -41.5q38 0 57.5 23t19.5 78v4h121v-4q0 -98 -55 -142t-145 -44zM161 337v-8h164v8q0 70 -17 100.5t-64 30.5q-48 0 -65.5 -30.5t-17.5 -100.5z
M125 620v87h244v-87h-244z" />
    <glyph glyph-name="Ebreve" unicode="&#x114;" horiz-adv-x="469" 
d="M255 771q-72 0 -108 27.5t-40 87.5h89q4 -50 59 -50t59 50h89q-5 -60 -41 -87.5t-107 -27.5zM61 0v725h387v-100h-253v-203h231v-99h-231v-223h253v-100h-387z" />
    <glyph glyph-name="ebreve" unicode="&#x115;" horiz-adv-x="479" 
d="M239 -13q-107 0 -157 60.5t-50 179.5v85q0 121 50.5 180t159.5 59q111 0 158 -63t47 -199v-32h-286v-11q0 -91 16 -132.5t64 -41.5q38 0 57.5 23t19.5 78v4h121v-4q0 -98 -55 -142t-145 -44zM161 337v-8h164v8q0 70 -17 100.5t-64 30.5q-48 0 -65.5 -30.5t-17.5 -100.5z
M248 603q-72 0 -104 30.5t-36 91.5h88q3 -55 52 -55t52 55h89q-7 -62 -37 -92t-104 -30z" />
    <glyph glyph-name="Edotaccent" unicode="&#x116;" horiz-adv-x="469" 
d="M200 777v109h135v-109h-135zM61 0v725h387v-100h-253v-203h231v-99h-231v-223h253v-100h-387z" />
    <glyph glyph-name="edotaccent" unicode="&#x117;" horiz-adv-x="479" 
d="M239 -13q-107 0 -157 60.5t-50 179.5v85q0 121 50.5 180t159.5 59q111 0 158 -63t47 -199v-32h-286v-11q0 -91 16 -132.5t64 -41.5q38 0 57.5 23t19.5 78v4h121v-4q0 -98 -55 -142t-145 -44zM161 337v-8h164v8q0 70 -17 100.5t-64 30.5q-48 0 -65.5 -30.5t-17.5 -100.5z
M190 608v117h114v-117h-114z" />
    <glyph glyph-name="Eogonek" unicode="&#x118;" horiz-adv-x="469" 
d="M374 -188q-54 0 -86 21.5t-32 66.5q0 30 21 57.5t54 42.5h117q-89 -42 -89 -81q0 -34 46 -34q23 0 41 6v-72q-40 -7 -72 -7zM61 0v725h387v-100h-253v-203h231v-99h-231v-223h253v-100h-387z" />
    <glyph glyph-name="eogonek" unicode="&#x119;" horiz-adv-x="480" 
d="M162 338v-8h164v8q0 70 -17 100.5t-64 30.5q-48 0 -65.5 -30.5t-17.5 -100.5zM363 -109v-72q-40 -7 -72 -7q-55 0 -91.5 22t-36.5 66q0 46 41 90q-89 11 -130 70t-41 168v85q0 121 50.5 180t159.5 59q111 0 158 -63t47 -199v-32h-286v-11q0 -92 15.5 -133t63.5 -41
q38 0 57.5 23t19.5 78v4h122v-4q0 -113 -76 -157q-42 -25 -65.5 -51t-23.5 -47q0 -34 47 -34q23 0 41 6z" />
    <glyph glyph-name="Ecaron" unicode="&#x11a;" horiz-adv-x="469" 
d="M325 773h-121l-116 113h107l69 -56l69 56h107zM61 0v725h387v-100h-253v-203h231v-99h-231v-223h253v-100h-387z" />
    <glyph glyph-name="ecaron" unicode="&#x11b;" horiz-adv-x="479" 
d="M195 604l-118 121h107l65 -58l65 58h106l-116 -121h-109zM239 -13q-107 0 -157 60.5t-50 179.5v85q0 121 50.5 180t159.5 59q111 0 158 -63t47 -199v-32h-286v-11q0 -91 16 -132.5t64 -41.5q38 0 57.5 23t19.5 78v4h121v-4q0 -98 -55 -142t-145 -44zM161 337v-8h164v8
q0 70 -17 100.5t-64 30.5q-48 0 -65.5 -30.5t-17.5 -100.5z" />
    <glyph glyph-name="Gcircumflex" unicode="&#x11c;" horiz-adv-x="571" 
d="M108 773l116 113h120l115 -113h-106l-69 56l-70 -56h-106zM260 -13q-119 0 -171.5 79t-52.5 247v99q0 171 57 249t192 78q114 0 172.5 -58.5t58.5 -171.5v-5h-133v4q0 75 -23.5 105.5t-74.5 30.5q-29 0 -48.5 -12t-31 -31.5t-17.5 -54.5t-8 -70.5t-2 -90.5v-45
q0 -55 2 -90.5t8 -70.5t17.5 -54.5t31 -31.5t48.5 -12q62 0 90 43.5t28 134.5v27h-141v91h257v-377h-96l-4 85q-42 -98 -159 -98z" />
    <glyph glyph-name="gcircumflex" unicode="&#x11d;" horiz-adv-x="511" 
d="M94 604l116 121h111l117 -121h-107l-65 58l-65 -58h-107zM245 -188q-91 0 -143 41.5t-52 120.5v3h121v-3q0 -76 77 -76q47 0 65 25t18 98v82q-33 -86 -121 -86q-85 0 -131.5 58t-46.5 174v66q0 236 178 236q87 0 121 -87v74h130v-498q0 -120 -51 -174t-165 -54zM243 106
q54 0 74 41.5t20 130.5q0 98 -20 141t-74 43q-46 0 -62 -39.5t-16 -127.5v-17q0 -89 16 -130.5t62 -41.5z" />
    <glyph glyph-name="Gbreve" unicode="&#x11e;" horiz-adv-x="571" 
d="M285 771q-72 0 -108 27.5t-40 87.5h89q4 -50 59 -50t59 50h89q-5 -60 -41 -87.5t-107 -27.5zM260 -13q-119 0 -171.5 79t-52.5 247v99q0 171 57 249t192 78q114 0 172.5 -58.5t58.5 -171.5v-5h-133v4q0 75 -23.5 105.5t-74.5 30.5q-29 0 -48.5 -12t-31 -31.5t-17.5 -54.5
t-8 -70.5t-2 -90.5v-45q0 -55 2 -90.5t8 -70.5t17.5 -54.5t31 -31.5t48.5 -12q62 0 90 43.5t28 134.5v27h-141v91h257v-377h-96l-4 85q-42 -98 -159 -98z" />
    <glyph glyph-name="gbreve" unicode="&#x11f;" horiz-adv-x="511" 
d="M245 -188q-91 0 -143 41.5t-52 120.5v3h121v-3q0 -76 77 -76q47 0 65 25t18 98v82q-33 -86 -121 -86q-85 0 -131.5 58t-46.5 174v66q0 236 178 236q87 0 121 -87v74h130v-498q0 -120 -51 -174t-165 -54zM243 106q54 0 74 41.5t20 130.5q0 98 -20 141t-74 43
q-46 0 -62 -39.5t-16 -127.5v-17q0 -89 16 -130.5t62 -41.5zM263 603q-72 0 -104 30.5t-36 91.5h88q3 -55 52 -55t52 55h89q-7 -62 -37 -92t-104 -30z" />
    <glyph glyph-name="Gdotaccent" unicode="&#x120;" horiz-adv-x="571" 
d="M216 777v109h135v-109h-135zM260 -13q-119 0 -171.5 79t-52.5 247v99q0 171 57 249t192 78q114 0 172.5 -58.5t58.5 -171.5v-5h-133v4q0 75 -23.5 105.5t-74.5 30.5q-29 0 -48.5 -12t-31 -31.5t-17.5 -54.5t-8 -70.5t-2 -90.5v-45q0 -55 2 -90.5t8 -70.5t17.5 -54.5
t31 -31.5t48.5 -12q62 0 90 43.5t28 134.5v27h-141v91h257v-377h-96l-4 85q-42 -98 -159 -98z" />
    <glyph glyph-name="gdotaccent" unicode="&#x121;" horiz-adv-x="511" 
d="M245 -188q-91 0 -143 41.5t-52 120.5v3h121v-3q0 -76 77 -76q47 0 65 25t18 98v82q-33 -86 -121 -86q-85 0 -131.5 58t-46.5 174v66q0 236 178 236q87 0 121 -87v74h130v-498q0 -120 -51 -174t-165 -54zM243 106q54 0 74 41.5t20 130.5q0 98 -20 141t-74 43
q-46 0 -62 -39.5t-16 -127.5v-17q0 -89 16 -130.5t62 -41.5zM194 608v117h114v-117h-114z" />
    <glyph glyph-name="uni0122" unicode="&#x122;" horiz-adv-x="571" 
d="M218 -237l38 93h-35v94h107v-100l-43 -87h-67zM260 -13q-119 0 -171.5 79t-52.5 247v99q0 171 57 249t192 78q114 0 172.5 -58.5t58.5 -171.5v-5h-133v4q0 75 -23.5 105.5t-74.5 30.5q-29 0 -48.5 -12t-31 -31.5t-17.5 -54.5t-8 -70.5t-2 -90.5v-45q0 -55 2 -90.5
t8 -70.5t17.5 -54.5t31 -31.5t48.5 -12q62 0 90 43.5t28 134.5v27h-141v91h257v-377h-96l-4 85q-42 -98 -159 -98z" />
    <glyph glyph-name="uni0123" unicode="&#x123;" horiz-adv-x="511" 
d="M304 801l-38 -93h35v-94h-107v100l43 87h67zM245 -188q-91 0 -143 41.5t-52 120.5v3h121v-3q0 -76 77 -76q47 0 65 25t18 98v82q-33 -86 -121 -86q-85 0 -131.5 58t-46.5 174v66q0 236 178 236q87 0 121 -87v74h130v-498q0 -120 -51 -174t-165 -54zM243 106q54 0 74 41.5
t20 130.5q0 98 -20 141t-74 43q-46 0 -62 -39.5t-16 -127.5v-17q0 -89 16 -130.5t62 -41.5z" />
    <glyph glyph-name="Hcircumflex" unicode="&#x124;" horiz-adv-x="586" 
d="M61 0v725h134v-303h196v303h134v-725h-134v323h-196v-323h-134zM117 773l116 113h120l115 -113h-106l-69 56l-70 -56h-106z" />
    <glyph glyph-name="hcircumflex" unicode="&#x125;" horiz-adv-x="494" 
d="M50 0v725h129v-260q37 86 135 86q74 0 104.5 -43t30.5 -143v-365h-129v321q0 37 -1.5 58t-7.5 42t-18.5 30t-32.5 9q-47 0 -64 -43t-17 -125v-292h-129zM-62 773l116 113h120l115 -113h-106l-69 56l-70 -56h-106z" />
    <glyph glyph-name="Hbar" unicode="&#x126;" horiz-adv-x="586" 
d="M6 522v99h55v104h134v-104h196v104h134v-104h55v-99h-55v-522h-134v323h-196v-323h-134v522h-55zM195 422h196v100h-196v-100z" />
    <glyph glyph-name="hbar" unicode="&#x127;" horiz-adv-x="494" 
d="M-17 578v71h67v76h129v-76h127v-71h-127v-113q37 86 135 86q74 0 104.5 -43t30.5 -143v-365h-129v321q0 37 -1.5 58t-7.5 42t-18.5 30t-32.5 9q-47 0 -64 -43t-17 -125v-292h-129v578h-67z" />
    <glyph glyph-name="Itilde" unicode="&#x128;" horiz-adv-x="256" 
d="M62 774h-73q10 109 96 109q26 0 49 -19.5t32 -19.5q24 0 28 39h73q-5 -59 -33.5 -84t-63.5 -25q-22 0 -44.5 18t-35.5 18q-24 0 -28 -36zM61 0v725h134v-725h-134z" />
    <glyph glyph-name="itilde" unicode="&#x129;" horiz-adv-x="229" 
d="M44 606h-74q6 62 32 90.5t63 28.5q27 0 53.5 -20t36.5 -20q21 0 27 40h74q-6 -63 -31.5 -91t-59.5 -28q-23 0 -50.5 19.5t-40.5 19.5q-24 0 -30 -39zM50 0v538h129v-538h-129z" />
    <glyph glyph-name="Imacron" unicode="&#x12a;" horiz-adv-x="256" 
d="M15 787v89h226v-89h-226zM61 0v725h134v-725h-134z" />
    <glyph glyph-name="imacron" unicode="&#x12b;" horiz-adv-x="229" 
d="M1 620v87h226v-87h-226zM50 0v538h129v-538h-129z" />
    <glyph glyph-name="Ibreve" unicode="&#x12c;" horiz-adv-x="256" 
d="M128 771q-70 0 -101 27.5t-35 88.5h92q2 -30 11.5 -41.5t32.5 -11.5t33 12t12 41h92q-5 -61 -36 -88.5t-101 -27.5zM61 0v725h134v-725h-134z" />
    <glyph glyph-name="ibreve" unicode="&#x12d;" horiz-adv-x="229" 
d="M112 604q-69 0 -97.5 30.5t-28.5 90.5h89q0 -54 37 -54q38 0 38 54h89q0 -60 -28 -90.5t-99 -30.5zM50 0v538h129v-538h-129z" />
    <glyph glyph-name="Iogonek" unicode="&#x12e;" horiz-adv-x="256" 
d="M117 -188q-55 0 -91.5 22t-36.5 66q0 29 20.5 57t51.5 43v725h134v-725q-93 -44 -93 -81q0 -34 46 -34q23 0 47 8v-72q-43 -9 -78 -9z" />
    <glyph glyph-name="iogonek" unicode="&#x12f;" horiz-adv-x="229" 
d="M50 0v538h129v-538h1q-88 -41 -88 -81q0 -34 47 -34q23 0 41 6v-72q-40 -7 -72 -7q-55 0 -91.5 22t-36.5 66q0 30 19.5 57.5t51.5 42.5h-1zM50 604v121h129v-121h-129z" />
    <glyph glyph-name="Idot" unicode="&#x130;" horiz-adv-x="256" 
d="M61 0v725h134v-725h-134zM61 777v109h135v-109h-135z" />
    <glyph glyph-name="dotlessi" unicode="&#x131;" horiz-adv-x="229" 
d="M50 0v538h129v-538h-129z" />
    <glyph glyph-name="Jcircumflex" unicode="&#x134;" horiz-adv-x="457" 
d="M205 -12q-106 0 -156 52.5t-50 163.5v17h134v-17q0 -70 15 -96t54 -26q38 0 54 27t16 95v521h134v-522q0 -118 -50.5 -166.5t-150.5 -48.5zM159 773l116 113h120l115 -113h-106l-69 56l-70 -56h-106z" />
    <glyph glyph-name="jcircumflex" unicode="&#x135;" horiz-adv-x="228" 
d="M-57 604l116 121h111l117 -121h-107l-65 58l-65 -58h-107zM-26 -175v80h25q34 0 42 15.5t8 65.5v552h129v-546q0 -101 -36 -134t-130 -33h-38z" />
    <glyph glyph-name="uni0136" unicode="&#x136;" horiz-adv-x="551" 
d="M240 -237l38 93h-35v94h107v-100l-43 -87h-67zM416 0l-158 309l-63 -96v-213h-134v725h134v-320l207 320h133l-198 -297l218 -428h-139z" />
    <glyph glyph-name="uni0137" unicode="&#x137;" horiz-adv-x="441" 
d="M184 -237l38 93h-35v94h107v-100l-43 -87h-67zM327 0l-100 219l-48 -71v-148h-129v725h129v-401l143 214h125l-145 -211l151 -327h-126z" />
    <glyph glyph-name="Lacute" unicode="&#x139;" horiz-adv-x="457" 
d="M61 0v725h134v-625h253v-100h-387zM79 773l60 113h161l-128 -113h-93z" />
    <glyph glyph-name="lacute" unicode="&#x13a;" horiz-adv-x="229" 
d="M63 773l60 113h161l-128 -113h-93zM50 0v725h129v-725h-129z" />
    <glyph glyph-name="uni013B" unicode="&#x13b;" horiz-adv-x="457" 
d="M198 -237l38 93h-35v94h107v-100l-43 -87h-67zM61 0v725h134v-625h253v-100h-387z" />
    <glyph glyph-name="uni013C" unicode="&#x13c;" horiz-adv-x="229" 
d="M59 -237l38 93h-35v94h107v-100l-43 -87h-67zM50 0v725h129v-725h-129z" />
    <glyph glyph-name="Lcaron" unicode="&#x13d;" horiz-adv-x="457" 
d="M61 0v725h134v-625h253v-100h-387zM265 555l26 170h122l-62 -170h-86z" />
    <glyph glyph-name="lcaron" unicode="&#x13e;" horiz-adv-x="348" 
d="M210 555l26 170h122l-62 -170h-86zM50 0v725h129v-725h-129z" />
    <glyph glyph-name="Ldot" unicode="&#x13f;" horiz-adv-x="457" 
d="M289 360v109h135v-109h-135zM61 0v725h134v-625h253v-100h-387z" />
    <glyph glyph-name="ldot" unicode="&#x140;" horiz-adv-x="355" 
d="M56 0v725h129v-725h-129zM241 355v117h114v-117h-114z" />
    <glyph glyph-name="Lslash" unicode="&#x141;" horiz-adv-x="470" 
d="M1 199v108l82 54v364h134v-275l175 116v-109l-175 -116v-241h253v-100h-387v253z" />
    <glyph glyph-name="lslash" unicode="&#x142;" horiz-adv-x="311" 
d="M20 260v107l73 43v315h129v-240l69 41v-107l-69 -41v-378h-129v303z" />
    <glyph glyph-name="Nacute" unicode="&#x143;" horiz-adv-x="589" 
d="M61 0v725h157l189 -552v552h121v-725h-158l-188 552v-552h-121zM250 773l60 113h161l-128 -113h-93z" />
    <glyph glyph-name="nacute" unicode="&#x144;" horiz-adv-x="494" 
d="M198 604l63 121h149l-125 -121h-87zM50 0v538h129v-73q37 86 135 86q74 0 104.5 -43t30.5 -143v-365h-129v321q0 37 -1.5 58t-7.5 42t-18.5 30t-32.5 9q-47 0 -64 -43t-17 -125v-292h-129z" />
    <glyph glyph-name="uni0145" unicode="&#x145;" horiz-adv-x="589" 
d="M241 -237l38 93h-35v94h107v-100l-43 -87h-67zM61 0v725h157l189 -552v552h121v-725h-158l-188 552v-552h-121z" />
    <glyph glyph-name="uni0146" unicode="&#x146;" horiz-adv-x="494" 
d="M193 -237l38 93h-35v94h107v-100l-43 -87h-67zM50 0v538h129v-73q37 86 135 86q74 0 104.5 -43t30.5 -143v-365h-129v321q0 37 -1.5 58t-7.5 42t-18.5 30t-32.5 9q-47 0 -64 -43t-17 -125v-292h-129z" />
    <glyph glyph-name="Ncaron" unicode="&#x147;" horiz-adv-x="589" 
d="M353 773h-121l-116 113h107l69 -56l69 56h107zM61 0v725h157l189 -552v552h121v-725h-158l-188 552v-552h-121z" />
    <glyph glyph-name="ncaron" unicode="&#x148;" horiz-adv-x="494" 
d="M196 604l-118 121h107l65 -58l65 58h106l-116 -121h-109zM50 0v538h129v-73q37 86 135 86q74 0 104.5 -43t30.5 -143v-365h-129v321q0 37 -1.5 58t-7.5 42t-18.5 30t-32.5 9q-47 0 -64 -43t-17 -125v-292h-129z" />
    <glyph glyph-name="Eng" unicode="&#x14a;" horiz-adv-x="589" 
d="M293 -175v102h35q48 0 64 12.5t16 51.5v17l-228 544v-552h-119v725h156l191 -481v481h120v-727q0 -102 -35.5 -137.5t-135.5 -35.5h-64z" />
    <glyph glyph-name="eng" unicode="&#x14b;" horiz-adv-x="494" 
d="M320 -13v334q0 37 -1.5 58t-7.5 42t-18.5 30t-32.5 9q-47 0 -64 -43t-17 -125v-292h-129v538h129v-73q37 86 135 86q74 0 104.5 -43t30.5 -143v-376q0 -98 -37.5 -131t-131.5 -33h-38v81h24q36 0 45 16t9 65z" />
    <glyph glyph-name="Omacron" unicode="&#x14c;" horiz-adv-x="570" 
d="M166 786v89h247v-89h-247zM285 81q29 0 48.5 12t31 31.5t17.5 54.5t8 70.5t2 90.5v45q0 55 -2 90.5t-8 70.5t-17.5 54.5t-31 31.5t-48.5 12t-48.5 -12t-31 -31.5t-17.5 -54.5t-8 -70.5t-2 -90.5v-45q0 -55 2 -90.5t8 -70.5t17.5 -54.5t31 -31.5t48.5 -12zM285 -13
q-135 0 -192 77.5t-57 248.5v99q0 171 57 249t192 78t192 -78t57 -249v-99q0 -171 -57 -248.5t-192 -77.5z" />
    <glyph glyph-name="omacron" unicode="&#x14d;" horiz-adv-x="484" 
d="M128 620v87h244v-87h-244zM242 466q-48 0 -63 -41.5t-15 -134.5v-42q0 -93 15 -134.5t63 -41.5t63 41.5t15 134.5v42q0 93 -15 134.5t-63 41.5zM242 551q108 0 159 -59.5t51 -182.5v-80q0 -123 -51 -182.5t-159 -59.5t-159 59.5t-51 182.5v80q0 123 51 182.5t159 59.5z
" />
    <glyph glyph-name="Obreve" unicode="&#x14e;" horiz-adv-x="570" 
d="M290 771q-72 0 -108 27.5t-40 87.5h89q4 -50 59 -50t59 50h89q-5 -60 -41 -87.5t-107 -27.5zM285 81q29 0 48.5 12t31 31.5t17.5 54.5t8 70.5t2 90.5v45q0 55 -2 90.5t-8 70.5t-17.5 54.5t-31 31.5t-48.5 12t-48.5 -12t-31 -31.5t-17.5 -54.5t-8 -70.5t-2 -90.5v-45
q0 -55 2 -90.5t8 -70.5t17.5 -54.5t31 -31.5t48.5 -12zM285 -13q-135 0 -192 77.5t-57 248.5v99q0 171 57 249t192 78t192 -78t57 -249v-99q0 -171 -57 -248.5t-192 -77.5z" />
    <glyph glyph-name="obreve" unicode="&#x14f;" horiz-adv-x="484" 
d="M242 466q-48 0 -63 -41.5t-15 -134.5v-42q0 -93 15 -134.5t63 -41.5t63 41.5t15 134.5v42q0 93 -15 134.5t-63 41.5zM242 551q108 0 159 -59.5t51 -182.5v-80q0 -123 -51 -182.5t-159 -59.5t-159 59.5t-51 182.5v80q0 123 51 182.5t159 59.5zM250 603q-72 0 -104 30.5
t-36 91.5h88q3 -55 52 -55t52 55h89q-7 -62 -37 -92t-104 -30z" />
    <glyph glyph-name="Ohungarumlaut" unicode="&#x150;" horiz-adv-x="570" 
d="M285 81q29 0 48.5 12t31 31.5t17.5 54.5t8 70.5t2 90.5v45q0 55 -2 90.5t-8 70.5t-17.5 54.5t-31 31.5t-48.5 12t-48.5 -12t-31 -31.5t-17.5 -54.5t-8 -70.5t-2 -90.5v-45q0 -55 2 -90.5t8 -70.5t17.5 -54.5t31 -31.5t48.5 -12zM285 -13q-135 0 -192 77.5t-57 248.5v99
q0 171 57 249t192 78t192 -78t57 -249v-99q0 -171 -57 -248.5t-192 -77.5zM150 784l60 113h161l-128 -113h-93zM332 784l60 113h161l-128 -113h-93z" />
    <glyph glyph-name="ohungarumlaut" unicode="&#x151;" horiz-adv-x="482" 
d="M116 604l63 121h149l-125 -121h-87zM288 604l63 121h149l-125 -121h-87zM242 466q-48 0 -63 -41.5t-15 -134.5v-42q0 -93 15 -134.5t63 -41.5t63 41.5t15 134.5v42q0 93 -15 134.5t-63 41.5zM242 551q108 0 159 -59.5t51 -182.5v-80q0 -123 -51 -182.5t-159 -59.5
t-159 59.5t-51 182.5v80q0 123 51 182.5t159 59.5z" />
    <glyph glyph-name="OE" unicode="&#x152;" horiz-adv-x="803" 
d="M285 -13q-135 0 -192 78t-57 249v98q0 171 57 249t192 78q98 0 150 -46v32h347v-100h-253v-203h231v-99h-231v-223h253v-100h-347v32q-53 -45 -150 -45zM285 81q35 0 57 16t33 53.5t14 79t3 111.5v44q0 55 -2 90.5t-8 70.5t-17.5 54.5t-31 31.5t-48.5 12t-48.5 -12
t-31 -31.5t-17.5 -54.5t-8 -70.5t-2 -90.5v-44q0 -70 3 -111.5t14 -79t33 -53.5t57 -16z" />
    <glyph glyph-name="oe" unicode="&#x153;" horiz-adv-x="762" 
d="M522 -13q-92 0 -139 47q-50 -47 -141 -47q-108 0 -159 59.5t-51 182.5v80q0 123 51 182.5t159 59.5q91 0 141 -47q49 47 142 47q111 0 158 -63t47 -199v-32h-286v-11q0 -91 16 -132.5t64 -41.5q38 0 57.5 23t19.5 78v4h121v-4q0 -98 -55 -142t-145 -44zM242 466
q-48 0 -63 -41.5t-15 -134.5v-42q0 -93 15 -134.5t63 -41.5t63 41.5t15 134.5v42q0 93 -15 134.5t-63 41.5zM444 337v-8h164v8q0 70 -17 100.5t-64 30.5q-48 0 -65.5 -30.5t-17.5 -100.5z" />
    <glyph glyph-name="Racute" unicode="&#x154;" horiz-adv-x="554" 
d="M392 0l-106 319q-26 -2 -39 -2h-52v-317h-134v725h190q144 0 206 -42.5t62 -155.5q0 -75 -28 -116.5t-84 -62.5l124 -348h-139zM195 401h56q76 0 102 22.5t26 93.5q0 70 -26.5 93.5t-101.5 23.5h-56v-233zM223 773l60 113h161l-128 -113h-93z" />
    <glyph glyph-name="racute" unicode="&#x155;" horiz-adv-x="313" 
d="M120 604l63 121h149l-125 -121h-87zM50 0v538h128v-123q11 50 41.5 86.5t75.5 36.5h20v-134h-37q-61 0 -80 -23.5t-19 -100.5v-280h-129z" />
    <glyph glyph-name="uni0156" unicode="&#x156;" horiz-adv-x="554" 
d="M234 -237l38 93h-35v94h107v-100l-43 -87h-67zM392 0l-106 319q-26 -2 -39 -2h-52v-317h-134v725h190q144 0 206 -42.5t62 -155.5q0 -75 -28 -116.5t-84 -62.5l124 -348h-139zM195 401h56q76 0 102 22.5t26 93.5q0 70 -26.5 93.5t-101.5 23.5h-56v-233z" />
    <glyph glyph-name="uni0157" unicode="&#x157;" horiz-adv-x="313" 
d="M57 -237l38 93h-35v94h107v-100l-43 -87h-67zM50 0v538h128v-123q11 50 41.5 86.5t75.5 36.5h20v-134h-37q-61 0 -80 -23.5t-19 -100.5v-280h-129z" />
    <glyph glyph-name="Rcaron" unicode="&#x158;" horiz-adv-x="554" 
d="M338 773h-121l-116 113h107l69 -56l69 56h107zM392 0l-106 319q-26 -2 -39 -2h-52v-317h-134v725h190q144 0 206 -42.5t62 -155.5q0 -75 -28 -116.5t-84 -62.5l124 -348h-139zM195 401h56q76 0 102 22.5t26 93.5q0 70 -26.5 93.5t-101.5 23.5h-56v-233z" />
    <glyph glyph-name="rcaron" unicode="&#x159;" horiz-adv-x="313" 
d="M124 604l-118 121h107l65 -58l65 58h106l-116 -121h-109zM50 0v538h128v-123q11 50 41.5 86.5t75.5 36.5h20v-134h-37q-61 0 -80 -23.5t-19 -100.5v-280h-129z" />
    <glyph glyph-name="Sacute" unicode="&#x15a;" horiz-adv-x="517" 
d="M266 -13q-239 0 -239 240v7h133v-7q0 -78 24.5 -113t80.5 -35q96 0 96 105q0 45 -22.5 71.5t-70.5 48.5l-72 33q-83 37 -121.5 83t-38.5 131q0 93 57.5 140.5t155.5 47.5q228 0 228 -213v-6h-131v6q0 122 -97 122q-84 0 -84 -92q0 -40 15 -61.5t49 -36.5l78 -36
q46 -20 74 -36t56.5 -41.5t42 -61t13.5 -82.5q0 -106 -58.5 -160t-168.5 -54zM213 773l60 113h161l-128 -113h-93z" />
    <glyph glyph-name="sacute" unicode="&#x15b;" horiz-adv-x="446" 
d="M186 604l63 121h149l-125 -121h-87zM229 -13q-98 0 -150.5 48.5t-52.5 136.5v3h118v-4q0 -47 22 -73t63 -26q34 0 55.5 16t21.5 48t-15.5 48.5t-54.5 31.5l-80 31q-61 23 -92 59.5t-31 95.5q0 77 51 113t137 36q80 0 134 -41t54 -127v-3h-116v3q0 83 -78 83
q-30 0 -48.5 -14t-18.5 -42q0 -27 12 -39.5t42 -25.5l77 -31q76 -30 110 -63.5t34 -102.5q0 -82 -53.5 -121.5t-140.5 -39.5z" />
    <glyph glyph-name="Scircumflex" unicode="&#x15c;" horiz-adv-x="517" 
d="M266 -13q-239 0 -239 240v7h133v-7q0 -78 24.5 -113t80.5 -35q96 0 96 105q0 45 -22.5 71.5t-70.5 48.5l-72 33q-83 37 -121.5 83t-38.5 131q0 93 57.5 140.5t155.5 47.5q228 0 228 -213v-6h-131v6q0 122 -97 122q-84 0 -84 -92q0 -40 15 -61.5t49 -36.5l78 -36
q46 -20 74 -36t56.5 -41.5t42 -61t13.5 -82.5q0 -106 -58.5 -160t-168.5 -54zM87 773l116 113h120l115 -113h-106l-69 56l-70 -56h-106z" />
    <glyph glyph-name="scircumflex" unicode="&#x15d;" horiz-adv-x="446" 
d="M60 604l116 121h111l117 -121h-107l-65 58l-65 -58h-107zM229 -13q-98 0 -150.5 48.5t-52.5 136.5v3h118v-4q0 -47 22 -73t63 -26q34 0 55.5 16t21.5 48t-15.5 48.5t-54.5 31.5l-80 31q-61 23 -92 59.5t-31 95.5q0 77 51 113t137 36q80 0 134 -41t54 -127v-3h-116v3
q0 83 -78 83q-30 0 -48.5 -14t-18.5 -42q0 -27 12 -39.5t42 -25.5l77 -31q76 -30 110 -63.5t34 -102.5q0 -82 -53.5 -121.5t-140.5 -39.5z" />
    <glyph glyph-name="Scedilla" unicode="&#x15e;" horiz-adv-x="517" 
d="M266 -13q-239 0 -239 240v7h133v-7q0 -78 24.5 -113t80.5 -35q96 0 96 105q0 45 -22.5 71.5t-70.5 48.5l-72 33q-83 37 -121.5 83t-38.5 131q0 93 57.5 140.5t155.5 47.5q228 0 228 -213v-6h-131v6q0 122 -97 122q-84 0 -84 -92q0 -40 15 -61.5t49 -36.5l78 -36
q46 -20 74 -36t56.5 -41.5t42 -61t13.5 -82.5q0 -106 -58.5 -160t-168.5 -54zM263 -188q-53 0 -89 14l15 47q30 -14 61 -14q54 0 54 32q0 31 -41 31q-24 0 -40 -10l-27 17l50 81h53l-33 -52q15 4 36 4q35 -1 59 -18.5t24 -49.5q0 -40 -36 -61t-86 -21z" />
    <glyph glyph-name="scedilla" unicode="&#x15f;" horiz-adv-x="446" 
d="M229 -13q-98 0 -150.5 48.5t-52.5 136.5v3h118v-4q0 -47 22 -73t63 -26q34 0 55.5 16t21.5 48t-15.5 48.5t-54.5 31.5l-80 31q-61 23 -92 59.5t-31 95.5q0 77 51 113t137 36q80 0 134 -41t54 -127v-3h-116v3q0 83 -78 83q-30 0 -48.5 -14t-18.5 -42q0 -27 12 -39.5
t42 -25.5l77 -31q76 -30 110 -63.5t34 -102.5q0 -82 -53.5 -121.5t-140.5 -39.5zM204 -188q-53 0 -89 14l15 47q30 -14 61 -14q54 0 54 32q0 31 -41 31q-24 0 -40 -10l-27 17l50 81h53l-33 -52q15 4 36 4q33 0 58 -18.5t25 -49.5q0 -40 -36 -61t-86 -21z" />
    <glyph glyph-name="Scaron" unicode="&#x160;" horiz-adv-x="517" 
d="M326 773h-121l-116 113h107l69 -56l69 56h107zM266 -13q-239 0 -239 240v7h133v-7q0 -78 24.5 -113t80.5 -35q96 0 96 105q0 45 -22.5 71.5t-70.5 48.5l-72 33q-83 37 -121.5 83t-38.5 131q0 93 57.5 140.5t155.5 47.5q228 0 228 -213v-6h-131v6q0 122 -97 122
q-84 0 -84 -92q0 -40 15 -61.5t49 -36.5l78 -36q46 -20 74 -36t56.5 -41.5t42 -61t13.5 -82.5q0 -106 -58.5 -160t-168.5 -54z" />
    <glyph glyph-name="scaron" unicode="&#x161;" horiz-adv-x="446" 
d="M171 604l-118 121h107l65 -58l65 58h106l-116 -121h-109zM229 -13q-98 0 -150.5 48.5t-52.5 136.5v3h118v-4q0 -47 22 -73t63 -26q34 0 55.5 16t21.5 48t-15.5 48.5t-54.5 31.5l-80 31q-61 23 -92 59.5t-31 95.5q0 77 51 113t137 36q80 0 134 -41t54 -127v-3h-116v3
q0 83 -78 83q-30 0 -48.5 -14t-18.5 -42q0 -27 12 -39.5t42 -25.5l77 -31q76 -30 110 -63.5t34 -102.5q0 -82 -53.5 -121.5t-140.5 -39.5z" />
    <glyph glyph-name="uni0162" unicode="&#x162;" horiz-adv-x="469" 
d="M177 -237l38 93h-35v94h107v-100l-43 -87h-67zM167 0v625h-159v100h452v-100h-159v-625h-134z" />
    <glyph glyph-name="uni0163" unicode="&#x163;" horiz-adv-x="295" 
d="M97 -237l38 93h-35v94h107v-100l-43 -87h-67zM287 0h-93q-75 0 -102 30t-27 109v317h-66v82h66v142h129v-142h93v-82h-93v-303q0 -44 11.5 -57.5t45.5 -13.5h36v-82z" />
    <glyph glyph-name="Tcaron" unicode="&#x164;" horiz-adv-x="468" 
d="M294 773h-121l-116 113h107l69 -56l69 56h107zM167 0v625h-159v100h452v-100h-159v-625h-134z" />
    <glyph glyph-name="tcaron" unicode="&#x165;" horiz-adv-x="411" 
d="M281 555l26 170h122l-62 -170h-86zM287 0h-93q-75 0 -102 30t-27 109v317h-66v82h66v142h129v-142h93v-82h-93v-303q0 -44 11.5 -57.5t45.5 -13.5h36v-82z" />
    <glyph glyph-name="Tbar" unicode="&#x166;" horiz-adv-x="468" 
d="M8 317v100h159v208h-159v100h452v-100h-159v-208h159v-100h-159v-317h-134v317h-159z" />
    <glyph glyph-name="tbar" unicode="&#x167;" horiz-adv-x="295" 
d="M1 280v87h64v89h-66v82h66v142h129v-142h93v-82h-93v-89h93v-87h-93v-127q0 -44 11.5 -57.5t45.5 -13.5h36v-82h-93q-75 0 -102 30t-27 109v141h-64z" />
    <glyph glyph-name="Utilde" unicode="&#x168;" horiz-adv-x="559" 
d="M213 773h-77q10 113 99 113q27 0 67 -20t51 -20q21 0 24 40h77q-5 -62 -33.5 -87.5t-64.5 -25.5q-23 0 -63 19t-53 19q-24 0 -27 -38zM280 -13q-73 0 -116.5 13.5t-69.5 49.5t-34.5 89t-8.5 143v443h134v-452q0 -55 3 -86.5t12.5 -58t28.5 -37t51 -10.5q60 0 77 42
t17 150v452h134v-443q0 -90 -8.5 -143t-34 -89.5t-69 -49.5t-116.5 -13z" />
    <glyph glyph-name="utilde" unicode="&#x169;" horiz-adv-x="490" 
d="M440 538v-538h-129v73q-37 -86 -133 -86q-72 0 -102.5 43t-30.5 143v365h129v-322q0 -36 1.5 -58t7.5 -42.5t18 -29.5t31 -9q46 0 62.5 42.5t16.5 125.5v293h129zM171 608h-77q8 61 35.5 89t64.5 28q25 0 60 -19t44 -19q25 0 33 38h76q-5 -59 -35.5 -88t-63.5 -29
q-19 0 -57 18l-25 13q-12 6 -23 6q-23 0 -32 -37z" />
    <glyph glyph-name="Umacron" unicode="&#x16a;" horiz-adv-x="559" 
d="M157 786v89h247v-89h-247zM280 -13q-73 0 -116.5 13.5t-69.5 49.5t-34.5 89t-8.5 143v443h134v-452q0 -55 3 -86.5t12.5 -58t28.5 -37t51 -10.5q60 0 77 42t17 150v452h134v-443q0 -90 -8.5 -143t-34 -89.5t-69 -49.5t-116.5 -13z" />
    <glyph glyph-name="umacron" unicode="&#x16b;" horiz-adv-x="490" 
d="M440 538v-538h-129v73q-37 -86 -133 -86q-72 0 -102.5 43t-30.5 143v365h129v-322q0 -36 1.5 -58t7.5 -42.5t18 -29.5t31 -9q46 0 62.5 42.5t16.5 125.5v293h129zM122 620v87h244v-87h-244z" />
    <glyph glyph-name="Ubreve" unicode="&#x16c;" horiz-adv-x="559" 
d="M280 771q-72 0 -108 27.5t-40 87.5h89q4 -50 59 -50t59 50h89q-5 -60 -41 -87.5t-107 -27.5zM280 -13q-73 0 -116.5 13.5t-69.5 49.5t-34.5 89t-8.5 143v443h134v-452q0 -55 3 -86.5t12.5 -58t28.5 -37t51 -10.5q60 0 77 42t17 150v452h134v-443q0 -90 -8.5 -143
t-34 -89.5t-69 -49.5t-116.5 -13z" />
    <glyph glyph-name="ubreve" unicode="&#x16d;" horiz-adv-x="490" 
d="M440 538v-538h-129v73q-37 -86 -133 -86q-72 0 -102.5 43t-30.5 143v365h129v-322q0 -36 1.5 -58t7.5 -42.5t18 -29.5t31 -9q46 0 62.5 42.5t16.5 125.5v293h129zM246 603q-72 0 -104 30.5t-36 91.5h88q3 -55 52 -55t52 55h89q-7 -62 -37 -92t-104 -30z" />
    <glyph glyph-name="Uring" unicode="&#x16e;" horiz-adv-x="559" 
d="M280 -13q-73 0 -116.5 13.5t-69.5 49.5t-34.5 89t-8.5 143v443h134v-452q0 -55 3 -86.5t12.5 -58t28.5 -37t51 -10.5q60 0 77 42t17 150v452h134v-443q0 -90 -8.5 -143t-34 -89.5t-69 -49.5t-116.5 -13zM279 806q19 0 32.5 12t13.5 32t-13.5 33t-32.5 13q-18 0 -31.5 -13
t-13.5 -33t13 -32t32 -12zM279 766q-38 0 -63.5 24t-25.5 60t26 60t63 24t63 -24t26 -60t-25.5 -60t-63.5 -24z" />
    <glyph glyph-name="uring" unicode="&#x16f;" horiz-adv-x="490" 
d="M250 653q18 0 31 12.5t13 30.5q0 20 -12.5 32t-31.5 12t-31.5 -12t-12.5 -32q0 -18 13 -30.5t31 -12.5zM250 609q-39 0 -66 24.5t-27 62.5t27 63t66 25t66 -25t27 -63t-27 -62.5t-66 -24.5zM440 538v-538h-129v73q-37 -86 -133 -86q-72 0 -102.5 43t-30.5 143v365h129
v-322q0 -36 1.5 -58t7.5 -42.5t18 -29.5t31 -9q46 0 62.5 42.5t16.5 125.5v293h129z" />
    <glyph glyph-name="Uhungarumlaut" unicode="&#x170;" horiz-adv-x="559" 
d="M118 784l60 113h161l-128 -113h-93zM300 784l60 113h161l-128 -113h-93zM280 -13q-73 0 -116.5 13.5t-69.5 49.5t-34.5 89t-8.5 143v443h134v-452q0 -55 3 -86.5t12.5 -58t28.5 -37t51 -10.5q60 0 77 42t17 150v452h134v-443q0 -90 -8.5 -143t-34 -89.5t-69 -49.5
t-116.5 -13z" />
    <glyph glyph-name="uhungarumlaut" unicode="&#x171;" horiz-adv-x="490" 
d="M110 604l63 121h149l-125 -121h-87zM282 604l63 121h149l-125 -121h-87zM440 538v-538h-129v73q-37 -86 -133 -86q-72 0 -102.5 43t-30.5 143v365h129v-322q0 -36 1.5 -58t7.5 -42.5t18 -29.5t31 -9q46 0 62.5 42.5t16.5 125.5v293h129z" />
    <glyph glyph-name="Uogonek" unicode="&#x172;" horiz-adv-x="559" 
d="M289 -188q-54 0 -86 21.5t-32 66.5q0 30 21 57.5t54 42.5h117q-89 -42 -89 -81q0 -34 46 -34q23 0 41 6v-72q-40 -7 -72 -7zM280 -13q-73 0 -116.5 13.5t-69.5 49.5t-34.5 89t-8.5 143v443h134v-452q0 -55 3 -86.5t12.5 -58t28.5 -37t51 -10.5q60 0 77 42t17 150v452h134
v-443q0 -90 -8.5 -143t-34 -89.5t-69 -49.5t-116.5 -13z" />
    <glyph glyph-name="uogonek" unicode="&#x173;" horiz-adv-x="490" 
d="M368 -188q-55 0 -91.5 22t-36.5 66q0 30 19.5 57.5t51.5 42.5h129q-88 -41 -88 -81q0 -34 47 -34q23 0 41 6v-72q-40 -7 -72 -7zM440 538v-538h-129v73q-37 -86 -133 -86q-72 0 -102.5 43t-30.5 143v365h129v-322q0 -36 1.5 -58t7.5 -42.5t18 -29.5t31 -9q46 0 62.5 42.5
t16.5 125.5v293h129z" />
    <glyph glyph-name="Wcircumflex" unicode="&#x174;" horiz-adv-x="728" 
d="M187 773l116 113h120l115 -113h-106l-69 56l-70 -56h-106zM116 0l-104 725h122l75 -576l97 576h116l97 -576l75 576h122l-105 -725h-153l-94 573l-94 -573h-154z" />
    <glyph glyph-name="wcircumflex" unicode="&#x175;" horiz-adv-x="594" 
d="M123 604l116 121h111l117 -121h-107l-65 58l-65 -58h-107zM92 0l-71 538h110l42 -394l63 394h120l64 -394l43 394h110l-72 -538h-139l-65 423l-66 -423h-139z" />
    <glyph glyph-name="Ycircumflex" unicode="&#x176;" horiz-adv-x="510" 
d="M186 0v297l-183 428h135l117 -309l119 309h133l-187 -429v-296h-134zM79 773l116 113h120l115 -113h-106l-69 56l-70 -56h-106z" />
    <glyph glyph-name="ycircumflex" unicode="&#x177;" horiz-adv-x="417" 
d="M42 -175v82h35q36 0 50.5 13t22.5 52l6 30l-153 536h127l88 -410l77 410h119l-131 -540q-26 -105 -62.5 -139t-123.5 -34h-55zM37 604l116 121h111l117 -121h-107l-65 58l-65 -58h-107z" />
    <glyph glyph-name="Ydieresis" unicode="&#x178;" horiz-adv-x="510" 
d="M186 0v297l-183 428h135l117 -309l119 309h133l-187 -429v-296h-134zM99 777v109h114v-109h-114zM298 777v109h114v-109h-114z" />
    <glyph glyph-name="Zacute" unicode="&#x179;" horiz-adv-x="500" 
d="M23 0v92l298 533h-270v100h416v-92l-299 -533h308v-100h-453zM216 773l60 113h161l-128 -113h-93z" />
    <glyph glyph-name="zacute" unicode="&#x17a;" horiz-adv-x="407" 
d="M169 604l63 121h149l-125 -121h-87zM20 0v82l225 374h-202v82h336v-82l-224 -374h232v-82h-367z" />
    <glyph glyph-name="Zdotaccent" unicode="&#x17b;" horiz-adv-x="500" 
d="M201 777v109h135v-109h-135zM23 0v92l298 533h-270v100h416v-92l-299 -533h308v-100h-453z" />
    <glyph glyph-name="zdotaccent" unicode="&#x17c;" horiz-adv-x="407" 
d="M20 0v82l225 374h-202v82h336v-82l-224 -374h232v-82h-367zM166 608v117h114v-117h-114z" />
    <glyph glyph-name="Zcaron" unicode="&#x17d;" horiz-adv-x="500" 
d="M335 773h-121l-116 113h107l69 -56l69 56h107zM23 0v92l298 533h-270v100h416v-92l-299 -533h308v-100h-453z" />
    <glyph glyph-name="zcaron" unicode="&#x17e;" horiz-adv-x="407" 
d="M168 604l-118 121h107l65 -58l65 58h106l-116 -121h-109zM20 0v82l225 374h-202v82h336v-82l-224 -374h232v-82h-367z" />
    <glyph glyph-name="uni018F" unicode="&#x18f;" horiz-adv-x="559" 
d="M278 -12q-133 0 -188.5 72.5t-55.5 230.5v99h348v21q0 49 -1.5 80t-7.5 63t-17 50t-30.5 29t-47.5 11q-33 0 -54 -12.5t-30.5 -36t-13 -46.5t-3.5 -55v-8h-139v8q0 245 240 245q135 0 189.5 -76t54.5 -238v-120q0 -164 -54.5 -240.5t-189.5 -76.5zM278 82q34 0 55 13.5
t31.5 42.5t14 61.5t3.5 82.5v14h-207v-32q0 -88 23.5 -135t79.5 -47z" />
    <glyph glyph-name="uni0218" unicode="&#x218;" horiz-adv-x="517" 
d="M212 -237l38 93h-35v94h107v-100l-43 -87h-67zM266 -13q-239 0 -239 240v7h133v-7q0 -78 24.5 -113t80.5 -35q96 0 96 105q0 45 -22.5 71.5t-70.5 48.5l-72 33q-83 37 -121.5 83t-38.5 131q0 93 57.5 140.5t155.5 47.5q228 0 228 -213v-6h-131v6q0 122 -97 122
q-84 0 -84 -92q0 -40 15 -61.5t49 -36.5l78 -36q46 -20 74 -36t56.5 -41.5t42 -61t13.5 -82.5q0 -106 -58.5 -160t-168.5 -54z" />
    <glyph glyph-name="uni0219" unicode="&#x219;" horiz-adv-x="446" 
d="M160 -237l38 93h-35v94h107v-100l-43 -87h-67zM229 -13q-98 0 -150.5 48.5t-52.5 136.5v3h118v-4q0 -47 22 -73t63 -26q34 0 55.5 16t21.5 48t-15.5 48.5t-54.5 31.5l-80 31q-61 23 -92 59.5t-31 95.5q0 77 51 113t137 36q80 0 134 -41t54 -127v-3h-116v3q0 83 -78 83
q-30 0 -48.5 -14t-18.5 -42q0 -27 12 -39.5t42 -25.5l77 -31q76 -30 110 -63.5t34 -102.5q0 -82 -53.5 -121.5t-140.5 -39.5z" />
    <glyph glyph-name="uni021A" unicode="&#x21a;" horiz-adv-x="469" 
d="M177 -237l38 93h-35v94h107v-100l-43 -87h-67zM167 0v625h-159v100h452v-100h-159v-625h-134z" />
    <glyph glyph-name="uni021B" unicode="&#x21b;" horiz-adv-x="295" 
d="M97 -237l38 93h-35v94h107v-100l-43 -87h-67zM287 0h-93q-75 0 -102 30t-27 109v317h-66v82h66v142h129v-142h93v-82h-93v-303q0 -44 11.5 -57.5t45.5 -13.5h36v-82z" />
    <glyph glyph-name="uni0232" unicode="&#x232;" horiz-adv-x="510" 
d="M186 0v297l-183 428h135l117 -309l119 309h133l-187 -429v-296h-134zM132 786v89h247v-89h-247z" />
    <glyph glyph-name="uni0233" unicode="&#x233;" horiz-adv-x="417" 
d="M42 -175v82h35q36 0 50.5 13t22.5 52l6 30l-153 536h127l88 -410l77 410h119l-131 -540q-26 -105 -62.5 -139t-123.5 -34h-55zM89 620v87h244v-87h-244z" />
    <glyph glyph-name="uni0237" unicode="&#x237;" horiz-adv-x="228" 
d="M-26 -175v80h25q34 0 42 15.5t8 65.5v552h129v-546q0 -101 -36 -134t-130 -33h-38z" />
    <glyph glyph-name="uni0259" unicode="&#x259;" horiz-adv-x="484" 
d="M218 -12q-111 0 -158 63t-47 199v32h286v11q0 92 -15.5 133t-63.5 41q-38 0 -57.5 -23t-19.5 -78v-4h-122v5q0 98 55 142t145 44q207 0 207 -241v-85q0 -121 -50.5 -180t-159.5 -59zM216 71q48 0 65.5 31t17.5 101v7h-164v-8q0 -70 17 -100.5t64 -30.5z" />
    <glyph glyph-name="circumflex" unicode="&#x2c6;" horiz-adv-x="389" 
d="M23 604l116 121h111l117 -121h-107l-65 58l-65 -58h-107z" />
    <glyph glyph-name="caron" unicode="&#x2c7;" horiz-adv-x="389" 
d="M141 604l-118 121h107l65 -58l65 58h106l-116 -121h-109z" />
    <glyph glyph-name="breve" unicode="&#x2d8;" horiz-adv-x="326" 
d="M163 603q-72 0 -104 30.5t-36 91.5h88q3 -55 52 -55t52 55h89q-7 -62 -37 -92t-104 -30z" />
    <glyph glyph-name="dotaccent" unicode="&#x2d9;" horiz-adv-x="159" 
d="M23 608v117h114v-117h-114z" />
    <glyph glyph-name="ring" unicode="&#x2da;" horiz-adv-x="232" 
d="M116 653q18 0 31 12.5t13 30.5q0 20 -12.5 32t-31.5 12t-31.5 -12t-12.5 -32q0 -18 13 -30.5t31 -12.5zM116 609q-39 0 -66 24.5t-27 62.5t27 63t66 25t66 -25t27 -63t-27 -62.5t-66 -24.5z" />
    <glyph glyph-name="ogonek" unicode="&#x2db;" horiz-adv-x="246" 
d="M151 -188q-55 0 -91.5 22t-36.5 66q0 30 19.5 57.5t51.5 42.5h129q-88 -41 -88 -81q0 -34 47 -34q23 0 41 6v-72q-40 -7 -72 -7z" />
    <glyph glyph-name="tilde" unicode="&#x2dc;" horiz-adv-x="393" 
d="M108 608h-77q8 61 35.5 89t64.5 28q25 0 60 -19t44 -19q25 0 33 38h76q-5 -59 -35.5 -88t-63.5 -29q-19 0 -57 18l-25 13q-12 6 -23 6q-23 0 -32 -37z" />
    <glyph glyph-name="hungarumlaut" unicode="&#x2dd;" horiz-adv-x="429" 
d="M28 604l63 121h149l-125 -121h-87zM200 604l63 121h149l-125 -121h-87z" />
    <glyph glyph-name="uni032C" unicode="&#x32c;" horiz-adv-x="424" 
d="M176 -132l-153 138h103l85 -63l88 63h102l-156 -138h-69z" />
    <glyph glyph-name="uni0394" unicode="&#x394;" horiz-adv-x="655" 
d="M164 104h326l-162 393zM5 0l323 746l322 -746h-645z" />
    <glyph glyph-name="uni0394" unicode="&#x2206;" horiz-adv-x="655" 
d="M164 104h326l-162 393zM5 0l323 746l322 -746h-645z" />
    <glyph glyph-name="uni03A9" unicode="&#x3a9;" horiz-adv-x="725" 
d="M66 0v111h158v54q-71 29 -118.5 96t-47.5 171q0 145 82 225t222 80t222.5 -80t82.5 -225q0 -104 -47.5 -170.5t-119.5 -96.5v-54h158v-111h-260v230q68 18 107.5 70t39.5 129q0 101 -48.5 155.5t-134.5 54.5t-134.5 -54.5t-48.5 -155.5q0 -77 39.5 -129t107.5 -70v-230
h-260z" />
    <glyph glyph-name="uni03A9" unicode="&#x2126;" horiz-adv-x="725" 
d="M66 0v111h158v54q-71 29 -118.5 96t-47.5 171q0 145 82 225t222 80t222.5 -80t82.5 -225q0 -104 -47.5 -170.5t-119.5 -96.5v-54h158v-111h-260v230q68 18 107.5 70t39.5 129q0 101 -48.5 155.5t-134.5 54.5t-134.5 -54.5t-48.5 -155.5q0 -77 39.5 -129t107.5 -70v-230
h-260z" />
    <glyph glyph-name="pi" unicode="&#x3c0;" horiz-adv-x="542" 
d="M90 0v435h-67v103h486v-103h-67v-272q0 -45 8 -57t45 -12h24v-94h-39q-86 0 -115 28.5t-29 121.5v285h-139v-435h-107z" />
    <glyph glyph-name="Wgrave" unicode="&#x1e80;" horiz-adv-x="728" 
d="M319 773l-129 113h161l60 -113h-92zM116 0l-104 725h122l75 -576l97 576h116l97 -576l75 576h122l-105 -725h-153l-94 573l-94 -573h-154z" />
    <glyph glyph-name="wgrave" unicode="&#x1e81;" horiz-adv-x="594" 
d="M92 0l-71 538h110l42 -394l63 394h120l64 -394l43 394h110l-72 -538h-139l-65 423l-66 -423h-139zM253 604l-124 121h149l63 -121h-88z" />
    <glyph glyph-name="Wacute" unicode="&#x1e82;" horiz-adv-x="728" 
d="M116 0l-104 725h122l75 -576l97 576h116l97 -576l75 576h122l-105 -725h-153l-94 573l-94 -573h-154zM316 773l60 113h161l-128 -113h-93z" />
    <glyph glyph-name="wacute" unicode="&#x1e83;" horiz-adv-x="594" 
d="M257 604l63 121h149l-125 -121h-87zM92 0l-71 538h110l42 -394l63 394h120l64 -394l43 394h110l-72 -538h-139l-65 423l-66 -423h-139z" />
    <glyph glyph-name="Wdieresis" unicode="&#x1e84;" horiz-adv-x="728" 
d="M207 777v109h114v-109h-114zM406 777v109h114v-109h-114zM116 0l-104 725h122l75 -576l97 576h116l97 -576l75 576h122l-105 -725h-153l-94 573l-94 -573h-154z" />
    <glyph glyph-name="wdieresis" unicode="&#x1e85;" horiz-adv-x="594" 
d="M140 608v117h114v-117h-114zM339 608v117h114v-117h-114zM92 0l-71 538h110l42 -394l63 394h120l64 -394l43 394h110l-72 -538h-139l-65 423l-66 -423h-139z" />
    <glyph glyph-name="uni1ECA" unicode="&#x1eca;" horiz-adv-x="256" 
d="M61 0v725h134v-725h-134zM71 -175v119h114v-119h-114z" />
    <glyph glyph-name="uni1ECB" unicode="&#x1ecb;" horiz-adv-x="229" 
d="M50 0v538h129v-538h-129zM50 604v121h129v-121h-129zM58 -175v119h114v-119h-114z" />
    <glyph glyph-name="uni1ECC" unicode="&#x1ecc;" horiz-adv-x="570" 
d="M234 -175v119h114v-119h-114zM285 81q29 0 48.5 12t31 31.5t17.5 54.5t8 70.5t2 90.5v45q0 55 -2 90.5t-8 70.5t-17.5 54.5t-31 31.5t-48.5 12t-48.5 -12t-31 -31.5t-17.5 -54.5t-8 -70.5t-2 -90.5v-45q0 -55 2 -90.5t8 -70.5t17.5 -54.5t31 -31.5t48.5 -12zM285 -13
q-135 0 -192 77.5t-57 248.5v99q0 171 57 249t192 78t192 -78t57 -249v-99q0 -171 -57 -248.5t-192 -77.5z" />
    <glyph glyph-name="uni1ECD" unicode="&#x1ecd;" horiz-adv-x="484" 
d="M194 -175v119h114v-119h-114zM242 466q-48 0 -63 -41.5t-15 -134.5v-42q0 -93 15 -134.5t63 -41.5t63 41.5t15 134.5v42q0 93 -15 134.5t-63 41.5zM242 551q108 0 159 -59.5t51 -182.5v-80q0 -123 -51 -182.5t-159 -59.5t-159 59.5t-51 182.5v80q0 123 51 182.5t159 59.5
z" />
    <glyph glyph-name="uni1EE4" unicode="&#x1ee4;" horiz-adv-x="559" 
d="M223 -175v119h114v-119h-114zM280 -13q-73 0 -116.5 13.5t-69.5 49.5t-34.5 89t-8.5 143v443h134v-452q0 -55 3 -86.5t12.5 -58t28.5 -37t51 -10.5q60 0 77 42t17 150v452h134v-443q0 -90 -8.5 -143t-34 -89.5t-69 -49.5t-116.5 -13z" />
    <glyph glyph-name="uni1EE5" unicode="&#x1ee5;" horiz-adv-x="490" 
d="M190 -175v119h114v-119h-114zM440 538v-538h-129v73q-37 -86 -133 -86q-72 0 -102.5 43t-30.5 143v365h129v-322q0 -36 1.5 -58t7.5 -42.5t18 -29.5t31 -9q46 0 62.5 42.5t16.5 125.5v293h129z" />
    <glyph glyph-name="Ygrave" unicode="&#x1ef2;" horiz-adv-x="510" 
d="M186 0v297l-183 428h135l117 -309l119 309h133l-187 -429v-296h-134zM217 773l-129 113h161l60 -113h-92z" />
    <glyph glyph-name="ygrave" unicode="&#x1ef3;" horiz-adv-x="417" 
d="M42 -175v82h35q36 0 50.5 13t22.5 52l6 30l-153 536h127l88 -410l77 410h119l-131 -540q-26 -105 -62.5 -139t-123.5 -34h-55zM175 604l-124 121h149l63 -121h-88z" />
    <glyph glyph-name="endash" unicode="&#x2013;" horiz-adv-x="498" 
d="M29 202v112h440v-112h-440z" />
    <glyph glyph-name="emdash" unicode="&#x2014;" horiz-adv-x="726" 
d="M29 202v112h668v-112h-668z" />
    <glyph glyph-name="quoteleft" unicode="&#x2018;" horiz-adv-x="237" 
d="M48 438v146l73 141h77l-70 -150h61v-137h-141z" />
    <glyph glyph-name="quoteright" unicode="&#x2019;" horiz-adv-x="237" 
d="M39 434l69 150h-60v141h141v-149l-74 -142h-76z" />
    <glyph glyph-name="quotesinglbase" unicode="&#x201a;" horiz-adv-x="237" 
d="M39 -150l69 150h-60v141h141v-149l-74 -142h-76z" />
    <glyph glyph-name="quotedblleft" unicode="&#x201c;" horiz-adv-x="434" 
d="M245 438v146l73 141h77l-70 -150h61v-137h-141zM48 438v146l73 141h77l-70 -150h61v-137h-141z" />
    <glyph glyph-name="quotedblright" unicode="&#x201d;" horiz-adv-x="434" 
d="M236 434l69 150h-60v141h141v-149l-74 -142h-76zM39 434l69 150h-60v141h141v-149l-74 -142h-76z" />
    <glyph glyph-name="quotedblbase" unicode="&#x201e;" horiz-adv-x="434" 
d="M236 -150l69 150h-60v141h141v-149l-74 -142h-76zM39 -150l69 150h-60v141h141v-149l-74 -142h-76z" />
    <glyph glyph-name="dagger" unicode="&#x2020;" horiz-adv-x="494" 
d="M188 0v405h-165v103h165v217h118v-217h166v-103h-166v-405h-118z" />
    <glyph glyph-name="daggerdbl" unicode="&#x2021;" horiz-adv-x="494" 
d="M188 0v188h-165v103h165v137h-165v102h165v193h118v-193h166v-102h-166v-137h166v-103h-166v-188h-118z" />
    <glyph glyph-name="bullet" unicode="&#x2022;" horiz-adv-x="452" 
d="M222 92q-73 0 -124.5 53t-51.5 130q0 73 52 125t124 52q78 0 131 -51.5t53 -125.5q0 -78 -52.5 -130.5t-131.5 -52.5z" />
    <glyph glyph-name="ellipsis" unicode="&#x2026;" horiz-adv-x="711" 
d="M285 0v141h141v-141h-141zM522 0v141h141v-141h-141zM48 0v141h141v-141h-141z" />
    <glyph glyph-name="perthousand" unicode="&#x2030;" horiz-adv-x="1104" 
d="M948 45q12 0 20 3.5t13 13.5t8 18.5t4.5 27.5t1.5 32v41v5v35v5v40.5t-1.5 32t-4.5 28t-8 18t-13 13t-20 3.5q-17 0 -27 -8.5t-14.5 -29.5t-5.5 -42t-1 -60v-35q0 -40 1 -61t5.5 -42t14.5 -29.5t27 -8.5zM948 -8q-74 0 -102.5 43t-28.5 140v57q0 97 28 140t103 43
q73 0 102 -43.5t29 -139.5v-57q0 -96 -29 -139.5t-102 -43.5zM254 0l224 725h59l-224 -725h-59zM637 45q12 0 20 3.5t13 13.5t8 18.5t4.5 27.5t1.5 32v41v5v35v5v40.5t-1.5 32t-4.5 28t-8 18t-13 13t-20 3.5q-17 0 -27 -8.5t-14.5 -29.5t-5.5 -42t-1 -60v-35q0 -40 1 -61
t5.5 -42t14.5 -29.5t27 -8.5zM637 -8q-74 0 -102.5 43t-28.5 140v57q0 97 28 140t103 43q73 0 102 -43.5t29 -139.5v-57q0 -96 -29 -139.5t-102 -43.5zM154 364q31 0 39 31.5t8 108.5v35q0 39 -1 60t-5.5 42t-14.5 29.5t-26 8.5q-17 0 -27.5 -8.5t-15 -29.5t-5.5 -42t-1 -60
v-35q0 -39 1 -60t5.5 -42t15 -29.5t27.5 -8.5zM154 310q-75 0 -103 43t-28 140v57q0 97 28 140t103 43q73 0 102 -43.5t29 -139.5v-57q0 -96 -29 -139.5t-102 -43.5z" />
    <glyph glyph-name="guilsinglleft" unicode="&#x2039;" horiz-adv-x="194" 
d="M169 56l-144 149v152l144 147v-148l-77 -76l77 -77v-147z" />
    <glyph glyph-name="guilsinglright" unicode="&#x203a;" horiz-adv-x="194" 
d="M25 56v147l77 77l-77 76v148l144 -147v-152z" />
    <glyph glyph-name="fraction" unicode="&#x2044;" horiz-adv-x="173" 
d="M-55 0l224 725h59l-224 -725h-59z" />
    <glyph glyph-name="uni2070" unicode="&#x2070;" horiz-adv-x="311" 
d="M155 482q12 0 20 3.5t13 13.5t8 18.5t4.5 27.5t1.5 32v41v5v35v5v40.5t-1.5 32t-4.5 28t-8 18t-13 13t-20 3.5q-17 0 -27 -8.5t-14.5 -29.5t-5.5 -42t-1 -60v-35q0 -40 1 -61t5.5 -42t14.5 -29.5t27 -8.5zM155 429q-74 0 -102.5 43t-28.5 140v57q0 97 28 140t103 43
q73 0 102 -43.5t29 -139.5v-57q0 -96 -29 -139.5t-102 -43.5z" />
    <glyph glyph-name="uni2074" unicode="&#x2074;" horiz-adv-x="300" 
d="M162 438v99h-150v57l146 252h78v-246h49v-63h-49v-99h-74zM73 600h89v146z" />
    <glyph glyph-name="uni2075" unicode="&#x2075;" horiz-adv-x="285" 
d="M140 429q-55 0 -88 28.5t-33 89.5v2h78v-2q0 -65 43 -65q42 0 42 75v27q0 75 -43 75q-30 0 -41 -40l-72 3l19 223h211v-63h-148l-10 -111q7 18 26 30.5t44 12.5q51 0 74.5 -31t23.5 -97v-30q0 -127 -126 -127z" />
    <glyph glyph-name="uni2076" unicode="&#x2076;" horiz-adv-x="297" 
d="M156 429q-73 0 -101.5 42.5t-28.5 138.5v56q0 98 28.5 142t101.5 44q58 0 86 -29t28 -80v-4h-77v3q0 56 -38 56q-28 0 -36 -26.5t-8 -90.5v-20q16 45 69 45q99 0 99 -129v-20q0 -65 -30 -96.5t-93 -31.5zM151 482q44 0 44 75v17q0 75 -44 75q-42 0 -42 -74v-18
q0 -75 42 -75z" />
    <glyph glyph-name="uni2077" unicode="&#x2077;" horiz-adv-x="228" 
d="M123 438h-85q5 226 124 345h-160v63h227v-63q-61 -66 -83.5 -147t-22.5 -198z" />
    <glyph glyph-name="uni2078" unicode="&#x2078;" horiz-adv-x="303" 
d="M152 429q-67 0 -99.5 28.5t-32.5 94.5q0 77 64 102q-21 8 -38.5 31t-17.5 60q0 107 124 107q123 0 123 -107q0 -37 -17.5 -60t-37.5 -31q64 -25 64 -102q0 -66 -32.5 -94.5t-99.5 -28.5zM152 482q28 0 38.5 17.5t10.5 50.5v5q0 33 -10 50t-39 17t-39.5 -17t-10.5 -50v-5
q0 -68 50 -68zM152 676q24 0 31.5 14t7.5 45v4q0 31 -7.5 45t-31.5 14t-31.5 -14t-7.5 -45v-4q0 -31 7.5 -45t31.5 -14z" />
    <glyph glyph-name="uni2079" unicode="&#x2079;" horiz-adv-x="300" 
d="M143 429q-58 0 -85.5 29t-27.5 79v5h78v-3q0 -57 36 -57q29 0 37 26.5t8 91.5v20q-6 -19 -24.5 -31.5t-44.5 -12.5q-99 0 -99 127v21q0 128 122 128q73 0 101.5 -42.5t28.5 -138.5v-57q0 -98 -28 -141.5t-102 -43.5zM149 632q42 0 42 73v19q0 74 -42 74q-43 0 -43 -75
v-17q0 -74 43 -74z" />
    <glyph glyph-name="uni207A" unicode="&#x207a;" horiz-adv-x="329" 
d="M129 438v114h-110v70h110v115h72v-115h109v-70h-109v-114h-72z" />
    <glyph glyph-name="uni207B" unicode="&#x207b;" horiz-adv-x="323" 
d="M19 547v71h289v-71h-289z" />
    <glyph glyph-name="uni207C" unicode="&#x207c;" horiz-adv-x="297" 
d="M25 493v70h243v-70h-243zM25 608v71h243v-71h-243z" />
    <glyph glyph-name="uni207D" unicode="&#x207d;" horiz-adv-x="147" 
d="M156 338h-67q-30 45 -53 112.5t-23 143.5t23 143.5t53 112.5h67q-67 -110 -67 -256q0 -142 67 -256z" />
    <glyph glyph-name="uni207E" unicode="&#x207e;" horiz-adv-x="148" 
d="M59 338h-68q68 110 68 256q0 150 -68 256h68q31 -42 54 -110.5t23 -145.5t-23 -145.5t-54 -110.5z" />
    <glyph glyph-name="uni207F" unicode="&#x207f;" horiz-adv-x="284" 
d="M26 438v302h84v-37q19 46 75 46q42 0 59.5 -23.5t17.5 -80.5v-207h-83v179q0 20 -0.5 31t-3.5 22.5t-9 16.5t-17 5q-25 0 -32 -22t-7 -68v-164h-84z" />
    <glyph glyph-name="uni2080" unicode="&#x2080;" horiz-adv-x="311" 
d="M155 -84q12 0 20 3.5t13 13.5t8 18.5t4.5 27.5t1.5 32v41v5v35v5v40.5t-1.5 32t-4.5 28t-8 18t-13 13t-20 3.5q-17 0 -27 -8.5t-14.5 -29.5t-5.5 -42t-1 -60v-35q0 -40 1 -61t5.5 -42t14.5 -29.5t27 -8.5zM155 -137q-74 0 -102.5 43t-28.5 140v57q0 97 28 140t103 43
q73 0 102 -43.5t29 -139.5v-57q0 -96 -29 -139.5t-102 -43.5z" />
    <glyph glyph-name="uni2081" unicode="&#x2081;" horiz-adv-x="203" 
d="M89 -128v305h-69v52q48 0 60.5 8t22.5 43h64v-408h-78z" />
    <glyph glyph-name="uni2082" unicode="&#x2082;" horiz-adv-x="288" 
d="M24 -128v59l45 57q64 80 89.5 121t25.5 75q0 49 -40 49q-38 0 -38 -73v-5h-79v4q0 128 123 128q117 0 117 -98q0 -44 -25.5 -89t-83.5 -117l-38 -49h148v-62h-244z" />
    <glyph glyph-name="uni2083" unicode="&#x2083;" horiz-adv-x="292" 
d="M138 -137q-119 0 -119 118v2h77v-2q0 -65 43 -65q50 0 50 69q0 34 -12.5 51.5t-48.5 17.5h-24v55h23q49 0 49 62q0 31 -8.5 46t-33.5 15q-20 0 -28 -12.5t-8 -47.5v-2h-77v2q0 114 118 114q120 0 120 -106q0 -74 -59 -92q73 -23 73 -102q0 -66 -34 -94.5t-101 -28.5z" />
    <glyph glyph-name="uni2084" unicode="&#x2084;" horiz-adv-x="300" 
d="M162 -128v99h-150v57l146 252h78v-246h49v-63h-49v-99h-74zM73 34h89v146z" />
    <glyph glyph-name="uni2085" unicode="&#x2085;" horiz-adv-x="285" 
d="M140 -137q-55 0 -88 28.5t-33 89.5v2h78v-2q0 -65 43 -65q42 0 42 75v27q0 75 -43 75q-30 0 -41 -40l-72 3l19 223h211v-63h-148l-10 -111q7 18 26 30.5t44 12.5q51 0 74.5 -31t23.5 -97v-30q0 -127 -126 -127z" />
    <glyph glyph-name="uni2086" unicode="&#x2086;" horiz-adv-x="297" 
d="M156 -137q-73 0 -101.5 42.5t-28.5 138.5v56q0 98 28.5 142t101.5 44q58 0 86 -29t28 -80v-4h-77v3q0 56 -38 56q-28 0 -36 -26.5t-8 -90.5v-20q16 45 69 45q99 0 99 -129v-20q0 -65 -30 -96.5t-93 -31.5zM151 -84q44 0 44 75v17q0 75 -44 75q-42 0 -42 -74v-18
q0 -75 42 -75z" />
    <glyph glyph-name="uni2087" unicode="&#x2087;" horiz-adv-x="228" 
d="M123 -128h-85q5 226 124 345h-160v63h227v-63q-61 -66 -83.5 -147t-22.5 -198z" />
    <glyph glyph-name="uni2088" unicode="&#x2088;" horiz-adv-x="303" 
d="M152 -137q-67 0 -99.5 28.5t-32.5 94.5q0 77 64 102q-21 8 -38.5 31t-17.5 60q0 107 124 107q123 0 123 -107q0 -37 -17.5 -60t-37.5 -31q64 -25 64 -102q0 -66 -32.5 -94.5t-99.5 -28.5zM152 -84q28 0 38.5 17.5t10.5 50.5v5q0 33 -10 50t-39 17t-39.5 -17t-10.5 -50v-5
q0 -68 50 -68zM152 110q24 0 31.5 14t7.5 45v4q0 31 -7.5 45t-31.5 14t-31.5 -14t-7.5 -45v-4q0 -31 7.5 -45t31.5 -14z" />
    <glyph glyph-name="uni2089" unicode="&#x2089;" horiz-adv-x="300" 
d="M143 -137q-58 0 -85.5 29t-27.5 79v5h78v-3q0 -57 36 -57q29 0 37 26.5t8 91.5v20q-6 -19 -24.5 -31.5t-44.5 -12.5q-99 0 -99 127v21q0 128 122 128q73 0 101.5 -42.5t28.5 -138.5v-57q0 -98 -28 -141.5t-102 -43.5zM149 66q42 0 42 73v19q0 74 -42 74q-43 0 -43 -75
v-17q0 -74 43 -74z" />
    <glyph glyph-name="uni208D" unicode="&#x208d;" horiz-adv-x="147" 
d="M156 -228h-67q-30 45 -53 112.5t-23 143.5t23 143.5t53 112.5h67q-67 -110 -67 -256q0 -142 67 -256z" />
    <glyph glyph-name="uni208E" unicode="&#x208e;" horiz-adv-x="148" 
d="M59 -228h-68q68 110 68 256q0 150 -68 256h68q31 -42 54 -110.5t23 -145.5t-23 -145.5t-54 -110.5z" />
    <glyph glyph-name="Euro" unicode="&#x20ac;" horiz-adv-x="599" 
d="M0 385l34 62h66q4 154 57 223t179 69q116 0 172.5 -59.5t56.5 -184.5v-8h-124v6q0 85 -26.5 118.5t-78.5 33.5q-58 0 -81 -48t-25 -150h197l-34 -62h-163v-51h142l-35 -62h-106q2 -98 25 -144t80 -46q52 0 78.5 33t26.5 118v6h124v-7q0 -125 -56.5 -184.5t-172.5 -59.5
q-125 0 -177 66.5t-58 217.5h-101l34 62h66v51h-100z" />
    <glyph glyph-name="uni2113" unicode="&#x2113;" horiz-adv-x="477" 
d="M275 -12q-87 0 -124.5 40.5t-37.5 136.5v33l-75 -56l-45 68l120 92v223q0 205 170 205q70 0 111 -42t41 -118q0 -36 -10 -68t-24.5 -56t-43 -53t-52 -48t-65.5 -51l-10 -8v-118q0 -48 15.5 -69t51.5 -21q42 0 91 37l44 -69q-66 -58 -157 -58zM230 546v-155l6 5
q49 37 71.5 77t22.5 97q0 77 -50 77q-28 0 -39 -23.5t-11 -77.5z" />
    <glyph glyph-name="uni2116" unicode="&#x2116;" horiz-adv-x="887" 
d="M705 425q30 0 38.5 25t8.5 84v28q0 59 -8.5 84.5t-38.5 25.5q-29 0 -38 -26t-9 -84v-28q0 -58 9 -83.5t38 -25.5zM705 368q-135 0 -135 154v52q0 154 135 154q134 0 134 -154v-52q0 -154 -134 -154zM571 229v102h281v-102h-281zM62 0v725h157l189 -552v552h121v-725h-158
l-188 552v-552h-121z" />
    <glyph glyph-name="uni2117" unicode="&#x2117;" horiz-adv-x="829" 
d="M414 42q132 0 221 92t89 230t-89 229t-221 91t-220.5 -91t-88.5 -229t88.5 -230t220.5 -92zM414 -12q-154 0 -262 108t-108 268q0 161 108 268t262 107t262.5 -107t108.5 -268q0 -160 -108.5 -268t-262.5 -108zM395 163h-94v410h117q84 0 119 -25t35 -95q0 -57 -34 -84
t-79 -30q-11 -3 -40 -3h-24v-173zM395 506v-110h21q32 1 41.5 12t9.5 44t-9.5 43.5t-41.5 10.5h-21z" />
    <glyph glyph-name="trademark" unicode="&#x2122;" horiz-adv-x="687" 
d="M296 325v400h126l50 -297l52 297h125v-400h-82v313h-1l-4 -32l-55 -281h-70l-55 281l-4 32h-1v-313h-81zM91 325v335h-79v65h251v-65h-80v-335h-92z" />
    <glyph glyph-name="estimated" unicode="&#x212e;" horiz-adv-x="558" 
d="M132 303h293v163q-52 52 -145 52q-99 0 -148 -51v-164zM287 -12q-128 0 -199.5 80.5t-71.5 201.5q0 122 73.5 202t191.5 80q120 0 189.5 -81.5t71.5 -199.5h-410v-195q24 -24 68 -39.5t94 -15.5q141 0 194 127h40q-26 -71 -87 -115.5t-154 -44.5z" />
    <glyph glyph-name="onethird" unicode="&#x2153;" horiz-adv-x="652" 
d="M70 317v306h-69v51q50 2 62 9t21 42h64v-408h-78zM129 0l224 725h59l-224 -725h-59zM495 -8q-119 0 -119 118v2h77v-2q0 -65 43 -65q50 0 50 69q0 34 -12.5 51.5t-48.5 17.5h-24v55h23q49 0 49 62q0 31 -8.5 46t-33.5 15q-20 0 -28 -12.5t-8 -47.5v-2h-77v2
q0 114 118 114q120 0 120 -106q0 -74 -59 -92q73 -23 73 -102q0 -66 -34 -94.5t-101 -28.5z" />
    <glyph glyph-name="twothirds" unicode="&#x2154;" horiz-adv-x="756" 
d="M24 317v60l45 57q65 81 90 121.5t25 73.5q0 50 -40 50q-38 0 -38 -74v-5h-80v4q0 128 124 128q117 0 117 -98q0 -44 -25.5 -89t-83.5 -117l-38 -48h148v-63h-244zM233 0l224 725h59l-224 -725h-59zM599 -8q-119 0 -119 118v2h77v-2q0 -65 43 -65q50 0 50 69
q0 34 -12.5 51.5t-48.5 17.5h-24v55h23q49 0 49 62q0 31 -8.5 46t-33.5 15q-20 0 -28 -12.5t-8 -47.5v-2h-77v2q0 114 118 114q120 0 120 -106q0 -74 -59 -92q73 -23 73 -102q0 -66 -34 -94.5t-101 -28.5z" />
    <glyph glyph-name="uni2155" unicode="&#x2155;" horiz-adv-x="642" 
d="M70 317v306h-69v51q50 2 62 9t21 42h64v-408h-78zM129 0l224 725h59l-224 -725h-59zM497 -8q-55 0 -88 28.5t-33 89.5v2h78v-2q0 -65 43 -65q42 0 42 75v27q0 75 -43 75q-30 0 -41 -40l-72 3l19 223h211v-63h-148l-10 -111q7 18 26 30.5t44 12.5q51 0 74.5 -31t23.5 -97
v-30q0 -127 -126 -127z" />
    <glyph glyph-name="uni2156" unicode="&#x2156;" horiz-adv-x="746" 
d="M24 317v60l45 57q65 81 90 121.5t25 73.5q0 50 -40 50q-38 0 -38 -74v-5h-80v4q0 128 124 128q117 0 117 -98q0 -44 -25.5 -89t-83.5 -117l-38 -48h148v-63h-244zM233 0l224 725h59l-224 -725h-59zM601 -8q-55 0 -88 28.5t-33 89.5v2h78v-2q0 -65 43 -65q42 0 42 75v27
q0 75 -43 75q-30 0 -41 -40l-72 3l19 223h211v-63h-148l-10 -111q7 18 26 30.5t44 12.5q51 0 74.5 -31t23.5 -97v-30q0 -127 -126 -127z" />
    <glyph glyph-name="uni2157" unicode="&#x2157;" horiz-adv-x="753" 
d="M138 310q-119 0 -119 119v2h77v-2q0 -34 9.5 -49.5t33.5 -15.5q50 0 50 68q0 34 -12.5 51.5t-48.5 17.5h-24v56h23q28 0 38.5 15.5t10.5 46.5q0 30 -9 45t-33 15q-20 0 -28 -12.5t-8 -47.5v-2h-77v2q0 114 118 114q120 0 120 -106q0 -74 -59 -92q73 -20 73 -102
q0 -66 -34 -94.5t-101 -28.5zM240 0l224 725h59l-224 -725h-59zM608 -8q-55 0 -88 28.5t-33 89.5v2h78v-2q0 -65 43 -65q42 0 42 75v27q0 75 -43 75q-30 0 -41 -40l-72 3l19 223h211v-63h-148l-10 -111q7 18 26 30.5t44 12.5q51 0 74.5 -31t23.5 -97v-30q0 -127 -126 -127z
" />
    <glyph glyph-name="uni2158" unicode="&#x2158;" horiz-adv-x="758" 
d="M162 317v99h-150v57l147 252h78v-246h49v-63h-49v-99h-75zM73 479h89v146zM245 0l224 725h59l-224 -725h-59zM613 -8q-55 0 -88 28.5t-33 89.5v2h78v-2q0 -65 43 -65q42 0 42 75v27q0 75 -43 75q-30 0 -41 -40l-72 3l19 223h211v-63h-148l-10 -111q7 18 26 30.5t44 12.5
q51 0 74.5 -31t23.5 -97v-30q0 -127 -126 -127z" />
    <glyph glyph-name="uni2159" unicode="&#x2159;" horiz-adv-x="654" 
d="M70 317v306h-69v51q50 2 62 9t21 42h64v-408h-78zM129 0l224 725h59l-224 -725h-59zM513 -8q-73 0 -101.5 42.5t-28.5 138.5v56q0 98 28.5 142t101.5 44q114 0 114 -108v-5h-77v3q0 56 -38 56q-28 0 -36 -26.5t-8 -90.5v-20q16 45 69 45q99 0 99 -129v-20
q0 -65 -30 -96.5t-93 -31.5zM508 45q44 0 44 75v18q0 74 -44 74q-42 0 -42 -74v-18q0 -75 42 -75z" />
    <glyph glyph-name="uni215A" unicode="&#x215a;" horiz-adv-x="755" 
d="M140 309q-55 0 -88 28.5t-33 90.5v2h78v-2q0 -65 43 -65q42 0 42 75v26q0 75 -43 75q-30 0 -41 -40l-72 3l19 223h211v-62h-148l-10 -112q7 18 26 30.5t44 12.5q98 0 98 -127v-30q0 -128 -126 -128zM230 0l224 725h59l-224 -725h-59zM614 -8q-73 0 -101.5 42.5
t-28.5 138.5v56q0 98 28.5 142t101.5 44q114 0 114 -108v-5h-77v3q0 56 -38 56q-28 0 -36 -26.5t-8 -90.5v-20q16 45 69 45q99 0 99 -129v-20q0 -65 -30 -96.5t-93 -31.5zM609 45q44 0 44 75v18q0 74 -44 74q-42 0 -42 -74v-18q0 -75 42 -75z" />
    <glyph glyph-name="oneeighth" unicode="&#x215b;" horiz-adv-x="660" 
d="M70 317v306h-69v51q50 2 62 9t21 42h64v-408h-78zM129 0l224 725h59l-224 -725h-59zM509 -8q-67 0 -99.5 28.5t-32.5 94.5q0 77 64 102q-21 8 -38.5 31t-17.5 60q0 107 124 107q123 0 123 -107q0 -37 -17.5 -60t-37.5 -31q64 -25 64 -102q0 -66 -32.5 -94.5t-99.5 -28.5z
M509 45q28 0 38.5 17.5t10.5 50.5v5q0 33 -10 50t-39 17t-39.5 -17t-10.5 -50v-5q0 -68 50 -68zM509 239q24 0 31.5 14t7.5 45v4q0 31 -7.5 45t-31.5 14t-31.5 -14t-7.5 -45v-4q0 -31 7.5 -45t31.5 -14z" />
    <glyph glyph-name="threeeighths" unicode="&#x215c;" horiz-adv-x="771" 
d="M138 310q-119 0 -119 119v2h77v-2q0 -34 9.5 -49.5t33.5 -15.5q50 0 50 68q0 34 -12.5 51.5t-48.5 17.5h-24v56h23q28 0 38.5 15.5t10.5 46.5q0 30 -9 45t-33 15q-20 0 -28 -12.5t-8 -47.5v-2h-77v2q0 114 118 114q120 0 120 -106q0 -74 -59 -92q73 -20 73 -102
q0 -66 -34 -94.5t-101 -28.5zM240 0l224 725h59l-224 -725h-59zM620 -8q-67 0 -99.5 28.5t-32.5 94.5q0 77 64 102q-21 8 -38.5 31t-17.5 60q0 107 124 107q123 0 123 -107q0 -37 -17.5 -60t-37.5 -31q64 -25 64 -102q0 -66 -32.5 -94.5t-99.5 -28.5zM620 45q28 0 38.5 17.5
t10.5 50.5v5q0 33 -10 50t-39 17t-39.5 -17t-10.5 -50v-5q0 -68 50 -68zM620 239q24 0 31.5 14t7.5 45v4q0 31 -7.5 45t-31.5 14t-31.5 -14t-7.5 -45v-4q0 -31 7.5 -45t31.5 -14z" />
    <glyph glyph-name="fiveeighths" unicode="&#x215d;" horiz-adv-x="761" 
d="M140 309q-55 0 -88 28.5t-33 90.5v2h78v-2q0 -65 43 -65q42 0 42 75v26q0 75 -43 75q-30 0 -41 -40l-72 3l19 223h211v-62h-148l-10 -112q7 18 26 30.5t44 12.5q98 0 98 -127v-30q0 -128 -126 -128zM230 0l224 725h59l-224 -725h-59zM610 -8q-67 0 -99.5 28.5t-32.5 94.5
q0 77 64 102q-21 8 -38.5 31t-17.5 60q0 107 124 107q123 0 123 -107q0 -37 -17.5 -60t-37.5 -31q64 -25 64 -102q0 -66 -32.5 -94.5t-99.5 -28.5zM610 45q28 0 38.5 17.5t10.5 50.5v5q0 33 -10 50t-39 17t-39.5 -17t-10.5 -50v-5q0 -68 50 -68zM610 239q24 0 31.5 14
t7.5 45v4q0 31 -7.5 45t-31.5 14t-31.5 -14t-7.5 -45v-4q0 -31 7.5 -45t31.5 -14z" />
    <glyph glyph-name="seveneighths" unicode="&#x215e;" horiz-adv-x="704" 
d="M123 317h-85q5 224 124 346h-160v62h227v-62q-62 -65 -84 -146.5t-22 -199.5zM173 0l224 725h59l-224 -725h-59zM553 -8q-67 0 -99.5 28.5t-32.5 94.5q0 77 64 102q-21 8 -38.5 31t-17.5 60q0 107 124 107q123 0 123 -107q0 -37 -17.5 -60t-37.5 -31q64 -25 64 -102
q0 -66 -32.5 -94.5t-99.5 -28.5zM553 45q28 0 38.5 17.5t10.5 50.5v5q0 33 -10 50t-39 17t-39.5 -17t-10.5 -50v-5q0 -68 50 -68zM553 239q24 0 31.5 14t7.5 45v4q0 31 -7.5 45t-31.5 14t-31.5 -14t-7.5 -45v-4q0 -31 7.5 -45t31.5 -14z" />
    <glyph glyph-name="uni215F" unicode="&#x215f;" horiz-adv-x="357" 
d="M70 317v306h-69v51q50 2 62 9t21 42h64v-408h-78zM129 0l224 725h59l-224 -725h-59z" />
    <glyph glyph-name="arrowleft" unicode="&#x2190;" horiz-adv-x="800" 
d="M761 213h-534l179 -181l-75 -74l-311 311l311 311l76 -74l-180 -181h534v-112z" />
    <glyph glyph-name="arrowup" unicode="&#x2191;" horiz-adv-x="800" 
d="M344 0v534l-181 -179l-74 75l311 311l311 -311l-74 -76l-181 180v-534h-112z" />
    <glyph glyph-name="arrowright" unicode="&#x2192;" horiz-adv-x="800" 
d="M39 325h534l-179 181l75 74l311 -311l-311 -311l-76 74l180 181h-534v112z" />
    <glyph glyph-name="arrowdown" unicode="&#x2193;" horiz-adv-x="800" 
d="M456 725v-534l181 179l74 -75l-311 -311l-311 311l74 76l181 -180v534h112z" />
    <glyph glyph-name="uni2196" unicode="&#x2196;" horiz-adv-x="800" 
d="M622 -27l-377 379v-254h-107v440h440v-107h-254l377 -379z" />
    <glyph glyph-name="uni2197" unicode="&#x2197;" horiz-adv-x="800" 
d="M99 52l377 379h-254v107h440v-440h-107v254l-377 -379z" />
    <glyph glyph-name="uni2198" unicode="&#x2198;" horiz-adv-x="800" 
d="M178 565l377 -379v254h107v-440h-440v107h254l-377 379z" />
    <glyph glyph-name="uni2199" unicode="&#x2199;" horiz-adv-x="800" 
d="M701 486l-377 -379h254v-107h-440v440h107v-254l377 379z" />
    <glyph glyph-name="uni219E" unicode="&#x219e;" horiz-adv-x="800" 
d="M761 213h-254l179 -181l-75 -74l-255 255h-129l179 -181l-75 -74l-311 311l311 311l76 -74l-180 -181h129l255 255l76 -74l-180 -181h254v-112z" />
    <glyph glyph-name="uni219F" unicode="&#x219f;" horiz-adv-x="800" 
d="M344 0v254l-181 -179l-74 75l255 255v129l-181 -179l-74 75l311 311l311 -311l-74 -76l-181 180v-129l255 -255l-74 -76l-181 180v-254h-112z" />
    <glyph glyph-name="uni21A0" unicode="&#x21a0;" horiz-adv-x="800" 
d="M39 325h254l-179 181l75 74l255 -255h129l-179 181l75 74l311 -311l-311 -311l-76 74l180 181h-129l-255 -255l-76 74l180 181h-254v112z" />
    <glyph glyph-name="uni21A1" unicode="&#x21a1;" horiz-adv-x="800" 
d="M456 725v-254l181 179l74 -75l-255 -255v-129l181 179l74 -75l-311 -311l-311 311l74 76l181 -180v129l-255 255l74 76l181 -180v254h112z" />
    <glyph glyph-name="uni21A2" unicode="&#x21a2;" horiz-adv-x="800" 
d="M762 32l-75 -74l-255 255h-205l179 -181l-75 -74l-311 311l311 311l76 -74l-180 -181h205l255 255l76 -74l-236 -236z" />
    <glyph glyph-name="uni21A3" unicode="&#x21a3;" horiz-adv-x="800" 
d="M273 270l-236 236l76 74l255 -255h205l-180 181l76 74l311 -311l-311 -311l-75 74l179 181h-205l-255 -255l-75 74z" />
    <glyph glyph-name="uni21A4" unicode="&#x21a4;" horiz-adv-x="800" 
d="M721 0h-112v213h-382l179 -181l-75 -74l-311 311l311 311l76 -74l-180 -181h382v213h112v-538z" />
    <glyph glyph-name="uni21A5" unicode="&#x21a5;" horiz-adv-x="800" 
d="M131 0v112h213v422l-181 -179l-74 75l311 311l311 -311l-74 -76l-181 180v-422h213v-112h-538z" />
    <glyph glyph-name="uni21A6" unicode="&#x21a6;" horiz-adv-x="800" 
d="M79 538h112v-213h382l-179 181l75 74l311 -311l-311 -311l-76 74l180 181h-382v-213h-112v538z" />
    <glyph glyph-name="uni21A7" unicode="&#x21a7;" horiz-adv-x="800" 
d="M669 725v-112h-213v-422l181 179l74 -75l-311 -311l-311 311l74 76l181 -180v422h-213v112h538z" />
    <glyph glyph-name="uni21B0" unicode="&#x21b0;" horiz-adv-x="800" 
d="M721 -175h-112v388h-382l179 -181l-75 -74l-311 311l311 311l76 -74l-180 -181h494v-500z" />
    <glyph glyph-name="uni21B1" unicode="&#x21b1;" horiz-adv-x="800" 
d="M780 269l-311 -311l-75 74l179 181h-382v-388h-112v500h494l-180 181l76 74z" />
    <glyph glyph-name="uni21B2" unicode="&#x21b2;" horiz-adv-x="800" 
d="M609 325v400h112v-512h-494l180 -181l-76 -74l-311 311l311 311l75 -74l-179 -181h382z" />
    <glyph glyph-name="uni21B3" unicode="&#x21b3;" horiz-adv-x="800" 
d="M79 725h112v-400h382l-179 181l75 74l311 -311l-311 -311l-76 74l180 181h-494v512z" />
    <glyph glyph-name="partialdiff" unicode="&#x2202;" horiz-adv-x="496" 
d="M244 -13q-106 0 -160 63t-54 174v38q0 226 198 226q76 0 119 -51l2 3q-9 95 -59 145.5t-172 52.5v100q184 0 263.5 -101.5t79.5 -305.5v-32q0 -73 -10 -127t-34 -97.5t-67.5 -65.5t-105.5 -22zM244 77q50 0 72 36t22 111v27q0 75 -22 111t-72 36t-72.5 -36.5
t-22.5 -111.5v-24q0 -75 22.5 -112t72.5 -37z" />
    <glyph glyph-name="product" unicode="&#x220f;" horiz-adv-x="557" 
d="M65 -175v900h427v-900h-120v797h-187v-797h-120z" />
    <glyph glyph-name="summation" unicode="&#x2211;" horiz-adv-x="474" 
d="M32 -175v100l215 350l-212 349v101h420v-104h-290l207 -346l-212 -346h295v-104h-423z" />
    <glyph glyph-name="minus" unicode="&#x2212;" 
d="M20 202v112h508v-112h-508z" />
    <glyph glyph-name="radical" unicode="&#x221a;" horiz-adv-x="599" 
d="M266 -175l-138 290l-84 -41l-44 102l175 85l136 -290l169 754h119l-209 -900h-124z" />
    <glyph glyph-name="infinity" unicode="&#x221e;" horiz-adv-x="778" 
d="M569 87q-53 0 -95 24.5t-84 70.5q-86 -94 -182 -94q-78 0 -127.5 47t-49.5 121q0 73 50 120t130 47q96 0 177 -91q81 91 179 91q80 0 130 -47t50 -120q0 -75 -49 -122t-129 -47zM211 186q32 0 57.5 17.5t56.5 53.5q-56 68 -112 68q-35 0 -56.5 -19.5t-21.5 -49.5
t21.5 -50t54.5 -20zM567 186q33 0 54.5 19.5t21.5 50.5q0 30 -22 49.5t-57 19.5q-55 0 -111 -68q61 -71 114 -71z" />
    <glyph glyph-name="integral" unicode="&#x222b;" horiz-adv-x="375" 
d="M85 -180q-40 0 -67.5 20t-27.5 57q0 24 14.5 39.5t39.5 15.5q20 0 34 -12.5t14 -39.5q0 -15 -4 -26q26 4 35 33.5t9 91.5q0 22 -3.5 91t-3.5 114v238q0 290 167 290q40 0 67 -20.5t27 -57.5q0 -25 -14 -40t-40 -15q-20 0 -34 12.5t-14 39.5q0 16 4 27q-47 -7 -47 -125
q0 -26 4.5 -94.5t4.5 -144.5v-205q0 -109 -23 -175.5t-57.5 -90t-84.5 -23.5z" />
    <glyph glyph-name="approxequal" unicode="&#x2248;" 
d="M128 71h-100q4 86 38.5 130.5t111.5 44.5q49 0 103.5 -34.5t81.5 -34.5t41 16t16 53h101q-4 -86 -38.5 -130.5t-110.5 -44.5q-43 0 -98 34t-88 34q-28 0 -41.5 -15.5t-16.5 -52.5zM128 294h-100q4 87 38.5 131.5t111.5 44.5q49 0 103.5 -34.5t81.5 -34.5t41 16t16 53h101
q-4 -86 -38.5 -131t-110.5 -45q-43 0 -98 34.5t-88 34.5q-28 0 -41.5 -15.5t-16.5 -53.5z" />
    <glyph glyph-name="notequal" unicode="&#x2260;" 
d="M61 328v100h226l49 110h117l-49 -110h84v-100h-128l-53 -119h181v-99h-225l-48 -110h-116l48 110h-86v99h130l52 119h-182z" />
    <glyph glyph-name="lessequal" unicode="&#x2264;" 
d="M504 550v-105l-305 -105l305 -105v-105l-459 156v108zM45 0v99h459v-99h-459z" />
    <glyph glyph-name="greaterequal" unicode="&#x2265;" 
d="M45 445v105l459 -156v-108l-459 -156v105l305 105zM504 99v-99h-459v99h459z" />
    <glyph glyph-name="filledbox" unicode="&#x25a0;" horiz-adv-x="624" 
d="M43 0v538h538v-538h-538z" />
    <glyph glyph-name="H22073" unicode="&#x25a1;" horiz-adv-x="624" 
d="M43 0v538h538v-538h-538zM155 426v-314h314v314h-314z" />
    <glyph glyph-name="lozenge" unicode="&#x25ca;" horiz-adv-x="556" 
d="M283 107l149 236l-149 236l-149 -236zM283 -90l-279 433l279 432l273 -432z" />
    <glyph glyph-name="circle" unicode="&#x25cb;" horiz-adv-x="602" 
d="M301 442q-75 0 -123 -50t-48 -123q0 -74 48 -124t123 -50q74 0 122.5 50t48.5 124q0 73 -48.5 123t-122.5 50zM301 550q121 0 202 -82t81 -199q0 -118 -81 -200t-202 -82t-202 82t-81 200q0 117 81 199t202 82z" />
    <glyph glyph-name="H18533" unicode="&#x25cf;" horiz-adv-x="602" 
d="M301 -13q-121 0 -202 82t-81 199q0 118 81 200t202 82t202 -82t81 -200q0 -117 -81 -199t-202 -82z" />
    <glyph glyph-name="fi" unicode="&#xfb01;" horiz-adv-x="520" 
d="M341 0v538h129v-538h-129zM68 0v456h-67v82h67v49q0 83 36.5 110.5t125.5 27.5h60v-79h-34q-36 0 -47.5 -11.5t-11.5 -47.5v-49h93v-82h-93v-456h-129zM341 604v121h129v-121h-129z" />
    <glyph glyph-name="fl" unicode="&#xfb02;" horiz-adv-x="520" 
d="M68 0v456h-67v82h67v49q0 83 36.5 110.5t125.5 27.5h60v-79h-34q-36 0 -47.5 -11.5t-11.5 -47.5v-49h93v-82h-93v-456h-129zM341 0v725h129v-725h-129z" />
    <glyph glyph-name="_001" horiz-adv-x="0" 
 />
    <glyph glyph-name="_002" horiz-adv-x="180" 
 />
    <glyph glyph-name="bullet.001" horiz-adv-x="452" 
d="M222 92q-73 0 -124.5 53t-51.5 130q0 73 52 125t124 52q78 0 131 -51.5t53 -125.5q0 -78 -52.5 -130.5t-131.5 -52.5z" />
    <glyph glyph-name="_383" horiz-adv-x="229" 
d="M50 604v121h129v-121h-129z" />
    <glyph glyph-name="_384" horiz-adv-x="159" 
d="M23 -175v119h114v-119h-114z" />
    <glyph glyph-name="_386" horiz-adv-x="152" 
d="M17 -237l38 93h-35v94h107v-100l-43 -87h-67z" />
    <glyph glyph-name="_390" horiz-adv-x="194" 
d="M23 555l26 170h122l-62 -170h-86z" />
    <glyph glyph-name="zero.zero" horiz-adv-x="550" 
d="M274 -12q-128 0 -178 76.5t-50 249.5v98q0 173 50 250t178 77t179 -77t51 -250v-98q0 -173 -51 -249.5t-179 -76.5zM177 393v-40l195 92q-1 54 -5 89t-14.5 64t-29.5 42t-49 13q-23 0 -39.5 -7t-27 -24.5t-16.5 -36.5t-9 -52.5t-4 -62.5t-1 -77zM274 74q27 0 45.5 12
t29 31t15.5 55t6.5 70t1.5 91v21l-195 -92q2 -98 22.5 -143t74.5 -45z" />
    <glyph glyph-name="one.onum" horiz-adv-x="310" 
d="M117 0v491h-104v80q77 2 98.5 14t34.5 67h101v-652h-130z" />
    <glyph glyph-name="two.onum" horiz-adv-x="472" 
d="M43 0v94l73 90q104 131 143.5 195.5t39.5 119.5q0 79 -63 79q-34 0 -48.5 -27.5t-14.5 -90.5v-8h-123v8q0 104 46.5 154t149.5 50q90 0 138 -41t48 -116q0 -69 -40.5 -139t-134.5 -190l-62 -78h240v-100h-392z" />
    <glyph glyph-name="three.onum" horiz-adv-x="482" 
d="M226 -12q-190 0 -190 187v4h123v-4q0 -51 15.5 -76.5t53.5 -25.5q47 0 64 28.5t17 81.5q0 54 -19.5 81t-77.5 27h-40v89h36q44 0 62 26t18 74q0 50 -13.5 74t-52.5 24q-35 0 -47 -20.5t-12 -77.5v-4h-123v4q0 184 188 184q195 0 195 -170q0 -61 -27.5 -98t-68.5 -51
q115 -34 115 -162q0 -103 -54.5 -149t-161.5 -46z" />
    <glyph glyph-name="four.onum" horiz-adv-x="487" 
d="M252 0v158h-230v92l233 402h127v-393h79v-101h-79v-158h-130zM117 259h135v233z" />
    <glyph glyph-name="five.onum" horiz-adv-x="473" 
d="M232 -12q-88 0 -141 45t-53 142v4h122v-4q0 -52 16 -77t56 -25q37 0 51.5 29.5t14.5 89.5v44q0 119 -70 119q-50 0 -64 -65l-118 5l30 357h340v-100h-238l-15 -177q12 29 42 49t70 20q81 0 119 -50t38 -155v-46q0 -205 -200 -205z" />
    <glyph glyph-name="six.onum" horiz-adv-x="496" 
d="M258 -12q-116 0 -161.5 67t-45.5 220v93q0 157 45 226.5t163 69.5q92 0 135.5 -47t43.5 -127v-6h-121v5q0 48 -14.5 68.5t-45.5 20.5q-47 0 -60 -42t-13 -146v-31q11 29 40 49.5t71 20.5q83 0 121.5 -49.5t38.5 -154.5v-31q0 -206 -197 -206zM251 73q70 0 70 119v29
q0 119 -70 119t-70 -120v-27q0 -120 70 -120z" />
    <glyph glyph-name="seven.onum" horiz-adv-x="431" 
d="M228 0h-136q7 317 221 552h-278v100h386v-100q-104 -120 -148.5 -249t-44.5 -303z" />
    <glyph glyph-name="eight.onum" horiz-adv-x="501" 
d="M251 -12q-106 0 -159 46t-53 149q0 126 104 164q-33 9 -61 47.5t-28 99.5q0 170 197 170q196 0 196 -170q0 -61 -28 -99t-61 -48q104 -38 104 -164q0 -103 -52.5 -149t-158.5 -46zM251 73q45 0 61 27.5t16 80.5v8q0 52 -16 80.5t-61 28.5q-46 0 -62 -28t-16 -81v-8
q0 -53 16 -80.5t62 -27.5zM251 381q38 0 50 23t12 71v8q0 50 -12 72.5t-50 22.5t-51 -23t-13 -72v-7q0 -49 13 -72t51 -23z" />
    <glyph glyph-name="nine.onum" horiz-adv-x="496" 
d="M237 -12q-92 0 -136 47t-44 126v6h122v-5q0 -49 14.5 -69t45.5 -20q46 0 59 42t13 145v31q-30 -70 -111 -70q-159 0 -159 204v32q0 105 48 156t149 51q116 0 161.5 -68t45.5 -221v-91q0 -157 -45 -226.5t-163 -69.5zM245 311q70 0 70 120v27q0 120 -70 120t-70 -120v-29
q0 -118 70 -118z" />
    <glyph glyph-name="zero.onum" horiz-adv-x="511" 
d="M255 73q18 0 31.5 6t22 21t13.5 30.5t7 45.5t2.5 53t0.5 66v60q0 43 -0.5 66t-2.5 53t-7 45.5t-13.5 31t-22 21.5t-31.5 6t-31 -6t-21.5 -21.5t-13.5 -31t-7 -45.5t-2.5 -53t-0.5 -66v-60q0 -43 0.5 -66t2.5 -53t7 -45.5t13.5 -30.5t21.5 -21t31 -6zM255 -12
q-118 0 -163.5 68.5t-45.5 223.5v91q0 154 46 223.5t163 69.5q118 0 164 -69.5t46 -223.5v-91q0 -155 -45.5 -223.5t-164.5 -68.5z" />
    <glyph glyph-name="zero.onum_zero" horiz-adv-x="511" 
d="M255 -12q-118 0 -163.5 68.5t-45.5 223.5v91q0 154 46 223.5t163 69.5q118 0 164 -69.5t46 -223.5v-91q0 -155 -45.5 -223.5t-164.5 -68.5zM255 73q18 0 31.5 6t22 21t13.5 30.5t7 45.5t2.5 53t0.5 66v28l-153 -76q0 -91 15.5 -132.5t60.5 -41.5zM179 355v-18l153 75
q-3 88 -17.5 127t-59.5 39q-18 0 -31 -6t-21.5 -21.5t-13.5 -31t-7 -45.5t-2.5 -53t-0.5 -66z" />
    <glyph glyph-name="one.tnum" 
d="M55 0v99h163v454h-154v80q40 1 61 2.5t45 6.5t36 14.5t23 26.5t17 42h101v-626h147v-99h-439z" />
    <glyph glyph-name="two.tnum" 
d="M62 0v94l81 101q54 69 74 95.5t54.5 75t47 73.5t23.5 57t11 60q0 97 -81 97q-82 0 -82 -138v-9h-121v8q0 113 51.5 168.5t161.5 55.5q98 0 150 -44t52 -130q0 -55 -29.5 -119.5t-65 -114.5t-110.5 -146l-67 -85h275v-99h-425z" />
    <glyph glyph-name="three.tnum" 
d="M261 -12q-97 0 -152 50t-55 155v4h121v-4q0 -59 20 -89t68 -30q58 0 79.5 34t21.5 95q0 63 -26 95.5t-95 32.5h-44v89h40q55 0 78.5 30t23.5 90q0 56 -18.5 84.5t-64.5 28.5q-44 0 -61 -26t-17 -89v-5h-121v5q0 104 54.5 152.5t149.5 48.5q211 0 211 -187q0 -68 -31 -111
t-78 -56q130 -36 130 -182q0 -112 -59.5 -163.5t-174.5 -51.5z" />
    <glyph glyph-name="four.tnum" 
d="M300 0v179h-264v93l267 453h125v-446h85v-100h-85v-179h-128zM130 279h170v286z" />
    <glyph glyph-name="five.tnum" 
d="M270 -12q-98 0 -154.5 50.5t-56.5 154.5v4h121v-4q0 -120 90 -120q88 0 88 143v45q0 142 -90 142q-62 0 -83 -78l-116 4l34 397h369v-99h-269l-18 -211q14 32 47.5 54t81.5 22q176 0 176 -226v-52q0 -226 -220 -226z" />
    <glyph glyph-name="six.tnum" 
d="M278 -12q-122 0 -173.5 72.5t-51.5 236.5v102q0 179 49.5 259.5t179.5 80.5q99 0 148 -52t49 -140v-6h-121v5q0 107 -78 107q-58 0 -77 -52.5t-19 -173.5v-32q14 35 47 59.5t83 24.5q181 0 181 -227v-37q0 -227 -217 -227zM272 73q90 0 90 142v31q0 143 -90 143t-90 -144
v-29q0 -143 90 -143z" />
    <glyph glyph-name="seven.tnum" 
d="M269 0h-133q11 363 251 626h-334v99h442v-99q-119 -134 -170.5 -279.5t-55.5 -346.5z" />
    <glyph glyph-name="eight.tnum" 
d="M274 -12q-115 0 -174 51t-59 165q0 140 120 183q-40 15 -71.5 56t-31.5 109q0 187 216 187t216 -187q0 -68 -31.5 -109t-70.5 -56q119 -43 119 -183q0 -114 -59 -165t-174 -51zM274 73q101 0 101 127v11q0 128 -101 128t-101 -127v-12q0 -127 101 -127zM274 422
q46 0 64 27.5t18 83.5v9q0 57 -18 84t-64 27t-64 -27t-18 -84v-9q0 -57 18 -84t64 -27z" />
    <glyph glyph-name="nine.tnum" 
d="M267 -12q-101 0 -149 51.5t-48 140.5v6h121v-5q0 -57 19 -82.5t59 -25.5q58 0 76.5 52.5t18.5 173.5v32q-11 -33 -45.5 -58.5t-84.5 -25.5q-181 0 -181 227v37q0 228 217 228q122 0 173.5 -73t51.5 -237v-102q0 -179 -49 -259t-179 -80zM276 337q90 0 90 144v29
q0 143 -90 143t-90 -142v-31q0 -143 90 -143z" />
    <glyph glyph-name="zero.tnum" 
d="M274 74q27 0 45 12t28.5 31t15.5 55t6.5 70t1.5 91v60q0 47 -1 76.5t-4 63t-9.5 52.5t-17 36t-27 24.5t-38.5 7.5t-38.5 -7.5t-27 -24.5t-17 -36t-9.5 -52.5t-4 -63t-1 -76.5v-60q0 -57 1.5 -91t6.5 -70t15.5 -55t28.5 -31t45 -12zM274 -12q-128 0 -178.5 76.5
t-50.5 249.5v98q0 174 50.5 250.5t178.5 76.5t178.5 -76.5t50.5 -250.5v-98q0 -173 -50.5 -249.5t-178.5 -76.5z" />
    <glyph glyph-name="zero.tnum_zero" 
d="M274 -12q-128 0 -178.5 76.5t-50.5 249.5v98q0 174 50.5 250.5t178.5 76.5t178.5 -76.5t50.5 -250.5v-98q0 -173 -50.5 -249.5t-178.5 -76.5zM177 393v-33l193 91q-3 107 -21.5 154.5t-74.5 47.5q-22 0 -38.5 -7.5t-27 -24.5t-17 -36t-9.5 -52.5t-4 -63t-1 -76.5zM274 74
q27 0 45 12t28.5 31t15.5 55t6.5 70t1.5 91v30l-194 -94q2 -103 21.5 -149t75.5 -46z" />
    <glyph glyph-name="one.case" horiz-adv-x="342" 
d="M133 0v551h-120v83q89 2 112 15.5t38 75.5h104v-725h-134z" />
    <glyph glyph-name="two.case" horiz-adv-x="523" 
d="M50 0v96l81 102q116 147 161.5 220t45.5 138q0 94 -76 94q-42 0 -60.5 -33t-18.5 -103v-9h-125v8q0 115 51 170t163 55q99 0 151 -44t52 -130q0 -77 -47.5 -159t-154.5 -217l-68 -86h273v-102h-428z" />
    <glyph glyph-name="three.case" horiz-adv-x="538" 
d="M252 -12q-98 0 -153 49.5t-55 155.5v4h125v-4q0 -58 19 -87.5t66 -29.5q57 0 77.5 33.5t20.5 94.5q0 63 -24.5 94t-93.5 31h-43v92h40q54 0 76 30t22 88q0 55 -18 83.5t-63 28.5q-42 0 -58 -25.5t-16 -88.5v-4h-125v4q0 202 205 202q213 0 213 -187q0 -68 -31.5 -111
t-77.5 -56q130 -37 130 -181q0 -113 -60 -164.5t-176 -51.5z" />
    <glyph glyph-name="four.case" horiz-adv-x="536" 
d="M286 0v179h-262v95l264 451h132v-443h86v-103h-86v-179h-134zM120 282h166v279z" />
    <glyph glyph-name="five.case" horiz-adv-x="528" 
d="M257 -12q-98 0 -155 50t-57 155v4h125v-4q0 -58 20.5 -87.5t66.5 -29.5q45 0 64.5 35.5t19.5 104.5v45q0 140 -86 140q-61 0 -80 -76l-120 4l34 397h371v-102h-268l-17 -207q12 31 46.5 53.5t80.5 22.5q91 0 133.5 -56t42.5 -171v-52q0 -226 -221 -226z" />
    <glyph glyph-name="six.case" horiz-adv-x="544" 
d="M283 -12q-126 0 -177 73t-51 238v102q0 178 49.5 258t180.5 80q100 0 149 -52t49 -140v-6h-125v5q0 105 -75 105q-56 0 -74 -51.5t-18 -170.5v-33q14 34 47 58.5t82 24.5q180 0 180 -227v-37q0 -227 -217 -227zM275 76q88 0 88 139v31q0 140 -88 140q-86 0 -86 -141v-29
q0 -140 86 -140z" />
    <glyph glyph-name="seven.case" horiz-adv-x="457" 
d="M225 0h-139q11 362 250 623h-315v102h426v-102q-118 -134 -169 -279t-53 -344z" />
    <glyph glyph-name="eight.case" horiz-adv-x="567" 
d="M283 -12q-116 0 -174.5 51t-58.5 165q0 143 119 183q-40 15 -71 56t-31 109q0 187 216 187q217 0 217 -187q0 -68 -31 -109t-70 -56q118 -41 118 -183q0 -114 -59 -165t-175 -51zM283 76q54 0 75.5 32t21.5 93v10q0 60 -21.5 93t-75.5 33q-97 0 -97 -125v-11
q0 -61 22 -93t75 -32zM283 423q46 0 63 27t17 82v9q0 55 -17 82.5t-63 27.5q-45 0 -62 -27.5t-17 -82.5v-9q0 -55 17 -82t62 -27z" />
    <glyph glyph-name="nine.case" 
d="M264 -12q-101 0 -149 51.5t-48 140.5v6h126v-5q0 -56 17.5 -80.5t55.5 -24.5q56 0 74 51t18 170v33q-14 -35 -46 -59t-82 -24q-180 0 -180 227v37q0 228 217 228q124 0 175 -73.5t51 -238.5v-102q0 -179 -49.5 -258t-179.5 -79zM274 340q87 0 87 141v29q0 141 -87 141
t-87 -140v-31q0 -140 87 -140z" />
    <glyph glyph-name="zero.case" horiz-adv-x="571" 
d="M285 76q22 0 38.5 7t26.5 24.5t16 35.5t9 52t3.5 61.5t0.5 75.5v62q0 49 -0.5 76.5t-3.5 61.5t-9 52t-16 35t-26.5 24t-38.5 7t-38 -7t-26 -24t-16 -35t-9 -51.5t-3.5 -62t-0.5 -76.5v-62q0 -47 0.5 -75t3.5 -61.5t9 -52t16 -36t26 -24.5t38 -7zM285 -12
q-128 0 -179 76.5t-51 248.5v100q0 172 51 249t179 77q129 0 180 -77t51 -249v-100q0 -172 -51 -248.5t-180 -76.5z" />
    <glyph glyph-name="zero.case_zero" horiz-adv-x="571" 
d="M285 -12q-128 0 -179 76.5t-51 248.5v100q0 172 51 249t179 77q129 0 180 -77t51 -249v-100q0 -172 -51 -248.5t-180 -76.5zM192 394v-33l187 88q-3 108 -20.5 154.5t-73.5 46.5q-22 0 -38 -7t-26 -24t-16 -35t-9 -51.5t-3.5 -62t-0.5 -76.5zM285 76q22 0 38.5 7
t26.5 24.5t16 35.5t9 52t3.5 61.5t0.5 75.5v26l-187 -88q2 -69 8 -107t26.5 -62.5t58.5 -24.5z" />
    <glyph glyph-name="a.sups" horiz-adv-x="271" 
d="M95 430q-39 0 -60.5 24t-21.5 64v7q0 33 24 55q21 21 80 39l46 16v25q0 39 -35 39q-21 0 -29 -10t-8 -35v-6h-73v6q0 95 111 95q60 0 87.5 -21t27.5 -84v-4v-8.5t-0.5 -12t-0.5 -14.5v-16v-53q0 -63 5 -98h-75l-1 36q-23 -44 -77 -44zM127 481q20 0 29 15.5t9 50.5v44
q-18 -9 -30 -13q-23 -8 -31.5 -19t-8.5 -30v-7q0 -41 32 -41z" />
    <glyph glyph-name="b.sups" horiz-adv-x="291" 
d="M181 430q-52 0 -71 46v-38h-84v407h84v-142q20 45 71 45q49 0 71 -34t22 -104v-40q0 -71 -22 -105.5t-71 -34.5zM153 488q23 0 29.5 20.5t6.5 73.5v14q0 54 -6.5 75t-29.5 21q-26 0 -36.5 -25.5t-10.5 -77.5q0 -51 10.5 -76t36.5 -25z" />
    <glyph glyph-name="c.sups" horiz-adv-x="262" 
d="M138 430q-121 0 -121 137v46q0 136 121 136q50 0 81.5 -26.5t31.5 -85.5v-5h-78v5q0 34 -8.5 46t-26.5 12q-17 0 -25 -12t-9.5 -28.5t-1.5 -52.5v-26q0 -36 1.5 -52.5t9.5 -28.5t25 -12q18 0 26.5 12.5t8.5 46.5v6h78v-6q0 -59 -31.5 -85.5t-81.5 -26.5z" />
    <glyph glyph-name="d.sups" horiz-adv-x="292" 
d="M110 430q-93 0 -93 140v40q0 138 93 138q53 0 73 -45v142h82v-407h-82v38q-19 -46 -73 -46zM138 488q28 0 38 24.5t10 76.5q0 53 -10 78t-38 25q-22 0 -29 -22t-7 -74v-14q0 -51 7 -72.5t29 -21.5z" />
    <glyph glyph-name="e.sups" horiz-adv-x="275" 
d="M138 430q-121 0 -121 136v49q0 134 123 134q66 0 92.5 -36t26.5 -115v-16h-159v-6q0 -50 7.5 -71.5t31.5 -21.5q38 0 38 54v1h78v-2q0 -56 -33.5 -81t-83.5 -25zM100 631v-6h83v7q0 35 -9 49.5t-33 14.5q-23 0 -32 -15t-9 -50z" />
    <glyph glyph-name="f.sups" horiz-adv-x="170" 
d="M35 438v251h-35v51h35v26q0 48 22 64t76 16h36v-50h-19q-19 0 -25.5 -5.5t-6.5 -23.5v-27h51v-51h-51v-251h-83z" />
    <glyph glyph-name="g.sups" horiz-adv-x="294" 
d="M142 331q-52 0 -82 23.5t-30 70.5v1h74v-1q0 -39 39 -39q25 0 34.5 13t9.5 53v42q-22 -46 -68 -46q-47 0 -74.5 32.5t-27.5 96.5v37q0 67 27.5 100.5t74.5 33.5q44 0 68 -45v37h81v-274q0 -71 -30 -103t-96 -32zM141 506q30 0 39 20.5t9 68.5q0 53 -9 75t-39 22
q-24 0 -31.5 -20.5t-7.5 -67.5v-10q0 -48 7.5 -68t31.5 -20z" />
    <glyph glyph-name="h.sups" horiz-adv-x="284" 
d="M26 438v408h84v-143q19 46 75 46q42 0 59.5 -23.5t17.5 -80.5v-207h-83v179q0 20 -0.5 31t-3.5 22.5t-9 16.5t-17 5q-25 0 -32 -22t-7 -68v-164h-84z" />
    <glyph glyph-name="i.sups" horiz-adv-x="135" 
d="M26 438v302h83v-302h-83zM26 775v71h83v-71h-83z" />
    <glyph glyph-name="j.sups" horiz-adv-x="144" 
d="M-6 339v51h15q18 0 22 8.5t4 35.5v306h83v-302q0 -59 -22.5 -79t-78.5 -20h-23zM35 775v71h83v-71h-83z" />
    <glyph glyph-name="k.sups" horiz-adv-x="264" 
d="M27 438v408h77v-221l83 115h73l-64 -95l75 -207h-75l-50 141l-42 -59v-82h-77z" />
    <glyph glyph-name="l.sups" horiz-adv-x="135" 
d="M26 438v408h83v-408h-83z" />
    <glyph glyph-name="m.sups" horiz-adv-x="426" 
d="M26 438v302h84v-40q20 48 70 48q30 0 46 -12.5t24 -41.5q24 54 76 54q44 0 60.5 -26t16.5 -84v-200h-82v177q0 75 -26 75q-24 0 -31 -17.5t-7 -55.5v-179h-84v192q0 23 -0.5 32.5t-6.5 18.5t-19 9q-24 0 -30.5 -22t-6.5 -68v-162h-84z" />
    <glyph glyph-name="o.sups" horiz-adv-x="279" 
d="M140 483q24 0 30.5 21t6.5 73v26q0 51 -6.5 71.5t-30.5 20.5t-31 -21t-7 -71v-26q0 -51 7 -72.5t31 -21.5zM140 430q-123 0 -123 137v46q0 136 123 136q121 0 121 -136v-46q0 -137 -121 -137z" />
    <glyph glyph-name="p.sups" horiz-adv-x="291" 
d="M26 339v401h84v-37q19 46 71 46q49 0 71 -34t22 -105v-40q0 -71 -22 -105.5t-71 -34.5q-51 0 -71 46v-137h-84zM153 488q23 0 29.5 20.5t6.5 73.5v14q0 54 -6.5 75t-29.5 21q-26 0 -36.5 -25.5t-10.5 -76.5q0 -52 10.5 -77t36.5 -25z" />
    <glyph glyph-name="q.sups" horiz-adv-x="291" 
d="M183 339v137q-9 -20 -28.5 -33t-44.5 -13q-93 0 -93 140v40q0 139 93 139q54 0 73 -46v37h82v-401h-82zM138 488q28 0 38 24.5t10 77.5q0 52 -10 77t-38 25q-22 0 -29 -22t-7 -74v-14q0 -51 7 -72.5t29 -21.5z" />
    <glyph glyph-name="r.sups" horiz-adv-x="181" 
d="M24 438v302h82v-60q13 60 65 60h11v-78h-23q-33 0 -42.5 -13.5t-9.5 -54.5v-156h-83z" />
    <glyph glyph-name="s.sups" horiz-adv-x="257" 
d="M133 430q-57 0 -88.5 29t-31.5 78v1h76v-1q0 -53 44 -53q38 0 38 32q0 16 -8 24.5t-30 17.5l-45 18q-36 13 -53 32t-17 53q0 45 30 66.5t80 21.5q46 0 78 -23.5t32 -72.5v-2h-74v2q0 43 -40 43q-32 -2 -32 -28q0 -15 5.5 -22.5t20.5 -12.5l41 -17q22 -9 29.5 -12.5
t22.5 -12t20 -16.5t10 -21t5 -30q0 -47 -31.5 -70.5t-81.5 -23.5z" />
    <glyph glyph-name="t.sups" horiz-adv-x="174" 
d="M169 438h-59q-43 0 -59 18t-16 63v170h-36v51h36v82h83v-82h51v-51h-51v-162q0 -24 5.5 -31t23.5 -7h22v-51z" />
    <glyph glyph-name="u.sups" horiz-adv-x="276" 
d="M103 431q-44 0 -61.5 25.5t-17.5 84.5v199h82v-178q0 -25 1 -38.5t7.5 -24.5t19.5 -11q22 0 28.5 22.5t6.5 66.5v163h82v-302h-80v40q-20 -47 -68 -47z" />
    <glyph glyph-name="v.sups" horiz-adv-x="243" 
d="M72 438l-71 302h81l40 -221l44 221h77l-76 -302h-95z" />
    <glyph glyph-name="w.sups" horiz-adv-x="338" 
d="M51 438l-39 302h67l21 -219l35 219h67l37 -219l20 219h68l-39 -302h-83l-36 231l-35 -231h-83z" />
    <glyph glyph-name="x.sups" horiz-adv-x="247" 
d="M171 438l-50 90l-52 -90h-72l89 153l-82 149h79l43 -79l46 79h72l-83 -142l89 -160h-79z" />
    <glyph glyph-name="y.sups" horiz-adv-x="240" 
d="M23 339v52h22q20 0 28 7.5t11 26.5l2 14l-85 301h81l45 -221l38 221h75l-72 -302q-14 -59 -35.5 -79t-73.5 -20h-36z" />
    <glyph glyph-name="z.sups" horiz-adv-x="249" 
d="M18 438v51l122 200h-108v51h194v-51l-123 -200h127v-51h-212z" />
    <glyph glyph-name="uni2070.zero" horiz-adv-x="309" 
d="M154 429q-75 0 -103 43t-28 141v56q0 98 28 140.5t103 42.5q73 0 102 -43t29 -140v-56q0 -97 -29 -140.5t-102 -43.5zM154 483q31 0 39 31.5t8 108.5v8l-96 -33q0 -61 9.5 -88t39.5 -27zM105 659v-4l96 33q-1 59 -10 85t-37 26q-17 0 -27.5 -8.5t-15 -29.5t-5.5 -42
t-1 -60z" />
    <glyph glyph-name="period.sups" horiz-adv-x="138" 
d="M26 438v89h91v-89h-91z" />
    <glyph glyph-name="hyphen.sups" horiz-adv-x="236" 
d="M25 551v64h187v-64h-187z" />
    <glyph glyph-name="comma.sups" horiz-adv-x="171" 
d="M34 344l41 94h-36v90h93v-97l-42 -87h-56z" />
    <glyph glyph-name="a.subs" horiz-adv-x="271" 
d="M95 -136q-39 0 -60.5 24t-21.5 64v7q0 33 24 55q21 21 80 39l46 16v25q0 39 -35 39q-21 0 -29 -10t-8 -35v-6h-73v6q0 95 111 95q60 0 87.5 -21t27.5 -84v-4v-8.5t-0.5 -12t-0.5 -14.5v-16v-53q0 -63 5 -98h-75l-1 36q-23 -44 -77 -44zM127 -85q20 0 29 15.5t9 50.5v44
q-18 -9 -30 -13q-23 -8 -31.5 -19t-8.5 -30v-7q0 -41 32 -41z" />
    <glyph glyph-name="b.subs" horiz-adv-x="291" 
d="M181 -136q-52 0 -71 46v-38h-84v407h84v-142q20 45 71 45q49 0 71 -34t22 -104v-40q0 -71 -22 -105.5t-71 -34.5zM153 -78q23 0 29.5 20.5t6.5 73.5v14q0 54 -6.5 75t-29.5 21q-26 0 -36.5 -25.5t-10.5 -77.5q0 -51 10.5 -76t36.5 -25z" />
    <glyph glyph-name="c.subs" horiz-adv-x="262" 
d="M138 -136q-121 0 -121 137v46q0 136 121 136q50 0 81.5 -26.5t31.5 -85.5v-5h-78v5q0 34 -8.5 46t-26.5 12q-17 0 -25 -12t-9.5 -28.5t-1.5 -52.5v-26q0 -36 1.5 -52.5t9.5 -28.5t25 -12q18 0 26.5 12.5t8.5 46.5v6h78v-6q0 -59 -31.5 -85.5t-81.5 -26.5z" />
    <glyph glyph-name="d.subs" horiz-adv-x="292" 
d="M110 -136q-93 0 -93 140v40q0 138 93 138q53 0 73 -45v142h82v-407h-82v38q-19 -46 -73 -46zM138 -78q28 0 38 24.5t10 76.5q0 53 -10 78t-38 25q-22 0 -29 -22t-7 -74v-14q0 -51 7 -72.5t29 -21.5z" />
    <glyph glyph-name="e.subs" horiz-adv-x="275" 
d="M138 -136q-121 0 -121 136v49q0 134 123 134q66 0 92.5 -36t26.5 -115v-16h-159v-6q0 -50 7.5 -71.5t31.5 -21.5q38 0 38 54v1h78v-2q0 -56 -33.5 -81t-83.5 -25zM100 65v-6h83v7q0 35 -9 49.5t-33 14.5q-23 0 -32 -15t-9 -50z" />
    <glyph glyph-name="f.subs" horiz-adv-x="170" 
d="M35 -128v251h-35v51h35v26q0 48 22 64t76 16h36v-50h-19q-19 0 -25.5 -5.5t-6.5 -23.5v-27h51v-51h-51v-251h-83z" />
    <glyph glyph-name="g.subs" horiz-adv-x="294" 
d="M142 -235q-52 0 -82 23.5t-30 70.5v1h74v-1q0 -39 39 -39q25 0 34.5 13t9.5 53v42q-22 -46 -68 -46q-47 0 -74.5 32.5t-27.5 96.5v37q0 67 27.5 100.5t74.5 33.5q44 0 68 -45v37h81v-274q0 -71 -30 -103t-96 -32zM141 -60q30 0 39 20.5t9 68.5q0 53 -9 75t-39 22
q-24 0 -31.5 -20.5t-7.5 -67.5v-10q0 -48 7.5 -68t31.5 -20z" />
    <glyph glyph-name="h.subs" horiz-adv-x="284" 
d="M26 -128v408h84v-143q19 46 75 46q42 0 59.5 -23.5t17.5 -80.5v-207h-83v179q0 20 -0.5 31t-3.5 22.5t-9 16.5t-17 5q-25 0 -32 -22t-7 -68v-164h-84z" />
    <glyph glyph-name="i.subs" horiz-adv-x="135" 
d="M26 -128v302h83v-302h-83zM26 209v71h83v-71h-83z" />
    <glyph glyph-name="j.subs" horiz-adv-x="144" 
d="M-6 -227v51h15q18 0 22 8.5t4 35.5v306h83v-302q0 -59 -22.5 -79t-78.5 -20h-23zM35 209v71h83v-71h-83z" />
    <glyph glyph-name="k.subs" horiz-adv-x="264" 
d="M27 -128v408h77v-221l83 115h73l-64 -95l75 -207h-75l-50 141l-42 -59v-82h-77z" />
    <glyph glyph-name="l.subs" horiz-adv-x="135" 
d="M26 -128v408h83v-408h-83z" />
    <glyph glyph-name="m.subs" horiz-adv-x="426" 
d="M26 -128v302h84v-40q20 48 70 48q30 0 46 -12.5t24 -41.5q24 54 76 54q44 0 60.5 -26t16.5 -84v-200h-82v177q0 75 -26 75q-24 0 -31 -17.5t-7 -55.5v-179h-84v192q0 23 -0.5 32.5t-6.5 18.5t-19 9q-24 0 -30.5 -22t-6.5 -68v-162h-84z" />
    <glyph glyph-name="uni207F.002" horiz-adv-x="284" 
d="M26 -128v302h84v-37q19 46 75 46q42 0 59.5 -23.5t17.5 -80.5v-207h-83v179q0 20 -0.5 31t-3.5 22.5t-9 16.5t-17 5q-25 0 -32 -22t-7 -68v-164h-84z" />
    <glyph glyph-name="o.subs" horiz-adv-x="279" 
d="M140 -83q24 0 30.5 21t6.5 73v26q0 51 -6.5 71.5t-30.5 20.5t-31 -21t-7 -71v-26q0 -51 7 -72.5t31 -21.5zM140 -136q-123 0 -123 137v46q0 136 123 136q121 0 121 -136v-46q0 -137 -121 -137z" />
    <glyph glyph-name="p.subs" horiz-adv-x="291" 
d="M26 -227v401h84v-37q19 46 71 46q49 0 71 -34t22 -105v-40q0 -71 -22 -105.5t-71 -34.5q-51 0 -71 46v-137h-84zM153 -78q23 0 29.5 20.5t6.5 73.5v14q0 54 -6.5 75t-29.5 21q-26 0 -36.5 -25.5t-10.5 -76.5q0 -52 10.5 -77t36.5 -25z" />
    <glyph glyph-name="q.subs" horiz-adv-x="291" 
d="M183 -227v137q-9 -20 -28.5 -33t-44.5 -13q-93 0 -93 140v40q0 139 93 139q54 0 73 -46v37h82v-401h-82zM138 -78q28 0 38 24.5t10 77.5q0 52 -10 77t-38 25q-22 0 -29 -22t-7 -74v-14q0 -51 7 -72.5t29 -21.5z" />
    <glyph glyph-name="r.subs" horiz-adv-x="181" 
d="M24 -128v302h82v-60q13 60 65 60h11v-78h-23q-33 0 -42.5 -13.5t-9.5 -54.5v-156h-83z" />
    <glyph glyph-name="s.subs" horiz-adv-x="257" 
d="M133 -136q-57 0 -88.5 29t-31.5 78v1h76v-1q0 -53 44 -53q38 0 38 32q0 16 -8 24.5t-30 17.5l-45 18q-36 13 -53 32t-17 53q0 45 30 66.5t80 21.5q46 0 78 -23.5t32 -72.5v-2h-74v2q0 43 -40 43q-32 -2 -32 -28q0 -15 5.5 -22.5t20.5 -12.5l41 -17q22 -9 29.5 -12.5
t22.5 -12t20 -16.5t10 -21t5 -30q0 -47 -31.5 -70.5t-81.5 -23.5z" />
    <glyph glyph-name="t.subs" horiz-adv-x="174" 
d="M169 -128h-59q-43 0 -59 18t-16 63v170h-36v51h36v82h83v-82h51v-51h-51v-162q0 -24 5.5 -31t23.5 -7h22v-51z" />
    <glyph glyph-name="u.subs" horiz-adv-x="276" 
d="M103 -135q-44 0 -61.5 25.5t-17.5 84.5v199h82v-178q0 -25 1 -38.5t7.5 -24.5t19.5 -11q22 0 28.5 22.5t6.5 66.5v163h82v-302h-80v40q-20 -47 -68 -47z" />
    <glyph glyph-name="v.subs" horiz-adv-x="243" 
d="M72 -128l-71 302h81l40 -221l44 221h77l-76 -302h-95z" />
    <glyph glyph-name="w.subs" horiz-adv-x="338" 
d="M51 -128l-39 302h67l21 -219l35 219h67l37 -219l20 219h68l-39 -302h-83l-36 231l-35 -231h-83z" />
    <glyph glyph-name="x.subs" horiz-adv-x="247" 
d="M171 -128l-50 90l-52 -90h-72l89 153l-82 149h79l43 -79l46 79h72l-83 -142l89 -160h-79z" />
    <glyph glyph-name="y.subs" horiz-adv-x="240" 
d="M23 -227v52h22q20 0 28 7.5t11 26.5l2 14l-85 301h81l45 -221l38 221h75l-72 -302q-14 -59 -35.5 -79t-73.5 -20h-36z" />
    <glyph glyph-name="z.subs" horiz-adv-x="249" 
d="M18 -128v51l122 200h-108v51h194v-51l-123 -200h127v-51h-212z" />
    <glyph glyph-name="uni2080.zero" horiz-adv-x="309" 
d="M154 -137q-75 0 -103 43t-28 141v56q0 98 28 140.5t103 42.5q73 0 102 -43t29 -140v-56q0 -97 -29 -140.5t-102 -43.5zM154 -83q31 0 39 31.5t8 108.5v8l-96 -33q0 -61 9.5 -88t39.5 -27zM105 93v-4l96 33q-1 59 -10 85t-37 26q-17 0 -27.5 -8.5t-15 -29.5t-5.5 -42
t-1 -60z" />
    <glyph glyph-name="period.subs" horiz-adv-x="138" 
d="M26 -128v89h91v-89h-91z" />
    <glyph glyph-name="hyphen.subs" horiz-adv-x="236" 
d="M25 -15v64h187v-64h-187z" />
    <glyph glyph-name="comma.subs" horiz-adv-x="171" 
d="M34 -222l41 94h-36v90h93v-97l-42 -87h-56z" />
    <glyph glyph-name="uni207C.003" horiz-adv-x="297" 
d="M25 -73v70h243v-70h-243zM25 42v71h243v-71h-243z" />
    <glyph glyph-name="uni207A.004" horiz-adv-x="329" 
d="M129 -128v114h-110v70h110v115h72v-115h109v-70h-109v-114h-72z" />
    <glyph glyph-name="uni207B.005" horiz-adv-x="323" 
d="M19 -19v71h289v-71h-289z" />
    <glyph glyph-name="one.frac" horiz-adv-x="184" 
d="M70 317v306h-69v51q50 2 62 9t21 42h64v-408h-78z" />
    <glyph glyph-name="two.frac" horiz-adv-x="288" 
d="M24 317v60l45 57q65 81 90 121.5t25 73.5q0 50 -40 50q-38 0 -38 -74v-5h-80v4q0 128 124 128q117 0 117 -98q0 -44 -25.5 -89t-83.5 -117l-38 -48h148v-63h-244z" />
    <glyph glyph-name="three.frac" horiz-adv-x="295" 
d="M138 310q-119 0 -119 119v2h77v-2q0 -34 9.5 -49.5t33.5 -15.5q50 0 50 68q0 34 -12.5 51.5t-48.5 17.5h-24v56h23q28 0 38.5 15.5t10.5 46.5q0 30 -9 45t-33 15q-20 0 -28 -12.5t-8 -47.5v-2h-77v2q0 114 118 114q120 0 120 -106q0 -74 -59 -92q73 -20 73 -102
q0 -66 -34 -94.5t-101 -28.5z" />
    <glyph glyph-name="four.frac" horiz-adv-x="300" 
d="M162 317v99h-150v57l147 252h78v-246h49v-63h-49v-99h-75zM73 479h89v146z" />
    <glyph glyph-name="five.frac" horiz-adv-x="285" 
d="M140 309q-55 0 -88 28.5t-33 90.5v2h78v-2q0 -65 43 -65q42 0 42 75v26q0 75 -43 75q-30 0 -41 -40l-72 3l19 223h211v-62h-148l-10 -112q7 18 26 30.5t44 12.5q98 0 98 -127v-30q0 -128 -126 -128z" />
    <glyph glyph-name="six.frac" horiz-adv-x="297" 
d="M156 310q-73 0 -101.5 42.5t-28.5 138.5v57q0 97 28.5 141t101.5 44q114 0 114 -108v-5h-77v3q0 56 -38 56q-28 0 -36 -26t-8 -90v-20q17 44 69 44q99 0 99 -129v-20q0 -128 -123 -128zM151 364q44 0 44 75v17q0 74 -44 74q-42 0 -42 -74v-18q0 -74 42 -74z" />
    <glyph glyph-name="seven.frac" horiz-adv-x="228" 
d="M123 317h-85q5 224 124 346h-160v62h227v-62q-62 -65 -84 -146.5t-22 -199.5z" />
    <glyph glyph-name="eight.frac" horiz-adv-x="303" 
d="M152 310q-67 0 -99.5 28.5t-32.5 94.5q0 78 64 103q-21 8 -38.5 30t-17.5 60q0 107 124 107q123 0 123 -107q0 -37 -17 -59.5t-38 -30.5q64 -25 64 -103q0 -66 -32.5 -94.5t-99.5 -28.5zM152 364q29 0 39 17t10 50v6q0 33 -10 50t-39 17t-39.5 -17t-10.5 -50v-6
q0 -33 10.5 -50t39.5 -17zM152 558q24 0 31.5 13.5t7.5 44.5v4q0 31 -7.5 45t-31.5 14t-31.5 -14t-7.5 -45v-4q0 -31 7.5 -44.5t31.5 -13.5z" />
    <glyph glyph-name="nine.frac" horiz-adv-x="300" 
d="M143 310q-58 0 -85.5 29t-27.5 79v5h78v-3q0 -56 36 -56q29 0 37 26t8 91v20q-6 -19 -24.5 -31.5t-44.5 -12.5q-99 0 -99 127v21q0 128 122 128q73 0 101.5 -42.5t28.5 -138.5v-56q0 -98 -28 -142t-102 -44zM149 513q42 0 42 73v19q0 74 -42 74q-43 0 -43 -75v-17
q0 -74 43 -74z" />
    <glyph glyph-name="zero.frac" horiz-adv-x="309" 
d="M154 364q31 0 39 31.5t8 108.5v35q0 39 -1 60t-5.5 42t-14.5 29.5t-26 8.5q-17 0 -27.5 -8.5t-15 -29.5t-5.5 -42t-1 -60v-35q0 -39 1 -60t5.5 -42t15 -29.5t27.5 -8.5zM154 310q-75 0 -103 43t-28 140v57q0 97 28 140t103 43q73 0 102 -43.5t29 -139.5v-57
q0 -96 -29 -139.5t-102 -43.5z" />
    <glyph glyph-name="zero.frac_zero" horiz-adv-x="309" 
d="M154 309q-75 0 -103 43t-28 140v56q0 98 28 141t103 43q73 0 102 -43.5t29 -140.5v-56q0 -96 -29 -139.5t-102 -43.5zM154 362q31 0 39 31.5t8 109.5v7l-96 -33q1 -62 10 -88.5t39 -26.5zM105 538v-4l96 33q-1 60 -10 85.5t-37 25.5q-17 0 -27.5 -8.5t-15 -29.5t-5.5 -42
t-1 -60z" />
    <glyph glyph-name="one.dnom" horiz-adv-x="203" 
d="M89 0v305h-69v52q48 0 60.5 8t22.5 43h64v-408h-78z" />
    <glyph glyph-name="two.dnom" horiz-adv-x="288" 
d="M24 0v59l45 57q64 80 89.5 121t25.5 75q0 49 -40 49q-38 0 -38 -73v-5h-80v4q0 128 124 128q117 0 117 -98q0 -44 -25.5 -89t-83.5 -117l-38 -49h148v-62h-244z" />
    <glyph glyph-name="three.dnom" horiz-adv-x="295" 
d="M138 -8q-119 0 -119 118v2h77v-2q0 -65 43 -65q50 0 50 69q0 34 -12.5 51.5t-48.5 17.5h-24v55h23q49 0 49 62q0 31 -8.5 46t-33.5 15q-20 0 -28 -12.5t-8 -47.5v-2h-77v2q0 114 118 114q120 0 120 -106q0 -74 -59 -92q73 -23 73 -102q0 -66 -34 -94.5t-101 -28.5z" />
    <glyph glyph-name="four.dnom" horiz-adv-x="300" 
d="M162 0v99h-150v57l147 252h78v-246h49v-63h-49v-99h-75zM73 162h89v146z" />
    <glyph glyph-name="five.dnom" horiz-adv-x="285" 
d="M140 -8q-55 0 -88 28.5t-33 89.5v2h78v-2q0 -65 43 -65q42 0 42 75v27q0 75 -43 75q-30 0 -41 -40l-72 3l19 223h211v-63h-148l-10 -111q7 18 26 30.5t44 12.5q51 0 74.5 -31t23.5 -97v-30q0 -127 -126 -127z" />
    <glyph glyph-name="six.dnom" horiz-adv-x="297" 
d="M156 -8q-73 0 -101.5 42.5t-28.5 138.5v56q0 98 28.5 142t101.5 44q114 0 114 -108v-5h-77v3q0 56 -38 56q-28 0 -36 -26.5t-8 -90.5v-20q16 45 69 45q99 0 99 -129v-20q0 -65 -30 -96.5t-93 -31.5zM151 45q44 0 44 75v18q0 74 -44 74q-42 0 -42 -74v-18q0 -75 42 -75z
" />
    <glyph glyph-name="seven.dnom" horiz-adv-x="228" 
d="M123 0h-85q5 226 124 345h-160v63h227v-63q-61 -66 -83.5 -147t-22.5 -198z" />
    <glyph glyph-name="eight.dnom" horiz-adv-x="303" 
d="M152 -8q-67 0 -99.5 28.5t-32.5 94.5q0 77 64 102q-21 8 -38.5 31t-17.5 60q0 107 124 107q123 0 123 -107q0 -37 -17.5 -60t-37.5 -31q64 -25 64 -102q0 -66 -32.5 -94.5t-99.5 -28.5zM152 45q28 0 38.5 17.5t10.5 50.5v5q0 33 -10 50t-39 17t-39.5 -17t-10.5 -50v-5
q0 -68 50 -68zM152 239q24 0 31.5 14t7.5 45v4q0 31 -7.5 45t-31.5 14t-31.5 -14t-7.5 -45v-4q0 -31 7.5 -45t31.5 -14z" />
    <glyph glyph-name="nine.dnom" horiz-adv-x="300" 
d="M143 -8q-58 0 -85.5 29t-27.5 79v5h78v-3q0 -57 36 -57q29 0 37 26.5t8 91.5v20q-6 -19 -24.5 -31.5t-44.5 -12.5q-99 0 -99 127v21q0 128 122 128q73 0 101.5 -42.5t28.5 -138.5v-57q0 -98 -28 -141.5t-102 -43.5zM149 195q42 0 42 73v19q0 74 -42 74q-43 0 -43 -75v-17
q0 -74 43 -74z" />
    <glyph glyph-name="zero.dnom" horiz-adv-x="311" 
d="M155 45q12 0 20 3.5t13 13.5t8 18.5t4.5 27.5t1.5 32v41v5v35v5v40.5t-1.5 32t-4.5 28t-8 18t-13 13t-20 3.5q-17 0 -27 -8.5t-14.5 -29.5t-5.5 -42t-1 -60v-35q0 -40 1 -61t5.5 -42t14.5 -29.5t27 -8.5zM155 -8q-74 0 -102.5 43t-28.5 140v57q0 97 28 140t103 43
q73 0 102 -43.5t29 -139.5v-57q0 -96 -29 -139.5t-102 -43.5z" />
    <glyph glyph-name="zero.dnom_zero" horiz-adv-x="309" 
d="M153 -9q-73 0 -101.5 43.5t-28.5 140.5v56q0 97 28.5 140t101.5 43t102 -43t29 -140v-56q0 -97 -29 -140.5t-102 -43.5zM153 45q12 0 20 3.5t13 13t8 18t4.5 28t1.5 32v40.5v5v8l-95 -33q0 -61 9 -88t39 -27zM105 221v-4l95 33q-1 60 -9.5 85.5t-37.5 25.5q-32 0 -40 -31
t-8 -109z" />
    <glyph glyph-name="ampersand.case" horiz-adv-x="637" 
d="M240 -13q-99 0 -160.5 55t-61.5 149q0 68 33.5 110.5t105.5 91.5l19 13l-3 5q-41 57 -57 92t-16 83q0 69 51.5 110.5t129.5 41.5q76 0 125 -37.5t49 -114.5q0 -60 -31 -102t-93 -85l-7 -5l116 -151q28 66 28 157h106q-4 -143 -66 -246l119 -154h-138l-50 64
q-77 -77 -199 -77zM255 84q85 0 125 58l-146 189l-15 -10q-41 -30 -56.5 -57t-15.5 -70q0 -49 28.5 -79.5t79.5 -30.5zM213 586q0 -30 10.5 -51t39.5 -60l4 -6l11 7q71 50 71 105q0 33 -18.5 51t-49.5 18q-29 0 -48.5 -17t-19.5 -47z" />
    <glyph glyph-name="hyphen.006" horiz-adv-x="347" 
d="M46 297v112h255v-112h-255z" />
    <glyph glyph-name="endash.007" horiz-adv-x="498" 
d="M29 297v112h440v-112h-440z" />
    <glyph glyph-name="emdash.008" horiz-adv-x="726" 
d="M29 297v112h668v-112h-668z" />
    <glyph glyph-name="question.case" horiz-adv-x="508" 
d="M162 210v45q0 47 15 80t34.5 50t61.5 44q43 27 56.5 52t13.5 71q0 95 -82 95q-54 0 -77 -31t-23 -100v-11h-138v11q0 111 63.5 166.5t176.5 55.5q95 0 157.5 -44.5t62.5 -135.5q0 -119 -98 -179q-53 -35 -64 -49q-20 -24 -20 -77v-43h-139zM159 0v141h141v-141h-141z" />
    <glyph glyph-name="questiondown.case" horiz-adv-x="508" 
d="M230 -13q-95 0 -158 44.5t-63 135.5q0 118 98 179q39 24 52 34.5t22.5 32.5t9.5 59v43h140v-45q0 -68 -25.5 -102.5t-85.5 -71.5q-43 -27 -56.5 -52.5t-13.5 -71.5q0 -95 81 -95q54 0 77.5 31.5t23.5 100.5v10h138v-10q0 -111 -64 -166.5t-176 -55.5zM193 584v141h141
v-141h-141z" />
    <glyph glyph-name="exclam.case" horiz-adv-x="265" 
d="M88 206l-29 327v192h147v-192l-29 -327h-89zM62 0v141h141v-141h-141z" />
    <glyph glyph-name="exclamdown.case" horiz-adv-x="265" 
d="M59 192l29 327h89l29 -327v-192h-147v192zM62 584v141h141v-141h-141z" />
    <glyph glyph-name="guilsinglleft.009" horiz-adv-x="194" 
d="M169 151l-144 149v152l144 147v-148l-77 -76l77 -77v-147z" />
    <glyph glyph-name="guilsinglright.010" horiz-adv-x="194" 
d="M25 151v147l77 77l-77 76v148l144 -147v-152z" />
    <glyph glyph-name="guilsinglleft_guilsinglleft" horiz-adv-x="366" 
d="M169 151l-144 149v152l144 147v-148l-77 -76l77 -77v-147zM341 151l-144 149v152l144 147v-148l-77 -76l77 -77v-147z" />
    <glyph glyph-name="guilsinglright_guilsinglright" horiz-adv-x="366" 
d="M25 151v147l77 77l-77 76v148l144 -147v-152zM197 151v147l77 77l-77 76v148l144 -147v-152z" />
    <glyph glyph-name="parenleft.case" horiz-adv-x="256" 
d="M260 0h-116q-115 173 -115 363t115 362h116q-108 -174 -108 -362q0 -189 108 -363z" />
    <glyph glyph-name="parenright.case" horiz-adv-x="255" 
d="M111 0h-116q108 174 108 363q0 190 -108 362h116q116 -176 116 -362q0 -190 -116 -363z" />
    <glyph glyph-name="bracketleft.case" horiz-adv-x="279" 
d="M61 0v725h213v-86h-108v-551h108v-88h-213z" />
    <glyph glyph-name="bracketright.case" horiz-adv-x="279" 
d="M5 0v88h107v551h-107v86h213v-725h-213z" />
    <glyph glyph-name="braceleft.case" horiz-adv-x="299" 
d="M289 0h-28q-99 0 -140 34t-41 128v47q0 54 -15 80.5t-60 26.5v95q45 0 60 26.5t15 79.5v46q0 94 41 128t140 34h28v-94h-14q-51 0 -67 -15.5t-16 -59.5v-55q0 -65 -22.5 -94.5t-66.5 -41.5v-2q43 -12 66 -42.5t23 -94.5v-57q0 -44 16 -59.5t67 -15.5h14v-94z" />
    <glyph glyph-name="braceright.case" horiz-adv-x="299" 
d="M37 0h-27v94h14q51 0 67 15.5t16 59.5v57q0 64 23 95t66 42v2q-43 11 -66 41.5t-23 94.5v55q0 44 -16 59.5t-67 15.5h-14v94h27q100 0 140.5 -34t40.5 -128v-46q0 -53 15 -79.5t61 -26.5v-95q-46 0 -61 -26.5t-15 -80.5v-47q0 -94 -40.5 -128t-140.5 -34z" />
    <glyph glyph-name="bar.case" horiz-adv-x="240" 
d="M61 0v725h118v-725h-118z" />
    <glyph glyph-name="brokenbar.case" horiz-adv-x="219" 
d="M50 0v260h119v-260h-119zM50 465v260h119v-260h-119z" />
    <glyph glyph-name="period.011" horiz-adv-x="237" 
d="M48 292v141h141v-141h-141z" />
    <glyph glyph-name="bullet.012" horiz-adv-x="452" 
d="M222 187q-73 0 -124.5 53t-51.5 130q0 73 52 125t124 52q78 0 131 -51.5t53 -125.5q0 -78 -52.5 -130.5t-131.5 -52.5z" />
    <glyph glyph-name="plus.013" 
d="M223 95v219h-203v100h203v219h103v-219h202v-100h-202v-219h-103z" />
    <glyph glyph-name="minus.014" 
d="M20 297v112h508v-112h-508z" />
    <glyph glyph-name="divide.015" 
d="M205 115v139h137v-139h-137zM41 312v100h466v-100h-466zM205 470v138h137v-138h-137z" />
    <glyph glyph-name="multiply.016" 
d="M117 127l-69 72l157 161l-158 163l70 72l158 -163l156 161l71 -71l-158 -162l158 -162l-71 -71l-157 161z" />
    <glyph glyph-name="equal.017" 
d="M61 205v99h427v-99h-427zM61 423v100h427v-100h-427z" />
    <glyph glyph-name="plusminus.018" 
d="M223 243v141h-186v100h186v140h103v-140h186v-100h-186v-141h-103zM37 95v99h475v-99h-475z" />
    <glyph glyph-name="less.019" 
d="M480 91l-411 217v110l411 217v-113l-297 -159l297 -159v-113z" />
    <glyph glyph-name="greater.020" 
d="M480 308l-411 -217v113l297 159l-297 159v113l411 -217v-110z" />
    <glyph glyph-name="lessequal.021" 
d="M504 645v-105l-305 -105l305 -105v-105l-459 156v108zM45 95v99h459v-99h-459z" />
    <glyph glyph-name="greaterequal.022" 
d="M45 540v105l459 -156v-108l-459 -156v105l305 105zM504 194v-99h-459v99h459z" />
    <glyph glyph-name="notequal.023" 
d="M61 423v100h226l49 110h117l-49 -110h84v-100h-128l-53 -119h181v-99h-225l-48 -110h-116l48 110h-86v99h130l52 119h-182z" />
    <glyph glyph-name="acute.case" horiz-adv-x="267" 
d="M23 773l60 113h161l-128 -113h-93z" />
    <glyph glyph-name="breve.case" horiz-adv-x="360" 
d="M180 771q-72 0 -108 27.5t-40 87.5h89q4 -50 59 -50t59 50h89q-5 -60 -41 -87.5t-107 -27.5z" />
    <glyph glyph-name="caron.case" horiz-adv-x="397" 
d="M268 773h-121l-116 113h107l69 -56l69 56h107z" />
    <glyph glyph-name="cedilla.case" horiz-adv-x="257" 
d="M112 -188q-53 0 -89 14l15 47q30 -14 61 -14q54 0 54 32q0 31 -41 31q-24 0 -40 -10l-27 17l50 81h53l-33 -52q15 4 36 4q35 -1 59 -18.5t24 -49.5q0 -40 -36 -61t-86 -21z" />
    <glyph glyph-name="circumflex.case" horiz-adv-x="397" 
d="M23 773l116 113h120l115 -113h-106l-69 56l-70 -56h-106z" />
    <glyph glyph-name="dieresis.case" horiz-adv-x="364" 
d="M23 777v109h114v-109h-114zM222 777v109h114v-109h-114z" />
    <glyph glyph-name="dotaccent.case" horiz-adv-x="180" 
d="M23 777v109h135v-109h-135z" />
    <glyph glyph-name="grave.case" horiz-adv-x="267" 
d="M152 773l-129 113h161l60 -113h-92z" />
    <glyph glyph-name="hungarumlaut.case" horiz-adv-x="449" 
d="M23 784l60 113h161l-128 -113h-93zM205 784l60 113h161l-128 -113h-93z" />
    <glyph glyph-name="overscore.case" horiz-adv-x="292" 
d="M23 786v89h247v-89h-247z" />
    <glyph glyph-name="ogonek.case" horiz-adv-x="249" 
d="M151 -188q-54 0 -86 21.5t-32 66.5q0 30 21 57.5t54 42.5h117q-89 -42 -89 -81q0 -34 46 -34q23 0 41 6v-72q-40 -7 -72 -7z" />
    <glyph glyph-name="ring.case" horiz-adv-x="224" 
d="M112 806q19 0 32.5 12t13.5 32t-13.5 33t-32.5 13q-18 0 -31.5 -13t-13.5 -33t13 -32t32 -12zM112 766q-38 0 -63.5 24t-25.5 60t26 60t63 24t63 -24t26 -60t-25.5 -60t-63.5 -24z" />
    <glyph glyph-name="tilde.case" horiz-adv-x="392" 
d="M106 773h-77q10 113 99 113q27 0 67 -20t51 -20q21 0 24 40h77q-5 -62 -33.5 -87.5t-64.5 -25.5q-23 0 -63 19t-53 19q-24 0 -27 -38z" />
    <glyph glyph-name="a.salt" horiz-adv-x="506" 
d="M196 -13q-85 0 -124.5 60t-39.5 185v74q0 125 39.5 185t124.5 60q46 0 81 -24t50 -62v73h129v-538h-129v73q-15 -38 -50 -62t-81 -24zM238 76q51 0 72 47t21 146t-21 146t-72 47q-45 0 -59.5 -41.5t-14.5 -138.5v-27q0 -95 14.5 -137t59.5 -42z" />
    <glyph glyph-name="aacute.salt" horiz-adv-x="506" 
d="M187 604l63 121h149l-125 -121h-87zM196 -13q-85 0 -124.5 60t-39.5 185v74q0 125 39.5 185t124.5 60q46 0 81 -24t50 -62v73h129v-538h-129v73q-15 -38 -50 -62t-81 -24zM238 76q51 0 72 47t21 146t-21 146t-72 47q-45 0 -59.5 -41.5t-14.5 -138.5v-27q0 -95 14.5 -137
t59.5 -42z" />
    <glyph glyph-name="abreve.salt" horiz-adv-x="506" 
d="M196 -13q-85 0 -124.5 60t-39.5 185v74q0 125 39.5 185t124.5 60q46 0 81 -24t50 -62v73h129v-538h-129v73q-15 -38 -50 -62t-81 -24zM238 76q51 0 72 47t21 146t-21 146t-72 47q-45 0 -59.5 -41.5t-14.5 -138.5v-27q0 -95 14.5 -137t59.5 -42zM248 603q-72 0 -104 30.5
t-36 91.5h88q3 -55 52 -55t52 55h89q-7 -62 -37 -92t-104 -30z" />
    <glyph glyph-name="acircumflex.salt" horiz-adv-x="506" 
d="M75 604l116 121h111l117 -121h-107l-65 58l-65 -58h-107zM196 -13q-85 0 -124.5 60t-39.5 185v74q0 125 39.5 185t124.5 60q46 0 81 -24t50 -62v73h129v-538h-129v73q-15 -38 -50 -62t-81 -24zM238 76q51 0 72 47t21 146t-21 146t-72 47q-45 0 -59.5 -41.5t-14.5 -138.5
v-27q0 -95 14.5 -137t59.5 -42z" />
    <glyph glyph-name="adieresis.salt" horiz-adv-x="506" 
d="M112 608v117h114v-117h-114zM311 608v117h114v-117h-114zM196 -13q-85 0 -124.5 60t-39.5 185v74q0 125 39.5 185t124.5 60q46 0 81 -24t50 -62v73h129v-538h-129v73q-15 -38 -50 -62t-81 -24zM238 76q51 0 72 47t21 146t-21 146t-72 47q-45 0 -59.5 -41.5t-14.5 -138.5
v-27q0 -95 14.5 -137t59.5 -42z" />
    <glyph glyph-name="agrave.salt" horiz-adv-x="506" 
d="M196 -13q-85 0 -124.5 60t-39.5 185v74q0 125 39.5 185t124.5 60q46 0 81 -24t50 -62v73h129v-538h-129v73q-15 -38 -50 -62t-81 -24zM238 76q51 0 72 47t21 146t-21 146t-72 47q-45 0 -59.5 -41.5t-14.5 -138.5v-27q0 -95 14.5 -137t59.5 -42zM211 604l-124 121h149
l63 -121h-88z" />
    <glyph glyph-name="amacron.salt" horiz-adv-x="506" 
d="M137 620v87h244v-87h-244zM196 -13q-85 0 -124.5 60t-39.5 185v74q0 125 39.5 185t124.5 60q46 0 81 -24t50 -62v73h129v-538h-129v73q-15 -38 -50 -62t-81 -24zM238 76q51 0 72 47t21 146t-21 146t-72 47q-45 0 -59.5 -41.5t-14.5 -138.5v-27q0 -95 14.5 -137t59.5 -42z
" />
    <glyph glyph-name="aogonek.salt" horiz-adv-x="506" 
d="M196 -13q-85 0 -124.5 60t-39.5 185v74q0 125 39.5 185t124.5 60q46 0 81 -24t50 -62v73h129v-538q-88 -41 -88 -81q0 -34 47 -34q23 0 41 6v-72q-40 -7 -72 -7q-55 0 -91.5 22t-36.5 66q0 30 19.5 57.5t51.5 42.5v73q-15 -38 -50 -62t-81 -24zM238 76q51 0 72 47t21 146
t-21 146t-72 47q-45 0 -59.5 -41.5t-14.5 -138.5v-27q0 -95 14.5 -137t59.5 -42z" />
    <glyph glyph-name="aring.salt" horiz-adv-x="506" 
d="M251 653q18 0 31 12.5t13 30.5q0 20 -12.5 32t-31.5 12t-31.5 -12t-12.5 -32q0 -18 13 -30.5t31 -12.5zM251 609q-39 0 -66 24.5t-27 62.5t27 63t66 25t66 -25t27 -63t-27 -62.5t-66 -24.5zM196 -13q-85 0 -124.5 60t-39.5 185v74q0 125 39.5 185t124.5 60q46 0 81 -24
t50 -62v73h129v-538h-129v73q-15 -38 -50 -62t-81 -24zM238 76q51 0 72 47t21 146t-21 146t-72 47q-45 0 -59.5 -41.5t-14.5 -138.5v-27q0 -95 14.5 -137t59.5 -42z" />
    <glyph glyph-name="atilde.salt" horiz-adv-x="506" 
d="M196 -13q-85 0 -124.5 60t-39.5 185v74q0 125 39.5 185t124.5 60q46 0 81 -24t50 -62v73h129v-538h-129v73q-15 -38 -50 -62t-81 -24zM238 76q51 0 72 47t21 146t-21 146t-72 47q-45 0 -59.5 -41.5t-14.5 -138.5v-27q0 -95 14.5 -137t59.5 -42zM187 608h-77q8 61 35.5 89
t64.5 28q25 0 60 -19t44 -19q25 0 33 38h76q-5 -59 -35.5 -88t-63.5 -29q-19 0 -57 18l-25 13q-12 6 -23 6q-23 0 -32 -37z" />
    <glyph glyph-name="l.ss02" horiz-adv-x="282" 
d="M269 0h-68q-90 0 -120.5 28t-30.5 114v583h129v-563q0 -43 14.5 -57t54.5 -14h21v-91z" />
    <glyph glyph-name="lacute.ss02" horiz-adv-x="282" 
d="M269 0h-68q-90 0 -120.5 28t-30.5 114v583h129v-563q0 -43 14.5 -57t54.5 -14h21v-91zM68 773l60 113h161l-128 -113h-93z" />
    <glyph glyph-name="lcaron.ss02" horiz-adv-x="348" 
d="M210 555l26 170h122l-62 -170h-86zM269 0h-68q-90 0 -120.5 28t-30.5 114v583h129v-563q0 -43 14.5 -57t54.5 -14h21v-91z" />
    <glyph glyph-name="uni013C.ss02" horiz-adv-x="282" 
d="M74 -237l38 93h-35v94h107v-100l-43 -87h-67zM269 0h-68q-90 0 -120.5 28t-30.5 114v583h129v-563q0 -43 14.5 -57t54.5 -14h21v-91z" />
    <glyph glyph-name="ldot.ss02" horiz-adv-x="343" 
d="M229 355v117h114v-117h-114zM269 0h-68q-90 0 -120.5 28t-30.5 114v583h129v-563q0 -43 14.5 -57t54.5 -14h21v-91z" />
    <glyph glyph-name="lslash.ss02" horiz-adv-x="297" 
d="M0 260v107l65 38v320h129v-244l77 45v-107l-77 -45v-212q0 -43 14.5 -57t54.5 -14h21v-91h-68q-90 0 -120.5 28t-30.5 114v156z" />
    <glyph glyph-name="fl.ss02" horiz-adv-x="573" 
d="M68 0v456h-67v82h67v49q0 83 36.5 110.5t125.5 27.5h60v-79h-34q-36 0 -47.5 -11.5t-11.5 -47.5v-49h93v-82h-93v-456h-129zM560 0h-68q-90 0 -120.5 28t-30.5 114v583h129v-563q0 -43 14.5 -57t54.5 -14h21v-91z" />
    <glyph glyph-name="germandbls.ss03" horiz-adv-x="525" 
d="M50 -175v701q0 117 55 164.5t159 47.5q93 0 148.5 -42t55.5 -131q0 -61 -28 -102.5t-68 -54.5q120 -30 120 -189q0 -119 -49.5 -169t-164.5 -50h-48v82h35q52 0 75.5 34.5t23.5 102.5q0 70 -25.5 104t-81.5 34h-29v84h24q46 0 67.5 25.5t21.5 83.5q0 103 -81 103
q-43 0 -62 -28t-19 -93v-707h-129z" />
    </font>
</defs>
</svg>
