<?xml version="1.0" standalone="no"?>
<!DOCTYPE svg PUBLIC "-//W3C//DTD SVG 1.1//EN" "http://www.w3.org/Graphics/SVG/1.1/DTD/svg11.dtd" >
<svg xmlns="http://www.w3.org/2000/svg" xmlns:xlink="http://www.w3.org/1999/xlink" version="1.1">
<metadata>
Created by FontForge 20170731 at Sun Jul 24 18:25:56 2016
 By Aleksey,,,
Copyright (c) 2015 Swiss Typefaces. All rights reserved.
</metadata>
<defs>
<font id="SuisseIntlCondensed-BoldItalic" horiz-adv-x="548" >
  <font-face 
    font-family="Suisse Int'l Condensed"
    font-weight="700"
    font-style="italic"
    font-stretch="condensed"
    units-per-em="1000"
    panose-1="2 11 8 6 0 0 0 0 0 0"
    ascent="800"
    descent="-200"
    x-height="538"
    cap-height="725"
    bbox="-121 -243 1063 936"
    underline-thickness="100"
    underline-position="-310"
    slope="-12"
    unicode-range="U+0020-FB02"
  />
<missing-glyph horiz-adv-x="500" 
d="M0 0v725h500v-725h-500zM239 362l-220 334v-667zM260 362l221 -333v667zM250 346l-217 -327h433zM33 706l217 -328l216 328h-433z" />
    <glyph glyph-name=".notdef" horiz-adv-x="500" 
d="M0 0v725h500v-725h-500zM239 362l-220 334v-667zM260 362l221 -333v667zM250 346l-217 -327h433zM33 706l217 -328l216 328h-433z" />
    <glyph glyph-name=".null" horiz-adv-x="0" 
 />
    <glyph glyph-name="nonmarkingreturn" horiz-adv-x="333" 
 />
    <glyph glyph-name="space" unicode=" " horiz-adv-x="180" 
 />
    <glyph glyph-name="exclam" unicode="!" horiz-adv-x="238" 
d="M54 218l43 313l41 194h156l-41 -194l-90 -313h-109zM-19 0l33 155h162l-33 -155h-162z" />
    <glyph glyph-name="quotedbl" unicode="&#x22;" horiz-adv-x="434" 
d="M220 471h-92l-33 254h158zM420 471h-92l-33 254h158z" />
    <glyph glyph-name="numbersign" unicode="#" horiz-adv-x="569" 
d="M309 0l26 187h-112l-26 -187h-113l26 187h-83l13 107h84l21 150h-81l12 108h84l24 173h113l-24 -173h112l24 173h113l-24 -173h86l-13 -108h-88l-21 -150h85l-12 -107h-87l-26 -187h-113zM258 444l-21 -150h112l21 150h-112z" />
    <glyph glyph-name="dollar" unicode="$" horiz-adv-x="525" 
d="M166 -95l18 83q-178 12 -178 162q0 36 9 76l1 5h158l-1 -5q-9 -40 -9 -67q0 -35 16 -50.5t52 -15.5q47 0 74 30.5t27 84.5q0 58 -64 89l-57 27q-67 34 -99 72.5t-32 95.5q0 115 70.5 178.5t188.5 67.5l15 69h55l-15 -71q154 -15 154 -146q0 -27 -8 -67l-1 -5h-155l1 5
q6 29 6 48q0 34 -16.5 48.5t-49.5 14.5q-40 0 -63.5 -30.5t-22.5 -77.5q0 -45 40 -64l64 -31q75 -35 114.5 -74.5t39.5 -102.5q0 -122 -65.5 -190.5t-193.5 -75.5l-18 -83h-55z" />
    <glyph glyph-name="percent" unicode="%" horiz-adv-x="777" 
d="M195 0l362 725h65l-362 -725h-65zM147 404q0 -35 28 -35q25 0 35.5 23.5t24.5 85.5q3 15 5 23l8 38q16 76 16 98q0 34 -26 34q-10 0 -17.5 -3.5t-14 -12.5t-10.5 -17.5t-9 -27.5t-8 -31.5t-8 -39.5l-8 -38q-16 -86 -16 -97zM344 549l-12 -58q-20 -97 -56.5 -139.5
t-109.5 -42.5q-58 0 -83 23.5t-25 75.5q0 39 10 83l12 58q22 99 56.5 140.5t110.5 41.5q56 0 81.5 -24t25.5 -76q0 -38 -10 -82zM553 87q0 -35 28 -35q25 0 35.5 23.5t24.5 85.5l1.5 7.5t1.5 7t2 8.5l8 38q16 76 16 98q0 34 -26 34q-10 0 -17.5 -3.5t-14 -12.5t-10.5 -17.5
t-9 -27.5t-8 -31.5t-8 -39.5l-8 -38q-16 -86 -16 -97zM750 232l-12 -58q-20 -97 -56.5 -139.5t-109.5 -42.5q-58 0 -83 23.5t-25 75.5q0 39 10 83l12 58q22 99 56.5 140.5t110.5 41.5q56 0 81.5 -24t25.5 -76q0 -38 -10 -82z" />
    <glyph glyph-name="ampersand" unicode="&#x26;" horiz-adv-x="649" 
d="M495 400h122q-33 -141 -120 -244l89 -156h-160l-31 54q-76 -67 -188 -67q-94 0 -154.5 40t-60.5 121q0 134 183 242l23 13l-6 11q-37 66 -37 111q0 88 56.5 150.5t151.5 62.5q67 0 119 -31t52 -94q0 -57 -38.5 -112.5t-117.5 -102.5l-14 -8l74 -130q43 70 57 140zM220 93
q73 0 124 51l-98 174l-14 -8q-50 -30 -70 -64t-20 -75q0 -35 20 -56.5t58 -21.5zM286 556q0 -26 24 -71l7 -12l17 10q42 25 59.5 48t18.5 62q1 22 -13 33.5t-38 11.5q-32 0 -54 -21t-21 -61z" />
    <glyph glyph-name="quotesingle" unicode="'" horiz-adv-x="234" 
d="M220 471h-92l-33 254h158z" />
    <glyph glyph-name="parenleft" unicode="(" horiz-adv-x="284" 
d="M200 -175h-124q-57 130 -57 291q0 181 73 343t174 266h124q-103 -119 -168.5 -287.5t-65.5 -348.5q0 -148 44 -264z" />
    <glyph glyph-name="parenright" unicode=")" horiz-adv-x="283" 
d="M21 -174h-124q102 130 168 292t66 344q0 151 -44 263h124q57 -120 57 -288q0 -99 -23.5 -195t-64 -174.5t-78.5 -135t-81 -106.5z" />
    <glyph glyph-name="asterisk" unicode="*" horiz-adv-x="399" 
d="M205 398l-79 53l62 85l-101 36l33 86l97 -37v104h92v-104l99 37l34 -86l-103 -35l62 -85l-72 -54l-65 87z" />
    <glyph glyph-name="plus" unicode="+" 
d="M216 0v211h-199v116h199v211h120v-211h197v-116h-197v-211h-120z" />
    <glyph glyph-name="comma" unicode="," horiz-adv-x="238" 
d="M-66 -164l118 164h-71l33 155h162l-35 -165l-115 -154h-92z" />
    <glyph glyph-name="hyphen" unicode="-" horiz-adv-x="348" 
d="M24 186l27 131h266l-27 -131h-266z" />
    <glyph glyph-name="period" unicode="." horiz-adv-x="238" 
d="M-19 0l33 155h162l-33 -155h-162z" />
    <glyph glyph-name="slash" unicode="/" horiz-adv-x="393" 
d="M-72 0l390 725h147l-391 -725h-146z" />
    <glyph glyph-name="zero" unicode="0" horiz-adv-x="549" 
d="M180 153q0 -67 55 -67q19 0 34.5 6.5t27.5 23.5t20.5 33t18 49.5t15 58t15.5 71.5l14 66q28 136 28 174q0 36 -13 53.5t-43 17.5q-19 0 -34.5 -6.5t-27.5 -22.5t-20.5 -32.5t-17 -48.5t-14.5 -57t-15 -70q0 -1 -0.5 -2.5t-0.5 -2.5l-14 -68q-28 -140 -28 -176zM540 414
l-22 -105q-38 -176 -98 -249t-191 -73q-105 0 -152 44.5t-47 140.5q0 62 16 136l23 106q18 87 38.5 144t53.5 99.5t81 61.5t116 19q105 0 152 -44.5t47 -141.5q0 -63 -17 -138z" />
    <glyph glyph-name="one" unicode="1" horiz-adv-x="331" 
d="M67 0l115 542h-113l20 94q84 2 110 15.5t55 73.5h121l-154 -725h-154z" />
    <glyph glyph-name="two" unicode="2" horiz-adv-x="513" 
d="M-17 0l23 109l102 101l47 47q230 230 230 332q0 50 -50 50q-36 0 -57.5 -30t-35.5 -99l-2 -11h-143l2 10q25 118 82 173.5t170 55.5q87 0 140 -39t53 -103q0 -30 -8.5 -60.5t-32 -67t-40 -60.5t-59.5 -69.5t-61 -64t-71 -71.5l-87 -87h263l-25 -116h-440z" />
    <glyph glyph-name="three" unicode="3" horiz-adv-x="520" 
d="M480 265q0 -53 -12.5 -99t-41.5 -88t-85 -66.5t-133 -24.5q-86 0 -142 36.5t-56 113.5q0 23 8 60l1 5h142l-1 -5q-8 -37 -8 -54q0 -57 57 -57q33 0 57 16.5t36 43.5t17.5 54.5t5.5 57.5q0 65 -83 65h-45l22 103h40q61 0 87 47.5t26 113.5q0 52 -53 52q-35 0 -52.5 -22
t-31.5 -83l-1 -5h-144l1 5q29 113 84 158.5t151 45.5q89 0 146.5 -34t57.5 -108q0 -77 -37.5 -132t-107.5 -78q44 -15 69.5 -46t25.5 -75z" />
    <glyph glyph-name="four" unicode="4" horiz-adv-x="529" 
d="M213 0l37 174h-250l23 108l346 443h151l-92 -434h87l-25 -117h-86l-37 -174h-154zM132 291h142l53 248z" />
    <glyph glyph-name="five" unicode="5" horiz-adv-x="507" 
d="M476 268l-11 -53q-23 -117 -86 -172.5t-177 -55.5q-87 0 -138 36.5t-51 115.5q0 25 6 57l2 11h142l-2 -10q-7 -35 -7 -52q0 -59 58 -59q38 0 59 31t36 96l11 50q7 34 7 64q0 65 -52 65q-50 0 -80 -69l-137 6l116 396h382l-25 -116h-263l-55 -189q47 76 130 76
q145 0 145 -143q0 -41 -10 -85z" />
    <glyph glyph-name="six" unicode="6" horiz-adv-x="528" 
d="M492 251l-7 -36q-22 -117 -82 -172.5t-171 -55.5q-104 0 -151 44t-47 140q0 61 18 140l22 103q19 88 40 144t54 99t80.5 62t116.5 19q88 0 133.5 -36.5t45.5 -99.5q0 -30 -6 -56l-2 -8h-144l1 5q5 32 5 46q0 27 -11 38.5t-35 11.5q-48 0 -69.5 -43t-47.5 -158l-8 -36
q20 33 56 55t81 22q139 0 139 -138q0 -35 -11 -90zM176 149q0 -63 52 -63q75 0 100 125l7 35q7 32 7 62q0 66 -53 66q-71 0 -97 -128l-7 -34q-9 -43 -9 -63z" />
    <glyph glyph-name="seven" unicode="7" horiz-adv-x="451" 
d="M179 0h-159q76 341 371 609h-305l25 116h429l-25 -116q-142 -136 -219.5 -278t-116.5 -331z" />
    <glyph glyph-name="eight" unicode="8" horiz-adv-x="538" 
d="M498 262q0 -133 -62.5 -204t-189.5 -71q-106 0 -170 37.5t-64 115.5q0 98 42.5 160t116.5 86q-27 12 -47.5 42t-20.5 77q0 106 68 169.5t172 63.5q89 0 150.5 -37t61.5 -113q0 -51 -13.5 -89t-38 -60t-43 -32.5t-44.5 -20.5q82 -30 82 -124zM167 146q0 -60 63 -60
q50 0 70.5 28.5t35.5 87.5l2 10l5 27q3 17 3 30q0 60 -64 60q-50 0 -72 -28.5t-34 -87.5l-2 -10q-7 -37 -7 -57zM253 470q0 -22 10.5 -33t38.5 -11q41 0 57.5 23.5t27.5 77.5l2 10q8 46 8 57q0 23 -10.5 34t-38.5 11q-41 0 -58 -25t-27 -77l-2 -10q-8 -42 -8 -57z" />
    <glyph glyph-name="nine" unicode="9" horiz-adv-x="528" 
d="M516 414l-22 -103q-20 -90 -39 -144.5t-50.5 -98.5t-78 -62.5t-114.5 -18.5q-91 0 -140 38t-49 102q0 21 8 53l2 7h143l-1 -5q-5 -32 -5 -46q0 -27 11 -38.5t35 -11.5q48 0 70.5 44t47.5 157l7 36q-49 -77 -127 -77q-147 0 -147 146q0 36 9 83l7 35q22 117 83.5 172.5
t174.5 55.5q102 0 148.5 -42.5t46.5 -133.5q0 -53 -20 -148zM226 417q0 -66 53 -66q37 0 60 32t38 96l7 34q8 40 8 63q0 63 -52 63q-74 0 -99 -125l-7 -35q-8 -38 -8 -62z" />
    <glyph glyph-name="colon" unicode=":" horiz-adv-x="238" 
d="M63 383l33 155h162l-33 -155h-162zM-19 0l33 155h162l-33 -155h-162z" />
    <glyph glyph-name="semicolon" unicode=";" horiz-adv-x="238" 
d="M-66 -164l118 164h-71l33 155h162l-35 -165l-115 -154h-92zM63 382l33 155h162l-33 -155h-162z" />
    <glyph glyph-name="less" unicode="&#x3c;" 
d="M458 -8l-413 211v129l413 211v-132l-281 -144l281 -143v-132z" />
    <glyph glyph-name="equal" unicode="=" 
d="M58 95v116h430v-116h-430zM58 312v117h430v-117h-430z" />
    <glyph glyph-name="greater" unicode="&#x3e;" 
d="M502 203l-413 -211v132l281 143l-281 144v132l413 -211v-129z" />
    <glyph glyph-name="question" unicode="?" horiz-adv-x="495" 
d="M135 220l7 34q4 21 10 38t16.5 32.5t17.5 25.5t23.5 23.5t24 19.5t29 21.5t29.5 21.5q46 35 65 70t19 84q0 27 -13 38t-40 11q-36 0 -58.5 -26.5t-37.5 -96.5l-1 -5h-144l1 5q23 117 78.5 169.5t156.5 52.5q92 0 153.5 -33.5t61.5 -105.5q0 -41 -11.5 -76.5t-34.5 -63
t-38.5 -42.5t-41.5 -35q-15 -11 -43 -30.5t-37.5 -28t-21.5 -27.5t-18 -45l-6 -31h-146zM80 0l33 155h162l-33 -155h-162z" />
    <glyph glyph-name="at" unicode="@" horiz-adv-x="826" 
d="M606 97l31 -63q-78 -46 -202 -46q-154 0 -251.5 103.5t-97.5 267.5q0 161 107.5 270.5t258.5 109.5q142 0 240 -89t98 -233q0 -111 -51 -187t-128 -76q-45 0 -72.5 23.5t-31.5 60.5q-18 -39 -50.5 -62.5t-72.5 -23.5q-53 0 -94.5 48t-41.5 138q0 96 50.5 169.5
t124.5 73.5q38 0 64.5 -25t35.5 -60q1 9 1.5 33.5t2.5 33.5h72l-23 -226q-3 -24 -3 -44q0 -69 37 -69q41 0 73.5 51t32.5 133q0 100 -73.5 180.5t-192.5 80.5q-122 0 -205.5 -91t-83.5 -220q0 -126 80.5 -213t189.5 -87q114 0 175 39zM342 338q0 -50 16 -76.5t43 -26.5
q40 0 66.5 48.5t26.5 114.5q0 48 -17.5 73.5t-48.5 25.5q-38 0 -62 -46.5t-24 -112.5z" />
    <glyph glyph-name="A" unicode="A" 
d="M-52 0l326 725h192l20 -725h-155l2 152h-163l-61 -152h-161zM338 571l-128 -318h124z" />
    <glyph glyph-name="B" unicode="B" horiz-adv-x="555" 
d="M-3 0l154 725h175q130 0 183 -30.5t53 -120.5q0 -139 -139 -189q99 -32 99 -136q0 -249 -301 -249h-224zM179 107h58q64 0 94.5 37t30.5 98q0 44 -19.5 64t-71.5 20h-46zM245 423h48q58 0 89 34t31 87q0 40 -18 57.5t-67 17.5h-41z" />
    <glyph glyph-name="C" unicode="C" horiz-adv-x="541" 
d="M514 243l-2 -10q-31 -134 -87.5 -190t-175.5 -56q-116 0 -167.5 48.5t-51.5 154.5q0 70 21 164l16 76q35 169 100 238.5t199 69.5q210 0 210 -170q0 -25 -9 -76l-2 -10h-158l2 10q10 47 10 73q0 35 -14.5 49t-45.5 14q-24 0 -42.5 -11.5t-30 -27.5t-23 -51.5t-18 -63.5
t-18.5 -83q-1 -3 -1 -5l-10 -47q-25 -113 -25 -165q0 -77 64 -77q40 0 60.5 28t38.5 108l2 10h158z" />
    <glyph glyph-name="D" unicode="D" horiz-adv-x="566" 
d="M179 107h50q25 0 43.5 6t33 21.5t24 30.5t19.5 47t15.5 56.5t15.5 70.5l10 47q23 115 23 155t-17 59t-58 19h-50zM-3 0l154 725h192q124 0 178.5 -45t54.5 -147q0 -67 -21 -162l-16 -76q-24 -115 -57 -176t-94.5 -90t-167.5 -29h-223z" />
    <glyph glyph-name="E" unicode="E" horiz-adv-x="475" 
d="M-3 0l154 725h399l-25 -116h-239l-38 -180h217l-24 -116h-218l-42 -197h240l-25 -116h-399z" />
    <glyph glyph-name="F" unicode="F" horiz-adv-x="443" 
d="M-4 0l154 725h373l-25 -116h-214l-37 -178h192l-25 -116h-192l-67 -315h-159z" />
    <glyph glyph-name="G" unicode="G" horiz-adv-x="579" 
d="M362 0l13 80q-29 -48 -64.5 -70.5t-100.5 -22.5q-94 0 -137.5 47t-43.5 150q0 72 22 170l16 76q35 169 100 238.5t199 69.5q210 0 210 -170q0 -34 -9 -76l-2 -10h-158l2 10q10 44 10 73q0 35 -14.5 49t-45.5 14q-24 0 -42.5 -11.5t-30 -27.5t-23 -51.5t-18 -63.5
t-18.5 -83q-1 -3 -1 -5l-10 -47q-25 -113 -25 -165q0 -77 64 -77q53 0 86 39t50 120l5 24h-123l22 105h260l-82 -385h-111z" />
    <glyph glyph-name="H" unicode="H" horiz-adv-x="590" 
d="M-3 0l154 725h159l-63 -296h164l63 296h159l-154 -725h-159l67 313h-164l-67 -313h-159z" />
    <glyph glyph-name="I" unicode="I" horiz-adv-x="267" 
d="M-3 0l154 725h159l-154 -725h-159z" />
    <glyph glyph-name="J" unicode="J" horiz-adv-x="467" 
d="M522 725l-111 -521q-15 -69 -37 -113t-54.5 -66t-67.5 -30t-86 -8q-92 0 -140.5 42t-48.5 118q0 30 7 59l4 20h158l-4 -20q-6 -33 -6 -54q0 -55 40 -55q31 0 47.5 21.5t29.5 87.5l110 519h159z" />
    <glyph glyph-name="K" unicode="K" horiz-adv-x="566" 
d="M365 0l-80 291l-90 -107l-39 -184h-159l154 725h159l-60 -282l237 282h162l-252 -301l116 -424h-148z" />
    <glyph glyph-name="L" unicode="L" horiz-adv-x="464" 
d="M-3 0l154 725h159l-129 -609h240l-25 -116h-399z" />
    <glyph glyph-name="M" unicode="M" horiz-adv-x="742" 
d="M-3 0l154 725h220l-19 -543l211 543h222l-154 -725h-142l121 570h-2l-20 -57l-212 -513h-125l5 513l6 57h-3l-121 -570h-141z" />
    <glyph glyph-name="N" unicode="N" horiz-adv-x="590" 
d="M-3 0l154 725h184l46 -521l111 521h141l-154 -725h-184l-46 521l-111 -521h-141z" />
    <glyph glyph-name="O" unicode="O" horiz-adv-x="575" 
d="M191 174q0 -77 64 -77q24 0 42.5 11.5t30 27.5t23 51.5t18 63.5t18.5 83q1 3 1 5l10 47q25 113 25 165q0 40 -14.5 58.5t-49.5 18.5q-24 0 -42.5 -11.5t-30 -27.5t-23 -51.5t-18 -63.5t-18.5 -83q-1 -3 -1 -5l-10 -47q-25 -113 -25 -165zM564 371l-16 -76
q-37 -170 -100.5 -239t-196.5 -69q-117 0 -169 48.5t-52 156.5q0 69 21 162l16 76q35 168 99.5 238t197.5 70q117 0 168.5 -48.5t51.5 -156.5q0 -64 -20 -162z" />
    <glyph glyph-name="P" unicode="P" horiz-adv-x="518" 
d="M-3 0l154 725h176q132 0 188 -33t56 -126q0 -131 -74 -205t-210 -74h-70l-61 -287h-159zM240 394h44q128 0 128 154q0 43 -23.5 57t-81.5 14h-19z" />
    <glyph glyph-name="Q" unicode="Q" horiz-adv-x="575" 
d="M564 371l-16 -76q-22 -107 -52.5 -170t-80.5 -97l50 -91l-107 -56l-57 109q-24 -3 -50 -3q-117 0 -169 48.5t-52 156.5q0 69 21 162l16 76q35 168 99.5 238t197.5 70q117 0 168.5 -48.5t51.5 -156.5q0 -64 -20 -162zM191 174q0 -77 64 -77q24 0 42.5 11.5t30 27.5
t23 51.5t18 63.5t18.5 83q1 3 1 5l10 47q25 113 25 165q0 40 -14.5 58.5t-49.5 18.5q-24 0 -42.5 -11.5t-30 -27.5t-23 -51.5t-18 -63.5t-18.5 -83q-1 -3 -1 -5l-10 -47q-25 -113 -25 -165z" />
    <glyph glyph-name="R" unicode="R" horiz-adv-x="567" 
d="M331 0l-31 312h-77l-66 -312h-160l154 725h177q132 0 188 -33t56 -126q0 -161 -128 -219l45 -347h-158zM243 409h45q66 0 95.5 38.5t29.5 100.5q0 43 -23.5 57t-81.5 14h-20z" />
    <glyph glyph-name="S" unicode="S" horiz-adv-x="522" 
d="M482 236q0 -249 -261 -249q-102 0 -165 43.5t-63 121.5q0 16 11 75l2 10h157l-2 -10q-8 -40 -8 -62q0 -37 16.5 -54t53.5 -17q43 0 70.5 27t27.5 77q0 58 -60 102l-52 40q-112 84 -112 170q0 228 250 228q213 0 213 -152q0 -34 -7 -66l-1 -5h-155l1 5q5 26 5 47
q0 66 -64 66q-39 -1 -64.5 -24t-25.5 -66t34 -71l59 -45q72 -55 106 -98.5t34 -92.5z" />
    <glyph glyph-name="T" unicode="T" horiz-adv-x="477" 
d="M102 0l129 609h-148l25 116h455l-25 -116h-148l-129 -609h-159z" />
    <glyph glyph-name="U" unicode="U" horiz-adv-x="561" 
d="M614 725l-92 -432q-20 -96 -40 -150t-54.5 -92t-82 -51t-124.5 -13q-108 0 -151.5 30.5t-43.5 109.5q0 60 23 166l92 432h159l-93 -439q-21 -100 -21 -131q0 -30 13 -44t44 -14q53 0 74.5 39.5t44.5 149.5l93 439h159z" />
    <glyph glyph-name="V" unicode="V" horiz-adv-x="509" 
d="M102 0v725h155l-20 -564l202 564h161l-302 -725h-196z" />
    <glyph glyph-name="W" unicode="W" horiz-adv-x="730" 
d="M45 0l63 725h144l-59 -550l202 550h133l-30 -550l173 550h145l-246 -725h-179l33 548l-199 -548h-180z" />
    <glyph glyph-name="X" unicode="X" horiz-adv-x="514" 
d="M-57 0l262 374l-92 351h147l52 -199l139 199h164l-259 -368l93 -357h-146l-54 205l-144 -205h-162z" />
    <glyph glyph-name="Y" unicode="Y" horiz-adv-x="521" 
d="M122 0l64 303l-89 422h143l46 -282l168 282h164l-273 -424l-64 -301h-159z" />
    <glyph glyph-name="Z" unicode="Z" horiz-adv-x="513" 
d="M-35 0l24 112l387 492h-253l26 121h429l-24 -112l-388 -491h295l-26 -122h-470z" />
    <glyph glyph-name="bracketleft" unicode="[" horiz-adv-x="302" 
d="M-40 -175l191 900h253l-21 -100h-131l-149 -698h131l-21 -102h-253z" />
    <glyph glyph-name="backslash" unicode="\" horiz-adv-x="391" 
d="M166 0l-86 725h147l85 -725h-146z" />
    <glyph glyph-name="bracketright" unicode="]" horiz-adv-x="300" 
d="M-99 -175l22 102h130l149 698h-131l21 100h251l-192 -900h-250z" />
    <glyph glyph-name="asciicircum" unicode="^" horiz-adv-x="556" 
d="M30 338l199 387h114l199 -387h-134l-122 250l-122 -250h-134z" />
    <glyph glyph-name="underscore" unicode="_" horiz-adv-x="490" 
d="M-62 -123l28 132h440l-28 -132h-440z" />
    <glyph glyph-name="grave" unicode="`" horiz-adv-x="288" 
d="M219 602l-97 123h175l37 -123h-115z" />
    <glyph glyph-name="a" unicode="a" horiz-adv-x="482" 
d="M248 0l8 62q-29 -41 -61 -58t-79 -17q-58 0 -91 33.5t-33 89.5q0 24 5 44l2 10q15 66 77 104q39 24 141 57l84 26l6 28q6 30 6 39q0 45 -48 45q-37 0 -53.5 -18t-25.5 -64l-1 -5h-133l1 5q17 90 70.5 131.5t156.5 41.5q56 0 92.5 -9t62 -40.5t25.5 -87.5q0 -38 -10 -82
l-36 -169q-26 -119 -29 -166h-137zM143 122q0 -41 40 -41q35 0 56.5 27t33.5 85l16 76q-18 -8 -27 -11l-25 -8q-43 -14 -62 -32.5t-25 -50.5l-4 -15q-3 -16 -3 -30z" />
    <glyph glyph-name="b" unicode="b" horiz-adv-x="520" 
d="M498 307l-15 -71q-29 -133 -74.5 -191t-131.5 -58q-44 0 -76.5 22.5t-44.5 63.5l-16 -73h-154l154 725h154l-52 -246q48 75 135 75q132 0 132 -153q0 -46 -11 -94zM178 164q0 -37 13 -55t44 -18q40 0 58 37t39 131l5 25q15 72 15 103q0 63 -53 63q-70 0 -106 -179
q-15 -72 -15 -107z" />
    <glyph glyph-name="c" unicode="c" horiz-adv-x="464" 
d="M431 192l-1 -6q-23 -110 -80 -154.5t-146 -44.5q-190 0 -190 174q0 29 8 75l19 87q24 121 81.5 175.5t166.5 54.5q87 0 134.5 -38.5t47.5 -110.5q0 -18 -5 -50l-1 -5h-143l1 4q7 25 7 49q0 52 -50 52q-39 0 -56.5 -35.5t-35.5 -124.5l-10 -47q-14 -67 -14 -103
q0 -30 11.5 -44t37.5 -14q27 0 45 20.5t29 79.5l1 6h143z" />
    <glyph glyph-name="d" unicode="d" horiz-adv-x="519" 
d="M265 0l13 62q-48 -75 -134 -75q-133 0 -133 153q0 38 11 95l15 71q29 133 74.5 190t132.5 57q44 0 76 -22t44 -63l55 257h154l-154 -725h-154zM169 155q0 -33 12 -48.5t40 -15.5q71 0 107 179q15 72 15 107q0 72 -57 72q-40 0 -60.5 -39t-37.5 -128l-5 -25
q-14 -75 -14 -102z" />
    <glyph glyph-name="e" unicode="e" horiz-adv-x="492" 
d="M441 181l-1 -6q-37 -188 -234 -188q-192 0 -192 175q0 31 8 74l19 87q24 121 81.5 175.5t166.5 54.5q99 0 145 -41t46 -130q0 -39 -13 -99l-6 -29h-283l-1 -7q-13 -65 -13 -98t12 -48t39 -15q32 0 51 18t30 71l1 6h144zM198 346l-2 -10h142l2 9q6 27 6 47q0 64 -65 64
q-20 0 -35 -9t-24 -27.5t-14 -34t-10 -39.5z" />
    <glyph glyph-name="f" unicode="f" horiz-adv-x="317" 
d="M6 0l94 443h-65l20 95h64l10 47q17 87 63 113.5t144 26.5h68l-19 -91h-38q-32 0 -44.5 -10t-19.5 -41l-10 -45h91l-20 -95h-91l-94 -443h-153z" />
    <glyph glyph-name="g" unicode="g" horiz-adv-x="526" 
d="M540 538l-103 -485q-28 -130 -88 -185.5t-177 -55.5q-83 0 -136 32t-53 97q0 23 2 33l1 5h137l-1 -5q-1 -3 -1 -7v-8q0 -46 56 -46q42 0 64 22.5t37 92.5l15 71q-52 -80 -134 -80q-68 0 -105.5 38t-37.5 112q0 35 9 78l14 67q51 239 234 239q83 0 99 -81l14 66h154z
M174 180q0 -56 49 -56q51 0 73.5 36t40.5 119q16 76 16 106q0 33 -14 48.5t-47 15.5q-42 0 -62.5 -36t-36.5 -116l-4 -19q-15 -75 -15 -98z" />
    <glyph glyph-name="h" unicode="h" horiz-adv-x="507" 
d="M-14 0l154 725h154l-54 -253q28 42 61 61.5t80 19.5q113 0 113 -118q0 -43 -9 -84l-75 -351h-154l67 317q13 65 13 84q0 47 -36 47q-39 0 -60.5 -42.5t-39.5 -121.5l-60 -284h-154z" />
    <glyph glyph-name="i" unicode="i" horiz-adv-x="239" 
d="M-14 0l114 538h154l-114 -538h-154zM113 597l27 128h154l-27 -128h-154z" />
    <glyph glyph-name="j" unicode="j" horiz-adv-x="239" 
d="M113 597l27 128h154l-27 -128h-154zM-121 -175l19 92h28q30 0 39.5 16t20.5 67l114 538h154l-114 -538q-24 -112 -58.5 -143.5t-130.5 -31.5h-72z" />
    <glyph glyph-name="k" unicode="k" horiz-adv-x="463" 
d="M518 538l-166 -182l75 -356h-145l-42 232l-74 -81l-32 -151h-148l154 725h148l-78 -366l163 179h145z" />
    <glyph glyph-name="l" unicode="l" horiz-adv-x="240" 
d="M-14 0l154 725h154l-154 -725h-154z" />
    <glyph glyph-name="m" unicode="m" horiz-adv-x="760" 
d="M-14 0l114 538h154l-14 -66q28 42 61 61.5t80 19.5q100 0 105 -88q51 88 157 88q53 0 79.5 -25.5t26.5 -85.5q0 -42 -11 -91l-75 -351h-154l67 317q16 78 16 92q0 39 -30 39q-39 0 -60.5 -42.5t-39.5 -121.5l-60 -284h-154l67 317q15 73 15 92q0 39 -29 39
q-40 0 -61.5 -42.5t-39.5 -121.5l-60 -284h-154z" />
    <glyph glyph-name="n" unicode="n" horiz-adv-x="507" 
d="M-14 0l114 538h154l-14 -66q28 42 61 61.5t80 19.5q114 0 114 -118q0 -38 -10 -84l-75 -351h-154l67 317q14 70 14 84q0 47 -36 47q-40 0 -61.5 -42.5t-39.5 -121.5l-60 -284h-154z" />
    <glyph glyph-name="o" unicode="o" horiz-adv-x="494" 
d="M165 147q0 -62 51 -62q14 0 25 4t19.5 15.5t14 22t11.5 33.5t9.5 38.5t10.5 48.5l9 45q15 77 15 101q0 61 -51 61q-17 0 -29.5 -7.5t-20.5 -18t-16 -35t-12 -43t-12 -57.5l-10 -47q-14 -72 -14 -99zM473 303l-18 -85q-27 -124 -82.5 -178t-165.5 -54q-193 0 -193 175
q0 31 8 74l18 87q27 123 83 177t166 54q192 0 192 -174q0 -33 -8 -76z" />
    <glyph glyph-name="p" unicode="p" horiz-adv-x="520" 
d="M-51 -175l151 713h154l-12 -59q48 75 135 75q133 0 133 -153q0 -39 -11 -94l-15 -71q-28 -133 -74.5 -191t-132.5 -58q-44 0 -76.5 22.5t-44.5 63.5l-53 -248h-154zM178 164q0 -37 13 -55t44 -18q40 0 58 37t39 131l5 25q15 72 15 103q0 32 -12 47.5t-40 15.5
q-71 0 -107 -179q-15 -72 -15 -107z" />
    <glyph glyph-name="q" unicode="q" horiz-adv-x="520" 
d="M229 -175l51 242q-23 -35 -61.5 -57.5t-82.5 -22.5q-128 0 -128 138q0 43 14 110l15 71q27 127 78.5 187t139.5 60q44 0 73.5 -22.5t36.5 -58.5l14 66h154l-151 -713h-153zM166 144q0 -53 43 -53q48 0 74 43.5t46 135.5q14 75 14 106q0 37 -13 55t-44 18q-40 0 -60.5 -39
t-37.5 -128l-5 -25q-17 -74 -17 -113z" />
    <glyph glyph-name="r" unicode="r" horiz-adv-x="340" 
d="M-14 0l114 538h154l-23 -111q23 53 54 82t81 29h20l-30 -145h-42q-60 0 -81 -23t-35 -95l-58 -275h-154z" />
    <glyph glyph-name="s" unicode="s" horiz-adv-x="459" 
d="M414 166q0 -84 -64.5 -131.5t-157.5 -47.5q-95 0 -145.5 37.5t-50.5 104.5q0 16 5 44l1 5h139l-1 -5q-3 -15 -3 -30q0 -56 60 -56q32 0 54.5 13.5t23.5 38.5q0 20 -10.5 31t-41.5 30l-70 42q-47 29 -71.5 59.5t-24.5 83.5q0 81 64.5 124.5t156.5 43.5q74 0 127 -32.5
t53 -97.5q0 -7 -5 -42l-1 -5h-135l1 5q4 20 4 27q0 46 -56 46q-69 0 -69 -53q0 -31 34 -52l66 -40q44 -26 64 -40.5t36.5 -41t16.5 -61.5z" />
    <glyph glyph-name="t" unicode="t" horiz-adv-x="339" 
d="M256 0h-110q-62 0 -87.5 18t-25.5 63q0 26 9 64l63 298h-65l20 95h65l31 146h153l-31 -146h91l-20 -95h-90l-60 -283q-5 -25 -5 -34q0 -18 9.5 -24.5t32.5 -6.5h40z" />
    <glyph glyph-name="u" unicode="u" horiz-adv-x="503" 
d="M244 0l14 66q-27 -42 -60 -60.5t-81 -18.5q-53 0 -79.5 25t-26.5 84q0 37 12 91l74 351h154l-67 -317q-16 -74 -16 -91q0 -37 30 -37q39 0 61 41.5t39 119.5l60 284h153l-108 -538h-159z" />
    <glyph glyph-name="v" unicode="v" horiz-adv-x="437" 
d="M63 0l-6 538h148l-15 -387l156 387h148l-243 -538h-188z" />
    <glyph glyph-name="w" unicode="w" horiz-adv-x="605" 
d="M25 0l54 538h128l-46 -372l131 372h135l-24 -371l110 371h128l-177 -538h-163l32 408l-143 -408h-165z" />
    <glyph glyph-name="x" unicode="x" horiz-adv-x="445" 
d="M-68 0l219 276l-94 262h143l50 -138l109 138h150l-213 -267l99 -271h-144l-53 148l-118 -148h-148z" />
    <glyph glyph-name="y" unicode="y" horiz-adv-x="430" 
d="M-39 -175l20 94h37q31 0 45.5 12.5t27.5 43.5l12 27l-46 536h140l11 -390l140 390h144l-235 -538q-47 -109 -89 -142t-145 -33h-62z" />
    <glyph glyph-name="z" unicode="z" horiz-adv-x="423" 
d="M-35 0l20 95l275 348h-178l20 95h348l-20 -95l-276 -348h210l-20 -95h-379z" />
    <glyph glyph-name="braceleft" unicode="{" horiz-adv-x="303" 
d="M214 -175h-30q-87 0 -127 24t-40 85q0 25 8 65l25 120q7 33 7 50q0 53 -62 53l24 111q46 0 66 25t31 78l25 115q22 102 73.5 138t157.5 36h29l-21 -100h-15q-48 0 -66 -15.5t-27 -55.5l-30 -138q-15 -65 -45.5 -95.5t-77.5 -41.5v-2q34 -10 52.5 -30.5t18.5 -61.5
q0 -22 -5 -46l-30 -140q-4 -15 -4 -29q0 -23 15 -32.5t54 -9.5h16z" />
    <glyph glyph-name="bar" unicode="|" horiz-adv-x="248" 
d="M54 -90v815h140v-815h-140z" />
    <glyph glyph-name="braceright" unicode="}" horiz-adv-x="300" 
d="M-69 -175h-30l21 102h16q49 0 67 15t27 56l30 141q13 64 43 94t78 44l1 2q-70 19 -70 89q0 10 6 48l30 138q4 15 4 30q0 22 -15.5 31.5t-52.5 9.5h-15l22 100h27q88 0 127 -23.5t39 -85.5q0 -33 -7 -65l-25 -115q-7 -33 -7 -50q0 -26 13.5 -39.5t47.5 -13.5l-24 -111
q-46 0 -65.5 -25t-30.5 -78l-25 -119q-21 -101 -74 -138t-158 -37z" />
    <glyph glyph-name="asciitilde" unicode="~" 
d="M148 158h-107q2 96 34.5 145t108.5 49q35 0 65 -17t54.5 -33.5t46.5 -16.5t32.5 15t11.5 52h107q-4 -97 -35 -145.5t-107 -48.5q-39 0 -88 33.5t-79 33.5q-22 0 -32.5 -15t-11.5 -52z" />
    <glyph glyph-name="uni00A0" unicode="&#xa0;" horiz-adv-x="180" 
 />
    <glyph glyph-name="exclamdown" unicode="&#xa1;" horiz-adv-x="246" 
d="M-53 -175l41 194l90 313h109l-43 -313l-41 -194h-156zM62 383l33 155h162l-33 -155h-162z" />
    <glyph glyph-name="cent" unicode="&#xa2;" horiz-adv-x="464" 
d="M149 -88l16 78q-151 17 -151 170q0 34 9 76l19 87q27 121 81 174.5t162 55.5l12 57h50l-13 -60q66 -10 101.5 -47t35.5 -99q0 -26 -5 -50l-1 -6h-143l1 5q7 27 7 49q0 52 -50 52q-39 0 -56 -35.5t-35 -124.5l-9 -47q-15 -72 -15 -103q0 -58 48 -58q27 0 45 21t29 80l1 5
h143l-1 -5q-31 -195 -215 -200l-16 -75h-50z" />
    <glyph glyph-name="sterling" unicode="&#xa3;" horiz-adv-x="540" 
d="M33 306l17 78h94q-25 102 -25 135q0 104 71.5 161.5t190.5 57.5q86 0 137.5 -41.5t51.5 -108.5q0 -33 -6 -63l-2 -10h-145l2 10q7 37 7 52q0 63 -60 63q-72 0 -90 -79q-4 -21 -4 -46q0 -20 2.5 -39.5t9.5 -53t8 -38.5h164l-17 -78h-139q-2 -21 -4 -26q-10 -47 -47 -95.5
t-83 -73.5l1 -2q46 18 76 18q22 0 56 -13.5t58 -13.5q17 0 33 4t27 9t40 18l22 -100q-87 -42 -139 -42q-36 0 -84 19.5t-75 19.5q-64 0 -150 -41l-30 101q70 35 104 75t44 93q6 27 6 50h-122z" />
    <glyph glyph-name="currency" unicode="&#xa4;" horiz-adv-x="627" 
d="M114 83l-50 48l69 70q-44 61 -44 139t44 139l-69 70l50 48l68 -67q62 49 144 49t147 -51l70 69l50 -48l-71 -71q43 -62 43 -138q0 -75 -44 -136l72 -73l-50 -48l-71 70q-66 -50 -146 -50q-81 0 -143 48zM209 340q0 -54 32.5 -89t83.5 -35q54 0 88 35t34 89q0 55 -34 91
t-88 36q-51 0 -83.5 -36t-32.5 -91z" />
    <glyph glyph-name="yen" unicode="&#xa5;" horiz-adv-x="521" 
d="M43 239l17 82h122l-85 404h143l46 -282l168 282h164l-260 -404h122l-17 -82h-132l-15 -71h132l-17 -80h-132l-18 -88h-159l18 88h-130l17 80h130l15 71h-129z" />
    <glyph glyph-name="brokenbar" unicode="&#xa6;" horiz-adv-x="226" 
d="M183 420h-140v305h140v-305zM43 -90v305h140v-305h-140z" />
    <glyph glyph-name="section" unicode="&#xa7;" horiz-adv-x="600" 
d="M541 283q0 -87 -112 -143q86 -62 86 -150q0 -76 -61.5 -118t-158.5 -42q-58 0 -105.5 16t-81.5 59t-34 107v2h150v-2q0 -44 21.5 -63.5t52.5 -19.5q29 1 48.5 16t19.5 44q0 42 -55 76l-118 65q-66 36 -99 73t-33 95q0 87 115 143q-82 59 -82 150q0 76 61 118t158 42
q91 0 153.5 -44t62.5 -138v-2h-149v2q0 44 -21 63.5t-52 19.5q-63 -2 -63 -60q0 -45 51 -76l117 -65q68 -40 98.5 -74.5t30.5 -93.5zM212 311q0 -46 71 -85l53 -30q54 30 54 74q0 48 -67 85l-55 30q-56 -31 -56 -74z" />
    <glyph glyph-name="dieresis" unicode="&#xa8;" horiz-adv-x="384" 
d="M96 602l26 123h133l-26 -123h-133zM296 602l26 123h134l-26 -123h-134z" />
    <glyph glyph-name="copyright" unicode="&#xa9;" horiz-adv-x="826" 
d="M437 152q-87 0 -119 42t-32 139v65q0 96 32.5 139t118.5 43q73 0 106.5 -34t33.5 -111v-7h-116v5q0 47 -4.5 57t-20.5 10q-5 0 -9 -1.5t-7 -5.5t-5 -8t-3 -11t-1.5 -13.5t-0.5 -17t0.5 -18.5t0.5 -21v-23v-31v-24t-0.5 -22t-0.5 -18.5t0.5 -17t1.5 -13.5t3 -11t5 -7.5
t7 -5t9 -1.5q12 0 16 2.5t6.5 16.5t2.5 47v5h116v-5q0 -78 -33.5 -111t-106.5 -33zM434 42q133 0 220.5 91t87.5 232q0 140 -87.5 230t-220.5 90q-131 0 -220 -90.5t-89 -229.5q0 -140 89 -231.5t220 -91.5zM433 -12q-154 0 -261.5 107t-107.5 269t107.5 268.5t261.5 106.5
q156 0 263 -106.5t107 -268.5t-107 -269t-263 -107z" />
    <glyph glyph-name="ordfeminine" unicode="&#xaa;" horiz-adv-x="277" 
d="M205 438l5 33q-30 -41 -83 -41q-32 0 -48.5 17t-16.5 47v12q0 3 2 13l1 7q7 34 37 57q25 21 92 41l41 13l5 21q2 14 2 18q0 19 -24 19q-20 0 -27.5 -8.5t-11.5 -32.5l-1 -6h-81l1 6q8 51 35.5 74t81.5 23q56 0 86.5 -15t30.5 -58q0 -18 -4 -35q0 -7 -12 -53l-11 -52
q-14 -64 -15 -100h-85zM156 506q0 -19 20 -19q17 0 25.5 13.5t15.5 45.5l9 41q-5 -2 -23 -10q-23 -12 -31 -20t-12 -24l-2 -9q-2 -14 -2 -18z" />
    <glyph glyph-name="guillemotleft" unicode="&#xab;" horiz-adv-x="395" 
d="M317 43l-121 149l37 177l184 145l-36 -169l-87 -65l59 -66zM135 43l-121 149l37 177l184 145l-36 -169l-87 -65l59 -66z" />
    <glyph glyph-name="logicalnot" unicode="&#xac;" 
d="M398 70v251h-374v116h494v-367h-120z" />
    <glyph glyph-name="uni00AD" unicode="&#xad;" horiz-adv-x="348" 
d="M24 186l27 131h266l-27 -131h-266z" />
    <glyph glyph-name="registered" unicode="&#xae;" horiz-adv-x="826" 
d="M433 -12q-154 0 -261.5 107t-107.5 269t107.5 268.5t261.5 106.5q156 0 263 -106.5t107 -268.5t-107 -269t-263 -107zM434 48q130 0 215.5 89.5t85.5 227.5q0 137 -85.5 225.5t-215.5 88.5t-216 -88.5t-86 -225.5q0 -138 86 -227.5t216 -89.5zM400 163h-109v414h127
q85 0 121.5 -26t36.5 -98q0 -68 -52 -98l62 -192h-105l-45 171h-9.5h-9h-6.5h-11v-171zM400 499v-96h16q25 1 31 10.5t6 39.5q0 29 -6 37.5t-32 8.5h-15z" />
    <glyph glyph-name="overscore" unicode="&#xaf;" horiz-adv-x="302" 
d="M99 614l21 100h252l-21 -100h-252z" />
    <glyph glyph-name="degree" unicode="&#xb0;" horiz-adv-x="344" 
d="M390 576q0 -66 -47 -113t-114 -47q-66 0 -113 47t-47 113q0 68 47 115t113 47q67 0 114 -47t47 -115zM156 576q0 -33 20.5 -55.5t52.5 -22.5q33 0 54 22.5t21 55.5q0 34 -21 57t-54 23q-32 0 -52.5 -23t-20.5 -57z" />
    <glyph glyph-name="plusminus" unicode="&#xb1;" 
d="M201 164v129h-175v116h175v129h119v-129h175v-116h-175v-129h-119zM26 0v116h469v-116h-469z" />
    <glyph glyph-name="twosuperior" unicode="&#xb2;" horiz-adv-x="289" 
d="M60 438l14 67l57 57q86 86 117.5 130t31.5 77q0 24 -25 24q-18 0 -26 -14t-17 -55l-1 -5h-89l1 5q13 68 45 98.5t96 30.5q49 0 79.5 -23t30.5 -57q0 -46 -31 -89.5t-111 -124.5l-49 -50h140l-15 -71h-248z" />
    <glyph glyph-name="threesuperior" unicode="&#xb3;" horiz-adv-x="295" 
d="M340 584q0 -73 -41.5 -113.5t-114.5 -40.5q-108 0 -108 87q0 17 3 32l1 5h87l-1 -5q-4 -15 -4 -31q0 -27 25 -27t36.5 16.5t17.5 47.5q3 17 3 31q0 32 -39 32h-25l14 63h23q24 0 34 13.5t16 41.5q4 16 4 31q0 26 -26 26q-16 0 -23.5 -10.5t-14.5 -42.5l-1 -5h-87l1 5
q13 64 46 88.5t87 24.5q49 0 81 -18.5t32 -57.5q0 -51 -24.5 -82t-54.5 -38q53 -18 53 -73z" />
    <glyph glyph-name="acute" unicode="&#xb4;" horiz-adv-x="288" 
d="M96 602l89 123h175l-148 -123h-116z" />
    <glyph glyph-name="mu" unicode="&#xb5;" horiz-adv-x="508" 
d="M249 0l14 66q-48 -74 -125 -78q-19 -86 -48 -163h-153q23 62 47 163l117 550h155l-67 -317q-16 -74 -16 -91q0 -37 30 -37q39 0 61 41.5t39 119.5l60 284h153l-108 -538h-159z" />
    <glyph glyph-name="mu" unicode="&#x3bc;" horiz-adv-x="508" 
d="M249 0l14 66q-48 -74 -125 -78q-19 -86 -48 -163h-153q23 62 47 163l117 550h155l-67 -317q-16 -74 -16 -91q0 -37 30 -37q39 0 61 41.5t39 119.5l60 284h153l-108 -538h-159z" />
    <glyph glyph-name="paragraph" unicode="&#xb6;" horiz-adv-x="438" 
d="M70 -89l102 478q-48 0 -81 33.5t-33 88.5q0 101 63.5 157.5t184.5 56.5h175l-173 -814h-82l157 738h-74l-157 -738h-82z" />
    <glyph glyph-name="middot" unicode="&#xb7;" horiz-adv-x="247" 
d="M22 191l33 155h162l-33 -155h-162z" />
    <glyph glyph-name="cedilla" unicode="&#xb8;" horiz-adv-x="275" 
d="M171 -99q0 -41 -45 -68.5t-104 -27.5q-55 0 -92 15l27 50q23 -14 60 -14q25 0 42 9t17 26q0 21 -35 21q-24 0 -41 -9l-26 17l69 82h58l-44 -50q18 3 40 3q31 0 52.5 -14t21.5 -40z" />
    <glyph glyph-name="onesuperior" unicode="&#xb9;" horiz-adv-x="181" 
d="M102 438l64 301h-66l13 59q44 2 58 9.5t31 40.5h73l-87 -410h-86z" />
    <glyph glyph-name="ordmasculine" unicode="&#xba;" horiz-adv-x="281" 
d="M166 517q0 -27 23 -27q20 0 28 18t19 69l6 28q9 45 9 60q0 25 -21 25q-20 0 -29.5 -19t-18.5 -66l-6 -28q-10 -39 -10 -60zM340 615l-10 -47q-16 -72 -47 -105t-93 -33q-55 0 -85.5 24.5t-30.5 71.5q0 23 5 42l10 47q15 69 47 102.5t93 33.5q55 0 85.5 -25t30.5 -72
q0 -14 -5 -39z" />
    <glyph glyph-name="guillemotright" unicode="&#xbb;" horiz-adv-x="395" 
d="M264 514l121 -149l-37 -177l-184 -145l36 169l87 65l-59 66zM82 514l121 -149l-37 -177l-184 -145l36 169l87 65l-59 66z" />
    <glyph glyph-name="onequarter" unicode="&#xbc;" horiz-adv-x="650" 
d="M76 317l64 301h-66l13 59q44 2 58 9.5t31 40.5h73l-87 -410h-86zM72 0l362 725h65l-362 -725h-65zM450 0l20 96h-145l14 66l190 246h90l-51 -239h49l-16 -73h-48l-20 -96h-83zM409 169h75l27 127z" />
    <glyph glyph-name="onehalf" unicode="&#xbd;" horiz-adv-x="639" 
d="M76 317l64 301h-66l13 59q44 2 58 9.5t31 40.5h73l-87 -410h-86zM72 0l362 725h65l-362 -725h-65zM316 0l14 67l57 57q86 86 117.5 130t31.5 77q0 24 -25 24q-18 0 -26 -14t-17 -55l-1 -5h-89l1 5q13 68 45 98.5t96 30.5q49 0 79.5 -23t30.5 -57q0 -46 -31 -89.5
t-111 -124.5l-49 -50h140l-15 -71h-248z" />
    <glyph glyph-name="threequarters" unicode="&#xbe;" horiz-adv-x="764" 
d="M313 463q0 -73 -41.5 -113.5t-114.5 -40.5q-108 0 -108 87q0 17 3 32l1 5h87l-1 -5q-4 -15 -4 -31q0 -27 25 -27t36.5 16.5t17.5 47.5q3 16 3 31q0 32 -39 32h-25l14 63h23q24 0 34 13.5t16 41.5q4 16 4 31q0 26 -26 26q-16 0 -23.5 -10.5t-14.5 -42.5l-1 -5h-87l1 5
q13 64 46 88.5t87 24.5q49 0 81 -18.5t32 -57.5q0 -51 -24.5 -82t-54.5 -38q53 -18 53 -73zM186 0l362 725h65l-362 -725h-65zM564 0l20 96h-145l14 66l190 246h90l-51 -239h49l-16 -73h-48l-20 -96h-83zM523 169h75l27 127z" />
    <glyph glyph-name="questiondown" unicode="&#xbf;" horiz-adv-x="476" 
d="M409 39l-1 -5q-23 -117 -81.5 -169.5t-162.5 -52.5q-90 0 -148.5 33t-58.5 106q0 123 127 217q16 12 42 30.5t36.5 27.5t22.5 28t18 45l6 30h146l-7 -33q-4 -21 -10 -38t-16.5 -32.5t-17 -25t-23.5 -24t-23.5 -19.5t-29 -21.5t-29.5 -21.5q-82 -61 -84 -154
q-1 -27 12.5 -38t40.5 -11q36 0 58 26.5t37 96.5l1 5h145zM212 383l33 155h162l-33 -155h-162z" />
    <glyph glyph-name="Agrave" unicode="&#xc0;" 
d="M317 775l-133 113h189l77 -113h-133zM-52 0l326 725h192l20 -725h-155l2 152h-163l-61 -152h-161zM338 571l-128 -318h124z" />
    <glyph glyph-name="Aacute" unicode="&#xc1;" 
d="M308 775l79 113h188l-134 -113h-133zM-52 0l326 725h192l20 -725h-155l2 152h-163l-61 -152h-161zM338 571l-128 -318h124z" />
    <glyph glyph-name="Acircumflex" unicode="&#xc2;" 
d="M-52 0l326 725h192l20 -725h-155l2 152h-163l-61 -152h-161zM338 571l-128 -318h124zM200 775l137 113h138l95 -113h-145l-30 50l-49 -50h-146z" />
    <glyph glyph-name="Atilde" unicode="&#xc3;" 
d="M297 775h-97q43 113 155 113q29 0 57 -18t43 -18q33 0 46 36h97q-45 -113 -155 -113q-30 0 -58.5 17t-40.5 17q-35 0 -47 -34zM-52 0l326 725h192l20 -725h-155l2 152h-163l-61 -152h-161zM338 571l-128 -318h124z" />
    <glyph glyph-name="Adieresis" unicode="&#xc4;" 
d="M-52 0l326 725h192l20 -725h-155l2 152h-163l-61 -152h-161zM338 571l-128 -318h124zM220 775l24 113h134l-24 -113h-134zM418 775l24 113h133l-24 -113h-133z" />
    <glyph glyph-name="Aring" unicode="&#xc5;" 
d="M475 851q0 -37 -26 -61t-64 -24t-64 24t-26 61q0 36 26.5 60.5t63.5 24.5t63.5 -24.5t26.5 -60.5zM342 851q0 -18 12.5 -30t30.5 -12t30.5 12t12.5 30t-12.5 30.5t-30.5 12.5t-30.5 -12.5t-12.5 -30.5zM-52 0l326 725h192l20 -725h-155l2 152h-163l-61 -152h-161z
M338 571l-128 -318h124z" />
    <glyph glyph-name="AE" unicode="&#xc6;" horiz-adv-x="837" 
d="M-57 0l562 725h391l-25 -116h-235l-38 -179h214l-24 -116h-214l-42 -198h238l-25 -116h-395l31 148h-168l-105 -148h-165zM454 487l-158 -222h110z" />
    <glyph glyph-name="Ccedilla" unicode="&#xc7;" horiz-adv-x="541" 
d="M514 243l-2 -10q-31 -134 -87.5 -190t-175.5 -56q-116 0 -167.5 48.5t-51.5 154.5q0 70 21 164l16 76q35 169 100 238.5t199 69.5q210 0 210 -170q0 -25 -9 -76l-2 -10h-158l2 10q10 47 10 73q0 35 -14.5 49t-45.5 14q-24 0 -42.5 -11.5t-30 -27.5t-23 -51.5t-18 -63.5
t-18.5 -83q-1 -3 -1 -5l-10 -47q-25 -113 -25 -165q0 -77 64 -77q40 0 60.5 28t38.5 108l2 10h158zM345 -104q0 -43 -43.5 -67t-104.5 -24q-50 0 -92 15l27 50q23 -14 60 -14q25 0 42 9.5t17 26.5q0 20 -35 20q-24 0 -41 -9l-26 17l69 82h58l-43 -50q15 3 37 3
q28 0 51.5 -18.5t23.5 -40.5z" />
    <glyph glyph-name="Egrave" unicode="&#xc8;" horiz-adv-x="475" 
d="M354 775l-133 113h189l77 -113h-133zM-3 0l154 725h399l-25 -116h-239l-38 -180h217l-24 -116h-218l-42 -197h240l-25 -116h-399z" />
    <glyph glyph-name="Eacute" unicode="&#xc9;" horiz-adv-x="475" 
d="M272 775l79 113h188l-134 -113h-133zM-3 0l154 725h399l-25 -116h-239l-38 -180h217l-24 -116h-218l-42 -197h240l-25 -116h-399z" />
    <glyph glyph-name="Ecircumflex" unicode="&#xca;" horiz-adv-x="475" 
d="M-3 0l154 725h399l-25 -116h-239l-38 -180h217l-24 -116h-218l-42 -197h240l-25 -116h-399zM174 775l137 113h138l95 -113h-145l-30 50l-49 -50h-146z" />
    <glyph glyph-name="Edieresis" unicode="&#xcb;" horiz-adv-x="475" 
d="M198 775l24 113h134l-24 -113h-134zM396 775l24 113h133l-24 -113h-133zM-3 0l154 725h399l-25 -116h-239l-38 -180h217l-24 -116h-218l-42 -197h240l-25 -116h-399z" />
    <glyph glyph-name="Igrave" unicode="&#xcc;" horiz-adv-x="267" 
d="M183 775l-133 113h189l77 -113h-133zM-3 0l154 725h159l-154 -725h-159z" />
    <glyph glyph-name="Iacute" unicode="&#xcd;" horiz-adv-x="267" 
d="M176 775l79 113h188l-134 -113h-133zM-3 0l154 725h159l-154 -725h-159z" />
    <glyph glyph-name="Icircumflex" unicode="&#xce;" horiz-adv-x="267" 
d="M60 775l137 113h138l95 -113h-145l-30 50l-49 -50h-146zM-3 0l154 725h159l-154 -725h-159z" />
    <glyph glyph-name="Idieresis" unicode="&#xcf;" horiz-adv-x="267" 
d="M89 775l24 113h134l-24 -113h-134zM267 775l24 113h133l-24 -113h-133zM-3 0l154 725h159l-154 -725h-159z" />
    <glyph glyph-name="Eth" unicode="&#xd0;" horiz-adv-x="576" 
d="M6 308l25 116h66l64 301h192q124 0 178.5 -45t54.5 -147q0 -67 -21 -162l-16 -76q-24 -115 -57 -176t-94.5 -90t-167.5 -29h-223l65 308h-66zM189 107h50q25 0 43.5 6t33 21.5t24 30.5t19.5 47t15.5 56.5t15.5 70.5l10 47q23 115 23 155t-17 59t-58 19h-50l-42 -195h82
l-25 -116h-81z" />
    <glyph glyph-name="Ntilde" unicode="&#xd1;" horiz-adv-x="590" 
d="M317 775h-97q43 113 155 113q30 0 58 -18t42 -18q33 0 46 36h97q-45 -113 -155 -113q-30 0 -58.5 17t-40.5 17q-35 0 -47 -34zM-3 0l154 725h184l46 -521l111 521h141l-154 -725h-184l-46 521l-111 -521h-141z" />
    <glyph glyph-name="Ograve" unicode="&#xd2;" horiz-adv-x="575" 
d="M191 174q0 -77 64 -77q24 0 42.5 11.5t30 27.5t23 51.5t18 63.5t18.5 83q1 3 1 5l10 47q25 113 25 165q0 40 -14.5 58.5t-49.5 18.5q-24 0 -42.5 -11.5t-30 -27.5t-23 -51.5t-18 -63.5t-18.5 -83q-1 -3 -1 -5l-10 -47q-25 -113 -25 -165zM564 371l-16 -76
q-37 -170 -100.5 -239t-196.5 -69q-117 0 -169 48.5t-52 156.5q0 69 21 162l16 76q35 168 99.5 238t197.5 70q117 0 168.5 -48.5t51.5 -156.5q0 -64 -20 -162zM340 775l-133 113h189l77 -113h-133z" />
    <glyph glyph-name="Oacute" unicode="&#xd3;" horiz-adv-x="575" 
d="M191 174q0 -77 64 -77q24 0 42.5 11.5t30 27.5t23 51.5t18 63.5t18.5 83q1 3 1 5l10 47q25 113 25 165q0 40 -14.5 58.5t-49.5 18.5q-24 0 -42.5 -11.5t-30 -27.5t-23 -51.5t-18 -63.5t-18.5 -83q-1 -3 -1 -5l-10 -47q-25 -113 -25 -165zM564 371l-16 -76
q-37 -170 -100.5 -239t-196.5 -69q-117 0 -169 48.5t-52 156.5q0 69 21 162l16 76q35 168 99.5 238t197.5 70q117 0 168.5 -48.5t51.5 -156.5q0 -64 -20 -162zM320 775l79 113h188l-134 -113h-133z" />
    <glyph glyph-name="Ocircumflex" unicode="&#xd4;" horiz-adv-x="575" 
d="M191 174q0 -77 64 -77q24 0 42.5 11.5t30 27.5t23 51.5t18 63.5t18.5 83q1 3 1 5l10 47q25 113 25 165q0 40 -14.5 58.5t-49.5 18.5q-24 0 -42.5 -11.5t-30 -27.5t-23 -51.5t-18 -63.5t-18.5 -83q-1 -3 -1 -5l-10 -47q-25 -113 -25 -165zM564 371l-16 -76
q-37 -170 -100.5 -239t-196.5 -69q-117 0 -169 48.5t-52 156.5q0 69 21 162l16 76q35 168 99.5 238t197.5 70q117 0 168.5 -48.5t51.5 -156.5q0 -64 -20 -162zM219 775l137 113h138l95 -113h-145l-30 50l-49 -50h-146z" />
    <glyph glyph-name="Otilde" unicode="&#xd5;" horiz-adv-x="575" 
d="M191 174q0 -77 64 -77q24 0 42.5 11.5t30 27.5t23 51.5t18 63.5t18.5 83q1 3 1 5l10 47q25 113 25 165q0 40 -14.5 58.5t-49.5 18.5q-24 0 -42.5 -11.5t-30 -27.5t-23 -51.5t-18 -63.5t-18.5 -83q-1 -3 -1 -5l-10 -47q-25 -113 -25 -165zM564 371l-16 -76
q-37 -170 -100.5 -239t-196.5 -69q-117 0 -169 48.5t-52 156.5q0 69 21 162l16 76q35 168 99.5 238t197.5 70q117 0 168.5 -48.5t51.5 -156.5q0 -64 -20 -162zM308 775h-97q43 113 155 113q29 0 57 -18t43 -18q33 0 46 36h97q-45 -113 -155 -113q-30 0 -58.5 17t-40.5 17
q-35 0 -47 -34z" />
    <glyph glyph-name="Odieresis" unicode="&#xd6;" horiz-adv-x="575" 
d="M191 174q0 -77 64 -77q24 0 42.5 11.5t30 27.5t23 51.5t18 63.5t18.5 83q1 3 1 5l10 47q25 113 25 165q0 40 -14.5 58.5t-49.5 18.5q-24 0 -42.5 -11.5t-30 -27.5t-23 -51.5t-18 -63.5t-18.5 -83q-1 -3 -1 -5l-10 -47q-25 -113 -25 -165zM564 371l-16 -76
q-37 -170 -100.5 -239t-196.5 -69q-117 0 -169 48.5t-52 156.5q0 69 21 162l16 76q35 168 99.5 238t197.5 70q117 0 168.5 -48.5t51.5 -156.5q0 -64 -20 -162zM229 775l24 113h134l-24 -113h-134zM427 775l24 113h133l-24 -113h-133z" />
    <glyph glyph-name="multiply" unicode="&#xd7;" 
d="M121 30l-80 84l150 150l-152 153l82 83l153 -154l152 152l82 -82l-152 -152l152 -152l-82 -82l-153 152z" />
    <glyph glyph-name="Oslash" unicode="&#xd8;" horiz-adv-x="575" 
d="M61 -60h-57l68 106q-42 50 -42 146q0 69 21 162l16 76q35 168 99.5 238t197.5 70q85 0 135 -26l55 86h57l-74 -115q47 -50 47 -150q0 -64 -20 -162l-16 -76q-37 -170 -100.5 -239t-196.5 -69q-88 0 -141 29zM388 339l10 47q3 16 7.5 39.5t8 41t5.5 31.5l-226 -352
q9 -49 62 -49q24 0 42.5 11.5t30 27.5t23 51.5t18 63.5t18.5 83q1 3 1 5zM226 386l-10 -47q-9 -42 -19 -98l222 346q-12 41 -60 41q-24 0 -42.5 -11.5t-30 -27.5t-23 -51.5t-18 -63.5t-18.5 -83q-1 -3 -1 -5z" />
    <glyph glyph-name="Ugrave" unicode="&#xd9;" horiz-adv-x="561" 
d="M320 775l-133 113h189l77 -113h-133zM614 725l-92 -432q-20 -96 -40 -150t-54.5 -92t-82 -51t-124.5 -13q-108 0 -151.5 30.5t-43.5 109.5q0 60 23 166l92 432h159l-93 -439q-21 -100 -21 -131q0 -30 13 -44t44 -14q53 0 74.5 39.5t44.5 149.5l93 439h159z" />
    <glyph glyph-name="Uacute" unicode="&#xda;" horiz-adv-x="561" 
d="M320 775l79 113h188l-134 -113h-133zM614 725l-92 -432q-20 -96 -40 -150t-54.5 -92t-82 -51t-124.5 -13q-108 0 -151.5 30.5t-43.5 109.5q0 60 23 166l92 432h159l-93 -439q-21 -100 -21 -131q0 -30 13 -44t44 -14q53 0 74.5 39.5t44.5 149.5l93 439h159z" />
    <glyph glyph-name="Ucircumflex" unicode="&#xdb;" horiz-adv-x="561" 
d="M614 725l-92 -432q-20 -96 -40 -150t-54.5 -92t-82 -51t-124.5 -13q-108 0 -151.5 30.5t-43.5 109.5q0 60 23 166l92 432h159l-93 -439q-21 -100 -21 -131q0 -30 13 -44t44 -14q53 0 74.5 39.5t44.5 149.5l93 439h159zM207 775l137 113h138l95 -113h-145l-30 50l-49 -50
h-146z" />
    <glyph glyph-name="Udieresis" unicode="&#xdc;" horiz-adv-x="561" 
d="M226 775l24 113h134l-24 -113h-134zM424 775l24 113h133l-24 -113h-133zM614 725l-92 -432q-20 -96 -40 -150t-54.5 -92t-82 -51t-124.5 -13q-108 0 -151.5 30.5t-43.5 109.5q0 60 23 166l92 432h159l-93 -439q-21 -100 -21 -131q0 -30 13 -44t44 -14q53 0 74.5 39.5
t44.5 149.5l93 439h159z" />
    <glyph glyph-name="Yacute" unicode="&#xdd;" horiz-adv-x="521" 
d="M293 775l79 113h188l-134 -113h-133zM122 0l64 303l-89 422h143l46 -282l168 282h164l-273 -424l-64 -301h-159z" />
    <glyph glyph-name="Thorn" unicode="&#xde;" horiz-adv-x="518" 
d="M-3 0l154 725h159l-32 -150h17q132 0 188 -33t56 -126q0 -131 -74 -205t-210 -74h-70l-29 -137h-159zM208 244h44q128 0 128 154q0 43 -23.5 57t-81.5 14h-19z" />
    <glyph glyph-name="germandbls" unicode="&#xdf;" horiz-adv-x="538" 
d="M-13 0l112 527q25 121 86 166t168 45q88 0 144.5 -35.5t56.5 -101.5q0 -145 -128 -193q81 -28 81 -122q0 -126 -65 -206t-197 -80h-60l20 94h43q53 0 79 49t26 131q0 76 -64 76h-31l21 95h24q44 0 70 37.5t26 100.5q0 57 -55 57q-36 0 -56.5 -22.5t-32.5 -80.5l-114 -537
h-154z" />
    <glyph glyph-name="agrave" unicode="&#xe0;" horiz-adv-x="482" 
d="M248 0l8 62q-29 -41 -61 -58t-79 -17q-58 0 -91 33.5t-33 89.5q0 24 5 44l2 10q15 66 77 104q39 24 141 57l84 26l6 28q6 30 6 39q0 45 -48 45q-37 0 -53.5 -18t-25.5 -64l-1 -5h-133l1 5q17 90 70.5 131.5t156.5 41.5q56 0 92.5 -9t62 -40.5t25.5 -87.5q0 -38 -10 -82
l-36 -169q-26 -119 -29 -166h-137zM143 122q0 -41 40 -41q35 0 56.5 27t33.5 85l16 76q-18 -8 -27 -11l-25 -8q-43 -14 -62 -32.5t-25 -50.5l-4 -15q-3 -16 -3 -30zM283 602l-97 123h175l37 -123h-115z" />
    <glyph glyph-name="aacute" unicode="&#xe1;" horiz-adv-x="482" 
d="M248 0l8 62q-29 -41 -61 -58t-79 -17q-58 0 -91 33.5t-33 89.5q0 24 5 44l2 10q15 66 77 104q39 24 141 57l84 26l6 28q6 30 6 39q0 45 -48 45q-37 0 -53.5 -18t-25.5 -64l-1 -5h-133l1 5q17 90 70.5 131.5t156.5 41.5q56 0 92.5 -9t62 -40.5t25.5 -87.5q0 -38 -10 -82
l-36 -169q-26 -119 -29 -166h-137zM143 122q0 -41 40 -41q35 0 56.5 27t33.5 85l16 76q-18 -8 -27 -11l-25 -8q-43 -14 -62 -32.5t-25 -50.5l-4 -15q-3 -16 -3 -30zM214 602l89 123h175l-148 -123h-116z" />
    <glyph glyph-name="acircumflex" unicode="&#xe2;" horiz-adv-x="482" 
d="M119 602l144 123h128l92 -123h-136l-35 52l-57 -52h-136zM248 0l8 62q-29 -41 -61 -58t-79 -17q-58 0 -91 33.5t-33 89.5q0 24 5 44l2 10q15 66 77 104q39 24 141 57l84 26l6 28q6 30 6 39q0 45 -48 45q-37 0 -53.5 -18t-25.5 -64l-1 -5h-133l1 5q17 90 70.5 131.5
t156.5 41.5q56 0 92.5 -9t62 -40.5t25.5 -87.5q0 -38 -10 -82l-36 -169q-26 -119 -29 -166h-137zM143 122q0 -41 40 -41q35 0 56.5 27t33.5 85l16 76q-18 -8 -27 -11l-25 -8q-43 -14 -62 -32.5t-25 -50.5l-4 -15q-3 -16 -3 -30z" />
    <glyph glyph-name="atilde" unicode="&#xe3;" horiz-adv-x="482" 
d="M204 603h-84q39 122 123 122q26 0 64.5 -17.5t47.5 -17.5q11 0 22 10t16 25h84q-20 -64 -51 -93t-64 -29q-21 0 -66 16.5t-59 16.5q-10 0 -16.5 -7.5t-16.5 -25.5zM248 0l8 62q-29 -41 -61 -58t-79 -17q-58 0 -91 33.5t-33 89.5q0 24 5 44l2 10q15 66 77 104
q39 24 141 57l84 26l6 28q6 30 6 39q0 45 -48 45q-37 0 -53.5 -18t-25.5 -64l-1 -5h-133l1 5q17 90 70.5 131.5t156.5 41.5q56 0 92.5 -9t62 -40.5t25.5 -87.5q0 -38 -10 -82l-36 -169q-26 -119 -29 -166h-137zM143 122q0 -41 40 -41q35 0 56.5 27t33.5 85l16 76
q-18 -8 -27 -11l-25 -8q-43 -14 -62 -32.5t-25 -50.5l-4 -15q-3 -16 -3 -30z" />
    <glyph glyph-name="adieresis" unicode="&#xe4;" horiz-adv-x="482" 
d="M144 602l26 123h133l-26 -123h-133zM344 602l26 123h134l-26 -123h-134zM248 0l8 62q-29 -41 -61 -58t-79 -17q-58 0 -91 33.5t-33 89.5q0 24 5 44l2 10q15 66 77 104q39 24 141 57l84 26l6 28q6 30 6 39q0 45 -48 45q-37 0 -53.5 -18t-25.5 -64l-1 -5h-133l1 5
q17 90 70.5 131.5t156.5 41.5q56 0 92.5 -9t62 -40.5t25.5 -87.5q0 -38 -10 -82l-36 -169q-26 -119 -29 -166h-137zM143 122q0 -41 40 -41q35 0 56.5 27t33.5 85l16 76q-18 -8 -27 -11l-25 -8q-43 -14 -62 -32.5t-25 -50.5l-4 -15q-3 -16 -3 -30z" />
    <glyph glyph-name="aring" unicode="&#xe5;" horiz-adv-x="482" 
d="M419 678q0 -39 -27.5 -64t-67.5 -25t-67.5 25t-27.5 64t27.5 64.5t67.5 25.5t67.5 -25.5t27.5 -64.5zM283 678q0 -17 12 -28.5t29 -11.5t29 11.5t12 28.5q0 18 -12 29.5t-29 11.5t-29 -11.5t-12 -29.5zM248 0l8 62q-29 -41 -61 -58t-79 -17q-58 0 -91 33.5t-33 89.5
q0 24 5 44l2 10q15 66 77 104q39 24 141 57l84 26l6 28q6 30 6 39q0 45 -48 45q-37 0 -53.5 -18t-25.5 -64l-1 -5h-133l1 5q17 90 70.5 131.5t156.5 41.5q56 0 92.5 -9t62 -40.5t25.5 -87.5q0 -38 -10 -82l-36 -169q-26 -119 -29 -166h-137zM143 122q0 -41 40 -41
q35 0 56.5 27t33.5 85l16 76q-18 -8 -27 -11l-25 -8q-43 -14 -62 -32.5t-25 -50.5l-4 -15q-3 -16 -3 -30z" />
    <glyph glyph-name="ae" unicode="&#xe6;" horiz-adv-x="749" 
d="M289 68q-42 -47 -81 -64t-101 -17q-57 0 -87.5 29t-30.5 81q0 25 5 45l2 11q14 61 62 97q36 28 161 70l85 25l10 46q3 13 3 24q0 40 -49 40q-37 0 -54 -16.5t-27 -60.5l-1 -9h-134l2 9q36 168 236 168q97 0 131 -51q47 51 144 51q92 0 133 -38t41 -117q0 -45 -14 -112
l-6 -29h-284l-8 -36q-9 -42 -9 -72q0 -57 47 -57q32 0 53 18.5t32 70.5l1 4h145l-1 -5q-14 -68 -56 -111.5t-90.5 -59t-106.5 -15.5q-66 0 -106.5 23.5t-46.5 57.5zM144 121q0 -41 41 -41q35 0 56 26t34 83l16 76q-9 -4 -26.5 -10t-25.5 -10q-44 -14 -63 -32.5t-25 -51.5
l-3 -13q-4 -12 -4 -27zM452 330h142l5 25q4 17 4 36q0 59 -55 59q-40 0 -60 -23t-30 -69z" />
    <glyph glyph-name="ccedilla" unicode="&#xe7;" horiz-adv-x="464" 
d="M431 192l-1 -6q-23 -110 -80 -154.5t-146 -44.5q-190 0 -190 174q0 29 8 75l19 87q24 121 81.5 175.5t166.5 54.5q87 0 134.5 -38.5t47.5 -110.5q0 -18 -5 -50l-1 -5h-143l1 4q7 25 7 49q0 52 -50 52q-39 0 -56.5 -35.5t-35.5 -124.5l-10 -47q-14 -67 -14 -103
q0 -30 11.5 -44t37.5 -14q27 0 45 20.5t29 79.5l1 6h143zM278 -99q0 -41 -45 -68.5t-104 -27.5q-55 0 -92 15l27 50q23 -14 60 -14q25 0 42 9t17 26q0 21 -35 21q-24 0 -41 -9l-26 17l69 82h58l-44 -50q18 3 40 3q31 0 52.5 -14t21.5 -40z" />
    <glyph glyph-name="egrave" unicode="&#xe8;" horiz-adv-x="492" 
d="M441 181l-1 -6q-37 -188 -234 -188q-192 0 -192 175q0 31 8 74l19 87q24 121 81.5 175.5t166.5 54.5q99 0 145 -41t46 -130q0 -39 -13 -99l-6 -29h-283l-1 -7q-13 -65 -13 -98t12 -48t39 -15q32 0 51 18t30 71l1 6h144zM198 346l-2 -10h142l2 9q6 27 6 47q0 64 -65 64
q-20 0 -35 -9t-24 -27.5t-14 -34t-10 -39.5zM278 602l-97 123h175l37 -123h-115z" />
    <glyph glyph-name="eacute" unicode="&#xe9;" horiz-adv-x="492" 
d="M441 181l-1 -6q-37 -188 -234 -188q-192 0 -192 175q0 31 8 74l19 87q24 121 81.5 175.5t166.5 54.5q99 0 145 -41t46 -130q0 -39 -13 -99l-6 -29h-283l-1 -7q-13 -65 -13 -98t12 -48t39 -15q32 0 51 18t30 71l1 6h144zM198 346l-2 -10h142l2 9q6 27 6 47q0 64 -65 64
q-20 0 -35 -9t-24 -27.5t-14 -34t-10 -39.5zM240 602l89 123h175l-148 -123h-116z" />
    <glyph glyph-name="ecircumflex" unicode="&#xea;" horiz-adv-x="492" 
d="M123 602l144 123h128l92 -123h-136l-35 52l-57 -52h-136zM441 181l-1 -6q-37 -188 -234 -188q-192 0 -192 175q0 31 8 74l19 87q24 121 81.5 175.5t166.5 54.5q99 0 145 -41t46 -130q0 -39 -13 -99l-6 -29h-283l-1 -7q-13 -65 -13 -98t12 -48t39 -15q32 0 51 18t30 71
l1 6h144zM198 346l-2 -10h142l2 9q6 27 6 47q0 64 -65 64q-20 0 -35 -9t-24 -27.5t-14 -34t-10 -39.5z" />
    <glyph glyph-name="edieresis" unicode="&#xeb;" horiz-adv-x="492" 
d="M441 181l-1 -6q-37 -188 -234 -188q-192 0 -192 175q0 31 8 74l19 87q24 121 81.5 175.5t166.5 54.5q99 0 145 -41t46 -130q0 -39 -13 -99l-6 -29h-283l-1 -7q-13 -65 -13 -98t12 -48t39 -15q32 0 51 18t30 71l1 6h144zM198 346l-2 -10h142l2 9q6 27 6 47q0 64 -65 64
q-20 0 -35 -9t-24 -27.5t-14 -34t-10 -39.5zM156 602l26 123h133l-26 -123h-133zM356 602l26 123h134l-26 -123h-134z" />
    <glyph glyph-name="igrave" unicode="&#xec;" horiz-adv-x="239" 
d="M139 602l-97 123h175l37 -123h-115zM-14 0l114 538h154l-114 -538h-154z" />
    <glyph glyph-name="iacute" unicode="&#xed;" horiz-adv-x="239" 
d="M132 602l89 123h175l-148 -123h-116zM-14 0l114 538h154l-114 -538h-154z" />
    <glyph glyph-name="icircumflex" unicode="&#xee;" horiz-adv-x="239" 
d="M18 602l134 123h128l82 -123h-136l-25 52l-47 -52h-136zM-14 0l114 538h154l-114 -538h-154z" />
    <glyph glyph-name="idieresis" unicode="&#xef;" horiz-adv-x="239" 
d="M26 602l26 123h133l-26 -123h-133zM222 602l26 123h134l-26 -123h-134zM-14 0l114 538h154l-114 -538h-154z" />
    <glyph glyph-name="eth" unicode="&#xf0;" horiz-adv-x="498" 
d="M202 570l-52 27l79 42q-42 27 -67 41l110 58q31 -16 64 -41l71 38l52 -28l-84 -45q109 -111 109 -281q0 -43 -7 -86l-15 -70q-27 -121 -92.5 -179.5t-179.5 -58.5q-179 0 -179 157q0 36 9 81l17 82q25 120 91.5 179.5t180.5 59.5q24 0 40 -4l2 2q-24 27 -77 64zM165 139
q0 -27 10.5 -40.5t35.5 -13.5q41 0 60 36t37 122l9 46q17 68 17 106q0 27 -10.5 40t-35.5 13q-42 0 -61 -36.5t-37 -122.5l-9 -46q-16 -76 -16 -104z" />
    <glyph glyph-name="ntilde" unicode="&#xf1;" horiz-adv-x="507" 
d="M229 603h-84q39 122 123 122q26 0 64.5 -17.5t47.5 -17.5q11 0 22 10t16 25h84q-20 -64 -51 -93t-64 -29q-21 0 -66 16.5t-59 16.5q-10 0 -16.5 -7.5t-16.5 -25.5zM-14 0l114 538h154l-14 -66q28 42 61 61.5t80 19.5q114 0 114 -118q0 -38 -10 -84l-75 -351h-154l67 317
q14 70 14 84q0 47 -36 47q-40 0 -61.5 -42.5t-39.5 -121.5l-60 -284h-154z" />
    <glyph glyph-name="ograve" unicode="&#xf2;" horiz-adv-x="494" 
d="M269 602l-97 123h175l37 -123h-115zM165 147q0 -62 51 -62q14 0 25 4t19.5 15.5t14 22t11.5 33.5t9.5 38.5t10.5 48.5l9 45q15 77 15 101q0 61 -51 61q-17 0 -29.5 -7.5t-20.5 -18t-16 -35t-12 -43t-12 -57.5l-10 -47q-14 -72 -14 -99zM473 303l-18 -85
q-27 -124 -82.5 -178t-165.5 -54q-193 0 -193 175q0 31 8 74l18 87q27 123 83 177t166 54q192 0 192 -174q0 -33 -8 -76z" />
    <glyph glyph-name="oacute" unicode="&#xf3;" horiz-adv-x="494" 
d="M260 602l89 123h175l-148 -123h-116zM165 147q0 -62 51 -62q14 0 25 4t19.5 15.5t14 22t11.5 33.5t9.5 38.5t10.5 48.5l9 45q15 77 15 101q0 61 -51 61q-17 0 -29.5 -7.5t-20.5 -18t-16 -35t-12 -43t-12 -57.5l-10 -47q-14 -72 -14 -99zM473 303l-18 -85
q-27 -124 -82.5 -178t-165.5 -54q-193 0 -193 175q0 31 8 74l18 87q27 123 83 177t166 54q192 0 192 -174q0 -33 -8 -76z" />
    <glyph glyph-name="ocircumflex" unicode="&#xf4;" horiz-adv-x="494" 
d="M165 147q0 -62 51 -62q14 0 25 4t19.5 15.5t14 22t11.5 33.5t9.5 38.5t10.5 48.5l9 45q15 77 15 101q0 61 -51 61q-17 0 -29.5 -7.5t-20.5 -18t-16 -35t-12 -43t-12 -57.5l-10 -47q-14 -72 -14 -99zM473 303l-18 -85q-27 -124 -82.5 -178t-165.5 -54q-193 0 -193 175
q0 31 8 74l18 87q27 123 83 177t166 54q192 0 192 -174q0 -33 -8 -76zM138 602l144 123h128l92 -123h-136l-35 52l-57 -52h-136z" />
    <glyph glyph-name="otilde" unicode="&#xf5;" horiz-adv-x="494" 
d="M165 147q0 -62 51 -62q14 0 25 4t19.5 15.5t14 22t11.5 33.5t9.5 38.5t10.5 48.5l9 45q15 77 15 101q0 61 -51 61q-17 0 -29.5 -7.5t-20.5 -18t-16 -35t-12 -43t-12 -57.5l-10 -47q-14 -72 -14 -99zM473 303l-18 -85q-27 -124 -82.5 -178t-165.5 -54q-193 0 -193 175
q0 31 8 74l18 87q27 123 83 177t166 54q192 0 192 -174q0 -33 -8 -76zM239 603h-84q39 122 123 122q26 0 64.5 -17.5t47.5 -17.5q11 0 22 10t16 25h84q-20 -64 -51 -93t-64 -29q-21 0 -66 16.5t-59 16.5q-10 0 -16.5 -7.5t-16.5 -25.5z" />
    <glyph glyph-name="odieresis" unicode="&#xf6;" horiz-adv-x="494" 
d="M165 147q0 -62 51 -62q14 0 25 4t19.5 15.5t14 22t11.5 33.5t9.5 38.5t10.5 48.5l9 45q15 77 15 101q0 61 -51 61q-17 0 -29.5 -7.5t-20.5 -18t-16 -35t-12 -43t-12 -57.5l-10 -47q-14 -72 -14 -99zM473 303l-18 -85q-27 -124 -82.5 -178t-165.5 -54q-193 0 -193 175
q0 31 8 74l18 87q27 123 83 177t166 54q192 0 192 -174q0 -33 -8 -76zM159 602l26 123h133l-26 -123h-133zM359 602l26 123h134l-26 -123h-134z" />
    <glyph glyph-name="divide" unicode="&#xf7;" 
d="M193 12v151h160v-151h-160zM43 211v116h462v-116h-462zM193 375v150h160v-150h-160z" />
    <glyph glyph-name="oslash" unicode="&#xf8;" horiz-adv-x="498" 
d="M56 -60h-53l59 92q-48 45 -48 129q0 31 8 74l18 87q27 123 83 177t166 54q57 0 98 -18l48 75h52l-62 -97q56 -45 56 -134q0 -33 -8 -76l-18 -85q-27 -124 -82.5 -178t-165.5 -54q-61 0 -108 21zM306 247l9 45l12 70l-158 -247q9 -30 47 -30q14 0 25 4t19.5 15.5t14 22
t11.5 33.5t9.5 38.5t10.5 48.5zM189 293l-10 -47q-2 -10 -5 -26.5t-4 -20.5l151 235q-12 20 -42 20q-17 0 -29.5 -7.5t-20.5 -18t-16 -35t-12 -43t-12 -57.5z" />
    <glyph glyph-name="ugrave" unicode="&#xf9;" horiz-adv-x="503" 
d="M274 602l-97 123h175l37 -123h-115zM244 0l14 66q-27 -42 -60 -60.5t-81 -18.5q-53 0 -79.5 25t-26.5 84q0 37 12 91l74 351h154l-67 -317q-16 -74 -16 -91q0 -37 30 -37q39 0 61 41.5t39 119.5l60 284h153l-108 -538h-159z" />
    <glyph glyph-name="uacute" unicode="&#xfa;" horiz-adv-x="503" 
d="M260 602l89 123h175l-148 -123h-116zM244 0l14 66q-27 -42 -60 -60.5t-81 -18.5q-53 0 -79.5 25t-26.5 84q0 37 12 91l74 351h154l-67 -317q-16 -74 -16 -91q0 -37 30 -37q39 0 61 41.5t39 119.5l60 284h153l-108 -538h-159z" />
    <glyph glyph-name="ucircumflex" unicode="&#xfb;" horiz-adv-x="503" 
d="M129 602l144 123h128l92 -123h-136l-35 52l-57 -52h-136zM244 0l14 66q-27 -42 -60 -60.5t-81 -18.5q-53 0 -79.5 25t-26.5 84q0 37 12 91l74 351h154l-67 -317q-16 -74 -16 -91q0 -37 30 -37q39 0 61 41.5t39 119.5l60 284h153l-108 -538h-159z" />
    <glyph glyph-name="udieresis" unicode="&#xfc;" horiz-adv-x="503" 
d="M150 602l26 123h133l-26 -123h-133zM350 602l26 123h134l-26 -123h-134zM244 0l14 66q-27 -42 -60 -60.5t-81 -18.5q-53 0 -79.5 25t-26.5 84q0 37 12 91l74 351h154l-67 -317q-16 -74 -16 -91q0 -37 30 -37q39 0 61 41.5t39 119.5l60 284h153l-108 -538h-159z" />
    <glyph glyph-name="yacute" unicode="&#xfd;" horiz-adv-x="430" 
d="M232 602l89 123h175l-148 -123h-116zM-39 -175l20 94h37q31 0 45.5 12.5t27.5 43.5l12 27l-46 536h140l11 -390l140 390h144l-235 -538q-47 -109 -89 -142t-145 -33h-62z" />
    <glyph glyph-name="thorn" unicode="&#xfe;" horiz-adv-x="520" 
d="M-51 -175l191 900h154l-52 -246q48 75 135 75q133 0 133 -153q0 -39 -11 -94l-15 -71q-28 -133 -74.5 -191t-132.5 -58q-44 0 -76.5 22.5t-44.5 63.5l-53 -248h-154zM178 164q0 -37 13 -55t44 -18q40 0 58 37t39 131l5 25q15 72 15 103q0 32 -12 47.5t-40 15.5
q-71 0 -107 -179q-15 -72 -15 -107z" />
    <glyph glyph-name="ydieresis" unicode="&#xff;" horiz-adv-x="430" 
d="M127 602l26 123h133l-26 -123h-133zM327 602l26 123h134l-26 -123h-134zM-39 -175l20 94h37q31 0 45.5 12.5t27.5 43.5l12 27l-46 536h140l11 -390l140 390h144l-235 -538q-47 -109 -89 -142t-145 -33h-62z" />
    <glyph glyph-name="Amacron" unicode="&#x100;" 
d="M-52 0l326 725h192l20 -725h-155l2 152h-163l-61 -152h-161zM338 571l-128 -318h124zM260 780l22 103h253l-22 -103h-253z" />
    <glyph glyph-name="amacron" unicode="&#x101;" horiz-adv-x="482" 
d="M183 614l21 100h252l-21 -100h-252zM248 0l8 62q-29 -41 -61 -58t-79 -17q-58 0 -91 33.5t-33 89.5q0 24 5 44l2 10q15 66 77 104q39 24 141 57l84 26l6 28q6 30 6 39q0 45 -48 45q-37 0 -53.5 -18t-25.5 -64l-1 -5h-133l1 5q17 90 70.5 131.5t156.5 41.5q56 0 92.5 -9
t62 -40.5t25.5 -87.5q0 -38 -10 -82l-36 -169q-26 -119 -29 -166h-137zM143 122q0 -41 40 -41q35 0 56.5 27t33.5 85l16 76q-18 -8 -27 -11l-25 -8q-43 -14 -62 -32.5t-25 -50.5l-4 -15q-3 -16 -3 -30z" />
    <glyph glyph-name="Abreve" unicode="&#x102;" 
d="M-52 0l326 725h192l20 -725h-155l2 152h-163l-61 -152h-161zM338 571l-128 -318h124zM462 888h109q-25 -113 -166 -113q-71 0 -114.5 24.5t-43.5 68.5q0 10 3 20h109q-1 -2 -1 -8q0 -20 17 -29t39 -9q41 0 48 46z" />
    <glyph glyph-name="abreve" unicode="&#x103;" horiz-adv-x="482" 
d="M375 725h103q-17 -62 -53.5 -92.5t-112.5 -30.5q-129 0 -129 97q0 8 2 26h103q-2 -14 -2 -17q0 -30 34 -30q43 0 55 47zM248 0l8 62q-29 -41 -61 -58t-79 -17q-58 0 -91 33.5t-33 89.5q0 24 5 44l2 10q15 66 77 104q39 24 141 57l84 26l6 28q6 30 6 39q0 45 -48 45
q-37 0 -53.5 -18t-25.5 -64l-1 -5h-133l1 5q17 90 70.5 131.5t156.5 41.5q56 0 92.5 -9t62 -40.5t25.5 -87.5q0 -38 -10 -82l-36 -169q-26 -119 -29 -166h-137zM143 122q0 -41 40 -41q35 0 56.5 27t33.5 85l16 76q-18 -8 -27 -11l-25 -8q-43 -14 -62 -32.5t-25 -50.5l-4 -15
q-3 -16 -3 -30z" />
    <glyph glyph-name="Aogonek" unicode="&#x104;" 
d="M-52 0l326 725h192l20 -725q-59 -25 -84 -42t-25 -40q0 -24 38 -24q18 0 48 6l-17 -79q-35 -9 -86 -9q-54 0 -87.5 18t-33.5 55q0 32 25.5 63t66.5 52l2 152h-163l-61 -152h-161zM338 571l-128 -318h124z" />
    <glyph glyph-name="aogonek" unicode="&#x105;" horiz-adv-x="482" 
d="M248 0l8 62q-29 -41 -61 -58t-79 -17q-58 0 -91 33.5t-33 89.5q0 24 5 44l2 10q15 66 77 104q39 24 141 57l84 26l6 28q6 30 6 39q0 45 -48 45q-37 0 -53.5 -18t-25.5 -64l-1 -5h-133l1 5q17 90 70.5 131.5t156.5 41.5q56 0 92.5 -9t62 -40.5t25.5 -87.5q0 -38 -10 -82
l-36 -169q-26 -119 -29 -166q-61 -26 -85 -41.5t-24 -38.5q0 -11 13 -18.5t30 -7.5q18 0 58 8l-17 -79q-42 -11 -96 -11q-51 0 -80 19.5t-29 56.5q0 65 93 112zM143 122q0 -41 40 -41q35 0 56.5 27t33.5 85l16 76q-18 -8 -27 -11l-25 -8q-43 -14 -62 -32.5t-25 -50.5l-4 -15
q-3 -16 -3 -30z" />
    <glyph glyph-name="Cacute" unicode="&#x106;" horiz-adv-x="541" 
d="M514 243l-2 -10q-31 -134 -87.5 -190t-175.5 -56q-116 0 -167.5 48.5t-51.5 154.5q0 70 21 164l16 76q35 169 100 238.5t199 69.5q210 0 210 -170q0 -25 -9 -76l-2 -10h-158l2 10q10 47 10 73q0 35 -14.5 49t-45.5 14q-24 0 -42.5 -11.5t-30 -27.5t-23 -51.5t-18 -63.5
t-18.5 -83q-1 -3 -1 -5l-10 -47q-25 -113 -25 -165q0 -77 64 -77q40 0 60.5 28t38.5 108l2 10h158zM320 775l79 113h188l-134 -113h-133z" />
    <glyph glyph-name="cacute" unicode="&#x107;" horiz-adv-x="464" 
d="M431 192l-1 -6q-23 -110 -80 -154.5t-146 -44.5q-190 0 -190 174q0 29 8 75l19 87q24 121 81.5 175.5t166.5 54.5q87 0 134.5 -38.5t47.5 -110.5q0 -18 -5 -50l-1 -5h-143l1 4q7 25 7 49q0 52 -50 52q-39 0 -56.5 -35.5t-35.5 -124.5l-10 -47q-14 -67 -14 -103
q0 -30 11.5 -44t37.5 -14q27 0 45 20.5t29 79.5l1 6h143zM249 602l89 123h175l-148 -123h-116z" />
    <glyph glyph-name="Ccircumflex" unicode="&#x108;" horiz-adv-x="541" 
d="M514 243l-2 -10q-31 -134 -87.5 -190t-175.5 -56q-116 0 -167.5 48.5t-51.5 154.5q0 70 21 164l16 76q35 169 100 238.5t199 69.5q210 0 210 -170q0 -25 -9 -76l-2 -10h-158l2 10q10 47 10 73q0 35 -14.5 49t-45.5 14q-24 0 -42.5 -11.5t-30 -27.5t-23 -51.5t-18 -63.5
t-18.5 -83q-1 -3 -1 -5l-10 -47q-25 -113 -25 -165q0 -77 64 -77q40 0 60.5 28t38.5 108l2 10h158zM204 775l137 113h138l95 -113h-145l-30 50l-49 -50h-146z" />
    <glyph glyph-name="ccircumflex" unicode="&#x109;" horiz-adv-x="464" 
d="M131 602l144 123h128l92 -123h-136l-35 52l-57 -52h-136zM431 192l-1 -6q-23 -110 -80 -154.5t-146 -44.5q-190 0 -190 174q0 29 8 75l19 87q24 121 81.5 175.5t166.5 54.5q87 0 134.5 -38.5t47.5 -110.5q0 -18 -5 -50l-1 -5h-143l1 4q7 25 7 49q0 52 -50 52
q-39 0 -56.5 -35.5t-35.5 -124.5l-10 -47q-14 -67 -14 -103q0 -30 11.5 -44t37.5 -14q27 0 45 20.5t29 79.5l1 6h143z" />
    <glyph glyph-name="Cdotaccent" unicode="&#x10a;" horiz-adv-x="541" 
d="M514 243l-2 -10q-31 -134 -87.5 -190t-175.5 -56q-116 0 -167.5 48.5t-51.5 154.5q0 70 21 164l16 76q35 169 100 238.5t199 69.5q210 0 210 -170q0 -25 -9 -76l-2 -10h-158l2 10q10 47 10 73q0 35 -14.5 49t-45.5 14q-24 0 -42.5 -11.5t-30 -27.5t-23 -51.5t-18 -63.5
t-18.5 -83q-1 -3 -1 -5l-10 -47q-25 -113 -25 -165q0 -77 64 -77q40 0 60.5 28t38.5 108l2 10h158zM313 775l24 113h159l-24 -113h-159z" />
    <glyph glyph-name="cdotaccent" unicode="&#x10b;" horiz-adv-x="464" 
d="M431 192l-1 -6q-23 -110 -80 -154.5t-146 -44.5q-190 0 -190 174q0 29 8 75l19 87q24 121 81.5 175.5t166.5 54.5q87 0 134.5 -38.5t47.5 -110.5q0 -18 -5 -50l-1 -5h-143l1 4q7 25 7 49q0 52 -50 52q-39 0 -56.5 -35.5t-35.5 -124.5l-10 -47q-14 -67 -14 -103
q0 -30 11.5 -44t37.5 -14q27 0 45 20.5t29 79.5l1 6h143zM255 603l27 122h133l-25 -122h-135z" />
    <glyph glyph-name="Ccaron" unicode="&#x10c;" horiz-adv-x="541" 
d="M435 775h-138l-92 113h145l29 -49l50 49h146zM514 243l-2 -10q-31 -134 -87.5 -190t-175.5 -56q-116 0 -167.5 48.5t-51.5 154.5q0 70 21 164l16 76q35 169 100 238.5t199 69.5q210 0 210 -170q0 -25 -9 -76l-2 -10h-158l2 10q10 47 10 73q0 35 -14.5 49t-45.5 14
q-24 0 -42.5 -11.5t-30 -27.5t-23 -51.5t-18 -63.5t-18.5 -83q-1 -3 -1 -5l-10 -47q-25 -113 -25 -165q0 -77 64 -77q40 0 60.5 28t38.5 108l2 10h158z" />
    <glyph glyph-name="ccaron" unicode="&#x10d;" horiz-adv-x="464" 
d="M259 602l-94 123h136l35 -52l57 52h135l-143 -123h-126zM431 192l-1 -6q-23 -110 -80 -154.5t-146 -44.5q-190 0 -190 174q0 29 8 75l19 87q24 121 81.5 175.5t166.5 54.5q87 0 134.5 -38.5t47.5 -110.5q0 -18 -5 -50l-1 -5h-143l1 4q7 25 7 49q0 52 -50 52
q-39 0 -56.5 -35.5t-35.5 -124.5l-10 -47q-14 -67 -14 -103q0 -30 11.5 -44t37.5 -14q27 0 45 20.5t29 79.5l1 6h143z" />
    <glyph glyph-name="Dcaron" unicode="&#x10e;" horiz-adv-x="566" 
d="M430 775h-138l-92 113h145l29 -49l50 49h146zM179 107h50q25 0 43.5 6t33 21.5t24 30.5t19.5 47t15.5 56.5t15.5 70.5l10 47q23 115 23 155t-17 59t-58 19h-50zM-3 0l154 725h192q124 0 178.5 -45t54.5 -147q0 -67 -21 -162l-16 -76q-24 -115 -57 -176t-94.5 -90
t-167.5 -29h-223z" />
    <glyph glyph-name="dcaron" unicode="&#x10f;" horiz-adv-x="655" 
d="M265 0l13 62q-48 -75 -134 -75q-133 0 -133 153q0 38 11 95l15 71q29 133 74.5 190t132.5 57q44 0 76 -22t44 -63l55 257h154l-154 -725h-154zM169 155q0 -33 12 -48.5t40 -15.5q71 0 107 179q15 72 15 107q0 72 -57 72q-40 0 -60.5 -39t-37.5 -128l-5 -25
q-14 -75 -14 -102zM572 555l60 170h143l-100 -170h-103z" />
    <glyph glyph-name="Dcroat" unicode="&#x110;" horiz-adv-x="576" 
d="M6 308l25 116h66l64 301h192q124 0 178.5 -45t54.5 -147q0 -67 -21 -162l-16 -76q-24 -115 -57 -176t-94.5 -90t-167.5 -29h-223l65 308h-66zM189 107h50q25 0 43.5 6t33 21.5t24 30.5t19.5 47t15.5 56.5t15.5 70.5l10 47q23 115 23 155t-17 59t-58 19h-50l-42 -195h82
l-25 -116h-81z" />
    <glyph glyph-name="dslash" unicode="&#x111;" horiz-adv-x="519" 
d="M278 565l17 80h107l17 80h154l-17 -80h89l-17 -80h-89l-120 -565h-154l13 62q-48 -75 -134 -75q-133 0 -133 153q0 38 11 95l15 71q29 133 74.5 190t132.5 57q44 0 76 -22t44 -63l21 97h-107zM169 155q0 -33 12 -48.5t40 -15.5q71 0 107 179q15 72 15 107q0 72 -57 72
q-40 0 -60.5 -39t-37.5 -128l-5 -25q-14 -75 -14 -102z" />
    <glyph glyph-name="Emacron" unicode="&#x112;" horiz-adv-x="475" 
d="M240 780l22 103h253l-22 -103h-253zM-3 0l154 725h399l-25 -116h-239l-38 -180h217l-24 -116h-218l-42 -197h240l-25 -116h-399z" />
    <glyph glyph-name="emacron" unicode="&#x113;" horiz-adv-x="492" 
d="M441 181l-1 -6q-37 -188 -234 -188q-192 0 -192 175q0 31 8 74l19 87q24 121 81.5 175.5t166.5 54.5q99 0 145 -41t46 -130q0 -39 -13 -99l-6 -29h-283l-1 -7q-13 -65 -13 -98t12 -48t39 -15q32 0 51 18t30 71l1 6h144zM198 346l-2 -10h142l2 9q6 27 6 47q0 64 -65 64
q-20 0 -35 -9t-24 -27.5t-14 -34t-10 -39.5zM197 614l21 100h252l-21 -100h-252z" />
    <glyph glyph-name="Ebreve" unicode="&#x114;" horiz-adv-x="475" 
d="M-3 0l154 725h399l-25 -116h-239l-38 -180h217l-24 -116h-218l-42 -197h240l-25 -116h-399zM441 888h109q-25 -113 -166 -113q-71 0 -114.5 24.5t-43.5 68.5q0 10 3 20h109q-1 -2 -1 -8q0 -20 17 -29t39 -9q41 0 48 46z" />
    <glyph glyph-name="ebreve" unicode="&#x115;" horiz-adv-x="492" 
d="M441 181l-1 -6q-37 -188 -234 -188q-192 0 -192 175q0 31 8 74l19 87q24 121 81.5 175.5t166.5 54.5q99 0 145 -41t46 -130q0 -39 -13 -99l-6 -29h-283l-1 -7q-13 -65 -13 -98t12 -48t39 -15q32 0 51 18t30 71l1 6h144zM198 346l-2 -10h142l2 9q6 27 6 47q0 64 -65 64
q-20 0 -35 -9t-24 -27.5t-14 -34t-10 -39.5zM390 725h103q-17 -62 -53.5 -92.5t-112.5 -30.5q-129 0 -129 97q0 8 2 26h103q-2 -14 -2 -17q0 -30 34 -30q43 0 55 47z" />
    <glyph glyph-name="Edotaccent" unicode="&#x116;" horiz-adv-x="475" 
d="M-3 0l154 725h399l-25 -116h-239l-38 -180h217l-24 -116h-218l-42 -197h240l-25 -116h-399zM284 775l24 113h159l-24 -113h-159z" />
    <glyph glyph-name="edotaccent" unicode="&#x117;" horiz-adv-x="492" 
d="M441 181l-1 -6q-37 -188 -234 -188q-192 0 -192 175q0 31 8 74l19 87q24 121 81.5 175.5t166.5 54.5q99 0 145 -41t46 -130q0 -39 -13 -99l-6 -29h-283l-1 -7q-13 -65 -13 -98t12 -48t39 -15q32 0 51 18t30 71l1 6h144zM198 346l-2 -10h142l2 9q6 27 6 47q0 64 -65 64
q-20 0 -35 -9t-24 -27.5t-14 -34t-10 -39.5zM256 603l27 122h133l-25 -122h-135z" />
    <glyph glyph-name="Eogonek" unicode="&#x118;" horiz-adv-x="475" 
d="M374 -100l-17 -80q-43 -8 -85 -8q-52 0 -87 20.5t-35 55.5q0 68 86 112h159q-56 -24 -81.5 -42t-25.5 -40q0 -24 39 -24q17 0 47 6zM-3 0l154 725h399l-25 -116h-239l-38 -180h217l-24 -116h-218l-42 -197h240l-25 -116h-399z" />
    <glyph glyph-name="eogonek" unicode="&#x119;" horiz-adv-x="492" 
d="M199 346l-2 -10h142l2 9q6 27 6 47q0 64 -65 64q-20 0 -35 -9t-24 -27.5t-14 -34t-10 -39.5zM337 -101l-17 -79q-43 -8 -82 -8q-53 0 -87.5 19.5t-34.5 56.5q0 46 49 102q-73 10 -111.5 53.5t-38.5 118.5q0 31 8 74l19 87q24 121 81.5 175.5t166.5 54.5q99 0 145 -41
t46 -130q0 -44 -12 -99l-7 -29h-283l-1 -7q-13 -65 -13 -98t12 -48t39 -15q32 0 51 18t30 71l1 6h144l-1 -6q-19 -97 -90 -150q-34 -24 -50 -37t-33.5 -33t-17.5 -35q0 -11 13 -18.5t30 -7.5q22 0 44 5z" />
    <glyph glyph-name="Ecaron" unicode="&#x11a;" horiz-adv-x="475" 
d="M430 775h-138l-92 113h145l29 -49l50 49h146zM-3 0l154 725h399l-25 -116h-239l-38 -180h217l-24 -116h-218l-42 -197h240l-25 -116h-399z" />
    <glyph glyph-name="ecaron" unicode="&#x11b;" horiz-adv-x="492" 
d="M267 602l-94 123h136l35 -52l57 52h135l-143 -123h-126zM441 181l-1 -6q-37 -188 -234 -188q-192 0 -192 175q0 31 8 74l19 87q24 121 81.5 175.5t166.5 54.5q99 0 145 -41t46 -130q0 -39 -13 -99l-6 -29h-283l-1 -7q-13 -65 -13 -98t12 -48t39 -15q32 0 51 18t30 71l1 6
h144zM198 346l-2 -10h142l2 9q6 27 6 47q0 64 -65 64q-20 0 -35 -9t-24 -27.5t-14 -34t-10 -39.5z" />
    <glyph glyph-name="Gcircumflex" unicode="&#x11c;" horiz-adv-x="579" 
d="M209 775l137 113h138l95 -113h-145l-30 50l-49 -50h-146zM362 0l13 80q-29 -48 -64.5 -70.5t-100.5 -22.5q-94 0 -137.5 47t-43.5 150q0 72 22 170l16 76q35 169 100 238.5t199 69.5q210 0 210 -170q0 -34 -9 -76l-2 -10h-158l2 10q10 44 10 73q0 35 -14.5 49t-45.5 14
q-24 0 -42.5 -11.5t-30 -27.5t-23 -51.5t-18 -63.5t-18.5 -83q-1 -3 -1 -5l-10 -47q-25 -113 -25 -165q0 -77 64 -77q53 0 86 39t50 120l5 24h-123l22 105h260l-82 -385h-111z" />
    <glyph glyph-name="gcircumflex" unicode="&#x11d;" horiz-adv-x="526" 
d="M148 602l144 123h128l92 -123h-136l-35 52l-57 -52h-136zM540 538l-103 -485q-28 -130 -88 -185.5t-177 -55.5q-83 0 -136 32t-53 97q0 23 2 33l1 5h137l-1 -5q-1 -3 -1 -7v-8q0 -46 56 -46q42 0 64 22.5t37 92.5l15 71q-52 -80 -134 -80q-68 0 -105.5 38t-37.5 112
q0 35 9 78l14 67q51 239 234 239q83 0 99 -81l14 66h154zM174 180q0 -56 49 -56q51 0 73.5 36t40.5 119q16 76 16 106q0 33 -14 48.5t-47 15.5q-42 0 -62.5 -36t-36.5 -116l-4 -19q-15 -75 -15 -98z" />
    <glyph glyph-name="Gbreve" unicode="&#x11e;" horiz-adv-x="579" 
d="M362 0l13 80q-29 -48 -64.5 -70.5t-100.5 -22.5q-94 0 -137.5 47t-43.5 150q0 72 22 170l16 76q35 169 100 238.5t199 69.5q210 0 210 -170q0 -34 -9 -76l-2 -10h-158l2 10q10 44 10 73q0 35 -14.5 49t-45.5 14q-24 0 -42.5 -11.5t-30 -27.5t-23 -51.5t-18 -63.5
t-18.5 -83q-1 -3 -1 -5l-10 -47q-25 -113 -25 -165q0 -77 64 -77q53 0 86 39t50 120l5 24h-123l22 105h260l-82 -385h-111zM477 888h109q-25 -113 -166 -113q-71 0 -114.5 24.5t-43.5 68.5q0 10 3 20h109q-1 -2 -1 -8q0 -20 17 -29t39 -9q41 0 48 46z" />
    <glyph glyph-name="gbreve" unicode="&#x11f;" horiz-adv-x="526" 
d="M404 725h103q-17 -62 -53.5 -92.5t-112.5 -30.5q-129 0 -129 97q0 8 2 26h103q-2 -14 -2 -17q0 -30 34 -30q43 0 55 47zM540 538l-103 -485q-28 -130 -88 -185.5t-177 -55.5q-83 0 -136 32t-53 97q0 23 2 33l1 5h137l-1 -5q-1 -3 -1 -7v-8q0 -46 56 -46q42 0 64 22.5
t37 92.5l15 71q-52 -80 -134 -80q-68 0 -105.5 38t-37.5 112q0 35 9 78l14 67q51 239 234 239q83 0 99 -81l14 66h154zM174 180q0 -56 49 -56q51 0 73.5 36t40.5 119q16 76 16 106q0 33 -14 48.5t-47 15.5q-42 0 -62.5 -36t-36.5 -116l-4 -19q-15 -75 -15 -98z" />
    <glyph glyph-name="Gdotaccent" unicode="&#x120;" horiz-adv-x="579" 
d="M362 0l13 80q-29 -48 -64.5 -70.5t-100.5 -22.5q-94 0 -137.5 47t-43.5 150q0 72 22 170l16 76q35 169 100 238.5t199 69.5q210 0 210 -170q0 -34 -9 -76l-2 -10h-158l2 10q10 44 10 73q0 35 -14.5 49t-45.5 14q-24 0 -42.5 -11.5t-30 -27.5t-23 -51.5t-18 -63.5
t-18.5 -83q-1 -3 -1 -5l-10 -47q-25 -113 -25 -165q0 -77 64 -77q53 0 86 39t50 120l5 24h-123l22 105h260l-82 -385h-111zM312 775l24 113h159l-24 -113h-159z" />
    <glyph glyph-name="gdotaccent" unicode="&#x121;" horiz-adv-x="526" 
d="M540 538l-103 -485q-28 -130 -88 -185.5t-177 -55.5q-83 0 -136 32t-53 97q0 23 2 33l1 5h137l-1 -5q-1 -3 -1 -7v-8q0 -46 56 -46q42 0 64 22.5t37 92.5l15 71q-52 -80 -134 -80q-68 0 -105.5 38t-37.5 112q0 35 9 78l14 67q51 239 234 239q83 0 99 -81l14 66h154z
M174 180q0 -56 49 -56q51 0 73.5 36t40.5 119q16 76 16 106q0 33 -14 48.5t-47 15.5q-42 0 -62.5 -36t-36.5 -116l-4 -19q-15 -75 -15 -98zM267 603l27 122h133l-25 -122h-135z" />
    <glyph glyph-name="uni0122" unicode="&#x122;" horiz-adv-x="579" 
d="M114 -243l59 94h-35l21 99h120l-22 -106l-64 -87h-79zM362 0l13 80q-29 -48 -64.5 -70.5t-100.5 -22.5q-94 0 -137.5 47t-43.5 150q0 72 22 170l16 76q35 169 100 238.5t199 69.5q210 0 210 -170q0 -34 -9 -76l-2 -10h-158l2 10q10 44 10 73q0 35 -14.5 49t-45.5 14
q-24 0 -42.5 -11.5t-30 -27.5t-23 -51.5t-18 -63.5t-18.5 -83q-1 -3 -1 -5l-10 -47q-25 -113 -25 -165q0 -77 64 -77q53 0 86 39t50 120l5 24h-123l22 105h260l-82 -385h-111z" />
    <glyph glyph-name="uni0123" unicode="&#x123;" horiz-adv-x="526" 
d="M540 538l-103 -485q-28 -130 -88 -185.5t-177 -55.5q-83 0 -136 32t-53 97q0 23 2 33l1 5h137l-1 -5q-1 -3 -1 -7v-8q0 -46 56 -46q42 0 64 22.5t37 92.5l15 71q-52 -80 -134 -80q-68 0 -105.5 38t-37.5 112q0 35 9 78l14 67q51 239 234 239q83 0 99 -81l14 66h154z
M174 180q0 -56 49 -56q51 0 73.5 36t40.5 119q16 76 16 106q0 33 -14 48.5t-47 15.5q-42 0 -62.5 -36t-36.5 -116l-4 -19q-15 -75 -15 -98zM427 790l-59 -94h35l-21 -99h-120l22 106l64 87h79z" />
    <glyph glyph-name="Hcircumflex" unicode="&#x124;" horiz-adv-x="590" 
d="M-3 0l154 725h159l-63 -296h164l63 296h159l-154 -725h-159l67 313h-164l-67 -313h-159zM216 775l137 113h138l95 -113h-145l-30 50l-49 -50h-146z" />
    <glyph glyph-name="hcircumflex" unicode="&#x125;" horiz-adv-x="507" 
d="M-14 0l154 725h154l-54 -253q28 42 61 61.5t80 19.5q113 0 113 -118q0 -43 -9 -84l-75 -351h-154l67 317q13 65 13 84q0 47 -36 47q-39 0 -60.5 -42.5t-39.5 -121.5l-60 -284h-154zM52 775l137 113h138l95 -113h-145l-30 50l-49 -50h-146z" />
    <glyph glyph-name="Hbar" unicode="&#x126;" horiz-adv-x="590" 
d="M47 521l24 114h61l19 90h159l-19 -90h164l19 90h159l-19 -90h59l-24 -114h-60l-110 -521h-159l67 313h-164l-67 -313h-159l110 521h-60zM247 429h164l19 92h-164z" />
    <glyph glyph-name="hbar" unicode="&#x127;" horiz-adv-x="507" 
d="M42 565l17 80h64l17 80h154l-17 -80h130l-17 -80h-130l-20 -93q28 42 61 61.5t80 19.5q113 0 113 -118q0 -43 -9 -84l-75 -351h-154l67 317q13 65 13 84q0 47 -36 47q-39 0 -60.5 -42.5t-39.5 -121.5l-60 -284h-154l120 565h-64z" />
    <glyph glyph-name="Itilde" unicode="&#x128;" horiz-adv-x="267" 
d="M167 775h-97q14 37 32 61t38.5 34.5t36 14t35.5 3.5q29 0 51 -18t37 -18q33 0 46 36h97q-45 -113 -142 -113q-29 0 -52 17t-35 17q-35 0 -47 -34zM-3 0l154 725h159l-154 -725h-159z" />
    <glyph glyph-name="itilde" unicode="&#x129;" horiz-adv-x="239" 
d="M125 603h-84q39 122 123 122q26 0 49.5 -17.5t32.5 -17.5q11 0 22 10t16 25h84q-20 -64 -51 -93t-64 -29q-21 0 -50 16.5t-42 16.5q-19 0 -36 -33zM-14 0l114 538h154l-114 -538h-154z" />
    <glyph glyph-name="Imacron" unicode="&#x12a;" horiz-adv-x="267" 
d="M119 780l22 103h247l-22 -103h-247zM-3 0l154 725h159l-154 -725h-159z" />
    <glyph glyph-name="imacron" unicode="&#x12b;" horiz-adv-x="239" 
d="M84 614l21 100h219l-21 -100h-219zM-14 0l114 538h154l-114 -538h-154z" />
    <glyph glyph-name="Ibreve" unicode="&#x12c;" horiz-adv-x="267" 
d="M306 888h109q-25 -113 -166 -113q-67 0 -102.5 23t-35.5 65q0 11 3 25h109q-1 -3 -1 -13q0 -33 38 -33q39 0 46 46zM-3 0l154 725h159l-154 -725h-159z" />
    <glyph glyph-name="ibreve" unicode="&#x12d;" horiz-adv-x="239" 
d="M249 725h103q-19 -62 -50.5 -92.5t-105.5 -30.5q-64 0 -90.5 24t-26.5 67q0 15 3 32h103q-2 -14 -2 -19q0 -28 25 -28q13 0 21.5 7.5t12 15.5t7.5 24zM-14 0l114 538h154l-114 -538h-154z" />
    <glyph glyph-name="Iogonek" unicode="&#x12e;" horiz-adv-x="267" 
d="M-3 0l154 725h159l-154 -725h-1q-55 -24 -80.5 -42t-25.5 -40q0 -24 39 -24q17 0 47 6l-17 -80q-43 -8 -85 -8q-52 0 -87 20.5t-35 55.5q0 68 86 112z" />
    <glyph glyph-name="iogonek" unicode="&#x12f;" horiz-adv-x="239" 
d="M-14 0l114 538h154l-114 -538q-42 -18 -60 -27t-33.5 -23t-15.5 -30q0 -11 13 -18.5t30 -7.5q21 0 43 5l-17 -79q-43 -8 -81 -8q-53 0 -87.5 19.5t-34.5 56.5q0 67 89 112zM113 597l27 128h154l-27 -128h-154z" />
    <glyph glyph-name="Idot" unicode="&#x130;" horiz-adv-x="267" 
d="M166 775l24 113h159l-24 -113h-159zM-3 0l154 725h159l-154 -725h-159z" />
    <glyph glyph-name="dotlessi" unicode="&#x131;" horiz-adv-x="239" 
d="M-14 0l114 538h154l-114 -538h-154z" />
    <glyph glyph-name="Jcircumflex" unicode="&#x134;" horiz-adv-x="467" 
d="M274 775l137 113h138l95 -113h-145l-30 50l-49 -50h-146zM522 725l-111 -521q-15 -69 -37 -113t-54.5 -66t-67.5 -30t-86 -8q-92 0 -140.5 42t-48.5 118q0 30 7 59l4 20h158l-4 -20q-6 -33 -6 -54q0 -55 40 -55q31 0 47.5 21.5t29.5 87.5l110 519h159z" />
    <glyph glyph-name="jcircumflex" unicode="&#x135;" horiz-adv-x="239" 
d="M15 602l144 123h128l92 -123h-136l-35 52l-57 -52h-136zM-121 -175l19 92h28q30 0 39.5 16t20.5 67l114 538h154l-114 -538q-24 -112 -58.5 -143.5t-130.5 -31.5h-72z" />
    <glyph glyph-name="uni0136" unicode="&#x136;" horiz-adv-x="566" 
d="M133 -243l59 94h-35l21 99h120l-22 -106l-64 -87h-79zM365 0l-80 291l-90 -107l-39 -184h-159l154 725h159l-60 -282l237 282h162l-252 -301l116 -424h-148z" />
    <glyph glyph-name="uni0137" unicode="&#x137;" horiz-adv-x="463" 
d="M98 -243l59 94h-35l21 99h120l-22 -106l-64 -87h-79zM518 538l-166 -182l75 -356h-145l-42 232l-74 -81l-32 -151h-148l154 725h148l-78 -366l163 179h145z" />
    <glyph glyph-name="Lacute" unicode="&#x139;" horiz-adv-x="464" 
d="M177 775l79 113h188l-134 -113h-133zM-3 0l154 725h159l-129 -609h240l-25 -116h-399z" />
    <glyph glyph-name="lacute" unicode="&#x13a;" horiz-adv-x="240" 
d="M157 775l79 113h188l-134 -113h-133zM-14 0l154 725h154l-154 -725h-154z" />
    <glyph glyph-name="uni013B" unicode="&#x13b;" horiz-adv-x="464" 
d="M85 -243l59 94h-35l21 99h120l-22 -106l-64 -87h-79zM-3 0l154 725h159l-129 -609h240l-25 -116h-399z" />
    <glyph glyph-name="uni013C" unicode="&#x13c;" horiz-adv-x="240" 
d="M-53 -243l59 94h-35l21 99h120l-22 -106l-64 -87h-79zM-14 0l154 725h154l-154 -725h-154z" />
    <glyph glyph-name="Lcaron" unicode="&#x13d;" horiz-adv-x="464" 
d="M-3 0l154 725h159l-129 -609h240l-25 -116h-399zM321 555l60 170h143l-100 -170h-103z" />
    <glyph glyph-name="lcaron" unicode="&#x13e;" horiz-adv-x="376" 
d="M-14 0l154 725h154l-154 -725h-154zM293 555l60 170h143l-100 -170h-103z" />
    <glyph glyph-name="Ldot" unicode="&#x13f;" horiz-adv-x="464" 
d="M306 363l24 113h159l-24 -113h-159zM-3 0l154 725h159l-129 -609h240l-25 -116h-399z" />
    <glyph glyph-name="ldot" unicode="&#x140;" horiz-adv-x="409" 
d="M-14 0l154 725h154l-154 -725h-154zM264 359l24 113h159l-24 -113h-159z" />
    <glyph glyph-name="Lslash" unicode="&#x141;" horiz-adv-x="496" 
d="M-17 189l27 124l97 52l76 360h159l-56 -262l190 104l-27 -124l-189 -103l-47 -224h240l-25 -116h-399l51 242z" />
    <glyph glyph-name="lslash" unicode="&#x142;" horiz-adv-x="298" 
d="M-4 247l26 123l76 37l68 318h154l-50 -236l82 40l-25 -122l-83 -40l-78 -367h-154l60 284z" />
    <glyph glyph-name="Nacute" unicode="&#x143;" horiz-adv-x="590" 
d="M361 775l79 113h188l-134 -113h-133zM-3 0l154 725h184l46 -521l111 521h141l-154 -725h-184l-46 521l-111 -521h-141z" />
    <glyph glyph-name="nacute" unicode="&#x144;" horiz-adv-x="507" 
d="M275 602l89 123h175l-148 -123h-116zM-14 0l114 538h154l-14 -66q28 42 61 61.5t80 19.5q114 0 114 -118q0 -38 -10 -84l-75 -351h-154l67 317q14 70 14 84q0 47 -36 47q-40 0 -61.5 -42.5t-39.5 -121.5l-60 -284h-154z" />
    <glyph glyph-name="uni0145" unicode="&#x145;" horiz-adv-x="590" 
d="M107 -243l59 94h-35l21 99h120l-22 -106l-64 -87h-79zM-3 0l154 725h184l46 -521l111 521h141l-154 -725h-184l-46 521l-111 -521h-141z" />
    <glyph glyph-name="uni0146" unicode="&#x146;" horiz-adv-x="507" 
d="M83 -243l59 94h-35l21 99h120l-22 -106l-64 -87h-79zM-14 0l114 538h154l-14 -66q28 42 61 61.5t80 19.5q114 0 114 -118q0 -38 -10 -84l-75 -351h-154l67 317q14 70 14 84q0 47 -36 47q-40 0 -61.5 -42.5t-39.5 -121.5l-60 -284h-154z" />
    <glyph glyph-name="Ncaron" unicode="&#x147;" horiz-adv-x="590" 
d="M471 775h-138l-92 113h145l29 -49l50 49h146zM-3 0l154 725h184l46 -521l111 521h141l-154 -725h-184l-46 521l-111 -521h-141z" />
    <glyph glyph-name="ncaron" unicode="&#x148;" horiz-adv-x="507" 
d="M266 602l-94 123h136l35 -52l57 52h135l-143 -123h-126zM-14 0l114 538h154l-14 -66q28 42 61 61.5t80 19.5q114 0 114 -118q0 -38 -10 -84l-75 -351h-154l67 317q14 70 14 84q0 47 -36 47q-40 0 -61.5 -42.5t-39.5 -121.5l-60 -284h-154z" />
    <glyph glyph-name="Eng" unicode="&#x14a;" horiz-adv-x="590" 
d="M338 0l-89 521l-111 -521h-141l154 725h184l62 -449l95 449h141l-154 -725q-22 -105 -66.5 -140t-151.5 -35h-79l25 117h46q45 0 60.5 7t21.5 37z" />
    <glyph glyph-name="eng" unicode="&#x14b;" horiz-adv-x="507" 
d="M256 0l67 317q14 70 14 84q0 47 -36 47q-40 0 -61.5 -42.5t-39.5 -121.5l-60 -284h-154l114 538h154l-14 -66q28 42 61 61.5t80 19.5q114 0 114 -118q0 -38 -10 -84l-75 -351q-23 -104 -70.5 -138t-149.5 -34h-42l20 90h28q13 0 22 4t14 7.5t10 18.5t6.5 21t7.5 31z" />
    <glyph glyph-name="Omacron" unicode="&#x14c;" horiz-adv-x="575" 
d="M191 174q0 -77 64 -77q24 0 42.5 11.5t30 27.5t23 51.5t18 63.5t18.5 83q1 3 1 5l10 47q25 113 25 165q0 40 -14.5 58.5t-49.5 18.5q-24 0 -42.5 -11.5t-30 -27.5t-23 -51.5t-18 -63.5t-18.5 -83q-1 -3 -1 -5l-10 -47q-25 -113 -25 -165zM564 371l-16 -76
q-37 -170 -100.5 -239t-196.5 -69q-117 0 -169 48.5t-52 156.5q0 69 21 162l16 76q35 168 99.5 238t197.5 70q117 0 168.5 -48.5t51.5 -156.5q0 -64 -20 -162zM273 780l22 103h253l-22 -103h-253z" />
    <glyph glyph-name="omacron" unicode="&#x14d;" horiz-adv-x="494" 
d="M193 614l21 100h252l-21 -100h-252zM165 147q0 -62 51 -62q14 0 25 4t19.5 15.5t14 22t11.5 33.5t9.5 38.5t10.5 48.5l9 45q15 77 15 101q0 61 -51 61q-17 0 -29.5 -7.5t-20.5 -18t-16 -35t-12 -43t-12 -57.5l-10 -47q-14 -72 -14 -99zM473 303l-18 -85
q-27 -124 -82.5 -178t-165.5 -54q-193 0 -193 175q0 31 8 74l18 87q27 123 83 177t166 54q192 0 192 -174q0 -33 -8 -76z" />
    <glyph glyph-name="Obreve" unicode="&#x14e;" horiz-adv-x="575" 
d="M191 174q0 -77 64 -77q24 0 42.5 11.5t30 27.5t23 51.5t18 63.5t18.5 83q1 3 1 5l10 47q25 113 25 165q0 40 -14.5 58.5t-49.5 18.5q-24 0 -42.5 -11.5t-30 -27.5t-23 -51.5t-18 -63.5t-18.5 -83q-1 -3 -1 -5l-10 -47q-25 -113 -25 -165zM564 371l-16 -76
q-37 -170 -100.5 -239t-196.5 -69q-117 0 -169 48.5t-52 156.5q0 69 21 162l16 76q35 168 99.5 238t197.5 70q117 0 168.5 -48.5t51.5 -156.5q0 -64 -20 -162zM475 888h109q-25 -113 -166 -113q-71 0 -114.5 24.5t-43.5 68.5q0 10 3 20h109q-1 -2 -1 -8q0 -20 17 -29t39 -9
q41 0 48 46z" />
    <glyph glyph-name="obreve" unicode="&#x14f;" horiz-adv-x="494" 
d="M389 725h103q-17 -62 -53.5 -92.5t-112.5 -30.5q-129 0 -129 97q0 8 2 26h103q-2 -14 -2 -17q0 -30 34 -30q43 0 55 47zM165 147q0 -62 51 -62q14 0 25 4t19.5 15.5t14 22t11.5 33.5t9.5 38.5t10.5 48.5l9 45q15 77 15 101q0 61 -51 61q-17 0 -29.5 -7.5t-20.5 -18
t-16 -35t-12 -43t-12 -57.5l-10 -47q-14 -72 -14 -99zM473 303l-18 -85q-27 -124 -82.5 -178t-165.5 -54q-193 0 -193 175q0 31 8 74l18 87q27 123 83 177t166 54q192 0 192 -174q0 -33 -8 -76z" />
    <glyph glyph-name="Ohungarumlaut" unicode="&#x150;" horiz-adv-x="575" 
d="M191 174q0 -77 64 -77q24 0 42.5 11.5t30 27.5t23 51.5t18 63.5t18.5 83q1 3 1 5l10 47q25 113 25 165q0 40 -14.5 58.5t-49.5 18.5q-24 0 -42.5 -11.5t-30 -27.5t-23 -51.5t-18 -63.5t-18.5 -83q-1 -3 -1 -5l-10 -47q-25 -113 -25 -165zM564 371l-16 -76
q-37 -170 -100.5 -239t-196.5 -69q-117 0 -169 48.5t-52 156.5q0 69 21 162l16 76q35 168 99.5 238t197.5 70q117 0 168.5 -48.5t51.5 -156.5q0 -64 -20 -162zM430 775l79 113h176l-122 -113h-133zM229 775l79 113h176l-122 -113h-133z" />
    <glyph glyph-name="ohungarumlaut" unicode="&#x151;" horiz-adv-x="494" 
d="M165 147q0 -62 51 -62q14 0 25 4t19.5 15.5t14 22t11.5 33.5t9.5 38.5t10.5 48.5l9 45q15 77 15 101q0 61 -51 61q-17 0 -29.5 -7.5t-20.5 -18t-16 -35t-12 -43t-12 -57.5l-10 -47q-14 -72 -14 -99zM473 303l-18 -85q-27 -124 -82.5 -178t-165.5 -54q-193 0 -193 175
q0 31 8 74l18 87q27 123 83 177t166 54q192 0 192 -174q0 -33 -8 -76zM347 622l89 123h165l-138 -123h-116zM153 622l89 123h165l-138 -123h-116z" />
    <glyph glyph-name="OE" unicode="&#x152;" horiz-adv-x="804" 
d="M191 174q0 -77 64 -77q24 0 42.5 11.5t30 27.5t23 51.5t18 63.5t18.5 83q1 3 1 5l10 47q25 113 25 165q0 40 -14.5 58.5t-49.5 18.5q-24 0 -42.5 -11.5t-30 -27.5t-23 -51.5t-18 -63.5t-18.5 -83q-1 -3 -1 -5l-10 -47q-25 -113 -25 -165zM564 371l-16 -76
q-37 -170 -100.5 -239t-196.5 -69q-117 0 -169 48.5t-52 156.5q0 69 21 162l16 76q35 168 99.5 238t197.5 70q117 0 168.5 -48.5t51.5 -156.5q0 -64 -20 -162zM327 0l154 725h399l-25 -116h-239l-38 -180h217l-24 -116h-218l-42 -197h240l-25 -116h-399z" />
    <glyph glyph-name="oe" unicode="&#x153;" horiz-adv-x="776" 
d="M165 147q0 -62 51 -62q14 0 25 4t19.5 15.5t14 22t11.5 33.5t9.5 38.5t10.5 48.5l9 45q15 77 15 101q0 61 -51 61q-17 0 -29.5 -7.5t-20.5 -18t-16 -35t-12 -43t-12 -57.5l-10 -47q-14 -72 -14 -99zM473 303l-18 -85q-27 -124 -82.5 -178t-165.5 -54q-193 0 -193 175
q0 31 8 74l18 87q27 123 83 177t166 54q192 0 192 -174q0 -33 -8 -76zM725 181l-1 -6q-37 -188 -234 -188q-192 0 -192 175q0 31 8 74l19 87q24 121 81.5 175.5t166.5 54.5q99 0 145 -41t46 -130q0 -39 -13 -99l-6 -29h-283l-1 -7q-13 -65 -13 -98t12 -48t39 -15q32 0 51 18
t30 71l1 6h144zM482 346l-2 -10h142l2 9q6 27 6 47q0 64 -65 64q-20 0 -35 -9t-24 -27.5t-14 -34t-10 -39.5z" />
    <glyph glyph-name="Racute" unicode="&#x154;" horiz-adv-x="567" 
d="M321 775l79 113h188l-134 -113h-133zM331 0l-31 312h-77l-66 -312h-160l154 725h177q132 0 188 -33t56 -126q0 -161 -128 -219l45 -347h-158zM243 409h45q66 0 95.5 38.5t29.5 100.5q0 43 -23.5 57t-81.5 14h-20z" />
    <glyph glyph-name="racute" unicode="&#x155;" horiz-adv-x="340" 
d="M182 602l89 123h175l-148 -123h-116zM-14 0l114 538h154l-23 -111q23 53 54 82t81 29h20l-30 -145h-42q-60 0 -81 -23t-35 -95l-58 -275h-154z" />
    <glyph glyph-name="uni0156" unicode="&#x156;" horiz-adv-x="567" 
d="M127 -243l59 94h-35l21 99h120l-22 -106l-64 -87h-79zM331 0l-31 312h-77l-66 -312h-160l154 725h177q132 0 188 -33t56 -126q0 -161 -128 -219l45 -347h-158zM243 409h45q66 0 95.5 38.5t29.5 100.5q0 43 -23.5 57t-81.5 14h-20z" />
    <glyph glyph-name="uni0157" unicode="&#x157;" horiz-adv-x="340" 
d="M-52 -243l59 94h-35l21 99h120l-22 -106l-64 -87h-79zM-14 0l114 538h154l-23 -111q23 53 54 82t81 29h20l-30 -145h-42q-60 0 -81 -23t-35 -95l-58 -275h-154z" />
    <glyph glyph-name="Rcaron" unicode="&#x158;" horiz-adv-x="567" 
d="M455 775h-138l-92 113h145l29 -49l50 49h146zM331 0l-31 312h-77l-66 -312h-160l154 725h177q132 0 188 -33t56 -126q0 -161 -128 -219l45 -347h-158zM243 409h45q66 0 95.5 38.5t29.5 100.5q0 43 -23.5 57t-81.5 14h-20z" />
    <glyph glyph-name="rcaron" unicode="&#x159;" horiz-adv-x="340" 
d="M192 602l-94 123h136l35 -52l57 52h135l-143 -123h-126zM-14 0l114 538h154l-23 -111q23 53 54 82t81 29h20l-30 -145h-42q-60 0 -81 -23t-35 -95l-58 -275h-154z" />
    <glyph glyph-name="Sacute" unicode="&#x15a;" horiz-adv-x="522" 
d="M482 236q0 -249 -261 -249q-102 0 -165 43.5t-63 121.5q0 16 11 75l2 10h157l-2 -10q-8 -40 -8 -62q0 -37 16.5 -54t53.5 -17q43 0 70.5 27t27.5 77q0 58 -60 102l-52 40q-112 84 -112 170q0 228 250 228q213 0 213 -152q0 -34 -7 -66l-1 -5h-155l1 5q5 26 5 47
q0 66 -64 66q-39 -1 -64.5 -24t-25.5 -66t34 -71l59 -45q72 -55 106 -98.5t34 -92.5zM299 775l79 113h188l-134 -113h-133z" />
    <glyph glyph-name="sacute" unicode="&#x15b;" horiz-adv-x="459" 
d="M215 602l89 123h175l-148 -123h-116zM414 166q0 -84 -64.5 -131.5t-157.5 -47.5q-95 0 -145.5 37.5t-50.5 104.5q0 16 5 44l1 5h139l-1 -5q-3 -15 -3 -30q0 -56 60 -56q32 0 54.5 13.5t23.5 38.5q0 20 -10.5 31t-41.5 30l-70 42q-47 29 -71.5 59.5t-24.5 83.5
q0 81 64.5 124.5t156.5 43.5q74 0 127 -32.5t53 -97.5q0 -7 -5 -42l-1 -5h-135l1 5q4 20 4 27q0 46 -56 46q-69 0 -69 -53q0 -31 34 -52l66 -40q44 -26 64 -40.5t36.5 -41t16.5 -61.5z" />
    <glyph glyph-name="Scircumflex" unicode="&#x15c;" horiz-adv-x="522" 
d="M191 775l137 113h138l95 -113h-145l-30 50l-49 -50h-146zM482 236q0 -249 -261 -249q-102 0 -165 43.5t-63 121.5q0 16 11 75l2 10h157l-2 -10q-8 -40 -8 -62q0 -37 16.5 -54t53.5 -17q43 0 70.5 27t27.5 77q0 58 -60 102l-52 40q-112 84 -112 170q0 228 250 228
q213 0 213 -152q0 -34 -7 -66l-1 -5h-155l1 5q5 26 5 47q0 66 -64 66q-39 -1 -64.5 -24t-25.5 -66t34 -71l59 -45q72 -55 106 -98.5t34 -92.5z" />
    <glyph glyph-name="scircumflex" unicode="&#x15d;" horiz-adv-x="459" 
d="M111 602l144 123h128l92 -123h-136l-35 52l-57 -52h-136zM414 166q0 -84 -64.5 -131.5t-157.5 -47.5q-95 0 -145.5 37.5t-50.5 104.5q0 16 5 44l1 5h139l-1 -5q-3 -15 -3 -30q0 -56 60 -56q32 0 54.5 13.5t23.5 38.5q0 20 -10.5 31t-41.5 30l-70 42q-47 29 -71.5 59.5
t-24.5 83.5q0 81 64.5 124.5t156.5 43.5q74 0 127 -32.5t53 -97.5q0 -7 -5 -42l-1 -5h-135l1 5q4 20 4 27q0 46 -56 46q-69 0 -69 -53q0 -31 34 -52l66 -40q44 -26 64 -40.5t36.5 -41t16.5 -61.5z" />
    <glyph glyph-name="Scedilla" unicode="&#x15e;" horiz-adv-x="522" 
d="M482 236q0 -249 -261 -249q-102 0 -165 43.5t-63 121.5q0 16 11 75l2 10h157l-2 -10q-8 -40 -8 -62q0 -37 16.5 -54t53.5 -17q43 0 70.5 27t27.5 77q0 58 -60 102l-52 40q-112 84 -112 170q0 228 250 228q213 0 213 -152q0 -34 -7 -66l-1 -5h-155l1 5q5 26 5 47
q0 66 -64 66q-39 -1 -64.5 -24t-25.5 -66t34 -71l59 -45q72 -55 106 -98.5t34 -92.5zM321 -104q0 -43 -43.5 -67t-104.5 -24q-50 0 -92 15l27 50q23 -14 60 -14q25 0 42 9.5t17 26.5q0 20 -35 20q-24 0 -41 -9l-26 17l69 82h58l-43 -50q15 3 37 3q28 0 51.5 -18.5
t23.5 -40.5z" />
    <glyph glyph-name="scedilla" unicode="&#x15f;" horiz-adv-x="459" 
d="M414 166q0 -84 -64.5 -131.5t-157.5 -47.5q-95 0 -145.5 37.5t-50.5 104.5q0 16 5 44l1 5h139l-1 -5q-3 -15 -3 -30q0 -56 60 -56q32 0 54.5 13.5t23.5 38.5q0 20 -10.5 31t-41.5 30l-70 42q-47 29 -71.5 59.5t-24.5 83.5q0 81 64.5 124.5t156.5 43.5q74 0 127 -32.5
t53 -97.5q0 -7 -5 -42l-1 -5h-135l1 5q4 20 4 27q0 46 -56 46q-69 0 -69 -53q0 -31 34 -52l66 -40q44 -26 64 -40.5t36.5 -41t16.5 -61.5zM296 -99q0 -41 -45 -68.5t-104 -27.5q-55 0 -92 15l27 50q23 -14 60 -14q25 0 42 9t17 26q0 21 -35 21q-24 0 -41 -9l-26 17l69 82h58
l-44 -50q18 3 40 3q31 0 52.5 -14t21.5 -40z" />
    <glyph glyph-name="Scaron" unicode="&#x160;" horiz-adv-x="522" 
d="M449 775h-138l-92 113h145l29 -49l50 49h146zM482 236q0 -249 -261 -249q-102 0 -165 43.5t-63 121.5q0 16 11 75l2 10h157l-2 -10q-8 -40 -8 -62q0 -37 16.5 -54t53.5 -17q43 0 70.5 27t27.5 77q0 58 -60 102l-52 40q-112 84 -112 170q0 228 250 228q213 0 213 -152
q0 -34 -7 -66l-1 -5h-155l1 5q5 26 5 47q0 66 -64 66q-39 -1 -64.5 -24t-25.5 -66t34 -71l59 -45q72 -55 106 -98.5t34 -92.5z" />
    <glyph glyph-name="scaron" unicode="&#x161;" horiz-adv-x="459" 
d="M228 602l-94 123h136l35 -52l57 52h135l-143 -123h-126zM414 166q0 -84 -64.5 -131.5t-157.5 -47.5q-95 0 -145.5 37.5t-50.5 104.5q0 16 5 44l1 5h139l-1 -5q-3 -15 -3 -30q0 -56 60 -56q32 0 54.5 13.5t23.5 38.5q0 20 -10.5 31t-41.5 30l-70 42q-47 29 -71.5 59.5
t-24.5 83.5q0 81 64.5 124.5t156.5 43.5q74 0 127 -32.5t53 -97.5q0 -7 -5 -42l-1 -5h-135l1 5q4 20 4 27q0 46 -56 46q-69 0 -69 -53q0 -31 34 -52l66 -40q44 -26 64 -40.5t36.5 -41t16.5 -61.5z" />
    <glyph glyph-name="uni0162" unicode="&#x162;" horiz-adv-x="477" 
d="M70 -243l59 94h-35l21 99h120l-22 -106l-64 -87h-79zM102 0l129 609h-148l25 116h455l-25 -116h-148l-129 -609h-159z" />
    <glyph glyph-name="uni0163" unicode="&#x163;" horiz-adv-x="339" 
d="M-2 -243l59 94h-35l21 99h120l-22 -106l-64 -87h-79zM256 0h-110q-62 0 -87.5 18t-25.5 63q0 26 9 64l63 298h-65l20 95h65l31 146h153l-31 -146h91l-20 -95h-90l-60 -283q-5 -25 -5 -34q0 -18 9.5 -24.5t32.5 -6.5h40z" />
    <glyph glyph-name="Tcaron" unicode="&#x164;" horiz-adv-x="477" 
d="M414 775h-138l-92 113h145l29 -49l50 49h146zM102 0l129 609h-148l25 116h455l-25 -116h-148l-129 -609h-159z" />
    <glyph glyph-name="tcaron" unicode="&#x165;" horiz-adv-x="433" 
d="M256 0h-110q-62 0 -87.5 18t-25.5 63q0 26 9 64l63 298h-65l20 95h65l31 146h153l-31 -146h91l-20 -95h-90l-60 -283q-5 -25 -5 -34q0 -18 9.5 -24.5t32.5 -6.5h40zM355 555l60 170h143l-100 -170h-103z" />
    <glyph glyph-name="Tbar" unicode="&#x166;" horiz-adv-x="477" 
d="M18 302l25 115h147l41 192h-148l25 116h455l-25 -116h-148l-41 -192h147l-25 -115h-146l-64 -302h-159l64 302h-148z" />
    <glyph glyph-name="tbar" unicode="&#x167;" horiz-adv-x="339" 
d="M7 259l21 100h65l18 84h-65l20 95h65l31 146h153l-31 -146h91l-20 -95h-90l-18 -84h89l-21 -100h-89l-21 -99q-5 -25 -5 -34q0 -18 9.5 -24.5t32.5 -6.5h40l-20 -95h-110q-62 0 -87.5 18t-25.5 63q0 26 9 64l24 114h-65z" />
    <glyph glyph-name="Utilde" unicode="&#x168;" horiz-adv-x="561" 
d="M319 775h-97q43 113 155 113q30 0 58 -18t42 -18q33 0 46 36h97q-45 -113 -155 -113q-30 0 -58.5 17t-40.5 17q-35 0 -47 -34zM614 725l-92 -432q-20 -96 -40 -150t-54.5 -92t-82 -51t-124.5 -13q-108 0 -151.5 30.5t-43.5 109.5q0 60 23 166l92 432h159l-93 -439
q-21 -100 -21 -131q0 -30 13 -44t44 -14q53 0 74.5 39.5t44.5 149.5l93 439h159z" />
    <glyph glyph-name="utilde" unicode="&#x169;" horiz-adv-x="503" 
d="M244 0l14 66q-27 -42 -60 -60.5t-81 -18.5q-53 0 -79.5 25t-26.5 84q0 37 12 91l74 351h154l-67 -317q-16 -74 -16 -91q0 -37 30 -37q39 0 61 41.5t39 119.5l60 284h153l-108 -538h-159zM240 603h-84q39 122 123 122q26 0 64.5 -17.5t47.5 -17.5q11 0 22 10t16 25h84
q-20 -64 -51 -93t-64 -29q-21 0 -66 16.5t-59 16.5q-10 0 -16.5 -7.5t-16.5 -25.5z" />
    <glyph glyph-name="Umacron" unicode="&#x16a;" horiz-adv-x="561" 
d="M614 725l-92 -432q-20 -96 -40 -150t-54.5 -92t-82 -51t-124.5 -13q-108 0 -151.5 30.5t-43.5 109.5q0 60 23 166l92 432h159l-93 -439q-21 -100 -21 -131q0 -30 13 -44t44 -14q53 0 74.5 39.5t44.5 149.5l93 439h159zM266 780l22 103h253l-22 -103h-253z" />
    <glyph glyph-name="umacron" unicode="&#x16b;" horiz-adv-x="503" 
d="M193 614l21 100h252l-21 -100h-252zM244 0l14 66q-27 -42 -60 -60.5t-81 -18.5q-53 0 -79.5 25t-26.5 84q0 37 12 91l74 351h154l-67 -317q-16 -74 -16 -91q0 -37 30 -37q39 0 61 41.5t39 119.5l60 284h153l-108 -538h-159z" />
    <glyph glyph-name="Ubreve" unicode="&#x16c;" horiz-adv-x="561" 
d="M614 725l-92 -432q-20 -96 -40 -150t-54.5 -92t-82 -51t-124.5 -13q-108 0 -151.5 30.5t-43.5 109.5q0 60 23 166l92 432h159l-93 -439q-21 -100 -21 -131q0 -30 13 -44t44 -14q53 0 74.5 39.5t44.5 149.5l93 439h159zM467 888h109q-25 -113 -166 -113q-71 0 -114.5 24.5
t-43.5 68.5q0 10 3 20h109q-1 -2 -1 -8q0 -20 17 -29t39 -9q41 0 48 46z" />
    <glyph glyph-name="ubreve" unicode="&#x16d;" horiz-adv-x="503" 
d="M386 725h103q-17 -62 -53.5 -92.5t-112.5 -30.5q-129 0 -129 97q0 8 2 26h103q-2 -14 -2 -17q0 -30 34 -30q43 0 55 47zM244 0l14 66q-27 -42 -60 -60.5t-81 -18.5q-53 0 -79.5 25t-26.5 84q0 37 12 91l74 351h154l-67 -317q-16 -74 -16 -91q0 -37 30 -37q39 0 61 41.5
t39 119.5l60 284h153l-108 -538h-159z" />
    <glyph glyph-name="Uring" unicode="&#x16e;" horiz-adv-x="561" 
d="M497 851q0 -37 -26 -61t-64 -24t-64 24t-26 61q0 36 26.5 60.5t63.5 24.5t63.5 -24.5t26.5 -60.5zM364 851q0 -18 12.5 -30t30.5 -12t30.5 12t12.5 30t-12.5 30.5t-30.5 12.5t-30.5 -12.5t-12.5 -30.5zM614 725l-92 -432q-20 -96 -40 -150t-54.5 -92t-82 -51t-124.5 -13
q-108 0 -151.5 30.5t-43.5 109.5q0 60 23 166l92 432h159l-93 -439q-21 -100 -21 -131q0 -30 13 -44t44 -14q53 0 74.5 39.5t44.5 149.5l93 439h159z" />
    <glyph glyph-name="uring" unicode="&#x16f;" horiz-adv-x="503" 
d="M423 678q0 -39 -27.5 -64t-67.5 -25t-67.5 25t-27.5 64t27.5 64.5t67.5 25.5t67.5 -25.5t27.5 -64.5zM287 678q0 -17 12 -28.5t29 -11.5t29 11.5t12 28.5q0 18 -12 29.5t-29 11.5t-29 -11.5t-12 -29.5zM244 0l14 66q-27 -42 -60 -60.5t-81 -18.5q-53 0 -79.5 25t-26.5 84
q0 37 12 91l74 351h154l-67 -317q-16 -74 -16 -91q0 -37 30 -37q39 0 61 41.5t39 119.5l60 284h153l-108 -538h-159z" />
    <glyph glyph-name="Uhungarumlaut" unicode="&#x170;" horiz-adv-x="561" 
d="M614 725l-92 -432q-20 -96 -40 -150t-54.5 -92t-82 -51t-124.5 -13q-108 0 -151.5 30.5t-43.5 109.5q0 60 23 166l92 432h159l-93 -439q-21 -100 -21 -131q0 -30 13 -44t44 -14q53 0 74.5 39.5t44.5 149.5l93 439h159zM400 775l79 113h176l-122 -113h-133zM199 775
l79 113h176l-122 -113h-133z" />
    <glyph glyph-name="uhungarumlaut" unicode="&#x171;" horiz-adv-x="503" 
d="M244 0l14 66q-27 -42 -60 -60.5t-81 -18.5q-53 0 -79.5 25t-26.5 84q0 37 12 91l74 351h154l-67 -317q-16 -74 -16 -91q0 -37 30 -37q39 0 61 41.5t39 119.5l60 284h153l-108 -538h-159zM337 622l89 123h165l-138 -123h-116zM143 622l89 123h165l-138 -123h-116z" />
    <glyph glyph-name="Uogonek" unicode="&#x172;" horiz-adv-x="561" 
d="M614 725l-92 -432q-20 -96 -40 -150t-54.5 -92t-82 -51t-124.5 -13q-108 0 -151.5 30.5t-43.5 109.5q0 60 23 166l92 432h159l-93 -439q-21 -100 -21 -131q0 -30 13 -44t44 -14q53 0 74.5 39.5t44.5 149.5l93 439h159zM288 -100l-17 -80q-43 -8 -85 -8q-52 0 -87 20.5
t-35 55.5q0 68 86 112h159q-56 -24 -81.5 -42t-25.5 -40q0 -24 39 -24q17 0 47 6z" />
    <glyph glyph-name="uogonek" unicode="&#x173;" horiz-adv-x="510" 
d="M244 0l14 66q-27 -42 -60 -60.5t-81 -18.5q-53 0 -79.5 25t-26.5 84q0 37 12 91l74 351h154l-67 -317q-16 -74 -16 -91q0 -37 30 -37q39 0 61 41.5t39 119.5l60 284h153l-108 -538q-82 -35 -98 -49t-16 -30q0 -11 13 -18.5t30 -7.5t57 8l-16 -79q-42 -11 -96 -11
q-53 0 -87.5 19.5t-34.5 56.5q0 66 89 111z" />
    <glyph glyph-name="Wcircumflex" unicode="&#x174;" horiz-adv-x="730" 
d="M285 775l137 113h138l95 -113h-145l-30 50l-49 -50h-146zM45 0l63 725h144l-59 -550l202 550h133l-30 -550l173 550h145l-246 -725h-179l33 548l-199 -548h-180z" />
    <glyph glyph-name="wcircumflex" unicode="&#x175;" horiz-adv-x="605" 
d="M190 602l144 123h128l92 -123h-136l-35 52l-57 -52h-136zM25 0l54 538h128l-46 -372l131 372h135l-24 -371l110 371h128l-177 -538h-163l32 408l-143 -408h-165z" />
    <glyph glyph-name="Ycircumflex" unicode="&#x176;" horiz-adv-x="521" 
d="M122 0l64 303l-89 422h143l46 -282l168 282h164l-273 -424l-64 -301h-159zM182 775l137 113h138l95 -113h-145l-30 50l-49 -50h-146z" />
    <glyph glyph-name="ycircumflex" unicode="&#x177;" horiz-adv-x="430" 
d="M106 602l144 123h128l92 -123h-136l-35 52l-57 -52h-136zM-39 -175l20 94h37q31 0 45.5 12.5t27.5 43.5l12 27l-46 536h140l11 -390l140 390h144l-235 -538q-47 -109 -89 -142t-145 -33h-62z" />
    <glyph glyph-name="Ydieresis" unicode="&#x178;" horiz-adv-x="521" 
d="M122 0l64 303l-89 422h143l46 -282l168 282h164l-273 -424l-64 -301h-159zM203 775l24 113h134l-24 -113h-134zM401 775l24 113h133l-24 -113h-133z" />
    <glyph glyph-name="Zacute" unicode="&#x179;" horiz-adv-x="513" 
d="M284 775l79 113h188l-134 -113h-133zM-35 0l24 112l387 492h-253l26 121h429l-24 -112l-388 -491h295l-26 -122h-470z" />
    <glyph glyph-name="zacute" unicode="&#x17a;" horiz-adv-x="423" 
d="M214 602l89 123h175l-148 -123h-116zM-35 0l20 95l275 348h-178l20 95h348l-20 -95l-276 -348h210l-20 -95h-379z" />
    <glyph glyph-name="Zdotaccent" unicode="&#x17b;" horiz-adv-x="513" 
d="M-35 0l24 112l387 492h-253l26 121h429l-24 -112l-388 -491h295l-26 -122h-470zM289 775l24 113h159l-24 -113h-159z" />
    <glyph glyph-name="zdotaccent" unicode="&#x17c;" horiz-adv-x="423" 
d="M-35 0l20 95l275 348h-178l20 95h348l-20 -95l-276 -348h210l-20 -95h-379zM226 603l27 122h133l-25 -122h-135z" />
    <glyph glyph-name="Zcaron" unicode="&#x17d;" horiz-adv-x="513" 
d="M429 775h-138l-92 113h145l29 -49l50 49h146zM-35 0l24 112l387 492h-253l26 121h429l-24 -112l-388 -491h295l-26 -122h-470z" />
    <glyph glyph-name="zcaron" unicode="&#x17e;" horiz-adv-x="423" 
d="M219 602l-94 123h136l35 -52l57 52h135l-143 -123h-126zM-35 0l20 95l275 348h-178l20 95h348l-20 -95l-276 -348h210l-20 -95h-379z" />
    <glyph glyph-name="uni018F" unicode="&#x18f;" horiz-adv-x="577" 
d="M575 408l-22 -101q-19 -88 -39 -142.5t-53.5 -97.5t-83.5 -61.5t-123 -18.5q-230 0 -230 180q0 60 18 141l18 85h345l2 7q23 108 23 147q0 36 -15 53.5t-49 17.5q-31 0 -53 -12t-34.5 -34.5t-18.5 -42t-11 -47.5l-2 -10h-165l2 10q22 115 90 179.5t204 64.5
q111 0 163 -43t52 -134q0 -51 -18 -141zM254 96q55 0 80.5 41.5t44.5 132.5l3 15h-177l-2 -10q-15 -77 -15 -97q0 -82 66 -82z" />
    <glyph glyph-name="uni0218" unicode="&#x218;" horiz-adv-x="522" 
d="M482 236q0 -249 -261 -249q-102 0 -165 43.5t-63 121.5q0 16 11 75l2 10h157l-2 -10q-8 -40 -8 -62q0 -37 16.5 -54t53.5 -17q43 0 70.5 27t27.5 77q0 58 -60 102l-52 40q-112 84 -112 170q0 228 250 228q213 0 213 -152q0 -34 -7 -66l-1 -5h-155l1 5q5 26 5 47
q0 66 -64 66q-39 -1 -64.5 -24t-25.5 -66t34 -71l59 -45q72 -55 106 -98.5t34 -92.5zM119 -243l59 94h-35l21 99h120l-22 -106l-64 -87h-79z" />
    <glyph glyph-name="uni0219" unicode="&#x219;" horiz-adv-x="459" 
d="M53 -243l59 94h-35l21 99h120l-22 -106l-64 -87h-79zM414 166q0 -84 -64.5 -131.5t-157.5 -47.5q-95 0 -145.5 37.5t-50.5 104.5q0 16 5 44l1 5h139l-1 -5q-3 -15 -3 -30q0 -56 60 -56q32 0 54.5 13.5t23.5 38.5q0 20 -10.5 31t-41.5 30l-70 42q-47 29 -71.5 59.5
t-24.5 83.5q0 81 64.5 124.5t156.5 43.5q74 0 127 -32.5t53 -97.5q0 -7 -5 -42l-1 -5h-135l1 5q4 20 4 27q0 46 -56 46q-69 0 -69 -53q0 -31 34 -52l66 -40q44 -26 64 -40.5t36.5 -41t16.5 -61.5z" />
    <glyph glyph-name="uni021A" unicode="&#x21a;" horiz-adv-x="477" 
d="M70 -243l59 94h-35l21 99h120l-22 -106l-64 -87h-79zM102 0l129 609h-148l25 116h455l-25 -116h-148l-129 -609h-159z" />
    <glyph glyph-name="uni021B" unicode="&#x21b;" horiz-adv-x="339" 
d="M-2 -243l59 94h-35l21 99h120l-22 -106l-64 -87h-79zM256 0h-110q-62 0 -87.5 18t-25.5 63q0 26 9 64l63 298h-65l20 95h65l31 146h153l-31 -146h91l-20 -95h-90l-60 -283q-5 -25 -5 -34q0 -18 9.5 -24.5t32.5 -6.5h40z" />
    <glyph glyph-name="uni0232" unicode="&#x232;" horiz-adv-x="521" 
d="M122 0l64 303l-89 422h143l46 -282l168 282h164l-273 -424l-64 -301h-159zM246 780l22 103h253l-22 -103h-253z" />
    <glyph glyph-name="uni0233" unicode="&#x233;" horiz-adv-x="430" 
d="M171 614l21 100h252l-21 -100h-252zM-39 -175l20 94h37q31 0 45.5 12.5t27.5 43.5l12 27l-46 536h140l11 -390l140 390h144l-235 -538q-47 -109 -89 -142t-145 -33h-62z" />
    <glyph glyph-name="uni0237" unicode="&#x237;" horiz-adv-x="239" 
d="M-121 -175l19 92h28q30 0 39.5 16t20.5 67l114 538h154l-114 -538q-24 -112 -58.5 -143.5t-130.5 -31.5h-72z" />
    <glyph glyph-name="uni0259" unicode="&#x259;" horiz-adv-x="493" 
d="M53 358l1 6q37 188 222 188q98 0 150.5 -46t52.5 -135q0 -39 -8 -68l-18 -87q-24 -121 -81.5 -175.5t-166.5 -54.5q-99 0 -145 41t-46 130q0 43 12 99l6 29h283l2 7q14 64 14 97q0 64 -52 64q-32 0 -51 -18t-30 -71l-1 -6h-144zM213 83q20 0 35 9t24 27.5t14 34t10 39.5
l2 10h-142l-2 -9q-6 -27 -6 -47q0 -64 65 -64z" />
    <glyph glyph-name="circumflex" unicode="&#x2c6;" horiz-adv-x="414" 
d="M96 602l144 123h128l92 -123h-136l-35 52l-57 -52h-136z" />
    <glyph glyph-name="caron" unicode="&#x2c7;" horiz-adv-x="413" 
d="M216 602l-94 123h136l35 -52l57 52h135l-143 -123h-126z" />
    <glyph glyph-name="breve" unicode="&#x2d8;" horiz-adv-x="343" 
d="M312 725h103q-17 -62 -53.5 -92.5t-112.5 -30.5q-129 0 -129 97q0 8 2 26h103q-2 -14 -2 -17q0 -30 34 -30q43 0 55 47z" />
    <glyph glyph-name="dotaccent" unicode="&#x2d9;" horiz-adv-x="185" 
d="M96 603l27 122h133l-25 -122h-135z" />
    <glyph glyph-name="ring" unicode="&#x2da;" horiz-adv-x="244" 
d="M304 678q0 -39 -27.5 -64t-67.5 -25t-67.5 25t-27.5 64t27.5 64.5t67.5 25.5t67.5 -25.5t27.5 -64.5zM168 678q0 -17 12 -28.5t29 -11.5t29 11.5t12 28.5q0 18 -12 29.5t-29 11.5t-29 -11.5t-12 -29.5z" />
    <glyph glyph-name="ogonek" unicode="&#x2db;" horiz-adv-x="271" 
d="M168 -101l-17 -79q-43 -8 -82 -8q-53 0 -87.5 19.5t-34.5 56.5q0 65 92 112h150q-60 -26 -84 -41.5t-24 -38.5q0 -11 13 -18.5t30 -7.5q22 0 44 5z" />
    <glyph glyph-name="tilde" unicode="&#x2dc;" horiz-adv-x="381" 
d="M180 603h-84q39 122 123 122q26 0 64.5 -17.5t47.5 -17.5q11 0 22 10t16 25h84q-20 -64 -51 -93t-64 -29q-21 0 -66 16.5t-59 16.5q-10 0 -16.5 -7.5t-16.5 -25.5z" />
    <glyph glyph-name="hungarumlaut" unicode="&#x2dd;" horiz-adv-x="472" 
d="M294 622l89 123h165l-138 -123h-116zM100 622l89 123h165l-138 -123h-116z" />
    <glyph glyph-name="uni032C" unicode="&#x32c;" horiz-adv-x="439" 
d="M93 -129l-127 139h119l64 -52l90 52h117l-187 -139h-76z" />
    <glyph glyph-name="uni0394" unicode="&#x394;" horiz-adv-x="650" 
d="M129 122h277l-138 332zM-57 0l325 749l325 -749h-650z" />
    <glyph glyph-name="uni0394" unicode="&#x2206;" horiz-adv-x="650" 
d="M129 122h277l-138 332zM-57 0l325 749l325 -749h-650z" />
    <glyph glyph-name="uni03A9" unicode="&#x3a9;" horiz-adv-x="790" 
d="M99 0v130h150v44q-66 30 -109 94.5t-43 166.5q0 145 80.5 224t222.5 79t222.5 -79t80.5 -224q0 -102 -43 -166.5t-109 -94.5v-44h150v-130h-269v249q61 18 95 64.5t34 117.5q0 94 -42.5 143t-118.5 49t-118.5 -49t-42.5 -143q0 -71 34 -117.5t95 -64.5v-249h-269z" />
    <glyph glyph-name="uni03A9" unicode="&#x2126;" horiz-adv-x="790" 
d="M99 0v130h150v44q-66 30 -109 94.5t-43 166.5q0 145 80.5 224t222.5 79t222.5 -79t80.5 -224q0 -102 -43 -166.5t-109 -94.5v-44h150v-130h-269v249q61 18 95 64.5t34 117.5q0 94 -42.5 143t-118.5 49t-118.5 -49t-42.5 -143q0 -71 34 -117.5t95 -64.5v-249h-269z" />
    <glyph glyph-name="pi" unicode="&#x3c0;" horiz-adv-x="547" 
d="M28 0l87 419h-64l26 122h484l-26 -122h-63l-51 -245q-5 -27 -5 -38q0 -14 8.5 -19.5t31.5 -5.5h27l-23 -111h-42q-72 0 -101.5 17.5t-29.5 67.5q0 32 10 76l53 258h-112l-87 -419h-123z" />
    <glyph glyph-name="Wgrave" unicode="&#x1e80;" horiz-adv-x="730" 
d="M402 775l-133 113h189l77 -113h-133zM45 0l63 725h144l-59 -550l202 550h133l-30 -550l173 550h145l-246 -725h-179l33 548l-199 -548h-180z" />
    <glyph glyph-name="wgrave" unicode="&#x1e81;" horiz-adv-x="605" 
d="M324 602l-97 123h175l37 -123h-115zM25 0l54 538h128l-46 -372l131 372h135l-24 -371l110 371h128l-177 -538h-163l32 408l-143 -408h-165z" />
    <glyph glyph-name="Wacute" unicode="&#x1e82;" horiz-adv-x="730" 
d="M412 775l79 113h188l-134 -113h-133zM45 0l63 725h144l-59 -550l202 550h133l-30 -550l173 550h145l-246 -725h-179l33 548l-199 -548h-180z" />
    <glyph glyph-name="wacute" unicode="&#x1e83;" horiz-adv-x="605" 
d="M322 602l89 123h175l-148 -123h-116zM25 0l54 538h128l-46 -372l131 372h135l-24 -371l110 371h128l-177 -538h-163l32 408l-143 -408h-165z" />
    <glyph glyph-name="Wdieresis" unicode="&#x1e84;" horiz-adv-x="730" 
d="M45 0l63 725h144l-59 -550l202 550h133l-30 -550l173 550h145l-246 -725h-179l33 548l-199 -548h-180zM308 775l24 113h134l-24 -113h-134zM506 775l24 113h133l-24 -113h-133z" />
    <glyph glyph-name="wdieresis" unicode="&#x1e85;" horiz-adv-x="605" 
d="M210 602l26 123h133l-26 -123h-133zM410 602l26 123h134l-26 -123h-134zM25 0l54 538h128l-46 -372l131 372h135l-24 -371l110 371h128l-177 -538h-163l32 408l-143 -408h-165z" />
    <glyph glyph-name="uni1ECA" unicode="&#x1eca;" horiz-adv-x="267" 
d="M-25 -175l25 118h133l-25 -118h-133zM-3 0l154 725h159l-154 -725h-159z" />
    <glyph glyph-name="uni1ECB" unicode="&#x1ecb;" horiz-adv-x="239" 
d="M-14 0l114 538h154l-114 -538h-154zM113 597l27 128h154l-27 -128h-154zM-39 -175l25 118h133l-25 -118h-133z" />
    <glyph glyph-name="uni1ECC" unicode="&#x1ecc;" horiz-adv-x="575" 
d="M191 174q0 -77 64 -77q24 0 42.5 11.5t30 27.5t23 51.5t18 63.5t18.5 83q1 3 1 5l10 47q25 113 25 165q0 40 -14.5 58.5t-49.5 18.5q-24 0 -42.5 -11.5t-30 -27.5t-23 -51.5t-18 -63.5t-18.5 -83q-1 -3 -1 -5l-10 -47q-25 -113 -25 -165zM564 371l-16 -76
q-37 -170 -100.5 -239t-196.5 -69q-117 0 -169 48.5t-52 156.5q0 69 21 162l16 76q35 168 99.5 238t197.5 70q117 0 168.5 -48.5t51.5 -156.5q0 -64 -20 -162zM128 -175l25 118h133l-25 -118h-133z" />
    <glyph glyph-name="uni1ECD" unicode="&#x1ecd;" horiz-adv-x="494" 
d="M87 -175l25 118h133l-25 -118h-133zM165 147q0 -62 51 -62q14 0 25 4t19.5 15.5t14 22t11.5 33.5t9.5 38.5t10.5 48.5l9 45q15 77 15 101q0 61 -51 61q-17 0 -29.5 -7.5t-20.5 -18t-16 -35t-12 -43t-12 -57.5l-10 -47q-14 -72 -14 -99zM473 303l-18 -85
q-27 -124 -82.5 -178t-165.5 -54q-193 0 -193 175q0 31 8 74l18 87q27 123 83 177t166 54q192 0 192 -174q0 -33 -8 -76z" />
    <glyph glyph-name="uni1EE4" unicode="&#x1ee4;" horiz-adv-x="561" 
d="M138 -175l25 118h133l-25 -118h-133zM614 725l-92 -432q-20 -96 -40 -150t-54.5 -92t-82 -51t-124.5 -13q-108 0 -151.5 30.5t-43.5 109.5q0 60 23 166l92 432h159l-93 -439q-21 -100 -21 -131q0 -30 13 -44t44 -14q53 0 74.5 39.5t44.5 149.5l93 439h159z" />
    <glyph glyph-name="uni1EE5" unicode="&#x1ee5;" horiz-adv-x="503" 
d="M85 -175l25 118h133l-25 -118h-133zM244 0l14 66q-27 -42 -60 -60.5t-81 -18.5q-53 0 -79.5 25t-26.5 84q0 37 12 91l74 351h154l-67 -317q-16 -74 -16 -91q0 -37 30 -37q39 0 61 41.5t39 119.5l60 284h153l-108 -538h-159z" />
    <glyph glyph-name="Ygrave" unicode="&#x1ef2;" horiz-adv-x="521" 
d="M307 775l-133 113h189l77 -113h-133zM122 0l64 303l-89 422h143l46 -282l168 282h164l-273 -424l-64 -301h-159z" />
    <glyph glyph-name="ygrave" unicode="&#x1ef3;" horiz-adv-x="430" 
d="M248 602l-97 123h175l37 -123h-115zM-39 -175l20 94h37q31 0 45.5 12.5t27.5 43.5l12 27l-46 536h140l11 -390l140 390h144l-235 -538q-47 -109 -89 -142t-145 -33h-62z" />
    <glyph glyph-name="endash" unicode="&#x2013;" horiz-adv-x="492" 
d="M9 186l27 131h439l-27 -131h-439z" />
    <glyph glyph-name="emdash" unicode="&#x2014;" horiz-adv-x="716" 
d="M9 186l27 131h663l-27 -131h-663z" />
    <glyph glyph-name="quoteleft" unicode="&#x2018;" horiz-adv-x="238" 
d="M310 725l-118 -164h71l-33 -155h-162l35 165l115 154h92z" />
    <glyph glyph-name="quoteright" unicode="&#x2019;" horiz-adv-x="238" 
d="M55 406l118 164h-71l33 155h162l-35 -165l-115 -154h-92z" />
    <glyph glyph-name="quotesinglbase" unicode="&#x201a;" horiz-adv-x="238" 
d="M-66 -164l118 164h-71l33 155h162l-35 -165l-115 -154h-92z" />
    <glyph glyph-name="quotedblleft" unicode="&#x201c;" horiz-adv-x="448" 
d="M522 725l-118 -164h71l-33 -155h-162l35 165l115 154h92zM310 725l-118 -164h71l-33 -155h-162l35 165l115 154h92z" />
    <glyph glyph-name="quotedblright" unicode="&#x201d;" horiz-adv-x="448" 
d="M267 406l118 164h-71l33 155h162l-35 -165l-115 -154h-92zM55 406l118 164h-71l33 155h162l-35 -165l-115 -154h-92z" />
    <glyph glyph-name="quotedblbase" unicode="&#x201e;" horiz-adv-x="448" 
d="M146 -164l118 164h-71l33 155h162l-35 -165l-115 -154h-92zM-66 -164l118 164h-71l33 155h162l-35 -165l-115 -154h-92z" />
    <glyph glyph-name="dagger" unicode="&#x2020;" horiz-adv-x="561" 
d="M153 0l83 391h-188l25 118h189l46 216h140l-46 -216h188l-25 -118h-188l-83 -391h-141z" />
    <glyph glyph-name="daggerdbl" unicode="&#x2021;" horiz-adv-x="561" 
d="M153 0l38 178h-188l25 118h189l25 116h-190l25 118h189l41 195h141l-41 -195h188l-25 -118h-188l-25 -116h188l-25 -118h-188l-38 -178h-141z" />
    <glyph glyph-name="bullet" unicode="&#x2022;" horiz-adv-x="455" 
d="M409 272q0 -77 -53 -130t-131 -53q-73 0 -125 53t-52 130q0 73 52 125t125 52q78 0 131 -51.5t53 -125.5z" />
    <glyph glyph-name="ellipsis" unicode="&#x2026;" horiz-adv-x="714" 
d="M219 0l33 155h162l-33 -155h-162zM457 0l33 155h162l-33 -155h-162zM-19 0l33 155h162l-33 -155h-162z" />
    <glyph glyph-name="perthousand" unicode="&#x2030;" horiz-adv-x="1081" 
d="M856 87q0 -35 28 -35q25 0 35.5 23.5t24.5 85.5l1.5 7.5t1.5 7t2 8.5l8 38q16 76 16 98q0 34 -26 34q-10 0 -17.5 -3.5t-14 -12.5t-10.5 -17.5t-9 -27.5t-8 -31.5t-8 -39.5l-8 -38q-16 -86 -16 -97zM1053 232l-12 -58q-20 -97 -56.5 -139.5t-109.5 -42.5q-58 0 -83 23.5
t-25 75.5q0 39 10 83l12 58q22 99 56.5 140.5t110.5 41.5q56 0 81.5 -24t25.5 -76q0 -38 -10 -82zM195 0l362 725h65l-362 -725h-65zM147 404q0 -35 28 -35q25 0 35.5 23.5t24.5 85.5q3 15 5 23l8 38q16 76 16 98q0 34 -26 34q-10 0 -17.5 -3.5t-14 -12.5t-10.5 -17.5
t-9 -27.5t-8 -31.5t-8 -39.5l-8 -38q-16 -86 -16 -97zM344 549l-12 -58q-20 -97 -56.5 -139.5t-109.5 -42.5q-58 0 -83 23.5t-25 75.5q0 39 10 83l12 58q22 99 56.5 140.5t110.5 41.5q56 0 81.5 -24t25.5 -76q0 -38 -10 -82zM553 87q0 -35 28 -35q25 0 35.5 23.5t24.5 85.5
l1.5 7.5t1.5 7t2 8.5l8 38q16 76 16 98q0 34 -26 34q-10 0 -17.5 -3.5t-14 -12.5t-10.5 -17.5t-9 -27.5t-8 -31.5t-8 -39.5l-8 -38q-16 -86 -16 -97zM750 232l-12 -58q-20 -97 -56.5 -139.5t-109.5 -42.5q-58 0 -83 23.5t-25 75.5q0 39 10 83l12 58q22 99 56.5 140.5
t110.5 41.5q56 0 81.5 -24t25.5 -76q0 -38 -10 -82z" />
    <glyph glyph-name="guilsinglleft" unicode="&#x2039;" horiz-adv-x="213" 
d="M135 43l-121 149l37 177l184 145l-36 -169l-87 -65l59 -66z" />
    <glyph glyph-name="guilsinglright" unicode="&#x203a;" horiz-adv-x="213" 
d="M82 514l121 -149l-37 -177l-184 -145l36 169l87 65l-59 66z" />
    <glyph glyph-name="fraction" unicode="&#x2044;" horiz-adv-x="169" 
d="M-109 0l362 725h65l-362 -725h-65z" />
    <glyph glyph-name="uni2070" unicode="&#x2070;" horiz-adv-x="304" 
d="M173 525q0 -35 28 -35q25 0 35.5 23.5t24.5 85.5q3 15 5 23l8 38q16 76 16 98q0 34 -26 34q-10 0 -17.5 -3.5t-14 -12.5t-10.5 -17.5t-9 -27.5t-8 -31.5t-8 -39.5l-8 -38q-16 -86 -16 -97zM370 670l-12 -58q-20 -97 -56.5 -139.5t-109.5 -42.5q-58 0 -83 23.5t-25 75.5
q0 39 10 83l12 58q22 99 56.5 140.5t110.5 41.5q56 0 81.5 -24t25.5 -76q0 -38 -10 -82z" />
    <glyph glyph-name="uni2074" unicode="&#x2074;" horiz-adv-x="300" 
d="M194 438l20 96h-145l14 66l190 246h90l-51 -239h49l-16 -73h-48l-20 -96h-83zM153 607h75l27 127z" />
    <glyph glyph-name="uni2075" unicode="&#x2075;" horiz-adv-x="285" 
d="M335 590l-6 -31q-15 -66 -49.5 -97.5t-98.5 -31.5q-47 0 -77 20.5t-30 65.5q0 13 4 33l1 5h87l-1 -5q-3 -15 -3 -29q0 -29 26 -29q19 0 28.5 16.5t16.5 51.5l6 29q5 25 5 36q0 33 -24 33q-22 0 -39 -36l-81 4l65 221h213l-16 -72h-141l-29 -98q10 18 30 30.5t45 12.5
q39 0 57 -18t18 -56q0 -18 -7 -55z" />
    <glyph glyph-name="uni2076" unicode="&#x2076;" horiz-adv-x="294" 
d="M343 579l-4 -20q-15 -66 -48 -97.5t-97 -31.5q-108 0 -108 97q0 31 12 93l12 57q19 96 53 136t108 40q100 0 100 -77q0 -14 -3 -30l-1 -7h-87l1 5q4 15 4 25q0 24 -22 24q-27 0 -39 -35q-4 -13 -16 -68l-5 -22q25 41 72 41q75 0 75 -75q0 -18 -7 -55zM174 520
q0 -29 22 -29q36 0 49 68l3 17q5 25 5 38q0 31 -25 31q-32 0 -45 -67l-4 -20q-5 -28 -5 -38z" />
    <glyph glyph-name="uni2077" unicode="&#x2077;" horiz-adv-x="222" 
d="M167 438h-96q49 218 186 336h-149l16 72h222l-16 -72q-70 -63 -105 -141.5t-58 -194.5z" />
    <glyph glyph-name="uni2078" unicode="&#x2078;" horiz-adv-x="299" 
d="M342 555q-15 -68 -50 -96t-101 -28q-118 0 -118 82q0 14 5 42q17 79 82 101q-37 16 -37 65q0 13 3 26q13 60 48.5 83.5t92.5 23.5q111 0 111 -75q0 -16 -4 -32q-9 -38 -29.5 -61t-41.5 -30q43 -18 43 -69q0 -16 -4 -32zM166 519q0 -28 32 -28q13 0 22 4t14.5 15t8 19
t6.5 25l1 5q4 15 4 34q0 27 -30 27q-27 0 -37.5 -15t-14.5 -45l-1 -6q-5 -22 -5 -35zM214 702q0 -21 23 -21q21 0 28 11t13 42l1 5q5 25 5 35q0 20 -23 20q-21 0 -28 -11t-13 -41l-1 -5q-5 -25 -5 -35z" />
    <glyph glyph-name="uni2079" unicode="&#x2079;" horiz-adv-x="294" 
d="M356 667l-12 -57q-19 -99 -50 -139.5t-103 -40.5q-51 0 -80 21t-29 57q0 10 5 37h86l-1 -5q-3 -16 -3 -25q0 -24 22 -24t31.5 19t20.5 72q1 3 1 4.5t0.5 4.5t1.5 5l5 23q-26 -42 -72 -42q-75 0 -75 77q0 22 6 52l5 21q15 67 47.5 97t96.5 30q57 0 83 -23.5t26 -71.5
q0 -30 -12 -92zM202 671q0 -29 24 -29q19 0 28.5 16t16.5 49l4 21q5 28 5 39q0 27 -22 27q-20 0 -30.5 -16t-17.5 -51l-3 -18q-5 -28 -5 -38z" />
    <glyph glyph-name="uni207A" unicode="&#x207a;" horiz-adv-x="341" 
d="M198 438v109h-104v80h104v110h81v-110h103v-80h-103v-109h-81z" />
    <glyph glyph-name="uni207B" unicode="&#x207b;" horiz-adv-x="327" 
d="M99 540v81h283v-81h-283z" />
    <glyph glyph-name="uni207C" unicode="&#x207c;" horiz-adv-x="349" 
d="M112 487v80h238v-80h-238zM112 600v81h238v-81h-238z" />
    <glyph glyph-name="uni207D" unicode="&#x207d;" horiz-adv-x="151" 
d="M176 340h-75q-33 72 -33 164q0 109 45.5 202.5t94.5 148.5h75q-50 -64 -90.5 -159t-40.5 -210q0 -84 24 -146z" />
    <glyph glyph-name="uni207E" unicode="&#x207e;" horiz-adv-x="154" 
d="M81 340h-77q47 58 90 161t43 207q0 84 -26 147h77q34 -74 34 -164q0 -105 -46.5 -201.5t-94.5 -149.5z" />
    <glyph glyph-name="uni207F" unicode="&#x207f;" horiz-adv-x="289" 
d="M61 438l64 302h93l-7 -32q28 43 82 43q61 0 61 -65q0 -21 -4 -38l-45 -210h-94l38 177q7 33 7 48q0 23 -19 23q-12 0 -20 -6t-13.5 -20t-8 -24.5t-6.5 -32.5l-35 -165h-93z" />
    <glyph glyph-name="uni2080" unicode="&#x2080;" horiz-adv-x="304" 
d="M54 -41q0 -35 28 -35q25 0 35.5 23.5t24.5 85.5q3 15 5 23l8 38q16 76 16 98q0 34 -26 34q-10 0 -17.5 -3.5t-14 -12.5t-10.5 -17.5t-9 -27.5t-8 -31.5t-8 -39.5l-8 -38q-16 -86 -16 -97zM251 104l-12 -58q-20 -97 -56.5 -139.5t-109.5 -42.5q-58 0 -83 23.5t-25 75.5
q0 39 10 83l12 58q22 99 56.5 140.5t110.5 41.5q56 0 81.5 -24t25.5 -76q0 -38 -10 -82z" />
    <glyph glyph-name="uni2081" unicode="&#x2081;" horiz-adv-x="181" 
d="M-17 -128l64 301h-66l13 59q44 2 58 9.5t31 40.5h73l-87 -410h-86z" />
    <glyph glyph-name="uni2082" unicode="&#x2082;" horiz-adv-x="289" 
d="M-59 -128l14 67l57 57q86 86 117.5 130t31.5 77q0 24 -25 24q-18 0 -26 -14t-17 -55l-1 -5h-89l1 5q13 68 45 98.5t96 30.5q49 0 79.5 -23t30.5 -57q0 -46 -31 -89.5t-111 -124.5l-49 -50h140l-15 -71h-248z" />
    <glyph glyph-name="uni2083" unicode="&#x2083;" horiz-adv-x="295" 
d="M221 18q0 -73 -41.5 -113.5t-114.5 -40.5q-108 0 -108 87q0 17 3 32l1 5h87l-1 -5q-4 -15 -4 -31q0 -27 25 -27t36.5 16.5t17.5 47.5q3 17 3 31q0 32 -39 32h-25l14 63h23q24 0 34 13.5t16 41.5q4 16 4 31q0 26 -26 26q-16 0 -23.5 -10.5t-14.5 -42.5l-1 -5h-87l1 5
q13 64 46 88.5t87 24.5q49 0 81 -18.5t32 -57.5q0 -51 -24.5 -82t-54.5 -38q53 -18 53 -73z" />
    <glyph glyph-name="uni2084" unicode="&#x2084;" horiz-adv-x="300" 
d="M75 -128l20 96h-145l14 66l190 246h90l-51 -239h49l-16 -73h-48l-20 -96h-83zM34 41h75l27 127z" />
    <glyph glyph-name="uni2085" unicode="&#x2085;" horiz-adv-x="285" 
d="M216 24l-6 -31q-15 -66 -49.5 -97.5t-98.5 -31.5q-47 0 -77 20.5t-30 65.5q0 13 4 33l1 5h87l-1 -5q-3 -15 -3 -29q0 -29 26 -29q19 0 28.5 16.5t16.5 51.5l6 29q5 25 5 36q0 33 -24 33q-22 0 -39 -36l-81 4l65 221h213l-16 -72h-141l-29 -98q10 18 30 30.5t45 12.5
q39 0 57 -18t18 -56q0 -18 -7 -55z" />
    <glyph glyph-name="uni2086" unicode="&#x2086;" horiz-adv-x="294" 
d="M224 13l-4 -20q-15 -66 -48 -97.5t-97 -31.5q-108 0 -108 97q0 31 12 93l12 57q19 96 53 136t108 40q100 0 100 -77q0 -14 -3 -30l-1 -7h-87l1 5q4 15 4 25q0 24 -22 24q-27 0 -39 -35q-4 -14 -13 -56l-3 -12l-5 -22q25 41 72 41q75 0 75 -75q0 -18 -7 -55zM55 -46
q0 -29 22 -29q36 0 49 68l3 17q5 25 5 38q0 31 -25 31q-32 0 -45 -67l-4 -20q-5 -28 -5 -38z" />
    <glyph glyph-name="uni2087" unicode="&#x2087;" horiz-adv-x="222" 
d="M48 -128h-96q49 218 186 336h-149l16 72h222l-16 -72q-70 -63 -105 -141.5t-58 -194.5z" />
    <glyph glyph-name="uni2088" unicode="&#x2088;" horiz-adv-x="299" 
d="M223 -11q-15 -68 -50 -96t-101 -28q-118 0 -118 82q0 14 5 42q17 79 82 101q-37 16 -37 65q0 13 3 26q13 60 48.5 83.5t92.5 23.5q111 0 111 -75q0 -16 -4 -32q-9 -38 -29.5 -61t-41.5 -30q43 -18 43 -69q0 -16 -4 -32zM47 -47q0 -28 32 -28q13 0 22 4t14.5 15t8 19
t6.5 25l1 5q4 15 4 34q0 27 -30 27q-27 0 -37.5 -15t-14.5 -45l-1 -6q-5 -22 -5 -35zM95 136q0 -21 23 -21q21 0 28 11t13 42l1 5q5 25 5 35q0 20 -23 20q-21 0 -28 -11t-13 -41l-1 -5q-5 -25 -5 -35z" />
    <glyph glyph-name="uni2089" unicode="&#x2089;" horiz-adv-x="294" 
d="M237 101l-12 -57q-19 -99 -50 -139.5t-103 -40.5q-51 0 -80 21t-29 57q0 10 5 37h86l-1 -5q-3 -16 -3 -25q0 -24 22 -24t31.5 19t20.5 72q2 9 3 14l5 23q-26 -42 -72 -42q-75 0 -75 77q0 22 6 52l5 21q15 67 47.5 97t96.5 30q57 0 83 -23.5t26 -71.5q0 -30 -12 -92z
M83 105q0 -29 24 -29q19 0 28.5 16t16.5 49l4 21q5 28 5 39q0 27 -22 27q-20 0 -30.5 -16t-17.5 -51l-3 -18q-5 -28 -5 -38z" />
    <glyph glyph-name="uni208D" unicode="&#x208d;" horiz-adv-x="151" 
d="M57 -226h-75q-33 72 -33 164q0 109 45.5 202.5t94.5 148.5h75q-50 -64 -90.5 -159t-40.5 -210q0 -84 24 -146z" />
    <glyph glyph-name="uni208E" unicode="&#x208e;" horiz-adv-x="154" 
d="M-38 -226h-77q47 58 90 161t43 207q0 84 -26 147h77q34 -74 34 -164q0 -105 -46.5 -201.5t-94.5 -149.5z" />
    <glyph glyph-name="Euro" unicode="&#x20ac;" horiz-adv-x="608" 
d="M22 373l52 79h59q35 150 102.5 218t201.5 68q98 0 146 -38t48 -122q0 -34 -9 -81l-2 -10h-149l2 10q8 32 8 66q0 39 -17 53t-51 14q-51 0 -75 -41t-47 -137h178l-52 -79h-143l-6 -31l-3 -12h131l-52 -78h-94q-8 -40 -8 -86q0 -70 60 -70q45 0 72 26.5t44 107.5l2 10h150
l-2 -10q-26 -127 -96.5 -185t-191.5 -58q-105 0 -150 40.5t-45 128.5q0 55 8 96h-96l51 78h59l9 43h-94z" />
    <glyph glyph-name="uni2113" unicode="&#x2113;" 
d="M408 131l33 -82q-84 -61 -173 -61q-76 0 -113 28t-37 94q0 24 8 67l1 7l-83 -55l-35 78l144 96l47 223q24 110 71 160.5t133 50.5q66 0 108.5 -33t42.5 -93q0 -21 -4 -36q-9 -44 -29 -80.5t-57.5 -71.5t-71 -59.5t-95.5 -65.5l-12 -8l-23 -108q-5 -28 -5 -39
q0 -49 52 -49q41 0 98 37zM342 553l-31 -143l3 2q97 64 117 163q3 15 3 26q0 40 -33 40q-24 0 -36.5 -19.5t-22.5 -68.5z" />
    <glyph glyph-name="uni2116" unicode="&#x2116;" horiz-adv-x="912" 
d="M737 474q0 -40 33 -40q25 0 35.5 22.5t21.5 80.5l7 30q9 49 9 65q0 39 -33 39q-25 0 -36 -23t-22 -81l-6 -30q-9 -49 -9 -63zM934 576l-12 -56q-16 -78 -52 -113.5t-106 -35.5q-60 0 -92 29t-32 83q0 14 6 48l11 55q16 78 52.5 113t106.5 35q60 0 92 -28.5t32 -82.5
q0 -21 -6 -47zM579 207l26 120h279l-26 -120h-279zM-3 0l154 725h184l46 -521l111 521h141l-154 -725h-184l-46 521l-111 -521h-141z" />
    <glyph glyph-name="uni2117" unicode="&#x2117;" horiz-adv-x="826" 
d="M434 48q130 0 215.5 89.5t85.5 227.5q0 137 -85.5 225.5t-215.5 88.5t-216 -88.5t-86 -225.5q0 -138 86 -227.5t216 -89.5zM433 -12q-154 0 -261.5 107t-107.5 269t107.5 268.5t261.5 106.5q156 0 263 -106.5t107 -268.5t-107 -269t-263 -107zM422 163h-109v414h127
q85 0 121.5 -26t36.5 -98q0 -71 -38 -95t-138 -24v-171zM422 499v-96h16q25 1 31 10.5t6 39.5q0 29 -6 37.5t-32 8.5h-15z" />
    <glyph glyph-name="trademark" unicode="&#x2122;" horiz-adv-x="790" 
d="M396 326v399h144l37 -280l38 280h144v-399h-94v299h-1l-4 -35l-43 -264h-80l-43 264l-4 35h-1v-299h-93zM184 326v324h-73v75h252v-75h-73v-324h-106z" />
    <glyph glyph-name="estimated" unicode="&#x212e;" horiz-adv-x="578" 
d="M140 303h293v163q-52 52 -145 52q-99 0 -148 -51v-164zM496 148h40q-26 -71 -87 -115.5t-154 -44.5q-128 0 -199.5 80.5t-71.5 201.5q0 122 73.5 202t191.5 80q120 0 189.5 -81.5t71.5 -199.5h-410v-195q24 -24 68 -39.5t94 -15.5q141 0 194 127z" />
    <glyph glyph-name="onethird" unicode="&#x2153;" horiz-adv-x="645" 
d="M76 317l64 301h-66l13 59q44 2 58 9.5t31 40.5h73l-87 -410h-86zM72 0l362 725h65l-362 -725h-65zM595 146q0 -73 -41.5 -113.5t-114.5 -40.5q-108 0 -108 87q0 17 3 32l1 5h87l-1 -5q-4 -15 -4 -31q0 -27 25 -27t36.5 16.5t17.5 47.5q3 16 3 31q0 32 -39 32h-25l14 63
h23q24 0 34 13.5t16 41.5q4 16 4 31q0 26 -26 26q-16 0 -23.5 -10.5t-14.5 -42.5l-1 -5h-87l1 5q13 64 46 88.5t87 24.5q49 0 81 -18.5t32 -57.5q0 -51 -24.5 -82t-54.5 -38q53 -18 53 -73z" />
    <glyph glyph-name="twothirds" unicode="&#x2154;" horiz-adv-x="753" 
d="M34 317l14 67l57 57q86 86 117.5 130t31.5 77q0 24 -25 24q-18 0 -26 -14t-17 -55l-1 -5h-89l1 5q13 68 45 98.5t96 30.5q49 0 79.5 -23t30.5 -57q0 -46 -31 -89.5t-111 -124.5l-49 -50h140l-15 -71h-248zM180 0l362 725h65l-362 -725h-65zM703 146q0 -73 -41.5 -113.5
t-114.5 -40.5q-108 0 -108 87q0 17 3 32l1 5h87l-1 -5q-4 -15 -4 -31q0 -27 25 -27t36.5 16.5t17.5 47.5q3 16 3 31q0 32 -39 32h-25l14 63h23q24 0 34 13.5t16 41.5q4 16 4 31q0 26 -26 26q-16 0 -23.5 -10.5t-14.5 -42.5l-1 -5h-87l1 5q13 64 46 88.5t87 24.5
q49 0 81 -18.5t32 -57.5q0 -51 -24.5 -82t-54.5 -38q53 -18 53 -73z" />
    <glyph glyph-name="uni2155" unicode="&#x2155;" horiz-adv-x="635" 
d="M76 317l64 301h-66l13 59q44 2 58 9.5t31 40.5h73l-87 -410h-86zM72 0l362 725h65l-362 -725h-65zM591 152l-6 -31q-15 -66 -49.5 -97.5t-98.5 -31.5q-47 0 -77 20.5t-30 65.5q0 13 4 33l1 5h87l-1 -5q-3 -15 -3 -29q0 -29 26 -29q19 0 28.5 16.5t16.5 51.5l6 29
q5 25 5 36q0 33 -24 33q-22 0 -39 -36l-81 4l65 221h213l-16 -72h-141l-29 -98q10 18 30 30.5t45 12.5q39 0 57 -18t18 -56q0 -18 -7 -55z" />
    <glyph glyph-name="uni2156" unicode="&#x2156;" horiz-adv-x="743" 
d="M34 317l14 67l57 57q86 86 117.5 130t31.5 77q0 24 -25 24q-18 0 -26 -14t-17 -55l-1 -5h-89l1 5q13 68 45 98.5t96 30.5q49 0 79.5 -23t30.5 -57q0 -46 -31 -89.5t-111 -124.5l-49 -50h140l-15 -71h-248zM180 0l362 725h65l-362 -725h-65zM699 152l-6 -31
q-15 -66 -49.5 -97.5t-98.5 -31.5q-47 0 -77 20.5t-30 65.5q0 13 4 33l1 5h87l-1 -5q-3 -15 -3 -29q0 -29 26 -29q19 0 28.5 16.5t16.5 51.5l6 29q5 25 5 36q0 33 -24 33q-22 0 -39 -36l-81 4l65 221h213l-16 -72h-141l-29 -98q10 18 30 30.5t45 12.5q39 0 57 -18t18 -56
q0 -18 -7 -55z" />
    <glyph glyph-name="uni2157" unicode="&#x2157;" horiz-adv-x="749" 
d="M313 463q0 -73 -41.5 -113.5t-114.5 -40.5q-108 0 -108 87q0 17 3 32l1 5h87l-1 -5q-4 -15 -4 -31q0 -27 25 -27t36.5 16.5t17.5 47.5q3 16 3 31q0 32 -39 32h-25l14 63h23q24 0 34 13.5t16 41.5q4 16 4 31q0 26 -26 26q-16 0 -23.5 -10.5t-14.5 -42.5l-1 -5h-87l1 5
q13 64 46 88.5t87 24.5q49 0 81 -18.5t32 -57.5q0 -51 -24.5 -82t-54.5 -38q53 -18 53 -73zM186 0l362 725h65l-362 -725h-65zM705 152l-6 -31q-15 -66 -49.5 -97.5t-98.5 -31.5q-47 0 -77 20.5t-30 65.5q0 13 4 33l1 5h87l-1 -5q-3 -15 -3 -29q0 -29 26 -29q19 0 28.5 16.5
t16.5 51.5l6 29q5 25 5 36q0 33 -24 33q-22 0 -39 -36l-81 4l65 221h213l-16 -72h-141l-29 -98q10 18 30 30.5t45 12.5q39 0 57 -18t18 -56q0 -18 -7 -55z" />
    <glyph glyph-name="uni2158" unicode="&#x2158;" horiz-adv-x="754" 
d="M168 317l20 96h-145l14 66l190 246h90l-51 -239h49l-16 -73h-48l-20 -96h-83zM127 486h75l27 127zM191 0l362 725h65l-362 -725h-65zM710 152l-6 -31q-15 -66 -49.5 -97.5t-98.5 -31.5q-47 0 -77 20.5t-30 65.5q0 13 4 33l1 5h87l-1 -5q-3 -15 -3 -29q0 -29 26 -29
q19 0 28.5 16.5t16.5 51.5l6 29q5 25 5 36q0 33 -24 33q-22 0 -39 -36l-81 4l65 221h213l-16 -72h-141l-29 -98q10 18 30 30.5t45 12.5q39 0 57 -18t18 -56q0 -18 -7 -55z" />
    <glyph glyph-name="uni2159" unicode="&#x2159;" horiz-adv-x="644" 
d="M76 317l64 301h-66l13 59q44 2 58 9.5t31 40.5h73l-87 -410h-86zM72 0l362 725h65l-362 -725h-65zM599 141l-4 -20q-15 -66 -48 -97.5t-97 -31.5q-108 0 -108 97q0 31 12 93l12 57q19 96 53 136t108 40q100 0 100 -77q0 -14 -3 -30l-1 -7h-87l1 5q4 15 4 25q0 24 -22 24
q-27 0 -39 -35q-4 -14 -13 -56l-3 -12l-5 -22q25 41 72 41q75 0 75 -75q0 -18 -7 -55zM430 82q0 -29 22 -29q36 0 49 68l3 17q5 25 5 38q0 31 -25 31q-32 0 -45 -67l-4 -20q-5 -28 -5 -38z" />
    <glyph glyph-name="uni215A" unicode="&#x215a;" horiz-adv-x="748" 
d="M309 469l-6 -31q-15 -66 -49.5 -97.5t-98.5 -31.5q-47 0 -77 20.5t-30 65.5q0 13 4 33l1 5h87l-1 -5q-3 -15 -3 -29q0 -29 26 -29q19 0 28.5 16.5t16.5 51.5l6 29q5 25 5 36q0 33 -24 33q-22 0 -39 -36l-81 4l65 221h213l-16 -72h-141l-29 -98q10 18 30 30.5t45 12.5
q39 0 57 -18t18 -56q0 -18 -7 -55zM176 0l362 725h65l-362 -725h-65zM703 141l-4 -20q-15 -66 -48 -97.5t-97 -31.5q-108 0 -108 97q0 31 12 93l12 57q19 96 53 136t108 40q100 0 100 -77q0 -14 -3 -30l-1 -7h-87l1 5q4 15 4 25q0 24 -22 24q-27 0 -39 -35q-4 -14 -13 -56
l-3 -12l-5 -22q25 41 72 41q75 0 75 -75q0 -18 -7 -55zM534 82q0 -29 22 -29q36 0 49 68l3 17q5 25 5 38q0 31 -25 31q-32 0 -45 -67l-4 -20q-5 -28 -5 -38z" />
    <glyph glyph-name="oneeighth" unicode="&#x215b;" horiz-adv-x="649" 
d="M76 317l64 301h-66l13 59q44 2 58 9.5t31 40.5h73l-87 -410h-86zM72 0l362 725h65l-362 -725h-65zM598 117q-15 -68 -50 -96t-101 -28q-118 0 -118 82q0 14 5 42q17 79 82 101q-37 16 -37 65q0 13 3 26q13 60 48.5 83.5t92.5 23.5q111 0 111 -75q0 -16 -4 -32
q-9 -38 -29.5 -61t-41.5 -30q43 -18 43 -69q0 -16 -4 -32zM422 81q0 -28 32 -28q13 0 22 4t14.5 15t8 19t6.5 25l1 5q4 15 4 34q0 27 -30 27q-27 0 -37.5 -15t-14.5 -45l-1 -6q-5 -22 -5 -35zM470 264q0 -21 23 -21q21 0 28 11t13 42l1 5q5 25 5 35q0 20 -23 20
q-21 0 -28 -11t-13 -41l-1 -5q-5 -25 -5 -35z" />
    <glyph glyph-name="threeeighths" unicode="&#x215c;" horiz-adv-x="763" 
d="M313 463q0 -73 -41.5 -113.5t-114.5 -40.5q-108 0 -108 87q0 17 3 32l1 5h87l-1 -5q-4 -15 -4 -31q0 -27 25 -27t36.5 16.5t17.5 47.5q3 16 3 31q0 32 -39 32h-25l14 63h23q24 0 34 13.5t16 41.5q4 16 4 31q0 26 -26 26q-16 0 -23.5 -10.5t-14.5 -42.5l-1 -5h-87l1 5
q13 64 46 88.5t87 24.5q49 0 81 -18.5t32 -57.5q0 -51 -24.5 -82t-54.5 -38q53 -18 53 -73zM186 0l362 725h65l-362 -725h-65zM712 117q-15 -68 -50 -96t-101 -28q-118 0 -118 82q0 14 5 42q17 79 82 101q-37 16 -37 65q0 13 3 26q13 60 48.5 83.5t92.5 23.5q111 0 111 -75
q0 -16 -4 -32q-9 -38 -29.5 -61t-41.5 -30q43 -18 43 -69q0 -16 -4 -32zM536 81q0 -28 32 -28q13 0 22 4t14.5 15t8 19t6.5 25l1 5q4 15 4 34q0 27 -30 27q-27 0 -37.5 -15t-14.5 -45l-1 -6q-5 -22 -5 -35zM584 264q0 -21 23 -21q21 0 28 11t13 42l1 5q5 25 5 35
q0 20 -23 20q-21 0 -28 -11t-13 -41l-1 -5q-5 -25 -5 -35z" />
    <glyph glyph-name="fiveeighths" unicode="&#x215d;" horiz-adv-x="753" 
d="M309 469l-6 -31q-15 -66 -49.5 -97.5t-98.5 -31.5q-47 0 -77 20.5t-30 65.5q0 13 4 33l1 5h87l-1 -5q-3 -15 -3 -29q0 -29 26 -29q19 0 28.5 16.5t16.5 51.5l6 29q5 25 5 36q0 33 -24 33q-22 0 -39 -36l-81 4l65 221h213l-16 -72h-141l-29 -98q10 18 30 30.5t45 12.5
q39 0 57 -18t18 -56q0 -18 -7 -55zM176 0l362 725h65l-362 -725h-65zM702 117q-15 -68 -50 -96t-101 -28q-118 0 -118 82q0 14 5 42q17 79 82 101q-37 16 -37 65q0 13 3 26q13 60 48.5 83.5t92.5 23.5q111 0 111 -75q0 -16 -4 -32q-9 -38 -29.5 -61t-41.5 -30q43 -18 43 -69
q0 -16 -4 -32zM526 81q0 -28 32 -28q13 0 22 4t14.5 15t8 19t6.5 25l1 5q4 15 4 34q0 27 -30 27q-27 0 -37.5 -15t-14.5 -45l-1 -6q-5 -22 -5 -35zM574 264q0 -21 23 -21q21 0 28 11t13 42l1 5q5 25 5 35q0 20 -23 20q-21 0 -28 -11t-13 -41l-1 -5q-5 -25 -5 -35z" />
    <glyph glyph-name="seveneighths" unicode="&#x215e;" horiz-adv-x="690" 
d="M141 317h-96q49 218 186 336h-149l16 72h222l-16 -72q-70 -63 -105 -141.5t-58 -194.5zM113 0l362 725h65l-362 -725h-65zM639 117q-15 -68 -50 -96t-101 -28q-118 0 -118 82q0 14 5 42q17 79 82 101q-37 16 -37 65q0 13 3 26q13 60 48.5 83.5t92.5 23.5q111 0 111 -75
q0 -16 -4 -32q-9 -38 -29.5 -61t-41.5 -30q43 -18 43 -69q0 -16 -4 -32zM463 81q0 -28 32 -28q13 0 22 4t14.5 15t8 19t6.5 25l1 5q4 15 4 34q0 27 -30 27q-27 0 -37.5 -15t-14.5 -45l-1 -6q-5 -22 -5 -35zM511 264q0 -21 23 -21q21 0 28 11t13 42l1 5q5 25 5 35
q0 20 -23 20q-21 0 -28 -11t-13 -41l-1 -5q-5 -25 -5 -35z" />
    <glyph glyph-name="uni215F" unicode="&#x215f;" horiz-adv-x="350" 
d="M76 317l64 301h-66l13 59q44 2 58 9.5t31 40.5h73l-87 -410h-86zM72 0l362 725h65l-362 -725h-65z" />
    <glyph glyph-name="arrowleft" unicode="&#x2190;" horiz-adv-x="800" 
d="M763 203h-499l156 -156l-87 -89l-311 311l311 311l89 -87l-158 -158h499v-132z" />
    <glyph glyph-name="arrowup" unicode="&#x2191;" horiz-adv-x="800" 
d="M334 0v499l-156 -156l-89 87l311 311l311 -311l-87 -89l-158 158v-499h-132z" />
    <glyph glyph-name="arrowright" unicode="&#x2192;" horiz-adv-x="800" 
d="M36 335h499l-156 156l87 89l311 -311l-311 -311l-89 87l158 158h-499v132z" />
    <glyph glyph-name="arrowdown" unicode="&#x2193;" horiz-adv-x="800" 
d="M466 725v-499l156 156l89 -87l-311 -311l-311 311l87 89l158 -158v499h132z" />
    <glyph glyph-name="uni2196" unicode="&#x2196;" horiz-adv-x="800" 
d="M598 -33l-353 353v-222h-124v440h441v-125h-223l353 -352z" />
    <glyph glyph-name="uni2197" unicode="&#x2197;" horiz-adv-x="800" 
d="M74 61l353 353h-222v124h440v-441h-125v223l-352 -353z" />
    <glyph glyph-name="uni2198" unicode="&#x2198;" horiz-adv-x="800" 
d="M202 571l353 -353v222h124v-440h-440v125h222l-353 352z" />
    <glyph glyph-name="uni2199" unicode="&#x2199;" horiz-adv-x="800" 
d="M726 477l-353 -353h222v-124h-440v440h125v-222l352 353z" />
    <glyph glyph-name="uni219E" unicode="&#x219e;" horiz-adv-x="800" 
d="M763 203h-219l156 -158l-87 -87l-245 245h-104l156 -156l-87 -89l-311 311l311 311l89 -87l-158 -158h104l245 245l89 -87l-158 -158h219v-132z" />
    <glyph glyph-name="uni219F" unicode="&#x219f;" horiz-adv-x="800" 
d="M334 0v219l-158 -156l-87 87l245 245v104l-156 -156l-89 87l311 311l311 -311l-87 -89l-158 158v-104l245 -245l-87 -89l-158 158v-219h-132z" />
    <glyph glyph-name="uni21A0" unicode="&#x21a0;" horiz-adv-x="800" 
d="M36 335h219l-156 158l87 87l245 -245h104l-156 156l87 89l311 -311l-311 -311l-89 87l158 158h-104l-245 -245l-89 87l158 158h-219v132z" />
    <glyph glyph-name="uni21A1" unicode="&#x21a1;" horiz-adv-x="800" 
d="M466 725v-219l158 156l87 -87l-245 -245v-104l156 156l89 -87l-311 -311l-311 311l87 89l158 -158v104l-245 245l87 89l158 -158v219h132z" />
    <glyph glyph-name="uni21A2" unicode="&#x21a2;" horiz-adv-x="800" 
d="M761 45l-87 -87l-245 245h-195l156 -158l-87 -87l-311 311l311 311l89 -87l-158 -158h195l245 245l89 -87l-224 -224z" />
    <glyph glyph-name="uni21A3" unicode="&#x21a3;" horiz-adv-x="800" 
d="M263 269l-224 224l89 87l245 -245h195l-158 158l89 87l311 -311l-311 -311l-87 87l156 158h-195l-245 -245l-87 87z" />
    <glyph glyph-name="uni21A4" unicode="&#x21a4;" horiz-adv-x="800" 
d="M742 0h-132v203h-367l156 -156l-87 -89l-311 311l311 311l89 -87l-158 -158h367v203h132v-538z" />
    <glyph glyph-name="uni21A5" unicode="&#x21a5;" horiz-adv-x="800" 
d="M131 0v132h203v367l-156 -156l-89 87l311 311l311 -311l-87 -89l-158 158v-367h203v-132h-538z" />
    <glyph glyph-name="uni21A6" unicode="&#x21a6;" horiz-adv-x="800" 
d="M58 538h132v-203h367l-156 156l87 89l311 -311l-311 -311l-89 87l158 158h-367v-203h-132v538z" />
    <glyph glyph-name="uni21A7" unicode="&#x21a7;" horiz-adv-x="800" 
d="M669 725v-132h-203v-367l156 156l89 -87l-311 -311l-311 311l87 89l158 -158v367h-203v132h538z" />
    <glyph glyph-name="uni21B0" unicode="&#x21b0;" horiz-adv-x="800" 
d="M723 -175h-132v378h-327l156 -156l-87 -89l-311 311l311 311l89 -87l-158 -158h459v-510z" />
    <glyph glyph-name="uni21B1" unicode="&#x21b1;" horiz-adv-x="799" 
d="M777 269l-311 -311l-87 89l156 156h-326v-378h-132v510h458l-158 158l89 87z" />
    <glyph glyph-name="uni21B2" unicode="&#x21b2;" horiz-adv-x="800" 
d="M591 335v390h132v-522h-459l158 -158l-89 -87l-311 311l311 311l87 -89l-156 -156h327z" />
    <glyph glyph-name="uni21B3" unicode="&#x21b3;" horiz-adv-x="800" 
d="M77 725h132v-390h327l-156 156l87 89l311 -311l-311 -311l-89 87l158 158h-459v522z" />
    <glyph glyph-name="partialdiff" unicode="&#x2202;" horiz-adv-x="514" 
d="M484 340v-21q0 -55 -5.5 -100.5t-21.5 -89.5t-41 -74t-66 -48.5t-96 -18.5q-110 0 -168 64.5t-58 171.5v28q0 222 205 222q76 0 122 -52l2 3q-3 47 -14 79.5t-36 60.5t-70.5 42t-114.5 16v116h3q196 0 277.5 -101.5t81.5 -297.5zM168 243v-23q0 -65 20.5 -96t64.5 -31
q86 0 86 125v26q0 125 -86 125q-44 0 -64.5 -30.5t-20.5 -95.5z" />
    <glyph glyph-name="product" unicode="&#x220f;" horiz-adv-x="622" 
d="M87 -175v900h448v-900h-142v778h-164v-778h-142z" />
    <glyph glyph-name="summation" unicode="&#x2211;" horiz-adv-x="511" 
d="M63 -175v117l207 333l-203 331v119h421v-122h-269l197 -328l-202 -328h274v-122h-425z" />
    <glyph glyph-name="minus" unicode="&#x2212;" 
d="M12 212v115h516v-115h-516z" />
    <glyph glyph-name="radical" unicode="&#x221a;" horiz-adv-x="579" 
d="M255 -175l-126 262l-87 -43l-52 120l192 95l125 -263l170 729h141l-219 -900h-144z" />
    <glyph glyph-name="infinity" unicode="&#x221e;" horiz-adv-x="773" 
d="M738 256q0 -76 -50.5 -124t-131.5 -48q-52 0 -91 22.5t-80 64.5q-84 -86 -174 -86q-81 0 -131 48t-50 123t51 123t133 48q90 0 169 -82q79 82 172 82q81 0 132 -48t51 -123zM151 256q0 -24 17.5 -40t45.5 -16q46 0 96 57q-47 55 -94 55q-29 0 -47 -16t-18 -40zM458 257
q50 -57 96 -57q28 0 45.5 16t17.5 40t-18 40t-47 16q-47 0 -94 -55z" />
    <glyph glyph-name="integral" unicode="&#x222b;" horiz-adv-x="472" 
d="M310 298v-162q0 -92 -14.5 -156t-41 -97t-57.5 -46.5t-70 -13.5q-43 0 -75 23t-32 64q0 26 16.5 43t44.5 17q21 0 37.5 -14.5t16.5 -44.5q0 -11 -3 -26q38 9 38 119q0 19 -4 92t-4 124v204q0 92 14.5 156.5t41.5 97.5t57.5 46.5t70.5 13.5q43 0 74.5 -23t31.5 -65
q0 -27 -16 -43.5t-45 -16.5q-21 0 -37.5 14t-16.5 45q0 13 3 26q-41 -8 -41 -118q0 -25 5.5 -97t5.5 -162z" />
    <glyph glyph-name="approxequal" unicode="&#x2248;" 
d="M137 55h-117q2 93 38.5 142.5t118.5 49.5q39 0 72.5 -16.5t61 -33.5t50.5 -17q24 0 35.5 14.5t13.5 52.5h118q-4 -97 -38.5 -144.5t-117.5 -47.5q-44 0 -99 33t-86 33q-25 0 -36.5 -14.5t-13.5 -51.5zM137 286h-117q2 95 38.5 144t118.5 49q39 0 72.5 -16.5t61 -33.5
t50.5 -17q24 0 35.5 14.5t13.5 52.5h118q-4 -96 -38.5 -144.5t-117.5 -48.5q-44 0 -99 33.5t-86 33.5q-25 0 -36.5 -14.5t-13.5 -52.5z" />
    <glyph glyph-name="notequal" unicode="&#x2260;" 
d="M58 312v117h225l45 109h137l-45 -109h68v-117h-117l-41 -101h158v-116h-206l-39 -95h-137l39 95h-87v116h135l41 101h-176z" />
    <glyph glyph-name="lessequal" unicode="&#x2264;" 
d="M487 555v-122l-270 -84l270 -84v-123l-452 143v127zM35 0v116h452v-116h-452z" />
    <glyph glyph-name="greaterequal" unicode="&#x2265;" 
d="M50 433v122l452 -143v-127l-452 -143v123l270 84zM502 116v-116h-452v116h452z" />
    <glyph glyph-name="filledbox" unicode="&#x25a0;" horiz-adv-x="624" 
d="M43 0v538h538v-538h-538z" />
    <glyph glyph-name="H22073" unicode="&#x25a1;" horiz-adv-x="624" 
d="M43 0v538h538v-538h-538zM175 406v-274h274v274h-274z" />
    <glyph glyph-name="lozenge" unicode="&#x25ca;" horiz-adv-x="574" 
d="M307 134l135 209l-135 209l-136 -209zM306 -96l-288 439l288 438l282 -438z" />
    <glyph glyph-name="circle" unicode="&#x25cb;" horiz-adv-x="602" 
d="M301 419q-65 0 -106 -43.5t-41 -106.5q0 -64 41 -107.5t106 -43.5q63 0 105 44t42 107q0 62 -42 106t-105 44zM301 550q121 0 202 -82t81 -199q0 -118 -81 -200t-202 -82t-202 82t-81 200q0 117 81 199t202 82z" />
    <glyph glyph-name="H18533" unicode="&#x25cf;" horiz-adv-x="602" 
d="M301 -13q-121 0 -202 82t-81 199q0 118 81 200t202 82t202 -82t81 -200q0 -117 -81 -199t-202 -82z" />
    <glyph glyph-name="fi" unicode="&#xfb01;" horiz-adv-x="556" 
d="M303 0l114 538h154l-114 -538h-154zM6 0l94 443h-65l20 95h64l10 47q17 87 63 113.5t144 26.5h68l-19 -91h-38q-32 0 -44.5 -10t-19.5 -41l-10 -45h91l-20 -95h-91l-94 -443h-153zM430 597l27 128h154l-27 -128h-154z" />
    <glyph glyph-name="fl" unicode="&#xfb02;" horiz-adv-x="557" 
d="M6 0l94 443h-65l20 95h64l10 47q17 87 63 113.5t144 26.5h68l-19 -91h-38q-32 0 -44.5 -10t-19.5 -41l-10 -45h91l-20 -95h-91l-94 -443h-153zM303 0l154 725h154l-154 -725h-154z" />
    <glyph glyph-name="_001" horiz-adv-x="0" 
 />
    <glyph glyph-name="_002" horiz-adv-x="180" 
 />
    <glyph glyph-name="bullet.001" horiz-adv-x="455" 
d="M409 272q0 -77 -53 -130t-131 -53q-73 0 -125 53t-52 130q0 73 52 125t125 52q78 0 131 -51.5t53 -125.5z" />
    <glyph glyph-name="_383" horiz-adv-x="239" 
d="M113 597l27 128h154l-27 -128h-154z" />
    <glyph glyph-name="_384" horiz-adv-x="183" 
d="M-70 -175l25 118h133l-25 -118h-133z" />
    <glyph glyph-name="_386" horiz-adv-x="174" 
d="M-84 -243l59 94h-35l21 99h120l-22 -106l-64 -87h-79z" />
    <glyph glyph-name="_390" horiz-adv-x="228" 
d="M96 555l60 170h143l-100 -170h-103z" />
    <glyph glyph-name="zero.zero" horiz-adv-x="549" 
d="M540 414l-22 -105q-38 -176 -98 -249t-191 -73q-105 0 -152 44.5t-47 140.5q0 62 16 136l23 106q18 87 38.5 144t53.5 99.5t81 61.5t116 19q105 0 152 -44.5t47 -141.5q0 -63 -17 -138zM180 153q0 -67 55 -67q19 0 34.5 6.5t27.5 23.5t20.5 33t18 49.5t15 58t15.5 71.5
l4 20l-173 -73q-17 -79 -17 -122zM222 397l-4 -18l173 71q17 73 17 118q0 36 -13 53.5t-43 17.5q-19 0 -34.5 -6.5t-27.5 -22.5t-20.5 -32.5t-17 -48.5t-14.5 -57t-15 -70q0 -1 -0.5 -2.5t-0.5 -2.5z" />
    <glyph glyph-name="one.onum" horiz-adv-x="314" 
d="M47 0l103 479h-93l20 94q69 2 93.5 14.5t49.5 64.5h118l-139 -652h-152z" />
    <glyph glyph-name="two.onum" horiz-adv-x="480" 
d="M-17 0l23 110l91 90q149 150 192.5 209t43.5 118q0 37 -36 37q-26 0 -41 -24.5t-27 -85.5l-2 -10h-143l2 10q22 109 76 159.5t159 50.5q81 0 125.5 -31.5t44.5 -87.5q0 -41 -12.5 -78t-48 -84t-66 -80.5t-99.5 -104.5l-81 -80h225l-25 -118h-401z" />
    <glyph glyph-name="three.onum" horiz-adv-x="484" 
d="M431 233q0 -245 -259 -245q-166 0 -166 132q0 30 7 62l1 5h142l-1 -5q-7 -37 -7 -52q0 -43 39 -43q34 0 56 25.5t28.5 55.5t6.5 65q0 51 -62 51h-42l22 103h37q26 0 44.5 14.5t27 38t11.5 44.5t3 43q0 19 -8.5 28t-30.5 9q-27 0 -38 -15.5t-23 -71.5l-1 -5h-142l1 5
q20 103 77 145t146 42q177 0 177 -121q0 -81 -40 -131t-87 -65q81 -30 81 -114z" />
    <glyph glyph-name="four.onum" horiz-adv-x="488" 
d="M175 0l33 154h-214l22 107l298 391h149l-81 -381h79l-25 -117h-77l-33 -154h-151zM126 271h105l42 194z" />
    <glyph glyph-name="five.onum" horiz-adv-x="470" 
d="M424 243l-11 -50q-25 -108 -77.5 -156.5t-154.5 -48.5q-77 0 -126 32t-49 103q0 30 7 59l1 5h141l-1 -5q-6 -29 -6 -49q0 -46 42 -46q27 0 41.5 25.5t25.5 79.5l10 50q7 40 7 55q0 49 -37 49t-56 -55l-138 6l103 355h348l-25 -118h-229l-44 -152q16 29 48.5 49t71.5 20
q62 0 90.5 -29t28.5 -90q0 -34 -11 -89z" />
    <glyph glyph-name="six.onum" horiz-adv-x="492" 
d="M441 226l-6 -30q-21 -107 -76.5 -157.5t-158.5 -50.5q-92 0 -132.5 37t-40.5 116q0 56 19 151l20 94q31 151 86 214.5t173 63.5q159 0 159 -123q0 -27 -6 -55l-1 -5h-142l1 5q5 24 5 43q0 35 -31 35q-37 0 -51.5 -33t-32.5 -127l-7 -35q16 26 46 44.5t67 18.5
q62 0 91 -29.5t29 -90.5q0 -36 -11 -86zM170 133q0 -46 39 -46q28 0 42.5 25.5t25.5 79.5l6 30q8 46 8 60q0 46 -36 46q-28 0 -44 -27t-27 -79l-6 -30q-8 -40 -8 -59z" />
    <glyph glyph-name="seven.onum" horiz-adv-x="434" 
d="M191 0h-159q60 288 320 534h-261l25 118h384l-25 -118q-124 -124 -189 -246.5t-95 -287.5z" />
    <glyph glyph-name="eight.onum" horiz-adv-x="496" 
d="M443 238q0 -250 -244 -250q-91 0 -142 34t-51 98q0 85 36 148t103 78q-58 26 -58 105q0 110 63 161.5t167 51.5q75 0 126 -32t51 -91q0 -80 -38.5 -133t-80.5 -62q68 -27 68 -108zM160 127q0 -40 45 -40q17 0 30 6t20 13t13 23.5t8 25.5t6 31l1 5q10 53 10 58
q0 40 -45 40q-21 0 -34.5 -6t-22 -22t-11.5 -26t-8 -35q-1 -6 -2 -9l-1 -5q-9 -47 -9 -59zM233 417q0 -31 38 -31q10 0 17.5 2t13 7t8.5 9t6 14t4.5 16t4.5 19.5t4 20.5l1 5q9 52 9 55q0 30 -36 30q-9 0 -16 -2t-12 -4t-9 -8t-6.5 -9.5t-5 -13t-3.5 -13.5t-3.5 -17t-3.5 -18
l-1 -5q-10 -46 -10 -57z" />
    <glyph glyph-name="nine.onum" horiz-adv-x="491" 
d="M459 359l-20 -94q-16 -76 -34 -125t-47.5 -85t-71.5 -51.5t-103 -15.5q-81 0 -122 32.5t-41 90.5q0 29 6 53l1 5h142l-1 -5q-5 -18 -5 -41q0 -36 32 -36q14 0 24.5 5.5t17.5 13.5t13.5 27t10 34.5l10.5 46.5q1 7 2 11l2.5 10t2.5 11l8 37q-16 -28 -45.5 -46.5
t-67.5 -18.5q-62 0 -91 29t-29 90q0 48 10 89l7 30q25 106 82 157t160 51q90 0 128 -38t38 -116q0 -56 -19 -151zM214 370q0 -46 36 -46q28 0 44 25.5t27 77.5l6 30q8 40 8 60q0 24 -7.5 35.5t-27.5 11.5q-29 0 -45.5 -27.5t-27.5 -79.5l-6 -30q-7 -40 -7 -57z" />
    <glyph glyph-name="zero.onum" horiz-adv-x="508" 
d="M170 140q0 -27 9 -40t32 -13q20 0 34 10.5t24 34.5t17 51t17 71q2 8 3 12.5t2.5 11.5t2.5 13l15 68q25 113 25 154q0 51 -40 51q-44 0 -66 -60q-11 -29 -35 -145l-15 -68q-25 -125 -25 -151zM484 374l-21 -97q-34 -156 -90 -222.5t-175 -66.5q-92 0 -134.5 38t-42.5 117
q0 52 17 134l21 97q34 156 90 223t176 67q92 0 133.5 -38.5t41.5 -117.5q0 -60 -16 -134z" />
    <glyph glyph-name="zero.onum_zero" horiz-adv-x="508" 
d="M484 374l-21 -97q-34 -156 -90 -222.5t-175 -66.5q-92 0 -134.5 38t-42.5 117q0 52 17 134l21 97q34 156 90 223t176 67q92 0 133.5 -38.5t41.5 -117.5q0 -60 -16 -134zM170 140q0 -27 9 -40t32 -13q20 0 34 10.5t24 34.5t17 51t17 71q2 8 3 12.5t2.5 11.5t2.5 13l4 18
l-127 -54q-18 -79 -18 -115zM311 564q-43 0 -66 -60q-11 -31 -35 -144l127 52q14 67 14 101q0 51 -40 51z" />
    <glyph glyph-name="one.tnum" 
d="M0 0l25 117h147l90 424h-143l20 95q48 1 71.5 3.5t52 11t45 26.5t30.5 48h119l-129 -608h131l-25 -117h-434z" />
    <glyph glyph-name="two.tnum" 
d="M-3 0l23 109l102 101l47 47q230 230 230 332q0 50 -50 50q-36 0 -57.5 -30t-35.5 -99l-2 -11h-143l2 10q25 118 82 173.5t170 55.5q87 0 140 -39t53 -103q0 -30 -8.5 -60.5t-32 -67t-40 -60.5t-59.5 -69.5t-61 -64t-71 -71.5l-87 -87h263l-25 -116h-440z" />
    <glyph glyph-name="three.tnum" 
d="M492 265q0 -132 -68.5 -205t-203.5 -73q-86 0 -142 37t-56 114q0 22 8 59l2 10h142l-2 -10q-8 -40 -8 -53q0 -58 57 -58q33 0 57 17t36 44.5t17.5 55t5.5 55.5q0 65 -83 65h-45l22 103h40q61 0 87 47.5t26 113.5q0 52 -53 52q-35 0 -52.5 -22t-31.5 -83l-1 -5h-144l1 5
q29 113 84 158.5t151 45.5q89 0 146.5 -34t57.5 -108q0 -77 -37.5 -132t-107.5 -78q44 -15 69.5 -46t25.5 -75z" />
    <glyph glyph-name="four.tnum" 
d="M222 0l37 174h-250l23 108l346 443h151l-92 -434h87l-25 -117h-86l-37 -174h-154zM141 291h142l53 248z" />
    <glyph glyph-name="five.tnum" 
d="M495 268l-11 -53q-23 -117 -86 -172.5t-177 -55.5q-86 0 -137.5 36.5t-51.5 116.5q0 24 6 56l2 10h142l-2 -9q-7 -35 -7 -51q0 -60 58 -60q38 0 60 31.5t35 95.5l11 51q7 32 7 63q0 65 -52 65q-50 0 -80 -69l-137 5l116 397h382l-25 -116h-263l-55 -189q47 76 130 76
q145 0 145 -144q0 -40 -10 -84z" />
    <glyph glyph-name="six.tnum" 
d="M496 250l-7 -35q-22 -117 -81.5 -172.5t-170.5 -55.5q-104 0 -151 44t-47 140q0 61 18 140l22 103q19 88 40 144t54 99t80.5 62t116.5 19q88 0 134 -36.5t46 -99.5q0 -16 -8 -56l-2 -10h-143l2 10q4 15 4 43q0 27 -11 38.5t-35 11.5q-48 0 -69.5 -43t-47.5 -158l-8 -36
q20 33 56 55t81 22q139 0 139 -139q0 -33 -12 -90zM181 149q0 -63 52 -63q38 0 61 31t38 94l8 36q8 40 8 60q0 67 -54 67q-37 0 -59.5 -31.5t-37.5 -95.5l-8 -35q-8 -40 -8 -63z" />
    <glyph glyph-name="seven.tnum" 
d="M240 0h-161q76 343 365 608h-320l25 117h443l-25 -117q-139 -135 -213.5 -275.5t-113.5 -332.5z" />
    <glyph glyph-name="eight.tnum" 
d="M502 262q0 -133 -65 -204t-194 -71q-104 0 -165.5 37.5t-61.5 115.5q0 98 42.5 160t116.5 86q-27 12 -47.5 42t-20.5 77q0 106 70.5 169.5t175.5 63.5q89 0 147.5 -36.5t58.5 -113.5q0 -51 -13.5 -89t-38 -60t-43 -32.5t-44.5 -20.5q82 -30 82 -124zM171 146
q0 -60 65 -60q50 0 70.5 28.5t33.5 87.5l2 10q8 42 8 57q0 60 -64 60q-49 0 -70.5 -29t-35.5 -88l-2 -10q-7 -37 -7 -56zM257 470q0 -22 10.5 -33t38.5 -11q41 0 57.5 23t27.5 77l2 10q8 46 8 58q0 23 -10.5 34t-38.5 11q-41 0 -59 -25t-27 -78l-2 -10q-7 -40 -7 -56z" />
    <glyph glyph-name="nine.tnum" 
d="M531 414l-22 -103q-20 -90 -39 -144.5t-50.5 -98.5t-77.5 -62.5t-114 -18.5q-90 0 -139.5 38.5t-49.5 102.5q0 19 7 52l2 10h144l-2 -10q-5 -24 -5 -44q0 -27 11 -38.5t35 -11.5q48 0 70.5 44t47.5 157l8 36q-47 -77 -128 -77q-147 0 -147 148q0 36 9 81l7 35
q24 118 86 173t177 55q101 0 145 -42.5t44 -133.5q0 -58 -19 -148zM241 416q0 -65 53 -65q37 0 60 32t38 96l7 34q8 40 8 63q0 63 -52 63q-72 0 -99 -125l-7 -35q-8 -40 -8 -63z" />
    <glyph glyph-name="zero.tnum" 
d="M180 153q0 -67 55 -67q19 0 34.5 6.5t27.5 23.5t20.5 33t18 49.5t15 58t15.5 71.5l14 66q28 128 28 174q0 36 -13 53.5t-43 17.5q-19 0 -34.5 -6.5t-27.5 -22.5t-20.5 -32.5t-17 -48.5t-14.5 -57t-15 -70q0 -1 -0.5 -2.5t-0.5 -2.5l-14 -68q-28 -140 -28 -176zM540 414
l-22 -105q-38 -176 -98 -249t-191 -73q-105 0 -152 44.5t-47 140.5q0 62 16 136l23 106q18 87 38.5 144t53.5 99.5t81 61.5t116 19q105 0 152.5 -44.5t47.5 -141.5q0 -58 -18 -138z" />
    <glyph glyph-name="zero.tnum_zero" 
d="M540 414l-22 -105q-38 -176 -98 -249t-191 -73q-105 0 -152 44.5t-47 140.5q0 62 16 136l23 106q18 87 38.5 144t53.5 99.5t81 61.5t116 19q105 0 152.5 -44.5t47.5 -141.5q0 -58 -18 -138zM222 397l-4 -18l174 71q16 84 16 118q0 36 -13 53.5t-43 17.5q-19 0 -34.5 -6.5
t-27.5 -22.5t-20.5 -32.5t-17 -48.5t-14.5 -57t-15 -70q0 -1 -0.5 -2.5t-0.5 -2.5zM180 153q0 -67 55 -67q19 0 34.5 6.5t27.5 23.5t20.5 33t18 49.5t15 58t15.5 71.5l4 20l-173 -74q-17 -76 -17 -121z" />
    <glyph glyph-name="one.case" horiz-adv-x="336" 
d="M63 0l115 539h-111l20 98q83 2 109 15t55 73h126l-154 -725h-160z" />
    <glyph glyph-name="two.case" horiz-adv-x="517" 
d="M-17 0l24 112l101 102q159 161 214.5 235.5t55.5 137.5q0 49 -46 49q-34 0 -54 -29t-34 -98l-2 -9h-144l1 8q25 121 81 175.5t168 54.5q87 0 138.5 -39t51.5 -98q0 -46 -15 -88t-50 -88.5t-72 -86.5t-99 -103l-26 -26l-87 -90h256l-25 -119h-437z" />
    <glyph glyph-name="three.case" horiz-adv-x="523" 
d="M475 261q0 -124 -69.5 -198.5t-194.5 -74.5q-88 0 -144.5 37.5t-56.5 119.5q0 25 6 55l1 4h145l-1 -4q-6 -31 -6 -55q0 -28 11.5 -41.5t39.5 -13.5q41 0 67.5 29.5t35 65.5t8.5 75q0 62 -78 62h-45l23 106h40q40 0 65.5 28t33.5 61.5t8 70.5q0 25 -11 37t-39 12
q-34 0 -51 -21.5t-29 -82.5l-1 -5h-145l1 5q23 112 82.5 159t153.5 47q85 0 143 -39t58 -113q0 -86 -43.5 -134t-101.5 -66q94 -31 94 -126z" />
    <glyph glyph-name="four.case" horiz-adv-x="532" 
d="M211 0l37 174h-245l24 112l337 439h156l-91 -430h89l-26 -121h-88l-37 -174h-156zM137 295h134l56 238z" />
    <glyph glyph-name="five.case" horiz-adv-x="510" 
d="M469 268l-11 -51q-24 -116 -90 -172.5t-180 -56.5q-179 0 -179 150q0 30 7 62l1 4h146l-1 -4q-7 -35 -7 -52q0 -58 54 -58q35 0 55 32t33 94l10 48q8 40 8 63q0 62 -49 62q-45 0 -74 -66l-139 5l114 397h379l-25 -120h-258l-52 -184q17 32 53.5 54.5t81.5 22.5
q69 0 101.5 -33.5t32.5 -102.5q0 -36 -11 -94z" />
    <glyph glyph-name="six.case" horiz-adv-x="532" 
d="M487 253l-8 -36q-25 -117 -85 -173t-171 -56q-101 0 -145.5 43t-44.5 137q0 63 18 149l22 100q18 87 38.5 143.5t53 98.5t79.5 60.5t115 18.5q176 0 176 -141q0 -25 -6 -52l-1 -6h-146l1 5q6 28 6 46q0 25 -10.5 35.5t-32.5 10.5q-46 0 -67 -43t-43 -153l-8 -37
q19 33 51.5 55t72.5 22q144 0 144 -145q0 -37 -9 -82zM178 151q0 -61 48 -61q36 0 58 32t36 94l6 32q8 40 8 63q0 60 -49 60q-37 0 -58 -30t-34 -93l-7 -32q-8 -40 -8 -65z" />
    <glyph glyph-name="seven.case" horiz-adv-x="452" 
d="M183 0h-165q72 331 363 605h-298l25 120h423l-25 -120q-138 -135 -211 -274.5t-112 -330.5z" />
    <glyph glyph-name="eight.case" horiz-adv-x="540" 
d="M492 255q0 -121 -68.5 -194t-195.5 -73q-98 0 -158 41t-60 113q0 89 42.5 155t114.5 90q-25 9 -46 42t-21 74q0 112 68 173.5t174 61.5q87 0 146 -35.5t59 -107.5q0 -52 -13 -91t-37 -62t-42.5 -34.5t-42.5 -20.5q38 -15 59 -49.5t21 -82.5zM168 145q0 -55 59 -55
q48 0 67.5 29t31.5 87l1 8q9 41 9 61q0 26 -13 39.5t-46 13.5q-48 0 -67.5 -28t-31.5 -86l-2 -8q-8 -46 -8 -61zM252 468q0 -40 45 -40q38 0 53.5 23.5t27.5 76.5l1 7q9 41 9 58q0 43 -47 43q-20 0 -33.5 -6t-22 -23t-12.5 -30t-11 -42l-1 -7q-9 -41 -9 -60z" />
    <glyph glyph-name="nine.case" horiz-adv-x="531" 
d="M509 413l-22 -103q-18 -87 -38.5 -143.5t-53.5 -99t-80 -61t-114 -18.5q-176 0 -176 143q0 25 6 52l1 6h146l-1 -5q-5 -24 -5 -45q0 -49 42 -49q46 0 66.5 42t43.5 155l8 37q-45 -77 -123 -77q-144 0 -144 148q0 37 9 82l8 34q22 117 83 172t173 55q101 0 145 -42.5
t44 -133.5q0 -64 -18 -149zM227 418q0 -62 48 -62q69 0 93 126l7 30q7 42 7 63q0 61 -48 61q-66 0 -92 -124l-7 -30q-8 -40 -8 -64z" />
    <glyph glyph-name="zero.case" horiz-adv-x="551" 
d="M180 157q0 -67 52 -67q18 0 32 6t25.5 22.5t19.5 31t16.5 46.5t13.5 53.5t15 66.5q1 3 1 4.5t1 4.5t1 5l14 66q28 134 28 172q0 69 -54 69q-18 0 -31.5 -6t-25 -22.5t-19 -30.5t-16.5 -47.5t-13.5 -53.5t-14.5 -67q-2 -9 -3 -14l-14 -66q-28 -136 -28 -173zM533 413
l-21 -100q-36 -177 -94 -251t-187 -74q-106 0 -154 46.5t-48 145.5q0 59 16 133l21 100q37 176 97 251t189 75q105 0 151.5 -45t46.5 -143q0 -56 -17 -138z" />
    <glyph glyph-name="zero.case_zero" horiz-adv-x="551" 
d="M533 413l-21 -100q-36 -177 -94 -251t-187 -74q-106 0 -154 46.5t-48 145.5q0 59 16 133l21 100q37 176 97 251t189 75q105 0 151.5 -45t46.5 -143q0 -56 -17 -138zM222 396l-3 -14l163 66q17 74 17 120q0 69 -54 69q-18 0 -31.5 -6t-25 -22.5t-19 -30.5t-16.5 -47.5
t-13.5 -53.5t-14.5 -67q-2 -9 -3 -14zM180 157q0 -67 52 -67q18 0 32 6t25.5 22.5t19.5 31t16.5 46.5t13.5 53.5t15 66.5q1 3 1 4.5t1 4.5t1 5l3 16l-163 -69q-17 -76 -17 -120z" />
    <glyph glyph-name="a.sups" horiz-adv-x="277" 
d="M205 438l5 33q-30 -41 -83 -41q-32 0 -48.5 17t-16.5 47v12q0 3 2 13l1 7q7 34 37 57q25 21 92 41l41 13l5 21q2 14 2 18q0 19 -24 19q-20 0 -27.5 -8.5t-11.5 -32.5l-1 -6h-81l1 6q8 51 35.5 74t81.5 23q56 0 86.5 -15t30.5 -58q0 -18 -4 -35q0 -7 -12 -53l-11 -52
q-14 -64 -15 -100h-85zM156 506q0 -19 20 -19q17 0 25.5 13.5t15.5 45.5l9 41q-5 -2 -23 -10q-23 -12 -31 -20t-12 -24l-2 -9q-2 -14 -2 -18z" />
    <glyph glyph-name="b.sups" horiz-adv-x="293" 
d="M350 611l-8 -39q-16 -75 -43 -108.5t-79 -33.5q-24 0 -40 12t-20 31l-7 -35h-94l87 408h93l-30 -138q26 42 78 42q69 0 69 -84q0 -25 -6 -55zM172 530q0 -35 28 -35q11 0 18.5 4.5t13 19t8 25t8.5 39.5l3 14q10 40 10 64q0 25 -21 25q-24 0 -36.5 -23t-22.5 -73
q-9 -43 -9 -60z" />
    <glyph glyph-name="c.sups" horiz-adv-x="268" 
d="M315 553l-1 -5q-23 -118 -135 -118q-106 0 -106 94q0 17 5 44l10 48q29 135 149 135q99 0 99 -82q0 -18 -4 -34l-1 -5h-88l1 5q4 20 4 33t-5 17.5t-16 4.5q-28 0 -44 -78q-1 -5 -2 -8l-6 -27q-10 -39 -10 -62q0 -25 21 -25q15 0 24.5 12t15.5 46l1 5h88z" />
    <glyph glyph-name="d.sups" horiz-adv-x="294" 
d="M215 438l7 35q-28 -43 -76 -43q-74 0 -74 81q0 32 7 61l9 39q15 71 42.5 105t75.5 34q24 0 42 -12t23 -30l30 138h93l-87 -408h-92zM168 522q0 -27 21 -27q27 0 38.5 22t22.5 73q8 40 8 60q0 36 -30 36q-19 0 -28.5 -20t-19.5 -69l-3 -15q-9 -49 -9 -60z" />
    <glyph glyph-name="e.sups" horiz-adv-x="278" 
d="M318 541l-1 -6q-23 -105 -134 -105q-108 0 -108 98q0 22 4 39l10 50q29 134 149 134q54 0 78.5 -22.5t24.5 -70.5q0 -22 -8 -62l-3 -15h-155l-1 -4q-9 -45 -9 -59q0 -28 23 -28q10 0 16.5 2t13.5 13t11 31l1 5h88zM187 637l-2 -8h70l1 5q4 15 4 31q0 26 -28 26
q-20 0 -29.5 -11.5t-15.5 -42.5z" />
    <glyph glyph-name="f.sups" horiz-adv-x="177" 
d="M67 438l52 246h-34l13 58h34l5 23q11 51 37.5 66t82.5 15h39l-12 -56h-20q-17 0 -23.5 -4.5t-10.5 -20.5l-5 -23h49l-13 -58h-48l-52 -246h-94z" />
    <glyph glyph-name="g.sups" horiz-adv-x="301" 
d="M373 741l-57 -270q-16 -76 -51.5 -108.5t-102.5 -32.5q-46 0 -75 18t-29 55q0 11 3 23h83q-1 -3 -1 -10q0 -24 28 -24q22 0 32 11.5t19 51.5l7 36q-35 -42 -73 -42q-82 0 -82 84q0 16 5 43l9 39q14 67 48 101t83 34q40 0 55 -42l7 33h92zM171 542q0 -28 24 -28
q15 0 24.5 5t16 19t9 23.5t8.5 34.5q10 50 10 60q0 30 -32 30q-21 0 -30.5 -18t-19.5 -63l-2 -10q-8 -37 -8 -53z" />
    <glyph glyph-name="h.sups" horiz-adv-x="285" 
d="M59 438l87 408h93l-30 -138q28 43 82 43q60 0 60 -63q0 -15 -5 -40l-45 -210h-93l38 177q8 38 8 49q0 22 -19 22q-12 0 -20 -6t-13.5 -20t-8 -24.5t-6.5 -32.5l-35 -165h-93z" />
    <glyph glyph-name="i.sups" horiz-adv-x="141" 
d="M61 438l64 302h93l-64 -302h-93zM131 772l16 74h93l-16 -74h-93z" />
    <glyph glyph-name="j.sups" horiz-adv-x="152" 
d="M2 338l12 58h16q16 0 20.5 7.5t10.5 35.5l64 301h93l-63 -296q-14 -63 -42 -84.5t-86 -21.5h-25zM131 772l16 74h93l-16 -74h-93z" />
    <glyph glyph-name="k.sups" horiz-adv-x="276" 
d="M61 438l87 408h86l-47 -218l100 112h81l-75 -90l23 -212h-75l-12 151l-67 -80l-15 -71h-86z" />
    <glyph glyph-name="l.sups" horiz-adv-x="141" 
d="M61 438l87 408h92l-87 -408h-92z" />
    <glyph glyph-name="m.sups" horiz-adv-x="428" 
d="M61 438l64 302h92l-7 -36q31 47 78 47q54 0 59 -53q20 30 39 41.5t46 11.5q60 0 60 -69q0 -16 -5 -43l-43 -201h-92l37 175q8 38 8 47q0 22 -17 22q-8 0 -14 -2.5t-9.5 -5.5t-6.5 -10.5t-4 -12t-3.5 -15t-3.5 -15.5l-39 -183h-94l41 193q5 22 5 33q0 19 -16 19
q-22 0 -31.5 -20.5t-16.5 -62.5l-34 -162h-93z" />
    <glyph glyph-name="o.sups" horiz-adv-x="281" 
d="M166 517q0 -27 23 -27q20 0 28 18t19 69l6 28q9 45 9 60q0 25 -21 25q-20 0 -29.5 -19t-18.5 -66l-6 -28q-10 -39 -10 -60zM340 615l-10 -47q-16 -72 -47 -105t-93 -33q-55 0 -85.5 24.5t-30.5 71.5q0 23 5 42l10 47q15 69 47 102.5t93 33.5q55 0 85.5 -25t30.5 -72
q0 -14 -5 -39z" />
    <glyph glyph-name="p.sups" horiz-adv-x="294" 
d="M40 338l85 402h92l-6 -32q26 43 78 43q69 0 69 -85q0 -24 -6 -55l-8 -39q-15 -76 -41.5 -109t-80.5 -33q-24 0 -41 12.5t-21 30.5l-28 -135h-92zM174 531q0 -36 28 -36q11 0 18.5 4.5t13 19t8 25t8.5 39.5l3 15q10 40 10 63q0 25 -21 25q-24 0 -36.5 -22.5t-22.5 -72.5
q-9 -43 -9 -60z" />
    <glyph glyph-name="q.sups" horiz-adv-x="295" 
d="M194 338l28 135q-27 -43 -79 -43q-70 0 -70 82q0 31 7 60l8 39q14 71 43.5 105.5t77.5 34.5q51 0 63 -43l7 32h93l-85 -402h-93zM168 522q0 -27 21 -27q25 0 38 23t23 73q8 40 8 60q0 35 -30 35q-19 0 -28.5 -20t-19.5 -69l-3 -14q-9 -39 -9 -61z" />
    <glyph glyph-name="r.sups" horiz-adv-x="191" 
d="M61 438l64 302h90l-13 -62q26 62 75 62h11l-19 -89h-23q-34 0 -43 -10t-17 -48l-33 -155h-92z" />
    <glyph glyph-name="s.sups" horiz-adv-x="259" 
d="M307 550q0 -57 -35 -88.5t-93 -31.5q-111 0 -111 99v5q0 6 1 9h85l-1 -5q-1 -3 -1 -14q0 -33 30 -33q17 0 27.5 10.5t10.5 25.5q0 10 -6 15.5t-23 13.5l-41 18q-55 20 -55 64q0 113 126 113q46 0 75 -20.5t29 -56.5q0 -6 -3 -21l-1 -5h-82l1 5q1 3 1 12q0 26 -27 26
q-17 -1 -25 -11t-8 -22t17 -20l36 -16q3 -1 12 -5.5t11.5 -5.5t10 -5t10 -5.5t8 -5.5t7.5 -7t5.5 -7.5t5 -9t2.5 -10t1 -11.5z" />
    <glyph glyph-name="t.sups" horiz-adv-x="181" 
d="M214 438h-66q-35 0 -50 11t-15 36q0 12 5 37l34 162h-34l13 58h33l17 84h93l-17 -84h51l-13 -58h-50l-32 -152q-3 -12 -3 -19q0 -18 22 -18h24z" />
    <glyph glyph-name="u.sups" horiz-adv-x="279" 
d="M204 438l8 37q-29 -44 -74 -44q-33 0 -48 14.5t-15 46.5q0 17 7 50l43 200h93l-38 -176q-8 -38 -8 -48q0 -22 16 -22q10 0 17.5 6t12.5 20t7.5 25t6.5 32l35 163h93l-65 -304h-91z" />
    <glyph glyph-name="v.sups" horiz-adv-x="247" 
d="M106 438l-6 304h93l-13 -211l82 211h87l-137 -304h-106z" />
    <glyph glyph-name="w.sups" horiz-adv-x="335" 
d="M81 438l30 304h75l-29 -210l74 210h74l-13 -210l59 210h75l-97 -304h-93l16 225l-77 -225h-94z" />
    <glyph glyph-name="x.sups" horiz-adv-x="253" 
d="M205 438l-28 82l-65 -82h-80l120 154l-50 150h89l24 -71l55 71h81l-112 -142l55 -162h-89z" />
    <glyph glyph-name="y.sups" horiz-adv-x="247" 
d="M39 338l12 59h23q31 0 42 30l4 12l-22 303h93l-6 -212l74 212h84l-131 -303q-24 -58 -52.5 -79.5t-81.5 -21.5h-39z" />
    <glyph glyph-name="z.sups" horiz-adv-x="241" 
d="M49 438l12 57l153 189h-100l13 58h196l-13 -58l-154 -189h120l-12 -57h-215z" />
    <glyph glyph-name="uni2070.zero" horiz-adv-x="305" 
d="M370 673l-13 -59q-19 -98 -54.5 -141t-108.5 -43q-111 0 -111 96q0 33 11 88l13 59q22 99 55.5 141t108.5 42q57 0 83.5 -24t26.5 -75q0 -29 -11 -84zM173 527q0 -36 27 -36q18 0 29.5 15.5t17 35t14.5 63.5q3 13 4 19l1 5l-83 -31q-10 -41 -10 -71zM196 663v-1l84 31
q10 40 10 69q0 34 -27 34q-30 0 -45 -44q-5 -16 -22 -89z" />
    <glyph glyph-name="period.sups" horiz-adv-x="133" 
d="M53 438l21 97h96l-21 -97h-96z" />
    <glyph glyph-name="hyphen.sups" horiz-adv-x="240" 
d="M81 543l15 73h189l-15 -73h-189z" />
    <glyph glyph-name="comma.sups" horiz-adv-x="173" 
d="M44 341l62 97h-35l21 97h97l-22 -104l-59 -90h-64z" />
    <glyph glyph-name="a.subs" horiz-adv-x="277" 
d="M86 -128l5 33q-30 -41 -83 -41q-32 0 -48.5 17t-16.5 47v12q0 3 2 13l1 7q7 34 37 57q25 21 92 41l41 13l5 21q2 14 2 18q0 19 -24 19q-20 0 -27.5 -8.5t-11.5 -32.5l-1 -6h-81l1 6q8 51 35.5 74t81.5 23q56 0 86.5 -15t30.5 -58q0 -18 -4 -35q0 -7 -12 -53l-11 -52
q-14 -64 -15 -100h-85zM37 -60q0 -19 20 -19q17 0 25.5 13.5t15.5 45.5l9 41q-5 -2 -23 -10q-23 -12 -31 -20t-12 -24l-2 -9q-2 -14 -2 -18z" />
    <glyph glyph-name="b.subs" horiz-adv-x="293" 
d="M231 45l-8 -39q-16 -75 -43 -108.5t-79 -33.5q-24 0 -40 12t-20 31l-7 -35h-94l87 408h93l-30 -138q26 42 78 42q69 0 69 -84q0 -25 -6 -55zM53 -36q0 -35 28 -35q11 0 18.5 4.5t13 19t8 25t8.5 39.5l3 14q10 40 10 64q0 25 -21 25q-24 0 -36.5 -23t-22.5 -73
q-9 -43 -9 -60z" />
    <glyph glyph-name="c.subs" horiz-adv-x="268" 
d="M196 -13l-1 -5q-23 -118 -135 -118q-106 0 -106 94q0 17 5 44l10 48q29 135 149 135q99 0 99 -82q0 -18 -4 -34l-1 -5h-88l1 5q4 20 4 33t-5 17.5t-16 4.5q-28 0 -44 -78q-1 -5 -2 -8l-6 -27q-10 -39 -10 -62q0 -25 21 -25q15 0 24.5 12t15.5 46l1 5h88z" />
    <glyph glyph-name="d.subs" horiz-adv-x="294" 
d="M96 -128l7 35q-28 -43 -76 -43q-74 0 -74 81q0 32 7 61l9 39q15 71 42.5 105t75.5 34q24 0 42 -12t23 -30l30 138h93l-87 -408h-92zM49 -44q0 -27 21 -27q27 0 38.5 22t22.5 73q8 40 8 60q0 36 -30 36q-19 0 -28.5 -20t-19.5 -69l-3 -15q-9 -49 -9 -60z" />
    <glyph glyph-name="e.subs" horiz-adv-x="278" 
d="M199 -25l-1 -6q-23 -105 -134 -105q-108 0 -108 98q0 22 4 39l10 50q29 134 149 134q54 0 78.5 -22.5t24.5 -70.5q0 -22 -8 -62l-3 -15h-155l-1 -4q-9 -45 -9 -59q0 -28 23 -28q10 0 16.5 2t13.5 13t11 31l1 5h88zM68 71l-2 -8h70l1 5q4 15 4 31q0 26 -28 26
q-20 0 -29.5 -11.5t-15.5 -42.5z" />
    <glyph glyph-name="f.subs" horiz-adv-x="177" 
d="M-52 -128l52 246h-34l13 58h34l5 23q11 51 37.5 66t82.5 15h39l-12 -56h-20q-17 0 -23.5 -4.5t-10.5 -20.5l-5 -23h49l-13 -58h-48l-52 -246h-94z" />
    <glyph glyph-name="g.subs" horiz-adv-x="301" 
d="M254 175l-57 -270q-16 -76 -51.5 -108.5t-102.5 -32.5q-46 0 -75 18t-29 55q0 11 3 23h83q-1 -3 -1 -10q0 -24 28 -24q22 0 32 11.5t19 51.5l7 36q-35 -42 -73 -42q-82 0 -82 84q0 16 5 43l9 39q14 67 48 101t83 34q40 0 55 -42l7 33h92zM52 -24q0 -28 24 -28
q15 0 24.5 5t16 19t9 23.5t8.5 34.5q10 50 10 60q0 30 -32 30q-21 0 -30.5 -18t-19.5 -63l-2 -10q-8 -37 -8 -53z" />
    <glyph glyph-name="h.subs" horiz-adv-x="285" 
d="M-60 -128l87 408h93l-30 -138q28 43 82 43q60 0 60 -63q0 -15 -5 -40l-45 -210h-93l38 177q8 38 8 49q0 22 -19 22q-12 0 -20 -6t-13.5 -20t-8 -24.5t-6.5 -32.5l-35 -165h-93z" />
    <glyph glyph-name="i.subs" horiz-adv-x="141" 
d="M-58 -128l64 302h93l-64 -302h-93zM12 206l16 74h93l-16 -74h-93z" />
    <glyph glyph-name="j.subs" horiz-adv-x="152" 
d="M-117 -228l12 58h16q16 0 20.5 7.5t10.5 35.5l64 301h93l-63 -296q-14 -63 -42 -84.5t-86 -21.5h-25zM12 206l16 74h93l-16 -74h-93z" />
    <glyph glyph-name="k.subs" horiz-adv-x="276" 
d="M-58 -128l87 408h86l-47 -218l100 112h81l-75 -90l23 -212h-75l-12 151l-67 -80l-15 -71h-86z" />
    <glyph glyph-name="l.subs" horiz-adv-x="141" 
d="M-58 -128l87 408h92l-87 -408h-92z" />
    <glyph glyph-name="m.subs" horiz-adv-x="428" 
d="M-58 -128l64 302h92l-7 -36q31 47 78 47q54 0 59 -53q20 30 39 41.5t46 11.5q60 0 60 -69q0 -16 -5 -43l-43 -201h-92l37 175q8 38 8 47q0 22 -17 22q-8 0 -14 -2.5t-9.5 -5.5t-6.5 -10.5t-4 -12t-3.5 -15t-3.5 -15.5l-39 -183h-94l41 193q5 22 5 33q0 19 -16 19
q-22 0 -31.5 -20.5t-16.5 -62.5l-34 -162h-93z" />
    <glyph glyph-name="uni207F.002" horiz-adv-x="289" 
d="M-58 -128l64 302h93l-7 -32q28 43 82 43q61 0 61 -65q0 -21 -4 -38l-45 -210h-94l38 177q7 33 7 48q0 23 -19 23q-12 0 -20 -6t-13.5 -20t-8 -24.5t-6.5 -32.5l-35 -165h-93z" />
    <glyph glyph-name="o.subs" horiz-adv-x="281" 
d="M47 -49q0 -27 23 -27q20 0 28 18t19 69l6 28q9 45 9 60q0 25 -21 25q-20 0 -29.5 -19t-18.5 -66l-6 -28q-10 -39 -10 -60zM221 49l-10 -47q-16 -72 -47 -105t-93 -33q-55 0 -85.5 24.5t-30.5 71.5q0 23 5 42l10 47q15 69 47 102.5t93 33.5q55 0 85.5 -25t30.5 -72
q0 -14 -5 -39z" />
    <glyph glyph-name="p.subs" horiz-adv-x="294" 
d="M-79 -228l85 402h92l-6 -32q26 43 78 43q69 0 69 -85q0 -24 -6 -55l-8 -39q-15 -76 -41.5 -109t-80.5 -33q-24 0 -41 12.5t-21 30.5l-28 -135h-92zM55 -35q0 -36 28 -36q11 0 18.5 4.5t13 19t8 25t8.5 39.5l3 15q10 40 10 63q0 25 -21 25q-24 0 -36.5 -22.5t-22.5 -72.5
q-9 -43 -9 -60z" />
    <glyph glyph-name="q.subs" horiz-adv-x="295" 
d="M75 -228l28 135q-27 -43 -79 -43q-70 0 -70 82q0 31 7 60l8 39q14 71 43.5 105.5t77.5 34.5q51 0 63 -43l7 32h93l-85 -402h-93zM49 -44q0 -27 21 -27q25 0 38 23t23 73q8 40 8 60q0 35 -30 35q-19 0 -28.5 -20t-19.5 -69l-3 -14q-9 -39 -9 -61z" />
    <glyph glyph-name="r.subs" horiz-adv-x="191" 
d="M-58 -128l64 302h90l-13 -62q26 62 75 62h11l-19 -89h-23q-34 0 -43 -10t-17 -48l-33 -155h-92z" />
    <glyph glyph-name="s.subs" horiz-adv-x="259" 
d="M188 -16q0 -57 -35 -88.5t-93 -31.5q-111 0 -111 99v5q0 6 1 9h85l-1 -5q-1 -3 -1 -14q0 -33 30 -33q17 0 27.5 10.5t10.5 25.5q0 10 -6 15.5t-23 13.5l-41 18q-55 20 -55 64q0 113 126 113q46 0 75 -20.5t29 -56.5q0 -6 -3 -21l-1 -5h-82l1 5q1 3 1 12q0 26 -27 26
q-17 -1 -25 -11t-8 -22t17 -20l36 -16q3 -1 12 -5.5t11.5 -5.5t10 -5t10 -5.5t8 -5.5t7.5 -7t5.5 -7.5t5 -9t2.5 -10t1 -11.5z" />
    <glyph glyph-name="t.subs" horiz-adv-x="181" 
d="M95 -128h-66q-35 0 -50 11t-15 36q0 12 5 37l34 162h-34l13 58h33l17 84h93l-17 -84h51l-13 -58h-50l-32 -152q-3 -12 -3 -19q0 -18 22 -18h24z" />
    <glyph glyph-name="u.subs" horiz-adv-x="279" 
d="M85 -128l8 37q-29 -44 -74 -44q-33 0 -48 14.5t-15 46.5q0 17 7 50l43 200h93l-38 -176q-8 -38 -8 -48q0 -22 16 -22q10 0 17.5 6t12.5 20t7.5 25t6.5 32l35 163h93l-65 -304h-91z" />
    <glyph glyph-name="v.subs" horiz-adv-x="247" 
d="M-13 -128l-6 304h93l-13 -211l82 211h87l-137 -304h-106z" />
    <glyph glyph-name="w.subs" horiz-adv-x="335" 
d="M-38 -128l30 304h75l-29 -210l74 210h74l-13 -210l59 210h75l-97 -304h-93l16 225l-77 -225h-94z" />
    <glyph glyph-name="x.subs" horiz-adv-x="253" 
d="M86 -128l-28 82l-65 -82h-80l120 154l-50 150h89l24 -71l55 71h81l-112 -142l55 -162h-89z" />
    <glyph glyph-name="y.subs" horiz-adv-x="247" 
d="M-80 -228l12 59h23q31 0 42 30l4 12l-22 303h93l-6 -212l74 212h84l-131 -303q-24 -58 -52.5 -79.5t-81.5 -21.5h-39z" />
    <glyph glyph-name="z.subs" horiz-adv-x="241" 
d="M-70 -128l12 57l153 189h-100l13 58h196l-13 -58l-154 -189h120l-12 -57h-215z" />
    <glyph glyph-name="uni2080.zero" horiz-adv-x="305" 
d="M251 107l-13 -59q-19 -98 -54.5 -141t-108.5 -43q-111 0 -111 96q0 33 11 88l13 59q22 99 55.5 141t108.5 42q57 0 83.5 -24t26.5 -75q0 -29 -11 -84zM54 -39q0 -36 27 -36q18 0 29.5 15.5t17 35t14.5 63.5q3 13 4 19l1 5l-83 -31q-10 -41 -10 -71zM77 97v-1l84 31
q10 40 10 69q0 34 -27 34q-30 0 -45 -44q-5 -16 -22 -89z" />
    <glyph glyph-name="period.subs" horiz-adv-x="133" 
d="M-66 -128l21 97h96l-21 -97h-96z" />
    <glyph glyph-name="hyphen.subs" horiz-adv-x="240" 
d="M-38 -23l15 73h189l-15 -73h-189z" />
    <glyph glyph-name="comma.subs" horiz-adv-x="173" 
d="M-75 -225l62 97h-35l21 97h97l-22 -104l-59 -90h-64z" />
    <glyph glyph-name="uni207C.003" horiz-adv-x="349" 
d="M-7 -79v80h238v-80h-238zM-7 34v81h238v-81h-238z" />
    <glyph glyph-name="uni207A.004" horiz-adv-x="341" 
d="M79 -128v109h-104v80h104v110h81v-110h103v-80h-103v-109h-81z" />
    <glyph glyph-name="uni207B.005" horiz-adv-x="327" 
d="M-20 -26v81h283v-81h-283z" />
    <glyph glyph-name="one.frac" horiz-adv-x="181" 
d="M76 317l64 301h-66l13 59q44 2 58 9.5t31 40.5h73l-87 -410h-86z" />
    <glyph glyph-name="two.frac" horiz-adv-x="289" 
d="M34 317l14 67l57 57q86 86 117.5 130t31.5 77q0 24 -25 24q-18 0 -26 -14t-17 -55l-1 -5h-89l1 5q13 68 45 98.5t96 30.5q49 0 79.5 -23t30.5 -57q0 -46 -31 -89.5t-111 -124.5l-49 -50h140l-15 -71h-248z" />
    <glyph glyph-name="three.frac" horiz-adv-x="295" 
d="M313 463q0 -73 -41.5 -113.5t-114.5 -40.5q-108 0 -108 87q0 17 3 32l1 5h87l-1 -5q-4 -15 -4 -31q0 -27 25 -27t36.5 16.5t17.5 47.5q3 16 3 31q0 32 -39 32h-25l14 63h23q24 0 34 13.5t16 41.5q4 16 4 31q0 26 -26 26q-16 0 -23.5 -10.5t-14.5 -42.5l-1 -5h-87l1 5
q13 64 46 88.5t87 24.5q49 0 81 -18.5t32 -57.5q0 -51 -24.5 -82t-54.5 -38q53 -18 53 -73z" />
    <glyph glyph-name="four.frac" horiz-adv-x="300" 
d="M168 317l20 96h-145l14 66l190 246h90l-51 -239h49l-16 -73h-48l-20 -96h-83zM127 486h75l27 127z" />
    <glyph glyph-name="five.frac" horiz-adv-x="285" 
d="M309 469l-6 -31q-15 -66 -49.5 -97.5t-98.5 -31.5q-47 0 -77 20.5t-30 65.5q0 13 4 33l1 5h87l-1 -5q-3 -15 -3 -29q0 -29 26 -29q19 0 28.5 16.5t16.5 51.5l6 29q5 25 5 36q0 33 -24 33q-22 0 -39 -36l-81 4l65 221h213l-16 -72h-141l-29 -98q10 18 30 30.5t45 12.5
q39 0 57 -18t18 -56q0 -18 -7 -55z" />
    <glyph glyph-name="six.frac" horiz-adv-x="294" 
d="M317 458l-4 -20q-15 -66 -48 -97.5t-97 -31.5q-108 0 -108 97q0 31 12 93l12 57q19 96 53 136t108 40q100 0 100 -77q0 -13 -3 -30l-1 -7h-87l1 5q4 15 4 25q0 24 -22 24q-27 0 -39 -35q-4 -13 -16 -68l-5 -22q25 41 72 41q75 0 75 -75q0 -18 -7 -55zM148 399
q0 -29 22 -29q36 0 49 68l3 17q5 25 5 38q0 31 -25 31q-32 0 -45 -67l-4 -20q-5 -28 -5 -38z" />
    <glyph glyph-name="seven.frac" horiz-adv-x="222" 
d="M141 317h-96q49 218 186 336h-149l16 72h222l-16 -72q-70 -63 -105 -141.5t-58 -194.5z" />
    <glyph glyph-name="eight.frac" horiz-adv-x="299" 
d="M316 434q-15 -68 -50 -96t-101 -28q-118 0 -118 82q0 14 5 42q17 79 82 101q-37 16 -37 65q0 12 3 26q13 60 48.5 83.5t92.5 23.5q111 0 111 -75q0 -16 -4 -32q-9 -38 -29.5 -61t-41.5 -30q43 -18 43 -69q0 -16 -4 -32zM140 398q0 -28 32 -28q13 0 22 4t14.5 15t8 19
t6.5 25l1 5q4 15 4 34q0 27 -30 27q-27 0 -37.5 -15t-14.5 -45l-1 -6q-5 -22 -5 -35zM188 581q0 -21 23 -21q21 0 28 11t13 42l1 5q5 25 5 35q0 20 -23 20q-21 0 -28 -11t-13 -41l-1 -5q-5 -25 -5 -35z" />
    <glyph glyph-name="nine.frac" horiz-adv-x="294" 
d="M330 546l-12 -57q-19 -99 -50 -139.5t-103 -40.5q-51 0 -80 21t-29 57q0 10 5 37h86l-1 -5q-3 -17 -3 -25q0 -24 22 -24t31.5 19t20.5 72q2 9 3 14l5 23q-26 -42 -72 -42q-75 0 -75 77q0 22 6 52l5 21q15 67 47.5 97t96.5 30q57 0 83 -23.5t26 -71.5q0 -30 -12 -92z
M176 550q0 -29 24 -29q19 0 28.5 16t16.5 49l4 21q5 28 5 39q0 27 -22 27q-20 0 -30.5 -16t-17.5 -51l-3 -18q-5 -28 -5 -38z" />
    <glyph glyph-name="zero.frac" horiz-adv-x="304" 
d="M147 404q0 -35 28 -35q25 0 35.5 23.5t24.5 85.5q3 15 5 23l8 38q16 76 16 98q0 34 -26 34q-10 0 -17.5 -3.5t-14 -12.5t-10.5 -17.5t-9 -27.5t-8 -31.5t-8 -39.5l-8 -38q-16 -86 -16 -97zM344 549l-12 -58q-20 -97 -56.5 -139.5t-109.5 -42.5q-58 0 -83 23.5t-25 75.5
q0 39 10 83l12 58q22 99 56.5 140.5t110.5 41.5q56 0 81.5 -24t25.5 -76q0 -38 -10 -82z" />
    <glyph glyph-name="zero.frac_zero" horiz-adv-x="305" 
d="M344 552l-13 -59q-19 -98 -54.5 -141t-108.5 -43q-111 0 -111 96q0 33 11 88l13 59q22 99 55.5 141t108.5 42q57 0 83.5 -24t26.5 -75q0 -29 -11 -84zM147 406q0 -36 27 -36q18 0 29.5 15.5t17 35t14.5 63.5q3 13 4 19l1 5l-83 -31q-10 -41 -10 -71zM170 542v-1l84 31
q10 40 10 69q0 34 -27 34q-30 0 -45 -44q-5 -16 -22 -89z" />
    <glyph glyph-name="one.dnom" horiz-adv-x="181" 
d="M9 0l64 301h-66l13 59q44 2 58 9.5t31 40.5h73l-87 -410h-86z" />
    <glyph glyph-name="two.dnom" horiz-adv-x="289" 
d="M-33 0l14 67l57 57q86 86 117.5 130t31.5 77q0 24 -25 24q-18 0 -26 -14t-17 -55l-1 -5h-89l1 5q13 68 45 98.5t96 30.5q49 0 79.5 -23t30.5 -57q0 -46 -31 -89.5t-111 -124.5l-49 -50h140l-15 -71h-248z" />
    <glyph glyph-name="three.dnom" horiz-adv-x="295" 
d="M246 146q0 -73 -41.5 -113.5t-114.5 -40.5q-108 0 -108 87q0 17 3 32l1 5h87l-1 -5q-4 -15 -4 -31q0 -27 25 -27t36.5 16.5t17.5 47.5q3 17 3 31q0 32 -39 32h-25l14 63h23q24 0 34 13.5t16 41.5q4 16 4 31q0 26 -26 26q-16 0 -23.5 -10.5t-14.5 -42.5l-1 -5h-87l1 5
q13 64 46 88.5t87 24.5q49 0 81 -18.5t32 -57.5q0 -51 -24.5 -82t-54.5 -38q53 -18 53 -73z" />
    <glyph glyph-name="four.dnom" horiz-adv-x="300" 
d="M101 0l20 96h-145l14 66l190 246h90l-51 -239h49l-16 -73h-48l-20 -96h-83zM60 169h75l27 127z" />
    <glyph glyph-name="five.dnom" horiz-adv-x="285" 
d="M242 152l-6 -31q-15 -66 -49.5 -97.5t-98.5 -31.5q-47 0 -77 20.5t-30 65.5q0 13 4 33l1 5h87l-1 -5q-3 -15 -3 -29q0 -29 26 -29q19 0 28.5 16.5t16.5 51.5l6 29q5 25 5 36q0 33 -24 33q-22 0 -39 -36l-81 4l65 221h213l-16 -72h-141l-29 -98q10 18 30 30.5t45 12.5
q39 0 57 -18t18 -56q0 -18 -7 -55z" />
    <glyph glyph-name="six.dnom" horiz-adv-x="294" 
d="M250 141l-4 -20q-15 -66 -48 -97.5t-97 -31.5q-108 0 -108 97q0 31 12 93l12 57q19 96 53 136t108 40q100 0 100 -77q0 -14 -3 -30l-1 -7h-87l1 5q4 15 4 25q0 24 -22 24q-27 0 -39 -35q-4 -14 -13 -56l-3 -12l-5 -22q25 41 72 41q75 0 75 -75q0 -18 -7 -55zM81 82
q0 -29 22 -29q36 0 49 68l3 17q5 25 5 38q0 31 -25 31q-32 0 -45 -67l-4 -20q-5 -28 -5 -38z" />
    <glyph glyph-name="seven.dnom" horiz-adv-x="222" 
d="M74 0h-96q49 218 186 336h-149l16 72h222l-16 -72q-70 -63 -105 -141.5t-58 -194.5z" />
    <glyph glyph-name="eight.dnom" horiz-adv-x="299" 
d="M249 117q-15 -68 -50 -96t-101 -28q-118 0 -118 82q0 14 5 42q17 79 82 101q-37 16 -37 65q0 13 3 26q13 60 48.5 83.5t92.5 23.5q111 0 111 -75q0 -16 -4 -32q-9 -38 -29.5 -61t-41.5 -30q43 -18 43 -69q0 -16 -4 -32zM73 81q0 -28 32 -28q13 0 22 4t14.5 15t8 19
t6.5 25l1 5q4 15 4 34q0 27 -30 27q-27 0 -37.5 -15t-14.5 -45l-1 -6q-5 -22 -5 -35zM121 264q0 -21 23 -21q21 0 28 11t13 42l1 5q5 25 5 35q0 20 -23 20q-21 0 -28 -11t-13 -41l-1 -5q-5 -25 -5 -35z" />
    <glyph glyph-name="nine.dnom" horiz-adv-x="294" 
d="M263 229l-12 -57q-19 -99 -50 -139.5t-103 -40.5q-51 0 -80 21t-29 57q0 10 5 37h86l-1 -5q-3 -16 -3 -25q0 -24 22 -24t31.5 19t20.5 72q2 9 3 14l5 23q-26 -42 -72 -42q-75 0 -75 77q0 22 6 52l5 21q15 67 47.5 97t96.5 30q57 0 83 -23.5t26 -71.5q0 -30 -12 -92z
M109 233q0 -29 24 -29q19 0 28.5 16t16.5 49l4 21q5 28 5 39q0 27 -22 27q-20 0 -30.5 -16t-17.5 -51l-3 -18q-5 -28 -5 -38z" />
    <glyph glyph-name="zero.dnom" horiz-adv-x="304" 
d="M80 87q0 -35 28 -35q25 0 35.5 23.5t24.5 85.5l1.5 7.5t1.5 7t2 8.5l8 38q16 76 16 98q0 34 -26 34q-10 0 -17.5 -3.5t-14 -12.5t-10.5 -17.5t-9 -27.5t-8 -31.5t-8 -39.5l-8 -38q-16 -86 -16 -97zM277 232l-12 -58q-20 -97 -56.5 -139.5t-109.5 -42.5q-58 0 -83 23.5
t-25 75.5q0 39 10 83l12 58q22 99 56.5 140.5t110.5 41.5q56 0 81.5 -24t25.5 -76q0 -38 -10 -82z" />
    <glyph glyph-name="zero.dnom_zero" horiz-adv-x="305" 
d="M277 235l-13 -59q-19 -98 -54.5 -141t-108.5 -43q-111 0 -111 96q0 33 11 88l13 59q22 99 55.5 141t108.5 42q57 0 83.5 -24t26.5 -75q0 -29 -11 -84zM80 89q0 -36 27 -36q18 0 29.5 15.5t17 35t14.5 63.5q3 13 4 19l1 5l-83 -31q-10 -41 -10 -71zM103 225v-1l84 31
q10 40 10 69q0 34 -27 34q-30 0 -45 -44q-5 -16 -22 -89z" />
    <glyph glyph-name="ampersand.case" horiz-adv-x="671" 
d="M504 400h126q-32 -138 -121 -243l90 -157h-164l-30 53q-78 -66 -187 -66q-93 0 -155 40t-62 121q0 132 185 242l21 12l-6 12q-37 66 -37 111q0 88 57.5 150.5t152.5 62.5q67 0 120 -31t53 -94q0 -122 -158 -215l-12 -8l72 -126q40 64 55 136zM231 95q71 0 122 49l-98 173
l-12 -7q-88 -53 -88 -139q0 -35 19 -55.5t57 -20.5zM299 556q0 -26 24 -71l6 -11l16 9q41 25 58 48t18 62q1 22 -12 32.5t-37 10.5q-32 0 -53 -20t-20 -60z" />
    <glyph glyph-name="hyphen.006" horiz-adv-x="350" 
d="M44 281l27 131h266l-27 -131h-266z" />
    <glyph glyph-name="endash.007" horiz-adv-x="492" 
d="M29 281l27 131h439l-27 -131h-439z" />
    <glyph glyph-name="emdash.008" horiz-adv-x="716" 
d="M29 281l27 131h663l-27 -131h-663z" />
    <glyph glyph-name="question.case" horiz-adv-x="530" 
d="M148 216l12 55q14 67 48.5 100t104.5 69q57 29 75 62.5t18 77.5q0 24 -17.5 38t-44.5 14q-48 0 -71 -25.5t-35 -87.5l-3 -15h-166l3 15q23 118 92.5 168.5t187.5 50.5q90 0 156 -36.5t66 -104.5q0 -144 -135 -211q-60 -29 -80.5 -48.5t-31.5 -69.5l-11 -52h-168zM101 0
l33 155h162l-33 -155h-162z" />
    <glyph glyph-name="questiondown.case" horiz-adv-x="530" 
d="M418 510l-11 -55q-14 -68 -47.5 -101t-102.5 -68q-53 -26 -73 -60t-20 -80q0 -52 54 -52q49 0 74.5 26t40.5 89l3 15h165l-3 -15q-27 -121 -90 -171.5t-179 -50.5q-59 0 -110 13.5t-88 47t-37 82.5q0 142 137 210q61 29 81.5 48.5t31.5 69.5l11 52h163zM265 570l33 155
h162l-33 -155h-162z" />
    <glyph glyph-name="exclam.case" horiz-adv-x="238" 
d="M53 211l33 319l41 195h178l-41 -195l-103 -319h-108zM-23 0l33 155h162l-33 -155h-162z" />
    <glyph glyph-name="exclamdown.case" horiz-adv-x="245" 
d="M226 514l-33 -319l-41 -195h-178l41 195l103 319h108zM99 570l33 155h162l-33 -155h-162z" />
    <glyph glyph-name="guilsinglleft.009" horiz-adv-x="213" 
d="M155 141l-121 149l37 177l184 145l-36 -169l-87 -65l59 -66z" />
    <glyph glyph-name="guilsinglright.010" horiz-adv-x="213" 
d="M102 612l121 -149l-37 -177l-184 -145l36 169l87 65l-59 66z" />
    <glyph glyph-name="guilsinglleft_guilsinglleft" horiz-adv-x="403" 
d="M336 141l-121 149l37 177l184 145l-36 -169l-87 -65l59 -66zM155 141l-121 149l37 177l184 145l-36 -169l-87 -65l59 -66z" />
    <glyph glyph-name="guilsinglright_guilsinglright" horiz-adv-x="403" 
d="M283 612l121 -149l-37 -177l-184 -145l36 169l87 65l-59 66zM102 612l121 -149l-37 -177l-184 -145l36 169l87 65l-59 66z" />
    <glyph glyph-name="parenleft.case" horiz-adv-x="273" 
d="M226 0h-135q-51 115 -51 237q0 258 203 488h135q-93 -117 -144.5 -246.5t-51.5 -253.5q0 -112 44 -225z" />
    <glyph glyph-name="parenright.case" horiz-adv-x="273" 
d="M70 0h-134q196 246 196 503q0 105 -45 222h135q52 -117 52 -231q0 -139 -59 -267.5t-145 -226.5z" />
    <glyph glyph-name="bracketleft.case" horiz-adv-x="302" 
d="M-3 0l154 725h253l-22 -102h-133l-110 -521h132l-22 -102h-252z" />
    <glyph glyph-name="bracketright.case" horiz-adv-x="304" 
d="M-60 0l22 102h131l110 521h-133l22 102h255l-154 -725h-253z" />
    <glyph glyph-name="braceleft.case" horiz-adv-x="302" 
d="M250 0h-30q-87 0 -127 24t-40 85q0 25 8 65l7 33q8 38 8 50q0 27 -14 40.5t-48 13.5l22 102q45 0 64.5 26.5t33.5 83.5l7 30q23 101 74 136.5t157 35.5h31l-22 -102h-16q-49 0 -69 -16t-27 -56l-10 -49q-13 -65 -43.5 -94.5t-78.5 -40.5v-2q70 -19 70 -92q0 -19 -6 -46
l-11 -54q-4 -15 -4 -29q0 -23 15 -32.5t54 -9.5h17z" />
    <glyph glyph-name="braceright.case" horiz-adv-x="303" 
d="M-60 0l22 102h15q48 0 67 15.5t28 55.5l11 54q13 64 44 94.5t78 41.5v2q-34 9 -52 28.5t-18 60.5q0 22 5 46l11 50q6 24 6 33q0 21 -16 30.5t-54 9.5h-17l22 102h29q80 0 123.5 -27.5t44.5 -81.5q0 -25 -8 -65l-8 -36q-7 -33 -7 -50q0 -27 14 -39.5t48 -12.5l-22 -101
q-46 0 -65 -24.5t-31 -77.5l-8 -36q-24 -105 -67 -139.5t-146 -34.5h-49z" />
    <glyph glyph-name="bar.case" horiz-adv-x="248" 
d="M54 0v725h140v-725h-140z" />
    <glyph glyph-name="brokenbar.case" horiz-adv-x="226" 
d="M183 465h-140v260h140v-260zM43 0v260h140v-260h-140z" />
    <glyph glyph-name="period.011" horiz-adv-x="238" 
d="M43 285l33 155h162l-33 -155h-162z" />
    <glyph glyph-name="bullet.012" horiz-adv-x="455" 
d="M429 367q0 -77 -53 -130t-131 -53q-73 0 -125 53t-52 130q0 73 52 125t125 52q78 0 131 -51.5t53 -125.5z" />
    <glyph glyph-name="plus.013" 
d="M236 95v211h-199v116h199v211h120v-211h197v-116h-197v-211h-120z" />
    <glyph glyph-name="minus.014" 
d="M32 307v115h516v-115h-516z" />
    <glyph glyph-name="divide.015" 
d="M213 107v151h160v-151h-160zM63 306v116h462v-116h-462zM213 470v150h160v-150h-160z" />
    <glyph glyph-name="multiply.016" 
d="M141 125l-80 84l150 150l-152 153l82 83l153 -154l152 152l82 -82l-152 -152l152 -152l-82 -82l-153 152z" />
    <glyph glyph-name="equal.017" 
d="M78 190v116h430v-116h-430zM78 407v117h430v-117h-430z" />
    <glyph glyph-name="plusminus.018" 
d="M221 259v129h-175v116h175v129h119v-129h175v-116h-175v-129h-119zM46 95v116h469v-116h-469z" />
    <glyph glyph-name="less.019" 
d="M478 87l-413 211v129l413 211v-132l-281 -144l281 -143v-132z" />
    <glyph glyph-name="greater.020" 
d="M522 298l-413 -211v132l281 143l-281 144v132l413 -211v-129z" />
    <glyph glyph-name="lessequal.021" 
d="M507 650v-122l-270 -84l270 -84v-123l-452 143v127zM55 95v116h452v-116h-452z" />
    <glyph glyph-name="greaterequal.022" 
d="M70 528v122l452 -143v-127l-452 -143v123l270 84zM522 211v-116h-452v116h452z" />
    <glyph glyph-name="notequal.023" 
d="M78 407v117h225l45 109h137l-45 -109h68v-117h-117l-41 -101h158v-116h-206l-39 -95h-137l39 95h-87v116h135l41 101h-176z" />
    <glyph glyph-name="acute.case" horiz-adv-x="293" 
d="M133 775l79 113h188l-134 -113h-133z" />
    <glyph glyph-name="breve.case" horiz-adv-x="371" 
d="M369 888h109q-25 -113 -166 -113q-71 0 -114.5 24.5t-43.5 68.5q0 10 3 20h109q-1 -2 -1 -8q0 -20 17 -29t39 -9q41 0 48 46z" />
    <glyph glyph-name="caron.case" horiz-adv-x="420" 
d="M387 775h-138l-92 113h145l29 -49l50 49h146z" />
    <glyph glyph-name="cedilla.case" horiz-adv-x="276" 
d="M170 -104q0 -43 -43.5 -67t-104.5 -24q-50 0 -92 15l27 50q23 -14 60 -14q25 0 42 9.5t17 26.5q0 20 -35 20q-24 0 -41 -9l-26 17l69 82h58l-43 -50q15 3 37 3q28 0 51.5 -18.5t23.5 -40.5z" />
    <glyph glyph-name="circumflex.case" horiz-adv-x="420" 
d="M133 775l137 113h138l95 -113h-145l-30 50l-49 -50h-146z" />
    <glyph glyph-name="dieresis.case" horiz-adv-x="381" 
d="M133 775l24 113h134l-24 -113h-134zM331 775l24 113h133l-24 -113h-133z" />
    <glyph glyph-name="dotaccent.case" horiz-adv-x="209" 
d="M133 775l24 113h159l-24 -113h-159z" />
    <glyph glyph-name="grave.case" horiz-adv-x="340" 
d="M290 775l-133 113h189l77 -113h-133z" />
    <glyph glyph-name="hungarumlaut.case" horiz-adv-x="482" 
d="M334 775l79 113h176l-122 -113h-133zM133 775l79 113h176l-122 -113h-133z" />
    <glyph glyph-name="overscore.case" horiz-adv-x="303" 
d="M134 780l22 103h253l-22 -103h-253z" />
    <glyph glyph-name="ogonek.case" horiz-adv-x="284" 
d="M171 -100l-17 -80q-43 -8 -85 -8q-52 0 -87 20.5t-35 55.5q0 68 86 112h159q-56 -24 -81.5 -42t-25.5 -40q0 -24 39 -24q17 0 47 6z" />
    <glyph glyph-name="ring.case" horiz-adv-x="234" 
d="M331 851q0 -37 -26 -61t-64 -24t-64 24t-26 61q0 36 26.5 60.5t63.5 24.5t63.5 -24.5t26.5 -60.5zM198 851q0 -18 12.5 -30t30.5 -12t30.5 12t12.5 30t-12.5 30.5t-30.5 12.5t-30.5 -12.5t-12.5 -30.5z" />
    <glyph glyph-name="tilde.case" horiz-adv-x="424" 
d="M230 775h-97q43 113 155 113q30 0 58 -18t42 -18q33 0 46 36h97q-45 -113 -155 -113q-30 0 -58.5 17t-40.5 17q-35 0 -47 -34z" />
    <glyph glyph-name="a.salt" horiz-adv-x="522" 
d="M267 0l14 66q-23 -34 -62 -56.5t-83 -22.5q-128 0 -128 137q0 50 13 106l15 70q27 126 78.5 185t139.5 59q44 0 73.5 -22t38.5 -56l15 72h154l-114 -538h-154zM167 143q0 -53 43 -53q48 0 73.5 42.5t45.5 133.5q14 67 14 103q0 37 -13.5 54.5t-44.5 17.5q-40 0 -59.5 -37
t-36.5 -126l-6 -25q-16 -84 -16 -110z" />
    <glyph glyph-name="aacute.salt" horiz-adv-x="522" 
d="M267 0l14 66q-23 -34 -62 -56.5t-83 -22.5q-128 0 -128 137q0 50 13 106l15 70q27 126 78.5 185t139.5 59q44 0 73.5 -22t38.5 -56l15 72h154l-114 -538h-154zM167 143q0 -53 43 -53q48 0 73.5 42.5t45.5 133.5q14 67 14 103q0 37 -13.5 54.5t-44.5 17.5q-40 0 -59.5 -37
t-36.5 -126l-6 -25q-16 -84 -16 -110zM250 602l89 123h175l-148 -123h-116z" />
    <glyph glyph-name="abreve.salt" horiz-adv-x="522" 
d="M267 0l14 66q-23 -34 -62 -56.5t-83 -22.5q-128 0 -128 137q0 50 13 106l15 70q27 126 78.5 185t139.5 59q44 0 73.5 -22t38.5 -56l15 72h154l-114 -538h-154zM167 143q0 -53 43 -53q48 0 73.5 42.5t45.5 133.5q14 67 14 103q0 37 -13.5 54.5t-44.5 17.5q-40 0 -59.5 -37
t-36.5 -126l-6 -25q-16 -84 -16 -110zM402 725h103q-17 -62 -53.5 -92.5t-112.5 -30.5q-129 0 -129 97q0 8 2 26h103q-2 -14 -2 -17q0 -30 34 -30q43 0 55 47z" />
    <glyph glyph-name="acircumflex.salt" horiz-adv-x="522" 
d="M267 0l14 66q-23 -34 -62 -56.5t-83 -22.5q-128 0 -128 137q0 50 13 106l15 70q27 126 78.5 185t139.5 59q44 0 73.5 -22t38.5 -56l15 72h154l-114 -538h-154zM167 143q0 -53 43 -53q48 0 73.5 42.5t45.5 133.5q14 67 14 103q0 37 -13.5 54.5t-44.5 17.5q-40 0 -59.5 -37
t-36.5 -126l-6 -25q-16 -84 -16 -110zM145 602l144 123h128l92 -123h-136l-35 52l-57 -52h-136z" />
    <glyph glyph-name="adieresis.salt" horiz-adv-x="522" 
d="M267 0l14 66q-23 -34 -62 -56.5t-83 -22.5q-128 0 -128 137q0 50 13 106l15 70q27 126 78.5 185t139.5 59q44 0 73.5 -22t38.5 -56l15 72h154l-114 -538h-154zM167 143q0 -53 43 -53q48 0 73.5 42.5t45.5 133.5q14 67 14 103q0 37 -13.5 54.5t-44.5 17.5q-40 0 -59.5 -37
t-36.5 -126l-6 -25q-16 -84 -16 -110zM165 602l26 123h133l-26 -123h-133zM365 602l26 123h134l-26 -123h-134z" />
    <glyph glyph-name="agrave.salt" horiz-adv-x="522" 
d="M267 0l14 66q-23 -34 -62 -56.5t-83 -22.5q-128 0 -128 137q0 50 13 106l15 70q27 126 78.5 185t139.5 59q44 0 73.5 -22t38.5 -56l15 72h154l-114 -538h-154zM167 143q0 -53 43 -53q48 0 73.5 42.5t45.5 133.5q14 67 14 103q0 37 -13.5 54.5t-44.5 17.5q-40 0 -59.5 -37
t-36.5 -126l-6 -25q-16 -84 -16 -110zM273 602l-97 123h175l37 -123h-115z" />
    <glyph glyph-name="amacron.salt" horiz-adv-x="522" 
d="M267 0l14 66q-23 -34 -62 -56.5t-83 -22.5q-128 0 -128 137q0 50 13 106l15 70q27 126 78.5 185t139.5 59q44 0 73.5 -22t38.5 -56l15 72h154l-114 -538h-154zM167 143q0 -53 43 -53q48 0 73.5 42.5t45.5 133.5q14 67 14 103q0 37 -13.5 54.5t-44.5 17.5q-40 0 -59.5 -37
t-36.5 -126l-6 -25q-16 -84 -16 -110zM209 614l21 100h252l-21 -100h-252z" />
    <glyph glyph-name="aogonek.salt" horiz-adv-x="522" 
d="M267 0l14 66q-23 -34 -62 -56.5t-83 -22.5q-128 0 -128 137q0 50 13 106l15 70q27 126 78.5 185t139.5 59q44 0 73.5 -22t38.5 -56l15 72h154l-114 -538q-61 -26 -85 -41.5t-24 -38.5q0 -11 13 -18.5t30 -7.5q22 0 44 5l-17 -79q-43 -8 -82 -8q-53 0 -87.5 19.5
t-34.5 56.5q0 67 89 112zM167 143q0 -53 43 -53q48 0 73.5 42.5t45.5 133.5q14 67 14 103q0 37 -13.5 54.5t-44.5 17.5q-40 0 -59.5 -37t-36.5 -126l-6 -25q-16 -84 -16 -110z" />
    <glyph glyph-name="aring.salt" horiz-adv-x="522" 
d="M267 0l14 66q-23 -34 -62 -56.5t-83 -22.5q-128 0 -128 137q0 50 13 106l15 70q27 126 78.5 185t139.5 59q44 0 73.5 -22t38.5 -56l15 72h154l-114 -538h-154zM167 143q0 -53 43 -53q48 0 73.5 42.5t45.5 133.5q14 67 14 103q0 37 -13.5 54.5t-44.5 17.5q-40 0 -59.5 -37
t-36.5 -126l-6 -25q-16 -84 -16 -110zM450 678q0 -39 -27.5 -64t-67.5 -25t-67.5 25t-27.5 64t27.5 64.5t67.5 25.5t67.5 -25.5t27.5 -64.5zM314 678q0 -17 12 -28.5t29 -11.5t29 11.5t12 28.5q0 18 -12 29.5t-29 11.5t-29 -11.5t-12 -29.5z" />
    <glyph glyph-name="atilde.salt" horiz-adv-x="522" 
d="M267 0l14 66q-23 -34 -62 -56.5t-83 -22.5q-128 0 -128 137q0 50 13 106l15 70q27 126 78.5 185t139.5 59q44 0 73.5 -22t38.5 -56l15 72h154l-114 -538h-154zM167 143q0 -53 43 -53q48 0 73.5 42.5t45.5 133.5q14 67 14 103q0 37 -13.5 54.5t-44.5 17.5q-40 0 -59.5 -37
t-36.5 -126l-6 -25q-16 -84 -16 -110zM226 603h-84q39 122 123 122q26 0 64.5 -17.5t47.5 -17.5q11 0 22 10t16 25h84q-20 -64 -51 -93t-64 -29q-21 0 -66 16.5t-59 16.5q-10 0 -16.5 -7.5t-16.5 -25.5z" />
    <glyph glyph-name="l.ss02" horiz-adv-x="303" 
d="M230 0h-80q-77 0 -109 18t-32 66q0 22 8 62l123 579h153l-119 -559q-2 -18 -2 -23q0 -23 14 -31.5t42 -8.5h24z" />
    <glyph glyph-name="lacute.ss02" horiz-adv-x="303" 
d="M165 775l79 113h188l-134 -113h-133zM230 0h-80q-77 0 -109 18t-32 66q0 22 8 62l123 579h153l-119 -559q-2 -18 -2 -23q0 -23 14 -31.5t42 -8.5h24z" />
    <glyph glyph-name="lcaron.ss02" horiz-adv-x="371" 
d="M230 0h-80q-77 0 -109 18t-32 66q0 22 8 62l123 579h153l-119 -559q-2 -18 -2 -23q0 -23 14 -31.5t42 -8.5h24zM292 555l60 170h143l-100 -170h-103z" />
    <glyph glyph-name="uni013C.ss02" horiz-adv-x="303" 
d="M230 0h-80q-77 0 -109 18t-32 66q0 22 8 62l123 579h153l-119 -559q-2 -18 -2 -23q0 -23 14 -31.5t42 -8.5h24zM-34 -243l59 94h-35l21 99h120l-22 -106l-64 -87h-79z" />
    <glyph glyph-name="ldot.ss02" horiz-adv-x="408" 
d="M263 359l24 113h159l-24 -113h-159zM230 0h-80q-77 0 -109 18t-32 66q0 22 8 62l123 579h153l-119 -559q-2 -18 -2 -23q0 -23 14 -31.5t42 -8.5h24z" />
    <glyph glyph-name="lslash.ss02" horiz-adv-x="303" 
d="M-33 239l26 123l77 37l70 326h153l-52 -244l83 40l-26 -123l-83 -40l-41 -192q-2 -18 -2 -23q0 -23 14 -31.5t42 -8.5h24l-22 -103h-80q-77 0 -109 18t-32 66q0 22 8 62l27 130z" />
    <glyph glyph-name="fl.ss02" horiz-adv-x="620" 
d="M6 0l94 443h-65l20 95h64l10 47q17 87 63 113.5t144 26.5h68l-19 -91h-38q-32 0 -44.5 -10t-19.5 -41l-10 -45h91l-20 -95h-91l-94 -443h-153zM547 0h-80q-77 0 -109 18t-32 66q0 22 8 62l123 579h153l-119 -559q-2 -18 -2 -23q0 -23 14 -31.5t42 -8.5h24z" />
    <glyph glyph-name="germandbls.ss03" horiz-adv-x="538" 
d="M-50 -175l149 702q25 121 86 166t168 45q88 0 144.5 -35.5t56.5 -101.5q0 -145 -128 -193q81 -28 81 -122q0 -126 -65 -206t-197 -80h-60l20 94h43q53 0 79 49t26 131q0 76 -64 76h-31l21 95h24q44 0 70 37.5t26 100.5q0 57 -55 57q-36 0 -56.5 -22.5t-32.5 -80.5
l-151 -712h-154z" />
    </font>
</defs>
</svg>
