<?xml version="1.0" standalone="no"?>
<!DOCTYPE svg PUBLIC "-//W3C//DTD SVG 1.1//EN" "http://www.w3.org/Graphics/SVG/1.1/DTD/svg11.dtd" >
<svg xmlns="http://www.w3.org/2000/svg" xmlns:xlink="http://www.w3.org/1999/xlink" version="1.1">
<metadata>
Created by FontForge 20170731 at Sun Jul 24 18:24:30 2016
 By Aleksey,,,
Copyright (c) 2015 Swiss Typefaces. All rights reserved.
</metadata>
<defs>
<font id="SuisseIntlCondensed-MedItalic" horiz-adv-x="548" >
  <font-face 
    font-family="Suisse Int'l Condensed"
    font-weight="500"
    font-style="italic"
    font-stretch="condensed"
    units-per-em="1000"
    panose-1="2 11 6 6 0 0 0 0 0 0"
    ascent="800"
    descent="-200"
    x-height="538"
    cap-height="725"
    bbox="-118 -235 1063 935"
    underline-thickness="80"
    underline-position="-270"
    slope="-12"
    unicode-range="U+0020-FB02"
  />
<missing-glyph horiz-adv-x="500" 
d="M0 0v725h500v-725h-500zM239 362l-220 334v-667zM260 362l221 -333v667zM250 346l-217 -327h433zM33 706l217 -328l216 328h-433z" />
    <glyph glyph-name=".notdef" horiz-adv-x="500" 
d="M0 0v725h500v-725h-500zM239 362l-220 334v-667zM260 362l221 -333v667zM250 346l-217 -327h433zM33 706l217 -328l216 328h-433z" />
    <glyph glyph-name=".null" horiz-adv-x="0" 
 />
    <glyph glyph-name="nonmarkingreturn" horiz-adv-x="333" 
 />
    <glyph glyph-name="space" unicode=" " horiz-adv-x="180" 
 />
    <glyph glyph-name="exclam" unicode="!" horiz-adv-x="236" 
d="M64 202l50 323l42 200h117l-42 -200l-87 -323h-80zM-3 0l29 138h129l-29 -138h-129z" />
    <glyph glyph-name="quotedbl" unicode="&#x22;" horiz-adv-x="378" 
d="M367 468h-69l-21 257h111zM194 468h-69l-21 257h111z" />
    <glyph glyph-name="numbersign" unicode="#" horiz-adv-x="565" 
d="M314 0l27 201h-123l-27 -201h-88l27 201h-99l11 84h100l23 171h-97l10 84h99l26 185h88l-26 -185h123l26 185h87l-26 -185h102l-10 -84h-104l-23 -171h100l-9 -84h-103l-27 -201h-87zM253 456l-23 -171h123l23 171h-123z" />
    <glyph glyph-name="dollar" unicode="$" horiz-adv-x="516" 
d="M466 233q0 -111 -59.5 -176.5t-181.5 -69.5l-18 -84h-48l19 86q-83 7 -130 48t-47 114q0 34 10 72l2 10h117l-2 -10q-7 -29 -7 -60q0 -93 94 -93q63 0 96.5 37t33.5 100q0 61 -70 106l-69 43q-51 34 -78.5 70.5t-27.5 85.5q0 106 59 164.5t176 61.5l16 71h47l-15 -73
q154 -18 154 -149q0 -27 -6 -59l-2 -10h-116l2 10q4 21 4 43q0 85 -83 85q-58 -1 -89.5 -33t-31.5 -91q0 -45 45 -76l73 -47q68 -47 100.5 -85t32.5 -91z" />
    <glyph glyph-name="percent" unicode="%" horiz-adv-x="782" 
d="M134 406q0 -48 39 -48q33 0 49 33t32 113l7 33q14 72 14 99q0 46 -36 46q-34 0 -50.5 -33t-32.5 -112l-7 -33q-15 -77 -15 -98zM338 547l-12 -54q-21 -99 -55.5 -141.5t-103.5 -42.5q-56 0 -80.5 24t-24.5 76q0 32 11 84l11 54q20 99 55 142t106 43q54 0 78.5 -24.5
t24.5 -77.5q0 -39 -10 -83zM195 0l380 725h54l-380 -725h-54zM543 89q0 -48 39 -48q33 0 49 33t32 113l7 33q14 72 14 99q0 46 -36 46q-34 0 -50.5 -33t-32.5 -112l-7 -33q-15 -77 -15 -98zM747 230l-12 -54q-21 -99 -55.5 -141.5t-103.5 -42.5q-56 0 -80.5 24t-24.5 76
q0 32 11 84l11 54q20 99 55 142t106 43q54 0 78.5 -24.5t24.5 -77.5q0 -39 -10 -83z" />
    <glyph glyph-name="ampersand" unicode="&#x26;" horiz-adv-x="619" 
d="M488 400h93q-36 -152 -113 -250l84 -150h-122l-38 67q-86 -80 -201 -80q-88 0 -141.5 41.5t-53.5 117.5q0 136 181 247l27 16v1q-43 81 -43 129q0 86 52 142t140 56q63 0 107.5 -27.5t44.5 -85.5q0 -116 -166 -220l-9 -6l92 -165q43 65 66 167zM203 68q87 0 150 71
l-113 205l-21 -13q-111 -71 -111 -168q0 -43 24.5 -69t70.5 -26zM261 557q0 -33 30 -88l3 -6l10 6q53 34 79.5 66t26.5 75q0 50 -61 50q-39 0 -63.5 -28t-24.5 -75z" />
    <glyph glyph-name="quotesingle" unicode="'" horiz-adv-x="205" 
d="M194 468h-69l-21 257h111z" />
    <glyph glyph-name="parenleft" unicode="(" horiz-adv-x="255" 
d="M166 -175h-93q-54 123 -54 285q0 156 77 334.5t165 280.5h95q-97 -123 -165.5 -299.5t-68.5 -337.5q0 -146 44 -263z" />
    <glyph glyph-name="parenright" unicode=")" horiz-adv-x="257" 
d="M-5 -175h-93q161 204 213 449q20 95 20 193q0 145 -43 258h93q53 -121 53 -281q0 -78 -18 -170q-28 -139 -90.5 -257t-134.5 -192z" />
    <glyph glyph-name="asterisk" unicode="*" horiz-adv-x="389" 
d="M196 412l-62 41l67 93l-109 39l25 67l107 -39v112h73v-112l109 39l25 -68l-111 -37l67 -93l-56 -42l-70 94z" />
    <glyph glyph-name="plus" unicode="+" 
d="M229 0v225h-205v88h205v225h93v-225h203v-88h-203v-225h-93z" />
    <glyph glyph-name="comma" unicode="," horiz-adv-x="236" 
d="M-34 -148l89 148h-58l28 132h129l-30 -141l-87 -139h-71z" />
    <glyph glyph-name="hyphen" unicode="-" horiz-adv-x="349" 
d="M39 216l20 94h249l-20 -94h-249z" />
    <glyph glyph-name="period" unicode="." horiz-adv-x="236" 
d="M-3 0l29 138h129l-29 -138h-129z" />
    <glyph glyph-name="slash" unicode="/" horiz-adv-x="356" 
d="M29 0l245 725h112l-246 -725h-111z" />
    <glyph glyph-name="zero" unicode="0" 
d="M153 156q0 -47 17 -69t58 -22q68 0 100 61t64 209l12 54q27 135 27 179q0 46 -18 69t-60 23q-36 0 -61.5 -16.5t-44 -55.5t-30 -81t-26.5 -116l-12 -55q-26 -130 -26 -180zM524 410l-20 -96q-19 -90 -40 -148.5t-53.5 -100.5t-77 -60t-108.5 -18q-98 0 -141.5 43.5
t-43.5 139.5q0 62 18 144l20 96q38 178 97.5 253t182.5 75q98 0 141.5 -43t43.5 -139q0 -57 -19 -146z" />
    <glyph glyph-name="one" unicode="1" horiz-adv-x="325" 
d="M81 0l119 559h-127l15 72q95 2 120 15t52 79h90l-154 -725h-115z" />
    <glyph glyph-name="two" unicode="2" horiz-adv-x="492" 
d="M-18 0l18 84l102 103q48 48 73 73.5t74.5 80.5t76.5 92.5t49.5 83t22.5 77.5q0 67 -71 67q-49 0 -78.5 -35t-44.5 -110l-1 -5h-107l1 5q25 116 79 169t157 53q80 0 131.5 -36.5t51.5 -100.5q0 -45 -20.5 -92.5t-64.5 -103t-85 -100t-110 -114.5q-13 -12 -19 -19l-84 -83
h281l-19 -89h-413z" />
    <glyph glyph-name="three" unicode="3" horiz-adv-x="509" 
d="M456 258q0 -127 -64.5 -199t-191.5 -72q-83 0 -136 37.5t-53 108.5q0 29 7 56l1 5h106l-1 -5q-6 -27 -6 -48q0 -76 77 -76q41 0 70.5 17t44 45.5t21 58.5t6.5 63q0 42 -24.5 64.5t-82.5 22.5h-42l17 80h39q73 0 108 45.5t35 125.5q0 75 -71 75q-48 0 -72.5 -27t-39.5 -94
l-1 -5h-107l1 5q26 105 78 151t141 46q88 0 139.5 -33.5t51.5 -102.5q0 -81 -39.5 -139t-110.5 -78q46 -12 72.5 -45t26.5 -82z" />
    <glyph glyph-name="four" unicode="4" horiz-adv-x="516" 
d="M232 0l39 183h-272l18 83l369 459h114l-96 -453h84l-19 -89h-83l-39 -183h-115zM104 272h186l65 308z" />
    <glyph glyph-name="five" unicode="5" horiz-adv-x="504" 
d="M458 264l-11 -50q-24 -115 -86 -171t-168 -56q-82 0 -130 38t-48 111q0 25 6 53l1 5h107l-1 -5q-6 -27 -6 -48q0 -77 78 -77q99 0 131 152l9 42q8 40 8 65q0 86 -74 86q-68 0 -112 -84l-102 4l119 396h359l-19 -88h-270l-68 -223q53 76 140 76q146 0 146 -149
q0 -35 -9 -77z" />
    <glyph glyph-name="six" unicode="6" horiz-adv-x="529" 
d="M481 252l-9 -38q-27 -117 -85 -172t-161 -55q-94 0 -140 43t-46 138q0 51 15 120l22 101q38 186 101 267.5t190 81.5q82 0 124.5 -37t42.5 -100q0 -17 -8 -55l-1 -5h-107l1 5q5 21 5 46q0 69 -68 69q-62 0 -97 -58t-61 -183l-6 -29q21 35 60.5 61.5t90.5 26.5
q145 0 145 -147q0 -29 -8 -80zM146 154q0 -90 77 -90q101 0 133 149l7 33q7 32 7 61q0 91 -77 91q-100 0 -133 -154l-6 -28q-8 -40 -8 -62z" />
    <glyph glyph-name="seven" unicode="7" horiz-adv-x="440" 
d="M141 0h-117q92 379 388 637h-321l19 88h420l-19 -88q-151 -134 -235 -280.5t-135 -356.5z" />
    <glyph glyph-name="eight" unicode="8" horiz-adv-x="536" 
d="M488 262q0 -124 -62.5 -199.5t-193.5 -75.5q-97 0 -154.5 38t-57.5 116q0 97 45.5 160.5t120.5 86.5q-31 9 -52.5 40t-21.5 81q0 99 64.5 164.5t176.5 65.5q84 0 137.5 -37t53.5 -109q0 -89 -43 -138t-101 -67q88 -29 88 -126zM135 153q0 -89 89 -89q111 0 142 132l4 18
q5 25 5 44q0 86 -91 86q-111 0 -141 -132l-3 -15q-5 -27 -5 -44zM224 490q0 -36 17.5 -53.5t58.5 -17.5q49 0 76 28.5t42 86.5l3 13q5 21 5 45q0 70 -75 70q-52 0 -79.5 -28t-39.5 -87l-3 -14q-5 -27 -5 -43z" />
    <glyph glyph-name="nine" unicode="9" horiz-adv-x="529" 
d="M511 438l-22 -102q-19 -93 -40 -153.5t-53.5 -107t-79 -67.5t-111.5 -21q-83 0 -128 38t-45 102q0 19 7 52l1 5h108l-1 -5q-5 -28 -5 -46q0 -69 67 -69q62 0 97 58t61 183l7 29q-53 -88 -145 -88q-73 0 -112.5 39t-39.5 114q0 35 9 75l8 37q48 227 253 227q93 0 137 -41
t44 -133q0 -52 -17 -126zM196 419q0 -92 77 -92q100 0 133 155l6 28q8 40 8 62q0 89 -77 89q-101 0 -133 -149l-7 -32q-7 -32 -7 -61z" />
    <glyph glyph-name="colon" unicode=":" horiz-adv-x="236" 
d="M-3 0l29 138h129l-29 -138h-129zM82 400l29 138h129l-29 -138h-129z" />
    <glyph glyph-name="semicolon" unicode=";" horiz-adv-x="236" 
d="M-34 -148l89 148h-58l28 132h129l-30 -141l-87 -139h-71zM82 400l29 138h129l-29 -138h-129z" />
    <glyph glyph-name="less" unicode="&#x3c;" 
d="M455 -1l-409 221v97l409 222v-102l-307 -169l307 -168v-101z" />
    <glyph glyph-name="equal" unicode="=" 
d="M62 114v89h424v-89h-424zM62 333v90h424v-90h-424z" />
    <glyph glyph-name="greater" unicode="&#x3e;" 
d="M503 220l-409 -221v101l307 168l-307 169v102l409 -222v-97z" />
    <glyph glyph-name="question" unicode="?" horiz-adv-x="481" 
d="M140 204l9 39q4 18 9.5 34t9.5 27.5t15 25t15 19.5t20 19t20.5 16.5t25 19t25.5 18.5q52 39 75.5 77.5t23.5 95.5q-1 66 -72 66q-48 0 -78 -33t-45 -107l-1 -5h-108l1 5q43 217 239 217q81 0 131 -31.5t50 -101.5q0 -45 -11.5 -81.5t-35.5 -65t-41 -44t-46 -37.5
q-8 -6 -26 -18.5t-23.5 -16.5t-17.5 -14t-16.5 -16.5t-11.5 -18t-11 -24t-7 -29.5l-8 -36h-110zM89 0l29 138h129l-29 -138h-129z" />
    <glyph glyph-name="at" unicode="@" horiz-adv-x="799" 
d="M591 82l24 -52q-81 -43 -191 -43q-152 0 -246 103.5t-94 266.5q0 162 103.5 271.5t253.5 109.5q140 0 233 -88t93 -234q0 -115 -52.5 -186t-121.5 -71q-46 0 -71 25.5t-25 66.5q-5 -6 -14 -21.5t-16.5 -25.5t-20 -21t-31.5 -17t-44 -6q-20 0 -40 8t-41 26.5t-34 56
t-13 88.5q0 95 50.5 168t124.5 73q39 0 63.5 -27t33.5 -64q7 42 7 72h59l-28 -229q-4 -25 -4 -46q0 -70 44 -70q48 0 80 57t32 139q0 122 -78 195.5t-188 73.5q-123 0 -208 -95.5t-85 -229.5q0 -132 80 -221.5t196 -89.5q106 0 169 37zM318 339q0 -55 18 -84t47 -29
q45 0 76 53.5t31 124.5q0 52 -19 80t-51 28q-44 0 -73 -51t-29 -122z" />
    <glyph glyph-name="A" unicode="A" horiz-adv-x="536" 
d="M-49 0l339 725h142l39 -725h-115l-5 167h-207l-73 -167h-120zM338 610l-159 -363h169z" />
    <glyph glyph-name="B" unicode="B" horiz-adv-x="538" 
d="M8 0l154 725h154q117 0 171.5 -30t54.5 -110q0 -160 -146 -202q103 -27 103 -130q0 -127 -75 -190t-216 -63h-200zM144 82h75q85 0 123 48.5t38 119.5q0 46 -27 66.5t-91 20.5h-63zM215 414h63q74 0 115 46t38 102q-2 43 -27 62t-82 19h-58z" />
    <glyph glyph-name="C" unicode="C" horiz-adv-x="533" 
d="M500 239l-2 -10q-29 -126 -87.5 -184t-170.5 -58q-107 0 -156 48t-49 154q0 60 19 155l16 76q37 172 102.5 245t192.5 73q197 0 197 -169q0 -29 -8 -72l-2 -10h-117l2 10q8 43 8 68q0 47 -20.5 67.5t-64.5 20.5q-70 0 -105.5 -63t-66.5 -206l-9 -42q-22 -95 -22 -162
q0 -55 20 -81.5t67 -26.5q55 0 86.5 36t49.5 121l2 10h118z" />
    <glyph glyph-name="D" unicode="D" horiz-adv-x="558" 
d="M144 82h73q80 0 120.5 59t72.5 199l10 45q19 83 19 143q0 59 -24 87t-80 28h-71zM8 0l154 725h178q116 0 169.5 -46.5t53.5 -152.5q0 -58 -18 -141l-17 -80q-36 -170 -106 -237.5t-212 -67.5h-202z" />
    <glyph glyph-name="E" unicode="E" horiz-adv-x="466" 
d="M8 0l154 725h379l-19 -90h-260l-46 -217h238l-19 -90h-238l-51 -238h261l-19 -90h-380z" />
    <glyph glyph-name="F" unicode="F" horiz-adv-x="434" 
d="M8 0l154 725h359l-19 -90h-240l-46 -217h218l-19 -90h-218l-70 -328h-119z" />
    <glyph glyph-name="G" unicode="G" horiz-adv-x="565" 
d="M370 0l19 89q-32 -52 -72 -77t-105 -25q-91 0 -134.5 47t-43.5 149q0 64 20 161l16 76q37 171 103.5 244.5t192.5 73.5q197 0 197 -169q0 -29 -8 -72l-2 -10h-119l2 10q9 41 9 69q0 46 -21 66.5t-64 20.5q-70 0 -105.5 -62.5t-66.5 -205.5l-10 -45q-22 -95 -22 -162
q0 -54 20 -80t67 -26q66 0 105 46.5t60 143.5l6 28h-151l17 83h256l-79 -373h-87z" />
    <glyph glyph-name="H" unicode="H" horiz-adv-x="582" 
d="M8 0l154 725h119l-65 -307h214l65 307h119l-154 -725h-119l70 328h-214l-70 -328h-119z" />
    <glyph glyph-name="I" unicode="I" horiz-adv-x="249" 
d="M8 0l154 725h119l-154 -725h-119z" />
    <glyph glyph-name="J" unicode="J" horiz-adv-x="448" 
d="M493 725l-111 -525q-27 -120 -78 -166.5t-147 -46.5q-86 0 -131 40t-45 113q0 33 7 62l2 10h118l-2 -10q-7 -32 -7 -59q0 -71 59 -71q43 0 66.5 29.5t38.5 100.5l111 523h119z" />
    <glyph glyph-name="K" unicode="K" horiz-adv-x="542" 
d="M377 0l-102 325l-106 -122l-43 -203h-118l154 725h118l-70 -331l287 331h123l-261 -303l130 -422h-112z" />
    <glyph glyph-name="L" unicode="L" horiz-adv-x="454" 
d="M8 0l154 725h119l-135 -635h263l-19 -90h-382z" />
    <glyph glyph-name="M" unicode="M" horiz-adv-x="732" 
d="M8 0l154 725h168l8 -589l258 589h168l-154 -725h-107l129 606h-2l-19 -47l-252 -559h-97l-16 559v47h-2l-129 -606h-107z" />
    <glyph glyph-name="N" unicode="N" horiz-adv-x="584" 
d="M8 0l154 725h140l87 -571l121 571h106l-154 -725h-139l-87 571l-121 -571h-107z" />
    <glyph glyph-name="O" unicode="O" horiz-adv-x="566" 
d="M156 179q0 -53 20.5 -80t67.5 -27q71 0 107.5 63.5t67.5 206.5l9 42q21 97 21 161q0 55 -20 81.5t-67 26.5q-71 0 -107.5 -63.5t-67.5 -205.5l-9 -42q-22 -95 -22 -163zM552 382l-16 -77q-37 -172 -102.5 -245t-191.5 -73q-108 0 -157.5 48.5t-49.5 155.5q0 58 19 153
l16 76q37 172 102.5 245t192.5 73q107 0 156.5 -48t49.5 -154q0 -59 -19 -154z" />
    <glyph glyph-name="P" unicode="P" horiz-adv-x="506" 
d="M8 0l154 725h155q126 0 182.5 -31.5t56.5 -116.5q0 -130 -67.5 -205t-217.5 -75h-82l-63 -297h-118zM207 379h61q169 0 169 183q0 49 -30.5 65t-99.5 16h-44z" />
    <glyph glyph-name="Q" unicode="Q" horiz-adv-x="566" 
d="M552 382l-16 -77q-24 -116 -60.5 -184.5t-93.5 -101.5l45 -89l-85 -44l-50 104q-24 -3 -50 -3q-108 0 -157.5 48.5t-49.5 155.5q0 58 19 153l16 76q37 172 102.5 245t192.5 73q107 0 156.5 -48t49.5 -154q0 -59 -19 -154zM156 179q0 -53 20.5 -80t67.5 -27
q71 0 107.5 63.5t67.5 206.5l9 42q21 97 21 161q0 55 -20 81.5t-67 26.5q-71 0 -107.5 -63.5t-67.5 -205.5l-9 -42q-22 -95 -22 -163z" />
    <glyph glyph-name="R" unicode="R" horiz-adv-x="549" 
d="M352 0l-45 321h-111l-68 -321h-120l154 725h155q126 0 183 -31.5t57 -115.5v-12q0 -8 -1 -12q-10 -161 -141 -209l53 -345h-116zM211 396h61q79 0 118 36t47 110q1 3 1 10v10q0 48 -30 64.5t-100 16.5h-44z" />
    <glyph glyph-name="S" unicode="S" horiz-adv-x="513" 
d="M466 233q0 -114 -63 -180t-192 -66q-96 0 -153 42.5t-57 121.5q0 34 10 72l2 10h117l-2 -10q-7 -29 -7 -60q0 -93 94 -93q63 0 96.5 37t33.5 100q0 61 -70 106l-69 43q-51 34 -78.5 70.5t-27.5 85.5q0 107 62 166.5t183 59.5q89 0 140.5 -37t51.5 -114q0 -27 -6 -59
l-2 -10h-116l2 10q4 21 4 43q0 85 -83 85q-58 -1 -89.5 -33t-31.5 -91q0 -45 45 -76l73 -47q68 -47 100.5 -85t32.5 -91z" />
    <glyph glyph-name="T" unicode="T" horiz-adv-x="465" 
d="M115 0l135 635h-165l19 90h449l-19 -90h-165l-135 -635h-119z" />
    <glyph glyph-name="U" unicode="U" horiz-adv-x="556" 
d="M601 725l-96 -451q-34 -168 -91 -227.5t-192 -59.5q-101 0 -143 31t-42 108q0 54 20 148l96 451h119l-98 -460q-16 -68 -16 -115q0 -41 17.5 -59.5t61.5 -18.5q65 0 94 42.5t53 150.5l98 460h119z" />
    <glyph glyph-name="V" unicode="V" horiz-adv-x="495" 
d="M122 0l-19 725h117l1 -601l244 601h121l-319 -725h-145z" />
    <glyph glyph-name="W" unicode="W" horiz-adv-x="727" 
d="M70 0l39 725h108l-38 -592l229 592h105l-20 -592l210 592h109l-265 -725h-137l21 588l-224 -588h-137z" />
    <glyph glyph-name="X" unicode="X" horiz-adv-x="497" 
d="M-55 0l271 375l-102 350h110l70 -242l174 242h124l-263 -363l105 -362h-109l-74 254l-184 -254h-122z" />
    <glyph glyph-name="Y" unicode="Y" horiz-adv-x="504" 
d="M138 0l62 294l-98 431h109l64 -325l200 325h124l-281 -433l-62 -292h-118z" />
    <glyph glyph-name="Z" unicode="Z" horiz-adv-x="494" 
d="M-33 0l18 87l424 544h-283l20 94h415l-18 -87l-425 -544h319l-20 -94h-450z" />
    <glyph glyph-name="bracketleft" unicode="[" horiz-adv-x="275" 
d="M-29 -175l191 900h215l-17 -79h-123l-157 -741h123l-17 -80h-215z" />
    <glyph glyph-name="backslash" unicode="\" horiz-adv-x="356" 
d="M167 0l-88 725h110l88 -725h-110z" />
    <glyph glyph-name="bracketright" unicode="]" horiz-adv-x="275" 
d="M-99 -175l17 80h122l157 741h-122l17 79h214l-191 -900h-214z" />
    <glyph glyph-name="asciicircum" unicode="^" horiz-adv-x="522" 
d="M24 338l202 387h89l201 -387h-103l-143 281l-144 -281h-102z" />
    <glyph glyph-name="underscore" unicode="_" horiz-adv-x="462" 
d="M-57 -95l21 101h425l-21 -101h-425z" />
    <glyph glyph-name="grave" unicode="`" horiz-adv-x="248" 
d="M207 604l-85 121h133l39 -121h-87z" />
    <glyph glyph-name="a" unicode="a" horiz-adv-x="461" 
d="M255 0l12 71q-55 -84 -152 -84q-52 0 -85 30.5t-33 83.5q0 16 5 41l3 13q17 68 68 103q37 27 133 58l107 35l8 40q4 17 4 36q0 30 -15 43t-46 13q-42 0 -64.5 -22t-33.5 -73l-1 -8h-104l2 8q33 166 211 166q163 0 163 -132q0 -30 -7 -59l-41 -194q-27 -132 -30 -169h-104
zM115 114q0 -54 51 -54q90 0 119 138l19 88q-63 -24 -77 -28q-50 -17 -73.5 -39t-32.5 -61l-3 -13q-3 -17 -3 -31z" />
    <glyph glyph-name="b" unicode="b" horiz-adv-x="496" 
d="M472 307l-16 -75q-27 -129 -74.5 -187t-130.5 -58q-47 0 -80.5 26t-42.5 69l-17 -82h-114l154 725h114l-55 -261q50 88 143 88q130 0 130 -151q0 -36 -11 -94zM152 165q0 -97 71 -97q49 0 76 45t47 145l5 25q14 70 14 108q0 41 -15 60.5t-49 19.5q-94 0 -136 -201
q-13 -56 -13 -105z" />
    <glyph glyph-name="c" unicode="c" horiz-adv-x="444" 
d="M403 183l-1 -5q-40 -191 -208 -191q-87 0 -131.5 42.5t-44.5 123.5q0 36 9 81l17 82q27 125 78.5 180t154.5 55q79 0 124 -37.5t45 -105.5q0 -16 -5 -48l-1 -6h-108l1 5q6 29 6 48q0 67 -64 67q-51 0 -76 -42.5t-45 -139.5l-9 -45q-14 -70 -14 -107q0 -39 15 -57.5
t50 -18.5q38 0 62 26.5t36 87.5l1 5h108z" />
    <glyph glyph-name="d" unicode="d" horiz-adv-x="495" 
d="M272 0l16 75q-23 -40 -61 -64t-84 -24q-128 0 -128 148q0 47 11 96l16 75q27 129 75 187t132 58q47 0 79.5 -25.5t40.5 -69.5l57 269h114l-154 -725h-114zM133 147q0 -79 65 -79q94 0 135 201q14 67 14 106q0 95 -72 95q-49 0 -75.5 -44t-46.5 -143l-5 -28
q-15 -72 -15 -108z" />
    <glyph glyph-name="e" unicode="e" horiz-adv-x="467" 
d="M411 175l-1 -5q-19 -94 -76.5 -138.5t-139.5 -44.5q-176 0 -176 167q0 36 9 80l17 82q27 123 81 179t157 56q171 0 171 -159q0 -29 -13 -98l-7 -37h-288l-2 -10q-13 -67 -13 -103q0 -80 67 -80q42 0 67.5 24.5t36.5 81.5l1 5h109zM161 333l-2 -8h180l2 8q8 43 8 66
q0 39 -17.5 57.5t-55.5 18.5q-50 0 -75.5 -38t-39.5 -104z" />
    <glyph glyph-name="f" unicode="f" horiz-adv-x="289" 
d="M13 0l99 464h-69l15 74h69l12 55q16 79 54.5 105.5t123.5 26.5h58l-15 -72h-35q-36 0 -50.5 -12.5t-22.5 -51.5l-11 -51h94l-15 -74h-94l-99 -464h-114z" />
    <glyph glyph-name="g" unicode="g" horiz-adv-x="503" 
d="M506 538l-106 -500q-25 -118 -80 -172t-162 -54q-79 0 -123 32.5t-44 91.5q0 3 4 35l1 6h103l-1 -6q-2 -14 -2 -24q0 -57 68 -57q51 0 76 26.5t40 100.5l19 90q-51 -91 -141 -91q-66 0 -101.5 38.5t-35.5 113.5q0 38 9 83l14 65q26 119 83.5 177t140.5 58q46 0 73 -25.5
t33 -66.5l16 79h116zM140 173q0 -39 14 -58t47 -19q56 0 88.5 44t51.5 138q13 65 13 102q0 46 -17.5 68t-56.5 22q-50 0 -77 -41.5t-46 -133.5l-3 -16q-14 -67 -14 -106z" />
    <glyph glyph-name="h" unicode="h" horiz-adv-x="485" 
d="M111 0h-114l154 725h115l-57 -266q54 92 145 92q56 0 83.5 -27t27.5 -88q0 -43 -9 -85l-75 -351h-115l69 326q12 57 12 85q0 58 -48 58q-82 0 -120 -152z" />
    <glyph glyph-name="i" unicode="i" horiz-adv-x="222" 
d="M-3 0l114 538h114l-114 -538h-114zM126 608l25 117h114l-25 -117h-114z" />
    <glyph glyph-name="j" unicode="j" horiz-adv-x="222" 
d="M-117 -175l16 72h24q36 0 48 17t23 69l117 555h115l-118 -558q-22 -97 -52 -126t-115 -29h-58zM126 608l25 117h114l-25 -117h-114z" />
    <glyph glyph-name="k" unicode="k" horiz-adv-x="443" 
d="M291 0l-66 251l-80 -88l-34 -163h-114l154 725h114l-84 -393l185 206h118l-182 -201l90 -337h-101z" />
    <glyph glyph-name="l" unicode="l" horiz-adv-x="222" 
d="M-3 0l154 725h114l-154 -725h-114z" />
    <glyph glyph-name="m" unicode="m" horiz-adv-x="737" 
d="M-3 0l114 538h114l-16 -79q57 92 143 92q103 0 103 -98q53 98 157 98q53 0 79 -26t26 -85q0 -34 -11 -89l-75 -351h-115l69 326q14 65 14 92q0 51 -41 51q-44 0 -76.5 -49t-49.5 -132l-61 -288h-115l69 326q14 65 14 92q0 51 -41 51q-44 0 -76.5 -49t-49.5 -132l-61 -288
h-114z" />
    <glyph glyph-name="n" unicode="n" horiz-adv-x="485" 
d="M-3 0l114 538h114l-16 -79q54 92 145 92q56 0 83.5 -27t27.5 -88q0 -43 -9 -85l-75 -351h-115l69 326q12 57 12 85q0 58 -48 58q-45 0 -77.5 -49t-49.5 -132l-61 -288h-114z" />
    <glyph glyph-name="o" unicode="o" horiz-adv-x="473" 
d="M132 141q0 -78 66 -78q51 0 74.5 43t46.5 144l9 40q13 62 13 106q0 78 -66 78q-51 0 -75.5 -43.5t-44.5 -141.5l-8 -40q-15 -72 -15 -108zM447 305l-18 -83q-27 -123 -81.5 -179t-156.5 -56q-173 0 -173 167q0 36 9 80l17 81q25 123 80.5 179.5t158.5 56.5
q172 0 172 -166q0 -47 -8 -80z" />
    <glyph glyph-name="p" unicode="p" horiz-adv-x="501" 
d="M-40 -175l151 713h114l-15 -74q23 40 60.5 64t83.5 24q129 0 129 -150q0 -38 -11 -95l-16 -75q-27 -128 -74.5 -186.5t-130.5 -58.5q-48 0 -81 26t-42 69l-54 -257h-114zM151 166q0 -98 72 -98q48 0 74 44t48 145l5 26q15 73 15 109q0 40 -15 59.5t-49 19.5
q-93 0 -137 -201q-13 -67 -13 -104z" />
    <glyph glyph-name="q" unicode="q" horiz-adv-x="498" 
d="M235 -175l54 253q-23 -40 -63.5 -65.5t-87.5 -25.5q-125 0 -125 139q0 49 13 105l16 75q27 125 78 185t136 60q47 0 77.5 -26t35.5 -66l16 79h115l-151 -713h-114zM132 141q0 -37 13.5 -55t44.5 -18q54 0 88.5 49t55.5 152q13 59 13 104q0 97 -72 97q-49 0 -75.5 -44
t-46.5 -143l-6 -28q-15 -69 -15 -114z" />
    <glyph glyph-name="r" unicode="r" horiz-adv-x="310" 
d="M-3 0l114 538h113l-23 -108q49 108 143 108h20l-22 -107h-36q-59 0 -88 -32t-47 -117l-60 -282h-114z" />
    <glyph glyph-name="s" unicode="s" horiz-adv-x="438" 
d="M386 162q0 -78 -59 -126.5t-154 -48.5q-84 0 -128.5 35t-44.5 101q0 18 5 45l1 5h105l-1 -5q-4 -15 -4 -34q0 -69 73 -69q45 0 73.5 21.5t28.5 59.5q0 23 -12 38t-42 31l-71 38q-44 24 -69 53.5t-25 76.5q0 79 57.5 123.5t150.5 44.5q68 0 114 -32t46 -92q0 -14 -5 -39
l-1 -6h-102l1 5q4 15 4 28q0 59 -69 59q-90 0 -90 -79q0 -37 42 -59l71 -38q55 -29 80 -58.5t25 -77.5z" />
    <glyph glyph-name="t" unicode="t" horiz-adv-x="306" 
d="M224 0h-82q-57 0 -80.5 16.5t-23.5 57.5q0 22 8 62l70 328h-70l15 74h69l30 140h115l-30 -140h91l-15 -74h-90l-68 -316q-6 -26 -6 -41q0 -19 11.5 -26t38.5 -7h33z" />
    <glyph glyph-name="u" unicode="u" horiz-adv-x="477" 
d="M252 0l17 78q-53 -91 -147 -91q-53 0 -79.5 25.5t-26.5 82.5q0 37 12 90l75 353h113l-69 -327q-14 -63 -14 -91q0 -52 44 -52q86 0 128 180l61 290h114l-114 -538h-114z" />
    <glyph glyph-name="v" unicode="v" horiz-adv-x="415" 
d="M81 0l-19 538h111l1 -421l182 421h111l-249 -538h-137z" />
    <glyph glyph-name="w" unicode="w" horiz-adv-x="586" 
d="M43 0l35 538h97l-33 -409l157 409h103l-15 -408l138 408h97l-191 -538h-122l19 432l-163 -432h-122z" />
    <glyph glyph-name="x" unicode="x" horiz-adv-x="409" 
d="M-62 0l216 278l-90 260h107l57 -164l127 164h112l-205 -264l95 -274h-107l-62 179l-139 -179h-111z" />
    <glyph glyph-name="y" unicode="y" horiz-adv-x="413" 
d="M-43 -175l16 74h31q36 0 52 13t34 56l16 33l-45 537h106l18 -422l168 422h113l-243 -542q-49 -109 -87 -140t-128 -31h-51z" />
    <glyph glyph-name="z" unicode="z" horiz-adv-x="398" 
d="M-36 0l16 73l304 390h-201l16 75h326l-15 -73l-305 -390h232l-16 -75h-357z" />
    <glyph glyph-name="braceleft" unicode="{" horiz-adv-x="280" 
d="M191 -175h-26q-77 0 -110.5 21.5t-33.5 76.5q0 18 7 58l30 141q7 35 7 53q0 56 -58 56l18 85q45 0 65.5 27.5t31.5 81.5l31 145q20 91 61.5 123t135.5 32h30l-17 -79h-13q-52 0 -71 -16t-27 -61l-34 -158q-13 -64 -41.5 -94.5t-72.5 -41.5v-2q62 -18 62 -87q0 -22 -6 -50
l-33 -154q-5 -25 -5 -36q0 -23 15 -32t56 -9h15z" />
    <glyph glyph-name="bar" unicode="|" horiz-adv-x="235" 
d="M65 -90v815h105v-815h-105z" />
    <glyph glyph-name="braceright" unicode="}" horiz-adv-x="278" 
d="M-72 -175h-26l17 80h14q50 0 68 15t29 62l33 153q13 65 41 96t71 42l1 3q-31 9 -46.5 27.5t-15.5 55.5q0 18 7 53l33 155q5 25 5 36q0 24 -15.5 33.5t-54.5 9.5h-14l17 79h26q76 0 109 -21t33 -74q0 -21 -8 -61l-31 -144q-7 -33 -7 -52q0 -57 59 -57l-18 -86
q-45 0 -65.5 -27.5t-31.5 -81.5l-30 -140q-18 -90 -62.5 -123t-137.5 -33z" />
    <glyph glyph-name="asciitilde" unicode="~" 
d="M123 178h-85q5 82 37.5 124t99.5 42q46 0 104 -35t85 -35q54 0 58 70h84q-5 -82 -37 -124t-99 -42q-40 0 -99 35t-91 35q-53 0 -57 -70z" />
    <glyph glyph-name="uni00A0" unicode="&#xa0;" horiz-adv-x="180" 
 />
    <glyph glyph-name="exclamdown" unicode="&#xa1;" horiz-adv-x="236" 
d="M-33 -175l40 189l85 318h80l-49 -318l-40 -189h-116zM83 400l29 138h129l-29 -138h-129z" />
    <glyph glyph-name="cent" unicode="&#xa2;" horiz-adv-x="444" 
d="M403 183l-1 -5q-39 -186 -203 -191l-16 -78h-45l16 80q-136 18 -136 164q0 36 9 81l17 82q24 121 77 177t153 58l14 63h45l-15 -66q62 -8 95 -44t33 -96q0 -16 -5 -48l-1 -6h-108l1 5q6 29 6 48q0 67 -64 67q-51 0 -76 -42.5t-45 -139.5l-9 -45q-14 -70 -14 -107
q0 -39 15 -57.5t50 -18.5q38 0 62 26.5t36 87.5l1 5h108z" />
    <glyph glyph-name="sterling" unicode="&#xa3;" horiz-adv-x="532" 
d="M47 318l13 64h96q-3 10 -9.5 32.5t-10 35.5t-6.5 32t-3 36q0 102 70 161t178 59q83 0 130.5 -38.5t47.5 -111.5q0 -27 -8 -65l-1 -5h-108l2 8q6 30 6 53q0 83 -80 83q-55 0 -89 -38t-34 -103q0 -17 3 -36.5t6 -33t9.5 -36.5t8.5 -33h165l-13 -64h-142q0 -2 0.5 -6t0.5 -6
q0 -56 -44 -121.5t-101 -98.5l1 -2q54 20 83 20q24 0 62 -15t65 -15q17 0 32 4t25.5 8.5t37.5 17.5l17 -77q-80 -39 -125 -39q-37 0 -86.5 19t-80.5 19q-65 0 -144 -38l-23 77q76 36 124 100.5t48 131.5q0 3 -0.5 10t-0.5 11h-122z" />
    <glyph glyph-name="currency" unicode="&#xa4;" horiz-adv-x="612" 
d="M103 89l-43 41l69 70q-48 60 -48 142q0 83 48 143l-69 70l43 41l67 -67q63 52 148 52q86 0 152 -54l69 69l43 -41l-71 -71q46 -63 46 -142q0 -81 -47 -140l72 -72l-43 -41l-70 70q-70 -54 -151 -54t-146 52zM174 342q0 -63 41 -106.5t103 -43.5q65 0 107 43.5t42 106.5
q0 65 -42 109.5t-107 44.5q-62 0 -103 -44.5t-41 -109.5z" />
    <glyph glyph-name="yen" unicode="&#xa5;" horiz-adv-x="505" 
d="M59 233l14 66h126l-97 426h109l64 -325l200 325h124l-277 -426h127l-14 -66h-130l-16 -76h130l-13 -64h-131l-19 -93h-118l19 93h-128l13 64h129l16 76h-128z" />
    <glyph glyph-name="brokenbar" unicode="&#xa6;" horiz-adv-x="213" 
d="M159 420h-105v305h105v-305zM54 -90v305h105v-305h-105z" />
    <glyph glyph-name="section" unicode="&#xa7;" horiz-adv-x="596" 
d="M502 -18q0 -74 -57.5 -116t-148.5 -42q-89 0 -149.5 46t-60.5 136v3h112v-3q0 -52 28 -78.5t71 -26.5q41 0 67.5 19.5t26.5 59.5q0 61 -74 97l-119 62q-67 38 -99 73t-32 93q0 84 106 142q-72 57 -72 142q0 74 56 116t146 42q86 0 142 -45.5t56 -133.5v-3h-112v3
q0 48 -24 75t-66 27q-86 -2 -86 -80q0 -62 69 -97l117 -62q65 -33 97 -70t32 -95q0 -88 -104 -142q78 -58 78 -142zM179 314q0 -30 19.5 -53t64.5 -47l88 -46q64 37 64 89q0 31 -18.5 54.5t-61.5 44.5l-91 47q-65 -35 -65 -89z" />
    <glyph glyph-name="dieresis" unicode="&#xa8;" horiz-adv-x="350" 
d="M98 611l24 113h101l-25 -113h-100zM296 611l24 113h101l-23 -113h-102z" />
    <glyph glyph-name="copyright" unicode="&#xa9;" horiz-adv-x="831" 
d="M435 39q135 0 224.5 92.5t89.5 232.5q0 139 -90 231.5t-224 92.5q-133 0 -223 -93t-90 -231q0 -140 90 -232.5t223 -92.5zM435 -13q-154 0 -262.5 108.5t-108.5 268.5q0 158 108.5 266t262.5 108t263 -108t109 -266q0 -160 -108.5 -268.5t-263.5 -108.5zM437 154
q-80 0 -111.5 43t-31.5 138v58q0 96 31.5 139t111.5 43q67 0 99 -33.5t32 -105.5v-6h-89v5q0 48 -10 63t-33 15q-17 0 -26.5 -8t-13.5 -29.5t-5 -39.5t-1 -58v-27q0 -41 1 -59t5 -40t13.5 -29.5t26.5 -7.5q23 0 33 15t10 63v4h89v-4q0 -73 -32 -106t-99 -33z" />
    <glyph glyph-name="ordfeminine" unicode="&#xaa;" horiz-adv-x="262" 
d="M207 438l7 38q-34 -46 -86 -46q-31 0 -48 17t-17 46q0 12 3 24l1 7q6 35 34 56.5t85 37.5l53 18l5 22l2 10q1 3 1 8q0 27 -31 27q-23 0 -34.5 -10.5t-16.5 -37.5l-1 -6h-65l1 6q16 95 116 95q49 0 75.5 -15t26.5 -55q0 -12 -5 -34q0 -2 -11.5 -55t-11.5 -54
q-14 -76 -15 -99h-68zM139 503q0 -26 27 -26q41 0 56 71l10 46l-36 -13q-26 -12 -37.5 -22.5t-16.5 -29.5l-1 -9q-2 -14 -2 -17z" />
    <glyph glyph-name="guillemotleft" unicode="&#xab;" horiz-adv-x="364" 
d="M291 66l-109 151l29 134l169 139l-27 -130l-97 -82l63 -82zM128 66l-109 151l29 134l169 139l-27 -130l-97 -82l63 -82z" />
    <glyph glyph-name="logicalnot" unicode="&#xac;" 
d="M431 81v263h-411v89h503v-352h-92z" />
    <glyph glyph-name="uni00AD" unicode="&#xad;" horiz-adv-x="349" 
d="M39 216l20 94h249l-20 -94h-249z" />
    <glyph glyph-name="registered" unicode="&#xae;" horiz-adv-x="831" 
d="M435 -13q-154 0 -262.5 108.5t-108.5 268.5q0 158 108.5 266t262.5 108t263 -108t109 -266q0 -160 -108.5 -268.5t-263.5 -108.5zM435 39q135 0 224.5 92.5t89.5 232.5q0 139 -90 231.5t-224 92.5q-133 0 -223 -93t-90 -231q0 -140 90 -232.5t223 -92.5zM396 164h-85v407
h111q81 0 116.5 -25.5t35.5 -93.5q0 -71 -57 -99l67 -189h-82l-53 174h-5q-5 -1 -15 -1h-33v-173zM396 509v-117h25q35 0 47 12.5t12 47.5t-12 46t-48 11h-24z" />
    <glyph glyph-name="overscore" unicode="&#xaf;" horiz-adv-x="289" 
d="M102 628l16 77h239l-16 -77h-239z" />
    <glyph glyph-name="degree" unicode="&#xb0;" horiz-adv-x="342" 
d="M149 583q0 -38 23 -63t59 -25q38 0 61 24.5t23 63.5t-23 64t-61 25q-36 0 -59 -25.5t-23 -63.5zM386 583q0 -64 -45.5 -109t-109.5 -45t-108.5 45t-44.5 109q0 65 44.5 110t108.5 45q65 0 110 -45t45 -110z" />
    <glyph glyph-name="plusminus" unicode="&#xb1;" 
d="M211 137v156h-193v89h193v156h92v-156h194v-89h-194v-156h-92zM18 0v89h479v-89h-479z" />
    <glyph glyph-name="twosuperior" unicode="&#xb2;" horiz-adv-x="280" 
d="M59 438l12 55l56 57q95 98 127.5 139.5t32.5 80.5q0 33 -34 33q-26 0 -38 -16.5t-21 -58.5l-1 -5h-72l1 5q15 66 44.5 95.5t89.5 29.5q47 0 76.5 -21.5t29.5 -57.5q0 -48 -35.5 -95.5t-122.5 -134.5l-47 -49h150l-12 -57h-236z" />
    <glyph glyph-name="threesuperior" unicode="&#xb3;" horiz-adv-x="291" 
d="M327 571q-5 -69 -44.5 -105t-107.5 -36q-101 0 -101 84q0 17 4 33l1 5h70l-1 -5q-4 -16 -4 -31q0 -37 36 -37q53 0 69 73q4 15 4 28q0 22 -12 32.5t-43 10.5h-23l11 52h23q29 0 44.5 16t22.5 49q3 15 3 28q0 36 -35 36q-23 0 -34.5 -14t-19.5 -50l-1 -5h-70l1 5
q26 113 131 113q46 0 74.5 -18.5t28.5 -57.5v-9q-2 -47 -25.5 -75t-55.5 -38q55 -16 55 -73q0 -2 -0.5 -5.5t-0.5 -5.5z" />
    <glyph glyph-name="acute" unicode="&#xb4;" horiz-adv-x="248" 
d="M96 604l90 121h134l-135 -121h-89z" />
    <glyph glyph-name="mu" unicode="&#xb5;" horiz-adv-x="471" 
d="M122 -13h-11q-7 0 -10 1q-17 -79 -45 -163h-113q15 37 42 158l40 187l2 10l76 358h114l-81 -381q-3 -19 -3 -37q0 -52 44 -52q86 0 128 180l61 290h114l-114 -538h-114l17 78q-53 -91 -147 -91z" />
    <glyph glyph-name="mu" unicode="&#x3bc;" horiz-adv-x="471" 
d="M122 -13h-11q-7 0 -10 1q-17 -79 -45 -163h-113q15 37 42 158l40 187l2 10l76 358h114l-81 -381q-3 -19 -3 -37q0 -52 44 -52q86 0 128 180l61 290h114l-114 -538h-114l17 78q-53 -91 -147 -91z" />
    <glyph glyph-name="paragraph" unicode="&#xb6;" horiz-adv-x="454" 
d="M83 -89l100 471q-53 0 -92 34.5t-39 93.5q0 95 67.5 155t184.5 60h179l-173 -814h-68l160 752h-97l-154 -752h-68z" />
    <glyph glyph-name="middot" unicode="&#xb7;" horiz-adv-x="236" 
d="M40 200l29 138h129l-29 -138h-129z" />
    <glyph glyph-name="cedilla" unicode="&#xb8;" horiz-adv-x="253" 
d="M148 -103q0 -40 -41 -65.5t-95 -25.5q-42 0 -82 14l23 43q21 -13 57 -13q28 0 45.5 10.5t17.5 29.5q0 24 -37 24q-26 0 -43 -9l-20 17l66 79h49l-44 -51q16 3 36 3q29 0 48.5 -15.5t19.5 -40.5z" />
    <glyph glyph-name="onesuperior" unicode="&#xb9;" horiz-adv-x="182" 
d="M109 438l65 308h-70l11 48q47 0 61.5 8t30.5 44h58l-87 -408h-69z" />
    <glyph glyph-name="ordmasculine" unicode="&#xba;" horiz-adv-x="269" 
d="M150 515q0 -36 30 -36q26 0 38 22.5t23 76.5l5 25q9 43 9 61q0 36 -29 36q-26 0 -39 -23.5t-23 -73.5l-5 -25q-9 -45 -9 -63zM324 613l-9 -44q-15 -72 -46.5 -105.5t-89.5 -33.5q-103 0 -103 93q0 18 5 46l9 44q15 69 47 103t90 34q49 0 76 -24.5t27 -69.5q0 -11 -6 -43z
" />
    <glyph glyph-name="guillemotright" unicode="&#xbb;" horiz-adv-x="364" 
d="M75 484l109 -151l-29 -134l-169 -139l27 130l97 82l-63 82zM238 484l109 -151l-29 -134l-169 -139l27 130l97 82l-63 82z" />
    <glyph glyph-name="onequarter" unicode="&#xbc;" horiz-adv-x="647" 
d="M83 317l66 308h-71l10 48q47 0 62.5 8.5t30.5 43.5h58l-87 -408h-69zM71 0l380 725h54l-380 -725h-54zM458 0l21 101h-152l12 54l201 253h72l-53 -249h48l-13 -58h-48l-21 -101h-67zM399 159h92l33 154z" />
    <glyph glyph-name="onehalf" unicode="&#xbd;" horiz-adv-x="632" 
d="M83 317l66 308h-71l10 48q47 0 62.5 8.5t30.5 43.5h58l-87 -408h-69zM71 0l380 725h54l-380 -725h-54zM318 0l12 55l56 57q95 98 127.5 139.5t32.5 80.5q0 33 -34 33q-26 0 -38 -16.5t-21 -58.5l-1 -5h-72l1 5q15 66 44.5 95.5t89.5 29.5q47 0 76.5 -21.5t29.5 -57.5
q0 -48 -35.5 -95.5t-122.5 -134.5l-47 -49h150l-12 -57h-236z" />
    <glyph glyph-name="threequarters" unicode="&#xbe;" horiz-adv-x="756" 
d="M301 450q-5 -69 -44.5 -105t-107.5 -36q-101 0 -101 84q0 17 4 33l1 5h70l-1 -5q-4 -16 -4 -31q0 -37 36 -37q53 0 69 73q4 15 4 28q0 22 -12 32.5t-43 10.5h-23l11 52h23q29 0 44.5 16t22.5 49q3 15 3 28q0 36 -35 36q-23 0 -34.5 -14t-19.5 -50l-1 -5h-70l1 5
q26 113 131 113q46 0 74.5 -18.5t28.5 -57.5v-9q-2 -47 -25.5 -75t-55.5 -38q55 -16 55 -73q0 -2 -0.5 -5.5t-0.5 -5.5zM180 0l380 725h54l-380 -725h-54zM567 0l21 101h-152l12 54l201 253h72l-53 -249h48l-13 -58h-48l-21 -101h-67zM508 159h92l33 154z" />
    <glyph glyph-name="questiondown" unicode="&#xbf;" horiz-adv-x="468" 
d="M387 33l-1 -5q-28 -110 -81 -163t-147 -53q-83 0 -137.5 32t-54.5 102q0 42 11.5 77t35 63t41.5 45t47 39q11 9 40 28.5t36.5 27t19 27.5t17.5 48l7 34h108l-7 -36q-5 -25 -13 -45t-15 -32.5t-23 -27.5t-24 -21.5t-31.5 -23.5t-33.5 -24q-47 -38 -73 -77t-26 -92
q1 -66 73 -66q48 0 77 32.5t45 105.5l1 5h108zM225 400l29 138h129l-29 -138h-129z" />
    <glyph glyph-name="Agrave" unicode="&#xc0;" horiz-adv-x="536" 
d="M-49 0l339 725h142l39 -725h-115l-5 167h-207l-73 -167h-120zM338 610l-159 -363h169zM323 774l-111 113h142l69 -113h-100z" />
    <glyph glyph-name="Aacute" unicode="&#xc1;" horiz-adv-x="536" 
d="M-49 0l339 725h142l39 -725h-115l-5 167h-207l-73 -167h-120zM338 610l-159 -363h169zM318 774l80 113h143l-122 -113h-101z" />
    <glyph glyph-name="Acircumflex" unicode="&#xc2;" horiz-adv-x="536" 
d="M-49 0l339 725h142l39 -725h-115l-5 167h-207l-73 -167h-120zM338 610l-159 -363h169zM208 774l132 113h106l93 -113h-111l-44 61l-64 -61h-112z" />
    <glyph glyph-name="Atilde" unicode="&#xc3;" horiz-adv-x="536" 
d="M-49 0l339 725h142l39 -725h-115l-5 167h-207l-73 -167h-120zM338 610l-159 -363h169zM287 776h-75q22 63 52 84.5t76 21.5q27 0 59 -21t47 -21q29 0 43 42h75q-22 -62 -52 -84t-75 -22q-28 0 -61 20t-45 20q-29 0 -44 -40z" />
    <glyph glyph-name="Adieresis" unicode="&#xc4;" horiz-adv-x="536" 
d="M-49 0l339 725h142l39 -725h-115l-5 167h-207l-73 -167h-120zM338 610l-159 -363h169zM230 777l23 107h102l-23 -107h-102zM426 777l23 107h101l-22 -107h-102z" />
    <glyph glyph-name="Aring" unicode="&#xc5;" horiz-adv-x="536" 
d="M-49 0l339 725h142l39 -725h-115l-5 167h-207l-73 -167h-120zM338 610l-159 -363h169zM475 850q0 -35 -25.5 -59t-62.5 -24q-38 0 -64 24t-26 59q0 36 26.5 60.5t63.5 24.5q36 0 62 -24.5t26 -60.5zM339 850q0 -20 13.5 -32.5t34.5 -12.5q19 0 32.5 12.5t13.5 32.5
t-13.5 34t-32.5 14q-20 0 -34 -13.5t-14 -34.5z" />
    <glyph glyph-name="AE" unicode="&#xc6;" horiz-adv-x="801" 
d="M-57 0l543 725h371l-19 -90h-253l-46 -217h231l-19 -89h-231l-51 -239h256l-19 -90h-371l35 165h-187l-116 -165h-124zM451 544l-204 -289h142z" />
    <glyph glyph-name="Ccedilla" unicode="&#xc7;" horiz-adv-x="533" 
d="M500 239l-2 -10q-29 -126 -87.5 -184t-170.5 -58q-107 0 -156 48t-49 154q0 60 19 155l16 76q37 172 102.5 245t192.5 73q197 0 197 -169q0 -29 -8 -72l-2 -10h-117l2 10q8 43 8 68q0 47 -20.5 67.5t-64.5 20.5q-70 0 -105.5 -63t-66.5 -206l-9 -42q-22 -95 -22 -162
q0 -55 20 -81.5t67 -26.5q55 0 86.5 36t49.5 121l2 10h118zM333 -105q0 -42 -40 -65.5t-95 -23.5q-42 0 -84 14l23 43q21 -13 57 -13q28 0 46 10.5t18 30.5q0 23 -37 23q-25 0 -42 -9l-22 17l66 79h50l-44 -51q15 3 34 3q26 0 48 -18t22 -40z" />
    <glyph glyph-name="Egrave" unicode="&#xc8;" horiz-adv-x="466" 
d="M353 774l-111 113h142l69 -113h-100zM8 0l154 725h379l-19 -90h-260l-46 -217h238l-19 -90h-238l-51 -238h261l-19 -90h-380z" />
    <glyph glyph-name="Eacute" unicode="&#xc9;" horiz-adv-x="466" 
d="M8 0l154 725h379l-19 -90h-260l-46 -217h238l-19 -90h-238l-51 -238h261l-19 -90h-380zM280 774l80 113h143l-122 -113h-101z" />
    <glyph glyph-name="Ecircumflex" unicode="&#xca;" horiz-adv-x="466" 
d="M193 774l132 113h106l93 -113h-111l-44 61l-64 -61h-112zM8 0l154 725h379l-19 -90h-260l-46 -217h238l-19 -90h-238l-51 -238h261l-19 -90h-380z" />
    <glyph glyph-name="Edieresis" unicode="&#xcb;" horiz-adv-x="466" 
d="M8 0l154 725h379l-19 -90h-260l-46 -217h238l-19 -90h-238l-51 -238h261l-19 -90h-380zM213 777l23 107h102l-23 -107h-102zM409 777l23 107h101l-22 -107h-102z" />
    <glyph glyph-name="Igrave" unicode="&#xcc;" horiz-adv-x="249" 
d="M8 0l154 725h119l-154 -725h-119zM186 774l-111 113h142l69 -113h-100z" />
    <glyph glyph-name="Iacute" unicode="&#xcd;" horiz-adv-x="249" 
d="M8 0l154 725h119l-154 -725h-119zM181 774l80 113h143l-122 -113h-101z" />
    <glyph glyph-name="Icircumflex" unicode="&#xce;" horiz-adv-x="249" 
d="M8 0l154 725h119l-154 -725h-119zM68 774l132 113h106l93 -113h-111l-44 61l-64 -61h-112z" />
    <glyph glyph-name="Idieresis" unicode="&#xcf;" horiz-adv-x="249" 
d="M96 777l23 107h102l-23 -107h-102zM269 777l23 107h101l-23 -107h-101zM8 0l154 725h119l-154 -725h-119z" />
    <glyph glyph-name="Eth" unicode="&#xd0;" horiz-adv-x="558" 
d="M0 319l19 89h76l67 317h178q116 0 169.5 -46.5t53.5 -152.5q0 -58 -18 -141l-17 -80q-36 -170 -106 -237.5t-212 -67.5h-202l68 319h-76zM144 82h73q80 0 120.5 59t72.5 199l10 45q19 83 19 143q0 59 -24 87t-80 28h-71l-51 -235h123l-19 -89h-123z" />
    <glyph glyph-name="Ntilde" unicode="&#xd1;" horiz-adv-x="584" 
d="M310 776h-75q22 63 52 84.5t76 21.5q27 0 59 -21t47 -21q29 0 43 42h75q-22 -62 -52 -84t-75 -22q-28 0 -61 20t-45 20q-29 0 -44 -40zM8 0l154 725h140l87 -571l121 571h106l-154 -725h-139l-87 571l-121 -571h-107z" />
    <glyph glyph-name="Ograve" unicode="&#xd2;" horiz-adv-x="566" 
d="M352 774l-111 113h142l69 -113h-100zM156 179q0 -53 20.5 -80t67.5 -27q71 0 107.5 63.5t67.5 206.5l9 42q21 97 21 161q0 55 -20 81.5t-67 26.5q-71 0 -107.5 -63.5t-67.5 -205.5l-9 -42q-22 -95 -22 -163zM552 382l-16 -77q-37 -172 -102.5 -245t-191.5 -73
q-108 0 -157.5 48.5t-49.5 155.5q0 58 19 153l16 76q37 172 102.5 245t192.5 73q107 0 156.5 -48t49.5 -154q0 -59 -19 -154z" />
    <glyph glyph-name="Oacute" unicode="&#xd3;" horiz-adv-x="566" 
d="M156 179q0 -53 20.5 -80t67.5 -27q71 0 107.5 63.5t67.5 206.5l9 42q21 97 21 161q0 55 -20 81.5t-67 26.5q-71 0 -107.5 -63.5t-67.5 -205.5l-9 -42q-22 -95 -22 -163zM552 382l-16 -77q-37 -172 -102.5 -245t-191.5 -73q-108 0 -157.5 48.5t-49.5 155.5q0 58 19 153
l16 76q37 172 102.5 245t192.5 73q107 0 156.5 -48t49.5 -154q0 -59 -19 -154zM331 774l80 113h143l-122 -113h-101z" />
    <glyph glyph-name="Ocircumflex" unicode="&#xd4;" horiz-adv-x="566" 
d="M231 774l132 113h106l93 -113h-111l-44 61l-64 -61h-112zM156 179q0 -53 20.5 -80t67.5 -27q71 0 107.5 63.5t67.5 206.5l9 42q21 97 21 161q0 55 -20 81.5t-67 26.5q-71 0 -107.5 -63.5t-67.5 -205.5l-9 -42q-22 -95 -22 -163zM552 382l-16 -77q-37 -172 -102.5 -245
t-191.5 -73q-108 0 -157.5 48.5t-49.5 155.5q0 58 19 153l16 76q37 172 102.5 245t192.5 73q107 0 156.5 -48t49.5 -154q0 -59 -19 -154z" />
    <glyph glyph-name="Otilde" unicode="&#xd5;" horiz-adv-x="566" 
d="M300 776h-75q22 63 52 84.5t76 21.5q27 0 59 -21t47 -21q29 0 43 42h75q-22 -62 -52 -84t-75 -22q-28 0 -61 20t-45 20q-29 0 -44 -40zM156 179q0 -53 20.5 -80t67.5 -27q71 0 107.5 63.5t67.5 206.5l9 42q21 97 21 161q0 55 -20 81.5t-67 26.5q-71 0 -107.5 -63.5
t-67.5 -205.5l-9 -42q-22 -95 -22 -163zM552 382l-16 -77q-37 -172 -102.5 -245t-191.5 -73q-108 0 -157.5 48.5t-49.5 155.5q0 58 19 153l16 76q37 172 102.5 245t192.5 73q107 0 156.5 -48t49.5 -154q0 -59 -19 -154z" />
    <glyph glyph-name="Odieresis" unicode="&#xd6;" horiz-adv-x="566" 
d="M242 777l23 107h102l-23 -107h-102zM438 777l23 107h101l-22 -107h-102zM156 179q0 -53 20.5 -80t67.5 -27q71 0 107.5 63.5t67.5 206.5l9 42q21 97 21 161q0 55 -20 81.5t-67 26.5q-71 0 -107.5 -63.5t-67.5 -205.5l-9 -42q-22 -95 -22 -163zM552 382l-16 -77
q-37 -172 -102.5 -245t-191.5 -73q-108 0 -157.5 48.5t-49.5 155.5q0 58 19 153l16 76q37 172 102.5 245t192.5 73q107 0 156.5 -48t49.5 -154q0 -59 -19 -154z" />
    <glyph glyph-name="multiply" unicode="&#xd7;" 
d="M114 34l-62 65l160 167l-162 169l64 64l160 -168l160 167l63 -64l-161 -168l161 -169l-63 -63l-160 167z" />
    <glyph glyph-name="Oslash" unicode="&#xd8;" horiz-adv-x="566" 
d="M43 -65h-55l79 123q-32 49 -32 133q0 58 19 153l16 76q37 172 102.5 245t192.5 73q76 0 123 -26l53 82h55l-71 -110q46 -49 46 -148q0 -59 -19 -154l-16 -77q-37 -172 -102.5 -245t-191.5 -73q-93 0 -142 37zM449 545v10q0 7 -1 10l-284 -443q17 -50 80 -50
q71 0 107.5 63.5t67.5 206.5l9 42q21 97 21 161zM187 384l-9 -42q-17 -82 -22 -146l275 427q-21 30 -69 30q-71 0 -107.5 -63.5t-67.5 -205.5z" />
    <glyph glyph-name="Ugrave" unicode="&#xd9;" horiz-adv-x="556" 
d="M336 774l-111 113h142l69 -113h-100zM601 725l-96 -451q-34 -168 -91 -227.5t-192 -59.5q-101 0 -143 31t-42 108q0 54 20 148l96 451h119l-98 -460q-16 -68 -16 -115q0 -41 17.5 -59.5t61.5 -18.5q65 0 94 42.5t53 150.5l98 460h119z" />
    <glyph glyph-name="Uacute" unicode="&#xda;" horiz-adv-x="560" 
d="M601 725l-96 -451q-34 -168 -91 -227.5t-192 -59.5q-101 0 -143 31t-42 108q0 54 20 148l96 451h119l-98 -460q-16 -68 -16 -115q0 -41 17.5 -59.5t61.5 -18.5q65 0 94 42.5t53 150.5l98 460h119zM334 774l80 113h143l-122 -113h-101z" />
    <glyph glyph-name="Ucircumflex" unicode="&#xdb;" horiz-adv-x="556" 
d="M601 725l-96 -451q-34 -168 -91 -227.5t-192 -59.5q-101 0 -143 31t-42 108q0 54 20 148l96 451h119l-98 -460q-16 -68 -16 -115q0 -41 17.5 -59.5t61.5 -18.5q65 0 94 42.5t53 150.5l98 460h119zM219 774l132 113h106l93 -113h-111l-44 61l-64 -61h-112z" />
    <glyph glyph-name="Udieresis" unicode="&#xdc;" horiz-adv-x="556" 
d="M601 725l-96 -451q-34 -168 -91 -227.5t-192 -59.5q-101 0 -143 31t-42 108q0 54 20 148l96 451h119l-98 -460q-16 -68 -16 -115q0 -41 17.5 -59.5t61.5 -18.5q65 0 94 42.5t53 150.5l98 460h119zM239 777l23 107h102l-23 -107h-102zM435 777l23 107h101l-22 -107h-102z
" />
    <glyph glyph-name="Yacute" unicode="&#xdd;" horiz-adv-x="504" 
d="M138 0l62 294l-98 431h109l64 -325l200 325h124l-281 -433l-62 -292h-118zM296 774l80 113h143l-122 -113h-101z" />
    <glyph glyph-name="Thorn" unicode="&#xde;" horiz-adv-x="506" 
d="M8 0l154 725h119l-32 -149h36q126 0 182.5 -31.5t56.5 -116.5q0 -130 -67.5 -205t-217.5 -75h-81l-31 -148h-119zM175 230h61q169 0 169 183q0 49 -30.5 65t-99.5 16h-44z" />
    <glyph glyph-name="germandbls" unicode="&#xdf;" horiz-adv-x="518" 
d="M-5 0l111 521q23 115 80 162t157 47q81 0 131 -35t50 -101q0 -84 -39.5 -130t-99.5 -60q95 -22 95 -126q0 -123 -63 -200.5t-194 -77.5h-58l16 74h44q70 0 104.5 54.5t34.5 141.5q0 46 -23.5 67.5t-74.5 21.5h-28l16 75h23q60 0 95.5 37t35.5 110t-70 73q-48 0 -75 -29.5
t-41 -98.5l-112 -526h-115z" />
    <glyph glyph-name="agrave" unicode="&#xe0;" horiz-adv-x="460" 
d="M255 0l12 71q-55 -84 -152 -84q-52 0 -85 30.5t-33 83.5q0 16 5 41l3 13q17 68 68 103q37 27 133 58l107 35l8 40q4 17 4 36q0 30 -15 43t-46 13q-42 0 -64.5 -22t-33.5 -73l-1 -8h-104l2 8q33 166 211 166q163 0 163 -132q0 -30 -7 -59l-41 -194q-27 -132 -30 -169h-104
zM115 114q0 -54 51 -54q90 0 119 138l19 88q-63 -24 -77 -28q-50 -17 -73.5 -39t-32.5 -61l-3 -13q-3 -17 -3 -31zM250 604l-85 121h133l39 -121h-87z" />
    <glyph glyph-name="aacute" unicode="&#xe1;" horiz-adv-x="460" 
d="M255 0l12 71q-55 -84 -152 -84q-52 0 -85 30.5t-33 83.5q0 16 5 41l3 13q17 68 68 103q37 27 133 58l107 35l8 40q4 17 4 36q0 30 -15 43t-46 13q-42 0 -64.5 -22t-33.5 -73l-1 -8h-104l2 8q33 166 211 166q163 0 163 -132q0 -30 -7 -59l-41 -194q-27 -132 -30 -169h-104
zM115 114q0 -54 51 -54q90 0 119 138l19 88q-63 -24 -77 -28q-50 -17 -73.5 -39t-32.5 -61l-3 -13q-3 -17 -3 -31zM226 604l90 121h134l-135 -121h-89z" />
    <glyph glyph-name="acircumflex" unicode="&#xe2;" horiz-adv-x="460" 
d="M255 0l12 71q-55 -84 -152 -84q-52 0 -85 30.5t-33 83.5q0 16 5 41l3 13q17 68 68 103q37 27 133 58l107 35l8 40q4 17 4 36q0 30 -15 43t-46 13q-42 0 -64.5 -22t-33.5 -73l-1 -8h-104l2 8q33 166 211 166q163 0 163 -132q0 -30 -7 -59l-41 -194q-27 -132 -30 -169h-104
zM115 114q0 -54 51 -54q90 0 119 138l19 88q-63 -24 -77 -28q-50 -17 -73.5 -39t-32.5 -61l-3 -13q-3 -17 -3 -31zM131 604l137 121h98l87 -121h-102l-45 64l-71 -64h-104z" />
    <glyph glyph-name="atilde" unicode="&#xe3;" horiz-adv-x="460" 
d="M255 0l12 71q-55 -84 -152 -84q-52 0 -85 30.5t-33 83.5q0 16 5 41l3 13q17 68 68 103q37 27 133 58l107 35l8 40q4 17 4 36q0 30 -15 43t-46 13q-42 0 -64.5 -22t-33.5 -73l-1 -8h-104l2 8q33 166 211 166q163 0 163 -132q0 -30 -7 -59l-41 -194q-27 -132 -30 -169h-104
zM115 114q0 -54 51 -54q90 0 119 138l19 88q-63 -24 -77 -28q-50 -17 -73.5 -39t-32.5 -61l-3 -13q-3 -17 -3 -31zM202 611h-71q32 113 109 113q25 0 62 -20t48 -20q24 0 37 40h70q-17 -58 -44 -85.5t-58 -27.5q-23 0 -64.5 19.5t-54.5 19.5q-14 0 -20.5 -8.5t-13.5 -30.5z
" />
    <glyph glyph-name="adieresis" unicode="&#xe4;" horiz-adv-x="460" 
d="M255 0l12 71q-55 -84 -152 -84q-52 0 -85 30.5t-33 83.5q0 16 5 41l3 13q17 68 68 103q37 27 133 58l107 35l8 40q4 17 4 36q0 30 -15 43t-46 13q-42 0 -64.5 -22t-33.5 -73l-1 -8h-104l2 8q33 166 211 166q163 0 163 -132q0 -30 -7 -59l-41 -194q-27 -132 -30 -169h-104
zM115 114q0 -54 51 -54q90 0 119 138l19 88q-63 -24 -77 -28q-50 -17 -73.5 -39t-32.5 -61l-3 -13q-3 -17 -3 -31zM153 611l24 113h101l-25 -113h-100zM351 611l24 113h101l-23 -113h-102z" />
    <glyph glyph-name="aring" unicode="&#xe5;" horiz-adv-x="460" 
d="M255 0l12 71q-55 -84 -152 -84q-52 0 -85 30.5t-33 83.5q0 16 5 41l3 13q17 68 68 103q37 27 133 58l107 35l8 40q4 17 4 36q0 30 -15 43t-46 13q-42 0 -64.5 -22t-33.5 -73l-1 -8h-104l2 8q33 166 211 166q163 0 163 -132q0 -30 -7 -59l-41 -194q-27 -132 -30 -169h-104
zM115 114q0 -54 51 -54q90 0 119 138l19 88q-63 -24 -77 -28q-50 -17 -73.5 -39t-32.5 -61l-3 -13q-3 -17 -3 -31zM408 678q0 -38 -26.5 -62.5t-65.5 -24.5t-65.5 24.5t-26.5 62.5t26.5 63t65.5 25t65.5 -25t26.5 -63zM270 678q0 -20 13.5 -32.5t32.5 -12.5q20 0 33 12.5
t13 32.5t-13 33t-33 13q-19 0 -32.5 -13t-13.5 -33z" />
    <glyph glyph-name="ae" unicode="&#xe6;" horiz-adv-x="730" 
d="M297 79q-36 -50 -79.5 -71t-105.5 -21q-57 0 -87 29t-30 81q0 25 4 42l3 10q12 59 60 96q42 32 144 64l110 36l10 46q4 15 4 30q0 54 -64 54q-43 0 -67.5 -21t-35.5 -71l-1 -9h-102l2 9q35 163 219 163q105 0 131 -61q46 60 148 60q85 0 123 -36t38 -112q0 -41 -13 -106
l-7 -34h-289l-7 -33q-11 -52 -11 -85q0 -76 65 -76q85 0 107 106l1 4h109l-1 -4q-19 -92 -83 -137t-147 -45q-64 0 -103.5 24t-44.5 68zM112 114q0 -54 55 -54q90 0 121 136l18 84l-78 -27q-53 -18 -78 -39.5t-33 -59.5l-2 -12q-3 -15 -3 -28zM426 322h182l3 17q6 31 6 56
q0 77 -68 77q-51 0 -78.5 -34t-40.5 -97z" />
    <glyph glyph-name="ccedilla" unicode="&#xe7;" horiz-adv-x="444" 
d="M403 183l-1 -5q-40 -191 -208 -191q-87 0 -131.5 42.5t-44.5 123.5q0 36 9 81l17 82q27 125 78.5 180t154.5 55q79 0 124 -37.5t45 -105.5q0 -16 -5 -48l-1 -6h-108l1 5q6 29 6 48q0 67 -64 67q-51 0 -76 -42.5t-45 -139.5l-9 -45q-14 -70 -14 -107q0 -39 15 -57.5
t50 -18.5q38 0 62 26.5t36 87.5l1 5h108zM279 -103q0 -40 -41 -65.5t-95 -25.5q-42 0 -82 14l23 43q21 -13 57 -13q28 0 45.5 10.5t17.5 29.5q0 24 -37 24q-26 0 -43 -9l-20 17l66 79h49l-44 -51q17 3 36 3q29 0 48.5 -15.5t19.5 -40.5z" />
    <glyph glyph-name="egrave" unicode="&#xe8;" horiz-adv-x="467" 
d="M411 175l-1 -5q-19 -94 -76.5 -138.5t-139.5 -44.5q-176 0 -176 167q0 36 9 80l17 82q27 123 81 179t157 56q171 0 171 -159q0 -29 -13 -98l-7 -37h-288l-2 -10q-13 -67 -13 -103q0 -80 67 -80q42 0 67.5 24.5t36.5 81.5l1 5h109zM161 333l-2 -8h180l2 8q8 43 8 66
q0 39 -17.5 57.5t-55.5 18.5q-50 0 -75.5 -38t-39.5 -104zM286 604l-85 121h133l39 -121h-87z" />
    <glyph glyph-name="eacute" unicode="&#xe9;" horiz-adv-x="467" 
d="M254 604l90 121h134l-135 -121h-89zM411 175l-1 -5q-19 -94 -76.5 -138.5t-139.5 -44.5q-176 0 -176 167q0 36 9 80l17 82q27 123 81 179t157 56q171 0 171 -159q0 -29 -13 -98l-7 -37h-288l-2 -10q-13 -67 -13 -103q0 -80 67 -80q42 0 67.5 24.5t36.5 81.5l1 5h109z
M161 333l-2 -8h180l2 8q8 43 8 66q0 39 -17.5 57.5t-55.5 18.5q-50 0 -75.5 -38t-39.5 -104z" />
    <glyph glyph-name="ecircumflex" unicode="&#xea;" horiz-adv-x="467" 
d="M139 604l137 121h98l87 -121h-102l-45 64l-71 -64h-104zM411 175l-1 -5q-19 -94 -76.5 -138.5t-139.5 -44.5q-176 0 -176 167q0 36 9 80l17 82q27 123 81 179t157 56q171 0 171 -159q0 -29 -13 -98l-7 -37h-288l-2 -10q-13 -67 -13 -103q0 -80 67 -80q42 0 67.5 24.5
t36.5 81.5l1 5h109zM161 333l-2 -8h180l2 8q8 43 8 66q0 39 -17.5 57.5t-55.5 18.5q-50 0 -75.5 -38t-39.5 -104z" />
    <glyph glyph-name="edieresis" unicode="&#xeb;" horiz-adv-x="467" 
d="M162 611l24 113h101l-25 -113h-100zM360 611l24 113h101l-23 -113h-102zM411 175l-1 -5q-19 -94 -76.5 -138.5t-139.5 -44.5q-176 0 -176 167q0 36 9 80l17 82q27 123 81 179t157 56q171 0 171 -159q0 -29 -13 -98l-7 -37h-288l-2 -10q-13 -67 -13 -103q0 -80 67 -80
q42 0 67.5 24.5t36.5 81.5l1 5h109zM161 333l-2 -8h180l2 8q8 43 8 66q0 39 -17.5 57.5t-55.5 18.5q-50 0 -75.5 -38t-39.5 -104z" />
    <glyph glyph-name="igrave" unicode="&#xec;" horiz-adv-x="217" 
d="M-3 0l114 538h114l-114 -538h-114zM139 604l-85 121h133l39 -121h-87z" />
    <glyph glyph-name="iacute" unicode="&#xed;" horiz-adv-x="217" 
d="M134 604l90 121h134l-135 -121h-89zM-3 0l114 538h114l-114 -538h-114z" />
    <glyph glyph-name="icircumflex" unicode="&#xee;" horiz-adv-x="217" 
d="M32 604l124 121h98l73 -121h-103l-31 64l-57 -64h-104zM-3 0l114 538h114l-114 -538h-114z" />
    <glyph glyph-name="idieresis" unicode="&#xef;" horiz-adv-x="217" 
d="M58 611l24 114h101l-24 -114h-101zM205 611l24 114h101l-24 -114h-101zM-3 0l114 538h114l-114 -538h-114z" />
    <glyph glyph-name="eth" unicode="&#xf0;" horiz-adv-x="481" 
d="M201 580l-40 27l87 47q-11 10 -33 27.5t-29 24.5l81 46q38 -27 65 -52l79 43l41 -27l-89 -49q97 -110 97 -263q0 -46 -9 -99l-17 -78q-25 -122 -86.5 -181t-166.5 -59q-167 0 -167 155q0 41 10 85l17 80q26 121 87 180t162 59q46 0 68 -30l2 2q-16 49 -78 106zM130 139
q0 -76 64 -76q53 0 80 44.5t47 139.5l8 40q13 56 13 102q0 42 -15 61t-49 19q-50 0 -78 -43.5t-47 -138.5l-8 -40q-15 -72 -15 -108z" />
    <glyph glyph-name="ntilde" unicode="&#xf1;" horiz-adv-x="485" 
d="M-3 0l114 538h114l-16 -79q54 92 145 92q56 0 83.5 -27t27.5 -88q0 -43 -9 -85l-75 -351h-115l69 326q12 57 12 85q0 58 -48 58q-45 0 -77.5 -49t-49.5 -132l-61 -288h-114zM226 611h-71q32 113 109 113q25 0 62 -20t48 -20q24 0 37 40h70q-17 -58 -44 -85.5t-58 -27.5
q-23 0 -64.5 19.5t-54.5 19.5q-14 0 -20.5 -8.5t-13.5 -30.5z" />
    <glyph glyph-name="ograve" unicode="&#xf2;" horiz-adv-x="473" 
d="M132 141q0 -78 66 -78q51 0 74.5 43t46.5 144l9 40q13 62 13 106q0 78 -66 78q-51 0 -75.5 -43.5t-44.5 -141.5l-8 -40q-15 -72 -15 -108zM447 305l-18 -83q-27 -123 -81.5 -179t-156.5 -56q-173 0 -173 167q0 36 9 80l17 81q25 123 80.5 179.5t158.5 56.5
q172 0 172 -166q0 -47 -8 -80zM270 604l-85 121h133l39 -121h-87z" />
    <glyph glyph-name="oacute" unicode="&#xf3;" horiz-adv-x="473" 
d="M258 604l90 121h134l-135 -121h-89zM132 141q0 -78 66 -78q51 0 74.5 43t46.5 144l9 40q13 62 13 106q0 78 -66 78q-51 0 -75.5 -43.5t-44.5 -141.5l-8 -40q-15 -72 -15 -108zM447 305l-18 -83q-27 -123 -81.5 -179t-156.5 -56q-173 0 -173 167q0 36 9 80l17 81
q25 123 80.5 179.5t158.5 56.5q172 0 172 -166q0 -47 -8 -80z" />
    <glyph glyph-name="ocircumflex" unicode="&#xf4;" horiz-adv-x="473" 
d="M143 604l137 121h98l87 -121h-102l-45 64l-71 -64h-104zM132 141q0 -78 66 -78q51 0 74.5 43t46.5 144l9 40q13 62 13 106q0 78 -66 78q-51 0 -75.5 -43.5t-44.5 -141.5l-8 -40q-15 -72 -15 -108zM447 305l-18 -83q-27 -123 -81.5 -179t-156.5 -56q-173 0 -173 167
q0 36 9 80l17 81q25 123 80.5 179.5t158.5 56.5q172 0 172 -166q0 -47 -8 -80z" />
    <glyph glyph-name="otilde" unicode="&#xf5;" horiz-adv-x="473" 
d="M132 141q0 -78 66 -78q51 0 74.5 43t46.5 144l9 40q13 62 13 106q0 78 -66 78q-51 0 -75.5 -43.5t-44.5 -141.5l-8 -40q-15 -72 -15 -108zM447 305l-18 -83q-27 -123 -81.5 -179t-156.5 -56q-173 0 -173 167q0 36 9 80l17 81q25 123 80.5 179.5t158.5 56.5
q172 0 172 -166q0 -47 -8 -80zM226 611h-71q32 113 109 113q25 0 62 -20t48 -20q24 0 37 40h70q-17 -58 -44 -85.5t-58 -27.5q-23 0 -64.5 19.5t-54.5 19.5q-14 0 -20.5 -8.5t-13.5 -30.5z" />
    <glyph glyph-name="odieresis" unicode="&#xf6;" horiz-adv-x="473" 
d="M164 611l24 113h101l-25 -113h-100zM362 611l24 113h101l-23 -113h-102zM132 141q0 -78 66 -78q51 0 74.5 43t46.5 144l9 40q13 62 13 106q0 78 -66 78q-51 0 -75.5 -43.5t-44.5 -141.5l-8 -40q-15 -72 -15 -108zM447 305l-18 -83q-27 -123 -81.5 -179t-156.5 -56
q-173 0 -173 167q0 36 9 80l17 81q25 123 80.5 179.5t158.5 56.5q172 0 172 -166q0 -47 -8 -80z" />
    <glyph glyph-name="divide" unicode="&#xf7;" 
d="M212 28v131h123v-131h-123zM39 225v88h469v-88h-469zM212 379v131h123v-131h-123z" />
    <glyph glyph-name="oslash" unicode="&#xf8;" horiz-adv-x="473" 
d="M46 -63h-47l60 96q-41 44 -41 121q0 36 9 80l17 81q25 123 80.5 179.5t158.5 56.5q49 0 89 -17l44 71h47l-57 -91q49 -43 49 -129q0 -47 -8 -80l-18 -83q-27 -123 -81.5 -179t-156.5 -56q-61 0 -101 21zM341 396v6q0 5 -1 7l-199 -319q15 -27 57 -27q51 0 74.5 43
t46.5 144l9 40q13 62 13 106zM155 289l-8 -40q-14 -67 -15 -99l191 307q-15 17 -48 17q-51 0 -75.5 -43.5t-44.5 -141.5z" />
    <glyph glyph-name="ugrave" unicode="&#xf9;" horiz-adv-x="477" 
d="M252 0l17 78q-53 -91 -147 -91q-53 0 -79.5 25.5t-26.5 82.5q0 37 12 90l75 353h113l-69 -327q-14 -63 -14 -91q0 -52 44 -52q86 0 128 180l61 290h114l-114 -538h-114zM271 604l-85 121h133l39 -121h-87z" />
    <glyph glyph-name="uacute" unicode="&#xfa;" horiz-adv-x="477" 
d="M255 604l90 121h134l-135 -121h-89zM252 0l17 78q-53 -91 -147 -91q-53 0 -79.5 25.5t-26.5 82.5q0 37 12 90l75 353h113l-69 -327q-14 -63 -14 -91q0 -52 44 -52q86 0 128 180l61 290h114l-114 -538h-114z" />
    <glyph glyph-name="ucircumflex" unicode="&#xfb;" horiz-adv-x="477" 
d="M137 604l137 121h98l87 -121h-102l-45 64l-71 -64h-104zM252 0l17 78q-53 -91 -147 -91q-53 0 -79.5 25.5t-26.5 82.5q0 37 12 90l75 353h113l-69 -327q-14 -63 -14 -91q0 -52 44 -52q86 0 128 180l61 290h114l-114 -538h-114z" />
    <glyph glyph-name="udieresis" unicode="&#xfc;" horiz-adv-x="477" 
d="M157 611l24 113h101l-25 -113h-100zM355 611l24 113h101l-23 -113h-102zM252 0l17 78q-53 -91 -147 -91q-53 0 -79.5 25.5t-26.5 82.5q0 37 12 90l75 353h113l-69 -327q-14 -63 -14 -91q0 -52 44 -52q86 0 128 180l61 290h114l-114 -538h-114z" />
    <glyph glyph-name="yacute" unicode="&#xfd;" horiz-adv-x="413" 
d="M-43 -175l16 74h31q36 0 52 13t34 56l16 33l-45 537h106l18 -422l168 422h113l-243 -542q-49 -109 -87 -140t-128 -31h-51zM235 604l90 121h134l-135 -121h-89z" />
    <glyph glyph-name="thorn" unicode="&#xfe;" horiz-adv-x="501" 
d="M-40 -175l191 900h114l-55 -261q23 40 60.5 64t83.5 24q129 0 129 -150q0 -38 -11 -95l-16 -75q-27 -128 -74.5 -186.5t-130.5 -58.5q-48 0 -81 26t-42 69l-54 -257h-114zM151 166q0 -98 72 -98q48 0 74 44t48 145l5 26q15 73 15 109q0 40 -15 59.5t-49 19.5
q-93 0 -137 -201q-13 -67 -13 -104z" />
    <glyph glyph-name="ydieresis" unicode="&#xff;" horiz-adv-x="413" 
d="M-43 -175l16 74h31q36 0 52 13t34 56l16 33l-45 537h106l18 -422l168 422h113l-243 -542q-49 -109 -87 -140t-128 -31h-51zM136 611l24 113h101l-25 -113h-100zM334 611l24 113h101l-23 -113h-102z" />
    <glyph glyph-name="Amacron" unicode="&#x100;" horiz-adv-x="536" 
d="M-49 0l339 725h142l39 -725h-115l-5 167h-207l-73 -167h-120zM338 610l-159 -363h169zM260 793l17 80h243l-17 -80h-243z" />
    <glyph glyph-name="amacron" unicode="&#x101;" horiz-adv-x="460" 
d="M255 0l12 71q-55 -84 -152 -84q-52 0 -85 30.5t-33 83.5q0 16 5 41l3 13q17 68 68 103q37 27 133 58l107 35l8 40q4 17 4 36q0 30 -15 43t-46 13q-42 0 -64.5 -22t-33.5 -73l-1 -8h-104l2 8q33 166 211 166q163 0 163 -132q0 -30 -7 -59l-41 -194q-27 -132 -30 -169h-104
zM115 114q0 -54 51 -54q90 0 119 138l19 88q-63 -24 -77 -28q-50 -17 -73.5 -39t-32.5 -61l-3 -13q-3 -17 -3 -31zM178 628l16 77h239l-16 -77h-239z" />
    <glyph glyph-name="Abreve" unicode="&#x102;" horiz-adv-x="536" 
d="M-49 0l339 725h142l39 -725h-115l-5 167h-207l-73 -167h-120zM338 610l-159 -363h169zM463 887h85q-13 -56 -48.5 -84.5t-104.5 -28.5q-60 0 -98 24.5t-38 68.5q0 6 2 20h85q-1 -2 -1 -7v-5q0 -24 17 -35t39 -11q51 0 62 58z" />
    <glyph glyph-name="abreve" unicode="&#x103;" horiz-adv-x="460" 
d="M255 0l12 71q-55 -84 -152 -84q-52 0 -85 30.5t-33 83.5q0 16 5 41l3 13q17 68 68 103q37 27 133 58l107 35l8 40q4 17 4 36q0 30 -15 43t-46 13q-42 0 -64.5 -22t-33.5 -73l-1 -8h-104l2 8q33 166 211 166q163 0 163 -132q0 -30 -7 -59l-41 -194q-27 -132 -30 -169h-104
zM115 114q0 -54 51 -54q90 0 119 138l19 88q-63 -24 -77 -28q-50 -17 -73.5 -39t-32.5 -61l-3 -13q-3 -17 -3 -31zM374 725h80q-17 -61 -51.5 -91.5t-103.5 -30.5q-121 0 -121 94v13q0 5 2 15h79q-2 -14 -2 -19q0 -42 47 -42q55 0 70 61z" />
    <glyph glyph-name="Aogonek" unicode="&#x104;" horiz-adv-x="536" 
d="M-49 0l339 725h142l39 -725q-104 -46 -104 -90q0 -33 42 -33q21 0 41 5l-13 -63q-32 -7 -70 -7q-44 0 -75 20.5t-31 53.5q0 72 95 114l-5 167h-207l-73 -167h-120zM338 610l-159 -363h169z" />
    <glyph glyph-name="aogonek" unicode="&#x105;" horiz-adv-x="468" 
d="M255 0l12 71q-55 -84 -152 -84q-52 0 -85 30.5t-33 83.5q0 16 5 41l3 13q17 68 68 103q37 27 133 58l107 35l8 40q4 17 4 36q0 30 -15 43t-46 13q-42 0 -64.5 -22t-33.5 -73l-1 -8h-104l2 8q33 166 211 166q163 0 163 -132q0 -30 -7 -59l-41 -194q-27 -132 -30 -169
q-61 -28 -85 -45.5t-24 -43.5q0 -14 13 -24t32 -10q16 0 38 5l-14 -64q-31 -6 -66 -6q-44 0 -74.5 19.5t-30.5 52.5q0 38 30 69.5t77 46.5zM115 114q0 -54 51 -54q90 0 119 138l19 88q-63 -24 -77 -28q-50 -17 -73.5 -39t-32.5 -61l-3 -13q-3 -17 -3 -31z" />
    <glyph glyph-name="Cacute" unicode="&#x106;" horiz-adv-x="533" 
d="M500 239l-2 -10q-29 -126 -87.5 -184t-170.5 -58q-107 0 -156 48t-49 154q0 60 19 155l16 76q37 172 102.5 245t192.5 73q197 0 197 -169q0 -29 -8 -72l-2 -10h-117l2 10q8 43 8 68q0 47 -20.5 67.5t-64.5 20.5q-70 0 -105.5 -63t-66.5 -206l-9 -42q-22 -95 -22 -162
q0 -55 20 -81.5t67 -26.5q55 0 86.5 36t49.5 121l2 10h118zM325 774l80 113h143l-122 -113h-101z" />
    <glyph glyph-name="cacute" unicode="&#x107;" horiz-adv-x="444" 
d="M250 604l90 121h134l-135 -121h-89zM403 183l-1 -5q-40 -191 -208 -191q-87 0 -131.5 42.5t-44.5 123.5q0 36 9 81l17 82q27 125 78.5 180t154.5 55q79 0 124 -37.5t45 -105.5q0 -16 -5 -48l-1 -6h-108l1 5q6 29 6 48q0 67 -64 67q-51 0 -76 -42.5t-45 -139.5l-9 -45
q-14 -70 -14 -107q0 -39 15 -57.5t50 -18.5q38 0 62 26.5t36 87.5l1 5h108z" />
    <glyph glyph-name="Ccircumflex" unicode="&#x108;" horiz-adv-x="533" 
d="M500 239l-2 -10q-29 -126 -87.5 -184t-170.5 -58q-107 0 -156 48t-49 154q0 60 19 155l16 76q37 172 102.5 245t192.5 73q197 0 197 -169q0 -29 -8 -72l-2 -10h-117l2 10q8 43 8 68q0 47 -20.5 67.5t-64.5 20.5q-70 0 -105.5 -63t-66.5 -206l-9 -42q-22 -95 -22 -162
q0 -55 20 -81.5t67 -26.5q55 0 86.5 36t49.5 121l2 10h118zM219 774l132 113h106l93 -113h-111l-44 61l-64 -61h-112z" />
    <glyph glyph-name="ccircumflex" unicode="&#x109;" horiz-adv-x="444" 
d="M130 604l137 121h98l87 -121h-102l-45 64l-71 -64h-104zM403 183l-1 -5q-40 -191 -208 -191q-87 0 -131.5 42.5t-44.5 123.5q0 36 9 81l17 82q27 125 78.5 180t154.5 55q79 0 124 -37.5t45 -105.5q0 -16 -5 -48l-1 -6h-108l1 5q6 29 6 48q0 67 -64 67q-51 0 -76 -42.5
t-45 -139.5l-9 -45q-14 -70 -14 -107q0 -39 15 -57.5t50 -18.5q38 0 62 26.5t36 87.5l1 5h108z" />
    <glyph glyph-name="Cdotaccent" unicode="&#x10a;" horiz-adv-x="533" 
d="M500 239l-2 -10q-29 -126 -87.5 -184t-170.5 -58q-107 0 -156 48t-49 154q0 60 19 155l16 76q37 172 102.5 245t192.5 73q197 0 197 -169q0 -29 -8 -72l-2 -10h-117l2 10q8 43 8 68q0 47 -20.5 67.5t-64.5 20.5q-70 0 -105.5 -63t-66.5 -206l-9 -42q-22 -95 -22 -162
q0 -55 20 -81.5t67 -26.5q55 0 86.5 36t49.5 121l2 10h118zM329 779l22 107h119l-22 -107h-119z" />
    <glyph glyph-name="cdotaccent" unicode="&#x10b;" horiz-adv-x="444" 
d="M403 183l-1 -5q-40 -191 -208 -191q-87 0 -131.5 42.5t-44.5 123.5q0 36 9 81l17 82q27 125 78.5 180t154.5 55q79 0 124 -37.5t45 -105.5q0 -16 -5 -48l-1 -6h-108l1 5q6 29 6 48q0 67 -64 67q-51 0 -76 -42.5t-45 -139.5l-9 -45q-14 -70 -14 -107q0 -39 15 -57.5
t50 -18.5q38 0 62 26.5t36 87.5l1 5h108zM257 611l25 114h101l-25 -114h-101z" />
    <glyph glyph-name="Ccaron" unicode="&#x10c;" horiz-adv-x="533" 
d="M423 774h-105l-93 113h111l43 -60l68 60h112zM500 239l-2 -10q-29 -126 -87.5 -184t-170.5 -58q-107 0 -156 48t-49 154q0 60 19 155l16 76q37 172 102.5 245t192.5 73q197 0 197 -169q0 -29 -8 -72l-2 -10h-117l2 10q8 43 8 68q0 47 -20.5 67.5t-64.5 20.5
q-70 0 -105.5 -63t-66.5 -206l-9 -42q-22 -95 -22 -162q0 -55 20 -81.5t67 -26.5q55 0 86.5 36t49.5 121l2 10h118z" />
    <glyph glyph-name="ccaron" unicode="&#x10d;" horiz-adv-x="444" 
d="M260 604l-95 121h103l50 -62l69 62h102l-133 -121h-96zM403 183l-1 -5q-40 -191 -208 -191q-87 0 -131.5 42.5t-44.5 123.5q0 36 9 81l17 82q27 125 78.5 180t154.5 55q79 0 124 -37.5t45 -105.5q0 -16 -5 -48l-1 -6h-108l1 5q6 29 6 48q0 67 -64 67q-51 0 -76 -42.5
t-45 -139.5l-9 -45q-14 -70 -14 -107q0 -39 15 -57.5t50 -18.5q38 0 62 26.5t36 87.5l1 5h108z" />
    <glyph glyph-name="Dcaron" unicode="&#x10e;" horiz-adv-x="558" 
d="M415 774h-105l-93 113h111l43 -60l68 60h112zM144 82h73q80 0 120.5 59t72.5 199l10 45q19 83 19 143q0 59 -24 87t-80 28h-71zM8 0l154 725h178q116 0 169.5 -46.5t53.5 -152.5q0 -58 -18 -141l-17 -80q-36 -170 -106 -237.5t-212 -67.5h-202z" />
    <glyph glyph-name="dcaron" unicode="&#x10f;" horiz-adv-x="597" 
d="M549 555l61 170h109l-94 -170h-76zM272 0l16 75q-23 -40 -61 -64t-84 -24q-128 0 -128 148q0 47 11 96l16 75q27 129 75 187t132 58q47 0 79.5 -25.5t40.5 -69.5l57 269h114l-154 -725h-114zM133 147q0 -79 65 -79q94 0 135 201q14 67 14 106q0 95 -72 95
q-49 0 -75.5 -44t-46.5 -143l-5 -28q-15 -72 -15 -108z" />
    <glyph glyph-name="Dcroat" unicode="&#x110;" horiz-adv-x="558" 
d="M0 319l19 89h76l67 317h178q116 0 169.5 -46.5t53.5 -152.5q0 -58 -18 -141l-17 -80q-36 -170 -106 -237.5t-212 -67.5h-202l68 319h-76zM144 82h73q80 0 120.5 59t72.5 199l10 45q19 83 19 143q0 59 -24 87t-80 28h-71l-51 -235h123l-19 -89h-123z" />
    <glyph glyph-name="dslash" unicode="&#x111;" horiz-adv-x="495" 
d="M284 574l13 64h110l19 87h114l-19 -87h77l-13 -64h-77l-122 -574h-114l16 75q-23 -40 -61 -64t-84 -24q-128 0 -128 148q0 47 11 96l16 75q27 129 75 187t132 58q47 0 79.5 -25.5t40.5 -69.5l25 118h-110zM133 147q0 -79 65 -79q94 0 135 201q14 67 14 106q0 95 -72 95
q-49 0 -75.5 -44t-46.5 -143l-5 -28q-15 -72 -15 -108z" />
    <glyph glyph-name="Emacron" unicode="&#x112;" horiz-adv-x="466" 
d="M244 793l17 80h243l-17 -80h-243zM8 0l154 725h379l-19 -90h-260l-46 -217h238l-19 -90h-238l-51 -238h261l-19 -90h-380z" />
    <glyph glyph-name="emacron" unicode="&#x113;" horiz-adv-x="467" 
d="M411 175l-1 -5q-19 -94 -76.5 -138.5t-139.5 -44.5q-176 0 -176 167q0 36 9 80l17 82q27 123 81 179t157 56q171 0 171 -159q0 -29 -13 -98l-7 -37h-288l-2 -10q-13 -67 -13 -103q0 -80 67 -80q42 0 67.5 24.5t36.5 81.5l1 5h109zM161 333l-2 -8h180l2 8q8 43 8 66
q0 39 -17.5 57.5t-55.5 18.5q-50 0 -75.5 -38t-39.5 -104zM194 628l16 77h239l-16 -77h-239z" />
    <glyph glyph-name="Ebreve" unicode="&#x114;" horiz-adv-x="466" 
d="M451 887h85q-13 -56 -48.5 -84.5t-104.5 -28.5q-60 0 -98 24.5t-38 68.5q0 6 2 20h85q-1 -2 -1 -7v-5q0 -24 17 -35t39 -11q51 0 62 58zM8 0l154 725h379l-19 -90h-260l-46 -217h238l-19 -90h-238l-51 -238h261l-19 -90h-380z" />
    <glyph glyph-name="ebreve" unicode="&#x115;" horiz-adv-x="467" 
d="M411 175l-1 -5q-19 -94 -76.5 -138.5t-139.5 -44.5q-176 0 -176 167q0 36 9 80l17 82q27 123 81 179t157 56q171 0 171 -159q0 -29 -13 -98l-7 -37h-288l-2 -10q-13 -67 -13 -103q0 -80 67 -80q42 0 67.5 24.5t36.5 81.5l1 5h109zM161 333l-2 -8h180l2 8q8 43 8 66
q0 39 -17.5 57.5t-55.5 18.5q-50 0 -75.5 -38t-39.5 -104zM392 725h80q-17 -61 -51.5 -91.5t-103.5 -30.5q-121 0 -121 94v13q0 5 2 15h79q-2 -14 -2 -19q0 -42 47 -42q55 0 70 61z" />
    <glyph glyph-name="Edotaccent" unicode="&#x116;" horiz-adv-x="466" 
d="M303 779l22 107h119l-22 -107h-119zM8 0l154 725h379l-19 -90h-260l-46 -217h238l-19 -90h-238l-51 -238h261l-19 -90h-380z" />
    <glyph glyph-name="edotaccent" unicode="&#x117;" horiz-adv-x="467" 
d="M411 175l-1 -5q-19 -94 -76.5 -138.5t-139.5 -44.5q-176 0 -176 167q0 36 9 80l17 82q27 123 81 179t157 56q171 0 171 -159q0 -29 -13 -98l-7 -37h-288l-2 -10q-13 -67 -13 -103q0 -80 67 -80q42 0 67.5 24.5t36.5 81.5l1 5h109zM161 333l-2 -8h180l2 8q8 43 8 66
q0 39 -17.5 57.5t-55.5 18.5q-50 0 -75.5 -38t-39.5 -104zM261 611l25 114h101l-25 -114h-101z" />
    <glyph glyph-name="Eogonek" unicode="&#x118;" horiz-adv-x="466" 
d="M363 -118l-13 -63q-32 -7 -70 -7q-44 0 -75 20.5t-31 53.5q0 72 95 114h119q-108 -48 -108 -90q0 -33 42 -33q21 0 41 5zM8 0l154 725h379l-19 -90h-260l-46 -217h238l-19 -90h-238l-51 -238h261l-19 -90h-380z" />
    <glyph glyph-name="eogonek" unicode="&#x119;" horiz-adv-x="467" 
d="M161 333l-2 -8h180l2 8q8 43 8 66q0 39 -17.5 57.5t-55.5 18.5q-50 0 -75.5 -38t-39.5 -104zM314 -118l-14 -64q-32 -6 -66 -6q-44 0 -74.5 19.5t-30.5 52.5q0 55 41 104q-152 11 -152 166q0 36 9 80l17 82q27 123 81 179t157 56q171 0 171 -159q0 -29 -13 -98l-7 -37
h-288l-2 -10q-13 -67 -13 -103q0 -80 67 -80q42 0 67.5 24.5t36.5 81.5l1 5h109l-1 -5q-20 -95 -75 -137q-104 -75 -104 -122q0 -14 13 -24t32 -10q16 0 38 5z" />
    <glyph glyph-name="Ecaron" unicode="&#x11a;" horiz-adv-x="466" 
d="M418 774h-105l-93 113h111l43 -60l68 60h112zM8 0l154 725h379l-19 -90h-260l-46 -217h238l-19 -90h-238l-51 -238h261l-19 -90h-380z" />
    <glyph glyph-name="ecaron" unicode="&#x11b;" horiz-adv-x="467" 
d="M267 604l-95 121h103l50 -62l69 62h102l-133 -121h-96zM411 175l-1 -5q-19 -94 -76.5 -138.5t-139.5 -44.5q-176 0 -176 167q0 36 9 80l17 82q27 123 81 179t157 56q171 0 171 -159q0 -29 -13 -98l-7 -37h-288l-2 -10q-13 -67 -13 -103q0 -80 67 -80q42 0 67.5 24.5
t36.5 81.5l1 5h109zM161 333l-2 -8h180l2 8q8 43 8 66q0 39 -17.5 57.5t-55.5 18.5q-50 0 -75.5 -38t-39.5 -104z" />
    <glyph glyph-name="Gcircumflex" unicode="&#x11c;" horiz-adv-x="565" 
d="M225 774l132 113h106l93 -113h-111l-44 61l-64 -61h-112zM370 0l19 89q-32 -52 -72 -77t-105 -25q-91 0 -134.5 47t-43.5 149q0 64 20 161l16 76q37 171 103.5 244.5t192.5 73.5q197 0 197 -169q0 -29 -8 -72l-2 -10h-119l2 10q9 41 9 69q0 46 -21 66.5t-64 20.5
q-70 0 -105.5 -62.5t-66.5 -205.5l-10 -45q-22 -95 -22 -162q0 -54 20 -80t67 -26q66 0 105 46.5t60 143.5l6 28h-151l17 83h256l-79 -373h-87z" />
    <glyph glyph-name="gcircumflex" unicode="&#x11d;" horiz-adv-x="503" 
d="M148 604l137 121h98l87 -121h-102l-45 64l-71 -64h-104zM506 538l-106 -500q-25 -118 -80 -172t-162 -54q-79 0 -123 32.5t-44 91.5q0 3 4 35l1 6h103l-1 -6q-2 -14 -2 -24q0 -57 68 -57q51 0 76 26.5t40 100.5l19 90q-51 -91 -141 -91q-66 0 -101.5 38.5t-35.5 113.5
q0 38 9 83l14 65q26 119 83.5 177t140.5 58q46 0 73 -25.5t33 -66.5l16 79h116zM140 173q0 -39 14 -58t47 -19q56 0 88.5 44t51.5 138q13 65 13 102q0 46 -17.5 68t-56.5 22q-50 0 -77 -41.5t-46 -133.5l-3 -16q-14 -67 -14 -106z" />
    <glyph glyph-name="Gbreve" unicode="&#x11e;" horiz-adv-x="565" 
d="M468 887h85q-13 -56 -48.5 -84.5t-104.5 -28.5q-60 0 -98 24.5t-38 68.5q0 6 2 20h85q-1 -2 -1 -7v-5q0 -24 17 -35t39 -11q51 0 62 58zM370 0l19 89q-32 -52 -72 -77t-105 -25q-91 0 -134.5 47t-43.5 149q0 64 20 161l16 76q37 171 103.5 244.5t192.5 73.5
q197 0 197 -169q0 -29 -8 -72l-2 -10h-119l2 10q9 41 9 69q0 46 -21 66.5t-64 20.5q-70 0 -105.5 -62.5t-66.5 -205.5l-10 -45q-22 -95 -22 -162q0 -54 20 -80t67 -26q66 0 105 46.5t60 143.5l6 28h-151l17 83h256l-79 -373h-87z" />
    <glyph glyph-name="gbreve" unicode="&#x11f;" horiz-adv-x="503" 
d="M506 538l-106 -500q-25 -118 -80 -172t-162 -54q-79 0 -123 32.5t-44 91.5q0 3 4 35l1 6h103l-1 -6q-2 -14 -2 -24q0 -57 68 -57q51 0 76 26.5t40 100.5l19 90q-51 -91 -141 -91q-66 0 -101.5 38.5t-35.5 113.5q0 38 9 83l14 65q26 119 83.5 177t140.5 58q46 0 73 -25.5
t33 -66.5l16 79h116zM140 173q0 -39 14 -58t47 -19q56 0 88.5 44t51.5 138q13 65 13 102q0 46 -17.5 68t-56.5 22q-50 0 -77 -41.5t-46 -133.5l-3 -16q-14 -67 -14 -106zM403 725h80q-17 -61 -51.5 -91.5t-103.5 -30.5q-121 0 -121 94v13q0 5 2 15h79q-2 -14 -2 -19
q0 -42 47 -42q55 0 70 61z" />
    <glyph glyph-name="Gdotaccent" unicode="&#x120;" horiz-adv-x="565" 
d="M330 779l22 107h119l-22 -107h-119zM370 0l19 89q-32 -52 -72 -77t-105 -25q-91 0 -134.5 47t-43.5 149q0 64 20 161l16 76q37 171 103.5 244.5t192.5 73.5q197 0 197 -169q0 -29 -8 -72l-2 -10h-119l2 10q9 41 9 69q0 46 -21 66.5t-64 20.5q-70 0 -105.5 -62.5
t-66.5 -205.5l-10 -45q-22 -95 -22 -162q0 -54 20 -80t67 -26q66 0 105 46.5t60 143.5l6 28h-151l17 83h256l-79 -373h-87z" />
    <glyph glyph-name="gdotaccent" unicode="&#x121;" horiz-adv-x="503" 
d="M506 538l-106 -500q-25 -118 -80 -172t-162 -54q-79 0 -123 32.5t-44 91.5q0 3 4 35l1 6h103l-1 -6q-2 -14 -2 -24q0 -57 68 -57q51 0 76 26.5t40 100.5l19 90q-51 -91 -141 -91q-66 0 -101.5 38.5t-35.5 113.5q0 38 9 83l14 65q26 119 83.5 177t140.5 58q46 0 73 -25.5
t33 -66.5l16 79h116zM140 173q0 -39 14 -58t47 -19q56 0 88.5 44t51.5 138q13 65 13 102q0 46 -17.5 68t-56.5 22q-50 0 -77 -41.5t-46 -133.5l-3 -16q-14 -67 -14 -106zM262 611l25 114h101l-25 -114h-101z" />
    <glyph glyph-name="uni0122" unicode="&#x122;" horiz-adv-x="565" 
d="M125 -223l51 85h-23l19 88h92l-19 -93l-55 -80h-65zM370 0l19 89q-32 -52 -72 -77t-105 -25q-91 0 -134.5 47t-43.5 149q0 64 20 161l16 76q37 171 103.5 244.5t192.5 73.5q197 0 197 -169q0 -29 -8 -72l-2 -10h-119l2 10q9 41 9 69q0 46 -21 66.5t-64 20.5
q-70 0 -105.5 -62.5t-66.5 -205.5l-10 -45q-22 -95 -22 -162q0 -54 20 -80t67 -26q66 0 105 46.5t60 143.5l6 28h-151l17 83h256l-79 -373h-87z" />
    <glyph glyph-name="uni0123" unicode="&#x123;" horiz-adv-x="503" 
d="M404 781l-51 -85h23l-19 -88h-92l19 93l55 80h65zM506 538l-106 -500q-25 -118 -80 -172t-162 -54q-79 0 -123 32.5t-44 91.5q0 3 4 35l1 6h103l-1 -6q-2 -14 -2 -24q0 -57 68 -57q51 0 76 26.5t40 100.5l19 90q-51 -91 -141 -91q-66 0 -101.5 38.5t-35.5 113.5
q0 38 9 83l14 65q26 119 83.5 177t140.5 58q46 0 73 -25.5t33 -66.5l16 79h116zM140 173q0 -39 14 -58t47 -19q56 0 88.5 44t51.5 138q13 65 13 102q0 46 -17.5 68t-56.5 22q-50 0 -77 -41.5t-46 -133.5l-3 -16q-14 -67 -14 -106z" />
    <glyph glyph-name="Hcircumflex" unicode="&#x124;" horiz-adv-x="582" 
d="M8 0l154 725h119l-65 -307h214l65 307h119l-154 -725h-119l70 328h-214l-70 -328h-119zM229 774l132 113h106l93 -113h-111l-44 61l-64 -61h-112z" />
    <glyph glyph-name="hcircumflex" unicode="&#x125;" horiz-adv-x="485" 
d="M111 0h-114l154 725h115l-57 -266q54 92 145 92q56 0 83.5 -27t27.5 -88q0 -43 -9 -85l-75 -351h-115l69 326q12 57 12 85q0 58 -48 58q-82 0 -120 -152zM59 774l132 113h106l93 -113h-111l-44 61l-64 -61h-112z" />
    <glyph glyph-name="Hbar" unicode="&#x126;" horiz-adv-x="582" 
d="M69 523l19 89h50l24 113h119l-24 -113h214l24 113h119l-24 -113h50l-19 -89h-50l-111 -523h-119l70 328h-214l-70 -328h-119l111 523h-50zM216 418h214l22 105h-214z" />
    <glyph glyph-name="hbar" unicode="&#x127;" horiz-adv-x="485" 
d="M47 574l14 64h71l19 87h115l-19 -87h115l-14 -64h-115l-24 -115q54 92 145 92q56 0 83.5 -27t27.5 -88q0 -43 -9 -85l-75 -351h-115l69 326q12 57 12 85q0 58 -48 58q-82 0 -120 -152l-68 -317h-114l122 574h-72z" />
    <glyph glyph-name="Itilde" unicode="&#x128;" horiz-adv-x="249" 
d="M152 776h-75q38 106 120 106q27 0 54.5 -22t39.5 -22q25 0 42 44h75q-22 -61 -51.5 -83.5t-66.5 -22.5q-28 0 -57 21t-39 21q-28 0 -42 -42zM8 0l154 725h119l-154 -725h-119z" />
    <glyph glyph-name="itilde" unicode="&#x129;" horiz-adv-x="217" 
d="M114 612h-67q33 113 105 113q26 0 52 -22t37 -22q22 0 34 44h67q-32 -113 -96 -113q-23 0 -52 21t-42 21q-21 0 -38 -42zM-3 0l114 538h114l-114 -538h-114z" />
    <glyph glyph-name="Imacron" unicode="&#x12a;" horiz-adv-x="249" 
d="M118 793l17 80h232l-17 -80h-232zM8 0l154 725h119l-154 -725h-119z" />
    <glyph glyph-name="imacron" unicode="&#x12b;" horiz-adv-x="217" 
d="M83 628l17 77h205l-17 -77h-205zM-3 0l114 538h114l-114 -538h-114z" />
    <glyph glyph-name="Ibreve" unicode="&#x12c;" horiz-adv-x="249" 
d="M8 0l154 725h119l-154 -725h-119zM304 887h83q-13 -57 -47.5 -85t-102.5 -28q-57 0 -88.5 22.5t-31.5 64.5q0 13 3 26h84q-1 -3 -1 -9v-7q0 -43 43 -43q24 0 37.5 13.5t20.5 45.5z" />
    <glyph glyph-name="ibreve" unicode="&#x12d;" horiz-adv-x="217" 
d="M248 725h81q-18 -62 -47.5 -92t-94.5 -30q-106 0 -106 87q0 17 3 35h79q-3 -13 -3 -24q0 -37 35 -37q22 0 34 15t19 46zM-3 0l114 538h114l-114 -538h-114z" />
    <glyph glyph-name="Iogonek" unicode="&#x12e;" horiz-adv-x="249" 
d="M8 0l154 725h119l-154 -725h-119zM103 -118l-13 -63q-32 -7 -70 -7q-44 0 -75 20.5t-31 53.5q0 72 95 114h119q-108 -48 -108 -90q0 -33 42 -33q21 0 41 5z" />
    <glyph glyph-name="iogonek" unicode="&#x12f;" horiz-adv-x="217" 
d="M86 -118l-14 -64q-31 -6 -66 -6q-44 0 -74.5 19.5t-30.5 52.5q0 73 96 116l114 538h114l-114 -538q-61 -28 -84.5 -45.5t-23.5 -43.5q0 -14 13 -24t32 -10q16 0 38 5zM126 608l25 117h114l-25 -117h-114z" />
    <glyph glyph-name="Idot" unicode="&#x130;" horiz-adv-x="249" 
d="M8 0l154 725h119l-154 -725h-119zM176 779l22 107h119l-22 -107h-119z" />
    <glyph glyph-name="dotlessi" unicode="&#x131;" horiz-adv-x="219" 
d="M-3 0l114 538h114l-114 -538h-114z" />
    <glyph glyph-name="Jcircumflex" unicode="&#x134;" horiz-adv-x="448" 
d="M493 725l-111 -525q-27 -120 -78 -166.5t-147 -46.5q-86 0 -131 40t-45 113q0 33 7 62l2 10h118l-2 -10q-7 -32 -7 -59q0 -71 59 -71q43 0 66.5 29.5t38.5 100.5l111 523h119zM284 774l132 113h106l93 -113h-111l-44 61l-64 -61h-112z" />
    <glyph glyph-name="jcircumflex" unicode="&#x135;" horiz-adv-x="217" 
d="M-117 -175l16 72h24q36 0 48 17t23 69l117 555h115l-118 -558q-22 -97 -52 -126t-115 -29h-58zM21 604l137 121h98l87 -121h-102l-45 64l-71 -64h-104z" />
    <glyph glyph-name="uni0136" unicode="&#x136;" horiz-adv-x="542" 
d="M133 -223l51 85h-23l19 88h92l-19 -93l-55 -80h-65zM377 0l-102 325l-106 -122l-43 -203h-118l154 725h118l-70 -331l287 331h123l-261 -303l130 -422h-112z" />
    <glyph glyph-name="uni0137" unicode="&#x137;" horiz-adv-x="443" 
d="M96 -223l51 85h-23l19 88h92l-19 -93l-55 -80h-65zM291 0l-66 251l-80 -88l-34 -163h-114l154 725h114l-84 -393l185 206h118l-182 -201l90 -337h-101z" />
    <glyph glyph-name="Lacute" unicode="&#x139;" horiz-adv-x="454" 
d="M8 0l154 725h119l-135 -635h263l-19 -90h-382zM181 774l80 113h143l-122 -113h-101z" />
    <glyph glyph-name="lacute" unicode="&#x13a;" horiz-adv-x="222" 
d="M-1 0l154 725h114l-154 -725h-114zM168 774l80 113h143l-122 -113h-101z" />
    <glyph glyph-name="uni013B" unicode="&#x13b;" horiz-adv-x="454" 
d="M104 -223l51 85h-23l19 88h92l-19 -93l-55 -80h-65zM8 0l154 725h119l-135 -635h263l-19 -90h-382z" />
    <glyph glyph-name="uni013C" unicode="&#x13c;" horiz-adv-x="222" 
d="M-49 -223l51 85h-23l19 88h92l-19 -93l-55 -80h-65zM-3 0l154 725h114l-154 -725h-114z" />
    <glyph glyph-name="Lcaron" unicode="&#x13d;" horiz-adv-x="454" 
d="M8 0l154 725h119l-135 -635h263l-19 -90h-382zM312 555l61 170h109l-94 -170h-76z" />
    <glyph glyph-name="lcaron" unicode="&#x13e;" horiz-adv-x="322" 
d="M274 555l61 170h109l-94 -170h-76zM-3 0l154 725h114l-154 -725h-114z" />
    <glyph glyph-name="Ldot" unicode="&#x13f;" horiz-adv-x="454" 
d="M310 355l22 107h119l-22 -107h-119zM8 0l154 725h119l-135 -635h263l-19 -90h-382z" />
    <glyph glyph-name="ldot" unicode="&#x140;" horiz-adv-x="356" 
d="M250 355l22 107h119l-22 -107h-119zM-1 0l154 725h114l-154 -725h-114z" />
    <glyph glyph-name="Lslash" unicode="&#x141;" horiz-adv-x="477" 
d="M-15 200l20 97l101 57l79 371h119l-63 -295l220 123l-21 -98l-220 -123l-51 -242h263l-19 -90h-382l54 256z" />
    <glyph glyph-name="lslash" unicode="&#x142;" horiz-adv-x="248" 
d="M-3 262l20 95l80 42l70 326h114l-55 -259l89 47l-20 -94l-89 -47l-79 -372h-114l64 304z" />
    <glyph glyph-name="Nacute" unicode="&#x143;" horiz-adv-x="584" 
d="M8 0l154 725h140l87 -571l121 571h106l-154 -725h-139l-87 571l-121 -571h-107zM355 774l80 113h143l-122 -113h-101z" />
    <glyph glyph-name="nacute" unicode="&#x144;" horiz-adv-x="485" 
d="M264 604l90 121h134l-135 -121h-89zM-3 0l114 538h114l-16 -79q54 92 145 92q56 0 83.5 -27t27.5 -88q0 -43 -9 -85l-75 -351h-115l69 326q12 57 12 85q0 58 -48 58q-45 0 -77.5 -49t-49.5 -132l-61 -288h-114z" />
    <glyph glyph-name="uni0145" unicode="&#x145;" horiz-adv-x="584" 
d="M126 -223l51 85h-23l19 88h92l-19 -93l-55 -80h-65zM8 0l154 725h140l87 -571l121 571h106l-154 -725h-139l-87 571l-121 -571h-107z" />
    <glyph glyph-name="uni0146" unicode="&#x146;" horiz-adv-x="485" 
d="M89 -223l51 85h-23l19 88h92l-19 -93l-55 -80h-65zM-3 0l114 538h114l-16 -79q54 92 145 92q56 0 83.5 -27t27.5 -88q0 -43 -9 -85l-75 -351h-115l69 326q12 57 12 85q0 58 -48 58q-45 0 -77.5 -49t-49.5 -132l-61 -288h-114z" />
    <glyph glyph-name="Ncaron" unicode="&#x147;" horiz-adv-x="584" 
d="M452 774h-105l-93 113h111l43 -60l68 60h112zM8 0l154 725h140l87 -571l121 571h106l-154 -725h-139l-87 571l-121 -571h-107z" />
    <glyph glyph-name="ncaron" unicode="&#x148;" horiz-adv-x="485" 
d="M271 604l-95 121h103l50 -62l69 62h102l-133 -121h-96zM-3 0l114 538h114l-16 -79q54 92 145 92q56 0 83.5 -27t27.5 -88q0 -43 -9 -85l-75 -351h-115l69 326q12 57 12 85q0 58 -48 58q-45 0 -77.5 -49t-49.5 -132l-61 -288h-114z" />
    <glyph glyph-name="Eng" unicode="&#x14a;" horiz-adv-x="584" 
d="M354 0l-118 571l-121 -571h-107l154 725h140l101 -505l107 505h106l-154 -725q-22 -109 -64 -146.5t-139 -37.5h-58l19 90h31q51 0 69.5 13.5t28.5 56.5z" />
    <glyph glyph-name="eng" unicode="&#x14b;" horiz-adv-x="485" 
d="M262 -22l73 348q12 57 12 85q0 58 -48 58q-45 0 -77.5 -49t-49.5 -132l-61 -288h-114l114 538h114l-16 -79q54 92 145 92q56 0 83.5 -27t27.5 -88q0 -43 -9 -85l-79 -372q-19 -92 -61 -124t-133 -32h-35l15 72h21q40 0 54 16.5t24 66.5z" />
    <glyph glyph-name="Omacron" unicode="&#x14c;" horiz-adv-x="566" 
d="M276 793l17 80h243l-17 -80h-243zM156 179q0 -53 20.5 -80t67.5 -27q71 0 107.5 63.5t67.5 206.5l9 42q21 97 21 161q0 55 -20 81.5t-67 26.5q-71 0 -107.5 -63.5t-67.5 -205.5l-9 -42q-22 -95 -22 -163zM552 382l-16 -77q-37 -172 -102.5 -245t-191.5 -73
q-108 0 -157.5 48.5t-49.5 155.5q0 58 19 153l16 76q37 172 102.5 245t192.5 73q107 0 156.5 -48t49.5 -154q0 -59 -19 -154z" />
    <glyph glyph-name="omacron" unicode="&#x14d;" horiz-adv-x="473" 
d="M204 628l16 77h239l-16 -77h-239zM132 141q0 -78 66 -78q51 0 74.5 43t46.5 144l9 40q13 62 13 106q0 78 -66 78q-51 0 -75.5 -43.5t-44.5 -141.5l-8 -40q-15 -72 -15 -108zM447 305l-18 -83q-27 -123 -81.5 -179t-156.5 -56q-173 0 -173 167q0 36 9 80l17 81
q25 123 80.5 179.5t158.5 56.5q172 0 172 -166q0 -47 -8 -80z" />
    <glyph glyph-name="Obreve" unicode="&#x14e;" horiz-adv-x="566" 
d="M480 887h85q-13 -56 -48.5 -84.5t-104.5 -28.5q-60 0 -98 24.5t-38 68.5q0 6 2 20h85q-1 -2 -1 -7v-5q0 -24 17 -35t39 -11q51 0 62 58zM156 179q0 -53 20.5 -80t67.5 -27q71 0 107.5 63.5t67.5 206.5l9 42q21 97 21 161q0 55 -20 81.5t-67 26.5q-71 0 -107.5 -63.5
t-67.5 -205.5l-9 -42q-22 -95 -22 -163zM552 382l-16 -77q-37 -172 -102.5 -245t-191.5 -73q-108 0 -157.5 48.5t-49.5 155.5q0 58 19 153l16 76q37 172 102.5 245t192.5 73q107 0 156.5 -48t49.5 -154q0 -59 -19 -154z" />
    <glyph glyph-name="obreve" unicode="&#x14f;" horiz-adv-x="473" 
d="M132 141q0 -78 66 -78q51 0 74.5 43t46.5 144l9 40q13 62 13 106q0 78 -66 78q-51 0 -75.5 -43.5t-44.5 -141.5l-8 -40q-15 -72 -15 -108zM447 305l-18 -83q-27 -123 -81.5 -179t-156.5 -56q-173 0 -173 167q0 36 9 80l17 81q25 123 80.5 179.5t158.5 56.5
q172 0 172 -166q0 -47 -8 -80zM392 725h80q-17 -61 -51.5 -91.5t-103.5 -30.5q-121 0 -121 94v13q0 5 2 15h79q-2 -14 -2 -19q0 -42 47 -42q55 0 70 61z" />
    <glyph glyph-name="Ohungarumlaut" unicode="&#x150;" horiz-adv-x="566" 
d="M156 179q0 -53 20.5 -80t67.5 -27q71 0 107.5 63.5t67.5 206.5l9 42q21 97 21 161q0 55 -20 81.5t-67 26.5q-71 0 -107.5 -63.5t-67.5 -205.5l-9 -42q-22 -95 -22 -163zM552 382l-16 -77q-37 -172 -102.5 -245t-191.5 -73q-108 0 -157.5 48.5t-49.5 155.5q0 58 19 153
l16 76q37 172 102.5 245t192.5 73q107 0 156.5 -48t49.5 -154q0 -59 -19 -154zM427 774l81 113h135l-116 -113h-100zM243 774l80 113h136l-115 -113h-101z" />
    <glyph glyph-name="ohungarumlaut" unicode="&#x151;" horiz-adv-x="473" 
d="M335 604l89 121h129l-128 -121h-90zM163 604l89 121h129l-127 -121h-91zM132 141q0 -78 66 -78q51 0 74.5 43t46.5 144l9 40q13 62 13 106q0 78 -66 78q-51 0 -75.5 -43.5t-44.5 -141.5l-8 -40q-15 -72 -15 -108zM447 305l-18 -83q-27 -123 -81.5 -179t-156.5 -56
q-173 0 -173 167q0 36 9 80l17 81q25 123 80.5 179.5t158.5 56.5q172 0 172 -166q0 -47 -8 -80z" />
    <glyph glyph-name="OE" unicode="&#x152;" horiz-adv-x="813" 
d="M355 0l154 725h379l-19 -90h-260l-46 -217h238l-19 -90h-238l-51 -238h261l-19 -90h-380zM156 179q0 -53 20.5 -80t67.5 -27q71 0 107.5 63.5t67.5 206.5l9 42q21 97 21 161q0 55 -20 81.5t-67 26.5q-71 0 -107.5 -63.5t-67.5 -205.5l-9 -42q-22 -95 -22 -163zM552 382
l-16 -77q-37 -172 -102.5 -245t-191.5 -73q-108 0 -157.5 48.5t-49.5 155.5q0 58 19 153l16 76q37 172 102.5 245t192.5 73q107 0 156.5 -48t49.5 -154q0 -59 -19 -154z" />
    <glyph glyph-name="oe" unicode="&#x153;" horiz-adv-x="761" 
d="M705 176l-1 -5q-19 -94 -76.5 -138.5t-139.5 -44.5q-176 0 -176 167q0 37 9 80l17 82q27 123 81 179t157 56q171 0 171 -159q0 -29 -13 -98l-7 -37h-288l-2 -10q-13 -67 -13 -103q0 -80 67 -80q42 0 67.5 24.5t36.5 81.5l1 5h109zM455 334l-2 -8h180l2 8q8 43 8 66
q0 39 -17.5 57.5t-55.5 18.5q-50 0 -75.5 -38t-39.5 -104zM134 141q0 -78 66 -78q51 0 74.5 43t46.5 144l9 40q13 62 13 106q0 78 -66 78q-51 0 -75.5 -43.5t-44.5 -141.5l-8 -40q-15 -72 -15 -108zM449 305l-18 -83q-27 -123 -81.5 -179t-156.5 -56q-173 0 -173 167
q0 36 9 80l17 81q25 123 80.5 179.5t158.5 56.5q172 0 172 -166q0 -47 -8 -80z" />
    <glyph glyph-name="Racute" unicode="&#x154;" horiz-adv-x="549" 
d="M352 0l-45 321h-111l-68 -321h-120l154 725h155q126 0 183 -31.5t57 -115.5v-12q0 -8 -1 -12q-10 -161 -141 -209l53 -345h-116zM211 396h61q79 0 118 36t47 110q1 3 1 10v10q0 48 -30 64.5t-100 16.5h-44zM317 774l80 113h143l-122 -113h-101z" />
    <glyph glyph-name="racute" unicode="&#x155;" horiz-adv-x="310" 
d="M179 604l90 121h134l-135 -121h-89zM-3 0l114 538h113l-23 -108q49 108 143 108h20l-22 -107h-36q-59 0 -88 -32t-47 -117l-60 -282h-114z" />
    <glyph glyph-name="uni0156" unicode="&#x156;" horiz-adv-x="549" 
d="M139 -223l51 85h-23l19 88h92l-19 -93l-55 -80h-65zM352 0l-45 321h-111l-68 -321h-120l154 725h155q126 0 183 -31.5t57 -115.5v-12q0 -8 -1 -12q-10 -161 -141 -209l53 -345h-116zM211 396h61q79 0 118 36t47 110q1 3 1 10v10q0 48 -30 64.5t-100 16.5h-44z" />
    <glyph glyph-name="uni0157" unicode="&#x157;" horiz-adv-x="310" 
d="M-49 -223l51 85h-23l19 88h92l-19 -93l-55 -80h-65zM3 0l114 538h113l-23 -108q49 108 143 108h20l-22 -107h-36q-59 0 -88 -32t-47 -117l-60 -282h-114z" />
    <glyph glyph-name="Rcaron" unicode="&#x158;" horiz-adv-x="549" 
d="M428 774h-105l-93 113h111l43 -60l68 60h112zM352 0l-45 321h-111l-68 -321h-120l154 725h155q126 0 183 -31.5t57 -115.5v-12q0 -8 -1 -12q-10 -161 -141 -209l53 -345h-116zM211 396h61q79 0 118 36t47 110q1 3 1 10v10q0 48 -30 64.5t-100 16.5h-44z" />
    <glyph glyph-name="rcaron" unicode="&#x159;" horiz-adv-x="310" 
d="M202 604l-95 121h103l50 -62l69 62h102l-133 -121h-96zM-2 0l114 538h113l-23 -108q49 108 143 108h20l-22 -107h-36q-59 0 -88 -32t-47 -117l-60 -282h-114z" />
    <glyph glyph-name="Sacute" unicode="&#x15a;" horiz-adv-x="513" 
d="M466 233q0 -114 -63 -180t-192 -66q-96 0 -153 42.5t-57 121.5q0 34 10 72l2 10h117l-2 -10q-7 -29 -7 -60q0 -93 94 -93q63 0 96.5 37t33.5 100q0 61 -70 106l-69 43q-51 34 -78.5 70.5t-27.5 85.5q0 107 62 166.5t183 59.5q89 0 140.5 -37t51.5 -114q0 -27 -6 -59
l-2 -10h-116l2 10q4 21 4 43q0 85 -83 85q-58 -1 -89.5 -33t-31.5 -91q0 -45 45 -76l73 -47q68 -47 100.5 -85t32.5 -91zM310 774l80 113h143l-122 -113h-101z" />
    <glyph glyph-name="sacute" unicode="&#x15b;" horiz-adv-x="438" 
d="M212 604l90 121h134l-135 -121h-89zM386 162q0 -78 -59 -126.5t-154 -48.5q-84 0 -128.5 35t-44.5 101q0 18 5 45l1 5h105l-1 -5q-4 -15 -4 -34q0 -69 73 -69q45 0 73.5 21.5t28.5 59.5q0 23 -12 38t-42 31l-71 38q-44 24 -69 53.5t-25 76.5q0 79 57.5 123.5t150.5 44.5
q68 0 114 -32t46 -92q0 -14 -5 -39l-1 -6h-102l1 5q4 15 4 28q0 59 -69 59q-90 0 -90 -79q0 -37 42 -59l71 -38q55 -29 80 -58.5t25 -77.5z" />
    <glyph glyph-name="Scircumflex" unicode="&#x15c;" horiz-adv-x="513" 
d="M466 233q0 -114 -63 -180t-192 -66q-96 0 -153 42.5t-57 121.5q0 34 10 72l2 10h117l-2 -10q-7 -29 -7 -60q0 -93 94 -93q63 0 96.5 37t33.5 100q0 61 -70 106l-69 43q-51 34 -78.5 70.5t-27.5 85.5q0 107 62 166.5t183 59.5q89 0 140.5 -37t51.5 -114q0 -27 -6 -59
l-2 -10h-116l2 10q4 21 4 43q0 85 -83 85q-58 -1 -89.5 -33t-31.5 -91q0 -45 45 -76l73 -47q68 -47 100.5 -85t32.5 -91zM203 774l132 113h106l93 -113h-111l-44 61l-64 -61h-112z" />
    <glyph glyph-name="scircumflex" unicode="&#x15d;" horiz-adv-x="438" 
d="M123 604l137 121h98l87 -121h-102l-45 64l-71 -64h-104zM386 162q0 -78 -59 -126.5t-154 -48.5q-84 0 -128.5 35t-44.5 101q0 18 5 45l1 5h105l-1 -5q-4 -15 -4 -34q0 -69 73 -69q45 0 73.5 21.5t28.5 59.5q0 23 -12 38t-42 31l-71 38q-44 24 -69 53.5t-25 76.5
q0 79 57.5 123.5t150.5 44.5q68 0 114 -32t46 -92q0 -14 -5 -39l-1 -6h-102l1 5q4 15 4 28q0 59 -69 59q-90 0 -90 -79q0 -37 42 -59l71 -38q55 -29 80 -58.5t25 -77.5z" />
    <glyph glyph-name="Scedilla" unicode="&#x15e;" horiz-adv-x="513" 
d="M466 233q0 -114 -63 -180t-192 -66q-96 0 -153 42.5t-57 121.5q0 34 10 72l2 10h117l-2 -10q-7 -29 -7 -60q0 -93 94 -93q63 0 96.5 37t33.5 100q0 61 -70 106l-69 43q-51 34 -78.5 70.5t-27.5 85.5q0 107 62 166.5t183 59.5q89 0 140.5 -37t51.5 -114q0 -27 -6 -59
l-2 -10h-116l2 10q4 21 4 43q0 85 -83 85q-58 -1 -89.5 -33t-31.5 -91q0 -45 45 -76l73 -47q68 -47 100.5 -85t32.5 -91zM303 -105q0 -42 -40 -65.5t-95 -23.5q-42 0 -84 14l23 43q21 -13 57 -13q28 0 46 10.5t18 30.5q0 23 -37 23q-25 0 -42 -9l-22 17l66 79h50l-44 -51
q15 3 34 3q26 0 48 -18t22 -40z" />
    <glyph glyph-name="scedilla" unicode="&#x15f;" horiz-adv-x="438" 
d="M386 162q0 -78 -59 -126.5t-154 -48.5q-84 0 -128.5 35t-44.5 101q0 18 5 45l1 5h105l-1 -5q-4 -15 -4 -34q0 -69 73 -69q45 0 73.5 21.5t28.5 59.5q0 23 -12 38t-42 31l-71 38q-44 24 -69 53.5t-25 76.5q0 79 57.5 123.5t150.5 44.5q68 0 114 -32t46 -92q0 -14 -5 -39
l-1 -6h-102l1 5q4 15 4 28q0 59 -69 59q-90 0 -90 -79q0 -37 42 -59l71 -38q55 -29 80 -58.5t25 -77.5zM272 -103q0 -40 -41 -65.5t-95 -25.5q-42 0 -82 14l23 43q21 -13 57 -13q28 0 45.5 10.5t17.5 29.5q0 24 -37 24q-26 0 -43 -9l-20 17l66 79h49l-44 -51q16 3 36 3
q29 0 48.5 -15.5t19.5 -40.5z" />
    <glyph glyph-name="Scaron" unicode="&#x160;" horiz-adv-x="513" 
d="M428 774h-105l-93 113h111l43 -60l68 60h112zM466 233q0 -114 -63 -180t-192 -66q-96 0 -153 42.5t-57 121.5q0 34 10 72l2 10h117l-2 -10q-7 -29 -7 -60q0 -93 94 -93q63 0 96.5 37t33.5 100q0 61 -70 106l-69 43q-51 34 -78.5 70.5t-27.5 85.5q0 107 62 166.5t183 59.5
q89 0 140.5 -37t51.5 -114q0 -27 -6 -59l-2 -10h-116l2 10q4 21 4 43q0 85 -83 85q-58 -1 -89.5 -33t-31.5 -91q0 -45 45 -76l73 -47q68 -47 100.5 -85t32.5 -91z" />
    <glyph glyph-name="scaron" unicode="&#x161;" horiz-adv-x="438" 
d="M236 604l-95 121h103l50 -62l69 62h102l-133 -121h-96zM386 162q0 -78 -59 -126.5t-154 -48.5q-84 0 -128.5 35t-44.5 101q0 18 5 45l1 5h105l-1 -5q-4 -15 -4 -34q0 -69 73 -69q45 0 73.5 21.5t28.5 59.5q0 23 -12 38t-42 31l-71 38q-44 24 -69 53.5t-25 76.5
q0 79 57.5 123.5t150.5 44.5q68 0 114 -32t46 -92q0 -14 -5 -39l-1 -6h-102l1 5q4 15 4 28q0 59 -69 59q-90 0 -90 -79q0 -37 42 -59l71 -38q55 -29 80 -58.5t25 -77.5z" />
    <glyph glyph-name="uni0162" unicode="&#x162;" horiz-adv-x="465" 
d="M68 -223l51 85h-23l19 88h92l-19 -93l-55 -80h-65zM115 0l135 635h-165l19 90h449l-19 -90h-165l-135 -635h-119z" />
    <glyph glyph-name="uni0163" unicode="&#x163;" horiz-adv-x="306" 
d="M-5 -223l51 85h-23l19 88h92l-19 -93l-55 -80h-65zM224 0h-82q-57 0 -80.5 16.5t-23.5 57.5q0 22 8 62l70 328h-70l15 74h69l30 140h115l-30 -140h91l-15 -74h-90l-68 -316q-6 -26 -6 -41q0 -19 11.5 -26t38.5 -7h33z" />
    <glyph glyph-name="Tcaron" unicode="&#x164;" horiz-adv-x="465" 
d="M388 774h-105l-93 113h111l43 -60l68 60h112zM115 0l135 635h-165l19 90h449l-19 -90h-165l-135 -635h-119z" />
    <glyph glyph-name="tcaron" unicode="&#x165;" horiz-adv-x="377" 
d="M329 555l61 170h109l-94 -170h-76zM224 0h-82q-57 0 -80.5 16.5t-23.5 57.5q0 22 8 62l70 328h-70l15 74h69l30 140h115l-30 -140h91l-15 -74h-90l-68 -316q-6 -26 -6 -41q0 -19 11.5 -26t38.5 -7h33z" />
    <glyph glyph-name="Tbar" unicode="&#x166;" horiz-adv-x="465" 
d="M18 319l19 89h165l48 227h-165l19 90h449l-19 -90h-165l-48 -227h165l-20 -89h-164l-68 -319h-119l68 319h-165z" />
    <glyph glyph-name="tbar" unicode="&#x167;" horiz-adv-x="307" 
d="M8 286l16 77h70l22 101h-70l15 74h69l30 140h115l-30 -140h91l-15 -74h-90l-22 -101h90l-16 -77h-91l-29 -138q-6 -26 -6 -41q0 -19 11.5 -26t38.5 -7h33l-16 -74h-82q-57 0 -80.5 16.5t-23.5 57.5q0 22 8 62l32 150h-70z" />
    <glyph glyph-name="Utilde" unicode="&#x168;" horiz-adv-x="556" 
d="M308 776h-75q22 63 52 84.5t76 21.5q27 0 59 -21t47 -21q29 0 43 42h75q-22 -62 -52 -84t-75 -22q-28 0 -61 20t-45 20q-29 0 -44 -40zM601 725l-96 -451q-34 -168 -91 -227.5t-192 -59.5q-101 0 -143 31t-42 108q0 54 20 148l96 451h119l-98 -460q-16 -68 -16 -115
q0 -41 17.5 -59.5t61.5 -18.5q65 0 94 42.5t53 150.5l98 460h119z" />
    <glyph glyph-name="utilde" unicode="&#x169;" horiz-adv-x="477" 
d="M252 0l17 78q-53 -91 -147 -91q-53 0 -79.5 25.5t-26.5 82.5q0 37 12 90l75 353h113l-69 -327q-14 -63 -14 -91q0 -52 44 -52q86 0 128 180l61 290h114l-114 -538h-114zM229 611h-71q32 113 109 113q25 0 62 -20t48 -20q24 0 37 40h70q-17 -58 -44.5 -85.5t-57.5 -27.5
q-23 0 -64.5 19.5t-54.5 19.5q-14 0 -20.5 -8.5t-13.5 -30.5z" />
    <glyph glyph-name="Umacron" unicode="&#x16a;" horiz-adv-x="556" 
d="M269 793l17 80h243l-17 -80h-243zM601 725l-96 -451q-34 -168 -91 -227.5t-192 -59.5q-101 0 -143 31t-42 108q0 54 20 148l96 451h119l-98 -460q-16 -68 -16 -115q0 -41 17.5 -59.5t61.5 -18.5q65 0 94 42.5t53 150.5l98 460h119z" />
    <glyph glyph-name="umacron" unicode="&#x16b;" horiz-adv-x="477" 
d="M252 0l17 78q-53 -91 -147 -91q-53 0 -79.5 25.5t-26.5 82.5q0 37 12 90l75 353h113l-69 -327q-14 -63 -14 -91q0 -52 44 -52q86 0 128 180l61 290h114l-114 -538h-114zM191 628l16 77h239l-16 -77h-239z" />
    <glyph glyph-name="Ubreve" unicode="&#x16c;" horiz-adv-x="556" 
d="M472 887h85q-13 -56 -48.5 -84.5t-104.5 -28.5q-60 0 -98 24.5t-38 68.5q0 6 2 20h85q-1 -2 -1 -7v-5q0 -24 17 -35t39 -11q51 0 62 58zM601 725l-96 -451q-34 -168 -91 -227.5t-192 -59.5q-101 0 -143 31t-42 108q0 54 20 148l96 451h119l-98 -460q-16 -68 -16 -115
q0 -41 17.5 -59.5t61.5 -18.5q65 0 94 42.5t53 150.5l98 460h119z" />
    <glyph glyph-name="ubreve" unicode="&#x16d;" horiz-adv-x="477" 
d="M252 0l17 78q-53 -91 -147 -91q-53 0 -79.5 25.5t-26.5 82.5q0 37 12 90l75 353h113l-69 -327q-14 -63 -14 -91q0 -52 44 -52q86 0 128 180l61 290h114l-114 -538h-114zM388 725h80q-17 -61 -51.5 -91.5t-103.5 -30.5q-121 0 -121 94v13q0 5 2 15h79q-2 -14 -2 -19
q0 -42 47 -42q55 0 70 61z" />
    <glyph glyph-name="Uring" unicode="&#x16e;" horiz-adv-x="556" 
d="M601 725l-96 -451q-34 -168 -91 -227.5t-192 -59.5q-101 0 -143 31t-42 108q0 54 20 148l96 451h119l-98 -460q-16 -68 -16 -115q0 -41 17.5 -59.5t61.5 -18.5q65 0 94 42.5t53 150.5l98 460h119zM485 850q0 -35 -25.5 -59t-62.5 -24q-38 0 -64 24t-26 59q0 36 26.5 60.5
t63.5 24.5q36 0 62 -24.5t26 -60.5zM349 850q0 -20 13.5 -32.5t34.5 -12.5q19 0 32.5 12.5t13.5 32.5t-13.5 34t-32.5 14q-20 0 -34 -13.5t-14 -34.5z" />
    <glyph glyph-name="uring" unicode="&#x16f;" horiz-adv-x="477" 
d="M405 678q0 -38 -26.5 -62.5t-65.5 -24.5t-65.5 24.5t-26.5 62.5t26.5 63t65.5 25t65.5 -25t26.5 -63zM267 678q0 -20 13.5 -32.5t32.5 -12.5q20 0 33 12.5t13 32.5t-13 33t-33 13q-19 0 -32.5 -13t-13.5 -33zM252 0l17 78q-53 -91 -147 -91q-53 0 -79.5 25.5t-26.5 82.5
q0 37 12 90l75 353h113l-69 -327q-14 -63 -14 -91q0 -52 44 -52q86 0 128 180l61 290h114l-114 -538h-114z" />
    <glyph glyph-name="Uhungarumlaut" unicode="&#x170;" horiz-adv-x="556" 
d="M601 725l-96 -451q-34 -168 -91 -227.5t-192 -59.5q-101 0 -143 31t-42 108q0 54 20 148l96 451h119l-98 -460q-16 -68 -16 -115q0 -41 17.5 -59.5t61.5 -18.5q65 0 94 42.5t53 150.5l98 460h119zM403 774l81 113h135l-116 -113h-100zM219 774l80 113h136l-115 -113h-101
z" />
    <glyph glyph-name="uhungarumlaut" unicode="&#x171;" horiz-adv-x="477" 
d="M252 0l17 78q-53 -91 -147 -91q-53 0 -79.5 25.5t-26.5 82.5q0 37 12 90l75 353h113l-69 -327q-14 -63 -14 -91q0 -52 44 -52q86 0 128 180l61 290h114l-114 -538h-114zM317 604l89 121h129l-128 -121h-90zM145 604l89 121h129l-127 -121h-91z" />
    <glyph glyph-name="Uogonek" unicode="&#x172;" horiz-adv-x="556" 
d="M266 -118l-13 -63q-32 -7 -70 -7q-44 0 -75 20.5t-31 53.5q0 72 95 114h119q-108 -48 -108 -90q0 -33 42 -33q21 0 41 5zM601 725l-96 -451q-34 -168 -91 -227.5t-192 -59.5q-101 0 -143 31t-42 108q0 54 20 148l96 451h119l-98 -460q-16 -68 -16 -115q0 -41 17.5 -59.5
t61.5 -18.5q65 0 94 42.5t53 150.5l98 460h119z" />
    <glyph glyph-name="uogonek" unicode="&#x173;" horiz-adv-x="477" 
d="M252 0l17 78q-53 -91 -147 -91q-53 0 -79.5 25.5t-26.5 82.5q0 37 12 90l75 353h113l-69 -327q-14 -63 -14 -91q0 -52 44 -52q86 0 128 180l61 290h114l-114 -538h-1q-61 -28 -84.5 -45.5t-23.5 -43.5q0 -14 13 -24t32 -10q16 0 38 5l-14 -64q-31 -6 -66 -6
q-44 0 -74.5 19.5t-30.5 52.5q0 72 98 116h-1z" />
    <glyph glyph-name="Wcircumflex" unicode="&#x174;" horiz-adv-x="727" 
d="M301 774l132 113h106l93 -113h-111l-44 61l-64 -61h-112zM70 0l39 725h108l-38 -592l229 592h105l-20 -592l210 592h109l-265 -725h-137l21 588l-224 -588h-137z" />
    <glyph glyph-name="wcircumflex" unicode="&#x175;" horiz-adv-x="586" 
d="M201 604l137 121h98l87 -121h-102l-45 64l-71 -64h-104zM43 0l35 538h97l-33 -409l157 409h103l-15 -408l138 408h97l-191 -538h-122l19 432l-163 -432h-122z" />
    <glyph glyph-name="Ycircumflex" unicode="&#x176;" horiz-adv-x="504" 
d="M138 0l62 294l-98 431h109l64 -325l200 325h124l-281 -433l-62 -292h-118zM194 774l132 113h106l93 -113h-111l-44 61l-64 -61h-112z" />
    <glyph glyph-name="ycircumflex" unicode="&#x177;" horiz-adv-x="413" 
d="M-43 -175l16 74h31q36 0 52 13t34 56l16 33l-45 537h106l18 -422l168 422h113l-243 -542q-49 -109 -87 -140t-128 -31h-51zM115 604l137 121h98l87 -121h-102l-45 64l-71 -64h-104z" />
    <glyph glyph-name="Ydieresis" unicode="&#x178;" horiz-adv-x="504" 
d="M138 0l62 294l-98 431h109l64 -325l200 325h124l-281 -433l-62 -292h-118zM212 777l23 107h102l-23 -107h-102zM408 777l23 107h101l-22 -107h-102z" />
    <glyph glyph-name="Zacute" unicode="&#x179;" horiz-adv-x="494" 
d="M-33 0l18 87l424 544h-283l20 94h415l-18 -87l-425 -544h319l-20 -94h-450zM284 774l80 113h143l-122 -113h-101z" />
    <glyph glyph-name="zacute" unicode="&#x17a;" horiz-adv-x="398" 
d="M215 604l90 121h134l-135 -121h-89zM-36 0l16 73l304 390h-201l16 75h326l-15 -73l-305 -390h232l-16 -75h-357z" />
    <glyph glyph-name="Zdotaccent" unicode="&#x17b;" horiz-adv-x="494" 
d="M295 779l22 107h119l-22 -107h-119zM-33 0l18 87l424 544h-283l20 94h415l-18 -87l-425 -544h319l-20 -94h-450z" />
    <glyph glyph-name="zdotaccent" unicode="&#x17c;" horiz-adv-x="398" 
d="M-36 0l16 73l304 390h-201l16 75h326l-15 -73l-305 -390h232l-16 -75h-357zM229 611l25 114h101l-25 -114h-101z" />
    <glyph glyph-name="Zcaron" unicode="&#x17d;" horiz-adv-x="494" 
d="M406 774h-105l-93 113h111l43 -60l68 60h112zM-33 0l18 87l424 544h-283l20 94h415l-18 -87l-425 -544h319l-20 -94h-450z" />
    <glyph glyph-name="zcaron" unicode="&#x17e;" horiz-adv-x="398" 
d="M222 604l-95 121h103l50 -62l69 62h102l-133 -121h-96zM-36 0l16 73l304 390h-201l16 75h326l-15 -73l-305 -390h232l-16 -75h-357z" />
    <glyph glyph-name="uni018F" unicode="&#x18f;" horiz-adv-x="565" 
d="M242 -13q-108 0 -157.5 48.5t-49.5 155.5q0 70 19 153l8 36h365l1 4q21 97 21 161q0 55 -20 81.5t-67 26.5q-57 0 -90.5 -40t-58.5 -123l-126 1q36 131 100.5 189t177.5 58q107 0 156.5 -48t49.5 -154q0 -59 -19 -154l-16 -77q-37 -172 -102.5 -245t-191.5 -73zM244 72
q66 0 101 53.5t64 171.5h-240q-13 -76 -13 -118q0 -53 20.5 -80t67.5 -27z" />
    <glyph glyph-name="uni0218" unicode="&#x218;" horiz-adv-x="513" 
d="M119 -223l51 85h-23l19 88h92l-19 -93l-55 -80h-65zM466 233q0 -114 -63 -180t-192 -66q-96 0 -153 42.5t-57 121.5q0 34 10 72l2 10h117l-2 -10q-7 -29 -7 -60q0 -93 94 -93q63 0 96.5 37t33.5 100q0 61 -70 106l-69 43q-51 34 -78.5 70.5t-27.5 85.5q0 107 62 166.5
t183 59.5q89 0 140.5 -37t51.5 -114q0 -27 -6 -59l-2 -10h-116l2 10q4 21 4 43q0 85 -83 85q-58 -1 -89.5 -33t-31.5 -91q0 -45 45 -76l73 -47q68 -47 100.5 -85t32.5 -91z" />
    <glyph glyph-name="uni0219" unicode="&#x219;" horiz-adv-x="438" 
d="M60 -223l51 85h-23l19 88h92l-19 -93l-55 -80h-65zM386 162q0 -78 -59 -126.5t-154 -48.5q-84 0 -128.5 35t-44.5 101q0 18 5 45l1 5h105l-1 -5q-4 -15 -4 -34q0 -69 73 -69q45 0 73.5 21.5t28.5 59.5q0 23 -12 38t-42 31l-71 38q-44 24 -69 53.5t-25 76.5
q0 79 57.5 123.5t150.5 44.5q68 0 114 -32t46 -92q0 -14 -5 -39l-1 -6h-102l1 5q4 15 4 28q0 59 -69 59q-90 0 -90 -79q0 -37 42 -59l71 -38q55 -29 80 -58.5t25 -77.5z" />
    <glyph glyph-name="uni021A" unicode="&#x21a;" horiz-adv-x="465" 
d="M68 -223l51 85h-23l19 88h92l-19 -93l-55 -80h-65zM115 0l135 635h-165l19 90h449l-19 -90h-165l-135 -635h-119z" />
    <glyph glyph-name="uni021B" unicode="&#x21b;" horiz-adv-x="306" 
d="M-5 -223l51 85h-23l19 88h92l-19 -93l-55 -80h-65zM224 0h-82q-57 0 -80.5 16.5t-23.5 57.5q0 22 8 62l70 328h-70l15 74h69l30 140h115l-30 -140h91l-15 -74h-90l-68 -316q-6 -26 -6 -41q0 -19 11.5 -26t38.5 -7h33z" />
    <glyph glyph-name="uni0232" unicode="&#x232;" horiz-adv-x="504" 
d="M138 0l62 294l-98 431h109l64 -325l200 325h124l-281 -433l-62 -292h-118zM237 793l17 80h243l-17 -80h-243z" />
    <glyph glyph-name="uni0233" unicode="&#x233;" horiz-adv-x="413" 
d="M-43 -175l16 74h31q36 0 52 13t34 56l16 33l-45 537h106l18 -422l168 422h113l-243 -542q-49 -109 -87 -140t-128 -31h-51zM173 628l16 77h239l-16 -77h-239z" />
    <glyph glyph-name="uni0237" unicode="&#x237;" horiz-adv-x="217" 
d="M-117 -175l16 72h24q36 0 48 17t23 69l117 555h115l-118 -558q-22 -97 -52 -126t-115 -29h-58z" />
    <glyph glyph-name="uni0259" unicode="&#x259;" horiz-adv-x="468" 
d="M57 363l1 5q19 94 76.5 138.5t139.5 44.5q176 0 176 -167q0 -36 -9 -80l-17 -82q-26 -122 -81 -178.5t-157 -56.5q-171 0 -171 159q0 29 13 98l7 37h288l2 10q13 67 13 103q0 80 -67 80q-42 0 -67.5 -24.5t-36.5 -81.5l-1 -5h-109zM192 63q50 0 75.5 38t39.5 104l1 8
h-179l-2 -8q-8 -43 -8 -66q0 -39 17.5 -57.5t55.5 -18.5z" />
    <glyph glyph-name="circumflex" unicode="&#x2c6;" horiz-adv-x="372" 
d="M96 604l137 121h98l87 -121h-102l-45 64l-71 -64h-104z" />
    <glyph glyph-name="caron" unicode="&#x2c7;" horiz-adv-x="374" 
d="M217 604l-95 121h103l50 -62l69 62h102l-133 -121h-96z" />
    <glyph glyph-name="breve" unicode="&#x2d8;" horiz-adv-x="324" 
d="M316 725h80q-17 -61 -51.5 -91.5t-103.5 -30.5q-121 0 -121 94v13q0 5 2 15h79q-2 -14 -2 -19q0 -42 47 -42q55 0 70 61z" />
    <glyph glyph-name="dotaccent" unicode="&#x2d9;" horiz-adv-x="152" 
d="M98 611l25 114h101l-25 -114h-101z" />
    <glyph glyph-name="ring" unicode="&#x2da;" horiz-adv-x="238" 
d="M298 678q0 -38 -26.5 -62.5t-65.5 -24.5t-65.5 24.5t-26.5 62.5t26.5 63t65.5 25t65.5 -25t26.5 -63zM160 678q0 -20 13.5 -32.5t32.5 -12.5q20 0 33 12.5t13 32.5t-13 33t-33 13q-19 0 -32.5 -13t-13.5 -33z" />
    <glyph glyph-name="ogonek" unicode="&#x2db;" horiz-adv-x="238" 
d="M131 -118l-14 -64q-32 -6 -66 -6q-44 0 -74.5 19.5t-30.5 52.5q0 73 96 116h114q-61 -28 -84.5 -45.5t-23.5 -43.5q0 -14 13 -24t32 -10q16 0 38 5z" />
    <glyph glyph-name="tilde" unicode="&#x2dc;" horiz-adv-x="352" 
d="M169 611h-71q32 113 109 113q25 0 62 -20t48 -20q24 0 37 40h70q-17 -58 -44.5 -85.5t-57.5 -27.5q-23 0 -64.5 19.5t-54.5 19.5q-14 0 -20.5 -8.5t-13.5 -30.5z" />
    <glyph glyph-name="hungarumlaut" unicode="&#x2dd;" horiz-adv-x="414" 
d="M268 604l89 121h129l-128 -121h-90zM96 604l89 121h129l-127 -121h-91z" />
    <glyph glyph-name="uni032C" unicode="&#x32c;" horiz-adv-x="414" 
d="M89 -136l-122 142h93l76 -71l110 71h91l-183 -142h-65z" />
    <glyph glyph-name="uni0394" unicode="&#x394;" horiz-adv-x="600" 
d="M93 93h357l-178 429zM-50 0l322 745l322 -745h-644z" />
    <glyph glyph-name="uni0394" unicode="&#x2206;" horiz-adv-x="600" 
d="M93 93h357l-178 429zM-50 0l322 745l322 -745h-644z" />
    <glyph glyph-name="uni03A9" unicode="&#x3a9;" horiz-adv-x="774" 
d="M118 0v99h162v61q-73 27 -123.5 96t-50.5 175q0 145 83 226t222 81q138 0 221.5 -81t83.5 -226q0 -106 -50.5 -175t-124.5 -96v-61h163v-99h-255v218q73 18 116 73t43 138q0 106 -52.5 163.5t-144.5 57.5t-145 -57.5t-53 -163.5q0 -83 43 -138t116 -73v-218h-254z" />
    <glyph glyph-name="uni03A9" unicode="&#x2126;" horiz-adv-x="774" 
d="M118 0v99h162v61q-73 27 -123.5 96t-50.5 175q0 145 83 226t222 81q138 0 221.5 -81t83.5 -226q0 -106 -50.5 -175t-124.5 -96v-61h163v-99h-255v218q73 18 116 73t43 138q0 106 -52.5 163.5t-144.5 57.5t-145 -57.5t-53 -163.5q0 -83 43 -138t116 -73v-218h-254z" />
    <glyph glyph-name="pi" unicode="&#x3c0;" horiz-adv-x="538" 
d="M34 0l93 447h-69l20 93h476l-20 -93h-68l-61 -288q-6 -30 -6 -45q0 -17 9.5 -23t36.5 -6h21l-17 -85h-35q-63 0 -88.5 15t-25.5 58q0 31 10 72l63 302h-152l-93 -447h-94z" />
    <glyph glyph-name="Wgrave" unicode="&#x1e80;" horiz-adv-x="727" 
d="M413 774l-111 113h142l69 -113h-100zM70 0l39 725h108l-38 -592l229 592h105l-20 -592l210 592h109l-265 -725h-137l21 588l-224 -588h-137z" />
    <glyph glyph-name="wgrave" unicode="&#x1e81;" horiz-adv-x="586" 
d="M43 0l35 538h97l-33 -409l157 409h103l-15 -408l138 408h97l-191 -538h-122l19 432l-163 -432h-122zM325 604l-85 121h133l39 -121h-87z" />
    <glyph glyph-name="Wacute" unicode="&#x1e82;" horiz-adv-x="727" 
d="M70 0l39 725h108l-38 -592l229 592h105l-20 -592l210 592h109l-265 -725h-137l21 588l-224 -588h-137zM425 774l80 113h143l-122 -113h-101z" />
    <glyph glyph-name="wacute" unicode="&#x1e83;" horiz-adv-x="586" 
d="M324 604l90 121h134l-135 -121h-89zM43 0l35 538h97l-33 -409l157 409h103l-15 -408l138 408h97l-191 -538h-122l19 432l-163 -432h-122z" />
    <glyph glyph-name="Wdieresis" unicode="&#x1e84;" horiz-adv-x="727" 
d="M322 777l23 107h102l-23 -107h-102zM518 777l23 107h101l-22 -107h-102zM70 0l39 725h108l-38 -592l229 592h105l-20 -592l210 592h109l-265 -725h-137l21 588l-224 -588h-137z" />
    <glyph glyph-name="wdieresis" unicode="&#x1e85;" horiz-adv-x="586" 
d="M219 611l24 113h101l-25 -113h-100zM417 611l24 113h101l-23 -113h-102zM43 0l35 538h97l-33 -409l157 409h103l-15 -408l138 408h97l-191 -538h-122l19 432l-163 -432h-122z" />
    <glyph glyph-name="uni1ECA" unicode="&#x1eca;" horiz-adv-x="249" 
d="M8 0l154 725h119l-154 -725h-119zM-17 -175l23 109h101l-23 -109h-101z" />
    <glyph glyph-name="uni1ECB" unicode="&#x1ecb;" horiz-adv-x="217" 
d="M-3 0l114 538h114l-114 -538h-114zM126 608l25 117h114l-25 -117h-114zM-33 -175l23 109h101l-23 -109h-101z" />
    <glyph glyph-name="uni1ECC" unicode="&#x1ecc;" horiz-adv-x="566" 
d="M137 -175l23 109h101l-23 -109h-101zM156 179q0 -53 20.5 -80t67.5 -27q71 0 107.5 63.5t67.5 206.5l9 42q21 97 21 161q0 55 -20 81.5t-67 26.5q-71 0 -107.5 -63.5t-67.5 -205.5l-9 -42q-22 -95 -22 -163zM552 382l-16 -77q-37 -172 -102.5 -245t-191.5 -73
q-108 0 -157.5 48.5t-49.5 155.5q0 58 19 153l16 76q37 172 102.5 245t192.5 73q107 0 156.5 -48t49.5 -154q0 -59 -19 -154z" />
    <glyph glyph-name="uni1ECD" unicode="&#x1ecd;" horiz-adv-x="473" 
d="M94 -175l23 109h101l-23 -109h-101zM132 141q0 -78 66 -78q51 0 74.5 43t46.5 144l9 40q13 62 13 106q0 78 -66 78q-51 0 -75.5 -43.5t-44.5 -141.5l-8 -40q-15 -72 -15 -108zM447 305l-18 -83q-27 -123 -81.5 -179t-156.5 -56q-173 0 -173 167q0 36 9 80l17 81
q25 123 80.5 179.5t158.5 56.5q172 0 172 -166q0 -47 -8 -80z" />
    <glyph glyph-name="uni1EE4" unicode="&#x1ee4;" horiz-adv-x="556" 
d="M145 -175l23 109h101l-23 -109h-101zM601 725l-96 -451q-34 -168 -91 -227.5t-192 -59.5q-101 0 -143 31t-42 108q0 54 20 148l96 451h119l-98 -460q-16 -68 -16 -115q0 -41 17.5 -59.5t61.5 -18.5q65 0 94 42.5t53 150.5l98 460h119z" />
    <glyph glyph-name="uni1EE5" unicode="&#x1ee5;" horiz-adv-x="477" 
d="M100 -175l23 109h101l-23 -109h-101zM252 0l17 78q-53 -91 -147 -91q-53 0 -79.5 25.5t-26.5 82.5q0 37 12 90l75 353h113l-69 -327q-14 -63 -14 -91q0 -52 44 -52q86 0 128 180l61 290h114l-114 -538h-114z" />
    <glyph glyph-name="Ygrave" unicode="&#x1ef2;" horiz-adv-x="504" 
d="M138 0l62 294l-98 431h109l64 -325l200 325h124l-281 -433l-62 -292h-118zM311 774l-111 113h142l69 -113h-100z" />
    <glyph glyph-name="ygrave" unicode="&#x1ef3;" horiz-adv-x="413" 
d="M-43 -175l16 74h31q36 0 52 13t34 56l16 33l-45 537h106l18 -422l168 422h113l-243 -542q-49 -109 -87 -140t-128 -31h-51zM253 604l-85 121h133l39 -121h-87z" />
    <glyph glyph-name="endash" unicode="&#x2013;" horiz-adv-x="497" 
d="M17 216l20 94h439l-20 -94h-439z" />
    <glyph glyph-name="emdash" unicode="&#x2014;" horiz-adv-x="725" 
d="M17 216l20 94h669l-20 -94h-669z" />
    <glyph glyph-name="quoteleft" unicode="&#x2018;" horiz-adv-x="236" 
d="M279 725l-89 -148h58l-28 -132h-129l30 141l87 139h71z" />
    <glyph glyph-name="quoteright" unicode="&#x2019;" horiz-adv-x="236" 
d="M91 445l89 148h-58l28 132h129l-30 -141l-87 -139h-71z" />
    <glyph glyph-name="quotesinglbase" unicode="&#x201a;" horiz-adv-x="246" 
d="M-34 -148l89 148h-58l28 132h129l-30 -141l-87 -139h-71z" />
    <glyph glyph-name="quotedblleft" unicode="&#x201c;" horiz-adv-x="422" 
d="M466 725l-89 -148h58l-28 -132h-129l30 141l87 139h71zM279 725l-89 -148h58l-28 -132h-129l30 141l87 139h71z" />
    <glyph glyph-name="quotedblright" unicode="&#x201d;" horiz-adv-x="422" 
d="M278 445l89 148h-58l28 132h129l-30 -141l-87 -139h-71zM91 445l89 148h-58l28 132h129l-30 -141l-87 -139h-71z" />
    <glyph glyph-name="quotedblbase" unicode="&#x201e;" horiz-adv-x="422" 
d="M153 -148l89 148h-58l28 132h129l-30 -141l-87 -139h-71zM-34 -148l89 148h-58l28 132h129l-30 -141l-87 -139h-71z" />
    <glyph glyph-name="dagger" unicode="&#x2020;" horiz-adv-x="512" 
d="M143 0l86 406h-179l20 91h178l48 228h105l-48 -228h179l-20 -91h-178l-86 -406h-105z" />
    <glyph glyph-name="daggerdbl" unicode="&#x2021;" horiz-adv-x="513" 
d="M144 0l41 191h-180l19 91h179l31 148h-178l20 90h178l43 205h105l-43 -205h180l-20 -90h-179l-31 -148h178l-19 -91h-177l-41 -191h-106z" />
    <glyph glyph-name="bullet" unicode="&#x2022;" horiz-adv-x="460" 
d="M411 274q0 -78 -52.5 -130.5t-131.5 -52.5q-73 0 -124.5 53t-51.5 130q0 73 52 125t124 52q78 0 131 -51.5t53 -125.5z" />
    <glyph glyph-name="ellipsis" unicode="&#x2026;" horiz-adv-x="711" 
d="M234 0l29 138h129l-29 -138h-129zM471 0l29 138h129l-29 -138h-129zM-3 0l29 138h129l-29 -138h-129z" />
    <glyph glyph-name="perthousand" unicode="&#x2030;" horiz-adv-x="1088" 
d="M849 89q0 -48 39 -48q33 0 49 33t32 113l7 33q14 72 14 99q0 46 -36 46q-34 0 -50.5 -33t-32.5 -112l-7 -33q-15 -77 -15 -98zM1053 230l-12 -54q-21 -99 -55.5 -141.5t-103.5 -42.5q-56 0 -80.5 24t-24.5 76q0 32 11 84l11 54q20 99 55 142t106 43q54 0 78.5 -24.5
t24.5 -77.5q0 -39 -10 -83zM134 406q0 -48 39 -48q33 0 49 33t32 113l7 33q14 72 14 99q0 46 -36 46q-34 0 -50.5 -33t-32.5 -112l-7 -33q-15 -77 -15 -98zM338 547l-12 -54q-21 -99 -55.5 -141.5t-103.5 -42.5q-56 0 -80.5 24t-24.5 76q0 32 11 84l11 54q20 99 55 142
t106 43q54 0 78.5 -24.5t24.5 -77.5q0 -39 -10 -83zM195 0l380 725h54l-380 -725h-54zM543 89q0 -48 39 -48q33 0 49 33t32 113l7 33q14 72 14 99q0 46 -36 46q-34 0 -50.5 -33t-32.5 -112l-7 -33q-15 -77 -15 -98zM747 230l-12 -54q-21 -99 -55.5 -141.5t-103.5 -42.5
q-56 0 -80.5 24t-24.5 76q0 32 11 84l11 54q20 99 55 142t106 43q54 0 78.5 -24.5t24.5 -77.5q0 -39 -10 -83z" />
    <glyph glyph-name="guilsinglleft" unicode="&#x2039;" horiz-adv-x="201" 
d="M128 66l-109 151l29 134l169 139l-27 -130l-97 -82l63 -82z" />
    <glyph glyph-name="guilsinglright" unicode="&#x203a;" horiz-adv-x="201" 
d="M75 484l109 -151l-29 -134l-169 -139l27 130l97 82l-63 82z" />
    <glyph glyph-name="fraction" unicode="&#x2044;" horiz-adv-x="170" 
d="M-111 0l380 725h54l-380 -725h-54z" />
    <glyph glyph-name="uni2070" unicode="&#x2070;" horiz-adv-x="306" 
d="M160 527q0 -48 39 -48q33 0 49 33t32 113l7 33q14 72 14 99q0 46 -36 46q-34 0 -50.5 -33t-32.5 -112l-7 -33q-15 -77 -15 -98zM364 668l-12 -54q-21 -99 -55.5 -141.5t-103.5 -42.5q-56 0 -80.5 24t-24.5 76q0 32 11 84l11 54q20 99 55 142t106 43q54 0 78.5 -24.5
t24.5 -77.5q0 -39 -10 -83z" />
    <glyph glyph-name="uni2074" unicode="&#x2074;" horiz-adv-x="295" 
d="M199 438l21 101h-152l12 54l201 253h72l-53 -249h48l-13 -58h-48l-21 -101h-67zM140 597h92l33 154z" />
    <glyph glyph-name="uni2075" unicode="&#x2075;" horiz-adv-x="281" 
d="M327 588l-6 -30q-13 -65 -45.5 -96.5t-92.5 -31.5q-47 0 -77.5 21t-30.5 63q0 19 4 34l1 5h70l-1 -5q-3 -16 -3 -29q0 -39 36 -39q46 0 63 80l5 24q5 25 5 36q0 45 -34 45t-55 -43l-65 2l66 222h205l-13 -58h-147l-35 -116q10 18 31 30.5t47 12.5q78 0 78 -80
q0 -17 -6 -47z" />
    <glyph glyph-name="uni2076" unicode="&#x2076;" horiz-adv-x="293" 
d="M338 580l-4 -22q-24 -128 -138 -128q-107 0 -107 99q0 35 10 79l12 56q21 102 56.5 145.5t108.5 43.5q91 0 91 -78q0 -15 -3 -31l-1 -6h-69l1 5q3 15 3 26q0 34 -33 34q-31 0 -46 -27.5t-29 -95.5l-4 -18q26 46 78 46q80 0 80 -81q0 -9 -6 -47zM159 524q0 -44 35 -44
q48 0 65 80l3 16q4 17 4 36q0 44 -36 44q-46 0 -63 -80l-4 -17q-4 -17 -4 -35z" />
    <glyph glyph-name="uni2077" unicode="&#x2077;" horiz-adv-x="227" 
d="M152 438h-77q57 228 202 350h-164l13 58h224l-13 -58q-76 -67 -117.5 -149.5t-67.5 -200.5z" />
    <glyph glyph-name="uni2078" unicode="&#x2078;" horiz-adv-x="300" 
d="M339 563q-10 -69 -45 -101t-101 -32q-116 0 -116 85v13q0 5 2 15q11 87 88 114q-39 16 -39 64v9q0 6 1 9q17 114 134 114q109 0 109 -75q0 -6 -2 -22q-5 -41 -28 -66.5t-48 -32.5q46 -20 46 -74v-10q0 -7 -1 -10zM150 522q0 -42 44 -42q57 0 69 71l1 6q0 3 1 8.5t1.5 10
t0.5 8.5q0 43 -42 43q-55 0 -70 -70l-1 -5q-4 -15 -4 -30zM201 712q0 -35 34 -35q26 0 38.5 14.5t18.5 46.5l1 5q3 15 3 27q0 18 -7.5 26t-26.5 8q-26 0 -38.5 -14.5t-18.5 -45.5l-1 -5q-3 -17 -3 -27z" />
    <glyph glyph-name="uni2079" unicode="&#x2079;" horiz-adv-x="297" 
d="M354 677l-12 -56q-22 -102 -55.5 -146.5t-104.5 -44.5q-47 0 -71 21t-24 57q0 14 3 31l1 5h68l-1 -5q-2 -10 -2 -14v-12q0 -33 31 -33t47 28.5t30 95.5l4 19q-26 -46 -79 -46q-80 0 -80 81q0 18 5 46l5 22q27 127 145 127q53 0 76.5 -23t23.5 -73q0 -39 -10 -80zM187 672
q0 -43 37 -43q47 0 62 78l4 18q5 25 5 37q0 42 -35 42q-48 0 -65 -79l-3 -16q-5 -25 -5 -37z" />
    <glyph glyph-name="uni207A" unicode="&#x207a;" horiz-adv-x="344" 
d="M207 438v118h-114v64h114v118h66v-118h113v-64h-113v-118h-66z" />
    <glyph glyph-name="uni207B" unicode="&#x207b;" horiz-adv-x="334" 
d="M97 552v64h284v-64h-284z" />
    <glyph glyph-name="uni207C" unicode="&#x207c;" horiz-adv-x="345" 
d="M112 496v64h245v-64h-245zM112 612v65h245v-65h-245z" />
    <glyph glyph-name="uni207D" unicode="&#x207d;" horiz-adv-x="145" 
d="M164 338h-61q-30 70 -30 159q0 100 43 198.5t95 157.5h60q-55 -71 -93 -171t-38 -199q0 -83 24 -145z" />
    <glyph glyph-name="uni207E" unicode="&#x207e;" horiz-adv-x="147" 
d="M69 338h-61q56 69 94 170t38 200q0 80 -25 145h61q32 -70 32 -163q0 -107 -42 -198.5t-97 -153.5z" />
    <glyph glyph-name="uni207F" unicode="&#x207f;" horiz-adv-x="277" 
d="M65 438l64 303h73l-8 -40q28 49 84 49q60 0 60 -62q0 -16 -5 -43l-44 -207h-74l38 181q7 35 7 50q0 29 -24 29q-25 0 -39 -24t-23 -70l-35 -166h-74z" />
    <glyph glyph-name="uni2080" unicode="&#x2080;" horiz-adv-x="306" 
d="M41 -39q0 -48 39 -48q33 0 49 33t32 113l7 33q14 72 14 99q0 46 -36 46q-34 0 -50.5 -33t-32.5 -112l-7 -33q-15 -77 -15 -98zM245 102l-12 -54q-21 -99 -55.5 -141.5t-103.5 -42.5q-56 0 -80.5 24t-24.5 76q0 32 11 84l11 54q20 99 55 142t106 43q54 0 78.5 -24.5
t24.5 -77.5q0 -39 -10 -83z" />
    <glyph glyph-name="uni2081" unicode="&#x2081;" horiz-adv-x="182" 
d="M-10 -128l65 308h-70l11 48q47 0 61.5 8t30.5 44h58l-87 -408h-69z" />
    <glyph glyph-name="uni2082" unicode="&#x2082;" horiz-adv-x="280" 
d="M-60 -128l12 55l56 57q95 98 127.5 139.5t32.5 80.5q0 33 -34 33q-26 0 -38 -16.5t-21 -58.5l-1 -5h-72l1 5q15 66 44.5 95.5t89.5 29.5q47 0 76.5 -21.5t29.5 -57.5q0 -48 -35.5 -95.5t-122.5 -134.5l-47 -49h150l-12 -57h-236z" />
    <glyph glyph-name="uni2083" unicode="&#x2083;" horiz-adv-x="291" 
d="M208 5q-5 -69 -44.5 -105t-107.5 -36q-101 0 -101 84q0 17 4 33l1 5h70l-1 -5q-4 -16 -4 -31q0 -37 36 -37q53 0 69 73q4 15 4 28q0 22 -12 32.5t-43 10.5h-23l11 52h23q29 0 44.5 16t22.5 49q3 15 3 28q0 36 -35 36q-23 0 -34.5 -14t-19.5 -50l-1 -5h-70l1 5
q26 113 131 113q46 0 74.5 -18.5t28.5 -57.5v-9q-2 -47 -25.5 -75t-55.5 -38q55 -16 55 -73q0 -2 -0.5 -5.5t-0.5 -5.5z" />
    <glyph glyph-name="uni2084" unicode="&#x2084;" horiz-adv-x="295" 
d="M80 -128l21 101h-152l12 54l201 253h72l-53 -249h48l-13 -58h-48l-21 -101h-67zM21 31h92l33 154z" />
    <glyph glyph-name="uni2085" unicode="&#x2085;" horiz-adv-x="281" 
d="M208 22l-6 -30q-13 -65 -45.5 -96.5t-92.5 -31.5q-47 0 -77.5 21t-30.5 63q0 19 4 34l1 5h70l-1 -5q-3 -16 -3 -29q0 -39 36 -39q46 0 63 80l5 24q5 25 5 36q0 45 -34 45t-55 -43l-65 2l66 222h205l-13 -58h-147l-35 -116q10 18 31 30.5t47 12.5q78 0 78 -80
q0 -17 -6 -47z" />
    <glyph glyph-name="uni2086" unicode="&#x2086;" horiz-adv-x="293" 
d="M219 14l-4 -22q-24 -128 -138 -128q-107 0 -107 99q0 35 10 79l12 56q21 102 56.5 145.5t108.5 43.5q91 0 91 -78q0 -15 -3 -31l-1 -6h-69l1 5q3 15 3 26q0 34 -33 34q-31 0 -46 -27.5t-29 -95.5l-4 -18q26 46 78 46q80 0 80 -81q0 -9 -6 -47zM40 -42q0 -44 35 -44
q48 0 65 80l3 16q4 17 4 36q0 44 -36 44q-46 0 -63 -80l-4 -17q-4 -17 -4 -35z" />
    <glyph glyph-name="uni2087" unicode="&#x2087;" horiz-adv-x="227" 
d="M33 -128h-77q57 228 202 350h-164l13 58h224l-13 -58q-76 -67 -117.5 -149.5t-67.5 -200.5z" />
    <glyph glyph-name="uni2088" unicode="&#x2088;" horiz-adv-x="300" 
d="M220 -3q-10 -69 -45 -101t-101 -32q-116 0 -116 85v13q0 5 2 15q11 87 88 114q-39 16 -39 64v9q0 6 1 9q17 114 134 114q109 0 109 -75q0 -6 -2 -22q-5 -41 -28 -66.5t-48 -32.5q46 -20 46 -74v-10q0 -7 -1 -10zM31 -44q0 -42 44 -42q57 0 69 71l1 6q0 3 1 8.5t1.5 10
t0.5 8.5q0 43 -42 43q-55 0 -70 -70l-1 -5q-4 -15 -4 -30zM82 146q0 -35 34 -35q26 0 38.5 14.5t18.5 46.5l1 5q3 15 3 27q0 18 -7.5 26t-26.5 8q-26 0 -38.5 -14.5t-18.5 -45.5l-1 -5q-3 -17 -3 -27z" />
    <glyph glyph-name="uni2089" unicode="&#x2089;" horiz-adv-x="297" 
d="M235 111l-12 -56q-22 -102 -55.5 -146.5t-104.5 -44.5q-47 0 -71 21t-24 57q0 14 3 31l1 5h68l-1 -5q-2 -10 -2 -14v-12q0 -33 31 -33t47 28.5t30 95.5l4 19q-26 -46 -79 -46q-80 0 -80 81q0 18 5 46l5 22q27 127 145 127q53 0 76.5 -23t23.5 -73q0 -39 -10 -80zM68 106
q0 -43 37 -43q47 0 62 78l4 18q5 25 5 37q0 42 -35 42q-48 0 -65 -79l-3 -16q-5 -25 -5 -37z" />
    <glyph glyph-name="uni208D" unicode="&#x208d;" horiz-adv-x="145" 
d="M45 -228h-61q-30 70 -30 159q0 100 43 198.5t95 157.5h60q-55 -71 -93 -171t-38 -199q0 -83 24 -145z" />
    <glyph glyph-name="uni208E" unicode="&#x208e;" horiz-adv-x="147" 
d="M-50 -228h-61q56 69 94 170t38 200q0 80 -25 145h61q32 -70 32 -163q0 -107 -42 -198.5t-97 -153.5z" />
    <glyph glyph-name="Euro" unicode="&#x20ac;" horiz-adv-x="599" 
d="M23 383l46 65h66q37 151 105 220.5t190 69.5q184 0 184 -163q0 -35 -9 -78l-1 -5h-111l1 5q8 31 8 67q0 49 -22.5 70t-67.5 21q-62 0 -97 -50.5t-61 -156.5h206l-46 -65h-175l-9 -41l-3 -13h150l-47 -65h-115q-8 -41 -8 -92t19.5 -76t63.5 -25q58 0 95 36t54 121l1 5h110
l-1 -6q-51 -240 -272 -240q-100 0 -144.5 42t-44.5 134q0 44 9 101h-100l47 65h66l11 54h-98z" />
    <glyph glyph-name="uni2113" unicode="&#x2113;" horiz-adv-x="499" 
d="M381 108l27 -63q-78 -58 -154 -58q-128 0 -128 109q0 24 8 64l10 49l-86 -57l-27 62l133 89l49 233q21 104 64 153t119 49q58 0 93.5 -31.5t35.5 -88.5q0 -22 -4 -39q-10 -46 -30.5 -84t-55.5 -73t-70 -61.5t-92 -65.5l-9 -6l-27 -127q-5 -21 -5 -43q0 -26 12 -38t39 -12
q41 0 98 39zM320 554l-36 -171l8 6q112 76 136 190q4 15 4 34q0 50 -39 50q-28 0 -44.5 -26t-28.5 -83z" />
    <glyph glyph-name="uni2116" unicode="&#x2116;" horiz-adv-x="888" 
d="M707 473q0 -46 40 -46q30 0 44 26t28 88l5 26q9 49 9 67q0 47 -39 47q-31 0 -44.5 -25.5t-27.5 -88.5l-5 -27q-10 -39 -10 -67zM905 577l-12 -52q-16 -79 -50.5 -114.5t-99.5 -35.5q-112 0 -112 106q0 24 6 51l11 52q16 78 50.5 113.5t99.5 35.5q113 0 113 -107
q0 -22 -6 -49zM577 243l19 91h258l-19 -91h-258zM8 0l154 725h140l87 -571l121 571h106l-154 -725h-139l-87 571l-121 -571h-107z" />
    <glyph glyph-name="uni2117" unicode="&#x2117;" horiz-adv-x="831" 
d="M435 39q135 0 224.5 92.5t89.5 232.5q0 139 -90 231.5t-224 92.5q-133 0 -223 -93t-90 -231q0 -140 90 -232.5t223 -92.5zM435 -13q-154 0 -262.5 108.5t-108.5 268.5q0 158 108.5 266t262.5 108t263 -108t109 -266q0 -160 -108.5 -268.5t-263.5 -108.5zM411 164h-85v407
h111q81 0 117 -26t36 -93q0 -57 -34 -83.5t-83 -29.5q-22 -2 -39 -2h-23v-173zM411 509v-117h26q35 0 46.5 12t11.5 48q0 35 -11.5 46t-47.5 11h-25z" />
    <glyph glyph-name="trademark" unicode="&#x2122;" horiz-adv-x="761" 
d="M392 324v401h114l59 -308l59 308h113v-401h-73v321h-1l-4 -29l-62 -292h-65l-62 292l-4 29h-1v-321h-73zM191 324v341h-84v60h251v-60h-85v-341h-82z" />
    <glyph glyph-name="estimated" unicode="&#x212e;" horiz-adv-x="577" 
d="M139 302h294v163q-53 53 -145 53q-99 0 -149 -52v-164zM495 147h40q-26 -72 -86.5 -116t-154.5 -44q-127 0 -198.5 80.5t-71.5 201.5q0 122 73.5 202t191.5 80q120 0 189 -81.5t71 -199.5h-410v-195q24 -24 68.5 -39.5t94.5 -15.5q70 0 119.5 33.5t73.5 93.5z" />
    <glyph glyph-name="onethird" unicode="&#x2153;" horiz-adv-x="643" 
d="M83 317l66 308h-71l10 48q47 0 62.5 8.5t30.5 43.5h58l-87 -408h-69zM71 0l380 725h54l-380 -725h-54zM586 133q-5 -69 -44.5 -105t-107.5 -36q-101 0 -101 84q0 17 4 33l1 5h70l-1 -5q-4 -16 -4 -31q0 -37 36 -37q53 0 69 73q4 15 4 28q0 22 -12 32.5t-43 10.5h-23
l11 52h23q29 0 44.5 16t22.5 49q3 15 3 28q0 36 -35 36q-23 0 -34.5 -14t-19.5 -50l-1 -5h-70l1 5q26 113 131 113q46 0 74.5 -18.5t28.5 -57.5v-9q-2 -47 -25.5 -75t-55.5 -38q55 -16 55 -73q0 -2 -0.5 -5.5t-0.5 -5.5z" />
    <glyph glyph-name="twothirds" unicode="&#x2154;" horiz-adv-x="741" 
d="M33 317l12 55l56 57q95 98 127.5 139.5t32.5 80.5q0 33 -34 33q-26 0 -38 -16.5t-21 -58.5l-1 -5h-72l1 5q15 66 44.5 95.5t89.5 29.5q47 0 76.5 -21.5t29.5 -57.5q0 -48 -35.5 -95.5t-122.5 -134.5l-47 -49h150l-12 -57h-236zM169 0l380 725h54l-380 -725h-54zM684 133
q-5 -69 -44.5 -105t-107.5 -36q-101 0 -101 84q0 17 4 33l1 5h70l-1 -5q-4 -16 -4 -31q0 -37 36 -37q53 0 69 73q4 15 4 28q0 22 -12 32.5t-43 10.5h-23l11 52h23q29 0 44.5 16t22.5 49q3 15 3 28q0 36 -35 36q-23 0 -34.5 -14t-19.5 -50l-1 -5h-70l1 5q26 113 131 113
q46 0 74.5 -18.5t28.5 -57.5v-9q-2 -47 -25.5 -75t-55.5 -38q55 -16 55 -73q0 -2 -0.5 -5.5t-0.5 -5.5z" />
    <glyph glyph-name="uni2155" unicode="&#x2155;" horiz-adv-x="633" 
d="M83 317l66 308h-71l10 48q47 0 62.5 8.5t30.5 43.5h58l-87 -408h-69zM71 0l380 725h54l-380 -725h-54zM586 150l-6 -30q-13 -65 -45.5 -96.5t-92.5 -31.5q-47 0 -77.5 21t-30.5 63q0 19 4 34l1 5h70l-1 -5q-3 -16 -3 -29q0 -39 36 -39q46 0 63 80l5 24q5 25 5 36
q0 45 -34 45t-55 -43l-65 2l66 222h205l-13 -58h-147l-35 -116q10 18 31 30.5t47 12.5q78 0 78 -80q0 -17 -6 -47z" />
    <glyph glyph-name="uni2156" unicode="&#x2156;" horiz-adv-x="731" 
d="M33 317l12 55l56 57q95 98 127.5 139.5t32.5 80.5q0 33 -34 33q-26 0 -38 -16.5t-21 -58.5l-1 -5h-72l1 5q15 66 44.5 95.5t89.5 29.5q47 0 76.5 -21.5t29.5 -57.5q0 -48 -35.5 -95.5t-122.5 -134.5l-47 -49h150l-12 -57h-236zM169 0l380 725h54l-380 -725h-54zM684 150
l-6 -30q-13 -65 -45.5 -96.5t-92.5 -31.5q-47 0 -77.5 21t-30.5 63q0 19 4 34l1 5h70l-1 -5q-3 -16 -3 -29q0 -39 36 -39q46 0 63 80l5 24q5 25 5 36q0 45 -34 45t-55 -43l-65 2l66 222h205l-13 -58h-147l-35 -116q10 18 31 30.5t47 12.5q78 0 78 -80q0 -17 -6 -47z" />
    <glyph glyph-name="uni2157" unicode="&#x2157;" horiz-adv-x="742" 
d="M301 450q-5 -69 -44.5 -105t-107.5 -36q-101 0 -101 84q0 17 4 33l1 5h70l-1 -5q-4 -16 -4 -31q0 -37 36 -37q53 0 69 73q4 15 4 28q0 22 -12 32.5t-43 10.5h-23l11 52h23q29 0 44.5 16t22.5 49q3 15 3 28q0 36 -35 36q-23 0 -34.5 -14t-19.5 -50l-1 -5h-70l1 5
q26 113 131 113q46 0 74.5 -18.5t28.5 -57.5v-9q-2 -47 -25.5 -75t-55.5 -38q55 -16 55 -73q0 -2 -0.5 -5.5t-0.5 -5.5zM180 0l380 725h54l-380 -725h-54zM695 150l-6 -30q-13 -65 -45.5 -96.5t-92.5 -31.5q-47 0 -77.5 21t-30.5 63q0 19 4 34l1 5h70l-1 -5q-3 -16 -3 -29
q0 -39 36 -39q46 0 63 80l5 24q5 25 5 36q0 45 -34 45t-55 -43l-65 2l66 222h205l-13 -58h-147l-35 -116q10 18 31 30.5t47 12.5q78 0 78 -80q0 -17 -6 -47z" />
    <glyph glyph-name="uni2158" unicode="&#x2158;" horiz-adv-x="746" 
d="M173 317l21 101h-152l12 54l201 253h72l-53 -249h48l-13 -58h-48l-21 -101h-67zM114 476h92l33 154zM184 0l380 725h54l-380 -725h-54zM699 150l-6 -30q-13 -65 -45.5 -96.5t-92.5 -31.5q-47 0 -77.5 21t-30.5 63q0 19 4 34l1 5h70l-1 -5q-3 -16 -3 -29q0 -39 36 -39
q46 0 63 80l5 24q5 25 5 36q0 45 -34 45t-55 -43l-65 2l66 222h205l-13 -58h-147l-35 -116q10 18 31 30.5t47 12.5q78 0 78 -80q0 -17 -6 -47z" />
    <glyph glyph-name="uni2159" unicode="&#x2159;" horiz-adv-x="645" 
d="M83 317l66 308h-71l10 48q47 0 62.5 8.5t30.5 43.5h58l-87 -408h-69zM71 0l380 725h54l-380 -725h-54zM597 142l-4 -22q-24 -128 -138 -128q-107 0 -107 99q0 35 10 79l12 56q21 102 56.5 145.5t108.5 43.5q91 0 91 -78q0 -15 -3 -31l-1 -6h-69l1 5q3 15 3 26
q0 34 -33 34q-31 0 -46 -27.5t-29 -95.5l-4 -18q26 46 78 46q80 0 80 -81q0 -9 -6 -47zM418 86q0 -44 35 -44q48 0 65 80l3 16q4 17 4 36q0 44 -36 44q-46 0 -63 -80l-4 -17q-4 -17 -4 -35z" />
    <glyph glyph-name="uni215A" unicode="&#x215a;" horiz-adv-x="744" 
d="M301 467l-6 -30q-13 -65 -45.5 -96.5t-92.5 -31.5q-47 0 -77.5 21t-30.5 63q0 19 4 34l1 5h70l-1 -5q-3 -17 -3 -29q0 -39 36 -39q46 0 63 80l5 24q5 25 5 36q0 45 -34 45t-55 -43l-65 2l66 222h204l-12 -58h-147l-35 -116q10 18 31 30.5t47 12.5q78 0 78 -80
q0 -17 -6 -47zM170 0l380 725h54l-380 -725h-54zM696 142l-4 -22q-24 -128 -138 -128q-107 0 -107 99q0 35 10 79l12 56q21 102 56.5 145.5t108.5 43.5q91 0 91 -78q0 -15 -3 -31l-1 -6h-69l1 5q3 15 3 26q0 34 -33 34q-31 0 -46 -27.5t-29 -95.5l-4 -18q26 46 78 46
q80 0 80 -81q0 -9 -6 -47zM517 86q0 -44 35 -44q48 0 65 80l3 16q4 17 4 36q0 44 -36 44q-46 0 -63 -80l-4 -17q-4 -17 -4 -35z" />
    <glyph glyph-name="oneeighth" unicode="&#x215b;" horiz-adv-x="652" 
d="M83 317l66 308h-71l10 48q47 0 62.5 8.5t30.5 43.5h58l-87 -408h-69zM71 0l380 725h54l-380 -725h-54zM598 125q-10 -69 -45 -101t-101 -32q-116 0 -116 85v13q0 5 2 15q11 87 88 114q-39 16 -39 64v9q0 6 1 9q17 114 134 114q109 0 109 -75q0 -6 -2 -22
q-5 -41 -28 -66.5t-48 -32.5q46 -20 46 -74v-10q0 -7 -1 -10zM409 84q0 -42 44 -42q57 0 69 71l1 6q0 3 1 8.5t1.5 10t0.5 8.5q0 43 -42 43q-55 0 -70 -70l-1 -5q-4 -15 -4 -30zM460 274q0 -35 34 -35q26 0 38.5 14.5t18.5 46.5l1 5q3 15 3 27q0 18 -7.5 26t-26.5 8
q-26 0 -38.5 -14.5t-18.5 -45.5l-1 -5q-3 -17 -3 -27z" />
    <glyph glyph-name="threeeighths" unicode="&#x215c;" horiz-adv-x="761" 
d="M301 450q-5 -69 -44.5 -105t-107.5 -36q-101 0 -101 84q0 17 4 33l1 5h70l-1 -5q-4 -16 -4 -31q0 -37 36 -37q53 0 69 73q4 15 4 28q0 22 -12 32.5t-43 10.5h-23l11 52h23q29 0 44.5 16t22.5 49q3 15 3 28q0 36 -35 36q-23 0 -34.5 -14t-19.5 -50l-1 -5h-70l1 5
q26 113 131 113q46 0 74.5 -18.5t28.5 -57.5v-9q-2 -47 -25.5 -75t-55.5 -38q55 -16 55 -73q0 -2 -0.5 -5.5t-0.5 -5.5zM180 0l380 725h54l-380 -725h-54zM707 125q-10 -69 -45 -101t-101 -32q-116 0 -116 85v13q0 5 2 15q11 87 88 114q-39 16 -39 64v9q0 6 1 9
q17 114 134 114q109 0 109 -75q0 -6 -2 -22q-5 -41 -28 -66.5t-48 -32.5q46 -20 46 -74v-10q0 -7 -1 -10zM518 84q0 -42 44 -42q57 0 69 71l1 6q0 3 1 8.5t1.5 10t0.5 8.5q0 43 -42 43q-55 0 -70 -70l-1 -5q-4 -15 -4 -30zM569 274q0 -35 34 -35q26 0 38.5 14.5t18.5 46.5
l1 5q3 15 3 27q0 18 -7.5 26t-26.5 8q-26 0 -38.5 -14.5t-18.5 -45.5l-1 -5q-3 -17 -3 -27z" />
    <glyph glyph-name="fiveeighths" unicode="&#x215d;" horiz-adv-x="751" 
d="M301 467l-6 -30q-13 -65 -45.5 -96.5t-92.5 -31.5q-47 0 -77.5 21t-30.5 63q0 19 4 34l1 5h70l-1 -5q-3 -17 -3 -29q0 -39 36 -39q46 0 63 80l5 24q5 25 5 36q0 45 -34 45t-55 -43l-65 2l66 222h204l-12 -58h-147l-35 -116q10 18 31 30.5t47 12.5q78 0 78 -80
q0 -17 -6 -47zM170 0l380 725h54l-380 -725h-54zM697 125q-10 -69 -45 -101t-101 -32q-116 0 -116 85v13q0 5 2 15q11 87 88 114q-39 16 -39 64v9q0 6 1 9q17 114 134 114q109 0 109 -75q0 -6 -2 -22q-5 -41 -28 -66.5t-48 -32.5q46 -20 46 -74v-10q0 -7 -1 -10zM508 84
q0 -42 44 -42q57 0 69 71l1 6q0 3 1 8.5t1.5 10t0.5 8.5q0 43 -42 43q-55 0 -70 -70l-1 -5q-4 -15 -4 -30zM559 274q0 -35 34 -35q26 0 38.5 14.5t18.5 46.5l1 5q3 15 3 27q0 18 -7.5 26t-26.5 8q-26 0 -38.5 -14.5t-18.5 -45.5l-1 -5q-3 -17 -3 -27z" />
    <glyph glyph-name="seveneighths" unicode="&#x215e;" horiz-adv-x="697" 
d="M126 317h-77q57 228 202 350h-164l13 58h224l-13 -58q-76 -67 -117.5 -149.5t-67.5 -200.5zM116 0l380 725h54l-380 -725h-54zM643 125q-10 -69 -45 -101t-101 -32q-116 0 -116 85v13q0 5 2 15q11 87 88 114q-39 16 -39 64v9q0 6 1 9q17 114 134 114q109 0 109 -75
q0 -6 -2 -22q-5 -41 -28 -66.5t-48 -32.5q46 -20 46 -74v-10q0 -7 -1 -10zM454 84q0 -42 44 -42q57 0 69 71l1 6q0 3 1 8.5t1.5 10t0.5 8.5q0 43 -42 43q-55 0 -70 -70l-1 -5q-4 -15 -4 -30zM505 274q0 -35 34 -35q26 0 38.5 14.5t18.5 46.5l1 5q3 15 3 27q0 18 -7.5 26
t-26.5 8q-26 0 -38.5 -14.5t-18.5 -45.5l-1 -5q-3 -17 -3 -27z" />
    <glyph glyph-name="uni215F" unicode="&#x215f;" horiz-adv-x="352" 
d="M83 317l66 308h-71l10 48q47 0 62.5 8.5t30.5 43.5h58l-87 -408h-69zM71 0l380 725h54l-380 -725h-54z" />
    <glyph glyph-name="arrowleft" unicode="&#x2190;" horiz-adv-x="800" 
d="M765 218h-556l193 -193l-67 -67l-311 311l311 311l69 -67l-195 -193h556v-102z" />
    <glyph glyph-name="arrowup" unicode="&#x2191;" horiz-adv-x="800" 
d="M349 0v556l-193 -193l-67 67l311 311l311 -311l-67 -69l-193 195v-556h-102z" />
    <glyph glyph-name="arrowright" unicode="&#x2192;" horiz-adv-x="800" 
d="M35 320h556l-193 193l67 67l311 -311l-311 -311l-69 67l195 193h-556v102z" />
    <glyph glyph-name="arrowdown" unicode="&#x2193;" horiz-adv-x="800" 
d="M451 725v-556l193 193l67 -67l-311 -311l-311 311l67 69l193 -195v556h102z" />
    <glyph glyph-name="uni2196" unicode="&#x2196;" horiz-adv-x="800" 
d="M613 -22l-393 393v-273h-95v440h440v-95h-273l393 -393z" />
    <glyph glyph-name="uni2197" unicode="&#x2197;" horiz-adv-x="800" 
d="M79 50l393 393h-273v95h440v-440h-95v273l-393 -393z" />
    <glyph glyph-name="uni2198" unicode="&#x2198;" horiz-adv-x="800" 
d="M187 560l393 -393v273h95v-440h-440v95h273l-393 393z" />
    <glyph glyph-name="uni2199" unicode="&#x2199;" horiz-adv-x="800" 
d="M722 488l-393 -393h273v-95h-440v440h95v-273l393 393z" />
    <glyph glyph-name="uni219E" unicode="&#x219e;" horiz-adv-x="800" 
d="M765 218h-275l193 -193l-67 -67l-260 260h-147l193 -193l-67 -67l-311 311l311 311l69 -67l-195 -193h147l260 260l69 -67l-195 -193h275v-102z" />
    <glyph glyph-name="uni219F" unicode="&#x219f;" horiz-adv-x="801" 
d="M349 0v274l-192 -192l-67 67l259 259v148l-193 -193l-67 67l311 311l311 -311l-67 -69l-193 195v-146l261 -261l-67 -69l-193 195h-1v-275h-102z" />
    <glyph glyph-name="uni21A0" unicode="&#x21a0;" horiz-adv-x="800" 
d="M35 320h275l-193 193l67 67l260 -260h147l-193 193l67 67l311 -311l-311 -311l-69 67l195 193h-147l-260 -260l-69 67l195 193h-275v102z" />
    <glyph glyph-name="uni21A1" unicode="&#x21a1;" horiz-adv-x="800" 
d="M451 725v-274l192 192l67 -67l-259 -259v-148l193 193l67 -67l-311 -311l-311 311l67 69l193 -195v146l-261 261l67 69l193 -195h1v275h102z" />
    <glyph glyph-name="uni21A2" unicode="&#x21a2;" horiz-adv-x="800" 
d="M754 25l-67 -67l-260 260h-218l193 -193l-67 -67l-311 311l311 311l69 -67l-195 -193h218l260 260l69 -67l-246 -243z" />
    <glyph glyph-name="uni21A3" unicode="&#x21a3;" horiz-adv-x="800" 
d="M46 25l244 245l-246 243l69 67l260 -260h218l-195 193l69 67l311 -311l-311 -311l-67 67l193 193h-218l-260 -260z" />
    <glyph glyph-name="uni21A4" unicode="&#x21a4;" horiz-adv-x="800" 
d="M715 0h-102v218h-404l193 -193l-67 -67l-311 311l311 311l69 -67l-195 -193h404v218h102v-538z" />
    <glyph glyph-name="uni21A5" unicode="&#x21a5;" horiz-adv-x="800" 
d="M131 0v102h218v454l-193 -193l-67 67l311 311l311 -311l-67 -69l-193 195v-454h218v-102h-538z" />
    <glyph glyph-name="uni21A6" unicode="&#x21a6;" horiz-adv-x="800" 
d="M85 538h102v-218h404l-193 193l67 67l311 -311l-311 -311l-69 67l195 193h-404v-218h-102v538z" />
    <glyph glyph-name="uni21A7" unicode="&#x21a7;" horiz-adv-x="800" 
d="M668 725v-102h-217v-454l193 193l67 -67l-311 -311l-311 311l67 69l193 -195v454h-217v102h536z" />
    <glyph glyph-name="uni21B0" unicode="&#x21b0;" horiz-adv-x="800" 
d="M723 -175h-102v393h-414l193 -193l-67 -67l-311 311l311 311l69 -67l-195 -193h516v-495z" />
    <glyph glyph-name="uni21B1" unicode="&#x21b1;" horiz-adv-x="800" 
d="M776 269l-311 -311l-67 67l193 193h-414v-393h-102v495h516l-195 193l69 67z" />
    <glyph glyph-name="uni21B2" unicode="&#x21b2;" horiz-adv-x="800" 
d="M623 320v405h102v-507h-516l195 -193l-69 -67l-311 311l311 311l67 -67l-193 -193h414z" />
    <glyph glyph-name="uni21B3" unicode="&#x21b3;" horiz-adv-x="800" 
d="M78 725h102v-405h414l-193 193l67 67l311 -311l-311 -311l-69 67l195 193h-516v507z" />
    <glyph glyph-name="partialdiff" unicode="&#x2202;" horiz-adv-x="503" 
d="M462 327v-38q0 -147 -47 -224.5t-163 -77.5q-103 0 -154.5 63t-51.5 176v43q0 230 193 230q74 0 117 -51l2 3q-11 94 -61 145t-168 53v89h7q174 0 250 -101t76 -310zM152 256v-25q0 -82 22.5 -122.5t77.5 -40.5q54 0 77 40t23 122v27q0 82 -23 121.5t-77 39.5
q-55 0 -77.5 -40t-22.5 -122z" />
    <glyph glyph-name="product" unicode="&#x220f;" horiz-adv-x="612" 
d="M100 -175v900h415v-900h-107v807h-201v-807h-107z" />
    <glyph glyph-name="summation" unicode="&#x2211;" horiz-adv-x="480" 
d="M58 -175v89l219 361l-217 359v91h420v-93h-305l213 -357l-216 -358h308v-92h-422z" />
    <glyph glyph-name="minus" unicode="&#x2212;" 
d="M21 225v88h502v-88h-502z" />
    <glyph glyph-name="radical" unicode="&#x221a;" horiz-adv-x="486" 
d="M227 -175l-145 307l-82 -39l-40 91l164 79l144 -309l174 771h100l-204 -900h-111z" />
    <glyph glyph-name="infinity" unicode="&#x221e;" horiz-adv-x="783" 
d="M749 254q0 -73 -48.5 -119.5t-127.5 -46.5q-96 0 -184 100q-87 -99 -186 -99q-77 0 -126 46t-49 119q0 72 49.5 118.5t128.5 46.5q97 0 182 -96q43 49 86 72.5t97 23.5q78 0 128 -46.5t50 -118.5zM122 254q0 -34 24 -56t60 -22t64.5 20t61.5 59q-64 77 -124 77
q-38 0 -62 -21.5t-24 -56.5zM445 255q67 -79 127 -79q36 0 59.5 21.5t23.5 56.5q0 33 -24.5 55.5t-62.5 22.5q-59 0 -123 -77z" />
    <glyph glyph-name="integral" unicode="&#x222b;" horiz-adv-x="343" 
d="M190 327v-231q0 -274 -154 -274q-38 0 -63.5 19t-25.5 52q0 22 14 36.5t37 14.5q17 0 30.5 -12t13.5 -36q0 -9 -5 -26q28 4 38 35t10 95q0 23 -3 89t-3 109v259q0 275 155 275q38 0 62.5 -19t24.5 -53q0 -24 -13 -37.5t-37 -13.5q-18 0 -31 11.5t-13 35.5q0 15 5 27
q-28 -3 -39 -34.5t-11 -94.5q0 -27 4 -93t4 -134z" />
    <glyph glyph-name="approxequal" unicode="&#x2248;" 
d="M124 80h-91q8 165 146 165q32 0 60 -11t44.5 -24.5t38.5 -24.5t43 -11q57 0 61 71h91q-4 -81 -38 -123t-106 -42q-42 0 -97.5 34.5t-90.5 34.5q-56 0 -61 -69zM124 298h-91q6 82 40 124t106 42q40 0 73 -18t60 -35.5t53 -17.5q57 0 61 71h91q-8 -166 -144 -166
q-42 0 -97.5 35t-90.5 35q-56 0 -61 -70z" />
    <glyph glyph-name="notequal" unicode="&#x2260;" 
d="M62 333v90h235l53 115h104l-53 -115h85v-90h-126l-60 -130h186v-89h-227l-52 -114h-105l52 114h-92v89h133l60 130h-193z" />
    <glyph glyph-name="lessequal" unicode="&#x2264;" 
d="M489 546v-93l-327 -118l327 -118v-95l-463 164v97zM26 0v89h463v-89h-463z" />
    <glyph glyph-name="greaterequal" unicode="&#x2265;" 
d="M43 453v93l463 -163v-97l-463 -164v95l327 118zM506 89v-89h-463v89h463z" />
    <glyph glyph-name="filledbox" unicode="&#x25a0;" horiz-adv-x="624" 
d="M43 0v538h538v-538h-538z" />
    <glyph glyph-name="H22073" unicode="&#x25a1;" horiz-adv-x="624" 
d="M43 0v538h538v-538h-538zM144 437v-336h336v336h-336z" />
    <glyph glyph-name="lozenge" unicode="&#x25ca;" 
d="M293 93l157 252l-157 253l-157 -253zM293 -84l-273 429l273 429l267 -429z" />
    <glyph glyph-name="circle" unicode="&#x25cb;" horiz-adv-x="602" 
d="M301 452q-80 0 -130.5 -53.5t-50.5 -130.5t51 -130t130 -53q78 0 129.5 53.5t51.5 129.5q0 77 -51.5 130.5t-129.5 53.5zM301 550q121 0 202 -82t81 -200q0 -117 -81 -199t-202 -82t-202 82t-81 199q0 118 81 200t202 82z" />
    <glyph glyph-name="H18533" unicode="&#x25cf;" horiz-adv-x="602" 
d="M301 -13q-121 0 -202 82t-81 199q0 118 81 200t202 82t202 -82t81 -200q0 -117 -81 -199t-202 -82z" />
    <glyph glyph-name="fi" unicode="&#xfb01;" horiz-adv-x="511" 
d="M286 0l114 538h114l-114 -538h-114zM13 0l99 464h-69l15 74h69l12 55q16 79 54.5 105.5t123.5 26.5h58l-15 -72h-35q-36 0 -50.5 -12.5t-22.5 -51.5l-11 -51h94l-15 -74h-94l-99 -464h-114zM415 608l25 117h114l-25 -117h-114z" />
    <glyph glyph-name="fl" unicode="&#xfb02;" horiz-adv-x="511" 
d="M13 0l99 464h-69l15 74h69l12 55q16 79 54.5 105.5t123.5 26.5h58l-15 -72h-35q-36 0 -50.5 -12.5t-22.5 -51.5l-11 -51h94l-15 -74h-94l-99 -464h-114zM286 0l154 725h114l-154 -725h-114z" />
    <glyph glyph-name="_001" horiz-adv-x="0" 
 />
    <glyph glyph-name="_002" horiz-adv-x="180" 
 />
    <glyph glyph-name="bullet.001" horiz-adv-x="460" 
d="M411 274q0 -78 -52.5 -130.5t-131.5 -52.5q-73 0 -124.5 53t-51.5 130q0 73 52 125t124 52q78 0 131 -51.5t53 -125.5z" />
    <glyph glyph-name="_383" horiz-adv-x="222" 
d="M126 608l25 117h114l-25 -117h-114z" />
    <glyph glyph-name="_384" horiz-adv-x="151" 
d="M-68 -175l23 109h101l-23 -109h-101z" />
    <glyph glyph-name="_386" horiz-adv-x="153" 
d="M-79 -223l51 85h-23l19 88h92l-19 -93l-55 -80h-65z" />
    <glyph glyph-name="_390" horiz-adv-x="194" 
d="M96 555l61 170h109l-94 -170h-76z" />
    <glyph glyph-name="zero.zero" 
d="M524 410l-20 -96q-19 -90 -40 -148.5t-53.5 -100.5t-77 -60t-108.5 -18q-98 0 -141.5 43.5t-43.5 139.5q0 62 18 144l20 96q38 178 97.5 253t182.5 75q98 0 141.5 -43t43.5 -139q0 -57 -19 -146zM153 156q0 -47 17 -69t58 -22q68 0 100 61t64 209l9 41l-235 -105
q-13 -73 -13 -115zM191 391l-8 -36l235 105q13 70 13 108q0 46 -18 69t-60 23q-36 0 -61.5 -16.5t-44 -55.5t-30 -81t-26.5 -116z" />
    <glyph glyph-name="one.onum" horiz-adv-x="305" 
d="M64 0l106 497h-109l16 72q81 2 103.5 14t45.5 69h90l-139 -652h-113z" />
    <glyph glyph-name="two.onum" horiz-adv-x="465" 
d="M-15 0l18 85l91 91q145 150 201 223t56 131q0 56 -56 56q-39 0 -62.5 -29.5t-37.5 -95.5l-1 -7h-107l1 7q22 103 77.5 153t153.5 50q73 0 111.5 -30t38.5 -87q0 -42 -15.5 -82t-56 -92.5t-75.5 -90.5t-109 -115l-77 -77h245l-19 -90h-377z" />
    <glyph glyph-name="three.onum" horiz-adv-x="479" 
d="M413 228q0 -113 -67.5 -177t-184.5 -64q-151 0 -151 129q0 20 7 57l1 5h106l-1 -5q-5 -28 -5 -46q0 -63 60 -63q62 0 91 49.5t29 109.5q0 36 -20 54.5t-69 18.5h-39l18 81h35q57 0 87.5 46.5t30.5 104.5q0 59 -59 59q-38 0 -57.5 -23t-31.5 -80l-1 -5h-106v5
q38 180 218 180q156 0 156 -117q0 -80 -39.5 -133.5t-93.5 -68.5q86 -25 86 -117z" />
    <glyph glyph-name="four.onum" horiz-adv-x="485" 
d="M201 0l35 163h-236l17 82l323 407h111l-85 -400h77l-19 -89h-75l-35 -163h-113zM103 252h150l55 255z" />
    <glyph glyph-name="five.onum" horiz-adv-x="472" 
d="M414 238l-10 -44q-46 -207 -237 -207q-72 0 -113 32t-41 99q0 25 6 55l1 5h105l-1 -5q-5 -27 -5 -43q0 -66 64 -66q40 0 64.5 33t39.5 97l9 40q6 28 6 58q0 71 -59 71q-58 0 -88 -70l-103 5l105 354h327l-19 -89h-238l-56 -188q19 29 53.5 49t75.5 20q122 0 122 -127
q0 -44 -8 -79z" />
    <glyph glyph-name="six.onum" horiz-adv-x="496" 
d="M434 226l-7 -32q-21 -106 -76 -156.5t-151 -50.5q-84 0 -124 37.5t-40 115.5q0 60 15 127l20 93q34 161 91.5 232.5t170.5 71.5q73 0 110 -33t37 -90q0 -24 -6 -51l-1 -6h-107l1 5q5 27 5 42q0 56 -53 56q-51 0 -78 -47t-49 -155l-6 -28q15 29 50.5 51.5t79.5 22.5
q127 0 127 -130q0 -33 -9 -75zM143 138q0 -74 60 -74q81 0 106 129l6 30q7 37 7 56q0 72 -60 72q-75 0 -106 -132l-6 -25q-7 -29 -7 -56z" />
    <glyph glyph-name="seven.onum" horiz-adv-x="428" 
d="M153 0h-119q77 329 341 562h-280l19 90h376l-19 -90q-132 -121 -205 -250.5t-113 -311.5z" />
    <glyph glyph-name="eight.onum" horiz-adv-x="501" 
d="M439 231q0 -126 -60 -185t-182 -59q-182 0 -182 135q0 94 41 149.5t106 75.5q-25 10 -44.5 37t-19.5 70q0 101 61.5 155.5t159.5 54.5q73 0 121 -31.5t48 -88.5q0 -80 -38.5 -132.5t-87.5 -64.5q77 -27 77 -116zM133 134q0 -70 70 -70q48 0 74.5 29t38.5 84l2 11
q5 27 5 45q0 70 -70 70q-94 0 -114 -115l-2 -11q-4 -21 -4 -43zM210 436q0 -57 59 -57q41 0 62 23.5t31 74.5l2 10q6 34 6 44q0 56 -58 56q-43 0 -64 -23.5t-31 -74.5l-2 -10q-5 -27 -5 -43z" />
    <glyph glyph-name="nine.onum" horiz-adv-x="495" 
d="M457 382l-19 -90q-36 -166 -89 -235.5t-166 -69.5q-74 0 -113.5 32.5t-39.5 90.5q0 25 6 52l1 5h106l-1 -5q-4 -20 -4 -40q0 -58 53 -58q51 0 76.5 46.5t49.5 155.5l6 29q-18 -31 -51.5 -53t-78.5 -22q-126 0 -126 128q0 34 9 76l7 35q40 205 230 205q83 0 122 -37
t39 -117q0 -52 -17 -128zM187 375q0 -75 60 -75q81 0 107 130l6 26q7 37 7 57q0 74 -60 74q-82 0 -108 -129l-6 -29q-6 -30 -6 -54z" />
    <glyph glyph-name="zero.onum" horiz-adv-x="510" 
d="M146 142q0 -40 14 -59t47 -19q57 0 83.5 53.5t51.5 180.5l11 54q24 109 24 161q0 38 -13.5 56t-46.5 18q-56 0 -84.5 -55.5t-52.5 -179.5l-11 -54q-23 -115 -23 -156zM473 369l-19 -88q-34 -159 -88 -226.5t-165 -67.5q-168 0 -168 155q0 55 18 139l19 88
q34 158 88.5 226.5t165.5 68.5q167 0 167 -155q0 -50 -18 -140z" />
    <glyph glyph-name="zero.onum_zero" horiz-adv-x="510" 
d="M473 369l-19 -88q-34 -159 -88 -226.5t-165 -67.5q-168 0 -168 155q0 55 18 139l19 88q34 158 88.5 226.5t165.5 68.5q167 0 167 -155q0 -50 -18 -140zM146 142q0 -40 14 -59t47 -19q57 0 83.5 53.5t51.5 180.5l7 35l-191 -90q-12 -69 -12 -101zM180 352l-5 -23l191 88
q11 61 11 96q0 38 -13.5 56t-46.5 18q-56 0 -84.5 -55.5t-52.5 -179.5z" />
    <glyph glyph-name="one.tnum" 
d="M1 0l19 89h161l100 469h-152l15 72q37 1 54.5 2t40.5 4t34 8.5t24.5 16.5t22.5 26t18 38h91l-135 -636h157l-19 -89h-431z" />
    <glyph glyph-name="two.tnum" 
d="M10 0l18 84l102 103q48 48 73 73.5t74.5 80.5t76.5 92.5t49.5 83t22.5 77.5q0 67 -71 67q-47 0 -75.5 -35t-46.5 -109l-1 -7h-108l2 6q24 115 80.5 168.5t159.5 53.5q79 0 129 -36.5t50 -100.5q0 -45 -17.5 -89.5t-69.5 -108t-79 -93t-112 -115.5q-15 -15 -22 -23
l-84 -83h282l-19 -89h-414z" />
    <glyph glyph-name="three.tnum" 
d="M479 258q0 -126 -67 -198.5t-194 -72.5q-82 0 -133 37.5t-51 109.5q0 28 7 55l1 5h106l-1 -5q-6 -27 -6 -48q0 -77 78 -77q41 0 70 17.5t43.5 46.5t21 59t6.5 63q0 42 -24.5 64t-82.5 22h-41l17 80h38q72 0 107.5 48.5t35.5 123.5q0 74 -71 74q-48 0 -72 -27.5t-39 -93.5
l-1 -5h-108l1 5q26 105 79 151t146 46q80 0 132.5 -34.5t52.5 -101.5q0 -82 -39.5 -140.5t-110.5 -76.5q46 -12 72.5 -45t26.5 -82z" />
    <glyph glyph-name="four.tnum" 
d="M254 0l39 183h-271l18 83l368 459h114l-96 -452h84l-19 -90h-84l-39 -183h-114zM126 273h186l65 307z" />
    <glyph glyph-name="five.tnum" 
d="M484 264l-10 -50q-24 -115 -83 -171t-165 -56q-82 0 -134 38t-52 111q0 25 6 53l1 5h107l-1 -5q-6 -34 -6 -47q0 -78 79 -78q98 0 131 152l9 42q8 40 8 63q0 88 -75 88q-67 0 -111 -84l-102 4l118 396h360l-19 -88h-271l-67 -223q51 76 140 76q146 0 146 -148
q0 -34 -9 -78z" />
    <glyph glyph-name="six.tnum" 
d="M487 252l-9 -38q-24 -117 -83 -172t-163 -55q-94 0 -140 42.5t-46 136.5q0 53 15 122l22 101q38 186 101 267.5t190 81.5q82 0 124.5 -37t42.5 -100q0 -22 -7 -55l-1 -5h-108l1 5q5 18 5 46q0 69 -68 69q-62 0 -96.5 -57t-62.5 -184l-6 -29q21 35 61 62t91 27
q145 0 145 -148q0 -47 -8 -80zM152 155q0 -91 77 -91q103 0 134 151l6 30q6 28 6 62q0 91 -77 91q-50 0 -84.5 -39.5t-48.5 -112.5l-6 -30q-7 -29 -7 -61z" />
    <glyph glyph-name="seven.tnum" 
d="M203 0h-119q50 201 145.5 354.5t240.5 281.5h-333l19 89h430l-19 -89q-149 -135 -232.5 -281t-131.5 -355z" />
    <glyph glyph-name="eight.tnum" 
d="M493 262q0 -123 -62.5 -199t-193.5 -76q-97 0 -154.5 38.5t-57.5 116.5q0 95 45.5 159t120.5 87q-30 9 -51.5 39t-21.5 78q0 104 63.5 169t175.5 65q85 0 138.5 -36.5t53.5 -108.5q0 -48 -13.5 -86t-36 -61t-45.5 -37t-49 -22q88 -29 88 -126zM141 152q0 -88 89 -88
q111 0 141 132l3 15q6 25 6 47q0 86 -91 86q-111 0 -141 -132l-2 -15q-5 -27 -5 -45zM230 489q0 -70 74 -70q51 0 77.5 28t41.5 87l3 13q6 26 6 46q0 69 -76 69q-50 0 -78 -28.5t-40 -86.5l-3 -14q-5 -27 -5 -44z" />
    <glyph glyph-name="nine.tnum" 
d="M526 439l-21 -102q-15 -75 -30.5 -126.5t-37.5 -96.5t-50 -71.5t-68 -41t-92 -14.5q-85 0 -132 38.5t-47 102.5q0 14 8 52l1 5h107l-1 -5q-5 -32 -5 -46q0 -70 67 -70q62 0 96.5 57t62.5 185l7 29q-53 -88 -145 -88q-73 0 -112.5 39t-39.5 115q0 44 8 75l8 35
q46 228 254 228q91 0 134.5 -41t43.5 -132q0 -59 -16 -127zM212 419q0 -91 77 -91q100 0 133 155l6 28q8 40 8 62q0 89 -76 89q-98 0 -133 -151l-7 -30q-8 -40 -8 -62z" />
    <glyph glyph-name="zero.tnum" 
d="M155 156q0 -46 17.5 -68.5t58.5 -22.5q67 0 100 62t64 208l12 54q26 130 26 179q0 47 -18 69.5t-59 22.5q-36 0 -61.5 -16.5t-44 -55.5t-30 -81t-26.5 -116l-12 -55q-27 -127 -27 -180zM527 410l-20 -96q-20 -92 -40.5 -148.5t-51.5 -99.5t-75 -61t-108 -18
q-98 0 -144 44t-46 139q0 62 18 144l20 96q38 177 98 252.5t183 75.5q98 0 141 -43t43 -139q0 -62 -18 -146z" />
    <glyph glyph-name="zero.tnum_zero" 
d="M527 410l-20 -96q-20 -92 -40.5 -148.5t-51.5 -99.5t-75 -61t-108 -18q-98 0 -144 44t-46 139q0 62 18 144l20 96q38 177 98 252.5t183 75.5q98 0 141 -43t43 -139q0 -62 -18 -146zM194 391l-10 -44l235 107q14 79 14 114q0 47 -18 69.5t-59 22.5q-36 0 -61.5 -16.5
t-44 -55.5t-30 -81t-26.5 -116zM155 156q0 -46 17.5 -68.5t58.5 -22.5q67 0 100 62t64 208l8 37l-236 -109q-12 -63 -12 -107z" />
    <glyph glyph-name="one.case" horiz-adv-x="320" 
d="M77 0l119 558h-125l15 75q93 2 118.5 15t53.5 77h93l-154 -725h-120z" />
    <glyph glyph-name="two.case" horiz-adv-x="489" 
d="M-21 0l19 87l101 102q108 110 157 163.5t88.5 115.5t44.5 112q1 3 1 9v8q0 64 -68 64q-88 0 -118 -144l-2 -7h-108l1 7q24 113 80.5 167.5t160.5 54.5q79 0 126 -35t47 -98v-8q0 -6 -1 -9q-1 -20 -6 -40t-11 -37t-19.5 -39.5t-22 -37t-29.5 -40t-32 -38.5t-38.5 -42.5
t-39.5 -42t-46 -47t-47 -48.5l-83 -86h277l-20 -91h-412z" />
    <glyph glyph-name="three.case" horiz-adv-x="505" 
d="M449 238q-8 -117 -75 -184t-183 -67q-82 0 -132.5 37.5t-50.5 112.5q0 25 6 54l1 4h109l-1 -4q-6 -27 -6 -49q0 -75 74 -75q121 0 139 170q1 3 1 10v10q0 78 -106 78h-41l18 83h38q64 0 98 46t41 114q1 3 1 9v9q0 65 -70 65q-47 0 -71 -28t-37 -93l-1 -4h-109l1 4
q21 105 77.5 152.5t149.5 47.5q79 0 130 -36.5t51 -110.5q0 -2 -0.5 -7t-0.5 -9q-3 -79 -45.5 -126.5t-103.5 -65.5q99 -26 99 -128v-10q0 -6 -1 -9z" />
    <glyph glyph-name="four.case" horiz-adv-x="515" 
d="M229 0l39 183h-267l17 86l364 457h116l-95 -450h87l-20 -93h-86l-39 -183h-116zM106 276h179l68 302z" />
    <glyph glyph-name="five.case" horiz-adv-x="498" 
d="M451 264l-10 -49q-48 -228 -262 -228q-80 0 -124.5 36.5t-44.5 110.5q0 26 6 57l1 4h110l-1 -4q-6 -27 -6 -49q0 -75 75 -75q96 0 127 151l8 40q7 32 7 63q0 86 -72 86q-66 0 -106 -82l-104 4l118 397h357l-19 -91h-267l-65 -221q20 33 59 55.5t86 22.5q137 0 137 -143
q0 -41 -10 -85z" />
    <glyph glyph-name="six.case" horiz-adv-x="523" 
d="M472 253l-8 -37q-48 -229 -252 -229q-93 0 -135 41.5t-42 134.5q0 55 15 129l21 100q38 184 100.5 265.5t188.5 81.5q84 0 124.5 -37t40.5 -102q0 -24 -6 -51l-1 -6h-110l1 5q5 28 5 44q0 69 -66 69q-60 0 -93.5 -57t-59.5 -182l-6 -30q21 36 58.5 62t84.5 26
q72 0 110.5 -38t38.5 -112q0 -35 -9 -77zM144 156q0 -89 73 -89q98 0 129 150l6 29q7 32 7 62q0 88 -73 88q-99 0 -129 -151l-6 -27q-7 -32 -7 -62z" />
    <glyph glyph-name="seven.case" horiz-adv-x="440" 
d="M144 0h-123q94 378 385 635h-318l19 91h415l-18 -91q-147 -133 -229 -280t-131 -355z" />
    <glyph glyph-name="eight.case" horiz-adv-x="531" 
d="M478 236q-8 -118 -76 -183.5t-186 -65.5q-92 0 -147.5 41t-55.5 116v9q0 6 1 9q8 89 53 147.5t111 79.5q-28 9 -50 40.5t-22 75.5v9q0 6 1 9q6 103 72 159.5t165 56.5q84 0 137 -36t53 -106q0 -3 -0.5 -7t-0.5 -7q-3 -46 -17.5 -82.5t-37 -58t-43 -34t-43.5 -19.5
q87 -35 87 -131v-11q0 -7 -1 -11zM132 154q0 -87 86 -87q108 0 136 132l2 13q6 27 6 48q0 83 -87 83q-108 0 -135 -131l-3 -13q-5 -27 -5 -45zM220 488q0 -67 71 -67q49 0 76 28.5t39 85.5l2 10q6 26 6 47q0 69 -72 69q-49 0 -75 -29t-39 -87l-2 -10q-6 -25 -6 -47z" />
    <glyph glyph-name="nine.case" horiz-adv-x="522" 
d="M502 438l-22 -102q-38 -184 -101 -266.5t-188 -82.5q-82 0 -122 37t-40 103q0 25 6 53l1 5h109l-1 -5q-5 -32 -5 -45q0 -68 65 -68q60 0 93 57t59 182l7 30q-53 -88 -144 -88q-71 0 -109 39t-38 114q0 29 8 75l8 37q23 116 85 171t167 55q92 0 134.5 -40.5t42.5 -132.5
q0 -54 -15 -128zM193 419q0 -87 73 -87q98 0 130 152l5 26q7 29 7 61q0 90 -73 90q-97 0 -128 -150l-6 -28q-8 -40 -8 -64z" />
    <glyph glyph-name="zero.case" horiz-adv-x="539" 
d="M149 158q0 -47 16.5 -69t56.5 -22q29 0 51 13t36.5 32t28.5 58t22.5 72.5t21.5 94.5l11 53q26 127 26 177q0 47 -17 70t-58 23q-65 0 -97 -63t-61 -207l-11 -53q-26 -130 -26 -179zM516 409l-20 -92q-36 -178 -95.5 -254t-182.5 -76q-96 0 -140 45t-44 141q0 61 18 144
l20 92q38 178 98 254.5t181 76.5q97 0 140 -44t43 -140q0 -55 -18 -147z" />
    <glyph glyph-name="zero.case_zero" horiz-adv-x="539" 
d="M516 409l-20 -92q-36 -178 -95.5 -254t-182.5 -76q-96 0 -140 45t-44 141q0 61 18 144l20 92q38 178 98 254.5t181 76.5q97 0 140 -44t43 -140q0 -55 -18 -147zM149 158q0 -47 16.5 -69t56.5 -22q29 0 51 13t36.5 32t28.5 58t22.5 72.5t21.5 94.5l7 37l-227 -102
q-13 -73 -13 -114zM186 390l-7 -33l227 101q13 70 13 109q0 47 -17 70t-58 23q-65 0 -97 -63t-61 -207z" />
    <glyph glyph-name="a.sups" horiz-adv-x="262" 
d="M207 438l7 38q-34 -46 -86 -46q-31 0 -48 17t-17 46q0 12 3 24l1 7q6 35 34 56.5t85 37.5l53 18l5 22l2 10q1 3 1 8q0 27 -31 27q-23 0 -34.5 -10.5t-16.5 -37.5l-1 -6h-65l1 6q16 95 116 95q49 0 75.5 -15t26.5 -55q0 -12 -5 -34q0 -2 -11.5 -55t-11.5 -54
q-14 -76 -15 -99h-68zM139 503q0 -26 27 -26q41 0 56 71l10 46l-36 -13q-26 -12 -37.5 -22.5t-16.5 -29.5l-1 -9q-2 -14 -2 -17z" />
    <glyph glyph-name="b.sups" horiz-adv-x="281" 
d="M336 612l-9 -42q-15 -74 -42 -107t-77 -33q-26 0 -42.5 13.5t-19.5 35.5l-8 -41h-75l87 408h73l-31 -145q27 48 81 48q69 0 69 -83q0 -24 -6 -54zM159 530q0 -47 34 -47q26 0 38.5 22.5t22.5 76.5l3 16q10 54 10 65q0 34 -28 34t-44.5 -26t-28.5 -82q-7 -32 -7 -59z" />
    <glyph glyph-name="c.sups" horiz-adv-x="257" 
d="M301 548l-2 -6q-23 -112 -126 -112q-97 0 -97 92q0 26 5 47l9 45q29 136 142 136q40 0 65.5 -19.5t25.5 -60.5q0 -14 -3 -31l-1 -5h-70l1 5q4 15 4 30q0 31 -30 31q-18 0 -29.5 -13.5t-16 -29t-14.5 -54.5l-6 -26q-9 -49 -9 -63q0 -35 30 -35q19 0 31 14t20 49l1 6h70z
" />
    <glyph glyph-name="d.sups" horiz-adv-x="282" 
d="M218 438l9 41q-27 -49 -80 -49q-72 0 -72 82q0 30 6 58l9 41q15 71 43 104.5t75 33.5q26 0 43 -13.5t21 -34.5l31 145h74l-87 -408h-72zM152 519q0 -36 27 -36q28 0 44.5 26t28.5 80q8 40 8 61q0 47 -36 47q-25 0 -37.5 -23.5t-23.5 -76.5l-3 -15q-8 -43 -8 -63z" />
    <glyph glyph-name="e.sups" horiz-adv-x="266" 
d="M304 542l-1 -5q-21 -107 -127 -107q-49 0 -74.5 24.5t-25.5 70.5q0 15 5 43l10 47q29 135 141 135q50 0 72.5 -21.5t22.5 -67.5q0 -18 -7 -58l-4 -20h-157l-1 -6q-9 -45 -9 -61q0 -37 31 -37q40 0 52 58l1 5h71zM169 630l-2 -6h90l1 6q5 25 5 37q0 34 -35 34
q-25 0 -37.5 -16.5t-21.5 -54.5z" />
    <glyph glyph-name="f.sups" horiz-adv-x="164" 
d="M73 438l54 256h-36l11 48h36l6 28q10 47 33 61.5t73 14.5h33l-10 -47h-18q-20 0 -26 -4.5t-11 -24.5l-6 -28h49l-11 -48h-49l-54 -256h-74z" />
    <glyph glyph-name="g.sups" horiz-adv-x="288" 
d="M358 742l-59 -278q-15 -70 -47 -101.5t-95 -31.5q-44 0 -69.5 18.5t-25.5 53.5v10q0 4 2 12l1 5h66l-1 -5q-2 -10 -2 -13q0 -30 35 -30q26 0 39 14t22 55l9 44q-34 -48 -79 -48q-76 0 -76 84q0 26 5 47l8 38q14 67 46.5 100t79.5 33q46 0 58 -48l9 41h74zM155 540
q0 -40 30 -40t44.5 22.5t25.5 72.5q8 40 8 59q0 42 -37 42q-25 0 -38.5 -21.5t-23.5 -69.5l-2 -9q-7 -40 -7 -56z" />
    <glyph glyph-name="h.sups" horiz-adv-x="274" 
d="M63 438l87 408h74l-31 -145q28 49 84 49q59 0 59 -64q0 -9 -6 -41l-44 -207h-73l38 181q8 38 8 49q0 29 -25 29q-42 0 -61 -93l-35 -166h-75z" />
    <glyph glyph-name="i.sups" horiz-adv-x="131" 
d="M65 438l64 302h74l-64 -302h-74zM136 777l15 69h74l-15 -69h-74z" />
    <glyph glyph-name="j.sups" horiz-adv-x="136" 
d="M1 338l11 48h14q18 0 24 8.5t12 36.5l65 309h74l-65 -306q-12 -57 -36.5 -76.5t-76.5 -19.5h-22zM134 777l15 69h74l-15 -69h-74z" />
    <glyph glyph-name="k.sups" horiz-adv-x="256" 
d="M65 438l87 408h69l-47 -219l106 114h68l-88 -98l35 -205h-62l-23 157l-56 -67l-19 -90h-70z" />
    <glyph glyph-name="l.sups" horiz-adv-x="130" 
d="M65 438l87 408h73l-87 -408h-73z" />
    <glyph glyph-name="m.sups" horiz-adv-x="414" 
d="M65 438l64 303h73l-9 -43q31 52 79 52q56 0 59 -57q33 57 85 57q59 0 59 -67q0 -13 -5 -45l-43 -200h-73l38 180q6 28 6 49q0 28 -20 28q-24 0 -35.5 -18.5t-21.5 -59.5l-38 -179h-74l41 193q5 25 5 37q0 27 -22 27q-24 0 -36.5 -22.5t-22.5 -70.5l-35 -164h-74z" />
    <glyph glyph-name="o.sups" horiz-adv-x="269" 
d="M150 515q0 -36 30 -36q26 0 38 22.5t23 76.5l5 25q9 43 9 61q0 36 -29 36q-26 0 -39 -23.5t-23 -73.5l-5 -25q-9 -45 -9 -63zM324 613l-9 -44q-15 -72 -46.5 -105.5t-89.5 -33.5q-103 0 -103 93q0 18 5 46l9 44q15 69 47 103t90 34q49 0 76 -24.5t27 -69.5q0 -11 -6 -43z
" />
    <glyph glyph-name="p.sups" horiz-adv-x="282" 
d="M44 338l85 402h73l-8 -39q12 22 33.5 35.5t47.5 13.5q68 0 68 -82q0 -29 -7 -58l-8 -40q-16 -73 -42.5 -106.5t-77.5 -33.5q-26 0 -42.5 13.5t-19.5 35.5l-29 -141h-73zM160 531q0 -48 34 -48q25 0 37 22t24 77l3 14q9 49 9 66q0 35 -28 35t-44 -26t-28 -81
q-7 -32 -7 -59z" />
    <glyph glyph-name="q.sups" horiz-adv-x="283" 
d="M196 338l30 141q-26 -49 -82 -49q-69 0 -69 81q0 30 7 59l9 40q29 140 119 140q26 0 42.5 -13.5t20.5 -35.5l8 39h74l-85 -402h-74zM151 520q0 -37 29 -37q28 0 44 26t28 81q8 40 8 60q0 47 -36 47q-24 0 -36 -22.5t-25 -78.5l-3 -14q-9 -49 -9 -62z" />
    <glyph glyph-name="r.sups" horiz-adv-x="178" 
d="M65 438l64 303h72l-13 -62q26 62 78 62h11l-15 -71h-21q-33 0 -46.5 -15t-22.5 -58l-34 -159h-73z" />
    <glyph glyph-name="s.sups" horiz-adv-x="249" 
d="M292 545q0 -52 -31 -83.5t-89 -31.5q-102 0 -102 96v6q0 5 1 9h69l-1 -5q-2 -14 -2 -18q0 -37 36 -37q49 0 49 46q0 20 -29 35l-41 18q-52 20 -52 61q0 50 29.5 79.5t87.5 29.5q42 0 69 -20t27 -54q0 -9 -3 -21l-1 -5h-66l1 5l2 14q0 32 -34 32q-21 -1 -32 -13.5
t-11 -28.5q0 -17 21 -27l37 -17q34 -15 49.5 -29t15.5 -41z" />
    <glyph glyph-name="t.sups" horiz-adv-x="166" 
d="M197 438h-53q-32 0 -46 10t-14 33q0 11 5 36l37 177h-36l11 48h35l17 81h74l-17 -81h50l-10 -48h-50l-36 -169q-3 -13 -3 -21q0 -11 5.5 -15t19.5 -4h21z" />
    <glyph glyph-name="u.sups" horiz-adv-x="268" 
d="M208 438l8 42q-31 -50 -76 -50q-63 0 -63 62q0 16 7 49l42 200h74l-38 -180q-8 -38 -8 -49q0 -28 22 -28q23 0 36.5 24t23.5 69l34 164h73l-64 -303h-71z" />
    <glyph glyph-name="v.sups" horiz-adv-x="235" 
d="M111 438l-9 303h74l-6 -227l95 227h69l-139 -303h-84z" />
    <glyph glyph-name="w.sups" horiz-adv-x="322" 
d="M87 438l22 303h60l-22 -225l84 225h61l-9 -225l71 225h60l-103 -303h-74l11 236l-87 -236h-74z" />
    <glyph glyph-name="x.sups" horiz-adv-x="236" 
d="M204 438l-32 94l-72 -94h-66l118 154l-49 149h70l28 -86l66 86h67l-113 -146l53 -157h-70z" />
    <glyph glyph-name="y.sups" horiz-adv-x="235" 
d="M39 338l10 49h20q19 0 29 7.5t18 28.5l6 15l-21 304h74v-229l88 229h67l-135 -305q-26 -60 -50.5 -79.5t-73.5 -19.5h-32z" />
    <glyph glyph-name="z.sups" horiz-adv-x="228" 
d="M48 438l10 47l166 209h-109l10 48h187l-11 -48l-167 -209h128l-10 -47h-204z" />
    <glyph glyph-name="uni2070.zero" horiz-adv-x="306" 
d="M365 669l-12 -56q-21 -97 -57.5 -140t-107.5 -43q-53 0 -76.5 22.5t-23.5 71.5q0 36 12 89l12 56q21 99 56.5 141.5t107.5 42.5q53 0 76 -23t23 -75q0 -39 -10 -86zM160 526q0 -47 38 -47q33 0 49.5 33.5t32.5 112.5l4 18l-116 -53q-8 -43 -8 -64zM182 658l-3 -14l116 52
q8 43 8 63q0 45 -37 45q-34 0 -51 -33.5t-33 -112.5z" />
    <glyph glyph-name="period.sups" horiz-adv-x="139" 
d="M66 438l19 87h76l-19 -87h-76z" />
    <glyph glyph-name="hyphen.sups" horiz-adv-x="234" 
d="M85 555l13 60h184l-13 -60h-184z" />
    <glyph glyph-name="comma.sups" horiz-adv-x="166" 
d="M48 351l53 87h-23l19 87h77l-20 -92l-51 -82h-55z" />
    <glyph glyph-name="a.subs" horiz-adv-x="262" 
d="M88 -128l7 38q-34 -46 -86 -46q-31 0 -48 17t-17 46q0 12 3 24l1 7q6 35 34 56.5t85 37.5l53 18l5 22l2 10q1 3 1 8q0 27 -31 27q-23 0 -34.5 -10.5t-16.5 -37.5l-1 -6h-65l1 6q16 95 116 95q49 0 75.5 -15t26.5 -55q0 -12 -5 -34q0 -2 -11.5 -55t-11.5 -54
q-14 -76 -15 -99h-68zM20 -63q0 -26 27 -26q41 0 56 71l10 46l-36 -13q-26 -12 -37.5 -22.5t-16.5 -29.5l-1 -9q-2 -14 -2 -17z" />
    <glyph glyph-name="b.subs" horiz-adv-x="281" 
d="M217 46l-9 -42q-15 -74 -42 -107t-77 -33q-26 0 -42.5 13.5t-19.5 35.5l-8 -41h-75l87 408h73l-31 -145q27 48 81 48q69 0 69 -83q0 -24 -6 -54zM40 -36q0 -47 34 -47q26 0 38.5 22.5t22.5 76.5l3 16q10 54 10 65q0 34 -28 34t-44.5 -26t-28.5 -82q-7 -32 -7 -59z" />
    <glyph glyph-name="c.subs" horiz-adv-x="257" 
d="M182 -18l-2 -6q-23 -112 -126 -112q-97 0 -97 92q0 26 5 47l9 45q29 136 142 136q40 0 65.5 -19.5t25.5 -60.5q0 -14 -3 -31l-1 -5h-70l1 5q4 15 4 30q0 31 -30 31q-18 0 -29.5 -13.5t-16 -29t-14.5 -54.5l-6 -26q-9 -49 -9 -63q0 -35 30 -35q19 0 31 14t20 49l1 6h70z
" />
    <glyph glyph-name="d.subs" horiz-adv-x="282" 
d="M99 -128l9 41q-27 -49 -80 -49q-72 0 -72 82q0 30 6 58l9 41q15 71 43 104.5t75 33.5q26 0 43 -13.5t21 -34.5l31 145h74l-87 -408h-72zM33 -47q0 -36 27 -36q28 0 44.5 26t28.5 80q8 40 8 61q0 47 -36 47q-25 0 -37.5 -23.5t-23.5 -76.5l-3 -15q-8 -43 -8 -63z" />
    <glyph glyph-name="e.subs" horiz-adv-x="266" 
d="M185 -24l-1 -5q-21 -107 -127 -107q-49 0 -74.5 24.5t-25.5 70.5q0 15 5 43l10 47q29 135 141 135q50 0 72.5 -21.5t22.5 -67.5q0 -18 -7 -58l-4 -20h-157l-1 -6q-9 -45 -9 -61q0 -37 31 -37q40 0 52 58l1 5h71zM50 64l-2 -6h90l1 6q5 25 5 37q0 34 -35 34
q-25 0 -37.5 -16.5t-21.5 -54.5z" />
    <glyph glyph-name="f.subs" horiz-adv-x="164" 
d="M-46 -128l54 256h-36l11 48h36l6 28q10 47 33 61.5t73 14.5h33l-10 -47h-18q-20 0 -26 -4.5t-11 -24.5l-6 -28h49l-11 -48h-49l-54 -256h-74z" />
    <glyph glyph-name="g.subs" horiz-adv-x="288" 
d="M239 176l-59 -278q-15 -70 -47 -101.5t-95 -31.5q-44 0 -69.5 18.5t-25.5 53.5v10q0 4 2 12l1 5h66l-1 -5q-2 -10 -2 -13q0 -30 35 -30q26 0 39 14t22 55l9 44q-34 -48 -79 -48q-76 0 -76 84q0 26 5 47l8 38q14 67 46.5 100t79.5 33q46 0 58 -48l9 41h74zM36 -26
q0 -40 30 -40t44.5 22.5t25.5 72.5q8 40 8 59q0 42 -37 42q-25 0 -38.5 -21.5t-23.5 -69.5l-2 -9q-7 -40 -7 -56z" />
    <glyph glyph-name="h.subs" horiz-adv-x="274" 
d="M-56 -128l87 408h74l-31 -145q28 49 84 49q59 0 59 -64q0 -9 -6 -41l-44 -207h-73l38 181q8 38 8 49q0 29 -25 29q-42 0 -61 -93l-35 -166h-75z" />
    <glyph glyph-name="i.subs" horiz-adv-x="131" 
d="M-54 -128l64 302h74l-64 -302h-74zM17 211l15 69h74l-15 -69h-74z" />
    <glyph glyph-name="j.subs" horiz-adv-x="136" 
d="M-118 -228l11 48h14q18 0 24 8.5t12 36.5l65 309h74l-65 -306q-12 -57 -36.5 -76.5t-76.5 -19.5h-22zM15 211l15 69h74l-15 -69h-74z" />
    <glyph glyph-name="k.subs" horiz-adv-x="256" 
d="M-54 -128l87 408h69l-47 -219l106 114h68l-88 -98l35 -205h-62l-23 157l-56 -67l-19 -90h-70z" />
    <glyph glyph-name="l.subs" horiz-adv-x="130" 
d="M-54 -128l87 408h73l-87 -408h-73z" />
    <glyph glyph-name="m.subs" horiz-adv-x="414" 
d="M-54 -128l64 303h73l-9 -43q31 52 79 52q56 0 59 -57q33 57 85 57q59 0 59 -67q0 -13 -5 -45l-43 -200h-73l38 180q6 28 6 49q0 28 -20 28q-24 0 -35.5 -18.5t-21.5 -59.5l-38 -179h-74l41 193q5 25 5 37q0 27 -22 27q-24 0 -36.5 -22.5t-22.5 -70.5l-35 -164h-74z" />
    <glyph glyph-name="uni207F.002" horiz-adv-x="277" 
d="M-54 -128l64 303h73l-8 -40q28 49 84 49q60 0 60 -62q0 -16 -5 -43l-44 -207h-74l38 181q7 35 7 50q0 29 -24 29q-25 0 -39 -24t-23 -70l-35 -166h-74z" />
    <glyph glyph-name="o.subs" horiz-adv-x="269" 
d="M31 -51q0 -36 30 -36q26 0 38 22.5t23 76.5l5 25q9 43 9 61q0 36 -29 36q-26 0 -39 -23.5t-23 -73.5l-5 -25q-9 -45 -9 -63zM205 47l-9 -44q-15 -72 -46.5 -105.5t-89.5 -33.5q-103 0 -103 93q0 18 5 46l9 44q15 69 47 103t90 34q49 0 76 -24.5t27 -69.5q0 -11 -6 -43z
" />
    <glyph glyph-name="p.subs" horiz-adv-x="282" 
d="M-75 -228l85 402h73l-8 -39q12 22 33.5 35.5t47.5 13.5q68 0 68 -82q0 -29 -7 -58l-8 -40q-16 -73 -42.5 -106.5t-77.5 -33.5q-26 0 -42.5 13.5t-19.5 35.5l-29 -141h-73zM41 -35q0 -48 34 -48q25 0 37 22t24 77l3 14q9 49 9 66q0 35 -28 35t-44 -26t-28 -81
q-7 -32 -7 -59z" />
    <glyph glyph-name="q.subs" horiz-adv-x="283" 
d="M77 -228l30 141q-26 -49 -82 -49q-69 0 -69 81q0 30 7 59l9 40q29 140 119 140q26 0 42.5 -13.5t20.5 -35.5l8 39h74l-85 -402h-74zM32 -46q0 -37 29 -37q28 0 44 26t28 81q8 40 8 60q0 47 -36 47q-24 0 -36 -22.5t-25 -78.5l-3 -14q-9 -49 -9 -62z" />
    <glyph glyph-name="r.subs" horiz-adv-x="178" 
d="M-54 -128l64 303h72l-13 -62q26 62 78 62h11l-15 -71h-21q-33 0 -46.5 -15t-22.5 -58l-34 -159h-73z" />
    <glyph glyph-name="s.subs" horiz-adv-x="249" 
d="M173 -21q0 -52 -31 -83.5t-89 -31.5q-102 0 -102 96v6q0 5 1 9h69l-1 -5q-2 -14 -2 -18q0 -37 36 -37q49 0 49 46q0 20 -29 35l-41 18q-52 20 -52 61q0 50 29.5 79.5t87.5 29.5q42 0 69 -20t27 -54q0 -9 -3 -21l-1 -5h-66l1 5l2 14q0 32 -34 32q-21 -1 -32 -13.5
t-11 -28.5q0 -17 21 -27l37 -17q34 -15 49.5 -29t15.5 -41z" />
    <glyph glyph-name="t.subs" horiz-adv-x="166" 
d="M78 -128h-53q-32 0 -46 10t-14 33q0 11 5 36l37 177h-36l11 48h35l17 81h74l-17 -81h50l-10 -48h-50l-36 -169q-3 -13 -3 -21q0 -11 5.5 -15t19.5 -4h21z" />
    <glyph glyph-name="u.subs" horiz-adv-x="268" 
d="M89 -128l8 42q-31 -50 -76 -50q-63 0 -63 62q0 16 7 49l42 200h74l-38 -180q-8 -38 -8 -49q0 -28 22 -28q23 0 36.5 24t23.5 69l34 164h73l-64 -303h-71z" />
    <glyph glyph-name="v.subs" horiz-adv-x="235" 
d="M-8 -128l-9 303h74l-6 -227l95 227h69l-139 -303h-84z" />
    <glyph glyph-name="w.subs" horiz-adv-x="322" 
d="M-32 -128l22 303h60l-22 -225l84 225h61l-9 -225l71 225h60l-103 -303h-74l11 236l-87 -236h-74z" />
    <glyph glyph-name="x.subs" horiz-adv-x="236" 
d="M85 -128l-32 94l-72 -94h-66l118 154l-49 149h70l28 -86l66 86h67l-113 -146l53 -157h-70z" />
    <glyph glyph-name="y.subs" horiz-adv-x="235" 
d="M-80 -228l10 49h20q19 0 29 7.5t18 28.5l6 15l-21 304h74v-229l88 229h67l-135 -305q-26 -60 -50.5 -79.5t-73.5 -19.5h-32z" />
    <glyph glyph-name="z.subs" horiz-adv-x="228" 
d="M-71 -128l10 47l166 209h-109l10 48h187l-11 -48l-167 -209h128l-10 -47h-204z" />
    <glyph glyph-name="uni2080.zero" horiz-adv-x="306" 
d="M246 103l-12 -56q-21 -97 -57.5 -140t-107.5 -43q-53 0 -76.5 22.5t-23.5 71.5q0 36 12 89l12 56q21 99 56.5 141.5t107.5 42.5q53 0 76 -23t23 -75q0 -39 -10 -86zM41 -40q0 -47 38 -47q33 0 49.5 33.5t32.5 112.5l4 18l-116 -53q-8 -43 -8 -64zM63 92l-3 -14l116 52
q8 43 8 63q0 45 -37 45q-34 0 -51 -33.5t-33 -112.5z" />
    <glyph glyph-name="period.subs" horiz-adv-x="139" 
d="M-53 -128l19 87h76l-19 -87h-76z" />
    <glyph glyph-name="hyphen.subs" horiz-adv-x="234" 
d="M-34 -11l13 60h184l-13 -60h-184z" />
    <glyph glyph-name="comma.subs" horiz-adv-x="166" 
d="M-71 -215l53 87h-23l19 87h77l-20 -92l-51 -82h-55z" />
    <glyph glyph-name="uni207C.003" horiz-adv-x="345" 
d="M-7 -70v64h245v-64h-245zM-7 46v65h245v-65h-245z" />
    <glyph glyph-name="uni207A.004" horiz-adv-x="344" 
d="M88 -128v118h-114v64h114v118h66v-118h113v-64h-113v-118h-66z" />
    <glyph glyph-name="uni207B.005" horiz-adv-x="334" 
d="M-22 -14v64h284v-64h-284z" />
    <glyph glyph-name="one.frac" horiz-adv-x="182" 
d="M83 317l66 308h-71l10 48q47 0 62.5 8.5t30.5 43.5h58l-87 -408h-69z" />
    <glyph glyph-name="two.frac" horiz-adv-x="280" 
d="M33 317l12 55l56 57q95 98 127.5 139.5t32.5 80.5q0 33 -34 33q-26 0 -38 -16.5t-21 -58.5l-1 -5h-72l1 5q15 66 44.5 95.5t89.5 29.5q47 0 76.5 -21.5t29.5 -57.5q0 -48 -35.5 -95.5t-122.5 -134.5l-47 -49h150l-12 -57h-236z" />
    <glyph glyph-name="three.frac" horiz-adv-x="291" 
d="M301 450q-5 -69 -44.5 -105t-107.5 -36q-101 0 -101 84q0 17 4 33l1 5h70l-1 -5q-4 -16 -4 -31q0 -37 36 -37q53 0 69 73q4 15 4 28q0 22 -12 32.5t-43 10.5h-23l11 52h23q29 0 44.5 16t22.5 49q3 15 3 28q0 36 -35 36q-23 0 -34.5 -14t-19.5 -50l-1 -5h-70l1 5
q26 113 131 113q46 0 74.5 -18.5t28.5 -57.5v-9q-2 -47 -25.5 -75t-55.5 -38q55 -16 55 -73q0 -2 -0.5 -5.5t-0.5 -5.5z" />
    <glyph glyph-name="four.frac" horiz-adv-x="295" 
d="M173 317l21 101h-152l12 54l201 253h72l-53 -249h48l-13 -58h-48l-21 -101h-67zM114 476h92l33 154z" />
    <glyph glyph-name="five.frac" horiz-adv-x="281" 
d="M301 467l-6 -30q-13 -65 -45.5 -96.5t-92.5 -31.5q-47 0 -77.5 21t-30.5 63q0 19 4 34l1 5h70l-1 -5q-3 -17 -3 -29q0 -39 36 -39q46 0 63 80l5 24q5 25 5 36q0 45 -34 45t-55 -43l-65 2l66 222h204l-12 -58h-147l-35 -116q10 18 31 30.5t47 12.5q78 0 78 -80
q0 -17 -6 -47z" />
    <glyph glyph-name="six.frac" horiz-adv-x="293" 
d="M312 459l-4 -22q-24 -128 -138 -128q-107 0 -107 99q0 35 10 79l12 56q21 102 56.5 145.5t108.5 43.5q91 0 91 -78q0 -14 -3 -31l-1 -6h-69l1 5q3 15 3 26q0 34 -33 34q-31 0 -46 -27.5t-29 -95.5l-4 -18q26 46 78 46q80 0 80 -81q0 -9 -6 -47zM133 403q0 -44 35 -44
q48 0 65 80l3 16q4 17 4 36q0 44 -36 44q-46 0 -63 -80l-4 -17q-4 -17 -4 -35z" />
    <glyph glyph-name="seven.frac" horiz-adv-x="227" 
d="M126 317h-77q57 228 202 350h-164l13 58h224l-13 -58q-76 -67 -117.5 -149.5t-67.5 -200.5z" />
    <glyph glyph-name="eight.frac" horiz-adv-x="300" 
d="M313 442q-10 -69 -45 -101t-101 -32q-116 0 -116 85v13q0 5 2 15q11 87 88 114q-39 16 -39 64v9q0 6 1 9q17 114 134 114q109 0 109 -75q0 -6 -2 -22q-5 -41 -28 -66.5t-48 -32.5q46 -20 46 -74v-10q0 -7 -1 -10zM124 401q0 -42 44 -42q57 0 69 71l1 6q0 3 1 8.5t1.5 10
t0.5 8.5q0 43 -42 43q-55 0 -70 -70l-1 -5q-4 -15 -4 -30zM175 591q0 -35 34 -35q26 0 38.5 14.5t18.5 46.5l1 5q3 15 3 27q0 18 -7.5 26t-26.5 8q-26 0 -38.5 -14.5t-18.5 -45.5l-1 -5q-3 -16 -3 -27z" />
    <glyph glyph-name="nine.frac" horiz-adv-x="297" 
d="M328 556l-12 -56q-22 -102 -55.5 -146.5t-104.5 -44.5q-47 0 -71 21t-24 57q0 15 3 31l1 5h68l-1 -5q-2 -10 -2 -14v-12q0 -33 31 -33t47 28.5t30 95.5l4 19q-26 -46 -79 -46q-80 0 -80 81q0 18 5 46l5 22q27 127 145 127q53 0 76.5 -23t23.5 -73q0 -39 -10 -80zM161 551
q0 -43 37 -43q47 0 62 78l4 18q5 25 5 37q0 42 -35 42q-48 0 -65 -79l-3 -16q-5 -25 -5 -37z" />
    <glyph glyph-name="zero.frac" horiz-adv-x="306" 
d="M134 406q0 -48 39 -48q33 0 49 33t32 113l7 33q14 72 14 99q0 46 -36 46q-34 0 -50.5 -33t-32.5 -112l-7 -33q-15 -77 -15 -98zM338 547l-12 -54q-21 -99 -55.5 -141.5t-103.5 -42.5q-56 0 -80.5 24t-24.5 76q0 32 11 84l11 54q20 99 55 142t106 43q54 0 78.5 -24.5
t24.5 -77.5q0 -39 -10 -83z" />
    <glyph glyph-name="zero.frac_zero" horiz-adv-x="306" 
d="M339 548l-12 -56q-21 -97 -57.5 -140t-107.5 -43q-53 0 -76.5 22.5t-23.5 71.5q0 37 12 89l12 56q21 99 56.5 141.5t107.5 42.5q53 0 76 -23t23 -75q0 -39 -10 -86zM134 405q0 -47 38 -47q33 0 49.5 33.5t32.5 112.5l4 18l-116 -53q-8 -43 -8 -64zM156 537l-3 -14l116 52
q8 43 8 63q0 45 -37 45q-34 0 -51 -33.5t-33 -112.5z" />
    <glyph glyph-name="one.dnom" horiz-adv-x="182" 
d="M16 0l65 308h-70l11 48q47 0 61.5 8t30.5 44h58l-87 -408h-69z" />
    <glyph glyph-name="two.dnom" horiz-adv-x="280" 
d="M-34 0l12 55l56 57q95 98 127.5 139.5t32.5 80.5q0 33 -34 33q-26 0 -38 -16.5t-21 -58.5l-1 -5h-72l1 5q15 66 44.5 95.5t89.5 29.5q47 0 76.5 -21.5t29.5 -57.5q0 -48 -35.5 -95.5t-122.5 -134.5l-47 -49h150l-12 -57h-236z" />
    <glyph glyph-name="three.dnom" horiz-adv-x="291" 
d="M234 133q-5 -69 -44.5 -105t-107.5 -36q-101 0 -101 84q0 17 4 33l1 5h70l-1 -5q-4 -16 -4 -31q0 -37 36 -37q53 0 69 73q4 15 4 28q0 22 -12 32.5t-43 10.5h-23l11 52h23q29 0 44.5 16t22.5 49q3 15 3 28q0 36 -35 36q-23 0 -34.5 -14t-19.5 -50l-1 -5h-70l1 5
q26 113 131 113q46 0 74.5 -18.5t28.5 -57.5v-9q-2 -47 -25.5 -75t-55.5 -38q55 -16 55 -73q0 -2 -0.5 -5.5t-0.5 -5.5z" />
    <glyph glyph-name="four.dnom" horiz-adv-x="295" 
d="M106 0l21 101h-152l12 54l201 253h72l-53 -249h48l-13 -58h-48l-21 -101h-67zM47 159h92l33 154z" />
    <glyph glyph-name="five.dnom" horiz-adv-x="281" 
d="M234 150l-6 -30q-13 -65 -45.5 -96.5t-92.5 -31.5q-47 0 -77.5 21t-30.5 63q0 19 4 34l1 5h70l-1 -5q-3 -16 -3 -29q0 -39 36 -39q46 0 63 80l5 24q5 25 5 36q0 45 -34 45t-55 -43l-65 2l66 222h205l-13 -58h-147l-35 -116q10 18 31 30.5t47 12.5q78 0 78 -80
q0 -17 -6 -47z" />
    <glyph glyph-name="six.dnom" horiz-adv-x="293" 
d="M245 142l-4 -22q-24 -128 -138 -128q-107 0 -107 99q0 35 10 79l12 56q21 102 56.5 145.5t108.5 43.5q91 0 91 -78q0 -15 -3 -31l-1 -6h-69l1 5q3 15 3 26q0 34 -33 34q-31 0 -46 -27.5t-29 -95.5l-4 -18q26 46 78 46q80 0 80 -81q0 -9 -6 -47zM66 86q0 -44 35 -44
q48 0 65 80l3 16q4 17 4 36q0 44 -36 44q-46 0 -63 -80l-4 -17q-4 -17 -4 -35z" />
    <glyph glyph-name="seven.dnom" horiz-adv-x="227" 
d="M59 0h-77q57 228 202 350h-164l13 58h224l-13 -58q-76 -67 -117.5 -149.5t-67.5 -200.5z" />
    <glyph glyph-name="eight.dnom" horiz-adv-x="300" 
d="M246 125q-10 -69 -45 -101t-101 -32q-116 0 -116 85v13q0 5 2 15q11 87 88 114q-39 16 -39 64v9q0 6 1 9q17 114 134 114q109 0 109 -75q0 -6 -2 -22q-5 -41 -28 -66.5t-48 -32.5q46 -20 46 -74v-10q0 -7 -1 -10zM57 84q0 -42 44 -42q57 0 69 71l1 6q0 3 1 8.5t1.5 10
t0.5 8.5q0 43 -42 43q-55 0 -70 -70l-1 -5q-4 -15 -4 -30zM108 274q0 -35 34 -35q26 0 38.5 14.5t18.5 46.5l1 5q3 15 3 27q0 18 -7.5 26t-26.5 8q-26 0 -38.5 -14.5t-18.5 -45.5l-1 -5q-3 -17 -3 -27z" />
    <glyph glyph-name="nine.dnom" horiz-adv-x="297" 
d="M261 239l-12 -56q-22 -102 -55.5 -146.5t-104.5 -44.5q-47 0 -71 21t-24 57q0 14 3 31l1 5h68l-1 -5q-2 -10 -2 -14v-12q0 -33 31 -33t47 28.5t30 95.5l4 19q-26 -46 -79 -46q-80 0 -80 81q0 18 5 46l5 22q27 127 145 127q53 0 76.5 -23t23.5 -73q0 -39 -10 -80zM94 234
q0 -43 37 -43q47 0 62 78l4 18q5 25 5 37q0 42 -35 42q-48 0 -65 -79l-3 -16q-5 -25 -5 -37z" />
    <glyph glyph-name="zero.dnom" horiz-adv-x="306" 
d="M67 89q0 -48 39 -48q33 0 49 33t32 113l7 33q14 72 14 99q0 46 -36 46q-34 0 -50.5 -33t-32.5 -112l-7 -33q-15 -77 -15 -98zM271 230l-12 -54q-21 -99 -55.5 -141.5t-103.5 -42.5q-56 0 -80.5 24t-24.5 76q0 32 11 84l11 54q20 99 55 142t106 43q54 0 78.5 -24.5
t24.5 -77.5q0 -39 -10 -83z" />
    <glyph glyph-name="zero.dnom_zero" horiz-adv-x="306" 
d="M272 231l-12 -56q-21 -97 -57.5 -140t-107.5 -43q-53 0 -76.5 22.5t-23.5 71.5q0 36 12 89l12 56q21 99 56.5 141.5t107.5 42.5q53 0 76 -23t23 -75q0 -39 -10 -86zM67 88q0 -47 38 -47q33 0 49.5 33.5t32.5 112.5l4 18l-116 -53q-8 -43 -8 -64zM89 220l-3 -14l116 52
q8 43 8 63q0 45 -37 45q-34 0 -51 -33.5t-33 -112.5z" />
    <glyph glyph-name="ampersand.case" horiz-adv-x="624" 
d="M490 400h97q-35 -149 -114 -252l83 -148h-122l-37 66q-87 -79 -202 -79q-89 0 -143 41.5t-54 117.5q0 135 183 247l27 16v1q-18 33 -25 48t-14 38t-7 43q0 85 53.5 141.5t141.5 56.5q64 0 109 -27.5t45 -85.5q0 -117 -168 -220l-9 -6l91 -164q41 62 65 166zM207 72
q91 0 149 69l-112 203l-21 -13q-109 -69 -109 -168q0 -43 23.5 -67t69.5 -24zM265 557q0 -33 30 -88l3 -6l10 6q53 34 79.5 66t26.5 75q0 50 -61 50q-39 0 -63.5 -28t-24.5 -75z" />
    <glyph glyph-name="hyphen.006" horiz-adv-x="349" 
d="M59 311l20 94h249l-20 -94h-249z" />
    <glyph glyph-name="endash.007" horiz-adv-x="497" 
d="M37 311l20 94h439l-20 -94h-439z" />
    <glyph glyph-name="emdash.008" horiz-adv-x="725" 
d="M37 311l20 94h669l-20 -94h-669z" />
    <glyph glyph-name="question.case" horiz-adv-x="494" 
d="M149 201l11 52q7 36 18.5 61t33 45.5t38.5 32.5t53 33q105 62 105 164q0 33 -21.5 50t-56.5 17q-55 0 -85 -32t-45 -101l-2 -10h-122l2 10q23 113 84.5 164t168.5 51q82 0 142 -35t60 -100q0 -144 -141 -224q-55 -30 -75.5 -52.5t-31.5 -75.5l-11 -50h-125zM105 0l29 138
h129l-29 -138h-129z" />
    <glyph glyph-name="questiondown.case" horiz-adv-x="494" 
d="M384 525l-11 -52q-14 -68 -43.5 -100t-97.5 -72q-105 -62 -105 -162q0 -34 19.5 -52t53.5 -18q55 0 87 32.5t48 102.5l2 10h122l-2 -10q-26 -115 -85 -166t-165 -51q-86 0 -146.5 33.5t-60.5 104.5q0 70 40.5 127.5t102.5 94.5q57 31 77 52.5t31 75.5l11 50h122zM272 587
l29 138h129l-29 -138h-129z" />
    <glyph glyph-name="exclam.case" horiz-adv-x="246" 
d="M68 199l45 326l42 200h130l-42 -200l-95 -326h-80zM2 0l29 138h129l-29 -138h-129z" />
    <glyph glyph-name="exclamdown.case" horiz-adv-x="246" 
d="M219 526l-45 -326l-42 -200h-130l42 200l95 326h80zM127 587l29 138h129l-29 -138h-129z" />
    <glyph glyph-name="guilsinglleft.009" horiz-adv-x="200" 
d="M148 161l-109 151l29 134l169 139l-27 -130l-97 -82l63 -82z" />
    <glyph glyph-name="guilsinglright.010" horiz-adv-x="201" 
d="M95 579l109 -151l-29 -134l-169 -139l27 130l97 82l-63 82z" />
    <glyph glyph-name="guilsinglleft_guilsinglleft" horiz-adv-x="363" 
d="M319 161l-109 151l29 134l169 139l-27 -130l-97 -82l63 -82zM148 161l-109 151l29 134l169 139l-27 -130l-97 -82l63 -82z" />
    <glyph glyph-name="guilsinglright_guilsinglright" horiz-adv-x="364" 
d="M266 579l109 -151l-29 -134l-169 -139l27 130l97 82l-63 82zM95 579l109 -151l-29 -134l-169 -139l27 130l97 82l-63 82z" />
    <glyph glyph-name="parenleft.case" horiz-adv-x="251" 
d="M199 0h-103q-51 111 -51 237q0 65 13 127q40 192 190 361h102q-147 -180 -183 -361q-15 -74 -15 -137q0 -119 47 -227z" />
    <glyph glyph-name="parenright.case" horiz-adv-x="250" 
d="M42 0h-101q91 112 143.5 242t52.5 260q0 107 -45 223h101q52 -113 52 -231q0 -264 -203 -494z" />
    <glyph glyph-name="bracketleft.case" horiz-adv-x="276" 
d="M8 0l154 725h216l-17 -79h-123l-120 -566h122l-17 -80h-215z" />
    <glyph glyph-name="bracketright.case" horiz-adv-x="277" 
d="M-60 0l17 80h122l120 566h-124l17 79h217l-154 -725h-215z" />
    <glyph glyph-name="braceleft.case" horiz-adv-x="279" 
d="M227 0h-25q-77 0 -110.5 21t-33.5 74q0 29 7 61l12 56q7 33 7 52q0 16 -1.5 24t-6.5 17t-17.5 12.5t-32.5 3.5l18 85q45 2 65.5 29t31.5 81l11 53q20 91 64 123.5t138 32.5h26l-18 -85h-14q-52 0 -71 -16t-29 -62l-12 -60q-22 -114 -113 -137v-2q62 -19 62 -87
q0 -21 -6 -51l-14 -63q-5 -25 -5 -35q0 -23 15.5 -32.5t55.5 -9.5h14z" />
    <glyph glyph-name="braceright.case" horiz-adv-x="282" 
d="M-58 0l18 85h13q52 0 71 16t29 62l13 64q13 64 41 95t71 42v2q-30 9 -46 28.5t-16 57.5q0 21 6 51l12 59q5 25 5 36q0 23 -13 32t-51 9h-21l18 86h24q73 0 110 -25.5t36 -69.5q0 -29 -7 -61l-11 -52q-7 -35 -7 -53q0 -55 60 -56l-19 -86q-45 0 -65.5 -27.5t-31.5 -81.5
l-12 -57q-20 -92 -58 -124t-130 -32h-39z" />
    <glyph glyph-name="bar.case" horiz-adv-x="235" 
d="M65 0v725h105v-725h-105z" />
    <glyph glyph-name="brokenbar.case" horiz-adv-x="213" 
d="M159 465h-105v260h105v-260zM54 0v260h105v-260h-105z" />
    <glyph glyph-name="period.011" horiz-adv-x="236" 
d="M59 293l29 138h129l-29 -138h-129z" />
    <glyph glyph-name="bullet.012" horiz-adv-x="460" 
d="M431 369q0 -77 -52.5 -130t-131.5 -53q-73 0 -124.5 53t-51.5 130q0 73 52 125t124 52q78 0 131 -51.5t53 -125.5z" />
    <glyph glyph-name="plus.013" 
d="M249 95v225h-205v88h205v225h93v-225h203v-88h-203v-225h-93z" />
    <glyph glyph-name="minus.014" 
d="M41 320v88h502v-88h-502z" />
    <glyph glyph-name="divide.015" 
d="M232 123v131h123v-131h-123zM59 320v88h469v-88h-469zM232 474v131h123v-131h-123z" />
    <glyph glyph-name="multiply.016" 
d="M134 129l-62 65l160 167l-162 169l64 64l160 -168l160 167l63 -64l-161 -168l161 -169l-63 -63l-160 167z" />
    <glyph glyph-name="equal.017" 
d="M82 209v89h424v-89h-424zM82 428v90h424v-90h-424z" />
    <glyph glyph-name="plusminus.018" 
d="M231 232v156h-193v89h193v156h92v-156h194v-89h-194v-156h-92zM38 95v89h479v-89h-479z" />
    <glyph glyph-name="less.019" 
d="M475 94l-409 221v97l409 222v-102l-307 -169l307 -168v-101z" />
    <glyph glyph-name="greater.020" 
d="M523 315l-409 -221v101l307 168l-307 169v102l409 -222v-97z" />
    <glyph glyph-name="lessequal.021" 
d="M509 641v-93l-327 -118l327 -118v-95l-463 164v97zM46 95v89h463v-89h-463z" />
    <glyph glyph-name="greaterequal.022" 
d="M63 548v93l463 -163v-97l-463 -164v95l327 118zM526 184v-89h-463v89h463z" />
    <glyph glyph-name="notequal.023" 
d="M82 428v90h235l53 115h104l-53 -115h85v-90h-126l-60 -130h186v-89h-227l-52 -114h-105l52 114h-92v89h133l60 130h-193z" />
    <glyph glyph-name="acute.case" horiz-adv-x="249" 
d="M133 774l80 113h143l-122 -113h-101z" />
    <glyph glyph-name="breve.case" horiz-adv-x="337" 
d="M359 887h85q-13 -56 -48.5 -84.5t-104.5 -28.5q-60 0 -98 24.5t-38 68.5q0 6 2 20h85q-1 -2 -1 -7v-5q0 -24 17 -35t39 -11q51 0 62 58z" />
    <glyph glyph-name="caron.case" horiz-adv-x="384" 
d="M355 774h-105l-93 113h111l43 -60l68 60h112z" />
    <glyph glyph-name="cedilla.case" horiz-adv-x="255" 
d="M149 -105q0 -42 -40 -65.5t-95 -23.5q-42 0 -84 14l23 43q21 -13 57 -13q28 0 46 10.5t18 30.5q0 23 -37 23q-25 0 -42 -9l-22 17l66 79h50l-44 -51q15 3 34 3q26 0 48 -18t22 -40z" />
    <glyph glyph-name="circumflex.case" horiz-adv-x="381" 
d="M133 774l132 113h106l93 -113h-111l-44 61l-64 -61h-112z" />
    <glyph glyph-name="dieresis.case" horiz-adv-x="348" 
d="M133 777l23 107h102l-23 -107h-102zM329 777l23 107h101l-22 -107h-102z" />
    <glyph glyph-name="dotaccent.case" horiz-adv-x="170" 
d="M134 779l22 107h119l-22 -107h-119z" />
    <glyph glyph-name="grave.case" horiz-adv-x="285" 
d="M268 774l-111 113h142l69 -113h-100z" />
    <glyph glyph-name="hungarumlaut.case" horiz-adv-x="426" 
d="M317 774l81 113h135l-116 -113h-100zM133 774l80 113h136l-115 -113h-101z" />
    <glyph glyph-name="overscore.case" horiz-adv-x="293" 
d="M137 793l17 80h243l-17 -80h-243z" />
    <glyph glyph-name="ogonek.case" horiz-adv-x="242" 
d="M135 -118l-13 -63q-32 -7 -70 -7q-44 0 -75 20.5t-31 53.5q0 72 95 114h119q-108 -48 -108 -90q0 -33 42 -33q21 0 41 5z" />
    <glyph glyph-name="ring.case" horiz-adv-x="232" 
d="M329 850q0 -35 -25.5 -59t-62.5 -24q-38 0 -64 24t-26 59q0 36 26.5 60.5t63.5 24.5q36 0 62 -24.5t26 -60.5zM193 850q0 -20 13.5 -32.5t34.5 -12.5q19 0 32.5 12.5t13.5 32.5t-13.5 34t-32.5 14q-20 0 -34 -13.5t-14 -34.5z" />
    <glyph glyph-name="tilde.case" horiz-adv-x="380" 
d="M208 776h-75q22 63 52 84.5t76 21.5q27 0 59 -21t47 -21q29 0 43 42h75q-22 -62 -52 -84t-75 -22q-28 0 -61 20t-45 20q-29 0 -44 -40z" />
    <glyph glyph-name="a.salt" horiz-adv-x="498" 
d="M273 0l16 78q-22 -40 -63.5 -65.5t-88.5 -25.5q-126 0 -126 138q0 40 13 103l16 75q26 123 78 182.5t136 59.5q47 0 77.5 -25t37.5 -65l16 77h115l-113 -532h-114zM131 140q0 -37 13.5 -55t44.5 -18q54 0 88.5 48.5t55.5 150.5q13 58 13 103q0 97 -73 97q-48 0 -74 -44
t-46 -142l-6 -28q-16 -68 -16 -112z" />
    <glyph glyph-name="aacute.salt" horiz-adv-x="498" 
d="M255 604l90 121h134l-135 -121h-89zM273 0l16 78q-22 -40 -63.5 -65.5t-88.5 -25.5q-126 0 -126 138q0 40 13 103l16 75q26 123 78 182.5t136 59.5q47 0 77.5 -25t37.5 -65l16 77h115l-113 -532h-114zM131 140q0 -37 13.5 -55t44.5 -18q54 0 88.5 48.5t55.5 150.5
q13 58 13 103q0 97 -73 97q-48 0 -74 -44t-46 -142l-6 -28q-16 -68 -16 -112z" />
    <glyph glyph-name="abreve.salt" horiz-adv-x="498" 
d="M273 0l16 78q-22 -40 -63.5 -65.5t-88.5 -25.5q-126 0 -126 138q0 40 13 103l16 75q26 123 78 182.5t136 59.5q47 0 77.5 -25t37.5 -65l16 77h115l-113 -532h-114zM131 140q0 -37 13.5 -55t44.5 -18q54 0 88.5 48.5t55.5 150.5q13 58 13 103q0 97 -73 97q-48 0 -74 -44
t-46 -142l-6 -28q-16 -68 -16 -112zM400 725h80q-17 -61 -51.5 -91.5t-103.5 -30.5q-121 0 -121 94v13q0 5 2 15h79q-2 -14 -2 -19q0 -42 47 -42q55 0 70 61z" />
    <glyph glyph-name="acircumflex.salt" horiz-adv-x="498" 
d="M147 604l137 121h98l87 -121h-102l-45 64l-71 -64h-104zM273 0l16 78q-22 -40 -63.5 -65.5t-88.5 -25.5q-126 0 -126 138q0 40 13 103l16 75q26 123 78 182.5t136 59.5q47 0 77.5 -25t37.5 -65l16 77h115l-113 -532h-114zM131 140q0 -37 13.5 -55t44.5 -18
q54 0 88.5 48.5t55.5 150.5q13 58 13 103q0 97 -73 97q-48 0 -74 -44t-46 -142l-6 -28q-16 -68 -16 -112z" />
    <glyph glyph-name="adieresis.salt" horiz-adv-x="498" 
d="M167 611l24 113h101l-25 -113h-100zM365 611l24 113h101l-23 -113h-102zM273 0l16 78q-22 -40 -63.5 -65.5t-88.5 -25.5q-126 0 -126 138q0 40 13 103l16 75q26 123 78 182.5t136 59.5q47 0 77.5 -25t37.5 -65l16 77h115l-113 -532h-114zM131 140q0 -37 13.5 -55
t44.5 -18q54 0 88.5 48.5t55.5 150.5q13 58 13 103q0 97 -73 97q-48 0 -74 -44t-46 -142l-6 -28q-16 -68 -16 -112z" />
    <glyph glyph-name="agrave.salt" horiz-adv-x="498" 
d="M273 0l16 78q-22 -40 -63.5 -65.5t-88.5 -25.5q-126 0 -126 138q0 40 13 103l16 75q26 123 78 182.5t136 59.5q47 0 77.5 -25t37.5 -65l16 77h115l-113 -532h-114zM131 140q0 -37 13.5 -55t44.5 -18q54 0 88.5 48.5t55.5 150.5q13 58 13 103q0 97 -73 97q-48 0 -74 -44
t-46 -142l-6 -28q-16 -68 -16 -112zM275 604l-85 121h133l39 -121h-87z" />
    <glyph glyph-name="amacron.salt" horiz-adv-x="498" 
d="M273 0l16 78q-22 -40 -63.5 -65.5t-88.5 -25.5q-126 0 -126 138q0 40 13 103l16 75q26 123 78 182.5t136 59.5q47 0 77.5 -25t37.5 -65l16 77h115l-113 -532h-114zM131 140q0 -37 13.5 -55t44.5 -18q54 0 88.5 48.5t55.5 150.5q13 58 13 103q0 97 -73 97q-48 0 -74 -44
t-46 -142l-6 -28q-16 -68 -16 -112zM202 628l16 77h239l-16 -77h-239z" />
    <glyph glyph-name="aogonek.salt" horiz-adv-x="498" 
d="M362 -118l-14 -64q-32 -6 -66 -6q-44 0 -74.5 19.5t-30.5 52.5q0 73 96 116l16 78q-22 -40 -63.5 -65.5t-88.5 -25.5q-126 0 -126 138q0 40 13 103l16 75q26 123 78 182.5t136 59.5q47 0 77.5 -25t37.5 -65l16 77h115l-113 -532q-61 -28 -84.5 -45.5t-23.5 -43.5
q0 -14 13 -24t32 -10q16 0 38 5zM131 140q0 -37 13.5 -55t44.5 -18q54 0 88.5 48.5t55.5 150.5q13 58 13 103q0 97 -73 97q-48 0 -74 -44t-46 -142l-6 -28q-16 -68 -16 -112z" />
    <glyph glyph-name="aring.salt" horiz-adv-x="498" 
d="M427 678q0 -38 -26.5 -62.5t-65.5 -24.5t-65.5 24.5t-26.5 62.5t26.5 63t65.5 25t65.5 -25t26.5 -63zM289 678q0 -20 13.5 -32.5t32.5 -12.5q20 0 33 12.5t13 32.5t-13 33t-33 13q-19 0 -32.5 -13t-13.5 -33zM273 0l16 78q-22 -40 -63.5 -65.5t-88.5 -25.5
q-126 0 -126 138q0 40 13 103l16 75q26 123 78 182.5t136 59.5q47 0 77.5 -25t37.5 -65l16 77h115l-113 -532h-114zM131 140q0 -37 13.5 -55t44.5 -18q54 0 88.5 48.5t55.5 150.5q13 58 13 103q0 97 -73 97q-48 0 -74 -44t-46 -142l-6 -28q-16 -68 -16 -112z" />
    <glyph glyph-name="atilde.salt" horiz-adv-x="498" 
d="M273 0l16 78q-22 -40 -63.5 -65.5t-88.5 -25.5q-126 0 -126 138q0 40 13 103l16 75q26 123 78 182.5t136 59.5q47 0 77.5 -25t37.5 -65l16 77h115l-113 -532h-114zM131 140q0 -37 13.5 -55t44.5 -18q54 0 88.5 48.5t55.5 150.5q13 58 13 103q0 97 -73 97q-48 0 -74 -44
t-46 -142l-6 -28q-16 -68 -16 -112zM222 611h-71q32 113 109 113q25 0 62 -20t48 -20q24 0 37 40h70q-17 -58 -44 -85.5t-58 -27.5q-23 0 -64.5 19.5t-54.5 19.5q-14 0 -20.5 -8.5t-13.5 -30.5z" />
    <glyph glyph-name="l.ss02" horiz-adv-x="270" 
d="M203 0h-60q-70 0 -97.5 16t-27.5 60q0 22 8 62l125 587h114l-121 -570q-4 -17 -4 -34q0 -24 14 -32.5t48 -8.5h18z" />
    <glyph glyph-name="lacute.ss02" horiz-adv-x="270" 
d="M203 0h-60q-70 0 -97.5 16t-27.5 60q0 22 8 62l125 587h114l-121 -570q-4 -17 -4 -34q0 -24 14 -32.5t48 -8.5h18zM169 774l80 113h143l-122 -113h-101z" />
    <glyph glyph-name="lcaron.ss02" horiz-adv-x="322" 
d="M274 555l61 170h109l-94 -170h-76zM203 0h-60q-70 0 -97.5 16t-27.5 60q0 22 8 62l125 587h114l-121 -570q-4 -17 -4 -34q0 -24 14 -32.5t48 -8.5h18z" />
    <glyph glyph-name="uni013C.ss02" horiz-adv-x="270" 
d="M-32 -223l51 85h-23l19 88h92l-19 -93l-55 -80h-65zM203 0h-60q-70 0 -97.5 16t-27.5 60q0 22 8 62l125 587h114l-121 -570q-4 -17 -4 -34q0 -24 14 -32.5t48 -8.5h18z" />
    <glyph glyph-name="ldot.ss02" horiz-adv-x="357" 
d="M248 355l22 107h119l-22 -107h-119zM203 0h-60q-70 0 -97.5 16t-27.5 60q0 22 8 62l125 587h114l-121 -570q-4 -17 -4 -34q0 -24 14 -32.5t48 -8.5h18z" />
    <glyph glyph-name="lslash.ss02" horiz-adv-x="270" 
d="M-23 256l21 96l83 43l70 330h114l-56 -262l87 46l-20 -96l-87 -46l-45 -212q-4 -17 -4 -34q0 -24 14 -32.5t48 -8.5h18l-17 -80h-60q-70 0 -97.5 16t-27.5 60q0 22 8 62l34 162z" />
    <glyph glyph-name="fl.ss02" horiz-adv-x="559" 
d="M13 0l99 464h-69l15 74h69l12 55q16 79 54.5 105.5t123.5 26.5h58l-15 -72h-35q-36 0 -50.5 -12.5t-22.5 -51.5l-11 -51h94l-15 -74h-94l-99 -464h-114zM492 0h-60q-70 0 -97.5 16t-27.5 60q0 22 8 62l125 587h114l-121 -570q-4 -17 -4 -34q0 -24 14 -32.5t48 -8.5h18z
" />
    <glyph glyph-name="germandbls.ss03" horiz-adv-x="518" 
d="M-42 -175l148 696q23 115 80 162t157 47q81 0 131 -35t50 -101q0 -84 -39.5 -130t-99.5 -60q95 -22 95 -126q0 -123 -63 -200.5t-194 -77.5h-58l16 74h44q70 0 104.5 54.5t34.5 141.5q0 46 -23.5 67.5t-74.5 21.5h-28l16 75h23q60 0 95.5 37t35.5 110t-70 73
q-48 0 -75 -29.5t-41 -98.5l-149 -701h-115z" />
    </font>
</defs>
</svg>
