<?xml version="1.0" standalone="no"?>
<!DOCTYPE svg PUBLIC "-//W3C//DTD SVG 1.1//EN" "http://www.w3.org/Graphics/SVG/1.1/DTD/svg11.dtd" >
<svg xmlns="http://www.w3.org/2000/svg" xmlns:xlink="http://www.w3.org/1999/xlink" version="1.1">
<metadata>
Created by FontForge 20170731 at Sun Jul 24 18:22:13 2016
 By Aleksey,,,
Copyright (c) 2015 Swiss Typefaces. All rights reserved.
</metadata>
<defs>
<font id="SuisseIntlCondensed-Light" horiz-adv-x="548" >
  <font-face 
    font-family="Suisse Int'l Condensed"
    font-weight="300"
    font-stretch="condensed"
    units-per-em="1000"
    panose-1="2 11 3 6 0 0 0 0 0 0"
    ascent="800"
    descent="-200"
    x-height="538"
    cap-height="725"
    bbox="-63 -233 1070 932"
    underline-thickness="50"
    underline-position="-210"
    unicode-range="U+0020-FB02"
  />
<missing-glyph horiz-adv-x="500" 
d="M0 0v725h500v-725h-500zM239 362l-220 334v-667zM260 362l221 -333v667zM250 346l-217 -327h433zM33 706l217 -328l216 328h-433z" />
    <glyph glyph-name=".notdef" horiz-adv-x="500" 
d="M0 0v725h500v-725h-500zM239 362l-220 334v-667zM260 362l221 -333v667zM250 346l-217 -327h433zM33 706l217 -328l216 328h-433z" />
    <glyph glyph-name=".null" horiz-adv-x="0" 
 />
    <glyph glyph-name="nonmarkingreturn" horiz-adv-x="333" 
 />
    <glyph glyph-name="space" unicode=" " horiz-adv-x="191" 
 />
    <glyph glyph-name="exclam" unicode="!" horiz-adv-x="264" 
d="M112 183l-12 334v208h64v-208l-12 -334h-40zM101 0v114h62v-114h-62z" />
    <glyph glyph-name="quotedbl" unicode="&#x22;" horiz-adv-x="283" 
d="M55 485l-13 240h67l-14 -240h-40zM187 485l-13 240h67l-14 -240h-40z" />
    <glyph glyph-name="numbersign" unicode="#" horiz-adv-x="574" 
d="M301 0l30 221h-138l-30 -221h-53l30 221h-123l8 51h122l28 200h-121l6 51h122l28 202h53l-28 -202h138l28 202h52l-28 -202h122l-7 -51h-122l-28 -200h122l-7 -51h-122l-30 -221h-52zM228 472l-28 -200h138l28 200h-138z" />
    <glyph glyph-name="dollar" unicode="$" horiz-adv-x="499" 
d="M232 -101v89q-194 17 -194 231v4h61v-4q0 -90 42 -136t116 -46q70 0 106.5 36.5t36.5 99.5q0 61 -27 94t-90 63l-100 45q-31 14 -51 27t-40.5 34.5t-31 52.5t-10.5 73q0 80 49 126t133 50v85h39v-86q78 -9 124.5 -59.5t46.5 -138.5v-4h-62v4q0 67 -36.5 107t-99.5 40
q-62 0 -97.5 -32.5t-35.5 -87.5q0 -56 20.5 -83.5t66.5 -50.5l104 -48q42 -19 63.5 -31.5t48 -36t38 -56.5t11.5 -78q0 -90 -49 -140.5t-143 -54.5v-88h-39z" />
    <glyph glyph-name="percent" unicode="%" horiz-adv-x="792" 
d="M248 0l255 725h41l-255 -725h-41zM155 343q44 0 58 38.5t14 126.5v25q0 87 -14 126t-58 39t-57.5 -38.5t-13.5 -126.5v-25q0 -59 4 -91t20 -53t47 -21zM155 309q-67 0 -94.5 43.5t-27.5 142.5v50q0 100 27.5 143.5t94.5 43.5q68 0 95.5 -43.5t27.5 -143.5v-50
q0 -99 -27.5 -142.5t-95.5 -43.5zM636 26q44 0 58 39t14 126v25q0 87 -14 126t-58 39t-57.5 -38.5t-13.5 -126.5v-25q0 -59 4 -91t20 -53t47 -21zM636 -8q-67 0 -94.5 43.5t-27.5 142.5v50q0 100 27.5 143.5t94.5 43.5q68 0 95.5 -43.5t27.5 -143.5v-50q0 -99 -27.5 -142.5
t-95.5 -43.5z" />
    <glyph glyph-name="ampersand" unicode="&#x26;" horiz-adv-x="578" 
d="M231 -13q-96 0 -151.5 57t-55.5 140q0 67 30.5 113t102.5 99l30 21q-42 56 -60 96.5t-18 88.5q0 63 40 99.5t107 36.5q65 0 103.5 -34.5t38.5 -98.5q0 -56 -35 -99.5t-103 -94.5l-1 -1l167 -221q28 67 32 209h54q-5 -164 -51 -255l108 -143h-69l-70 93
q-75 -106 -199 -106zM235 35q110 0 164 99l-183 244l-28 -20q-56 -42 -80 -78t-24 -93q0 -66 42.5 -109t108.5 -43zM165 597q0 -39 14 -69t51 -79q52 37 82.5 73.5t30.5 81.5q0 39 -22 62.5t-66 23.5q-41 0 -65.5 -23.5t-24.5 -69.5z" />
    <glyph glyph-name="quotesingle" unicode="'" horiz-adv-x="151" 
d="M55 485l-13 240h67l-14 -240h-40z" />
    <glyph glyph-name="parenleft" unicode="(" horiz-adv-x="220" 
d="M223 -175h-52q-52 82 -88.5 200t-36.5 250t36.5 250t88.5 200h52q-119 -208 -119 -450t119 -450z" />
    <glyph glyph-name="parenright" unicode=")" horiz-adv-x="220" 
d="M48 -175h-52q118 203 118 450t-118 450h52q53 -83 89.5 -201t36.5 -249t-36.5 -249t-89.5 -201z" />
    <glyph glyph-name="asterisk" unicode="*" horiz-adv-x="374" 
d="M113 431l-38 25l75 103l-122 43l14 43l122 -43v123h46v-123l123 42l14 -43l-123 -41l75 -103l-35 -26l-77 103z" />
    <glyph glyph-name="plus" unicode="+" 
d="M247 0v243h-214v53h214v242h54v-242h214v-53h-214v-243h-54z" />
    <glyph glyph-name="comma" unicode="," horiz-adv-x="218" 
d="M78 114h62v-104q0 -30 -1.5 -49t-7 -41.5t-15.5 -35.5t-28.5 -23.5t-45.5 -13.5v62q25 6 30.5 23.5t5.5 76.5v105z" />
    <glyph glyph-name="hyphen" unicode="-" horiz-adv-x="328" 
d="M50 242v58h228v-58h-228z" />
    <glyph glyph-name="period" unicode="." horiz-adv-x="218" 
d="M78 0v114h62v-114h-62z" />
    <glyph glyph-name="slash" unicode="/" horiz-adv-x="307" 
d="M0 0l246 725h61l-247 -725h-60z" />
    <glyph glyph-name="zero" unicode="0" horiz-adv-x="526" 
d="M263 36q46 0 75.5 19.5t44.5 62t20.5 94t5.5 132.5v37q0 163 -29 236t-117 73t-117 -73t-29 -236v-37q0 -81 5.5 -132.5t20.5 -94t44.5 -62t75.5 -19.5zM263 -13q-113 0 -161.5 79t-48.5 255v83q0 176 48.5 255t161.5 79q115 0 162.5 -78.5t47.5 -255.5v-83
q0 -177 -47.5 -255.5t-162.5 -78.5z" />
    <glyph glyph-name="one" unicode="1" horiz-adv-x="298" 
d="M157 0v583h-147v42q41 0 61.5 0.5t41 4.5t27.5 8.5t15 18.5t10 27t6 41h47v-725h-61z" />
    <glyph glyph-name="two" unicode="2" horiz-adv-x="451" 
d="M33 0v51l81 103q14 18 48 60.5t49.5 63t42.5 57.5t40.5 60.5t28.5 54.5t21.5 57.5t6.5 52.5q0 131 -125 131q-65 0 -97.5 -43t-32.5 -121v-6h-59v5q0 102 49 157t143 55q84 0 134 -42.5t50 -133.5q0 -55 -35 -126.5t-65 -113t-114 -149.5q-21 -28 -32 -42l-63 -79h312
v-52h-383z" />
    <glyph glyph-name="three" unicode="3" horiz-adv-x="481" 
d="M224 -13q-95 0 -144 50.5t-49 140.5v4h59v-4q0 -63 34 -102.5t100 -39.5q147 0 147 157q0 80 -42 119.5t-136 39.5h-36v50h35q77 0 116.5 35.5t39.5 114.5q0 139 -126 139q-121 0 -121 -143v-4h-59v4q0 89 46.5 139.5t134.5 50.5q85 0 136.5 -44t51.5 -140
q0 -139 -118 -173q65 -12 103 -60.5t38 -125.5q0 -208 -210 -208z" />
    <glyph glyph-name="four" unicode="4" horiz-adv-x="490" 
d="M317 0v195h-305v49l306 481h60v-478h83v-52h-83v-195h-61zM67 247h250v391z" />
    <glyph glyph-name="five" unicode="5" horiz-adv-x="484" 
d="M230 -13q-94 0 -143.5 51t-49.5 140v4h59v-4q0 -67 34 -105t100 -38q72 0 108.5 47t36.5 137v30q0 183 -138 183q-95 0 -134 -104l-54 2l40 395h331v-51h-284l-27 -270q16 32 54.5 54t90.5 22q85 0 134 -57.5t49 -165.5v-46q0 -108 -54.5 -166t-152.5 -58z" />
    <glyph glyph-name="six" unicode="6" horiz-adv-x="512" 
d="M259 -13q-206 0 -206 268v99q0 199 47.5 291.5t170.5 92.5q87 0 134.5 -52t47.5 -135v-5h-59v4q0 64 -31 102.5t-94 38.5q-83 0 -119 -73.5t-36 -223.5v-19q11 38 52.5 70t101.5 32q88 0 142 -58t54 -167v-40q0 -110 -56.5 -167.5t-148.5 -57.5zM258 35q68 0 105.5 46
t37.5 136v26q0 91 -38 138.5t-105 47.5t-105.5 -49t-38.5 -140v-19q0 -91 38.5 -138.5t105.5 -47.5z" />
    <glyph glyph-name="seven" unicode="7" horiz-adv-x="424" 
d="M147 0h-63q18 226 84.5 386.5t194.5 287.5h-352v51h412v-51q-133 -129 -197.5 -288t-78.5 -386z" />
    <glyph glyph-name="eight" unicode="8" horiz-adv-x="518" 
d="M259 -13q-103 0 -162 52t-59 160q0 83 39.5 128t94.5 62q-46 14 -80 56t-34 111q0 90 54 136t147 46t147 -46t54 -136q0 -69 -34 -111t-80 -56q55 -17 94.5 -62t39.5 -128q0 -108 -59 -160t-162 -52zM259 35q69 0 113.5 40t44.5 114v19q0 74 -44.5 115t-113.5 41
t-113.5 -40t-44.5 -115v-20q0 -74 44.5 -114t113.5 -40zM259 409q65 0 101 33.5t36 100.5v14q0 67 -36 100.5t-101 33.5t-101.5 -33.5t-36.5 -100.5v-16q0 -66 36.5 -99t101.5 -33z" />
    <glyph glyph-name="nine" unicode="9" horiz-adv-x="511" 
d="M241 -13q-87 0 -133.5 52t-46.5 135v6h59v-5q0 -64 30.5 -102t92.5 -38q82 0 118 73t36 223v19q-11 -38 -52.5 -70t-101.5 -32q-88 0 -142 58t-54 167v40q0 110 56 167.5t148 57.5q207 0 207 -268v-99q0 -199 -47.5 -291.5t-169.5 -92.5zM253 296q67 0 105.5 49t38.5 140
v19q0 91 -38.5 139t-105.5 48q-68 0 -105.5 -46.5t-37.5 -136.5v-26q0 -91 38 -138.5t105 -47.5z" />
    <glyph glyph-name="colon" unicode=":" horiz-adv-x="218" 
d="M78 424v114h62v-114h-62zM78 0v114h62v-114h-62z" />
    <glyph glyph-name="semicolon" unicode=";" horiz-adv-x="218" 
d="M78 114h62v-104q0 -30 -1.5 -49t-7 -41.5t-15.5 -35.5t-28.5 -23.5t-45.5 -13.5v62q25 6 30.5 23.5t5.5 76.5v105zM78 424v114h62v-114h-62z" />
    <glyph glyph-name="less" unicode="&#x3c;" 
d="M476 7l-403 235v55l403 236v-59l-341 -204l341 -203v-60z" />
    <glyph glyph-name="equal" unicode="=" 
d="M65 132v52h418v-52h-418zM65 354v52h418v-52h-418z" />
    <glyph glyph-name="greater" unicode="&#x3e;" 
d="M476 242l-403 -235v60l342 203l-342 204v59l403 -236v-55z" />
    <glyph glyph-name="question" unicode="?" horiz-adv-x="450" 
d="M170 183v44q0 67 19 99.5t73 77.5q41 35 62.5 70.5t21.5 85.5q0 131 -123 131q-128 0 -128 -164v-4h-59v4q0 102 47.5 156.5t139.5 54.5q185 0 185 -178q0 -61 -28 -105t-75 -84q-45 -37 -60 -63t-15 -82v-43h-60zM169 0v114h62v-114h-62z" />
    <glyph glyph-name="at" unicode="@" horiz-adv-x="761" 
d="M380 -13q-151 0 -239.5 102.5t-88.5 263.5q0 163 98.5 273.5t247.5 110.5q137 0 222.5 -86.5t85.5 -236.5q0 -115 -49 -182.5t-117 -67.5q-49 0 -70 32.5t-15 82.5q-40 -105 -130 -110q-47 0 -82 44t-35 125q0 96 50 167.5t123 71.5q41 0 64.5 -29t30.5 -68q0 2 5 39
t5 38h42l-36 -232q-9 -61 1.5 -90.5t48.5 -29.5q51 0 85.5 56t34.5 150q0 134 -77 209.5t-189 75.5q-125 0 -212 -101t-87 -243q0 -140 79 -231.5t206 -91.5q96 0 159 38l16 -38q-82 -42 -177 -42zM330 213q53 0 89 59.5t36 138.5q0 57 -21 89t-53 32q-50 0 -86.5 -57
t-36.5 -136q0 -62 20.5 -94t51.5 -32z" />
    <glyph glyph-name="A" unicode="A" horiz-adv-x="517" 
d="M11 0l209 725h75l211 -725h-65l-58 208h-252l-58 -208h-62zM257 662l-112 -403h224z" />
    <glyph glyph-name="B" unicode="B" horiz-adv-x="512" 
d="M77 0v725h149q111 0 169.5 -40t58.5 -140q0 -63 -31.5 -105t-89.5 -59q66 -13 105 -57t39 -119q0 -205 -235 -205h-165zM141 49h98q91 0 132 39.5t41 116.5q0 78 -41 112.5t-138 34.5h-92v-303zM141 401h88q161 0 161 139q0 72 -40.5 104.5t-120.5 32.5h-88v-276z" />
    <glyph glyph-name="C" unicode="C" horiz-adv-x="521" 
d="M274 -13q-118 0 -173 80t-55 254v83q0 174 55 254t173 80q103 0 157.5 -61t54.5 -174v-3h-63v3q0 185 -150 185q-91 0 -126 -75.5t-35 -232.5v-34q0 -157 35 -232.5t126 -75.5q150 0 150 185v3h63v-3q0 -113 -54.5 -174.5t-157.5 -61.5z" />
    <glyph glyph-name="D" unicode="D" horiz-adv-x="545" 
d="M141 49h95q102 0 149.5 69t47.5 228v34q0 159 -47.5 228t-149.5 69h-95v-628zM77 0v725h158q264 0 264 -324v-78q0 -172 -69 -247.5t-195 -75.5h-158z" />
    <glyph glyph-name="E" unicode="E" horiz-adv-x="450" 
d="M77 0v725h353v-54h-289v-268h265v-54h-265v-295h289v-54h-353z" />
    <glyph glyph-name="F" unicode="F" horiz-adv-x="425" 
d="M77 0v725h333v-54h-269v-268h245v-54h-245v-349h-64z" />
    <glyph glyph-name="G" unicode="G" horiz-adv-x="546" 
d="M268 -13q-114 0 -168 80.5t-54 253.5v83q0 174 55 254t173 80q104 0 158.5 -61t54.5 -171v-2h-63v2q0 182 -150 182q-92 0 -127 -75.5t-35 -232.5v-34q0 -157 35 -232.5t127 -75.5q82 0 119 59t37 174v34h-190v52h248v-357h-51l-1 102q-50 -115 -168 -115z" />
    <glyph glyph-name="H" unicode="H" horiz-adv-x="569" 
d="M77 0v725h64v-322h287v322h64v-725h-64v349h-287v-349h-64z" />
    <glyph glyph-name="I" unicode="I" horiz-adv-x="218" 
d="M77 0v725h64v-725h-64z" />
    <glyph glyph-name="J" unicode="J" horiz-adv-x="425" 
d="M183 -13q-173 0 -173 211v6h64v-6q0 -82 24 -121t84 -39t84.5 40t24.5 120v527h64v-527q0 -103 -40.5 -157t-131.5 -54z" />
    <glyph glyph-name="K" unicode="K" horiz-adv-x="505" 
d="M437 0l-208 368l-88 -125v-243h-64v725h64v-389l272 389h67l-212 -301l238 -424h-69z" />
    <glyph glyph-name="L" unicode="L" horiz-adv-x="435" 
d="M77 0v725h64v-671h292v-54h-356z" />
    <glyph glyph-name="M" unicode="M" horiz-adv-x="713" 
d="M77 0v725h97l183 -651l183 651h96v-725h-61v655h-2l-7 -33l-179 -622h-61l-180 622l-6 33h-2v-655h-61z" />
    <glyph glyph-name="N" unicode="N" horiz-adv-x="571" 
d="M77 0v725h81l275 -639v639h61v-725h-81l-275 639v-639h-61z" />
    <glyph glyph-name="O" unicode="O" horiz-adv-x="555" 
d="M277 38q92 0 129 76t37 232v34q0 156 -37 232t-129 76t-128.5 -76t-36.5 -232v-34q0 -156 36.5 -232t128.5 -76zM277 -13q-118 0 -174.5 80.5t-56.5 253.5v83q0 173 56.5 253.5t174.5 80.5q119 0 175.5 -80.5t56.5 -253.5v-83q0 -173 -56.5 -253.5t-175.5 -80.5z" />
    <glyph glyph-name="P" unicode="P" horiz-adv-x="491" 
d="M77 0v725h142q135 0 195.5 -42.5t60.5 -164.5t-60.5 -165.5t-195.5 -43.5h-78v-309h-64zM141 359h77q103 0 146.5 31.5t43.5 127.5t-43.5 127.5t-146.5 31.5h-77v-318z" />
    <glyph glyph-name="Q" unicode="Q" horiz-adv-x="555" 
d="M277 -13q-118 0 -174.5 80.5t-56.5 253.5v83q0 173 56.5 253.5t174.5 80.5q119 0 175.5 -80.5t56.5 -253.5v-83q0 -217 -93 -292l71 -93l-39 -31l-76 99q-45 -17 -95 -17zM277 38q37 0 60 10l-53 70l41 32l55 -73q63 64 63 269v34q0 156 -37 232t-129 76t-128.5 -76
t-36.5 -232v-34q0 -156 36.5 -232t128.5 -76z" />
    <glyph glyph-name="R" unicode="R" horiz-adv-x="521" 
d="M429 0l-132 337q-40 -5 -78 -5h-78v-332h-64v725h144q138 0 198 -42t60 -154q0 -79 -29.5 -121t-92.5 -60l139 -348h-67zM141 379h83q101 0 144.5 30t43.5 118q0 89 -43.5 119.5t-144.5 30.5h-83v-298z" />
    <glyph glyph-name="S" unicode="S" horiz-adv-x="500" 
d="M258 -13q-104 0 -163 59t-59 173v6h64v-6q0 -90 41.5 -136t115.5 -46q71 0 107 35t36 97q0 60 -26.5 91.5t-90.5 62.5l-100 47q-31 14 -51 27t-41 34.5t-31.5 53t-10.5 73.5q0 82 54 131t141 49q90 0 144.5 -52t54.5 -147v-6h-62v6q0 67 -37 107t-100 40q-62 0 -97.5 -34
t-35.5 -90q0 -55 21.5 -83t66.5 -48l103 -48q40 -18 63.5 -31.5t49 -37.5t37.5 -57.5t12 -78.5q0 -93 -52.5 -142t-153.5 -49z" />
    <glyph glyph-name="T" unicode="T" horiz-adv-x="448" 
d="M192 0v671h-190v54h444v-54h-190v-671h-64z" />
    <glyph glyph-name="U" unicode="U" horiz-adv-x="552" 
d="M275 -13q-119 0 -162 58t-43 208v472h64v-487q0 -109 30.5 -154.5t110.5 -45.5t111.5 46t31.5 154v487h64v-472q0 -150 -43.5 -208t-163.5 -58z" />
    <glyph glyph-name="V" unicode="V" horiz-adv-x="475" 
d="M201 0l-193 725h65l166 -652l166 652h62l-191 -725h-75z" />
    <glyph glyph-name="W" unicode="W" horiz-adv-x="722" 
d="M156 0l-141 725h60l125 -649l128 649h66l128 -649l124 649h61l-142 -725h-79l-125 642l-126 -642h-79z" />
    <glyph glyph-name="X" unicode="X" horiz-adv-x="482" 
d="M5 0l203 375l-188 350h67l155 -289l155 289h65l-188 -347l203 -378h-68l-169 317l-170 -317h-65z" />
    <glyph glyph-name="Y" unicode="Y" horiz-adv-x="481" 
d="M208 0v281l-198 444h64l167 -383l166 383h64l-199 -445v-280h-64z" />
    <glyph glyph-name="Z" unicode="Z" horiz-adv-x="460" 
d="M25 0v51l343 620h-323v54h392v-50l-343 -621h351v-54h-420z" />
    <glyph glyph-name="bracketleft" unicode="[" horiz-adv-x="237" 
d="M77 -175v900h155v-48h-101v-804h101v-48h-155z" />
    <glyph glyph-name="backslash" unicode="\" horiz-adv-x="307" 
d="M246 0l-246 725h61l246 -725h-61z" />
    <glyph glyph-name="bracketright" unicode="]" horiz-adv-x="237" 
d="M5 -175v48h100v804h-100v48h155v-900h-155z" />
    <glyph glyph-name="asciicircum" unicode="^" horiz-adv-x="433" 
d="M-16 338l205 387h56l204 -387h-61l-172 323l-172 -323h-60z" />
    <glyph glyph-name="underscore" unicode="_" horiz-adv-x="422" 
d="M15 -57v57h393v-57h-393z" />
    <glyph glyph-name="grave" unicode="`" horiz-adv-x="195" 
d="M125 608l-100 117h79l66 -117h-45z" />
    <glyph glyph-name="a" unicode="a" horiz-adv-x="428" 
d="M174 -13q-61 0 -98.5 39.5t-37.5 105.5v7q0 45 20 75.5t81 62.5t175 66v33q0 71 -27.5 100t-76.5 29t-77 -31.5t-28 -88.5v-7h-59v7q0 79 46 122t120 43q78 0 120.5 -37t42.5 -137v-40q0 -18 -0.5 -61t-0.5 -63v-44q0 -107 3 -138l2 -30h-58l-1 84q-38 -97 -146 -97z
M189 35q127 0 127 174v89q-132 -39 -173.5 -70.5t-41.5 -87.5v-7q0 -45 24.5 -71.5t63.5 -26.5z" />
    <glyph glyph-name="b" unicode="b" horiz-adv-x="464" 
d="M265 -13q-52 0 -89 29.5t-50 76.5v-93h-61v725h61v-284q13 47 50 77t89 30q158 0 158 -239v-82q0 -240 -158 -240zM251 35q60 0 84.5 52.5t24.5 164.5v31q0 112 -24.5 164.5t-84.5 52.5t-94 -57t-34 -176q0 -118 34 -175t94 -57z" />
    <glyph glyph-name="c" unicode="c" horiz-adv-x="421" 
d="M220 -13q-94 0 -136.5 59t-42.5 185v73q0 125 42.5 184.5t136.5 59.5q76 0 120 -47t44 -133v-5h-59v5q0 133 -105 133q-47 0 -73.5 -27.5t-34.5 -70.5t-8 -114v-44q0 -52 4.5 -87.5t16.5 -65t35.5 -43.5t59.5 -14q105 0 105 132v5h59v-5q0 -86 -44 -133t-120 -47z" />
    <glyph glyph-name="d" unicode="d" horiz-adv-x="464" 
d="M199 -13q-158 0 -158 240v82q0 239 158 239q52 0 89 -30t50 -77v284h61v-725h-61v93q-13 -47 -50 -76.5t-89 -29.5zM212 35q60 0 94.5 57t34.5 175q0 119 -34.5 176t-94.5 57q-59 0 -83.5 -52.5t-24.5 -164.5v-31q0 -112 24.5 -164.5t83.5 -52.5z" />
    <glyph glyph-name="e" unicode="e" horiz-adv-x="434" 
d="M226 -13q-95 0 -140 59.5t-45 183.5v75q0 124 43.5 183.5t137.5 59.5t135 -57t41 -182v-42h-294v-22q0 -104 26.5 -157t95.5 -53q54 0 82 33.5t28 94.5v5h59v-5q0 -86 -44.5 -131t-124.5 -45zM104 314v-3h231v5q0 95 -23 140t-89 45q-68 0 -93.5 -48t-25.5 -139z" />
    <glyph glyph-name="f" unicode="f" horiz-adv-x="246" 
d="M84 0v492h-74v46h74v65q0 70 24.5 96t93.5 26h41v-45h-29q-45 0 -57 -15t-12 -68v-59h98v-46h-98v-492h-61z" />
    <glyph glyph-name="g" unicode="g" horiz-adv-x="466" 
d="M225 -188q-87 0 -125.5 43.5t-38.5 110.5v5h60v-5q0 -107 104 -107q62 0 88 33.5t26 109.5v116q-13 -48 -49 -77.5t-88 -29.5q-78 0 -119.5 62.5t-41.5 181.5v64q0 229 161 229q51 0 87.5 -30t49.5 -77v97h62v-522q0 -100 -40.5 -152t-135.5 -52zM213 59q129 0 129 219
q0 113 -34.5 167.5t-94.5 54.5q-61 0 -85 -48t-24 -158v-12q0 -111 24.5 -167t84.5 -56z" />
    <glyph glyph-name="h" unicode="h" horiz-adv-x="450" 
d="M65 0v725h61v-284q14 46 51 76.5t88 30.5q73 0 102 -45.5t29 -147.5v-355h-61v336q0 86 -18 124.5t-69 38.5q-56 0 -89 -52.5t-33 -151.5v-295h-61z" />
    <glyph glyph-name="i" unicode="i" horiz-adv-x="191" 
d="M65 0v538h61v-538h-61zM65 623v102h61v-102h-61z" />
    <glyph glyph-name="j" unicode="j" horiz-adv-x="191" 
d="M-21 -175v45h18q46 0 57 15.5t11 72.5v580h61v-584q0 -76 -24 -102.5t-95 -26.5h-28zM65 623v102h61v-102h-61z" />
    <glyph glyph-name="k" unicode="k" horiz-adv-x="416" 
d="M349 0l-149 269l-74 -102v-167h-61v725h61v-470l206 283h64l-158 -217l178 -321h-67z" />
    <glyph glyph-name="l" unicode="l" horiz-adv-x="191" 
d="M65 0v725h61v-725h-61z" />
    <glyph glyph-name="m" unicode="m" horiz-adv-x="693" 
d="M65 0v538h61v-97q13 45 48.5 75.5t82.5 30.5q54 0 82.5 -27t36.5 -85q15 49 52 80.5t86 31.5q70 0 97.5 -46.5t27.5 -148.5v-352h-61v336q0 84 -16.5 123.5t-62.5 39.5q-53 0 -84.5 -51t-31.5 -147v-301h-61v341q0 82 -17 120t-63 38q-52 0 -84 -53.5t-32 -150.5v-295
h-61z" />
    <glyph glyph-name="n" unicode="n" horiz-adv-x="450" 
d="M65 0v538h61v-97q14 46 51 76.5t88 30.5q73 0 102 -45.5t29 -147.5v-355h-61v336q0 86 -18 124.5t-69 38.5q-56 0 -89 -52.5t-33 -151.5v-295h-61z" />
    <glyph glyph-name="o" unicode="o" horiz-adv-x="440" 
d="M220 35q68 0 92 53.5t24 163.5v31q0 110 -24 164t-92 54t-92 -53.5t-24 -164.5v-31q0 -111 24 -164t92 -53zM220 -13q-94 0 -136.5 59t-42.5 185v73q0 126 42.5 185t136.5 59q93 0 136 -59t43 -185v-73q0 -126 -43 -185t-136 -59z" />
    <glyph glyph-name="p" unicode="p" horiz-adv-x="464" 
d="M65 -175v713h61v-97q13 47 50 77t89 30q158 0 158 -239v-82q0 -240 -158 -240q-52 0 -89 29.5t-50 76.5v-268h-61zM251 35q60 0 84.5 52.5t24.5 164.5v31q0 112 -24.5 164.5t-84.5 52.5t-94 -57t-34 -176q0 -118 34 -175t94 -57z" />
    <glyph glyph-name="q" unicode="q" horiz-adv-x="463" 
d="M338 -175v268q-13 -47 -50 -76.5t-89 -29.5q-158 0 -158 240v82q0 239 158 239q52 0 89 -30t50 -77v97h61v-713h-61zM212 35q60 0 94.5 57t34.5 175q0 119 -34.5 176t-94.5 57q-59 0 -83.5 -52.5t-24.5 -164.5v-31q0 -112 24.5 -164.5t83.5 -52.5z" />
    <glyph glyph-name="r" unicode="r" horiz-adv-x="268" 
d="M65 0v538h61v-110q30 110 128 110h20v-60h-29q-59 0 -89 -44t-30 -142v-292h-61z" />
    <glyph glyph-name="s" unicode="s" horiz-adv-x="407" 
d="M205 -13q-79 0 -123 45t-44 130v5h59v-6q0 -126 108 -126q50 0 79 25t29 67q0 41 -16 64.5t-64 44.5l-70 32q-54 25 -81 56.5t-27 87.5q0 62 42.5 99t110.5 37t111 -41.5t43 -111.5v-4h-58v4q0 53 -27.5 79.5t-69.5 26.5q-41 0 -68 -21.5t-27 -62.5q0 -33 16 -54.5
t61 -41.5l68 -31q58 -26 86 -60.5t28 -94.5q0 -68 -45 -108t-121 -40z" />
    <glyph glyph-name="t" unicode="t" horiz-adv-x="246" 
d="M230 0h-44q-67 0 -88.5 25.5t-21.5 97.5v369h-74v46h74v131h61v-131h93v-46h-93v-360q0 -55 12 -70.5t57 -15.5h24v-46z" />
    <glyph glyph-name="u" unicode="u" horiz-adv-x="444" 
d="M184 -13q-73 0 -101.5 46.5t-28.5 148.5v356h61v-339q0 -84 17.5 -123.5t66.5 -39.5q55 0 87 52.5t32 151.5v298h61v-538h-59v94q-13 -46 -49 -76.5t-87 -30.5z" />
    <glyph glyph-name="v" unicode="v" horiz-adv-x="378" 
d="M156 0l-146 538h62l119 -467l117 467h60l-145 -538h-67z" />
    <glyph glyph-name="w" unicode="w" horiz-adv-x="560" 
d="M120 0l-100 538h56l79 -458l95 458h59l95 -458l80 458h56l-101 -538h-65l-94 465l-94 -465h-66z" />
    <glyph glyph-name="x" unicode="x" horiz-adv-x="366" 
d="M3 0l149 277l-138 261h64l106 -201l108 201h58l-137 -256l150 -282h-64l-118 222l-119 -222h-59z" />
    <glyph glyph-name="y" unicode="y" horiz-adv-x="381" 
d="M41 -175v46h24q41 0 56.5 14.5t30.5 72.5l11 42l-153 538h62l121 -454l116 454h62l-150 -547q-30 -110 -55.5 -138t-96.5 -28h-28z" />
    <glyph glyph-name="z" unicode="z" horiz-adv-x="359" 
d="M15 0v45l258 446h-235v47h301v-45l-258 -446h263v-47h-329z" />
    <glyph glyph-name="braceleft" unicode="{" horiz-adv-x="247" 
d="M242 -175h-22q-77 0 -104.5 27.5t-27.5 102.5v179q0 54 -14.5 84.5t-57.5 32.5v51q43 2 57.5 32.5t14.5 84.5v176q0 75 27.5 102.5t104.5 27.5h22v-50h-11q-56 0 -71 -16t-15 -69v-176q0 -66 -18 -96t-56 -40v-3q38 -10 56 -40t18 -96v-179q0 -54 15 -70t71 -16h11v-49z
" />
    <glyph glyph-name="bar" unicode="|" horiz-adv-x="213" 
d="M77 -90v815h59v-815h-59z" />
    <glyph glyph-name="braceright" unicode="}" horiz-adv-x="246" 
d="M26 -175h-21v49h11q55 0 70.5 16.5t15.5 69.5v179q0 66 17.5 96t55.5 40v3q-37 10 -55 40t-18 96v176q0 53 -15.5 69t-70.5 16h-11v50h21q77 0 104.5 -27.5t27.5 -102.5v-176q0 -54 14.5 -84.5t57.5 -32.5v-51q-43 -2 -57.5 -32.5t-14.5 -84.5v-179q0 -75 -27.5 -102.5
t-104.5 -27.5z" />
    <glyph glyph-name="asciitilde" unicode="~" 
d="M89 206h-53q6 63 38.5 96t87.5 33q48 0 119 -37t103 -37q68 0 75 74h54q-14 -129 -128 -129q-41 0 -112 37.5t-108 37.5q-66 0 -76 -75z" />
    <glyph glyph-name="uni00A0" unicode="&#xa0;" horiz-adv-x="191" 
 />
    <glyph glyph-name="exclamdown" unicode="&#xa1;" horiz-adv-x="264" 
d="M100 -175v196l11 326h40l13 -326v-196h-64zM101 424v114h62v-114h-62z" />
    <glyph glyph-name="cent" unicode="&#xa2;" horiz-adv-x="431" 
d="M203 -94v82q-85 5 -123.5 63.5t-38.5 179.5v73q0 119 38.5 178.5t123.5 64.5v73h37v-73q67 -7 105.5 -53t38.5 -126v-5h-59v5q0 133 -105 133q-69 0 -93 -52t-24 -160v-44q0 -107 24 -158.5t93 -51.5q105 0 105 132v5h59v-5q0 -80 -38.5 -126t-105.5 -53v-82h-37z" />
    <glyph glyph-name="sterling" unicode="&#xa3;" horiz-adv-x="514" 
d="M51 333v43h101l-24 44q-46 84 -46 142q0 90 53.5 133t137.5 43q93 0 144 -55t51 -156v-4h-59v5q0 78 -35 120.5t-101 42.5q-59 0 -94 -32.5t-35 -96.5q0 -24 8 -51t14.5 -41.5t26 -49.5t23.5 -44h169v-43h-149q17 -42 17 -80q0 -59 -33 -115t-78 -84l1 -1q41 21 83 21
q26 0 72.5 -18t76.5 -18q36 0 83 27l25 -44q-59 -35 -106 -35q-38 0 -89 18.5t-88 18.5q-63 0 -135 -34l-21 44q59 30 103.5 84.5t44.5 129.5q0 39 -19 86h-122z" />
    <glyph glyph-name="currency" unicode="&#xa4;" horiz-adv-x="637" 
d="M96 97l-33 32l68 70q-52 67 -52 147q0 84 52 149l-68 68l33 32l66 -67q68 57 154 57q88 0 157 -58l69 68l32 -32l-69 -70q50 -66 50 -147t-51 -146l70 -71l-32 -32l-70 70q-68 -57 -156 -57q-89 0 -151 56zM316 161q79 0 132 54t53 131q0 80 -53 135t-132 55t-129.5 -55
t-50.5 -135q0 -78 50.5 -131.5t129.5 -53.5z" />
    <glyph glyph-name="yen" unicode="&#xa5;" horiz-adv-x="479" 
d="M80 224v43h129v14l-198 444h61l168 -385l168 385h61l-199 -445v-13h129v-43h-129v-82h129v-43h-129v-99h-61v99h-129v43h129v82h-129z" />
    <glyph glyph-name="brokenbar" unicode="&#xa6;" horiz-adv-x="189" 
d="M65 -90v305h59v-305h-59zM65 420v305h59v-305h-59z" />
    <glyph glyph-name="section" unicode="&#xa7;" horiz-adv-x="514" 
d="M262 -187q-85 0 -139 48.5t-54 134.5v4h60v-4q0 -63 36.5 -100t95.5 -37q58 0 93.5 26.5t35.5 80.5q0 44 -23 72.5t-75 53.5l-121 58q-65 31 -98 67.5t-33 93.5q0 86 94 142q-57 50 -57 130q0 73 48 114t129 41t127.5 -47t46.5 -128v-4h-60v5q0 53 -29.5 90t-84.5 37
q-52 0 -84.5 -25t-32.5 -81q0 -45 20.5 -74t70.5 -52l119 -57q64 -30 96 -67t32 -95q0 -86 -91 -140q67 -55 67 -132q0 -72 -52 -113.5t-137 -41.5zM314 142l27 -14q32 17 52.5 45.5t20.5 63.5q0 38 -21.5 66t-75.5 53l-111 53l-31 15q-32 -16 -53 -44.5t-21 -63.5
q0 -74 100 -120z" />
    <glyph glyph-name="dieresis" unicode="&#xa8;" horiz-adv-x="306" 
d="M25 624v101h57v-101h-57zM223 624v101h58v-101h-58z" />
    <glyph glyph-name="copyright" unicode="&#xa9;" horiz-adv-x="838" 
d="M420 26q138 0 234.5 98t96.5 238t-96.5 238.5t-234.5 98.5t-234.5 -98.5t-96.5 -238.5t96.5 -238t234.5 -98zM420 -13q-154 0 -264 109.5t-110 265.5t110 266t264 110t264 -110t110 -266t-110 -265.5t-264 -109.5zM417 157q-69 0 -99.5 43t-30.5 139v48q0 96 30.5 139
t99.5 43q120 0 120 -131v-4h-52v3q0 94 -69 94q-43 0 -58.5 -38.5t-15.5 -119.5v-20q0 -82 15.5 -120t58.5 -38q35 0 52 21.5t17 71.5v3h52v-3q0 -131 -120 -131z" />
    <glyph glyph-name="ordfeminine" unicode="&#xaa;" horiz-adv-x="247" 
d="M96 430q-37 0 -58.5 23t-21.5 62v6q0 33 24 55q17 15 65 33l66 24v26q0 31 -12.5 43.5t-37.5 12.5q-54 0 -54 -57v-7h-45v7q0 44 26.5 67t73.5 23q49 0 73 -20.5t24 -77.5v-116q0 -72 3 -96h-45l-1 44q-24 -52 -80 -52zM112 464q61 0 61 88v51q-1 -1 -25 -10t-26 -10
q-31 -10 -43.5 -23t-12.5 -38v-6q0 -52 46 -52z" />
    <glyph glyph-name="guillemotleft" unicode="&#xab;" horiz-adv-x="338" 
d="M144 96l-123 143v74l123 143v-78l-88 -103l88 -103v-76zM283 96l-123 143v74l123 143v-78l-88 -103l88 -103v-76z" />
    <glyph glyph-name="logicalnot" unicode="&#xac;" 
d="M457 97v279h-461v53h516v-332h-55z" />
    <glyph glyph-name="uni00AD" unicode="&#xad;" horiz-adv-x="328" 
d="M50 242v58h228v-58h-228z" />
    <glyph glyph-name="registered" unicode="&#xae;" horiz-adv-x="838" 
d="M420 -13q-154 0 -264 109.5t-110 265.5t110 266t264 110t264 -110t110 -266t-110 -265.5t-264 -109.5zM420 26q138 0 234.5 98t96.5 238t-96.5 238.5t-234.5 98.5t-234.5 -98.5t-96.5 -238.5t96.5 -238t234.5 -98zM366 164h-51v398h89q76 0 109.5 -23.5t33.5 -87.5
q0 -78 -62 -99l72 -188h-51l-66 180q-22 -2 -30 -2h-44v-178zM366 524v-147h38q50 0 69.5 14.5t19.5 58.5t-19.5 59t-69.5 15h-38z" />
    <glyph glyph-name="overscore" unicode="&#xaf;" horiz-adv-x="273" 
d="M25 643v47h223v-47h-223z" />
    <glyph glyph-name="degree" unicode="&#xb0;" horiz-adv-x="333" 
d="M166 492q42 0 68.5 28t26.5 73t-26.5 73t-68.5 28t-68 -28.5t-26 -72.5t26 -72.5t68 -28.5zM166 447q-61 0 -102.5 42t-41.5 104q0 60 42 102.5t102 42.5q62 0 103.5 -42t41.5 -103q0 -62 -41.5 -104t-103.5 -42z" />
    <glyph glyph-name="plusminus" unicode="&#xb1;" 
d="M246 104v191h-218v52h218v188h56v-188h219v-52h-219v-191h-56zM28 0v52h493v-52h-493z" />
    <glyph glyph-name="twosuperior" unicode="&#xb2;" horiz-adv-x="270" 
d="M23 438v38l45 58q9 11 28 35t27.5 35t22.5 30.5t21 32t15 28.5t11 29.5t3 27.5q0 66 -61 66q-63 0 -63 -87v-3h-47v3q0 59 28.5 90.5t83.5 31.5q50 0 79 -24.5t29 -74.5q0 -30 -16.5 -66t-36 -63.5t-59.5 -79.5q-11 -14 -17 -22l-37 -47h167v-38h-223z" />
    <glyph glyph-name="threesuperior" unicode="&#xb3;" horiz-adv-x="287" 
d="M135 430q-111 0 -111 110v2h46v-2q0 -76 65 -76q73 0 73 83q0 41 -20.5 62.5t-68.5 21.5h-21v36h21q76 0 76 78q0 73 -61 73q-60 0 -60 -74v-2h-46v2q0 52 28 80.5t79 28.5q110 0 110 -106q0 -76 -64 -95q77 -18 77 -104q0 -118 -123 -118z" />
    <glyph glyph-name="acute" unicode="&#xb4;" horiz-adv-x="195" 
d="M25 608l67 117h78l-100 -117h-45z" />
    <glyph glyph-name="mu" unicode="&#xb5;" horiz-adv-x="455" 
d="M125 3v-19q0 -97 -8 -159h-61q9 70 9 150v563h61v-339q0 -84 17.5 -123.5t66.5 -39.5q55 0 87 52.5t32 151.5v298h61v-538h-59v94q-13 -46 -49 -76.5t-87 -30.5q-45 0 -70 16z" />
    <glyph glyph-name="mu" unicode="&#x3bc;" horiz-adv-x="455" 
d="M125 3v-19q0 -97 -8 -159h-61q9 70 9 150v563h61v-339q0 -84 17.5 -123.5t66.5 -39.5q55 0 87 52.5t32 151.5v298h61v-538h-59v94q-13 -46 -49 -76.5t-87 -30.5q-45 0 -70 16z" />
    <glyph glyph-name="paragraph" unicode="&#xb6;" horiz-adv-x="483" 
d="M181 -90v461q-73 0 -127 47t-54 128q0 88 58 133.5t162 45.5h175v-815h-48v771h-117v-771h-49z" />
    <glyph glyph-name="middot" unicode="&#xb7;" horiz-adv-x="217" 
d="M78 212v114h62v-114h-62z" />
    <glyph glyph-name="cedilla" unicode="&#xb8;" horiz-adv-x="226" 
d="M99 -192q-38 0 -74 12l11 33q24 -11 56 -11q61 0 61 39q0 37 -48 37q-25 0 -43 -9l-16 15l48 77h35l-33 -55q15 3 30 3q33 0 54 -17t21 -48q0 -37 -30 -56.5t-72 -19.5z" />
    <glyph glyph-name="onesuperior" unicode="&#xb9;" horiz-adv-x="186" 
d="M83 438v321h-78v33q57 0 69.5 7.5t18.5 46.5h38v-408h-48z" />
    <glyph glyph-name="ordmasculine" unicode="&#xba;" horiz-adv-x="258" 
d="M129 464q34 0 45.5 28t11.5 87v20q0 59 -11.5 86.5t-45.5 27.5t-45.5 -27.5t-11.5 -86.5v-20q0 -59 11.5 -87t45.5 -28zM129 430q-56 0 -81.5 34t-25.5 104v42q0 70 25.5 104t81.5 34t81.5 -34t25.5 -104v-42q0 -70 -25.5 -104t-81.5 -34z" />
    <glyph glyph-name="guillemotright" unicode="&#xbb;" horiz-adv-x="338" 
d="M55 96v76l87 103l-87 103v78l123 -143v-74zM194 96v76l87 103l-87 103v78l123 -143v-74z" />
    <glyph glyph-name="onequarter" unicode="&#xbc;" horiz-adv-x="646" 
d="M83 317v321h-78v32q57 0 69.5 7.5t18.5 47.5h38v-408h-48zM123 0l255 725h41l-255 -725h-41zM530 0v106h-164v37l164 265h47v-262h48v-40h-48v-106h-47zM405 146h125v197z" />
    <glyph glyph-name="onehalf" unicode="&#xbd;" horiz-adv-x="626" 
d="M83 317v321h-78v32q57 0 69.5 7.5t18.5 47.5h38v-408h-48zM123 0l255 725h41l-255 -725h-41zM379 0v38l45 58q9 11 28 35t27.5 35t22.5 30.5t21 32t15 28.5t11 29.5t3 27.5q0 66 -61 66q-63 0 -63 -87v-3h-47v3q0 59 28.5 90.5t83.5 31.5q50 0 79 -24.5t29 -74.5
q0 -30 -16.5 -66t-36 -63.5t-59.5 -79.5q-11 -14 -17 -22l-37 -47h167v-38h-223z" />
    <glyph glyph-name="threequarters" unicode="&#xbe;" horiz-adv-x="747" 
d="M135 309q-111 0 -111 110v2h46v-2q0 -76 65 -76q73 0 73 83q0 41 -20.5 62.5t-68.5 21.5h-21v36h21q76 0 76 78q0 73 -61 73q-60 0 -60 -74v-2h-46v2q0 52 28 80.5t79 28.5q110 0 110 -106q0 -76 -64 -95q77 -18 77 -104q0 -118 -123 -118zM224 0l255 725h41l-255 -725
h-41zM631 0v106h-164v37l164 265h47v-262h48v-40h-48v-106h-47zM506 146h125v197z" />
    <glyph glyph-name="questiondown" unicode="&#xbf;" horiz-adv-x="450" 
d="M226 -188q-83 0 -133.5 41t-50.5 131q0 60 27.5 102t76.5 83q47 43 57 59q18 31 18 87v37h59v-38q0 -67 -19.5 -101t-72.5 -78q-42 -34 -63 -67.5t-21 -83.5q0 -64 33 -95t90 -31q128 0 128 159v4h59v-4q0 -98 -48.5 -151.5t-139.5 -53.5zM219 424v114h62v-114h-62z" />
    <glyph glyph-name="Agrave" unicode="&#xc0;" horiz-adv-x="517" 
d="M11 0l209 725h75l211 -725h-65l-58 208h-252l-58 -208h-62zM257 662l-112 -403h224zM235 773l-113 113h84l77 -113h-48z" />
    <glyph glyph-name="Aacute" unicode="&#xc1;" horiz-adv-x="517" 
d="M11 0l209 725h75l211 -725h-65l-58 208h-252l-58 -208h-62zM257 662l-112 -403h224zM234 773l77 113h84l-113 -113h-48z" />
    <glyph glyph-name="Acircumflex" unicode="&#xc2;" horiz-adv-x="517" 
d="M11 0l209 725h75l211 -725h-65l-58 208h-252l-58 -208h-62zM257 662l-112 -403h224zM118 773l109 113h66l108 -113h-57l-85 75l-85 -75h-56z" />
    <glyph glyph-name="Atilde" unicode="&#xc3;" horiz-adv-x="517" 
d="M11 0l209 725h75l211 -725h-65l-58 208h-252l-58 -208h-62zM257 662l-112 -403h224zM170 784h-48q9 102 78 102q25 0 62 -27.5t52 -27.5q27 0 33 55h47q-10 -102 -77 -102q-26 0 -63 27.5t-50 27.5q-30 0 -34 -55z" />
    <glyph glyph-name="Adieresis" unicode="&#xc4;" horiz-adv-x="517" 
d="M11 0l209 725h75l211 -725h-65l-58 208h-252l-58 -208h-62zM257 662l-112 -403h224zM132 780v100h59v-100h-59zM329 780v100h59v-100h-59z" />
    <glyph glyph-name="Aring" unicode="&#xc5;" horiz-adv-x="517" 
d="M11 0l209 725h75l211 -725h-65l-58 208h-252l-58 -208h-62zM257 662l-112 -403h224zM259 895q-18 0 -31.5 -12.5t-13.5 -32.5q0 -19 13.5 -31.5t31.5 -12.5q19 0 32 12t13 32t-13 32.5t-32 12.5zM259 767q-36 0 -61.5 23.5t-25.5 59.5t25 59t62 23t62 -23t25 -59
t-25 -59.5t-62 -23.5z" />
    <glyph glyph-name="AE" unicode="&#xc6;" horiz-adv-x="729" 
d="M0 0l370 725h339v-54h-275v-269h252v-53h-252v-295h275v-54h-339v187h-211l-91 -187h-68zM370 620l-184 -378h184v378z" />
    <glyph glyph-name="Ccedilla" unicode="&#xc7;" horiz-adv-x="521" 
d="M274 -13q-118 0 -173 80t-55 254v83q0 174 55 254t173 80q103 0 157.5 -61t54.5 -174v-3h-63v3q0 185 -150 185q-91 0 -126 -75.5t-35 -232.5v-34q0 -157 35 -232.5t126 -75.5q150 0 150 185v3h63v-3q0 -113 -54.5 -174.5t-157.5 -61.5zM270 -192q-38 0 -74 12l11 33
q24 -11 56 -11q61 0 61 39q0 37 -48 37q-25 0 -43 -9l-16 15l48 77h35l-33 -55q13 3 30 3q33 0 54 -17t21 -48q0 -37 -30 -56.5t-72 -19.5z" />
    <glyph glyph-name="Egrave" unicode="&#xc8;" horiz-adv-x="450" 
d="M244 773l-113 113h84l77 -113h-48zM77 0v725h353v-54h-289v-268h265v-54h-265v-295h289v-54h-353z" />
    <glyph glyph-name="Eacute" unicode="&#xc9;" horiz-adv-x="450" 
d="M77 0v725h353v-54h-289v-268h265v-54h-265v-295h289v-54h-353zM214 773l77 113h84l-113 -113h-48z" />
    <glyph glyph-name="Ecircumflex" unicode="&#xca;" horiz-adv-x="450" 
d="M77 0v725h353v-54h-289v-268h265v-54h-265v-295h289v-54h-353zM113 773l109 113h66l108 -113h-57l-85 75l-85 -75h-56z" />
    <glyph glyph-name="Edieresis" unicode="&#xcb;" horiz-adv-x="450" 
d="M77 0v725h353v-54h-289v-268h265v-54h-265v-295h289v-54h-353zM127 780v100h59v-100h-59zM324 780v100h59v-100h-59z" />
    <glyph glyph-name="Igrave" unicode="&#xcc;" horiz-adv-x="218" 
d="M77 0v725h64v-725h-64zM88 773l-113 113h84l77 -113h-48z" />
    <glyph glyph-name="Iacute" unicode="&#xcd;" horiz-adv-x="218" 
d="M77 0v725h64v-725h-64zM87 773l77 113h84l-113 -113h-48z" />
    <glyph glyph-name="Icircumflex" unicode="&#xce;" horiz-adv-x="218" 
d="M-13 773l91 113h64l88 -113h-55l-66 75l-67 -75h-55zM77 0v725h64v-725h-64z" />
    <glyph glyph-name="Idieresis" unicode="&#xcf;" horiz-adv-x="218" 
d="M7 780v99h59v-99h-59zM152 780v99h59v-99h-59zM77 0v725h64v-725h-64z" />
    <glyph glyph-name="Eth" unicode="&#xd0;" horiz-adv-x="545" 
d="M0 343v54h77v328h158q264 0 264 -324v-78q0 -172 -69 -247.5t-195 -75.5h-158v343h-77zM141 49h95q102 0 149.5 69t47.5 228v34q0 159 -47.5 228t-149.5 69h-95v-280h157v-54h-157v-294z" />
    <glyph glyph-name="Ntilde" unicode="&#xd1;" horiz-adv-x="571" 
d="M200 784h-48q9 102 78 102q25 0 62 -27.5t52 -27.5q27 0 33 55h47q-10 -102 -77 -102q-26 0 -63 27.5t-50 27.5q-30 0 -34 -55zM77 0v725h81l275 -639v639h61v-725h-81l-275 639v-639h-61z" />
    <glyph glyph-name="Ograve" unicode="&#xd2;" horiz-adv-x="555" 
d="M264 773l-113 113h84l77 -113h-48zM277 38q92 0 129 76t37 232v34q0 156 -37 232t-129 76t-128.5 -76t-36.5 -232v-34q0 -156 36.5 -232t128.5 -76zM277 -13q-118 0 -174.5 80.5t-56.5 253.5v83q0 173 56.5 253.5t174.5 80.5q119 0 175.5 -80.5t56.5 -253.5v-83
q0 -173 -56.5 -253.5t-175.5 -80.5z" />
    <glyph glyph-name="Oacute" unicode="&#xd3;" horiz-adv-x="555" 
d="M277 38q92 0 129 76t37 232v34q0 156 -37 232t-129 76t-128.5 -76t-36.5 -232v-34q0 -156 36.5 -232t128.5 -76zM277 -13q-118 0 -174.5 80.5t-56.5 253.5v83q0 173 56.5 253.5t174.5 80.5q119 0 175.5 -80.5t56.5 -253.5v-83q0 -173 -56.5 -253.5t-175.5 -80.5zM245 773
l77 113h84l-113 -113h-48z" />
    <glyph glyph-name="Ocircumflex" unicode="&#xd4;" horiz-adv-x="555" 
d="M137 773l109 113h66l108 -113h-57l-85 75l-85 -75h-56zM277 38q92 0 129 76t37 232v34q0 156 -37 232t-129 76t-128.5 -76t-36.5 -232v-34q0 -156 36.5 -232t128.5 -76zM277 -13q-118 0 -174.5 80.5t-56.5 253.5v83q0 173 56.5 253.5t174.5 80.5q119 0 175.5 -80.5
t56.5 -253.5v-83q0 -173 -56.5 -253.5t-175.5 -80.5z" />
    <glyph glyph-name="Otilde" unicode="&#xd5;" horiz-adv-x="555" 
d="M190 784h-48q9 102 78 102q25 0 62 -27.5t52 -27.5q27 0 33 55h47q-10 -102 -77 -102q-26 0 -63 27.5t-50 27.5q-30 0 -34 -55zM277 38q92 0 129 76t37 232v34q0 156 -37 232t-129 76t-128.5 -76t-36.5 -232v-34q0 -156 36.5 -232t128.5 -76zM277 -13q-118 0 -174.5 80.5
t-56.5 253.5v83q0 173 56.5 253.5t174.5 80.5q119 0 175.5 -80.5t56.5 -253.5v-83q0 -173 -56.5 -253.5t-175.5 -80.5z" />
    <glyph glyph-name="Odieresis" unicode="&#xd6;" horiz-adv-x="555" 
d="M151 780v100h59v-100h-59zM348 780v100h59v-100h-59zM277 38q92 0 129 76t37 232v34q0 156 -37 232t-129 76t-128.5 -76t-36.5 -232v-34q0 -156 36.5 -232t128.5 -76zM277 -13q-118 0 -174.5 80.5t-56.5 253.5v83q0 173 56.5 253.5t174.5 80.5q119 0 175.5 -80.5
t56.5 -253.5v-83q0 -173 -56.5 -253.5t-175.5 -80.5z" />
    <glyph glyph-name="multiply" unicode="&#xd7;" 
d="M104 39l-38 39l171 191l-171 191l38 38l169 -189l171 189l38 -38l-172 -192l172 -191l-38 -38l-170 189z" />
    <glyph glyph-name="Oslash" unicode="&#xd8;" horiz-adv-x="555" 
d="M109 -65h-50l53 120q-66 81 -66 266v83q0 173 56.5 253.5t174.5 80.5q74 0 124 -32l37 84h51l-51 -115q71 -83 71 -271v-83q0 -173 -56.5 -253.5t-175.5 -80.5q-76 0 -129 35zM277 38q92 0 129 76t37 232v34q0 154 -35 228l-235 -530q37 -40 104 -40zM112 380v-34
q0 -151 31 -221l234 527q-39 36 -100 36q-92 0 -128.5 -76t-36.5 -232z" />
    <glyph glyph-name="Ugrave" unicode="&#xd9;" horiz-adv-x="552" 
d="M261 773l-113 113h84l77 -113h-48zM275 -13q-119 0 -162 58t-43 208v472h64v-487q0 -109 30.5 -154.5t110.5 -45.5t111.5 46t31.5 154v487h64v-472q0 -150 -43.5 -208t-163.5 -58z" />
    <glyph glyph-name="Uacute" unicode="&#xda;" horiz-adv-x="552" 
d="M275 -13q-119 0 -162 58t-43 208v472h64v-487q0 -109 30.5 -154.5t110.5 -45.5t111.5 46t31.5 154v487h64v-472q0 -150 -43.5 -208t-163.5 -58zM241 773l77 113h84l-113 -113h-48z" />
    <glyph glyph-name="Ucircumflex" unicode="&#xdb;" horiz-adv-x="552" 
d="M275 -13q-119 0 -162 58t-43 208v472h64v-487q0 -109 30.5 -154.5t110.5 -45.5t111.5 46t31.5 154v487h64v-472q0 -150 -43.5 -208t-163.5 -58zM135 773l109 113h66l108 -113h-57l-85 75l-85 -75h-56z" />
    <glyph glyph-name="Udieresis" unicode="&#xdc;" horiz-adv-x="552" 
d="M275 -13q-119 0 -162 58t-43 208v472h64v-487q0 -109 30.5 -154.5t110.5 -45.5t111.5 46t31.5 154v487h64v-472q0 -150 -43.5 -208t-163.5 -58zM148 780v100h59v-100h-59zM345 780v100h59v-100h-59z" />
    <glyph glyph-name="Yacute" unicode="&#xdd;" horiz-adv-x="481" 
d="M208 0v281l-198 444h64l167 -383l166 383h64l-199 -445v-280h-64zM206 773l77 113h84l-113 -113h-48z" />
    <glyph glyph-name="Thorn" unicode="&#xde;" horiz-adv-x="493" 
d="M77 0v725h64v-153h78q135 0 195.5 -42.5t60.5 -164.5t-60.5 -165.5t-195.5 -43.5h-78v-156h-64zM141 206h77q103 0 146.5 31.5t43.5 127.5t-43.5 127.5t-146.5 31.5h-77v-318z" />
    <glyph glyph-name="germandbls" unicode="&#xdf;" horiz-adv-x="488" 
d="M65 0v531q0 109 44 158t135 49q76 0 123.5 -40.5t47.5 -127.5q0 -130 -113 -160q67 -13 106.5 -62t39.5 -134q0 -110 -50.5 -162t-155.5 -52h-47v46h44q146 0 146 168q0 87 -40.5 127.5t-133.5 40.5h-21v48h20q73 0 108 30.5t35 107.5q0 62 -29 92.5t-81 30.5
q-65 0 -91 -37.5t-26 -124.5v-529h-61z" />
    <glyph glyph-name="agrave" unicode="&#xe0;" horiz-adv-x="428" 
d="M174 -13q-61 0 -98.5 39.5t-37.5 105.5v7q0 45 20 75.5t81 62.5t175 66v33q0 71 -27.5 100t-76.5 29t-77 -31.5t-28 -88.5v-7h-59v7q0 79 46 122t120 43q78 0 120.5 -37t42.5 -137v-40q0 -18 -0.5 -61t-0.5 -63v-44q0 -107 3 -138l2 -30h-58l-1 84q-38 -97 -146 -97z
M189 35q127 0 127 174v89q-132 -39 -173.5 -70.5t-41.5 -87.5v-7q0 -45 24.5 -71.5t63.5 -26.5zM197 608l-100 117h79l66 -117h-45z" />
    <glyph glyph-name="aacute" unicode="&#xe1;" horiz-adv-x="428" 
d="M174 -13q-61 0 -98.5 39.5t-37.5 105.5v7q0 45 20 75.5t81 62.5t175 66v33q0 71 -27.5 100t-76.5 29t-77 -31.5t-28 -88.5v-7h-59v7q0 79 46 122t120 43q78 0 120.5 -37t42.5 -137v-40q0 -18 -0.5 -61t-0.5 -63v-44q0 -107 3 -138l2 -30h-58l-1 84q-38 -97 -146 -97z
M189 35q127 0 127 174v89q-132 -39 -173.5 -70.5t-41.5 -87.5v-7q0 -45 24.5 -71.5t63.5 -26.5zM191 608l67 117h78l-100 -117h-45z" />
    <glyph glyph-name="acircumflex" unicode="&#xe2;" horiz-adv-x="428" 
d="M174 -13q-61 0 -98.5 39.5t-37.5 105.5v7q0 45 20 75.5t81 62.5t175 66v33q0 71 -27.5 100t-76.5 29t-77 -31.5t-28 -88.5v-7h-59v7q0 79 46 122t120 43q78 0 120.5 -37t42.5 -137v-40q0 -18 -0.5 -61t-0.5 -63v-44q0 -107 3 -138l2 -30h-58l-1 84q-38 -97 -146 -97z
M189 35q127 0 127 174v89q-132 -39 -173.5 -70.5t-41.5 -87.5v-7q0 -45 24.5 -71.5t63.5 -26.5zM80 608l107 117h56l107 -117h-56l-78 76l-78 -76h-58z" />
    <glyph glyph-name="atilde" unicode="&#xe3;" horiz-adv-x="428" 
d="M174 -13q-61 0 -98.5 39.5t-37.5 105.5v7q0 45 20 75.5t81 62.5t175 66v33q0 71 -27.5 100t-76.5 29t-77 -31.5t-28 -88.5v-7h-59v7q0 79 46 122t120 43q78 0 120.5 -37t42.5 -137v-40q0 -18 -0.5 -61t-0.5 -63v-44q0 -107 3 -138l2 -30h-58l-1 84q-38 -97 -146 -97z
M189 35q127 0 127 174v89q-132 -39 -173.5 -70.5t-41.5 -87.5v-7q0 -45 24.5 -71.5t63.5 -26.5zM130 620h-47q5 51 27 75.5t52 24.5q24 0 58 -26.5t48 -26.5q27 0 35 53h47q-6 -50 -28 -75t-51 -25q-26 0 -59.5 26.5t-46.5 26.5q-27 0 -35 -53z" />
    <glyph glyph-name="adieresis" unicode="&#xe4;" horiz-adv-x="428" 
d="M174 -13q-61 0 -98.5 39.5t-37.5 105.5v7q0 45 20 75.5t81 62.5t175 66v33q0 71 -27.5 100t-76.5 29t-77 -31.5t-28 -88.5v-7h-59v7q0 79 46 122t120 43q78 0 120.5 -37t42.5 -137v-40q0 -18 -0.5 -61t-0.5 -63v-44q0 -107 3 -138l2 -30h-58l-1 84q-38 -97 -146 -97z
M189 35q127 0 127 174v89q-132 -39 -173.5 -70.5t-41.5 -87.5v-7q0 -45 24.5 -71.5t63.5 -26.5zM95 624v101h57v-101h-57zM293 624v101h58v-101h-58z" />
    <glyph glyph-name="aring" unicode="&#xe5;" horiz-adv-x="428" 
d="M174 -13q-61 0 -98.5 39.5t-37.5 105.5v7q0 45 20 75.5t81 62.5t175 66v33q0 71 -27.5 100t-76.5 29t-77 -31.5t-28 -88.5v-7h-59v7q0 79 46 122t120 43q78 0 120.5 -37t42.5 -137v-40q0 -18 -0.5 -61t-0.5 -63v-44q0 -107 3 -138l2 -30h-58l-1 84q-38 -97 -146 -97z
M189 35q127 0 127 174v89q-132 -39 -173.5 -70.5t-41.5 -87.5v-7q0 -45 24.5 -71.5t63.5 -26.5zM218 728q-20 0 -34 -14t-14 -35t14 -34.5t34 -13.5q21 0 34.5 13.5t13.5 34.5t-13.5 35t-34.5 14zM218 596q-36 0 -61.5 23.5t-25.5 59.5t25 59t62 23t62 -23t25 -59t-25 -59.5
t-62 -23.5z" />
    <glyph glyph-name="ae" unicode="&#xe6;" horiz-adv-x="707" 
d="M177 -13q-64 0 -101.5 39.5t-37.5 108.5v10q0 59 40 96q31 28 106 55l133 48v50q0 62 -26 86.5t-76 24.5q-109 0 -109 -112v-11h-57v11q0 76 45 116.5t123 40.5q55 0 88.5 -18.5t49.5 -64.5q37 81 140 81q94 0 135 -57t41 -182v-42h-294v-28q0 -101 25.5 -152.5
t93.5 -51.5q53 0 81 33.5t28 94.5v5h59v-5q0 -85 -44.5 -130.5t-120.5 -45.5q-129 0 -161 114q-33 -114 -161 -114zM194 34q126 0 126 173v95l-104 -39q-64 -25 -90.5 -48.5t-26.5 -70.5v-10q0 -47 26 -73.5t69 -26.5zM378 311h233v13q0 90 -25 133.5t-90 43.5
q-67 0 -92.5 -48t-25.5 -137v-5z" />
    <glyph glyph-name="ccedilla" unicode="&#xe7;" horiz-adv-x="421" 
d="M220 -13q-94 0 -136.5 59t-42.5 185v73q0 125 42.5 184.5t136.5 59.5q76 0 120 -47t44 -133v-5h-59v5q0 133 -105 133q-47 0 -73.5 -27.5t-34.5 -70.5t-8 -114v-44q0 -52 4.5 -87.5t16.5 -65t35.5 -43.5t59.5 -14q105 0 105 132v5h59v-5q0 -86 -44 -133t-120 -47z
M207 -192q-38 0 -74 12l11 33q24 -11 56 -11q61 0 61 39q0 37 -48 37q-25 0 -43 -9l-16 15l48 77h35l-33 -55q15 3 30 3q33 0 54 -17t21 -48q0 -37 -30 -56.5t-72 -19.5z" />
    <glyph glyph-name="egrave" unicode="&#xe8;" horiz-adv-x="434" 
d="M226 -13q-95 0 -140 59.5t-45 183.5v75q0 124 43.5 183.5t137.5 59.5t135 -57t41 -182v-42h-294v-22q0 -104 26.5 -157t95.5 -53q54 0 82 33.5t28 94.5v5h59v-5q0 -86 -44.5 -131t-124.5 -45zM104 314v-3h231v5q0 95 -23 140t-89 45q-68 0 -93.5 -48t-25.5 -139zM210 608
l-100 117h79l66 -117h-45z" />
    <glyph glyph-name="eacute" unicode="&#xe9;" horiz-adv-x="434" 
d="M189 608l67 117h78l-100 -117h-45zM226 -13q-95 0 -140 59.5t-45 183.5v75q0 124 43.5 183.5t137.5 59.5t135 -57t41 -182v-42h-294v-22q0 -104 26.5 -157t95.5 -53q54 0 82 33.5t28 94.5v5h59v-5q0 -86 -44.5 -131t-124.5 -45zM104 314v-3h231v5q0 95 -23 140t-89 45
q-68 0 -93.5 -48t-25.5 -139z" />
    <glyph glyph-name="ecircumflex" unicode="&#xea;" horiz-adv-x="434" 
d="M85 608l107 117h56l107 -117h-56l-78 76l-78 -76h-58zM226 -13q-95 0 -140 59.5t-45 183.5v75q0 124 43.5 183.5t137.5 59.5t135 -57t41 -182v-42h-294v-22q0 -104 26.5 -157t95.5 -53q54 0 82 33.5t28 94.5v5h59v-5q0 -86 -44.5 -131t-124.5 -45zM104 314v-3h231v5
q0 95 -23 140t-89 45q-68 0 -93.5 -48t-25.5 -139z" />
    <glyph glyph-name="edieresis" unicode="&#xeb;" horiz-adv-x="434" 
d="M93 624v101h57v-101h-57zM291 624v101h58v-101h-58zM226 -13q-95 0 -140 59.5t-45 183.5v75q0 124 43.5 183.5t137.5 59.5t135 -57t41 -182v-42h-294v-22q0 -104 26.5 -157t95.5 -53q54 0 82 33.5t28 94.5v5h59v-5q0 -86 -44.5 -131t-124.5 -45zM104 314v-3h231v5
q0 95 -23 140t-89 45q-68 0 -93.5 -48t-25.5 -139z" />
    <glyph glyph-name="igrave" unicode="&#xec;" horiz-adv-x="191" 
d="M65 0v538h61v-538h-61zM78 608l-100 117h79l66 -117h-45z" />
    <glyph glyph-name="iacute" unicode="&#xed;" horiz-adv-x="191" 
d="M70 608l67 117h78l-100 -117h-45zM65 0v538h61v-538h-61z" />
    <glyph glyph-name="icircumflex" unicode="&#xee;" horiz-adv-x="191" 
d="M-14 608l81 117h56l81 -117h-57l-52 76l-51 -76h-58zM65 0v538h61v-538h-61z" />
    <glyph glyph-name="idieresis" unicode="&#xef;" horiz-adv-x="191" 
d="M-3 621v101h58v-101h-58zM134 621v101h57v-101h-57zM65 0v538h61v-538h-61z" />
    <glyph glyph-name="eth" unicode="&#xf0;" horiz-adv-x="448" 
d="M132 555l-27 30l102 65q-2 2 -78 55l34 33q56 -35 88 -60l65 42l26 -31l-59 -38q124 -118 124 -330v-90q0 -126 -44 -185t-139 -59t-139 59t-44 185v78q0 239 172 239q43 0 76 -20.5t46 -47.5l2 1q-20 79 -97 143zM224 35q68 0 94.5 54.5t26.5 162.5v31q0 218 -128 218
q-61 0 -87.5 -52.5t-26.5 -163.5v-33q0 -108 26.5 -162.5t94.5 -54.5z" />
    <glyph glyph-name="ntilde" unicode="&#xf1;" horiz-adv-x="450" 
d="M65 0v538h61v-97q14 46 51 76.5t88 30.5q73 0 102 -45.5t29 -147.5v-355h-61v336q0 86 -18 124.5t-69 38.5q-56 0 -89 -52.5t-33 -151.5v-295h-61zM152 620h-47q5 51 27 75.5t52 24.5q24 0 58 -26.5t48 -26.5q27 0 35 53h47q-6 -50 -28 -75t-51 -25q-26 0 -59.5 26.5
t-46.5 26.5q-27 0 -35 -53z" />
    <glyph glyph-name="ograve" unicode="&#xf2;" horiz-adv-x="440" 
d="M220 35q68 0 92 53.5t24 163.5v31q0 110 -24 164t-92 54t-92 -53.5t-24 -164.5v-31q0 -111 24 -164t92 -53zM220 -13q-94 0 -136.5 59t-42.5 185v73q0 126 42.5 185t136.5 59q93 0 136 -59t43 -185v-73q0 -126 -43 -185t-136 -59zM212 608l-100 117h79l66 -117h-45z" />
    <glyph glyph-name="oacute" unicode="&#xf3;" horiz-adv-x="440" 
d="M189 608l67 117h78l-100 -117h-45zM220 35q68 0 92 53.5t24 163.5v31q0 110 -24 164t-92 54t-92 -53.5t-24 -164.5v-31q0 -111 24 -164t92 -53zM220 -13q-94 0 -136.5 59t-42.5 185v73q0 126 42.5 185t136.5 59q93 0 136 -59t43 -185v-73q0 -126 -43 -185t-136 -59z" />
    <glyph glyph-name="ocircumflex" unicode="&#xf4;" horiz-adv-x="440" 
d="M220 35q68 0 92 53.5t24 163.5v31q0 110 -24 164t-92 54t-92 -53.5t-24 -164.5v-31q0 -111 24 -164t92 -53zM220 -13q-94 0 -136.5 59t-42.5 185v73q0 126 42.5 185t136.5 59q93 0 136 -59t43 -185v-73q0 -126 -43 -185t-136 -59zM85 608l107 117h56l107 -117h-56l-78 76
l-78 -76h-58z" />
    <glyph glyph-name="otilde" unicode="&#xf5;" horiz-adv-x="440" 
d="M220 35q68 0 92 53.5t24 163.5v31q0 110 -24 164t-92 54t-92 -53.5t-24 -164.5v-31q0 -111 24 -164t92 -53zM220 -13q-94 0 -136.5 59t-42.5 185v73q0 126 42.5 185t136.5 59q93 0 136 -59t43 -185v-73q0 -126 -43 -185t-136 -59zM133 620h-47q5 51 27 75.5t52 24.5
q24 0 58 -26.5t48 -26.5q27 0 35 53h47q-6 -50 -28 -75t-51 -25q-26 0 -59.5 26.5t-46.5 26.5q-27 0 -35 -53z" />
    <glyph glyph-name="odieresis" unicode="&#xf6;" horiz-adv-x="440" 
d="M220 35q68 0 92 53.5t24 163.5v31q0 110 -24 164t-92 54t-92 -53.5t-24 -164.5v-31q0 -111 24 -164t92 -53zM220 -13q-94 0 -136.5 59t-42.5 185v73q0 126 42.5 185t136.5 59q93 0 136 -59t43 -185v-73q0 -126 -43 -185t-136 -59zM92 624v101h57v-101h-57zM290 624v101
h58v-101h-58z" />
    <glyph glyph-name="divide" unicode="&#xf7;" 
d="M238 51v105h72v-105h-72zM36 243v53h476v-53h-476zM238 379v104h72v-104h-72z" />
    <glyph glyph-name="oslash" unicode="&#xf8;" horiz-adv-x="440" 
d="M220 -13q-57 0 -95 22l-21 -48q-2 -5 -11 -26h-41l15 34q5 11 15 33.5t13 30.5q-54 59 -54 198v73q0 126 42.5 185t136.5 59q54 0 95 -23l35 78h40l-17 -38q-26 -62 -28 -65q54 -60 54 -196v-73q0 -126 -43 -185t-136 -59zM181 227l68 148l43 99q-27 27 -72 27
q-68 0 -92 -53.5t-24 -164.5v-31q0 -111 21 -157zM220 35q68 0 92 53.5t24 163.5v31q0 106 -21 155q-11 -23 -31 -70.5t-22 -51.5l-51 -113l-64 -143q26 -25 73 -25z" />
    <glyph glyph-name="ugrave" unicode="&#xf9;" horiz-adv-x="444" 
d="M184 -13q-73 0 -101.5 46.5t-28.5 148.5v356h61v-339q0 -84 17.5 -123.5t66.5 -39.5q55 0 87 52.5t32 151.5v298h61v-538h-59v94q-13 -46 -49 -76.5t-87 -30.5zM204 608l-100 117h79l66 -117h-45z" />
    <glyph glyph-name="uacute" unicode="&#xfa;" horiz-adv-x="444" 
d="M187 608l67 117h78l-100 -117h-45zM184 -13q-73 0 -101.5 46.5t-28.5 148.5v356h61v-339q0 -84 17.5 -123.5t66.5 -39.5q55 0 87 52.5t32 151.5v298h61v-538h-59v94q-13 -46 -49 -76.5t-87 -30.5z" />
    <glyph glyph-name="ucircumflex" unicode="&#xfb;" horiz-adv-x="444" 
d="M80 608l107 117h56l107 -117h-56l-78 76l-78 -76h-58zM184 -13q-73 0 -101.5 46.5t-28.5 148.5v356h61v-339q0 -84 17.5 -123.5t66.5 -39.5q55 0 87 52.5t32 151.5v298h61v-538h-59v94q-13 -46 -49 -76.5t-87 -30.5z" />
    <glyph glyph-name="udieresis" unicode="&#xfc;" horiz-adv-x="444" 
d="M89 624v101h57v-101h-57zM287 624v101h58v-101h-58zM184 -13q-73 0 -101.5 46.5t-28.5 148.5v356h61v-339q0 -84 17.5 -123.5t66.5 -39.5q55 0 87 52.5t32 151.5v298h61v-538h-59v94q-13 -46 -49 -76.5t-87 -30.5z" />
    <glyph glyph-name="yacute" unicode="&#xfd;" horiz-adv-x="381" 
d="M41 -175v46h24q41 0 56.5 14.5t30.5 72.5l11 42l-153 538h62l121 -454l116 454h62l-150 -547q-30 -110 -55.5 -138t-96.5 -28h-28zM160 608l67 117h78l-100 -117h-45z" />
    <glyph glyph-name="thorn" unicode="&#xfe;" horiz-adv-x="464" 
d="M65 -175v900h61v-284q13 47 50 77t89 30q158 0 158 -239v-82q0 -240 -158 -240q-52 0 -89 29.5t-50 76.5v-268h-61zM251 35q60 0 84.5 52.5t24.5 164.5v31q0 112 -24.5 164.5t-84.5 52.5t-94 -57t-34 -176q0 -118 34 -175t94 -57z" />
    <glyph glyph-name="ydieresis" unicode="&#xff;" horiz-adv-x="381" 
d="M41 -175v46h24q41 0 56.5 14.5t30.5 72.5l11 42l-153 538h62l121 -454l116 454h62l-150 -547q-30 -110 -55.5 -138t-96.5 -28h-28zM63 624v101h57v-101h-57zM261 624v101h58v-101h-58z" />
    <glyph glyph-name="Amacron" unicode="&#x100;" horiz-adv-x="517" 
d="M11 0l209 725h75l211 -725h-65l-58 208h-252l-58 -208h-62zM257 662l-112 -403h224zM143 807v51h233v-51h-233z" />
    <glyph glyph-name="amacron" unicode="&#x101;" horiz-adv-x="428" 
d="M174 -13q-61 0 -98.5 39.5t-37.5 105.5v7q0 45 20 75.5t81 62.5t175 66v33q0 71 -27.5 100t-76.5 29t-77 -31.5t-28 -88.5v-7h-59v7q0 79 46 122t120 43q78 0 120.5 -37t42.5 -137v-40q0 -18 -0.5 -61t-0.5 -63v-44q0 -107 3 -138l2 -30h-58l-1 84q-38 -97 -146 -97z
M189 35q127 0 127 174v89q-132 -39 -173.5 -70.5t-41.5 -87.5v-7q0 -45 24.5 -71.5t63.5 -26.5zM105 643v47h223v-47h-223z" />
    <glyph glyph-name="Abreve" unicode="&#x102;" horiz-adv-x="517" 
d="M11 0l209 725h75l211 -725h-65l-58 208h-252l-58 -208h-62zM257 662l-112 -403h224zM257 773q-115 0 -117 113h46q4 -71 72 -71q33 0 51.5 15.5t20.5 55.5h47q-5 -113 -120 -113z" />
    <glyph glyph-name="abreve" unicode="&#x103;" horiz-adv-x="428" 
d="M174 -13q-61 0 -98.5 39.5t-37.5 105.5v7q0 45 20 75.5t81 62.5t175 66v33q0 71 -27.5 100t-76.5 29t-77 -31.5t-28 -88.5v-7h-59v7q0 79 46 122t120 43q78 0 120.5 -37t42.5 -137v-40q0 -18 -0.5 -61t-0.5 -63v-44q0 -107 3 -138l2 -30h-58l-1 84q-38 -97 -146 -97z
M189 35q127 0 127 174v89q-132 -39 -173.5 -70.5t-41.5 -87.5v-7q0 -45 24.5 -71.5t63.5 -26.5zM217 606q-60 0 -89.5 30t-34.5 89h46q5 -42 24 -60.5t54 -18.5q71 0 78 79h47q-6 -60 -35 -89.5t-90 -29.5z" />
    <glyph glyph-name="Aogonek" unicode="&#x104;" horiz-adv-x="517" 
d="M11 0l209 725h75l211 -725q-41 -19 -67 -46t-26 -51q0 -21 14 -34.5t39 -13.5q24 0 40 6v-43q-24 -6 -54 -6q-41 0 -70.5 22.5t-29.5 59.5q0 30 27.5 62t61.5 44l-58 208h-252l-58 -208h-62zM257 662l-112 -403h224z" />
    <glyph glyph-name="aogonek" unicode="&#x105;" horiz-adv-x="428" 
d="M174 -13q-61 0 -98.5 39.5t-37.5 105.5v7q0 45 20 75.5t81 62.5t175 66v33q0 71 -27.5 100t-76.5 29t-77 -31.5t-28 -88.5v-7h-59v7q0 79 46 122t120 43q78 0 120.5 -37t42.5 -137v-40q0 -18 -0.5 -61t-0.5 -63v-44q0 -107 3 -138l2 -30q-40 -20 -66 -45t-26 -49
q0 -21 14.5 -34t40.5 -13q24 0 40 6v-43q-24 -6 -54 -6q-41 0 -70.5 21.5t-29.5 59.5q0 29 29 59.5t64 43.5l-1 84q-38 -97 -146 -97zM189 35q127 0 127 174v89q-132 -39 -173.5 -70.5t-41.5 -87.5v-7q0 -45 24.5 -71.5t63.5 -26.5z" />
    <glyph glyph-name="Cacute" unicode="&#x106;" horiz-adv-x="521" 
d="M274 -13q-118 0 -173 80t-55 254v83q0 174 55 254t173 80q103 0 157.5 -61t54.5 -174v-3h-63v3q0 185 -150 185q-91 0 -126 -75.5t-35 -232.5v-34q0 -157 35 -232.5t126 -75.5q150 0 150 185v3h63v-3q0 -113 -54.5 -174.5t-157.5 -61.5zM236 773l77 113h84l-113 -113h-48
z" />
    <glyph glyph-name="cacute" unicode="&#x107;" horiz-adv-x="421" 
d="M185 608l67 117h78l-100 -117h-45zM220 -13q-94 0 -136.5 59t-42.5 185v73q0 125 42.5 184.5t136.5 59.5q76 0 120 -47t44 -133v-5h-59v5q0 133 -105 133q-47 0 -73.5 -27.5t-34.5 -70.5t-8 -114v-44q0 -52 4.5 -87.5t16.5 -65t35.5 -43.5t59.5 -14q105 0 105 132v5h59
v-5q0 -86 -44 -133t-120 -47z" />
    <glyph glyph-name="Ccircumflex" unicode="&#x108;" horiz-adv-x="521" 
d="M274 -13q-118 0 -173 80t-55 254v83q0 174 55 254t173 80q103 0 157.5 -61t54.5 -174v-3h-63v3q0 185 -150 185q-91 0 -126 -75.5t-35 -232.5v-34q0 -157 35 -232.5t126 -75.5q150 0 150 185v3h63v-3q0 -113 -54.5 -174.5t-157.5 -61.5zM127 773l109 113h66l108 -113h-57
l-85 75l-85 -75h-56z" />
    <glyph glyph-name="ccircumflex" unicode="&#x109;" horiz-adv-x="421" 
d="M84 608l107 117h56l107 -117h-56l-78 76l-78 -76h-58zM220 -13q-94 0 -136.5 59t-42.5 185v73q0 125 42.5 184.5t136.5 59.5q76 0 120 -47t44 -133v-5h-59v5q0 133 -105 133q-47 0 -73.5 -27.5t-34.5 -70.5t-8 -114v-44q0 -52 4.5 -87.5t16.5 -65t35.5 -43.5t59.5 -14
q105 0 105 132v5h59v-5q0 -86 -44 -133t-120 -47z" />
    <glyph glyph-name="Cdotaccent" unicode="&#x10a;" horiz-adv-x="521" 
d="M274 -13q-118 0 -173 80t-55 254v83q0 174 55 254t173 80q103 0 157.5 -61t54.5 -174v-3h-63v3q0 185 -150 185q-91 0 -126 -75.5t-35 -232.5v-34q0 -157 35 -232.5t126 -75.5q150 0 150 185v3h63v-3q0 -113 -54.5 -174.5t-157.5 -61.5zM236 781v100h64v-100h-64z" />
    <glyph glyph-name="cdotaccent" unicode="&#x10b;" horiz-adv-x="421" 
d="M220 -13q-94 0 -136.5 59t-42.5 185v73q0 125 42.5 184.5t136.5 59.5q76 0 120 -47t44 -133v-5h-59v5q0 133 -105 133q-47 0 -73.5 -27.5t-34.5 -70.5t-8 -114v-44q0 -52 4.5 -87.5t16.5 -65t35.5 -43.5t59.5 -14q105 0 105 132v5h59v-5q0 -86 -44 -133t-120 -47z
M191 624v101h57v-101h-57z" />
    <glyph glyph-name="Ccaron" unicode="&#x10c;" horiz-adv-x="521" 
d="M301 773h-66l-109 113h56l85 -76l85 76h57zM274 -13q-118 0 -173 80t-55 254v83q0 174 55 254t173 80q103 0 157.5 -61t54.5 -174v-3h-63v3q0 185 -150 185q-91 0 -126 -75.5t-35 -232.5v-34q0 -157 35 -232.5t126 -75.5q150 0 150 185v3h63v-3q0 -113 -54.5 -174.5
t-157.5 -61.5z" />
    <glyph glyph-name="ccaron" unicode="&#x10d;" horiz-adv-x="421" 
d="M193 608l-107 117h58l78 -76l78 76h56l-107 -117h-56zM220 -13q-94 0 -136.5 59t-42.5 185v73q0 125 42.5 184.5t136.5 59.5q76 0 120 -47t44 -133v-5h-59v5q0 133 -105 133q-47 0 -73.5 -27.5t-34.5 -70.5t-8 -114v-44q0 -52 4.5 -87.5t16.5 -65t35.5 -43.5t59.5 -14
q105 0 105 132v5h59v-5q0 -86 -44 -133t-120 -47z" />
    <glyph glyph-name="Dcaron" unicode="&#x10e;" horiz-adv-x="545" 
d="M292 773h-66l-109 113h56l85 -76l85 76h57zM141 49h95q102 0 149.5 69t47.5 228v34q0 159 -47.5 228t-149.5 69h-95v-628zM77 0v725h158q264 0 264 -324v-78q0 -172 -69 -247.5t-195 -75.5h-158z" />
    <glyph glyph-name="dcaron" unicode="&#x10f;" horiz-adv-x="500" 
d="M199 -13q-158 0 -158 240v82q0 239 158 239q52 0 89 -30t50 -77v284h61v-725h-61v93q-13 -47 -50 -76.5t-89 -29.5zM212 35q60 0 94.5 57t34.5 175q0 119 -34.5 176t-94.5 57q-59 0 -83.5 -52.5t-24.5 -164.5v-31q0 -112 24.5 -164.5t83.5 -52.5zM451 555l28 170h51
l-41 -170h-38z" />
    <glyph glyph-name="Dcroat" unicode="&#x110;" horiz-adv-x="545" 
d="M0 343v54h77v328h158q264 0 264 -324v-78q0 -172 -69 -247.5t-195 -75.5h-158v343h-77zM141 49h95q102 0 149.5 69t47.5 228v34q0 159 -47.5 228t-149.5 69h-95v-280h157v-54h-157v-294z" />
    <glyph glyph-name="dslash" unicode="&#x111;" horiz-adv-x="464" 
d="M244 589v43h94v93h61v-93h79v-43h-79v-589h-61v93q-13 -47 -50 -76.5t-89 -29.5q-158 0 -158 240v82q0 239 158 239q52 0 89 -30t50 -77v148h-94zM212 35q60 0 94.5 57t34.5 175q0 119 -34.5 176t-94.5 57q-59 0 -83.5 -52.5t-24.5 -164.5v-31q0 -112 24.5 -164.5
t83.5 -52.5z" />
    <glyph glyph-name="Emacron" unicode="&#x112;" horiz-adv-x="450" 
d="M142 807v51h233v-51h-233zM77 0v725h353v-54h-289v-268h265v-54h-265v-295h289v-54h-353z" />
    <glyph glyph-name="emacron" unicode="&#x113;" horiz-adv-x="434" 
d="M226 -13q-95 0 -140 59.5t-45 183.5v75q0 124 43.5 183.5t137.5 59.5t135 -57t41 -182v-42h-294v-22q0 -104 26.5 -157t95.5 -53q54 0 82 33.5t28 94.5v5h59v-5q0 -86 -44.5 -131t-124.5 -45zM104 314v-3h231v5q0 95 -23 140t-89 45q-68 0 -93.5 -48t-25.5 -139zM109 643
v47h223v-47h-223z" />
    <glyph glyph-name="Ebreve" unicode="&#x114;" horiz-adv-x="450" 
d="M77 0v725h353v-54h-289v-268h265v-54h-265v-295h289v-54h-353zM253 773q-115 0 -117 113h46q4 -71 72 -71q33 0 51.5 15.5t20.5 55.5h47q-5 -113 -120 -113z" />
    <glyph glyph-name="ebreve" unicode="&#x115;" horiz-adv-x="434" 
d="M226 -13q-95 0 -140 59.5t-45 183.5v75q0 124 43.5 183.5t137.5 59.5t135 -57t41 -182v-42h-294v-22q0 -104 26.5 -157t95.5 -53q54 0 82 33.5t28 94.5v5h59v-5q0 -86 -44.5 -131t-124.5 -45zM104 314v-3h231v5q0 95 -23 140t-89 45q-68 0 -93.5 -48t-25.5 -139zM219 606
q-60 0 -89.5 30t-34.5 89h46q5 -42 24 -60.5t54 -18.5q71 0 78 79h47q-6 -60 -35 -89.5t-90 -29.5z" />
    <glyph glyph-name="Edotaccent" unicode="&#x116;" horiz-adv-x="450" 
d="M226 781v100h64v-100h-64zM77 0v725h353v-54h-289v-268h265v-54h-265v-295h289v-54h-353z" />
    <glyph glyph-name="edotaccent" unicode="&#x117;" horiz-adv-x="434" 
d="M226 -13q-95 0 -140 59.5t-45 183.5v75q0 124 43.5 183.5t137.5 59.5t135 -57t41 -182v-42h-294v-22q0 -104 26.5 -157t95.5 -53q54 0 82 33.5t28 94.5v5h59v-5q0 -86 -44.5 -131t-124.5 -45zM104 314v-3h231v5q0 95 -23 140t-89 45q-68 0 -93.5 -48t-25.5 -139zM192 624
v101h57v-101h-57z" />
    <glyph glyph-name="Eogonek" unicode="&#x118;" horiz-adv-x="450" 
d="M376 -188q-40 0 -70 23t-30 61q0 30 28 60.5t63 43.5h63q-41 -19 -67 -46t-26 -51q0 -21 14 -34.5t39 -13.5q24 0 40 6v-43q-18 -6 -54 -6zM77 0v725h353v-54h-289v-268h265v-54h-265v-295h289v-54h-353z" />
    <glyph glyph-name="eogonek" unicode="&#x119;" horiz-adv-x="434" 
d="M104 314v-3h231v5q0 95 -23 140t-89 45q-68 0 -93.5 -48t-25.5 -139zM350 -139v-43q-24 -6 -52 -6q-41 0 -70.5 21.5t-29.5 59.5q0 21 18 50.5t45 49.5q-14 -6 -34 -6q-96 0 -141 59.5t-45 183.5v75q0 124 43.5 183.5t137.5 59.5t135 -57t41 -182v-42h-294v-22
q0 -104 26.5 -157t95.5 -53q53 0 80.5 33t27.5 95v5h61v-5q0 -98 -65 -150q-32 -26 -53.5 -58t-21.5 -53t15.5 -34t41.5 -13q12 0 38 6z" />
    <glyph glyph-name="Ecaron" unicode="&#x11a;" horiz-adv-x="450" 
d="M288 773h-66l-109 113h56l85 -76l85 76h57zM77 0v725h353v-54h-289v-268h265v-54h-265v-295h289v-54h-353z" />
    <glyph glyph-name="ecaron" unicode="&#x11b;" horiz-adv-x="434" 
d="M194 608l-107 117h58l78 -76l78 76h56l-107 -117h-56zM226 -13q-95 0 -140 59.5t-45 183.5v75q0 124 43.5 183.5t137.5 59.5t135 -57t41 -182v-42h-294v-22q0 -104 26.5 -157t95.5 -53q54 0 82 33.5t28 94.5v5h59v-5q0 -86 -44.5 -131t-124.5 -45zM104 314v-3h231v5
q0 95 -23 140t-89 45q-68 0 -93.5 -48t-25.5 -139z" />
    <glyph glyph-name="Gcircumflex" unicode="&#x11c;" horiz-adv-x="546" 
d="M132 773l109 113h66l108 -113h-57l-85 75l-85 -75h-56zM268 -13q-114 0 -168 80.5t-54 253.5v83q0 174 55 254t173 80q104 0 158.5 -61t54.5 -171v-2h-63v2q0 182 -150 182q-92 0 -127 -75.5t-35 -232.5v-34q0 -157 35 -232.5t127 -75.5q82 0 119 59t37 174v34h-190v52
h248v-357h-51l-1 102q-50 -115 -168 -115z" />
    <glyph glyph-name="gcircumflex" unicode="&#x11d;" horiz-adv-x="466" 
d="M92 608l107 117h56l107 -117h-56l-78 76l-78 -76h-58zM225 -188q-87 0 -125.5 43.5t-38.5 110.5v5h60v-5q0 -107 104 -107q62 0 88 33.5t26 109.5v116q-13 -48 -49 -77.5t-88 -29.5q-78 0 -119.5 62.5t-41.5 181.5v64q0 229 161 229q51 0 87.5 -30t49.5 -77v97h62v-522
q0 -100 -40.5 -152t-135.5 -52zM213 59q129 0 129 219q0 113 -34.5 167.5t-94.5 54.5q-61 0 -85 -48t-24 -158v-12q0 -111 24.5 -167t84.5 -56z" />
    <glyph glyph-name="Gbreve" unicode="&#x11e;" horiz-adv-x="546" 
d="M271 773q-115 0 -117 113h46q4 -71 72 -71q33 0 51.5 15.5t20.5 55.5h47q-5 -113 -120 -113zM268 -13q-114 0 -168 80.5t-54 253.5v83q0 174 55 254t173 80q104 0 158.5 -61t54.5 -171v-2h-63v2q0 182 -150 182q-92 0 -127 -75.5t-35 -232.5v-34q0 -157 35 -232.5
t127 -75.5q82 0 119 59t37 174v34h-190v52h248v-357h-51l-1 102q-50 -115 -168 -115z" />
    <glyph glyph-name="gbreve" unicode="&#x11f;" horiz-adv-x="466" 
d="M225 -188q-87 0 -125.5 43.5t-38.5 110.5v5h60v-5q0 -107 104 -107q62 0 88 33.5t26 109.5v116q-13 -48 -49 -77.5t-88 -29.5q-78 0 -119.5 62.5t-41.5 181.5v64q0 229 161 229q51 0 87.5 -30t49.5 -77v97h62v-522q0 -100 -40.5 -152t-135.5 -52zM213 59q129 0 129 219
q0 113 -34.5 167.5t-94.5 54.5q-61 0 -85 -48t-24 -158v-12q0 -111 24.5 -167t84.5 -56zM221 606q-60 0 -89.5 30t-34.5 89h46q5 -42 24 -60.5t54 -18.5q71 0 78 79h47q-6 -60 -35 -89.5t-90 -29.5z" />
    <glyph glyph-name="Gdotaccent" unicode="&#x120;" horiz-adv-x="546" 
d="M241 781v100h64v-100h-64zM268 -13q-114 0 -168 80.5t-54 253.5v83q0 174 55 254t173 80q104 0 158.5 -61t54.5 -171v-2h-63v2q0 182 -150 182q-92 0 -127 -75.5t-35 -232.5v-34q0 -157 35 -232.5t127 -75.5q82 0 119 59t37 174v34h-190v52h248v-357h-51l-1 102
q-50 -115 -168 -115z" />
    <glyph glyph-name="gdotaccent" unicode="&#x121;" horiz-adv-x="466" 
d="M225 -188q-87 0 -125.5 43.5t-38.5 110.5v5h60v-5q0 -107 104 -107q62 0 88 33.5t26 109.5v116q-13 -48 -49 -77.5t-88 -29.5q-78 0 -119.5 62.5t-41.5 181.5v64q0 229 161 229q51 0 87.5 -30t49.5 -77v97h62v-522q0 -100 -40.5 -152t-135.5 -52zM213 59q129 0 129 219
q0 113 -34.5 167.5t-94.5 54.5q-61 0 -85 -48t-24 -158v-12q0 -111 24.5 -167t84.5 -56zM194 624v101h57v-101h-57z" />
    <glyph glyph-name="uni0122" unicode="&#x122;" horiz-adv-x="546" 
d="M233 -128v78h68v-84l-34 -80h-43l39 86h-30zM268 -13q-114 0 -168 80.5t-54 253.5v83q0 174 55 254t173 80q104 0 158.5 -61t54.5 -171v-2h-63v2q0 182 -150 182q-92 0 -127 -75.5t-35 -232.5v-34q0 -157 35 -232.5t127 -75.5q82 0 119 59t37 174v34h-190v52h248v-357
h-51l-1 102q-50 -115 -168 -115z" />
    <glyph glyph-name="uni0123" unicode="&#x123;" horiz-adv-x="466" 
d="M249 692v-78h-68v84l34 80h43l-39 -86h30zM225 -188q-87 0 -125.5 43.5t-38.5 110.5v5h60v-5q0 -107 104 -107q62 0 88 33.5t26 109.5v116q-13 -48 -49 -77.5t-88 -29.5q-78 0 -119.5 62.5t-41.5 181.5v64q0 229 161 229q51 0 87.5 -30t49.5 -77v97h62v-522
q0 -100 -40.5 -152t-135.5 -52zM213 59q129 0 129 219q0 113 -34.5 167.5t-94.5 54.5q-61 0 -85 -48t-24 -158v-12q0 -111 24.5 -167t84.5 -56z" />
    <glyph glyph-name="Hcircumflex" unicode="&#x124;" horiz-adv-x="569" 
d="M77 0v725h64v-322h287v322h64v-725h-64v349h-287v-349h-64zM143 773l109 113h66l108 -113h-57l-85 75l-85 -75h-56z" />
    <glyph glyph-name="hcircumflex" unicode="&#x125;" horiz-adv-x="450" 
d="M65 0v725h61v-284q14 46 51 76.5t88 30.5q73 0 102 -45.5t29 -147.5v-355h-61v336q0 86 -18 124.5t-69 38.5q-56 0 -89 -52.5t-33 -151.5v-295h-61zM-46 773l109 113h66l108 -113h-57l-85 75l-85 -75h-56z" />
    <glyph glyph-name="Hbar" unicode="&#x126;" horiz-adv-x="569" 
d="M17 537v54h60v134h64v-134h287v134h64v-134h60v-54h-60v-537h-64v349h-287v-349h-64v537h-60zM141 403h287v134h-287v-134z" />
    <glyph glyph-name="hbar" unicode="&#x127;" horiz-adv-x="450" 
d="M-5 589v43h70v93h61v-93h122v-43h-122v-148q14 46 51 76.5t88 30.5q73 0 102 -45.5t29 -147.5v-355h-61v336q0 86 -18 124.5t-69 38.5q-56 0 -89 -52.5t-33 -151.5v-295h-61v589h-70z" />
    <glyph glyph-name="Itilde" unicode="&#x128;" horiz-adv-x="218" 
d="M77 0v725h64v-725h-64zM34 772h-46q10 98 78 98q20 0 35.5 -13.5t28 -27t24.5 -13.5q26 0 31 54h46q-5 -50 -26 -74t-51 -24q-23 0 -51 26l-18 18q-7 9 -18 9q-28 0 -33 -53z" />
    <glyph glyph-name="itilde" unicode="&#x129;" horiz-adv-x="191" 
d="M18 611h-47q9 103 77 103q26 0 53.5 -27.5t39.5 -27.5q26 0 29 55h47q-7 -103 -73 -103q-27 0 -54 27.5t-39 27.5q-30 0 -33 -55zM65 0v538h61v-538h-61z" />
    <glyph glyph-name="Imacron" unicode="&#x12a;" horiz-adv-x="218" 
d="M5 806v51h208v-51h-208zM78 0v725h64v-725h-64z" />
    <glyph glyph-name="imacron" unicode="&#x12b;" horiz-adv-x="191" 
d="M0 643v47h191v-47h-191zM65 0v538h61v-538h-61z" />
    <glyph glyph-name="Ibreve" unicode="&#x12c;" horiz-adv-x="218" 
d="M109 772q-109 0 -110 114h49q1 -40 14.5 -57t46.5 -17t46.5 17t14.5 57h49q-1 -114 -110 -114zM77 0v725h64v-725h-64z" />
    <glyph glyph-name="ibreve" unicode="&#x12d;" horiz-adv-x="191" 
d="M94 610q-53 0 -76 28.5t-23 86.5h50q0 -74 49 -74t49 74h50q0 -58 -23 -86.5t-76 -28.5zM65 0v538h61v-538h-61z" />
    <glyph glyph-name="Iogonek" unicode="&#x12e;" horiz-adv-x="218" 
d="M77 0v725h64v-725h-64zM88 -188q-40 0 -70 23t-30 61q0 30 28 60.5t63 43.5h63q-41 -19 -67 -46t-26 -51q0 -21 14 -34.5t39 -13.5q24 0 40 6v-43q-18 -6 -54 -6z" />
    <glyph glyph-name="iogonek" unicode="&#x12f;" horiz-adv-x="191" 
d="M65 0v538h61v-538q-40 -19 -66.5 -46.5t-26.5 -51.5q0 -21 14.5 -34t40.5 -13q12 0 38 6v-43q-24 -6 -52 -6q-41 0 -70.5 21.5t-29.5 59.5q0 30 28.5 62.5t62.5 44.5zM65 623v102h61v-102h-61z" />
    <glyph glyph-name="Idot" unicode="&#x130;" horiz-adv-x="218" 
d="M77 0v725h64v-725h-64zM78 781v100h64v-100h-64z" />
    <glyph glyph-name="dotlessi" unicode="&#x131;" horiz-adv-x="191" 
d="M65 0v538h61v-538h-61z" />
    <glyph glyph-name="Jcircumflex" unicode="&#x134;" horiz-adv-x="425" 
d="M183 -13q-173 0 -173 211v6h64v-6q0 -82 24 -121t84 -39t84.5 40t24.5 120v527h64v-527q0 -103 -40.5 -157t-131.5 -54zM176 773l109 113h66l108 -113h-57l-85 75l-85 -75h-56z" />
    <glyph glyph-name="jcircumflex" unicode="&#x135;" horiz-adv-x="191" 
d="M-13 608l81 117h56l81 -117h-57l-52 76l-51 -76h-58zM-21 -175v45h18q46 0 57 15.5t11 72.5v580h61v-584q0 -76 -24 -102.5t-95 -26.5h-28z" />
    <glyph glyph-name="uni0136" unicode="&#x136;" horiz-adv-x="505" 
d="M231 -128v78h68v-84l-34 -80h-43l39 86h-30zM437 0l-208 368l-88 -125v-243h-64v725h64v-389l272 389h67l-212 -301l238 -424h-69z" />
    <glyph glyph-name="uni0137" unicode="&#x137;" horiz-adv-x="416" 
d="M195 -128v78h68v-84l-34 -80h-43l39 86h-30zM349 0l-149 269l-74 -102v-167h-61v725h61v-470l206 283h64l-158 -217l178 -321h-67z" />
    <glyph glyph-name="Lacute" unicode="&#x139;" horiz-adv-x="435" 
d="M77 0v725h64v-671h292v-54h-356zM85 773l77 113h84l-113 -113h-48z" />
    <glyph glyph-name="lacute" unicode="&#x13a;" horiz-adv-x="191" 
d="M65 0v725h61v-725h-61zM75 773l77 113h84l-113 -113h-48z" />
    <glyph glyph-name="uni013B" unicode="&#x13b;" horiz-adv-x="435" 
d="M224 -128v78h68v-84l-34 -80h-43l39 86h-30zM77 0v725h64v-671h292v-54h-356z" />
    <glyph glyph-name="uni013C" unicode="&#x13c;" horiz-adv-x="191" 
d="M62 -128v78h68v-84l-34 -80h-43l39 86h-30zM65 0v725h61v-725h-61z" />
    <glyph glyph-name="Lcaron" unicode="&#x13d;" horiz-adv-x="435" 
d="M77 0v725h64v-671h292v-54h-356zM230 555l28 170h51l-41 -170h-38z" />
    <glyph glyph-name="lcaron" unicode="&#x13e;" horiz-adv-x="228" 
d="M178 555l28 170h51l-41 -170h-38zM65 0v725h61v-725h-61z" />
    <glyph glyph-name="Ldot" unicode="&#x13f;" horiz-adv-x="435" 
d="M294 343v100h64v-100h-64zM77 0v725h64v-671h292v-54h-356z" />
    <glyph glyph-name="ldot" unicode="&#x140;" horiz-adv-x="248" 
d="M65 0v725h61v-725h-61zM191 345v101h57v-101h-57z" />
    <glyph glyph-name="Lslash" unicode="&#x141;" horiz-adv-x="436" 
d="M4 215v62l74 56v392h64v-343l201 153v-62l-201 -153v-266h292v-54h-356v271z" />
    <glyph glyph-name="lslash" unicode="&#x142;" horiz-adv-x="217" 
d="M0 282v57l78 55v331h61v-288l78 56v-58l-78 -55v-380h-61v337z" />
    <glyph glyph-name="Nacute" unicode="&#x143;" horiz-adv-x="571" 
d="M77 0v725h81l275 -639v639h61v-725h-81l-275 639v-639h-61zM258 773l77 113h84l-113 -113h-48z" />
    <glyph glyph-name="nacute" unicode="&#x144;" horiz-adv-x="450" 
d="M198 608l67 117h78l-100 -117h-45zM65 0v538h61v-97q14 46 51 76.5t88 30.5q73 0 102 -45.5t29 -147.5v-355h-61v336q0 86 -18 124.5t-69 38.5q-56 0 -89 -52.5t-33 -151.5v-295h-61z" />
    <glyph glyph-name="uni0145" unicode="&#x145;" horiz-adv-x="571" 
d="M250 -128v78h68v-84l-34 -80h-43l39 86h-30zM77 0v725h81l275 -639v639h61v-725h-81l-275 639v-639h-61z" />
    <glyph glyph-name="uni0146" unicode="&#x146;" horiz-adv-x="450" 
d="M200 -128v78h68v-84l-34 -80h-43l39 86h-30zM65 0v538h61v-97q14 46 51 76.5t88 30.5q73 0 102 -45.5t29 -147.5v-355h-61v336q0 86 -18 124.5t-69 38.5q-56 0 -89 -52.5t-33 -151.5v-295h-61z" />
    <glyph glyph-name="Ncaron" unicode="&#x147;" horiz-adv-x="571" 
d="M328 773h-66l-109 113h56l85 -76l85 76h57zM77 0v725h81l275 -639v639h61v-725h-81l-275 639v-639h-61z" />
    <glyph glyph-name="ncaron" unicode="&#x148;" horiz-adv-x="450" 
d="M202 608l-107 117h58l78 -76l78 76h56l-107 -117h-56zM65 0v538h61v-97q14 46 51 76.5t88 30.5q73 0 102 -45.5t29 -147.5v-355h-61v336q0 86 -18 124.5t-69 38.5q-56 0 -89 -52.5t-33 -151.5v-295h-61z" />
    <glyph glyph-name="Eng" unicode="&#x14a;" horiz-adv-x="571" 
d="M325 -175v54h11q62 0 80 17.5t18 76.5v29l-297 637v-639h-60v725h80l277 -601v601h60v-754q0 -87 -29 -116.5t-111 -29.5h-29z" />
    <glyph glyph-name="eng" unicode="&#x14b;" horiz-adv-x="450" 
d="M243 -175v46h12q52 0 66 17.5t14 74.5v373q0 86 -18 124.5t-69 38.5q-56 0 -89 -52.5t-33 -151.5v-295h-61v538h61v-97q14 46 51 76.5t88 30.5q73 0 102 -45.5t29 -147.5v-393q0 -81 -25.5 -109t-100.5 -28h-27z" />
    <glyph glyph-name="Omacron" unicode="&#x14c;" horiz-adv-x="555" 
d="M162 807v51h233v-51h-233zM277 38q92 0 129 76t37 232v34q0 156 -37 232t-129 76t-128.5 -76t-36.5 -232v-34q0 -156 36.5 -232t128.5 -76zM277 -13q-118 0 -174.5 80.5t-56.5 253.5v83q0 173 56.5 253.5t174.5 80.5q119 0 175.5 -80.5t56.5 -253.5v-83
q0 -173 -56.5 -253.5t-175.5 -80.5z" />
    <glyph glyph-name="omacron" unicode="&#x14d;" horiz-adv-x="440" 
d="M220 35q68 0 92 53.5t24 163.5v31q0 110 -24 164t-92 54t-92 -53.5t-24 -164.5v-31q0 -111 24 -164t92 -53zM220 -13q-94 0 -136.5 59t-42.5 185v73q0 126 42.5 185t136.5 59q93 0 136 -59t43 -185v-73q0 -126 -43 -185t-136 -59zM109 643v47h223v-47h-223z" />
    <glyph glyph-name="Obreve" unicode="&#x14e;" horiz-adv-x="555" 
d="M277 38q92 0 129 76t37 232v34q0 156 -37 232t-129 76t-128.5 -76t-36.5 -232v-34q0 -156 36.5 -232t128.5 -76zM277 -13q-118 0 -174.5 80.5t-56.5 253.5v83q0 173 56.5 253.5t174.5 80.5q119 0 175.5 -80.5t56.5 -253.5v-83q0 -173 -56.5 -253.5t-175.5 -80.5zM276 773
q-115 0 -117 113h46q4 -71 72 -71q33 0 51.5 15.5t20.5 55.5h47q-5 -113 -120 -113z" />
    <glyph glyph-name="obreve" unicode="&#x14f;" horiz-adv-x="440" 
d="M220 35q68 0 92 53.5t24 163.5v31q0 110 -24 164t-92 54t-92 -53.5t-24 -164.5v-31q0 -111 24 -164t92 -53zM220 -13q-94 0 -136.5 59t-42.5 185v73q0 126 42.5 185t136.5 59q93 0 136 -59t43 -185v-73q0 -126 -43 -185t-136 -59zM220 606q-60 0 -89.5 30t-34.5 89h46
q5 -42 23.5 -60.5t54.5 -18.5q71 0 78 79h47q-6 -60 -35 -89.5t-90 -29.5z" />
    <glyph glyph-name="Ohungarumlaut" unicode="&#x150;" horiz-adv-x="555" 
d="M277 38q92 0 129 76t37 232v34q0 156 -37 232t-129 76t-128.5 -76t-36.5 -232v-34q0 -156 36.5 -232t128.5 -76zM277 -13q-118 0 -174.5 80.5t-56.5 253.5v83q0 173 56.5 253.5t174.5 80.5q119 0 175.5 -80.5t56.5 -253.5v-83q0 -173 -56.5 -253.5t-175.5 -80.5zM164 784
l77 113h84l-113 -113h-48zM324 784l77 113h84l-113 -113h-48z" />
    <glyph glyph-name="ohungarumlaut" unicode="&#x151;" horiz-adv-x="440" 
d="M126 608l67 117h78l-100 -117h-45zM268 608l67 117h78l-100 -117h-45zM220 35q68 0 92 53.5t24 163.5v31q0 110 -24 164t-92 54t-92 -53.5t-24 -164.5v-31q0 -111 24 -164t92 -53zM220 -13q-94 0 -136.5 59t-42.5 185v73q0 126 42.5 185t136.5 59q93 0 136 -59t43 -185
v-73q0 -126 -43 -185t-136 -59z" />
    <glyph glyph-name="OE" unicode="&#x152;" horiz-adv-x="816" 
d="M443 0v725h353v-54h-289v-268h265v-54h-265v-295h289v-54h-353zM277 38q92 0 129 76t37 232v34q0 156 -37 232t-129 76t-128.5 -76t-36.5 -232v-34q0 -156 36.5 -232t128.5 -76zM277 -13q-118 0 -174.5 80.5t-56.5 253.5v83q0 173 56.5 253.5t174.5 80.5
q119 0 175.5 -80.5t56.5 -253.5v-83q0 -173 -56.5 -253.5t-175.5 -80.5z" />
    <glyph glyph-name="oe" unicode="&#x153;" horiz-adv-x="739" 
d="M231 -13q-94 0 -136.5 59t-42.5 185v73q0 126 42.5 185t136.5 59q108 0 147 -92q40 93 149 93q94 0 135 -57t41 -182v-42h-294v-25q0 -103 25 -155.5t93 -52.5q53 0 81.5 34t28.5 95v5h59v-5q0 -83 -46.5 -129.5t-122.5 -46.5q-110 0 -149 91q-38 -92 -147 -92zM231 35
q68 0 92 53.5t24 163.5v31q0 110 -24 164t-92 54t-92.5 -54t-24.5 -164v-31q0 -110 24.5 -163.5t92.5 -53.5zM409 311h234v11q0 91 -25 136t-90 45q-68 0 -93.5 -46.5t-25.5 -136.5v-9z" />
    <glyph glyph-name="Racute" unicode="&#x154;" horiz-adv-x="521" 
d="M429 0l-132 337q-40 -5 -78 -5h-78v-332h-64v725h144q138 0 198 -42t60 -154q0 -79 -29.5 -121t-92.5 -60l139 -348h-67zM141 379h83q101 0 144.5 30t43.5 118q0 89 -43.5 119.5t-144.5 30.5h-83v-298zM236 773l77 113h84l-113 -113h-48z" />
    <glyph glyph-name="racute" unicode="&#x155;" horiz-adv-x="268" 
d="M149 608l67 117h78l-100 -117h-45zM65 0v538h61v-110q30 110 128 110h20v-60h-29q-59 0 -89 -44t-30 -142v-292h-61z" />
    <glyph glyph-name="uni0156" unicode="&#x156;" horiz-adv-x="521" 
d="M234 -128v78h68v-84l-34 -80h-43l39 86h-30zM429 0l-132 337q-40 -5 -78 -5h-78v-332h-64v725h144q138 0 198 -42t60 -154q0 -79 -29.5 -121t-92.5 -60l139 -348h-67zM141 379h83q101 0 144.5 30t43.5 118q0 89 -43.5 119.5t-144.5 30.5h-83v-298z" />
    <glyph glyph-name="uni0157" unicode="&#x157;" horiz-adv-x="268" 
d="M61 -128v78h68v-84l-34 -80h-43l39 86h-30zM65 0v538h61v-110q30 110 128 110h20v-60h-29q-59 0 -89 -44t-30 -142v-292h-61z" />
    <glyph glyph-name="Rcaron" unicode="&#x158;" horiz-adv-x="521" 
d="M301 773h-66l-109 113h56l85 -76l85 76h57zM429 0l-132 337q-40 -5 -78 -5h-78v-332h-64v725h144q138 0 198 -42t60 -154q0 -79 -29.5 -121t-92.5 -60l139 -348h-67zM141 379h83q101 0 144.5 30t43.5 118q0 89 -43.5 119.5t-144.5 30.5h-83v-298z" />
    <glyph glyph-name="rcaron" unicode="&#x159;" horiz-adv-x="268" 
d="M132 608l-107 117h58l78 -76l78 76h56l-107 -117h-56zM58 0v538h61v-110q30 110 128 110h20v-60h-29q-59 0 -89 -44t-30 -142v-292h-61z" />
    <glyph glyph-name="Sacute" unicode="&#x15a;" horiz-adv-x="500" 
d="M258 -13q-104 0 -163 59t-59 173v6h64v-6q0 -90 41.5 -136t115.5 -46q71 0 107 35t36 97q0 60 -26.5 91.5t-90.5 62.5l-100 47q-31 14 -51 27t-41 34.5t-31.5 53t-10.5 73.5q0 82 54 131t141 49q90 0 144.5 -52t54.5 -147v-6h-62v6q0 67 -37 107t-100 40q-62 0 -97.5 -34
t-35.5 -90q0 -55 21.5 -83t66.5 -48l103 -48q40 -18 63.5 -31.5t49 -37.5t37.5 -57.5t12 -78.5q0 -93 -52.5 -142t-153.5 -49zM212 773l77 113h84l-113 -113h-48z" />
    <glyph glyph-name="sacute" unicode="&#x15b;" horiz-adv-x="407" 
d="M183 608l67 117h78l-100 -117h-45zM205 -13q-79 0 -123 45t-44 130v5h59v-6q0 -126 108 -126q50 0 79 25t29 67q0 41 -16 64.5t-64 44.5l-70 32q-54 25 -81 56.5t-27 87.5q0 62 42.5 99t110.5 37t111 -41.5t43 -111.5v-4h-58v4q0 53 -27.5 79.5t-69.5 26.5
q-41 0 -68 -21.5t-27 -62.5q0 -33 16 -54.5t61 -41.5l68 -31q58 -26 86 -60.5t28 -94.5q0 -68 -45 -108t-121 -40z" />
    <glyph glyph-name="Scircumflex" unicode="&#x15c;" horiz-adv-x="500" 
d="M258 -13q-104 0 -163 59t-59 173v6h64v-6q0 -90 41.5 -136t115.5 -46q71 0 107 35t36 97q0 60 -26.5 91.5t-90.5 62.5l-100 47q-31 14 -51 27t-41 34.5t-31.5 53t-10.5 73.5q0 82 54 131t141 49q90 0 144.5 -52t54.5 -147v-6h-62v6q0 67 -37 107t-100 40q-62 0 -97.5 -34
t-35.5 -90q0 -55 21.5 -83t66.5 -48l103 -48q40 -18 63.5 -31.5t49 -37.5t37.5 -57.5t12 -78.5q0 -93 -52.5 -142t-153.5 -49zM107 773l109 113h66l108 -113h-57l-85 75l-85 -75h-56z" />
    <glyph glyph-name="scircumflex" unicode="&#x15d;" horiz-adv-x="407" 
d="M82 608l107 117h56l107 -117h-56l-78 76l-78 -76h-58zM205 -13q-79 0 -123 45t-44 130v5h59v-6q0 -126 108 -126q50 0 79 25t29 67q0 41 -16 64.5t-64 44.5l-70 32q-54 25 -81 56.5t-27 87.5q0 62 42.5 99t110.5 37t111 -41.5t43 -111.5v-4h-58v4q0 53 -27.5 79.5
t-69.5 26.5q-41 0 -68 -21.5t-27 -62.5q0 -33 16 -54.5t61 -41.5l68 -31q58 -26 86 -60.5t28 -94.5q0 -68 -45 -108t-121 -40z" />
    <glyph glyph-name="Scedilla" unicode="&#x15e;" horiz-adv-x="500" 
d="M258 -13q-104 0 -163 59t-59 173v6h64v-6q0 -90 41.5 -136t115.5 -46q71 0 107 35t36 97q0 60 -26.5 91.5t-90.5 62.5l-100 47q-31 14 -51 27t-41 34.5t-31.5 53t-10.5 73.5q0 82 54 131t141 49q90 0 144.5 -52t54.5 -147v-6h-62v6q0 67 -37 107t-100 40q-62 0 -97.5 -34
t-35.5 -90q0 -55 21.5 -83t66.5 -48l103 -48q40 -18 63.5 -31.5t49 -37.5t37.5 -57.5t12 -78.5q0 -93 -52.5 -142t-153.5 -49zM234 -192q-38 0 -74 12l11 33q24 -11 56 -11q61 0 61 39q0 37 -48 37q-25 0 -43 -9l-16 15l48 77h35l-33 -55q13 3 30 3q33 0 54 -17t21 -48
q0 -37 -30 -56.5t-72 -19.5z" />
    <glyph glyph-name="scedilla" unicode="&#x15f;" horiz-adv-x="407" 
d="M205 -13q-79 0 -123 45t-44 130v5h59v-6q0 -126 108 -126q50 0 79 25t29 67q0 41 -16 64.5t-64 44.5l-70 32q-54 25 -81 56.5t-27 87.5q0 62 42.5 99t110.5 37t111 -41.5t43 -111.5v-4h-58v4q0 53 -27.5 79.5t-69.5 26.5q-41 0 -68 -21.5t-27 -62.5q0 -33 16 -54.5
t61 -41.5l68 -31q58 -26 86 -60.5t28 -94.5q0 -68 -45 -108t-121 -40zM196 -192q-38 0 -74 12l11 33q24 -11 56 -11q61 0 61 39q0 37 -48 37q-25 0 -43 -9l-16 15l48 77h35l-33 -55q15 3 30 3q33 0 54 -17t21 -48q0 -37 -30 -56.5t-72 -19.5z" />
    <glyph glyph-name="Scaron" unicode="&#x160;" horiz-adv-x="500" 
d="M283 773h-66l-109 113h56l85 -76l85 76h57zM258 -13q-104 0 -163 59t-59 173v6h64v-6q0 -90 41.5 -136t115.5 -46q71 0 107 35t36 97q0 60 -26.5 91.5t-90.5 62.5l-100 47q-31 14 -51 27t-41 34.5t-31.5 53t-10.5 73.5q0 82 54 131t141 49q90 0 144.5 -52t54.5 -147v-6
h-62v6q0 67 -37 107t-100 40q-62 0 -97.5 -34t-35.5 -90q0 -55 21.5 -83t66.5 -48l103 -48q40 -18 63.5 -31.5t49 -37.5t37.5 -57.5t12 -78.5q0 -93 -52.5 -142t-153.5 -49z" />
    <glyph glyph-name="scaron" unicode="&#x161;" horiz-adv-x="407" 
d="M182 608l-107 117h58l78 -76l78 76h56l-107 -117h-56zM205 -13q-79 0 -123 45t-44 130v5h59v-6q0 -126 108 -126q50 0 79 25t29 67q0 41 -16 64.5t-64 44.5l-70 32q-54 25 -81 56.5t-27 87.5q0 62 42.5 99t110.5 37t111 -41.5t43 -111.5v-4h-58v4q0 53 -27.5 79.5
t-69.5 26.5q-41 0 -68 -21.5t-27 -62.5q0 -33 16 -54.5t61 -41.5l68 -31q58 -26 86 -60.5t28 -94.5q0 -68 -45 -108t-121 -40z" />
    <glyph glyph-name="uni0162" unicode="&#x162;" horiz-adv-x="448" 
d="M189 -128v78h68v-84l-34 -80h-43l39 86h-30zM192 0v671h-190v54h444v-54h-190v-671h-64z" />
    <glyph glyph-name="uni0163" unicode="&#x163;" horiz-adv-x="246" 
d="M108 -128v78h68v-84l-34 -80h-43l39 86h-30zM230 0h-44q-67 0 -88.5 25.5t-21.5 97.5v369h-74v46h74v131h61v-131h93v-46h-93v-360q0 -55 12 -70.5t57 -15.5h24v-46z" />
    <glyph glyph-name="Tcaron" unicode="&#x164;" horiz-adv-x="448" 
d="M256 773h-66l-109 113h56l85 -76l85 76h57zM192 0v671h-190v54h444v-54h-190v-671h-64z" />
    <glyph glyph-name="tcaron" unicode="&#x165;" horiz-adv-x="303" 
d="M241 555l28 170h51l-41 -170h-38zM230 0h-44q-67 0 -88.5 25.5t-21.5 97.5v369h-74v46h74v131h61v-131h93v-46h-93v-360q0 -55 12 -70.5t57 -15.5h24v-46z" />
    <glyph glyph-name="Tbar" unicode="&#x166;" horiz-adv-x="448" 
d="M2 343v54h190v274h-190v54h444v-54h-190v-274h189v-54h-189v-343h-64v343h-190z" />
    <glyph glyph-name="tbar" unicode="&#x167;" horiz-adv-x="246" 
d="M2 324v47h74v121h-74v46h74v131h61v-131h93v-46h-93v-121h93v-47h-93v-192q0 -55 12 -70.5t57 -15.5h24v-46h-44q-67 0 -88.5 25.5t-21.5 97.5v201h-74z" />
    <glyph glyph-name="Utilde" unicode="&#x168;" horiz-adv-x="552" 
d="M275 -13q-119 0 -162 58t-43 208v472h64v-487q0 -109 30.5 -154.5t110.5 -45.5t111.5 46t31.5 154v487h64v-472q0 -150 -43.5 -208t-163.5 -58zM191 784h-48q9 102 78 102q25 0 62 -27.5t52 -27.5q27 0 33 55h47q-10 -102 -77 -102q-26 0 -63 27.5t-50 27.5
q-30 0 -34 -55z" />
    <glyph glyph-name="utilde" unicode="&#x169;" horiz-adv-x="444" 
d="M184 -13q-73 0 -101.5 46.5t-28.5 148.5v356h61v-339q0 -84 17.5 -123.5t66.5 -39.5q55 0 87 52.5t32 151.5v298h61v-538h-59v94q-13 -46 -49 -76.5t-87 -30.5zM131 620h-47q5 51 27 75.5t52 24.5q24 0 58 -26.5t48 -26.5q27 0 35 53h47q-6 -50 -28 -75t-51 -25
q-26 0 -59.5 26.5t-46.5 26.5q-27 0 -35 -53z" />
    <glyph glyph-name="Umacron" unicode="&#x16a;" horiz-adv-x="552" 
d="M160 807v51h233v-51h-233zM275 -13q-119 0 -162 58t-43 208v472h64v-487q0 -109 30.5 -154.5t110.5 -45.5t111.5 46t31.5 154v487h64v-472q0 -150 -43.5 -208t-163.5 -58z" />
    <glyph glyph-name="umacron" unicode="&#x16b;" horiz-adv-x="444" 
d="M184 -13q-73 0 -101.5 46.5t-28.5 148.5v356h61v-339q0 -84 17.5 -123.5t66.5 -39.5q55 0 87 52.5t32 151.5v298h61v-538h-59v94q-13 -46 -49 -76.5t-87 -30.5zM104 643v47h223v-47h-223z" />
    <glyph glyph-name="Ubreve" unicode="&#x16c;" horiz-adv-x="552" 
d="M275 -13q-119 0 -162 58t-43 208v472h64v-487q0 -109 30.5 -154.5t110.5 -45.5t111.5 46t31.5 154v487h64v-472q0 -150 -43.5 -208t-163.5 -58zM274 773q-115 0 -117 113h46q4 -71 72 -71q33 0 51.5 15.5t20.5 55.5h47q-5 -113 -120 -113z" />
    <glyph glyph-name="ubreve" unicode="&#x16d;" horiz-adv-x="444" 
d="M184 -13q-73 0 -101.5 46.5t-28.5 148.5v356h61v-339q0 -84 17.5 -123.5t66.5 -39.5q55 0 87 52.5t32 151.5v298h61v-538h-59v94q-13 -46 -49 -76.5t-87 -30.5zM216 606q-60 0 -89.5 30t-34.5 89h46q5 -42 23.5 -60.5t54.5 -18.5q71 0 78 79h47q-6 -60 -35 -89.5
t-90 -29.5z" />
    <glyph glyph-name="Uring" unicode="&#x16e;" horiz-adv-x="552" 
d="M275 -13q-119 0 -162 58t-43 208v472h64v-487q0 -109 30.5 -154.5t110.5 -45.5t111.5 46t31.5 154v487h64v-472q0 -150 -43.5 -208t-163.5 -58zM275 895q-18 0 -31.5 -12.5t-13.5 -32.5q0 -19 13.5 -31.5t31.5 -12.5q19 0 32 12t13 32t-13 32.5t-32 12.5zM275 767
q-36 0 -61.5 23.5t-25.5 59.5t25 59t62 23t62 -23t25 -59t-25 -59.5t-62 -23.5z" />
    <glyph glyph-name="uring" unicode="&#x16f;" horiz-adv-x="444" 
d="M217 728q-20 0 -34 -14t-14 -35t14 -34.5t34 -13.5q21 0 34.5 13.5t13.5 34.5t-13.5 35t-34.5 14zM217 596q-36 0 -61.5 23.5t-25.5 59.5t25 59t62 23t62 -23t25 -59t-25 -59.5t-62 -23.5zM184 -13q-73 0 -101.5 46.5t-28.5 148.5v356h61v-339q0 -84 17.5 -123.5
t66.5 -39.5q55 0 87 52.5t32 151.5v298h61v-538h-59v94q-13 -46 -49 -76.5t-87 -30.5z" />
    <glyph glyph-name="Uhungarumlaut" unicode="&#x170;" horiz-adv-x="552" 
d="M275 -13q-119 0 -162 58t-43 208v472h64v-487q0 -109 30.5 -154.5t110.5 -45.5t111.5 46t31.5 154v487h64v-472q0 -150 -43.5 -208t-163.5 -58zM160 784l77 113h84l-113 -113h-48zM320 784l77 113h84l-113 -113h-48z" />
    <glyph glyph-name="uhungarumlaut" unicode="&#x171;" horiz-adv-x="444" 
d="M184 -13q-73 0 -101.5 46.5t-28.5 148.5v356h61v-339q0 -84 17.5 -123.5t66.5 -39.5q55 0 87 52.5t32 151.5v298h61v-538h-59v94q-13 -46 -49 -76.5t-87 -30.5zM122 608l67 117h78l-100 -117h-45zM264 608l67 117h78l-100 -117h-45z" />
    <glyph glyph-name="Uogonek" unicode="&#x172;" horiz-adv-x="552" 
d="M292 -188q-40 0 -70 23t-30 61q0 30 28 60.5t63 43.5h63q-41 -19 -67 -46t-26 -51q0 -21 14 -34.5t39 -13.5q24 0 40 6v-43q-18 -6 -54 -6zM275 -13q-119 0 -162 58t-43 208v472h64v-487q0 -109 30.5 -154.5t110.5 -45.5t111.5 46t31.5 154v487h64v-472
q0 -150 -43.5 -208t-163.5 -58z" />
    <glyph glyph-name="uogonek" unicode="&#x173;" horiz-adv-x="444" 
d="M326 -188q-41 0 -70.5 21.5t-29.5 59.5q0 30 28.5 62.5t62.5 44.5h61q-40 -19 -66.5 -46.5t-26.5 -51.5q0 -21 14.5 -34t40.5 -13q12 0 38 6v-43q-24 -6 -52 -6zM184 -13q-73 0 -101.5 46.5t-28.5 148.5v356h61v-339q0 -84 17.5 -123.5t66.5 -39.5q55 0 87 52.5t32 151.5
v298h61v-538h-59v94q-13 -46 -49 -76.5t-87 -30.5z" />
    <glyph glyph-name="Wcircumflex" unicode="&#x174;" horiz-adv-x="722" 
d="M219 773l109 113h66l108 -113h-57l-85 75l-85 -75h-56zM156 0l-141 725h60l125 -649l128 649h66l128 -649l124 649h61l-142 -725h-79l-125 642l-126 -642h-79z" />
    <glyph glyph-name="wcircumflex" unicode="&#x175;" horiz-adv-x="560" 
d="M143 608l107 117h56l107 -117h-56l-78 76l-78 -76h-58zM120 0l-100 538h56l79 -458l95 458h59l95 -458l80 458h56l-101 -538h-65l-94 465l-94 -465h-66z" />
    <glyph glyph-name="Ycircumflex" unicode="&#x176;" horiz-adv-x="481" 
d="M208 0v281l-198 444h64l167 -383l166 383h64l-199 -445v-280h-64zM100 773l109 113h66l108 -113h-57l-85 75l-85 -75h-56z" />
    <glyph glyph-name="ycircumflex" unicode="&#x177;" horiz-adv-x="381" 
d="M41 -175v46h24q41 0 56.5 14.5t30.5 72.5l11 42l-153 538h62l121 -454l116 454h62l-150 -547q-30 -110 -55.5 -138t-96.5 -28h-28zM54 608l107 117h56l107 -117h-56l-78 76l-78 -76h-58z" />
    <glyph glyph-name="Ydieresis" unicode="&#x178;" horiz-adv-x="481" 
d="M208 0v281l-198 444h64l167 -383l166 383h64l-199 -445v-280h-64zM113 780v100h59v-100h-59zM310 780v100h59v-100h-59z" />
    <glyph glyph-name="Zacute" unicode="&#x179;" horiz-adv-x="460" 
d="M25 0v51l343 620h-323v54h392v-50l-343 -621h351v-54h-420zM199 778l77 113h84l-113 -113h-48z" />
    <glyph glyph-name="zacute" unicode="&#x17a;" horiz-adv-x="359" 
d="M153 608l67 117h78l-100 -117h-45zM15 0v45l258 446h-235v47h301v-45l-258 -446h263v-47h-329z" />
    <glyph glyph-name="Zdotaccent" unicode="&#x17b;" horiz-adv-x="460" 
d="M218 781v100h64v-100h-64zM25 0v51l343 620h-323v54h392v-50l-343 -621h351v-54h-420z" />
    <glyph glyph-name="zdotaccent" unicode="&#x17c;" horiz-adv-x="359" 
d="M15 0v45l258 446h-235v47h301v-45l-258 -446h263v-47h-329zM168 624v101h57v-101h-57z" />
    <glyph glyph-name="Zcaron" unicode="&#x17d;" horiz-adv-x="460" 
d="M295 773h-66l-109 113h56l85 -76l85 76h57zM25 0v51l343 620h-323v54h392v-50l-343 -621h351v-54h-420z" />
    <glyph glyph-name="zcaron" unicode="&#x17e;" horiz-adv-x="359" 
d="M172 608l-107 117h58l78 -76l78 76h56l-107 -117h-56zM15 0v45l258 446h-235v47h301v-45l-258 -446h263v-47h-329z" />
    <glyph glyph-name="uni018F" unicode="&#x18f;" horiz-adv-x="511" 
d="M248 -13q-106 0 -158.5 62.5t-52.5 178.5v134h364v59q0 126 -33 195.5t-120 69.5q-145 0 -145 -179v-8h-65v8q0 106 53 168.5t157 62.5q218 0 218 -283v-173q0 -295 -218 -295zM248 39q87 0 120 66t33 197v10h-298v-91q0 -182 145 -182z" />
    <glyph glyph-name="uni0218" unicode="&#x218;" horiz-adv-x="500" 
d="M228 -128v78h68v-84l-34 -80h-43l39 86h-30zM258 -13q-104 0 -163 59t-59 173v6h64v-6q0 -90 41.5 -136t115.5 -46q71 0 107 35t36 97q0 60 -26.5 91.5t-90.5 62.5l-100 47q-31 14 -51 27t-41 34.5t-31.5 53t-10.5 73.5q0 82 54 131t141 49q90 0 144.5 -52t54.5 -147v-6
h-62v6q0 67 -37 107t-100 40q-62 0 -97.5 -34t-35.5 -90q0 -55 21.5 -83t66.5 -48l103 -48q40 -18 63.5 -31.5t49 -37.5t37.5 -57.5t12 -78.5q0 -93 -52.5 -142t-153.5 -49z" />
    <glyph glyph-name="uni0219" unicode="&#x219;" horiz-adv-x="407" 
d="M180 -128v78h68v-84l-34 -80h-43l39 86h-30zM205 -13q-79 0 -123 45t-44 130v5h59v-6q0 -126 108 -126q50 0 79 25t29 67q0 41 -16 64.5t-64 44.5l-70 32q-54 25 -81 56.5t-27 87.5q0 62 42.5 99t110.5 37t111 -41.5t43 -111.5v-4h-58v4q0 53 -27.5 79.5t-69.5 26.5
q-41 0 -68 -21.5t-27 -62.5q0 -33 16 -54.5t61 -41.5l68 -31q58 -26 86 -60.5t28 -94.5q0 -68 -45 -108t-121 -40z" />
    <glyph glyph-name="uni021A" unicode="&#x21a;" horiz-adv-x="448" 
d="M189 -128v78h68v-84l-34 -80h-43l39 86h-30zM192 0v671h-190v54h444v-54h-190v-671h-64z" />
    <glyph glyph-name="uni021B" unicode="&#x21b;" horiz-adv-x="246" 
d="M108 -128v78h68v-84l-34 -80h-43l39 86h-30zM230 0h-44q-67 0 -88.5 25.5t-21.5 97.5v369h-74v46h74v131h61v-131h93v-46h-93v-360q0 -55 12 -70.5t57 -15.5h24v-46z" />
    <glyph glyph-name="uni0232" unicode="&#x232;" horiz-adv-x="481" 
d="M208 0v281l-198 444h64l167 -383l166 383h64l-199 -445v-280h-64zM125 807v51h233v-51h-233z" />
    <glyph glyph-name="uni0233" unicode="&#x233;" horiz-adv-x="381" 
d="M41 -175v46h24q41 0 56.5 14.5t30.5 72.5l11 42l-153 538h62l121 -454l116 454h62l-150 -547q-30 -110 -55.5 -138t-96.5 -28h-28zM78 643v47h223v-47h-223z" />
    <glyph glyph-name="uni0237" unicode="&#x237;" horiz-adv-x="191" 
d="M-21 -175v45h18q46 0 57 15.5t11 72.5v580h61v-584q0 -76 -24 -102.5t-95 -26.5h-28z" />
    <glyph glyph-name="uni0259" unicode="&#x259;" horiz-adv-x="434" 
d="M213 -13q-94 0 -135 57t-41 181v43h294v20q0 106 -25 159t-93 53q-108 0 -108 -129v-4h-60v4q0 88 44 132.5t124 44.5q95 0 137.5 -59.5t42.5 -184.5v-74q0 -125 -42.5 -184t-137.5 -59zM213 33q67 0 92.5 48t25.5 139v4h-232v-5q0 -95 24 -140.5t90 -45.5z" />
    <glyph glyph-name="circumflex" unicode="&#x2c6;" horiz-adv-x="320" 
d="M25 608l107 117h56l107 -117h-56l-78 76l-78 -76h-58z" />
    <glyph glyph-name="caron" unicode="&#x2c7;" horiz-adv-x="320" 
d="M132 608l-107 117h58l78 -76l78 76h56l-107 -117h-56z" />
    <glyph glyph-name="breve" unicode="&#x2d8;" horiz-adv-x="299" 
d="M149 606q-60 0 -89.5 30t-34.5 89h46q5 -42 24 -60.5t54 -18.5q71 0 78 79h47q-6 -60 -35 -89.5t-90 -29.5z" />
    <glyph glyph-name="dotaccent" unicode="&#x2d9;" horiz-adv-x="107" 
d="M25 624v101h57v-101h-57z" />
    <glyph glyph-name="ring" unicode="&#x2da;" horiz-adv-x="224" 
d="M112 728q-20 0 -34 -14t-14 -35t14 -34.5t34 -13.5q21 0 34.5 13.5t13.5 34.5t-13.5 35t-34.5 14zM112 596q-36 0 -61.5 23.5t-25.5 59.5t25 59t62 23t62 -23t25 -59t-25 -59.5t-62 -23.5z" />
    <glyph glyph-name="ogonek" unicode="&#x2db;" horiz-adv-x="204" 
d="M125 -188q-41 0 -70.5 21.5t-29.5 59.5q0 30 28.5 62.5t62.5 44.5h61q-40 -19 -66.5 -46.5t-26.5 -51.5q0 -21 14.5 -34t40.5 -13q12 0 38 6v-43q-24 -6 -52 -6z" />
    <glyph glyph-name="tilde" unicode="&#x2dc;" horiz-adv-x="317" 
d="M72 620h-47q5 51 27 75.5t52 24.5q24 0 58 -26.5t48 -26.5q27 0 35 53h47q-6 -50 -28 -75t-51 -25q-26 0 -59.5 26.5t-46.5 26.5q-27 0 -35 -53z" />
    <glyph glyph-name="hungarumlaut" unicode="&#x2dd;" horiz-adv-x="337" 
d="M25 608l67 117h78l-100 -117h-45zM167 608l67 117h78l-100 -117h-45z" />
    <glyph glyph-name="uni032C" unicode="&#x32c;" horiz-adv-x="379" 
d="M166 -138l-141 138h54l110 -93l110 93h55l-143 -138h-45z" />
    <glyph glyph-name="uni0394" unicode="&#x394;" horiz-adv-x="667" 
d="M102 53h464l-232 563zM16 0l318 740l317 -740h-635z" />
    <glyph glyph-name="uni0394" unicode="&#x2206;" horiz-adv-x="667" 
d="M102 53h464l-232 563zM16 0l318 740l317 -740h-635z" />
    <glyph glyph-name="uni03A9" unicode="&#x3a9;" horiz-adv-x="760" 
d="M98 0v55h178v85q-82 24 -143 100t-61 186q0 144 86.5 228t221.5 84t221.5 -84t86.5 -228q0 -110 -61 -186t-145 -100v-85h179v-55h-234v175q89 21 144 88t55 162q0 121 -67.5 191.5t-178.5 70.5q-112 0 -180 -70.5t-68 -191.5q0 -95 55 -162t145 -88v-175h-234z" />
    <glyph glyph-name="uni03A9" unicode="&#x2126;" horiz-adv-x="760" 
d="M98 0v55h178v85q-82 24 -143 100t-61 186q0 144 86.5 228t221.5 84t221.5 -84t86.5 -228q0 -110 -61 -186t-145 -100v-85h179v-55h-234v175q89 21 144 88t55 162q0 121 -67.5 191.5t-178.5 70.5q-112 0 -180 -70.5t-68 -191.5q0 -95 55 -162t145 -88v-175h-234z" />
    <glyph glyph-name="pi" unicode="&#x3c0;" horiz-adv-x="524" 
d="M99 0v485h-74v53h472v-53h-77v-348q0 -59 9.5 -73t54.5 -14h15v-50h-26q-66 0 -87.5 22t-21.5 101v362h-209v-485h-56z" />
    <glyph glyph-name="Wgrave" unicode="&#x1e80;" horiz-adv-x="722" 
d="M331 773l-113 113h84l77 -113h-48zM156 0l-141 725h60l125 -649l128 649h66l128 -649l124 649h61l-142 -725h-79l-125 642l-126 -642h-79z" />
    <glyph glyph-name="wgrave" unicode="&#x1e81;" horiz-adv-x="560" 
d="M120 0l-100 538h56l79 -458l95 458h59l95 -458l80 458h56l-101 -538h-65l-94 465l-94 -465h-66zM250 608l-100 117h79l66 -117h-45z" />
    <glyph glyph-name="Wacute" unicode="&#x1e82;" horiz-adv-x="722" 
d="M156 0l-141 725h60l125 -649l128 649h66l128 -649l124 649h61l-142 -725h-79l-125 642l-126 -642h-79zM340 773l77 113h84l-113 -113h-48z" />
    <glyph glyph-name="wacute" unicode="&#x1e83;" horiz-adv-x="560" 
d="M263 608l67 117h78l-100 -117h-45zM120 0l-100 538h56l79 -458l95 458h59l95 -458l80 458h56l-101 -538h-65l-94 465l-94 -465h-66z" />
    <glyph glyph-name="Wdieresis" unicode="&#x1e84;" horiz-adv-x="722" 
d="M233 780v100h59v-100h-59zM430 780v100h59v-100h-59zM156 0l-141 725h60l125 -649l128 649h66l128 -649l124 649h61l-142 -725h-79l-125 642l-126 -642h-79z" />
    <glyph glyph-name="wdieresis" unicode="&#x1e85;" horiz-adv-x="560" 
d="M152 624v101h57v-101h-57zM350 624v101h58v-101h-58zM120 0l-100 538h56l79 -458l95 458h59l95 -458l80 458h56l-101 -538h-65l-94 465l-94 -465h-66z" />
    <glyph glyph-name="uni1ECA" unicode="&#x1eca;" horiz-adv-x="218" 
d="M77 0v725h64v-725h-64zM81 -175v99h57v-99h-57z" />
    <glyph glyph-name="uni1ECB" unicode="&#x1ecb;" horiz-adv-x="191" 
d="M67 -175v99h57v-99h-57zM65 0v538h61v-538h-61zM65 623v102h61v-102h-61z" />
    <glyph glyph-name="uni1ECC" unicode="&#x1ecc;" horiz-adv-x="555" 
d="M251 -175v99h57v-99h-57zM277 38q92 0 129 76t37 232v34q0 156 -37 232t-129 76t-128.5 -76t-36.5 -232v-34q0 -156 36.5 -232t128.5 -76zM277 -13q-118 0 -174.5 80.5t-56.5 253.5v83q0 173 56.5 253.5t174.5 80.5q119 0 175.5 -80.5t56.5 -253.5v-83
q0 -173 -56.5 -253.5t-175.5 -80.5z" />
    <glyph glyph-name="uni1ECD" unicode="&#x1ecd;" horiz-adv-x="440" 
d="M194 -175v99h57v-99h-57zM220 35q68 0 92 53.5t24 163.5v31q0 110 -24 164t-92 54t-92 -53.5t-24 -164.5v-31q0 -111 24 -164t92 -53zM220 -13q-94 0 -136.5 59t-42.5 185v73q0 126 42.5 185t136.5 59q93 0 136 -59t43 -185v-73q0 -126 -43 -185t-136 -59z" />
    <glyph glyph-name="uni1EE4" unicode="&#x1ee4;" horiz-adv-x="552" 
d="M247 -175v99h57v-99h-57zM275 -13q-119 0 -162 58t-43 208v472h64v-487q0 -109 30.5 -154.5t110.5 -45.5t111.5 46t31.5 154v487h64v-472q0 -150 -43.5 -208t-163.5 -58z" />
    <glyph glyph-name="uni1EE5" unicode="&#x1ee5;" horiz-adv-x="444" 
d="M188 -175v99h57v-99h-57zM184 -13q-73 0 -101.5 46.5t-28.5 148.5v356h61v-339q0 -84 17.5 -123.5t66.5 -39.5q55 0 87 52.5t32 151.5v298h61v-538h-59v94q-13 -46 -49 -76.5t-87 -30.5z" />
    <glyph glyph-name="Ygrave" unicode="&#x1ef2;" horiz-adv-x="481" 
d="M208 0v281l-198 444h64l167 -383l166 383h64l-199 -445v-280h-64zM235 773l-113 113h84l77 -113h-48z" />
    <glyph glyph-name="ygrave" unicode="&#x1ef3;" horiz-adv-x="381" 
d="M41 -175v46h24q41 0 56.5 14.5t30.5 72.5l11 42l-153 538h62l121 -454l116 454h62l-150 -547q-30 -110 -55.5 -138t-96.5 -28h-28zM183 608l-100 117h79l66 -117h-45z" />
    <glyph glyph-name="endash" unicode="&#x2013;" horiz-adv-x="492" 
d="M36 242v58h420v-58h-420z" />
    <glyph glyph-name="emdash" unicode="&#x2014;" horiz-adv-x="722" 
d="M36 242v58h651v-58h-651z" />
    <glyph glyph-name="quoteleft" unicode="&#x2018;" horiz-adv-x="218" 
d="M140 458h-62v104q0 78 17.5 116t80.5 47v-62q-18 -4 -25.5 -15t-9 -26.5t-1.5 -58.5v-105z" />
    <glyph glyph-name="quoteright" unicode="&#x2019;" horiz-adv-x="217" 
d="M78 725h62v-104q0 -30 -1.5 -49t-7 -41.5t-15.5 -35.5t-28.5 -23.5t-45.5 -13.5v62q25 6 30.5 23.5t5.5 76.5v105z" />
    <glyph glyph-name="quotesinglbase" unicode="&#x201a;" horiz-adv-x="217" 
d="M78 114h62v-104q0 -30 -1.5 -49t-7 -41.5t-15.5 -35.5t-28.5 -23.5t-45.5 -13.5v62q25 6 30.5 23.5t5.5 76.5v105z" />
    <glyph glyph-name="quotedblleft" unicode="&#x201c;" horiz-adv-x="365" 
d="M287 458h-62v104q0 78 17.5 116t80.5 47v-62q-18 -4 -25.5 -15t-9 -26.5t-1.5 -58.5v-105zM140 458h-62v104q0 78 17.5 116t80.5 47v-62q-18 -4 -25.5 -15t-9 -26.5t-1.5 -58.5v-105z" />
    <glyph glyph-name="quotedblright" unicode="&#x201d;" horiz-adv-x="371" 
d="M232 725h62v-104q0 -30 -1.5 -49t-7 -41.5t-15.5 -35.5t-28.5 -23.5t-45.5 -13.5v62q25 6 30.5 23.5t5.5 76.5v105zM78 725h62v-104q0 -30 -1.5 -49t-7 -41.5t-15.5 -35.5t-28.5 -23.5t-45.5 -13.5v62q25 6 30.5 23.5t5.5 76.5v105z" />
    <glyph glyph-name="quotedblbase" unicode="&#x201e;" horiz-adv-x="371" 
d="M232 114h62v-104q0 -30 -1.5 -49t-7 -41.5t-15.5 -35.5t-28.5 -23.5t-45.5 -13.5v62q25 6 30.5 23.5t5.5 76.5v105zM78 114h62v-104q0 -30 -1.5 -49t-7 -41.5t-15.5 -35.5t-28.5 -23.5t-45.5 -13.5v62q25 6 30.5 23.5t5.5 76.5v105z" />
    <glyph glyph-name="dagger" unicode="&#x2020;" horiz-adv-x="435" 
d="M188 0v427h-163v54h163v244h58v-244h164v-54h-164v-427h-58z" />
    <glyph glyph-name="daggerdbl" unicode="&#x2021;" horiz-adv-x="435" 
d="M188 0v209h-163v53h163v191h-163v53h163v219h58v-219h164v-53h-164v-191h164v-53h-164v-209h-58z" />
    <glyph glyph-name="bullet" unicode="&#x2022;" horiz-adv-x="460" 
d="M226 96q-73 0 -124.5 53t-51.5 130q0 73 52 125t124 52q78 0 131 -51.5t53 -125.5q0 -78 -52.5 -130.5t-131.5 -52.5z" />
    <glyph glyph-name="ellipsis" unicode="&#x2026;" horiz-adv-x="654" 
d="M296 0v114h62v-114h-62zM514 0v114h62v-114h-62zM78 0v114h62v-114h-62z" />
    <glyph glyph-name="perthousand" unicode="&#x2030;" horiz-adv-x="1103" 
d="M947 26q44 0 58 39t14 126v25q0 87 -14 126t-58 39t-57.5 -38.5t-13.5 -126.5v-25q0 -59 4 -91t20 -53t47 -21zM947 -8q-67 0 -94.5 43.5t-27.5 142.5v50q0 100 27.5 143.5t94.5 43.5q68 0 95.5 -43.5t27.5 -143.5v-50q0 -99 -27.5 -142.5t-95.5 -43.5zM248 0l255 725h41
l-255 -725h-41zM155 343q44 0 58 38.5t14 126.5v25q0 87 -14 126t-58 39t-57.5 -38.5t-13.5 -126.5v-25q0 -59 4 -91t20 -53t47 -21zM155 309q-67 0 -94.5 43.5t-27.5 142.5v50q0 100 27.5 143.5t94.5 43.5q68 0 95.5 -43.5t27.5 -143.5v-50q0 -99 -27.5 -142.5t-95.5 -43.5
zM636 26q44 0 58 39t14 126v25q0 87 -14 126t-58 39t-57.5 -38.5t-13.5 -126.5v-25q0 -59 4 -91t20 -53t47 -21zM636 -8q-67 0 -94.5 43.5t-27.5 142.5v50q0 100 27.5 143.5t94.5 43.5q68 0 95.5 -43.5t27.5 -143.5v-50q0 -99 -27.5 -142.5t-95.5 -43.5z" />
    <glyph glyph-name="guilsinglleft" unicode="&#x2039;" horiz-adv-x="198" 
d="M144 96l-123 143v74l123 143v-78l-88 -103l88 -103v-76z" />
    <glyph glyph-name="guilsinglright" unicode="&#x203a;" horiz-adv-x="198" 
d="M55 96v76l87 103l-87 103v78l123 -143v-74z" />
    <glyph glyph-name="fraction" unicode="&#x2044;" horiz-adv-x="170" 
d="M-63 0l255 725h41l-255 -725h-41z" />
    <glyph glyph-name="uni2070" unicode="&#x2070;" horiz-adv-x="311" 
d="M155 464q44 0 58 39t14 126v25q0 87 -14 126t-58 39t-57.5 -38.5t-13.5 -126.5v-25q0 -59 4 -91t20 -53t47 -21zM155 430q-67 0 -94.5 43.5t-27.5 142.5v50q0 100 27.5 143.5t94.5 43.5q68 0 95.5 -43.5t27.5 -143.5v-50q0 -99 -27.5 -142.5t-95.5 -43.5z" />
    <glyph glyph-name="uni2074" unicode="&#x2074;" horiz-adv-x="290" 
d="M174 438v106h-164v37l164 265h47v-262h48v-40h-48v-106h-47zM49 584h125v197z" />
    <glyph glyph-name="uni2075" unicode="&#x2075;" horiz-adv-x="277" 
d="M137 430q-53 0 -83 29t-30 82v2h47v-2q0 -77 66 -77q68 0 68 96v21q0 94 -66 94q-47 0 -65 -53l-44 2l22 222h194v-39h-157l-13 -139q23 43 78 43q48 0 74.5 -32.5t26.5 -94.5v-27q0 -62 -30.5 -94.5t-87.5 -32.5z" />
    <glyph glyph-name="uni2076" unicode="&#x2076;" horiz-adv-x="293" 
d="M154 430q-59 0 -89.5 37.5t-30.5 122.5v56q0 108 27 157.5t98 49.5q52 0 79 -29.5t27 -77.5v-3h-46v2q0 74 -61 74q-41 0 -57.5 -37t-16.5 -116v-13q7 21 28 37t53 16q49 0 77.5 -32.5t28.5 -94.5v-22q0 -64 -30.5 -95.5t-86.5 -31.5zM153 464q69 0 69 95v16
q0 45 -18.5 70t-50.5 25q-33 0 -51.5 -25t-18.5 -72v-13q0 -46 18.5 -71t51.5 -25z" />
    <glyph glyph-name="uni2077" unicode="&#x2077;" horiz-adv-x="235" 
d="M96 438h-49q13 235 147 369h-188v39h232v-39q-71 -69 -103.5 -157t-38.5 -212z" />
    <glyph glyph-name="uni2078" unicode="&#x2078;" horiz-adv-x="303" 
d="M152 430q-127 0 -127 121q0 77 72 105q-24 7 -42.5 30.5t-18.5 62.5q0 53 31 78.5t85 25.5q53 0 84 -25.5t31 -78.5q0 -39 -18.5 -62.5t-42.5 -30.5q72 -28 72 -105q0 -121 -126 -121zM152 464q36 0 56.5 21.5t20.5 60.5v9q0 39 -20.5 60.5t-56.5 21.5t-57 -21.5
t-21 -60.5v-9q0 -39 21 -60.5t57 -21.5zM152 670q65 0 65 71v6q0 72 -65 72q-66 0 -66 -72v-6q0 -71 66 -71z" />
    <glyph glyph-name="uni2079" unicode="&#x2079;" horiz-adv-x="302" 
d="M143 430q-52 0 -78 29t-26 78v3h46v-3q0 -73 59 -73q42 0 58.5 37t16.5 116v13q-7 -20 -28.5 -36t-52.5 -16q-50 0 -79 32t-29 94v21q0 64 31 96t86 32q60 0 90.5 -37.5t30.5 -123.5v-56q0 -107 -27.5 -156.5t-97.5 -49.5zM150 613q33 0 51.5 25t18.5 71v13
q0 46 -18.5 71.5t-51.5 25.5q-69 0 -69 -96v-15q0 -46 18 -70.5t51 -24.5z" />
    <glyph glyph-name="uni207A" unicode="&#x207a;" horiz-adv-x="340" 
d="M148 438v129h-127v43h127v129h45v-129h127v-43h-127v-129h-45z" />
    <glyph glyph-name="uni207B" unicode="&#x207b;" horiz-adv-x="319" 
d="M21 567v43h292v-43h-292z" />
    <glyph glyph-name="uni207C" unicode="&#x207c;" horiz-adv-x="325" 
d="M28 508v42h254v-42h-254zM28 630v42h254v-42h-254z" />
    <glyph glyph-name="uni207D" unicode="&#x207d;" horiz-adv-x="133" 
d="M136 334h-41q-29 46 -51 114.5t-22 141.5q0 135 73 256h41q-67 -116 -67 -256t67 -256z" />
    <glyph glyph-name="uni207E" unicode="&#x207e;" horiz-adv-x="133" 
d="M38 334h-40q66 114 66 256t-66 256h40q29 -44 50.5 -113.5t21.5 -142.5q0 -74 -21.5 -144t-50.5 -112z" />
    <glyph glyph-name="uni207F" unicode="&#x207f;" horiz-adv-x="263" 
d="M34 438v302h49v-49q20 56 77 56q41 0 57.5 -25t16.5 -82v-202h-48v186q0 45 -9 66.5t-34 21.5q-60 0 -60 -108v-166h-49z" />
    <glyph glyph-name="uni2080" unicode="&#x2080;" horiz-adv-x="311" 
d="M155 -102q44 0 58 39t14 126v25q0 87 -14 126t-58 39t-57.5 -38.5t-13.5 -126.5v-25q0 -59 4 -91t20 -53t47 -21zM155 -136q-67 0 -94.5 43.5t-27.5 142.5v50q0 100 27.5 143.5t94.5 43.5q68 0 95.5 -43.5t27.5 -143.5v-50q0 -99 -27.5 -142.5t-95.5 -43.5z" />
    <glyph glyph-name="uni2081" unicode="&#x2081;" horiz-adv-x="186" 
d="M83 -128v321h-78v33q57 0 69.5 7.5t18.5 46.5h38v-408h-48z" />
    <glyph glyph-name="uni2082" unicode="&#x2082;" horiz-adv-x="270" 
d="M23 -128v38l45 58q9 11 28 35t27.5 35t22.5 30.5t21 32t15 28.5t11 29.5t3 27.5q0 66 -61 66q-63 0 -63 -87v-3h-47v3q0 59 28.5 90.5t83.5 31.5q50 0 79 -24.5t29 -74.5q0 -30 -16.5 -66t-36 -63.5t-59.5 -79.5q-11 -14 -17 -22l-37 -47h167v-38h-223z" />
    <glyph glyph-name="uni2083" unicode="&#x2083;" horiz-adv-x="287" 
d="M135 -136q-111 0 -111 110v2h46v-2q0 -76 65 -76q73 0 73 83q0 41 -20.5 62.5t-68.5 21.5h-21v36h21q76 0 76 78q0 73 -61 73q-60 0 -60 -74v-2h-46v2q0 52 28 80.5t79 28.5q110 0 110 -106q0 -76 -64 -95q77 -18 77 -104q0 -118 -123 -118z" />
    <glyph glyph-name="uni2084" unicode="&#x2084;" horiz-adv-x="290" 
d="M174 -128v106h-164v37l164 265h47v-262h48v-40h-48v-106h-47zM49 18h125v197z" />
    <glyph glyph-name="uni2085" unicode="&#x2085;" horiz-adv-x="277" 
d="M137 -136q-53 0 -83 29t-30 82v2h47v-2q0 -77 66 -77q68 0 68 96v21q0 94 -66 94q-47 0 -65 -53l-44 2l22 222h194v-39h-157l-13 -139q23 43 78 43q48 0 74.5 -32.5t26.5 -94.5v-27q0 -62 -30.5 -94.5t-87.5 -32.5z" />
    <glyph glyph-name="uni2086" unicode="&#x2086;" horiz-adv-x="293" 
d="M154 -136q-59 0 -89.5 37.5t-30.5 122.5v56q0 108 27 157.5t98 49.5q52 0 79 -29.5t27 -77.5v-3h-46v2q0 74 -61 74q-41 0 -57.5 -37t-16.5 -116v-13q7 21 28 37t53 16q49 0 77.5 -32.5t28.5 -94.5v-22q0 -64 -30.5 -95.5t-86.5 -31.5zM153 -102q69 0 69 95v16
q0 45 -18.5 70t-50.5 25q-33 0 -51.5 -25t-18.5 -72v-13q0 -46 18.5 -71t51.5 -25z" />
    <glyph glyph-name="uni2087" unicode="&#x2087;" horiz-adv-x="235" 
d="M96 -128h-49q13 235 147 369h-188v39h232v-39q-71 -69 -103.5 -157t-38.5 -212z" />
    <glyph glyph-name="uni2088" unicode="&#x2088;" horiz-adv-x="303" 
d="M152 -136q-127 0 -127 121q0 77 72 105q-24 7 -42.5 30.5t-18.5 62.5q0 53 31 78.5t85 25.5q53 0 84 -25.5t31 -78.5q0 -39 -18.5 -62.5t-42.5 -30.5q72 -28 72 -105q0 -121 -126 -121zM152 -102q36 0 56.5 21.5t20.5 60.5v9q0 39 -20.5 60.5t-56.5 21.5t-57 -21.5
t-21 -60.5v-9q0 -39 21 -60.5t57 -21.5zM152 104q65 0 65 71v6q0 72 -65 72q-66 0 -66 -72v-6q0 -71 66 -71z" />
    <glyph glyph-name="uni2089" unicode="&#x2089;" horiz-adv-x="302" 
d="M143 -136q-52 0 -78 29t-26 78v3h46v-3q0 -73 59 -73q42 0 58.5 37t16.5 116v13q-7 -20 -28.5 -36t-52.5 -16q-50 0 -79 32t-29 94v21q0 64 31 96t86 32q60 0 90.5 -37.5t30.5 -123.5v-56q0 -107 -27.5 -156.5t-97.5 -49.5zM150 47q33 0 51.5 25t18.5 71v13
q0 46 -18.5 71.5t-51.5 25.5q-69 0 -69 -96v-15q0 -46 18 -70.5t51 -24.5z" />
    <glyph glyph-name="uni208D" unicode="&#x208d;" horiz-adv-x="133" 
d="M136 -232h-41q-29 46 -51 114.5t-22 141.5q0 135 73 256h41q-67 -116 -67 -256t67 -256z" />
    <glyph glyph-name="uni208E" unicode="&#x208e;" horiz-adv-x="133" 
d="M38 -232h-40q66 114 66 256t-66 256h40q29 -44 50.5 -113.5t21.5 -142.5q0 -74 -21.5 -144t-50.5 -112z" />
    <glyph glyph-name="Euro" unicode="&#x20ac;" horiz-adv-x="582" 
d="M0 397l31 42h76q5 155 59.5 227t165.5 72q104 0 158.5 -61t54.5 -174v-3h-60v3q0 186 -153 186q-82 0 -119.5 -62t-43.5 -188h254l-31 -42h-224v-71h179l-31 -42h-147q6 -125 43.5 -186.5t119.5 -61.5q153 0 153 187v3h60v-3q0 -113 -54.5 -174.5t-158.5 -61.5
q-110 0 -164.5 71.5t-60.5 225.5h-107l31 42h76v71h-107z" />
    <glyph glyph-name="uni2113" unicode="&#x2113;" horiz-adv-x="393" 
d="M227 -13q-66 0 -92 37t-26 111v105l-78 -59l-26 40l104 80v244q0 97 30.5 144t96.5 47q56 0 87.5 -42.5t31.5 -112.5q0 -91 -46 -157t-136 -135l-6 -5v-151q0 -51 14.5 -74t52.5 -23q43 0 90 39l27 -37q-51 -51 -124 -51zM167 550v-204l13 10q118 92 118 223
q0 53 -17.5 81.5t-48.5 28.5q-35 0 -50 -35t-15 -104z" />
    <glyph glyph-name="uni2116" unicode="&#x2116;" horiz-adv-x="863" 
d="M688 414q39 0 52 31t13 96v23q0 64 -13.5 95.5t-51.5 31.5q-39 0 -52.5 -31.5t-13.5 -95.5v-23q0 -66 13.5 -96.5t52.5 -30.5zM688 378q-117 0 -117 151v47q0 151 117 151q116 0 116 -151v-47q0 -151 -116 -151zM569 290v53h239v-53h-239zM82 0v725h81l275 -639v639h61
v-725h-81l-275 639v-639h-61z" />
    <glyph glyph-name="uni2117" unicode="&#x2117;" horiz-adv-x="838" 
d="M420 -13q-154 0 -264 109.5t-110 265.5t110 266t264 110t264 -110t110 -266t-110 -265.5t-264 -109.5zM420 26q138 0 234.5 98t96.5 238t-96.5 238.5t-234.5 98.5t-234.5 -98.5t-96.5 -238.5t96.5 -238t234.5 -98zM379 164h-51v398h89q76 0 110 -24t34 -87
q0 -108 -134 -108q-1 -1 -10 -1h-38v-178zM379 524v-147h39q49 0 68.5 15t19.5 58q0 44 -19.5 59t-68.5 15h-39z" />
    <glyph glyph-name="trademark" unicode="&#x2122;" horiz-adv-x="636" 
d="M288 321v404h74l88 -346l89 346h72v-404h-46v352h-1l-3 -21l-89 -331h-43l-89 331l-4 21h-1v-352h-47zM103 321v365h-99v39h249v-39h-100v-365h-50z" />
    <glyph glyph-name="estimated" unicode="&#x212e;" horiz-adv-x="556" 
d="M130 302h294v163q-53 53 -145 53q-99 0 -149 -52v-164zM285 -13q-127 0 -198.5 80.5t-71.5 201.5q0 122 73.5 202t191.5 80q120 0 189 -81.5t71 -199.5h-410v-195q24 -24 68.5 -39.5t94.5 -15.5q70 0 119.5 33.5t73.5 93.5h40q-26 -72 -86.5 -116t-154.5 -44z" />
    <glyph glyph-name="onethird" unicode="&#x2153;" horiz-adv-x="643" 
d="M83 317v321h-78v32q57 0 69.5 7.5t18.5 47.5h38v-408h-48zM123 0l255 725h41l-255 -725h-41zM491 -8q-111 0 -111 110v2h46v-2q0 -76 65 -76q73 0 73 83q0 41 -20.5 62.5t-68.5 21.5h-21v36h21q76 0 76 78q0 73 -61 73q-60 0 -60 -74v-2h-46v2q0 52 28 80.5t79 28.5
q110 0 110 -106q0 -76 -64 -95q77 -18 77 -104q0 -118 -123 -118z" />
    <glyph glyph-name="twothirds" unicode="&#x2154;" horiz-adv-x="727" 
d="M23 317v38l45 58q9 11 28 35t27.5 35t22.5 30.5t21 32t15 28.5t11 29.5t3 27.5q0 66 -61 66q-63 0 -63 -87v-3h-47v3q0 59 28.5 90.5t83.5 31.5q50 0 79 -24.5t29 -74.5q0 -30 -16.5 -66t-36 -63.5t-59.5 -79.5l-6 -7.5t-5 -6.5l-6 -8l-37 -47h167v-38h-223zM207 0
l255 725h41l-255 -725h-41zM575 -8q-111 0 -111 110v2h46v-2q0 -76 65 -76q73 0 73 83q0 41 -20.5 62.5t-68.5 21.5h-21v36h21q76 0 76 78q0 73 -61 73q-60 0 -60 -74v-2h-46v2q0 52 28 80.5t79 28.5q110 0 110 -106q0 -76 -64 -95q77 -18 77 -104q0 -118 -123 -118z" />
    <glyph glyph-name="uni2155" unicode="&#x2155;" horiz-adv-x="633" 
d="M83 317v321h-78v32q57 0 69.5 7.5t18.5 47.5h38v-408h-48zM123 0l255 725h41l-255 -725h-41zM493 -8q-53 0 -83 29t-30 82v2h47v-2q0 -77 66 -77q68 0 68 96v21q0 94 -66 94q-47 0 -65 -53l-44 2l22 222h194v-39h-157l-13 -139q23 43 78 43q48 0 74.5 -32.5t26.5 -94.5
v-27q0 -62 -30.5 -94.5t-87.5 -32.5z" />
    <glyph glyph-name="uni2156" unicode="&#x2156;" horiz-adv-x="717" 
d="M23 317v38l45 58q9 11 28 35t27.5 35t22.5 30.5t21 32t15 28.5t11 29.5t3 27.5q0 66 -61 66q-63 0 -63 -87v-3h-47v3q0 59 28.5 90.5t83.5 31.5q50 0 79 -24.5t29 -74.5q0 -30 -16.5 -66t-36 -63.5t-59.5 -79.5l-6 -7.5t-5 -6.5l-6 -8l-37 -47h167v-38h-223zM207 0
l255 725h41l-255 -725h-41zM577 -8q-53 0 -83 29t-30 82v2h47v-2q0 -77 66 -77q68 0 68 96v21q0 94 -66 94q-47 0 -65 -53l-44 2l22 222h194v-39h-157l-13 -139q23 43 78 43q48 0 74.5 -32.5t26.5 -94.5v-27q0 -62 -30.5 -94.5t-87.5 -32.5z" />
    <glyph glyph-name="uni2157" unicode="&#x2157;" horiz-adv-x="734" 
d="M135 309q-111 0 -111 110v2h46v-2q0 -76 65 -76q73 0 73 83q0 41 -20.5 62.5t-68.5 21.5h-21v36h21q76 0 76 78q0 73 -61 73q-60 0 -60 -74v-2h-46v2q0 52 28 80.5t79 28.5q110 0 110 -106q0 -76 -64 -95q77 -18 77 -104q0 -118 -123 -118zM224 0l255 725h41l-255 -725
h-41zM594 -8q-53 0 -83 29t-30 82v2h47v-2q0 -77 66 -77q68 0 68 96v21q0 94 -66 94q-47 0 -65 -53l-44 2l22 222h194v-39h-157l-13 -139q23 43 78 43q48 0 74.5 -32.5t26.5 -94.5v-27q0 -62 -30.5 -94.5t-87.5 -32.5z" />
    <glyph glyph-name="uni2158" unicode="&#x2158;" horiz-adv-x="737" 
d="M174 317v106h-164v37l164 265h47v-262h48v-40h-48v-106h-47zM49 463h125v197zM227 0l255 725h41l-255 -725h-41zM597 -8q-53 0 -83 29t-30 82v2h47v-2q0 -77 66 -77q68 0 68 96v21q0 94 -66 94q-47 0 -65 -53l-44 2l22 222h194v-39h-157l-13 -139q23 43 78 43
q48 0 74.5 -32.5t26.5 -94.5v-27q0 -62 -30.5 -94.5t-87.5 -32.5z" />
    <glyph glyph-name="uni2159" unicode="&#x2159;" horiz-adv-x="649" 
d="M83 317v321h-78v32q57 0 69.5 7.5t18.5 47.5h38v-408h-48zM123 0l255 725h41l-255 -725h-41zM510 -8q-59 0 -89.5 37.5t-30.5 122.5v56q0 108 27 157.5t98 49.5q52 0 79 -29.5t27 -77.5v-3h-46v2q0 74 -61 74q-41 0 -57.5 -37t-16.5 -116v-13q7 21 28 37t53 16
q49 0 77.5 -32.5t28.5 -94.5v-22q0 -64 -30.5 -95.5t-86.5 -31.5zM509 26q69 0 69 95v16q0 45 -18.5 70t-50.5 25q-33 0 -51.5 -25t-18.5 -72v-13q0 -46 18.5 -71t51.5 -25z" />
    <glyph glyph-name="uni215A" unicode="&#x215a;" horiz-adv-x="740" 
d="M137 309q-53 0 -83 29t-30 82v2h47v-2q0 -77 66 -77q68 0 68 96v21q0 94 -66 94q-47 0 -65 -53l-44 2l22 222h194v-39h-157l-13 -139q23 43 78 43q48 0 74.5 -32.5t26.5 -94.5v-27q0 -62 -30.5 -94.5t-87.5 -32.5zM214 0l255 725h41l-255 -725h-41zM601 -8
q-59 0 -89.5 37.5t-30.5 122.5v56q0 108 27 157.5t98 49.5q52 0 79 -29.5t27 -77.5v-3h-46v2q0 74 -61 74q-41 0 -57.5 -37t-16.5 -116v-13q7 21 28 37t53 16q49 0 77.5 -32.5t28.5 -94.5v-22q0 -64 -30.5 -95.5t-86.5 -31.5zM600 26q69 0 69 95v16q0 45 -18.5 70t-50.5 25
q-33 0 -51.5 -25t-18.5 -72v-13q0 -46 18.5 -71t51.5 -25z" />
    <glyph glyph-name="oneeighth" unicode="&#x215b;" horiz-adv-x="659" 
d="M83 317v321h-78v32q57 0 69.5 7.5t18.5 47.5h38v-408h-48zM123 0l255 725h41l-255 -725h-41zM508 -8q-127 0 -127 121q0 77 72 105q-24 7 -42.5 30.5t-18.5 62.5q0 53 31 78.5t85 25.5q53 0 84 -25.5t31 -78.5q0 -39 -18.5 -62.5t-42.5 -30.5q72 -28 72 -105
q0 -121 -126 -121zM508 26q36 0 56.5 21.5t20.5 60.5v9q0 39 -20.5 60.5t-56.5 21.5t-57 -21.5t-21 -60.5v-9q0 -39 21 -60.5t57 -21.5zM508 232q65 0 65 71v6q0 72 -65 72q-66 0 -66 -72v-6q0 -71 66 -71z" />
    <glyph glyph-name="threeeighths" unicode="&#x215c;" horiz-adv-x="760" 
d="M135 309q-111 0 -111 110v2h46v-2q0 -76 65 -76q73 0 73 83q0 41 -20.5 62.5t-68.5 21.5h-21v36h21q76 0 76 78q0 73 -61 73q-60 0 -60 -74v-2h-46v2q0 52 28 80.5t79 28.5q110 0 110 -106q0 -76 -64 -95q77 -18 77 -104q0 -118 -123 -118zM224 0l255 725h41l-255 -725
h-41zM609 -8q-127 0 -127 121q0 77 72 105q-24 7 -42.5 30.5t-18.5 62.5q0 53 31 78.5t85 25.5q53 0 84 -25.5t31 -78.5q0 -39 -18.5 -62.5t-42.5 -30.5q72 -28 72 -105q0 -121 -126 -121zM609 26q36 0 56.5 21.5t20.5 60.5v9q0 39 -20.5 60.5t-56.5 21.5t-57 -21.5
t-21 -60.5v-9q0 -39 21 -60.5t57 -21.5zM609 232q65 0 65 71v6q0 72 -65 72q-66 0 -66 -72v-6q0 -71 66 -71z" />
    <glyph glyph-name="fiveeighths" unicode="&#x215d;" horiz-adv-x="750" 
d="M137 309q-53 0 -83 29t-30 82v2h47v-2q0 -77 66 -77q68 0 68 96v21q0 94 -66 94q-47 0 -65 -53l-44 2l22 222h194v-39h-157l-13 -139q23 43 78 43q48 0 74.5 -32.5t26.5 -94.5v-27q0 -62 -30.5 -94.5t-87.5 -32.5zM214 0l255 725h41l-255 -725h-41zM599 -8
q-127 0 -127 121q0 77 72 105q-24 7 -42.5 30.5t-18.5 62.5q0 53 31 78.5t85 25.5q53 0 84 -25.5t31 -78.5q0 -39 -18.5 -62.5t-42.5 -30.5q72 -28 72 -105q0 -121 -126 -121zM599 26q36 0 56.5 21.5t20.5 60.5v9q0 39 -20.5 60.5t-56.5 21.5t-57 -21.5t-21 -60.5v-9
q0 -39 21 -60.5t57 -21.5zM599 232q65 0 65 71v6q0 72 -65 72q-66 0 -66 -72v-6q0 -71 66 -71z" />
    <glyph glyph-name="seveneighths" unicode="&#x215e;" horiz-adv-x="708" 
d="M96 317h-49q13 235 147 369h-188v39h232v-39q-71 -69 -103.5 -157t-38.5 -212zM172 0l255 725h41l-255 -725h-41zM557 -8q-127 0 -127 121q0 77 72 105q-24 7 -42.5 30.5t-18.5 62.5q0 53 31 78.5t85 25.5q53 0 84 -25.5t31 -78.5q0 -39 -18.5 -62.5t-42.5 -30.5
q72 -28 72 -105q0 -121 -126 -121zM557 26q36 0 56.5 21.5t20.5 60.5v9q0 39 -20.5 60.5t-56.5 21.5t-57 -21.5t-21 -60.5v-9q0 -39 21 -60.5t57 -21.5zM557 232q65 0 65 71v6q0 72 -65 72q-66 0 -66 -72v-6q0 -71 66 -71z" />
    <glyph glyph-name="uni215F" unicode="&#x215f;" horiz-adv-x="356" 
d="M83 317v321h-78v32q57 0 69.5 7.5t18.5 47.5h38v-408h-48zM123 0l255 725h41l-255 -725h-41z" />
    <glyph glyph-name="arrowleft" unicode="&#x2190;" horiz-adv-x="800" 
d="M738 240h-603l243 -243l-40 -39l-311 311l311 311l41 -39l-244 -243h603v-58z" />
    <glyph glyph-name="arrowup" unicode="&#x2191;" horiz-adv-x="800" 
d="M371 0v633l-243 -243l-39 40l311 311l311 -311l-39 -41l-243 244v-633h-58z" />
    <glyph glyph-name="arrowright" unicode="&#x2192;" horiz-adv-x="800" 
d="M62 298h603l-243 243l40 39l311 -311l-311 -311l-41 39l244 243h-603v58z" />
    <glyph glyph-name="arrowdown" unicode="&#x2193;" horiz-adv-x="800" 
d="M429 725v-633l243 243l39 -40l-311 -311l-311 311l39 41l243 -244v633h58z" />
    <glyph glyph-name="uni2196" unicode="&#x2196;" horiz-adv-x="800" 
d="M643 -7l-447 448v-343h-58v440h440v-58h-343l447 -448z" />
    <glyph glyph-name="uni2197" unicode="&#x2197;" horiz-adv-x="800" 
d="M117 34l448 446h-343v58h440v-440h-58v343l-448 -447z" />
    <glyph glyph-name="uni2198" unicode="&#x2198;" horiz-adv-x="800" 
d="M157 545l447 -448v343h58v-440h-440v58h343l-447 448z" />
    <glyph glyph-name="uni2199" unicode="&#x2199;" horiz-adv-x="800" 
d="M683 505l-448 -447h343v-58h-440v440h58v-343l448 447z" />
    <glyph glyph-name="uni219E" unicode="&#x219e;" horiz-adv-x="800" 
d="M738 240h-339l243 -243l-40 -39l-282 282h-185l243 -243l-40 -39l-311 311l311 311l41 -39l-244 -243h185l282 282l41 -39l-244 -243h339v-58z" />
    <glyph glyph-name="uni219F" unicode="&#x219f;" horiz-adv-x="800" 
d="M371 0v353l-243 -243l-39 40l282 282v201l-243 -243l-39 40l311 311l311 -311l-39 -41l-243 244v-201l282 -282l-39 -41l-243 244v-353h-58z" />
    <glyph glyph-name="uni21A0" unicode="&#x21a0;" horiz-adv-x="800" 
d="M62 298h339l-243 243l40 39l282 -282h185l-243 243l40 39l311 -311l-311 -311l-41 39l244 243h-185l-282 -282l-41 39l244 243h-339v58z" />
    <glyph glyph-name="uni21A1" unicode="&#x21a1;" horiz-adv-x="800" 
d="M429 725v-353l243 243l39 -40l-282 -282v-201l243 243l39 -40l-311 -311l-311 311l39 41l243 -244v201l-282 282l39 41l243 -244v353h58z" />
    <glyph glyph-name="uni21A2" unicode="&#x21a2;" horiz-adv-x="800" 
d="M766 -3l-40 -39l-282 282h-309l243 -243l-40 -39l-311 311l311 311l41 -39l-244 -243h309l282 282l41 -39l-273 -272z" />
    <glyph glyph-name="uni21A3" unicode="&#x21a3;" horiz-adv-x="800" 
d="M34 -3l272 272l-273 272l41 39l282 -282h309l-244 243l41 39l311 -311l-311 -311l-40 39l243 243h-309l-282 -282z" />
    <glyph glyph-name="uni21A4" unicode="&#x21a4;" horiz-adv-x="800" 
d="M700 0h-58v240h-507l243 -243l-40 -39l-311 311l311 311l41 -39l-244 -243h507v240h58v-538z" />
    <glyph glyph-name="uni21A5" unicode="&#x21a5;" horiz-adv-x="800" 
d="M131 0v58h240v575l-243 -243l-39 40l311 311l311 -311l-39 -41l-243 244v-575h240v-58h-538z" />
    <glyph glyph-name="uni21A6" unicode="&#x21a6;" horiz-adv-x="800" 
d="M100 538h58v-240h507l-243 243l40 39l311 -311l-311 -311l-41 39l244 243h-507v-240h-58v538z" />
    <glyph glyph-name="uni21A7" unicode="&#x21a7;" horiz-adv-x="800" 
d="M669 725v-58h-240v-575l243 243l39 -40l-311 -311l-311 311l39 41l243 -244v575h-240v58h538z" />
    <glyph glyph-name="uni21B0" unicode="&#x21b0;" horiz-adv-x="800" 
d="M698 -175h-58v415h-505l243 -243l-40 -39l-311 311l311 311l41 -39l-244 -243h563v-473z" />
    <glyph glyph-name="uni21B1" unicode="&#x21b1;" horiz-adv-x="800" 
d="M773 269l-311 -311l-40 39l243 243h-505v-415h-58v473h563l-244 243l41 39z" />
    <glyph glyph-name="uni21B2" unicode="&#x21b2;" horiz-adv-x="800" 
d="M640 298v427h58v-485h-563l243 -243l-40 -39l-311 311l311 311l41 -39l-244 -243h505z" />
    <glyph glyph-name="uni21B3" unicode="&#x21b3;" horiz-adv-x="800" 
d="M102 725h58v-427h505l-243 243l40 39l311 -311l-311 -311l-41 39l244 243h-563v485z" />
    <glyph glyph-name="partialdiff" unicode="&#x2202;" horiz-adv-x="442" 
d="M221 -13q-94 0 -137 59.5t-43 182.5v63q0 123 42 182t134 59q75 0 111 -48l2 1q-35 198 -221 198v54q144 0 218 -103t74 -326v-61q0 -130 -43 -195.5t-137 -65.5zM221 35q68 0 94 52.5t26 158.5v28q0 106 -26 158.5t-94 52.5t-94.5 -52.5t-26.5 -158.5v-28
q0 -106 26.5 -158.5t94.5 -52.5z" />
    <glyph glyph-name="product" unicode="&#x220f;" horiz-adv-x="524" 
d="M78 -175v900h368v-900h-58v848h-251v-848h-59z" />
    <glyph glyph-name="summation" unicode="&#x2211;" horiz-adv-x="469" 
d="M27 -175v52l236 398l-235 398v52h417v-53h-351l234 -397l-236 -397h353v-53h-418z" />
    <glyph glyph-name="minus" unicode="&#x2212;" 
d="M33 242v55h482v-55h-482z" />
    <glyph glyph-name="radical" unicode="&#x221a;" horiz-adv-x="517" 
d="M269 -175l-171 368l-75 -35l-23 52l125 57l170 -369l164 827h59l-183 -900h-66z" />
    <glyph glyph-name="infinity" unicode="&#x221e;" horiz-adv-x="791" 
d="M597 94q-103 0 -202 118q-50 -60 -97 -88.5t-104 -28.5q-75 0 -121 44t-46 113t47.5 113t122.5 44q104 0 198 -115q49 60 96 87.5t103 27.5q75 0 122.5 -44t47.5 -113q0 -70 -46 -114t-121 -44zM195 145q48 0 85.5 26t80.5 82q-44 55 -82 80.5t-82 25.5q-49 0 -81 -29.5
t-32 -77.5q0 -47 31.5 -77t79.5 -30zM597 145q48 0 79.5 30t31.5 77t-32.5 77t-84.5 30q-43 0 -80.5 -25.5t-81.5 -80.5q46 -56 85 -82t83 -26z" />
    <glyph glyph-name="integral" unicode="&#x222b;" horiz-adv-x="217" 
d="M25 -182q-29 0 -45.5 14.5t-16.5 36.5q0 38 36 38q13 0 22 -8.5t9 -23.5q0 -17 -7 -27q36 1 48.5 36t12.5 108q0 31 -1.5 88t-1.5 95v323q0 114 28 168.5t88 54.5q29 0 45.5 -14.5t16.5 -36.5q0 -38 -36 -38q-13 0 -22 8.5t-9 23.5q0 17 7 27q-36 -1 -48.5 -36
t-12.5 -108q0 -31 1.5 -88t1.5 -95v-323q0 -114 -28 -168.5t-88 -54.5z" />
    <glyph glyph-name="approxequal" unicode="&#x2248;" 
d="M104 115h-55q12 127 130 127q39 0 71.5 -19t61 -37.5t56.5 -18.5q68 0 78 75h54q-12 -127 -130 -127q-42 0 -97 36.5t-92 36.5q-67 0 -77 -73zM104 315h-55q6 63 39.5 95.5t90.5 32.5q31 0 58.5 -11.5t44.5 -26t40 -26t46 -11.5q68 0 78 75h54q-12 -128 -130 -128
q-42 0 -97 37.5t-92 37.5q-67 0 -77 -75z" />
    <glyph glyph-name="notequal" unicode="&#x2260;" 
d="M65 354v52h252l69 132h59l-69 -132h107v-52h-134l-89 -170h223v-52h-250l-69 -132h-60l69 132h-108v52h135l89 170h-224z" />
    <glyph glyph-name="lessequal" unicode="&#x2264;" 
d="M513 535v-55l-403 -164l403 -164v-56l-478 192v56zM35 0v52h478v-52h-478z" />
    <glyph glyph-name="greaterequal" unicode="&#x2265;" 
d="M35 480v55l478 -191v-56l-478 -192v56l404 164zM513 52v-52h-478v52h478z" />
    <glyph glyph-name="filledbox" unicode="&#x25a0;" horiz-adv-x="624" 
d="M43 0v538h538v-538h-538z" />
    <glyph glyph-name="H22073" unicode="&#x25a1;" horiz-adv-x="624" 
d="M43 0v538h538v-538h-538zM100 481v-424h424v424h-424z" />
    <glyph glyph-name="lozenge" unicode="&#x25ca;" horiz-adv-x="506" 
d="M260 35l186 312l-186 311l-186 -311zM260 -69l-252 416l252 415l248 -415z" />
    <glyph glyph-name="circle" unicode="&#x25cb;" horiz-adv-x="602" 
d="M301 497q-99 0 -163.5 -66.5t-64.5 -162.5q0 -95 65 -161.5t163 -66.5t163 66.5t65 161.5q0 96 -64.5 162.5t-163.5 66.5zM301 550q121 0 202 -82t81 -200q0 -117 -81 -199t-202 -82t-202 82t-81 199q0 118 81 200t202 82z" />
    <glyph glyph-name="H18533" unicode="&#x25cf;" horiz-adv-x="602" 
d="M301 -13q-121 0 -202 82t-81 199q0 118 81 200t202 82t202 -82t81 -200q0 -117 -81 -199t-202 -82z" />
    <glyph glyph-name="fi" unicode="&#xfb01;" horiz-adv-x="437" 
d="M311 0v538h61v-538h-61zM84 0v492h-74v46h74v65q0 70 24.5 96t93.5 26h41v-45h-29q-45 0 -57 -15t-12 -68v-59h98v-46h-98v-492h-61zM311 623v102h61v-102h-61z" />
    <glyph glyph-name="fl" unicode="&#xfb02;" horiz-adv-x="437" 
d="M84 0v492h-74v46h74v65q0 70 24.5 96t93.5 26h41v-45h-29q-45 0 -57 -15t-12 -68v-59h98v-46h-98v-492h-61zM311 0v725h61v-725h-61z" />
    <glyph glyph-name="_001" horiz-adv-x="0" 
 />
    <glyph glyph-name="_002" horiz-adv-x="191" 
 />
    <glyph glyph-name="bullet.001" horiz-adv-x="460" 
d="M226 96q-73 0 -124.5 53t-51.5 130q0 73 52 125t124 52q78 0 131 -51.5t53 -125.5q0 -78 -52.5 -130.5t-131.5 -52.5z" />
    <glyph glyph-name="_383" horiz-adv-x="191" 
d="M65 623v102h61v-102h-61z" />
    <glyph glyph-name="_384" horiz-adv-x="107" 
d="M25 -175v99h57v-99h-57z" />
    <glyph glyph-name="_386" horiz-adv-x="127" 
d="M34 -128v78h68v-84l-34 -80h-43l39 86h-30z" />
    <glyph glyph-name="_390" horiz-adv-x="129" 
d="M25 555l28 170h51l-41 -170h-38z" />
    <glyph glyph-name="zero.zero" horiz-adv-x="526" 
d="M263 -13q-113 0 -161.5 79t-48.5 255v83q0 176 48.5 255t161.5 79q115 0 162.5 -78.5t47.5 -255.5v-83q0 -177 -47.5 -255.5t-162.5 -78.5zM117 298l291 156q-4 121 -35.5 178.5t-109.5 57.5q-88 0 -117 -73t-29 -236v-83zM263 36q46 0 75.5 19.5t44.5 62t20.5 94
t5.5 132.5v58l-290 -154q6 -109 37.5 -160.5t106.5 -51.5z" />
    <glyph glyph-name="one.onum" horiz-adv-x="296" 
d="M147 0v522h-129v41q53 0 75.5 1t38.5 12.5t19.5 25t9.5 50.5h48v-652h-62z" />
    <glyph glyph-name="two.onum" horiz-adv-x="445" 
d="M47 0v51l73 91q10 12 43.5 54.5t44.5 57.5t37 50.5t36 54.5t24.5 47t19.5 51t5 46q0 113 -107 113q-112 0 -112 -144v-5h-59v5q0 93 44 142.5t130 49.5q76 0 121.5 -39t45.5 -120q0 -39 -13.5 -79t-47 -91.5t-60 -87t-80.5 -104.5q-10 -13 -15 -19l-57 -72h277v-52h-350z
" />
    <glyph glyph-name="three.onum" horiz-adv-x="474" 
d="M218 -15q-80 0 -125 46.5t-45 128.5v3h59v-3q0 -127 110 -127q57 0 94 34t37 101q0 82 -38.5 114t-116.5 32h-32v48h32q135 0 135 131q0 122 -109 122q-105 0 -105 -125v-3h-59v3q0 82 42.5 127.5t122.5 45.5q78 0 125.5 -40t47.5 -126q0 -57 -26.5 -98t-72.5 -57
q119 -37 119 -178q0 -87 -55 -133t-140 -46z" />
    <glyph glyph-name="four.onum" horiz-adv-x="482" 
d="M299 0v174h-270v49l272 429h59v-426h77v-52h-77v-174h-61zM83 226h216v340z" />
    <glyph glyph-name="five.onum" horiz-adv-x="476" 
d="M227 -13q-85 0 -130 46t-45 127v4h59v-4q0 -60 29.5 -93.5t86.5 -33.5q124 0 124 163v28q0 161 -118 161q-83 0 -116 -91l-55 2l34 355h303v-52h-254l-22 -236q14 29 47.5 49t79.5 20q77 0 121 -52t44 -150v-42q0 -98 -49 -149.5t-139 -51.5z" />
    <glyph glyph-name="six.onum" horiz-adv-x="504" 
d="M257 -13q-189 0 -189 246v89q0 177 43 259t155 82q79 0 122 -47t43 -122v-5h-59v4q0 57 -26.5 89.5t-81.5 32.5q-72 0 -102.5 -63t-30.5 -195v-19q10 33 46 61t90 28q79 0 126.5 -52t47.5 -150v-35q0 -100 -50 -151.5t-134 -51.5zM254 33q58 0 90.5 41t32.5 120v23
q0 79 -32.5 121.5t-90.5 42.5t-90.5 -43.5t-32.5 -123.5v-17q0 -79 32.5 -121.5t90.5 -42.5z" />
    <glyph glyph-name="seven.onum" horiz-adv-x="420" 
d="M160 0h-64q14 199 74.5 344.5t173.5 256.5h-313v51h372v-51q-118 -116 -174.5 -257.5t-68.5 -343.5z" />
    <glyph glyph-name="eight.onum" horiz-adv-x="510" 
d="M255 -13q-93 0 -146.5 47.5t-53.5 143.5q0 128 119 171q-40 12 -70.5 49.5t-30.5 99.5q0 81 49 123t133 42q83 0 132.5 -42t49.5 -123q0 -62 -31 -99.5t-71 -49.5q120 -42 120 -171q0 -96 -53 -143.5t-147 -47.5zM255 33q61 0 98.5 36t37.5 100v16q0 67 -37.5 102.5
t-98.5 35.5t-98.5 -35.5t-37.5 -101.5v-17q0 -64 37.5 -100t98.5 -36zM255 368q56 0 86.5 29.5t30.5 88.5v11q0 59 -30.5 88.5t-86.5 29.5t-87 -29.5t-31 -88.5v-13q0 -58 31 -87t87 -29z" />
    <glyph glyph-name="nine.onum" horiz-adv-x="504" 
d="M238 -13q-79 0 -121 47t-42 122v4h60v-3q0 -124 105 -124q72 0 102 64t30 196v17q-12 -34 -47 -61t-88 -27q-80 0 -127.5 52t-47.5 150v36q0 99 50.5 151t134.5 52q187 0 187 -246v-89q0 -177 -42.5 -259t-153.5 -82zM249 269q58 0 91 43.5t33 122.5v18q0 79 -33 120.5
t-91 41.5t-90.5 -40.5t-32.5 -119.5v-23q0 -78 32.5 -120.5t90.5 -42.5z" />
    <glyph glyph-name="zero.onum" horiz-adv-x="516" 
d="M258 33q76 0 101.5 65t25.5 208v37q0 71 -4.5 117t-18 83.5t-39 54.5t-65.5 17t-65.5 -17t-39 -54.5t-18 -83.5t-4.5 -117v-37q0 -143 25.5 -208t101.5 -65zM258 -13q-103 0 -147 71t-44 229v76q0 157 44 228.5t147 71.5t147 -71.5t44 -228.5v-76q0 -158 -44 -229
t-147 -71z" />
    <glyph glyph-name="zero.onum_zero" horiz-adv-x="516" 
d="M258 -13q-103 0 -147 71t-44 229v76q0 157 44 228.5t147 71.5t147 -71.5t44 -228.5v-76q0 -158 -44 -229t-147 -71zM258 33q76 0 101.5 65t25.5 208v73l-252 -154q4 -98 31.5 -145t93.5 -47zM131 275l252 154q-6 95 -33.5 140.5t-91.5 45.5q-40 0 -65.5 -17t-39 -54.5
t-18 -83.5t-4.5 -117v-68z" />
    <glyph glyph-name="one.tnum" 
d="M59 0v52h194v531h-163v42q100 0 132.5 18t44.5 82h46v-673h177v-52h-431z" />
    <glyph glyph-name="two.tnum" 
d="M86 0v51l81 103q14 18 48 60.5t49.5 63t42.5 57.5t40.5 60.5t28.5 54.5t21.5 57.5t6.5 52.5q0 131 -125 131q-65 0 -97.5 -43t-32.5 -121v-6h-59v5q0 102 49 157t143 55q84 0 134 -42.5t50 -133.5q0 -55 -35 -126.5t-65 -113t-114 -149.5q-21 -28 -32 -42l-63 -79h312
v-52h-383z" />
    <glyph glyph-name="three.tnum" 
d="M265 -13q-94 0 -143 50.5t-49 140.5v4h59v-4q0 -64 33.5 -103t100.5 -39q147 0 147 157q0 78 -42.5 118.5t-135.5 40.5h-37v50h36q77 0 116.5 35.5t39.5 114.5q0 69 -32.5 104t-93.5 35q-121 0 -121 -143v-4h-59v4q0 89 46.5 139.5t134.5 50.5q85 0 136.5 -44t51.5 -140
q0 -139 -118 -173q65 -12 103 -60.5t38 -125.5q0 -208 -211 -208z" />
    <glyph glyph-name="four.tnum" 
d="M355 0v195h-305v49l306 481h59v-478h84v-52h-84v-195h-60zM105 247h250v391z" />
    <glyph glyph-name="five.tnum" 
d="M267 -13q-94 0 -143.5 51t-49.5 140v4h59v-4q0 -67 34 -105t100 -38q72 0 108.5 47t36.5 137v30q0 183 -138 183q-95 0 -134 -104l-54 2l40 395h331v-51h-284l-27 -270q16 32 54.5 54t90.5 22q85 0 134 -57.5t49 -165.5v-46q0 -108 -54.5 -166t-152.5 -58z" />
    <glyph glyph-name="six.tnum" 
d="M275 -13q-206 0 -206 268v99q0 199 47 291.5t170 92.5q87 0 135 -52t48 -135v-5h-59v4q0 64 -31.5 102.5t-94.5 38.5q-83 0 -118.5 -73t-35.5 -224v-19q12 38 52.5 70t101.5 32q87 0 141 -58t54 -167v-40q0 -110 -56 -167.5t-148 -57.5zM273 35q68 0 105.5 46t37.5 136
v26q0 91 -38 138.5t-105 47.5t-105.5 -49t-38.5 -140v-19q0 -91 38.5 -138.5t105.5 -47.5z" />
    <glyph glyph-name="seven.tnum" 
d="M213 0h-62q18 226 84 387.5t194 286.5h-355v51h416v-51q-134 -128 -197.5 -286.5t-79.5 -387.5z" />
    <glyph glyph-name="eight.tnum" 
d="M274 -13q-103 0 -162 52t-59 160q0 145 134 190q-46 14 -79.5 56t-33.5 111q0 90 53.5 136t146.5 46t147 -46t54 -136q0 -69 -34 -111t-80 -56q55 -17 95 -62t40 -128q0 -108 -59.5 -160t-162.5 -52zM274 35q69 0 113.5 40t44.5 114v19q0 74 -44.5 115t-113.5 41
t-113.5 -40t-44.5 -115v-20q0 -74 44.5 -114t113.5 -40zM274 409q65 0 101 33.5t36 100.5v14q0 67 -36 100.5t-101 33.5t-101 -33.5t-36 -100.5v-16q0 -66 36.5 -99t100.5 -33z" />
    <glyph glyph-name="nine.tnum" 
d="M262 -13q-87 0 -133 52t-46 135v6h59v-5q0 -64 30 -102t92 -38q82 0 118 73t36 223v19q-12 -38 -52.5 -70t-101.5 -32q-87 0 -141 58t-54 167v40q0 110 56 167.5t148 57.5q206 0 206 -268v-99q0 -199 -47 -291.5t-170 -92.5zM274 296q67 0 106 49t39 140v19q0 91 -39 139
t-106 48t-104.5 -46t-37.5 -137v-26q0 -91 37.5 -138.5t104.5 -47.5z" />
    <glyph glyph-name="zero.tnum" 
d="M274 36q46 0 75.5 19.5t44.5 62t20.5 94t5.5 132.5v37q0 163 -29 236t-117 73t-117 -73t-29 -236v-37q0 -81 5.5 -132.5t20.5 -94t44.5 -62t75.5 -19.5zM274 -13q-113 0 -161.5 79t-48.5 255v83q0 176 48.5 255t161.5 79q115 0 162.5 -78.5t47.5 -255.5v-83
q0 -177 -47.5 -255.5t-162.5 -78.5z" />
    <glyph glyph-name="zero.tnum_zero" 
d="M274 -13q-113 0 -161.5 79t-48.5 255v83q0 176 48.5 255t161.5 79q115 0 162.5 -78.5t47.5 -255.5v-83q0 -177 -47.5 -255.5t-162.5 -78.5zM128 307l290 157q-4 115 -36 170.5t-108 55.5q-88 0 -117 -73t-29 -236v-74zM274 36q46 0 75.5 19.5t44.5 62t20.5 94t5.5 132.5
v68l-291 -155q6 -115 37.5 -168t107.5 -53z" />
    <glyph glyph-name="one.case" horiz-adv-x="320" 
d="M159 0v582h-146v43q41 0 61.5 0.5t41 4.5t27.5 8.5t15 18.5t10 27t6 41h49v-725h-64z" />
    <glyph glyph-name="two.case" horiz-adv-x="465" 
d="M39 0v53l81 102q9 12 47.5 60.5t50.5 64t41.5 56t40 61.5t27 53t22 58t5.5 52q0 130 -121 130q-64 0 -96 -43t-32 -121v-5h-62v5q0 102 48.5 157t143.5 55q84 0 134.5 -43.5t50.5 -132.5q0 -21 -3.5 -42t-13 -45t-16.5 -42t-26 -47t-28.5 -45t-35.5 -50.5t-36.5 -48.5
t-42.5 -54.5t-43 -54.5l-62 -79h310v-54h-384z" />
    <glyph glyph-name="three.case" horiz-adv-x="498" 
d="M229 -13q-94 0 -143 50.5t-49 140.5v4h61v-4q0 -64 32.5 -103t99.5 -39q145 0 145 157q0 78 -41.5 118t-133.5 40h-37v51h36q76 0 114.5 36t38.5 114q0 138 -125 138q-118 0 -118 -142v-4h-62v4q0 91 46.5 140.5t135.5 49.5q87 0 138 -44t51 -140q0 -138 -117 -173
q65 -12 102.5 -60.5t37.5 -125.5q0 -208 -212 -208z" />
    <glyph glyph-name="four.case" horiz-adv-x="501" 
d="M317 0v195h-303v50l304 480h63v-476h84v-54h-84v-195h-64zM70 249h247v387z" />
    <glyph glyph-name="five.case" horiz-adv-x="503" 
d="M237 -13q-94 0 -143.5 51t-49.5 140v4h61v-4q0 -67 33.5 -104.5t98.5 -37.5q142 0 142 183v30q0 182 -135 182q-97 0 -132 -103l-57 2l40 395h333v-52h-284l-27 -269q16 32 54.5 54t90.5 22q86 0 134.5 -57.5t48.5 -165.5v-46q0 -108 -54.5 -166t-153.5 -58z" />
    <glyph glyph-name="six.case" horiz-adv-x="533" 
d="M272 -13q-207 0 -207 269v99q0 199 47 291t170 92q88 0 135.5 -52t47.5 -135v-5h-60v4q0 64 -31 102t-94 38q-81 0 -116 -72.5t-35 -221.5v-20q12 39 52 70t100 31q87 0 141 -58t54 -167v-40q0 -110 -56 -167.5t-148 -57.5zM270 36q67 0 104 46t37 135v26q0 91 -37 138
t-104 47t-104 -48.5t-37 -139.5v-19q0 -91 37 -138t104 -47z" />
    <glyph glyph-name="seven.case" horiz-adv-x="428" 
d="M152 0h-66q16 223 82.5 385.5t194.5 287.5h-350v52h413v-52q-134 -130 -197 -287.5t-77 -385.5z" />
    <glyph glyph-name="eight.case" horiz-adv-x="536" 
d="M268 -13q-103 0 -162 52t-59 160q0 83 39.5 128t94.5 62q-46 14 -79.5 56t-33.5 111q0 90 53.5 136t146.5 46t147.5 -46t54.5 -136q0 -69 -33.5 -111t-79.5 -56q133 -43 133 -190q0 -108 -59 -160t-163 -52zM268 36q69 0 113 39.5t44 113.5v19q0 75 -44 115t-113 40
q-68 0 -111.5 -40t-43.5 -114v-20q0 -74 43.5 -113.5t111.5 -39.5zM268 409q65 0 100.5 33.5t35.5 100.5v14q0 67 -35.5 100t-100.5 33q-64 0 -99 -33t-35 -100v-16q0 -66 35.5 -99t98.5 -33z" />
    <glyph glyph-name="nine.case" horiz-adv-x="534" 
d="M252 -13q-86 0 -133 52t-47 135v6h61v-5q0 -64 30 -101.5t91 -37.5q82 0 117 72.5t35 220.5v20q-12 -39 -52.5 -70t-100.5 -31q-87 0 -141 58t-54 167v40q0 110 56.5 167.5t148.5 57.5q207 0 207 -269v-99q0 -198 -47.5 -290.5t-170.5 -92.5zM265 297q66 0 103.5 49
t37.5 139v19q0 91 -37.5 138.5t-103.5 47.5q-67 0 -104 -46.5t-37 -135.5v-26q0 -91 37 -138t104 -47z" />
    <glyph glyph-name="zero.case" horiz-adv-x="549" 
d="M273 36q88 0 117 73t29 235v37q0 162 -29 234t-117 72q-46 0 -74.5 -19t-43.5 -61.5t-20 -93.5t-5 -132v-37q0 -64 3 -108t11.5 -84.5t24.5 -64.5t41.5 -37.5t62.5 -13.5zM273 -13q-113 0 -161 79t-48 255v83q0 176 48 255t161 79q115 0 163.5 -79t48.5 -255v-83
q0 -176 -48.5 -255t-163.5 -79z" />
    <glyph glyph-name="zero.case_zero" horiz-adv-x="513" 
d="M255 -13q-113 0 -161 79t-48 255v83q0 176 48 255t161 79q115 0 163.5 -79t48.5 -255v-83q0 -176 -48.5 -255t-163.5 -79zM255 36q88 0 117 73t29 235v69l-288 -154q6 -117 36 -170t106 -53zM112 310l287 154q-6 116 -37 169.5t-107 53.5q-46 0 -74.5 -19t-43.5 -61.5
t-20 -93.5t-5 -132v-71z" />
    <glyph glyph-name="a.sups" horiz-adv-x="247" 
d="M96 430q-37 0 -58.5 23t-21.5 62v6q0 33 24 55q17 15 65 33l66 24v26q0 31 -12.5 43.5t-37.5 12.5q-54 0 -54 -57v-7h-45v7q0 44 26.5 67t73.5 23q49 0 73 -20.5t24 -77.5v-116q0 -72 3 -96h-45l-1 44q-24 -52 -80 -52zM112 464q61 0 61 88v51q-1 -1 -25 -10t-26 -10
q-31 -10 -43.5 -23t-12.5 -38v-6q0 -52 46 -52z" />
    <glyph glyph-name="b.sups" horiz-adv-x="269" 
d="M159 430q-56 0 -76 57v-49h-49v408h49v-155q19 56 76 56q89 0 89 -136v-44q0 -137 -89 -137zM146 466q31 0 42 27t11 87v17q0 61 -11 88t-42 27q-65 0 -65 -124q0 -122 65 -122z" />
    <glyph glyph-name="c.sups" horiz-adv-x="247" 
d="M129 430q-56 0 -81.5 34t-25.5 104v42q0 70 25.5 103.5t81.5 33.5q45 0 71.5 -26.5t26.5 -77.5v-4h-46v4q0 69 -52 69q-34 0 -45.5 -26.5t-11.5 -85.5v-24q0 -57 11.5 -84.5t45.5 -27.5q52 0 52 71v3h46v-3q0 -51 -26.5 -78t-71.5 -27z" />
    <glyph glyph-name="d.sups" horiz-adv-x="272" 
d="M112 430q-90 0 -90 137v44q0 136 90 136q28 0 48 -15.5t29 -40.5v155h48v-408h-48v49q-20 -57 -77 -57zM126 466q65 0 65 122q0 124 -65 124q-30 0 -42 -28t-12 -87v-17q0 -59 12 -86.5t42 -27.5z" />
    <glyph glyph-name="e.sups" horiz-adv-x="254" 
d="M129 430q-107 0 -107 138v43q0 69 25.5 102.5t81.5 33.5t80.5 -33.5t24.5 -105.5v-22h-163v-10q0 -58 11.5 -85t47.5 -27q53 0 53 68v2h47v-2q0 -49 -28.5 -75.5t-72.5 -26.5zM71 619v-3h118v4q0 48 -12.5 70.5t-46.5 22.5q-33 0 -46 -23t-13 -71z" />
    <glyph glyph-name="f.sups" horiz-adv-x="149" 
d="M45 438v268h-41v34h41v34q0 42 16 57t59 15h27v-33h-17q-24 0 -30.5 -7.5t-6.5 -33.5v-32h54v-34h-54v-268h-48z" />
    <glyph glyph-name="g.sups" horiz-adv-x="273" 
d="M131 333q-49 0 -72.5 24.5t-23.5 65.5v1h44v-1q0 -54 53 -54q32 0 45 16.5t13 59.5v56q-20 -56 -74 -56q-45 0 -69.5 34.5t-24.5 100.5v36q0 131 94 131q54 0 74 -56v49h49v-286q0 -61 -25 -91t-83 -30zM127 481q65 0 65 113q0 118 -65 118q-31 0 -43 -25.5t-12 -82.5v-8
q0 -58 12 -86.5t43 -28.5z" />
    <glyph glyph-name="h.sups" horiz-adv-x="263" 
d="M34 438v408h49v-155q20 56 77 56q41 0 57.5 -25t16.5 -82v-202h-48v186q0 45 -9 66.5t-34 21.5q-60 0 -60 -108v-166h-49z" />
    <glyph glyph-name="i.sups" horiz-adv-x="117" 
d="M34 438v302h49v-302h-49zM34 785v61h49v-61h-49z" />
    <glyph glyph-name="j.sups" horiz-adv-x="116" 
d="M-13 339v34h12q23 0 28.5 8.5t5.5 38.5v320h49v-320q0 -48 -16 -64.5t-61 -16.5h-18zM33 785v61h49v-61h-49z" />
    <glyph glyph-name="k.sups" horiz-adv-x="231" 
d="M34 438v408h48v-226l95 120h47l-83 -107l92 -195h-47l-75 154l-29 -39v-115h-48z" />
    <glyph glyph-name="l.sups" horiz-adv-x="117" 
d="M34 438v408h49v-408h-49z" />
    <glyph glyph-name="m.sups" horiz-adv-x="402" 
d="M34 438v302h49v-51q20 57 73 57q56 0 68 -60q9 28 29.5 44t47.5 16q41 0 56.5 -26t15.5 -84v-198h-48v185q0 45 -8 66t-32 21q-56 0 -56 -100v-172h-50v191q0 43 -7.5 62t-31.5 19q-57 0 -57 -107v-165h-49z" />
    <glyph glyph-name="o.sups" horiz-adv-x="258" 
d="M129 464q34 0 45.5 28t11.5 87v20q0 59 -11.5 86.5t-45.5 27.5t-45.5 -27.5t-11.5 -86.5v-20q0 -59 11.5 -87t45.5 -28zM129 430q-56 0 -81.5 34t-25.5 104v42q0 70 25.5 104t81.5 34t81.5 -34t25.5 -104v-42q0 -70 -25.5 -104t-81.5 -34z" />
    <glyph glyph-name="p.sups" horiz-adv-x="270" 
d="M34 339v401h49v-49q19 56 76 56q89 0 89 -136v-44q0 -137 -89 -137q-56 0 -76 57v-148h-49zM146 466q31 0 42 27t11 87v17q0 61 -11 88t-42 27q-65 0 -65 -124q0 -122 65 -122z" />
    <glyph glyph-name="q.sups" horiz-adv-x="271" 
d="M189 339v148q-20 -57 -77 -57q-90 0 -90 137v44q0 136 90 136q28 0 48 -15.5t29 -40.5v49h48v-401h-48zM126 466q65 0 65 122q0 124 -65 124q-30 0 -42 -28t-12 -87v-17q0 -59 12 -86.5t42 -27.5z" />
    <glyph glyph-name="r.sups" horiz-adv-x="161" 
d="M33 438v302h49v-60q15 60 71 60h11v-45h-19q-34 0 -48.5 -22t-14.5 -74v-161h-49z" />
    <glyph glyph-name="s.sups" horiz-adv-x="238" 
d="M121 430q-48 0 -75 26.5t-27 74.5v2h45v-2q0 -66 57 -66q55 0 55 46q0 40 -42 57l-44 18q-33 12 -50 30.5t-17 51.5q0 40 26 59.5t69 19.5q41 0 68.5 -23t27.5 -66v-3h-44v3q0 28 -15 41t-39 13q-48 0 -48 -41q0 -34 38 -49l44 -18q38 -16 55 -34.5t17 -54.5
q0 -42 -28.5 -63.5t-72.5 -21.5z" />
    <glyph glyph-name="t.sups" horiz-adv-x="150" 
d="M141 438h-35q-39 0 -52.5 15.5t-13.5 57.5v195h-39v34h39v77h49v-77h52v-34h-52v-190q0 -29 6.5 -36.5t29.5 -7.5h16v-34z" />
    <glyph glyph-name="u.sups" horiz-adv-x="259" 
d="M104 430q-41 0 -58 26.5t-17 83.5v200h50v-186q0 -46 8 -67t32 -21q28 0 43 28.5t15 79.5v166h48v-302h-47v49q-20 -57 -74 -57z" />
    <glyph glyph-name="v.sups" horiz-adv-x="222" 
d="M83 438l-78 302h48l59 -250l60 250h45l-78 -302h-56z" />
    <glyph glyph-name="w.sups" horiz-adv-x="322" 
d="M62 438l-51 302h43l36 -245l49 245h44l48 -245l37 245h43l-51 -302h-51l-48 252l-47 -252h-52z" />
    <glyph glyph-name="x.sups" horiz-adv-x="217" 
d="M169 438l-62 113l-62 -113h-45l85 154l-79 148h50l54 -102l57 102h44l-79 -143l85 -159h-48z" />
    <glyph glyph-name="y.sups" horiz-adv-x="221" 
d="M22 339v34h17q22 0 30 7.5t16 37.5l5 20l-85 302h48l61 -250l57 250h45l-79 -306q-16 -61 -32.5 -78t-60.5 -17h-22z" />
    <glyph glyph-name="z.sups" horiz-adv-x="258" 
d="M32 438v33l138 235h-125v34h177v-33l-138 -235h141v-34h-193z" />
    <glyph glyph-name="uni2070.zero" horiz-adv-x="310" 
d="M155 430q-67 0 -94.5 43.5t-27.5 142.5v50q0 100 27.5 143.5t94.5 43.5t94.5 -43.5t27.5 -143.5v-50q0 -99 -27.5 -142.5t-94.5 -43.5zM82 621l144 82q-3 60 -18.5 88t-52.5 28q-45 0 -59 -39t-14 -126v-33zM155 464q44 0 58 39t14 126v31l-144 -80q2 -61 17.5 -88.5
t54.5 -27.5z" />
    <glyph glyph-name="period.sups" horiz-adv-x="149" 
d="M49 438v71h57v-71h-57z" />
    <glyph glyph-name="hyphen.sups" horiz-adv-x="226" 
d="M28 568v42h171v-42h-171z" />
    <glyph glyph-name="comma.sups" horiz-adv-x="138" 
d="M40 438v66h66v-70l-35 -76h-33l30 80h-28z" />
    <glyph glyph-name="a.subs" horiz-adv-x="247" 
d="M96 -136q-37 0 -58.5 23t-21.5 62v6q0 33 24 55q17 15 65 33l66 24v26q0 31 -12.5 43.5t-37.5 12.5q-54 0 -54 -57v-7h-45v7q0 44 26.5 67t73.5 23q49 0 73 -20.5t24 -77.5v-116q0 -72 3 -96h-45l-1 44q-24 -52 -80 -52zM112 -102q61 0 61 88v51q-1 -2 -25 -10.5
t-26 -9.5q-31 -10 -43.5 -23t-12.5 -38v-6q0 -52 46 -52z" />
    <glyph glyph-name="b.subs" horiz-adv-x="269" 
d="M159 -136q-56 0 -76 57v-49h-49v408h49v-155q19 56 76 56q89 0 89 -136v-44q0 -137 -89 -137zM146 -100q31 0 42 27t11 87v17q0 61 -11 88t-42 27q-65 0 -65 -124q0 -122 65 -122z" />
    <glyph glyph-name="c.subs" horiz-adv-x="247" 
d="M129 -136q-56 0 -81.5 34t-25.5 104v42q0 70 25.5 103.5t81.5 33.5q45 0 71.5 -26.5t26.5 -77.5v-4h-46v4q0 69 -52 69q-34 0 -45.5 -26.5t-11.5 -85.5v-24q0 -57 11.5 -84.5t45.5 -27.5q52 0 52 71v3h46v-3q0 -51 -26.5 -78t-71.5 -27z" />
    <glyph glyph-name="d.subs" horiz-adv-x="272" 
d="M112 -136q-90 0 -90 137v44q0 136 90 136q28 0 48 -15.5t29 -40.5v155h48v-408h-48v49q-20 -57 -77 -57zM126 -100q65 0 65 122q0 124 -65 124q-30 0 -42 -28t-12 -87v-17q0 -59 12 -86.5t42 -27.5z" />
    <glyph glyph-name="e.subs" horiz-adv-x="254" 
d="M129 -136q-107 0 -107 138v43q0 69 25.5 102.5t81.5 33.5t80.5 -33.5t24.5 -105.5v-22h-163v-10q0 -58 11.5 -85t47.5 -27q53 0 53 68v2h47v-2q0 -49 -28.5 -75.5t-72.5 -26.5zM71 53v-3h118v4q0 48 -12.5 70.5t-46.5 22.5q-33 0 -46 -23t-13 -71z" />
    <glyph glyph-name="f.subs" horiz-adv-x="149" 
d="M45 -128v268h-41v34h41v34q0 42 16 57t59 15h27v-33h-17q-24 0 -30.5 -7.5t-6.5 -33.5v-32h54v-34h-54v-268h-48z" />
    <glyph glyph-name="g.subs" horiz-adv-x="273" 
d="M131 -233q-49 0 -72.5 24.5t-23.5 65.5v1h44v-1q0 -54 53 -54q32 0 45 16.5t13 59.5v56q-20 -56 -74 -56q-45 0 -69.5 34.5t-24.5 100.5v36q0 131 94 131q54 0 74 -56v49h49v-286q0 -61 -25 -91t-83 -30zM127 -85q65 0 65 113q0 118 -65 118q-31 0 -43 -25.5t-12 -82.5
v-8q0 -58 12 -86.5t43 -28.5z" />
    <glyph glyph-name="h.subs" horiz-adv-x="263" 
d="M34 -128v408h49v-155q20 56 77 56q41 0 57.5 -25t16.5 -82v-202h-48v186q0 45 -9 66.5t-34 21.5q-60 0 -60 -108v-166h-49z" />
    <glyph glyph-name="i.subs" horiz-adv-x="117" 
d="M34 -128v302h49v-302h-49zM34 219v61h49v-61h-49z" />
    <glyph glyph-name="j.subs" horiz-adv-x="116" 
d="M-13 -227v34h12q23 0 28.5 8.5t5.5 38.5v320h49v-320q0 -48 -16 -64.5t-61 -16.5h-18zM33 219v61h49v-61h-49z" />
    <glyph glyph-name="k.subs" horiz-adv-x="231" 
d="M34 -128v408h48v-226l95 120h47l-83 -107l92 -195h-47l-75 154l-29 -39v-115h-48z" />
    <glyph glyph-name="l.subs" horiz-adv-x="117" 
d="M34 -128v408h49v-408h-49z" />
    <glyph glyph-name="m.subs" horiz-adv-x="402" 
d="M34 -128v302h49v-51q20 57 73 57q56 0 68 -60q9 28 29.5 44t47.5 16q41 0 56.5 -26t15.5 -84v-198h-48v185q0 45 -8 66t-32 21q-56 0 -56 -100v-172h-50v191q0 43 -7.5 62t-31.5 19q-57 0 -57 -107v-165h-49z" />
    <glyph glyph-name="uni207F.002" horiz-adv-x="263" 
d="M34 -128v302h49v-49q20 56 77 56q41 0 57.5 -25t16.5 -82v-202h-48v186q0 45 -9 66.5t-34 21.5q-60 0 -60 -108v-166h-49z" />
    <glyph glyph-name="o.subs" horiz-adv-x="258" 
d="M129 -102q34 0 45.5 28t11.5 87v20q0 59 -11.5 86.5t-45.5 27.5t-45.5 -27.5t-11.5 -86.5v-20q0 -59 11.5 -87t45.5 -28zM129 -136q-56 0 -81.5 34t-25.5 104v42q0 70 25.5 104t81.5 34t81.5 -34t25.5 -104v-42q0 -70 -25.5 -104t-81.5 -34z" />
    <glyph glyph-name="p.subs" horiz-adv-x="270" 
d="M34 -227v401h49v-49q19 56 76 56q89 0 89 -136v-44q0 -137 -89 -137q-56 0 -76 57v-148h-49zM146 -100q31 0 42 27t11 87v17q0 61 -11 88t-42 27q-65 0 -65 -124q0 -122 65 -122z" />
    <glyph glyph-name="q.subs" horiz-adv-x="271" 
d="M189 -227v148q-20 -57 -77 -57q-90 0 -90 137v44q0 136 90 136q28 0 48 -15.5t29 -40.5v49h48v-401h-48zM126 -100q65 0 65 122q0 124 -65 124q-30 0 -42 -28t-12 -87v-17q0 -59 12 -86.5t42 -27.5z" />
    <glyph glyph-name="r.subs" horiz-adv-x="161" 
d="M33 -128v302h49v-60q15 60 71 60h11v-45h-19q-34 0 -48.5 -22t-14.5 -74v-161h-49z" />
    <glyph glyph-name="s.subs" horiz-adv-x="238" 
d="M121 -136q-48 0 -75 26.5t-27 74.5v2h45v-2q0 -66 57 -66q55 0 55 46q0 40 -42 57l-44 18q-33 12 -50 30.5t-17 51.5q0 40 26 59.5t69 19.5q41 0 68.5 -23t27.5 -66v-3h-44v3q0 28 -15 41t-39 13q-48 0 -48 -41q0 -34 38 -49l44 -18q38 -16 55 -34.5t17 -54.5
q0 -42 -28.5 -63.5t-72.5 -21.5z" />
    <glyph glyph-name="t.subs" horiz-adv-x="150" 
d="M141 -128h-35q-39 0 -52.5 15.5t-13.5 57.5v195h-39v34h39v77h49v-77h52v-34h-52v-190q0 -29 6.5 -36.5t29.5 -7.5h16v-34z" />
    <glyph glyph-name="u.subs" horiz-adv-x="259" 
d="M104 -136q-41 0 -58 26.5t-17 83.5v200h50v-186q0 -46 8 -67t32 -21q28 0 43 28.5t15 79.5v166h48v-302h-47v49q-20 -57 -74 -57z" />
    <glyph glyph-name="v.subs" horiz-adv-x="222" 
d="M83 -128l-78 302h48l59 -250l60 250h45l-78 -302h-56z" />
    <glyph glyph-name="w.subs" horiz-adv-x="322" 
d="M62 -128l-51 302h43l36 -245l49 245h44l48 -245l37 245h43l-51 -302h-51l-48 252l-47 -252h-52z" />
    <glyph glyph-name="x.subs" horiz-adv-x="217" 
d="M169 -128l-62 113l-62 -113h-45l85 154l-79 148h50l54 -102l57 102h44l-79 -143l85 -159h-48z" />
    <glyph glyph-name="y.subs" horiz-adv-x="221" 
d="M22 -227v34h17q22 0 30 7.5t16 37.5l5 20l-85 302h48l61 -250l57 250h45l-79 -306q-16 -61 -32.5 -78t-60.5 -17h-22z" />
    <glyph glyph-name="z.subs" horiz-adv-x="258" 
d="M32 -128v33l138 235h-125v34h177v-33l-138 -235h141v-34h-193z" />
    <glyph glyph-name="uni2080.zero" horiz-adv-x="310" 
d="M155 -136q-67 0 -94.5 43.5t-27.5 142.5v50q0 100 27.5 143.5t94.5 43.5t94.5 -43.5t27.5 -143.5v-50q0 -99 -27.5 -142.5t-94.5 -43.5zM82 55l144 82q-3 60 -18.5 88t-52.5 28q-45 0 -59 -39t-14 -126v-33zM155 -102q44 0 58 39t14 126v31l-144 -80q2 -61 17.5 -88.5
t54.5 -27.5z" />
    <glyph glyph-name="period.subs" horiz-adv-x="149" 
d="M49 -128v71h57v-71h-57z" />
    <glyph glyph-name="hyphen.subs" horiz-adv-x="226" 
d="M28 2v42h171v-42h-171z" />
    <glyph glyph-name="comma.subs" horiz-adv-x="138" 
d="M40 -128v66h66v-70l-35 -76h-33l30 80h-28z" />
    <glyph glyph-name="uni207C.003" horiz-adv-x="325" 
d="M28 -58v42h254v-42h-254zM28 64v42h254v-42h-254z" />
    <glyph glyph-name="uni207A.004" horiz-adv-x="340" 
d="M148 -128v129h-127v43h127v129h45v-129h127v-43h-127v-129h-45z" />
    <glyph glyph-name="uni207B.005" horiz-adv-x="319" 
d="M21 1v43h292v-43h-292z" />
    <glyph glyph-name="one.frac" horiz-adv-x="186" 
d="M83 317v321h-78v32q57 0 69.5 7.5t18.5 47.5h38v-408h-48z" />
    <glyph glyph-name="two.frac" horiz-adv-x="270" 
d="M23 317v38l45 58q9 11 28 35t27.5 35t22.5 30.5t21 32t15 28.5t11 29.5t3 27.5q0 66 -61 66q-63 0 -63 -87v-3h-47v3q0 59 28.5 90.5t83.5 31.5q50 0 79 -24.5t29 -74.5q0 -30 -16.5 -66t-36 -63.5t-59.5 -79.5l-6 -7.5t-5 -6.5l-6 -8l-37 -47h167v-38h-223z" />
    <glyph glyph-name="three.frac" horiz-adv-x="287" 
d="M135 309q-111 0 -111 110v2h46v-2q0 -76 65 -76q73 0 73 83q0 41 -20.5 62.5t-68.5 21.5h-21v36h21q76 0 76 78q0 73 -61 73q-60 0 -60 -74v-2h-46v2q0 52 28 80.5t79 28.5q110 0 110 -106q0 -76 -64 -95q77 -18 77 -104q0 -118 -123 -118z" />
    <glyph glyph-name="four.frac" horiz-adv-x="290" 
d="M174 317v106h-164v37l164 265h47v-262h48v-40h-48v-106h-47zM49 463h125v197z" />
    <glyph glyph-name="five.frac" horiz-adv-x="277" 
d="M137 309q-53 0 -83 29t-30 82v2h47v-2q0 -77 66 -77q68 0 68 96v21q0 94 -66 94q-47 0 -65 -53l-44 2l22 222h194v-39h-157l-13 -139q23 43 78 43q48 0 74.5 -32.5t26.5 -94.5v-27q0 -62 -30.5 -94.5t-87.5 -32.5z" />
    <glyph glyph-name="six.frac" horiz-adv-x="293" 
d="M154 309q-59 0 -89.5 37.5t-30.5 122.5v56q0 108 27 157.5t98 49.5q52 0 79 -29.5t27 -77.5v-3h-46v2q0 74 -61 74q-41 0 -57.5 -37t-16.5 -116v-13q7 21 28 37t53 16q49 0 77.5 -32.5t28.5 -94.5v-22q0 -64 -30.5 -95.5t-86.5 -31.5zM153 343q69 0 69 95v16
q0 45 -18.5 70t-50.5 25q-33 0 -51.5 -25t-18.5 -72v-13q0 -46 18.5 -71t51.5 -25z" />
    <glyph glyph-name="seven.frac" horiz-adv-x="235" 
d="M96 317h-49q13 235 147 369h-188v39h232v-39q-71 -69 -103.5 -157t-38.5 -212z" />
    <glyph glyph-name="eight.frac" horiz-adv-x="303" 
d="M152 309q-127 0 -127 121q0 77 72 105q-24 7 -42.5 30.5t-18.5 62.5q0 53 31 78.5t85 25.5q53 0 84 -25.5t31 -78.5q0 -39 -18.5 -62.5t-42.5 -30.5q72 -28 72 -105q0 -121 -126 -121zM152 343q36 0 56.5 21.5t20.5 60.5v9q0 39 -20.5 60.5t-56.5 21.5t-57 -21.5
t-21 -60.5v-9q0 -39 21 -60.5t57 -21.5zM152 549q65 0 65 71v6q0 72 -65 72q-66 0 -66 -72v-6q0 -71 66 -71z" />
    <glyph glyph-name="nine.frac" horiz-adv-x="302" 
d="M143 309q-52 0 -78 29t-26 78v3h46v-3q0 -73 59 -73q42 0 58.5 37t16.5 116v13q-7 -20 -28.5 -36t-52.5 -16q-50 0 -79 32t-29 94v21q0 64 31 96t86 32q60 0 90.5 -37.5t30.5 -123.5v-56q0 -107 -27.5 -156.5t-97.5 -49.5zM150 492q33 0 51.5 25t18.5 71v13
q0 46 -18.5 71.5t-51.5 25.5q-69 0 -69 -96v-15q0 -46 18 -70.5t51 -24.5z" />
    <glyph glyph-name="zero.frac" horiz-adv-x="311" 
d="M155 343q44 0 58 38.5t14 126.5v25q0 87 -14 126t-58 39t-57.5 -38.5t-13.5 -126.5v-25q0 -59 4 -91t20 -53t47 -21zM155 309q-67 0 -94.5 43.5t-27.5 142.5v50q0 100 27.5 143.5t94.5 43.5q68 0 95.5 -43.5t27.5 -143.5v-50q0 -99 -27.5 -142.5t-95.5 -43.5z" />
    <glyph glyph-name="zero.frac_zero" horiz-adv-x="310" 
d="M155 309q-67 0 -94.5 43.5t-27.5 142.5v50q0 100 27.5 143.5t94.5 43.5t94.5 -43.5t27.5 -143.5v-50q0 -99 -27.5 -142.5t-94.5 -43.5zM82 500l144 82q-3 60 -18.5 88t-52.5 28q-45 0 -59 -39t-14 -126v-33zM155 343q44 0 58 38.5t14 126.5v31l-144 -80q2 -61 17.5 -88.5
t54.5 -27.5z" />
    <glyph glyph-name="one.dnom" horiz-adv-x="186" 
d="M83 0v321h-78v32q57 0 69.5 7.5t18.5 47.5h38v-408h-48z" />
    <glyph glyph-name="two.dnom" horiz-adv-x="270" 
d="M23 0v38l45 58q9 11 28 35t27.5 35t22.5 30.5t21 32t15 28.5t11 29.5t3 27.5q0 66 -61 66q-63 0 -63 -87v-3h-47v3q0 59 28.5 90.5t83.5 31.5q50 0 79 -24.5t29 -74.5q0 -30 -16.5 -66t-36 -63.5t-59.5 -79.5q-11 -14 -17 -22l-37 -47h167v-38h-223z" />
    <glyph glyph-name="three.dnom" horiz-adv-x="287" 
d="M135 -8q-111 0 -111 110v2h46v-2q0 -76 65 -76q73 0 73 83q0 41 -20.5 62.5t-68.5 21.5h-21v36h21q76 0 76 78q0 73 -61 73q-60 0 -60 -74v-2h-46v2q0 52 28 80.5t79 28.5q110 0 110 -106q0 -76 -64 -95q77 -18 77 -104q0 -118 -123 -118z" />
    <glyph glyph-name="four.dnom" horiz-adv-x="290" 
d="M174 0v106h-164v37l164 265h47v-262h48v-40h-48v-106h-47zM49 146h125v197z" />
    <glyph glyph-name="five.dnom" horiz-adv-x="277" 
d="M137 -8q-53 0 -83 29t-30 82v2h47v-2q0 -77 66 -77q68 0 68 96v21q0 94 -66 94q-47 0 -65 -53l-44 2l22 222h194v-39h-157l-13 -139q23 43 78 43q48 0 74.5 -32.5t26.5 -94.5v-27q0 -62 -30.5 -94.5t-87.5 -32.5z" />
    <glyph glyph-name="six.dnom" horiz-adv-x="293" 
d="M154 -8q-59 0 -89.5 37.5t-30.5 122.5v56q0 108 27 157.5t98 49.5q52 0 79 -29.5t27 -77.5v-3h-46v2q0 74 -61 74q-41 0 -57.5 -37t-16.5 -116v-13q7 21 28 37t53 16q49 0 77.5 -32.5t28.5 -94.5v-22q0 -64 -30.5 -95.5t-86.5 -31.5zM153 26q69 0 69 95v16q0 45 -18.5 70
t-50.5 25q-33 0 -51.5 -25t-18.5 -72v-13q0 -46 18.5 -71t51.5 -25z" />
    <glyph glyph-name="seven.dnom" horiz-adv-x="235" 
d="M96 0h-49q13 235 147 369h-188v39h232v-39q-71 -69 -103.5 -157t-38.5 -212z" />
    <glyph glyph-name="eight.dnom" horiz-adv-x="303" 
d="M152 -8q-127 0 -127 121q0 77 72 105q-24 7 -42.5 30.5t-18.5 62.5q0 53 31 78.5t85 25.5q53 0 84 -25.5t31 -78.5q0 -39 -18.5 -62.5t-42.5 -30.5q72 -28 72 -105q0 -121 -126 -121zM152 26q36 0 56.5 21.5t20.5 60.5v9q0 39 -20.5 60.5t-56.5 21.5t-57 -21.5t-21 -60.5
v-9q0 -39 21 -60.5t57 -21.5zM152 232q65 0 65 71v6q0 72 -65 72q-66 0 -66 -72v-6q0 -71 66 -71z" />
    <glyph glyph-name="nine.dnom" horiz-adv-x="302" 
d="M143 -8q-52 0 -78 29t-26 78v3h46v-3q0 -73 59 -73q42 0 58.5 37t16.5 116v13q-7 -20 -28.5 -36t-52.5 -16q-50 0 -79 32t-29 94v21q0 64 31 96t86 32q60 0 90.5 -37.5t30.5 -123.5v-56q0 -107 -27.5 -156.5t-97.5 -49.5zM150 175q33 0 51.5 25t18.5 71v13
q0 46 -18.5 71.5t-51.5 25.5q-69 0 -69 -96v-15q0 -46 18 -70.5t51 -24.5z" />
    <glyph glyph-name="zero.dnom" horiz-adv-x="311" 
d="M155 26q44 0 58 39t14 126v25q0 87 -14 126t-58 39t-57.5 -38.5t-13.5 -126.5v-25q0 -59 4 -91t20 -53t47 -21zM155 -8q-67 0 -94.5 43.5t-27.5 142.5v50q0 100 27.5 143.5t94.5 43.5q68 0 95.5 -43.5t27.5 -143.5v-50q0 -99 -27.5 -142.5t-95.5 -43.5z" />
    <glyph glyph-name="zero.dnom_zero" horiz-adv-x="310" 
d="M155 -8q-67 0 -94.5 43.5t-27.5 142.5v50q0 100 27.5 143.5t94.5 43.5t94.5 -43.5t27.5 -143.5v-50q0 -99 -27.5 -142.5t-94.5 -43.5zM82 183l144 82q-3 60 -18.5 88t-52.5 28q-45 0 -59 -39t-14 -126v-33zM155 26q44 0 58 39t14 126v31l-144 -80q2 -61 17.5 -88.5
t54.5 -27.5z" />
    <glyph glyph-name="ampersand.case" horiz-adv-x="593" 
d="M238 -13q-95 0 -151.5 57.5t-56.5 139.5q0 67 31 112.5t103 100.5l28 20q-42 56 -60 96.5t-18 88.5q0 62 41.5 99t108.5 37q65 0 104.5 -34.5t39.5 -98.5q0 -56 -36 -100.5t-103 -93.5l164 -219q27 62 31 206h57q-5 -167 -50 -256l107 -142h-72l-68 90
q-76 -103 -200 -103zM242 39q113 0 162 96l-181 241l-27 -20q-55 -40 -78.5 -76t-23.5 -93q0 -67 41 -107.5t107 -40.5zM174 597q0 -39 14 -69t50 -77q53 38 82.5 72.5t29.5 80.5q0 39 -21.5 62t-65.5 23q-41 0 -65 -23t-24 -69z" />
    <glyph glyph-name="hyphen.006" horiz-adv-x="328" 
d="M50 337v58h228v-58h-228z" />
    <glyph glyph-name="endash.007" horiz-adv-x="492" 
d="M36 337v58h420v-58h-420z" />
    <glyph glyph-name="emdash.008" horiz-adv-x="722" 
d="M36 337v58h651v-58h-651z" />
    <glyph glyph-name="question.case" horiz-adv-x="450" 
d="M169 184v45q0 68 19.5 101t74.5 75q44 34 65 68.5t21 85.5q0 66 -33.5 98t-89.5 32q-130 0 -130 -162v-6h-65v6q0 102 50 156.5t145 54.5q84 0 136 -42t52 -135q0 -109 -105 -190q-46 -37 -60 -61t-14 -81v-45h-66zM171 0v114h62v-114h-62z" />
    <glyph glyph-name="questiondown.case" horiz-adv-x="450" 
d="M219 -13q-84 0 -136 42t-52 135q0 105 105 190q46 35 60.5 60t14.5 83v44h66v-45q0 -68 -20 -101.5t-75 -75.5q-43 -33 -64 -68t-21 -86q0 -65 33.5 -97t89.5 -32q130 0 130 162v6h64v-6q0 -102 -50 -156.5t-145 -54.5zM213 611v114h62v-114h-62z" />
    <glyph glyph-name="exclam.case" horiz-adv-x="267" 
d="M113 182l-14 335v208h69v-208l-15 -335h-40zM102 0v114h62v-114h-62z" />
    <glyph glyph-name="exclamdown.case" horiz-adv-x="267" 
d="M99 208l14 335h40l15 -335v-208h-69v208zM102 611v114h62v-114h-62z" />
    <glyph glyph-name="guilsinglleft.009" horiz-adv-x="198" 
d="M144 191l-123 143v74l123 143v-78l-88 -103l88 -103v-76z" />
    <glyph glyph-name="guilsinglright.010" horiz-adv-x="198" 
d="M55 191v76l87 103l-87 103v78l123 -143v-74z" />
    <glyph glyph-name="guilsinglleft_guilsinglleft" horiz-adv-x="338" 
d="M283 191l-123 143v74l123 143v-78l-88 -103l88 -103v-76zM144 191l-123 143v74l123 143v-78l-88 -103l88 -103v-76z" />
    <glyph glyph-name="guilsinglright_guilsinglright" horiz-adv-x="338" 
d="M55 191v76l87 103l-87 103v78l123 -143v-74zM194 191v76l87 103l-87 103v78l123 -143v-74z" />
    <glyph glyph-name="parenleft.case" horiz-adv-x="220" 
d="M218 0h-57q-115 168 -115 363q0 194 115 362h57q-110 -171 -110 -362q0 -192 110 -363z" />
    <glyph glyph-name="parenright.case" horiz-adv-x="220" 
d="M59 0h-57q110 171 110 363q0 191 -110 362h57q49 -72 82.5 -166.5t33.5 -195.5q0 -102 -33 -196.5t-83 -166.5z" />
    <glyph glyph-name="bracketleft.case" horiz-adv-x="237" 
d="M77 0v725h155v-48h-101v-627h101v-50h-155z" />
    <glyph glyph-name="bracketright.case" horiz-adv-x="237" 
d="M5 0v50h100v627h-100v48h155v-725h-155z" />
    <glyph glyph-name="braceleft.case" horiz-adv-x="247" 
d="M242 0h-22q-77 0 -104.5 27.5t-27.5 103.5v89q0 55 -14.5 85t-57.5 32v51q43 2 57.5 32.5t14.5 84.5v90q0 75 27.5 102.5t104.5 27.5h22v-50h-11q-56 0 -71 -16t-15 -69v-90q0 -66 -18 -96t-56 -40v-2q38 -10 56 -40.5t18 -96.5v-89q0 -54 15 -70t71 -16h11v-50z" />
    <glyph glyph-name="braceright.case" horiz-adv-x="246" 
d="M26 0h-21v50h11q55 0 70.5 16.5t15.5 69.5v89q0 66 18 96.5t55 40.5v2q-38 10 -55.5 40t-17.5 96v90q0 53 -15.5 69t-70.5 16h-11v50h21q77 0 104.5 -27.5t27.5 -102.5v-90q0 -54 14.5 -84.5t57.5 -32.5v-51q-43 -2 -57.5 -32t-14.5 -85v-89q0 -76 -27.5 -103.5
t-104.5 -27.5z" />
    <glyph glyph-name="bar.case" horiz-adv-x="213" 
d="M77 0v725h59v-725h-59z" />
    <glyph glyph-name="brokenbar.case" horiz-adv-x="189" 
d="M65 0v260h59v-260h-59zM65 465v260h59v-260h-59z" />
    <glyph glyph-name="period.011" horiz-adv-x="218" 
d="M78 305v114h62v-114h-62z" />
    <glyph glyph-name="bullet.012" horiz-adv-x="460" 
d="M226 191q-73 0 -124.5 53t-51.5 130q0 73 52 125t124 52q78 0 131 -51.5t53 -125.5q0 -78 -52.5 -130.5t-131.5 -52.5z" />
    <glyph glyph-name="plus.013" 
d="M247 95v243h-214v53h214v242h54v-242h214v-53h-214v-243h-54z" />
    <glyph glyph-name="minus.014" 
d="M33 337v55h482v-55h-482z" />
    <glyph glyph-name="divide.015" 
d="M238 146v105h72v-105h-72zM36 338v53h476v-53h-476zM238 474v104h72v-104h-72z" />
    <glyph glyph-name="multiply.016" 
d="M104 134l-38 39l171 191l-171 191l38 38l169 -189l171 189l38 -38l-172 -192l172 -191l-38 -38l-170 189z" />
    <glyph glyph-name="equal.017" 
d="M65 227v52h418v-52h-418zM65 449v52h418v-52h-418z" />
    <glyph glyph-name="plusminus.018" 
d="M246 199v191h-218v52h218v188h56v-188h219v-52h-219v-191h-56zM28 95v52h493v-52h-493z" />
    <glyph glyph-name="less.019" 
d="M476 102l-403 235v55l403 236v-59l-341 -204l341 -203v-60z" />
    <glyph glyph-name="greater.020" 
d="M476 337l-403 -235v60l342 203l-342 204v59l403 -236v-55z" />
    <glyph glyph-name="lessequal.021" 
d="M513 633v-55l-403 -164l403 -164v-56l-478 192v56zM35 98v52h478v-52h-478z" />
    <glyph glyph-name="greaterequal.022" 
d="M35 575v55l478 -191v-56l-478 -192v56l404 164zM513 147v-52h-478v52h478z" />
    <glyph glyph-name="notequal.023" 
d="M65 449v52h252l69 132h59l-69 -132h107v-52h-134l-89 -170h223v-52h-250l-69 -132h-60l69 132h-108v52h135l89 170h-224z" />
    <glyph glyph-name="acute.case" horiz-adv-x="211" 
d="M25 773l77 113h84l-113 -113h-48z" />
    <glyph glyph-name="breve.case" horiz-adv-x="287" 
d="M142 773q-115 0 -117 113h46q4 -71 72 -71q33 0 51.5 15.5t20.5 55.5h47q-5 -113 -120 -113z" />
    <glyph glyph-name="caron.case" horiz-adv-x="333" 
d="M200 773h-66l-109 113h56l85 -76l85 76h57z" />
    <glyph glyph-name="cedilla.case" horiz-adv-x="226" 
d="M99 -192q-38 0 -74 12l11 33q24 -11 56 -11q61 0 61 39q0 37 -48 37q-25 0 -43 -9l-16 15l48 77h35l-33 -55q14 3 30 3q33 0 54 -17t21 -48q0 -37 -30 -56.5t-72 -19.5z" />
    <glyph glyph-name="circumflex.case" horiz-adv-x="333" 
d="M25 773l109 113h66l108 -113h-57l-85 75l-85 -75h-56z" />
    <glyph glyph-name="dieresis.case" horiz-adv-x="306" 
d="M25 780v100h59v-100h-59zM222 780v100h59v-100h-59z" />
    <glyph glyph-name="dotaccent.case" horiz-adv-x="114" 
d="M25 781v100h64v-100h-64z" />
    <glyph glyph-name="grave.case" horiz-adv-x="211" 
d="M138 773l-113 113h84l77 -113h-48z" />
    <glyph glyph-name="hungarumlaut.case" horiz-adv-x="371" 
d="M25 784l77 113h84l-113 -113h-48zM185 784l77 113h84l-113 -113h-48z" />
    <glyph glyph-name="overscore.case" horiz-adv-x="283" 
d="M25 807v51h233v-51h-233z" />
    <glyph glyph-name="ogonek.case" horiz-adv-x="204" 
d="M125 -188q-40 0 -70 23t-30 61q0 30 28 60.5t63 43.5h63q-41 -19 -67 -46t-26 -51q0 -21 14 -34.5t39 -13.5q23 0 40 6v-43q-18 -6 -54 -6z" />
    <glyph glyph-name="ring.case" horiz-adv-x="224" 
d="M112 895q-18 0 -31.5 -12.5t-13.5 -32.5q0 -19 13.5 -31.5t31.5 -12.5q19 0 32 12t13 32t-13 32.5t-32 12.5zM112 767q-36 0 -61.5 23.5t-25.5 59.5t25 59t62 23t62 -23t25 -59t-25 -59.5t-62 -23.5z" />
    <glyph glyph-name="tilde.case" horiz-adv-x="322" 
d="M73 784h-48q9 102 78 102q25 0 62 -27.5t52 -27.5q27 0 33 55h47q-10 -102 -77 -102q-26 0 -63 27.5t-50 27.5q-30 0 -34 -55z" />
    <glyph glyph-name="a.salt" horiz-adv-x="464" 
d="M199 -13q-158 0 -158 240v82q0 239 158 239q52 0 89 -30t50 -77v97h61v-538h-61v93q-13 -47 -50 -76.5t-89 -29.5zM212 35q60 0 94.5 57t34.5 175q0 119 -34.5 176t-94.5 57q-59 0 -83.5 -52.5t-24.5 -164.5v-31q0 -112 24.5 -164.5t83.5 -52.5z" />
    <glyph glyph-name="aacute.salt" horiz-adv-x="464" 
d="M184 608l67 117h78l-100 -117h-45zM199 -13q-158 0 -158 240v82q0 239 158 239q52 0 89 -30t50 -77v97h61v-538h-61v93q-13 -47 -50 -76.5t-89 -29.5zM212 35q60 0 94.5 57t34.5 175q0 119 -34.5 176t-94.5 57q-59 0 -83.5 -52.5t-24.5 -164.5v-31q0 -112 24.5 -164.5
t83.5 -52.5z" />
    <glyph glyph-name="abreve.salt" horiz-adv-x="464" 
d="M199 -13q-158 0 -158 240v82q0 239 158 239q52 0 89 -30t50 -77v97h61v-538h-61v93q-13 -47 -50 -76.5t-89 -29.5zM212 35q60 0 94.5 57t34.5 175q0 119 -34.5 176t-94.5 57q-59 0 -83.5 -52.5t-24.5 -164.5v-31q0 -112 24.5 -164.5t83.5 -52.5zM220 606q-60 0 -89.5 30
t-34.5 89h46q5 -42 23.5 -60.5t54.5 -18.5q71 0 78 79h47q-6 -60 -35 -89.5t-90 -29.5z" />
    <glyph glyph-name="acircumflex.salt" horiz-adv-x="464" 
d="M90 608l107 117h56l107 -117h-56l-78 76l-78 -76h-58zM199 -13q-158 0 -158 240v82q0 239 158 239q52 0 89 -30t50 -77v97h61v-538h-61v93q-13 -47 -50 -76.5t-89 -29.5zM212 35q60 0 94.5 57t34.5 175q0 119 -34.5 176t-94.5 57q-59 0 -83.5 -52.5t-24.5 -164.5v-31
q0 -112 24.5 -164.5t83.5 -52.5z" />
    <glyph glyph-name="adieresis.salt" horiz-adv-x="464" 
d="M93 624v101h57v-101h-57zM291 624v101h58v-101h-58zM199 -13q-158 0 -158 240v82q0 239 158 239q52 0 89 -30t50 -77v97h61v-538h-61v93q-13 -47 -50 -76.5t-89 -29.5zM212 35q60 0 94.5 57t34.5 175q0 119 -34.5 176t-94.5 57q-59 0 -83.5 -52.5t-24.5 -164.5v-31
q0 -112 24.5 -164.5t83.5 -52.5z" />
    <glyph glyph-name="agrave.salt" horiz-adv-x="464" 
d="M199 -13q-158 0 -158 240v82q0 239 158 239q52 0 89 -30t50 -77v97h61v-538h-61v93q-13 -47 -50 -76.5t-89 -29.5zM212 35q60 0 94.5 57t34.5 175q0 119 -34.5 176t-94.5 57q-59 0 -83.5 -52.5t-24.5 -164.5v-31q0 -112 24.5 -164.5t83.5 -52.5zM205 608l-100 117h79
l66 -117h-45z" />
    <glyph glyph-name="amacron.salt" horiz-adv-x="464" 
d="M199 -13q-158 0 -158 240v82q0 239 158 239q52 0 89 -30t50 -77v97h61v-538h-61v93q-13 -47 -50 -76.5t-89 -29.5zM212 35q60 0 94.5 57t34.5 175q0 119 -34.5 176t-94.5 57q-59 0 -83.5 -52.5t-24.5 -164.5v-31q0 -112 24.5 -164.5t83.5 -52.5zM109 643v47h223v-47h-223
z" />
    <glyph glyph-name="aogonek.salt" horiz-adv-x="464" 
d="M199 -13q-158 0 -158 240v82q0 239 158 239q52 0 89 -30t50 -77v97h61v-538q-41 -20 -67 -45t-26 -49q0 -21 14.5 -34t40.5 -13q21 0 38 6v-43q-24 -6 -52 -6q-41 0 -70.5 21.5t-29.5 59.5q0 30 28 60t63 43v93q-13 -47 -50 -76.5t-89 -29.5zM212 35q60 0 94.5 57
t34.5 175q0 119 -34.5 176t-94.5 57q-59 0 -83.5 -52.5t-24.5 -164.5v-31q0 -112 24.5 -164.5t83.5 -52.5z" />
    <glyph glyph-name="aring.salt" horiz-adv-x="464" 
d="M221 728q-20 0 -34 -14t-14 -35t14 -34.5t34 -13.5q21 0 34.5 13.5t13.5 34.5t-13.5 35t-34.5 14zM221 596q-36 0 -61.5 23.5t-25.5 59.5t25 59t62 23t62 -23t25 -59t-25 -59.5t-62 -23.5zM199 -13q-158 0 -158 240v82q0 239 158 239q52 0 89 -30t50 -77v97h61v-538h-61
v93q-13 -47 -50 -76.5t-89 -29.5zM212 35q60 0 94.5 57t34.5 175q0 119 -34.5 176t-94.5 57q-59 0 -83.5 -52.5t-24.5 -164.5v-31q0 -112 24.5 -164.5t83.5 -52.5z" />
    <glyph glyph-name="atilde.salt" horiz-adv-x="464" 
d="M199 -13q-158 0 -158 240v82q0 239 158 239q52 0 89 -30t50 -77v97h61v-538h-61v93q-13 -47 -50 -76.5t-89 -29.5zM212 35q60 0 94.5 57t34.5 175q0 119 -34.5 176t-94.5 57q-59 0 -83.5 -52.5t-24.5 -164.5v-31q0 -112 24.5 -164.5t83.5 -52.5zM135 620h-47
q5 51 27 75.5t52 24.5q24 0 58 -26.5t48 -26.5q27 0 35 53h47q-6 -50 -28 -75t-51 -25q-26 0 -59.5 26.5t-46.5 26.5q-27 0 -35 -53z" />
    <glyph glyph-name="l.ss02" horiz-adv-x="222" 
d="M220 0h-32q-75 0 -99 24.5t-24 102.5v598h61v-582q0 -61 13.5 -77.5t69.5 -16.5h11v-49z" />
    <glyph glyph-name="lacute.ss02" horiz-adv-x="222" 
d="M220 0h-32q-75 0 -99 24.5t-24 102.5v598h61v-582q0 -61 13.5 -77.5t69.5 -16.5h11v-49zM68 773l77 113h84l-113 -113h-48z" />
    <glyph glyph-name="lcaron.ss02" horiz-adv-x="227" 
d="M178 555l28 170h51l-41 -170h-38zM220 0h-32q-75 0 -99 24.5t-24 102.5v598h61v-582q0 -61 13.5 -77.5t69.5 -16.5h11v-49z" />
    <glyph glyph-name="uni013C.ss02" horiz-adv-x="222" 
d="M102 -128v78h68v-84l-34 -80h-43l39 86h-30zM220 0h-32q-75 0 -99 24.5t-24 102.5v598h61v-582q0 -61 13.5 -77.5t69.5 -16.5h11v-49z" />
    <glyph glyph-name="ldot.ss02" horiz-adv-x="248" 
d="M191 345v101h57v-101h-57zM220 0h-32q-75 0 -99 24.5t-24 102.5v598h61v-582q0 -61 13.5 -77.5t69.5 -16.5h11v-49z" />
    <glyph glyph-name="lslash.ss02" horiz-adv-x="246" 
d="M0 282v57l65 46v340h61v-297l91 65v-58l-91 -64v-228q0 -61 13.5 -77.5t69.5 -16.5h11v-49h-32q-75 0 -99 24.5t-24 102.5v201z" />
    <glyph glyph-name="fl.ss02" horiz-adv-x="468" 
d="M84 0v492h-74v46h74v65q0 70 24.5 96t93.5 26h41v-45h-29q-45 0 -57 -15t-12 -68v-59h98v-46h-98v-492h-61zM466 0h-32q-75 0 -99 24.5t-24 102.5v598h61v-582q0 -61 13.5 -77.5t69.5 -16.5h11v-49z" />
    <glyph glyph-name="germandbls.ss03" horiz-adv-x="488" 
d="M65 -175v706q0 109 44 158t135 49q76 0 123.5 -40.5t47.5 -127.5q0 -130 -113 -160q67 -13 106.5 -62t39.5 -134q0 -110 -50.5 -162t-155.5 -52h-47v46h44q146 0 146 168q0 87 -40.5 127.5t-133.5 40.5h-21v48h20q73 0 108 30.5t35 107.5q0 62 -29 92.5t-81 30.5
q-65 0 -91 -37.5t-26 -124.5v-704h-61z" />
    </font>
</defs>
</svg>
