<?xml version="1.0" standalone="no"?>
<!DOCTYPE svg PUBLIC "-//W3C//DTD SVG 1.1//EN" "http://www.w3.org/Graphics/SVG/1.1/DTD/svg11.dtd" >
<svg xmlns="http://www.w3.org/2000/svg" xmlns:xlink="http://www.w3.org/1999/xlink" version="1.1">
<metadata>
Created by FontForge 20170731 at Sun Jul 24 18:26:31 2016
 By Aleksey,,,
Copyright (c) 2015 Swiss Typefaces. All rights reserved.
</metadata>
<defs>
<font id="SuisseIntlCondensed-Bold" horiz-adv-x="548" >
  <font-face 
    font-family="Suisse Int'l Condensed"
    font-weight="700"
    font-stretch="condensed"
    units-per-em="1000"
    panose-1="2 11 8 6 0 0 0 0 0 0"
    ascent="800"
    descent="-200"
    x-height="538"
    cap-height="725"
    bbox="-66 -246 1078 935"
    underline-thickness="100"
    underline-position="-310"
    unicode-range="U+0020-FB02"
  />
<missing-glyph horiz-adv-x="500" 
d="M0 0v725h500v-725h-500zM239 362l-220 334v-667zM260 362l221 -333v667zM250 346l-217 -327h433zM33 706l217 -328l216 328h-433z" />
    <glyph glyph-name=".notdef" horiz-adv-x="500" 
d="M0 0v725h500v-725h-500zM239 362l-220 334v-667zM260 362l221 -333v667zM250 346l-217 -327h433zM33 706l217 -328l216 328h-433z" />
    <glyph glyph-name=".null" horiz-adv-x="0" 
 />
    <glyph glyph-name="nonmarkingreturn" horiz-adv-x="333" 
 />
    <glyph glyph-name="space" unicode=" " horiz-adv-x="180" 
 />
    <glyph glyph-name="exclam" unicode="!" horiz-adv-x="248" 
d="M70 221l-23 318v186h154v-186l-23 -318h-108zM43 0v155h162v-155h-162z" />
    <glyph glyph-name="quotedbl" unicode="&#x22;" horiz-adv-x="434" 
d="M163 471h-92l-33 254h158zM363 471h-92l-33 254h158z" />
    <glyph glyph-name="numbersign" unicode="#" horiz-adv-x="589" 
d="M298 0l26 187h-112l-26 -187h-113l26 187h-83l13 107h84l21 150h-81l12 108h84l24 173h113l-24 -173h112l24 173h113l-24 -173h86l-13 -108h-88l-21 -150h85l-12 -107h-87l-26 -187h-113zM247 444l-21 -150h112l21 150h-112z" />
    <glyph glyph-name="dollar" unicode="$" horiz-adv-x="522" 
d="M241 -89v84q-217 11 -217 242v6h157v-6q0 -74 19 -105.5t68 -31.5q41 0 60 22t19 72q0 40 -21 65t-63 44l-62 28q-91 41 -130.5 88t-39.5 134q0 93 56 141.5t154 50.5v72h55v-74q192 -21 192 -217v-3h-155v3q0 62 -20 87.5t-63 25.5q-66 0 -66 -80q0 -65 55 -88l70 -32
q49 -22 77.5 -38t59 -42t44 -62t13.5 -84q0 -204 -207 -218v-84h-55z" />
    <glyph glyph-name="percent" unicode="%" horiz-adv-x="789" 
d="M155 370q14 0 22 6.5t11.5 26t4 35t0.5 52.5v5.5v5.5v39v11q0 36 -0.5 52.5t-4 35.5t-11.5 26t-22 7q-15 0 -23.5 -7.5t-12 -29.5t-4 -38t-0.5 -57v-39q0 -93 10 -113q10 -17 30 -18zM155 310q-77 0 -105.5 42t-28.5 139v59q0 97 28.5 139.5t105.5 42.5q75 0 104.5 -43
t29.5 -139v-59q0 -96 -29 -138.5t-105 -42.5zM255 0l213 725h66l-213 -725h-66zM634 52q27 0 32.5 27.5t5.5 104.5v39v11q0 36 -0.5 52.5t-4 35.5t-11.5 26t-22 7q-15 0 -23.5 -7.5t-12 -29.5t-4 -38t-0.5 -57v-39q0 -41 0.5 -57t4 -38t12 -29.5t23.5 -7.5zM634 -8
q-77 0 -105.5 42.5t-28.5 139.5v59q0 97 28.5 139.5t105.5 42.5q75 0 104.5 -43t29.5 -139v-59q0 -96 -29.5 -139t-104.5 -43z" />
    <glyph glyph-name="ampersand" unicode="&#x26;" horiz-adv-x="645" 
d="M236 -13q-101 0 -162 54.5t-61 152.5q0 47 19.5 84t44 58t73.5 53l20 13l-9 12q-36 46 -50.5 82.5t-14.5 83.5q0 73 52 115.5t135 42.5q46 0 85 -14.5t67.5 -52t28.5 -92.5q0 -62 -27.5 -101t-86.5 -80l-12 -8l100 -130q28 68 28 140h120q-4 -138 -71 -239l124 -161h-158
l-47 60q-76 -73 -198 -73zM256 92q70 0 113 52l-134 174l-12 -8q-38 -26 -51 -50.5t-13 -62.5q0 -44 26.5 -74.5t70.5 -30.5zM223 583q0 -28 9 -47.5t33 -50.5l9 -12l14 10q57 39 57 90q0 32 -17 48.5t-45 16.5q-25 0 -42.5 -14.5t-17.5 -40.5z" />
    <glyph glyph-name="quotesingle" unicode="'" horiz-adv-x="234" 
d="M163 471h-92l-33 254h158z" />
    <glyph glyph-name="parenleft" unicode="(" horiz-adv-x="266" 
d="M159 725h126q-121 -197 -121 -450t121 -450h-126q-55 82 -96 199t-41 251t41 251t96 199z" />
    <glyph glyph-name="parenright" unicode=")" horiz-adv-x="266" 
d="M108 -175h-126q121 197 121 450q0 250 -121 450h126q55 -83 96 -199t41 -251q0 -243 -137 -450z" />
    <glyph glyph-name="asterisk" unicode="*" horiz-adv-x="375" 
d="M128 398l-79 53l62 85l-101 36l33 86l97 -37v104h92v-104l99 37l34 -86l-103 -35l62 -85l-72 -54l-65 87z" />
    <glyph glyph-name="plus" unicode="+" 
d="M214 0v211h-198v116h198v211h120v-211h198v-116h-198v-211h-120z" />
    <glyph glyph-name="comma" unicode="," horiz-adv-x="238" 
d="M26 -164l82 164h-70v154h162v-164l-84 -154h-90z" />
    <glyph glyph-name="hyphen" unicode="-" horiz-adv-x="352" 
d="M43 186v131h266v-131h-266z" />
    <glyph glyph-name="period" unicode="." horiz-adv-x="238" 
d="M38 0v155h162v-155h-162z" />
    <glyph glyph-name="slash" unicode="/" horiz-adv-x="393" 
d="M0 0l244 725h149l-244 -725h-149z" />
    <glyph glyph-name="zero" unicode="0" 
d="M274 87q19 0 33 6.5t23 23.5t14 33t7 49.5t2.5 58t0.5 71.5v69q0 47 -0.5 71.5t-2.5 58t-7 49.5t-14 33t-23 23.5t-33 6.5q-29 0 -46 -13.5t-24 -51.5t-8.5 -69.5t-1.5 -102.5v-5v-69v-5q0 -71 1.5 -102.5t8.5 -69.5t24 -51.5t46 -13.5zM274 -12q-134 0 -185 76t-51 248
v103q0 171 51.5 247.5t184.5 76.5t184.5 -76.5t51.5 -247.5v-103q0 -172 -51 -248t-185 -76z" />
    <glyph glyph-name="one" unicode="1" horiz-adv-x="331" 
d="M124 0v542h-113v94q83 2 107 15.5t39 73.5h120v-725h-153z" />
    <glyph glyph-name="two" unicode="2" horiz-adv-x="503" 
d="M30 0v109l81 101q114 143 157 213.5t43 130.5q0 85 -64 85q-36 0 -50.5 -29.5t-14.5 -99.5v-9h-143v8q0 117 52.5 173t167.5 56q102 0 155 -44.5t53 -129.5q0 -75 -45 -154t-145 -207l-69 -87h263v-116h-441z" />
    <glyph glyph-name="three" unicode="3" horiz-adv-x="520" 
d="M244 -12q-212 0 -212 210v4h143v-4q0 -57 15.5 -84t56.5 -27q50 0 67 31t17 88q0 58 -20 88t-81 30h-45v103h41q47 0 64.5 27.5t17.5 80.5t-13.5 79t-54.5 26q-35 0 -48.5 -22.5t-13.5 -82.5v-5h-143v5q0 204 212 204q219 0 219 -188q0 -69 -30.5 -109.5t-75.5 -54.5
q127 -39 127 -181q0 -116 -61.5 -167t-181.5 -51z" />
    <glyph glyph-name="four" unicode="4" horiz-adv-x="529" 
d="M269 0v174h-250v108l253 443h151v-434h86v-117h-86v-174h-154zM127 291h142v248z" />
    <glyph glyph-name="five" unicode="5" horiz-adv-x="508" 
d="M250 -12q-99 0 -158.5 50t-59.5 160v4h143v-4q0 -56 17 -83.5t58 -27.5q37 0 52.5 32t15.5 96v50q0 128 -73 128q-51 0 -65 -69l-138 5l32 397h382v-116h-263l-15 -189q12 31 45 53.5t78 22.5q92 0 133 -55t41 -173v-53q0 -228 -225 -228z" />
    <glyph glyph-name="six" unicode="6" horiz-adv-x="523" 
d="M270 -12q-132 0 -182 76t-50 248v103q0 172 50 248t182 76q105 0 154 -51.5t49 -142.5v-6h-143v5q0 52 -15 74t-47 22q-21 0 -34.5 -9t-21.5 -23t-12 -42t-5 -54.5t-1 -72.5v-36q12 32 43.5 54.5t77.5 22.5q91 0 133.5 -56t42.5 -172v-36q0 -117 -53 -172.5t-168 -55.5z
M262 87q72 0 72 128v32q0 128 -72 128q-71 0 -71 -128v-32q0 -128 71 -128z" />
    <glyph glyph-name="seven" unicode="7" horiz-adv-x="451" 
d="M235 0h-159q4 339 242 609h-304v116h429v-116q-114 -135 -161 -276.5t-47 -332.5z" />
    <glyph glyph-name="eight" unicode="8" horiz-adv-x="539" 
d="M269 -12q-120 0 -178.5 51t-58.5 167q0 141 114 181q-37 16 -67.5 56.5t-30.5 107.5q0 188 221 188t221 -188q0 -67 -30.5 -107.5t-67.5 -56.5q114 -40 114 -181q0 -117 -59 -167.5t-178 -50.5zM269 87q49 0 65 29.5t16 87.5v9q0 58 -16 87.5t-65 29.5t-65 -29.5
t-16 -87.5v-9q0 -58 16 -87.5t65 -29.5zM269 427q40 0 51.5 24.5t11.5 78.5v7q0 36 -3 55t-17.5 33.5t-42.5 14.5q-40 0 -51.5 -24.5t-11.5 -78.5v-7q0 -36 3 -55t17.5 -33.5t42.5 -14.5z" />
    <glyph glyph-name="nine" unicode="9" horiz-adv-x="523" 
d="M253 -12q-105 0 -154 51.5t-49 142.5v6h143v-5q0 -52 15 -74t47 -22q21 0 34.5 9t21.5 23t12 42t5 54.5t1 72.5v36q-12 -32 -43.5 -54.5t-77.5 -22.5q-91 0 -133.5 56t-42.5 172v36q0 117 53 172.5t168 55.5q132 0 182 -76t50 -248v-103q0 -172 -50 -248t-182 -76z
M261 352q71 0 71 128v32q0 128 -71 128q-72 0 -72 -128v-32q0 -128 72 -128z" />
    <glyph glyph-name="colon" unicode=":" horiz-adv-x="238" 
d="M38 0v155h162v-155h-162zM38 383v155h162v-155h-162z" />
    <glyph glyph-name="semicolon" unicode=";" horiz-adv-x="238" 
d="M38 383v155h162v-155h-162zM26 -164l82 164h-70v154h162v-164l-84 -154h-90z" />
    <glyph glyph-name="less" unicode="&#x3c;" 
d="M481 -8l-413 211v129l413 211v-132l-281 -144l281 -143v-132z" />
    <glyph glyph-name="equal" unicode="=" 
d="M59 102v116h430v-116h-430zM59 319v117h430v-117h-430z" />
    <glyph glyph-name="greater" unicode="&#x3e;" 
d="M481 203l-413 -211v132l281 143l-281 144v132l413 -211v-129z" />
    <glyph glyph-name="question" unicode="?" horiz-adv-x="474" 
d="M133 220v34q0 18 3 34.5l5 27.5t11 25.5t12.5 20.5t17.5 20t17.5 17t22 19t21.5 19q31 27 43 52.5t12 64.5q0 47 -15.5 66t-49.5 19q-36 0 -53 -26.5t-17 -96.5v-4h-143v4q0 113 56.5 167.5t159.5 54.5q218 0 218 -183q0 -42 -15.5 -79t-30.5 -54.5t-39 -39.5
q-11 -10 -35.5 -30t-32 -28.5t-15.5 -27.5t-8 -45v-31h-145zM124 0v155h162v-155h-162z" />
    <glyph glyph-name="at" unicode="@" horiz-adv-x="814" 
d="M404 -12q-154 0 -251.5 103.5t-97.5 267.5q0 161 107.5 270.5t258.5 109.5q142 0 240 -89t98 -233q0 -115 -54.5 -189t-124.5 -74q-45 0 -72.5 23.5t-31.5 60.5q-18 -39 -50.5 -62.5t-72.5 -23.5q-53 0 -94.5 48t-41.5 138q0 96 50.5 169.5t124.5 73.5q38 0 64.5 -25
t35.5 -60q1 9 1.5 33.5t2.5 33.5h72l-23 -226q-12 -113 34 -113q41 0 73.5 52t32.5 135q0 115 -78.5 186.5t-187.5 71.5q-122 0 -205.5 -91t-83.5 -220q0 -126 80.5 -213t189.5 -87q114 0 175 39l31 -63q-78 -46 -202 -46zM370 235q40 0 66.5 48.5t26.5 114.5
q0 48 -17.5 73.5t-48.5 25.5q-38 0 -62 -46.5t-24 -112.5q0 -50 16 -76.5t43 -26.5z" />
    <glyph glyph-name="A" unicode="A" horiz-adv-x="549" 
d="M5 0l173 725h192l174 -725h-162l-30 152h-164l-29 -152h-154zM270 571l-62 -318h124z" />
    <glyph glyph-name="B" unicode="B" horiz-adv-x="547" 
d="M54 0v725h216q113 0 173 -39.5t60 -142.5q0 -123 -105 -157q127 -38 127 -174q0 -121 -60 -166.5t-184 -45.5h-227zM213 107h58q57 0 75.5 26.5t18.5 82.5q0 58 -19 84t-82 26h-51v-219zM213 423h47q48 0 65.5 24.5t17.5 75.5t-17.5 73.5t-65.5 22.5h-47v-196z" />
    <glyph glyph-name="C" unicode="C" horiz-adv-x="541" 
d="M285 -12q-142 0 -197.5 76.5t-55.5 247.5v103q0 170 55.5 247t197.5 77q119 0 176.5 -59.5t57.5 -187.5v-9h-158v7q0 85 -17 112t-60 27q-30 0 -47.5 -14t-25 -52.5t-9 -71t-1.5 -104.5v-47q0 -72 1.5 -104.5t9 -71t25 -52.5t47.5 -14q43 0 60 27t17 112v7h158v-9
q0 -128 -57.5 -187.5t-176.5 -59.5z" />
    <glyph glyph-name="D" unicode="D" horiz-adv-x="566" 
d="M213 107h20q38 0 59.5 5.5t37.5 17.5t23 41t9.5 66t2.5 103v47q0 65 -2.5 101.5t-9.5 65.5t-23 41.5t-38 18t-59 5.5h-20v-512zM54 0v725h172q83 0 136.5 -13t94.5 -47.5t59 -98.5t18 -164v-84q0 -98 -18 -161t-59 -97.5t-94.5 -47t-136.5 -12.5h-172z" />
    <glyph glyph-name="E" unicode="E" horiz-adv-x="475" 
d="M54 0v725h399v-116h-240v-180h219v-116h-219v-197h240v-116h-399z" />
    <glyph glyph-name="F" unicode="F" horiz-adv-x="443" 
d="M54 0v725h379v-116h-220v-180h199v-116h-199v-313h-159z" />
    <glyph glyph-name="G" unicode="G" horiz-adv-x="578" 
d="M392 281h-123v105h260v-386h-112l-5 81q-42 -93 -156 -93q-120 0 -172 79t-52 245v103q0 170 57 247t198 77q238 0 238 -229v-6h-158v7q0 70 -19.5 94t-63.5 24q-30 0 -47.5 -14t-25 -52.5t-9 -71t-1.5 -104.5v-47q0 -72 1.5 -104.5t9 -71t25 -52.5t47.5 -14
q56 0 82 37.5t26 138.5v7z" />
    <glyph glyph-name="H" unicode="H" horiz-adv-x="590" 
d="M54 0v725h159v-296h164v296h159v-725h-159v313h-164v-313h-159z" />
    <glyph glyph-name="I" unicode="I" horiz-adv-x="267" 
d="M54 0v725h159v-725h-159z" />
    <glyph glyph-name="J" unicode="J" horiz-adv-x="478" 
d="M213 -12q-111 0 -164.5 52t-53.5 166v21h159v-21q0 -65 12 -86.5t43 -21.5q32 0 44 21t12 87v520h159v-521q0 -123 -54 -170t-157 -47z" />
    <glyph glyph-name="K" unicode="K" horiz-adv-x="566" 
d="M408 0l-140 288l-55 -85v-203h-159v725h159v-296l184 296h156l-192 -295l210 -430h-163z" />
    <glyph glyph-name="L" unicode="L" horiz-adv-x="464" 
d="M54 0v725h159v-609h240v-116h-399z" />
    <glyph glyph-name="M" unicode="M" horiz-adv-x="742" 
d="M54 0v725h221l96 -543l96 543h221v-725h-142v570h-2l-7 -57l-104 -513h-124l-104 513l-7 57h-2v-570h-142z" />
    <glyph glyph-name="N" unicode="N" horiz-adv-x="590" 
d="M54 0v725h184l157 -521v521h141v-725h-184l-157 521v-521h-141z" />
    <glyph glyph-name="O" unicode="O" horiz-adv-x="570" 
d="M285 629q-20 0 -35 -6.5t-24 -23.5t-14 -33t-7.5 -49.5t-3 -57.5t-0.5 -72v-47q0 -48 0.5 -72t3 -57.5t7.5 -49.5t14 -33t24 -23.5t35 -6.5t35 6.5t24 23.5t14 33t7.5 49.5t3 57.5t0.5 72v47q0 48 -0.5 72t-3 57.5t-7.5 49.5t-14 33t-24 23.5t-35 6.5zM285 -12
q-142 0 -197.5 76.5t-55.5 247.5v103q0 170 55.5 247t197.5 77q141 0 197 -77t56 -247v-103q0 -171 -56 -247.5t-197 -76.5z" />
    <glyph glyph-name="P" unicode="P" horiz-adv-x="531" 
d="M54 0v725h206q64 0 107.5 -8t80.5 -30.5t55 -66.5t18 -111t-18 -112t-54.5 -68.5t-81 -32.5t-107.5 -9h-47v-287h-159zM213 394h27q68 0 90 20.5t22 91.5t-22 92t-90 21h-27v-225z" />
    <glyph glyph-name="Q" unicode="Q" horiz-adv-x="570" 
d="M285 -12q-142 0 -197.5 76.5t-55.5 247.5v103q0 170 55.5 247t197.5 77q141 0 197 -77t56 -247v-103q0 -102 -17 -166.5t-58 -102.5l72 -96l-88 -65l-85 113q-40 -7 -77 -7zM285 629q-20 0 -35 -6.5t-24 -23.5t-14 -33t-7.5 -49.5t-3 -57.5t-0.5 -72v-47q0 -48 0.5 -72
t3 -57.5t7.5 -49.5t14 -33t24 -23.5t35 -6.5t35 6.5t24 23.5t14 33t7.5 49.5t3 57.5t0.5 72v47q0 48 -0.5 72t-3 57.5t-7.5 49.5t-14 33t-24 23.5t-35 6.5z" />
    <glyph glyph-name="R" unicode="R" horiz-adv-x="564" 
d="M378 0l-98 313q-4 -1 -12 -1h-55v-312h-159v725h206q147 0 209.5 -42.5t62.5 -156.5q0 -72 -27.5 -114t-81.5 -64l119 -348h-164zM213 409h46q66 0 86.5 20t20.5 84t-20.5 85t-86.5 21h-46v-210z" />
    <glyph glyph-name="S" unicode="S" horiz-adv-x="522" 
d="M268 -12q-244 0 -244 243v7h157v-7q0 -74 19 -105t68 -31q41 0 60 21.5t19 71.5q0 40 -21 65t-63 44l-62 28q-91 41 -130.5 88.5t-39.5 134.5q0 95 58.5 143t161.5 48q114 0 175.5 -51t61.5 -167v-4h-155v4q0 62 -20 87.5t-63 25.5q-66 0 -66 -81q0 -65 55 -88l70 -32
q49 -22 77.5 -38t59 -42t44 -61.5t13.5 -83.5q0 -110 -60.5 -165t-174.5 -55z" />
    <glyph glyph-name="T" unicode="T" horiz-adv-x="477" 
d="M159 0v609h-148v116h455v-116h-148v-609h-159z" />
    <glyph glyph-name="U" unicode="U" horiz-adv-x="560" 
d="M280 -12q-77 0 -122 13t-71 50t-34.5 90t-8.5 145v439h159v-439v-9q0 -46 0.5 -66.5t4.5 -47.5t12 -38t22.5 -19t37.5 -8t37.5 8t22.5 18.5t12 38t4.5 48t0.5 66.5v9v439h159v-431q0 -76 -5.5 -124.5t-19.5 -86.5t-41.5 -57t-67.5 -28.5t-102 -9.5z" />
    <glyph glyph-name="V" unicode="V" horiz-adv-x="509" 
d="M159 0l-154 725h163l91 -564l91 564h154l-153 -725h-192z" />
    <glyph glyph-name="W" unicode="W" horiz-adv-x="730" 
d="M102 0l-91 725h144l57 -550l86 550h134l86 -550l57 550h144l-91 -725h-180l-83 548l-83 -548h-180z" />
    <glyph glyph-name="X" unicode="X" horiz-adv-x="531" 
d="M0 0l189 371l-170 354h169l80 -198l87 198h161l-172 -337l187 -388h-167l-99 233l-106 -233h-159z" />
    <glyph glyph-name="Y" unicode="Y" horiz-adv-x="520" 
d="M178 0v303l-178 422h161l99 -282l102 282h158l-183 -424v-301h-159z" />
    <glyph glyph-name="Z" unicode="Z" horiz-adv-x="514" 
d="M22 0v107l281 502h-250v116h424v-106l-282 -503h292v-116h-465z" />
    <glyph glyph-name="bracketleft" unicode="[" horiz-adv-x="296" 
d="M54 -175v900h237v-100h-114v-699h114v-101h-237z" />
    <glyph glyph-name="backslash" unicode="\" horiz-adv-x="391" 
d="M242 0l-242 725h150l241 -725h-149z" />
    <glyph glyph-name="bracketright" unicode="]" horiz-adv-x="296" 
d="M5 -175v101h114v699h-114v100h237v-900h-237z" />
    <glyph glyph-name="asciicircum" unicode="^" horiz-adv-x="555" 
d="M22 338l199 387h114l199 -387h-134l-122 250l-122 -250h-134z" />
    <glyph glyph-name="underscore" unicode="_" horiz-adv-x="490" 
d="M22 -122v131h447v-131h-447z" />
    <glyph glyph-name="grave" unicode="`" horiz-adv-x="279" 
d="M164 602l-142 123h174l62 -123h-94z" />
    <glyph glyph-name="a" unicode="a" horiz-adv-x="479" 
d="M170 -12q-66 0 -105 40.5t-39 110.5v6q0 69 53 111t211 91v30q0 43 -13.5 63.5t-44.5 20.5q-35 0 -50 -20t-15 -63v-9h-134v9q0 79 56 128t150 49q103 0 152.5 -42.5t49.5 -148.5l-1 -189q0 -130 8 -175h-138l-4 72q-36 -84 -136 -84zM228 84q66 0 66 145v35
q-76 -22 -96 -43.5t-20 -58.5v-9q0 -69 50 -69z" />
    <glyph glyph-name="b" unicode="b" horiz-adv-x="520" 
d="M334 258v27q0 46 -1.5 72t-8 50t-19 34t-33.5 10q-47 0 -63.5 -44t-16.5 -136t16.5 -135.5t63.5 -43.5q21 0 33.5 9.5t19 33.5t8 50.5t1.5 72.5zM491 308v-73q0 -127 -39.5 -187t-127.5 -60q-44 0 -78 22t-49 58v-68h-154v725h154v-250q15 36 49 58t78 22q88 0 127.5 -60
t39.5 -187z" />
    <glyph glyph-name="c" unicode="c" horiz-adv-x="464" 
d="M245 -12q-112 0 -164 59.5t-52 183.5v82q0 122 52 182t164 60q203 0 203 -200v-4h-143v4q0 59 -14.5 80t-45.5 21q-15 0 -25 -4t-16.5 -15.5t-10 -21.5t-5 -33t-2 -38.5t-0.5 -48.5v-47q0 -33 0.5 -48.5t2 -38.5t5 -33t10 -21.5t16.5 -15.5t25 -4q31 0 45.5 21t14.5 81v3
h143v-4q0 -200 -203 -200z" />
    <glyph glyph-name="d" unicode="d" horiz-adv-x="520" 
d="M29 235v73q0 127 39.5 187t127.5 60q44 0 78 -22t49 -58v250h154v-725h-154v68q-15 -36 -49 -58t-78 -22q-88 0 -127.5 60t-39.5 187zM186 285v-27q0 -46 1.5 -72.5t8 -50.5t19 -33.5t33.5 -9.5q47 0 63.5 43.5t16.5 135.5t-16.5 136t-63.5 44q-21 0 -33.5 -10t-19 -34
t-8 -50t-1.5 -72z" />
    <glyph glyph-name="e" unicode="e" horiz-adv-x="491" 
d="M245 -12q-112 0 -164 60.5t-52 179.5v89q0 238 220 238q118 0 166.5 -64.5t48.5 -205.5v-29h-283v-8q0 -87 12.5 -124t54.5 -37q32 0 49 19t17 72v4h143v-5q0 -101 -61 -145t-151 -44zM181 347v-9h142v9q0 62 -15 87t-56 25q-40 0 -55.5 -25.5t-15.5 -86.5z" />
    <glyph glyph-name="f" unicode="f" horiz-adv-x="312" 
d="M62 0v443h-64v95h64v43q0 88 40 116t137 28h68v-91h-37q-32 0 -43 -10t-11 -41v-45h91v-95h-91v-443h-154z" />
    <glyph glyph-name="g" unicode="g" horiz-adv-x="525" 
d="M252 -194q-92 0 -148.5 41t-56.5 125v2h141v-2q0 -32 18.5 -48.5t49.5 -16.5q39 0 55.5 19.5t16.5 79.5v92q-33 -79 -116 -79q-86 0 -134.5 57.5t-48.5 170.5v70q0 238 183 238q82 0 116 -80v63h154v-490q0 -128 -55.5 -185t-174.5 -57zM253 123q51 0 66 37t15 120
q0 47 -2.5 74.5t-10.5 52t-24.5 34.5t-43.5 10q-42 0 -54.5 -36t-12.5 -117v-22q0 -81 12.5 -117t54.5 -36z" />
    <glyph glyph-name="h" unicode="h" horiz-adv-x="499" 
d="M197 0h-154v725h154v-250q36 80 133 80q70 0 99.5 -45t29.5 -138v-372h-154v342q0 21 -0.5 34t-3 28t-7 23t-13 13.5t-21.5 5.5q-22 0 -35 -11.5t-19 -36t-7.5 -47t-1.5 -61.5v-290z" />
    <glyph glyph-name="i" unicode="i" horiz-adv-x="240" 
d="M43 597v128h154v-128h-154zM43 0v538h154v-538h-154z" />
    <glyph glyph-name="j" unicode="j" horiz-adv-x="240" 
d="M-29 -175v93h28q29 0 36.5 15.5t7.5 62.5v542h154v-533q0 -108 -41 -144t-143 -36h-42zM43 597v128h154v-128h-154z" />
    <glyph glyph-name="k" unicode="k" horiz-adv-x="473" 
d="M344 0l-94 206l-53 -74v-132h-154v725h154v-399l149 212h141l-148 -207l152 -331h-147z" />
    <glyph glyph-name="l" unicode="l" horiz-adv-x="240" 
d="M43 0v725h154v-725h-154z" />
    <glyph glyph-name="m" unicode="m" horiz-adv-x="761" 
d="M197 290v-290h-154v538h154v-63q36 80 133 80q50 0 78 -22t40 -68q40 90 144 90q70 0 99.5 -45t29.5 -138v-372h-154v342q0 21 -0.5 34t-3 28t-7 23t-13 13.5t-21.5 5.5q-22 0 -35 -11.5t-19 -36t-7.5 -47t-1.5 -61.5v-290h-154v342q0 21 -0.5 34t-3 28t-7 23t-13 13.5
t-21.5 5.5q-22 0 -35 -11.5t-19 -36t-7.5 -47t-1.5 -61.5z" />
    <glyph glyph-name="n" unicode="n" horiz-adv-x="499" 
d="M197 0h-154v538h154v-63q36 80 133 80q70 0 99.5 -45t29.5 -138v-372h-154v342q0 21 -0.5 34t-3 28t-7 23t-13 13.5t-21.5 5.5q-22 0 -35 -11.5t-19 -36t-7.5 -47t-1.5 -61.5v-290z" />
    <glyph glyph-name="o" unicode="o" horiz-adv-x="498" 
d="M249 456q-41 0 -52 -36t-11 -125v-47q0 -89 11 -125t52 -36t52 36t11 125v47q0 89 -11 125t-52 36zM249 -12q-113 0 -166.5 60t-53.5 182v83q0 122 53.5 182t166.5 60t166.5 -60t53.5 -182v-83q0 -122 -53.5 -182t-166.5 -60z" />
    <glyph glyph-name="p" unicode="p" horiz-adv-x="520" 
d="M334 258v27q0 46 -1.5 72t-8 50t-19 34t-33.5 10q-47 0 -63.5 -44t-16.5 -136t16.5 -135.5t63.5 -43.5q21 0 33.5 9.5t19 33.5t8 50.5t1.5 72.5zM491 308v-73q0 -127 -39.5 -187t-127.5 -60q-44 0 -78 22t-49 58v-243h-154v713h154v-63q15 36 49 58t78 22q88 0 127.5 -60
t39.5 -187z" />
    <glyph glyph-name="q" unicode="q" horiz-adv-x="520" 
d="M29 235v73q0 127 39.5 187t127.5 60q44 0 78 -22t49 -58v63h154v-713h-154v243q-15 -36 -49 -58t-78 -22q-88 0 -127.5 60t-39.5 187zM186 285v-27q0 -46 1.5 -72.5t8 -50.5t19 -33.5t33.5 -9.5q47 0 63.5 43.5t16.5 135.5t-16.5 136t-63.5 44q-21 0 -33.5 -10t-19 -34
t-8 -50t-1.5 -72z" />
    <glyph glyph-name="r" unicode="r" horiz-adv-x="338" 
d="M43 0v538h152v-121q11 51 39 86t75 35h19v-157h-40q-56 0 -73.5 -19t-17.5 -87v-275h-154z" />
    <glyph glyph-name="s" unicode="s" horiz-adv-x="459" 
d="M237 -12q-104 0 -159.5 50.5t-55.5 138.5v3h140v-4q0 -42 19.5 -65.5t55.5 -23.5q64 0 64 53q0 28 -14.5 43.5t-51.5 28.5l-81 31q-64 25 -95 60.5t-30 95.5q0 78 56.5 117t144.5 39q53 0 95 -15.5t71 -56t29 -102.5v-2h-136v2q0 41 -20 58.5t-49 17.5q-25 -1 -40 -13.5
t-15 -34.5q0 -25 11 -37.5t35 -21.5l74 -30q41 -16 63 -26.5t46.5 -29.5t34.5 -45.5t10 -64.5q0 -81 -56.5 -123.5t-145.5 -42.5z" />
    <glyph glyph-name="t" unicode="t" horiz-adv-x="335" 
d="M309 0h-110q-79 0 -107 31.5t-28 113.5v298h-64v95h64v146h154v-146h91v-95h-91v-283q0 -40 11 -52.5t41 -12.5h39v-95z" />
    <glyph glyph-name="u" unicode="u" horiz-adv-x="492" 
d="M182 -11q-77 0 -109.5 46t-32.5 149v354h154v-313q0 -34 1 -51t4.5 -39t13.5 -31.5t26 -9.5q20 0 32 11t17 37t6 46t1 62v288h154v-538h-149v72q-37 -83 -118 -83z" />
    <glyph glyph-name="v" unicode="v" horiz-adv-x="436" 
d="M120 0l-120 538h151l66 -387l75 387h144l-128 -538h-188z" />
    <glyph glyph-name="w" unicode="w" horiz-adv-x="602" 
d="M81 0l-61 538h128l30 -372l52 372h141l53 -371l30 371h128l-61 -538h-165l-55 408l-56 -408h-164z" />
    <glyph glyph-name="x" unicode="x" horiz-adv-x="485" 
d="M239 149l-83 -149h-146l160 273l-149 265h154l71 -134l74 134h145l-149 -256l159 -282h-156z" />
    <glyph glyph-name="y" unicode="y" horiz-adv-x="430" 
d="M43 -175v95h38q33 0 48 13.5t20 43.5l5 26l-154 535h150l77 -389l63 389h140l-126 -538q-24 -104 -64.5 -139.5t-133.5 -35.5h-63z" />
    <glyph glyph-name="z" unicode="z" horiz-adv-x="423" 
d="M22 0v95l213 348h-190v95h349v-95l-213 -348h221v-95h-380z" />
    <glyph glyph-name="braceleft" unicode="{" horiz-adv-x="321" 
d="M281 725h30v-110h-16q-49 0 -65 -15.5t-16 -55.5v-132q0 -114 -95 -137v-2q45 -11 70 -41.5t25 -94.5v-131q0 -40 16 -55.5t65 -15.5h16v-110h-30q-109 0 -154 36t-45 137v118q0 52 -15.5 77.5t-61.5 25.5v110q46 0 61.5 25.5t15.5 77.5v120q0 101 45 137t154 36z" />
    <glyph glyph-name="bar" unicode="|" horiz-adv-x="248" 
d="M54 -90v815h140v-815h-140z" />
    <glyph glyph-name="braceright" unicode="}" horiz-adv-x="321" 
d="M10 725h30q109 0 154 -36t45 -137v-120q0 -52 15.5 -77.5t61.5 -25.5v-110q-46 0 -61.5 -25.5t-15.5 -77.5v-118q0 -101 -45 -137t-154 -36h-30v110h16q49 0 65 15.5t16 55.5v131q0 64 25 94.5t70 41.5v2q-95 23 -95 137v132q0 40 -16 55.5t-65 15.5h-16v110z" />
    <glyph glyph-name="asciitilde" unicode="~" 
d="M151 158h-107q2 96 34.5 145t108.5 49q35 0 65 -17t54.5 -33.5t46.5 -16.5t32.5 15t11.5 52h107q-4 -97 -35 -145.5t-107 -48.5q-40 0 -88 33.5t-79 33.5q-22 0 -32.5 -15t-11.5 -52z" />
    <glyph glyph-name="uni00A0" unicode="&#xa0;" horiz-adv-x="180" 
 />
    <glyph glyph-name="exclamdown" unicode="&#xa1;" horiz-adv-x="248" 
d="M47 -175v186l23 319h108l23 -319v-186h-154zM43 383v155h162v-155h-162z" />
    <glyph glyph-name="cent" unicode="&#xa2;" horiz-adv-x="464" 
d="M223 -83v77q-101 5 -147.5 65t-46.5 178v80q0 117 46.5 176t147.5 65v68h50v-69q175 -15 175 -198v-4h-143v4q0 59 -14.5 80t-45.5 21q-15 0 -25 -4t-16.5 -15t-10.5 -21.5t-5.5 -33t-2 -39t-0.5 -48.5v-45q0 -32 0.5 -48.5t2 -39t5.5 -33t10.5 -22t16.5 -15.5t25 -4
q31 0 45.5 21.5t14.5 81.5v3h143v-4q0 -184 -175 -199v-78h-50z" />
    <glyph glyph-name="sterling" unicode="&#xa3;" horiz-adv-x="512" 
d="M25 312v79h94q-3 7 -12.5 26t-13.5 27.5t-10.5 26t-10 29.5t-6 29t-2.5 34q0 89 55.5 132.5t157.5 43.5q106 0 156.5 -53t50.5 -169v-4h-144v10q0 67 -15 92t-50 25q-34 0 -46.5 -20.5t-12.5 -60.5q0 -15 2.5 -31.5t5 -27.5t9.5 -29.5t9.5 -25.5t12 -28.5t11.5 -25.5h163
v-79h-139q2 -18 2 -27q0 -111 -81 -157l1 -2q32 12 60 7q18 -2 52 -16.5t55 -14.5q39 1 77 25l46 -95q-64 -42 -116 -42q-34 0 -81.5 19.5t-73.5 19.5q-64 0 -140 -41l-52 105q63 35 88 74.5t25 93.5q0 27 -6 51h-121z" />
    <glyph glyph-name="currency" unicode="&#xa4;" horiz-adv-x="637" 
d="M104 83l-50 48l69 70q-44 61 -44 139t44 139l-69 70l50 48l68 -67q62 49 144 49t147 -51l70 69l50 -48l-71 -71q43 -62 43 -138q0 -75 -44 -136l72 -73l-50 -48l-71 70q-66 -50 -146 -50q-81 0 -143 48zM315 216q54 0 88 35t34 89q0 55 -34 91t-88 36q-51 0 -83.5 -36
t-32.5 -91q0 -54 32.5 -89t83.5 -35z" />
    <glyph glyph-name="yen" unicode="&#xa5;" horiz-adv-x="520" 
d="M49 243v74h126l-175 408h158l102 -282l105 282h155l-179 -408h126v-74h-133v-81h133v-73h-133v-89h-153v89h-132v73h132v81h-132z" />
    <glyph glyph-name="brokenbar" unicode="&#xa6;" horiz-adv-x="226" 
d="M43 -90v305h140v-305h-140zM43 420v305h140v-305h-140z" />
    <glyph glyph-name="section" unicode="&#xa7;" horiz-adv-x="523" 
d="M256 -170q-58 0 -105.5 16t-81.5 59t-34 107v2h150v-2q0 -44 21.5 -63.5t52.5 -19.5q29 1 48.5 16t19.5 44q0 42 -55 76l-118 65q-66 36 -99 73t-33 95q0 87 115 143q-82 59 -82 150q0 76 61 118t158 42q91 0 153.5 -44t62.5 -138v-2h-149v2q0 44 -21 63.5t-52 19.5
q-63 -2 -63 -60q0 -45 51 -76l117 -65q68 -40 98.5 -74.5t30.5 -93.5q0 -87 -112 -143q86 -62 86 -150q0 -76 -61.5 -118t-158.5 -42zM173 311q0 -46 71 -85l53 -30q54 30 54 74q0 48 -67 85l-55 30q-56 -31 -56 -74z" />
    <glyph glyph-name="dieresis" unicode="&#xa8;" horiz-adv-x="377" 
d="M22 602v123h134v-123h-134zM222 602v123h134v-123h-134z" />
    <glyph glyph-name="copyright" unicode="&#xa9;" horiz-adv-x="825" 
d="M412 48q130 0 216 89.5t86 227.5q0 137 -86 225.5t-216 88.5t-215.5 -88.5t-85.5 -225.5q0 -138 85.5 -227.5t215.5 -89.5zM412 -12q-154 0 -261.5 107.5t-107.5 269.5q0 163 107 268.5t262 105.5q154 0 262 -106t108 -268t-108 -269.5t-262 -107.5zM416 152
q-87 0 -119 42t-32 139v65q0 96 32.5 139t118.5 43q72 0 106 -34t34 -111v-7h-116v5q0 47 -4.5 57t-20.5 10q-5 0 -9 -1.5t-7 -5.5t-5 -8t-3 -11t-1.5 -13.5t-0.5 -17t0.5 -18.5t0.5 -21v-23v-31v-24t-0.5 -22t-0.5 -18.5t0.5 -17t1.5 -13.5t3 -11t5 -7.5t7 -5t9 -1.5
q12 0 16 2.5t6.5 16.5t2.5 47v5h116v-5q0 -78 -33.5 -111t-106.5 -33z" />
    <glyph glyph-name="ordfeminine" unicode="&#xaa;" horiz-adv-x="280" 
d="M94 430q-39 0 -61 24.5t-22 64.5v7q0 31 25 56q21 21 85 41l39 13v24q0 17 -6 25.5t-23 8.5q-20 0 -25.5 -8.5t-5.5 -32.5v-6h-83v6q0 96 115 96q63 0 92 -21t29 -86v-16q0 -12 -0.5 -38t-0.5 -37v-14q0 -70 5 -99h-85l-2 33q-21 -41 -76 -41zM132 487q17 0 23.5 13.5
t6.5 44.5v41l-23 -9q-20 -8 -26.5 -17.5t-6.5 -27.5v-8q0 -19 5 -28t21 -9z" />
    <glyph glyph-name="guillemotleft" unicode="&#xab;" horiz-adv-x="395" 
d="M181 41l-151 151v180l151 148v-172l-73 -67l73 -67v-173zM365 41l-151 151v180l151 148v-172l-73 -67l73 -67v-173z" />
    <glyph glyph-name="logicalnot" unicode="&#xac;" 
d="M381 70v251h-374v116h494v-367h-120z" />
    <glyph glyph-name="uni00AD" unicode="&#xad;" horiz-adv-x="352" 
d="M43 186v131h266v-131h-266z" />
    <glyph glyph-name="registered" unicode="&#xae;" horiz-adv-x="825" 
d="M412 -12q-154 0 -261.5 107.5t-107.5 269.5q0 163 107 268.5t262 105.5q154 0 262 -106t108 -268t-108 -269.5t-262 -107.5zM412 48q130 0 216 89.5t86 227.5q0 137 -86 225.5t-216 88.5t-215.5 -88.5t-85.5 -225.5q0 -138 85.5 -227.5t215.5 -89.5zM379 163h-109v414
h127q85 0 121.5 -26t36.5 -98q0 -68 -52 -98l62 -192h-105l-45 171h-9.5h-9h-6.5h-11v-171zM379 499v-96h16q25 1 31 10.5t6 39.5q0 29 -6 37.5t-32 8.5h-15z" />
    <glyph glyph-name="overscore" unicode="&#xaf;" horiz-adv-x="295" 
d="M22 612v101h252v-101h-252z" />
    <glyph glyph-name="degree" unicode="&#xb0;" horiz-adv-x="336" 
d="M168 498q33 0 54 22.5t21 55.5q0 34 -21 57t-54 23q-32 0 -52.5 -23t-20.5 -57q0 -33 20.5 -55.5t52.5 -22.5zM168 416q-66 0 -113 47t-47 113q0 68 47 115t113 47q67 0 114 -47t47 -115q0 -66 -47 -113t-114 -47z" />
    <glyph glyph-name="plusminus" unicode="&#xb1;" 
d="M215 164v129h-175v116h175v129h119v-129h175v-116h-175v-129h-119zM40 0v116h469v-116h-469z" />
    <glyph glyph-name="twosuperior" unicode="&#xb2;" horiz-adv-x="293" 
d="M24 438v67l46 57q62 76 85.5 116t23.5 71q0 44 -32 44q-17 0 -23 -15t-6 -54v-6h-91v5q0 66 31 98t97 32q120 0 120 -98q0 -42 -24 -85.5t-78 -110.5l-39 -50h142v-71h-252z" />
    <glyph glyph-name="threesuperior" unicode="&#xb3;" horiz-adv-x="298" 
d="M139 430q-121 0 -121 121v2h88v-2q0 -32 7 -46.5t27 -14.5q25 0 33.5 16.5t8.5 47.5q0 22 -2 33t-13.5 20.5t-34.5 9.5h-26v63h24q24 0 31.5 14t7.5 42q0 29 -6.5 43t-27.5 14q-16 0 -22 -11t-6 -45v-2h-88v2q0 116 121 116q125 0 125 -107q0 -71 -58 -90q72 -23 72 -102
q0 -66 -35.5 -95t-104.5 -29z" />
    <glyph glyph-name="acute" unicode="&#xb4;" horiz-adv-x="279" 
d="M22 602l62 123h174l-142 -123h-94z" />
    <glyph glyph-name="mu" unicode="&#xb5;" horiz-adv-x="495" 
d="M303 0v72q-34 -78 -107 -82q0 -92 -12 -165h-153q12 71 12 172v541h154v-313q0 -34 1 -51t4.5 -39t13.5 -31.5t26 -9.5q20 0 32 11t17 37t6 46t1 62v288h154v-538h-149z" />
    <glyph glyph-name="mu" unicode="&#x3bc;" horiz-adv-x="495" 
d="M303 0v72q-34 -78 -107 -82q0 -92 -12 -165h-153q12 71 12 172v541h154v-313q0 -34 1 -51t4.5 -39t13.5 -31.5t26 -9.5q20 0 32 11t17 37t6 46t1 62v288h154v-538h-149z" />
    <glyph glyph-name="paragraph" unicode="&#xb6;" horiz-adv-x="457" 
d="M166 -89v472q-165 18 -165 170q0 94 59 133t169 39h174v-814h-82v737h-73v-737h-82z" />
    <glyph glyph-name="middot" unicode="&#xb7;" horiz-adv-x="238" 
d="M38 192v155h162v-155h-162z" />
    <glyph glyph-name="cedilla" unicode="&#xb8;" horiz-adv-x="267" 
d="M117 -194q-53 0 -95 15l17 51q26 -14 63 -14q51 0 51 29q0 28 -39 28q-25 0 -39 -9l-30 17l51 83h58l-32 -52q12 4 38 4q34 0 60 -18t26 -50q0 -41 -38 -62.5t-91 -21.5z" />
    <glyph glyph-name="onesuperior" unicode="&#xb9;" horiz-adv-x="182" 
d="M65 438v300h-65v58q45 2 57.5 9.5t22.5 40.5h73v-408h-88z" />
    <glyph glyph-name="ordmasculine" unicode="&#xba;" horiz-adv-x="286" 
d="M143 490q11 0 17.5 4.5t9 19t3 24.5t0.5 38v28q0 28 -0.5 38t-3 24t-9 18.5t-17.5 4.5t-17.5 -4.5t-9.5 -18t-3.5 -25t-0.5 -37.5v-28q0 -26 0.5 -38t3.5 -25.5t9.5 -18t17.5 -4.5zM143 430q-128 0 -128 137v47q0 135 128 135q127 0 127 -135v-47q0 -137 -127 -137z" />
    <glyph glyph-name="guillemotright" unicode="&#xbb;" horiz-adv-x="395" 
d="M30 41v173l73 67l-73 67v172l151 -148v-180zM214 41v173l73 67l-73 67v172l151 -148v-180z" />
    <glyph glyph-name="onequarter" unicode="&#xbc;" horiz-adv-x="655" 
d="M65 317v300h-65v58q45 2 57.5 9.5t22.5 40.5h73v-408h-88zM127 0l213 725h66l-213 -725h-66zM509 0v96h-146v65l141 247h90v-240h49v-72h-49v-96h-85zM433 168h76v127z" />
    <glyph glyph-name="onehalf" unicode="&#xbd;" horiz-adv-x="644" 
d="M65 317v300h-65v58q45 2 57.5 9.5t22.5 40.5h73v-408h-88zM127 0l213 725h66l-213 -725h-66zM375 0v67l46 57q62 76 85.5 116t23.5 71q0 44 -32 44q-17 0 -23 -15t-6 -54v-6h-91v5q0 66 31 98t97 32q120 0 120 -98q0 -42 -24 -85.5t-78 -110.5l-39 -50h142v-71h-252z" />
    <glyph glyph-name="threequarters" unicode="&#xbe;" horiz-adv-x="771" 
d="M139 309q-121 0 -121 121v2h88v-2q0 -32 7 -46.5t27 -14.5q25 0 33.5 16.5t8.5 47.5q0 22 -2 33t-13.5 20.5t-34.5 9.5h-26v63h24q24 0 31.5 14t7.5 42q0 29 -6.5 43t-27.5 14q-16 0 -22 -11t-6 -45v-2h-88v2q0 116 121 116q125 0 125 -107q0 -71 -58 -90q72 -23 72 -102
q0 -66 -35.5 -95t-104.5 -29zM243 0l213 725h66l-213 -725h-66zM625 0v96h-146v65l141 247h90v-240h49v-72h-49v-96h-85zM549 168h76v127z" />
    <glyph glyph-name="questiondown" unicode="&#xbf;" horiz-adv-x="474" 
d="M238 -188q-218 0 -218 183q0 99 85 173q11 10 35.5 30t32 28.5t15.5 27.5t8 45v32h145v-35q0 -24 -5 -45t-9.5 -33.5t-19.5 -30.5t-20 -23.5t-28 -26t-28 -24.5q-31 -27 -43 -52.5t-12 -64.5q0 -47 15.5 -66t49.5 -19q36 0 53 26.5t17 96.5v4h143v-4q0 -113 -56.5 -167.5
t-159.5 -54.5zM188 383v155h162v-155h-162z" />
    <glyph glyph-name="Agrave" unicode="&#xc0;" horiz-adv-x="549" 
d="M241 773l-131 113h188l55 -113h-112zM5 0l173 725h192l174 -725h-162l-30 152h-164l-29 -152h-154zM270 571l-62 -318h124z" />
    <glyph glyph-name="Aacute" unicode="&#xc1;" horiz-adv-x="549" 
d="M197 773l55 113h188l-131 -113h-112zM5 0l173 725h192l174 -725h-162l-30 152h-164l-29 -152h-154zM270 571l-62 -318h124z" />
    <glyph glyph-name="Acircumflex" unicode="&#xc2;" horiz-adv-x="549" 
d="M5 0l173 725h192l174 -725h-162l-30 152h-164l-29 -152h-154zM270 571l-62 -318h124zM86 773l118 113h140l118 -113h-138l-50 49l-50 -49h-138z" />
    <glyph glyph-name="Atilde" unicode="&#xc3;" horiz-adv-x="549" 
d="M5 0l173 725h192l174 -725h-162l-30 152h-164l-29 -152h-154zM270 571l-62 -318h124zM326 861q30 0 31 33h83q-4 -56 -33 -89.5t-72 -33.5q-20 0 -57 16.5t-54 16.5q-30 0 -31 -33h-83q4 56 33 89.5t72 33.5q25 0 62 -16.5t49 -16.5z" />
    <glyph glyph-name="Adieresis" unicode="&#xc4;" horiz-adv-x="549" 
d="M5 0l173 725h192l174 -725h-162l-30 152h-164l-29 -152h-154zM270 571l-62 -318h124zM108 773v113h134v-113h-134zM308 773v113h134v-113h-134z" />
    <glyph glyph-name="Aring" unicode="&#xc5;" horiz-adv-x="549" 
d="M5 0l173 725h192l174 -725h-162l-30 152h-164l-29 -152h-154zM270 571l-62 -318h124zM275 808q18 0 30.5 12t12.5 30t-12.5 30.5t-30.5 12.5t-30.5 -12.5t-12.5 -30.5t12.5 -30t30.5 -12zM275 765q-38 0 -64 24t-26 61q0 36 26.5 60.5t63.5 24.5t63.5 -24.5t26.5 -60.5
q0 -37 -26 -61t-64 -24z" />
    <glyph glyph-name="AE" unicode="&#xc6;" horiz-adv-x="837" 
d="M0 0l417 725h398v-116h-240v-181h218v-116h-218v-196h240v-116h-398v147h-174l-75 -147h-168zM417 484l-114 -220h114v220z" />
    <glyph glyph-name="Ccedilla" unicode="&#xc7;" horiz-adv-x="541" 
d="M285 -12q-142 0 -197.5 76.5t-55.5 247.5v103q0 170 55.5 247t197.5 77q119 0 176.5 -59.5t57.5 -187.5v-9h-158v7q0 85 -17 112t-60 27q-30 0 -47.5 -14t-25 -52.5t-9 -71t-1.5 -104.5v-47q0 -72 1.5 -104.5t9 -71t25 -52.5t47.5 -14q43 0 60 27t17 112v7h158v-9
q0 -128 -57.5 -187.5t-176.5 -59.5zM279 -194q-53 0 -95 15l17 51q26 -14 63 -14q51 0 51 29q0 28 -39 28q-25 0 -39 -9l-30 17l51 83h58l-32 -52q12 4 38 4q35 0 60.5 -18t25.5 -50q0 -41 -38 -62.5t-91 -21.5z" />
    <glyph glyph-name="Egrave" unicode="&#xc8;" horiz-adv-x="475" 
d="M219 773l-131 113h188l55 -113h-112zM54 0v725h399v-116h-240v-180h219v-116h-219v-197h240v-116h-399z" />
    <glyph glyph-name="Eacute" unicode="&#xc9;" horiz-adv-x="475" 
d="M179 773l55 113h188l-131 -113h-112zM54 0v725h399v-116h-240v-180h219v-116h-219v-197h240v-116h-399z" />
    <glyph glyph-name="Ecircumflex" unicode="&#xca;" horiz-adv-x="475" 
d="M64 773l118 113h140l118 -113h-138l-50 49l-50 -49h-138zM54 0v725h399v-116h-240v-180h219v-116h-219v-197h240v-116h-399z" />
    <glyph glyph-name="Edieresis" unicode="&#xcb;" horiz-adv-x="475" 
d="M90 773v113h134v-113h-134zM290 773v113h134v-113h-134zM54 0v725h399v-116h-240v-180h219v-116h-219v-197h240v-116h-399z" />
    <glyph glyph-name="Igrave" unicode="&#xcc;" horiz-adv-x="267" 
d="M92 773l-131 113h188l55 -113h-112zM54 0v725h159v-725h-159z" />
    <glyph glyph-name="Iacute" unicode="&#xcd;" horiz-adv-x="267" 
d="M66 773l55 113h188l-131 -113h-112zM54 0v725h159v-725h-159z" />
    <glyph glyph-name="Icircumflex" unicode="&#xce;" horiz-adv-x="267" 
d="M-43 775l108 113h140l108 -113h-128l-50 49l-50 -49h-128zM54 0v725h159v-725h-159z" />
    <glyph glyph-name="Idieresis" unicode="&#xcf;" horiz-adv-x="267" 
d="M-23 775v113h134v-113h-134zM157 775v113h134v-113h-134zM54 0v725h159v-725h-159z" />
    <glyph glyph-name="Eth" unicode="&#xd0;" horiz-adv-x="566" 
d="M-18 307v118h72v300h172q83 0 136.5 -13t94.5 -47.5t59 -98.5t18 -164v-84q0 -98 -18 -161t-59 -97.5t-94.5 -47t-136.5 -12.5h-172v307h-72zM213 107h20q38 0 59.5 5.5t37.5 17.5t23 41t9.5 66t2.5 103v47q0 65 -2.5 101.5t-9.5 65.5t-23 41.5t-38 18t-59 5.5h-20v-194
h91v-118h-91v-200z" />
    <glyph glyph-name="Ntilde" unicode="&#xd1;" horiz-adv-x="590" 
d="M54 0v725h184l157 -521v521h141v-725h-184l-157 521v-521h-141zM346 861q30 0 31 33h83q-4 -56 -33 -89.5t-72 -33.5q-20 0 -57 16.5t-54 16.5q-30 0 -31 -33h-83q4 56 33 89.5t72 33.5q25 0 62 -16.5t49 -16.5z" />
    <glyph glyph-name="Ograve" unicode="&#xd2;" horiz-adv-x="570" 
d="M285 629q-20 0 -35 -6.5t-24 -23.5t-14 -33t-7.5 -49.5t-3 -57.5t-0.5 -72v-47q0 -48 0.5 -72t3 -57.5t7.5 -49.5t14 -33t24 -23.5t35 -6.5t35 6.5t24 23.5t14 33t7.5 49.5t3 57.5t0.5 72v47q0 48 -0.5 72t-3 57.5t-7.5 49.5t-14 33t-24 23.5t-35 6.5zM285 -12
q-142 0 -197.5 76.5t-55.5 247.5v103q0 170 55.5 247t197.5 77q141 0 197 -77t56 -247v-103q0 -171 -56 -247.5t-197 -76.5zM250 773l-131 113h188l55 -113h-112z" />
    <glyph glyph-name="Oacute" unicode="&#xd3;" horiz-adv-x="570" 
d="M285 629q-20 0 -35 -6.5t-24 -23.5t-14 -33t-7.5 -49.5t-3 -57.5t-0.5 -72v-47q0 -48 0.5 -72t3 -57.5t7.5 -49.5t14 -33t24 -23.5t35 -6.5t35 6.5t24 23.5t14 33t7.5 49.5t3 57.5t0.5 72v47q0 48 -0.5 72t-3 57.5t-7.5 49.5t-14 33t-24 23.5t-35 6.5zM285 -12
q-142 0 -197.5 76.5t-55.5 247.5v103q0 170 55.5 247t197.5 77q141 0 197 -77t56 -247v-103q0 -171 -56 -247.5t-197 -76.5zM226 773l55 113h188l-131 -113h-112z" />
    <glyph glyph-name="Ocircumflex" unicode="&#xd4;" horiz-adv-x="570" 
d="M105 773l118 113h140l118 -113h-138l-50 49l-50 -49h-138zM285 629q-20 0 -35 -6.5t-24 -23.5t-14 -33t-7.5 -49.5t-3 -57.5t-0.5 -72v-47q0 -48 0.5 -72t3 -57.5t7.5 -49.5t14 -33t24 -23.5t35 -6.5t35 6.5t24 23.5t14 33t7.5 49.5t3 57.5t0.5 72v47q0 48 -0.5 72
t-3 57.5t-7.5 49.5t-14 33t-24 23.5t-35 6.5zM285 -12q-142 0 -197.5 76.5t-55.5 247.5v103q0 170 55.5 247t197.5 77q141 0 197 -77t56 -247v-103q0 -171 -56 -247.5t-197 -76.5z" />
    <glyph glyph-name="Otilde" unicode="&#xd5;" horiz-adv-x="570" 
d="M285 629q-20 0 -35 -6.5t-24 -23.5t-14 -33t-7.5 -49.5t-3 -57.5t-0.5 -72v-47q0 -48 0.5 -72t3 -57.5t7.5 -49.5t14 -33t24 -23.5t35 -6.5t35 6.5t24 23.5t14 33t7.5 49.5t3 57.5t0.5 72v47q0 48 -0.5 72t-3 57.5t-7.5 49.5t-14 33t-24 23.5t-35 6.5zM285 -12
q-142 0 -197.5 76.5t-55.5 247.5v103q0 170 55.5 247t197.5 77q141 0 197 -77t56 -247v-103q0 -171 -56 -247.5t-197 -76.5zM338 861q30 0 31 33h83q-4 -56 -33 -89.5t-72 -33.5q-20 0 -57 16.5t-54 16.5q-30 0 -31 -33h-83q4 56 33 89.5t72 33.5q25 0 62 -16.5t49 -16.5z
" />
    <glyph glyph-name="Odieresis" unicode="&#xd6;" horiz-adv-x="570" 
d="M285 629q-20 0 -35 -6.5t-24 -23.5t-14 -33t-7.5 -49.5t-3 -57.5t-0.5 -72v-47q0 -48 0.5 -72t3 -57.5t7.5 -49.5t14 -33t24 -23.5t35 -6.5t35 6.5t24 23.5t14 33t7.5 49.5t3 57.5t0.5 72v47q0 48 -0.5 72t-3 57.5t-7.5 49.5t-14 33t-24 23.5t-35 6.5zM285 -12
q-142 0 -197.5 76.5t-55.5 247.5v103q0 170 55.5 247t197.5 77q141 0 197 -77t56 -247v-103q0 -171 -56 -247.5t-197 -76.5zM127 773v113h134v-113h-134zM327 773v113h134v-113h-134z" />
    <glyph glyph-name="multiply" unicode="&#xd7;" 
d="M122 30l-80 84l150 150l-152 153l82 83l153 -154l152 152l82 -82l-152 -152l152 -152l-82 -82l-153 152z" />
    <glyph glyph-name="Oslash" unicode="&#xd8;" horiz-adv-x="570" 
d="M127 -60h-58l43 98q-44 37 -62 103t-18 171v103q0 170 55.5 247t197.5 77q73 0 127 -23l35 78h58l-47 -106q44 -37 62 -103t18 -170v-103q0 -171 -56 -247.5t-197 -76.5q-79 0 -127 22zM285 629q-20 0 -35 -6.5t-24 -23.5t-14 -33t-7.5 -49.5t-3 -57.5t-0.5 -72v-100
q0 -31 1 -46l151 340q-19 48 -68 48zM369 340v98q0 31 -1 46l-151 -340q18 -46 68 -46q20 0 35 6.5t24 23.5t14 33t7.5 49.5t3 57.5t0.5 72z" />
    <glyph glyph-name="Ugrave" unicode="&#xd9;" horiz-adv-x="560" 
d="M225 773l-131 113h188l55 -113h-112zM280 -12q-77 0 -122 13t-71 50t-34.5 90t-8.5 145v439h159v-439v-9q0 -46 0.5 -66.5t4.5 -47.5t12 -38t22.5 -19t37.5 -8t37.5 8t22.5 18.5t12 38t4.5 48t0.5 66.5v9v439h159v-431q0 -76 -5.5 -124.5t-19.5 -86.5t-41.5 -57
t-67.5 -28.5t-102 -9.5z" />
    <glyph glyph-name="Uacute" unicode="&#xda;" horiz-adv-x="560" 
d="M216 773l55 113h188l-131 -113h-112zM280 -12q-77 0 -122 13t-71 50t-34.5 90t-8.5 145v439h159v-439v-9q0 -46 0.5 -66.5t4.5 -47.5t12 -38t22.5 -19t37.5 -8t37.5 8t22.5 18.5t12 38t4.5 48t0.5 66.5v9v439h159v-431q0 -76 -5.5 -124.5t-19.5 -86.5t-41.5 -57
t-67.5 -28.5t-102 -9.5z" />
    <glyph glyph-name="Ucircumflex" unicode="&#xdb;" horiz-adv-x="560" 
d="M93 773l118 113h140l118 -113h-138l-50 49l-50 -49h-138zM280 -12q-77 0 -122 13t-71 50t-34.5 90t-8.5 145v439h159v-439v-9q0 -46 0.5 -66.5t4.5 -47.5t12 -38t22.5 -19t37.5 -8t37.5 8t22.5 18.5t12 38t4.5 48t0.5 66.5v9v439h159v-431q0 -76 -5.5 -124.5t-19.5 -86.5
t-41.5 -57t-67.5 -28.5t-102 -9.5z" />
    <glyph glyph-name="Udieresis" unicode="&#xdc;" horiz-adv-x="560" 
d="M113 773v113h134v-113h-134zM313 773v113h134v-113h-134zM280 -12q-77 0 -122 13t-71 50t-34.5 90t-8.5 145v439h159v-439v-9q0 -46 0.5 -66.5t4.5 -47.5t12 -38t22.5 -19t37.5 -8t37.5 8t22.5 18.5t12 38t4.5 48t0.5 66.5v9v439h159v-431q0 -76 -5.5 -124.5t-19.5 -86.5
t-41.5 -57t-67.5 -28.5t-102 -9.5z" />
    <glyph glyph-name="Yacute" unicode="&#xdd;" horiz-adv-x="520" 
d="M188 773l55 113h188l-131 -113h-112zM178 0v303l-178 422h161l99 -282l102 282h158l-183 -424v-301h-159z" />
    <glyph glyph-name="Thorn" unicode="&#xde;" horiz-adv-x="531" 
d="M54 0v725h159v-141h47q64 0 107.5 -8t80.5 -30.5t55 -66.5t18 -111t-18 -112t-54.5 -68.5t-81 -32.5t-107.5 -9h-47v-146h-159zM213 253h27q68 0 90 20.5t22 91.5t-22 92t-90 21h-27v-225z" />
    <glyph glyph-name="germandbls" unicode="&#xdf;" horiz-adv-x="536" 
d="M43 0v524q0 121 58 167.5t168 46.5q100 0 158 -43t58 -132q0 -60 -27 -100.5t-62 -54.5q51 -16 81 -58.5t30 -128.5q0 -122 -49.5 -171.5t-167.5 -49.5h-49v95h32q43 0 62.5 31t19.5 95q0 65 -19.5 96.5t-63.5 31.5h-31v96h24q37 0 53.5 24t16.5 75q0 95 -70 95
q-35 0 -52 -24t-17 -81v-534h-153z" />
    <glyph glyph-name="agrave" unicode="&#xe0;" horiz-adv-x="479" 
d="M170 -12q-66 0 -105 40.5t-39 110.5v6q0 69 53 111t211 91v30q0 43 -13.5 63.5t-44.5 20.5q-35 0 -50 -20t-15 -63v-9h-134v9q0 79 56 128t150 49q103 0 152.5 -42.5t49.5 -148.5l-1 -189q0 -130 8 -175h-138l-4 72q-36 -84 -136 -84zM228 84q66 0 66 145v35
q-76 -22 -96 -43.5t-20 -58.5v-9q0 -69 50 -69zM211 602l-142 123h174l62 -123h-94z" />
    <glyph glyph-name="aacute" unicode="&#xe1;" horiz-adv-x="479" 
d="M170 -12q-66 0 -105 40.5t-39 110.5v6q0 69 53 111t211 91v30q0 43 -13.5 63.5t-44.5 20.5q-35 0 -50 -20t-15 -63v-9h-134v9q0 79 56 128t150 49q103 0 152.5 -42.5t49.5 -148.5l-1 -189q0 -130 8 -175h-138l-4 72q-36 -84 -136 -84zM228 84q66 0 66 145v35
q-76 -22 -96 -43.5t-20 -58.5v-9q0 -69 50 -69zM197 602l62 123h174l-142 -123h-94z" />
    <glyph glyph-name="acircumflex" unicode="&#xe2;" horiz-adv-x="479" 
d="M57 602l120 123h130l120 -123h-118l-67 52l-67 -52h-118zM170 -12q-66 0 -105 40.5t-39 110.5v6q0 69 53 111t211 91v30q0 43 -13.5 63.5t-44.5 20.5q-35 0 -50 -20t-15 -63v-9h-134v9q0 79 56 128t150 49q103 0 152.5 -42.5t49.5 -148.5l-1 -189q0 -130 8 -175h-138
l-4 72q-36 -84 -136 -84zM228 84q66 0 66 145v35q-76 -22 -96 -43.5t-20 -58.5v-9q0 -69 50 -69z" />
    <glyph glyph-name="atilde" unicode="&#xe3;" horiz-adv-x="479" 
d="M170 -12q-66 0 -105 40.5t-39 110.5v6q0 69 53 111t211 91v30q0 43 -13.5 63.5t-44.5 20.5q-35 0 -50 -20t-15 -63v-9h-134v9q0 79 56 128t150 49q103 0 152.5 -42.5t49.5 -148.5l-1 -189q0 -130 8 -175h-138l-4 72q-36 -84 -136 -84zM228 84q66 0 66 145v35
q-76 -22 -96 -43.5t-20 -58.5v-9q0 -69 50 -69zM294 692q30 0 31 33h83q-4 -56 -33 -89.5t-72 -33.5q-20 0 -57 16.5t-54 16.5q-30 0 -31 -33h-83q4 56 33 89.5t72 33.5q25 0 62 -16.5t49 -16.5z" />
    <glyph glyph-name="adieresis" unicode="&#xe4;" horiz-adv-x="479" 
d="M79 602v123h134v-123h-134zM279 602v123h134v-123h-134zM170 -12q-66 0 -105 40.5t-39 110.5v6q0 69 53 111t211 91v30q0 43 -13.5 63.5t-44.5 20.5q-35 0 -50 -20t-15 -63v-9h-134v9q0 79 56 128t150 49q103 0 152.5 -42.5t49.5 -148.5l-1 -189q0 -130 8 -175h-138
l-4 72q-36 -84 -136 -84zM228 84q66 0 66 145v35q-76 -22 -96 -43.5t-20 -58.5v-9q0 -69 50 -69z" />
    <glyph glyph-name="aring" unicode="&#xe5;" horiz-adv-x="479" 
d="M242 638q17 0 29 11.5t12 28.5q0 18 -12 29.5t-29 11.5t-29 -11.5t-12 -29.5q0 -17 12 -28.5t29 -11.5zM242 589q-40 0 -67.5 25t-27.5 64t27.5 64.5t67.5 25.5t67.5 -25.5t27.5 -64.5t-27.5 -64t-67.5 -25zM170 -12q-66 0 -105 40.5t-39 110.5v6q0 69 53 111t211 91v30
q0 43 -13.5 63.5t-44.5 20.5q-35 0 -50 -20t-15 -63v-9h-134v9q0 79 56 128t150 49q103 0 152.5 -42.5t49.5 -148.5l-1 -189q0 -130 8 -175h-138l-4 72q-36 -84 -136 -84zM228 84q66 0 66 145v35q-76 -22 -96 -43.5t-20 -58.5v-9q0 -69 50 -69z" />
    <glyph glyph-name="ae" unicode="&#xe6;" horiz-adv-x="748" 
d="M168 -12q-69 0 -107.5 42t-38.5 115v11q0 61 41 99q33 31 145 71l79 26v46q0 34 -13 50t-45 16q-38 0 -51 -17t-13 -62v-9h-133v9q0 170 199 170q99 0 141 -51q35 50 133 50q119 0 167.5 -64.5t48.5 -205.5v-29h-283v-37q2 -69 15 -100t50 -31q32 0 49 19t17 72v4h144v-5
q0 -101 -61 -145t-151 -44q-66 0 -112 23.5t-58 58.5q-31 -49 -66.5 -65.5t-96.5 -16.5zM226 82q35 0 50.5 27t15.5 85v76q-18 -9 -48 -19q-40 -14 -55 -33t-15 -52v-14q0 -70 52 -70zM439 337h141v18q-1 55 -17 79t-54 24t-54 -24.5t-16 -79.5v-17z" />
    <glyph glyph-name="ccedilla" unicode="&#xe7;" horiz-adv-x="464" 
d="M245 -12q-112 0 -164 59.5t-52 183.5v82q0 122 52 182t164 60q203 0 203 -200v-4h-143v4q0 59 -14.5 80t-45.5 21q-15 0 -25 -4t-16.5 -15.5t-10 -21.5t-5 -33t-2 -38.5t-0.5 -48.5v-47q0 -33 0.5 -48.5t2 -38.5t5 -33t10 -21.5t16.5 -15.5t25 -4q31 0 45.5 21t14.5 81v3
h143v-4q0 -200 -203 -200zM224 -194q-53 0 -95 15l17 51q26 -14 63 -14q51 0 51 29q0 28 -39 28q-25 0 -39 -9l-30 17l51 83h58l-32 -52q12 4 38 4q34 0 60 -18t26 -50q0 -41 -38 -62.5t-91 -21.5z" />
    <glyph glyph-name="egrave" unicode="&#xe8;" horiz-adv-x="491" 
d="M245 -12q-112 0 -164 60.5t-52 179.5v89q0 238 220 238q118 0 166.5 -64.5t48.5 -205.5v-29h-283v-8q0 -87 12.5 -124t54.5 -37q32 0 49 19t17 72v4h143v-5q0 -101 -61 -145t-151 -44zM181 347v-9h142v9q0 62 -15 87t-56 25q-40 0 -55.5 -25.5t-15.5 -86.5zM220 602
l-142 123h174l62 -123h-94z" />
    <glyph glyph-name="eacute" unicode="&#xe9;" horiz-adv-x="491" 
d="M245 -12q-112 0 -164 60.5t-52 179.5v89q0 238 220 238q118 0 166.5 -64.5t48.5 -205.5v-29h-283v-8q0 -87 12.5 -124t54.5 -37q32 0 49 19t17 72v4h143v-5q0 -101 -61 -145t-151 -44zM181 347v-9h142v9q0 62 -15 87t-56 25q-40 0 -55.5 -25.5t-15.5 -86.5zM181 602
l62 123h174l-142 -123h-94z" />
    <glyph glyph-name="ecircumflex" unicode="&#xea;" horiz-adv-x="491" 
d="M67 602l120 123h130l120 -123h-118l-67 52l-67 -52h-118zM245 -12q-112 0 -164 60.5t-52 179.5v89q0 238 220 238q118 0 166.5 -64.5t48.5 -205.5v-29h-283v-8q0 -87 12.5 -124t54.5 -37q32 0 49 19t17 72v4h143v-5q0 -101 -61 -145t-151 -44zM181 347v-9h142v9
q0 62 -15 87t-56 25q-40 0 -55.5 -25.5t-15.5 -86.5z" />
    <glyph glyph-name="edieresis" unicode="&#xeb;" horiz-adv-x="491" 
d="M91 602v123h134v-123h-134zM291 602v123h134v-123h-134zM245 -12q-112 0 -164 60.5t-52 179.5v89q0 238 220 238q118 0 166.5 -64.5t48.5 -205.5v-29h-283v-8q0 -87 12.5 -124t54.5 -37q32 0 49 19t17 72v4h143v-5q0 -101 -61 -145t-151 -44zM181 347v-9h142v9
q0 62 -15 87t-56 25q-40 0 -55.5 -25.5t-15.5 -86.5z" />
    <glyph glyph-name="igrave" unicode="&#xec;" horiz-adv-x="240" 
d="M85 602l-142 123h174l62 -123h-94zM43 0v538h154v-538h-154z" />
    <glyph glyph-name="iacute" unicode="&#xed;" horiz-adv-x="240" 
d="M55 602l62 123h174l-142 -123h-94zM43 0v538h154v-538h-154z" />
    <glyph glyph-name="icircumflex" unicode="&#xee;" horiz-adv-x="240" 
d="M-55 602l110 123h130l110 -123h-128l-47 52l-47 -52h-128zM43 0v538h154v-538h-154z" />
    <glyph glyph-name="idieresis" unicode="&#xef;" horiz-adv-x="240" 
d="M-35 602v123h134v-123h-134zM140 602v123h134v-123h-134zM43 0v538h154v-538h-154z" />
    <glyph glyph-name="eth" unicode="&#xf0;" horiz-adv-x="498" 
d="M138 566l-57 27l74 46q-39 21 -80 38l97 59q7 -3 35.5 -15.5t44.5 -21.5l54 34l58 -28l-59 -36q75 -48 119.5 -134t44.5 -234v-71q0 -122 -53.5 -182t-166.5 -60t-166.5 60t-53.5 182v83q0 122 53.5 182t166.5 60q27 0 48 -12l3 1q-22 23 -91 66zM249 87q22 0 34.5 9.5
t18.5 33.5t7.5 48t1.5 70v47q0 46 -1.5 70t-7.5 48t-18.5 33.5t-34.5 9.5q-41 0 -52 -36t-11 -125v-47q0 -89 11 -125t52 -36z" />
    <glyph glyph-name="ntilde" unicode="&#xf1;" horiz-adv-x="499" 
d="M317 692q29 0 31 33h83q-4 -56 -33 -89.5t-72 -33.5q-20 0 -57 16.5t-54 16.5q-29 0 -31 -33h-83q4 56 33 89.5t72 33.5q25 0 62 -16.5t49 -16.5zM197 0h-154v538h154v-63q36 80 133 80q70 0 99.5 -45t29.5 -138v-372h-154v342q0 21 -0.5 34t-3 28t-7 23t-13 13.5
t-21.5 5.5q-22 0 -35 -11.5t-19 -36t-7.5 -47t-1.5 -61.5v-290z" />
    <glyph glyph-name="ograve" unicode="&#xf2;" horiz-adv-x="498" 
d="M215 602l-142 123h174l62 -123h-94zM249 456q-41 0 -52 -36t-11 -125v-47q0 -89 11 -125t52 -36t52 36t11 125v47q0 89 -11 125t-52 36zM249 -12q-113 0 -166.5 60t-53.5 182v83q0 122 53.5 182t166.5 60t166.5 -60t53.5 -182v-83q0 -122 -53.5 -182t-166.5 -60z" />
    <glyph glyph-name="oacute" unicode="&#xf3;" horiz-adv-x="498" 
d="M198 602l62 123h174l-142 -123h-94zM249 456q-41 0 -52 -36t-11 -125v-47q0 -89 11 -125t52 -36t52 36t11 125v47q0 89 -11 125t-52 36zM249 -12q-113 0 -166.5 60t-53.5 182v83q0 122 53.5 182t166.5 60t166.5 -60t53.5 -182v-83q0 -122 -53.5 -182t-166.5 -60z" />
    <glyph glyph-name="ocircumflex" unicode="&#xf4;" horiz-adv-x="498" 
d="M249 456q-41 0 -52 -36t-11 -125v-47q0 -89 11 -125t52 -36t52 36t11 125v47q0 89 -11 125t-52 36zM249 -12q-113 0 -166.5 60t-53.5 182v83q0 122 53.5 182t166.5 60t166.5 -60t53.5 -182v-83q0 -122 -53.5 -182t-166.5 -60zM64 602l120 123h130l120 -123h-118l-67 52
l-67 -52h-118z" />
    <glyph glyph-name="otilde" unicode="&#xf5;" horiz-adv-x="498" 
d="M249 456q-41 0 -52 -36t-11 -125v-47q0 -89 11 -125t52 -36t52 36t11 125v47q0 89 -11 125t-52 36zM249 -12q-113 0 -166.5 60t-53.5 182v83q0 122 53.5 182t166.5 60t166.5 -60t53.5 -182v-83q0 -122 -53.5 -182t-166.5 -60zM300 692q30 0 31 33h83q-4 -56 -33 -89.5
t-72 -33.5q-20 0 -57 16.5t-54 16.5q-30 0 -31 -33h-83q4 56 33 89.5t72 33.5q25 0 62 -16.5t49 -16.5z" />
    <glyph glyph-name="odieresis" unicode="&#xf6;" horiz-adv-x="498" 
d="M249 456q-41 0 -52 -36t-11 -125v-47q0 -89 11 -125t52 -36t52 36t11 125v47q0 89 -11 125t-52 36zM249 -12q-113 0 -166.5 60t-53.5 182v83q0 122 53.5 182t166.5 60t166.5 -60t53.5 -182v-83q0 -122 -53.5 -182t-166.5 -60zM82 602v123h134v-123h-134zM282 602v123h134
v-123h-134z" />
    <glyph glyph-name="divide" unicode="&#xf7;" 
d="M193 9v151h160v-151h-160zM43 208v116h462v-116h-462zM193 373v150h160v-150h-160z" />
    <glyph glyph-name="oslash" unicode="&#xf8;" horiz-adv-x="498" 
d="M127 -60h-53l37 84q-82 57 -82 206v83q0 122 53.5 182t166.5 60q50 0 92 -14l30 66h53l-39 -87q84 -58 84 -207v-83q0 -122 -53.5 -182t-166.5 -60q-50 0 -94 14zM312 248v77q0 19 -1 28l-108 -243q14 -23 46 -23q41 0 52 36t11 125zM249 456q-41 0 -52 -36t-11 -125
v-102l108 241q-16 22 -45 22z" />
    <glyph glyph-name="ugrave" unicode="&#xf9;" horiz-adv-x="492" 
d="M222 602l-142 123h174l62 -123h-94zM182 -11q-77 0 -109.5 46t-32.5 149v354h154v-313q0 -34 1 -51t4.5 -39t13.5 -31.5t26 -9.5q20 0 32 11t17 37t6 46t1 62v288h154v-538h-149v72q-37 -83 -118 -83z" />
    <glyph glyph-name="uacute" unicode="&#xfa;" horiz-adv-x="492" 
d="M181 602l62 123h174l-142 -123h-94zM182 -11q-77 0 -109.5 46t-32.5 149v354h154v-313q0 -34 1 -51t4.5 -39t13.5 -31.5t26 -9.5q20 0 32 11t17 37t6 46t1 62v288h154v-538h-149v72q-37 -83 -118 -83z" />
    <glyph glyph-name="ucircumflex" unicode="&#xfb;" horiz-adv-x="492" 
d="M55 602l120 123h130l120 -123h-118l-67 52l-67 -52h-118zM182 -11q-77 0 -109.5 46t-32.5 149v354h154v-313q0 -34 1 -51t4.5 -39t13.5 -31.5t26 -9.5q20 0 32 11t17 37t6 46t1 62v288h154v-538h-149v72q-37 -83 -118 -83z" />
    <glyph glyph-name="udieresis" unicode="&#xfc;" horiz-adv-x="492" 
d="M83 602v123h134v-123h-134zM283 602v123h134v-123h-134zM182 -11q-77 0 -109.5 46t-32.5 149v354h154v-313q0 -34 1 -51t4.5 -39t13.5 -31.5t26 -9.5q20 0 32 11t17 37t6 46t1 62v288h154v-538h-149v72q-37 -83 -118 -83z" />
    <glyph glyph-name="yacute" unicode="&#xfd;" horiz-adv-x="430" 
d="M173 602l62 123h174l-142 -123h-94zM43 -175v95h38q33 0 48 13.5t20 43.5l5 26l-154 535h150l77 -389l63 389h140l-126 -538q-24 -104 -64.5 -139.5t-133.5 -35.5h-63z" />
    <glyph glyph-name="thorn" unicode="&#xfe;" horiz-adv-x="520" 
d="M43 -173v898h154v-249q15 35 49 57t78 22q88 0 127.5 -59.5t39.5 -187.5v-71q0 -128 -39.5 -188t-127.5 -60q-44 0 -78 22.5t-49 57.5v-242h-154zM272 94q21 0 33.5 9.5t19 33.5t8 50.5t1.5 72.5v24q0 46 -1.5 72.5t-8 50.5t-19 34t-33.5 10q-47 0 -63.5 -43.5
t-16.5 -135.5q0 -90 16.5 -134t63.5 -44z" />
    <glyph glyph-name="ydieresis" unicode="&#xff;" horiz-adv-x="430" 
d="M52 602v123h134v-123h-134zM252 602v123h134v-123h-134zM43 -175v95h38q33 0 48 13.5t20 43.5l5 26l-154 535h150l77 -389l63 389h140l-126 -538q-24 -104 -64.5 -139.5t-133.5 -35.5h-63z" />
    <glyph glyph-name="Amacron" unicode="&#x100;" horiz-adv-x="549" 
d="M5 0l173 725h192l174 -725h-162l-30 152h-164l-29 -152h-154zM270 571l-62 -318h124zM149 783v103h252v-103h-252z" />
    <glyph glyph-name="amacron" unicode="&#x101;" horiz-adv-x="479" 
d="M119 612v101h252v-101h-252zM170 -12q-66 0 -105 40.5t-39 110.5v6q0 69 53 111t211 91v30q0 43 -13.5 63.5t-44.5 20.5q-35 0 -50 -20t-15 -63v-9h-134v9q0 79 56 128t150 49q103 0 152.5 -42.5t49.5 -148.5l-1 -189q0 -130 8 -175h-138l-4 72q-36 -84 -136 -84zM228 84
q66 0 66 145v35q-76 -22 -96 -43.5t-20 -58.5v-9q0 -69 50 -69z" />
    <glyph glyph-name="Abreve" unicode="&#x102;" horiz-adv-x="549" 
d="M5 0l173 725h192l174 -725h-162l-30 152h-164l-29 -152h-154zM270 571l-62 -318h124zM275 769q-76 0 -115 28.5t-44 88.5h107q2 -26 14.5 -36t37.5 -10q27 0 38.5 10t13.5 36h107q-5 -60 -44 -88.5t-115 -28.5z" />
    <glyph glyph-name="abreve" unicode="&#x103;" horiz-adv-x="479" 
d="M238 602q-146 0 -146 123h103q0 -28 10.5 -37.5t32.5 -9.5t32.5 9.5t10.5 37.5h103q0 -60 -34 -91.5t-112 -31.5zM170 -12q-66 0 -105 40.5t-39 110.5v6q0 69 53 111t211 91v30q0 43 -13.5 63.5t-44.5 20.5q-35 0 -50 -20t-15 -63v-9h-134v9q0 79 56 128t150 49
q103 0 152.5 -42.5t49.5 -148.5l-1 -189q0 -130 8 -175h-138l-4 72q-36 -84 -136 -84zM228 84q66 0 66 145v35q-76 -22 -96 -43.5t-20 -58.5v-9q0 -69 50 -69z" />
    <glyph glyph-name="Aogonek" unicode="&#x104;" horiz-adv-x="549" 
d="M5 0l173 725h192l174 -725q-47 -22 -68 -37t-21 -35q0 -33 44 -33q19 0 45 6v-81q-43 -8 -83 -8q-60 0 -101.5 23t-41.5 70q0 62 64 95l-30 152h-164l-29 -152h-154zM270 571l-62 -318h124z" />
    <glyph glyph-name="aogonek" unicode="&#x105;" horiz-adv-x="479" 
d="M170 -12q-66 0 -105 40.5t-39 110.5v6q0 69 53 111t211 91v30q0 43 -13.5 63.5t-44.5 20.5q-35 0 -50 -20t-15 -63v-9h-134v9q0 79 56 128t150 49q103 0 152.5 -42.5t49.5 -148.5l-1 -189q0 -130 8 -175q-43 -20 -62 -35.5t-19 -37.5q0 -33 44 -33q26 0 56 10v-82
q-39 -11 -93 -11q-59 0 -98.5 23t-39.5 70q0 29 20.5 54.5t53.5 41.5l-4 72q-36 -84 -136 -84zM228 84q66 0 66 145v35q-76 -22 -96 -43.5t-20 -58.5v-9q0 -69 50 -69z" />
    <glyph glyph-name="Cacute" unicode="&#x106;" horiz-adv-x="541" 
d="M285 -12q-142 0 -197.5 76.5t-55.5 247.5v103q0 170 55.5 247t197.5 77q119 0 176.5 -59.5t57.5 -187.5v-9h-158v7q0 85 -17 112t-60 27q-30 0 -47.5 -14t-25 -52.5t-9 -71t-1.5 -104.5v-47q0 -72 1.5 -104.5t9 -71t25 -52.5t47.5 -14q43 0 60 27t17 112v7h158v-9
q0 -128 -57.5 -187.5t-176.5 -59.5zM205 773l55 113h188l-131 -113h-112z" />
    <glyph glyph-name="cacute" unicode="&#x107;" horiz-adv-x="464" 
d="M245 -12q-112 0 -164 59.5t-52 183.5v82q0 122 52 182t164 60q203 0 203 -200v-4h-143v4q0 59 -14.5 80t-45.5 21q-15 0 -25 -4t-16.5 -15.5t-10 -21.5t-5 -33t-2 -38.5t-0.5 -48.5v-47q0 -33 0.5 -48.5t2 -38.5t5 -33t10 -21.5t16.5 -15.5t25 -4q31 0 45.5 21t14.5 81v3
h143v-4q0 -200 -203 -200zM192 602l62 123h174l-142 -123h-94z" />
    <glyph glyph-name="Ccircumflex" unicode="&#x108;" horiz-adv-x="541" 
d="M98 773l118 113h140l118 -113h-138l-50 49l-50 -49h-138zM285 -12q-142 0 -197.5 76.5t-55.5 247.5v103q0 170 55.5 247t197.5 77q119 0 176.5 -59.5t57.5 -187.5v-9h-158v7q0 85 -17 112t-60 27q-30 0 -47.5 -14t-25 -52.5t-9 -71t-1.5 -104.5v-47q0 -72 1.5 -104.5
t9 -71t25 -52.5t47.5 -14q43 0 60 27t17 112v7h158v-9q0 -128 -57.5 -187.5t-176.5 -59.5z" />
    <glyph glyph-name="ccircumflex" unicode="&#x109;" horiz-adv-x="464" 
d="M63 602l120 123h130l120 -123h-118l-67 52l-67 -52h-118zM245 -12q-112 0 -164 59.5t-52 183.5v82q0 122 52 182t164 60q203 0 203 -200v-4h-143v4q0 59 -14.5 80t-45.5 21q-15 0 -25 -4t-16.5 -15.5t-10 -21.5t-5 -33t-2 -38.5t-0.5 -48.5v-47q0 -33 0.5 -48.5t2 -38.5
t5 -33t10 -21.5t16.5 -15.5t25 -4q31 0 45.5 21t14.5 81v3h143v-4q0 -200 -203 -200z" />
    <glyph glyph-name="Cdotaccent" unicode="&#x10a;" horiz-adv-x="541" 
d="M205 773v113h160v-113h-160zM285 -12q-142 0 -197.5 76.5t-55.5 247.5v103q0 170 55.5 247t197.5 77q119 0 176.5 -59.5t57.5 -187.5v-9h-158v7q0 85 -17 112t-60 27q-30 0 -47.5 -14t-25 -52.5t-9 -71t-1.5 -104.5v-47q0 -72 1.5 -104.5t9 -71t25 -52.5t47.5 -14
q43 0 60 27t17 112v7h158v-9q0 -128 -57.5 -187.5t-176.5 -59.5z" />
    <glyph glyph-name="cdotaccent" unicode="&#x10b;" horiz-adv-x="464" 
d="M181 602v123h134v-123h-134zM245 -12q-112 0 -164 59.5t-52 183.5v82q0 122 52 182t164 60q203 0 203 -200v-4h-143v4q0 59 -14.5 80t-45.5 21q-15 0 -25 -4t-16.5 -15.5t-10 -21.5t-5 -33t-2 -38.5t-0.5 -48.5v-47q0 -33 0.5 -48.5t2 -38.5t5 -33t10 -21.5t16.5 -15.5
t25 -4q31 0 45.5 21t14.5 81v3h143v-4q0 -200 -203 -200z" />
    <glyph glyph-name="Ccaron" unicode="&#x10c;" horiz-adv-x="541" 
d="M355 773h-140l-118 113h138l50 -49l50 49h138zM285 -12q-142 0 -197.5 76.5t-55.5 247.5v103q0 170 55.5 247t197.5 77q119 0 176.5 -59.5t57.5 -187.5v-9h-158v7q0 85 -17 112t-60 27q-30 0 -47.5 -14t-25 -52.5t-9 -71t-1.5 -104.5v-47q0 -72 1.5 -104.5t9 -71
t25 -52.5t47.5 -14q43 0 60 27t17 112v7h158v-9q0 -128 -57.5 -187.5t-176.5 -59.5z" />
    <glyph glyph-name="ccaron" unicode="&#x10d;" horiz-adv-x="464" 
d="M187 602l-122 123h118l67 -52l67 52h117l-119 -123h-128zM245 -12q-112 0 -164 59.5t-52 183.5v82q0 122 52 182t164 60q203 0 203 -200v-4h-143v4q0 59 -14.5 80t-45.5 21q-15 0 -25 -4t-16.5 -15.5t-10 -21.5t-5 -33t-2 -38.5t-0.5 -48.5v-47q0 -33 0.5 -48.5t2 -38.5
t5 -33t10 -21.5t16.5 -15.5t25 -4q31 0 45.5 21t14.5 81v3h143v-4q0 -200 -203 -200z" />
    <glyph glyph-name="Dcaron" unicode="&#x10e;" horiz-adv-x="566" 
d="M350 773h-140l-118 113h138l50 -49l50 49h138zM213 107h20q38 0 59.5 5.5t37.5 17.5t23 41t9.5 66t2.5 103v47q0 65 -2.5 101.5t-9.5 65.5t-23 41.5t-38 18t-59 5.5h-20v-512zM54 0v725h172q83 0 136.5 -13t94.5 -47.5t59 -98.5t18 -164v-84q0 -98 -18 -161t-59 -97.5
t-94.5 -47t-136.5 -12.5h-172z" />
    <glyph glyph-name="dcaron" unicode="&#x10f;" horiz-adv-x="670" 
d="M29 235v73q0 127 39.5 187t127.5 60q44 0 78 -22t49 -58v250h154v-725h-154v68q-15 -36 -49 -58t-78 -22q-88 0 -127.5 60t-39.5 187zM186 285v-27q0 -46 1.5 -72.5t8 -50.5t19 -33.5t33.5 -9.5q47 0 63.5 43.5t16.5 135.5t-16.5 136t-63.5 44q-21 0 -33.5 -10t-19 -34
t-8 -50t-1.5 -72zM513 555l25 170h142l-65 -170h-102z" />
    <glyph glyph-name="Dcroat" unicode="&#x110;" horiz-adv-x="566" 
d="M-18 307v118h72v300h172q83 0 136.5 -13t94.5 -47.5t59 -98.5t18 -164v-84q0 -98 -18 -161t-59 -97.5t-94.5 -47t-136.5 -12.5h-172v307h-72zM213 107h20q38 0 59.5 5.5t37.5 17.5t23 41t9.5 66t2.5 103v47q0 65 -2.5 101.5t-9.5 65.5t-23 41.5t-38 18t-59 5.5h-20v-194
h91v-118h-91v-200z" />
    <glyph glyph-name="dslash" unicode="&#x111;" horiz-adv-x="520" 
d="M192 575v81h131v69h154v-69h62v-81h-62v-575h-154v68q-15 -36 -49 -58t-78 -22q-88 0 -127.5 60t-39.5 187v73q0 127 39.5 187t127.5 60q44 0 78 -22t49 -58v100h-131zM186 285v-27q0 -46 1.5 -72.5t8 -50.5t19 -33.5t33.5 -9.5q47 0 63.5 43.5t16.5 135.5t-16.5 136
t-63.5 44q-21 0 -33.5 -10t-19 -34t-8 -50t-1.5 -72z" />
    <glyph glyph-name="Emacron" unicode="&#x112;" horiz-adv-x="475" 
d="M136 783v103h252v-103h-252zM54 0v725h399v-116h-240v-180h219v-116h-219v-197h240v-116h-399z" />
    <glyph glyph-name="emacron" unicode="&#x113;" horiz-adv-x="491" 
d="M131 612v101h252v-101h-252zM245 -12q-112 0 -164 60.5t-52 179.5v89q0 238 220 238q118 0 166.5 -64.5t48.5 -205.5v-29h-283v-8q0 -87 12.5 -124t54.5 -37q32 0 49 19t17 72v4h143v-5q0 -101 -61 -145t-151 -44zM181 347v-9h142v9q0 62 -15 87t-56 25
q-40 0 -55.5 -25.5t-15.5 -86.5z" />
    <glyph glyph-name="Ebreve" unicode="&#x114;" horiz-adv-x="475" 
d="M261 769q-76 0 -115 28.5t-44 88.5h107q2 -26 14.5 -36t37.5 -10q27 0 38.5 10t13.5 36h107q-5 -60 -44 -88.5t-115 -28.5zM54 0v725h399v-116h-240v-180h219v-116h-219v-197h240v-116h-399z" />
    <glyph glyph-name="ebreve" unicode="&#x115;" horiz-adv-x="491" 
d="M258 602q-146 0 -146 123h103q0 -28 10.5 -37.5t32.5 -9.5t32.5 9.5t10.5 37.5h103q0 -60 -34 -91.5t-112 -31.5zM245 -12q-112 0 -164 60.5t-52 179.5v89q0 238 220 238q118 0 166.5 -64.5t48.5 -205.5v-29h-283v-8q0 -87 12.5 -124t54.5 -37q32 0 49 19t17 72v4h143v-5
q0 -101 -61 -145t-151 -44zM181 347v-9h142v9q0 62 -15 87t-56 25q-40 0 -55.5 -25.5t-15.5 -86.5z" />
    <glyph glyph-name="Edotaccent" unicode="&#x116;" horiz-adv-x="475" 
d="M180 773v113h160v-113h-160zM54 0v725h399v-116h-240v-180h219v-116h-219v-197h240v-116h-399z" />
    <glyph glyph-name="edotaccent" unicode="&#x117;" horiz-adv-x="491" 
d="M189 602v123h134v-123h-134zM245 -12q-112 0 -164 60.5t-52 179.5v89q0 238 220 238q118 0 166.5 -64.5t48.5 -205.5v-29h-283v-8q0 -87 12.5 -124t54.5 -37q32 0 49 19t17 72v4h143v-5q0 -101 -61 -145t-151 -44zM181 347v-9h142v9q0 62 -15 87t-56 25
q-40 0 -55.5 -25.5t-15.5 -86.5z" />
    <glyph glyph-name="Eogonek" unicode="&#x118;" horiz-adv-x="475" 
d="M371 -188q-59 0 -98.5 23t-39.5 70q0 28 17 54t42 41h161q-47 -22 -68 -37t-21 -35q0 -33 44 -33q22 0 45 7v-82q-43 -8 -82 -8zM54 0v725h399v-116h-240v-180h219v-116h-219v-197h240v-116h-399z" />
    <glyph glyph-name="eogonek" unicode="&#x119;" horiz-adv-x="491" 
d="M181 346v-9h142v9q0 62 -15 87t-56 25q-40 0 -55.5 -25.5t-15.5 -86.5zM409 -99v-81q-40 -8 -79 -8q-59 0 -98.5 23t-39.5 70q0 41 36 84q-97 0 -148 64t-51 175v88q0 238 220 238q118 0 166.5 -64.5t48.5 -205.5v-29h-283v-7q0 -87 12.5 -124t53.5 -37q32 0 49 19t17 72
v4h144v-5q0 -96 -66 -150q-28 -24 -48 -52.5t-20 -46.5q0 -33 44 -33q18 0 42 6z" />
    <glyph glyph-name="Ecaron" unicode="&#x11a;" horiz-adv-x="475" 
d="M328 773h-140l-118 113h138l50 -49l50 49h138zM54 0v725h399v-116h-240v-180h219v-116h-219v-197h240v-116h-399z" />
    <glyph glyph-name="ecaron" unicode="&#x11b;" horiz-adv-x="491" 
d="M195 602l-122 123h118l67 -52l67 52h117l-119 -123h-128zM245 -12q-112 0 -164 60.5t-52 179.5v89q0 238 220 238q118 0 166.5 -64.5t48.5 -205.5v-29h-283v-8q0 -87 12.5 -124t54.5 -37q32 0 49 19t17 72v4h143v-5q0 -101 -61 -145t-151 -44zM181 347v-9h142v9
q0 62 -15 87t-56 25q-40 0 -55.5 -25.5t-15.5 -86.5z" />
    <glyph glyph-name="Gcircumflex" unicode="&#x11c;" horiz-adv-x="578" 
d="M99 773l118 113h140l118 -113h-138l-50 49l-50 -49h-138zM392 281h-123v105h260v-386h-112l-5 81q-42 -93 -156 -93q-120 0 -172 79t-52 245v103q0 170 57 247t198 77q238 0 238 -229v-6h-158v7q0 70 -19.5 94t-63.5 24q-30 0 -47.5 -14t-25 -52.5t-9 -71t-1.5 -104.5
v-47q0 -72 1.5 -104.5t9 -71t25 -52.5t47.5 -14q56 0 82 37.5t26 138.5v7z" />
    <glyph glyph-name="gcircumflex" unicode="&#x11d;" horiz-adv-x="525" 
d="M92 602l120 123h130l120 -123h-118l-67 52l-67 -52h-118zM252 -194q-92 0 -148.5 41t-56.5 125v2h141v-2q0 -32 18.5 -48.5t49.5 -16.5q39 0 55.5 19.5t16.5 79.5v92q-33 -79 -116 -79q-86 0 -134.5 57.5t-48.5 170.5v70q0 238 183 238q82 0 116 -80v63h154v-490
q0 -128 -55.5 -185t-174.5 -57zM253 123q51 0 66 37t15 120q0 47 -2.5 74.5t-10.5 52t-24.5 34.5t-43.5 10q-42 0 -54.5 -36t-12.5 -117v-22q0 -81 12.5 -117t54.5 -36z" />
    <glyph glyph-name="Gbreve" unicode="&#x11e;" horiz-adv-x="578" 
d="M392 281h-123v105h260v-386h-112l-5 81q-42 -93 -156 -93q-120 0 -172 79t-52 245v103q0 170 57 247t198 77q238 0 238 -229v-6h-158v7q0 70 -19.5 94t-63.5 24q-30 0 -47.5 -14t-25 -52.5t-9 -71t-1.5 -104.5v-47q0 -72 1.5 -104.5t9 -71t25 -52.5t47.5 -14
q56 0 82 37.5t26 138.5v7zM289 769q-76 0 -115 28.5t-44 88.5h107q2 -26 14.5 -36t37.5 -10q27 0 38.5 10t13.5 36h107q-5 -60 -44 -88.5t-115 -28.5z" />
    <glyph glyph-name="gbreve" unicode="&#x11f;" horiz-adv-x="525" 
d="M271 602q-146 0 -146 123h103q0 -28 10.5 -37.5t32.5 -9.5t32.5 9.5t10.5 37.5h103q0 -60 -34 -91.5t-112 -31.5zM252 -194q-92 0 -148.5 41t-56.5 125v2h141v-2q0 -32 18.5 -48.5t49.5 -16.5q39 0 55.5 19.5t16.5 79.5v92q-33 -79 -116 -79q-86 0 -134.5 57.5
t-48.5 170.5v70q0 238 183 238q82 0 116 -80v63h154v-490q0 -128 -55.5 -185t-174.5 -57zM253 123q51 0 66 37t15 120q0 47 -2.5 74.5t-10.5 52t-24.5 34.5t-43.5 10q-42 0 -54.5 -36t-12.5 -117v-22q0 -81 12.5 -117t54.5 -36z" />
    <glyph glyph-name="Gdotaccent" unicode="&#x120;" horiz-adv-x="578" 
d="M207 773v113h160v-113h-160zM392 281h-123v105h260v-386h-112l-5 81q-42 -93 -156 -93q-120 0 -172 79t-52 245v103q0 170 57 247t198 77q238 0 238 -229v-6h-158v7q0 70 -19.5 94t-63.5 24q-30 0 -47.5 -14t-25 -52.5t-9 -71t-1.5 -104.5v-47q0 -72 1.5 -104.5t9 -71
t25 -52.5t47.5 -14q56 0 82 37.5t26 138.5v7z" />
    <glyph glyph-name="gdotaccent" unicode="&#x121;" horiz-adv-x="525" 
d="M199 602v123h134v-123h-134zM252 -194q-92 0 -148.5 41t-56.5 125v2h141v-2q0 -32 18.5 -48.5t49.5 -16.5q39 0 55.5 19.5t16.5 79.5v92q-33 -79 -116 -79q-86 0 -134.5 57.5t-48.5 170.5v70q0 238 183 238q82 0 116 -80v63h154v-490q0 -128 -55.5 -185t-174.5 -57z
M253 123q51 0 66 37t15 120q0 47 -2.5 74.5t-10.5 52t-24.5 34.5t-43.5 10q-42 0 -54.5 -36t-12.5 -117v-22q0 -81 12.5 -117t54.5 -36z" />
    <glyph glyph-name="uni0122" unicode="&#x122;" horiz-adv-x="578" 
d="M224 -246l38 96h-35v100h118v-107l-44 -89h-77zM392 281h-123v105h260v-386h-112l-5 81q-42 -93 -156 -93q-120 0 -172 79t-52 245v103q0 170 57 247t198 77q238 0 238 -229v-6h-158v7q0 70 -19.5 94t-63.5 24q-30 0 -47.5 -14t-25 -52.5t-9 -71t-1.5 -104.5v-47
q0 -72 1.5 -104.5t9 -71t25 -52.5t47.5 -14q56 0 82 37.5t26 138.5v7z" />
    <glyph glyph-name="uni0123" unicode="&#x123;" horiz-adv-x="525" 
d="M331 809l-38 -96h35v-100h-118v107l44 89h77zM252 -194q-92 0 -148.5 41t-56.5 125v2h141v-2q0 -32 18.5 -48.5t49.5 -16.5q39 0 55.5 19.5t16.5 79.5v92q-33 -79 -116 -79q-86 0 -134.5 57.5t-48.5 170.5v70q0 238 183 238q82 0 116 -80v63h154v-490q0 -128 -55.5 -185
t-174.5 -57zM253 123q51 0 66 37t15 120q0 47 -2.5 74.5t-10.5 52t-24.5 34.5t-43.5 10q-42 0 -54.5 -36t-12.5 -117v-22q0 -81 12.5 -117t54.5 -36z" />
    <glyph glyph-name="Hcircumflex" unicode="&#x124;" horiz-adv-x="590" 
d="M106 773l118 113h140l118 -113h-138l-50 49l-50 -49h-138zM54 0v725h159v-296h164v296h159v-725h-159v313h-164v-313h-159z" />
    <glyph glyph-name="hcircumflex" unicode="&#x125;" horiz-adv-x="499" 
d="M197 0h-154v725h154v-250q36 80 133 80q70 0 99.5 -45t29.5 -138v-372h-154v342q0 21 -0.5 34t-3 28t-7 23t-13 13.5t-21.5 5.5q-22 0 -35 -11.5t-19 -36t-7.5 -47t-1.5 -61.5v-290zM-66 773l118 113h140l118 -113h-138l-50 49l-50 -49h-138z" />
    <glyph glyph-name="Hbar" unicode="&#x126;" horiz-adv-x="590" 
d="M4 519v116h50v90h159v-90h164v90h159v-90h50v-116h-50v-519h-159v313h-164v-313h-159v519h-50zM213 429h164v90h-164v-90z" />
    <glyph glyph-name="hbar" unicode="&#x127;" horiz-adv-x="499" 
d="M-22 575v80h65v70h154v-70h129v-80h-129v-100q36 80 133 80q70 0 99.5 -45t29.5 -138v-372h-154v342q0 21 -0.5 34t-3 28t-7 23t-13 13.5t-21.5 5.5q-22 0 -35 -11.5t-19 -36t-7.5 -47t-1.5 -61.5v-290h-154v575h-65z" />
    <glyph glyph-name="Itilde" unicode="&#x128;" horiz-adv-x="267" 
d="M72 775h-83q13 113 102 113q26 0 48.5 -17t31.5 -17q21 0 25 34h83q-7 -63 -36.5 -88t-66.5 -25q-21 0 -42.5 15t-35.5 15q-22 0 -26 -30zM54 0v725h159v-725h-159z" />
    <glyph glyph-name="itilde" unicode="&#x129;" horiz-adv-x="240" 
d="M53 602h-83q8 65 36 94t67 29q26 0 49.5 -17t32.5 -17q22 0 31 34h83q-8 -64 -37.5 -93.5t-64.5 -29.5q-21 0 -45 16.5t-38 16.5q-22 0 -31 -33zM43 0v538h154v-538h-154z" />
    <glyph glyph-name="Imacron" unicode="&#x12a;" horiz-adv-x="267" 
d="M19 780v103h232v-103h-232zM54 0v725h159v-725h-159z" />
    <glyph glyph-name="imacron" unicode="&#x12b;" horiz-adv-x="240" 
d="M0 612v101h239v-101h-239zM43 0v538h154v-538h-154z" />
    <glyph glyph-name="Ibreve" unicode="&#x12c;" horiz-adv-x="267" 
d="M134 771q-74 0 -107.5 27.5t-38.5 89.5h107q2 -26 10.5 -36t28.5 -10t28.5 10t10.5 36h107q-5 -62 -38.5 -89.5t-107.5 -27.5zM54 0v725h159v-725h-159z" />
    <glyph glyph-name="ibreve" unicode="&#x12d;" horiz-adv-x="240" 
d="M119 602q-77 0 -106.5 31t-29.5 92h103q0 -47 33 -47t33 47h103q0 -62 -29.5 -92.5t-106.5 -30.5zM43 0v538h154v-538h-154z" />
    <glyph glyph-name="Iogonek" unicode="&#x12e;" horiz-adv-x="267" 
d="M54 0v725h159v-725h-159zM132 -188q-59 0 -98.5 23t-39.5 70q0 28 17 54t42 41h161q-47 -22 -68 -37t-21 -35q0 -33 44 -33q22 0 45 7v-82q-43 -8 -82 -8z" />
    <glyph glyph-name="iogonek" unicode="&#x12f;" horiz-adv-x="240" 
d="M43 0v538h154v-538q-33 -16 -47.5 -23.5t-27.5 -20.5t-13 -28q0 -33 44 -33q18 0 42 6v-81q-40 -8 -79 -8q-59 0 -98.5 23t-39.5 70q0 62 65 95zM43 597v128h154v-128h-154z" />
    <glyph glyph-name="Idot" unicode="&#x130;" horiz-adv-x="267" 
d="M54 773v113h160v-113h-160zM54 0v725h159v-725h-159z" />
    <glyph glyph-name="dotlessi" unicode="&#x131;" horiz-adv-x="240" 
d="M43 0v538h154v-538h-154z" />
    <glyph glyph-name="Jcircumflex" unicode="&#x134;" horiz-adv-x="478" 
d="M156 773l118 113h140l118 -113h-138l-50 49l-50 -49h-138zM213 -12q-111 0 -164.5 52t-53.5 166v21h159v-21q0 -65 12 -86.5t43 -21.5q32 0 44 21t12 87v520h159v-521q0 -123 -54 -170t-157 -47z" />
    <glyph glyph-name="jcircumflex" unicode="&#x135;" horiz-adv-x="240" 
d="M-64 602l110 123h130l110 -123h-128l-47 52l-47 -52h-128zM-29 -175v93h28q29 0 36.5 15.5t7.5 62.5v542h154v-533q0 -108 -41 -144t-143 -36h-42z" />
    <glyph glyph-name="uni0136" unicode="&#x136;" horiz-adv-x="566" 
d="M240 -246l38 96h-35v100h118v-107l-44 -89h-77zM408 0l-140 288l-55 -85v-203h-159v725h159v-296l184 296h156l-192 -295l210 -430h-163z" />
    <glyph glyph-name="uni0137" unicode="&#x137;" horiz-adv-x="473" 
d="M202 -246l38 96h-35v100h118v-107l-44 -89h-77zM344 0l-94 206l-53 -74v-132h-154v725h154v-399l149 212h141l-148 -207l152 -331h-147z" />
    <glyph glyph-name="Lacute" unicode="&#x139;" horiz-adv-x="464" 
d="M64 773l55 113h188l-131 -113h-112zM54 0v725h159v-609h240v-116h-399z" />
    <glyph glyph-name="lacute" unicode="&#x13a;" horiz-adv-x="240" 
d="M57 773l55 113h188l-131 -113h-112zM43 0v725h154v-725h-154z" />
    <glyph glyph-name="uni013B" unicode="&#x13b;" horiz-adv-x="464" 
d="M191 -246l38 96h-35v100h118v-107l-44 -89h-77zM54 0v725h159v-609h240v-116h-399z" />
    <glyph glyph-name="uni013C" unicode="&#x13c;" horiz-adv-x="240" 
d="M60 -246l38 96h-35v100h118v-107l-44 -89h-77zM43 0v725h154v-725h-154z" />
    <glyph glyph-name="Lcaron" unicode="&#x13d;" horiz-adv-x="464" 
d="M54 0v725h159v-609h240v-116h-399zM262 555l25 170h142l-65 -170h-102z" />
    <glyph glyph-name="lcaron" unicode="&#x13e;" horiz-adv-x="390" 
d="M43 0v725h154v-725h-154zM233 555l25 170h142l-65 -170h-102z" />
    <glyph glyph-name="Ldot" unicode="&#x13f;" horiz-adv-x="464" 
d="M285 363v113h160v-113h-160zM54 0v725h159v-609h240v-116h-399z" />
    <glyph glyph-name="ldot" unicode="&#x140;" horiz-adv-x="385" 
d="M48 0v725h154v-725h-154zM250 359v123h134v-123h-134z" />
    <glyph glyph-name="Lslash" unicode="&#x141;" horiz-adv-x="479" 
d="M0 193v125l84 53v354h159v-253l166 105v-126l-166 -105v-230h240v-116h-399v246z" />
    <glyph glyph-name="lslash" unicode="&#x142;" horiz-adv-x="290" 
d="M0 252v125l71 39v309h154v-223l65 36v-125l-65 -36v-377h-154v291z" />
    <glyph glyph-name="Nacute" unicode="&#x143;" horiz-adv-x="590" 
d="M244 773l55 113h188l-131 -113h-112zM54 0v725h184l157 -521v521h141v-725h-184l-157 521v-521h-141z" />
    <glyph glyph-name="nacute" unicode="&#x144;" horiz-adv-x="499" 
d="M197 602l62 123h174l-142 -123h-94zM197 0h-154v538h154v-63q36 80 133 80q70 0 99.5 -45t29.5 -138v-372h-154v342q0 21 -0.5 34t-3 28t-7 23t-13 13.5t-21.5 5.5q-22 0 -35 -11.5t-19 -36t-7.5 -47t-1.5 -61.5v-290z" />
    <glyph glyph-name="uni0145" unicode="&#x145;" horiz-adv-x="590" 
d="M235 -246l38 96h-35v100h118v-107l-44 -89h-77zM54 0v725h184l157 -521v521h141v-725h-184l-157 521v-521h-141z" />
    <glyph glyph-name="uni0146" unicode="&#x146;" horiz-adv-x="499" 
d="M194 -246l38 96h-35v100h118v-107l-44 -89h-77zM197 0h-154v538h154v-63q36 80 133 80q70 0 99.5 -45t29.5 -138v-372h-154v342q0 21 -0.5 34t-3 28t-7 23t-13 13.5t-21.5 5.5q-22 0 -35 -11.5t-19 -36t-7.5 -47t-1.5 -61.5v-290z" />
    <glyph glyph-name="Ncaron" unicode="&#x147;" horiz-adv-x="590" 
d="M375 773h-140l-118 113h138l50 -49l50 49h138zM54 0v725h184l157 -521v521h141v-725h-184l-157 521v-521h-141z" />
    <glyph glyph-name="ncaron" unicode="&#x148;" horiz-adv-x="499" 
d="M194 602l-122 123h118l67 -52l67 52h117l-119 -123h-128zM197 0h-154v538h154v-63q36 80 133 80q70 0 99.5 -45t29.5 -138v-372h-154v342q0 21 -0.5 34t-3 28t-7 23t-13 13.5t-21.5 5.5q-22 0 -35 -11.5t-19 -36t-7.5 -47t-1.5 -61.5v-290z" />
    <glyph glyph-name="Eng" unicode="&#x14a;" horiz-adv-x="590" 
d="M277 -175v119h45q42 0 57 11t15 44v14l-199 508v-521h-141v725h184l157 -436v436h141v-716q0 -108 -38 -146t-144 -38h-77z" />
    <glyph glyph-name="eng" unicode="&#x14b;" horiz-adv-x="507" 
d="M241 -163v93h28q29 0 36.5 15.5t7.5 62.5v322q0 37 -1 54t-5 38t-15 29.5t-29 8.5q-19 0 -32 -9t-19.5 -20.5t-10 -35.5t-4 -41.5t-0.5 -49.5v-292h-154v538h154v-65q36 80 133 80q74 0 105.5 -41.5t31.5 -140.5v-372q0 -105 -41.5 -139.5t-142.5 -34.5h-42z" />
    <glyph glyph-name="Omacron" unicode="&#x14c;" horiz-adv-x="570" 
d="M167 783v103h252v-103h-252zM285 629q-20 0 -35 -6.5t-24 -23.5t-14 -33t-7.5 -49.5t-3 -57.5t-0.5 -72v-47q0 -48 0.5 -72t3 -57.5t7.5 -49.5t14 -33t24 -23.5t35 -6.5t35 6.5t24 23.5t14 33t7.5 49.5t3 57.5t0.5 72v47q0 48 -0.5 72t-3 57.5t-7.5 49.5t-14 33t-24 23.5
t-35 6.5zM285 -12q-142 0 -197.5 76.5t-55.5 247.5v103q0 170 55.5 247t197.5 77q141 0 197 -77t56 -247v-103q0 -171 -56 -247.5t-197 -76.5z" />
    <glyph glyph-name="omacron" unicode="&#x14d;" horiz-adv-x="498" 
d="M135 612v101h252v-101h-252zM249 456q-41 0 -52 -36t-11 -125v-47q0 -89 11 -125t52 -36t52 36t11 125v47q0 89 -11 125t-52 36zM249 -12q-113 0 -166.5 60t-53.5 182v83q0 122 53.5 182t166.5 60t166.5 -60t53.5 -182v-83q0 -122 -53.5 -182t-166.5 -60z" />
    <glyph glyph-name="Obreve" unicode="&#x14e;" horiz-adv-x="570" 
d="M285 629q-20 0 -35 -6.5t-24 -23.5t-14 -33t-7.5 -49.5t-3 -57.5t-0.5 -72v-47q0 -48 0.5 -72t3 -57.5t7.5 -49.5t14 -33t24 -23.5t35 -6.5t35 6.5t24 23.5t14 33t7.5 49.5t3 57.5t0.5 72v47q0 48 -0.5 72t-3 57.5t-7.5 49.5t-14 33t-24 23.5t-35 6.5zM285 -12
q-142 0 -197.5 76.5t-55.5 247.5v103q0 170 55.5 247t197.5 77q141 0 197 -77t56 -247v-103q0 -171 -56 -247.5t-197 -76.5zM294 769q-76 0 -115 28.5t-44 88.5h107q2 -26 14.5 -36t37.5 -10q27 0 38.5 10t13.5 36h107q-5 -60 -44 -88.5t-115 -28.5z" />
    <glyph glyph-name="obreve" unicode="&#x14f;" horiz-adv-x="498" 
d="M249 456q-41 0 -52 -36t-11 -125v-47q0 -89 11 -125t52 -36t52 36t11 125v47q0 89 -11 125t-52 36zM249 -12q-113 0 -166.5 60t-53.5 182v83q0 122 53.5 182t166.5 60t166.5 -60t53.5 -182v-83q0 -122 -53.5 -182t-166.5 -60zM249 602q-146 0 -146 123h103
q0 -28 10.5 -37.5t32.5 -9.5t32.5 9.5t10.5 37.5h103q0 -60 -34 -91.5t-112 -31.5z" />
    <glyph glyph-name="Ohungarumlaut" unicode="&#x150;" horiz-adv-x="570" 
d="M285 629q-20 0 -35 -6.5t-24 -23.5t-14 -33t-7.5 -49.5t-3 -57.5t-0.5 -72v-47q0 -48 0.5 -72t3 -57.5t7.5 -49.5t14 -33t24 -23.5t35 -6.5t35 6.5t24 23.5t14 33t7.5 49.5t3 57.5t0.5 72v47q0 48 -0.5 72t-3 57.5t-7.5 49.5t-14 33t-24 23.5t-35 6.5zM285 -12
q-142 0 -197.5 76.5t-55.5 247.5v103q0 170 55.5 247t197.5 77q141 0 197 -77t56 -247v-103q0 -171 -56 -247.5t-197 -76.5zM325 773l55 113h178l-121 -113h-112zM122 773l55 113h178l-121 -113h-112z" />
    <glyph glyph-name="ohungarumlaut" unicode="&#x151;" horiz-adv-x="498" 
d="M249 456q-41 0 -52 -36t-11 -125v-47q0 -89 11 -125t52 -36t52 36t11 125v47q0 89 -11 125t-52 36zM249 -12q-113 0 -166.5 60t-53.5 182v83q0 122 53.5 182t166.5 60t166.5 -60t53.5 -182v-83q0 -122 -53.5 -182t-166.5 -60zM103 602l62 123h174l-142 -123h-94zM303 602
l62 123h174l-142 -123h-94z" />
    <glyph glyph-name="OE" unicode="&#x152;" horiz-adv-x="805" 
d="M285 629q-20 0 -35 -6.5t-24 -23.5t-14 -33t-7.5 -49.5t-3 -57.5t-0.5 -72v-47q0 -48 0.5 -72t3 -57.5t7.5 -49.5t14 -33t24 -23.5t35 -6.5t35 6.5t24 23.5t14 33t7.5 49.5t3 57.5t0.5 72v47q0 48 -0.5 72t-3 57.5t-7.5 49.5t-14 33t-24 23.5t-35 6.5zM285 -12
q-142 0 -197.5 76.5t-55.5 247.5v103q0 170 55.5 247t197.5 77q141 0 197 -77t56 -247v-103q0 -171 -56 -247.5t-197 -76.5zM384 0v725h399v-116h-240v-180h219v-116h-219v-197h240v-116h-399z" />
    <glyph glyph-name="oe" unicode="&#x153;" horiz-adv-x="776" 
d="M248 -12q-113 0 -166 60t-53 182v83q0 122 53 182t166 60q87 0 143 -49q57 48 143 48q118 0 166.5 -64.5t48.5 -205.5v-29h-281v-25q0 -72 12.5 -107.5t51.5 -35.5q32 0 49 19t17 72v4h144v-5q0 -101 -61 -145t-151 -44q-80 0 -140 48q-55 -48 -142 -48zM248 87
q22 0 34.5 9.5t18.5 33.5t7.5 48t1.5 70v47q0 46 -1.5 70t-7.5 48t-18.5 33.5t-34.5 9.5q-41 0 -52 -36t-11 -125v-47q0 -89 11 -125t52 -36zM466 337h143v17q0 55 -16.5 79.5t-55.5 24.5q-40 0 -55.5 -24.5t-15.5 -80.5v-16z" />
    <glyph glyph-name="Racute" unicode="&#x154;" horiz-adv-x="564" 
d="M216 773l55 113h188l-131 -113h-112zM378 0l-98 313q-4 -1 -12 -1h-55v-312h-159v725h206q147 0 209.5 -42.5t62.5 -156.5q0 -72 -27.5 -114t-81.5 -64l119 -348h-164zM213 409h46q66 0 86.5 20t20.5 84t-20.5 85t-86.5 21h-46v-210z" />
    <glyph glyph-name="racute" unicode="&#x155;" horiz-adv-x="338" 
d="M136 602l62 123h174l-142 -123h-94zM43 0v538h152v-121q11 51 39 86t75 35h19v-157h-40q-56 0 -73.5 -19t-17.5 -87v-275h-154z" />
    <glyph glyph-name="uni0156" unicode="&#x156;" horiz-adv-x="564" 
d="M233 -246l38 96h-35v100h118v-107l-44 -89h-77zM378 0l-98 313q-4 -1 -12 -1h-55v-312h-159v725h206q147 0 209.5 -42.5t62.5 -156.5q0 -72 -27.5 -114t-81.5 -64l119 -348h-164zM213 409h46q66 0 86.5 20t20.5 84t-20.5 85t-86.5 21h-46v-210z" />
    <glyph glyph-name="uni0157" unicode="&#x157;" horiz-adv-x="338" 
d="M58 -246l38 96h-35v100h118v-107l-44 -89h-77zM43 0v538h152v-121q11 51 39 86t75 35h19v-157h-40q-56 0 -73.5 -19t-17.5 -87v-275h-154z" />
    <glyph glyph-name="Rcaron" unicode="&#x158;" horiz-adv-x="564" 
d="M349 773h-140l-118 113h138l50 -49l50 49h138zM378 0l-98 313q-4 -1 -12 -1h-55v-312h-159v725h206q147 0 209.5 -42.5t62.5 -156.5q0 -72 -27.5 -114t-81.5 -64l119 -348h-164zM213 409h46q66 0 86.5 20t20.5 84t-20.5 85t-86.5 21h-46v-210z" />
    <glyph glyph-name="rcaron" unicode="&#x159;" horiz-adv-x="338" 
d="M121 602l-122 123h118l67 -52l67 52h117l-119 -123h-128zM43 0v538h152v-121q11 51 39 86t75 35h19v-157h-40q-56 0 -73.5 -19t-17.5 -87v-275h-154z" />
    <glyph glyph-name="Sacute" unicode="&#x15a;" horiz-adv-x="522" 
d="M268 -12q-244 0 -244 243v7h157v-7q0 -74 19 -105t68 -31q41 0 60 21.5t19 71.5q0 40 -21 65t-63 44l-62 28q-91 41 -130.5 88.5t-39.5 134.5q0 95 58.5 143t161.5 48q114 0 175.5 -51t61.5 -167v-4h-155v4q0 62 -20 87.5t-63 25.5q-66 0 -66 -81q0 -65 55 -88l70 -32
q49 -22 77.5 -38t59 -42t44 -61.5t13.5 -83.5q0 -110 -60.5 -165t-174.5 -55zM195 773l55 113h188l-131 -113h-112z" />
    <glyph glyph-name="sacute" unicode="&#x15b;" horiz-adv-x="459" 
d="M169 602l62 123h174l-142 -123h-94zM237 -12q-104 0 -159.5 50.5t-55.5 138.5v3h140v-4q0 -42 19.5 -65.5t55.5 -23.5q64 0 64 53q0 28 -14.5 43.5t-51.5 28.5l-81 31q-64 25 -95 60.5t-30 95.5q0 78 56.5 117t144.5 39q53 0 95 -15.5t71 -56t29 -102.5v-2h-136v2
q0 41 -20 58.5t-49 17.5q-25 -1 -40 -13.5t-15 -34.5q0 -25 11 -37.5t35 -21.5l74 -30q41 -16 63 -26.5t46.5 -29.5t34.5 -45.5t10 -64.5q0 -81 -56.5 -123.5t-145.5 -42.5z" />
    <glyph glyph-name="Scircumflex" unicode="&#x15c;" horiz-adv-x="522" 
d="M80 773l118 113h140l118 -113h-138l-50 49l-50 -49h-138zM268 -12q-244 0 -244 243v7h157v-7q0 -74 19 -105t68 -31q41 0 60 21.5t19 71.5q0 40 -21 65t-63 44l-62 28q-91 41 -130.5 88.5t-39.5 134.5q0 95 58.5 143t161.5 48q114 0 175.5 -51t61.5 -167v-4h-155v4
q0 62 -20 87.5t-63 25.5q-66 0 -66 -81q0 -65 55 -88l70 -32q49 -22 77.5 -38t59 -42t44 -61.5t13.5 -83.5q0 -110 -60.5 -165t-174.5 -55z" />
    <glyph glyph-name="scircumflex" unicode="&#x15d;" horiz-adv-x="459" 
d="M43 602l120 123h130l120 -123h-118l-67 52l-67 -52h-118zM237 -12q-104 0 -159.5 50.5t-55.5 138.5v3h140v-4q0 -42 19.5 -65.5t55.5 -23.5q64 0 64 53q0 28 -14.5 43.5t-51.5 28.5l-81 31q-64 25 -95 60.5t-30 95.5q0 78 56.5 117t144.5 39q53 0 95 -15.5t71 -56
t29 -102.5v-2h-136v2q0 41 -20 58.5t-49 17.5q-25 -1 -40 -13.5t-15 -34.5q0 -25 11 -37.5t35 -21.5l74 -30q41 -16 63 -26.5t46.5 -29.5t34.5 -45.5t10 -64.5q0 -81 -56.5 -123.5t-145.5 -42.5z" />
    <glyph glyph-name="Scedilla" unicode="&#x15e;" horiz-adv-x="522" 
d="M268 -12q-244 0 -244 243v7h157v-7q0 -74 19 -105t68 -31q41 0 60 21.5t19 71.5q0 40 -21 65t-63 44l-62 28q-91 41 -130.5 88.5t-39.5 134.5q0 95 58.5 143t161.5 48q114 0 175.5 -51t61.5 -167v-4h-155v4q0 62 -20 87.5t-63 25.5q-66 0 -66 -81q0 -65 55 -88l70 -32
q49 -22 77.5 -38t59 -42t44 -61.5t13.5 -83.5q0 -110 -60.5 -165t-174.5 -55zM266 -194q-53 0 -95 15l17 51q26 -14 63 -14q51 0 51 29q0 28 -39 28q-25 0 -39 -9l-30 17l51 83h58l-32 -52q12 4 38 4q35 0 60.5 -18t25.5 -50q0 -41 -38 -62.5t-91 -21.5z" />
    <glyph glyph-name="scedilla" unicode="&#x15f;" horiz-adv-x="459" 
d="M237 -12q-104 0 -159.5 50.5t-55.5 138.5v3h140v-4q0 -42 19.5 -65.5t55.5 -23.5q64 0 64 53q0 28 -14.5 43.5t-51.5 28.5l-81 31q-64 25 -95 60.5t-30 95.5q0 78 56.5 117t144.5 39q53 0 95 -15.5t71 -56t29 -102.5v-2h-136v2q0 41 -20 58.5t-49 17.5q-25 -1 -40 -13.5
t-15 -34.5q0 -25 11 -37.5t35 -21.5l74 -30q41 -16 63 -26.5t46.5 -29.5t34.5 -45.5t10 -64.5q0 -81 -56.5 -123.5t-145.5 -42.5zM228 -194q-53 0 -95 15l17 51q26 -14 63 -14q51 0 51 29q0 28 -39 28q-25 0 -39 -9l-30 17l51 83h58l-32 -52q12 4 38 4q34 0 60 -18t26 -50
q0 -41 -38 -62.5t-91 -21.5z" />
    <glyph glyph-name="Scaron" unicode="&#x160;" horiz-adv-x="522" 
d="M331 773h-140l-118 113h138l50 -49l50 49h138zM268 -12q-244 0 -244 243v7h157v-7q0 -74 19 -105t68 -31q41 0 60 21.5t19 71.5q0 40 -21 65t-63 44l-62 28q-91 41 -130.5 88.5t-39.5 134.5q0 95 58.5 143t161.5 48q114 0 175.5 -51t61.5 -167v-4h-155v4q0 62 -20 87.5
t-63 25.5q-66 0 -66 -81q0 -65 55 -88l70 -32q49 -22 77.5 -38t59 -42t44 -61.5t13.5 -83.5q0 -110 -60.5 -165t-174.5 -55z" />
    <glyph glyph-name="scaron" unicode="&#x161;" horiz-adv-x="459" 
d="M169 602l-122 123h118l67 -52l67 52h117l-119 -123h-128zM237 -12q-104 0 -159.5 50.5t-55.5 138.5v3h140v-4q0 -42 19.5 -65.5t55.5 -23.5q64 0 64 53q0 28 -14.5 43.5t-51.5 28.5l-81 31q-64 25 -95 60.5t-30 95.5q0 78 56.5 117t144.5 39q53 0 95 -15.5t71 -56
t29 -102.5v-2h-136v2q0 41 -20 58.5t-49 17.5q-25 -1 -40 -13.5t-15 -34.5q0 -25 11 -37.5t35 -21.5l74 -30q41 -16 63 -26.5t46.5 -29.5t34.5 -45.5t10 -64.5q0 -81 -56.5 -123.5t-145.5 -42.5z" />
    <glyph glyph-name="uni0162" unicode="&#x162;" horiz-adv-x="477" 
d="M176 -246l38 96h-35v100h118v-107l-44 -89h-77zM159 0v609h-148v116h455v-116h-148v-609h-159z" />
    <glyph glyph-name="uni0163" unicode="&#x163;" horiz-adv-x="312" 
d="M104 -246l38 96h-35v100h118v-107l-44 -89h-77zM309 0h-110q-79 0 -107 31.5t-28 113.5v298h-64v95h64v146h154v-146h91v-95h-91v-283q0 -40 11 -52.5t41 -12.5h39v-95z" />
    <glyph glyph-name="Tcaron" unicode="&#x164;" horiz-adv-x="477" 
d="M159 0v609h-148v116h455v-116h-148v-609h-159zM308 773h-140l-118 113h138l50 -49l50 49h138z" />
    <glyph glyph-name="tcaron" unicode="&#x165;" horiz-adv-x="450" 
d="M293 555l25 170h142l-65 -170h-102zM309 0h-110q-79 0 -107 31.5t-28 113.5v298h-64v95h64v146h154v-146h91v-95h-91v-283q0 -40 11 -52.5t41 -12.5h39v-95z" />
    <glyph glyph-name="Tbar" unicode="&#x166;" horiz-adv-x="477" 
d="M11 308v116h148v185h-148v116h455v-116h-148v-185h148v-116h-148v-308h-159v308h-148z" />
    <glyph glyph-name="tbar" unicode="&#x167;" horiz-adv-x="335" 
d="M0 264v102h64v77h-64v95h64v146h154v-146h91v-95h-91v-77h91v-102h-91v-104q0 -40 11 -52.5t41 -12.5h39v-95h-110q-79 0 -107 31.5t-28 113.5v119h-64z" />
    <glyph glyph-name="Utilde" unicode="&#x168;" horiz-adv-x="560" 
d="M332 861q30 0 31 33h83q-4 -56 -33 -89.5t-72 -33.5q-20 0 -57 16.5t-54 16.5q-30 0 -31 -33h-83q4 56 33 89.5t72 33.5q25 0 62 -16.5t49 -16.5zM280 -12q-77 0 -122 13t-71 50t-34.5 90t-8.5 145v439h159v-439v-9q0 -46 0.5 -66.5t4.5 -47.5t12 -38t22.5 -19t37.5 -8
t37.5 8t22.5 18.5t12 38t4.5 48t0.5 66.5v9v439h159v-431q0 -76 -5.5 -124.5t-19.5 -86.5t-41.5 -57t-67.5 -28.5t-102 -9.5z" />
    <glyph glyph-name="utilde" unicode="&#x169;" horiz-adv-x="492" 
d="M182 -11q-77 0 -109.5 46t-32.5 149v354h154v-313q0 -34 1 -51t4.5 -39t13.5 -31.5t26 -9.5q20 0 32 11t17 37t6 46t1 62v288h154v-538h-149v72q-37 -83 -118 -83zM307 692q29 0 31 33h83q-4 -56 -33 -89.5t-72 -33.5q-20 0 -57 16.5t-54 16.5q-29 0 -31 -33h-83
q4 56 33 89.5t72 33.5q25 0 62 -16.5t49 -16.5z" />
    <glyph glyph-name="Umacron" unicode="&#x16a;" horiz-adv-x="560" 
d="M155 783v103h252v-103h-252zM280 -12q-77 0 -122 13t-71 50t-34.5 90t-8.5 145v439h159v-439v-9q0 -46 0.5 -66.5t4.5 -47.5t12 -38t22.5 -19t37.5 -8t37.5 8t22.5 18.5t12 38t4.5 48t0.5 66.5v9v439h159v-431q0 -76 -5.5 -124.5t-19.5 -86.5t-41.5 -57t-67.5 -28.5
t-102 -9.5z" />
    <glyph glyph-name="umacron" unicode="&#x16b;" horiz-adv-x="492" 
d="M116 612v101h252v-101h-252zM182 -11q-77 0 -109.5 46t-32.5 149v354h154v-313q0 -34 1 -51t4.5 -39t13.5 -31.5t26 -9.5q20 0 32 11t17 37t6 46t1 62v288h154v-538h-149v72q-37 -83 -118 -83z" />
    <glyph glyph-name="Ubreve" unicode="&#x16c;" horiz-adv-x="560" 
d="M281 769q-76 0 -115 28.5t-44 88.5h107q2 -26 14.5 -36t37.5 -10q27 0 38.5 10t13.5 36h107q-5 -60 -44 -88.5t-115 -28.5zM280 -12q-77 0 -122 13t-71 50t-34.5 90t-8.5 145v439h159v-439v-9q0 -46 0.5 -66.5t4.5 -47.5t12 -38t22.5 -19t37.5 -8t37.5 8t22.5 18.5t12 38
t4.5 48t0.5 66.5v9v439h159v-431q0 -76 -5.5 -124.5t-19.5 -86.5t-41.5 -57t-67.5 -28.5t-102 -9.5z" />
    <glyph glyph-name="ubreve" unicode="&#x16d;" horiz-adv-x="492" 
d="M246 602q-146 0 -146 123h103q0 -28 10.5 -37.5t32.5 -9.5t32.5 9.5t10.5 37.5h103q0 -60 -34 -91.5t-112 -31.5zM182 -11q-77 0 -109.5 46t-32.5 149v354h154v-313q0 -34 1 -51t4.5 -39t13.5 -31.5t26 -9.5q20 0 32 11t17 37t6 46t1 62v288h154v-538h-149v72
q-37 -83 -118 -83z" />
    <glyph glyph-name="Uring" unicode="&#x16e;" horiz-adv-x="560" 
d="M281 808q18 0 30.5 12t12.5 30t-12.5 30.5t-30.5 12.5t-30.5 -12.5t-12.5 -30.5t12.5 -30t30.5 -12zM281 765q-38 0 -64 24t-26 61q0 36 26.5 60.5t63.5 24.5t63.5 -24.5t26.5 -60.5q0 -37 -26 -61t-64 -24zM280 -12q-77 0 -122 13t-71 50t-34.5 90t-8.5 145v439h159
v-439v-9q0 -46 0.5 -66.5t4.5 -47.5t12 -38t22.5 -19t37.5 -8t37.5 8t22.5 18.5t12 38t4.5 48t0.5 66.5v9v439h159v-431q0 -76 -5.5 -124.5t-19.5 -86.5t-41.5 -57t-67.5 -28.5t-102 -9.5z" />
    <glyph glyph-name="uring" unicode="&#x16f;" horiz-adv-x="492" 
d="M246 638q17 0 29 11.5t12 28.5q0 18 -12 29.5t-29 11.5t-29 -11.5t-12 -29.5q0 -17 12 -28.5t29 -11.5zM246 589q-40 0 -67.5 25t-27.5 64t27.5 64.5t67.5 25.5t67.5 -25.5t27.5 -64.5t-27.5 -64t-67.5 -25zM182 -11q-77 0 -109.5 46t-32.5 149v354h154v-313q0 -34 1 -51
t4.5 -39t13.5 -31.5t26 -9.5q20 0 32 11t17 37t6 46t1 62v288h154v-538h-149v72q-37 -83 -118 -83z" />
    <glyph glyph-name="Uhungarumlaut" unicode="&#x170;" horiz-adv-x="560" 
d="M280 -12q-77 0 -122 13t-71 50t-34.5 90t-8.5 145v439h159v-439v-9q0 -46 0.5 -66.5t4.5 -47.5t12 -38t22.5 -19t37.5 -8t37.5 8t22.5 18.5t12 38t4.5 48t0.5 66.5v9v439h159v-431q0 -76 -5.5 -124.5t-19.5 -86.5t-41.5 -57t-67.5 -28.5t-102 -9.5zM320 773l55 113h178
l-121 -113h-112zM117 773l55 113h178l-121 -113h-112z" />
    <glyph glyph-name="uhungarumlaut" unicode="&#x171;" horiz-adv-x="492" 
d="M182 -11q-77 0 -109.5 46t-32.5 149v354h154v-313q0 -34 1 -51t4.5 -39t13.5 -31.5t26 -9.5q20 0 32 11t17 37t6 46t1 62v288h154v-538h-149v72q-37 -83 -118 -83zM91 602l62 123h174l-142 -123h-94zM291 602l62 123h174l-142 -123h-94z" />
    <glyph glyph-name="Uogonek" unicode="&#x172;" horiz-adv-x="560" 
d="M280 -12q-77 0 -122 13t-71 50t-34.5 90t-8.5 145v439h159v-439v-9q0 -46 0.5 -66.5t4.5 -47.5t12 -38t22.5 -19t37.5 -8t37.5 8t22.5 18.5t12 38t4.5 48t0.5 66.5v9v439h159v-431q0 -76 -5.5 -124.5t-19.5 -86.5t-41.5 -57t-67.5 -28.5t-102 -9.5zM281 -188
q-59 0 -98.5 23t-39.5 70q0 28 17 54t42 41h161q-47 -22 -68 -37t-21 -35q0 -33 44 -33q22 0 45 7v-82q-43 -8 -82 -8z" />
    <glyph glyph-name="uogonek" unicode="&#x173;" horiz-adv-x="492" 
d="M182 -11q-77 0 -109.5 46t-32.5 149v354h154v-313q0 -34 1 -51t4.5 -39t13.5 -31.5t26 -9.5q20 0 32 11t17 37t6 46t1 62v288h154v-538q-32 -15 -46.5 -23t-27.5 -21t-13 -28q0 -33 44 -33q18 0 42 6v-81q-40 -8 -79 -8q-59 0 -98.5 23t-39.5 70q0 59 70 95h-1v72
q-37 -83 -118 -83z" />
    <glyph glyph-name="Wcircumflex" unicode="&#x174;" horiz-adv-x="730" 
d="M175 773l118 113h140l118 -113h-138l-50 49l-50 -49h-138zM102 0l-91 725h144l57 -550l86 550h134l86 -550l57 550h144l-91 -725h-180l-83 548l-83 -548h-180z" />
    <glyph glyph-name="wcircumflex" unicode="&#x175;" horiz-adv-x="602" 
d="M116 602l120 123h130l120 -123h-118l-67 52l-67 -52h-118zM81 0l-61 538h128l30 -372l52 372h141l53 -371l30 371h128l-61 -538h-165l-55 408l-56 -408h-164z" />
    <glyph glyph-name="Ycircumflex" unicode="&#x176;" horiz-adv-x="520" 
d="M71 773l118 113h140l118 -113h-138l-50 49l-50 -49h-138zM178 0v303l-178 422h161l99 -282l102 282h158l-183 -424v-301h-159z" />
    <glyph glyph-name="ycircumflex" unicode="&#x177;" horiz-adv-x="430" 
d="M31 602l120 123h130l120 -123h-118l-67 52l-67 -52h-118zM43 -175v95h38q33 0 48 13.5t20 43.5l5 26l-154 535h150l77 -389l63 389h140l-126 -538q-24 -104 -64.5 -139.5t-133.5 -35.5h-63z" />
    <glyph glyph-name="Ydieresis" unicode="&#x178;" horiz-adv-x="520" 
d="M93 773v113h134v-113h-134zM293 773v113h134v-113h-134zM178 0v303l-178 422h161l99 -282l102 282h158l-183 -424v-301h-159z" />
    <glyph glyph-name="Zacute" unicode="&#x179;" horiz-adv-x="514" 
d="M190 773l55 113h188l-131 -113h-112zM22 0v107l281 502h-250v116h424v-106l-282 -503h292v-116h-465z" />
    <glyph glyph-name="zacute" unicode="&#x17a;" horiz-adv-x="424" 
d="M167 602l62 123h174l-142 -123h-94zM22 0v95l213 348h-190v95h349v-95l-213 -348h221v-95h-380z" />
    <glyph glyph-name="Zdotaccent" unicode="&#x17b;" horiz-adv-x="514" 
d="M187 773v113h160v-113h-160zM22 0v107l281 502h-250v116h424v-106l-282 -503h292v-116h-465z" />
    <glyph glyph-name="zdotaccent" unicode="&#x17c;" horiz-adv-x="424" 
d="M165 602v123h134v-123h-134zM22 0v95l213 348h-190v95h349v-95l-213 -348h221v-95h-380z" />
    <glyph glyph-name="Zcaron" unicode="&#x17d;" horiz-adv-x="514" 
d="M343 773h-140l-118 113h138l50 -49l50 49h138zM22 0v107l281 502h-250v116h424v-106l-282 -503h292v-116h-465z" />
    <glyph glyph-name="zcaron" unicode="&#x17e;" horiz-adv-x="424" 
d="M167 602l-122 123h118l67 -52l67 52h117l-119 -123h-128zM22 0v95l213 348h-190v95h349v-95l-213 -348h221v-95h-380z" />
    <glyph glyph-name="uni018F" unicode="&#x18f;" horiz-adv-x="574" 
d="M288 -12q-143 0 -199.5 76.5t-56.5 249.5v86h343v8q0 43 -0.5 66t-3 53t-8 45t-15 30t-24.5 21t-36 6q-30 0 -49 -12t-26 -36.5t-9 -42.5t-2 -49v-8h-165v8q0 117 57 183.5t194 66.5q142 0 197.5 -77t55.5 -247v-102q0 -172 -55.5 -248.5t-197.5 -76.5zM288 98
q55 0 71 42t16 135v15h-175v-10q0 -89 19 -135.5t69 -46.5z" />
    <glyph glyph-name="uni0218" unicode="&#x218;" horiz-adv-x="522" 
d="M268 -12q-244 0 -244 243v7h157v-7q0 -74 19 -105t68 -31q41 0 60 21.5t19 71.5q0 40 -21 65t-63 44l-62 28q-91 41 -130.5 88.5t-39.5 134.5q0 95 58.5 143t161.5 48q114 0 175.5 -51t61.5 -167v-4h-155v4q0 62 -20 87.5t-63 25.5q-66 0 -66 -81q0 -65 55 -88l70 -32
q49 -22 77.5 -38t59 -42t44 -61.5t13.5 -83.5q0 -110 -60.5 -165t-174.5 -55zM204 -246l38 96h-35v100h118v-107l-44 -89h-77z" />
    <glyph glyph-name="uni0219" unicode="&#x219;" horiz-adv-x="459" 
d="M166 -246l38 96h-35v100h118v-107l-44 -89h-77zM237 -12q-104 0 -159.5 50.5t-55.5 138.5v3h140v-4q0 -42 19.5 -65.5t55.5 -23.5q64 0 64 53q0 28 -14.5 43.5t-51.5 28.5l-81 31q-64 25 -95 60.5t-30 95.5q0 78 56.5 117t144.5 39q53 0 95 -15.5t71 -56t29 -102.5v-2
h-136v2q0 41 -20 58.5t-49 17.5q-25 -1 -40 -13.5t-15 -34.5q0 -25 11 -37.5t35 -21.5l74 -30q41 -16 63 -26.5t46.5 -29.5t34.5 -45.5t10 -64.5q0 -81 -56.5 -123.5t-145.5 -42.5z" />
    <glyph glyph-name="uni021A" unicode="&#x21a;" horiz-adv-x="477" 
d="M176 -246l38 96h-35v100h118v-107l-44 -89h-77zM159 0v609h-148v116h455v-116h-148v-609h-159z" />
    <glyph glyph-name="uni021B" unicode="&#x21b;" horiz-adv-x="312" 
d="M104 -246l38 96h-35v100h118v-107l-44 -89h-77zM309 0h-110q-79 0 -107 31.5t-28 113.5v298h-64v95h64v146h154v-146h91v-95h-91v-283q0 -40 11 -52.5t41 -12.5h39v-95z" />
    <glyph glyph-name="uni0232" unicode="&#x232;" horiz-adv-x="520" 
d="M134 783v103h252v-103h-252zM178 0v303l-178 422h161l99 -282l102 282h158l-183 -424v-301h-159z" />
    <glyph glyph-name="uni0233" unicode="&#x233;" horiz-adv-x="430" 
d="M93 612v101h252v-101h-252zM43 -175v95h38q33 0 48 13.5t20 43.5l5 26l-154 535h150l77 -389l63 389h140l-126 -538q-24 -104 -64.5 -139.5t-133.5 -35.5h-63z" />
    <glyph glyph-name="uni0237" unicode="&#x237;" horiz-adv-x="240" 
d="M-29 -175v93h28q29 0 36.5 15.5t7.5 62.5v542h154v-533q0 -108 -41 -144t-143 -36h-42z" />
    <glyph glyph-name="uni0259" unicode="&#x259;" horiz-adv-x="500" 
d="M214 -11q-118 0 -166.5 64.5t-48.5 205.5v29h283v7q0 87 -12.5 124t-53.5 37q-32 0 -49 -19t-17 -72v-4h-144v5q0 52 18 90.5t49.5 59t67 30t77.5 9.5q112 0 164 -60.5t52 -179.5v-88q0 -238 -220 -238zM211 85q40 0 55.5 25.5t15.5 86.5v9h-142v-9q0 -62 15 -87t56 -25z
" />
    <glyph glyph-name="circumflex" unicode="&#x2c6;" horiz-adv-x="414" 
d="M22 602l120 123h130l120 -123h-118l-67 52l-67 -52h-118z" />
    <glyph glyph-name="caron" unicode="&#x2c7;" horiz-adv-x="412" 
d="M144 602l-122 123h118l67 -52l67 52h117l-119 -123h-128z" />
    <glyph glyph-name="breve" unicode="&#x2d8;" horiz-adv-x="336" 
d="M168 602q-146 0 -146 123h103q0 -28 10.5 -37.5t32.5 -9.5t32.5 9.5t10.5 37.5h103q0 -60 -34 -91.5t-112 -31.5z" />
    <glyph glyph-name="dotaccent" unicode="&#x2d9;" horiz-adv-x="177" 
d="M22 602v123h134v-123h-134z" />
    <glyph glyph-name="ring" unicode="&#x2da;" horiz-adv-x="233" 
d="M117 638q17 0 29 11.5t12 28.5q0 18 -12 29.5t-29 11.5t-29 -11.5t-12 -29.5q0 -17 12 -28.5t29 -11.5zM117 589q-40 0 -67.5 25t-27.5 64t27.5 64.5t67.5 25.5t67.5 -25.5t27.5 -64.5t-27.5 -64t-67.5 -25z" />
    <glyph glyph-name="ogonek" unicode="&#x2db;" horiz-adv-x="262" 
d="M160 -188q-59 0 -98.5 23t-39.5 70q0 29 18.5 54t50.5 41h149q-32 -15 -46.5 -23t-27.5 -21t-13 -28q0 -33 44 -33q18 0 42 6v-81q-40 -8 -79 -8z" />
    <glyph glyph-name="tilde" unicode="&#x2dc;" horiz-adv-x="374" 
d="M238 692q30 0 31 33h83q-4 -56 -33 -89.5t-72 -33.5q-20 0 -57 16.5t-54 16.5q-30 0 -31 -33h-83q4 56 33 89.5t72 33.5q25 0 62 -16.5t49 -16.5z" />
    <glyph glyph-name="hungarumlaut" unicode="&#x2dd;" horiz-adv-x="480" 
d="M22 602l62 123h174l-142 -123h-94zM222 602l62 123h174l-142 -123h-94z" />
    <glyph glyph-name="uni032C" unicode="&#x32c;" horiz-adv-x="440" 
d="M180 -128l-158 138h121l76 -52l80 52h119l-161 -138h-77z" />
    <glyph glyph-name="uni0394" unicode="&#x394;" horiz-adv-x="650" 
d="M186 122h277l-138 332zM0 0l325 749l325 -749h-650z" />
    <glyph glyph-name="uni0394" unicode="&#x2206;" horiz-adv-x="650" 
d="M186 122h277l-138 332zM0 0l325 749l325 -749h-650z" />
    <glyph glyph-name="uni03A9" unicode="&#x3a9;" horiz-adv-x="710" 
d="M54 0v130h150v44q-66 30 -109 94.5t-43 166.5q0 144 80.5 223t222.5 79t222.5 -79t80.5 -223q0 -102 -43 -166.5t-109 -94.5v-44h150v-130h-269v249q61 18 95 64.5t34 117.5q0 94 -42.5 142.5t-118.5 48.5t-118.5 -48.5t-42.5 -142.5q0 -71 34 -117.5t95 -64.5v-249h-269
z" />
    <glyph glyph-name="uni03A9" unicode="&#x2126;" horiz-adv-x="710" 
d="M54 0v130h150v44q-66 30 -109 94.5t-43 166.5q0 144 80.5 223t222.5 79t222.5 -79t80.5 -223q0 -102 -43 -166.5t-109 -94.5v-44h150v-130h-269v249q61 18 95 64.5t34 117.5q0 94 -42.5 142.5t-118.5 48.5t-118.5 -48.5t-42.5 -142.5q0 -71 34 -117.5t95 -64.5v-249h-269
z" />
    <glyph glyph-name="pi" unicode="&#x3c0;" horiz-adv-x="547" 
d="M87 0v417h-65v121h492v-121h-64v-244q0 -41 8 -52t41 -11h27v-110h-43q-93 0 -125 31t-32 129v257h-114v-417h-125z" />
    <glyph glyph-name="Wgrave" unicode="&#x1e80;" horiz-adv-x="730" 
d="M312 773l-131 113h188l55 -113h-112zM102 0l-91 725h144l57 -550l86 550h134l86 -550l57 550h144l-91 -725h-180l-83 548l-83 -548h-180z" />
    <glyph glyph-name="wgrave" unicode="&#x1e81;" horiz-adv-x="602" 
d="M264 602l-142 123h174l62 -123h-94zM81 0l-61 538h128l30 -372l52 372h141l53 -371l30 371h128l-61 -538h-165l-55 408l-56 -408h-164z" />
    <glyph glyph-name="Wacute" unicode="&#x1e82;" horiz-adv-x="730" 
d="M307 773l55 113h188l-131 -113h-112zM102 0l-91 725h144l57 -550l86 550h134l86 -550l57 550h144l-91 -725h-180l-83 548l-83 -548h-180z" />
    <glyph glyph-name="wacute" unicode="&#x1e83;" horiz-adv-x="602" 
d="M254 602l62 123h174l-142 -123h-94zM81 0l-61 538h128l30 -372l52 372h141l53 -371l30 371h128l-61 -538h-165l-55 408l-56 -408h-164z" />
    <glyph glyph-name="Wdieresis" unicode="&#x1e84;" horiz-adv-x="730" 
d="M198 773v113h134v-113h-134zM398 773v113h134v-113h-134zM102 0l-91 725h144l57 -550l86 550h134l86 -550l57 550h144l-91 -725h-180l-83 548l-83 -548h-180z" />
    <glyph glyph-name="wdieresis" unicode="&#x1e85;" horiz-adv-x="602" 
d="M136 602v123h134v-123h-134zM336 602v123h134v-123h-134zM81 0l-61 538h128l30 -372l52 372h141l53 -371l30 371h128l-61 -538h-165l-55 408l-56 -408h-164z" />
    <glyph glyph-name="uni1ECA" unicode="&#x1eca;" horiz-adv-x="267" 
d="M67 -175v118h134v-118h-134zM54 0v725h159v-725h-159z" />
    <glyph glyph-name="uni1ECB" unicode="&#x1ecb;" horiz-adv-x="240" 
d="M43 0v538h154v-538h-154zM43 597v128h154v-128h-154zM54 -175v118h134v-118h-134z" />
    <glyph glyph-name="uni1ECC" unicode="&#x1ecc;" horiz-adv-x="570" 
d="M228 -175v118h134v-118h-134zM285 629q-20 0 -35 -6.5t-24 -23.5t-14 -33t-7.5 -49.5t-3 -57.5t-0.5 -72v-47q0 -48 0.5 -72t3 -57.5t7.5 -49.5t14 -33t24 -23.5t35 -6.5t35 6.5t24 23.5t14 33t7.5 49.5t3 57.5t0.5 72v47q0 48 -0.5 72t-3 57.5t-7.5 49.5t-14 33
t-24 23.5t-35 6.5zM285 -12q-142 0 -197.5 76.5t-55.5 247.5v103q0 170 55.5 247t197.5 77q141 0 197 -77t56 -247v-103q0 -171 -56 -247.5t-197 -76.5z" />
    <glyph glyph-name="uni1ECD" unicode="&#x1ecd;" horiz-adv-x="498" 
d="M249 456q-41 0 -52 -36t-11 -125v-47q0 -89 11 -125t52 -36t52 36t11 125v47q0 89 -11 125t-52 36zM249 -12q-113 0 -166.5 60t-53.5 182v83q0 122 53.5 182t166.5 60t166.5 -60t53.5 -182v-83q0 -122 -53.5 -182t-166.5 -60zM183 -175v118h134v-118h-134z" />
    <glyph glyph-name="uni1EE4" unicode="&#x1ee4;" horiz-adv-x="560" 
d="M214 -175v118h134v-118h-134zM280 -12q-77 0 -122 13t-71 50t-34.5 90t-8.5 145v439h159v-439v-9q0 -46 0.5 -66.5t4.5 -47.5t12 -38t22.5 -19t37.5 -8t37.5 8t22.5 18.5t12 38t4.5 48t0.5 66.5v9v439h159v-431q0 -76 -5.5 -124.5t-19.5 -86.5t-41.5 -57t-67.5 -28.5
t-102 -9.5z" />
    <glyph glyph-name="uni1EE5" unicode="&#x1ee5;" horiz-adv-x="492" 
d="M176 -175v118h134v-118h-134zM182 -11q-77 0 -109.5 46t-32.5 149v354h154v-313q0 -34 1 -51t4.5 -39t13.5 -31.5t26 -9.5q20 0 32 11t17 37t6 46t1 62v288h154v-538h-149v72q-37 -83 -118 -83z" />
    <glyph glyph-name="Ygrave" unicode="&#x1ef2;" horiz-adv-x="520" 
d="M223 773l-131 113h188l55 -113h-112zM178 0v303l-178 422h161l99 -282l102 282h158l-183 -424v-301h-159z" />
    <glyph glyph-name="ygrave" unicode="&#x1ef3;" horiz-adv-x="430" 
d="M196 602l-142 123h174l62 -123h-94zM43 -175v95h38q33 0 48 13.5t20 43.5l5 26l-154 535h150l77 -389l63 389h140l-126 -538q-24 -104 -64.5 -139.5t-133.5 -35.5h-63z" />
    <glyph glyph-name="endash" unicode="&#x2013;" horiz-adv-x="499" 
d="M26 186v131h447v-131h-447z" />
    <glyph glyph-name="emdash" unicode="&#x2014;" horiz-adv-x="726" 
d="M26 186v131h674v-131h-674z" />
    <glyph glyph-name="quoteleft" unicode="&#x2018;" horiz-adv-x="238" 
d="M212 725l-82 -164h70v-154h-162v164l84 154h90z" />
    <glyph glyph-name="quoteright" unicode="&#x2019;" horiz-adv-x="238" 
d="M26 407l82 164h-70v154h162v-164l-84 -154h-90z" />
    <glyph glyph-name="quotesinglbase" unicode="&#x201a;" horiz-adv-x="238" 
d="M26 -164l82 164h-70v154h162v-164l-84 -154h-90z" />
    <glyph glyph-name="quotedblleft" unicode="&#x201c;" horiz-adv-x="450" 
d="M424 725l-82 -164h70v-154h-162v164l84 154h90zM212 725l-82 -164h70v-154h-162v164l84 154h90z" />
    <glyph glyph-name="quotedblright" unicode="&#x201d;" horiz-adv-x="450" 
d="M238 407l82 164h-70v154h162v-164l-84 -154h-90zM26 407l82 164h-70v154h162v-164l-84 -154h-90z" />
    <glyph glyph-name="quotedblbase" unicode="&#x201e;" horiz-adv-x="450" 
d="M238 -164l82 164h-70v154h162v-164l-84 -154h-90zM26 -164l82 164h-70v154h162v-164l-84 -154h-90z" />
    <glyph glyph-name="dagger" unicode="&#x2020;" horiz-adv-x="515" 
d="M188 0v397h-166v121h166v207h140v-207h166v-121h-166v-397h-140z" />
    <glyph glyph-name="daggerdbl" unicode="&#x2021;" horiz-adv-x="515" 
d="M188 0v181h-166v120h166v118h-166v120h166v186h140v-186h166v-120h-166v-118h166v-120h-166v-181h-140z" />
    <glyph glyph-name="bullet" unicode="&#x2022;" horiz-adv-x="447" 
d="M220 89q-73 0 -125 53t-52 130q0 73 52 125t125 52q78 0 131 -51.5t53 -125.5q0 -77 -53 -130t-131 -53z" />
    <glyph glyph-name="ellipsis" unicode="&#x2026;" horiz-adv-x="714" 
d="M276 0v155h162v-155h-162zM514 0v155h162v-155h-162zM38 0v155h162v-155h-162z" />
    <glyph glyph-name="perthousand" unicode="&#x2030;" horiz-adv-x="1099" 
d="M944 52q27 0 32.5 27.5t5.5 104.5v39v11q0 36 -0.5 52.5t-4 35.5t-11.5 26t-22 7q-15 0 -23.5 -7.5t-12 -29.5t-4 -38t-0.5 -57v-39q0 -41 0.5 -57t4 -38t12 -29.5t23.5 -7.5zM944 -8q-77 0 -105.5 42.5t-28.5 139.5v59q0 97 28.5 139.5t105.5 42.5q75 0 104.5 -43
t29.5 -139v-59q0 -96 -29.5 -139t-104.5 -43zM155 370q14 0 22 6.5t11.5 26t4 35t0.5 52.5v5.5v5.5v39v11q0 36 -0.5 52.5t-4 35.5t-11.5 26t-22 7q-15 0 -23.5 -7.5t-12 -29.5t-4 -38t-0.5 -57v-39q0 -93 10 -113q10 -17 30 -18zM155 310q-77 0 -105.5 42t-28.5 139v59
q0 97 28.5 139.5t105.5 42.5q75 0 104.5 -43t29.5 -139v-59q0 -96 -29 -138.5t-105 -42.5zM255 0l213 725h66l-213 -725h-66zM634 52q27 0 32.5 27.5t5.5 104.5v39v11q0 36 -0.5 52.5t-4 35.5t-11.5 26t-22 7q-15 0 -23.5 -7.5t-12 -29.5t-4 -38t-0.5 -57v-39q0 -41 0.5 -57
t4 -38t12 -29.5t23.5 -7.5zM634 -8q-77 0 -105.5 42.5t-28.5 139.5v59q0 97 28.5 139.5t105.5 42.5q75 0 104.5 -43t29.5 -139v-59q0 -96 -29.5 -139t-104.5 -43z" />
    <glyph glyph-name="guilsinglleft" unicode="&#x2039;" horiz-adv-x="211" 
d="M181 41l-151 151v180l151 148v-172l-73 -67l73 -67v-173z" />
    <glyph glyph-name="guilsinglright" unicode="&#x203a;" horiz-adv-x="211" 
d="M30 41v173l73 67l-73 67v172l151 -148v-180z" />
    <glyph glyph-name="fraction" unicode="&#x2044;" horiz-adv-x="169" 
d="M-55 0l213 725h66l-213 -725h-66z" />
    <glyph glyph-name="uni2070" unicode="&#x2070;" horiz-adv-x="309" 
d="M155 490q27 0 32.5 27.5t5.5 104.5v39v11q0 36 -0.5 52.5t-4 35.5t-11.5 26t-22 7q-15 0 -23.5 -7.5t-12 -29.5t-4 -38t-0.5 -57v-39q0 -41 0.5 -57t4 -38t12 -29.5t23.5 -7.5zM155 430q-77 0 -105.5 42.5t-28.5 139.5v59q0 97 28.5 139.5t105.5 42.5q75 0 104.5 -43
t29.5 -139v-59q0 -96 -29.5 -139t-104.5 -43z" />
    <glyph glyph-name="uni2074" unicode="&#x2074;" horiz-adv-x="304" 
d="M158 438v96h-146v65l141 247h90v-240h49v-72h-49v-96h-85zM82 606h76v127z" />
    <glyph glyph-name="uni2075" unicode="&#x2075;" horiz-adv-x="288" 
d="M141 430q-124 0 -124 121v2h89v-2q0 -31 7.5 -46t27.5 -15q19 0 25.5 16.5t6.5 51.5v29q0 68 -34 68q-24 0 -32 -36l-83 4l18 223h217v-71h-145l-8 -101q6 18 24 30.5t43 12.5q52 0 74.5 -30.5t22.5 -97.5v-31q0 -128 -129 -128z" />
    <glyph glyph-name="uni2076" unicode="&#x2076;" horiz-adv-x="298" 
d="M156 430q-77 0 -105 44.5t-28 143.5v57q0 94 28.5 136t103.5 42q116 0 116 -109v-5h-88v3q0 29 -7 40t-22 11q-13 0 -20 -5.5t-10 -22.5t-3.5 -30t-0.5 -47v-22q16 41 64 41q52 0 74.5 -31.5t22.5 -97.5v-20q0 -65 -29.5 -96.5t-95.5 -31.5zM150 490q20 0 27.5 16.5
t7.5 51.5v18q0 67 -35 67q-32 0 -32 -66v-20q0 -67 32 -67z" />
    <glyph glyph-name="uni2077" unicode="&#x2077;" horiz-adv-x="226" 
d="M132 438h-98q5 222 117 337h-151v71h226v-71q-59 -62 -76.5 -138.5t-17.5 -198.5z" />
    <glyph glyph-name="uni2078" unicode="&#x2078;" horiz-adv-x="303" 
d="M152 430q-69 0 -102 28.5t-33 95.5q0 78 62 101q-20 8 -37 30.5t-17 59.5q0 108 127 108q125 0 125 -108q0 -37 -16.5 -59.5t-36.5 -30.5q61 -22 61 -101q0 -67 -32.5 -95.5t-100.5 -28.5zM152 490q25 0 31.5 15t6.5 48v4q0 16 -0.5 24t-4 18.5t-11.5 15t-22 4.5
q-27 0 -33.5 -15t-6.5 -47v-4q0 -23 1.5 -33.5t10.5 -20t28 -9.5zM152 680q15 0 21.5 8t7 15.5t0.5 31.5v2q0 41 -8 49q-7 7 -21 7q-15 0 -21.5 -8.5t-7.5 -17t-1 -30.5v-2q0 -23 1 -31.5t7.5 -16t21.5 -7.5z" />
    <glyph glyph-name="uni2079" unicode="&#x2079;" horiz-adv-x="298" 
d="M143 430q-116 0 -116 109v5h88v-3q0 -29 7 -40t22 -11q13 0 20 5.5t10 22.5t3.5 30t0.5 47v22q-16 -41 -64 -41q-51 0 -74 31.5t-23 96.5v21q0 65 29.5 96.5t95.5 31.5q77 0 105 -44.5t28 -143.5v-57q0 -94 -28.5 -136t-103.5 -42zM148 640q19 0 25.5 16t6.5 49v21
q0 34 -6.5 50.5t-25.5 16.5q-20 0 -27 -16.5t-7 -51.5v-18q0 -34 7 -50.5t27 -16.5z" />
    <glyph glyph-name="uni207A" unicode="&#x207a;" horiz-adv-x="324" 
d="M122 438v109h-104v80h104v110h81v-110h103v-80h-103v-109h-81z" />
    <glyph glyph-name="uni207B" unicode="&#x207b;" horiz-adv-x="324" 
d="M18 539v81h288v-81h-288z" />
    <glyph glyph-name="uni207C" unicode="&#x207c;" horiz-adv-x="286" 
d="M24 487v80h238v-80h-238zM24 600v81h238v-81h-238z" />
    <glyph glyph-name="uni207D" unicode="&#x207d;" horiz-adv-x="151" 
d="M163 341h-76q-78 116 -78 256t78 256h76q-67 -110 -67 -256t67 -256z" />
    <glyph glyph-name="uni207E" unicode="&#x207e;" horiz-adv-x="154" 
d="M66 341h-78q69 108 69 256t-69 256h78q31 -43 55 -111t24 -145t-24 -145t-55 -111z" />
    <glyph glyph-name="uni207F" unicode="&#x207f;" horiz-adv-x="291" 
d="M23 438v302h96v-33q20 42 74 42q42 0 60 -23t18 -79v-209h-95v176q0 21 -0.5 29t-2.5 20.5t-7.5 17t-15.5 4.5q-31 0 -31 -52v-195h-96z" />
    <glyph glyph-name="uni2080" unicode="&#x2080;" horiz-adv-x="309" 
d="M155 -76q27 0 32.5 27.5t5.5 104.5v39v11q0 36 -0.5 52.5t-4 35.5t-11.5 26t-22 7q-15 0 -23.5 -7.5t-12 -29.5t-4 -38t-0.5 -57v-39q0 -41 0.5 -57t4 -38t12 -29.5t23.5 -7.5zM155 -136q-77 0 -105.5 42.5t-28.5 139.5v59q0 97 28.5 139.5t105.5 42.5q75 0 104.5 -43
t29.5 -139v-59q0 -96 -29.5 -139t-104.5 -43z" />
    <glyph glyph-name="uni2081" unicode="&#x2081;" horiz-adv-x="182" 
d="M65 -128v300h-65v58q45 2 57.5 9.5t22.5 40.5h73v-408h-88z" />
    <glyph glyph-name="uni2082" unicode="&#x2082;" horiz-adv-x="293" 
d="M24 -128v67l46 57q62 76 85.5 116t23.5 71q0 44 -32 44q-17 0 -23 -15t-6 -54v-6h-91v5q0 66 31 98t97 32q120 0 120 -98q0 -42 -24 -85.5t-78 -110.5l-39 -50h142v-71h-252z" />
    <glyph glyph-name="uni2083" unicode="&#x2083;" horiz-adv-x="298" 
d="M139 -136q-121 0 -121 121v2h88v-2q0 -32 7 -46.5t27 -14.5q25 0 33.5 16.5t8.5 47.5q0 22 -2 33t-13.5 20.5t-34.5 9.5h-26v63h24q24 0 31.5 14t7.5 42q0 29 -6.5 43t-27.5 14q-16 0 -22 -11t-6 -45v-2h-88v2q0 116 121 116q125 0 125 -107q0 -71 -58 -90
q72 -23 72 -102q0 -66 -35.5 -95t-104.5 -29z" />
    <glyph glyph-name="uni2084" unicode="&#x2084;" horiz-adv-x="304" 
d="M158 -128v96h-146v65l141 247h90v-240h49v-72h-49v-96h-85zM82 40h76v127z" />
    <glyph glyph-name="uni2085" unicode="&#x2085;" horiz-adv-x="288" 
d="M141 -136q-124 0 -124 121v2h89v-2q0 -31 7.5 -46t27.5 -15q19 0 25.5 16.5t6.5 51.5v29q0 68 -34 68q-24 0 -32 -36l-83 4l18 223h217v-71h-145l-8 -101q6 18 24 30.5t43 12.5q52 0 74.5 -30.5t22.5 -97.5v-31q0 -128 -129 -128z" />
    <glyph glyph-name="uni2086" unicode="&#x2086;" horiz-adv-x="298" 
d="M156 -136q-77 0 -105 44.5t-28 143.5v57q0 94 28.5 136t103.5 42q116 0 116 -109v-5h-88v3q0 29 -7 40t-22 11q-13 0 -20 -5.5t-10 -22.5t-3.5 -30t-0.5 -47v-22q16 41 64 41q52 0 74.5 -31.5t22.5 -97.5v-20q0 -65 -29.5 -96.5t-95.5 -31.5zM150 -76q20 0 27.5 16.5
t7.5 51.5v18q0 67 -35 67q-32 0 -32 -66v-20q0 -67 32 -67z" />
    <glyph glyph-name="uni2087" unicode="&#x2087;" horiz-adv-x="226" 
d="M132 -128h-98q5 222 117 337h-151v71h226v-71q-59 -62 -76.5 -138.5t-17.5 -198.5z" />
    <glyph glyph-name="uni2088" unicode="&#x2088;" horiz-adv-x="303" 
d="M152 -136q-69 0 -102 28.5t-33 95.5q0 78 62 101q-20 8 -37 30.5t-17 59.5q0 108 127 108q125 0 125 -108q0 -37 -16.5 -59.5t-36.5 -30.5q61 -22 61 -101q0 -67 -32.5 -95.5t-100.5 -28.5zM152 -76q25 0 31.5 15t6.5 48v4q0 16 -0.5 24t-4 18.5t-11.5 15t-22 4.5
q-27 0 -33.5 -15t-6.5 -47v-4q0 -23 1.5 -33.5t10.5 -20t28 -9.5zM152 114q15 0 21.5 8t7 15.5t0.5 31.5v2q0 41 -8 49q-7 7 -21 7q-15 0 -21.5 -8.5t-7.5 -17t-1 -30.5v-2q0 -23 1 -31.5t7.5 -16t21.5 -7.5z" />
    <glyph glyph-name="uni2089" unicode="&#x2089;" horiz-adv-x="298" 
d="M143 -136q-116 0 -116 109v5h88v-3q0 -29 7 -40t22 -11q13 0 20 5.5t10 22.5t3.5 30t0.5 47v22q-16 -41 -64 -41q-51 0 -74 31.5t-23 96.5v21q0 65 29.5 96.5t95.5 31.5q77 0 105 -44.5t28 -143.5v-57q0 -94 -28.5 -136t-103.5 -42zM148 74q19 0 25.5 16t6.5 49v21
q0 34 -6.5 50.5t-25.5 16.5q-20 0 -27 -16.5t-7 -51.5v-18q0 -34 7 -50.5t27 -16.5z" />
    <glyph glyph-name="uni208D" unicode="&#x208d;" horiz-adv-x="151" 
d="M163 -225h-76q-78 116 -78 256t78 256h76q-67 -110 -67 -256t67 -256z" />
    <glyph glyph-name="uni208E" unicode="&#x208e;" horiz-adv-x="154" 
d="M66 -225h-78q69 108 69 256t-69 256h78q31 -43 55 -111t24 -145t-24 -145t-55 -111z" />
    <glyph glyph-name="Euro" unicode="&#x20ac;" horiz-adv-x="604" 
d="M0 381l35 69h63q4 154 55.5 221.5t184.5 67.5q119 0 176.5 -59.5t57.5 -187.5v-9h-147v7q0 83 -22 111t-66 28q-50 0 -66 -42t-19 -137h176l-35 -69h-141v-44h129l-36 -69h-93q2 -89 19.5 -129.5t65.5 -40.5q44 0 66 28t22 111v7h147v-9q0 -128 -57.5 -187.5
t-176.5 -59.5q-131 0 -183 66t-56 214h-99l35 69h63v44h-98z" />
    <glyph glyph-name="uni2113" unicode="&#x2113;" horiz-adv-x="517" 
d="M303 -12q-93 0 -135.5 43t-42.5 145v7l-73 -55l-52 78l125 95v217q0 210 186 210q74 0 118.5 -42t44.5 -119q0 -43 -12.5 -78.5t-44.5 -70t-58.5 -57t-83.5 -65.5l-12 -9v-106q0 -48 15.5 -68t51.5 -20q42 0 92 37l50 -81q-74 -61 -169 -61zM263 545v-138l4 3
q45 34 65 69t20 88q0 66 -44 66q-26 0 -35.5 -20t-9.5 -68z" />
    <glyph glyph-name="uni2116" unicode="&#x2116;" horiz-adv-x="891" 
d="M708 428q26 0 33 23.5t7 80.5v29q0 56 -7 80t-33 24q-27 0 -34 -23.5t-7 -80.5v-29q0 -57 7 -80.5t34 -23.5zM708 365q-141 0 -141 155v53q0 155 141 155q140 0 140 -155v-53q0 -155 -140 -155zM568 207v120h296v-120h-296zM54 0v725h184l157 -521v521h141v-725h-184
l-157 521v-521h-141z" />
    <glyph glyph-name="uni2117" unicode="&#x2117;" horiz-adv-x="825" 
d="M412 48q130 0 216 89.5t86 227.5q0 137 -86 225.5t-216 88.5t-215.5 -88.5t-85.5 -225.5q0 -138 85.5 -227.5t215.5 -89.5zM412 -12q-154 0 -261.5 107.5t-107.5 269.5q0 163 107 268.5t262 105.5q154 0 262 -106t108 -268t-108 -269.5t-262 -107.5zM400 163h-109v414
h127q85 0 121.5 -26t36.5 -98q0 -39 -19 -66t-40.5 -37t-45.5 -13q-22 -3 -46 -3h-25v-171zM400 499v-96h16q25 1 31 10.5t6 39.5q0 29 -6 37.5t-32 8.5h-15z" />
    <glyph glyph-name="trademark" unicode="&#x2122;" horiz-adv-x="705" 
d="M299 326v399h144l37 -280l38 280h144v-399h-94v299h-1l-4 -35l-43 -264h-80l-43 264l-4 35h-1v-299h-93zM87 326v324h-73v75h252v-75h-73v-324h-106z" />
    <glyph glyph-name="estimated" unicode="&#x212e;" horiz-adv-x="558" 
d="M132 303h293v163q-52 52 -145 52q-99 0 -148 -51v-164zM287 -12q-128 0 -199.5 80.5t-71.5 201.5q0 122 73.5 202t191.5 80q120 0 189.5 -81.5t71.5 -199.5h-410v-195q24 -24 68 -39.5t94 -15.5q141 0 194 127h40q-26 -71 -87 -115.5t-154 -44.5z" />
    <glyph glyph-name="onethird" unicode="&#x2153;" horiz-adv-x="649" 
d="M65 317v300h-65v58q45 2 57.5 9.5t22.5 40.5h73v-408h-88zM127 0l213 725h66l-213 -725h-66zM490 -8q-121 0 -121 121v2h88v-2q0 -32 7 -46.5t27 -14.5q25 0 33.5 16.5t8.5 47.5q0 22 -2 33t-13.5 20.5t-34.5 9.5h-26v63h24q24 0 31.5 14t7.5 42q0 29 -6.5 43t-27.5 14
q-16 0 -22 -11t-6 -45v-2h-88v2q0 116 121 116q125 0 125 -107q0 -71 -58 -90q72 -23 72 -102q0 -66 -35.5 -95t-104.5 -29z" />
    <glyph glyph-name="twothirds" unicode="&#x2154;" horiz-adv-x="760" 
d="M24 317v67l46 57q62 76 85.5 116t23.5 71q0 44 -32 44q-17 0 -23 -15t-6 -54v-6h-91v5q0 66 31 98t97 32q120 0 120 -98q0 -42 -24 -85.5t-78 -110.5l-39 -50h142v-71h-252zM238 0l213 725h66l-213 -725h-66zM601 -8q-121 0 -121 121v2h88v-2q0 -32 7 -46.5t27 -14.5
q25 0 33.5 16.5t8.5 47.5q0 22 -2 33t-13.5 20.5t-34.5 9.5h-26v63h24q24 0 31.5 14t7.5 42q0 29 -6.5 43t-27.5 14q-16 0 -22 -11t-6 -45v-2h-88v2q0 116 121 116q125 0 125 -107q0 -71 -58 -90q72 -23 72 -102q0 -66 -35.5 -95t-104.5 -29z" />
    <glyph glyph-name="uni2155" unicode="&#x2155;" horiz-adv-x="639" 
d="M65 317v300h-65v58q45 2 57.5 9.5t22.5 40.5h73v-408h-88zM127 0l213 725h66l-213 -725h-66zM492 -8q-124 0 -124 121v2h89v-2q0 -31 7.5 -46t27.5 -15q19 0 25.5 16.5t6.5 51.5v29q0 68 -34 68q-24 0 -32 -36l-83 4l18 223h217v-71h-145l-8 -101q6 18 24 30.5t43 12.5
q52 0 74.5 -30.5t22.5 -97.5v-31q0 -128 -129 -128z" />
    <glyph glyph-name="uni2156" unicode="&#x2156;" horiz-adv-x="750" 
d="M24 317v67l46 57q62 76 85.5 116t23.5 71q0 44 -32 44q-17 0 -23 -15t-6 -54v-6h-91v5q0 66 31 98t97 32q120 0 120 -98q0 -42 -24 -85.5t-78 -110.5l-39 -50h142v-71h-252zM238 0l213 725h66l-213 -725h-66zM603 -8q-124 0 -124 121v2h89v-2q0 -31 7.5 -46t27.5 -15
q19 0 25.5 16.5t6.5 51.5v29q0 68 -34 68q-24 0 -32 -36l-83 4l18 223h217v-71h-145l-8 -101q6 18 24 30.5t43 12.5q52 0 74.5 -30.5t22.5 -97.5v-31q0 -128 -129 -128z" />
    <glyph glyph-name="uni2157" unicode="&#x2157;" horiz-adv-x="755" 
d="M139 309q-121 0 -121 121v2h88v-2q0 -32 7 -46.5t27 -14.5q25 0 33.5 16.5t8.5 47.5q0 22 -2 33t-13.5 20.5t-34.5 9.5h-26v63h24q24 0 31.5 14t7.5 42q0 29 -6.5 43t-27.5 14q-16 0 -22 -11t-6 -45v-2h-88v2q0 116 121 116q125 0 125 -107q0 -71 -58 -90q72 -23 72 -102
q0 -66 -35.5 -95t-104.5 -29zM243 0l213 725h66l-213 -725h-66zM608 -8q-124 0 -124 121v2h89v-2q0 -31 7.5 -46t27.5 -15q19 0 25.5 16.5t6.5 51.5v29q0 68 -34 68q-24 0 -32 -36l-83 4l18 223h217v-71h-145l-8 -101q6 18 24 30.5t43 12.5q52 0 74.5 -30.5t22.5 -97.5v-31
q0 -128 -129 -128z" />
    <glyph glyph-name="uni2158" unicode="&#x2158;" horiz-adv-x="761" 
d="M158 317v96h-146v65l141 247h90v-240h49v-72h-49v-96h-85zM82 485h76v127zM249 0l213 725h66l-213 -725h-66zM614 -8q-124 0 -124 121v2h89v-2q0 -31 7.5 -46t27.5 -15q19 0 25.5 16.5t6.5 51.5v29q0 68 -34 68q-24 0 -32 -36l-83 4l18 223h217v-71h-145l-8 -101
q6 18 24 30.5t43 12.5q52 0 74.5 -30.5t22.5 -97.5v-31q0 -128 -129 -128z" />
    <glyph glyph-name="uni2159" unicode="&#x2159;" horiz-adv-x="649" 
d="M65 317v300h-65v58q45 2 57.5 9.5t22.5 40.5h73v-408h-88zM127 0l213 725h66l-213 -725h-66zM507 -8q-77 0 -105 44.5t-28 143.5v57q0 94 28.5 136t103.5 42q116 0 116 -109v-5h-88v3q0 29 -7 40t-22 11q-13 0 -20 -5.5t-10 -22.5t-3.5 -30t-0.5 -47v-22q16 41 64 41
q52 0 74.5 -31.5t22.5 -97.5v-20q0 -65 -29.5 -96.5t-95.5 -31.5zM501 52q20 0 27.5 16.5t7.5 51.5v18q0 67 -35 67q-32 0 -32 -66v-20q0 -67 32 -67z" />
    <glyph glyph-name="uni215A" unicode="&#x215a;" horiz-adv-x="755" 
d="M141 309q-124 0 -124 121v2h89v-2q0 -31 7.5 -46t27.5 -15q19 0 25.5 16.5t6.5 51.5v29q0 68 -34 68q-24 0 -32 -36l-83 4l18 223h217v-71h-145l-8 -101q6 18 24 30.5t43 12.5q52 0 74.5 -30.5t22.5 -97.5v-31q0 -128 -129 -128zM233 0l213 725h66l-213 -725h-66zM613 -8
q-77 0 -105 44.5t-28 143.5v57q0 94 28.5 136t103.5 42q116 0 116 -109v-5h-88v3q0 29 -7 40t-22 11q-13 0 -20 -5.5t-10 -22.5t-3.5 -30t-0.5 -47v-22q16 41 64 41q52 0 74.5 -31.5t22.5 -97.5v-20q0 -65 -29.5 -96.5t-95.5 -31.5zM607 52q20 0 27.5 16.5t7.5 51.5v18
q0 67 -35 67q-32 0 -32 -66v-20q0 -67 32 -67z" />
    <glyph glyph-name="oneeighth" unicode="&#x215b;" horiz-adv-x="654" 
d="M65 317v300h-65v58q45 2 57.5 9.5t22.5 40.5h73v-408h-88zM127 0l213 725h66l-213 -725h-66zM503 -8q-69 0 -102 28.5t-33 95.5q0 78 62 101q-20 8 -37 30.5t-17 59.5q0 108 127 108q125 0 125 -108q0 -37 -16.5 -59.5t-36.5 -30.5q61 -22 61 -101q0 -67 -32.5 -95.5
t-100.5 -28.5zM503 52q25 0 31.5 15t6.5 48v4q0 16 -0.5 24t-4 18.5t-11.5 15t-22 4.5q-27 0 -33.5 -15t-6.5 -47v-4q0 -23 1.5 -33.5t10.5 -20t28 -9.5zM503 242q15 0 21.5 8t7 15.5t0.5 31.5v2q0 41 -8 49q-7 7 -21 7q-15 0 -21.5 -8.5t-7.5 -17t-1 -30.5v-2
q0 -23 1 -31.5t7.5 -16t21.5 -7.5z" />
    <glyph glyph-name="threeeighths" unicode="&#x215c;" horiz-adv-x="770" 
d="M139 309q-121 0 -121 121v2h88v-2q0 -32 7 -46.5t27 -14.5q25 0 33.5 16.5t8.5 47.5q0 22 -2 33t-13.5 20.5t-34.5 9.5h-26v63h24q24 0 31.5 14t7.5 42q0 29 -6.5 43t-27.5 14q-16 0 -22 -11t-6 -45v-2h-88v2q0 116 121 116q125 0 125 -107q0 -71 -58 -90q72 -23 72 -102
q0 -66 -35.5 -95t-104.5 -29zM243 0l213 725h66l-213 -725h-66zM619 -8q-69 0 -102 28.5t-33 95.5q0 78 62 101q-20 8 -37 30.5t-17 59.5q0 108 127 108q125 0 125 -108q0 -37 -16.5 -59.5t-36.5 -30.5q61 -22 61 -101q0 -67 -32.5 -95.5t-100.5 -28.5zM619 52q25 0 31.5 15
t6.5 48v4q0 16 -0.5 24t-4 18.5t-11.5 15t-22 4.5q-27 0 -33.5 -15t-6.5 -47v-4q0 -23 1.5 -33.5t10.5 -20t28 -9.5zM619 242q15 0 21.5 8t7 15.5t0.5 31.5v2q0 41 -8 49q-7 7 -21 7q-15 0 -21.5 -8.5t-7.5 -17t-1 -30.5v-2q0 -23 1 -31.5t7.5 -16t21.5 -7.5z" />
    <glyph glyph-name="fiveeighths" unicode="&#x215d;" horiz-adv-x="760" 
d="M141 309q-124 0 -124 121v2h89v-2q0 -31 7.5 -46t27.5 -15q19 0 25.5 16.5t6.5 51.5v29q0 68 -34 68q-24 0 -32 -36l-83 4l18 223h217v-71h-145l-8 -101q6 18 24 30.5t43 12.5q52 0 74.5 -30.5t22.5 -97.5v-31q0 -128 -129 -128zM233 0l213 725h66l-213 -725h-66zM609 -8
q-69 0 -102 28.5t-33 95.5q0 78 62 101q-20 8 -37 30.5t-17 59.5q0 108 127 108q125 0 125 -108q0 -37 -16.5 -59.5t-36.5 -30.5q61 -22 61 -101q0 -67 -32.5 -95.5t-100.5 -28.5zM609 52q25 0 31.5 15t6.5 48v4q0 16 -0.5 24t-4 18.5t-11.5 15t-22 4.5q-27 0 -33.5 -15
t-6.5 -47v-4q0 -23 1.5 -33.5t10.5 -20t28 -9.5zM609 242q15 0 21.5 8t7 15.5t0.5 31.5v2q0 41 -8 49q-7 7 -21 7q-15 0 -21.5 -8.5t-7.5 -17t-1 -30.5v-2q0 -23 1 -31.5t7.5 -16t21.5 -7.5z" />
    <glyph glyph-name="seveneighths" unicode="&#x215e;" horiz-adv-x="698" 
d="M132 317h-98q5 222 117 337h-151v71h226v-71q-59 -62 -76.5 -138.5t-17.5 -198.5zM171 0l213 725h66l-213 -725h-66zM547 -8q-69 0 -102 28.5t-33 95.5q0 78 62 101q-20 8 -37 30.5t-17 59.5q0 108 127 108q125 0 125 -108q0 -37 -16.5 -59.5t-36.5 -30.5q61 -22 61 -101
q0 -67 -32.5 -95.5t-100.5 -28.5zM547 52q25 0 31.5 15t6.5 48v4q0 16 -0.5 24t-4 18.5t-11.5 15t-22 4.5q-27 0 -33.5 -15t-6.5 -47v-4q0 -23 1.5 -33.5t10.5 -20t28 -9.5zM547 242q15 0 21.5 8t7 15.5t0.5 31.5v2q0 41 -8 49q-7 7 -21 7q-15 0 -21.5 -8.5t-7.5 -17
t-1 -30.5v-2q0 -23 1 -31.5t7.5 -16t21.5 -7.5z" />
    <glyph glyph-name="uni215F" unicode="&#x215f;" horiz-adv-x="351" 
d="M65 317v300h-65v58q45 2 57.5 9.5t22.5 40.5h73v-408h-88zM127 0l213 725h66l-213 -725h-66z" />
    <glyph glyph-name="arrowleft" unicode="&#x2190;" horiz-adv-x="800" 
d="M761 203h-499l156 -158l-87 -87l-311 311l311 311l89 -87l-158 -158h499v-132z" />
    <glyph glyph-name="arrowup" unicode="&#x2191;" horiz-adv-x="800" 
d="M334 0v499l-158 -156l-87 87l311 311l311 -311l-87 -89l-158 158v-499h-132z" />
    <glyph glyph-name="arrowright" unicode="&#x2192;" horiz-adv-x="800" 
d="M39 335h499l-156 158l87 87l311 -311l-311 -311l-89 87l158 158h-499v132z" />
    <glyph glyph-name="arrowdown" unicode="&#x2193;" horiz-adv-x="800" 
d="M466 725v-499l158 156l87 -87l-311 -311l-311 311l87 89l158 -158v499h132z" />
    <glyph glyph-name="uni2196" unicode="&#x2196;" horiz-adv-x="800" 
d="M615 -33l-353 353v-222h-124v440h440v-125h-222l353 -352z" />
    <glyph glyph-name="uni2197" unicode="&#x2197;" horiz-adv-x="800" 
d="M91 61l353 353h-222v124h440v-440h-125v222l-352 -353z" />
    <glyph glyph-name="uni2198" unicode="&#x2198;" horiz-adv-x="800" 
d="M185 571l353 -353v222h124v-440h-440v125h222l-353 352z" />
    <glyph glyph-name="uni2199" unicode="&#x2199;" horiz-adv-x="800" 
d="M709 477l-353 -353h222v-124h-440v440h125v-222l352 353z" />
    <glyph glyph-name="uni219E" unicode="&#x219e;" horiz-adv-x="800" 
d="M761 203h-219l156 -158l-87 -87l-245 245h-104l156 -158l-87 -87l-311 311l311 311l89 -87l-158 -158h104l245 245l89 -87l-158 -158h219v-132z" />
    <glyph glyph-name="uni219F" unicode="&#x219f;" horiz-adv-x="800" 
d="M334 0v219l-158 -156l-87 87l245 245v104l-158 -156l-87 87l311 311l311 -311l-87 -89l-158 158v-104l245 -245l-87 -89l-158 158v-219h-132z" />
    <glyph glyph-name="uni21A0" unicode="&#x21a0;" horiz-adv-x="800" 
d="M39 335h219l-156 158l87 87l245 -245h104l-156 158l87 87l311 -311l-311 -311l-89 87l158 158h-104l-245 -245l-89 87l158 158h-219v132z" />
    <glyph glyph-name="uni21A1" unicode="&#x21a1;" horiz-adv-x="800" 
d="M466 725v-219l158 156l87 -87l-245 -245v-104l158 156l87 -87l-311 -311l-311 311l87 89l158 -158v104l-245 245l87 89l158 -158v219h132z" />
    <glyph glyph-name="uni21A2" unicode="&#x21a2;" horiz-adv-x="800" 
d="M759 45l-87 -87l-245 245h-165l156 -158l-87 -87l-311 311l311 311l89 -87l-158 -158h165l245 245l89 -87l-224 -224z" />
    <glyph glyph-name="uni21A3" unicode="&#x21a3;" horiz-adv-x="800" 
d="M272 269l-224 224l89 87l245 -245h165l-158 158l89 87l311 -311l-311 -311l-87 87l156 158h-165l-245 -245l-87 87z" />
    <glyph glyph-name="uni21A4" unicode="&#x21a4;" horiz-adv-x="800" 
d="M721 0h-132v203h-327l156 -158l-87 -87l-311 311l311 311l89 -87l-158 -158h327v203h132v-538z" />
    <glyph glyph-name="uni21A5" unicode="&#x21a5;" horiz-adv-x="800" 
d="M131 0v132h203v367l-158 -156l-87 87l311 311l311 -311l-87 -89l-158 158v-367h203v-132h-538z" />
    <glyph glyph-name="uni21A6" unicode="&#x21a6;" horiz-adv-x="800" 
d="M79 538h132v-203h327l-156 158l87 87l311 -311l-311 -311l-89 87l158 158h-327v-203h-132v538z" />
    <glyph glyph-name="uni21A7" unicode="&#x21a7;" horiz-adv-x="800" 
d="M669 725v-132h-203v-367l158 156l87 -87l-311 -311l-311 311l87 89l158 -158v367h-203v132h538z" />
    <glyph glyph-name="uni21B0" unicode="&#x21b0;" horiz-adv-x="800" 
d="M721 -175h-132v378h-327l156 -158l-87 -87l-311 311l311 311l89 -87l-158 -158h459v-510z" />
    <glyph glyph-name="uni21B1" unicode="&#x21b1;" horiz-adv-x="800" 
d="M780 269l-311 -311l-87 87l156 158h-287v-378h-132v510h419l-158 158l89 87z" />
    <glyph glyph-name="uni21B2" unicode="&#x21b2;" horiz-adv-x="800" 
d="M589 335v390h132v-522h-459l158 -158l-89 -87l-311 311l311 311l87 -87l-156 -158h327z" />
    <glyph glyph-name="uni21B3" unicode="&#x21b3;" horiz-adv-x="800" 
d="M79 725h132v-390h327l-156 158l87 87l311 -311l-311 -311l-89 87l158 158h-459v522z" />
    <glyph glyph-name="partialdiff" unicode="&#x2202;" horiz-adv-x="514" 
d="M252 -13q-110 0 -168 64.5t-58 171.5v28q0 222 205 222q76 0 122 -52l2 3q-3 47 -14 79.5t-36 60.5t-70.5 42t-114.5 16v116q198 0 280 -100.5t82 -298.5v-21q0 -77 -10 -133t-34.5 -103t-71 -71t-114.5 -24zM251 92q86 0 86 125v26q0 125 -86 125q-44 0 -64.5 -30.5
t-20.5 -95.5v-23q0 -65 20.5 -96t64.5 -31z" />
    <glyph glyph-name="product" unicode="&#x220f;" horiz-adv-x="567" 
d="M59 -175v900h448v-900h-142v778h-164v-778h-142z" />
    <glyph glyph-name="summation" unicode="&#x2211;" horiz-adv-x="475" 
d="M33 -175v117l207 333l-203 331v119h421v-122h-269l197 -328l-202 -328h274v-122h-425z" />
    <glyph glyph-name="minus" unicode="&#x2212;" 
d="M16 186v131h516v-131h-516z" />
    <glyph glyph-name="radical" unicode="&#x221a;" horiz-adv-x="628" 
d="M265 -175l-126 262l-87 -43l-52 120l192 95l125 -263l170 729h141l-219 -900h-144z" />
    <glyph glyph-name="infinity" unicode="&#x221e;" horiz-adv-x="773" 
d="M558 84q-52 0 -91 22.5t-80 64.5q-84 -86 -174 -86q-81 0 -131 48t-50 123t51 123t133 48q90 0 169 -82q79 82 172 82q81 0 132 -48t51 -123q0 -76 -50.5 -124t-131.5 -48zM216 200q46 0 96 57q-47 55 -94 55q-29 0 -47 -16t-18 -40t17.5 -40t45.5 -16zM556 200
q28 0 45.5 16t17.5 40t-18 40t-47 16q-47 0 -94 -55q50 -57 96 -57z" />
    <glyph glyph-name="integral" unicode="&#x222b;" horiz-adv-x="432" 
d="M107 -177q-43 0 -75 23t-32 64q0 26 16.5 43t44.5 17q21 0 37.5 -14.5t16.5 -44.5q0 -11 -3 -26q38 9 38 119q0 19 -4 92t-4 124v204q0 92 14.5 156.5t41.5 97.5t57.5 46.5t70.5 13.5q43 0 74.5 -23t31.5 -65q0 -27 -16 -43.5t-45 -16.5q-21 0 -37.5 14t-16.5 45
q0 13 3 26q-41 -8 -41 -118q0 -25 5.5 -97t5.5 -162v-162q0 -92 -14.5 -156t-41 -97t-57.5 -46.5t-70 -13.5z" />
    <glyph glyph-name="approxequal" unicode="&#x2248;" 
d="M137 55h-117q2 93 38.5 142.5t118.5 49.5q39 0 72.5 -16.5t61 -33.5t50.5 -17q24 0 35.5 14.5t13.5 52.5h118q-4 -97 -38.5 -144.5t-117.5 -47.5q-44 0 -99 33t-86 33q-25 0 -36.5 -14.5t-13.5 -51.5zM137 286h-117q2 95 38.5 144t118.5 49q39 0 72.5 -16.5t61 -33.5
t50.5 -17q24 0 35.5 14.5t13.5 52.5h118q-4 -96 -38.5 -144.5t-117.5 -48.5q-44 0 -99 33.5t-86 33.5q-25 0 -36.5 -14.5t-13.5 -52.5z" />
    <glyph glyph-name="notequal" unicode="&#x2260;" 
d="M59 319v117h218l42 102h137l-42 -102h75v-117h-124l-41 -101h165v-116h-213l-42 -102h-137l42 102h-80v116h128l41 101h-169z" />
    <glyph glyph-name="lessequal" unicode="&#x2264;" 
d="M500 555v-122l-270 -84l270 -84v-123l-452 143v127zM48 0v116h452v-116h-452z" />
    <glyph glyph-name="greaterequal" unicode="&#x2265;" 
d="M48 433v122l452 -143v-127l-452 -143v123l270 84zM500 116v-116h-452v116h452z" />
    <glyph glyph-name="filledbox" unicode="&#x25a0;" horiz-adv-x="624" 
d="M43 0v538h538v-538h-538z" />
    <glyph glyph-name="H22073" unicode="&#x25a1;" horiz-adv-x="624" 
d="M43 0v538h538v-538h-538zM175 406v-274h274v274h-274z" />
    <glyph glyph-name="lozenge" unicode="&#x25ca;" horiz-adv-x="574" 
d="M291 134l135 209l-135 209l-136 -209zM290 -96l-288 439l288 438l282 -438z" />
    <glyph glyph-name="circle" unicode="&#x25cb;" horiz-adv-x="602" 
d="M301 419q-65 0 -106 -43.5t-41 -106.5q0 -64 41 -107.5t106 -43.5q63 0 105 44t42 107q0 62 -42 106t-105 44zM301 550q121 0 202 -82t81 -199q0 -118 -81 -200t-202 -82t-202 82t-81 200q0 117 81 199t202 82z" />
    <glyph glyph-name="H18533" unicode="&#x25cf;" horiz-adv-x="602" 
d="M301 -13q-121 0 -202 82t-81 199q0 118 81 200t202 82t202 -82t81 -200q0 -117 -81 -199t-202 -82z" />
    <glyph glyph-name="fi" unicode="&#xfb01;" horiz-adv-x="552" 
d="M62 0v443h-64v95h64v43q0 88 40 116t137 28h68v-91h-37q-32 0 -43 -10t-11 -41v-45h91v-95h-91v-443h-154zM355 597v128h154v-128h-154zM355 0v538h154v-538h-154z" />
    <glyph glyph-name="fl" unicode="&#xfb02;" horiz-adv-x="552" 
d="M62 0v443h-64v95h64v43q0 88 40 116t137 28h68v-91h-37q-32 0 -43 -10t-11 -41v-45h91v-95h-91v-443h-154zM355 0v725h154v-725h-154z" />
    <glyph glyph-name="_001" horiz-adv-x="0" 
 />
    <glyph glyph-name="_002" horiz-adv-x="180" 
 />
    <glyph glyph-name="bullet.001" horiz-adv-x="447" 
d="M220 89q-73 0 -125 53t-52 130q0 73 52 125t125 52q78 0 131 -51.5t53 -125.5q0 -77 -53 -130t-131 -53z" />
    <glyph glyph-name="_383" horiz-adv-x="240" 
d="M43 597v128h154v-128h-154z" />
    <glyph glyph-name="_384" horiz-adv-x="177" 
d="M22 -175v118h134v-118h-134z" />
    <glyph glyph-name="_386" horiz-adv-x="165" 
d="M22 -246l38 96h-35v100h118v-107l-44 -89h-77z" />
    <glyph glyph-name="_390" horiz-adv-x="211" 
d="M22 555l25 170h142l-65 -170h-102z" />
    <glyph glyph-name="zero.zero" 
d="M274 -12q-134 0 -185 76t-51 248v103q0 171 51.5 247.5t184.5 76.5t184.5 -76.5t51.5 -247.5v-103q0 -172 -51 -248t-185 -76zM194 398v-19l160 71q0 100 -15.5 145t-64.5 45q-29 0 -46 -13.5t-24 -51.5t-8.5 -69.5t-1.5 -102.5v-5zM274 87q19 0 33 6.5t23 23.5t14 33
t7 49.5t2.5 58t0.5 71.5v17l-160 -72q0 -99 15.5 -143t64.5 -44z" />
    <glyph glyph-name="one.onum" horiz-adv-x="314" 
d="M106 0v480h-95v94q69 2 91.5 14.5t37.5 63.5h120v-652h-154z" />
    <glyph glyph-name="two.onum" horiz-adv-x="480" 
d="M41 0v109l73 90q102 130 137.5 189.5t35.5 108.5q0 33 -10 50.5t-37 17.5q-26 0 -36 -24.5t-10 -85.5v-8h-145v8q0 108 48 158.5t156 50.5q95 0 143.5 -41.5t48.5 -115.5q0 -67 -36.5 -131.5t-123.5 -178.5l-65 -80h228v-117h-407z" />
    <glyph glyph-name="three.onum" horiz-adv-x="484" 
d="M227 -12q-195 0 -195 193v4h145v-4q0 -51 10.5 -72.5t41.5 -21.5q39 0 52 26t13 73q0 24 -2 38.5t-9 30t-23.5 22.5t-42.5 7h-43v103h38q38 0 49.5 22.5t11.5 65.5q0 23 -1 36t-6 27.5t-15.5 20.5t-28.5 6q-26 0 -34.5 -16.5t-8.5 -71.5v-5h-145v5q0 103 52 145t144 42
q202 0 202 -171q0 -62 -28 -98t-64 -48q111 -35 111 -161q0 -106 -56.5 -152t-167.5 -46z" />
    <glyph glyph-name="four.onum" horiz-adv-x="488" 
d="M235 0v153h-216v107l219 392h151v-382h79v-117h-79v-153h-154zM128 270h107v196z" />
    <glyph glyph-name="five.onum" horiz-adv-x="470" 
d="M232 -12q-200 0 -200 193v4h144v-4q0 -50 12 -72t44 -22q27 0 36.5 25.5t9.5 78.5v49q0 104 -53 104q-20 0 -30 -13t-15 -42l-141 6l28 357h354v-117h-233l-12 -155q11 29 39 49t68 20q83 0 118.5 -49.5t35.5 -157.5v-47q0 -107 -49 -157t-156 -50z" />
    <glyph glyph-name="six.onum" horiz-adv-x="492" 
d="M257 -12q-126 0 -170 70.5t-44 231.5v94q0 149 46 214.5t166 65.5q185 0 185 -176v-6h-144v5q0 45 -10.5 61.5t-32.5 16.5q-29 0 -40 -22t-11 -70v-106q11 27 37 45t65 18q83 0 119 -50t36 -155v-30q0 -106 -48 -156.5t-154 -50.5zM248 87q29 0 40 26t11 78v32
q0 52 -11 77.5t-40 25.5q-28 0 -39 -25.5t-11 -77.5v-32q0 -52 11 -78t39 -26z" />
    <glyph glyph-name="seven.onum" horiz-adv-x="434" 
d="M252 0h-161q0 291 211 535h-265v117h390v-117q-99 -122 -139 -246.5t-36 -288.5z" />
    <glyph glyph-name="eight.onum" horiz-adv-x="496" 
d="M248 -12q-110 0 -163 46t-53 151q0 127 99 161q-32 14 -58.5 50.5t-26.5 96.5q0 65 28.5 104.5t71 53t102.5 13.5q201 0 201 -171q0 -60 -26.5 -97t-57.5 -50q98 -35 98 -161q0 -105 -53 -151t-162 -46zM248 87q15 0 25 2.5t16.5 12t9.5 14t4.5 22t1.5 21.5v26v6v7
q0 24 -1 36t-6 27t-17 21.5t-33 6.5t-33.5 -6.5t-17.5 -21.5t-6 -27t-1 -36v-7v-6q0 -60 10 -77q14 -21 48 -21zM248 386q25 0 34 13t9 39v75q0 26 -9 39t-34 13t-34.5 -13t-9.5 -39v-75q0 -26 9.5 -39t34.5 -13z" />
    <glyph glyph-name="nine.onum" horiz-adv-x="491" 
d="M235 -12q-186 0 -186 175v7h145v-6q0 -45 10 -61t33 -16q29 0 40 21.5t11 69.5v107q-29 -64 -102 -64q-83 0 -118.5 49t-35.5 156v31q0 106 47.5 156.5t154.5 50.5q126 0 169.5 -71t43.5 -232v-93q0 -150 -46 -215t-166 -65zM242 326q29 0 40 25.5t11 77.5v31
q0 52 -11 78.5t-40 26.5t-40 -26.5t-11 -78.5v-31q0 -52 11 -77.5t40 -25.5z" />
    <glyph glyph-name="zero.onum" horiz-adv-x="508" 
d="M254 87q42 0 52 55q6 32 6 149v68v17q0 56 -1 81.5t-6 55.5t-17.5 41t-33.5 11q-22 0 -34.5 -11t-17.5 -41.5t-6 -55.5t-1 -81v-17v-68q0 -130 9 -161q14 -42 50 -43zM254 -12q-123 0 -169.5 68t-46.5 221v97q0 153 46.5 221.5t169.5 68.5q122 0 169 -68.5t47 -221.5v-97
q0 -153 -47 -221t-169 -68z" />
    <glyph glyph-name="zero.onum_zero" horiz-adv-x="508" 
d="M254 -12q-123 0 -169.5 68t-46.5 221v97q0 153 46.5 221.5t169.5 68.5q122 0 169 -68.5t47 -221.5v-97q0 -153 -47 -221t-169 -68zM254 87q42 0 52 55q6 32 6 149v16l-117 -53q0 -46 1.5 -71t7 -50t18 -35.5t32.5 -10.5zM195 359v-1l117 51q0 41 -1.5 65.5t-7.5 47.5
t-18 33t-31 10q-22 0 -34.5 -11t-17.5 -41.5t-6 -55.5t-1 -81v-17z" />
    <glyph glyph-name="one.tnum" 
d="M64 0v116h151v426h-151v94q49 1 72 3.5t50 11t40.5 26.5t21.5 48h121v-609h136v-116h-441z" />
    <glyph glyph-name="two.tnum" 
d="M53 0v109l81 101q114 143 157 213.5t43 130.5q0 85 -64 85q-36 0 -50.5 -29.5t-14.5 -99.5v-9h-143v8q0 117 52.5 173t167.5 56q102 0 155 -44.5t53 -129.5q0 -75 -45 -154t-145 -207l-69 -87h263v-116h-441z" />
    <glyph glyph-name="three.tnum" 
d="M258 -12q-212 0 -212 210v4h143v-4q0 -57 15.5 -84t56.5 -27q50 0 67 31t17 88q0 58 -20 88t-81 30h-45v103h41q47 0 64.5 27.5t17.5 80.5t-13.5 79t-54.5 26q-35 0 -48.5 -22.5t-13.5 -82.5v-5h-143v5q0 204 212 204q219 0 219 -188q0 -69 -30.5 -109.5t-75.5 -54.5
q127 -39 127 -181q0 -116 -61.5 -167t-181.5 -51z" />
    <glyph glyph-name="four.tnum" 
d="M280 0v174h-250v108l253 443h148v-434h86v-117h-86v-174h-151zM138 291h142v248z" />
    <glyph glyph-name="five.tnum" 
d="M270 -12q-99 0 -158.5 50t-59.5 160v4h143v-4q0 -56 17 -83.5t58 -27.5q37 0 52.5 32t15.5 96v50q0 128 -73 128q-51 0 -65 -69l-138 5l32 397h382v-116h-263l-15 -189q12 31 45 53.5t78 22.5q92 0 133 -55t41 -173v-53q0 -228 -225 -228z" />
    <glyph glyph-name="six.tnum" 
d="M280 -12q-132 0 -182 76t-50 248v103q0 172 50 248t182 76q105 0 154 -51.5t49 -142.5v-6h-143v5q0 52 -15 74t-47 22q-21 0 -34.5 -9t-21.5 -23t-12 -42t-5 -54.5t-1 -72.5v-36q12 32 43.5 54.5t77.5 22.5q91 0 133.5 -56t42.5 -172v-36q0 -117 -53 -172.5t-168 -55.5z
M272 87q72 0 72 128v32q0 128 -72 128q-71 0 -71 -128v-32q0 -128 71 -128z" />
    <glyph glyph-name="seven.tnum" 
d="M292 0h-159q4 339 242 609h-326v116h451v-116q-114 -135 -161 -276.5t-47 -332.5z" />
    <glyph glyph-name="eight.tnum" 
d="M274 -12q-120 0 -178.5 51t-58.5 167q0 141 114 181q-37 16 -67.5 56.5t-30.5 107.5q0 188 221 188t221 -188q0 -67 -30.5 -107.5t-67.5 -56.5q114 -40 114 -181q0 -117 -59 -167.5t-178 -50.5zM274 87q49 0 65 29.5t16 87.5v9q0 58 -16 87.5t-65 29.5t-65 -29.5
t-16 -87.5v-9q0 -58 16 -87.5t65 -29.5zM274 427q40 0 51.5 24.5t11.5 78.5v7q0 36 -3 55t-17.5 33.5t-42.5 14.5q-40 0 -51.5 -24.5t-11.5 -78.5v-7q0 -36 3 -55t17.5 -33.5t42.5 -14.5z" />
    <glyph glyph-name="nine.tnum" 
d="M268 -12q-105 0 -154 51.5t-49 142.5v6h143v-5q0 -52 15 -74t47 -22q21 0 34.5 9t21.5 23t12 42t5 54.5t1 72.5v36q-12 -32 -43.5 -54.5t-77.5 -22.5q-91 0 -133.5 56t-42.5 172v36q0 117 53 172.5t168 55.5q132 0 182 -76t50 -248v-103q0 -172 -50 -248t-182 -76z
M276 352q71 0 71 128v32q0 128 -71 128q-72 0 -72 -128v-32q0 -128 72 -128z" />
    <glyph glyph-name="zero.tnum" 
d="M274 87q19 0 33 6.5t23 23.5t14 33t7 49.5t2.5 58t0.5 71.5v69q0 47 -0.5 71.5t-2.5 58t-7 49.5t-14 33t-23 23.5t-33 6.5q-29 0 -46 -13.5t-24 -51.5t-8.5 -69.5t-1.5 -102.5v-5v-69v-5q0 -71 1.5 -102.5t8.5 -69.5t24 -51.5t46 -13.5zM274 -12q-134 0 -185 76t-51 248
v103q0 171 51.5 247.5t184.5 76.5t184.5 -76.5t51.5 -247.5v-103q0 -172 -51 -248t-185 -76z" />
    <glyph glyph-name="zero.tnum_zero" 
d="M274 -12q-134 0 -185 76t-51 248v103q0 171 51.5 247.5t184.5 76.5t184.5 -76.5t51.5 -247.5v-103q0 -172 -51 -248t-185 -76zM194 398v-19l160 70q0 100 -15.5 145.5t-64.5 45.5q-29 0 -46 -13.5t-24 -51.5t-8.5 -69.5t-1.5 -102.5v-5zM274 87q19 0 33 6.5t23 23.5
t14 33t7 49.5t2.5 58t0.5 71.5v19l-160 -73q0 -100 15.5 -144t64.5 -44z" />
    <glyph glyph-name="one.case" horiz-adv-x="351" 
d="M125 0v540h-111v97q82 2 106 15t40 73h125v-725h-160z" />
    <glyph glyph-name="two.case" horiz-adv-x="520" 
d="M37 0v112l81 101q113 142 155.5 212t42.5 129q0 82 -60 82q-34 0 -48 -29t-14 -98v-9h-147v8q0 118 52.5 174t168.5 56q103 0 156 -44.5t53 -129.5q0 -76 -44.5 -154.5t-142.5 -201.5l-69 -89h260v-119h-444z" />
    <glyph glyph-name="three.case" horiz-adv-x="532" 
d="M250 -12q-213 0 -213 211v4h147v-4q0 -57 15 -83t54 -26q47 0 64 31t17 87q0 57 -18.5 85.5t-78.5 28.5h-46v106h42q45 0 61.5 27t16.5 79q0 53 -12.5 78t-52.5 25q-34 0 -46.5 -21t-12.5 -82v-5h-147v5q0 205 213 205q221 0 221 -188q0 -69 -31 -109.5t-75 -54.5
q127 -39 127 -179q0 -116 -62 -168t-183 -52z" />
    <glyph glyph-name="four.case" horiz-adv-x="543" 
d="M273 0v173h-248v111l250 441h156v-432h87v-120h-87v-173h-158zM136 293h137v241z" />
    <glyph glyph-name="five.case" horiz-adv-x="519" 
d="M256 -12q-100 0 -159.5 50t-59.5 161v4h148v-4q0 -56 15.5 -82.5t55.5 -26.5q36 0 49.5 31t13.5 94v51q0 124 -69 124q-47 0 -61 -66l-142 5l31 397h385v-119h-262l-14 -185q13 31 44.5 53.5t76.5 22.5q92 0 133 -55t41 -173v-54q0 -117 -55 -172.5t-171 -55.5z" />
    <glyph glyph-name="six.case" horiz-adv-x="547" 
d="M288 -12q-135 0 -184.5 76.5t-49.5 250.5v103q0 171 50 245.5t183 74.5q204 0 204 -193v-6h-148v5q0 52 -14 72t-44 20q-17 0 -29 -5t-19.5 -18t-12 -26t-6.5 -39t-2.5 -47t-0.5 -60v-37q12 32 43.5 54t76.5 22q91 0 133 -56t42 -172v-36q0 -117 -53.5 -172.5
t-168.5 -55.5zM279 90q69 0 69 125v32q0 125 -69 125q-37 0 -52 -31t-15 -94v-32q0 -125 67 -125z" />
    <glyph glyph-name="seven.case" horiz-adv-x="458" 
d="M245 0h-165q4 339 240 606h-302v119h430v-119q-112 -135 -157.5 -275.5t-45.5 -330.5z" />
    <glyph glyph-name="eight.case" horiz-adv-x="549" 
d="M274 -12q-121 0 -179 50.5t-58 167.5q0 142 113 181q-38 16 -68 56t-30 108q0 187 222 187t222 -187q0 -68 -29.5 -108.5t-67.5 -55.5q113 -39 113 -181q0 -116 -59 -167t-179 -51zM274 90q48 0 62 28.5t14 86.5v8q0 38 -3.5 59.5t-21 38.5t-51.5 17q-48 0 -62 -28.5
t-14 -86.5v-8q0 -38 3.5 -59.5t21 -38.5t51.5 -17zM274 428q21 0 34 6.5t18.5 22.5t6.5 30t1 42v7q0 28 -1 41.5t-6.5 29.5t-18.5 22.5t-34 6.5q-39 0 -49 -23.5t-10 -76.5v-7q0 -22 0.5 -34t3.5 -27t9.5 -22.5t17.5 -12.5t28 -5z" />
    <glyph glyph-name="nine.case" horiz-adv-x="540" 
d="M259 -12q-106 0 -155 51.5t-49 142.5v6h149v-5q0 -52 13.5 -72.5t43.5 -20.5q17 0 29 5t19.5 18t12 26t6.5 39.5t2.5 47.5t0.5 60v37q-12 -32 -43 -54t-76 -22q-91 0 -133 56t-42 172v36q0 117 53 172.5t169 55.5q134 0 183.5 -76.5t49.5 -250.5v-103q0 -171 -50 -246
t-183 -75zM267 355q37 0 52.5 31t15.5 94v32q0 125 -68 125t-68 -125v-32q0 -125 68 -125z" />
    <glyph glyph-name="zero.case" horiz-adv-x="571" 
d="M285 90q52 0 67 64q9 39 9 174v70q0 145 -12 185q-15 53 -64 53q-18 0 -31.5 -6t-21.5 -23t-12.5 -31.5t-6.5 -48t-2.5 -55t-0.5 -68.5v-6v-70q0 -145 12 -185q15 -53 63 -53zM285 -12q-134 0 -185.5 76t-51.5 247v104q0 171 51.5 247t185.5 76t186 -76t52 -247v-104
q0 -171 -52 -247t-186 -76z" />
    <glyph glyph-name="zero.case_zero" horiz-adv-x="571" 
d="M285 -12q-134 0 -185.5 76t-51.5 247v104q0 171 51.5 247t185.5 76t186 -76t52 -247v-104q0 -171 -52 -247t-186 -76zM285 90q52 0 67 64q9 39 9 174v20l-151 -67q0 -102 14 -146.5t61 -44.5zM210 398v-12l151 66q0 97 -14.5 140.5t-61.5 43.5q-18 0 -31.5 -6t-21.5 -23
t-12.5 -31.5t-6.5 -48t-2.5 -55t-0.5 -68.5v-6z" />
    <glyph glyph-name="a.sups" horiz-adv-x="280" 
d="M94 430q-39 0 -61 24.5t-22 64.5v7q0 31 25 56q21 21 85 41l39 13v24q0 17 -6 25.5t-23 8.5q-20 0 -25.5 -8.5t-5.5 -32.5v-6h-83v6q0 96 115 96q63 0 92 -21t29 -86v-16q0 -12 -0.5 -38t-0.5 -37v-14q0 -70 5 -99h-85l-2 33q-21 -41 -76 -41zM132 487q17 0 23.5 13.5
t6.5 44.5v41l-23 -9q-20 -8 -26.5 -17.5t-6.5 -27.5v-8q0 -19 5 -28t21 -9z" />
    <glyph glyph-name="b.sups" horiz-adv-x="297" 
d="M189 430q-51 0 -70 43v-35h-96v407h96v-138q20 41 70 41t72 -33.5t22 -104.5v-39q0 -73 -22 -107t-72 -34zM155 495q11 0 17.5 4.5t9 19t3 24.5t0.5 39v14q0 29 -0.5 40t-3 25.5t-9 19t-17.5 4.5q-25 0 -32.5 -23t-7.5 -73q0 -49 7.5 -71.5t32.5 -22.5z" />
    <glyph glyph-name="c.sups" horiz-adv-x="268" 
d="M141 430q-126 0 -126 137v48q0 134 126 134q118 0 118 -114v-6h-89v6q0 34 -6.5 44t-22.5 10q-11 0 -17 -4t-8.5 -16.5t-3 -22.5t-0.5 -33v-10v-27q0 -64 8 -76q6 -10 21 -10q16 0 22.5 11t6.5 44v7h89v-7q0 -115 -118 -115z" />
    <glyph glyph-name="d.sups" horiz-adv-x="298" 
d="M109 430q-50 0 -72 34.5t-22 106.5v39q0 70 22.5 104t71.5 34q24 0 44 -11.5t28 -29.5v138h94v-407h-94v35q-8 -19 -28 -31t-44 -12zM142 495q27 0 34.5 22t7.5 72q0 51 -7.5 73.5t-34.5 22.5q-19 0 -24.5 -19.5t-5.5 -69.5v-14q0 -33 1.5 -49t8 -27t20.5 -11z" />
    <glyph glyph-name="e.sups" horiz-adv-x="282" 
d="M140 430q-62 0 -93.5 35.5t-31.5 100.5v50q0 133 128 133q69 0 97 -37t28 -117v-15h-158v-4q0 -33 1.5 -48.5t8.5 -26.5t22 -11q16 0 24.5 9.5t8.5 39.5v1h89v-2q0 -58 -35.5 -83t-88.5 -25zM110 636v-8h71v8q0 30 -7.5 42t-28.5 12q-20 0 -27.5 -12t-7.5 -42z" />
    <glyph glyph-name="f.sups" horiz-adv-x="177" 
d="M32 438v245h-34v57h34v23q0 51 24.5 67t81.5 16h39v-56h-20q-18 0 -24 -5t-6 -20v-25h50v-57h-50v-245h-95z" />
    <glyph glyph-name="g.sups" horiz-adv-x="301" 
d="M145 331q-117 0 -117 95h84q0 -34 35 -34q22 0 30 11.5t8 51.5v36q-24 -42 -65 -42q-49 0 -77 31t-28 95v39q0 67 27.5 100.5t77.5 33.5q42 0 65 -41v33h93v-269q0 -75 -32 -107.5t-101 -32.5zM146 514q20 0 29.5 12t10.5 25t1 44q0 27 -0.5 39t-4.5 26.5t-12.5 19.5
t-23.5 5q-22 0 -28 -18.5t-6 -62.5v-10q0 -44 6 -62t28 -18z" />
    <glyph glyph-name="h.sups" horiz-adv-x="291" 
d="M23 438v408h96v-139q20 42 74 42q42 0 60 -23t18 -79v-209h-95v176q0 21 -0.5 29t-2.5 20.5t-7.5 17t-15.5 4.5q-31 0 -31 -52v-195h-96z" />
    <glyph glyph-name="i.sups" horiz-adv-x="140" 
d="M23 438v302h95v-302h-95zM23 772v74h95v-74h-95z" />
    <glyph glyph-name="j.sups" horiz-adv-x="154" 
d="M-3 339v57h16q16 0 19.5 8t3.5 35v301h95v-296q0 -63 -24.5 -84t-84.5 -21h-25zM36 772v74h95v-74h-95z" />
    <glyph glyph-name="k.sups" horiz-adv-x="275" 
d="M24 438v408h88v-219l78 113h82l-57 -91l69 -211h-85l-41 136l-46 -65v-71h-88z" />
    <glyph glyph-name="l.sups" horiz-adv-x="140" 
d="M23 438v408h95v-408h-95z" />
    <glyph glyph-name="m.sups" horiz-adv-x="434" 
d="M23 438v302h96v-37q21 46 69 46q30 0 46.5 -12t24.5 -40q25 52 75 52q44 0 61.5 -26.5t17.5 -84.5v-200h-94v174q0 70 -21 70q-32 0 -32 -38v-206h-95v192q0 15 -0.5 20.5t-2 15t-6.5 13t-13 3.5q-30 0 -30 -51v-193h-96z" />
    <glyph glyph-name="o.sups" horiz-adv-x="286" 
d="M143 490q11 0 17.5 4.5t9 19t3 24.5t0.5 38v28q0 28 -0.5 38t-3 24t-9 18.5t-17.5 4.5t-17.5 -4.5t-9.5 -18t-3.5 -25t-0.5 -37.5v-28q0 -26 0.5 -38t3.5 -25.5t9.5 -18t17.5 -4.5zM143 430q-128 0 -128 137v47q0 135 128 135q127 0 127 -135v-47q0 -137 -127 -137z" />
    <glyph glyph-name="p.sups" horiz-adv-x="297" 
d="M23 339v401h96v-33q19 42 70 42q50 0 72 -34t22 -105v-39q0 -72 -22 -106.5t-72 -34.5t-70 43v-134h-96zM155 495q11 0 17.5 4.5t9 19t3 24.5t0.5 39v14q0 29 -0.5 40t-3 25.5t-9 19t-17.5 4.5q-25 0 -32.5 -22.5t-7.5 -72.5q0 -49 7.5 -72t32.5 -23z" />
    <glyph glyph-name="q.sups" horiz-adv-x="298" 
d="M181 339v134q-9 -19 -28.5 -31t-43.5 -12q-49 0 -71.5 35t-22.5 106v39q0 71 22.5 105t71.5 34q24 0 44 -12t28 -30v33h94v-401h-94zM142 495q27 0 34.5 22.5t7.5 72.5q0 51 -7.5 73t-34.5 22q-19 0 -24.5 -19.5t-5.5 -69.5v-14q0 -33 1.5 -49t8 -27t20.5 -11z" />
    <glyph glyph-name="r.sups" horiz-adv-x="188" 
d="M21 438v302h93v-61q13 61 63 61h11v-90h-24q-33 0 -41 -10.5t-8 -47.5v-154h-94z" />
    <glyph glyph-name="s.sups" horiz-adv-x="264" 
d="M137 430q-60 0 -93 30t-33 79v1h87v-1q0 -48 39 -48q32 0 32 27q0 8 -2 13t-7.5 9.5t-10 7t-16.5 7.5l-46 18q-37 12 -54 32t-17 54q0 90 116 90q48 0 81 -23t33 -75v-2h-84v2q0 39 -35 39q-27 -2 -27 -23q0 -13 4.5 -18.5t17.5 -11.5l40 -16q27 -11 38 -16t27 -16
t21.5 -26t5.5 -36q0 -49 -32.5 -73t-84.5 -24z" />
    <glyph glyph-name="t.sups" horiz-adv-x="182" 
d="M179 438h-67q-46 0 -62.5 18.5t-16.5 65.5v161h-34v57h34v84h95v-84h51v-57h-51v-152q0 -22 5.5 -29t21.5 -7h24v-57z" />
    <glyph glyph-name="u.sups" horiz-adv-x="281" 
d="M102 431q-44 0 -62 26t-18 84v199h94v-175q0 -18 0.5 -27t2.5 -20.5t7 -16.5t13 -5q16 0 21.5 13t5.5 38v193h94v-302h-92v37q-20 -44 -66 -44z" />
    <glyph glyph-name="v.sups" horiz-adv-x="251" 
d="M69 438l-70 302h94l32 -210l39 210h88l-75 -302h-108z" />
    <glyph glyph-name="w.sups" horiz-adv-x="344" 
d="M46 438l-34 302h76l15 -209l31 209h75l32 -209l15 209h76l-34 -302h-95l-31 224l-31 -224h-95z" />
    <glyph glyph-name="x.sups" horiz-adv-x="257" 
d="M172 438l-46 82l-49 -82h-81l90 153l-83 149h90l39 -71l42 71h82l-84 -142l90 -160h-90z" />
    <glyph glyph-name="y.sups" horiz-adv-x="247" 
d="M24 339v58h23q32 0 37 30l1 12l-86 301h94l39 -211l31 211h85l-69 -301q-12 -58 -36.5 -79t-78.5 -21h-40z" />
    <glyph glyph-name="z.sups" horiz-adv-x="245" 
d="M13 438v57l116 188h-102v57h200v-57l-117 -188h122v-57h-219z" />
    <glyph glyph-name="uni2070.zero" horiz-adv-x="291" 
d="M155 431q-77 0 -105.5 42.5t-28.5 139.5v59q0 97 28.5 139.5t105.5 42.5q75 0 104.5 -43t29.5 -139v-59q0 -96 -29.5 -139t-104.5 -43zM155 491q27 0 32.5 27.5t5.5 102.5l-78 -19q0 -61 7 -86t33 -25zM155 794q-15 0 -23.5 -7.5t-12 -28.5t-4 -37t-0.5 -55l78 19
q0 59 -6.5 84t-31.5 25z" />
    <glyph glyph-name="period.sups" horiz-adv-x="133" 
d="M17 438v96h98v-96h-98z" />
    <glyph glyph-name="hyphen.sups" horiz-adv-x="240" 
d="M24 543v73h192v-73h-192z" />
    <glyph glyph-name="comma.sups" horiz-adv-x="173" 
d="M29 342l42 96h-35v96h99v-103l-41 -89h-65z" />
    <glyph glyph-name="a.subs" horiz-adv-x="280" 
d="M94 -136q-39 0 -61 24.5t-22 64.5v7q0 31 25 56q21 21 85 41l39 13v24q0 17 -6 25.5t-23 8.5q-20 0 -25.5 -8.5t-5.5 -32.5v-6h-83v6q0 96 115 96q63 0 92 -21t29 -86v-16q0 -12 -0.5 -37.5t-0.5 -37.5v-14q0 -70 5 -99h-85l-2 33q-21 -41 -76 -41zM132 -79
q17 0 23.5 13.5t6.5 44.5v41l-23 -9q-20 -8 -26.5 -17.5t-6.5 -27.5v-8q0 -19 5 -28t21 -9z" />
    <glyph glyph-name="b.subs" horiz-adv-x="297" 
d="M189 -136q-51 0 -70 43v-35h-96v407h96v-138q20 41 70 41t72 -33.5t22 -104.5v-39q0 -73 -22 -107t-72 -34zM155 -71q11 0 17.5 4.5t9 19t3 24.5t0.5 39v14q0 29 -0.5 40t-3 25.5t-9 19t-17.5 4.5q-25 0 -32.5 -23t-7.5 -73q0 -49 7.5 -71.5t32.5 -22.5z" />
    <glyph glyph-name="c.subs" horiz-adv-x="268" 
d="M141 -136q-126 0 -126 137v48q0 134 126 134q118 0 118 -114v-6h-89v6q0 34 -6.5 44t-22.5 10q-11 0 -17 -4t-8.5 -16.5t-3 -22.5t-0.5 -33v-10v-27q0 -64 8 -76q6 -10 21 -10q16 0 22.5 11t6.5 44v7h89v-7q0 -115 -118 -115z" />
    <glyph glyph-name="d.subs" horiz-adv-x="298" 
d="M109 -136q-50 0 -72 34.5t-22 106.5v39q0 70 22.5 104t71.5 34q24 0 44 -11.5t28 -29.5v138h94v-407h-94v35q-8 -19 -28 -31t-44 -12zM142 -71q27 0 34.5 22t7.5 72q0 51 -7.5 73.5t-34.5 22.5q-19 0 -24.5 -19.5t-5.5 -69.5v-14q0 -33 1.5 -49t8 -27t20.5 -11z" />
    <glyph glyph-name="e.subs" horiz-adv-x="282" 
d="M140 -136q-62 0 -93.5 35.5t-31.5 100.5v50q0 133 128 133q69 0 97 -37t28 -117v-15h-158v-4q0 -33 1.5 -48.5t8.5 -26.5t22 -11q16 0 24.5 9.5t8.5 39.5v1h89v-2q0 -58 -35.5 -83t-88.5 -25zM110 70v-8h71v8q0 30 -7.5 42t-28.5 12q-20 0 -27.5 -12t-7.5 -42z" />
    <glyph glyph-name="f.subs" horiz-adv-x="177" 
d="M32 -128v245h-34v57h34v23q0 51 24.5 67t81.5 16h39v-56h-20q-18 0 -24 -5t-6 -20v-25h50v-57h-50v-245h-95z" />
    <glyph glyph-name="g.subs" horiz-adv-x="301" 
d="M145 -235q-117 0 -117 95h84q0 -34 35 -34q22 0 30 11.5t8 51.5v36q-24 -42 -65 -42q-49 0 -77 31t-28 95v39q0 67 27.5 100.5t77.5 33.5q42 0 65 -41v33h93v-269q0 -75 -32 -107.5t-101 -32.5zM146 -52q20 0 29.5 12t10.5 25t1 44q0 27 -0.5 39t-4.5 26.5t-12.5 19.5
t-23.5 5q-22 0 -28 -18.5t-6 -62.5v-10q0 -44 6 -62t28 -18z" />
    <glyph glyph-name="h.subs" horiz-adv-x="291" 
d="M23 -128v408h96v-139q20 42 74 42q42 0 60 -23t18 -79v-209h-95v176q0 21 -0.5 29t-2.5 20.5t-7.5 17t-15.5 4.5q-31 0 -31 -52v-195h-96z" />
    <glyph glyph-name="i.subs" horiz-adv-x="140" 
d="M23 -128v302h95v-302h-95zM23 206v74h95v-74h-95z" />
    <glyph glyph-name="j.subs" horiz-adv-x="154" 
d="M-3 -227v57h16q16 0 19.5 8t3.5 35v301h95v-296q0 -63 -24.5 -84t-84.5 -21h-25zM36 206v74h95v-74h-95z" />
    <glyph glyph-name="k.subs" horiz-adv-x="275" 
d="M24 -128v408h88v-219l78 113h82l-57 -91l69 -211h-85l-41 136l-46 -65v-71h-88z" />
    <glyph glyph-name="l.subs" horiz-adv-x="140" 
d="M23 -128v408h95v-408h-95z" />
    <glyph glyph-name="m.subs" horiz-adv-x="434" 
d="M23 -128v302h96v-37q21 46 69 46q30 0 46.5 -12t24.5 -40q25 52 75 52q44 0 61.5 -26.5t17.5 -84.5v-200h-94v174q0 70 -21 70q-32 0 -32 -38v-206h-95v192q0 15 -0.5 20.5t-2 15t-6.5 13t-13 3.5q-30 0 -30 -51v-193h-96z" />
    <glyph glyph-name="uni207F.002" horiz-adv-x="291" 
d="M23 -128v302h96v-33q20 42 74 42q42 0 60 -23t18 -79v-209h-95v176q0 21 -0.5 29t-2.5 20.5t-7.5 17t-15.5 4.5q-31 0 -31 -52v-195h-96z" />
    <glyph glyph-name="o.subs" horiz-adv-x="286" 
d="M143 -76q11 0 17.5 4.5t9 19t3 24.5t0.5 38v28q0 28 -0.5 38t-3 24t-9 18.5t-17.5 4.5t-17.5 -4.5t-9.5 -18t-3.5 -25t-0.5 -37.5v-28q0 -26 0.5 -38t3.5 -25.5t9.5 -18t17.5 -4.5zM143 -136q-128 0 -128 137v47q0 135 128 135q127 0 127 -135v-47q0 -137 -127 -137z" />
    <glyph glyph-name="p.subs" horiz-adv-x="297" 
d="M23 -227v401h96v-33q19 42 70 42q50 0 72 -34t22 -105v-39q0 -72 -22 -106.5t-72 -34.5t-70 43v-134h-96zM155 -71q11 0 17.5 4.5t9 19t3 24.5t0.5 39v14q0 29 -0.5 40t-3 25.5t-9 19t-17.5 4.5q-25 0 -32.5 -22.5t-7.5 -72.5q0 -49 7.5 -72t32.5 -23z" />
    <glyph glyph-name="q.subs" horiz-adv-x="298" 
d="M181 -227v134q-9 -19 -28.5 -31t-43.5 -12q-49 0 -71.5 35t-22.5 106v39q0 71 22.5 105t71.5 34q24 0 44 -12t28 -30v33h94v-401h-94zM142 -71q27 0 34.5 22.5t7.5 72.5q0 51 -7.5 73t-34.5 22q-19 0 -24.5 -19.5t-5.5 -69.5v-14q0 -33 1.5 -49t8 -27t20.5 -11z" />
    <glyph glyph-name="r.subs" horiz-adv-x="188" 
d="M21 -128v302h93v-61q13 61 63 61h11v-90h-24q-33 0 -41 -10.5t-8 -47.5v-154h-94z" />
    <glyph glyph-name="s.subs" horiz-adv-x="264" 
d="M137 -136q-60 0 -93 30t-33 79v1h87v-1q0 -48 39 -48q32 0 32 27q0 8 -2 13t-7.5 9.5t-10 7t-16.5 7.5l-46 18q-37 12 -54 32t-17 54q0 90 116 90q48 0 81 -23t33 -75v-2h-84v2q0 39 -35 39q-27 -2 -27 -23q0 -13 4.5 -18.5t17.5 -11.5l40 -16q27 -11 38 -16t27 -16
t21.5 -26t5.5 -36q0 -49 -32.5 -73t-84.5 -24z" />
    <glyph glyph-name="t.subs" horiz-adv-x="182" 
d="M179 -128h-67q-46 0 -62.5 18.5t-16.5 65.5v161h-34v57h34v84h95v-84h51v-57h-51v-152q0 -22 5.5 -29t21.5 -7h24v-57z" />
    <glyph glyph-name="u.subs" horiz-adv-x="281" 
d="M102 -135q-44 0 -62 26t-18 84v199h94v-175q0 -18 0.5 -27t2.5 -20.5t7 -16.5t13 -5q16 0 21.5 13t5.5 38v193h94v-302h-92v37q-20 -44 -66 -44z" />
    <glyph glyph-name="v.subs" horiz-adv-x="251" 
d="M69 -128l-70 302h94l32 -210l39 210h88l-75 -302h-108z" />
    <glyph glyph-name="w.subs" horiz-adv-x="344" 
d="M46 -128l-34 302h76l15 -209l31 209h75l32 -209l15 209h76l-34 -302h-95l-31 224l-31 -224h-95z" />
    <glyph glyph-name="x.subs" horiz-adv-x="257" 
d="M172 -128l-46 82l-49 -82h-81l90 153l-83 149h90l39 -71l42 71h82l-84 -142l90 -160h-90z" />
    <glyph glyph-name="y.subs" horiz-adv-x="247" 
d="M24 -227v58h23q32 0 37 30l1 12l-86 301h94l39 -211l31 211h85l-69 -301q-12 -58 -36.5 -79t-78.5 -21h-40z" />
    <glyph glyph-name="z.subs" horiz-adv-x="245" 
d="M13 -128v57l116 188h-102v57h200v-57l-117 -188h122v-57h-219z" />
    <glyph glyph-name="uni2080.zero" horiz-adv-x="291" 
d="M155 -135q-77 0 -105.5 42.5t-28.5 139.5v59q0 97 28.5 139.5t105.5 42.5q75 0 104.5 -43t29.5 -139v-59q0 -96 -29.5 -139t-104.5 -43zM155 -75q27 0 32.5 27.5t5.5 102.5l-78 -19q0 -61 7 -86t33 -25zM155 228q-15 0 -23.5 -7.5t-12 -28.5t-4 -37t-0.5 -55l78 19
q0 59 -6.5 84t-31.5 25z" />
    <glyph glyph-name="period.subs" horiz-adv-x="133" 
d="M17 -128v96h98v-96h-98z" />
    <glyph glyph-name="hyphen.subs" horiz-adv-x="240" 
d="M24 -23v73h192v-73h-192z" />
    <glyph glyph-name="comma.subs" horiz-adv-x="173" 
d="M29 -224l42 96h-35v96h99v-103l-41 -89h-65z" />
    <glyph glyph-name="uni207C.003" horiz-adv-x="286" 
d="M24 -79v80h238v-80h-238zM24 34v81h238v-81h-238z" />
    <glyph glyph-name="uni207A.004" horiz-adv-x="324" 
d="M122 -128v109h-104v80h104v110h81v-110h103v-80h-103v-109h-81z" />
    <glyph glyph-name="uni207B.005" horiz-adv-x="324" 
d="M18 -27v81h288v-81h-288z" />
    <glyph glyph-name="one.frac" horiz-adv-x="182" 
d="M65 317v300h-65v58q45 2 57.5 9.5t22.5 40.5h73v-408h-88z" />
    <glyph glyph-name="two.frac" horiz-adv-x="293" 
d="M24 317v67l46 57q62 76 85.5 116t23.5 71q0 44 -32 44q-17 0 -23 -15t-6 -54v-6h-91v5q0 66 31 98t97 32q120 0 120 -98q0 -42 -24 -85.5t-78 -110.5l-39 -50h142v-71h-252z" />
    <glyph glyph-name="three.frac" horiz-adv-x="298" 
d="M139 309q-121 0 -121 121v2h88v-2q0 -32 7 -46.5t27 -14.5q25 0 33.5 16.5t8.5 47.5q0 22 -2 33t-13.5 20.5t-34.5 9.5h-26v63h24q24 0 31.5 14t7.5 42q0 29 -6.5 43t-27.5 14q-16 0 -22 -11t-6 -45v-2h-88v2q0 116 121 116q125 0 125 -107q0 -71 -58 -90q72 -23 72 -102
q0 -66 -35.5 -95t-104.5 -29z" />
    <glyph glyph-name="four.frac" horiz-adv-x="304" 
d="M158 317v96h-146v65l141 247h90v-240h49v-72h-49v-96h-85zM82 485h76v127z" />
    <glyph glyph-name="five.frac" horiz-adv-x="288" 
d="M141 309q-124 0 -124 121v2h89v-2q0 -31 7.5 -46t27.5 -15q19 0 25.5 16.5t6.5 51.5v29q0 68 -34 68q-24 0 -32 -36l-83 4l18 223h217v-71h-145l-8 -101q6 18 24 30.5t43 12.5q52 0 74.5 -30.5t22.5 -97.5v-31q0 -128 -129 -128z" />
    <glyph glyph-name="six.frac" horiz-adv-x="298" 
d="M156 309q-77 0 -105 44.5t-28 143.5v57q0 94 28.5 136t103.5 42q116 0 116 -109v-5h-88v3q0 29 -7 40t-22 11q-13 0 -20 -5.5t-10 -22.5t-3.5 -30t-0.5 -47v-22q16 41 64 41q52 0 74.5 -31.5t22.5 -97.5v-20q0 -65 -29.5 -96.5t-95.5 -31.5zM150 369q20 0 27.5 16.5
t7.5 51.5v18q0 67 -35 67q-32 0 -32 -66v-20q0 -67 32 -67z" />
    <glyph glyph-name="seven.frac" horiz-adv-x="226" 
d="M132 317h-98q5 222 117 337h-151v71h226v-71q-59 -62 -76.5 -138.5t-17.5 -198.5z" />
    <glyph glyph-name="eight.frac" horiz-adv-x="303" 
d="M152 309q-69 0 -102 28.5t-33 95.5q0 78 62 101q-20 8 -37 30t-17 60q0 108 127 108q125 0 125 -108q0 -37 -16.5 -59.5t-36.5 -30.5q61 -22 61 -101q0 -67 -32.5 -95.5t-100.5 -28.5zM152 369q25 0 31.5 15t6.5 48v4q0 16 -0.5 24t-4 18.5t-11.5 15t-22 4.5
q-27 0 -33.5 -15t-6.5 -47v-4q0 -23 1.5 -33.5t10.5 -20t28 -9.5zM152 559q15 0 21.5 8t7 15.5t0.5 31.5v2q0 41 -8 49q-7 7 -21 7q-15 0 -21.5 -8.5t-7.5 -17t-1 -30.5v-2q0 -23 1 -31.5t7.5 -16t21.5 -7.5z" />
    <glyph glyph-name="nine.frac" horiz-adv-x="298" 
d="M143 309q-116 0 -116 109v5h88v-3q0 -29 7 -40t22 -11q13 0 20 5.5t10 22.5t3.5 30t0.5 47v22q-16 -41 -64 -41q-51 0 -74 31.5t-23 96.5v21q0 65 29.5 96.5t95.5 31.5q77 0 105 -44.5t28 -143.5v-57q0 -94 -28.5 -136t-103.5 -42zM148 519q19 0 25.5 16t6.5 49v21
q0 34 -6.5 50.5t-25.5 16.5q-20 0 -27 -16.5t-7 -51.5v-18q0 -34 7 -50.5t27 -16.5z" />
    <glyph glyph-name="zero.frac" horiz-adv-x="310" 
d="M155 370q14 0 22 6.5t11.5 26t4 35t0.5 52.5v5.5v5.5v39v11q0 36 -0.5 52.5t-4 35.5t-11.5 26t-22 7q-15 0 -23.5 -7.5t-12 -29.5t-4 -38t-0.5 -57v-39q0 -93 10 -113q10 -17 30 -18zM155 310q-77 0 -105.5 42t-28.5 139v59q0 97 28.5 139.5t105.5 42.5q75 0 104.5 -43
t29.5 -139v-59q0 -96 -29 -138.5t-105 -42.5z" />
    <glyph glyph-name="zero.frac_zero" horiz-adv-x="310" 
d="M155 310q-77 0 -105.5 42.5t-28.5 139.5v59q0 97 28.5 139.5t105.5 42.5q75 0 104.5 -43t29.5 -139v-59q0 -96 -29.5 -139t-104.5 -43zM155 370q27 0 32.5 27.5t5.5 102.5l-78 -19q0 -61 7 -86t33 -25zM155 673q-15 0 -23.5 -7.5t-12 -28.5t-4 -37t-0.5 -55l78 19
q0 59 -6.5 84t-31.5 25z" />
    <glyph glyph-name="one.dnom" horiz-adv-x="182" 
d="M65 0v300h-65v58q45 2 57.5 9.5t22.5 40.5h73v-408h-88z" />
    <glyph glyph-name="two.dnom" horiz-adv-x="293" 
d="M24 0v67l46 57q62 76 85.5 116t23.5 71q0 44 -32 44q-17 0 -23 -15t-6 -54v-6h-91v5q0 66 31 98t97 32q120 0 120 -98q0 -42 -24 -85.5t-78 -110.5l-39 -50h142v-71h-252z" />
    <glyph glyph-name="three.dnom" horiz-adv-x="298" 
d="M139 -8q-121 0 -121 121v2h88v-2q0 -32 7 -46.5t27 -14.5q25 0 33.5 16.5t8.5 47.5q0 22 -2 33t-13.5 20.5t-34.5 9.5h-26v63h24q24 0 31.5 14t7.5 42q0 29 -6.5 43t-27.5 14q-16 0 -22 -11t-6 -45v-2h-88v2q0 116 121 116q125 0 125 -107q0 -71 -58 -90q72 -23 72 -102
q0 -66 -35.5 -95t-104.5 -29z" />
    <glyph glyph-name="four.dnom" horiz-adv-x="304" 
d="M158 0v96h-146v65l141 247h90v-240h49v-72h-49v-96h-85zM82 168h76v127z" />
    <glyph glyph-name="five.dnom" horiz-adv-x="288" 
d="M141 -8q-124 0 -124 121v2h89v-2q0 -31 7.5 -46t27.5 -15q19 0 25.5 16.5t6.5 51.5v29q0 68 -34 68q-24 0 -32 -36l-83 4l18 223h217v-71h-145l-8 -101q6 18 24 30.5t43 12.5q52 0 74.5 -30.5t22.5 -97.5v-31q0 -128 -129 -128z" />
    <glyph glyph-name="six.dnom" horiz-adv-x="298" 
d="M156 -8q-77 0 -105 44.5t-28 143.5v57q0 94 28.5 136t103.5 42q116 0 116 -109v-5h-88v3q0 29 -7 40t-22 11q-13 0 -20 -5.5t-10 -22.5t-3.5 -30t-0.5 -47v-22q16 41 64 41q52 0 74.5 -31.5t22.5 -97.5v-20q0 -65 -29.5 -96.5t-95.5 -31.5zM150 52q20 0 27.5 16.5
t7.5 51.5v18q0 67 -35 67q-32 0 -32 -66v-20q0 -67 32 -67z" />
    <glyph glyph-name="seven.dnom" horiz-adv-x="226" 
d="M132 0h-98q5 222 117 337h-151v71h226v-71q-59 -62 -76.5 -138.5t-17.5 -198.5z" />
    <glyph glyph-name="eight.dnom" horiz-adv-x="303" 
d="M152 -8q-69 0 -102 28.5t-33 95.5q0 78 62 101q-20 8 -37 30.5t-17 59.5q0 108 127 108q125 0 125 -108q0 -37 -16.5 -59.5t-36.5 -30.5q61 -22 61 -101q0 -67 -32.5 -95.5t-100.5 -28.5zM152 52q25 0 31.5 15t6.5 48v4q0 16 -0.5 24t-4 18.5t-11.5 15t-22 4.5
q-27 0 -33.5 -15t-6.5 -47v-4q0 -23 1.5 -33.5t10.5 -20t28 -9.5zM152 242q15 0 21.5 8t7 15.5t0.5 31.5v2q0 41 -8 49q-7 7 -21 7q-15 0 -21.5 -8.5t-7.5 -17t-1 -30.5v-2q0 -23 1 -31.5t7.5 -16t21.5 -7.5z" />
    <glyph glyph-name="nine.dnom" horiz-adv-x="298" 
d="M143 -8q-116 0 -116 109v5h88v-3q0 -29 7 -40t22 -11q13 0 20 5.5t10 22.5t3.5 30t0.5 47v22q-16 -41 -64 -41q-51 0 -74 31.5t-23 96.5v21q0 65 29.5 96.5t95.5 31.5q77 0 105 -44.5t28 -143.5v-57q0 -94 -28.5 -136t-103.5 -42zM148 202q19 0 25.5 16t6.5 49v21
q0 34 -6.5 50.5t-25.5 16.5q-20 0 -27 -16.5t-7 -51.5v-18q0 -34 7 -50.5t27 -16.5z" />
    <glyph glyph-name="zero.dnom" horiz-adv-x="310" 
d="M155 52q27 0 32.5 27.5t5.5 104.5v39v11q0 36 -0.5 52.5t-4 35.5t-11.5 26t-22 7q-15 0 -23.5 -7.5t-12 -29.5t-4 -38t-0.5 -57v-39q0 -41 0.5 -57t4 -38t12 -29.5t23.5 -7.5zM155 -8q-77 0 -105.5 42.5t-28.5 139.5v59q0 97 28.5 139.5t105.5 42.5q75 0 104.5 -43
t29.5 -139v-59q0 -96 -29.5 -139t-104.5 -43z" />
    <glyph glyph-name="zero.dnom_zero" horiz-adv-x="309" 
d="M155 -7q-77 0 -105.5 42.5t-28.5 139.5v59q0 97 28.5 139.5t105.5 42.5q75 0 104.5 -43t29.5 -139v-59q0 -96 -29.5 -139t-104.5 -43zM155 53q27 0 32.5 27.5t5.5 102.5l-78 -19q0 -61 7 -86t33 -25zM155 356q-15 0 -23.5 -7.5t-12 -28.5t-4 -37t-0.5 -55l78 19
q0 59 -6.5 84t-31.5 25z" />
    <glyph glyph-name="ampersand.case" horiz-adv-x="653" 
d="M240 -13q-101 0 -164 54.5t-63 152.5q0 36 9.5 64.5t32 53t42.5 39.5t57 40l17 12l-8 11q-37 47 -52.5 83.5t-15.5 82.5q0 72 55.5 115t136.5 43q80 0 132.5 -38.5t52.5 -120.5q0 -61 -29.5 -102t-88.5 -81l-10 -7l100 -130q26 63 26 141h123q-4 -140 -71 -243l122 -157
h-161l-44 56q-77 -69 -199 -69zM260 100q74 0 111 45l-133 171l-11 -8q-36 -25 -48.5 -49t-12.5 -62q0 -44 24 -70.5t70 -26.5zM227 583q0 -28 9.5 -47t33.5 -51l7 -10l15 10q57 39 57 88q0 31 -17 47t-45 16q-24 0 -42 -14.5t-18 -38.5z" />
    <glyph glyph-name="hyphen.006" horiz-adv-x="352" 
d="M43 281v131h266v-131h-266z" />
    <glyph glyph-name="endash.007" horiz-adv-x="499" 
d="M26 281v131h447v-131h-447z" />
    <glyph glyph-name="emdash.008" horiz-adv-x="726" 
d="M26 281v131h674v-131h-674z" />
    <glyph glyph-name="question.case" horiz-adv-x="528" 
d="M159 220v45q0 68 27.5 102t89.5 70q43 24 54 47t11 66q0 83 -67 83q-49 0 -69.5 -28t-20.5 -93v-12h-164v12q0 115 68 170.5t188 55.5q99 0 165.5 -45.5t66.5 -135.5q0 -123 -96 -175q-24 -14 -29.5 -17t-21 -14t-18 -16.5t-9.5 -17t-8 -24.5t-1 -32v-41h-166zM161 0v155
h162v-155h-162z" />
    <glyph glyph-name="questiondown.case" horiz-adv-x="528" 
d="M252 -13q-99 0 -165.5 45.5t-66.5 135.5q0 123 96 175q24 14 29.5 17t21 14t18 16.5t9.5 17t8 24.5t1 32v41h166v-45q0 -68 -27.5 -102t-89.5 -70q-43 -26 -54 -47.5t-11 -65.5q0 -83 67 -83q49 0 69.5 28t20.5 93v12h164v-12q0 -115 -68 -170.5t-188 -55.5zM204 570v155
h162v-155h-162z" />
    <glyph glyph-name="exclam.case" horiz-adv-x="262" 
d="M77 214l-34 325v186h176v-186l-34 -325h-108zM50 0v155h162v-155h-162z" />
    <glyph glyph-name="exclamdown.case" horiz-adv-x="262" 
d="M43 186l34 325h108l34 -325v-186h-176v186zM50 570v155h162v-155h-162z" />
    <glyph glyph-name="guilsinglleft.009" horiz-adv-x="211" 
d="M181 136l-151 151v180l151 148v-172l-73 -67l73 -67v-173z" />
    <glyph glyph-name="guilsinglright.010" horiz-adv-x="211" 
d="M30 136v173l73 67l-73 67v172l151 -148v-180z" />
    <glyph glyph-name="guilsinglleft_guilsinglleft" horiz-adv-x="395" 
d="M181 136l-151 151v180l151 148v-172l-73 -67l73 -67v-173zM365 136l-151 151v180l151 148v-172l-73 -67l73 -67v-173z" />
    <glyph glyph-name="guilsinglright_guilsinglright" horiz-adv-x="395" 
d="M30 136v173l73 67l-73 67v172l151 -148v-180zM214 136v173l73 67l-73 67v172l151 -148v-180z" />
    <glyph glyph-name="parenleft.case" horiz-adv-x="267" 
d="M275 0h-137q-116 173 -116 363q0 189 116 362h137q-107 -176 -107 -362q0 -187 107 -363z" />
    <glyph glyph-name="parenright.case" horiz-adv-x="267" 
d="M129 0h-137q107 177 107 363q0 187 -107 362h137q116 -173 116 -362q0 -187 -116 -363z" />
    <glyph glyph-name="bracketleft.case" horiz-adv-x="296" 
d="M54 0v725h237v-100h-114v-524h114v-101h-237z" />
    <glyph glyph-name="bracketright.case" horiz-adv-x="296" 
d="M5 0v101h114v524h-114v100h237v-725h-237z" />
    <glyph glyph-name="braceleft.case" horiz-adv-x="316" 
d="M306 0h-30q-109 0 -154 36t-45 137v33q0 52 -15.5 77.5t-61.5 25.5v110q47 0 62 24.5t15 78.5v30q0 101 45 137t154 36h30v-110h-16q-49 0 -65 -15.5t-16 -55.5v-43q0 -64 -25 -94.5t-70 -41.5v-2q95 -23 95 -137v-45q0 -40 16 -55.5t65 -15.5h16v-110z" />
    <glyph glyph-name="braceright.case" horiz-adv-x="316" 
d="M40 0h-30v110h16q49 0 65 15.5t16 55.5v45q0 114 95 137v2q-45 11 -70 41.5t-25 94.5v43q0 40 -16 55.5t-65 15.5h-16v110h30q109 0 154 -36t45 -137v-30q0 -54 15 -78.5t62 -24.5v-110q-46 0 -61.5 -25.5t-15.5 -77.5v-33q0 -101 -45 -137t-154 -36z" />
    <glyph glyph-name="bar.case" horiz-adv-x="248" 
d="M54 0v725h140v-725h-140z" />
    <glyph glyph-name="brokenbar.case" horiz-adv-x="226" 
d="M43 0v260h140v-260h-140zM43 465v260h140v-260h-140z" />
    <glyph glyph-name="period.011" horiz-adv-x="238" 
d="M38 285v155h162v-155h-162z" />
    <glyph glyph-name="bullet.012" horiz-adv-x="447" 
d="M220 184q-73 0 -125 53t-52 130q0 73 52 125t125 52q78 0 131 -51.5t53 -125.5q0 -77 -53 -130t-131 -53z" />
    <glyph glyph-name="plus.013" 
d="M214 95v211h-198v116h198v211h120v-211h198v-116h-198v-211h-120z" />
    <glyph glyph-name="minus.014" 
d="M16 281v131h516v-131h-516z" />
    <glyph glyph-name="divide.015" 
d="M193 104v151h160v-151h-160zM43 303v116h462v-116h-462zM193 468v150h160v-150h-160z" />
    <glyph glyph-name="multiply.016" 
d="M122 125l-80 84l150 150l-152 153l82 83l153 -154l152 152l82 -82l-152 -152l152 -152l-82 -82l-153 152z" />
    <glyph glyph-name="equal.017" 
d="M59 197v116h430v-116h-430zM59 414v117h430v-117h-430z" />
    <glyph glyph-name="plusminus.018" 
d="M215 259v129h-175v116h175v129h119v-129h175v-116h-175v-129h-119zM40 95v116h469v-116h-469z" />
    <glyph glyph-name="less.019" 
d="M481 87l-413 211v129l413 211v-132l-281 -144l281 -143v-132z" />
    <glyph glyph-name="greater.020" 
d="M481 298l-413 -211v132l281 143l-281 144v132l413 -211v-129z" />
    <glyph glyph-name="lessequal.021" 
d="M500 650v-122l-270 -84l270 -84v-123l-452 143v127zM48 95v116h452v-116h-452z" />
    <glyph glyph-name="greaterequal.022" 
d="M48 528v122l452 -143v-127l-452 -143v123l270 84zM500 211v-116h-452v116h452z" />
    <glyph glyph-name="notequal.023" 
d="M59 414v117h218l42 102h137l-42 -102h75v-117h-124l-41 -101h165v-116h-213l-42 -102h-137l42 102h-80v116h128l41 101h-169z" />
    <glyph glyph-name="acute.case" horiz-adv-x="286" 
d="M22 773l55 113h188l-131 -113h-112z" />
    <glyph glyph-name="breve.case" horiz-adv-x="361" 
d="M181 769q-76 0 -115 28.5t-44 88.5h107q2 -26 14.5 -36t37.5 -10q27 0 38.5 10t13.5 36h107q-5 -60 -44 -88.5t-115 -28.5z" />
    <glyph glyph-name="caron.case" horiz-adv-x="420" 
d="M280 773h-140l-118 113h138l50 -49l50 49h138z" />
    <glyph glyph-name="cedilla.case" horiz-adv-x="267" 
d="M117 -194q-53 0 -95 15l17 51q26 -14 63 -14q51 0 51 29q0 28 -39 28q-25 0 -39 -9l-30 17l51 83h58l-32 -52q12 4 38 4q35 0 60.5 -18t25.5 -50q0 -41 -38 -62.5t-91 -21.5z" />
    <glyph glyph-name="circumflex.case" horiz-adv-x="419" 
d="M22 773l118 113h140l118 -113h-138l-50 49l-50 -49h-138z" />
    <glyph glyph-name="dieresis.case" horiz-adv-x="377" 
d="M22 773v113h134v-113h-134zM222 773v113h134v-113h-134z" />
    <glyph glyph-name="dotaccent.case" horiz-adv-x="203" 
d="M22 773v113h160v-113h-160z" />
    <glyph glyph-name="grave.case" horiz-adv-x="286" 
d="M153 773l-131 113h188l55 -113h-112z" />
    <glyph glyph-name="hungarumlaut.case" horiz-adv-x="480" 
d="M225 773l55 113h178l-121 -113h-112zM22 773l55 113h178l-121 -113h-112z" />
    <glyph glyph-name="overscore.case" horiz-adv-x="296" 
d="M22 783v103h252v-103h-252z" />
    <glyph glyph-name="ogonek.case" horiz-adv-x="274" 
d="M160 -188q-59 0 -98.5 23t-39.5 70q0 28 17 54t42 41h161q-47 -22 -68 -37t-21 -35q0 -33 44 -33q22 0 45 7v-82q-43 -8 -82 -8z" />
    <glyph glyph-name="ring.case" horiz-adv-x="223" 
d="M112 808q18 0 30.5 12t12.5 30t-12.5 30.5t-30.5 12.5t-30.5 -12.5t-12.5 -30.5t12.5 -30t30.5 -12zM112 765q-38 0 -64 24t-26 61q0 36 26.5 60.5t63.5 24.5t63.5 -24.5t26.5 -60.5q0 -37 -26 -61t-64 -24z" />
    <glyph glyph-name="tilde.case" horiz-adv-x="374" 
d="M238 861q30 0 31 33h83q-4 -56 -33 -89.5t-72 -33.5q-20 0 -57 16.5t-54 16.5q-30 0 -31 -33h-83q4 56 33 89.5t72 33.5q25 0 62 -16.5t49 -16.5z" />
    <glyph glyph-name="a.salt" horiz-adv-x="520" 
d="M29 235v73q0 127 39.5 187t127.5 60q44 0 78 -22t49 -58v63h154v-538h-154v68q-15 -36 -49 -58t-78 -22q-88 0 -127.5 60t-39.5 187zM186 285v-27q0 -46 1.5 -72.5t8 -50.5t19 -33.5t33.5 -9.5q47 0 63.5 43.5t16.5 135.5t-16.5 136t-63.5 44q-21 0 -33.5 -10t-19 -34
t-8 -50t-1.5 -72z" />
    <glyph glyph-name="aacute.salt" horiz-adv-x="520" 
d="M29 235v73q0 127 39.5 187t127.5 60q44 0 78 -22t49 -58v63h154v-538h-154v68q-15 -36 -49 -58t-78 -22q-88 0 -127.5 60t-39.5 187zM186 285v-27q0 -46 1.5 -72.5t8 -50.5t19 -33.5t33.5 -9.5q47 0 63.5 43.5t16.5 135.5t-16.5 136t-63.5 44q-21 0 -33.5 -10t-19 -34
t-8 -50t-1.5 -72zM204 602l62 123h174l-142 -123h-94z" />
    <glyph glyph-name="abreve.salt" horiz-adv-x="520" 
d="M29 235v73q0 127 39.5 187t127.5 60q44 0 78 -22t49 -58v63h154v-538h-154v68q-15 -36 -49 -58t-78 -22q-88 0 -127.5 60t-39.5 187zM186 285v-27q0 -46 1.5 -72.5t8 -50.5t19 -33.5t33.5 -9.5q47 0 63.5 43.5t16.5 135.5t-16.5 136t-63.5 44q-21 0 -33.5 -10t-19 -34
t-8 -50t-1.5 -72zM270 602q-146 0 -146 123h103q0 -28 10.5 -37.5t32.5 -9.5t32.5 9.5t10.5 37.5h103q0 -60 -34 -91.5t-112 -31.5z" />
    <glyph glyph-name="acircumflex.salt" horiz-adv-x="520" 
d="M29 235v73q0 127 39.5 187t127.5 60q44 0 78 -22t49 -58v63h154v-538h-154v68q-15 -36 -49 -58t-78 -22q-88 0 -127.5 60t-39.5 187zM186 285v-27q0 -46 1.5 -72.5t8 -50.5t19 -33.5t33.5 -9.5q47 0 63.5 43.5t16.5 135.5t-16.5 136t-63.5 44q-21 0 -33.5 -10t-19 -34
t-8 -50t-1.5 -72zM91 602l120 123h130l120 -123h-118l-67 52l-67 -52h-118z" />
    <glyph glyph-name="adieresis.salt" horiz-adv-x="520" 
d="M29 235v73q0 127 39.5 187t127.5 60q44 0 78 -22t49 -58v63h154v-538h-154v68q-15 -36 -49 -58t-78 -22q-88 0 -127.5 60t-39.5 187zM186 285v-27q0 -46 1.5 -72.5t8 -50.5t19 -33.5t33.5 -9.5q47 0 63.5 43.5t16.5 135.5t-16.5 136t-63.5 44q-21 0 -33.5 -10t-19 -34
t-8 -50t-1.5 -72zM111 602v123h134v-123h-134zM311 602v123h134v-123h-134z" />
    <glyph glyph-name="agrave.salt" horiz-adv-x="520" 
d="M29 235v73q0 127 39.5 187t127.5 60q44 0 78 -22t49 -58v63h154v-538h-154v68q-15 -36 -49 -58t-78 -22q-88 0 -127.5 60t-39.5 187zM186 285v-27q0 -46 1.5 -72.5t8 -50.5t19 -33.5t33.5 -9.5q47 0 63.5 43.5t16.5 135.5t-16.5 136t-63.5 44q-21 0 -33.5 -10t-19 -34
t-8 -50t-1.5 -72zM243 602l-142 123h174l62 -123h-94z" />
    <glyph glyph-name="amacron.salt" horiz-adv-x="520" 
d="M29 235v73q0 127 39.5 187t127.5 60q44 0 78 -22t49 -58v63h154v-538h-154v68q-15 -36 -49 -58t-78 -22q-88 0 -127.5 60t-39.5 187zM186 285v-27q0 -46 1.5 -72.5t8 -50.5t19 -33.5t33.5 -9.5q47 0 63.5 43.5t16.5 135.5t-16.5 136t-63.5 44q-21 0 -33.5 -10t-19 -34
t-8 -50t-1.5 -72zM149 612v101h252v-101h-252z" />
    <glyph glyph-name="aogonek.salt" horiz-adv-x="520" 
d="M29 235v73q0 127 39.5 187t127.5 60q44 0 78 -22t49 -58v63h154v-538q-32 -15 -46.5 -23t-27.5 -21t-13 -28q0 -33 44 -33q26 0 56 10v-82q-42 -11 -93 -11q-59 0 -98.5 23t-39.5 70q0 62 64 95v68q-15 -36 -49 -58t-78 -22q-88 0 -127.5 60t-39.5 187zM186 285v-27
q0 -46 1.5 -72.5t8 -50.5t19 -33.5t33.5 -9.5q47 0 63.5 43.5t16.5 135.5t-16.5 136t-63.5 44q-21 0 -33.5 -10t-19 -34t-8 -50t-1.5 -72z" />
    <glyph glyph-name="aring.salt" horiz-adv-x="520" 
d="M29 235v73q0 127 39.5 187t127.5 60q44 0 78 -22t49 -58v63h154v-538h-154v68q-15 -36 -49 -58t-78 -22q-88 0 -127.5 60t-39.5 187zM186 285v-27q0 -46 1.5 -72.5t8 -50.5t19 -33.5t33.5 -9.5q47 0 63.5 43.5t16.5 135.5t-16.5 136t-63.5 44q-21 0 -33.5 -10t-19 -34
t-8 -50t-1.5 -72zM262 638q17 0 29 11.5t12 28.5q0 18 -12 29.5t-29 11.5t-29 -11.5t-12 -29.5q0 -17 12 -28.5t29 -11.5zM262 589q-40 0 -67.5 25t-27.5 64t27.5 64.5t67.5 25.5t67.5 -25.5t27.5 -64.5t-27.5 -64t-67.5 -25z" />
    <glyph glyph-name="atilde.salt" horiz-adv-x="520" 
d="M29 235v73q0 127 39.5 187t127.5 60q44 0 78 -22t49 -58v63h154v-538h-154v68q-15 -36 -49 -58t-78 -22q-88 0 -127.5 60t-39.5 187zM186 285v-27q0 -46 1.5 -72.5t8 -50.5t19 -33.5t33.5 -9.5q47 0 63.5 43.5t16.5 135.5t-16.5 136t-63.5 44q-21 0 -33.5 -10t-19 -34
t-8 -50t-1.5 -72zM323 692q29 0 31 33h83q-4 -56 -33 -89.5t-72 -33.5q-20 0 -57 16.5t-54 16.5q-29 0 -31 -33h-83q4 56 33 89.5t72 33.5q25 0 62 -16.5t49 -16.5z" />
    <glyph glyph-name="l.ss02" horiz-adv-x="302" 
d="M286 0h-81q-96 0 -129 30t-33 118v577h154v-556q0 -38 15 -51t49 -13h25v-105z" />
    <glyph glyph-name="lacute.ss02" horiz-adv-x="302" 
d="M54 773l55 113h188l-131 -113h-112zM286 0h-81q-96 0 -129 30t-33 118v577h154v-556q0 -38 15 -51t49 -13h25v-105z" />
    <glyph glyph-name="lcaron.ss02" horiz-adv-x="390" 
d="M233 555l25 170h142l-65 -170h-102zM286 0h-81q-96 0 -129 30t-33 118v577h154v-556q0 -38 15 -51t49 -13h25v-105z" />
    <glyph glyph-name="uni013C.ss02" horiz-adv-x="302" 
d="M286 0h-81q-96 0 -129 30t-33 118v577h154v-556q0 -38 15 -51t49 -13h25v-105zM76 -246l38 96h-35v100h118v-107l-44 -89h-77z" />
    <glyph glyph-name="ldot.ss02" horiz-adv-x="384" 
d="M245 359v123h134v-123h-134zM286 0h-81q-96 0 -129 30t-33 118v577h154v-556q0 -38 15 -51t49 -13h25v-105z" />
    <glyph glyph-name="lslash.ss02" horiz-adv-x="302" 
d="M0 252v125l66 36v312h154v-226l70 39v-125l-70 -39v-205q0 -38 15 -51t49 -13h25v-105h-81q-96 0 -129 30t-33 118v140z" />
    <glyph glyph-name="fl.ss02" horiz-adv-x="614" 
d="M62 0v443h-64v95h64v43q0 88 40 116t137 28h68v-91h-37q-32 0 -43 -10t-11 -41v-45h91v-95h-91v-443h-154zM598 0h-81q-96 0 -129 30t-33 118v577h154v-556q0 -38 15 -51t49 -13h25v-105z" />
    <glyph glyph-name="germandbls.ss03" horiz-adv-x="536" 
d="M43 -175v699q0 121 58 167.5t168 46.5q100 0 158 -43t58 -132q0 -60 -27 -100.5t-62 -54.5q51 -16 81 -58.5t30 -128.5q0 -122 -49.5 -171.5t-167.5 -49.5h-49v95h32q43 0 62.5 31t19.5 95q0 65 -19.5 96.5t-63.5 31.5h-31v96h24q37 0 53.5 24t16.5 75q0 95 -70 95
q-35 0 -52 -24t-17 -81v-709h-153z" />
    </font>
</defs>
</svg>
